<svg xmlns="http://www.w3.org/2000/svg" viewBox="0 0 600 400"><path fill="#c00" d="M0 0h600v400H0z"/><path fill="#0080ff" d="M0 0h133.3v400H0z"/><path fill="#5b4431" d="M396.3 283.2c-3.8-.2-7.3 1.1-10 2.2l-2.2.7c-1.7.5-3.2 1-4.8 1.3a34 34 0 01-10.9 0c-1.6-.3-3.2-.8-4.8-1.3l-2.2-.7c-2.7-1-6.2-2.4-10-2.2v-.1l-.8-1-1 .7-.4.2-1 .8.8 1 .2.3-2.7-3.2v-.9l-.1-1.2-1.3.1h-.2l-.4-.4-.5.4a7 7 0 00-2.4-1.5l-.1-1.6-.2-1.2h-1.2l-.4.1-1.3.1.2 1.2v.2l-1 1c-.4 0-.7 0-1.1.2l-1.5-5.7-.3-1.2-1.2.4h-.5l-1.2.4.4 1.2 1.3 5-1-.8-3.2-8.8-.4-1.2-1.1.4-.4.2-1.2.4.4 1.2 1.5 4-.4-.3-4-8.6-.5-1-1 .5-.5.2-1.1.5.5 1 .2.5-3-5.3-.6-1-1 .5-.5.3-.5.3a.7.7 0 00-.4-.2L313 258l-.7-1-1 .7-.4.3-1 .6.7 1 .9 1.3h-3l1.9-5v-.9l-1.6-3.3 3-8.6.5-1-1.2-.5-.4-.2-1.1-.4-.5 1.1-2 5.9-1-2.3 3-8.5.4-1.2-1.1-.4-.5-.1-1.1-.5-.4 1.2-2.1 5.8-1-2 1.6-9.3.2-1.2-1.1-.2h-.5l-1.2-.3-.2 1.2-1 5.1-.4-1.1.8-9.4v-1.2h-1.2l-.4-.1-1.2-.1-.1 1.2-.4 4.3-.2-.4v-10.7h-2.9v1.5l-.5-6-.1-1.2-1.2.2H292l-.8-4.3-.2-1.2h-.5l1.2-2.1c1.3-2.2 2.5-4.6 3.6-6.9l5.4-2.4 1-.5-.4-1-.3-.5-.5-1.1-1 .5-2.5 1 1.2-3 4-2.9 1-.7-.6-1-.3-.4-.7-1-.9.6-.8.5.8-2 3.2-2.6 1-.8-.8-1-.3-.3-.8-1 .7-1.6 1.9-2 .9-.8-1-.8-.3-.4-.8-.8-1.2 1 4-4.6.7-.9-1-.8-.3-.3-.6-.5 2.5-3.6.7-1-1-.7-.4-.3-1-.7.2-.2 1.8-5.3.5-1.1-1.2-.5-.4-.1-1.2-.4-.4 1.1-2.2 6.1-.5-5 1.6-4.4 3 .5 1.1.2.2-1.2.1-.5.2-1.2-1.2-.2-2.4-.4.5-1.5.2-.5h8V142h-6.3l1-.7 9.3-.8 1.2-.1V139l-.1-.5-.2-1.2h-1.1l-4.3.5.4-.3 9.2-1.7 1.2-.2-.2-1.2v-.4l-.3-1.2-1.2.2h-.4l5.8-1.5 1.2-.3-.3-1.2-.1-.5-.2-.8.6-.2 4.6 2.1 1.1.6.5-1.2.2-.4.5-1.1-1-.5-2-1 .7-.2-.4-1.1-.2-.5v-.1l7.4 2 1.1.2.4-1.1v-.5l.4-1.2-1.2-.3-5-1.3 1.2-.5 9.2 1.7 1.2.2.2-1.2v-.5l.3-1.2-1.2-.2-4.2-.8.4-.1 9.4.8 1.2.1.1-1.2v-.5l.2-1.2-1.2-.1h-.4 7.2v-2.5l4.4-.4 1.2-.1-.1-1.3v-.4l-.1-1.2.2-.1 5.2-2 1.2-.3-.4-1.2-.2-.4-.4-1.2-1.2.4-6.3 2.4.2-.3 3.4-3.6 6.1-2.2 6.1 2.2 3.5 3.6.2.3-6.4-2.4-1-.4-.5 1.2-.2.4-.4 1.2 1.1.4 5.3 1.9.2.1v1.2l-.1.4-.1 1.3h1.2l4.4.5v2.5h7.2-.4l-1.2.2.1 1.2v.5l.2 1.2 1.2-.1 9.4-.8.4.1-4.2.8-1.2.2.2 1.2v.5l.3 1.2 1.2-.2 9.2-1.7 1.1.5-5 1.3-1.1.3.3 1.2.1.5.3 1.1 1.2-.3 7.4-2v.2l-.3.5-.3 1.1.7.3-2 1-1 .4.5 1.1.2.4.5 1.2 1-.6 4.6-2.1.7.2-.2.8-.1.5-.3 1.2 1.2.3 5.8 1.5h-.4l-1.2-.2-.2 1.2-.1.4-.2 1.2 1.2.2 9.2 1.7.4.3-4.3-.4-1.2-.1v1.2l-.1.5-.1 1.2 1.2.1 9.3.8 1 .7h-6.4v3h8.1l.2.4.5 1.5-2.5.4-1.1.2.2 1.2v.5l.3 1.2 1.1-.2 3-.5 1.6 4.5-.5 4.9-2.2-6-.4-1.2-1.2.4-.4.2-1.2.4.4 1.1 2 5.3v.2l-1 .7-.4.3-1 .7.8 1 2.5 3.6-.6.5-.4.3-1 .8.9 1 3.8 4.6-1.1-1.1-.9.8-.3.4-.9.8 1 .9 1.8 1.9.7 1.7-.8.9-.3.4-.8 1 1 .7 3.1 2.6.8 2-.7-.5-.9-.6-.7 1-.3.4-.6 1 1 .7 4 3 1.2 3-2.4-1.1-1.1-.5-.6 1-.2.5-.5 1.1 1.1.5 5.4 2.4a93 93 0 004.8 9h-.5l-.3 1.2-.7 4.4-.8-.1h-.5l-1.2-.2v1.3l-.6 6v-1.6h-2.9v10.7l-.2.4-.4-4.3v-1.2h-1.3l-.5.1-1.2.1.1 1.2.8 9.4-.5 1.1-.9-5-.2-1.3-1.2.2-.5.1-1.2.2.2 1.2 1.7 9.2-1 2-2-5.7-.5-1.2-1.1.5-.5.1-1.1.4.4 1.2 3 8.5-1 2.3-2-5.9-.5-1-1.1.3-.5.2-1.1.4.4 1.1 3.1 8.6-1.5 3.3v1l1.7 5-2.9-.1.9-1.3.7-1-1-.6-.4-.3-1-.7-.7 1-2.4 3.3-.4.2-.4-.3-.4-.3-1-.6-.7 1-3 5.4.2-.4.5-1.1-1.1-.5-.5-.2-1-.6-.6 1.1-4 8.6-.3.3 1.5-4 .4-1.2-1.2-.4-.4-.2-1.1-.4-.4 1.2-3.3 8.8-1 .8 1.4-5 .4-1.2-1.2-.3-.5-.1-1.2-.4-.3 1.2-1.5 5.7-1.1-.2-1-1v-.2l.1-1.2H408l-.4-.1-1.3-.1v1.2l-.2 1.6c-.9.3-1.6.8-2.4 1.5l-.6-.4-.3.4h-.3l-1.2-.1-.1 1.2v1l-2.7 3 .2-.2.7-1-1-.8-.3-.2-1-.7-.8 1v.1zm-6-202.5h-.6l-.5.7-.3.3-.8 1-.2-.2-3.9-1.8h-2.7l-.3.5-.5 1 1.1.6 5.9 2.8h-5l-7.3-3.3-.5-1-.9.3-.8-.4-.5 1-7.3 3.5-5-.1 5.8-2.8 1.2-.5-.6-1-.2-.6h-2.7l-4 1.8-.2.2-.7-1-.3-.3-.5-.7h-.7l-.5.5-3.4 2.9-.5-.6-.4-.4-.8-.8-1 .8-4.2 4.3.3-.3.8-.9-1-.8-.3-.3-1-.8-.7 1-6 7.2-.5.2 2.4-3.5.8-1-1-.8-.4-.2-1-.7-.7 1L335 92l-.5.3-.5-.6-.2.2.5-.8.6-1-1-.6-.5-.3-1-.6-.6 1-2.7 4.7c-1.3.4-2.3 1-3 1.5l.2-.5.7-.6-.4-.4.6-1.4.4-1.2-1.2-.4-.4-.1-1.1-.5-.5 1.2-.6 1.7-4 3.5-1-.8-.4-.2-1-.7-.7 1-2.5 3.6-.8-.4-.3-.2-1-.7-.7 1.1-2.6 4.6-1.2 1.2-1.9 1.6-2 1.2c-3.4 2-4.7 4-5 6.3l-.6.6-.5.4 1.4-3.5c1.8-5 3.6-10.5 5.6-16.7l1.1-5.6-3.3 4.6a264.2 264.2 0 00-11.6 19.7h-1.3l-1.2-.2-.1 1.2-.4 4.9c-.6 1-1 2.2-1.6 3.3l-1.4 3-.2.2-.4.8v.6l-1.4 3.2-1.1 1.4c-2.8 3.2-3.4 5.8-2.8 8.3v.2l-.2 1-1.4 4-1-3.4 1.6-9.2.2-1.2-1.2-.2-.4-.1-1.2-.2-.3 1.2-1.6 9.2-2.9 4-.2.3 1.2-6.7.2-1.2-1.2-.2h-.5l-1.2-.3-.2 1.2-1 5.5v.3h-1.2l-.5.1-1.2.1.1 1.2.4 4.4-.8.2h-.4l-1.2.3.2 1.2 1 6v-.4l-.4-1.2-1.2.3-.4.1-1.2.3.3 1.2 2.3 8.4-.2.5-1.2-3.3-.4-1.2-1.1.4-.5.2-1.1.4.4 1.1 3.1 8.9-.2 1.2-2.1-4.7-.6-1.1-1 .5-.5.2-1 .5.4 1.1 4 8.5-.4 2.2-3.6-5-.6-1-1 .7-.4.3-1 .7.7 1 5.2 7.4-.7 3.6.2 1 1.4 1.9-.6.1-.5.1-1.1.4.3 1.1 1.2 4.7-4.3-10.5-1-2.4-1.3-2.4v5.4l2.5 20-.1.2-1 .6.5 1 1.1 2 .3 2.4-.2.2-1 .7.7 1 1 1.4.4 3.2-.3.2-1 .8.8 1 2.3 2.6 4.3 10.6v.5a13 13 0 002.6 7.5l-4.6-2.7-1-.6-.6 1-.3.5-.6 1 1 .6 7.9 4.6.6 2.3-5.3-3-1-.7-.7 1-.2.5-.6 1 1 .7 8 4.5.8 3.6.2.4.4.3 5.6 3.3a15.7 15.7 0 012.2 4.3l-11.4-6.2-4-2 2.7 4a264 264 0 0020.3 17.2v.2l-.6 1.2 1.1.5 5.5 2.5h-.4l-1.1-.5-.4 1.1-.2.5-.4 1.1 1.1.4 8.9 3.3 2.4 2.4.4.4.7.7.7.7 3 3.1h.1l.7.7.6.6 1.3 1.3-8-.4h-2.4l-2.8.1 2.5 1.3 2.3 1c8.5 2.7 15.8 4.8 22.8 6.4v.6l-11.4 5.4-2.3 1.1 2.3 1.1 3.3 1.6.6.2 1 .5 3.2 1.5.6.3.7.3 2.4 1.1.7.4 1 .4 2.3 1 .7.4.7.4h.2l2 1 .8.3h.1l.6.4 2 .8.7.4.5.3.3.1 2.3 1.1 1 .4.6-.8 11.2-16h1l-.3.6-.2.4v.8l.2.2.4.2h1l.5-.2c2.2-.5 4-1 5.8-1.6 4.2-1.2 7.4-2.2 12-2.2h.6c4.7 0 8 1 12 2.2l6 1.6.4.2h1l.3-.2.2-.2.1-.4v-.4l-.2-.4c0-.2-.2-.4-.3-.5h1l11.2 16 .6.7 1-.4 2.3-1 .2-.2.6-.3.8-.4 2-.8.4-.3h.2l.8-.4 2-1h.2l.7-.4.7-.3 2.2-1 1-.5.7-.4 2.5-1 .7-.4.5-.3 3.3-1.5 1-.5.5-.2 3.4-1.6 2.3-1-2.3-1.2-11.4-5.4v-.6a277 277 0 0022.7-6.4l2.4-1 2.5-1.3H445c-2.7 0-5.4.2-7.9.3l1.3-1.2.6-.7.6-.7 3.2-3.1.7-.7.7-.7.4-.4 2.4-2.4 8.9-3.3 1.1-.4-.4-1.1-.2-.5-.4-1.1-1.1.4-.4.1 5.4-2.5 1.2-.5-.6-1.2v-.2a246 246 0 0020.3-17.3l2.6-4-3.9 2.1-11.4 6.2.7-1.6c.4-.9.8-1.8 1.5-2.7l5.6-3.3.4-.3.1-.4 1-3.6 7.8-4.5 1-.6-.5-1-.3-.5-.6-1-1 .5-5.3 3.1.6-2.3 7.8-4.6 1-.6-.5-1-.3-.5-.6-1-1 .6-4.7 2.7c1.5-1.7 2.3-4 2.6-7.5v-.5l4.4-10.6 2.2-2.7.8-1-1-.7-.2-.2.4-3.2 1-1.4.7-1-1-.7-.3-.2.4-2.4 1-2 .7-1-1.1-.6-.2-.2 2.6-20v-5.4l-1.2 2.4-1 2.4-4.4 10.5 1.2-4.7.3-1.1-1.2-.4h-.4l-.6-.2 1.4-2 .2-.9-.7-3.6 5.2-7.4.7-1-1-.7-.4-.3-1-.7-.6 1-3.6 5-.4-2.2 4-8.5.5-1-1.1-.6-.5-.2-1-.5-.6 1-2.2 4.8-.2-1.2 3.2-8.9.4-1-1.1-.5-.5-.2-1.1-.4-.4 1.2-1.2 3.3-.2-.5 2.3-8.4.3-1.2-1.2-.3-.5-.1-1.1-.3-.3 1.2-.1.4 1-6 .2-1.2-1.2-.2-.4-.1-.8-.2.4-4.4v-1.2h-1.1l-.5-.2H480v-.3l-1-5.5-.2-1.2-1.2.2h-.5l-1.2.3.2 1.2 1.2 6.7-.2-.3-3-4-1.6-9.2-.2-1.2-1.2.2h-.5l-1.1.3.2 1.2 1.6 9.2-1 3.4-1.4-4-.2-1v-.2c.6-2.5 0-5.1-2.8-8.3l-1.1-1.4-1.4-3.2v-.6l-.5-.8-.1-.1-1.4-3.1-1.6-3.3-.4-4.9-.1-1.2-1.2.1h-.5l-.8.1a265.5 265.5 0 00-11.6-19.7l-3.4-4.6 1.2 5.6a310.7 310.7 0 007 20.2l-.5-.4-.6-.6c-.3-2.4-1.6-4.4-5-6.3l-2-1.2-2-1.6-1-1.2-2.7-4.6-.6-1-1 .6-.5.2-.7.4-2.5-3.6-.7-1-1 .7-.4.2-1 .8-4-3.5-.7-1.7-.4-1.2-1.1.5-.4.1-1.2.4.4 1.2.5 1.4-.3.4.7.6.2.5a9 9 0 00-3-1.5l-2.7-4.6-.6-1.1-1 .6-.4.3-1.1.6.6 1 .5.8-.2-.2-.5.6-.5-.3-3.2-4.6-.7-1-1 .7-.4.2-1 .8.7 1 2.5 3.5-.4-.2-6-7.2-.9-1-.9.8-.4.3-.9.8.8 1 .3.2-4.3-4.3-.9-.8-.8.8-.4.4-.5.6-3.4-2.9zM373.8 85l7.5 3.4 3 3.9.3.3-6.2-2.9-1-.5-.6 1.1-.2.5-.5 1 1.1.6 5.1 2.4.2.1-.2 1.2v.4l-.3 1.2 1.2.2 4 .7-.2.3-.7 1h-.2l-5.3-2-1.1-.4-.4 1.1-.2.5-.4 1.1 1.1.4 6.1 2.3-5 .5-3.5-1.2-.2-.8-.2-.4-.4-1.2-1.1.4-1.7.6-1.6-.6-1.1-.4-.5 1.2-.1.4-.2.8-3.6 1.2-4.9-.5 6-2.3 1.2-.4-.4-1.1-.2-.5-.4-1.1-1.1.4-5.3 2h-.2l-.7-1-.2-.3 4-.7 1.2-.2-.3-1.2V96l-.2-1.2.2-.1 5-2.4 1.2-.5-.6-1.1-.2-.5-.5-1-1 .4-6.2 3 .2-.4 3.1-3.9 7.4-3.4z"/><path fill="#007cc3" d="M352.3 284.4c4.2 0 8.2 2 11 2.9a32.3 32.3 0 0021.2 0c2.7-.8 6.6-2.8 10.9-3l-1 1.6a20.9 20.9 0 00-8.4 15c-.4 3.7-.4 9.3 6.5 14l.2.4-.4-.1c-20.4-5.2-16.6-5.2-37 0h-.4l.3-.2a13.7 13.7 0 006.5-14 21 21 0 00-8.4-15.1l-1-1.5zm86.6 13.2l4.8-4.9c-4.8-2.3-10.6-3.7-15.7-5.5l-4.3.8-1 .7 5.2-.4 1.2-.1.1 1.2v.5l.2 1.2-1.3.1-9.2.8-1.7 1.5 6 .5 1.3.1-.1 1.2v.5l-.2 1.2H423l-6.7-.7c10.3 5 15.7 8.8 22.6 1.3zm-28-18l-2-.3-.3 3.9 1.7-1.4.6-2.2zm-5 .2a6 6 0 00-1.8 1.4l-.5 6.2 1.8-1.5.6-6zm-5 5l-1.9 1.5 1.7.8.2-2.4zm65.5-15.3c.8-2.1 1.5-4.2 3-6.3-6.5-.6-13.2.6-19.7 0-6.2-.5-11-1.3-14.3-1l-2.6 3.6-.5 6.2 6 .5 6.9-3.2 1-.4.6 1 .2.5.5 1-1.1.6-4 1.9.3.7.2.5.2.7 2 .2c11.5 1 17.9 3.2 21.3-6.5zm15.8-31.4c.1-2.2.3-4.5 1.3-6.8-6.5 1-12.6 4-19 5.1l-.6.1-4.8 3.4-.5 1 4.4-2.5 1-.6.7 1 .2.5.6 1-1 .6-8 4.7-1 2 5.8-2 1.1-.5.4 1.2.2.4.4 1.2-1.2.4-6.6 2.4c2.6-.1 5.1-.3 7.7-.7 11.4-2 18-1.6 18.9-11.9zm3.4-36c-.6-2.1-1.1-4.3-1.1-6.9-5.7 3.4-10.5 8.2-16.1 11.4l-9.7 5.5-.7 3.9 2.1 5.8 5.8-2.2 4.8-5.7.8-1 1 .8.3.4 1 .7-.8 1-2.8 3.4.5.5.4.4c.3 0 .5-.2.8-.3 10-5.9 16.5-7.7 13.7-17.6zm-4.1-38.2c-1.2-2-2.3-3.8-3-6.3a91.5 91.5 0 00-6.2 7.5v.4l-2.5 9.1v.5l1.5-4.1.4-1.2 1.2.5.4.1 1.1.4-.4 1.2-3.1 8.8.2 1.3 2.1-4.7.6-1.2 1 .6.5.2 1 .5-.4 1-2.4 5.2c7.7-7.6 13-11.1 8-19.8zm-24.7 18l-.6.7 1.8 1.8-.3-1.3-1-1.1zm-2.2 3.2l-.3.7 3.9 5 1 .8-.4-2.2-4.2-4.3zm10.5-51.6a19.6 19.6 0 01-3.3-4.9c-2.2 3.1-3.8 6.7-5.6 10h.6l1.2-.3.2 1.2 1.7 9.3 1 1.4-1.4-5.2-.3-1.2 1.2-.3.5-.1 1.1-.3.4 1.1.2.8h.2l.5-.2 1.2-.2.2 1.2v.4c.7-.8 1.2-1.6 1.6-2.4l-.3-2-.2-1.3 1.2-.2h.5l.1-.1c.3-2.1-.3-4.2-2.5-6.7zm-9.7 6.5l-1.9 3c-5.9 8.5-9.8 12.3-6.6 16.6 1.1 1.5 2.4 2.9 3.3 4.9l1-1.4-.4-.5-.5-1 1-.7.4-.2.7-.4-1.9-4-.5-1.2 1.1-.4.5-.3 1-.5-1-5.7-.2-1.2 1.2-.2.5-.1 1.2-.3.2 1.3 1 6.4h.1l1.4-4.8-1.6-9.3zm1.4 16.7v-.1l-1-1.5.1 1 1 .6zm-13.3-47.1c-1.5-.9-3-1.7-4.3-3-1.2 4.7-1.2 9.7-2.5 14.4-2.3 8.9-4.4 13.3-.5 15.8 1.4 1 2.9 1.7 4.2 3 1.3-4.7 3.8-9 5-13.7 2.2-8.4 4.7-12.8-2-16.5zm-26.2-14.3c-1.4-.4-2.8-.8-4.3-1.6 0 4.3 1.1 8.6 1.1 12.8 0 8.1-.8 12.4 3.2 13.7 1.4.4 2.8.7 4.3 1.6 0-4.4 1.1-8.6 1.1-13 0-7.6 1.1-11.8-5.4-13.5zM308.8 297.5c-1.5-1.7-3-3.2-5-4.8 4.8-2.3 10.8-3.7 15.8-5.5l4.4.8 1 .7-5.2-.4-1.2-.1-.1 1.2v.5l-.2 1.2 1.2.1 9.3.8 1.7 1.5-6 .5-1.3.1.1 1.2v.5l.2 1.2h1.2l6.7-.7c-10.3 5-16 9-22.6 1.2zm28-17.9a7 7 0 012-.3l.3 3.9-1.7-1.4-.6-2.2zm5 .2a6 6 0 011.8 1.4l.5 6.2-1.9-1.5-.5-6zm5 5l1.9 1.5-1.7.8-.2-2.4zm-65.5-15.3c-.8-2.1-1.5-4.2-3-6.3 6.5-.6 13.1.6 19.7 0 6.2-.5 10.9-1.3 14.3-1l2.6 3.6.5 6.2-6.1.5-6.8-3.2-1-.4-.6 1-.2.5-.5 1 1 .6 4 1.9-.2.7-.2.5-.2.7-2 .2c-11.6 1-18 3.2-21.3-6.5zm-15.8-31.4c-.2-2.2-.4-4.5-1.3-6.8 6.5 1 12.6 4 19 5.1l.6.1 4.8 3.4.5 1-4.4-2.5-1.1-.6-.6 1-.3.5-.6 1 1 .6 8.1 4.7 1 2-5.8-2-1.1-.5-.4 1.2-.2.4-.4 1.2 1.1.4 6.6 2.4c-2.5-.1-5-.3-7.6-.7-11.4-2-18.1-1.6-18.9-11.9zm-3.5-36c.6-2.1 1.2-4.3 1.2-6.9 5.7 3.4 10.4 8.2 16.1 11.4l9.7 5.5.7 3.9-2.1 5.8-5.8-2.2-4.9-5.7-.7-1-1 .8-.4.4-.9.7.8 1 2.8 3.4-.6.5-.3.4c-.3 0-.6-.2-.8-.3-10-5.9-16.5-7.7-13.8-17.6zm4.2-38.2c1.2-2 2.3-3.8 3-6.3 2.2 2.3 4.2 4.9 6.2 7.5v.4l2.5 9.1v.5l-1.6-4.1-.3-1.2-1.2.5-.4.1-1.2.4.4 1.2 3.2 8.8-.2 1.3-2.2-4.7-.5-1.2-1 .6-.5.2-1.1.5.5 1 2.4 5.2c-7.8-7.6-13-11.1-8-19.8zm24.7 18l.5.7-1.7 1.8.2-1.3 1-1.1zm2.2 3.2c0 .3.2.5.3.7l-4 5-1 .8.5-2.2 4.2-4.3zm-10.5-51.6c1.2-1.5 2.4-3 3.3-4.9 2.2 3.1 3.8 6.7 5.6 10h-.7l-1.1-.3-.3 1.2-1.6 9.3-1 1.4 1.3-5.2.3-1.2-1.1-.3-.5-.1-1.2-.3-.3 1.1-.2.8h-.3l-.4-.2-1.2-.2-.2 1.2-.1.4-1.5-2.4.3-2 .2-1.3-1.2-.2h-.5l-.2-.1c-.2-2.1.4-4.2 2.6-6.7zm9.7 6.5l1.8 3c6 8.5 9.9 12.3 6.7 16.6-1.1 1.5-2.4 2.9-3.3 4.9l-1-1.4.3-.5.6-1-1-.7-.4-.2-.7-.4 1.9-4 .5-1.2-1.1-.4-.5-.3-1-.5 1-5.7.2-1.2-1.2-.2-.5-.1-1.2-.3-.2 1.3-1.1 6.4-1.4-4.8 1.6-9.3zm-1.5 16.7v-.1l1-1.5h.1l-.2 1-.9.6zm13.4-47.1c1.5-.9 3-1.7 4.2-3 1.3 4.7 1.3 9.7 2.5 14.4 2.4 8.9 4.5 13.3.6 15.8-1.4 1-2.9 1.7-4.2 3-1.3-4.7-3.8-9-5-13.7-2.2-8.4-4.7-12.8 2-16.5zm26.2-14.3c1.4-.4 2.8-.8 4.3-1.6 0 4.3-1.2 8.6-1.2 12.8 0 8.1.8 12.4-3.1 13.7-1.4.4-2.8.7-4.3 1.6 0-4.4-1.1-8.6-1.1-13 0-7.6-1.1-11.8 5.4-13.5z"/><path fill="#fbdd73" d="M367 105l-3.5 3.9-5.8-.7 4-4.2 5.2.6 9-3.3.2.4-9 3.4zm-1.4-17.6l-3.2 4h-5.7l3.5-4.6 5.2.1 6.4-3 .6.3-6.8 3.2zm-8-2.5l7.7-3.6.3.4-8.2 3.8-2 5.8-4.5 2.1 2.4-6.5 4.4-2zm-5.7 2.7l-2.4 6.4-4.4 2.1 2.4-6.5 2.7-1.2 7.3-6.3.4.4-6 5zm-5.8 2.7l-2.4 6.5-4.4 2 2.4-6.4 3-1.5 7-6.9.3.3-6 6zm-5.8 2.7l-2.3 6.5-2.8 1.2.1-.4.5-5V95l3.5-1.6 6.2-7.5.4.3-5.6 6.7zm-4.4 0l3.2-4.8.4.2-3.6 5.4v-.9zm-5.1 1l2-3.6.4.2-1.8 3.1-.6.2zm-7.7 5.3l.6-1.7.8-.6-.8 2.2-.6.1zm2.3-6.4l.2-.5.4.2-.2.8-.4-.5zm36.9 1.9l7.6-3.6-.2-.4-8.1 3.8-5.8-2.2-4.4 2.1L358 97l4.4-2.1zm-5.8 2.7l-6.5-2.3-4.4 2 6.5 2.4 2.7-1.3 9.5-1.7-.1-.4-7.7 1.3zm-5.8 2.7l-6.5-2.3-4.3 2 6.4 2.4 3.1-1.5 9.7-.8v-.5l-8.4.7zm-5.8 2.7l-6.4-2.3-3.4 1.6-.2.8 5.6 2 3.4-1.6h9.7v-.5h-8.7zm-5.8 2.8L335 104l-.2 2.4v1.2l3.5-1.6 9.6.8v-.5l-8.7-.7zm-4.4 3.4l4.8.9v-.1l.6-.3-5.4-1v.5zm6.7 1.2l.7.1v-.5l-1.1-.2.3.5zm18-8.4h-.1l8-3 .1.5-8.4 3.1-2.6 5.6-4.5 1.7 2.3-5.1h.6v-1.2l4.5-1.6zm-6.3 2.8l-2.7 5.6-4.5 1.7 1.8-3.9 1.3.2v-1.8l.2-1 2.3-.8h1.6zm1.7-2.3l1.3-1h1l-2.3 1.6v-.6zm-8.3 5.6l-2.1 4.5-4.5 1.7.6-1.3.8-.6.9-.6.9.1.2-1.2v-.5l.3-1.2-1.2-.2.4-.8.4-.2 3.3.3zm1.3-2.8l.6-.5h.8l-.7.6h-.5l-.2-.1zm-6.5 3.3h-.6l.8-1 .6.1-.8.9zm-2.6 5.6l-.3.6-1.1.4 1.4-1zm-3.1-1.4l.9-2 1.6.2-2.5 1.8zm8.6-7.8l.2-.2h.7l-.3.2h-.6zm-8.9 5.8l-.5 1v-1.2l.1-.1h.6l-.2.3zm2.6-3.1l-.3.3h-.3l.6-.3zm25.1 4.6l8-3-.2-.4-8.4 3-5.6-2.5-4.5 1.6 6.2 3 4.5-1.7zm-6 2.2l-6.2-3-4.5 1.7 6.2 3 2.8-1 9.6-1v-.4l-7.9.7zm-6 2.2l-6.2-3-4.5 1.7 6.2 2.9 3.2-1.2h9.7v-.4H351zm-6 2.2l-6.2-3-4.4 1.6v.2l2 1 .2-.2 1-.7.8 1 .2.4.4.7 1.5.6 3.5-1.2 9.6.8v-.5l-8.6-.7zm-6 2.2l-.5-.3-.2.1-1 .8.8-.3 9.5 1.7v-.5L339 121zm-3.5-1.7l-1.5-.7c-.4 1-1 1.6-2 2.2l-.3.5.5.3 3.3-2.3zm-1.5 4.6l7.6 2 .1-.4-7.2-2-.5.4zm-2.4 4l3.4 1.7.3-.4-3.1-1.5-.6.3zm-7.9-22.8l-4.5 1.2 2.2-5.4 2.5-.6c-.2 1.4-.2 3-.2 4.8zm-5.2-5.3l6.5-5.5.3.4-6.9 5.8-.5 6.1-3.7 3.2.6-6.9 3.7-3.1zm-5 4.1l-.5 6.9-2.2 1.8c-.3-1.8-.5-3.6-1-5.4v-.2l2.3-1.9 5.6-8 .4.3-4.5 6.5zm-4 1.8l3-5.2.4.2-3.3 5.6-.1-.6zm-9.7 16.1l-.3.4V121c.2.2.2.6.3.8zm-1-4.4l-.5 5.8-3.7 3 .3-3.9 1.8-4.1 2-1.8v1zm-5.2 8l-.2 1.9h-.2v.2l-1 .8.8-1.6.6-1.3zm-4.3-8.2l.1-1.8h.5v.7l-.6 1.1zm34.5-9.2l-5.1-.4-3.8 3 6.9.7 2-1.7V108zm-3.2 4.3l-6.8-.6-2.9 2.3.2 1 5.8.4 1-.8.2-.4v.1l1-.8 4.8-2.2v-.5l-3.3 1.5zm-5 4.1l-4.4-.4.4 2.4.6-1 1 .6.4.2 1-.9 1.8-.6.5-.7-1.2.4zm4.2-1l.8-.2.6-.8-2 .7.2.1.4.2zm-5.9 4.8l.5-.6h-.1l-.2.3-.2.3zm-13.8 4l-1-.1-3.7 3.1 3.5.3.9-2.4.3-1zm-1.6 4.4l-2.6-.3v.8l-.6 2.7 2 .1 1.2-3.3zm-5.7.7L291 131c0 .2 0 .3-.2.5l1.7.1.4-2.2zm8.5 0h.7l-.1-.6h-.4l-.2.6zm-9.8 6.7h.1l.6-3.4-2-.2-.3.6 1.2 2.3.4.7zm3.5-2.1l.6-.5 1.1.1.2-.5-1.8-.1-.1 1zm29.9-11.7h-.3l.3-.6v.6zm9.8-7.4l5.6-4 .3.5-5.9 4.1v-.6zm-10.2 1.6h-.2l-1 6.2-4 2.8 1.2-6.8 3.9-2.8v.6zm-5.3 3l-1.2 6.8-3.6 2.6-.2-.6 1-6 2.5-1.7 6.2-7.4.2.2v.3l-4.9 5.8zm-5.2 3.7l-.5 2.6-.3-1.2-.2-.8 5.4-7.7.4.2-4.8 7zm-9.4 12.6l-1 .7.4-2.2.6 1.5zm7.4-15.5l.7-1.2.4.3-1 1.5v-.1l-.1-.5zm-8.8 12.1l-.9 5-4 2.8 1.2-6.8 3.2-2.2.5 1.2zm-5 1.9l-1.1 6.8-2 1.3-1.4-2.1.6-3.2 3.3-2.3 3.3-9.1.2.7-2.8 7.9zm-5.7 3.8l1.6-9.2h.5l-1.7 9.9-.4-.7zm38.2-13.2l7-5-.3-.4-7.4 5.2-4.9-.8h-.2l-1-.2-4 2.7 6.8 1.2 4-2.7zm-5.3 3.6l-6.7-1.2-4 2.8 6.8 1.2 2.4-1.7 9-3.3v-.5l-7.5 2.7zm-5.2 3.7l-5.4-1a8 8 0 01-.1 3.5l1.6.3 2.8-2 9.3-2.5v-.5l-8.2 2.2zm-5.2 3.7l-.7-.1c-.3.5-.7 1-1.2 1.4l1-.6 9.5-1.8v-.4l-8.6 1.5zm-10 1l-.7.6 1 .2c0-.3-.2-.5-.3-.7zm4.8 2.7h-.2c-.4.2-.8.6-1.2 1l.6-.5 9.6-.8v-.5l-8.8.8zm-4.1-.7l-2.7-.5-4 2.8 6.8 1.2.7-.6-.4-1.6-.4-1.3zm-1.2 4.4l-6.7-1.2-2 1.3 1.5 2 3.3.7 3.2-2.4h.2l.2-.5 1.1.5h8.3v-.4h-9zm-5.8 4l3.8.7.1-.5-4.4-.8.5.7zm6.7 1.2l2.7.5.1-.5-2.7-.4-.1.4zm-30.8-5.6l-3.1 4.2 1.6 5.6 3.4-4.7-1.4-5 1.6-9.5-.5-.1-1.6 9.5zm4.6 6.1l1.3-7.4h-.5l-1.3 7.3.5.1zm-1 1.6l-4.8 3.4-.8 4.8 1.4-1v-2h2.8l1.4-5.2zM274 159l-1.2.8 1.2 1.5V159zm3.6 3.2l.2-.4v-.1l-.2.5zm-9 19.6l-.4 1.9v.2l.8-.5-.5-1.6zm.5 2.8l-.4.3.2.6v-.3l-.2-.3.4-.2zm-1.9 4.8l-.1.9.3-.3-.2-.6zm-.4 2.4v.3l.2.5.3-1.1-.5.3zm1.5-43.8l1.5-8.4h.5l-1.6 9 3.6 5-.9 4.7-.7-.8-3.2-4.7.8-4.8zm-1 6.3l1 1.6-.4 1.4a15 15 0 01-1 2.7l-.6-.9.6-3-.9-9.6h.5l.7 7.8zm-1.2 6.4l.3.4-.6 1.1v-.1l-1.6-9.6.4-.2 1.5 8.4zm-2 4.8l-1.8-6.8.4-.1 1.7 6.2-.3.7zm3.7 13.7l-.4 2.1-.3-.7-.4-1.1-1.2.4-.4.1-.5.3-1.6-2.2.7-3.9-3.3-9 .5-.2 2 5.8c.3 3 2.1 5.5 4.9 8.3zm-5 .4l1.8 2.7 1.8 4.8-.5 3-1.9-2.6v-.3l-.7-1h-.1l-1.3-1.8.7-4-4-8.8.4-.2 3.8 8.2zm0 14l-2-2.9.4-2.3.2.3 3.6 6.2-1.2-.7-1-.6zm-1.4-6.3l.1-.7-5.4-7.8.3-.3 5.8 8.3-.3.2-.5.3zm42-92a238.7 238.7 0 01-14.2 36.4l-1.4-2.4 5-11.6-5.6 10.7-.3-.5-.8-1.2 1.2-2.7c4.2-9.1 9.2-17.9 16.1-28.7zm-14.5 54l-3 4.2 1.6 5.5 3.4-4.7-1.5-5 1.7-9.5h-.5l-1.7 9.4zm-4.2 6l-.2-1.3-.1.7.3.6zm-.2-1.4l.1-.4-.1.4zm.3-1l2.2-8.2-.5-.1-1 3.8-.8 4.6v-.1zM274.4 193l-.4 1.3.5-.3.1-.6-.2-.4zm-.2 2.4l-.6.4-1.1 4.5v.1l2.5-1.4-.8-1.1-.2-1 .2-1.5zm2.3 8l.2-.1.3-1.3-1.4-2-2.1 1.2 3 2.2zm1-45.5l1.6-6 .1 1.2v.2l-1.2 4.4-.5.2zm1.6-6l.4-1.6h.5l-.4 1.5h-.5zm-2.6 12l-.4-.7 1.2-4.5v.4l1 6v-.4l-.3-1.2-1.2.4h-.3zm-1.3-1v-6h.5v6.6l-.5-.7zm-.2 23.3l-.5 1.6-2.6-4.7 2.2 2.3.9.8zm-4.3-2.9v.2l-.4.3-.7-2.9.6.7.5 1.7zm2.8 8.4l-.6 2.3-3.5-6 .4-1.5 3.7 5.2zm-4.5-2.2l3.5 6-1.1 4h-.1l-1-.8-2.5-4.5 1-3.9-3.3-9.1.5-.2 3 8.5zm-1.8 7l-4.8-8.4.4-.3 5.4 9.3-1-.7zm26.2-40.2l1.5-8.3-.5-.1-1.6 8.8-5 3.6-.8 4.8 5.6-4 .8-4.8zm-1 6.4l-5.7 4-.9 4.7 5.7-4 .5-2.9 4-8.8-.4-.2-3.3 7.2zm-1.2 6.3l-5.6 4-.9 4.8 5.7-4 .6-3.4 4.8-8.4-.4-.3-4.2 7.3zm-1.1 6.3l-5.6 4-.9 4.8 5.7-4 .6-3.7 5.6-8-.4-.2-5 7.1zm-1.1 6.4l-5.6 3.9-.9 4.8 5.6-4 .7-3.8 6.2-7.4-.3-.3-5.7 6.8zm-1.1 6.3l-5.6 4-.9 4.7 5.6-4 .7-3.9 6.9-6.9-.4-.3-6.3 6.4zm-6.7 10.2l-.9 4.8 5.6-4 .7-4 7.9-5.5-.3-.4-13 9.1zm1.5-43.8l1.5-8.4.5.1-1.6 9 3.5 5-.8 4.8-4-5.6.9-4.9zm-1.1 6.4l3.9 5.6-.8 4.8-4-5.6.5-3-.8-9.6h.5l.7 7.8zm-1.1 6.3l3.9 5.6-.9 4.9-3.9-5.7.6-3.4-1.7-9.6h.5l1.5 8.2zm-1.1 6.3l3.9 5.7-.9 4.8-4-5.7.8-3.6-2.5-9.5h.4l2.3 8.3zm-1.1 6.3l3.9 5.7-.9 4.8-3.9-5.7.7-3.8-3.3-9.1.4-.2 3 8.3zm-1.2 6.4l4 5.6-.9 4.8-3.9-5.6.7-4-4.1-8.8.4-.2 3.8 8.2zm2.9 12l-.9 4.7-3.9-5.6.7-4.1-5.5-7.9.4-.3L280 198zm22.4-45l3-8.2-.5-.2-2.8 7.9.3.6zm2.4 8.4l3-8-.5-.2-3.1 8.5-5.3 2.5-.3.6-.8 1.6-.8 2.5 6.2-3 1.6-4.5zm-2.2 6l-6.2 3-1.2 3.3.2.1.4.3.3.2 4.9-2.3 1-2.8 5.5-8-.4-.2-4.5 6.5zm-2.1 6.1l-4.2 2-.4.4-2.6 3.1-.7 2 .8-.4.8-.9.3.3 4.1-1.9.3-.3 1-3 6.3-7.4-.4-.3-5.3 6.4zm-3.3 6.5l-1.8.9.6.7 1.2-1.6zm-3.2 4.1l.3-.3-.3.3zm7.7-2.7l1.5-1.2-.4-.4-.7.7-.4 1zm-3 7.4l2.9-2-.3-.4-2.3 1.6-.3.8zm-3 7.5l4.4-2-.2-.5-4 1.9-.3.6zm.2-32.1l.1.2.5.6.4.6-.7 1.8-.5-.3-.8-.6-.2-.3 1.2-2zm-1.8 3.1l-.3.4.3-.4zm.6 4.2l-.8 2.2-.2.3-.2.3-.3-.6 1.5-2.2zm-2.2 3.2l.2.5-1.7 2v-.3l1.5-2.2zm-.9 14.6l12-15.6c-5.4 13.3-7.5 24-16.6 35.8l-2.5-1.4 5-9.6-6.2 9-2.3-1.4.2-1.5 5.3-3.1 1.2-6 7.5-5.1 1-.7-.7-1-.3-.4-.7-1-1 .7-1.9 1.3zm-35 12.8l-1.5-12.4 5.5 13.3a13 13 0 00-.4 4.2l-1.2-4.5-.3-1.2-1.2.4h-.5l-.4.2zm33.1 57.2l.7 2.7-2.3-.1h-1l-2-1.3-1.2-4-8.3-4.9.3-.4 13.8 8zm1.1-.3l.8 3h1.4l2.5-4.3-.2-1-2.6-1-1.9 3.3zm3.8-5.6l.2-.3-.3-.5-.4.6.5.2zm-18.3-32l.3.3 4.2 4.2-.2-.2-1-.8-.5.7-4-2.4-.8-2.9-.1-.2 1 .6 1 .6zm-.9 3.3l3 1.7-.6.8.9.7 3.4 3 .2 1-.7-.6-.5.7-4.4-2.6-1-3.3-5.5-8 .5-.3 4.7 6.9zm1.7 6.2l3.4 2-.6.8 1 .7.5.3a56 56 0 01-3.5-1l-.5-1.7-6.3-7.5.4-.3 5.6 6.7zm-3.8 1.4l-1.1-1.1.3-.3 1.8 1.8-.2-.1-.8-.3zm15 21.9l1 3.5-6-3.5-1-3.5 2 .4h.6l2.5 1.5-.3 1.1 1 .4h.2zm-4.6-22l.1.3.1-.2-.2-.1zm1 .9l-.1.3 1.5 1-.2-.4-1.1-1zm5 21.6l.7 2.6 1.2-2-1.9-.6zm3.3-1.9l.5-.9-3.4-.2 3 1.1zm-15.8 1.2l.6 2.4.9-1.5-1.5-.9zm3-1.6l.8-1.5-.8-.5h-.2l-2.4-.4-.4.7 3 1.7zm-4.2-2.7l.1.3.1.1.2-.3h-.4zm-2.3-20.2l-.3.5 2.5 2.5.1-.2-2.3-2.8zm-3-3.7l-.7 1.1 1 3.8.3-.4.4-.3.8-.9.1.1.4-.6-2.4-2.8zm-1.3-6.9l-1.1 1.8 1.3 4.7.3-.5-.4-.5.9-.8.3-.3.8-1.3-2.1-3zm-2.3-2.8l.8 3.1.7-1.3v-.1l.2-.2.2-.3-2-1.2zm8.6 37l1 3.6-6-3.4-1-4-8.3-4.8.2-.5 12.8 7.5-.4.7 1 .6.7.3zm-1-3.6l.3 1-3.1-1.8 2.8.8zm-11-19.7l-5.1-6.2.4-.3 5.5 6.7-.7-.2zm-.9-6l6 3.4 1 4-1.8-.5-3.9-2.2-.9-3.4-5.5-8 .4-.2 4.7 6.9zm-1.6-6.2l6 3.4 1.2 4.7-6-3.4-.7-3-4.8-8.3.4-.2 4 6.8zm-1.7-6.2l-2.1-8.3h.4l2.3 8.6 3.9 2.3 1.5 1.1 1.2 4.4-5.9-3.4-1.3-4.7zm2-12.4l-1-4.3.4-.1.9 3.3-.1.6-.1.5zm16.8 59l1 3.8h.8l2.6-4.6-3-1.7-1.4 2.6zm3.3-5.7l-.4.7.6.3-.2-1zm-4.5 6.1l1 3.5-1.6.1-4-2.3-1.2-4-8.2-4.9.2-.4 13.8 8zm26.6-.4l1.5 3.2-2 .2h-.2l-3.7-1.3-1.7-3.8-9-3.3.2-.5 15 5.5zm1.1-.5l1.7 3.5h.7l2-5.5-1.7-3.8 3.2-9-.4-.2-5.5 15zm-23.8-37l6.5 2.4 2 4.5-6.4-2.4-1.3-2.7-6.2-7.4.4-.3 5 6zm2.7 6l6.5 2.3 2 4.4-6.4-2.3-1.5-3.2-6.8-6.9.3-.3 6 6zm2.7 5.8l6.5 2.3 2 4.4-6.4-2.4-1.6-3.3-7.4-6.3.3-.3 6.6 5.6zm2.7 5.7l6.5 2.4 2 4.4-6.4-2.3-1.7-3.5-7.9-5.6.3-.4 7.2 5zm2.7 5.9l6.5 2.3 2 4.5-6.4-2.4-1.7-3.7-8.4-4.8.2-.4 7.8 4.5zm9.2 8.2l2 4.4-6.4-2.4-1.8-3.8-9-3.3.2-.4 15 5.5zM291 216l-2.4 6.4 2 4.5 2.4-6.5-1.3-2.7-1.7-9.6-.5.1 1.4 7.8zm2.6 5.8l-2.4 6.5 2.1 4.4 2.4-6.5-1.5-3.1-.8-9.7h-.5l.7 8.4zm2.7 5.8l-2.4 6.5 2.1 4.4 2.4-6.5-1.6-3.3V219h-.5v8.7zm2.7 5.9l-2.4 6.4 2.1 4.4 2.4-6.5-1.7-3.5.9-9.6h-.5l-.8 8.8zm2.7 5.8l-2.4 6.4 2.1 4.4 2.4-6.4-1.8-3.7 1.8-9.6h-.5l-1.6 8.9zm.3 12.2l2.1 4.5 2.4-6.5-1.8-3.8 3.3-9-.5-.2-5.5 15zm-34.3 11.6l12.5 6.8c1 2.8 2.1 4.7 3.6 6l-.1.2-.3.4-.1.2c-4.9-4-10-8.3-15.6-13.6zm21.7 15h3.8l2 1.3h-3.4l-2.4-1.4zm65.5 13l1.8 6.6 3.7 2.2c-.6-2.5-1.3-4.8-2.3-7l-2.2-1.3-5.5-8-.4.3 5 7.2zm-5.5-3.3l1.7 6.7 4.3 2.5-1.8-6.7-3-1.7-1.2-1.4h-.2l-.2.2.4.4zm-.1 3.9l-1-4-1.2.6.2 1.7 2 1.7zm1.8 8.4l5-1.3 4.2 2.4-6.7 1.8-2.4-1.7v-1.2zm-.4-4.4l4 2.3-3.7 1-.3-3.3zm-38-9h4.2l-3.3 1.1-8-4.6.3-.4 6.8 4zm-2 2l-1.3-.5.2-.5 1.7.8-.6.2zm15.5 11.6h2.2v.8h1.3l3.7-.4 3 3H332a70 70 0 00-2.8-.3L327 301l-1.7-.4c.2-.1.4-.3.7-.3h.3zm15 12.6h-2.5l-.4-.4 2.8.4zm-9.4-15.5l.5.5h.5v-1l-.6.3-.4.2zm2.1-1v1.3l1.6-.1-1.5-1.3zm1.1 4.2l2.4 2.3v-2.5l-2.4.2zm3.4-.3v3.7l1.1 1.1 2.4.5v-2.9h-.4l-2.8-2.4h-.3zm8 6.4v-1.6l-2.4-2.4-1 .2v3l3.4.8zm-1-8.7l3.7 3-6.9.7-3.1-2.7-9.5.8v-.4l15.8-1.4zm.7-1l3.8 3.2-.6-7-3.2-2.6-.8-9.6h-.5l1.3 16zm-37-23.3l6.8-.6 3.7 3.1-6.8.6-2.3-1.9-8.7-4.1.2-.4 7 3.3zm4.9 4.1l6.8-.6 3.7 3.1-6.8.6-2.7-2.2-9-3.3.1-.5 7.9 3zm4.9 4.1l6.8-.6 3.7 3.2-6.8.6-2.9-2.4-9.3-2.6.1-.4 8.4 2.2zm4.9 4.2l6.8-.6 3.7 3.1-6.8.6-3-2.5-9.5-1.7v-.5l8.8 1.6zm4.9 4.1l6.8-.6 3.7 3.1-6.8.6-3.1-2.6-9.7-.8v-.5l9 .8zm11.7 3.5l3.7 3.1-6.9.7-3.1-2.7-9.5.8v-.5l15.8-1.4zM316 265.4l.6 6.9 3.7 3-.6-6.8-2.3-2-5.5-7.8-.4.3 4.5 6.4zm4.9 4.1l.6 6.9 3.7 3.1-.6-6.8-2.6-2.3-4.9-8.4-.4.2 4.2 7.3zm4.9 4.1l.6 7 3.7 3-.6-6.8-2.8-2.4-4.1-8.9-.5.2 3.7 8zm4.9 4.2l.6 6.8 3.7 3.1-.6-6.8-3-2.5-3.3-9.1-.5.2 3 8.3zm4.9 4.1l.6 6.8 3.7 3.2-.6-6.9-3.1-2.6-2.5-9.4-.5.2 2.4 8.7zm5.4 11l3.8 3.1-.6-6.9-3.2-2.6-.8-9.6h-.6l1.4 16zm14.5 20.3a204 204 0 01-53-10.8c22.2 1 36 3 55.2 8.7l-.9.9-19.2-3.8-11.4-2h-.1l12.5 2.5 17.7 3.9-.8.6zm-14.7 16.4l-2.7-1.2 4-5.6-4.5 5.3-2.7-1.2 5.3-6.4-6 6-2.9-1.3 7-7-7.8 6.6-3-1.4 8.9-7.4-9.9 7-3-1.5 11-7.8-12.4 7.2-3.2-1.5 13.5-7.8 1.6.3 2.1.3 2 2c6.2 0 9.4-.4 13.6 0l-11 15.4zm-8.4-18l-15 7-3.4-1.5 12.4-5.9h4.2l1.8.4zm14-8l3.6-1.2 3 1.8 1.7 1 1.9-1 3.4 2-2.2-2.2.8-.6.6-.3.5-.4-.6 1.1 1.5 1.7-.4 1.4-2.7-1.1-1 .7 2.8 2.5-10.2-5.6 9.8 6.3-.6.8-7.2-2.9-3.2-2.2-1.5-1.8zm-55-22.8h6.9l3.4 3.4h-6.9l-2-2.1-8.4-4.9.2-.4 6.8 4zm4.5 4.5h6.9l3.4 3.4h-6.9l-2.4-2.4-8.8-4.1.2-.5 7.6 3.6zm4.5 4.5h6.9v.1l-3.4 1.5-1.3.6-1.4-1.4-9-3.3.1-.5 8.1 3zm-1.3-12.2v2.3l3.4 3.4v-6.1h-.4l-.5.1h-.8v.1h-.2l-1.2.1h-.3zm4.5 0v6.8l3.5 3.5v-2.3l-2.2-1.2-1-.6.6-1 .2-.5.7-1 1 .5.7.4V281l-2.5-2.5-.7-1.4h-.4l.1.4zm4.5 4.5v.7l1.9 1.1-1-1-2.1-5.7-.6-.2 1.8 5zm0 4.1v1.7l.1-.2.2-.4.3-.7-.6-.4zm.2 3l.4.3.2-.1h-.1l-.5-.3zm4.6-3.6l-1-3.6-.5-.2 1 3.5.5.3zm12.2 17.2v-.9l-1.7-.5-1.7.7.3.1 3.1.6zM380.7 105l3.5 3.9 5.7-.7-4-4.2-5 .6-4.6-1.7-.7.3 5 1.9zm-8.7-3.6h-.2v.1l.2-.1zm10-14l3.3 4h5.7l-3.5-4.6-5.3.1-8.7-4-.1.4 8.6 4zm8-2.5l-7.7-3.6-.2.4 8.2 3.8 2 5.8 4.4 2.1-2.3-6.5-4.4-2zm5.8 2.7l2.4 6.4 4.3 2.1-2.3-6.5-2.7-1.2-7.4-6.3-.3.4 6 5zm5.8 2.7l2.3 6.5 4.4 2-2.3-6.4-3.1-1.5L396 84l-.3.3 5.9 6zm5.8 2.7l2.3 6.5 2.7 1.2v-.4l-.6-5V95l-3.4-1.6-6.2-7.5-.4.3 5.6 6.7zm4.4 0l-3.3-4.8-.4.2 3.7 5.4v-.9zm5.1 1l-2-3.6-.4.2 1.7 3.1.7.2zm7.7 5.3l-.6-1.7-.8-.6.8 2.2.6.1zm-2.3-6.4l-.2-.5-.4.2.2.8.4-.5zm-36.9 1.9l-7.7-3.6.3-.4 8 3.8 5.9-2.2 4.3 2.1-6.4 2.4-4.4-2.1zm5.8 2.7l6.5-2.3 4.3 2-6.4 2.4-2.7-1.3-9.5-1.7v-.4l7.8 1.3zm5.8 2.7l6.4-2.3 4.4 2-6.4 2.4-3.1-1.5-9.7-.8v-.5l8.4.7zm5.8 2.7l6.4-2.3 3.4 1.6.1.8-5.5 2-3.4-1.6h-9.7v-.5h8.7zm5.8 2.8l4.2-1.6.2 2.4v1.2l-3.5-1.6-9.7.8v-.5l8.8-.7zm4.3 3.4l-4.8.9v-.1l-.5-.3 5.3-1v.5zm-6.6 1.2l-.7.1-.1-.5 1.2-.2-.3.5zm-18-8.4l-8-3v.5l8.4 3.1 2.6 5.6 4.5 1.7-2.4-5.1h-.5v-1.2l-4.5-1.6zm6.3 2.8l2.7 5.6 4.5 1.7-1.8-3.9-1.3.2V107l-.1-.5-.1-1-2.4-.8h-1.5zm-1.7-2.3l-1.4-1h-1l2.4 1.6v-.6zm8.3 5.6l2 4.5 4.6 1.7-.6-1.3-.8-.6-.9-.6-.9.1-.2-1.2-.1-.5-.2-1.2 1.2-.2-.4-.8-.5-.2-3.2.3zm-1.3-2.8l-.7-.5h-.7l.7.6h.5l.2-.1zm6.5 3.3h.6l-.8-1-.6.1.8.9zm2.6 5.6l.3.6 1.1.4-1.4-1zm3.1-1.4l-1-2-1.5.2 2.5 1.8zm-8.6-7.8l-.2-.2h-.7l.3.2h.6zm8.9 5.8l.5 1v-1.2l-.1-.1h-.6l.2.3zm-2.6-3.1l.3.3h.3l-.6-.3zm-25.2 4.6l-8-3 .2-.4 8.5 3 5.6-2.5 4.5 1.6-6.2 3-4.6-1.7zm6 2.2l6.3-3 4.5 1.7-6.2 3-2.8-1-9.6-1v-.4l7.8.7zm6 2.2l6.3-3 4.5 1.7-6.2 2.9-3.2-1.2h-9.7v-.4h8.3zm6 2.2l6.3-3 4.4 1.6v.2l-2.1 1-.2-.2-1-.7-.7 1-.2.4-.5.7-1.4.6-3.5-1.2-9.6.8v-.5l8.6-.7zm6 2.2l.6-.3.1.1 1.2.8-1-.3-9.5 1.7v-.5l8.7-1.5zm3.6-1.7l1.5-.7c.4 1 1 1.6 2 2.2l.3.5-.5.3-3.3-2.3zm1.5 4.6l-7.6 2-.1-.4 7.2-2 .5.4zm2.4 4l-3.5 1.7-.2-.4 3.1-1.5.6.3zm7.9-22.8l4.5 1.2-2.2-5.4-2.5-.6c.2 1.4.2 3 .2 4.8zm5.2-5.3l-6.5-5.5-.3.4 6.9 5.8.5 6.1 3.7 3.2-.6-6.9-3.7-3.1zm5 4.1l.5 6.9 2.2 1.8c.2-1.8.5-3.6 1-5.4v-.2l-2.3-1.9-5.6-8-.4.3 4.5 6.5zm4 1.8l-3-5.2-.4.2 3.2 5.6.2-.6zm9.7 16.1l.3.4V121c-.2.2-.3.6-.3.8zm1-4.4l.5 5.8 3.7 3-.3-3.9-1.8-4.1-2-1.8-.1 1zm5.2 8l.2 1.9h.2v.2l1 .8-.8-1.6-.6-1.3zm4.3-8.2l-.1-1.8h-.5v.7l.6 1.1zM424 108l5.1-.4 3.7 3-6.8.7-2-1.7V108zm3.2 4.3l6.8-.6 2.8 2.3v1l-5.9.4-1-.8-.2-.4v.1l-1-.8-4.8-2.2v-.5l3.3 1.5zm4.9 4.1l4.5-.4-.4 2.4-.6-1-1.1.6-.3.2-1-.9-1.8-.6-.5-.7 1.2.4zm-4-1l-1-.2-.5-.8 1.9.7-.2.1-.3.2zm5.7 4.8l-.4-.6h.1l.2.3.1.3zm13.9 4l1-.1 3.7 3.1-3.5.3-.9-2.4-.3-1zm1.6 4.4l2.5-.3.2.8.4 2.7-2 .1-1.1-3.3zm5.7.7l1.9 1.6c0 .2 0 .3.2.5l-1.7.1-.4-2.2zm-8.6 0h-.6l.1-.6h.4l.1.6zm10 6.7h-.3l-.6-3.4 2-.2.4.6-1.2 2.3-.4.7zm-3.6-2.1l-.6-.5-1.2.1-.1-.5 1.7-.1.2 1zm-30-11.7h.4l-.3-.6v.6zm-9.8-7.4l-5.5-4-.3.5 5.9 4.1v-.6zm10.3 1.6h.2l1 6.2 4 2.8-1.2-6.8-4-2.8v.6zm5.3 3l1.2 6.8 3.6 2.6.2-.6-1-6-2.5-1.7-6.2-7.4-.2.2v.3l4.9 5.8zm5.2 3.7l.5 2.6.3-1.2.2-.8-5.4-7.7-.4.2 4.8 7zm9.4 12.6l1 .7-.4-2.2-.6 1.5zm-7.4-15.5l-.7-1.2-.4.3 1 1.5v-.6zm8.8 12.1l.9 5 4 2.8-1.3-6.8-3.1-2.2-.5 1.2zm5 1.9l1 6.8 2 1.3 1.4-2.1-.5-3.2-3.3-2.3-3.3-9.1-.2.7 2.8 7.9zm5.6 3.8l-1.6-9.2h-.4l1.7 9.9.3-.7zM417 124.8l-7-5 .3-.4 7.4 5.2 4.9-.8h.2l1-.2 3.9 2.7-6.8 1.2-3.9-2.7zm5.2 3.6l6.8-1.2 4 2.8-6.8 1.2-2.4-1.7-9.1-3.3.2-.5 7.3 2.7zm5.3 3.7l5.4-1a9 9 0 000 3.5l-1.5.3-2.8-2-9.3-2.5v-.5l8.2 2.2zm5.2 3.7l.7-.1c.3.5.7 1 1.2 1.4l-1-.6-9.5-1.8v-.4l8.6 1.5zm10 1l.7.6-1 .2.2-.7zm-4.8 2.7h.2c.4.2.8.6 1.2 1l-.6-.5-9.6-.8v-.5l8.8.8zm4-.7l2.8-.5 4 2.8-6.8 1.2-.7-.6.4-1.6c0-.4.2-.9.4-1.3zm1.3 4.4l6.7-1.2 2 1.3-1.5 2-3.3.7-3.3-2.4h-.1l-.2-.5-1.2.5h-8.2v-.4h9zm5.8 4l-3.8.7-.2-.5 4.5-.8-.5.7zm-6.7 1.2l-2.8.5v-.5l2.6-.4.2.4zm30.8-5.6l3 4.2-1.5 5.6-3.5-4.7 1.5-5-1.7-9.5.5-.1 1.7 9.5zm-4.6 6.1l-1.3-7.4h.4l1.4 7.3-.5.1zm1 1.6l4.7 3.4.9 4.8-1.4-1v-2h-2.9l-1.3-5.2zm4.2 8.5l1.2.8-1.2 1.5V159zm-3.6 3.2l-.2-.4v-.1l.2.5zm9 19.6l.4 1.9v.2l-.8-.5.4-1.6zm-.5 2.8l.4.3-.2.6v-.3l.1-.3-.3-.2zm1.9 4.8l.1.9-.4-.3.3-.6zm.4 2.4v.3l-.2.5-.3-1.1.5.3zm-1.5-43.8l-1.5-8.4h-.5l1.6 9-3.6 5 .9 4.7.6-.8 3.3-4.7-.8-4.8zm1 6.3l-1 1.6.3 1.4 1 2.7.6-.9-.5-3 .8-9.6h-.4l-.7 7.8zm1.2 6.4l-.3.4.6 1.1v-.1l1.6-9.6-.5-.2-1.4 8.4zm2 4.8l1.8-6.8-.5-.1-1.6 6.2.3.7zm-3.7 13.7l.4 2.1.3-.7.4-1.1 1.1.4.5.1.5.3 1.6-2.2-.7-3.9 3.3-9-.5-.2-2 5.8c-.3 3-2.1 5.5-4.9 8.3zm5 .4l-1.8 2.7-1.8 4.8.5 3 1.9-2.6v-.3l.7-1 1.4-1.8-.8-4 4.1-8.8-.4-.2-3.8 8.2zm0 14l2-2.9-.5-2.3-.1.3-3.6 6.2 1.2-.7 1-.6zm1.4-6.3l-.1-.7 5.4-7.8-.4-.3-5.8 8.3.4.2.5.3zm-42-92a251 251 0 0011.5 30.8c.8 1.9 1.7 3.7 2.7 5.6l1.4-2.4-5-11.6 5.6 10.7.3-.5.8-1.2-1.2-2.7c-4.2-9.1-9.2-17.9-16.1-28.7zm14.4 54l3.1 4.2-1.6 5.5-3.4-4.7 1.4-5-1.6-9.5h.4l1.7 9.4zm4.3 6l.2-1.3.1.7-.3.6zm.2-1.4l-.1-.4v.4zm-.3-1l-2.2-8.2.5-.1 1 3.8.8 4.6-.1-.1zm10.4 40.1l.3 1.3-.4-.3-.1-.6.2-.4zm.1 2.4l.6.4 1.2 4.5v.1l-2.5-1.4.8-1.1.2-1-.3-1.5zm-2.2 8l-.2-.1-.3-1.3 1.4-2 2.1 1.2-3 2.2zm-1-45.5l-1.6-6-.1 1.2v.2l1.2 4.4.5.2zm-1.6-6l-.4-1.6h-.5l.4 1.5h.5zm2.6 12l.4-.7-1.2-4.5v.4l-1.1 6 .1-.4.3-1.2 1.2.4h.3zm1.3-1v-6h-.5v6.6l.5-.7zm.2 23.3l.5 1.6 2.6-4.7-2.2 2.3-.9.8zm4.3-2.9l-.1.2.4.3.8-2.9-.6.7-.5 1.7zm-2.8 8.4l.6 2.3 3.4-6-.4-1.5-3.6 5.2zm4.4-2.2l-3.4 6 1 4h.1l1-.8 2.6-4.5-1-3.9 3.2-9.1-.4-.2-3 8.5zm1.9 7l4.7-8.4-.4-.3-5.3 9.3 1-.7zm-26.2-40.2l-1.5-8.3.5-.1 1.5 8.8 5 3.6.9 4.8-5.6-4-.8-4.8zm1 6.4l5.7 4 .8 4.7-5.6-4-.5-2.9-4-8.8.4-.2 3.3 7.2zm1.2 6.3l5.6 4 .8 4.8-5.6-4-.6-3.4-4.8-8.4.4-.3 4.2 7.3zm1.1 6.3l5.6 4 .8 4.8-5.6-4-.6-3.7-5.6-8 .4-.2 5 7.1zm1.1 6.4l5.6 3.9.8 4.8-5.6-4-.6-3.8-6.2-7.4.3-.3 5.7 6.8zm1.1 6.3l5.6 4 .9 4.7-5.6-4-.8-3.9-6.8-6.9.3-.3 6.4 6.4zm6.7 10.2l.9 4.8-5.6-4-.7-4-7.9-5.5.3-.4 13 9.1zm-1.5-43.8l-1.5-8.4-.5.1 1.6 9-3.5 5 .8 4.8 4-5.6-1-4.9zm1.1 6.4l-4 5.6.9 4.8 4-5.6-.6-3 .9-9.6h-.5l-.7 7.8zm1.1 6.3l-4 5.6 1 4.9 3.8-5.7-.5-3.4 1.7-9.6h-.5l-1.5 8.2zm1.1 6.3l-4 5.7 1 4.8 3.9-5.7-.7-3.6 2.5-9.5h-.4l-2.3 8.3zm1.1 6.3l-3.9 5.7.8 4.8 4-5.7-.7-3.8 3.3-9.1-.4-.2-3 8.3zm1.2 6.4l-4 5.6.9 4.8 3.9-5.6-.7-4 4.1-8.8-.4-.2-3.8 8.2zm-2.9 12l.9 4.7 3.9-5.6-.7-4.1 5.5-7.9-.4-.3-9.2 13.1zm-22.4-45l-3-8.2.4-.2 2.9 7.9-.3.6zm-2.4 8.4l-3-8 .5-.2 3.1 8.5 5.3 2.5.3.6.7 1.6 1 2.5-6.3-3-1.6-4.5zm2.1 6l6.2 3 1.2 3.3-.1.1-.4.3-.3.2-5-2.3-1-2.8-5.4-8 .4-.2 4.4 6.5zm2.2 6.1l4.2 2 .3.4 2.7 3.1.7 2-.8-.4-.9-.9-.3.3-4-1.9-.3-.3-1-3-6.3-7.4.4-.3 5.3 6.4zm3.3 6.5l1.8.9-.7.7-1.1-1.6zm3.2 4.1l-.3-.3.3.3zm-7.7-2.7l-1.5-1.2.3-.4.8.7.4 1zm3 7.4l-2.9-2 .3-.4 2.3 1.6.3.8zm3 7.5l-4.4-2 .1-.5 4.1 1.9.3.6zm-.2-32.1l-.2.2-.4.6-.4.6.7 1.8.4-.3.9-.6.2-.3-1.2-2zm1.8 3.1l.3.4-.3-.4zm-.6 4.2l.7 2.2.2.3.3.3.3-.6-1.5-2.2zm2.2 3.2l-.3.5 1.8 2v-.3l-1.5-2.2zm.9 14.6l-12-15.6c5.4 13.3 7.5 24 16.5 35.8l2.6-1.4-5-9.6 6.2 9c.7-.5 1.4-1 2.3-1.4l-.2-1.2-5.4-3.3-.5-2.4-.7-3.6-7.4-5.2-1-.7.7-1 .3-.4.7-1 1 .7 1.9 1.3zm34.9 12.8l1.6-12.4-5.5 13.3c.4 1.6.5 3 .4 4.2l1.2-4.5.3-1.2 1.2.4h.4l.4.2zm-33 57.2l-.7 2.7 2.2-.1h1l2.2-1.3 1-4 8.3-4.9-.2-.4-13.8 8zm-1.2-.3l-.8 3h-1.4l-2.4-4.3.2-1 2.6-1 1.8 3.3zm-3.7-5.6l-.2-.3.3-.5.3.6-.4.2zm18.3-32l-.3.3-4.2 4.2.2-.2 1-.8.5.7 4-2.4.8-2.9.1-.2-1 .6-1 .6zm.9 3.3l-3 1.7.6.8-1 .7-3.3 3-.3 1 .8-.6.4.7 4.5-2.6.9-3.3 5.5-8-.4-.3-4.7 6.9zm-1.7 6.2l-3.4 2 .5.8-1 .7-.4.3 3.5-1 .5-1.7 6.2-7.5-.4-.3-5.5 6.7zm3.8 1.4l1.1-1.1-.3-.3-1.8 1.8.2-.1.8-.3zm-15 21.9l-1 3.5 6-3.5 1-3.5-2 .4h-.6l-2.6 1.5.4 1.1-1 .4h-.3zm4.6-22l-.1.3-.1-.2.2-.1zm-1 .9l.1.3-1.5 1 .2-.4 1.1-1zm-5 21.6l-.7 2.6-1.2-2 1.9-.6zm-3.3-1.9l-.6-.9 3.5-.2-3 1.1zm15.8 1.2l-.6 2.4-1-1.5 1.6-.9zm-3-1.6l-.8-1.5.8-.5h.2l2.4-.4.4.7-3 1.7zm4.2-2.7l-.1.3-.2.1-.1-.3h.4zm2.3-20.2l.3.5-2.5 2.5-.2-.2 2.4-2.8zm3-3.7l.7 1.1-1 3.8-.4-.4-.3-.3-.8-.9-.1.1-.4-.6 2.4-2.8zm1.3-6.9l1 1.8-1.2 4.7-.3-.5.4-.5-.9-.8-.4-.3-.7-1.3 2.1-3zm2.3-2.8l-.8 3.1-.8-1.3.1-.1-.2-.2-.2-.3 1.9-1.2zm-8.6 37l-1 3.6 6-3.4 1-4 8.3-4.8-.2-.5-12.8 7.5.4.7-1 .6-.7.3zm1-3.6l-.3 1 3.1-1.8-2.8.8zm11-19.7l5.1-6.2-.4-.3-5.5 6.7.7-.2zm.8-6l-6 3.4-1 4 1.9-.5 3.9-2.2.9-3.4 5.5-8-.4-.2-4.8 6.9zm1.7-6.2l-6 3.4-1.2 4.7 6-3.4.7-3 4.8-8.3-.4-.2-4 6.8zm1.6-6.2l2.2-8.3h-.4l-2.4 8.6-3.8 2.3-1.6 1.1-1.1 4.4 5.9-3.4 1.2-4.7zm-2-12.4l1.1-4.3-.4-.1-1 3.3.2.6.1.5zm-16.7 59l-1 3.8h-.8l-2.6-4.6 3-1.7 1.4 2.6zm-3.3-5.7l.4.7-.6.3.2-1zm4.5 6.1l-1 3.5 1.6.1 4-2.3 1.1-4 8.3-4.9-.2-.4-13.8 8zm-26.7-.4l-1.4 3.2a31 31 0 002.2.2l3.6-1.3 1.8-3.8 9-3.3-.2-.5-15 5.5zm-1-.5l-1.7 3.5h-.7l-2-5.5 1.7-3.8-3.3-9 .5-.2 5.5 15zm23.8-37l-6.5 2.4-2 4.5 6.4-2.4 1.3-2.7 6.2-7.4-.4-.3-5 6zm-2.7 6l-6.5 2.3-2 4.4 6.4-2.3 1.5-3.2 6.8-6.9-.3-.3-6 6zm-2.7 5.8l-6.5 2.3-2 4.4 6.4-2.4 1.6-3.3 7.4-6.3-.3-.3-6.6 5.6zm-2.7 5.7l-6.5 2.4-2 4.4 6.4-2.3 1.7-3.5 7.9-5.6-.3-.4-7.2 5zm-2.7 5.9l-6.5 2.3-2 4.5 6.4-2.4 1.7-3.7 8.4-4.8-.3-.4-7.7 4.5zm-9.2 8.2l-2 4.4 6.4-2.4 1.8-3.8 9-3.3-.2-.4-15 5.5zm10-36.1l2.4 6.4-2 4.5-2.4-6.5 1.3-2.7 1.6-9.6.5.1-1.3 7.8zm-2.6 5.8l2.3 6.5-2 4.4-2.4-6.5 1.5-3.1.8-9.7h.5l-.7 8.4zm-2.7 5.8l2.3 6.5-2 4.4-2.4-6.5 1.6-3.3V219h.5v8.7zm-2.7 5.9l2.3 6.4-2 4.4-2.4-6.5 1.7-3.5-.9-9.6h.5l.8 8.8zm-2.7 5.8l2.3 6.4-2 4.4-2.4-6.4 1.7-3.7-1.7-9.6h.5l1.6 8.9zm-.4 12.2l-2 4.5-2.4-6.5 1.8-3.8-3.3-9 .5-.2 5.4 15zm34.4 11.6a328 328 0 00-12.5 6.8c-1 2.8-2.2 4.7-3.6 6l.1.2.2.4.2.2c4.9-4 10-8.3 15.6-13.6zm-21.7 15h-3.8l-2 1.3h3.4l2.4-1.4zm-65.5 13l-1.8 6.6-3.7 2.2c.6-2.5 1.3-4.8 2.3-7l2.2-1.3 5.5-8 .4.3-5 7.2zm5.5-3.3l-1.8 6.7-4.2 2.5 1.8-6.7 3-1.7 1.2-1.4h.2l.2.2-.4.4zm.1 3.9l1-4 1.2.6-.2 1.7-2 1.7zm-1.8 8.4l-5-1.3-4.2 2.4 6.6 1.8 1.7-1h-.1l1-.7v-1.2zm.4-4.4l-4 2.3 3.7 1 .3-3.3zm38-9h-4.3l3.4 1.1 8-4.6-.3-.4-6.8 4zm2 2l1.3-.5-.2-.5-1.8.8.7.2zm-15.5 11.6h-2.2v.8H418l-3.8-.4-3 3h4.5l2.7-.3 2.4-2.4 1.7-.4-.7-.3h-.3zm-15 12.6h2.5l.4-.4-2.8.4zm9.4-15.5l-.6.5h-.4v-1l.6.3.4.2zm-2.2-1v1.3l-1.5-.1 1.5-1.3zm-1 4.2l-2.4 2.3v-2.5l2.4.2zm-3.5-.3v3.7l-1 1.1-2.4.5v-2.9h.4l2.8-2.4h.2zm-7.9 6.4v-1.6l2.4-2.4 1 .2v3l-3.4.8zm1-8.7l-3.7 3 6.8.7 3.2-2.7 9.5.8v-.4l-15.8-1.4zm-.8-1l-3.7 3.2.6-7 3.2-2.6.8-9.6h.5l-1.4 16zm37.1-23.3l-6.8-.6-3.8 3.1 6.9.6 2.3-1.9 8.7-4.1-.2-.4-7 3.3zm-4.9 4.1l-6.8-.6-3.7 3.1 6.8.6 2.6-2.2 9.1-3.3-.1-.5-7.9 3zm-4.9 4.1l-6.8-.6-3.7 3.2 6.8.6 2.8-2.4 9.4-2.6-.1-.4-8.4 2.2zm-4.9 4.2l-6.8-.6-3.7 3.1 6.8.6 3-2.5 9.5-1.7v-.5l-8.8 1.6zm-4.9 4.1l-6.8-.6-3.7 3.1 6.8.6 3-2.6 9.7-.8v-.5l-9 .8zm-11.7 3.5l-3.7 3.1 6.8.7 3.2-2.7 9.5.8v-.5l-15.8-1.4zm24.3-28.4l-.6 6.9-3.7 3 .6-6.8 2.3-2 5.5-7.8.4.3-4.5 6.4zm-4.9 4.1l-.6 6.9-3.7 3.1.6-6.8 2.6-2.3 4.9-8.4.4.2-4.2 7.3zm-4.9 4.1l-.6 7-3.7 3 .6-6.8 2.8-2.4 4.1-8.9.5.2-3.7 8zm-4.9 4.2l-.6 6.8-3.7 3.1.6-6.8 3-2.5 3.3-9.1.4.2-3 8.3zm-4.9 4.1l-.6 6.8-3.7 3.2.6-6.9 3-2.6 2.6-9.4.4.2-2.3 8.7zm-5.5 11l-3.7 3.1.6-6.9 3.2-2.6.8-9.6h.5l-1.4 16zm-14.4 20.3a206 206 0 0053-10.8c-22.2 1-36 3-55.2 8.7l.8.9 19.3-3.8 11.4-2-12.4 2.5-17.7 3.9.8.6zm14.7 16.4l2.7-1.2-4-5.6 4.5 5.3 2.7-1.2-5.3-6.4 6 6 2.8-1.3-6.9-7 7.8 6.6 3-1.4-9-7.4 10 7 3-1.5-11-7.8 12.3 7.2 3.2-1.5-13.4-7.8c-.6 0-1.1.2-1.7.3l-2 .3-2 2c-6.2 0-9.4-.4-13.6 0l11 15.4zm8.4-18l15 7 3.4-1.5-12.4-5.9H417l-1.8.4zm-14-7.8l-3.6-1.4-4.2 2.5-2.3-.8-3.4 1.7 2.4-2.2-2.3-1 .9 1-1.6 2 .4 1 2.9-1 .9.7-2.7 2.5 9-4.7-8.6 5.4.6.8 7.7-3 2.9-2.1 1-1.4zm55-23h-6.9l-3.4 3.4h6.9l2-2.1 8.4-4.9-.2-.4-6.8 4zm-4.6 4.5h-6.8l-3.4 3.4h6.8l2.4-2.4 8.8-4.1-.2-.5-7.6 3.6zm-4.4 4.5h-7v.1l3.5 1.5 1.3.6 1.4-1.4 9-3.3-.1-.5-8.1 3zm1.3-12.2v2.3l-3.5 3.4v-6.1h.4l.6.1h.7l.1.1h.2l1.2.1h.3zm-4.6 0v6.8l-3.4 3.5v-2.3l2.1-1.2 1.1-.6-.6-1-.3-.5-.6-1-1 .5-.7.4V281l2.4-2.5.7-1.4h.5l-.2.4zm-4.5 4.5v.7l-1.8 1.1 1-1 2.1-5.7.6-.2-1.9 5zm0 4.1v1.7-.2l-.2-.4-.3-.7.5-.4zm-.1 3l-.4.3-.2-.1.6-.3zm-4.6-3.6l1-3.6.5-.2-1 3.5-.5.3zm-12.3 17.2v-.9l1.8-.5 1.7.7-.3.1-3.2.6z"/><path fill="#1f1a17" d="M311.9 128h123.4v121.4c0 25-26.6 21.3-39.3 21.3-9.8 0-14 .2-22.4 7.7-8.5-7.5-12.7-7.7-22.5-7.7-12.7 0-39.2 3.7-39.2-21.3V128z"/><path fill="#de411a" d="M431.7 256.7l-.5 1.5-.7 1.2-.7 1.2-.8 1-.9 1-1 .9-1 .7-1.2.7-2.4 1.2-2.8.9a54.7 54.7 0 01-10.6 1.3c-4 0-8 0-11.8-.2-4.1 0-8.3 0-12.3.8a26.1 26.1 0 00-11.4 6.2 27.6 27.6 0 00-9.3-5.6l-4.3-1c-3.3-.4-6.8-.4-10.1-.4-4 .1-7.9.3-11.8.2a65.5 65.5 0 01-10.7-1.3l-2.7-.9-2.5-1.2-1.1-.7-1.1-.7-1-.9-.9-1-.8-1-.7-1.2-.6-1.2-.6-1.5-.4-1.5-.3-1.8-.2-2-.1-2v-47h118.4v47l-.1 2-.2 2-.4 1.8-.4 1.5z"/><path fill="#fff" d="M336 191.7l-9.7-.3c-4 0-8 .1-12 .5V180c2.8 0 6 .5 9.2 1.7 6.4 2.2 11 6.2 12.5 10zm3.7-6.7l2 1c1.1.7 2.2 1.4 3.2 2.4a11.1 11.1 0 012.4 4.2l-9.9-.7v-.2l-.7-1.7-.7-1.1a23.6 23.6 0 00-2.8-3 20 20 0 00-4.5-3.2 28.3 28.3 0 0111 2.4zm-8.3-3.5l-1.7-.2h-3.6l-2-.8-1.8-.5-3.3-.8-2.5-.3-2.3-.1v-4l3.6.3c6 .9 11.1 3.4 13.6 6.4zm1.6-4.1v.1l1.4.6 1.4 1a13.9 13.9 0 012.6 2.6l.6 1.1.2.5-1.8-.6-2.5-.7-1.6-.3-.9-1.2-.9-1-1.5-1.2-1.8-1.2-2-1-.7-.3c2.8.2 5.3.8 7.5 1.6zm-10.8-3h-.8l-.8-.1-2.6-.5-.9-.1-2.9-.2v-4.1c1.2.2 2.4.6 3.5 1.2 1.9 1 3.6 2.2 4.5 3.8zm3.6-2.6l1.5.5a13.7 13.7 0 014.1 2.7c.2 0 .3.2.4.4l.2.2-1.2-.3a43.8 43.8 0 00-5.7-.9h-1.4l-.4-.9-.7-1-1.4-1.2-.8-.7c2 .2 3.8.6 5.4 1.2zm-3.8-3.4l1.7 1 .4.5a27.3 27.3 0 00-5.1-.7h-1.3l-1.2-.6-2.2-.7v-1a17 17 0 017.7 1.5z"/><path fill="#007cc3" d="M314.2 199.8V193c5.7-.6 11.2-.7 16.8-.5 5.7.2 11.4.7 17.4 1.3-.6-2.1-1-4-2.5-6a15 15 0 00-5.3-3.7 11 11 0 00-6.5-7.5 7.4 7.4 0 00-2.7-3.4 11 11 0 00-4.2-2.3c-2.5-3.7-7.8-5.4-13-4.9v-35.5h118.3v69.3H314.2z"/><path fill="#fff" d="M382.7 141c.9-1 2-.9 2.7 0 .9 1 1 3.1 2.6 4.5 2.1 1.9 4.4 1.6 6 1.3.5 0 2-.5 3-1.3.6-.6 1-1.9 0-2.3-.5-.1-.9-.2-.7-.6.2-.5.6-.3 1-.1 0 0 .3.3.4.7.2.4.2.8 0 1.2 0 .4-.3.7-.6 1-.2.3-.4 1.1.3 1.6.7.7 2.5-.3 3.7-1.5 1-1.1 1.6-2.4.7-3 .5-1.3 1.5-1.4 2.6-1.5-.4.1-1.1.4-1.4 1-1 2.3 1.5 3.6 3 2.7 2.6 1.3 7.2-1 8.6-3.2 1-1.5.5-3.6-.9-4-2.5-.9-2-3-1.3-3.5.6-.5 1.5-.7 2-.7-.3.1-1 .2-1.6 1-.5.7-.2 2.3.7 2.9.7.4 2.4 0 3.3-.3 1-.2 2.7-1.2 3.2-2 .7-1.1 1-2 .7-2.8-.1-.5-.8-.5-1.2-.4-.4 0-.7 0-.7-.4s.2-.6.9-.6c1 .1 1.4.8 1.3 1.5a6 6 0 01-.8 2.5 7 7 0 001.3-2.2c.2-.7.2-1.5.1-2h-19.3c-1 .4-1.4.8-1.4.8s1.2-.5 2.3-.2c.5.2.8.6 1 1 .5.7.6 1.7.4 2-.4.2-.6 0-.8-1.2-.3-2-2.4-1.6-3.1-1.4-.7.1-1.8 1.4-2 1.8-.2.3-1.4 2.8.3 3.9 1.6 1 3.6-1 3.6-1s-.3 1-1.7 1.6c-1.4.5-3.3-1.1-4.1-2.1-.8-1 .7 0-1.5-2.2s-5.6-2-5.6-2c.4.2.8.3 1.5.8 1.4.8 1.3 2.4 1.3 2.4-.3-.8-.6-1.5-1.2-2a8.4 8.4 0 00-6.2-1.2c-2.3.3-4.3 2.4-4.9 3a5 5 0 01-2.3 1.5c-1 .2-2.3.3-2-.5.4-.8 1.1.3 2 .1a4 4 0 002.2-1.2c-2.2-.6-4.8-1.2-6.2-1.3-4.4 0-7.3 1.5-8.5 5.1h13.5l3.8 2.8z"/><path fill="#1f1a17" d="M362.1 138.2v3.4h1.8v7.8a15.6 15.6 0 00-5.9 6.1 18 18 0 00-2 7.4h-3v4h-3v27.3h48.4v-27.4h-3v-4H392a16 16 0 00-10.2-14.6v-3.8h1V141l-3.9-2.8h-16.8z"/><path fill="#fff" d="M363.1 139.2H378v1.4h-14.9v-1.4zm12.7 9c-.4 0-.8-.2-1.2-.4v-6h1.6v6.7l-.4-.2zm-2.6-.7a11.1 11.1 0 00-2.2-.3h-1.4l-2 .4v-5.8h5.8v5.7h-.2zm-6.8.5l-.8.2-.8.4v-6.8h1.6v6.1zm-9.5 15.3V162l.2-.5v-.5l.1-.6.1-.5.1-.5.2-.5.1-.5.2-.6.2-.4.2-.6.2-.4.3-.5.3-.5.2-.4.3-.5.3-.5.3-.4.4-.4.3-.4.4-.4.4-.3.4-.4.4-.4.4-.3.4-.3.4-.3.5-.3.5-.2.4-.3.5-.2.5-.2.5-.2.8-.3.9-.1h.2v1.4l-1.3.3-.6.3-.6.2-.5.3-.6.3-.5.3-.3.2-.3.2-.3.3-.3.2-.3.3-.3.3-.3.2-.2.3-.3.3-.2.3-.2.3-.3.3-.2.3-.2.4-.2.3-.2.3-.2.4-.2.3-.1.3-.2.4-.2.4-.1.3-.1.4-.1.4-.2.3v.4l-.2.8-.2.8v.7l-.2 3h-3.1v4h-3v24h-1.4v-25.4h3v-4h3l.1-.5zm16.7-14.5l.7.3.6.1.4.2.5.3.5.2.5.3.4.2.5.3.4.3.4.4.4.3.4.3.4.4.3.4.4.4.3.4.4.4.2.5.4.4.2.4.3.5.2.5.2.5.3.5.2.5.1.5.2.5.2.5.1.5.1.5.1.6v.5l.2.8v1.7h3.2v4h3v25.3h-1.5v-24h-2.9v-4h-3l-.3-3.1v-.4l-.1-.5v-.5l-.2-.4v-.4l-.2-.5-.1-.4-.2-.5-.1-.4-.2-.4-.2-.4-.2-.4-.2-.4-.2-.4-.3-.4-.3-.4-.3-.5-.4-.5-.4-.5-.4-.4-.4-.4-.5-.4-.5-.4-.5-.3-.5-.3-.5-.4-.5-.2-.5-.3-.6-.2-.6-.1-.6-.2h-.3v-1.6l1 .2zm-3.9-.3h1.6v44.8h-1.6v-44.8zm12 18h3v4h3v22.8H383v-21.9l-.2-.4-.1-.4-.2-.4-.2-.4-.3-.4-.3-.3-.3-.3-.3-.2-.4-.3-.4-.2-.4-.1-.5-.1h-.4l-.5-.1h-.9l-.4.2-.5.1-.4.2-.3.3-.4.2-.3.3-.3.3-.3.4-.2.4-.2.4-.2.4v.4l-.2.5v21.3h-1.3v-41.8c.4 0 .8.2 1.1.3l.4.1.4.2.3.2.4.2.3.1.4.2.3.3.3.2.3.2.3.3.3.2.3.3.4.4.5.7.5.7.5.7.4.8.4.8.3.8.2.8.3.8.1.8.1 1 .3 4zm-13.2-15.1v41.8h-1.3V172l-.2-.5v-.4l-.2-.4-.2-.4-.2-.4-.3-.4-.3-.3-.3-.3-.4-.2-.4-.3-.4-.2-.4-.1-.4-.1h-.5l-.4-.1h-.9l-.5.2-.4.1-.4.2-.4.3-.3.2-.3.3-.3.3-.3.4-.2.4-.2.4-.2.4-.1.4v21.8h-4.6v-22.7h2.9v-4h3l.1-2.6.1-.8v-1l.2-1 .2-.6.2-.7.2-.7.2-.6.1-.3.1-.3.4-.6.3-.6.3-.6.4-.5.4-.5.4-.5.5-.5.5-.4.5-.4.2-.2.5-.4.6-.3.3-.2h.3l.3-.2.3-.2h.3c.4-.2.8-.4 1.2-.4zm29.8 41.3c11.4 0 22.8-8.9 34.2-9.1v4c-11.4.2-22.8 6.6-34.2 6.6v-1.5zm34.2-26.3v4c-11.4.6-22.8 17.2-34.2 17.3v-1.5c11.4-.1 22.8-19.2 34.2-19.8zm0 5.9v4c-11.4.5-22.8 13.5-34.2 13.6v-1.6c11.4 0 22.8-15.5 34.2-16zm0 5.8v4c-11.4.4-22.8 10-34.2 10v-1.6c11.4 0 22.8-12 34.2-12.4z"/><path fill="#1f1a17" d="M392.8 259.5v-6.2h-2.6a6.2 6.2 0 00-1.7-1.5l-.6-.3-.6-.3-.8-.2-1.6-.4-2-.4c-.8 0-1.6-.3-2.3-.7-.6-.4-1.5-1-1.8-1.7-.4-.8-.3-1.8.5-2.3.6-.4 1.3-.6 2-.6l2.1-.3c0-.5-.2-1-.3-1.4a7 7 0 00-1.3-1.7 50.6 50.6 0 0016.6-3.7 54 54 0 0013.4-8.2c.9-.6 1.5-1 1.5-1.5l-.4-1.2a4 4 0 00-1.7-1.7l-.7-.3a7 7 0 00-1-.3v-1.5h4.6l-1-1.9c-.2-.6-.6-1.1-1-1.7a6.8 6.8 0 00-2.4-1.5v-2h-72.2v2a7 7 0 00-2.4 1.5l-1.2 1.7-.8 1.9h4.6v1.5a9.5 9.5 0 00-1.7.6 4 4 0 00-1.7 1.7c-.2.3-.5 1-.4 1.2 0 .4.6.9 1.4 1.5l2.8 2.2a59 59 0 0010.6 6 52.5 52.5 0 0016.7 3.7c-.5.3-1.1 1.3-1.3 1.7l-.4 1.4c.8 0 1.5.1 2.2.3.7 0 1.4.2 2 .6.7.5.9 1.5.5 2.3a5.8 5.8 0 01-4.1 2.4l-2 .4c-.6 0-1.1.2-1.7.4l-.7.2a5 5 0 00-.7.3l-.5.3-.6.4a6 6 0 00-1.1 1.1h-2.6v6.2h38.4z"/><path fill="#007436" d="M367.1 250.3l1.5-1.2c.4-.5.7-1 .9-1.6.1-.7 0-1.5-.4-2.2l-.7-.6h10.3l-.7.6c-.4.7-.5 1.5-.3 2.2.1.6.5 1.1.9 1.6s1 .9 1.5 1.2h-13zm41.4-27.3v1.7h-69.8V223h69.8zm.2-4.1c1 0 1.8.6 2.6 1.3a8 8 0 011.3 1.9h-78c.3-.7.7-1.3 1.3-1.9a4 4 0 012.6-1.3h70.2zm0-1.8v.8h-70.3v-.8h70.3zm-28.8 23.5a46.2 46.2 0 0032.3-12.7c0-.3-.2-.7-.4-.9-.4-.6-1-1-1.9-1.2-1.6-.5-2-.5-3.7.2a20 20 0 00-6.6 5.6 23.5 23.5 0 01-5.2 4.4c-4 2.5-8.2 3.6-14.5 4.6zm-1.1-.6h.5c3.5-.5 4.5-.3 8.3-1.5 7.2-2.4 8.4-4 10.8-6.3l4-4.6c2.1-2.4-3.4-3-5-1-1.8 2-2 2.5-3.7 4.5-1.9 2-4 5.2-7.6 6.7-1.9.8-4.6 1.4-6.9 2-.1 0-.5.1-.4.2zm-1.6-.3h.5c2.8-.6 4.1-.7 6.9-1.8 5.2-2 5.8-3.7 7.9-6 1.1-1.3 2.3-2.8 3.3-4.3 1.7-2.4-3.3-2.7-4.4-1-2.1 3.3-2.4 4.8-5.1 7.7-2 2-5 3.8-8.7 5.1 0 .1-.5.2-.4.3zm-1.7-.3h.4c2.3-.5 3.4-1 5.3-1.9a16 16 0 006.6-5.7l2.6-4.3c1.3-2.3-3.8-2.8-4.8-.7-1.3 2.8-1.5 4-3.6 6.9-1.4 2-3.4 4-6.2 5.3-.1 0-.5.3-.3.4zm-1.3 0h.3c1.6-.7 1.7-1 3-1.9 2.6-1.8 4-3.7 5.3-5.7.8-1.2 1.3-2.6 2-4.3 1-2.3-4.3-3-5.3-.1-.9 2.8-.9 3.7-2 6.3-1 2.3-1.4 3.3-3 5.3-.1.1-.4.3-.3.4zm-.5 0c.2 0 .2-.2.3-.3 2.2-3.3 3.3-6 4.8-11.3.9-3-4.5-3.5-4.6-.1l-.5 11.3v.3zm-8.8 4.3h17.3c-.1-.4-.3-.8-.6-1a8 8 0 00-4.4-2.6c-1.1-.3-2.3-.4-3.5-.4h-.2a13.4 13.4 0 00-3.5.4c-1.6.4-3 1-4.4 2.6a4 4 0 00-.7 1zm19.6 7.8c1.3.2 2.7.5 3.8 1.3l.6.5h-30.6l.6-.5a9.5 9.5 0 013.8-1.3l1.3-.2h19.2l1.3.2zm7.3 2.8v1h-36.4v-1h36.4zm0 2v2.3h-36.4v-2.3h36.4zm-24.6-15.7a46 46 0 01-32.3-12.7l.5-.9c.4-.6 1-1 1.8-1.2 1.7-.5 2-.5 3.7.2a20 20 0 016.6 5.6c1.5 1.6 3.2 3.2 5.2 4.4 4 2.5 8.2 3.6 14.5 4.6zm1.2-.6h-.5c-3.6-.5-4.6-.3-8.4-1.5-7.1-2.4-8.4-4-10.7-6.3a74.4 74.4 0 01-4-4.6c-2.2-2.4 3.4-3 5-1l3.6 4.5c2 2 4.1 5.2 7.7 6.7 1.8.8 4.5 1.4 6.8 2 .2 0 .6.1.5.2zm1.5-.3h-.4c-2.8-.6-4.2-.7-7-1.8-5.1-2-5.7-3.7-7.8-6a41.7 41.7 0 01-3.4-4.3c-1.6-2.4 3.4-2.7 4.5-1 2 3.3 2.4 4.8 5.1 7.7 1.8 2 5 3.8 8.6 5.1.2.1.6.2.4.3zm1.8-.3h-.5a16 16 0 01-5.2-1.9 16.6 16.6 0 01-6.7-5.7l-2.5-4.3c-1.3-2.3 3.8-2.8 4.7-.7 1.4 2.8 1.5 4 3.6 6.9 1.5 2 3.4 4 6.3 5.3 0 0 .4.3.3.4zm1.2 0h-.3c-1.5-.7-1.6-1-3-1.9-2.6-1.8-4-3.7-5.3-5.7-.7-1.2-1.2-2.6-2-4.3-.9-2.3 4.3-3 5.3-.1 1 2.8.9 3.7 2 6.3 1.1 2.3 1.5 3.3 3.1 5.3 0 .1.3.3.2.4zm.5 0l-.2-.3c-2.2-3.3-3.3-6-4.9-11.3-.8-3 4.5-3.5 4.7-.1l.5 11.3v.3z"/><path fill="#f8d407" fill-rule="evenodd" d="M66.1 107.2V83.6h.8v47.1h-.8z"/><path fill="#f8d407" d="M64.8 268.4h3.4V400h-3.4z"/><path fill="#f8d407" fill-rule="evenodd" d="M57.4 104.8v-20h.8v39.9h-.8zm-11.4-2V89h.8v27.6H46zm-9.3-.1v-7.8h.8v15.6h-.8zm39 1.8v-20h-.9v39.9h.9zm11.4-2V88.6h-.8v27.7h.8zm9.4-.1v-7.8h-.8V110h.8zm-32.4 74.2c-27.4-18.9-12.2-8-23.5-16L19.9 146v-18.6c0-20.7 0-17.7 1-16.8 2.4 2.1 15 9.8 17.4 11.5 7.1 5 15.8 9.8 22 14.6l3.6 2.7-.1 19.3c.2 7.4.4 15.5.3 17.9zm-.2 44.4c-27.4-18.9-12.2-8-23.6-16l-20.6-14.6v-18.6c0-20.7-.1-17.7 1-16.8 2.4 2 15 9.8 17.4 11.5 7 5 15.7 9.8 22 14.6l3.5 2.7-.1 19.3.4 17.9zm-.3 44.6c-27.4-18.8-12.1-7.9-23.5-16L19.4 235v-18.5c0-20.7 0-17.8 1-16.8 2.4 2 15.1 9.8 17.4 11.4 7.1 5.1 15.8 9.8 22 14.6l3.6 2.8-.1 19.3c.2 7.3.4 15.4.3 17.8zm5.7-88.6c27.5-19 12.3-8 23.7-16l20.7-14.6v-18.5c0-20.7.1-17.8-1-16.8-2.4 2-15 9.7-17.4 11.4-7 5.1-15.8 9.8-22 14.6l-3.6 2.7.1 19.4-.4 17.8zm.3 44.4c27.5-18.9 12.2-7.9 23.6-16l20.7-14.6v-18.6c0-20.6 0-17.7-1-16.7-2.4 2-15 9.7-17.4 11.4-7.1 5-15.8 9.8-22 14.6l-3.6 2.7.1 19.4c-.2 7.3-.5 15.4-.4 17.8zm.2 44.6c27.5-18.8 12.3-7.8 23.6-15.9l20.7-14.7V217c0-20.7.1-17.7-1-16.8-2.4 2-15 9.8-17.4 11.5-7.1 5-15.8 9.8-22 14.5L70 229l.1 19.3-.4 17.8z"/></svg>