<svg xmlns="http://www.w3.org/2000/svg" xmlns:xlink="http://www.w3.org/1999/xlink" height="400" width="600"><defs><path fill="#ff0" id="a" d="M15-4.9L-9.3 14.3l9.3-30 9.3 30L-15-5z"/><path fill="#ff0" id="b" d="M-6-50l6-35 6 35H3V50l3 6v25L0 71l-6 10V56l3-6V-50z"/></defs><path d="M0 0h600v400H0z" fill="#2a6b11"/><use transform="translate(0 50)" height="100%" width="100%" xlink:href="#a" y="210" x="50"/><use transform="translate(0 50)" height="100%" width="100%" xlink:href="#a" y="120" x="110"/><use transform="translate(0 50)" height="100%" width="100%" xlink:href="#a" y="70" x="170"/><use transform="translate(0 50)" height="100%" width="100%" xlink:href="#a" y="40" x="235"/><use transform="translate(0 50)" height="100%" width="100%" xlink:href="#a" y="30" x="300"/><use transform="translate(0 50)" height="100%" width="100%" xlink:href="#a" y="40" x="365"/><use transform="translate(0 50)" height="100%" width="100%" xlink:href="#a" y="70" x="430"/><use transform="translate(0 50)" height="100%" width="100%" xlink:href="#a" y="120" x="490"/><use transform="translate(0 50)" height="100%" width="100%" xlink:href="#a" y="210" x="550"/><use transform="translate(0 50)" height="100%" width="100%" xlink:href="#a" y="95" x="225"/><use transform="translate(0 50)" height="100%" width="100%" xlink:href="#a" y="95" x="300"/><use transform="translate(0 50)" height="100%" width="100%" xlink:href="#a" y="95" x="375"/><use transform="translate(0 50)" height="100%" width="100%" xlink:href="#b" y="200" x="300"/><use height="100%" width="100%" transform="rotate(45 -151.8 487.1)" xlink:href="#b"/><use height="100%" width="100%" transform="rotate(-45 451.8 -237.1)" xlink:href="#b"/></svg>