<svg xmlns="http://www.w3.org/2000/svg" height="400" width="600"><path fill="#0070ff" d="M0 0h600v133.3H0z"/><path fill="#fff" d="M0 133.3h600v133.4H0z"/><path fill="#007000" d="M0 266.7h600V400H0z"/><path d="M350 200a50 50 0 01-50 50 50 50 0 01-50-50 50 50 0 0150-50 50 50 0 0150 50" fill="none" stroke="gold" stroke-width="6.7"/><path d="M310.7 200a10.7 10.7 0 01-10.7 10.7 10.7 10.7 0 01-10.7-10.7 10.7 10.7 0 0110.7-10.7 10.7 10.7 0 0110.7 10.7" fill="gold"/><path d="M300 200h33.3" stroke-width="2" stroke="gold"/><path d="M340 200a6.7 6.7 0 11-13.3 0 6.7 6.7 0 0113.3 0" fill="gold"/><path d="M300 200l28.9-16.7" stroke-width="2" stroke="gold"/><path d="M334.6 180a6.7 6.7 0 11-11.5 6.7 6.7 6.7 0 0111.5-6.7" fill="gold"/><path d="M300 200l16.7-28.9" stroke-width="2" stroke="gold"/><path d="M320 165.4a6.7 6.7 0 11-6.7 11.5 6.7 6.7 0 016.7-11.5" fill="gold"/><path d="M300 200v-33.3" stroke-width="2" stroke="gold"/><path d="M300 160a6.7 6.7 0 110 13.3 6.7 6.7 0 010-13.3" fill="gold"/><g><path d="M300 200l-16.7-28.9" stroke-width="2" stroke="gold"/><path d="M280 165.4a6.7 6.7 0 116.7 11.5 6.7 6.7 0 01-6.7-11.5" fill="gold"/></g><g><path d="M300 200l-28.9-16.7" stroke-width="2" stroke="gold"/><path d="M265.4 180a6.7 6.7 0 1111.5 6.7 6.7 6.7 0 01-11.5-6.7" fill="gold"/></g><g><path d="M300 200h-33.3" stroke-width="2" stroke="gold"/><path d="M260 200a6.7 6.7 0 1113.3 0 6.7 6.7 0 01-13.3 0" fill="gold"/></g><path stroke="gold" stroke-width="2.7" d="M300 200v33.3"/></svg>