<svg xmlns="http://www.w3.org/2000/svg" viewBox="0 0 600 400"><path fill="#a32638" fill-rule="evenodd" d="M0 0h600v400H0z" clip-rule="evenodd"/><path fill="#9b7d23" fill-rule="evenodd" d="M393.7 312.6c0 .4.3.8.7.8 0 .5 0 1 .2 1.5.8 2 2.3 2.5 2.6 3.2.1.2.2-.4.3-.2 1.5 1.6 4 2.8 6.4 1.6 1.6-1 1.3-3.1.2-4.4-1.2-1.5-3.2-2.4-4.2-2.9 0-.1.3-.4.2-.5-.9.2-3.3-.7-4.5 0a2 2 0 00-.6.5c-.1-.3-.4-.5-.6-.5a9 9 0 01-.7.9m18-29.1c-4.4-1-5.2 2.7-7.5 2.8-1.3 0-.6-1.3-2-1.8a.7.7 0 00.5-.5 3 3 0 001.7.6c2.6 0 4-1.5 5-1.5.2 0-.4-.4-.2-.4 2.6-1 5-3.3 4.8-6.5-.3-2.3-3-3-4.9-2.3-2.2.7-4.2 2.6-5.2 3.5-.1-.2-.4-.7-.5-.5-.2 1-2.3 3.4-2.1 5 0 .4.1.7.3 1-.4 0-.7.2-.8.5v.5l-.4.5c-1.7.2-2 2.8-3.6 3.1-.3 0-1-.3-1.3-1-.6-1.6-2.1-6.6-5.6-11.7l-4.4-6c.1 2.6-3.5-.1-5.4 3.3-.7 1.5.1 3.1-.8 4.4-.8 1-2.2-.7-3 1.6-1.6 3.7-3.8 7.3-5.3 10.7-1.6 3.8-.4 7.6-2 10.2 6.8 3.4 11.5 10.4 26 10.5.7-.5 1-.8 1.4-.6 1.5-.2 3.4 1.4 4.7 2 1.3.7 2.4-.8 3.7-1.2 2.4-.7 5 4.3 8.2 2.7 1.5-.7.8-1.2 1.8-1.8 1.4-.6 4.7 3.2 6.9 1.8 1.8-1.2.8-2.3 1.6-3 1 .1 2.8.5 4-.3 1-.6 1.2-1 1.4-1.7.6-3.4-2.5-3.3-2.6-4.4 0-1.2 2.6-1 1-4.3-1.6-2-3.4-.3-4.6-1.2-.6-.1 1.4-1.4-.9-2.8-1-.6-4-.8-4.6-.8l-1.3-1.7c.3-1.1 3-1.8 3.7-3 .6-1 .5-2.6 0-3.2-2-1.7-3.8-1.2-6-.1-1.2-.4 0-2-1.7-2.4zM380.4 328c-2.1-1.2-2.8-.1-2.7-4.3 0-2-3.4-1.1-5.5-2-3-1.8 1.3-2.7-1.9-4.7-.4-.3-4.6-.8-6.8-1.2-.9-.2-.2-1.6-.3-2.8l-.2-.1.2-.1c-.2-.8-.9-1.4-2.9-1.2-.7 0-3.4.9-4.7.1-.3-2.3-1.1-2.1-1.8-2.3-2-.5-3.3 1.1-4.6.9-2.4-1.3-.4-1-2.6-2.2-2.1-.3-5.3 1.2-7.5 1 1.8 2 3.4 4.2 5 6.5 3.8 6 6.7 11.4 11.1 12.3l1.2.1c1.6.5.3 3.7 3 4 2.6.4 1.8-1.8 3-1.4 1.3.5 1.7 3.2 3.8 3.1 1.8.2 1.2-1.6 2.4-1.5 1.2.2 1.8 2.5 4.2 2 2 .1 1.9-2.4 3-3 3.3 1.6 8.4-.3 4.6-3.2zM337 306.9v-.1c.6.2 1.1 0 1.3-.4v-.1a4 4 0 001.8.5c2.6 0 3.9-1.4 4.9-1.4.2 0-.4-.4-.2-.5 2.6-1 5-3.3 4.9-6.5-.4-2.2-3-3-5-2.3-2.2.8-4.2 2.6-5.2 3.5l-.4-.5c-.3 1.1-2.4 3.4-2.2 5.1 0 .4.2.7.3 1-.3 0-.7.2-.8.5v.5c.1.3.4.5.6.7zm70.3-62c-1.3-.4-2.6-.9-3.5-.5-1.5.7-1.8 2.5-2 2.3-.7-1-.3-2.3.3-2.9 1-.9 3.3-1.1 3.9-1.8 1.4-1.4-.1-2 .1-2.9.4-1.4 5.1-3 5.8-4 .5-.7.8-1.5 0-2.5s.2-2 1.6-2.9c4-4.1.9-5.3-.4-5.5-.4-.1 3-2.9 3.5-5.1.3-1.8-2.3-3-2.3-3.3 5.8-7.2-2-8.6-4.6-4.5-.6 1-2-1.9-3.6-1.3a12 12 0 00-2.5 1.6l1-2c1.1.2 2.2-.1 3.2-.8 2.4-1 3.2-2.8 4-3.2.3 0-.4-.2-.3-.3 2-1.8 3.5-5 2.2-7.8-1.2-2-4-1.7-5.5-.4-1.8 1.6-3 4-3.5 5.2l-.3-.1-.5.9c-.3 1.4-1.2 3.6-.6 4.8.1.3.3.7.6 1-.4 0-1 .3-1 .7l.1.4-1.4 4.5c-.8-.3-2.4-1.2-3.3.1-.9 1.4-.7 6-1.8 5.3-.7-.4-1.5-1-2.7-.5h-.1c.2-.8.4-2 0-2.6-.5-.5-2 0-2.1-1-.3-1.3 1.2-4.1 1-5.4 0-1.4-1.6-1-2-1.2h-.1l-.1-.1h-.1v-.1h-.1v-.1h-.1v-.1l-.3-.6v-3.9c0-.5-.2-.9-.4-1.2-.8-1.3-3.4.9-3.6-.4-.2-3.7-2.4-6.3-3.5-4-.4 1.3-.8.2-1.2-.4-2-2.3-1.8-2.7-4.7-3-1.2.6-1 3.5.6 6.3.5 1 .2 1.1-.5 1.6-3.7 2.4 2.7 7.2.2 8.3-3.5 2.4 2.3 5.3 1.5 7.1-1.7.6-2.6 2-1.8 3 1.1 1.4 3.8 3 3.5 4.2 0 1.8-2.5 3.6.1 5.4.5.4 1 .7 1 1.3-.3 1.7 2.5 9.4 9.3 17.8 7.7 9.7 14.3 21.4 14 24.9.5-.3 1.8-.8 2.4-1.6.6-.8.3-2-.1-3-1-1.8 6 1.1 6.4-5.1 0-.7-1-2 .4-2.9 3-.9 5.3-3.4 4.2-5.5-.3-.5-2-.8-1.5-2 3.6-2.3 4.4-6.2 2-7-2.7-.8.4-2.3.8-4.4a4 4 0 00-.6-3.1c-.8-1.1-3.2-1-5.3 2-1.1.3-.7-1.5-1.9-1.9-2.7-.8-3 4.2-3.8 4.2zm12.8-92.8c-1.5.4-2 1-3.6 2-1.6.5-.6-1.3-2.5-1.5-2.6-.2-3.8 2.5-4.7 4.4-1 1.3-.4-1.6-3.5-1.3-2 .2-3.4 3.1-4.5 5.5-.6.3-.9-.5-1.7-1l.9-2.5c.5 0 1-.4 1-.9v-.1c.6.1 1.3 0 1.8-.1 2.4-1 3.1-2.8 4-3.2.2-.1-.5-.2-.3-.4 2-1.8 3.5-5 2.1-7.8-1.2-2-3.9-1.6-5.4-.3-1.8 1.5-3 4-3.6 5.2-.2-.1-.5-.5-.6-.3.2 1.1-1 4 0 5.5 0 .3.3.6.6.8-.4.1-.6.4-.6.7l.1.5-.6 2.8c-.5-.1-1.2 0-2 .4-2.1 2.3-1.7 2.7-2.6 6-.8 1.4-.8-.8-3.1 1l-1.3 3.6c2.8 4 8.8 11.3 12.4 17.7h.1c.7.2 2.5.1 3-.5.8-.9.3-2.4.5-2.3 1.1.3 4.2-.6 5.1-2 .9-1.3-.4-3.2.5-3 3.2-.7 4.6-.7 6-3 1-2.8-2.5-2-.4-3.5 1.9-1.3 3.2-1.2 5-4 .6-4-3.7-2.9-.8-4.8 1.5-1.3 4.8-4.8 1.2-6-2.1-.7 1.3-3.3.8-6-.6-1.3-1.2-2-3.3-1.6zm-14.5-14.5c-.2-.9.8-1.5 1.2-1.7 6-3.2 2.9-4.6 2-6-.6-1 2-1.5 2.8-2.5.4-.7 1-2 .3-3-.8-1-2.6 0-1.7-1.2 2-4.2 1.2-6.4 0-6.7-.7-.1-1.5.4-1.5 0 .9-9-4.9-5.8-6-2.1-.6.9-1.2-.8-2.6 0-.7.3-1 2.5-1.4 2.5-3-1.7 2.9-9.3-3-8.6-1.8.3 2-7-3.3-7.1-1.4 0-2.5 1.7-3 .2-.3-3.7-3.7-6.5-5-3-.4 1.2-1.1 1.1-1.5.5-2-2.2-3-3.7-6-3-1.2.7-1.8 2.5-.2 5.2.5 1.1-1 1.2-1.6 1.6-3.7 2.4 4.1 4.3 1.6 5.4-3.4 2.4 4 4.8 3.2 6.6-1.3 1.5-1.2 2.8-.4 3.8 1.1 1.4 5.4 2.6 5.1 3.8-.6 3.1 3.5 4.9 3.6 7.9-1.2 1.2-1 .6-2.2 2.7-.7 1.1-1.4-1.4-3.2-.2-1.1.8-1.5 4-2 4.7-.4.7-2.7.2-3.2 2.3-.4 1.9 1 5.4.6 6.2-.7 1.4-2-.2-2.5 3.4-.4 2.5 2.3 3.9 1.6 5.2-.5 1-1.7 2-1.4 3.9.5 2.8 2.4 6.5 3.2 8.9 2.8-5 7.4-9.3 12.2-11.8l.1-.4c0-1 2.7-2.5 5.2-4.3l1.2-.9c1.8-1.4 3-3 2.4-4.6-.7-1.7 2.7-2.9 4.6-4 1.8-1.4.8-3.6.8-3.7zM286 308.2a5 5 0 012.3 1.7c.7.9 1.3 1.8 2 2h.7c.9-.2 2.7 0 3.4.6 1.6 1.1 2.2 2.8 3.3 4.2l.2.3v-.2c.2.4 2.1 2 2.3 2.3.6 1.1-.4 1.2 0 2.3-4.3 1.4-8.2 6.2-12.1 10.8-1-.5-2-1-1.8-2.9a58 58 0 0111.2-8.8c-2.6.6-5.5.5-8.4 2.7-.6.5-2.3.5-2.7.1-.6-.4 0-1.5-.8-1.4-1.5.1-3 2.8-4.9 2.5-.7 0-1.3-1.7-2.2-1.6-1.7.2-1.2 3-4.4 1.3-2.4-2.3-2.2-1.8-4.7-.1-3.8 0-.8-2-1.4-2.8-.5-1-1.5-.5-2.3-.3-1 .4-3.7.7-4.3-.6-.4-1 .7-2.5 1.3-2.7 2-.4 3.7-.5 1.6-2.3-1.4-1.2 2-2.8 4.7-2.1 3.3-.4-1.5-3.8 2-4.3.5 0 3.4 1.6 5.5 1.2 1.6-.3 0-4.9 4.6-2.6.6.3 1.6 2 3 1.8.6-1.2 1.3-1.3 1.8-1.1" clip-rule="evenodd"/><path fill="#9b7d23" fill-rule="evenodd" d="M314 308.3a5 5 0 00-2.3 1.7c-.7.8-1.3 1.8-2 2l-.7-.1c-1-.1-2.7.2-3.5.7-1.5 1-2.2 2.8-3.3 4.2l-.2.3v-.2c-.1.4-2 1.9-2.3 2.3-.5 1.1.4 1.2 0 2.3 4.4 1.4 8.3 6.2 12.2 10.8.9-.5 2-1 1.7-2.9a56 56 0 00-11.2-8.8c2.7.6 5.5.4 8.4 2.7.7.5 2.3.5 2.8.1.6-.5 0-1.6.8-1.5 1.4.2 2.9 2.9 4.9 2.6.6 0 1.3-1.7 2.2-1.6 1.7.2 1.2 3 4.4 1.3 2.4-2.3 2.2-1.8 4.7-.1 3.8 0 .8-2 1.3-2.8.6-1 1.6-.6 2.3-.3 1.1.4 3.8.6 4.4-.6.3-1-.7-2.5-1.3-2.7-2-.4-3.7-.5-1.6-2.3 1.4-1.2-2-2.9-4.8-2.1-3.2-.4 1.6-3.8-2-4.3-.4-.1-3.3 1.5-5.4 1.2-1.6-.3 0-4.9-4.6-2.6-.6.3-1.7 2-3 1.8-.7-1.2-1.3-1.3-1.8-1.1" clip-rule="evenodd"/><path fill="#abd3f1" fill-rule="evenodd" d="M231 144h138v129.5a17 17 0 01-17 17h-34.9c-3.2 0-16 1.3-17.2 9.8-1-8.5-14.6-9.8-17-9.8h-35a17 17 0 01-16.7-17v-.1z" clip-rule="evenodd"/><path fill="#f2d300" fill-rule="evenodd" d="M376.5 97.6c0 1.5.8 2.2 1.3 4.2-.2 1.3-3.2 1-2.8 2.4.3 1.3 2.2 1.2 3.3 3.3-.3 1.4-2.3 1.5-1.4 2.5 1.4 1.5 2.9 2 4 4 0 1.8-1.9 2.2-.9 3.5 1.3 1.8 5.6 3.2 6 4.7 0 .4-.1.8-.4 1.4 0 1.3 3 3.5 3.3 6.1.6-.1 1-.1 2.4-.5.1-1.6 0-3.2-.2-5 0-.1-3.9-1.8-4-2 0-.1 3.8 1.2 3.8 1l-1.2-5c0-.2-6.6-2.4-6.6-2.6 2.8-.6 6.3 1.6 6.2 1.4l-1.3-4.4c-.9 0-6.6-2.3-8.8-4 5.4 0 8 2.3 7.8 2-2.5-4.4-6.1-8.7-8.4-13.2-.9-1.1-1.8-.4-2.1.2m28.6 14c-1.2 1-.7 2.3-2 3.9-1 .7-2-1.3-2.8-.2-.7 1-.2 1.1-1.2 3.4-1.1.7-3 0-3.5 1.4-.8 2.6.9 2.6 0 4.8-1.3 1.2-3.1 1.4-3.5 3v1.8c.9 2.1 0 4.5-.6 5.7.4 2 3.1-.6 3.4 2 .2 2.3-1.1 2-1.4 4.2 0 1.2 1.4.5 1.8 2.4 0 2.6-4.7 5-1 6.8 1.2-1 2.2-9 3.3-10.3.2-.1-3.4-8.9-3.3-9a11 11 0 013.8 7.2c1-1.3 1.5-4.3 2.3-6a37 37 0 01-3.7-7c2.3 1.7 4 6.1 4.2 6 .8-1.3 1.2-4.5 2-5.8-.5-.6-3-3.3-3.2-6 3 2.4 3.3 4.3 3.4 4 1.9-4.7 1.7-7.1 3.7-11.8.3-1.4-1-.7-1.7-.5zm-15.8 19c-1.1 1-1.6 1.5-2.8 3.1-1.6 1.4-2.9-.9-3.7.1-.8 1-.7 2-.8 4.1-1.2 1.3-3.2.8-3.6 2.2-.6 2.6 1.8 3.8 1 6-1.4 1.7-2 1.2-2.7 2.3-.6 3.3 1.1 2.7 1.5 6-.3 1.7-1.5.9-1.7 3.2 1 3.2 2 5.6 3.2 8.5.6-1.6 2-6.3 2.1-8.4l-4-7.8c.1 0 3.8 2 4.3 6.3 1-1.3.4-3.8 1.3-5.5a22 22 0 01-3.2-6.6c2.3 1.8 3.4 5.3 3.5 5 .8-1.2.7-3.4 1.5-4.7-.5-.7-2-2.8-2.1-5.5 2.9 2.4 2.8 3.7 2.9 3.5 1.8-4.8 2.5-6.3 4.5-11 .2-1.3-.5-1-1.2-.8zm30.2 22.6c-1.4.5-1.1 1.7-2.9 2.7-1.5.4-1.2-2.2-3.2-2.3-2.5-.2-2.8 3.3-3.8 5.2-2.2 2-1.4-3.9-4.7-2-1.7 1-1.6 3.7-3.2 5.5-2 1-1.9-2.6-4.5-.5-1.8 2.8-1 2.5-2 5.8-1.5 1.9-2.2-1.2-3.3.8l-1.1 3.7 1.2 1.9 4.9 6.5.6-.9c0-.1-2-9-1.8-9.1.1-.1 1.8 1 2.7 8.4 1.4-.8 3-3.4 4.5-4.7-.3-1.2-1.7-9.6-1.5-9.7 1.6 2.5 2.4 8.9 2.6 8.7 1.3-.8 3.2-3.2 4.5-4.3-.3-.8-1.3-5.6-1-8.3 1.6 3.3 1.8 7 2 6.9 4-3.6 8.6-10.1 12.2-13.7-.5-1.3-1.4-1-2.2-.6zm-3.6 88c-1 .5-1.4 1.5-2.6 2.3-1 .4-1.6-2.1-3-2-1.9 0-1 2.8-2.4 4.3-1.2 1.2-2-2-4.2-.4-1.2.9-.6 3-1.6 4.3-2 1.8-2.6-.1-4.4 1.6-.9 1.9.3 3.7-2 5.4 2 2.5 4.6 6.5 5.4 7.4 0 0 .2-1 .7-1.8 0 0-2-7.6-1.8-7.9 0 0 1.4 2 2.5 7.4 1-.7 1.6-2.7 2.5-3.7-.2-.8-1-7.7-.8-7.8 1.4 1.7 1.4 7 1.5 7 .9-.8 2.5-3.6 3.4-4.5-.3-.6.2-4.1.2-6.1 1.5 2.3.5 5 .6 5 2.7-3 5.3-7.3 7.6-10.1-.4-1-1-.6-1.6-.3zm-3.3-30.9c-1 .3-1.3 1-2.4 2-1.8 1-2.7-1.8-4-1.6-2 .3-1.7 3.3-3.4 5-1.6 1.3-2-2.5-4-.6-.3.3 0 3.8-1.2 5.3-.8 1-3.3-1.4-4.3.6-.5 1-1 2.5-1 3.8 0 .7.3 2.3-.7 3.4-2.3-.1-2.7 1.4-3 2-.9 1.8.8 4.1.3 5.3-1.6 2-1.3 0-2.8 2-.7 2 1 4.2-.2 6.1 2.2 2.3 3.7 5 4.6 6l1.8-5.1c0-.1-2.2-7.7-2-8 0 0 .8.9 2.6 6 .4-.4 1.6-3.3 3.1-6 .2-.3-2.7-10.2-2.5-10.4 0-.2 3.2 9.3 3.4 9 1.8-3 3.7-5.9 4.1-6.4-.4-.8-2-8.2-1.8-8.3 1.6 1.5 2.3 7.5 2.4 7.3a87 87 0 004-5.2c-.3-.5-.2-4-.6-6 1.8 2 1.2 5 1.3 4.8 2.3-3.2 6.8-7.6 8.7-10.7-.5-.8-2-.7-2.4-.3zm4 76c-1-.3-1.7.2-3.1.5-2-.2-1-2-2.3-2.7-1.7-.7-3.9 2-6 2.9-3.1 1-1.7-1.7-4.4-1.2-.4 0-1.8 1-3.5 2.3-1 .7-2.2-2.5-4.1-1.4-1 .6-1 .2-1.7 1.4-.3.5-1.6 2.4-3 3-1.8-1.5-2.6-.9-3.1-.6-1.7 1.1-1.9 4.8-3 5.5-2.4.8-2.2-.3-4.5.5-1.6 1.3-2.2 4.4-3.6 5.9 1.8 1.2 3.7 2.5 5.9 3.7a73.2 73.2 0 002.5-1.3s-1-6.7-.6-6.9c0 0 1.4 2.7 1.2 6.3.6 0 3.6-2.8 6.4-4.3.3-.1.2-7.7.4-7.8.3-.1.1 7.2.4 7 3.1-1.5 3.5-1.7 4.2-1.9 0-.9 3.4-8.6 3.6-8.5.5 2.1-2.8 8-2.7 8 1.1-.3 5.6-2.8 6.8-3.3 0-.6 3-3.7 3.8-5.5-.5 2.6-2.7 5-2.6 4.8 4-3 12-4 15.4-5.5 0-1-1.8-1-2.4-1zm-37.6 42c-2-1-2.7 0-2.7-4.2 0-1.8-3.2-1-5.3-2-2.8-1.6 1.3-2.5-1.8-4.4-.4-.3-4.5-.8-6.6-1.2-1.5-.3 1.8-4.4-3-4.1-.8 0-3.4.9-4.7.2-.3-2.3-1-2.1-1.7-2.3-1.9-.5-3.2 1-4.5.9-2.3-1.3-.3-1-2.5-2.2-1.8-.2-4.4.9-6.4 1l2.4 3c2.3 1 5.1 1.7 5.8 2 .3 0 6.3-1.1 6.5-1 .3 0-5.2 1.5-5 1.6 3.4 1.3 4.2 2 4.8 2.3.7-.5 7.6-1.5 7.7-1.3-2 1.5-7 1.3-6.7 1.7.5 1 4.3 2.7 5.5 3.2.4-.4 6.1-.7 8-1.4-2.2 1.5-6.9 2.3-6.6 2.5 4.2 2.2 14 6.8 17.8 7.6.8-.7-.5-1.5-1-1.9zM336 318c-2-.4-3.3-.8-1.3-2.6 1.4-1.2-2.4-1.9-4.7-1.9-3.2-.3 2-3.5-1.7-4-.4 0-3.4 1.5-5.5 1.1-1.6-.3.5-4.7-3.8-2.4-.6.3-1.5 2.3-3 2.2-1.2-2-1-1.4-1.7-1.3-2 .4-3 3.2-4.3 3.5l-2.6-.2c-2 .5-5 7-7 7.7-.2 1-1.3.4 1 .3 2-2 7.9-3.9 8.7-4 .3 0 3.5-5 3.7-5 .3 0-2.1 4.5-1.8 4.5 3.5-.2 4-.5 4.7-.5.4-.7 3.9-4.8 4-4.7-1.2 2.3-3.3 4.4-3 4.7 1 .6 3.7.2 5 .2.2-.6 2.9-2.1 4.3-3.5-1.4 2.3-3 3.8-2.6 3.8 4.8.4 9.7 2.8 13.4 3.8.4-1-1.2-1.6-1.8-1.7zm50.2-48.3c-2.7 3.7-3 .5-4.4 1.7-.3.3-1.5 2.7-1.2 4.8-.7 2.2-2.4.5-3.3 2.1-1 1.9 1.2 4.8-.2 6.4-1.6 1-2.3 1.5-2.5 2-.4 2 .3 2.4-.2 3.6-1.3 1.8-1.6.4-3.3 2.3-.5 1.5-.7 4.7-1 7l1.7 1c1.7-2 4.4-5.2 4.7-5.8 0 0-.8-6.4-.7-6.6 0-.1 1.4 2.5 1.5 5.9.5-.4 1.5-1.3 3.1-4 .2-.2-1.2-7.8-1.4-10.1a19 19 0 012 5c.6 2 .5 4.4.6 4.3l3.7-5.6a56 56 0 01-1.7-9.5c1.5 1.5 2.3 8.2 2.4 8.1 2-3 3-5 4.2-7l-.3-.5-3.7-5.1zm-9.8-71.8a13 13 0 011.6 4.8c-.6 2-.7 1-1.6 2.1-1.1 1.5 2 3.5 2 5.8-.3 2.1-1.3.7-1.5 3.4 0 .4 2 2.5 2.2 4.4.2 1.2-3.4 1-2 2.8.7 1 2.7 1.6 3.5 4 .2.6-1 2.5-.9 4 1.3 1.7 2.4 2.7 2.6 3.4.7 1.8-.5 3 0 4.3.1.7.2 1.2.5 1.7v.2l2.1 3.2c-.2-4-.6-6.3-.4-12.6 0-.7-3.3-5.8-3.3-6 0-.3 2.9 2.5 2.8 2.3-.8-3.2-.3-3.1-.4-3.8-.8-.3-4.5-6.1-4.5-6.3 2.2.7 4.4 3.3 4.4 3.2 0-1.1-.6-4.3-.8-5.5a9.6 9.6 0 01-3.8-4.5c2.5 1 3.4 3.3 3.4 3.1-.4-5.7-3.6-12.2-5.2-15.9-1-.2-1 .8-.7 2zm13-95.2a16.1 16.1 0 00-1.6 9.4c1.9-2.2 2-7.4 1.6-9.4zm19.3 20.4c-2.7.7-5.7 1-5.3 2.5 1 .6 4-1 5.3-2.5zm10.3 45.6c-2.8-.5-9.4-.7-9.8.3.7 1 7.8.6 9.8-.3zm-3 83c-2-.1-6.2.4-6.4 1.2.5.7 5.1-.4 6.4-1.1zm-6.5-24.2c-2.6-.2-7.5.5-7.7 1.5.7.9 6-.5 7.7-1.5zm2.8-5.5c-2.6-.2-5.8-.4-6 .6.7.9 4.3.4 6-.6zm-26.6-14.4c-1.5 2.2-3.3 4.8-2.5 5.5 1-.2 2.5-3.5 2.5-5.5zm2.2 4.7c-1.5 2.1-3.9 7.9-3.1 8.6 1.1-.2 3-6.7 3-8.6zm2.5 6.7c-1.5 2.1-6 9-5.3 9.8a24 24 0 005.3-9.8zm17.9-73.1c-1-1.6-3.3-1.4-4.5-.3-2 1.6-3 4.3-3.2 4.9-.5 1.8 2.1 3.6 3.9 3.2 2.6-.4 5.4-4.5 3.8-7.8zm4.5 52.2c-1-1.6-3.2-1.3-4.5-.2-1.9 1.6-3 4.2-3.2 4.8-.4 1.8 2.2 3.7 4 3.2 2.5-.3 5.3-4.4 3.7-7.8zm.3 78.4c-.3-1.8-2.5-2.4-4-1.9-2.4.8-4.4 2.9-4.8 3.4-1.1 1.5.6 4.1 2.4 4.4 2.5.6 6.7-2.2 6.4-5.9zm-9.7 42.4c1.3-.8 1-2.6.1-3.6a10.3 10.3 0 00-4-2.6c-1.4-.4-3 1.8-2.5 3.2.3 2.1 3.6 4.4 6.4 3zm-10.8-177.1c-2.7.6-6.8 1.3-6.4 2.8 1 .6 5-1.3 6.4-2.8zm2.6-25.4a16.1 16.1 0 00-3.6 8.8c2.3-1.8 3.5-6.8 3.6-8.8zm10 20.2c-2.8.1-4 .5-6.8 2.6.7 2 5.1-1.3 6.8-2.6zm2.3 43.7a15 15 0 00-9.1-.5c-.2 2 7 1 9 .5zm3.5 81.5c-1.9-.7-6 .4-8.6 1.2 0 1.5 7.2-.8 8.6-1.2zm-22.4 27c-2-.7-4.6.3-7.1 1 0 1.6 5.6-.7 7.1-1zm5.3-5.6c-2-.6-5.6-1.2-8.2.6 0 1.5 6.7-.1 8.2-.6zm20.6 26c-.1-2 0-4.1-2.7-6-1.4.6 1.8 4.8 2.7 6zm3.3-1c0-1.4 0-2.9-1.8-4.2-1 .4 1.2 3.3 1.8 4.2zm-8-10.8c-1.4-1.4-4.4-3.6-7.5-3-.6 1.3 6 2.7 7.6 3zm-6.2 4.3c-3.7-1.7-4.6-4-7.8-4.2-1 1.2 5.7 4.5 7.8 4.2zm-6 2.5c-1.1-1.7-4.1-2.2-7-4-1.2 2.6 5.6 3.5 7 4zM389 308c-1-1.7-3-2-5.6-3.2 0 3.2 4.2 2.6 5.6 3.2zm-23 22c0-2-2.8-5-4.2-7.3-1.8 2.6 3.4 6 4.2 7.3zm-37.5-9.3c-.6-1.5-3.4-3.5-5.2-4.7-.5 2.5 4.2 4 5.2 4.7zm33.5 8c0-2-5.1-7.2-6.5-9.6-1.9 2.7 5.6 8.3 6.5 9.5zm-38-7.2c-.7-1.4-4.6-4-6.5-5.2-.4 2.5 5.4 4.6 6.4 5.2zm30.7 2.7c0-2-4.5-6.2-6-8.5-1.8 2.6 5.2 7.2 6 8.5zm-37.8-2.5c-.6-1.5-3.5-3.6-5.3-4.9-.5 2.6 4.3 4.3 5.3 4.9zm84.8-79.4c-2.5.3-5.7 1-8.8 1.5 1.8 1.7 4.6 1 8.8-1.5zm-11.8-89.6c-2.7 0-4.6 1.7-7.5 3.9.7 2 5.8-2.7 7.5-4zm3.7-45.7a24.2 24.2 0 00-2.8 11.4c2-2 3-9.3 2.8-11.4zm13.4 23c-2.8.4-5.8.8-5.9 2.3.5 1 4.4-.9 5.9-2.3zm6.8 44.5c-2.7-.7-9.8-1-10.5.3 0 1.1 8.5.4 10.5-.3zm.7 83.3c-2-.3-8.3-.2-8.7.8.1.9 7.3-.1 8.7-.8zm-7.2-23.2c-2.6-.4-10 1.5-10.5 2.8.2 1 8.7-2 10.5-2.8zm-15.2-87.8c-2.8.5-8 2-8 3.5.5 1 6.5-2 8-3.5zm29 148.8c-1.2-.6-2.4-1-3.9-.6.4 1.6-3.9 2.6-4.5 2.6-2 .2.4 2.2-1 3.5.1 0-.6 1-1.6 1.2-2 .5-4-.6-4.4.8 0 .4-.4 2-2 2.5-2.8.6-4.4-1.5-6.4.1-.4.4-.7 1.8-1.5 2.3-1.3 1-3.4 1.2-1.4 1.4 1.5.2 3-1 3.6-3 .4-.8 3 .5 4 .5 3 .5 3.9-1.1 4.6-2.8-.2-.8 2.3 0 4-.6 1.1-.4 1.3-1 1.5-1.6.3-.4 6-3.2 6-3.2.3 0-5.5 3.4-5.1 3.4l1.7.5 1.7.5c.2 0 4.9-1.9 5-1.8.2 0-4.2 2.2-3.8 2.3 4.9 1.7 9 4 9.4 4 1.4-.1 1.5-2.8-1.6-3.6-1.2-2.3 1.9-2.2 1.3-4-.9-2.8-3.7 0-5.2-1-1.2-.6 1-2-.4-3.4zm-109.2 33.2l-1 1.3c-1-2-3-4-4.4-5.9 2 1.3 4 2.6 5.4 4.6zm-.4 2c-.4-.5.6-1.2.8-1.7l.8.8c-.2.5-.7 1.5-1.6 1zm37.1-32c-.3-1.9-2.5-2.5-4-2-2.4.8-4.4 3-4.8 3.4-1.1 1.5.6 4.2 2.4 4.4 2.6.7 6.7-2.1 6.4-5.8z" clip-rule="evenodd"/><path fill="#0f5a26" fill-rule="evenodd" d="M389.7 204.3h.3c1-1.5 1-2.1 1-3.6-6-5.9-14.9-16.4-14.9-22.3-.8-10.1 9.4-21.7 19-24.5 1.8-.8 1.6-2.1 1.4-3l1.2-1c2.8 4-4.4 8.7-9.2 19.2 1.8 3.2 12 15 15.6 23.3 3.6 8.4-1.5 11.5-2.5 14.2-1.2 3.2-5.7 11.6-7.8 10.3v2.4l-.2.2c.2-.9.4-2.1 0-2.7-.4-.5-2 0-2.1-1-.3-1.3 1.2-4.1 1-5.4 0-1.4-1.6-1-2-1.2-1.4-.6-.7-3.1-.8-5" clip-rule="evenodd"/><path fill="#008d21" fill-rule="evenodd" d="M400.7 205.8c2.4-2.8 4.4-7.5 3.3-9.5-4.3-14.7-20.7-24.7-18-36.6a35 35 0 00-8.7 14c-1.7 8.3 4.5 15 10.5 22 4.9 5.6 10.4 11.4 6.6 20 4.6-4.7 3.7-4.6 6.3-9.9" clip-rule="evenodd"/><path fill="#d82819" fill-rule="evenodd" d="M401.1 205.3c-1.9-9.7-8.6-15.8-14.4-23.5-3.8-5-6-12.3-5.1-17l-1.3 2.4c.3 15 9 17.4 16.3 30.2 1.5 2.7 2.4 6.2 3.4 9.9.4-.7.5-1.2 1.1-2" clip-rule="evenodd"/><path fill="#0f5a26" fill-rule="evenodd" d="M404.2 275.2c.3-3.5-5.4-15.8-13.2-25.5-6.7-8.5-10.4-15.5-10-17.2-1.1 0-.4 2.6-1.4 6.3-1.3 5.5-3.6 11-3.6 12.4-.3 2.1.7 6.3 2.8 9.7 3 4.7 7 9.8 10.4 14.7 3.5 5.1 5.7 9.3 6.3 10.9.8-.7 1.4-3 2.8-4.5 2.6-2.8 5.9-5.3 5.9-6.8" clip-rule="evenodd"/><path fill="#008d21" fill-rule="evenodd" d="M403 275.2c.3-3.1-5.3-15.2-12.3-24-6.1-7.8-10-13-9.6-14.5-1 0 0 .6-.8 4-1.2 5-3.2 9.8-3.2 11-.2 2 1.4 6 3.4 9 2.6 4.4 6 9 9.1 13.5 3.2 4.6 5.7 8.4 6.3 9.8.7-.6.9-2.2 2.1-3.6 2.4-2.5 5-3.7 5-5.2" clip-rule="evenodd"/><path fill="#d82819" fill-rule="evenodd" d="M399.9 278.7c-2.5-8.1-7.2-14.2-12.6-21.4-3.6-4.7-7-9.4-7.9-13.8-.3.7-.3 2-.7 2.6 4.5 11.2 9.8 13.4 16.6 25.3 1.4 2.5 2.4 5 3.4 8.5.3-.6.7-.7 1.2-1.2" clip-rule="evenodd"/><path fill="#0f5a26" fill-rule="evenodd" d="M395.2 309.5c-15.4-1.6-21.3-11.6-32.6-12.2-3.7-.4-9 2-13.3 5.8-4.5 2.3-6.8 4-7 5.5h-.1v.2c1.6-.4 3.2-.8 4.4-.6 2.2 1.2.2.9 2.6 2.2 1.3.2 2.6-1.4 4.6-.9.7.2 1.5 0 1.8 2.3 1.3.8 4-.1 4.7-.1 2-.2 2.7.4 2.9 1.2l-.2.1c3 2 6 3.2 8.7 4.7 4 2.3 7.4 4.4 9 3.8 3.4-.5 4.4-3.2 7.5-5.3 1.6-1.2 3.5-1.7 4.7-2.9 2.1-2 2.3-3.4 2.3-3.8" clip-rule="evenodd"/><path fill="#008d21" fill-rule="evenodd" d="M393.7 310.4c-2 .2-5.7-1.4-11.4-3.6-8.6-3.4-12.8-8.6-21-8.3a15 15 0 00-7.6 2.2c-2.6 1.5-5 4.3-8.1 5.2 1.4 0 13 2.7 20.5 7.1 6.1 3.7 11.7 7.5 14.4 7.2 4.1-.1 5-4.4 7.9-5.5 5-1.9 5.3-3.8 5.3-4.3" clip-rule="evenodd"/><path fill="#d82819" fill-rule="evenodd" d="M386.2 316.4c-8.3-.8-12.6-5.7-20.4-9.5a35.8 35.8 0 00-14.1-4.7c.5-.5 1-.7 1.6-1.2a45 45 0 0116.6 6.7c6.3 3.6 12.2 7.5 17.4 7.6-.5.4-.7.5-1.1 1.1" clip-rule="evenodd"/><path fill="#902c16" fill-rule="evenodd" d="M277.2 299.9c2.1-.5 4.8 1.8 8.5 3.3 5.4 2.3 10.2 1.3 12.2 13.8-1.3-1.9-2.6-4.3-4-4.7-1.6-.5-1-.7-3.6-.4-1.2-.3-2-2.7-3.5-3.3-.6-.2-1.6-1.3-2.8.7-1.3.1-2.3-1.5-3-1.8-4.6-2.3-2.9 2.3-4.5 2.6-2 .4-5-1.3-5.4-1.2-3.6.5 1.2 4-2 4.3-2.9-.7-6.2.9-4.8 2.1 2 1.8.4 2-1.6 2.3-.6.2-1.7 1.7-1.3 2.7.6 1.3 3.3 1 4.3.6.8-.2 1.8-.6 2.3.3.6.9-2.4 2.8 1.4 2.8l1.5-.8c-.5.7-1 1.4-1.8 2.2-6.6 8-11.1 5.1-17.3 4.1-4.3-.8-6.9.6-8-1.4 5-.3 8-6 12.2-12.4 6.2-9.7 14.8-16.4 21.2-15.8" clip-rule="evenodd"/><path fill="#0f5a26" fill-rule="evenodd" d="M322.8 299.9c-2.1-.5-4.8 1.8-8.5 3.3-5.4 2.3-10.2 1.3-12.2 13.8 1.3-1.9 2.6-4.3 4-4.7 1.6-.5 1-.7 3.6-.4 1.2-.3 2-2.7 3.5-3.3.6-.2 1.6-1.3 2.8.7 1.3.1 2.3-1.5 3-1.8 4.6-2.3 2.9 2.3 4.5 2.6 2 .4 5-1.3 5.4-1.2 3.6.5-1.2 4 2 4.3 2.9-.7 6.2.9 4.8 2.1-2 1.8-.4 2 1.6 2.3.6.2 1.7 1.7 1.3 2.7-.6 1.3-3.3 1-4.3.6-.8-.2-1.8-.6-2.3.3-.6.9 2.4 2.8-1.4 2.8l-1.5-.8c.5.7 1 1.4 1.8 2.2 6.6 8 11.1 5.2 17.3 4.1 4.3-.7 6.9.6 8-1.4-5-.3-8-6-12.2-12.4-6.2-9.7-14.8-16.4-21.2-15.8" clip-rule="evenodd"/><path fill="#008d21" fill-rule="evenodd" d="M323.3 300.6c-2.2 0-4.9 1.8-8.3 3.2l-2.6 1 4.7 3.6c.9-.5 1.6-1.7 2-1.9 4.2-2 3.3 2.7 4.8 3 1.9.3 4.9-1.2 5.2-1.1 4.6 1-.6 3.8 2.4 4.1 2.5-.6 6.2 1.6 5 2.7-2 1.6-1.1 1.5.8 2 1.6 0 2.5 2.3 2.1 3.2-.5 1.1-1.3 2.1-4.6 1.3-1-.1-1.5-.6-2 0-.3.7 2.6 3.7-2.1 2.8 6 7.2 10 5.7 15.5 4.7 4-.7 4-.1 6.5-.8-5-4.4-6.2-7-10-13-5.7-8.7-13.6-15.4-19.4-14.8" clip-rule="evenodd"/><path fill="#d82819" fill-rule="evenodd" d="M326.5 309a28 28 0 00-9.3-6.3l1.7-.8c3.2 1.5 6.3 4 9.2 6.7l-.4.1h-.6v.1l-.5.1-.1.1m17 20.7c-3-2.4-4.7-5-6.5-7.8h.2c.4-.2 1-.2 1.3-.4 2.1 3.6 4 6.7 7.1 7.8l-2 .4z" clip-rule="evenodd"/><path fill="#902c16" fill-rule="evenodd" d="M222.2 139c-.4-.4-.4-.8-1.4-1 .3-1.2 0-3-.7-4-2.2-2.9-5.2-5.1-5.2-8.7 0-3.6 5.6-4 8.7-7.6-.6-4.4 1.6-5.6 4.9-8.5 2.3-2 4.5-5.1 6-5.5 12.3-.2 13.3 10.7 19.5 18.8 7.2-5.3 9.3-8.5 14.3-7.8 7.8 2.3 8.7 7.6 17.5 11.3 7.2 3 10.5.6 14.2 5.2 0 3-.2 4.6 0 7.9-1.9-2.4-6.3-1.2-14.6-3-7.7-1.6-14-8.7-21.4-9-.3 5.3-3 3.7-6 5.8-3.2 2.4-4.3 5.3-8.2 4.9-7.2-.9-11.9-13.5-13.2-14.8 0-.8-2.3 1.3-4.4 3.5-1.4 1.4-1.8 3.3-3.2 4.5-1.8 1.5-3.3 1.4-5.2 1.1.5 3.2-1.1 6.4-1.6 7" clip-rule="evenodd"/><path fill="#0f5a26" fill-rule="evenodd" d="M377.8 139c.4-.4.4-.8 1.4-1-.3-1.2 0-3 .7-4 2.2-2.9 5.2-5.1 5.2-8.7 0-3.6-5.6-4-8.7-7.6.6-4.4-1.6-5.6-4.9-8.5-2.3-2-4.5-5.1-6-5.5-12.3-.2-13.3 10.7-19.5 18.8-7.2-5.3-9.3-8.5-14.3-7.8-7.8 2.3-8.7 7.6-17.5 11.3-7.2 3-10.5.6-14.2 5.2 0 3 .2 4.6 0 7.9 1.9-2.4 6.1-2.4 14.6-3 7.8-.5 14-8.7 21.4-9 .3 5.3 3 3.7 6 5.8 3.2 2.4 4.3 5.3 8.2 4.9 7.2-.9 11.9-13.5 13.2-14.8 0-.8 2.3 1.3 4.4 3.5 1.4 1.4 1.8 3.3 3.2 4.5 1.8 1.5 3.3 1.4 5.2 1.1-.5 3.2 1.1 6.4 1.6 7" clip-rule="evenodd"/><path fill="#008d21" fill-rule="evenodd" d="M382.8 122.7c-1.4 0-6.2-3.3-7.2-4.2 0 1.7-2.2 3.7-3.6 5.9-1.7 2.4-2.4 4.8-.2 6.4 2.6 1.8 5 .8 6.4-1.2.9-1.4 1.1-3.5 1.8-4.8.9-1.6 2.8-2 2.8-2.1" clip-rule="evenodd"/><path fill="#d82819" fill-rule="evenodd" d="M379 120.8c-.3 0-.7-.5-1.2-.8-.4.3-1.7.6-2.4 2-.7 1.3-1 3.5-2 4.8-.6 1-1.6 1.8-2.8 2v.5l.1.1c1.6.2 3-.7 4-2 1-1.5 1.1-3.6 1.9-5 .8-1.5 2.3-1.5 2.3-1.7" clip-rule="evenodd"/><path fill="#008d21" fill-rule="evenodd" d="M365.8 105c-2-.5-5.4-.2-8.5 2.5-3.8 3.5-7 10.9-10.3 15.5-3.6 5-7.4 6.8-8.1 6.8.1 1.5 1.8 1.3 3.7 2.6 2 1.4 3.8 3 4.7 4 1.7 1.5 5.8 0 8.4-3.1 3-3.5 8.2-14 11.6-17.7 4.3-4.7 6.7-2.2 7.6-2.2l-9.1-8.5" clip-rule="evenodd"/><path fill="#d82819" fill-rule="evenodd" d="M344.4 133.8c9.5-3.2 13.5-25 25.6-25.2-.8-.3-.9-.8-1.6-1.2-13 2-13.7 20.3-25.4 25.5.7.2.5.4 1.4.9m-79.5-18.2c7.6-1.2 10.2 5.9 18.3 10.1 8.6 4.6 12.4 1.8 16.8 6.2v6.1c-5.5-3-9.8-1.4-15.5-3.2-7-2.2-16.6-10.4-21-8.7-.2-1.4-1.9-8.7 1.4-10.5" clip-rule="evenodd"/><path fill="#f8f100" fill-rule="evenodd" d="M264 116.3c7.6-1.2 11 5.8 19.1 10.1l3.5 1.6c6.3 2.3 9.6.9 13.4 4.6v.8c-1.6-2.7-6.5-3.2-10.9-4-2.3-.5-6-2.3-7-3-7-4.2-12.1-11.3-18.6-9.4l.5-.7" clip-rule="evenodd"/><path fill="#f8f100" fill-rule="evenodd" d="M263.4 117.5c7.6-1.2 11.6 5.8 19.7 10l3.5 1.6c6.3 2.4 9.6 1 13.4 4.7v.8c-1.6-2.8-6.5-3.2-10.9-4.1-2.3-.4-6-2.3-7-2.9-7-4.3-12.5-11.2-19-9.3l.3-.8m-.2 6.7c1 0 1.5-.8 7.9 2 3.4 1.4 7.9 5.5 15.6 7.6 4.9.7 7.3-.1 13.3 2.5v.7c-5.6-3-9.4-1.8-13.6-2.7-7.7-1.6-18.7-11-23-9.2z" clip-rule="evenodd"/><path fill="#f8f100" fill-rule="evenodd" d="M263 123.1c2-.4 3.8 0 6 1 2.2.9 5.9 2.8 8.2 4.2 3.6 2.1 7 3.7 10.3 4.4 4 .8 6.9-.2 12.4 2.6v.7c-5.5-3-9.5-1.7-13.7-3-2.6-.7-5.9-2.1-8.9-4-5.6-3.2-11.3-6.3-14.1-5.2z" clip-rule="evenodd"/><path fill="#008d21" fill-rule="evenodd" d="M335.1 115.6c-7.6-1.2-10.2 5.9-18.3 10.1-8.6 4.6-12.4 1.8-16.8 6.2v6.1c5.5-3 12.6-2.3 15.7-2.9 5.4-1 16.4-10.7 20.7-9 .3-1.4 2-8.7-1.3-10.5" clip-rule="evenodd"/><path fill="#d82819" fill-rule="evenodd" d="M337 120.6c-5.3-1-12.4 5.2-20.5 8.9-6.7 3-14 1.6-16.4 4.7l-.1 1.2c3-3.5 11.4-2.2 16.8-4.7 7.9-3.8 12.7-9.3 20.2-8.8v-1.3" clip-rule="evenodd"/><path fill="#9b7d23" fill-rule="evenodd" d="M224.6 137.7h150.8V278c0 10.4-8.4 18.8-18.6 18.8h-38c-9.6 0-17.5 7.2-18.7 16.4a18.8 18.8 0 00-19-16.3H243a18.8 18.8 0 01-18.4-18.8v-.1z" clip-rule="evenodd"/><path fill="#40187a" fill-rule="evenodd" d="M293 291a29.5 29.5 0 00-10-2h-34c-9-.2-16.4-7.5-16.4-16.6v-14.8l60.5 19V291zm8.5 3.9c-.8 1-1.3 2.3-1.5 3.7a7.6 7.6 0 00-1.6-3.8l1.8.9zm66-37.2v14.7c0 9.2-7.5 16.6-16.7 16.6h-34c-1.6 0-5.8.4-9.6 2v-14.4zm-135-112h135v97.6l-67.3 21.4-67.7-21.4v-97.6z" clip-rule="evenodd"/><path fill="#f2d300" fill-rule="evenodd" d="M369 244.5l-68.8 21.8-69.1-21.7V144H369zm-63.4 48.7v-17.8l63.4-20v18.1a17 17 0 01-17 17h-34.9c-2 0-7.4.5-11.6 2.7zM231 255.4l63.6 20v18a28.7 28.7 0 00-12-2.9h-34.9a17 17 0 01-16.7-17v-18.1zm-3.8-115.1h145.4v135.9c0 10-8 18-18 18H318c-7.5 0-17 3.7-18 12.6-1.2-8.9-12.2-12.6-18-12.6h-37a18 18 0 01-17.7-18v-.1z" clip-rule="evenodd"/><path fill="#9b7d23" fill-rule="evenodd" d="M277.3 175.4a60.5 60.5 0 0022.8-29.4v-.3.2l.1-.2v.3c5 11.9 10.6 21 22.7 29.4-1.1 5-6.8 6.7-9.7 3.9-.7 1.5-2.2 2.2-4.3 1.6a89.7 89.7 0 0031.7 24.7c-1.8 4.3-5.1 6.5-10.4 4.4-1.7 3.7-5.8 4.3-8.3 2.2 0 1-1.1 1.9-1.3 1.8 12 9.5 25 16.4 39.1 22.5-1.6 4.2-8.5 7.8-14.1 6.1-.7 3.9-7.7 7-12.1 3.2-1.7 5.2-10.3 6-12.7 2.8-3 4.6-10.4 4.3-13.3 1.3 0 3.6-1 7.7 3.5 7.7a8 8 0 01-6.7 1.7c-1.4.6-2.3 1.8-4 1.7h-.2c-1.8.2-2.7-1-4-1.6a8 8 0 01-6.8-1.8c4.4 0 3.6-4 3.6-7.7-3 3-10.4 3.4-13.5-1.2-2.3 3.2-11 2.3-12.6-2.8-4.4 3.8-11.5.6-12.1-3.2-5.7 1.6-12.5-2-14.1-6a178 178 0 0039-22.6c-.1 0-1.2-.8-1.2-1.8-2.5 2-6.6 1.5-8.3-2.3-5.3 2.1-8.6 0-10.5-4.4a89.7 89.7 0 0031.8-24.6c-2 .6-3.6-.2-4.3-1.7-3 2.9-8.6 1-9.8-4" clip-rule="evenodd"/><path fill="#f2d300" fill-rule="evenodd" d="M279 176.2a53.3 53.3 0 0021-26.2v-.6l.1.3.2-.3v.6c4.7 11 9.6 18.4 21 26.1a7 7 0 01-.5 1.2c0 .2-2.5-1-2.5-1-.1.3 2.1 1.7 2 2a4 4 0 01-1.2 1c-.1 0-2.5-2.1-2.6-2-.3 0 1.7 2.3 1.3 2.4h-1.2c-.2 0-2-1.9-2.3-2-.3 0 1 1.7.7 1.6-.9-.4-1.7-.9-2.4-1.6-.2.6-.4 1.2-.9 1.6-.1.2-1.6-1.3-1.9-1.1-.2 0 .7 1.8.4 1.9l-1 .1c-.2 0-1.6-2.3-1.9-2.3-.2 0 .7 2.3.5 2.3-.3 0-1.2-1.1-1.5-1.2-.2 0 .2 1 0 1 6.6 10.5 20.6 20 32.8 26l-.4.8c0 .2-4.7-2.3-4.9-2.1l4.3 3-1 .9c-.2.2-4.5-2.5-4.8-2.4-.3.1 3.3 3.1 3 3.2h-1.8c-.3 0-3.3-2.6-3.6-2.7-.5 0 1.8 2.4 1.4 2.3a25 25 0 01-2.5-.8c0 .1-1.4-1.3-1.5-1.2 0 .2 1.2 1.8 1.1 2-.3.5-.6 1-1 1.3-.2.2-2.7-2.2-2.9-2-.2.1 2 2.8 1.7 3l-1.5.3c-.4 0-2-2.4-2.4-2.5-.3 0 .7 2.3.4 2.2l-1.2-.7c0 1-3.2 4.4-3.3 4.3 11.4 9 25 16.6 38.4 22.4h.1L355 239l-4-2.7 3 3.4-2.5.6-3.5-2.8 2.3 3.2-2.2.1-4.1-3.3 2.5 3.4-2.9-.3-3.3-2.6 3.4 4.4-1 1.2-3.3-3.3 2.7 4-1.5.8-3.2-3.3 2.3 3.7-2 .2-3-3.5 1.6 3.3-2.5-1.4-2.8-3.4 1.6 3.7-1 1.8-2.3-3.2 1.4 4.1-1.9 1.2-2-3.2.8 3.5-2.3.3-1.7-3.1.2 2.9-2.6-1-1.6-3.3.4 3.2-1.4 1.6-1.1-3-.2 3.6-2.5.7-1-3-.4 3-2.5-.4-.6-3-.5 2.6-2.2-1.3-.6-3.6-.3 3.3-1.1 1.4-.5-3.2-.3 4-1.7.7-.3-3.3-.7 3.7-1.7.2-.2-2.5-.3 2.6-1.7-.3-.7-3.6-.3 3.3-1.7-.8-.3-4-.5 3.3-1-1.5-.4-3.2-.6 3.5-2.3 1.3-.4-2.6-.7 3.1-2.4.4-.5-3-1 3-2.4-.7-.2-3.7-1.1 3-1.4-1.6.4-3.1-1.6 3.3-2.6 1 .2-3-1.7 3.2-2.3-.3.8-3.5-2 3.1-1.9-1.1 1.4-4.1-2.3 3.1-1-1.7 1.5-3.7-2.7 3.4-2.5 1.4 1.6-3.3-3 3.5-2-.2 2.2-3.7-3.1 3.3-1.5-.9 2.7-3.9-3.3 3.2-1-1.2 3.4-4.3-3.4 2.6-2.9.3 2.6-3.5-4 3.4-2.3-.1 2.3-3.3-3.5 2.9-2.5-.6 3-3.4-4 2.7-1.8-1.7h.1a184.4 184.4 0 0038.5-22.4c-.2 0-3.3-3.4-3.3-4.4l-1.2.7c-.3.2.7-2.2.4-2.1-.4 0-2 2.5-2.4 2.5-.5 0-1-.2-1.5-.4-.2-.1 1.9-2.8 1.7-3-.2-.1-2.7 2.3-3 2l-1-1.3c0-.1 1.2-1.8 1.2-2 0 0-1.5 1.3-1.6 1.2l-2.4.8c-.5.1 1.8-2.3 1.4-2.3-.3 0-3.3 2.7-3.6 2.8H265c-.3-.1 3.3-3.2 3-3.3-.3-.1-4.6 2.6-5 2.4l-.8-.8c-.1-.1 4.3-3 4.2-3 0-.2-4.7 2.2-4.8 2l-.4-.7c12.2-6.1 26.1-15.5 32.8-26-.2 0 .2-1 0-1-.3 0-1.2 1-1.5 1.1-.2 0 .7-2.3.5-2.3-.3 0-1.7 2.4-2 2.3h-.9c-.4-.2.6-1.9.4-2-.3-.1-1.8 1.3-2 1.2a3 3 0 01-.8-1.7c-.7.7-1.5 1.3-2.4 1.6-.3.2 1-1.6.7-1.5-.2 0-2 1.9-2.3 2l-1.3-.1c-.3 0 1.7-2.3 1.4-2.4l-2.6 2a4 4 0 01-1.2-1c-.1-.2 2.1-1.7 2-1.9l-2.5 1-.4-1.2" clip-rule="evenodd"/><path fill="#9b7d23" fill-rule="evenodd" d="M282.4 192.9h35.4v32.6c0 2.4-2 4.3-4.4 4.3h-8.9a4.4 4.4 0 00-4.4 3.8 4.4 4.4 0 00-4.3-3.8h-9c-2.5 0-4.4-2-4.4-4.3z" clip-rule="evenodd"/><path fill="#dfbe66" fill-rule="evenodd" d="M284 194.6h32.3v29.8a4 4 0 01-4 4h-8.2c-1.6 0-3.7.7-4 2.7-.2-2-2.7-2.8-4-2.8h-8.2a4 4 0 01-4-4v-29.7z" clip-rule="evenodd"/><path fill="#0f5a26" fill-rule="evenodd" d="M315 218.9v4.7c0 2-1.6 3.6-3.6 3.7h-7.5c-2 0-3.5.7-3.8 2.5-.2-1.8-1.8-2.5-3.7-2.5h-7.6c-2 0-3.6-1.7-3.6-3.7v-4.7z" clip-rule="evenodd"/><path fill="#008d21" fill-rule="evenodd" d="M314.5 219.6v3.6c0 2-1.6 3.5-3.5 3.5h-7.2c-1.6 0-3.5.1-3.7 1.9-.2-1.8-2.4-1.9-3.5-1.9h-7.4c-2 0-3.5-1.6-3.5-3.5v-3.6z" clip-rule="evenodd"/><path fill="#902c16" fill-rule="evenodd" d="M285.2 195.8H315v22h-30z" clip-rule="evenodd"/><path fill="#d82819" fill-rule="evenodd" d="M285.8 196.5h28.7V217h-7.6l-2.4-3.9H303c-.2-2.8-3-2.7-4.7-4-.5-2.7-2.8-2-3.8-.5a4 4 0 00-.7 2c0 1.4.7 2.7 2.5 2.2l.4.3h-2.4l-1.4 3.9h-7.1v-20.6z" clip-rule="evenodd"/><path fill="#0f5a26" fill-rule="evenodd" d="M294.2 221.3l-1.7 1.3h1.7v.9h-5v-.9h1.6l-1.6-1.3 2 .6.4-1.8.5 1.8zm17 0l-1.7 1.3h1.7v.9h-4.9v-.9h1.5l-1.5-1.3 1.9.6.5-1.8.4 1.8zm-8.7 1.2l-1.7 1.3h1.7v.9h-5v-.9h1.6l-1.6-1.3 2 .5.4-1.7.5 1.7z" clip-rule="evenodd"/><path fill="#902c16" fill-rule="evenodd" d="M309 214c.5 0 .8.3.8.7a.7.7 0 11-.7-.7m-1 1.5c.4 0 .7.3.7.7a.7.7 0 11-.7-.7m-18.9-.5a.9.9 0 010 1.7.9.9 0 010-1.7m21.7-1c.3 0 .6.3.6.7a.7.7 0 11-.6-.7m-1 1.5c.3 0 .7.3.7.7a.7.7 0 01-1.4 0c0-.4.3-.7.7-.7m-20.7-4.5a.9.9 0 110 1.8.9.9 0 010-1.8m21.7 0a.7.7 0 110 1.3.7.7 0 010-1.4M288 213a.9.9 0 010 1.7.9.9 0 010-1.8m21.9-.4c.3 0 .6.3.6.7a.7.7 0 11-.6-.7m-18.2 2.5a.9.9 0 010 1.7.9.9 0 010-1.7m21-1a.7.7 0 110 1.4.7.7 0 010-1.4m-1 1.5c.4 0 .7.3.7.7a.7.7 0 01-1.3 0c0-.4.3-.7.6-.7m1.9 0a.7.7 0 010 1.4.7.7 0 010-1.4m-23.2-2.5a.9.9 0 110 1.8.9.9 0 010-1.8m21.3-.5c.4 0 .7.3.7.7a.7.7 0 11-.7-.7" clip-rule="evenodd"/><path fill="#989898" fill-rule="evenodd" d="M292.2 66.7c11-3 21.3.1 29.4 7.4a30 30 0 01-38 46l-2.4-2.5 1.2-1.4 8 3.2 1.8 1.6-.1-1.4 2.4 1.7.1-1.5 2.7 1.4-.2-1.4 3.4 1-.4-1.4 3.2.7-.2-1.5 3.3.4-.6-1.4 3.1.1-1.1-1.1 5.3-2.8 1.8-2.8 2.4-.7-1.1-1.1 2.7-1.3-1.2-1 2.3-1.1-1.1-1 2.1-1.4-1.2-.8 2-1.9-1.2-.5 1.9-2.2-1.4-.3 1.6-2.3-1.4-.2 1.5-2.3-1.3-.1 1.1-2.5-1.3.3.8-2.9-1.3.4.5-3-1 .4v-3.2l-1.1.7-.3-3.3-.9 1-.7-3.3-1 .8-.8-2.8-.6.8-1-2.6-.8.9-1-2.3-.7.7-1.2-2-.4.8-1.4-1.8-.4.7-1.3-1.6-.4.7-1.4-1.4-.3.6-1.7-1.5-.3.7c-1-.4-2.4-.6-4-.7z" clip-rule="evenodd"/><path fill="#b6c6c8" fill-rule="evenodd" d="M303.2 66.4c6.6.8 12.5 4 17.7 8.6a28.6 28.6 0 010 40.5 28.9 28.9 0 01-36.4 3.6l-1.7-1.3.5-.6 6.5 3 2.8 2v-1.5l2.5 1.7v-1.7l2.8 1.5-.2-1.7 3.4 1.1-.3-1.5 3.1.6-.2-1.6 3.4.4-.7-1.5 3.3.2-2-2.6 5-2.6 2.2-1.6 3.4-.8-1.3-1.3 2.9-1.2-1.4-1.2 2.4-1-1.2-1.1 2.2-1.4-1.3-1 2.3-1.8-1.5-.6 2-2.3-1.5-.3 1.6-2.4-1.5-.2 1.6-2.3-1.4-.1 1-2.7-1.2.3.7-3-1.3.5.6-3.2-1.3.5v-3.6l-1.1 1-.3-3.6-1 1.2-.8-3.4-1 1-.9-3-.7 1-1-2.6-.7.9-1.1-2.5-.6 1-1.3-2-.4.9-1.5-1.8-.3.7-1.5-1.8-.3.8-1.4-1.3-.3.6-1.7-1.4-.4.6h-.2a6 6 0 00-2.5-.4l-3.3-.5a28 28 0 016.8-.2" clip-rule="evenodd"/><path fill="#9b7d23" fill-rule="evenodd" d="M282.9 88.7l4-4 46 41.5c2 6.5-2 10.5-8.3 8.4z" clip-rule="evenodd"/><path fill="#f2d300" fill-rule="evenodd" d="M284.2 88.8l2.9-2.9c11 10 33.4 31.3 44.4 41.2 1.4 4.7-1.5 7.5-6 6z" clip-rule="evenodd"/><path fill="#989898" fill-rule="evenodd" d="M310.1 83l-24.8 24.8-9.2-9.2 16.3-16.3z" clip-rule="evenodd"/><path fill="#b6c6c8" fill-rule="evenodd" d="M306.8 84.2l-21.6 21.6-7.1-7.1 14.7-14.8z" clip-rule="evenodd"/><path fill="#9b7d23" fill-rule="evenodd" d="M297.7 209c1.2 1.5 2.7 1.2 4.2 2.7a2 2 0 01-2.1 3.4c-2.3-.9-2.7-2.7-4-2.9l2-3.1" clip-rule="evenodd"/><path fill="#dfbe66" fill-rule="evenodd" d="M297.4 209.4c.6.7 1.3 1 2.2 1.4v.3c0 .7-.3 1.4-1 1.7a2 2 0 001.4-1.8l.8.4h-.2l.1.4c.1.6-.3 1.3-1 1.7.9-.4 1.5-1.1 1.4-1.9l.4.4c1.7 1.7 0 3.4-1.6 2.7-2.2-.9-2.3-2.6-4-2.8l1.6-2.5" clip-rule="evenodd"/><path fill="#9b7d23" fill-rule="evenodd" d="M306.3 217.1h-12.8l1.1-3.3h9.6z" clip-rule="evenodd"/><path fill="#dfbe66" fill-rule="evenodd" d="M295.1 214.3h4.2l-.2.4a.7.7 0 101.2-.4h3.4l1.5 2.3h-.6l-1.1-2H302l1.2 2h-1.6v-2h-.8v2h-4v-2h-.8v2h-1.7z" clip-rule="evenodd"/><path fill="#9b7d23" fill-rule="evenodd" d="M297 208c1 .3 1.2 1.6.6 3-.6 1.2-1.7 1.9-2.6 1.5-.8-.4-1-1.7-.5-3 .6-1.2 1.7-2 2.6-1.6" clip-rule="evenodd"/><path fill="#dfbe66" fill-rule="evenodd" d="M297 208.4c.6.4.7 1.4.3 2.4-.5 1-1.4 1.5-2 1.2-.7-.3-1-1.3-.5-2.3.4-.8 1-1.3 1.5-1.4.6.3.7 1.2.3 2a2 2 0 01-1.3 1.1c.6 0 1.3-.4 1.6-1.2a2 2 0 000-1.8" clip-rule="evenodd"/><path fill="#9b7d23" fill-rule="evenodd" d="M206.3 312.6c0 .4-.3.8-.7.8 0 .5 0 1-.2 1.5-.8 2-2.3 2.5-2.6 3.2-.1.2-.2-.4-.3-.2-1.5 1.6-4 2.8-6.4 1.6-1.6-1-1.3-3.1-.2-4.4 1.2-1.5 3.2-2.4 4.2-2.9 0-.1-.3-.4-.2-.5.9.2 3.3-.7 4.5 0l.6.5c.1-.3.4-.5.6-.5l.7.9m-18-29.1c4.4-1 5.2 2.7 7.5 2.8 1.3 0 .6-1.3 2-1.8a.7.7 0 01-.5-.5 3 3 0 01-1.7.6c-2.6 0-4-1.5-5-1.5-.2 0 .4-.4.2-.4-2.6-1-5-3.4-4.8-6.5.3-2.3 3-3 4.9-2.3 2.2.7 4.2 2.6 5.2 3.5.1-.2.4-.7.5-.5.2 1 2.3 3.4 2.1 5 0 .4-.1.7-.3 1 .4 0 .7.2.8.5v.5l.4.5c1.7.2 2 2.8 3.6 3 .3.1 1-.2 1.3-1 .6-1.5 2.1-6.5 5.6-11.6l4.4-6c-.1 2.6 3.5-.1 5.4 3.3.7 1.5-.1 3.1.8 4.4.8 1 2.2-.7 3 1.6 1.6 3.7 3.8 7.3 5.3 10.7 1.6 3.8.4 7.6 2 10.2-6.8 3.4-11.5 10.4-26 10.5-.7-.5-1-.8-1.4-.6-1.5-.2-3.4 1.4-4.7 2-1.3.6-2.4-.8-3.7-1.2-2.4-.7-5 4.3-8.2 2.7-1.5-.7-.8-1.2-1.8-1.8-1.4-.6-4.7 3.2-6.9 1.8-1.8-1.2-.8-2.3-1.6-3-1 .1-2.8.5-4-.3-1-.6-1.2-1-1.4-1.7-.6-3.4 2.5-3.3 2.6-4.4 0-1.2-2.6-1-1-4.3 1.6-2 3.4-.4 4.6-1.2.6-.1-1.4-1.4.9-2.8 1-.6 4-.8 4.6-.8l1.3-1.7c-.3-1.1-3-1.8-3.7-3-.6-1-.5-2.6 0-3.2 2-1.7 3.8-1.2 6-.1 1.2-.4 0-2 1.7-2.4zm31.3 44.6c2.1-1.2 2.8-.1 2.7-4.3 0-2 3.4-1.1 5.5-2 3-1.8-1.3-2.7 1.9-4.7a49 49 0 016.8-1.2c.9-.2.2-1.6.3-2.8l.2-.1-.2-.1c.2-.8.9-1.4 2.9-1.3.7 0 3.4 1 4.7.2.3-2.3 1.1-2.1 1.8-2.3 2-.5 3.3 1 4.6.9 2.4-1.3.4-1 2.6-2.2 2.1-.3 5.3 1.2 7.5 1-1.8 2-3.4 4.2-5 6.5-3.8 6-6.7 11.4-11.1 12.3l-1.2.1c-1.6.5-.3 3.7-3 4-2.6.4-1.8-1.8-3-1.4-1.3.5-1.7 3.2-3.8 3.1-1.8.2-1.2-1.7-2.4-1.5-1.2.2-1.8 2.5-4.2 2-2 .1-1.9-2.4-3-3-3.3 1.6-8.4-.3-4.6-3.2zm43.5-21.2v-.1c-.6.2-1.1 0-1.3-.4v-.1a4 4 0 01-1.8.5c-2.6 0-3.9-1.4-4.9-1.4-.2 0 .4-.4.2-.5-2.6-1-5-3.3-4.9-6.5.4-2.2 3-3 5-2.3 2.2.8 4.2 2.6 5.2 3.5.1-.1.3-.6.4-.5.3 1.1 2.4 3.4 2.2 5.1 0 .4-.2.7-.3 1 .3 0 .7.1.8.5v.5l-.6.7zm-70.3-62c1.3-.5 2.6-.9 3.5-.5 1.5.7 1.8 2.5 2 2.3.7-1 .3-2.3-.3-2.9-1-.9-3.3-1.1-3.9-1.8-1.4-1.4.1-2-.1-2.9-.4-1.4-5.1-3-5.8-4-.5-.7-.8-1.5 0-2.5s-.2-2-1.6-2.9c-4-4.1-.9-5.3.4-5.5.4-.1-3-2.9-3.5-5.1-.3-1.8 2.3-3 2.3-3.3-5.8-7.2 2-8.6 4.6-4.5.6 1 2-1.9 3.6-1.3a12 12 0 012.5 1.6l-1-2c-1.1.2-2.2-.1-3.2-.8-2.4-1-3.2-2.8-4-3.2-.3 0 .4-.2.3-.3-2-1.8-3.5-5-2.2-7.8 1.2-2 4-1.7 5.5-.4 1.8 1.6 3 4 3.5 5.2l.3-.1.5.9c.3 1.4 1.2 3.6.6 4.8-.1.3-.3.7-.6 1 .4 0 1 .3 1 .7l-.1.4 1.4 4.5c.8-.3 2.4-1.2 3.3.1.9 1.4.7 6 1.8 5.3.7-.4 1.5-1 2.7-.5h.1c-.2-.8-.4-2 0-2.6.4-.5 2 0 2.1-1 .3-1.3-1.2-4.1-1-5.4 0-1.4 1.6-1 2-1.2h.1l.1-.1h.1v-.1h.1v-.1l.1-.1.3-.6v-3.9c0-.5.2-.9.4-1.2.8-1.3 3.4.9 3.6-.4.2-3.7 2.4-6.3 3.5-4 .4 1.2.8.2 1.2-.4 2-2.3 1.8-2.8 4.7-3 1.2.6 1 3.5-.6 6.2-.5 1.2-.2 1.2.5 1.6 3.7 2.5-2.7 7.2-.2 8.4 3.5 2.4-2.3 5.3-1.5 7.1 1.7.6 2.6 2 1.8 3-1.1 1.4-3.8 3-3.5 4.2 0 1.8 2.5 3.6-.1 5.4-.5.3-1 .7-1 1.3.3 1.7-2.5 9.4-9.3 17.8-7.7 9.7-14.3 21.4-14 24.9-.5-.3-1.8-.8-2.4-1.6-.6-.8-.3-2 .1-3 1-1.8-6 1.1-6.4-5.1 0-.7 1-2-.4-2.9-3-.9-5.3-3.4-4.2-5.5.3-.5 2-.8 1.5-2-3.6-2.3-4.4-6.2-2-7 2.7-.8-.4-2.4-.8-4.4a4 4 0 01.5-3.1c.9-1.1 3.3-1 5.4 2 1.1.3.7-1.5 1.9-1.9 2.7-.8 3 4.2 3.8 4.2zM180 152.1c1.5.4 2 1 3.6 2 1.6.5.6-1.3 2.5-1.5 2.6-.2 3.8 2.5 4.7 4.4 1 1.3.4-1.7 3.5-1.3 2 .2 3.4 3.1 4.5 5.5.6.3 1-.5 1.7-1l-.9-2.5c-.5 0-1-.4-1-.9v-.1c-.6.1-1.3 0-1.8-.1-2.4-1-3.1-2.8-4-3.2-.2-.1.5-.2.3-.4-2-1.8-3.5-5-2.1-7.8 1.2-2 3.9-1.6 5.4-.3 1.8 1.5 3 4 3.6 5.2.2-.1.5-.5.6-.3-.2 1.1 1 4 0 5.5 0 .3-.3.6-.6.8.4.1.6.4.6.7l-.1.5.6 2.8c.5-.1 1.2 0 2 .4 2.1 2.3 1.7 2.7 2.6 6 .8 1.4.8-.8 3.1 1 .5 1 1 2.6 1.3 3.6-2.8 4-8.8 11.3-12.4 17.7h-.1c-.7.2-2.5.1-3-.5-.8-.9-.3-2.4-.5-2.3-1.1.3-4.2-.6-5-2-1-1.3.3-3.2-.6-3.1-3.2-.6-4.6-.6-6-2.8-1-2.9 2.5-2 .4-3.6-1.9-1.3-3.2-1.2-5-4-.6-4 3.7-2.9.8-4.8-1.5-1.3-4.8-4.8-1.2-6 2.1-.7-1.3-3.3-.8-6 .6-1.3 1.2-2 3.3-1.6zm14.5-14.5c.2-.9-.8-1.5-1.2-1.7-6-3.2-2.9-4.6-2-6 .6-1-2-1.5-2.8-2.5-.4-.7-1-2-.3-3 .8-1 2.6 0 1.7-1.2-2-4.2-1.2-6.4 0-6.7.7-.1 1.5.4 1.5 0-.9-9 4.9-5.8 6-2.1.6.9 1.2-.8 2.6 0 .7.3 1 2.5 1.4 2.5 3-1.7-2.9-9.3 3-8.6 1.8.3-2-7 3.3-7.1 1.4 0 2.5 1.6 3 .2.3-3.7 3.7-6.5 5-3 .4 1.2 1.1 1.1 1.5.5 2-2.2 3-3.7 6-3 1.2.7 1.8 2.5.2 5.2-.5 1.1 1 1.2 1.6 1.6 3.7 2.4-4.1 4.3-1.6 5.4 3.4 2.4-4 4.8-3.2 6.6 1.3 1.5 1.2 2.8.4 3.8-1.1 1.4-5.4 2.6-5.1 3.8.6 3.1-3.5 4.9-3.6 7.9 1.2 1.2 1 .6 2.2 2.7.7 1.1 1.3-1.4 3.2-.2 1.1.8 1.5 4 2 4.7.4.7 2.7.2 3.2 2.3.4 1.9-1 5.4-.6 6.2.7 1.4 2-.2 2.5 3.4.4 2.5-2.3 3.9-1.6 5.2.5 1 1.7 2 1.4 3.9-.5 2.8-2.4 6.5-3.2 8.9-2.9-5-7.4-9.3-12.2-11.8a.7.7 0 01-.1-.4c0-1-2.7-2.5-5.2-4.3l-1.2-1v.1c-1.8-1.4-3-3-2.4-4.6.7-1.7-2.7-2.9-4.6-4.1-1.8-1.3-.8-3.5-.8-3.6z" clip-rule="evenodd"/><path fill="#f2d300" fill-rule="evenodd" d="M223.5 97.6c0 1.5-.8 2.2-1.3 4.2.2 1.3 3.2 1 2.8 2.4-.3 1.3-2.2 1.2-3.3 3.3.3 1.4 2.3 1.5 1.4 2.5-1.4 1.5-2.9 2-4 4 0 1.8 1.9 2.2.9 3.5-1.3 1.8-5.6 3.2-6 4.7 0 .4.1.8.4 1.4 0 1.3-3 3.5-3.3 6.1-.6-.1-1-.1-2.4-.5-.1-1.6 0-3.2.2-5 0-.1 3.9-1.8 4-2 0-.1-3.8 1.2-3.8 1l1.2-5c0-.2 6.6-2.4 6.6-2.6-2.8-.6-6.3 1.6-6.2 1.4l1.3-4.4c.9 0 6.6-2.3 8.8-4-5.4 0-8 2.3-7.8 2 2.5-4.4 6.1-8.7 8.4-13.2.9-1.1 1.8-.4 2.1.2m-28.6 14c1.2 1 .7 2.3 2 3.9 1 .7 2-1.3 2.8-.2.7 1 .2 1.1 1.2 3.4 1.1.7 3 0 3.5 1.4.8 2.6-.9 2.6 0 4.8 1.3 1.2 3.1 1.4 3.5 3v1.8c-.9 2.1 0 4.5.6 5.7-.4 2-3.1-.6-3.4 2-.2 2.3 1.1 2 1.4 4.2 0 1.2-1.4.5-1.8 2.4 0 2.6 4.7 5 1 6.8-1.2-1-2.2-9-3.3-10.3-.2-.1 3.4-8.9 3.3-9a11 11 0 00-3.9 7.2c-1-1.3-1.4-4.3-2.2-6a37 37 0 003.7-7c-2.3 1.7-4 6.1-4.2 6-.8-1.3-1.2-4.5-2-5.8.5-.6 3-3.3 3.2-6-3 2.4-3.3 4.3-3.4 4-1.9-4.7-1.7-7.1-3.7-11.8-.3-1.4 1-.7 1.7-.5zm15.8 19c1.1 1 1.6 1.5 2.8 3.1 1.6 1.4 2.9-.9 3.7.1.8 1 .7 2 .8 4.1 1.2 1.3 3.2.8 3.6 2.2.6 2.6-1.8 3.8-1 6 1.4 1.7 2 1.2 2.7 2.3.6 3.3-1.1 2.7-1.5 6 .3 1.7 1.5.9 1.7 3.2-1 3.2-2 5.6-3.2 8.5-.6-1.6-2-6.3-2.1-8.4l4-7.8c-.1 0-3.8 2-4.3 6.3-1-1.3-.4-3.8-1.3-5.5a22 22 0 003.2-6.6c-2.3 1.7-3.4 5.3-3.5 5-.8-1.2-.7-3.4-1.5-4.7.5-.7 2-2.8 2.1-5.5-2.9 2.4-2.8 3.7-2.9 3.5-1.8-4.8-2.5-6.3-4.5-11-.2-1.3.5-1 1.2-.8zm-30.2 22.6c1.4.5 1.1 1.7 2.9 2.7 1.5.4 1.2-2.2 3.2-2.3 2.5-.2 2.8 3.3 3.8 5.2 2.2 2 1.4-3.9 4.7-2 1.7 1 1.6 3.7 3.2 5.5 2 1 1.9-2.6 4.5-.5 1.8 2.8 1 2.5 2 5.8 1.5 1.9 2.2-1.2 3.3.8l1.1 3.7-1.2 1.9-4.9 6.5-.6-.9c0-.1 2-9 1.8-9.1-.1-.1-1.8 1-2.7 8.4-1.4-.8-3-3.4-4.5-4.7.3-1.2 1.7-9.6 1.5-9.7-1.6 2.5-2.4 8.8-2.6 8.7-1.3-.8-3.2-3.2-4.5-4.3a34 34 0 001-8.3c-1.7 3.3-1.8 7-2 6.9-4-3.6-8.6-10.1-12.2-13.7.5-1.3 1.4-1 2.2-.6zm3.6 88c1 .5 1.4 1.5 2.6 2.3 1 .4 1.6-2.1 3-2 1.9 0 1 2.8 2.4 4.3 1.2 1.2 2-2 4.2-.4 1.2.8.6 3 1.6 4.3 2 1.8 2.6-.1 4.4 1.6.9 1.9-.3 3.7 2 5.4-2 2.5-4.6 6.5-5.4 7.4 0 0-.2-1-.7-1.8 0-.1 2-7.6 1.8-7.9 0 0-1.4 2-2.5 7.4-1-.7-1.6-2.7-2.5-3.7.2-.9 1-7.7.8-7.8-1.4 1.7-1.4 7-1.5 6.9-.9-.7-2.5-3.5-3.4-4.4.3-.6-.2-4.1-.2-6.1-1.5 2.3-.5 5-.6 5-2.7-3-5.3-7.3-7.6-10.1.4-1 1-.6 1.6-.3zm3.3-30.9c1 .3 1.3 1 2.4 2 1.8 1 2.7-1.8 4-1.6 2 .3 1.7 3.3 3.4 5 1.6 1.3 2-2.5 4-.6.3.3 0 3.8 1.2 5.3.8 1 3.3-1.4 4.3.6.5 1 1 2.5 1 3.8 0 .7-.3 2.3.7 3.4 2.3-.1 2.7 1.4 3 2 .9 1.8-.8 4.1-.3 5.3 1.6 2 1.3 0 2.8 2 .7 1.9-1 4.2.2 6.1-2.2 2.2-3.7 5-4.6 6l-1.8-5.1c0-.1 2.2-7.7 2-8 0 0-.8.9-2.6 6-.4-.4-1.6-3.3-3.1-6-.2-.3 2.7-10.2 2.5-10.4 0-.2-3.2 9.3-3.4 9-1.8-3-3.7-5.9-4.1-6.4.4-.8 2-8.2 1.8-8.3-1.6 1.5-2.3 7.5-2.4 7.3a87 87 0 01-4-5.2c.3-.5.2-4 .6-6-1.8 2-1.2 5-1.3 4.8-2.3-3.2-6.8-7.6-8.7-10.7.5-.8 2-.7 2.4-.3zm-4 75.9c1-.2 1.7.3 3.1.6 2-.2 1-2.1 2.3-2.7 1.7-.7 3.9 2 6 2.9 3.1.9 1.7-1.7 4.4-1.2.4 0 1.8 1 3.5 2.3 1 .7 2.2-2.5 4.1-1.4 1 .6 1 .2 1.7 1.3.3.6 1.6 2.5 3 3 1.8-1.4 2.6-.8 3.1-.5 1.7 1.1 1.9 4.8 3 5.5 2.4.8 2.2-.3 4.5.5 1.6 1.3 2.2 4.4 3.6 5.8a52 52 0 01-5.9 3.8 98.5 98.5 0 01-2.5-1.3s1-6.7.6-6.9c0 0-1.4 2.7-1.3 6.3-.5 0-3.5-2.8-6.3-4.3-.3-.1-.2-7.7-.4-7.8-.3-.1-.1 7.2-.4 7a53 53 0 00-4.2-2c0-.8-3.4-8.5-3.6-8.4-.5 2.1 2.8 8 2.7 8-1.1-.3-5.6-2.8-6.8-3.3 0-.6-3-3.7-3.8-5.5.5 2.6 2.7 5 2.6 4.8-4-3-12-4-15.4-5.5 0-1 1.8-1 2.4-1zm37.6 42.1c2-1 2.7 0 2.7-4.2 0-1.8 3.2-1 5.3-2 2.8-1.6-1.3-2.5 1.8-4.5.4-.2 4.5-.7 6.6-1.1 1.5-.3-1.8-4.4 3-4.1.8 0 3.4.9 4.7.2.3-2.3 1-2.1 1.7-2.3 1.9-.5 3.2 1 4.5.9 2.2-1.3.3-1 2.5-2.2 1.8-.2 4.4.9 6.4 1l-2.4 3c-2.3 1-5.1 1.7-5.8 2-.3 0-6.3-1.2-6.5-1-.3 0 5.2 1.5 5 1.6-3.4 1.3-4.2 2-4.8 2.3-.7-.5-7.6-1.5-7.7-1.3 2 1.5 7 1.3 6.7 1.7-.5 1-4.3 2.7-5.5 3.2-.4-.4-6.1-.7-8-1.4 2.2 1.5 6.9 2.3 6.6 2.5-4.2 2.2-14 6.8-17.8 7.6-.8-.7.5-1.5 1-1.9zm43-10.3c2-.4 3.3-.8 1.3-2.6-1.4-1.2 2.4-1.9 4.7-1.9 3.2-.3-2-3.5 1.7-4 .4 0 3.4 1.5 5.5 1.1 1.6-.3-.5-4.7 3.8-2.4.6.3 1.5 2.3 3 2.2 1.2-2 1-1.4 1.7-1.3 2 .4 3 3.2 4.3 3.5l2.6-.2c2 .5 5 7 7 7.7.2 1 1.3.4-1 .2a24 24 0 00-8.7-3.9c-.3 0-3.5-5-3.8-5-.2 0 2.2 4.5 2 4.5-3.6-.2-4.1-.5-4.8-.5-.4-.7-3.9-4.8-4-4.7 1.2 2.3 3.3 4.4 3 4.7-1 .6-3.7.2-5 .2-.2-.6-2.9-2.1-4.3-3.5 1.4 2.3 3 3.8 2.6 3.8-4.8.4-9.7 2.8-13.4 3.8-.4-1 1.2-1.6 1.8-1.7zm-50.2-48.3c2.7 3.7 3 .5 4.4 1.7.3.3 1.5 2.7 1.2 4.8.7 2.1 2.4.4 3.3 2.1 1 1.9-1.2 4.8.2 6.4 1.6 1 2.3 1.5 2.5 2 .4 2-.3 2.4.2 3.6 1.3 1.8 1.6.4 3.3 2.3.5 1.5.7 4.7 1 7l-1.7 1a69 69 0 01-4.7-5.8s.8-6.4.7-6.6c0-.1-1.4 2.5-1.5 5.9-.5-.4-1.5-1.3-3.1-4-.2-.2 1.2-7.8 1.4-10.1a19 19 0 00-2 5c-.6 2-.5 4.4-.6 4.3l-3.7-5.6c.3-.8 1.8-7.8 1.7-9.6-1.5 1.6-2.3 8.3-2.4 8.2-2-3-3-5.1-4.2-7 0-.2.2-.3.3-.5l3.7-5.1zm9.8-71.8a13 13 0 00-1.6 4.8c.6 2 .7 1 1.6 2.1 1.1 1.5-2 3.5-2 5.8.3 2.1 1.3.7 1.5 3.4 0 .4-2 2.5-2.2 4.4-.2 1.2 3.4 1 2 2.8-.7 1-2.7 1.6-3.5 4-.2.6 1 2.5.9 4-1.3 1.7-2.4 2.7-2.6 3.4-.7 1.8.5 3 0 4.3a5.3 5.3 0 01-.6 2l-2 3.1c.2-4 .6-6.3.4-12.6 0-.7 3.3-5.9 3.3-6.1 0-.2-2.9 2.6-2.8 2.4.8-3.2.3-3.1.4-3.8a29 29 0 004.4-6.3c-2 .7-4.3 3.3-4.3 3.2 0-1.1.6-4.3.8-5.5a10 10 0 003.8-4.5c-2.5 1-3.4 3.3-3.4 3.1.4-5.7 3.6-12.2 5.2-15.9 1-.2 1 .8.7 2zm-13-95.2a16 16 0 011.6 9.4c-1.9-2.2-2-7.4-1.6-9.4zM191.3 123c2.7.7 5.7 1 5.3 2.5-1 .6-4-1-5.3-2.5zM181 168.7c2.8-.5 9.4-.7 9.8.3-.7 1-7.8.6-9.8-.3zm3 83c2-.1 6.2.4 6.4 1.2-.5.7-5.1-.4-6.4-1.1zm6.5-24.2c2.6-.2 7.5.5 7.7 1.5-.7.9-6-.5-7.7-1.5zm-2.8-5.5c2.6-.2 5.8-.4 6 .6-.7.9-4.3.4-6-.6zm26.6-14.4c1.5 2.2 3.3 4.8 2.5 5.5-1-.2-2.5-3.5-2.5-5.5zm-2.2 4.7c1.5 2.1 3.9 7.9 3.1 8.6-1.1-.2-3-6.7-3-8.6zm-2.5 6.7c1.5 2.1 6 9 5.3 9.8a24 24 0 01-5.3-9.8zm-17.9-73.1c1-1.6 3.3-1.4 4.5-.3 2 1.6 3 4.3 3.2 4.9.5 1.8-2.1 3.6-3.9 3.2-2.6-.4-5.4-4.5-3.8-7.8zm-4.5 52.2c1-1.6 3.2-1.3 4.5-.2 1.9 1.6 3 4.2 3.2 4.8.4 1.8-2.2 3.7-4 3.2-2.5-.3-5.3-4.4-3.7-7.8zm-.3 78.4c.3-1.8 2.5-2.4 4-1.9 2.4.8 4.4 2.9 4.8 3.4 1.1 1.4-.6 4.1-2.4 4.4-2.5.6-6.7-2.2-6.4-5.9zm9.7 42.4c-1.3-.8-1-2.6-.1-3.6a9.3 9.3 0 014-2.6c1.4-.4 3 1.8 2.5 3.2-.3 2.1-3.6 4.4-6.4 3zm10.8-177.2c2.7.7 6.8 1.4 6.4 2.9-1 .6-5-1.3-6.4-2.9zm-2.6-25.3c1.7 2.1 3.4 5.2 3.6 8.8-2.3-1.8-3.5-6.8-3.6-8.8zm-10 20.2c2.8.1 4 .5 6.8 2.6-.7 2-5.1-1.3-6.8-2.6zm-2.3 43.7a15 15 0 019.1-.5c.2 2-7 1-9 .5zm-3.5 81.5c1.9-.7 6 .4 8.6 1.2 0 1.5-7.2-.8-8.6-1.2zm22.4 26.9c2-.6 4.6.4 7.1 1.2 0 1.5-5.6-.8-7.1-1.2zm-5.3-5.5c2-.6 5.6-1.2 8.2.6 0 1.5-6.7-.1-8.2-.6zm-20.6 26c.1-2 0-4.1 2.7-6 1.4.6-1.8 4.8-2.7 6zm-3.3-1c0-1.4 0-2.9 1.8-4.2 1 .4-1.2 3.3-1.8 4.2zm8-10.8c1.4-1.4 4.4-3.6 7.5-3.1.6 1.4-6 2.8-7.6 3zm6.2 4.3c3.7-1.7 4.6-4 7.8-4.2 1 1.2-5.7 4.5-7.8 4.2zm6 2.5c1.1-1.7 4.1-2.2 7-4 1.2 2.6-5.6 3.4-7 4zm8.6 3.7c1-1.7 3-2 5.6-3.2 0 3.2-4.2 2.6-5.6 3.2zm23 22.2c0-2 2.8-5 4.2-7.3 1.8 2.6-3.4 6-4.2 7.3zm37.5-9.3c.6-1.5 3.4-3.5 5.2-4.7.5 2.5-4.2 4-5.2 4.7zm-33.5 8c0-2.1 5-7.2 6.5-9.6 1.9 2.7-5.6 8.3-6.5 9.5zm38-7.2c.7-1.4 4.6-4 6.5-5.3.4 2.6-5.4 4.7-6.4 5.3zm-30.7 2.7c0-2 4.5-6.2 6-8.5 1.8 2.6-5.2 7.2-6 8.5zm37.8-2.5c.6-1.5 3.5-3.6 5.3-4.9.5 2.5-4.3 4.3-5.3 4.9zm-84.8-79.4c2.5.3 5.7 1 8.8 1.5-1.8 1.7-4.6 1-8.8-1.5zm11.8-89.6c2.7 0 4.6 1.7 7.5 3.9-.7 2-5.8-2.7-7.5-4zm-3.7-45.7a24 24 0 012.8 11.4c-2-2-3-9.3-2.8-11.4zM193 130c2.8.4 5.8.8 5.9 2.3-.5 1-4.4-.9-5.9-2.3zm-6.8 44.5c2.7-.7 9.8-1 10.5.3 0 1.1-8.5.4-10.5-.3zm-.7 83.3c2-.3 8.3-.2 8.7.8-.1.9-7.3-.1-8.7-.8zm7.2-23.2c2.6-.4 10 1.5 10.5 2.8-.2 1-8.7-2-10.5-2.8zm15.2-87.8c2.8.5 8 2 8 3.5-.5 1-6.5-2-8-3.5zm-29 148.8c1.2-.6 2.4-1 3.9-.6-.4 1.6 3.9 2.6 4.5 2.6 2 .2-.4 2.2 1 3.5-.1 0 .6 1 1.6 1.2 2 .5 4-.6 4.4.8 0 .4.4 2 2 2.5 2.8.6 4.4-1.5 6.4.1.4.4.7 1.8 1.5 2.3 1.3 1 3.4 1.2 1.4 1.3-1.5.3-3-1-3.6-2.9-.4-.8-3 .5-4 .5-3 .4-3.9-1.1-4.6-2.8.2-.8-2.3 0-4-.6-1.1-.4-1.3-1-1.5-1.6a43 43 0 00-6-3.2c-.3 0 5.5 3.4 5.1 3.4l-1.7.5-1.7.5c-.2 0-4.9-2-5-1.8-.2 0 4.2 2.2 3.8 2.3-4.9 1.7-9 4-9.4 4-1.4-.1-1.5-2.8 1.6-3.6 1.2-2.3-1.9-2.2-1.3-4 .9-2.8 3.7 0 5.2-1 1.2-.6-1-2 .4-3.4zm109.2 33.2l1 1.3c1-2 3-4 4.4-5.9-2 1.3-4 2.6-5.4 4.6zm.4 2c.4-.5-.6-1.2-.8-1.7l-.8.8c.2.5.7 1.5 1.6 1zm-37.1-32c.3-1.9 2.5-2.5 4-2 2.4.8 4.4 3 4.8 3.4 1.1 1.5-.6 4.2-2.4 4.4-2.6.7-6.7-2.1-6.4-5.8z" clip-rule="evenodd"/><path fill="#902c16" fill-rule="evenodd" d="M210.3 204.3h-.3c-1-1.5-1-2.1-1-3.6 6-5.9 14.9-16.4 14.9-22.3.8-10.1-9.4-21.7-19-24.5-1.8-.8-1.6-2.1-1.4-3l-1.2-1c-2.8 4 4.4 8.7 9.2 19.2-1.8 3.2-12 15-15.6 23.3-3.6 8.4 1.5 11.5 2.5 14.2 1.2 3.2 5.7 11.6 7.8 10.3v2.4l.2.2c-.2-.9-.4-2.2 0-2.7s2 0 2.1-1c.3-1.3-1.2-4.1-1-5.4 0-1.4 1.6-1 2-1.2 1.4-.6.7-3.1.8-5" clip-rule="evenodd"/><path fill="#d82819" fill-rule="evenodd" d="M199.3 205.8c-2.4-2.8-4.4-7.5-3.3-9.5 4.3-14.7 20.7-24.7 18-36.6a35 35 0 018.7 14c1.7 8.3-4.5 15-10.5 22-4.9 5.6-10.4 11.4-6.6 20-4.6-4.7-3.7-4.6-6.3-9.9" clip-rule="evenodd"/><path fill="#f8f100" fill-rule="evenodd" d="M222.1 172c1.7 8.2-4.9 16.2-10.9 23.1-4.8 5.6-9.7 11.4-6.8 19.4l-1.4-1.7c-1.2-7.8 2.7-12.6 7.1-17.9 4.8-5.5 13.1-13.5 11.5-24l.5 1" clip-rule="evenodd"/><path fill="#f8f100" fill-rule="evenodd" d="M221 169.4c1.7 8.3-4.2 17-10.5 23.7-5 5.3-9.7 11.6-8.3 18.7l-1-2c-.5-5.7 4.2-12 8.6-17.2 4.7-5.5 12.3-13.8 10.7-24.3l.5 1.1m-25.1 29.9c1.4-7 5.4-12.5 9.6-18.2 5.5-7.3 10.8-13.9 9.2-20.6l.9 1c.8 7-4.4 13.1-9.5 20a43.2 43.2 0 00-9.7 19.5l-.5-1.7" clip-rule="evenodd"/><path fill="#f8f100" fill-rule="evenodd" d="M196.8 201.8a52.2 52.2 0 0110.2-20.2c5.1-7 10.1-13.4 9-19.7l1 1c.1 6.8-4.7 12.7-9.7 19.5a47 47 0 00-9.9 20.7l-.6-1.3" clip-rule="evenodd"/><path fill="#902c16" fill-rule="evenodd" d="M195.8 275.2a56 56 0 0112.3-25.7c6.7-8.5 11.3-15.3 11-17 1 0 .3 2.6 1.3 6.3 1.3 5.5 3.6 11 3.6 12.4.3 2.1-.7 6.3-2.8 9.7-3 4.7-6.8 9.7-10.2 14.6-3.5 5-5.9 9.4-6.5 11-.8-.7-1.4-3-2.8-4.5-2.6-2.8-5.9-5.3-5.9-6.8" clip-rule="evenodd"/><path fill="#d82819" fill-rule="evenodd" d="M197 275.2a60 60 0 0112.1-24.9c6.2-7.7 10.2-12.1 9.8-13.6 1 0 0 .6.8 4 1.2 5 3.2 9.8 3.2 11 .2 2-1.4 6-3.4 9-2.6 4.4-6.3 9.3-9.4 13.8a63.8 63.8 0 00-5.7 9.8c-.7-.6-1.2-2.5-2.4-3.9-2.4-2.5-5-3.8-5-5.2" clip-rule="evenodd"/><path fill="#f8f100" fill-rule="evenodd" d="M222.4 249.5l.2.8c.2 2-1.5 6.2-3.4 9.3-2.7 4.3-6.3 9.3-9.4 13.7a72.3 72.3 0 00-6 10.1l-.4-.8c1.5-3.2 3.4-5.9 5.2-8.8 2.9-4.6 7-9.5 9.7-14.1 2-3.4 3.4-6.4 4-10.2" clip-rule="evenodd"/><path fill="#f8f100" fill-rule="evenodd" d="M221.8 247.9l.2.7c.3 2-1.4 6.3-3.4 9.4-2.7 4.3-6.4 9.4-9.5 13.9a71 71 0 00-6 10.2l-.5-.8c1.6-3.3 3.5-6 5.4-9 2.8-4.6 7-9.6 9.7-14.2a30 30 0 004.1-10.2m-24.5 28.4c-.3-4 5.3-16.3 12.4-25.3 6.2-7.7 10-11.8 9.6-13.3.1.9 0 1 .2 1.8-3.3 5.5-10 12.2-13.3 17.6a52 52 0 00-8.2 19.7c-.4-.3-.2 0-.7-.5" clip-rule="evenodd"/><path fill="#f8f100" fill-rule="evenodd" d="M198.4 277.3c-.3-3.8 5-16 12-24.5 5.9-7.5 9.6-11.4 9.2-12.9l.3 1.8c-3.2 5.3-9.7 11.5-12.7 16.7-3.8 6.7-7.6 12.6-8.1 19.5l-.7-.6" clip-rule="evenodd"/><path fill="#902c16" fill-rule="evenodd" d="M204.8 309.5c16.7-2.3 21.3-11.6 32.6-12.2 3.7-.4 9 2 13.3 5.8 4.4 2.3 6.8 4 7 5.5h.1v.2c-1.6-.4-3.2-.8-4.4-.6-2.2 1.2-.2.9-2.6 2.2-1.3.2-2.6-1.4-4.6-.9-.7.2-1.5 0-1.8 2.3-1.3.8-4-.1-4.7-.2-2 0-2.7.5-2.9 1.3h.2c-3 2-6 3.3-8.7 4.8-4 2.3-7.4 4.3-9 3.7-3.4-.4-4.4-3-7.5-5.2-1.6-1.2-3.5-1.7-4.7-2.9-2.1-2-2.3-3.4-2.3-3.8" clip-rule="evenodd"/><path fill="#d82819" fill-rule="evenodd" d="M206.3 310.4c2 .2 6.6-2 12.4-4.3 8.6-3.3 11.8-7.9 20-7.6 2.2 0 4.6.4 7.6 2.2 2.6 1.5 5 4.3 8.1 5.2-1.4 0-13 2.7-20.5 7.1-6.1 3.6-11.7 7.5-14.4 7.2-4.1-.1-5-4.4-7.9-5.5-5-1.9-5.3-3.8-5.3-4.3" clip-rule="evenodd"/><path fill="#f8f100" fill-rule="evenodd" d="M206.5 311.2c2.1.3 7.3-2.4 13-4.6 9.4-3.6 12.1-8.8 24.2-7.2l.9.3c-3.7 0-7.6-.3-10.7.7-5 1.8-9.1 4.9-14 6.7-4.3 1.6-8.9 4.2-13 4.8-.5-.5 0 0-.4-.7" clip-rule="evenodd"/><path fill="#f8f100" fill-rule="evenodd" d="M207.4 312.3c2 .3 7.3-2.4 13-4.6 9.4-3.6 10.5-8.2 25-7.4l1 .4c-3.6 0-9.5.2-12.6 1.3-4.9 1.7-8.2 4.4-13 6.2-4.3 1.6-8.7 4.2-12.7 4.8-.6-.5-.3 0-.7-.7m45.3-7.1a67 67 0 00-20.5 7c-6.1 3.7-12.5 7.7-15.1 7.3l-.6-.4c6.7-.9 13.7-7.3 21.2-10.3a102 102 0 0114-4.2c.7.4.3.4 1 .6" clip-rule="evenodd"/><path fill="#f8f100" fill-rule="evenodd" d="M251.4 304.2a67 67 0 00-20.4 7.1c-6.2 3.7-12.5 7.6-15.2 7.3l-.4-.4c6.8-1 13.6-7.3 21-10.3a93 93 0 0114-4.2c.7.3.4.4 1 .5" clip-rule="evenodd"/><path fill="#d82819" fill-rule="evenodd" d="M276.7 300.6c2.2 0 4.9 1.8 8.3 3.2l2.6 1-4.7 3.6c-.9-.5-1.6-1.7-2-1.9-4.2-2-3.3 2.7-4.8 3-1.9.3-4.9-1.2-5.2-1.1-4.6 1 .6 3.8-2.4 4.1-2.5-.7-6.2 1.6-5 2.7 2 1.6 1.1 1.5-.8 1.9-1.6.2-2.5 2.4-2.2 3.3.6 1.1 1.4 2.1 4.7 1.3 1-.1 1.5-.6 2 0 .3.7-2.6 3.7 2.1 2.8-6 7.2-10 5.6-15.5 4.7-4-.7-4-.1-6.5-.8 5-4.4 6.2-7 10-13 5.6-8.8 13.6-15.4 19.4-14.8" clip-rule="evenodd"/><path fill="#f8f100" fill-rule="evenodd" d="M277.7 300.7l1.2.5a16 16 0 00-10.8 4.3 69.6 69.6 0 00-9.8 11.5c-2.6 4-5.1 8.5-9 11.7h-1c4.9-4.5 6.3-7.2 10-13.1 5.7-8.8 13.7-15.5 19.4-14.9" clip-rule="evenodd"/><path fill="#f8f100" fill-rule="evenodd" d="M280 301.6l1 .5a19 19 0 00-10.9 3.6 43.1 43.1 0 00-10 11.4c-2.6 4-5 8.6-9 11.8l-1-.1c5-4.4 6.3-7.2 10-13 6.7-10.2 14-14.8 19.8-14.2m-12.2 23l-2.2 2.8c-.5.5-1 1.1-1.9 1.8l-1 .4c1.5-1.5 3.1-3.3 4.4-5.1.2.2.4.1.7.1m19.1-20.1c-1.8 1-3.3 2.1-4.6 3.3l-.4-.3a20 20 0 014.4-3.2l.6.2m-1.5-.5c-1.7 1-2.7 1.6-4 2.9l-.4-.4c1.2-1.2 2-1.8 3.8-2.8l.6.3m-18.7 20c-.6.8-1.2 1.6-2 2.4-.9 1.2-2 2.4-3.3 3.5h-.8a44.8 44.8 0 006.7-8.1c-.2.9-.7 1.5-.6 2.1" clip-rule="evenodd"/><path fill="#d82819" fill-rule="evenodd" d="M217.2 122.6c1.4 0 6.2-3.2 7.2-4.1 0 1.7 2.2 3.7 3.6 5.9 1.7 2.4 2.4 4.8.1 6.4-2.5 1.8-4.9.8-6.3-1.2-.9-1.4-1.1-3.5-1.8-4.8-.9-1.6-2.8-2-2.8-2.2" clip-rule="evenodd"/><path fill="#f8f100" fill-rule="evenodd" d="M218.4 122.3l.6-.3c1.2.7 1.3 1 2.2 1.9 1 1.1 1.5 4.3 2.5 5.3 1 1.2 2.7 1.5 4.3 1.7l-.7.4a6 6 0 01-4.3-2.1c-1-1.4-1.2-3.4-2-4.7-1-1.5-2.6-2-2.6-2.2" clip-rule="evenodd"/><path fill="#f8f100" fill-rule="evenodd" d="M219.4 121.8l.6-.3c1.2.7 1.3 1 2.2 1.9.9 1.2 1.4 4.2 2.4 5.2 1 1.1 2.6 1.4 4.3 1.5l-.5.5c-1.8 0-3.8-1-4.5-1.9-.9-1.3-1.2-3.4-2-4.6-1-1.6-2.5-2.1-2.5-2.3" clip-rule="evenodd"/><path fill="#d82819" fill-rule="evenodd" d="M234.2 105c2-.5 5.4-.2 8.5 2.5 3.8 3.5 7 10.9 10.3 15.5 3.6 5 7.4 6.8 8.1 6.8-.2 1.5-1.8 1.3-3.7 2.6-2 1.4-3.8 3-4.7 4-1.7 1.5-5.8 0-8.4-3.1-3-3.5-8.2-14-11.6-17.7-4.3-4.7-6.7-2.2-7.6-2.2l9.1-8.5" clip-rule="evenodd"/><path fill="#f8f100" fill-rule="evenodd" d="M226.7 111.9l.5-.5c.8-.1 3.6-1.4 7.8 4.3 1.9 2.5 3 4.5 4.6 6.8l4.5 7c4 5.7 6.2 6.1 9.2 6.3l-.4.5c-2.2 0-5.2-.8-8-4.7-2.2-3-4.1-6.2-5.9-9a92.5 92.5 0 00-4.9-7.2c-4.1-5.2-7.4-3.3-7.4-3.5" clip-rule="evenodd"/><path fill="#f8f100" fill-rule="evenodd" d="M227.6 111l.5-.5c.8 0 3.6-1.3 7.8 4.3 1.9 2.5 3 4.5 4.6 6.8l4.5 7c4 5.7 6.2 6.2 9.2 6.4l-.4.4c-2.2 0-5.2-.8-8-4.7-2.2-3-4.1-6.2-5.9-8.9a75.3 75.3 0 00-4.9-7.2c-4-5.2-7.4-3.4-7.4-3.6m5.6-5.1l.5-.4c3.9-.6 8 1.9 10 5 1.4 2 5.5 9 7.4 11.9 3.9 5.6 6.5 7.4 9.6 8.3l-.6.4c-2.6-.8-5-2.1-7.9-6.2-2.1-3-7.3-11.3-9-14a11 11 0 00-10-5" clip-rule="evenodd"/><path fill="#f8f100" fill-rule="evenodd" d="M232.4 106.6l.4-.4c4-.6 8 2 10.1 5.1 1.3 2 5.5 9 7.4 11.8 3.9 5.7 6.2 7.4 9.4 8.2l-.9.4c-2.5-.8-4.5-2-7.4-6.1-2.1-3-7.3-11.3-9-14a11 11 0 00-10-5" clip-rule="evenodd"/><path fill="#902c16" fill-rule="evenodd" d="M287 215a.9.9 0 010 1.7.9.9 0 010-1.7" clip-rule="evenodd"/><path fill="#9b7d23" fill-rule="evenodd" d="M268 125.9c1.6-1.6 4.9-2.7 6.4-4.2 2-2 2.3-4.6 4.3-6.6l6.7 6.7c-1.8 1.8-4.8 2.5-6.6 4.3-1.8 1.8-2.3 4.6-4.1 6.4a4.7 4.7 0 01-6.7-6.7" clip-rule="evenodd"/><path fill="#f2d300" fill-rule="evenodd" d="M269.3 126.5c1.4-1.5 4.2-2.6 5.5-4 1.8-1.7 2.3-3.8 4-5.6l4.8 4.8c-1.6 1.5-4 2.4-5.6 4-1.6 1.6-2.3 3.9-4 5.5-1.6 1.6-4 2-5.3.6-1.3-1.3-1-3.7.6-5.3" clip-rule="evenodd"/></svg>