<svg xmlns="http://www.w3.org/2000/svg" xmlns:xlink="http://www.w3.org/1999/xlink" viewBox="0 0 600 400"><path fill="#fff" d="M0 0h598.7v399.7H0"/><path fill="#da251d" d="M55.9 272H600v128H55.9"/><path fill="#2b7338" d="M55.9 0H600v236.1H55.9"/><g stroke="#fc0" stroke-width="2" transform="scale(1.33038 1.33245)"><g id="b"><path id="c" fill="#fc0" stroke-linecap="square" stroke-linejoin="round" d="M9 75l12-1 12 1-12 1z"/><path id="a" fill="none" stroke-linecap="round" d="M21.7 11.3c-3.6.9-5.6 5.4-3 9.3 2.9 4.5 9.6 4.2 13-.5 3.4-4.7 1.7-11.2-2.6-15.2a12 12 0 00-18.4 2.9c-5.2 8.7-1 18.2 4.8 24.9l10.7 10.5C32 49.9 36.3 59.4 31 68.1 26.9 75 18 76 12.8 71.2 8.4 67.1 6.7 60.7 10.1 56c3.4-4.7 10.1-5 13-.5 2.5 3.9.6 8.4-3 9.3"/><use width="100%" height="100%" transform="matrix(1 0 0 -1 0 150)" xlink:href="#a"/></g><use width="100%" height="100%" y="150" xlink:href="#b"/><use width="100%" height="100%" y="75" xlink:href="#c"/></g></svg>