<svg xmlns="http://www.w3.org/2000/svg" height="400" width="600"><g fill="#09f"><path d="M0 0h145.5v400H0zM450 0h150v400H450V0z"/></g><path fill="#fff" d="M145.5 0H450v400H145.5V0m81.7 98c-4.6 4.6-8 10.4-12.7 14.8 1.9-6.5 7.5-11 9.9-17.1-4.5 2.1-6.3 7-9.9 10.2.9-3.3 3.4-5.7 4.5-8.9-2 1-4 2.4-4.9 4.6-2 5-3.8 10.3-4.8 15.6-.6 3.2-3 5.6-4.4 8.4-2 3.3-3 7.3-5.9 10 1.3-7.1 2.6-14.2 5.4-20.8l-1.2-.6a34.8 34.8 0 00-4.6 11.7l-1-1.9c.7-3.4 3-6.6 2.1-10.2-2 2-3 4.7-3.1 7.5-2 7-.9 14.5-2 21.6l-2.8.8c0-1.6-.1-3.2-.5-4.7-2.2 5.2-1.8 11-1.6 16.6-3-3.2-.8-8.1-3.2-11.5-2 8.5 3.1 16 6.5 23.2-.5 6-.8 12-1.4 18h-.8c-.3-7.4-.4-15-3.3-22-.8 1-2 1.8-1.7 3.2.2 6.5 2.4 12.8 2.8 19.2-2.5-3-2.8-7-4.2-10.5-1.3-3.3-1.4-7.3-3.8-10-1.2 5 2.4 9.6 2.3 14.6-3.5-3.2-2.5-8.8-5.6-12.1-.8 5.3 1.9 10.2 4.4 14.7 1 2 2.6 4 3.1 6.3 2 9.2 6.4 17.6 8.5 26.6-1.8-1.6-2.8-3.8-4-5.9-2.5-4.4-4.8-9-7.9-13.1-.6-1-1.6-1.4-2.4-2-.7 3.9 2.3 6.7 3.8 9.8 2.1 4.2 5.6 7.7 7.3 12.1-6.5-4.5-10.4-12-16.4-17.1.5 5.2 5.4 8.3 7.4 13-4-2-6-6.4-9.4-9.2.3 2 .8 4 2.3 5.5 4.4 5 10 8.8 15.7 12.2h-1.8l.5.5c-1-.8-2-1.1-3.2-1.5 1.3 3.4 4 5.7 6 8.7 2.9 4.2 6.6 7.8 8.8 12.5-6.5-4.1-11-11-18-14.4-.1 1 .1 2 .7 2.8 4 4.9 10 7.6 13.8 12.7-3-1.4-5.9-3.1-8.8-4.8-3.2-1.7-6-4.2-9.5-5.3 2.3 5.2 8.2 6.7 12 10.4-4.8-1.3-8.5-5-13.3-6.4 1.1 1.9 2.5 3.6 4.4 4.6 5.6 3.2 12 4.3 18.3 5.8 2 .4 3.1 2.5 4.4 4 2.4 3.2 5.5 6 6.8 10-6.3-4-10.5-10.9-17.6-13.4.3 1 .4 2.4 1.4 3.1 4 4 9.3 6.8 13.2 11-6.8-1.4-11.8-6.8-18.3-9.2.4.8.9 1.5 1.4 2.1l-.7 2.3-1.3-.7c.3 3.1 3.4 4.4 5.7 5.7 6.6 3 13.9 4.2 21 5.7 2.1 1.1 3.9 3 5.8 4.5 2.4 2 5.1 3.7 6.9 6.4-7-2.3-13-7.6-20.2-9.2.2 1 .5 2.2 1.5 2.7 3.9 2.5 8.2 4.4 12.6 6.2 1.2.4 2.2 1.3 3 2.2-6.8-.6-13-4-19.8-5 3.3 4 8.7 4.3 13.1 6.4-4.5.7-8.5-2-12.8-2.3.7 1 1.5 2.2 2.8 2.6 7 2.8 14.5 1.7 21.6 2.3 5.4 2.7 9.7 7.1 15 10 .8.6 1.5 1.3 2.1 2-6.6-.8-11.3-6.6-17.7-8 .3-1.9-3-.2-1.1.6 2.7 2 5.9 3.5 8.4 6-2.3-.4-4.5-1-6.8-1.2.8 1 1.5 2.2 2.8 2.6 5.1 2.6 11 3 16.6 3 2.6 3.4 7.1 3.4 10.9 4.5 3.4 1 7.2.7 10.3 2.7-7.1 1-14.2-1.2-21.3-.5.6.6 1.1 1.5 2.1 1.5 5 1 10.1 1.4 15 2.6-5 1.4-10.3-1-15.4.2 8 3.9 16.7.3 24.8-1.1 4.1-.3 8.3-.6 12.3.4-5 1.3-10.1 1.5-15 3-1.3.6-3.6.6-3.9 2.4 2.2.4 4.4 0 6.6-.5 4.8-1 9.6-2.3 14.4-3.4-2.9 4.3-8.5 3.8-12.2 6.9 2.6.6 5.3-.2 7.9-.7l.4 1.8c5.2.4 9-4.3 12-8 2 1.4 4.2 2.2 6.6 2 .3-1.4.8-2.7.7-4-1.1-3-4.6-2-7-2.1-1.7-6.3-4.5-12.8-10-16.6 2.3 4.4 6.5 8 6.9 13.2-4.9-3.3-6.8-9.6-12-12.5 1.8 4 5.2 7.2 7.4 11-3.3-1.5-5.5-4.6-8.3-7-1-.9-2.3-1.7-3.3-2.8-1-2-1.8-4.2-2.8-6.3l-1 .7c1 2.9 2.1 5.8 2.8 8.9l-2.2-.2c-2-3.6-3.1-7.7-5.5-11.2-.5 4.4 2.8 8 3.1 12.4-3.4-3.4-4.6-8.6-8.5-11.6.7 6 6.3 9.6 7.9 15.2-3.8-3.2-5.2-8.2-8.6-11.7-.8-1.2-2.2-.8-3.3-.9l-.5-.6c.3-2.3.2-4.7 0-7h-1c0 4 .9 8.9-2.7 11.6-1.3-4.8 0-9.7-.4-14.5l-1.2.9c-1.4 4-.5 8.4-1.2 12.6-.8-4-1.2-8.2-1.9-12.2 0-1.4-1-2.4-1.8-3.4v.9l-1.6 2.4c-.2-1.4-1.5-2.3-2.4-3.3-.4 4 1.4 7.8 1.5 11.8-3-4.1-5.6-8.5-8.7-12.5-.3-3.8 1.3-7.9-.4-11.5-.7 4.8 0 10.2-2.8 14.4l-.9-.2c-.9-5.4.3-10.7.2-16l-1.7.1c-.1 4.3.1 8.6-.5 12.8-1.1-4.1-1.2-8.4-2.1-12.5a3 3 0 00-1.8-2.5L228 262l-.8-3h-2c.7 3.8 2 7.5 2.6 11.4-2.4-2.7-4-6-6.2-8.9 1.7-4.2 3.7-8.4 4-13-1.4 1.4-1.6 3.4-2.2 5.2-.6 2.4-2 4.4-3.8 6l-.7-.2c-.3-5 3.6-9.5 2.6-14.6a17 17 0 00-2.2 5c-.4-2.2-1-4.4-1.8-6.5l-.1-1.7c-.7.7-1.4 1.4-1.4 2.5-.6 3.5-.9 7.1-1 10.7.1 1-.3 1.8-.7 2.7-.4-4.5 0-9 0-13.4 0-1.3-.4-2.4-1.3-3.3-1.5 3.8-.6 8-1 12-1.3-2.9-2.6-5.7-3.1-8.8 2.5-5 5.4-10.4 5-16.1-1.4 3.1-2.2 6.5-3.6 9.7-1-.8-2.7.8-2 1.9h-1c.4-5 2.8-9.7 3.5-14.7-.9.5-2 1-2 2.1l-1.4-.1-1.1-2.5-.3-2.6c-.5.5-1 1.1-1.2 1.8l-1.9.7c.2-1.4-.6-3.2.6-4.3 3.3-3.7 6.8-7.6 8.1-12.5-4 4-6.4 10-12.2 11.8 1.7-6.7 8.2-10.6 10.1-17.1-3.6 2.4-5.2 6.6-8.1 9.7-.1-5.2 4.6-9 4.1-14.2-3.7 4.5-5.5 10.1-7.3 15.6l-1.5.5c1.8-6 5.6-11.6 5.4-18.1-4.3 2.7-2.7 8.9-5.9 12.5-.3-4.5 0-9-.2-13.5 5.2-1.9 11-4 14.4-8.8-4.6 2-8.5 5.9-13.7 5.8l1-2.3c3.7-1 6.7-3.5 10-5.5 1.1-.7 2-1.8 2.7-3-4 .3-6.5 4.3-10.4 4.3 2.8-3.2 6.8-5.4 8.6-9.4-6.2 1.6-8.4 8.4-13.5 11.5.3-1.7 1.4-3 2.7-4.1 3.4-2.8 7-5.7 8.6-10h-2c-2.3 2-4 4.6-6.4 6.5 1-3.6 2.2-7.3 4-10.7 4.4-1.7 9.9-2.5 12.7-6.9-3.3 1-6.2 3.2-9.5 4.1-1.5.4-3 0-4.2-.8 4-1.9 8-3.7 11.8-6 1-.5 1.6-1.3 2-2.3-2.5.8-5 2-7.7 2.6 1.4-3.3 5.2-4.4 7-7.5-5.4 1.4-9 6-13.3 9 3-5 9.3-7 11.7-12.5-4.2.5-6.3 4.8-9.8 6.7 1-3 2.7-5.7 4.4-8.3 3.2.6 6.5 1 9.7.2l-1.2-1.3c-3.8 0-7.6.2-11.3-.6l-1.3-1.8c5.7-.6 11.5.2 17.2-.3-.8-.3-1.6-.8-2.4-.8-2.5-1.1-5.1-1-7.7-1 1-.4 2-.7 3-1.3l.6-.1c.8.8 2.9.4 3-.8 1.5 0 3-.5 4.1-1.4h-.9l-1.2-1.2.7-1.4 1.5-1.5c-3.8-.8-7.3 1.3-11 1.4 2.3-2.5 5.5-3.8 8.1-6 3.2-3 7.5 1.3 11-.9-3.8-1.3-8-1.9-11.6-4-1-.6-1.4-1.6-2-2.5 5.8.6 11 3.7 16.9 3-4.2-2.8-9.9-2-14-5 5.3.4 10.6 1 15.8.6l.3-.9c-5-2-10.4-.3-15.5-1.9 4.5-.2 9.1.2 13.6-.6 1.2 0 2-.9 3-1.5-3.6-.9-7.2 0-10.8-.3l-2.4-2.3c2.4-2 4.5-4.7 7.3-6.2 1 .3 2.3.5 2 1.8-2.9 1.5-5.9 3-8 5.4 3.7-.1 7.1-2.2 10.6-3.6 2.9.8 5.7 1.9 8.6 2.3-1.1-2.1-3.5-2.8-5.6-3.4-2.1-1.4-4.5-2.6-5.5-5.2 5 2 9.4 5 14.6 6.3-.5-.7-1-1.7-1.9-2-3-1.5-6.4-2.5-9.3-4.4 4.9.2 9.3 2.8 14.2 2.5a14.8 14.8 0 00-6.4-2.8c-2.4-.6-5-.3-7-2 4.7.6 9.3 2.4 14 1.4-2.2-2.5-6-1.7-8.6-3.3 3.9-1 8-1.3 11.7-3.1l-1.6-1c-3.3.2-6.4 1.9-9.7 1.5 4-3.2 9.5-4.5 12.8-8.7-7.6 1.5-13.3 7.7-20.6 9.8 4.1-5.5 11-8.3 14.5-14.3l-2 .4c-5.3 2.7-8.6 8.1-13.7 11.1 2.6-5.9 7.7-9.9 11.2-15-3.6.8-5.5 4.2-8.5 6 1.3-2.9 3.8-5 4.9-8-7.7 3.7-9 13.1-13 19.8m144.6-19.8c1.4 4.2 5.7 6.6 7 10.9-3.9-2.9-5.9-8-10.7-9.4 3 5.4 8.7 9.2 10.8 15.3-2.8-2.3-5.2-5-8-7.3-2.2-1.8-4.4-4.2-7.5-4.2 1.8 2.8 4.4 5 6.9 7.1 2.7 2.3 6.1 4.1 8 7.4-7.3-2.7-13.4-8.1-20.8-10.3.5.9 1 2 2 2.5 3.7 2.6 8 4.3 11.9 6.9-4.2 0-8.1-2.1-12.4-2l1 1.6c3.9 1.4 8 1.8 12 2.8a56 56 0 01-8.3 1.3l-1.8.9 2.4 3.2-1.6 1.2c4.9 0 9.3-2.6 14.2-2.5-3.4 1.9-7.1 3-10.6 4.7l-.3 1.6c4.1-1.3 7.8-3.9 12-5.2l1.4.7c-3.2 2.3-6.5 4.2-9.9 6.2 3.1.3 5.9-2.8 8.9-1.4 3.1 1.2 6.4 2 9.1 4.2-3.5.2-7-.2-10.6.2.6 2.3 3.1 2 5 2.2 3.5 0 7.2.3 10.8.8-4.6 1.1-9.4 0-14 1-.6.2-1.2.6-1.7 1 3.5.5 7 .6 10.4-.5 2.2 0 4.4-.1 6.7.1-4.3 3.3-10.6 1.7-14.8 5 5.9.4 11.5-1.8 17.2-3.3l-.4 1.7c-3.7 3.2-9 3.1-13.2 5.4 3.2.6 6.3-.3 9.4-.9 3.1 2 5.8 4.8 9.3 6.4l.3 1.5c-3.5-.9-7-2.5-10.6-2.1 2.4 4.7 8.5 3.2 12.6 4.7-4.2 1.5-8.4-2.5-12.7-.4 4.3 2.6 9.4 2 14 3.5-3.7.8-7.5.3-11.3.4l-1.3 1.9c5.7.8 11.6-1.6 17.1.6-2.3 1.1-4.9 1.8-7.5 2.3-2.2-.3-5-1-6.8.8l5.1.5c.1 2.4 1.7 4.3 3.5 5.9 2.8 2.4 5.7 4.7 8.3 7.4-5.1-2.4-8.4-8-14.1-9.2 2.8 4.1 7.7 6 10.7 9.8-4-1.2-7.4-4.2-11.6-4.5 3.8 4 9.5 5.2 14 8.4-1.1 1.4-2.8.6-4.2.3-3.2-.8-6-2.7-9.1-3.5 3 4.3 8.6 4.7 13 6.9 1.6 3.5 3.1 7.2 4.4 10.9-2.9-2.3-5-5.3-7.6-7.8l-1 1.5.4.7-.9 1.8-.7-.7-1.2.5c2.4 4 6.5 6.3 9 10.1-3.8-1.4-7-4.2-10.8-5.5.8 2.1 3.2 2.9 5 4.2 3 2.1 6.6 3.6 9 6.7-5.3-.1-9.3-4-14-5.6 3 3.9 7.6 6.1 12.2 7.7 1 .4 2.5.7 2.3 2.1l.1 12.4c-3.6-3.4-2-10-6.3-12.9-.4 6.8 4.4 12.4 5.1 19a8.4 8.4 0 01-2.1-3.7 37.3 37.3 0 00-6.5-13.3c0 1.7 0 3.5 1 5.1 1.9 4.2 4.1 8.1 5.5 12.5-3.9-4.1-6-9.8-10.6-13 2.3 6.2 7.8 10.8 10.5 17-5.8-1.7-8.8-7.6-12.5-12 1.2 5.8 5.5 10 9.4 14-1.4 5.7.2 11.5 0 17.2h-.7c-.7-5.3-.4-10.8-1.7-16l-1.4-.3c-.3 5.2 1.1 10.3.9 15.4-2-4-1.6-9.4-5.2-12.6.5 5.7 3.7 10.8 3.7 16.6-4.8-3-4.8-9-7-13.6-.4 5.7 2.6 10.7 4.6 15.8.5 3-1.2 6-2.2 9-.6-3.9.3-8.3-1.9-11.6l-.7 2.3-1.7 1.4-.6-3.3c-1 1.3-1.7 2.9-1.3 4.6l-1.9 2.7c-.2-1.6-1.3-2.8-2.5-3.7.9 5 3 9.5 3.6 14.5-4.7-1.8-4.5-7.6-6.9-11.3 0 4.7 2.1 9 4 13.3-1.7 2.8-3.4 5.7-5.4 8.4 0-4 1.8-7.7 1.5-11.7-1 1-2 1.9-2.3 3.2-1.5 4.5-1.2 9.4-2.7 13.9-1-5.8 2.3-11.4 1-17.2-.5.7-1.1 1.5-1.5 2.3-1.2 4.4-.9 9-1.7 13.3-.7-3.7-.8-7.5-1-11.4 0-1-.7-1.9-1.3-2.7-.7 5.8.7 11.6-.2 17.4-4-3.8-2.7-10-3.7-15-1.6 3.7-.3 7.7-.5 11.6-.6 1.5-1.7 2.6-2.6 4-2 2.7-3.4 5.9-5.5 8.5.2-3.8 1-7.4 1.1-11.2-.8.6-2.1.8-2.2 2-.8 3.5-.9 7.2-2 10.6-.9-4.2 1.4-8.3.1-12.5l-1.5 1.7c-.6 1.6-1 3.3-1.5 5l-1.3-1.2c-.1-1.4-.5-2.7-1-4.1l-.8 1.7c-.3 4.4 1 8.8.3 13.3-4.4-2.7-2.9-8.5-3.5-12.8-2 4.1-.2 8.8-.5 13.1-2.2 1.7-4.3 3.5-6.6 5 1.3-3.7 5-6.2 5.2-10.2-1.7 1-3.3 2.2-5 3.3.9-1.5 1.8-3.2 1.6-5-4 3.1-5 8.4-8.5 11.9.9-3.9 2.4-7.6 3.5-11.4l-1-1c-1.5 3.8-2.7 7.7-4.9 11h-2.2c.8-3.3 2.3-6.4 3-9.8-2.9 2-2.7 6.3-5.7 8.2-3.1 2.3-5.6 5.5-8.6 8 1.2-4.3 5.1-7.1 6.1-11.4-4.8 3.7-7 9.8-11.8 13.4.3-5.3 4.7-8.8 6.6-13.5-1.2.8-2.4 1.7-3.2 3-3 4-5.4 8.6-6.4 13.6-2.2 0-4.5-.1-6.7.6 0 1.9.2 3.7.6 5.6 2.5.2 4.7-.8 6.8-2 2.3 3 4.8 6.5 8.7 7.5l3.7 1.3.8-1.9c2.3.3 5 1.1 7.1-.4h-.9c-2.9-2.3-6.7-2.5-9.8-4.4l-.9-2c6.7 1.4 13.2 3.9 20.1 3.8-1.4-2.4-4.4-2.5-6.8-3.2-4-1-8.2-.9-12-2.6 6.3-.7 12.6-.3 18.8 1h-.7a33 33 0 0018 .4h.8c-1.9-1.6-4.6-1.6-6.8-.6-2.8 0-5.5.2-8.2-.2 4.7-1.3 9.6-1.4 14.4-2.5 1.1 0 1.8-.9 2.5-1.6-3.6 0-7.1 0-10.7.3-3.6.2-7.3 1.1-11 .5 1-.6 1.8-1.3 3-1.4 4.8-.9 9.6-1.8 14.3-3.2 2-.5 3-2.6 5-2.9 4-.6 8.3-.2 12.2-1.6 2.5-1 5.4-2 6.7-4.5-2.4.5-4.8 1.4-7.2 2 2.1-3.4 6.5-4 8.6-7.4-6 1-10.6 5.6-16.2 7.8-1.1.7-2-.4-2.9-1l-.5.1c2-.2 3.5-1.6 5-2.8.8 0 1.8 0 2.4-.6 3.3-2.4 6.2-5.5 10-7 4.5-.5 9 0 13.4-.6 4-.6 8.6-1 11.4-4.3-4.8.1-9 2.8-14 2.7 4.6-2.6 10.2-2.8 14-6.7-6.8.3-13 4.5-20 4.5 3.8-2.4 8-3.8 11.9-5.8 2.2-1.2 5.1-2.2 5.5-5.1-7.5 1.5-13.4 6.8-20.4 9.6 2.7-4 7-6.4 10.4-9.6 2.9-2.9 7.2-2 10.7-3.4 5-.9 9.8-2.3 14.2-4.7 2-1 3.4-2.8 4.7-4.6l-4.8-.2c1.5-1 2.7-2.4 3.5-4-6.2 2.2-11.1 7.4-17.6 9 3.5-4.4 8.9-6.7 12.5-11 .9-.8 1-2 1.2-3l-1-1.7a36 36 0 0015.7-6.7c.7-.7.8-1.8 1.2-2.6-4.4 2-8.3 5-13 6.7 3.8-4 9.7-5.5 12.2-10.7-6.6 2.4-11.7 7.8-18.3 10 3.9-4.8 9.5-7.8 13.5-12.4.6-.8.6-2 1-3-4 1.7-6.8 4.9-10 7.4-2.8 2.1-4.7 5.3-8 6.6 4-6.9 9.5-12.7 14.2-19.2l.6.6-2-3c5.9-4 13.1-7.9 15.5-15.2-3.8.9-4.4 6-8.1 7l.2-1.3c2.2-3.2 5-6.3 5.8-10.3-2.3 1.4-4 3.6-5.6 5.7-2.7 1.4-4.4 4-6.4 6.4l-1.1-1.2c2.7-3.5 5-7.4 7-11.3.9-1.4.4-3 .2-4.6a63.8 63.8 0 00-9 13.6l-2.2 1.9-.4-2c2.4-6.7 5.3-13.2 6.4-20.2 3-6.2 8.2-12.2 7-19.6-.7.8-1.4 1.7-1.6 2.8-1 4-2.1 8-4.7 11.3.6-5.7 4.1-11.2 2.7-17.1-1.5 2-1.8 4.4-2.4 6.8-1 4.5-2.7 9-4.1 13.4l-1.3.5c1-6 2.7-12 2.6-18.2.2-1.4-.7-2.7-1.4-3.8-4 6.7-1.5 15-3.7 22.3-1.5-4.6-.6-9.4-1.4-14-.3-2-.6-4.3.5-6.2 3-6.6 7.5-13.8 5.2-21.4-1.4 2.6-.8 5.6-1.4 8.4-1.3-2.5-1.5-5.4-1.9-8.1-.3-1.8-.4-3.8-2-4.9-.2 4.4 0 8.8-.1 13.3-.1 2.4 0 5-1.4 7.2-.8-4.6-.7-9.4-1-14 0-3.1-1.2-6-1.2-9.1 0-6.2 0-12.5-2-18.5-.4-1.7-1.5-3.2-2.6-4.6-.6 2.4.7 4.6 1.2 6.8 1 2.8 1.3 5.8 1.3 8.8-1.3-4-2.4-8.2-4-12-.5-1.4-1.7-2.3-2.7-3.2 1.3 7.2 4.2 14 5 21.3-2.6-2.6-3.7-6.3-5.7-9.4-1.6-3-3.9-5.6-4.7-9-1.2-4.7-2.3-9.4-4.1-14-1-2.5-2.8-5-5.7-5.6 1.5 3 4.1 5.6 4.7 9-3.4-3.5-5.4-8.5-10-10.8 2.3 6.2 7.6 10.7 9.9 16.9-4.6-3.5-7.3-8.8-11.5-12.7-2-1.7-2.7-4.3-3.7-6.6-2.4-5.4-4.7-11.8-10.4-14.3m-3.3 58.1a10.9 10.9 0 00-5.8 6.3c-1.7 5.2-4.3 10-6 15.3-2.5 5.8-3.4 12-5.1 18.1-.4 2-2.7 2.5-4.4 2.9-6-.7-12-1.6-18-1-6.7.1-13.1 2.4-19.7 3.6-4.1 1-8-1.2-11.6-3-4.2-2.4-9-3.2-13.3-5.5-3.5-5.9-6.6-12-10.8-17.3.3-1.5 1.2-2.9 1-4.4-1.3-2-3.9-1.5-6-1.8-.7-1.8-2.3-4.3-4.5-3.3-4.4 2.8-10 1-14.7 3.2-2 .7-3.4 2.3-5 3.5-2.3 1-4.8 1.3-7.2 1.9l.3 5.1h-4c-.6 1-1.6 2-2.7 2.8l2.6-.8-.1 2c1.8.8 3.7.7 5.3-.4l1.6 2.7c-2.8.8-5.5 2.5-7 5-4 6.7-3.7 15-7.4 22 1.6 2.3 4.4 4.2 4.8 7-2.8.8-6.7 1.3-7.8 4.6-.6 2.8-.8 5.7-1.7 8.5l2.4-.4.1 2.1c4-2.5 9-2.7 13.2-4.6l2 .3-.1-.6 1-1.3 1.5 1c2-.4 4-.5 6-1h4c0 1.8.1 3.5.3 5.2l-2 1.1-5 .6c-5.7 1-11.5.1-17.3.5-3 .6-4.6 3.4-5.3 6.2l4.2-.8c-.7 2.7-1.9 5.3-1.9 8.1 1.7-1.3 3.3-2.7 5.3-3.6v5.4c1.4-1 2.4-2.9 4.3-3 4-.2 7-2.8 10.3-4.4 3.7-.1 7.4-.1 11 .1.2 2.5.5 5 1.7 7 1 3 2.3 6.5 5.4 7.8 4.3-6 2.2-14 2.8-21 .5 1.6 0 3.6 1 5l12.6-.7c1.7.1 2.7-1.3 3.9-2.2 3 1 6 1.1 9 1.2 9-.2 17.9-1.7 26.2-5-.6 2.4-2.2 4.6-1.6 7.1 1.1 3.6 5.7 6 4.3 10.2-3.6 1.4-7-1-10.6-.7-3 1.4-7.2 1.8-8 5.6 1.5-.2 3.5-2.1 4.7-.5-.4 3-2.1 5.8-3 8.8 3.3-1.6 7-4.6 10.7-2l-1 4.3c3.1-1.7 6.6-2.2 10.1-2.4a20 20 0 018.6-6c2.7-1 5.8-.6 8.3-2-.9-4-4.5-6.3-5.7-10 3.4-.4 7.2.6 10.2-1.5 1.6-.8 1.8-2.8 2.4-4.2a44 44 0 0016 5.1c-1.7 3-5.3 3.3-7.7 5.3-2.4 2.3-6.9 2.2-7.8 6 2.5-.4 5-1.3 7.6-.9.2 3-.5 5.9-.6 8.8 2.8-2.7 6.3-4.2 9.8-5.4 2.2 2.6 4.5 5 7.3 6.8a35 35 0 015.8-15.6c.2-2.3.1-4.6-.2-6.9-1.7-2.2-4.7-2.7-6.6-4.7-1.8-1.8-3.9-3.5-4.6-6-2.7-7.2-.8-15.2-3.4-22.4-.5-1.7-2.3-3.3-1.6-5.2 2-1.7 4.5-2.7 6.3-4.7 3-2.9 5-6.7 6.9-10.4 3-6.5 1.3-13.8 2.4-20.6.7-6.2 2.4-12.2 4.6-18-4.4-.5-9 .4-13 2.1z"/><path fill="#359435" d="M227.2 98c4-6.6 5.3-16 13-19.6-1 3-3.6 5-4.9 8 3-2 5-5.3 8.5-6.1-3.5 5.1-8.6 9.1-11.2 15 5.2-3 8.4-8.4 13.7-11.1l2-.4c-3.6 6-10.4 8.8-14.5 14.3 7.3-2 13-8.3 20.6-9.8-3.3 4.2-8.8 5.5-12.8 8.7 3.3.4 6.4-1.3 9.7-1.5l1.6 1c-3.7 1.8-7.8 2-11.7 3 2.7 1.7 6.4.9 8.6 3.4-4.7 1-9.3-.8-14-1.4 2 1.7 4.6 1.4 7 2 2.3.4 4.5 1.4 6.4 2.8-4.9.3-9.3-2.3-14.2-2.5 3 1.9 6.3 2.9 9.3 4.4 1 .3 1.4 1.3 2 2-5.3-1.2-9.8-4.3-14.7-6.3 1 2.6 3.4 3.8 5.5 5.2l-3 1.1c-3.5 1.4-6.9 3.5-10.7 3.6 2.2-2.5 5.2-3.9 8.1-5.4.3-1.3-1-1.5-2-1.8-2.8 1.5-4.9 4.1-7.3 6.2l2.4 2.3c3.6.3 7.2-.6 10.7.3-.9.6-1.7 1.5-2.9 1.5-4.5.8-9 .4-13.6.6 5 1.6 10.5-.1 15.5 2-5.6.9-11.1-.6-16.7-.2l.6.4c4.1 3 9.8 2.2 14 5-5.8.7-11.1-2.4-16.8-3 .5.9 1 1.9 1.9 2.4 3.6 2.2 7.8 2.8 11.7 4.1-3.6 2.2-7.9-2.1-11 .8-2.7 2.3-5.9 3.6-8.3 6.1 3.8-.1 7.3-2.2 11-1.4l-1.4 1.5c-4.8 1.8-10.2 1.3-14.7 4 1.7 1.2 3.4 2.6 5.4 3 2.6.3 5.1.2 7.7.2.8 0 1.6.5 2.4.8-5.7.5-11.5-.3-17.2.3l1.3 1.8c3.7.8 7.5.6 11.3.6l1.2 1.3c-3.2.8-6.5.4-9.7-.2-1.7 2.6-3.4 5.3-4.4 8.3 3.5-2 5.6-6.2 9.8-6.7-2.4 5.5-8.6 7.6-11.7 12.5 4.4-3 8-7.6 13.2-9-1.7 3-5.5 4.2-7 7.5 2.8-.5 5.3-1.8 7.9-2.6-.5 1-1.2 1.8-2.1 2.4-3.8 2.3-7.8 4-11.8 5.9 1.2.9 2.7 1.2 4.2.8 3.3-.9 6.2-3 9.5-4-2.8 4.3-8.3 5.1-12.7 6.8-1.8 3.4-3 7-4 10.7 2.3-2 4-4.5 6.3-6.5h2c-1.5 4.3-5.1 7.2-8.5 10a7.4 7.4 0 00-2.7 4.1c5.1-3.1 7.3-10 13.5-11.5-1.8 4-5.8 6.2-8.6 9.4-1 1.3-1.6 2.8-2.2 4.2l-1.1 2.3c5.2 0 9.1-3.8 13.7-5.8-3.4 4.8-9.2 7-14.4 8.8.2 4.5-.1 9 .2 13.5 3.2-3.6 1.6-9.8 6-12.5.1 6.5-3.7 12-5.5 18.1l1.6-.5c1.7-5.5 3.5-11.1 7.2-15.6.5 5.2-4.2 9-4.1 14.2 2.9-3 4.5-7.3 8.1-9.7-1.9 6.5-8.4 10.4-10 17 5.7-1.8 8-7.7 12.1-11.7-1.3 5-4.8 8.8-8 12.5-1.3 1.1-.5 2.9-.7 4.3.3 5-1.4 10.1.3 15 1.1-5.2.5-10.6 1.6-15.7.3-.7.7-1.3 1.3-1.8l.2 2.6c0 2.7-.6 5.5-1 8.2-.2 2-.8 4.2.2 6 .8 1.3 2 2.3 3 3.3l.4 2.2c.5 3 1.8 5.9 3 8.7.5-4-.4-8.1 1.1-12 1 1 1.4 2.1 1.3 3.4 0 4.5-.4 9 0 13.4.4-.9.8-1.8.8-2.7 0-3.6.3-7.2.9-10.7 0-1 .7-1.8 1.4-2.5l.1 1.7c.2 4.5-.8 9-.4 13.5 1-2.3 1.7-4.6 2.2-7a17 17 0 012.2-5c1 5-2.9 9.6-2.6 14.6l.7.3c1.7-1.7 3.2-3.7 3.8-6 .6-1.9.8-3.9 2.2-5.3-.3 4.6-2.3 8.8-4 13 2.2 2.9 3.8 6.2 6.2 8.9-.6-3.9-1.9-7.6-2.6-11.4h2l.8 3c1 4.6 1.5 9.4 2.7 14 1.4-6-1.4-11.7-1.3-17.7a3 3 0 011.8 2.5c1 4.1 1 8.4 2 12.5.7-4.2.5-8.5.6-12.8l1.7-.1c0 5.3-1 10.6-.2 16l1 .2c2.8-4.2 2-9.6 2.7-14.4 1.7 3.6.1 7.7.4 11.5 3 4 5.7 8.4 8.7 12.5-.1-4-1.9-7.8-1.5-11.8 1 1 2.2 1.9 2.4 3.3.9 4.6 1.2 9.4 3 13.7.8-5.4-1.8-10.6-1.4-16.1v-.9c.7 1 1.7 2 1.8 3.4.7 4 1 8.1 2 12.2.6-4.2-.3-8.6 1.1-12.6l1.2-.9c.4 4.8-.9 9.7.4 14.5 3.6-2.7 2.8-7.7 2.7-11.6h1c.2 2.3.3 4.7 0 7l-.7 4.9c2.5 1.9 5 3.8 7.8 5.4-2-3.4-4.4-6.5-6.6-9.7 1.1.1 2.5-.3 3.3.9 3.4 3.5 4.8 8.5 8.6 11.7-1.6-5.6-7.2-9.3-7.9-15.2 3.9 3 5 8.2 8.5 11.6-.3-4.3-3.6-8-3-12.4 2.3 3.5 3.3 7.6 5.4 11.2l2.2.2c-.7-3-1.7-6-2.8-9l1-.6c1 2.1 1.7 4.3 2.8 6.3 1 1.1 2.2 2 3.3 2.9 2.8 2.3 5 5.4 8.3 7-2.2-4-5.6-7-7.3-11.1 5 3 7 9.2 11.9 12.5-.4-5.3-4.6-8.8-7-13.2 5.6 3.8 8.4 10.3 10.1 16.6 2.4 0 5.9-.8 7 2 .1 1.4-.4 2.7-.7 4-2.4.3-4.7-.5-6.6-2-3 3.8-6.8 8.5-12 8l-.4-1.7c-2.6.5-5.3 1.3-7.9.7 3.7-3.1 9.3-2.6 12.2-6.9-4.8 1.1-9.6 2.4-14.4 3.4-2.2.5-4.4 1-6.6.5.3-1.8 2.6-1.8 3.9-2.3 4.9-1.6 10-1.8 15-3-4-1.1-8.2-.8-12.3-.5-8 1.4-16.9 5-24.8 1 5.1-1 10.3 1.3 15.5-.1-5-1.2-10-1.7-15-2.6-1 0-1.6-.9-2.2-1.5 7.1-.7 14.2 1.6 21.3.5-3.1-2-6.9-1.7-10.3-2.7-3.8-1.1-8.3-1.1-10.9-4.6-5.6 0-11.5-.3-16.6-2.9-1.3-.4-2-1.6-2.8-2.6 2.3.2 4.5.8 6.8 1.1-2.5-2.4-5.7-3.8-8.4-6l1-.4c6.5 1.3 11.2 7.1 17.8 8a8.2 8.2 0 00-2.1-2c-5.3-3-9.6-7.4-15-10.1-7.1-.6-14.7.5-21.6-2.3-1.3-.4-2.1-1.5-2.8-2.6 4.3.4 8.3 3 12.8 2.3-4.4-2-9.8-2.4-13.1-6.4 6.8 1 13 4.4 19.9 5-1-1-1.9-1.8-3.1-2.2a70.5 70.5 0 01-12.6-6.2c-1-.5-1.3-1.7-1.5-2.7 7.3 1.6 13.1 6.9 20.2 9.2-1.8-2.7-4.5-4.4-7-6.4-1.8-1.5-3.6-3.4-5.8-4.5-7-1.5-14.3-2.7-20.9-5.7-2.3-1.3-5.4-2.6-5.7-5.7l1.3.7c3.7 2.2 7.3 4.7 11.6 5.7-3.6-2.7-7.6-4.8-10.9-8l-1.4-2c6.5 2.3 11.5 7.7 18.3 9.1-4-4.2-9.1-7-13.2-11-1-.7-1-2-1.4-3 7 2.4 11.3 9.3 17.6 13.2-1.3-3.9-4.4-6.7-6.8-10-1.3-1.4-2.3-3.5-4.4-3.9-6.2-1.5-12.7-2.6-18.3-5.8-1.9-1-3.3-2.7-4.4-4.6 4.8 1.4 8.5 5.1 13.3 6.4-3.8-3.7-9.7-5.2-12-10.4 3.5 1.1 6.3 3.6 9.5 5.3 3 1.7 5.8 3.4 8.8 4.8-3.8-5-9.8-7.8-13.8-12.7-.6-.8-.8-1.8-.8-2.8 7 3.4 11.6 10.3 18.1 14.4-2.2-4.7-6-8.3-8.8-12.5-2-3-4.7-5.3-6-8.7 1.1.4 2.3.8 3.2 1.5 3.4 4 6.2 8.5 9.6 12.5-.8-3.2-1.7-6.3-3-9.3-1-2-3.4-2.7-5.3-3.7a67.3 67.3 0 01-15.7-12.2 9.3 9.3 0 01-2.3-5.5c3.5 2.8 5.3 7.2 9.4 9.1-2-4.6-7-7.7-7.4-13 6 5.2 9.9 12.7 16.4 17.2-1.7-4.4-5.2-7.9-7.3-12.1-1.5-3.1-4.5-6-3.8-9.8.8.6 1.8 1 2.4 2 3.1 4 5.4 8.7 8 13.1 1 2.1 2.1 4.3 4 6-2.2-9.1-6.6-17.5-8.6-26.7-.5-2.3-2-4.2-3.1-6.3-2.5-4.5-5.2-9.4-4.4-14.7 3 3.3 2.1 8.9 5.6 12.1.1-5-3.5-9.5-2.3-14.6 2.4 2.7 2.5 6.7 3.8 10 1.4 3.5 1.7 7.6 4.2 10.5-.4-6.4-2.6-12.7-2.8-19.2-.3-1.4 1-2.3 1.7-3.2 2.9 7 3 14.6 3.3 22h.8c.6-6 .9-12 1.4-18-3.4-7.3-8.4-14.7-6.5-23.2 2.4 3.4.2 8.3 3.3 11.5-.3-5.6-.7-11.4 1.5-16.6.4 1.5.5 3.1.5 4.7 0 3.8.4 7.6.5 11.4 0 1.8.6 3.5 1.4 5 .7-5.6.4-11.4.9-17.2 1.1-7.1 0-14.5 2-21.6.2 2.8.5 5.5.9 8.2l1.1-3.6c1-4.1 2.3-8.2 4.6-11.7l1.2.6a96.1 96.1 0 00-5.4 20.7c3-2.6 3.8-6.6 5.9-9.9 1.4-2.8 3.8-5.2 4.4-8.4 1-5.3 2.8-10.6 4.8-15.6a8.7 8.7 0 015-4.6c-1.2 3.2-3.7 5.6-4.6 9 3.6-3.2 5.4-8.2 9.9-10.3-2.4 6.2-8 10.6-10 17 4.9-4.3 8.2-10 12.8-14.6m-.5 4.8c-2.7 1.8-4.4 4.6-6.8 6.8a20.6 20.6 0 00-4.3 5c4.5-2.5 8.1-6.4 12.3-9.4-.3-.8-.2-2.1-1.2-2.4m-16.4 19c-1.7 2.3-2.8 4.8-4.4 7.1-1.3 2-2.9 4.1-3.5 6.6 2.3-1.3 3.6-3.7 5-5.8 1.5-2.4 3.4-4.6 5-6.9-.7-.3-1.3-.8-2-1m3 3.2c-1.8 1.7-3 4-3.7 6.3 3-1 5.4-3.2 7.3-5.8-1.2-.2-2.4-.9-3.6-.5m-16.2 18.6c.1 5.2-1.5 10.4-1 15.7 2-3.7 1.8-8.2 2.9-12.2.8-1.7-.8-2.6-2-3.5m4.5 2.1l-.4 2.5c-1.2 2-1.6 4.2-1.7 6.4.7-.7 2.3-1 1.9-2.4 1-1.4 2.2-3 2.5-4.8-.3-1-1.6-1-2.3-1.7m-6.8 22.7c0 4.2-.2 8.4-.4 12.6 1.7-3.8 2.7-7.8 4-11.7-.8-1.2-2.3-.9-3.6-1m-6.5 25c1.2 4 2.7 7.9 3.7 11.9.2 1.2.8 2.3 1.7 3.2.3-4.5.1-9-.3-13.4-1.7-.5-3.4-1-5-1.7m8.8 29.8c.6 2.6 1.5 5.1 2.5 7.6l-.2 1.6 1.4.2a74.1 74.1 0 000-9.7l-3.7.3m7 23.8c1.6 2.3 3.3 4.7 5.1 6.9 0-3-1.5-5.6-2.6-8.3l-2.5 1.4m14.5 18.8c1.9 2.5 4.3 4.4 7 6-1.5-2.7-3.3-5.3-4.9-8-.8.5-3.1.6-2.1 2m19.9 10.8l-1.4 3.3c2.8 3.1 6.2 5.7 9.4 8.5a48 48 0 00-8-11.8m-6 6.8a63.4 63.4 0 0016.7 10.5c-3-3.6-7-6-10.4-9-1.1-1-2.2-2-3.5-2.7-1 .3-2 .7-2.8 1.2m26.2 10.3l-1 2.8a94 94 0 0010 2.9 38.4 38.4 0 00-9-5.7m21 1.3a8 8 0 002.4 3.7c2.6 2.2 5 5 8.2 6.3-1.1-2.6-3.5-4.2-5.5-6-1.7-1.5-3.3-3-5.2-4m-27.3 3.4c2.2 1.5 4.8 1.8 7.3 2.5 3.7 1 7.4 2 11.2 2.2-4-2.5-8.7-3.5-13.2-4.6-1.7-.5-3.5-.3-5.3 0m24.7-.2c-.8.9.6 2.6 1.6 1.7.9-.9-.6-2.6-1.6-1.7m3.5 4.8h3.8c-1-1.3-2.1-2.4-3.3-3.4l-.5 3.4m0 1.2l-.9 1.9h5.5l-4.6-2z"/><path fill="#359336" d="M371.8 78.3c5.7 2.5 8 8.9 10.4 14.3 1 2.3 1.8 4.9 3.7 6.6 4.2 4 7 9.2 11.5 12.7-2.3-6.3-7.6-10.7-10-16.9 4.7 2.3 6.7 7.3 10.1 10.8-.6-3.4-3.2-6-4.7-9 2.9.5 4.6 3.1 5.7 5.6 1.8 4.6 3 9.3 4.1 14 .8 3.4 3.1 6 4.7 9 2 3.1 3.1 6.8 5.8 9.4-.9-7.3-3.8-14-5.1-21.3 1 1 2.2 1.8 2.7 3.1 1.6 4 2.7 8 4 12 0-2.9-.4-5.9-1.3-8.7-.5-2.2-1.8-4.4-1.2-6.8 1.1 1.4 2.2 2.9 2.7 4.6 2 6 1.9 12.3 2 18.5 0 3 1.1 6 1.2 9 .2 4.7.1 9.5.9 14.1 1.3-2.1 1.3-4.8 1.4-7.2.2-4.4-.1-8.9.1-13.3 1.6 1.1 1.7 3.1 2 4.9.4 4.1 0 8.3.3 12.4.6-1.4 1.2-2.8 1.6-4.3.6-2.8 0-5.8 1.4-8.4 2.3 7.6-2.2 14.8-5.2 21.4-1.1 2-.8 4.1-.5 6.1.8 4.7-.1 9.5 1.4 14 2.2-7.2-.3-15.5 3.7-22.2.7 1.1 1.6 2.4 1.4 3.8 0 6.2-1.6 12.2-2.6 18.2l1.3-.5c1.4-4.5 3-8.9 4.1-13.4.6-2.4 1-4.9 2.4-6.8 1.4 5.9-2 11.4-2.7 17.1 2.6-3.2 3.7-7.4 4.7-11.3.2-1.1 1-2 1.6-2.8 1.2 7.4-4 13.4-7 19.6-1 7-4 13.5-6.4 20.2-1 2.5-1.8 5.2-2.2 7.9 2.2-2.2 3.6-5 4.8-7.8 2.3-5 5.5-9.4 9-13.6.2 1.5.7 3.2-.1 4.6-2 4-4.4 7.8-7.1 11.3-1.5 2-2.6 4-3.4 6.3 4.4-3 7.8-7.3 10.9-11.5 1.6-2.1 3.3-4.3 5.6-5.7-.9 4-3.6 7-5.8 10.3-1.8-2-2.6 2.4-.2 1.3 3.7-1 4.3-6.1 8.1-7-2.4 7.3-9.6 11.1-15.5 15.3-2.4 1.7-5.3 2.7-7.5 4.8a31 31 0 00-3.1 9.3c3.8-4.1 6.6-9 10.5-13.1l1.5 1.3c-4.7 6.5-10.1 12.3-14.1 19.2 3.2-1.3 5.1-4.5 7.8-6.6 3.3-2.5 6.1-5.7 10-7.3-.3 1-.3 2-1 3-4 4.5-9.5 7.5-13.4 12.2 6.6-2.1 11.7-7.5 18.3-9.9-2.5 5.2-8.4 6.8-12.2 10.7 4.7-1.7 8.6-4.7 13-6.7-.4.8-.5 2-1.2 2.6a36 36 0 01-15.8 6.7c-2.7.8-6 1-8 3.3a74.1 74.1 0 00-8.5 11.8c6.4-3.8 10.7-10.4 17.6-13.4-.3 1-.3 2.2-1.2 3-3.6 4.3-9 6.6-12.5 11 6.5-1.6 11.4-6.8 17.6-9-.8 1.6-2 3-3.5 4-3.1 1.7-6.5 3.2-8.5 6.2-1.3 2-3.5 2.6-5.6 3.3-3.5 1.4-7.8.5-10.7 3.4-3.5 3.2-7.7 5.6-10.4 9.6 7-2.8 13-8.1 20.4-9.6-.4 2.9-3.3 3.9-5.5 5-4 2-8.1 3.5-11.8 6 7 0 13-4.3 20-4.6-3.9 3.9-9.5 4-14 6.7 4.8.1 9.1-2.6 13.9-2.7-2.8 3.3-7.4 3.7-11.4 4.3-4.5.7-9 .1-13.4.6-3.8 1.5-6.7 4.6-10 7-.6.6-1.6.6-2.4.6 3-2.6 6.4-4.6 9.3-7.2l-.8-1.8c-.2-1.3-1.7-.9-2 0l-1.8 1.7-3.8 3c-2.8 2.3-5.5 4.6-7.8 7.3l1.9-.2h.5c1 .5 1.8 1.6 3 1 5.5-2.3 10-7 16.1-8-2 3.4-6.5 4-8.6 7.4 2.4-.5 4.8-1.4 7.2-1.9-1.3 2.6-4.2 3.5-6.7 4.5-3.9 1.4-8.1 1-12.2 1.6-2 .3-3 2.4-5 2.9a137 137 0 01-14.4 3.2c-1 .1-2 .8-2.8 1.4 3.6.6 7.3-.3 11-.5 3.5-.2 7-.3 10.6-.3-.7.7-1.4 1.6-2.4 1.6-4.9 1-9.8 1.2-14.5 2.5l-3.1.3a58.8 58.8 0 00-18.7-.9c3.7 1.7 8 1.6 11.9 2.6 2.4.7 5.4.8 6.8 3.2-6.9 0-13.4-2.4-20-3.8l.8 2c3.1 2 7 2.1 9.8 4.4-3.5 0-7-.7-10.5-1.6l1.1 3-1.3-.4c-4-1-6.4-4.5-8.7-7.5-2 1.2-4.3 2.2-6.8 2-.4-1.9-.6-3.7-.6-5.6 2.2-.7 4.5-.7 6.7-.6 1-5 3.5-9.6 6.4-13.7.8-1.2 2-2 3.2-2.9-1.9 4.7-6.3 8.2-6.6 13.5 4.8-3.6 7-9.7 11.8-13.4-1 4.3-4.9 7.1-6.1 11.4 3-2.5 5.5-5.7 8.6-8 3-1.9 2.8-6.2 5.7-8.2-.7 3.4-2.2 6.5-3 9.9h2.2c2.2-3.4 3.4-7.3 5-11l1 1c-1.2 3.7-2.7 7.4-3.6 11.3 3.5-3.5 4.5-8.8 8.5-12 .2 2-.7 3.6-1.5 5.1 1.6-1.1 3.2-2.3 5-3.3-.2 4-4 6.5-5.3 10.2 2.3-1.5 4.4-3.3 6.6-5 .3-4.3-1.4-9 .5-13 .6 4.2-1 10 3.5 12.7.7-4.5-.6-8.9-.3-13.3l.9-1.7c.4 1.4.8 2.7 1 4.1.2 2.7.3 5.5 1.1 8 1-3.8 1-7.9 1.6-11.8l1.5-1.7c1.3 4.2-1 8.3-.1 12.5 1.1-3.4 1.2-7.1 2-10.6.1-1.2 1.4-1.4 2.2-2-.2 3.8-.9 7.4-1.1 11.2 2.1-2.6 3.5-5.8 5.5-8.6.9-1.3 2-2.4 2.6-3.9.2-3.9-1.1-7.9.5-11.6 1 5-.4 11.2 3.7 15 .9-5.8-.5-11.6.2-17.4.6.8 1.3 1.7 1.3 2.7.2 3.9.3 7.7 1 11.4.8-4.4.5-9 1.7-13.3.4-.8 1-1.6 1.6-2.3 1.2 5.8-2 11.4-1 17.2 1.4-4.5 1-9.4 2.6-14 .3-1.2 1.3-2.2 2.3-3.1.3 4-1.6 7.7-1.5 11.7 2-2.7 3.7-5.6 5.4-8.4-1.9-4.2-4-8.6-4-13.3 2.4 3.7 2.2 9.5 7 11.3-.6-5-2.8-9.5-3.7-14.5 1.2 1 2.3 2 2.5 3.7l3 9.7.8-4 2.2 3.4c0-4.8-.7-9.7-.5-14.5l.7-2.3c2.2 3.3 1.3 7.7 2 11.5 1-2.9 2.6-5.8 2.1-9-2-5-5-10-4.7-15.7 2.3 4.6 2.3 10.7 7.1 13.6 0-5.8-3.2-11-3.7-16.6 3.6 3.2 3.1 8.5 5.2 12.6.2-5.1-1.2-10.2-.9-15.4l1.4.3c1.3 5.2 1 10.7 1.7 16h.7c.2-5.7-1.4-11.5 0-17.2-4-4-8.2-8.2-9.4-14 3.7 4.4 6.7 10.3 12.5 12-2.7-6.2-8.2-10.8-10.5-17 4.7 3.2 6.7 8.9 10.6 13-1.4-4.4-3.6-8.3-5.6-12.5a11 11 0 01-.9-5.1c3 3.9 5.2 8.4 6.5 13.3a8.5 8.5 0 002.1 3.8c-.7-6.7-5.5-12.3-5.1-19 4.3 2.7 2.7 9.4 6.3 12.8v-12.4c.1-1.4-1.5-1.7-2.4-2.1a26.2 26.2 0 01-12.2-7.7c4.7 1.7 8.7 5.5 14 5.6-2.4-3-6-4.6-9-6.7-1.8-1.3-4.2-2-5-4.2 3.9 1.3 7 4.1 10.8 5.5-2.5-3.8-6.6-6.2-9-10.1l1.2-.5.7.7c3.9 3.6 7 8 11.6 10.5-2.5-5-8.1-7.4-10.7-12.3l-.4-.7 1-1.5c2.6 2.5 4.7 5.5 7.6 7.8-1.3-3.7-2.8-7.3-4.4-11-4.4-2-10-2.5-13-6.8 3.2.8 5.9 2.7 9 3.5 1.5.3 3.2 1.1 4.3-.3-4.5-3.2-10.2-4.3-14-8.4 4.2.3 7.6 3.3 11.6 4.5-3-3.9-8-5.7-10.7-9.8 5.7 1.3 9 6.8 14.1 9.2-2.6-2.7-5.5-5-8.3-7.4-1.8-1.6-3.4-3.5-3.5-6-1.7 0-3.4-.2-5-.4 2.2-.1 4.5-.3 6.7-.8 2.6-.5 5.2-1.2 7.5-2.3-5.5-2.2-11.4.2-17-.6l1.2-1.9c3.8-.1 7.6.5 11.3-.4-4.6-1.5-9.7-.9-14-3.5 4.3-2 8.5 1.9 12.7.4-4.1-1.5-10.2 0-12.6-4.7 3.6-.4 7 1.2 10.6 2.1l-.3-1.5c-3.5-1.6-6.2-4.4-9.4-6.4-3 .6-6.1 1.5-9.3 1 4.2-2.4 9.5-2.3 13.2-5.5l.4-1.7c-5.7 1.5-11.3 3.7-17.2 3.4 4.2-3.4 10.5-1.8 14.8-5-2.3-.3-4.5-.2-6.7-.2l-8.7-.5c4.6-1 9.4.1 14-1-3.6-.5-7.3-.8-10.9-.8-1.8-.2-4.3 0-4.9-2.2 3.5-.4 7 0 10.6-.2-2.7-2.1-6-3-9.1-4.2-3-1.4-5.8 1.7-8.9 1.4 3.4-2 6.7-4 10-6.2l-1.5-.7c-4.2 1.3-7.9 4-12 5.2l.3-1.6c3.5-1.8 7.2-2.8 10.6-4.8-5 0-9.3 2.6-14.2 2.6l1.6-1.2c4.4-1.5 9-1.8 13.3-3.6a7.9 7.9 0 00-4-.3l-10.5 2 .6-2.2a56 56 0 008.4-1.3c-4-1-8.2-1.4-12.1-2.8l-1-1.6c4.3-.1 8.2 2 12.4 2-3.8-2.6-8.2-4.3-12-7-.9-.5-1.4-1.5-2-2.4C365 90 371 95.4 378.3 98c-1.8-3.3-5.2-5-8-7.4-2.4-2.1-5-4.3-6.8-7.1 3.1 0 5.3 2.4 7.5 4.2 2.8 2.3 5.2 5 8 7.3-2-6.1-7.7-9.9-10.8-15.3 4.8 1.4 6.8 6.5 10.7 9.4-1.3-4.3-5.6-6.7-7-11m12.5 24.8c0 1-.1 1.9.7 2.4 3.5 3.2 6.9 6.6 11.1 8.7-2.3-3.7-5.8-6.3-8.7-9.6-.9-.7-1.8-2.3-3-1.5m-4.3 4.5a30 30 0 009.9 5.2c-2.3-2.4-5-4.6-7.4-6.8l-2.5 1.6m19.7 15.1c3.6 4.1 6 9.2 9.9 13-.4-1.7-.9-3.3-1.9-4.6-2.4-3.1-4.3-6.6-6.4-10l-1.6 1.6m-4.1 4c3 2.3 6 4.5 9.3 6.5-2.2-3.2-4.6-6.2-6.8-9.2-.8.8-3 1.2-2.5 2.7m17.6 17.3c-.6 2.2.6 4.4.9 6.5.8 3 .3 6.5 2.5 8.9 0-5-.8-10.1-1.7-15-.4-.2-1.3-.3-1.7-.4m-5.2 2.9c1.6 2.6 3.2 5.2 5 7.6-.6-3.1-1.5-6.1-2.6-9-.9.4-1.7 1-2.4 1.4m-7 .5c3.2 2.7 6.3 5.4 9.2 8.4-1.1-3-2.3-6.4-4.8-8.8-1.5 0-3 .2-4.4.4m12.9 21c1.1 3.8 2.8 7.4 3.7 11.3l1.2.5c-1-4-1-8.3-1.1-12.5l-3.8.6m5.7 26.2c-.6 4.5-.8 9-.5 13.6 1.8-2 2.2-4.9 2.9-7.4.7-2.5 1.7-5 2.5-7.4-1.7.3-3.3.5-4.9 1.2m-7.3 27.4c-.5 3.7.2 7.3.5 11 .9-3.3 2-6.5 3.2-9.5l-3.8-1.5m-5.6 23c-1.2 2.5-2.1 5-2.5 7.8 1.6-1.7 3.3-3.4 4.3-5.5 0-1.2-1.2-1.6-1.8-2.3m-18.8 26.6c2.7-1.9 5.4-3.8 7.5-6.4l-1.8-1.7c-2.5 2.2-4.1 5.2-5.7 8.1m-13.5 5.6c-2 1.9-3.2 4.4-5 6.5-.8 1.3-1.6 2.7-2.2 4.1 1.3-.5 2.5-1.2 3.5-2.1l2.5-3.1c1 1 3.3-.7 2.4-2l.7-.2c-.5-1.1 0-3.8-2-3.2m-33.8 22c3.6-1.8 5.4-5.9 6.8-9.5-3.4 2.1-5.2 6-6.8 9.5m12.2-4.3c-.8-1.1-2.9.1-2.2 1.3-1 .4-1.9 1.3-2.8 2 3 0 6-.7 8.6-2.1l-2.3-2.5-1.3 1.3m-26.8 6.9c-1 .8-1.7 2-2.2 3.3 2.4-1.4 4.4-3.3 6.5-5 1.5-1.4 3.8-2.7 3.2-5l-7.5 6.7m9-3.4c-.9.8.5 2.6 1.5 1.6 1-.9-.4-2.7-1.4-1.6m8.1 4.8c6-1.2 12-2.3 17.6-4.4-1-.8-2.3-1-3.6-.6-4.8 1.2-9.7 2.4-14 5m-11.3-2.4c-1.3.3-1.2 2.9.4 2.2 1.4-.3 1.2-2.9-.4-2.2m-4.2 5.7l6-.1-.1-2-5.9 2z"/><path fill="#9fd692" d="M373.6 101c1.4-.2 2.7 0 4 .4-4.3 1.8-9 2-13.3 3.6l-2.4-3.2 1.8-.9-.6 2.1c3.5-.5 7-1.2 10.5-2z"/><path fill="#dbfeea" d="M226.7 103c1 .2.9 1.5 1.2 2.3-4.2 3-7.8 6.9-12.3 9.5 1.1-2 2.7-3.6 4.3-5.1 2.4-2.2 4-5 6.8-6.8z"/><path fill="#defee3" d="M384.3 103c1.3-.8 2.2.8 3.1 1.5 2.9 3.3 6.4 6 8.7 9.6-4.2-2-7.6-5.5-11-8.7-1-.5-.9-1.5-.8-2.4z"/><path fill="#e6fff8" d="M380 107.5l2.6-1.6c2.5 2.2 5 4.4 7.4 6.8a30 30 0 01-10-5.2z"/><path fill="#86b0a8" d="M234.1 110.2l3-1.1c2.1.6 4.5 1.3 5.6 3.4-3-.4-5.7-1.5-8.6-2.3z"/><g fill="#4e8151"><path d="M196.6 121.3c0-2.8 1.2-5.5 3.1-7.5.9 3.6-1.4 6.8-2.1 10.2l1 1.9a126 126 0 01-1.1 3.6l-1-8.2zM377 119.8c.5-.5 1.1-.9 1.7-1.1 3 0 5.8.4 8.7.5a24 24 0 01-10.4.6zM208.7 226.9c0-1.1 1.1-1.6 2-2-.7 5-3 9.6-3.5 14.7l1-.1c1 0 1.8-.9 2-1.9 1.4-3.2 2.2-6.6 3.6-9.7.4 5.7-2.5 11.2-5 16.1l-.4-2.2c-1-1-2.2-2-3-3.2-1-1.9-.4-4.1-.2-6.1 0 1.3.2 2.6.3 3.8 1.5-3 2.2-6.2 3.2-9.4zM395.5 245.4c-.4-1.7.3-3.3 1.3-4.6l.6 3.3c.6 3.1 1 6.5-.2 9.5-.9-2.7-1.4-5.5-1.7-8.2zM344.7 309.4l3-.3c2.8.4 5.5.2 8.3.2l6 .6a33 33 0 01-18-.4z"/></g><path fill="#789d9b" d="M217.6 119.3c5.6-.4 11.1 1 16.7.1l-.3 1c-5.2.4-10.5-.3-15.8-.7z"/><g fill="#d1ffc3"><path d="M210.3 122c.8.1 1.4.6 2 1-1.5 2.2-3.4 4.4-4.8 6.8-1.5 2.1-2.8 4.5-5 5.8.5-2.5 2-4.5 3.4-6.6 1.6-2.3 2.7-4.8 4.4-7zM202.8 224.2l1.9-.7c-1.1 5.1-.5 10.5-1.6 15.7-1.7-4.9 0-10-.3-15zM279.7 295c2 1 3.5 2.5 5.2 4 2 1.8 4.4 3.4 5.5 6-3.3-1.3-5.6-4.1-8.2-6.3a8 8 0 01-2.5-3.7zM325.9 301.6l7.5-6.8c.6 2.4-1.7 3.7-3.2 5-2 1.8-4.1 3.7-6.5 5.1a7.8 7.8 0 012.2-3.3zM280.6 303l.5-3.3c1.2 1 2.3 2.1 3.3 3.3h-3.8zM280.6 304.3l4.6 1.9h-5.5l1-2zM327.6 306.3c2-.8 3.9-1.4 5.9-2l.2 1.9h-6z"/></g><g fill="#d3fdd5"><path d="M399.8 122.6l1.6-1.6c2 3.4 4 6.9 6.4 10 1 1.3 1.5 3 1.9 4.5-4-3.7-6.3-8.8-10-12.9zM422.5 143.7c.4 2.7.6 5.6 2 8-.5 1.6-1.1 3-1.7 4.4-.2-4.1 0-8.3-.3-12.4zM252.4 298.4c1.8-.2 3.6-.4 5.3 0 4.5 1.2 9.2 2.2 13.2 4.7-3.8-.3-7.5-1.3-11.2-2.2-2.5-.7-5-1-7.3-2.5z"/></g><path fill="#f6fef2" d="M395.7 126.6c-.5-1.5 1.7-1.9 2.5-2.7 2.2 3 4.6 6 6.8 9.2-3.3-2-6.3-4.2-9.3-6.5z"/><path fill="#eefef7" d="M213.4 125.1c1.2-.4 2.4.3 3.6.5a14.1 14.1 0 01-7.3 5.8c.7-2.4 2-4.6 3.7-6.3z"/><g fill="#110a0b"><path d="M368.5 136.4c4-1.7 8.6-2.6 13-2.1-2.2 5.8-4 11.8-4.6 18-1.1 6.8.6 14.1-2.4 20.6a36 36 0 01-7 10.4c-1.7 2-4.2 3-6.2 4.7-.7 2 1 3.5 1.6 5.2 2.6 7.2.7 15.2 3.4 22.4.7 2.5 2.8 4.2 4.6 6 2 2 5 2.5 6.6 4.7.3 2.3.4 4.6.2 7a35 35 0 00-5.8 15.5 31.9 31.9 0 01-7.3-6.8c-3.5 1.2-7 2.7-9.8 5.4 0-3 .8-5.8.6-8.8-2.6-.4-5 .5-7.6 1 1-4 5.4-3.8 7.8-6 2.4-2.1 6-2.4 7.7-5.4a44 44 0 01-16-5.1c-.6 1.4-.8 3.4-2.4 4.2-3 2.1-6.8 1-10.2 1.5 1.2 3.7 4.8 6 5.7 10-2.5 1.4-5.6 1-8.3 2a20 20 0 00-8.6 6c-3.5.2-7 .7-10 2.4.2-1.4.6-2.8 1-4.2-3.7-2.7-7.5.3-10.8 2 .9-3 2.6-5.8 3-9-1.2-1.5-3.2.4-4.7.6.8-3.8 5-4.2 8-5.6 3.5-.4 7 2 10.6.7 1.4-4.2-3.2-6.6-4.3-10.2-.6-2.5 1-4.7 1.6-7a77.2 77.2 0 01-26.1 5c-3.1-.2-6.2-.4-9.1-1.3-1.2.9-2.2 2.3-3.9 2.2l-12.6.7c-1-1.4-.5-3.4-1-5 0-1.7 0-3.3.2-5 2.5-2 1.1-5.4.4-8-1.1-3.6-1-7.4-2-11-1.3-2.9-3.7-5.3-4.2-8.6-.8-4.1-2.2-8-4.5-11.5-1.6-2.5-4.4-4.7-4.1-8l4-.7-4-1.8 3-1.3-5.2-.2 2.4-2.3c-2.2.3-4.4.8-6.6 1.4.2 1.5.6 3.1 1.7 4.3l-5.9 1c-.5-1-1-2-1.6-2.8a5.4 5.4 0 01-5.3.4l.1-2-2.6.8c1-.8 2-1.7 2.8-2.9l3.9.1-.3-5.1c2.4-.6 4.9-.8 7.2-1.9 1.6-1.2 3-2.8 5-3.5 4.7-2.1 10.3-.4 14.7-3.2 2.2-1 3.8 1.5 4.6 3.3 2 .3 4.6-.2 5.9 1.8.2 1.5-.7 3-1 4.4 4.2 5.4 7.3 11.4 10.8 17.3 4.2 2.3 9.1 3 13.3 5.5 3.6 1.8 7.5 4 11.6 3 6.6-1.2 13-3.5 19.7-3.5 6-.7 12 .2 18 .9 1.7-.4 4-.9 4.4-2.9 1.7-6 2.6-12.3 5.1-18.1 1.7-5.2 4.3-10.1 6-15.3 1-2.8 3.1-5.1 5.8-6.3m-.7 3c-1 1.7-3.3 2.5-3.7 4.7-1 3.6-2.3 7.3-4.6 10.3l3.3.5-.2-2c.5.6 1.1 1.2 1.6 2l-1.8 1.7 2.4 1.8 1.6-2.7-.7-.6a55 55 0 013.6-5.3l-1.8-1.9c.9-.2 1.8 0 2.8-.2l-.9-.7c1-1.2 2-2.4 2.7-3.7l-.8.2-.8-1.2.7-3.2-2.4 1-1-.8m-117.7 14l-.2 2.6 1.7-.3.1-2.5-1.6.2m107.3 7l2 1.8c-1 .8-2 1.7-2.8 2.8l4.4-1.6c-.4 2-2.7 2.2-4.2 3.1l-.4 1.6c2-1 4-2 6-2.8.6-1.7 1.4-3.3 2.4-4.9-1-1.6-1.9-3.6-3.8-4.2a75 75 0 01-3.6 4.3m-81.3 25.2v2c1.9-.6 3.7-1.2 5.5-1.6l.2-1.7c-2 .4-3.9.7-5.7 1.3M274 191c2.6-1 5.3-1.7 7.6-3.2-2.7.4-5.8 1-7.6 3.2m0 2.3c2-.3 4-1.2 5.4-2.7-2.2 0-4 1.4-5.5 2.7m1.5 1.4l-.7.8c.7 2.4 3.2-1.4.7-.8m63.4.4c1 2 2.4 3.7 4.2 5-.8-2-2-4.2-4.2-5m-.9 2.2c.4 2 3.1 3 2.7 5.1-2 0-2.7-2.7-4.5-3.5 1.3 1.9 3 3.4 4.3 5-2.4 1.7-3.2-2.3-5.2-2.9l5.2 7c.2 0 .5-.4.7-.6l-.8-1.5c.9-1.3 1-2.9 1.9-4.1-1.4-1.5-2.7-3.2-4.3-4.5z"/><path d="M366.3 143.2c2.4-.6-.4 2.8-1.5 1.7-.7-1 .8-1.6 1.5-1.7zM359.2 160.4l3-1.9 1 2.3-1.8-.5-.5 2a4.8 4.8 0 01-1.7-2zM255 214l.6-.2c-.4 3.2-.3 6.5 0 9.7-3.7.4-7.5.3-11.3.7-3.3 1.6-6.4 4.2-10.3 4.5-1.9 0-2.9 2-4.4 2.9v-5.4c-2 .9-3.5 2.3-5.2 3.6 0-2.8 1.2-5.4 1.9-8-1.5.1-2.9.4-4.2.7.7-2.8 2.3-5.6 5.3-6.2 5.8-.4 11.6.6 17.3-.5l5-.6c1.8-.2 3.6-.6 5.3-1.1z"/></g><path fill="#9cd490" d="M204.6 139.3c4.5-2.8 10-2.3 14.7-4.1l-.7 1.4 1.2 1.1c-4 0-8 .7-11.7 2.2l4.9.2c-1 .6-2 .9-3 1.2 2.6 0 5.2 0 7.7 1-2.6 0-5.1.2-7.7-.2-2-.3-3.7-1.7-5.4-2.8z"/><path fill="#4c8b51" d="M208.1 139.9a29 29 0 0111.7-2.2h1a6.2 6.2 0 01-4.3 1.5c-1-.1-2 .2-3 .8l-.5.1-4.9-.2z"/><path fill="#72aebd" d="M213.6 140c.9-.6 1.9-1 3-.8-.1 1.2-2.2 1.6-3 .8z"/><g fill="#fbf9fa"><path d="M367.8 139.3l1 .8.6.6-1.5 2.6 2.6-1 .8 1.2c-2 .7-4 1.7-5.8 2.8l4 .7.8.7c-1 .1-2 0-2.8.2l-1.8.6 1.4 2.4c-1 1-2 1.8-3 2.6l1.6 1.6.7.6-1.6 2.7-2.4-1.8 1.8-1.8-1.6-2 .2 2.1-3.3-.5c2.3-3 3.6-6.7 4.6-10.3.4-2.2 2.7-3 3.7-4.8m-1.5 3.9c-.7 0-2.2.7-1.5 1.7 1 1 3.9-2.3 1.5-1.7m-1.7 3.7c.5.5.5.5 0 0m0 2.5c-1.2 2.2 2.6 0 0 0m-2.1 1.4c.1 2.5 2.2-1.3 0 0zM250.1 153.3l1.6-.2v2.6l-1.8.2.2-2.6zM274 193.3c1.5-1.3 3.2-2.8 5.4-2.7a9.7 9.7 0 01-5.5 2.7zM338.8 195.1c2.1.8 3.4 3 4.2 5-1.8-1.3-3.3-3-4.2-5zM337.9 197.3c1.6 1.3 2.9 3 4.3 4.5-.9 1.2-1 2.8-2 4l.9 1.6-.7.7-5.2-7c2 .5 2.8 4.5 5.2 2.9-1.4-1.7-3-3.2-4.3-5 1.8.7 2.5 3.4 4.5 3.4.4-2-2.3-3-2.7-5z"/></g><path fill="#868188" d="M368.8 140.1l2.4-1-.7 3.2-2.6 1 1.5-2.6-.6-.6z"/><path fill="#f7fff1" d="M191.8 143.7l2.8-.8c-.5 5.8-.2 11.6-.9 17.3-.8-1.6-1.4-3.3-1.4-5.1 0-3.8-.4-7.6-.5-11.4z"/><path fill="#ebfdee" d="M197.2 143.7c1 .9 2.7 1.8 1.9 3.5-1 4-.8 8.5-3 12.2-.4-5.3 1.2-10.5 1-15.8z"/><path fill="#827e7f" d="M365.5 146.3c1.8-1.1 3.8-2 5.8-2.8l.8-.2c-.8 1.3-1.7 2.5-2.7 3.7l-4-.7z"/><path fill="#d6ffe4" d="M413.3 144l1.7.2c1 5 1.7 10 1.7 15-2.2-2.3-1.7-5.8-2.5-8.8-.3-2.1-1.5-4.3-.9-6.5z"/><g fill="#fbfcf4"><path d="M201.6 145.8c.7.6 2 .8 2.3 1.7-.3 1.9-1.5 3.4-2.5 4.8l-.3-4 .5-2.5zM253.5 210a81 81 0 011.8-2.1l-.3 6.2-1.8-.7-.4-1 .7-2.3z"/></g><path fill="#8fbd38" d="M395.4 146.8c1.9-1.8 4.6-1.1 6.8-.8-2.2.5-4.5.7-6.8.8z"/><path fill="#eefff7" d="M408 146.8l2.5-1.4c1.1 2.9 2 5.9 2.6 9-1.8-2.4-3.4-5-5-7.6z"/><path fill="#292627" d="M364.6 146.9c.5.5.5.5 0 0z"/><path fill="#ecfdf9" d="M401.1 147.3c1.5-.2 3-.5 4.4-.4 2.5 2.4 3.7 5.7 4.8 8.8-2.9-3-6-5.7-9.2-8.4z"/><path fill="#95c977" d="M199.5 154.7c0-2.2.5-4.5 1.7-6.4l.2 4c.4 1.3-1.2 1.7-1.9 2.4z"/><path fill="#797675" d="M365.7 148.5l1.8-.6 1.8 2a55.4 55.4 0 00-3.6 5.2l-1.5-1.6 2.9-2.6-1.4-2.4z"/><path fill="#444041" d="M364.6 149.4c2.6 0-1.2 2.2 0 0z"/><path fill="#312b2d" d="M362.5 150.8c2.2-1.3.1 2.5 0 0z"/><g fill="#c9c4c2"><path d="M357.4 160.4l3.6-4.3c2 .6 2.8 2.6 3.8 4.2-1 1.6-1.8 3.2-2.3 5-2.1.8-4 1.8-6 2.7l.3-1.6c1.5-.9 3.8-1.1 4.2-3.1l-4.4 1.6c.8-1 1.8-2 2.8-2.8l-2-1.7m1.8 0c.4.7 1 1.4 1.7 1.9l.5-2c.5 0 1.4.4 1.9.5l-1.2-2.3-3 1.9zM244.3 224.2c3.8-.4 7.6-.3 11.4-.7l1.3 7.9a15.6 15.6 0 01-1.6-7c-3.7-.3-7.4-.3-11-.2z"/></g><g fill="#fcfcfd"><path d="M244.6 161.1c2.2-.6 4.4-1.1 6.6-1.4l-2.4 2.3c1.7 0 3.5 0 5.2.2l-3 1.3 4 1.8-4 .7-3 .7-1.7-1.3a7.5 7.5 0 01-1.7-4.3zM276 185.6c2-.6 3.9-1 5.8-1.3l-.2 1.7c-1.8.4-3.6 1-5.4 1.6l-.1-2z"/></g><path fill="#fc0812" d="M246.3 165.4l1.7 1.3c2.6 3.6 5.2 7 7.4 11s2 8.9 4.5 12.8a19 19 0 013 7.6c.7 5 2.5 10 2.5 15a26 26 0 00-.2 5c-.6 7 1.5 15-2.8 21-3.1-1.3-4.4-4.7-5.4-7.7-.5-2.6-1-5.3-1.3-8-.4-3.1-.5-6.4 0-9.6l.9-4.6c.5-5.4.4-10.9.2-16.4h-2.6c-1.3 5.8.5 11.6-.7 17.3l-.7 2.3a57.4 57.4 0 01-3.4-13.8c0-2.6.4-5.1.5-7.7-1-3.3-4-5.8-4.2-9.3-.1-2.9.3-5.7.2-8.5-1.4.5-3.2.7-4 2.1-.7 4.2.3 8.3 1.6 12.3 1.2 3-.2 5.9-1.4 8.6-2.1 3.9-2 8.4-2.2 12.8l-1 1.3c-.8-3.6-.8-7.3-.5-11 .3-2.5.4-5.1-.6-7.6-1.3.4-1.3 1.8-1.7 2.8-.4 1.4-.8 2.8-1.5 4a10.6 10.6 0 00-2 8.4c-.5.2-1.6.6-2 .9l.2-7.3c-.4-3-3.2-4.8-4.8-7.2 3.7-6.8 3.3-15.2 7.4-21.8 1.5-2.6 4.2-4.3 7-5l5.9-1z"/><path fill="#d6685f" d="M248 166.7l3-.7c-.3 3.3 2.5 5.5 4.1 8 2.3 3.4 3.7 7.4 4.5 11.5.5 3.3 2.9 5.7 4.1 8.7 1.1 3.5 1 7.3 2.1 10.8.7 2.7 2.1 6-.4 8.1 0-5-1.8-10-2.5-15a19 19 0 00-3-7.6c-2.4-4-2.3-8.8-4.5-12.9-2.2-3.8-4.8-7.3-7.4-10.9z"/><path fill="#edfdee" d="M414 168.2l3.8-.6c0 4.2.1 8.4 1 12.5l-1-.5c-1-3.9-2.7-7.5-3.8-11.4z"/><path fill="#f9fef3" d="M194.8 168.5c1.3 0 2.8-.3 3.6 1-1.3 3.8-2.3 7.8-4 11.6.2-4.2.5-8.4.4-12.6z"/><path fill="#fcfdfb" d="M242 175.2c.7-1.4 2.5-1.6 3.9-2 0 2.7-.3 5.5-.2 8.4.3 3.5 3.2 6 4.2 9.3-.1 2.6-.6 5.1-.5 7.7l-7.3.8v-3.3c1.2-2.7 2.6-5.7 1.4-8.6-1.3-4-2.3-8.1-1.6-12.3z"/><g fill="#e3ffd8"><path d="M407.2 174c2.6 5 8.2 7.4 10.7 12.4-4.6-2.5-7.7-7-11.6-10.5l.9-1.8zM206.2 224.3l1.1 2.5 1.4.1c-1 3.2-1.7 6.4-3.2 9.4l-.3-3.8c.4-2.7 1-5.5 1-8.2zM190.9 253.8c3.3 3.2 7.3 5.3 10.9 8-4.3-1-8-3.5-11.6-5.7l.7-2.3zM343.1 303c4.3-2.6 9.2-3.8 14-5 1.3-.5 2.6-.2 3.6.6-5.7 2.1-11.6 3.2-17.6 4.3z"/></g><g fill="#76ab7c"><path d="M200 185.1c3.8 0 6.3-4 10.3-4.2a7.6 7.6 0 01-2.8 2.9c-3.2 2-6.2 4.4-9.8 5.5.6-1.4 1.2-2.9 2.2-4.2zM411.9 261.3c2-3 5.4-4.5 8.5-6.2l4.8.2a13 13 0 01-4.7 4.6 45.4 45.4 0 01-14.2 4.7c2-.7 4.3-1.4 5.6-3.3z"/></g><g fill="#f8fdf4"><path d="M274 191c1.8-2.3 4.9-2.8 7.6-3.2-2.3 1.5-5 2.2-7.6 3.2zM410.9 247.7c2-2.4 5.3-2.5 8-3.3l1.1 1.7c-6.9 3-11.2 9.6-17.6 13.4 2.4-4.2 5.3-8.1 8.5-11.8z"/></g><path fill="#ea816c" d="M236 194.4c.5-1 .5-2.4 1.8-2.8 1 2.5.9 5.1.6 7.7l-.7.2-.1-6.2-1.5 1.1z"/><path fill="#e67466" d="M254.2 192.9h1c-.7 5 .3 10 0 15a81 81 0 00-1.7 2.2c1.2-5.7-.6-11.5.7-17.2z"/><path fill="#3e0200" d="M255.3 192.8h1.5c.2 5.5.3 11-.2 16.4l-1.3-1.3c.2-5-.8-10 0-15z"/><path fill="#f9fdf8" d="M188.3 193.4l5 1.7c.5 4.4.7 8.9.4 13.4-.9-.9-1.5-2-1.7-3.2-1-4-2.5-7.9-3.7-11.9z"/><path fill="#ffe6f8" d="M236 194.4l1.6-1 .1 6-2.3.5-.8-1.5c.7-1.2 1.1-2.6 1.5-4z"/><path fill="#fcfef6" d="M419.7 194.4c1.6-.7 3.2-1 4.9-1.2-.8 2.5-1.8 4.9-2.5 7.4-.8 2.5-1 5.3-2.9 7.4-.3-4.5-.1-9.1.5-13.6z"/><path fill="#868083" d="M275.4 194.7c2.5-.6 0 3.2-.7.8l.7-.8z"/><path fill="#df7167" d="M239.9 208.9c.3-4.4 0-9 2.2-12.8v3.3c0 3.5-.2 7-.7 10.4l-1.5-1z"/><path fill="#d76e63" d="M232.6 206.8c-.6-3 .3-6 2-8.4l.8 1.5.2.3c-1.1 2.1-1.9 4.4-3 6.6z"/><g fill="#120a0b"><path d="M242 199.4l7.4-.8 2 9.6-4 .8c-2 .4-4 .5-6 .8.5-3.4.7-6.9.7-10.4zM223 204.9c1.1-3.3 5-3.8 7.8-4.5l-.3 7.3 2.1-1c1.1-2 1.9-4.4 3-6.5l1.6 1.5c0 3 0 5.9-.2 8.8-4.3 1.9-9.1 2.1-13.2 4.6v-2c-.9 0-1.7.2-2.5.3.8-2.8 1.1-5.7 1.7-8.5z"/></g><path fill="#871419" d="M235.3 199.9l2.4-.4.7-.2c-.3 3.6-.3 7.3.5 10.9v.6l-1.9-.3c.2-3 .3-5.9.2-8.8l-1.6-1.5z"/><g fill="#f0ffd1"><path d="M427.5 210.4c2-2.3 3.7-5 6.4-6.4a47.2 47.2 0 01-11 11.5c.9-2.3 2-4.4 3.5-6.3l1.1 1.2zM208.2 239.5c-.7-1.2 1-2.7 2-1.9-.2 1-1 2-2 1.9zM217.4 243.3c.7 2.1 1.4 4.3 1.8 6.6-.5 2.3-1.2 4.6-2.2 6.9-.4-4.5.6-9 .4-13.5zM352.7 294.7l1.3-1.3 2.3 2.5a17.8 17.8 0 01-8.6 2.1c1-.7 1.7-1.6 2.8-2 .8-.2 1.6-.6 2.2-1.3z"/></g><g fill="#defec7"><path d="M419.8 214.7c.4-2.7 1.1-5.4 2.2-7.9l.4 2 2.3-1.9a25.5 25.5 0 01-4.9 7.8zM359.9 281a74 74 0 011.5-5c-.5 4-.6 8-1.6 12-.8-2.6-.9-5.4-1.2-8l1.3 1z"/></g><path fill="#7ba6c7" d="M433.5 209.9c-2.4 1.1-1.6-3.4.2-1.3l-.2 1.3z"/><path fill="#ad7e7a" d="M247.3 209l4.1-.8 1.4 4.2.4 1 1.8.7c-1.7.5-3.5.9-5.3 1.1l2-1-.4-5.2h-4z"/><path fill="#fb818b" d="M255.3 207.9l1.3 1.3-1 4.6-.6.3.3-6.2z"/><path fill="#effeef" d="M418.6 223c2.2-2 5.1-3 7.5-4.8l2 2.9-.6-.6-1.5-1.3c-3.9 4-6.7 9-10.5 13.1a31 31 0 013.1-9.3z"/><path fill="#f2fef1" d="M188 220.5l1.7.1c1.9 1 4.3 1.6 5.2 3.7 1.4 3 2.3 6.1 3.1 9.3-3.4-4-6.2-8.5-9.6-12.5z"/><path fill="#e1ffee" d="M412.4 221.8l3.7 1.5c-1.3 3-2.3 6.2-3.2 9.4-.3-3.6-1-7.2-.5-10.9z"/><path fill="#f4fdf8" d="M197.2 223.2l3.7-.3-.1 1.2-1 6.7c-1-2.5-2-5-2.6-7.6z"/><path fill="#bfd59a" d="M199.7 230.8c.4-2.2.8-4.5 1-6.7.3 2.8.4 5.7.2 8.5l-1.4-.2.2-1.6z"/><g fill="#c2fec8"><path d="M397.4 244.1l1.7-1.4c-.2 4.8.4 9.7.5 14.5l-2.2-3.4-.9 4-2.9-9.7c.6-1 1.3-1.8 2-2.7.2 2.7.7 5.5 1.6 8.2 1.2-3 .8-6.4.2-9.5zM228 261.9c.3-1.3.8-2.5 1.3-3.7-.1 6 2.7 11.8 1.3 17.7-1.2-4.6-1.8-9.4-2.7-14zM248.9 277.6l1.6-2.4c-.4 5.5 2.2 10.7 1.5 16.1-1.9-4.3-2.2-9-3.1-13.7zM340.5 299c1.6-3.6 3.4-7.4 6.8-9.5-1.4 3.6-3.2 7.7-6.8 9.5z"/></g><g fill="#edfee4"><path d="M406.7 244.8c.6.7 1.9 1.1 1.8 2.3-1 2.1-2.7 3.8-4.3 5.5.4-2.8 1.3-5.3 2.5-7.8zM387.9 271.4c1.6-2.9 3.2-5.9 5.7-8.1l1.8 1.7c-2 2.6-4.8 4.5-7.5 6.4z"/></g><g fill="#e2fedf"><path d="M204.2 247l2.5-1.4c1.1 2.7 2.7 5.3 2.6 8.3-1.8-2.2-3.5-4.6-5.1-7zM218.7 265.8c-1-1.4 1.3-1.5 2.1-2 1.6 2.7 3.4 5.3 4.8 8-2.6-1.6-5-3.5-7-6z"/></g><path fill="#f7fdf5" d="M238.6 276.6a48 48 0 018 11.8c-3.2-2.8-6.6-5.4-9.4-8.5l1.4-3.3z"/><path fill="#f5fdfa" d="M374.4 277c1.9-.6 1.4 2 2 3.2l-.8.2c-1.1.1-1.8 1-2.4 2l-2.5 3-1.2-1.9c1.7-2 2.9-4.6 4.9-6.5z"/><path fill="#95bb37" d="M373.2 282.4c.6-1 1.3-1.9 2.4-2 .9 1.3-1.4 3-2.4 2z"/><path fill="#64aca7" d="M377.5 282c.3-1 1.8-1.4 2-.1h-2z"/><path fill="#f3fef1" d="M232.6 283.4c.9-.5 1.8-1 2.8-1.2 1.3.7 2.4 1.7 3.5 2.6 3.5 3 7.4 5.5 10.4 9.1a63.4 63.4 0 01-16.7-10.5z"/><path fill="#ccedcd" d="M377.5 282l2-.1.8 1.8c-3 2.6-6.3 4.6-9.3 7.2-1.5 1.2-3 2.6-5 2.8l-2 .2c2.4-2.7 5.1-5 8-7.2l3.7-3.1 1.8-1.7z"/><path fill="#9bdc89" d="M367.2 287.6c.6-1.4 1.4-2.8 2.3-4l1.2 1.9c-1 1-2.2 1.6-3.5 2.1z"/><path fill="#6fa1a4" d="M372 286.7l3.7-3.1-3.8 3z"/><path fill="#d3da78" d="M228.4 288.2c-1.9-.8 1.4-2.5 1-.5l-1 .5z"/><path fill="#e9feed" d="M260.7 286.3l.5.6c2.2 3.2 4.7 6.3 6.6 9.7-2.8-1.6-5.3-3.5-7.8-5.4l.7-4.9z"/><path fill="#e5ffed" d="M258.8 293.7c3.2 1.5 6.4 3.3 9 5.7a94 94 0 01-10-2.9l1-2.8z"/><path fill="#5fb5a4" d="M350.5 296c-.7-1.2 1.4-2.4 2.2-1.3-.6.7-1.4 1-2.2 1.3z"/><path fill="#7cdd73" d="M277.1 298.3c1-.9 2.5.8 1.6 1.7-1 .9-2.4-.8-1.6-1.7z"/><path fill="#76d66f" d="M335 298.2c1-1 2.4.7 1.4 1.6-1 1-2.4-.8-1.4-1.6z"/><path fill="#bcf2a5" d="M331.8 300.6c1.6-.7 1.8 1.9.4 2.2-1.6.7-1.7-1.9-.4-2.2z"/><path fill="#b1c95a" d="M356 309.3c2.2-1 5-1 6.8.7l-.8-.1-6-.6z"/><path fill="#92c8ac" d="M324.8 315.3c3.5.9 7 1.7 10.5 1.6h.9c-2.1 1.5-4.8.7-7.1.4l-.8 1.9-3.7-1.3 1.3.4-1-3z"/></svg>