<svg xmlns="http://www.w3.org/2000/svg" xmlns:xlink="http://www.w3.org/1999/xlink" height="400" width="600"><defs><path d="M0-23c2-14 3-21 0-21s-2 7 0 21z" fill="#ffb000" id="c"/><path d="M0-23c1-10 1.5-14 0-14s-1 4 0 14z" fill="#ffb000" id="b"/></defs><clipPath id="a"><circle r="49" cy="150" cx="300"/></clipPath><path fill="#e02010" d="M0 0h600v400H0z"/><path fill="#007030" d="M0 0h600v266.7H0z"/><path fill="#0090d0" d="M0 0h600v133.3H0z"/><circle cy="200" cx="300" fill="#ffb000" r="26.7"/><path transform="matrix(1.33333 0 0 1.33333 -100 0)" d="M300 145c-15-15-78 40-78 40l169 4s-68-62-90-44z" clip-path="url(#a)" fill="#fff"/><path transform="matrix(1.33333 0 0 1.33333 -100 0)" d="M301 162c-20-18-38 16-60 4 11 50 125 55 115-2-18 2-35-25-55-2z" clip-path="url(#a)" fill="#007030"/><circle fill="none" stroke-width="5.3" stroke="#ffb000" cy="200" cx="300" r="64"/><g transform="matrix(1.33333 0 0 1.33333 -60.8 0)" id="d"><use height="100%" width="100%" xlink:href="#b" transform="rotate(-75 247.7 -120.5)"/><use height="100%" width="100%" xlink:href="#c" transform="rotate(-64 270 -165)"/><use height="100%" width="100%" xlink:href="#c" transform="rotate(-56 291 -207.1)"/></g><use height="100%" width="100%" xlink:href="#d" transform="rotate(30 331.7 172.2)"/><use height="100%" width="100%" xlink:href="#d" transform="rotate(60 321.4 169.2)"/><use height="100%" width="100%" xlink:href="#d" transform="rotate(90 309.2 170)"/><use height="100%" width="100%" xlink:href="#d" transform="rotate(120 301 178)"/><use height="100%" width="100%" xlink:href="#b" transform="matrix(.3451 1.2879 -1.2879 .3451 261.3 200)"/></svg>