<svg xmlns="http://www.w3.org/2000/svg" id="svg30" version="1.1" height="400" width="600"><defs id="defs4"><style type="text/css" id="style2">.str1{stroke:#fff;stroke-width:5}.fil0{fill:#0051ba}.fil3{fill:#d81e05}.fil2{fill:#fff}</style></defs><path class="fil0" id="rect6" stroke-width=".3" d="M0 0h600v400H0z"/><path id="rect8" stroke-width=".3" fill="#fff" d="M0 0h600v266.7H0z"/><path class="fil2" d="M127.7 157.7c-13 0-22.3-10-35-10-11.3 0-20 9.6-35.7 9.5.3-10.2.1-20.5-.6-30.7-2.9-40 32.4-72.5 72.5-72.5 40 0 73.8 32.5 72.5 72.5-.7 7-1.6 12.5-1 30.4-15.6 0-23.9-9.6-35.6-9.4-12 .1-24.1 10.1-37 10.2z" id="path10" stroke="#ccc" stroke-width="1"/><path class="fil0" d="M128.9 126.5l-69 18.6-.7-18.6C58 88 90.4 56.8 129 56.8c38.4 0 72.2 31.3 69.6 69.7l-1.1 17.4-68.5-17.4z" id="path12" stroke-width=".3"/><path class="fil3" id="polygon14" stroke="#fff" stroke-width="8" stroke-linejoin="bevel" d="M171.7 83.4l15 .7-3.8 14.6 14 5.3-8 12.8 11.3 9.3-13.5 14.5 10.8 5-69-13-68.6 14 10.7-8-13.4-11.8 11.6-9.6-8.2-12.5 14-5.6-3.9-14.4 15-1 .8-15 14.6 3.7 5.3-14 12.8 8 9.3-11.6 9.7 11.6 12.5-8.2 5.6 14 14.4-3.9z"/><path class="fil2" d="M128.9 126.5l-56.1 21.3a60.1 60.1 0 11112.7-1.4l-56.6-20z" id="path16" stroke-width=".3"/><path class="fil3" d="M128.9 126.5l-53 20.1a56.8 56.8 0 11106.1-.5L129 126.5z" id="path18" stroke-width=".3"/><path class="fil2" d="M59.9 145.1c14.7-10.8 32.4-23.6 43.7-38.2h5.7l11.1 17L131 114h6l12.6 13.6 7.7-7.8 6.1.2c8.7 11.5 22 18.2 34.1 24l.6 9.8-30.3-15.9-85.5 2-22.4 13.2v-8z" id="path20" stroke-width=".3"/><path d="M59.8 154.9l.1-8.3c12-7.6 22.7-15.8 33-25.6l-3 8 6.6-7.8-2.7 10.1 7.8-8.2 1 12 5.2-12 6.2 8.2-.1-7.4 19 14.5-9-11.6 8.4 5.6 2.2-7.3 10.9 10-1.4-7 19.5 10.7-11-9 7.4 2.5 1-3.7 7.9 4.9-2.5-6.7c9.1 7.5 19.7 14 31.2 19.2l.6 9c-12-1.6-22-10.2-34.6-9.9-11.5.4-23.4 9.9-35.6 10.2-12 0-23.2-10.2-35.3-10.2-10.6 0-22.2 9.9-32.8 9.8z" id="path22" stroke-width=".3" fill="#000"/><path class="fil3 str1" d="M104.2 106.9h4.2c2-5 4-10 3.8-15a6.6 6.6 0 00-3 2.7c-.3-2.3-1-4.3-2.5-6.2a10.8 10.8 0 00-3 5.8c-.6-1-1.3-1.5-2.5-2-.2 4.9 1 9.8 3 14.7z" id="path24"/><path class="fil3 str1" d="M131.8 114.1h4.2c2-4.9 4-10 3.8-15a6.6 6.6 0 00-3 2.7c-.3-2.3-1-4.3-2.5-6.2a10.8 10.8 0 00-3 5.8c-.6-1-1.3-1.5-2.5-2-.2 5 1 9.8 3 14.7z" id="path26"/><path class="fil3 str1" d="M158.1 120h4.2c2-5 4-10 3.8-15a6.6 6.6 0 00-3 2.7c-.3-2.3-1-4.4-2.5-6.3a10.8 10.8 0 00-3 5.9c-.6-1-1.3-1.5-2.5-2-.2 4.9 1 9.8 3 14.7z" id="path28"/></svg>