<svg xmlns="http://www.w3.org/2000/svg" fill-rule="evenodd" height="400" width="600"><g fill-rule="nonzero" color="#000"><path overflow="visible" fill="#e51919" style="marker:none" d="M0 0v400h600V0z"/><path d="M0 114.3h600V200H0z" overflow="visible" fill="#fff" style="marker:none"/><path d="M0 200h600v85.7H0z" overflow="visible" style="marker:none"/><path d="M0 171.5h600v57.1H0z" overflow="visible" fill="#f5c501" style="marker:none"/></g><path fill="#2c2c2b" d="M239 200.7l-.5.3-.4-.5-.2-.2-.2-.1.6-.1.5-.1.1.4zm-2.6-.8h-.1l-.7.1-.6.3-.5.5-.3.6v.7l.1 1 .3.1-.1.1-.3.3-.1.3-.1.4v1.1l.5.6.2.1v.1l-.2.4v.5l-.4-.1-.5-.1h-1.4l-.5.3-.5.3-.3.8-.5.2-.4.2-.4.3-.4.3-.2.4-.2.3-.1.5v.8l.1.4.3.4.3.3.4.3.4.2h.5l-.1.4v.8l.4.6.4.6.7.3.7.2.8-.2.4-.2.2.5.3.4.4.3.5.1h2l.6-.2.6-.2.3.2.9.4.5.1h1.4l.9-.4-.2.4v1.5l.3.3-.2.1-.3-.3-.3-.2-.4-.2-.4-.1h-.4l-.5.1-.4.2-.3.3-.4.4-.2.4-.1.4v.8l.2.4-.2.2-.4.5-.3.5v.3l-.5-.1h-.6l-.5.3-1 .7h-1.1l-.5.1-.4.2-.5.3-.3.5-.1.4-.1.4v.8l.2.3.2.3.8.6.2.4v1.2l.2.3.3.3.3.3.4.1h.2c.3.2.6.2.8.2v.5l.1.4.2.4.2.4.3.3.4.2.8.2h-.1l-.3.3-.2.3-.2.4v1.3l.2.2h-.2l-.4.4-.4.5-.2.5-.1.5v.5l.1.5.3.6.5.4-.3.7v.4l.2.6.3.6.5.5.6.3h.1l-.5.2-.4.4-.4.6v.7l-.3-.1-.3-.1H235l-.5.4-.3.4-.1.2-.4-.2a4.3 4.3 0 00-.8-.3h-.3l-.3-.1h-.3l-.8.3-.3.1-.3.3-.3.3-.1.3-.2.5-.7-.1h-.6l-.7.1-.6.6-.4 1-.1.1-.7.3-.4.3-.3.3-.3.5-.2.5v1.4l.4.6.4.3.5.2.6.1v.2l.1.4.2.3.3.3.3.2.4.2h1.3-.2l-.4.5-.3.5v.6l.1.4a3 3 0 00-.6.9v.4l-.1.4v.8l.3.4.2.4.3.3.4.2.5.2h1.6l.3-.2.5.3.4.1h1.6l.4-.2.5-.2.4-.3.3-.3.5.1h.3l.7-.1.3-.2.4-.2.3-.2.2-.3.2-.3.2-.3.2-.6.2-.2.9-.2.5-.3.4-.3.3-.3.2-.4.5.3.4.1h1.3l.3.4c.5.9 1 1.6 2 2.2v.4l-.5.6a4.7 4.7 0 00-.4.7l-.2.5v1.5l.2.3.2.3.2.3.5.4.5.2.4.1h.9l.8-.2.4.2.3.1.4.1h.8c.4 0 .8 0 1.2-.2v.9l.2.4.2.4c.3.2.5.4.6.7l.3.9.2.4.4.4.4.3.5.1h.4l.5.1h.4l.5-.2.8-.8h.1l.3.1.5.2h1.1l.5-.1.5-.3.5-.4.4-.5.3-.6.1-.5c0-.2 0-.3.3-.3l1.3.1h1.5l1-.3 1.7-.5v.2l.2.7-.3.3-.2.3-.2.4V267l.2.5.3.4.4.4.4.2.4.2h1.9l.5-.4.7.5h1.2l.4-.1.4-.2.2.2-.3.3-.1.7v1l.3.4.4.3.5.2h.3c0 .3 0 .6.2.9l.2.4.6.4.6.3H277.7l.6-.2.5-.4.4-.4.1-.2H280.5l.5-.4-.1 1 .1.5.2.3.5.4 2.1 1.2 1.6.8.5.4.7.4.6.1h.5l.3-.1.3-.2.3-.2.2-.3.1-.3v-.3l.6-.4.4-.3c.5-.5 1-1 1.7-1.4h.5l.6-.3.5-.3.5-.3.3-.4.3-.4.5-1 .1-.2 1.1-1.2 2.6-2.5h.5c0 .3.2.4.4.6l.2.2.2.2.4.1h.7l1.5 1.5 1.7 1.6.5.7.2.8.3.4 1 .8.6.2a8.7 8.7 0 012 1.3l.7.8v.7l.2.4.3.4.5.2h.7l.8-.2a8 8 0 011.3-.3h.8l1.5-.5.3-.1 1.2-.1.5-.1.5-.2.5-.4.4-.6.1-.4v-.9l-.2-.3-.3-.3-.3-.3-.4-.2-.5-.2-.5-.1-.8-.5-3.2-1.7c-1.3-1-2.6-2-4-2.8l-3.4-2.3.2-.2.3-.2.3-.3.2-.4.1-.4v-.5a15.1 15.1 0 003.5 1.6l1 .2h1.8l.4-.1 1-.4.5-.2v.1l.2.5.4.4.5.4.7.1v.4l-.2.4v1.4l.2.3.3.3.3.3.8.4.1.8v.4l.2.5.4.6.6.4.9.2h.5l.3.5.6.4.6.3h.7l.7-.1.6-.3.5-.5.3-.6v-.4l.7-.2.4-.2.5-.7.2-.7-.2-.6-.3-.5.3-.3h.2l.4.2h.9l.7-.2.2-.2.3.2.6.2h.9l.7-.1.6-.2.4-.3.2-.3.3-.4.1-.3.1-.4v-.8l-.2-.4a9.2 9.2 0 01-.4-.5l.2-.7v-.4l1 .3 1.2.4 1.2.2h1l.7-.2.5.1.2.6v.4l.2.3.2.3.2.2.3.2.2.2.3.1.3.2h.3l.3.1h.7c.4 0 .7 0 1-.3l.4.4.3.3.4.2.4.1h1l1-.2.5-.5.3-.6.3-.8.4-.3.4-.4.3-.5.1-.4v-.7l.6.1h.6a6.5 6.5 0 001.5-.4l.6.3h1.7l.5-.3.4-.4.3-.4.3-.4.2-.4v-.5l.1-.5v-.6l-.3-.5-.3-.4-.5-.5.1-.6v-.4c.9-.5 1.5-1.4 2-2.3h.1l.6.2h.5l.4-.1.4-.2.3-.2.2.5.5.5.6.4h.5l.6.1v.3l.1.4.2.5.3.4.4.3.4.3.4.2h.4l.7.1.3-.2.2.2.4.4.5.3.5.3H367.4l.6-.3h.6l.6.1h1l.4-.2.4-.2.4-.3.3-.4.2-.3.1-.4.1-.4v-.9l-.3-.4-.3-.4-.3-.2.1-.8v-.5l-.2-.5-.2-.2.7-.1.7-.4.2-.2.2-.2.2-.3.1-.5h.1l.6-.2.5-.2.4-.3.2-.4.2-.4v-1.6l-.3-.5-.4-.3-.3-.3-.9-.4-.2-.6-.2-.5-.4-.4-.5-.4-.7-.1h-.7l-.4.2v-.2l-.3-.3-.3-.4-.6-.4-.4-.1H367.2a7.4 7.4 0 00-.8.3l-.4.1-.2-.3-.4-.5-.5-.3-.6-.1h-.6l-.5.2-.3.1v-.5l-.2-.4-.3-.3-.3-.3-.3-.2-.4-.1h-.2.1l.5-.3.5-.2.4-.4.2-.5.2-.5v-.7l-.2-.5.4-.5.3-.4.1-.5v-.9l-.3-.4-.3-.4-.4-.3-.5-.3.3-.5.1-.6v-.6l-.3-.5-.6-.5h-.1l.6-.1.6-.3.5-.5.3-.6.1-.7.8-.2.5-.1.5-.4.3-.5.1-.6v-1l.4-.2.2-.2.3-.2.2-.3.2-.3.1-.3.1-.3v-1.1l-.4-.6-.5-.4-.6-.2H364.6a8.1 8.1 0 00-1-.8l-.5-.2H362v-.2l-.2-.6-.4-.5-.4-.2.2-.4.1-.5v-.8l-.5-.7-1-.6h-.7l-.3.1-.4.1-.2.2a4.3 4.3 0 00-.7.5h-.2l.2-.3.2-.8v-.8l-.3-.4 1 .4h1l.5-.1a10.2 10.2 0 001.2-.6c.1 0 .3-.2.4-.1.3 0 .6.2.8.4l.3.1.3.2H364l.5-.2.4-.2.5-.5.2-.4.1-.3.4.1.5.1h.9l.5-.2.5-.3.4-.4.2-.5v-.5l-.1-.7h.6l.5-.2.4-.3.3-.4.2-.5.1-.5v-.6l-.2-.5-.3-.4-.4-.4-.5-.3-.6-.2a1 1 0 01-.2-.2l-.1-.3-.4-.6-.5-.4-.5-.1H365.7l-.5.2a1.9 1.9 0 000-1l.3-.1.4-1v-.7l-.1-.5-.3-.5-.2-.1.3-.4v-.3l.1-.4v-.8l-.3-.6-.4-.4-.4-.3-.6-.2h-.3l.4-.4.3-.3.4-.5.7.2.5.2h.6l.6-.1.6-.3.4-.5.3-.6.1-.6h1.3l.4-.4.3-.4.2-.4.1-.4v-.3h.3l.5-.2.5-.4.3-.3.3-.5.1-.5v-1.1l-.2-.5-.4-.6-.4-.4-.6-.3h-1.5v-.3l-.2-.4-.3-.2-.4-.2-.3-.1-.5-.1h-.4a3.2 3.2 0 00-.9.2l.1-.5v-.4l-.1-.4-.2-.4-.2-.3-.2-.2.2-.2.1-.3.1-.5v-.7l-.2-.5-.2-.3-.3-.3-.4-.3-.3-.2h-.4l-.4-.2h-.8c-.3 0-.6.1-.8.3V182.6l-.2-.4-.3-.4-.3-.3-.5-.1-.3-.1-1-.1h-.1l-.2-.3.5-.5.2-.3.1-.5v-.8l-.2-.3-.2-.3-.1-.2h.4l.8-.4.5-.5v-.2l.2-.3v-.1c.4-.3.9-.4 1.3-.6l.3-.2.5-.3.3-.5.2-.4v-1.3l-.3-.4-.3-.4-.3-.2-.6-.3-.2-.4-.3-.4-.3-.4-.5-.3-.5-.2v-.4l-.2-.4-.1-.3-.4-.5.4-.3.4-.5.2-.6.1-.6-.1-.7-.3-.6-.5-.4-.6-.4h-.8c-.4 0-.8 0-1.2.3a2.1 2.1 0 00-.5-.5l-.6-.2H356l-.4.3-.3.3-.5.6-.3-.2H353l-.4.3-.4-.5-.5-.4-.6-.3h-.2l1-1.2.3-.4.2-.4.2-.4v-.4l.1-.5v-1l-.6-1c0-.3.2-.6.3-.8v-1.4l-.3-.5a3.9 3.9 0 00-.8-.8v-1l-.1-.5-.4-.5-.6-.6c-.3 0-.6 0-1-.2v-.3l-.2-.4-.2-.3-.3-.3-.3-.2-.3-.2-.3-.1h-.4l-.4-.1h-.7l-.3.2-.3.1-.3.2-.3.3-.2.3-.3.6v.3l-.1.5-.6.8-.2.3-.2.3v.2a2.1 2.1 0 00-.4.2l-.3-.3-.3-.2-.9-.2h-.5l-.6.2-.5.3-.3.4-.2.5-.1.5v.8l.2.3.2.4-.2.6v.5l.2.4.2.4.6.6v.7l-.4-.3-.5-.1-.6-.1h-.5l-.5.2-.5.3-.3.4-.3.4-.1.4v1.1l-.2.6-.1.6v.5l.2.5.3.5.2.2-.1.1-.1.4v.5l.1.3.1.4h-.3l-.3.2-.6.4-.4.5-.2.6v.6l.4 1v.2l-.1.9v.3l.1.4.5.6.5.3.4.2.8.2V175.1l.3.4.8.5 1 .2-.4 1.5-.1.6a15.2 15.2 0 01-2.3 4.1l-.2.3a4 4 0 00-.5 1.5v.9l.1.5.2.4.4 1a19.9 19.9 0 002.2 3l.5.6.7.9h-.5l-.4.3-.2-.3-.5-.3-.6-.1h-.5l-.5.1-.5.3-.5.3-.1.3-.2.2-.1.3v1.2c0 .2 0 .4.2.5l-.1.2-.2.2-.1.5a7.1 7.1 0 000 .7l.2.6.3.3.3.2.4.3-.1.3v1.1l-.4.2-.3.5-.2.4v1l.1.5.4.4.3.2.6.4v.3l.2.5.3.6.6.5.7.2.5.1h.4l.5-.1c0 .2 0 .3.2.5l-.4.2-.6-.3-.8-.1-.7.2-.7.3-.5.5-.3.7-.1.7v.6l.2.5.2.4.4.5-.1.2-.2.5v.5l.1.4.2.3.5.7h-.2l-.3.2-.4.2-.3.3-.2.3-.2.4v1.3l.2.4.3.4h-.1l-.1.6v.5l.1.4.3.4.2.3a8.2 8.2 0 00-1 1l-.4.7-.2.5a6.9 6.9 0 00-.4 2c0 1 .3 2.1 1 3v3.4l-.1 1.5-.4 1.2-.1.4v1.9a7.6 7.6 0 001.1 2.4l1 1.5 1.7 2.4.6 1c.5 1.1 1.1 2.2 1.8 3.2l.1.2-2.5 2.2-.2.2-.2.1-.4.3-.5.6-.9 1.2v-.4l-.4-.4-.4-.7-.3-.3-.2-.2-.2-.2-.3-.1-.3-.1h-1.1l-.4.2-.4.3-.2.2-.2.3-.1.6-.1.6c0 .8 0 1.7.6 2.3a15 15 0 00-2.3.7v-.1l-.2-.3-.2-.1v-.3l.1-.3v-.6l-.2-.5-.3-.5-.3-.5-.5-.3-.6-.2h-1.2l-.5.2-.4.3-.3.3-.5.7-.3-.1h-.8l-1 .6-.2.2-.1-.2-.4-.2-.3-.1-.4-.1h-1l-.4.2-.3.2-.7.6h-.4l-.6.2-.6.3-.6.4-.4.5-.4-.3-.3-.1-.4-.3-.3-.2-.1-.1-.4-.3-.4-.2-.4-.1-1-.2h-.3a6.8 6.8 0 01-.8-.2l-2.5-.7H309.2l-.6.1-.5.3-.4.3-.4.4-.3.4-.3.5-.4 1-.9 2-.2.6-.2.6a4 4 0 01-.8 1l-.6-.6a6 6 0 00-.7-.7l-.3-.2-.4-.2H301l-.3.1c-.4 0-.7.2-1 .3l-.9.3-.3.2-.3.2a3 3 0 00-.2.5 6.2 6.2 0 00-1.2 0l-.6.1-.9-1.4c-.6-1.3-1.2-2.7-2-4l-.4-.6a8.6 8.6 0 00-.8-.9l-.3-.2-.3-.3-.3-.1-.4-.2h-1.5l-1.3-.1-1.4-.2H285.4l-.4.1-.4.2-.3.2-.7.7-.4.4-1 1.8-.1-.3-.3-.2-.3-.3-.4-.2-.3-.1-.4-.1-.4-.1-.2-.2-.3-.3-.5-.3-.6-.2h-.7l-.7.2-.3.2-.3.2-.2.2-.3-.5-.5-.3-.5-.2h-.6l-.2.1a7 7 0 00-.4-.6l-.3-.3-.3-.2-.3-.2-.5-.2h-1.2l-.4.2-.3.2-.3.2-.3.3-.2.2-.1.4-.1.3-.1.3v1.1l-.4.4-2.4-.5.3-.3.2-.3.1-.4.1-.4V247.9l-.1-.4-.2-.4-.2-.4-.3-.3-.4-.2-.5-.2h-1.1l-.4.2-.4.3-.3.4-.2.4v.1l-.2.1-.2.5-.1.3-1-1-1.2-1.1a39.7 39.7 0 01-1.1-1l-1.6-1.4.2-.4c1.2-1.8 2.1-3.8 3.4-5.5l.3-.3a42.3 42.3 0 002-2.7l.3-1 .2-.4.1-.5.1-.4V231l-.2-.6a17.8 17.8 0 01-.5-1.4c-.2-1 0-2 0-3v-1.5c.8-1 1-2.3.9-3.5a5.6 5.6 0 00-.3-1c0-.4-.2-.6-.3-.9a9.6 9.6 0 00-.9-1.3l-.4-.5.4-.5.2-.3v-1.1l-.2-.2.3-.4.2-.4v-1.3l-.2-.4-.2-.3-.4-.3-.4-.2-.4-.2.3-.2.2-.3.2-.3v-.3l.1-.8V208.9a3.4 3.4 0 00.4-.6l.2-.6v-1.1l-.3-.6-.4-.6-.6-.4-.7-.2-.7-.1-.7.2-.5.3-.4-.2.4-.6a1.1 1.1 0 01.3 0l1.2.1.5-.2.4-.2.3-.4.2-.3.1-.4c0-.2.1-.5 0-.8l.5-.3.3-.2.4-.4.2-.5v-1.2l-.1-.4-.3-.3-.3-.3h-.2v-.9l-.1-.4.4-.2.4-.3.4-.5.2-.6v-.8l-.3-.4-.1-.2.1-.3.1-.4v-.9l-.1-.4-.3-.4-.3-.4-.3-.2-.3-.2h-.4l-.3-.1h-.4c-.3 0-.6.2-.8.3h-.2l-.4.3-.1.2-.4-.2-.4-.1h-.2l.5-.8 1.5-1.7.7-1c.3-.3.4-.6.6-1l.5-.9.1-.3v-.2l.2-1.2a5.6 5.6 0 00-.1-.8l-.2-.5a6.4 6.4 0 00-.7-1.3l-1-1.8a9 9 0 01-.8-2l-.3-1.7v-.1h.4l.6-.4.4-.4.3-.4.2-.7c.4 0 .7-.2 1-.4l.3-.2.3-.2.1-.2.3-.3.2-.4v-.5a7.7 7.7 0 000-.6v-.2l.2-.3.1-.4.1-.4v-.5l-.1-.4-.2-.5-.3-.4-.3-.4-.5-.2h-.3l.1-.2v-.4l-.1-1c.4-.2.5-.6.7-1v-1l-.5-1v-.1l.1-.4v-.8l-.2-.4-.2-.3-.6-.5-.3-.2h-.3l-.3-.1h-1l-.3.1-.7.4v-.7l.8-.5.2-.2.1-.4v-.5c.1-.4 0-.8-.1-1.1l.3-.5v-.4l.1-.4v-.4l-.2-.4-.3-.3-.3-.3-.4-.2-.3-.1-.5-.1h-.9l-.4.3-.4.2-.1.1-.3-.1c0-.3-.1-.6-.3-.8l-.6-.7-.1-.7-.2-.5-.2-.5-.4-.4-.4-.2-.4-.2-.5-.2h-.9l-.5.2-.4.2-.4.3-.3.4-.3.4-.1.5v.1a8 8 0 00-.8.1l-.4.2-.5.5-.2.4-.1.3v.3a8.6 8.6 0 000 .7l-.5.4-.3.3-.3.4-.1.7V158l.4.9-.3.5-.1.2-.2.4v1.6l.2.6.3.5.3.5.8 1-.5.1-.3.3-.3.4-.4.4-.6-.3h-.6a12.9 12.9 0 01-.5 0l-.5.1-.3-.5-.4-.3-.5-.3a9 9 0 00-1.3 0l-.3.1-.2.1-.4.2-.2.3-.2-.1-.7-.3h-.8l-.7.3-.5.4-.4.7-.1.7v.7l.2.4.2.4.2.2.6.6-.2.1-.2.3v.4l-.1.6h-.4l-.4.2-.3.2-.3.3-.3.3-.3.7-.5.1-.4.3-.4.4-.2.5-.2.5v.5l.1.5.3.5.5.4.5.3.8.3.4.2.1.5.2.2a3.5 3.5 0 001 .9h.6l-.1.3-.2.3v1.3l.1.3.2.2c0 .2.2.3.4.4a1.1 1.1 0 00-.3.5 6.1 6.1 0 00-.6 0l-.4.1-.3.1-.3.2-.3.2-.2.3-.2.3-.1.4-.1.4v.5l-.2-.2a4.4 4.4 0 00-1-.1h-1.2l-.4.2-.4.3-.3.4-.3.4a3 3 0 00-.2.6v.2c0 .3.2.6.4.8 0 .2.2.3.3.5l-.3.2-.3.4-.2.4v.3a3.2 3.2 0 000 .8v.3h-.1l-.5-.2h-.9l-.4.2-.4.2-.4.3-.3.5h-.3a7.4 7.4 0 00-.9 0l-.3.1-.4.2-.4.2-.3.3-.2.4-.3.4v1.4l.2.4.3.4.3.4.7.4.3.1v.7l.2.3.2.4.3.3.3.2.4.1.5.1h.5l.1.4.2.4.2.4.3.3.4.3.4.1.4.1h1.3l.3-.2.3-.2.7.8.2.2zm7.5 15.8l.3-.4c.4-.2.8-.5 1-.9l.4.2 1 .9c.5.6.9 1.4 1 2.2l-.2-.5-.2-.3-.6-.8-.7-.2c-.7-.2-1.4-.3-2-.2zm1.8 4.5l.4.3-.2.1zm-5.9 22l.7-.2.3-.4.3-.2.8.4h.8l.6-.1.5-.3.4-.4.5-.7h1.5l.5-.2-.4.8a62 62 0 01-1.3 2.7h-.1l-.6-.1h-.5l-.6.3-.4.4-.4.5v.2-.5l-.2-.3-.1-.4-.2-.3a6.1 6.1 0 01-.3-.3l-.2-.2h-.2a2.1 2.1 0 00-.5-.2 3.9 3.9 0 00-.9-.5zm8-4.3l-.1-.7h.5l-.4.7zm2.1-3.5a4.5 4.5 0 000-.8c0 .2.2.3.4.4l-.4.4zm-9.2 12.8l.8.9h-.2l-.6-1zm-10.6 6.4zm11.2-2.7v-.1l.2-.5.4.1v.2h-.3zm40.4 20.3v-.6-.9l.1-.2h.3l.6-.4.4-.4.3-.5.1-.6v-.4a18.5 18.5 0 00-.3-1l.4-.2.5-.3.4-.4.1-.2a58 58 0 003.9 1.2l1 .2h1.1l-2.8 1.8-.6.4c-1.2.7-2.3 1.4-3.6 2h-.8l-.4.1-.4.2zm76.8-20.4l-.1-.4.2.3zm.3-3.2c0 .2 0 .3-.2.4h-.1zm1.3-5.4c-.3 0-.6.2-.8.4h-.4l-.4.1-.3.3-.2.2-.2.3-.1.3-.2.5v.3l-.3-.3-.3-.4-.5-.3-.6-.2h-.6l-.3.1a50 50 0 00-.4-.7c-.6-1-1-2-1.3-3l.1.2.4.2h.2l.4.2h.5l.4-.2.3.5.2.5.5.4.6.3h.8l1-.2.3-.2c.2.2.5.4.9.5zm-7.7-4.1l-.6-1H352.4v1zm-2.2-3.3a13.6 13.6 0 00-.5-.7l.7-.6a8.3 8.3 0 00-.2 1.2zm3.8-14.4v.2h-.2l.2-.2zm1.9-4.9h-1.4l-.5.3-.3.1-.6.3-.4.5-.2.5-.2.5v1.1l-.2-.7.2-1 .2-.6.4-.6.4-.5.4-.5a4.7 4.7 0 011-.6l1.2 1.2zm6.6-15.4l-.4.3-.3.2-.4.4-.2-.2-.5-.1.2-.3.2-.5.6.2h.5zM358 202l-.3.5-.2.3a4.3 4.3 0 00-1 0v-.4l.3-.8.5.2zm.4-4h-.7l-.3.1.3-.4h.5zm-1.4-8.4a1 1 0 010 .2h-.5l-.4.2H355.8l1.2-.4zm-2.3 3.5l.1 1.2.2.8-1.3-1.7h.4l.3-.2zm-1.9-3.7h-.2l-.4.3-.4.3c0-.2-.2-.3-.3-.5a2.8 2.8 0 01.2-.2l1.1.1zm-3.4-21.2zm-3.2-2.8l.6.3.1.3.1.6-.8-.7zm-2.6 40.3a1.6 1.6 0 00.5-.4l.5.3.4.2.4.1h.8l-.2.3a5 5 0 00-.7-.2h-.8l-.3.1-.2.1a3.4 3.4 0 00-.4-.5zm-87.4 0l-.1.1-.2.4-.1-.1-.9-.1h-.3.2l.4-.2.4-.2.1-.1c.2 0 .3.2.5.3zm-1.6.3h-.4l-.4.3-.1-.3h.6zm-.9-40.6v.6l-.2.1-.6.5.1-1 .7-.2zm-3.4 2.9l.2-.1v.1zm-7.4 21.2l.5.3.7.1h-.1l-.2.3c-.2-.2-.5-.3-.8-.3V189.5zm3.6-.2H248.3l.1.1-.1.3c-.2 0-.4 0-.5-.2l-.4-.1a7.8 7.8 0 00-.8-.1zm-1.2 3.8h.3l.1.2h.4l-1 1.4.2-1.6zm-3.7 5v-.2h.8v.2h-.6zm.5 4h.3l.2-.2a2.2 2.2 0 00.5-.3l.4 1.2h-1l-.2-.3zm23.2 53l-1 .2v-.2l1-.6.9.4zm68.7-.2l.7-.4c.2.3.4.5.8.7h-.1l-.7-.1-.7-.2zm12.1-26.8a4.5 4.5 0 00-.3 1.9l-.2-.4-.8-1.4-.1-.7-.2-.2v-.2l.5-.5.7-.7.3 1.2.1.4v.6zm-91.2-1.4l.4.7v.1a7.5 7.5 0 01-.4.9l-.8 1.3-.1-.6v-.6a6 6 0 00-.3-.8 1 1 0 010-.5l.2-.7.1-.3v-.3l.8.7zm95.4 4l-.3.2.1-.4zM251 186.2c-.1.3-.1.6-.3.7l-1 1.6-.3-.3c0-.5.3-.8.5-1.4l.3-1c0 .4.5.4.8.4z"/><path fill="#8a5a33" d="M279.6 250.7c-.1 0-.8-1.5-2.3-.8-.6.3-.9.8-.7 1.4-.6.2-.4.8-.6.9-.3-.4-.2-.7-.2-1-.1-1-.7-2-1.7-1.5h-.5c-.4-.7-.6-1.3-1.5-1.5-1.6-.3-2.5 1.5-1.8 2.6 0 .3-.1.4-.3.4-1 0-.1 1.3-1 1-1-.7-1.4-.7-4-1.2-.4-.1-.4-.8-.1-.8 1.7.5 2-2.8.7-3.3-.8-.5-1.7.2-1.8 1-.7.2-.7 2.2.4 2.2v.5c-.8-.3-1.4-.6-1.8-1.4-1-.8-1.7-1.8-3-2.8-.9-.7-1.9-1.6-2.5-2.3-.3-.4.3-1.1.6-1.5 1-1.6 2-3.6 3.2-5.2l.2-.2c1.6-2 3.1-4 2.5-6.5a14.5 14.5 0 01-.6-1.5c-.3-1.7.2-3.4 0-5 .9-.7 1-2.3.9-3.3a6.5 6.5 0 00-2.3-3.6c0-.2.2 0 .4-.2.4-.5.7-.8.6-1.5-.2-.2-.6-.4-.2-.8.6-.4.8-1.4.2-1.9-.6-.6-1.3-.4-1.7-.4-.2-.2-.2-.5-.7-.7.1-.2.9-.2 1.2-.5.6-.4.7-1 .7-1.6.2-.6-.4-.9-.3-.9.6-.5.8-.9 1-1.4 0-1.5-1.7-2.5-2.8-1.5l-.5.2c-1-1-2.4-.6-2.7.4 0 .5-.5.7-.9.5l-.3-.3c-.7-.1-1.1-.1-1.7.7-.9-1-1.2-2.3-2-3.6.8.5 1.3 1.4 2.6 1.3 1 0 1.1-.8 1.5-.6l.7.4c.4.3 1 .5 1.5 0 .8-.6.4-1.6 1.9-1.2h.8c.8-.1 1-1 1-1.6.1-1 1.4-.6 1.4-2-.1-.9-.6-1-1.5-1 .6-.3.6-1.2.3-1.7-.3-1 2-.9 1.5-2.3-.3-.5-.9-.7-.5-1 .5-.3.5-1.5-.1-2-.4-.4-1.3-.4-1.6 0-.7 0-.7 1.1-1.2.5-.7-.6-1.6-.3-1.9 0-.2.2-.6.6-.6 1.1 0 .3-.3.4-.3.4-.3-.5 1.5-3.6 1.8-3.9 1-1.1 1.5-1.5 2.2-2.7l.4-.7.6-1v-.3c.4-1.2 0-2.3-.7-3.3l-1.4-2.5c-.6-1.4-.6-2-.8-3.3 0-.3-.3-.9-.9-1 .6-.8 1.1.2 1.9 0 1.2-.4.6-1.6 1.3-1.8.6-.1 1.1-.3 1.5-.8.7-.6 0-1.2.3-1.6.4-.6.6-1.5 0-2.3-.4-.7-1.9-.2-2.2-.7.6-.3 1.2-.5 1-1.3 0-.4-.4-.5-.3-1 .5-.2.7-.4.9-.9 0-.6-.1-1.2-.6-1.6.3-.6.3-1.5-.3-2-.4-.3-1-.4-1.6-.1-.5.1-.8.6-1 .8a2 2 0 00-2 .9c0 .3-.1.5-.4.8 0 .3-1.3-.3-2.2 1-.3.6 0 1.2-.4 1.6-.8.5-1.5 1.1-1.5 2-.3 1 .3 1.8 1 2.4.6.5-.4 1.1-.5 1.6-.6-.4-1-2-1-2.7h-.1c-.3-1-.1-2.3-.1-3.6 0-.3 0-.8.4-1.2 1-.5 3.4-.8 3.6-2.1l.3-.3c.8 0 1.5-.4 1.9-1.1.4-.4 0-1.5.5-1.7.5-.4 1-.6.8-1.1.2-.6-.3-1-.2-1.4 1.5-1.3-.7-3-2.2-1.4-.6.3-.7-.4-1.4-.2 0-.4 0-.8-.2-1.1-.1-.3-.9-.6-.8-1.2 0-2.5-3.5-2.3-3.5 0-.3.5-1.2.1-1.6.6-.5.4-.3 1.1-.3 1.7 0 .3-1.1.5-1.2 1.3-.2.8 0 1.1.4 1.8.2.3-.6 1.1-.6 1.7-.7 3 4.3 4.5 3.3 6.3l-.5-.3c-.2-.7-.5-1.2-1-1.4-.4 0-1-.3-1.3.3-.2.3-.6.4-.7.7 0 .6.2.9.4 1.2.6.5 2.1.6 2.3-.3 1 0 .8 1.8 1 2.4-.2.4.1.7 0 1 .3.6.3 1.2.7 1.8l.3 1.3c-.4 0-1 0-1.3.2v-1c0-1.2.1-2.5-.6-3.4-.6-.6-2-.1-2.4-1.2-.3-.8-1-2.2-2-2.1-.5 0-.8 0-1 .2-.5.5-1-1-1.5-1.2-.5 0-1 0-1.4.2-.2.3-.3.8-.8.6-1.4-1.1-3-.3-2.5 1.4 0 .7.8 1 1.2 1.5.2.6-.5.6-.6 1.1v1.1c.2 0 .5.4.5.5-.5-.3-1.5-.5-2-.1s-.5 1.2-1 1.4c-1 .2-1.5 1.5-1 2.1 1 .9 2.3.7 2.4 1.7.1.3.5.6.9.8 1.1.4 1.5-1.1 2.7-.8.5.6 1.4 1.3 2.2.8.9 0 1.4-1.1 1.9-1.3h.9c-1 .8-1.2 2.5-.5 3.6-1 .5-.7-.6-1.4-1.3-.4-.3-.8-.4-1.4-.2l-.6.3h-.3c-.8-.6-1.6-.6-2.5 0-.6.7-.3 1.4-.2 1.7.3.2.7.4.7 1-.6.4-.2.6-.5.9-.4.3-.8 0-1.3.2-.6 0-1 .4-1 1.2 0 .5.1 1 .5 1.3.5.3 1 .3 1.2.9 0 .9.3 1.5 1.4 1.5 1.4.5 1.6 2 3 2 .5 0 1.2 0 1.8-.4v-.3l1.6.1c1 0 1.2.1 1.8.8-.3.5-.6.8-.6 1.3-.2.4-.6.4-1.2.5v-.8l-.4-.1h-.1l-1.4-.1-.3.1c-.2 0-1.1 0-1.1 1.2 0 .5.8 1 1.6 1 .2.3 1.7.1 2-.9h.3c0 .4-.6 1.1-1 1.8h-.1c-1.1 1.5-2 2.7-2.8 4.5l-.2.2-.3-.5-.2-.5v-1c0-.4.3-.5.5-1 .3-.5.6-1.7.2-2.9-.4-1-1-1.5-1.7-1.5l-.5-.5v-.3c-.4-.4.2-1.6-1-2-.6-.2-.9 0-1.3-.5-.1-.7-.2-1.3-.5-1.7-.3-.3-.8-.5-1.3-.2-.6 0-.6 0-.7-.3-.2-.4-.3-.4-.6-.7h-.8c-.5-.1-1.2-.2-1.7.8-.2.4-.2.6 0 .8l.6.9.2.3s-.2.1-.2.3c-1 .2-1 1.2-1 1.6 0 0 0 .2.4.5-.6.3-.3.7-.9 1-.2 0-.4-.5-.7-.5-.7-.3-1.5 0-1.8.9l-1 .1c-.6 0-1.3 0-1.8.9-.5.5-.1 1.9.6 2.2.3.2 1 .2 1 .9s.3 1.2 1.2 1.4c.4 0 .8-.5 1.2 0 .1.2-.1 1 .6 1.6.7.5 1.4.5 2 0h1c.3.4.8 1.2 1.3 1.2.1.3 1.1.2 1.3.1.6 0 1.5-.6 2.3-1.4.3-.2.5-.7.8-1 .8.3 1.3 0 1.8.5 0 .3.1.5.5.8l.2.3v.2l-.1.8v.5h-.6c-.2-.8-.7-1.5-1.6-1.3-.3 0-.6-.2-1.1 0h-.2c-.8.3-.9 2 .3 2 .3.5 1 .5 1.6.5l.5-.3.2-.4c.4 0 .5.2.9 0 .1.7.4 1.4.6 2 .8.7.8 2.3 1.1 3.1.3 1 1 2 .6 2.8-.3-.8-.1-1.2-.7-2-.2-.4-1-.9-1-1.6-.2-1.1-.5-1.4-1.7-1.4-1.4.2-.9-2.3-3-2-.5.1-.9.4-1.4.4 0 0-.9-.8-.9-1-1.3-.6-2.8.3-2.2 1.8.3.2.4.5.4.9-.7.5-.7.8-.7 1.6.3.4.7.5.7 1.2-.5.7.1.7.2 1.4 0 .1-.6.5-1 .3-1.2-.5-2.1-.6-2.8 0-.3.6-.3 1-.8 1-2.2.5-2.2 3.3.1 3.2.2 0 .7 0 .3.7-.6 1.3 1 2.8 2.3 1.7.4-.1.1-.2.7-.2.5 1 .2 1.6 1.5 1.6 1 0 1.4 0 2.3-.5.8-.1.8.3 1.5.5 1.7 1 3.9-1.2 3.9-1.2.4-.4 1-.7 1.3-1.4.4 0 1.8 1.2 2.2 1.5.7.8 1.1 1.9 1.3 3l-.3 1.8c-.7 0-1.1 0-1.6-.7.6-.8.1-1.5-.5-2.2-.5-.2-1.6-.5-2.3-.3-.6 0-.7 1.2-.6 1.7.3.5.6.5.7.8.6.7 1.5.6 2.2.2 0 .5.4.6.5.7.1.1 1.3.5 1.6.3-.6 1.3.6 2.4.6 3.9.2.1.8 1 .6 1-.5-.5-.8-.6-1.1-1.1 0-1.5-.7-3.5-2.4-2.5h-.4c-.5-.3-.3-1.5-1.4-1.8-.3-.5-1-.5-1.5.1-.5 0-.5-.1-1-.6-.4-.5-1.2-.5-1.8.3-.5.7 0 1.2.3 1.9-.3.4-.5.1-.8.6-.8.6-.5 1.8.3 2.3 0 0 0 .3-.3.3s-.4 0-.6-.3c-1.3-2-1.7-.7-2.9-.1-.8.1-2-.1-2.3.7-1 1.8 1.6 1.6 1.2 3.3 0 .5 0 1 .9 1.1.4.3 1.2 0 1.4.6-.5 2.2 1.7 2.4 3.2 1 1 0 0 1 .5 1.4-1 .8-3 .4-2.5 2.3.1.3.3.6.7.8 0 .2-.2.2-.7.2-1.2.4-1.5 1.6-1 2.6l.8.6c0 .4-.4.7-.4 1.2 0 1.3 2 2 2.7 1 .9-.6.7-.5 1.8 0 1.6.3 1.5-.9 2.2-1.5h.9c1.2.4 1.6-.6 1.8-1.6l-.3-1.3c.4-.4.8 0 1.5-.3 2-1 .4-3.5 0-5 .8 1 2.3 1.5 3.1 2.8-1 .8-1.5 2.2-2.3 3.3l-1.8 3.4a36 36 0 01-1.8 3.8c-.7-.6-2.2-.3-2.2.8-.6.2-.6 1-.6 1.6 0-.1-.3-.1-.5-.6-.4-.1-.6-.5-.8-.7.4-1 .3-1.5-.3-2 0-.1-.2-.3-.6-.3-.9-.6-1.9-1-2.4.2 0 .7 0 1 .5 1.2.3 1.3 1.3 1.6 2.4 1.5a65 65 0 012.3 2.4l-.6.3-1.8-.3c-.7-.9-1.1-1.7-2.1-2.4-1-1-1.7-2-3.3-1.7-1 .5-.6 1.7-2 .8-.4-.3-.9-.6-1.5-.3-1 .3-1 .6-1.1 1.3-.6 1-2.5-.8-3 1.3-.1.2-.1.5-.4.7-1 .3-1.9.8-1.6 2.3.6 1.1 1.5.4 1.9 1 0 .8.3 1.3 1 1.3 1 .3 1.5-.8 2.2 0 0 .6.2.7.5 1 0 .2 0 .3-.5.3-1.1-.1-2.2.8-1 1.6-2 1.1-1.2 3.7 1.2 3.1.9-.5.8 0 1.5.2 1.2.3 2.2-.2 2.8-1.1.3 0 .7.3 1.2.2.9-.1 1.3-.7 1.5-1.3.1-1 1-1 1.7-1.2 2-1 1.5-3.5.6-5 .1-.5.4-.8.4-1.1.5-.5 1.2 0 1.8.1h1c0 .3-.4.3-.7.5l-.5.9c-1.1.3-1.4 1.6-.8 2.4 0 1 .7 1.5 1.6 1.2.6 0 .6-.7.6-1.2l.3 1c.7 1.2 1.1 2.3 2.5 3 .4.2 0 .7.4 1-.2.4-.3.6-.5.7-.6.4-1.3 2-.4 3 1 .7 1.5.5 2.7.2 1.3 1 3.3.3 4-1 .3.3.6.4 1 .3 0 1.1-2.5 1.5-.7 3.2.4.5.4.7.6 1.5.4.9 1.6 1 2.2.7.7-.7 1-1.3 2-.7 1 .4 2 .1 2.6-1.2.2-.8.2-1.2 1.1-1.5 2.6.7 5-.4 7.4-1.3-.7.7-1 .7-1 1.7 0 .3.4 1 .2 1-.6.5-1 1.3-.6 2 .6 1 1.4 1 2.3.8l.9-.6c.4.1.3.4 1 .7 1.3 0 1.4-.2 2.1-1 0 0-.3.4 0 .8.6.8 1.2.4.3 1.6-.4 1.2.1 1.5 1.3 1.5.2.5 0 1 .3 1.5 1 .8 2.5.5 3-.7.2-.3.8.1 1.4-.1 1.6-.8-.1-2.5 1.5-3 1.5-.5 1-1.5.6-2.6.3-1.1 1.8-.4 1.7-2.1 2.9 1 5.4 2.2 8.2 1.6l2-.4a3 3 0 01-1.2.9c-3.1 1.6-5.9 3.9-9.1 5.3-1 .2-1.6-.1-2.2 1v.8c0 .5 2.6 1.6 4.2 2.4.5.5.8.8 1.4.8.6 0 .9-.3.9-1l.9-.7c.7-.6 1.4-1.3 2.2-1.7 1.7-.2 2-1 2.8-2.3 0-.4.8-1.1 1.3-1.6l3-2.9c.5.3 1.2 0 1.4.7.5.6.4.6 1.3.5h.1l1.9 1.8c1.1 1 2.2 1.6 2.6 3.3.2.3.5.5 1 .8 1.2.4 3.2 1.8 3.7 3-.4.1 0 1.4 1 .8a7 7 0 012.5-.5l1.4-.4c1.1-.3 2.3.2 3-1 .3-.6-.1-1.1-1.2-1.6-.6 0-.6-.2-1.1-.5l-3.6-1.9c-1.3-.9-2.6-2-3.9-2.8l-4.4-2.9.6-.5c1-.4 1.3-.8 1-1.5a1.6 1.6 0 00-.4-.3c.9-1 2-.4 2.8.2a7 7 0 005 1c1.3-.4 2.2-1 2.4-1.4-.2 1 0 2.2 1.1 2.4 1.6 0 .4 1.5.6 2.4 0 .7.7 1 1.4 1.2.9 1.2-.4 2.4 1.7 2.8 1 0 .8 0 1.3.7 1 .8 2.6.5 2.7-1.1.3-.4.8-.4 1.2-.6 1.3-1.2-.9-1.8.2-2.5.4-.1.4-.6.3-1.2.7 1 1.2 1 2.4.8 1-.8.6-.2 1.7.1.6 0 1 0 1.6-.2.6-.4 1-1.3.6-1.7-.2-.2-.7-.8-.7-1 1-1.1 0-2.3-.7-2.3 0-.3 3 .7 3.2.8a7.9 7.9 0 002.8.5c.6 0 .8-.5 1.7-.1.6.3.6.8.8 1.5.6 1.1 2 1.6 3.3.7.8.2.8 1 1.6 1.2 2.6.4 1.5-2 2.8-2.3 1.7-1.7-1.2-3-1-3.2.8 0 1-.6 1.5.4 1 1.1 2.3.7 3.6.2 2.2 1.8 4.4-1.6 2.5-3-1-.6.3-1.4-.9-2 2-.5 2.8-2.4 3.3-3.9 0 .7.1 1.2.7 1.2.6.3 1.5 0 1.5-1.2.6-.7.1-2.1-.4-2.3l-.3-.1c.1-1-.3-.9-1.2-1.2v-.3h1.8l.8-.1c0 .4.4.7.4 1.2-.7 1.5-1 2.8 0 4.5.8 1.2 2.1 0 2.4 1.6 0 .9 1 1.5 1.8 1.5.4-.2.6-.2 1-.1.8 1.2 1.8 1.5 2.9 1 .5-.4 1-.4 1.4-.1 2 .6 3.4-2.2 1.4-3 0-.8.8-1.6-.5-2l-1.3-.2c.4-.4.5-.4.5-1 .8-.7 1.3.3 2.4 0 .7-.4.7-.4.9-1.3l1.1-.4c1-.4 1-1.2.8-1.6 0-1-1.1-1.1-1.8-1.5-.4-1.3-.7-2.3-2.3-1.6l-.6.2c-.5-.4 0-1-.9-1.4-1.2-1-2.6 1-3.2 0-1-2.8-4.4.9-5.3 1.9l-.5.7-.5.7c-.9 0-1.6.3-2.4 0l2.2-2.3c.5.4 2.4-.1 2.5-1 .2-.2 0-.3.2-.6 1.4-1.4-.5-2.8-2.1-1.4-1-.4-1.7 2-1 2.5-.7.4-1 .5-1.2 1.1 0-.6.2-1.4-.5-1.6-.2-1-1.2-1.8-2.2-.8l-.9-1.4c-.9-1.5-1.4-4-2.5-5.5-.9-1.5-1.8-2.8-2.6-3.6.7-.8 1.6-1.4 2.4-2l.7-.8h.2c-.3 1.2-2.2 5.1.8 5.1.1.1.4 0 .5.2 0 .8-.4 2.6 1 3 .5.3.9-.6 1.4-.4.6.8.6 2.5 2.6 1.8.2-.3.4-.5.8-.5.1.1.6.8 1.3.9 1 0 2.1-.6 2-1.7-.5-1.1-.3-.7.4-1.6.5-.7.2-1.6-.8-2.1l-1-.4v-.2c1-.6 1.4-2 0-2.3-.4-.3-1.8-.8-1.9-.8.6-.5 0-.8.2-1 .4-.5.7-.1 1.1 0 1 .8 2.5.6 2.6-1v-.6c1.5-.3 2.3 0 2.3-1.8-.3-.8.3-1 .9-1.3.3-.2.7-1.2.5-1.5-.5-1.4-2-.5-2.5-.9l-1.2-1c-.8 0-1.2 0-1.6.9-.2.1-1 1-1 .2 1-.6 1.3-2.3 0-2.8-1.1-.2 1.3-1.8-.8-2.7-.5 0-1 .1-1.6.7 0 .2-.4.5-.8.2-1-.7-1.7-.1-2.2.5-.2.5-.2 1.6-.9 1.3-.8-.8-2 .3-2.3 1v.6c-.2.6 0 1-.5 1.5l-.6.5.1-.5c.4-.8.5-1.6 1-2.6 0-.5.3-1.5 0-1.9.6.1 1.7 0 2-.6 1.2.5 2.3-.3 3-1.3.6-1.4-1-2.6-2.4-1.6-1 0-1.6 1.6-1 2.4-.5.6-.7.7-1.6.7 0-.6-.4-1-.4-1.6.2-2.1 1.5-4 3.6-4.7 1.3 1 3 3.7 5 2.6l1-.5c1.4-.7 2 1.8 3.8 0 .5-.6.2-2 1.4-1 .7.4 1.9.4 2.2-.7.2-.5-.3-.7-.3-1.3.6-.6 1.7 0 2-.9.7-.9 0-2-1-2.2-.4-.2-.7-.3-.9-.6-.1-1.4-1.4-1.2-2.6-.9-.3.3-1.5.3-1.5-.3.6-.2.6-1 .2-1.5 0-.3.4-.6.7-.7.9-1.3-.9-2-.5-2.3.5-.5.5-.6.5-1.1 0-1.2-1.3-1.8-2-1.2-1 .4-1.1 1.6-2 .7-1-.3-1.9 0-2.5 1.2-.2.2 0 .6-.6.8-1 0-1.6-.2-2.2.8-.2.5 0 .8 0 1.1-1 .4-1.2 1.2-1.3 2.1 0 .2-.3 1-.5 1-.6-1.3.7-2.5 1-3.7.3-.5.3-1.5.8-2.1l.5-1.5.1-.7c.2.2.6.2.8 0 .4 1 2.7.6 2.4.2 1-.2 1.2-1.5.3-2-.2-.2-1-.2-1.3.1-.9-.3-1.6.2-1.6 1.2h-.6c0-.6-.1-1.3.2-1.8.4-.7.4-.8 1-1.3h1.2c1.1 1.3 2.6 3 4.7 2.3.8-.5.7-1.7 2-1.2 1 .5 2.5.5 2.5-1.1 0-.5 0-.8.7-.7 1.1.4 1.7-.3 1.7-1.3 0-.6.1-.6.8-.6 1-.2 1.4-1.3 1-2.4-.7-1.4-1.7-.7-2.8-.9-.2-.9-.2-1-1.2-1.3-.3 0-.8.1-1.1.4-1 .6-.6-.3-1.2-.5 0-.3.3-.4.4-.6.2-.8-.4-1.4-1-1.8 0-.4.8-.7.7-1.5 0-1.6-3-2-3.2-.5-.2.4-.7.3-1 0-1.3-.3-1.2 1-1.5 2l-.4.4c-2.6 0-1.1 1.7-2.4 2.9-1.7-.3-2 2.2-1.7 3.6l.2.9c.5 1.4 1 1.4.3 2.5 0 .3-.3.4-.3.4-1-2.2-3-4-4.1-6.4v-.1h.4c.2.6.8 1.1 1.7 1.1.5-.5 2-.2 1.8-1.5 0-.9-1.1-.5-1.3-1-1 0-1.8 0-2.2 1-1 0-1-.9-1.5-1.5 0-.5.6-.8.9-1 .6 0 1.9.2 2.5 0 .6 1.1 2.2.7 3.1 0 .7-1 .7-1.3 2.3-1.5.8-.1.5-1.4.8-1.9.4-.3 1.1-.3 1.4-.8.5-.5.7-1.3 0-2-.2-.4-1.5-.3-2.2-.5 0-.3-.2-.5-.4-.8 0-.6.6-.8.9-1.3.4-1.5-1.5-1.9-2.6-1.7-.5.3-.5.8-1 0-2-.6-1.8 2.4-3 1.7.7-1.3.5-3-.5-3.8h1c1.3 1.3 2.4 2.1 4.1.5 1.2-.1 1.7 1.3 3 .6.2-.3.5-.4.5-1 .5-.5 1.5-.6 2.2-1.1.6-.8.3-1.7-.3-2-.7-.5-.8-.5-1-1-.5-1-1.5-1-2.4-.6 0-.1.3-.3.3-.5.6-1 .1-1.3-.3-2 0-.6.2-.6.6-1 .9-1 .6-2.6-1-2.6-.4 0-1 .2-1 .4-.7.2-.7-.4-1.1-.6-1.2-.6-1.6.3-2.1 1-.4.6-.7-.1-1.3-.1-1.5-.4-1.7 1.8-2.5 2.5-.3.3-1.2.3-1.6.3-1.6.4-1.2 3.7-1.2 4.9-.3-.1-1-.1-1.2-.3l.1-.7c.2-.4.5-1 .6-1.6.4-.4.4-1.9.4-2.4s-.2-1.7.7-1.7c.1.2.7.8 1.2.6 1.2.3 2.2-1 1.1-2-.7-1-2.4-.3-2.4 1-.2 0-.3 0-.5.2-.3-1 0-1.3.4-2 1.2-1 3.6-3 2.6-4.9-.2-.6-.5-.6-.5-1 .8-1.3.5-2.1-.6-3-.5-.8.6-1.2-.8-2.2-1-.3-1.4-.3-1.4-1-.6-1.5-2.6-1.5-3.1-.2-.3.6 0 1-.4 1.4-.5.5-1 1-.8 1.8-.6-.1-.8 0-1.1.2-.6 0-.6-.5-1.2-.6-1.2-.3-1.9.4-1.8 1.5 0 .4.7.8.5 1-.6 1 0 1.6.7 2.2 0 .6 0 1.6.8 2 .5.5 1.2.6 1.5.6.6 1.8 2.6 1.7 4 2.5.3.4.3 1 .3 1.6 0 1.5 0 4.6-1.2 5.8a18.7 18.7 0 00-.7-1.2c0-.3.4-.4.7-.7.7-.8.6-2.1.2-3-.5-.8-1.3-1-1.5-1.6.3-.7-.2-1.5-.9-1.8-.6-.3-1.7-.2-1.7-1.1-.2-.7-1.4-.7-2-.7-.3-.4-.7-.9-1.3-1-.3-.2-1-.1-1.2.1-.8.3-.9 1.2-.5 2-.9.7-.5 2 .5 2.5 0 .5-.5.5-.5.8 0 .8.5 1.2 1 1.5-.2.5-1.4.2-1.8.5-1.5.6-.3 1.8-.3 2.6-.1.3-.3 1.1 0 1.3.7 1 1.6.7 2 1.2.2.3 0 .8.2 1.2.6.4.8.4 1.2.4.4.1 1-.7 1.5 0-1 .5-.8 2-1.1 2.8-.5 1.6-1.6 3.6-2.7 5l-.4 1c-.3 1.9 2.1 4.6 3.2 5.9.5.4 2.6 3.5 2.3 4-.1 0-.6-.1-.6-.4 0-1.2-1-2-2.2-1.2-.2.7-.6 0-1-.2-.2-.8-1.8-.5-2 .2-.4.5-.2.7-.2 1.2 0 .4.4.5.2.9-.4.3-.4.8-.4 1.2.2.8 1.2.7 1.2 1.1.3.6-.4.8-.1 1.6.3.4.6.5.6.7a2 2 0 00-.9.1c-1 .4-.8 1.8-.1 1.9l.4.3c.8-.1 0 1.8 1.7 2.2 1 .3 1-.4 1.7-.1.5.2 0 1.1.8 1.3.4.3.9.3 1.3 0 .3 0 .3-.4.9-.6.3 0 .6 0 .6.3.8.5 1.6.8 2.4.1.4 0 .7-.6 1-.9l-.9 1.8c-.3.7-.6 1.3-1.1 1.8-.2-.4-.2-.5-.8-.7-.3-.1-1 0-1.2.3-.8.4-.6-.4-1.1-1-.3-.6-1.9-.8-2.4 0l-.6-.2c-1.2-1-2.9.5-2.4 1.8.1 1 1 1.2.7 1.8-.7.7 0 1.3.4 1.9l1.1.3c-.4.3-.4.5-.6.9-.6-.2-1.2-.2-1.7.4-.6.5-.5 1.6.2 1.9a.8.8 0 010 .6c-.5.5 0 1.7.8 1.9l-.3.4c-1.3 1-1.9 1.9-2 3.3-.2.9 0 2.5 1 3.2v2.7c0 .9 0 2.3-.3 2.8-.1.7-.6 1.7-.4 2.6 0 1.3 1.2 3 2 4.1.6 1 1.9 2.6 2 3 .8 1.5 1.7 3.4 2.5 4.3.2.4-3 2.7-3.1 3-1.7 1-2.2 3.4-4.2 3.9 0-.3-.1-.5.2-.5.4-.2.7-1 .6-1.9-.5-.3-.5-.8-1-1.3-.3-.3-1-.5-1.7 0-.5.5-.5 3 .5 3.3.2 0 .6.2.8 0v.7c-1.6.2-3.4.6-4.7 1.4.1-.5-.1-1.1-.4-1.1-.8-.3 0-.6 0-1.2 0-1.2-1-2.1-2.2-1.8-1 .2-.8 1-1.7 1.6-.2 0-.5-.6-1.3 0-1.3.4-.4 1.7-.9 2.4-.2-.5-.7-.4-.7-1 .1-1-.2-1.2-1-1.5-.8-.1-1.1.6-1.9 1-1.5.1-2.8 1-2.2 2.4l-1.6-1.3c-.4-.1-.6-.5-1-.6-.6-.9-1.2-.6-2.2-.9-1.2 0-2.4-.6-3.6-.8-2.2-.3-3 4-3.8 5-.1.8-.8 2-1.7 2.5-1.1-.6-1.6-2.7-3.3-2-.7.1-1.2.5-1.8.6-.4.2-.4.8-.7 1a5 5 0 00-1.8 0c-.3 0-.3.3-.5.3-2.2-1.5-3.3-9-6.7-7.9-1.5 0-3.7-1-4.9.2-.9.9-1.8 2.3-1.6 3.9-.9.5-1-.8-1.3-1.3-.4-.7-1.2-1-2-1zm-33.3-37.6a4.7 4.7 0 00-1.2-.5l.7-.7c.3.3.4.8.5 1.2zm8.8 33.4c.3.5 1 1.3 1.2 1.8.2.1.2.3.3.5l-1.8-.2h-.9c.1-.7.3-1.4.7-1.9l.3-.4.2.2zm93.6-60.3l.3.7 1 1.6c0 .2.3-.2.3-.3.2 0-.3-.8-.3-1.4-.1-.3-.3-.6-.3-1-.3.4-.7.4-1 .4zm-97.7 0c-.1.3-.1.6-.3.7l-1 1.6-.3-.3c0-.5.3-.8.5-1.4l.3-1c0 .4.5.4.8.4zm4.4 65c-.5 0-.7.3-.8.7l-.3.3c-.3 0-.3-.4-.3-.4-.3-.3-.3-.4-.3-.7zm4.2 0c.4.2 1 .6 1.5.7l1.4.7.2.2c-.5.3-1.2-.2-1.6-.3-1.1-.3-1.5-.6-2.3-1l-1-.2-.5-.2c1-.1 1.1 0 2.3.2zm84.8 0c.3 0 .6.3 1 .7 0 0 0 .3.2.3s.2-.4.2-.4l.1-.7zm-4.4.2c-.2.1-.6.4-1 .4-.5.2-1.6.8-2.2.8v.2c.5.3 1.4-.2 2-.3 1-.5 2.2-.7 3-1.2l.6-.2h-.2.2c-1-.3-1.3 0-2.4.3zm-74.4 2.3l3.2 1.3c-.5.3-1.7.4-2.3.6-.6.1-2.4.6-2.7.3 0 0-.8-1.1-.4-1.4.4-.2 1-.3 1.4-1 .3 0 .6 0 .8.2zm68.7 0c-.5.4-2.4 1-3.3 1.3l2.5.4c.5.2 2.2.8 2.3.5.2-.2 1-1.1.8-1.4-.6 0-1.2-.2-1.5-1-.3 0-.6 0-.8.2zm13.8-32c0 .3-.3.6-.6 1l-3.1 3.3c-.3.5-1.2 1-.5 1.7.2 1 .6 1.5 1.1 2.5.3.5.8 1 1.2 1.2.3-.4.3-.7.4-1.4 0-.8 0-1 .2-1.5l.1-.5c.2-1-.3-1.5-.4-2.4l.3-1.1c0-.2.3-.2.5-.2.2-.1.3-.4.5-.2 0 .1.3.2.3.4.3-1 .8-2 1-3.2v-1c-.2.5-.5 1-1 1.5zm-96.4 0c0 .3.3.6.6 1l3.1 3.3c.3.6 1.1 1 .6 1.7-.3 1-.7 1.5-1.3 2.3l-1 1.4-.4-1.4-.2-1.3-.3-1c-.2-1 .3-1.2.5-2.1l-.2-1.1c-.1-.2-.5-.2-.6-.2-.2-.1-.2-.4-.3-.2-.2.1-.5.2-.5.4-.2-1-.7-2-1-3.2v-1c.3.5.5 1 1 1.5zm98.3 4.6v.9l-.3 2.4c-.6.9-.9 2.4-1 3l-.1.5c.2 0 .2-.4.4-.4.7-.7 1-.9 1.6-1.3l.7-.7c-.1-.3-.2-.3-.4-.5.2-.9.2-1.4-.3-2 0-.5-.1-.9-.3-1.3 0-.1.3-.9-.3-.6zm-39.7 31.6c-.3.3-.8.5-.8.7.7 0 1.4 0 2-.2.1-.2.3-.5.3-.8-.2-.2-.1-.5-.3-.6a7 7 0 01-1.2 1z"/><path stroke-width=".1" stroke="#2c2c2b" fill="#e8edbb" d="M288.6 255.2a10.2 10.2 0 01-.7 4.6l.1.1h.1a9 9 0 00.8-4.6c0-.1-.3-.2-.3 0z"/><path fill="#354990" d="M251.1 174.9c1.5 2 1.9 3.7 2 5.1.4.5 0 5-1 4.1l-1.5 1.3c1.3-.6-2-4.2-3.3-6-.5-1-.4-2.6.4-3.3.8-.9 2-1.4 3.4-1.2zm11 58.9c1.2-2.9-1.5-5.8.3-10.9 1-2-.2-4.1-2-5.3h-.4l.8 1c1.2.8 1.8 2.5 1 3.8-.3.5-.9 1.1-1.3 1.5-1.2 1.3-2.7 2.3-3.3 4-.4.8-.8 1.7-1.4 2.4-1.3 2-3.3 3.5-4.7 5.4a25.2 25.2 0 00-3.5 6.7c-.5 1.2-1 2.1-1.7 3.3-.5.8-1.5 2-1.7 3.1-.5 1.7-.4 3 0 4.4.5 1.5 1.6 3.5 2.4 3.5 1.1-1.8 2.4-.5 2.8-1.3 1.1-3.3 4.4-2 4.2-2.4-3-3.7 5-14 7-17.3.6-.9 1.2-.8 1.6-1.9zm7.8 28.1c-2.1-.4-7.2 2.2-7.5 1.2-.8-2.1 3-4.6 1.7-6.6 1.3.2 2.3.1 5-.8.6-.1 1.7 5.4.8 6.2zm-11.6-84.6l-1-1.1c.4.4-.3 2.6-.3 3-.4 3-3.1 5.4-5.4 8.6a73 73 0 00-7.1 11.6c.7 6 2.6 1.9 2 11-.4 1.2.3 3.6 1.2 4.4-.1-.5-.1-1-.3-1.4-2-8 6.8-15.6 8.2-20 2.4-3.3 4.7-6.4 6-8.5.2-1.5-3.1-4.8-3.3-7.6zm-5.2 30.6c.5 2-2.2 2-3 3.4 0 .3-.5 3.1-.6 3 0-.3-1.7-5.6 1.3-9.4l.3-.5c.3.1 2 2.6 2 3.5zm7.8 14.5c0 .2-4 3.7-4 3.8v.3c-.3 0-.5-.3-.8-.6-1.3-1.5-3.7-3.7-4.8-5.5-.1-.2 7.9-2.1 7.8-2.3.3-.3 3 2.2 1.8 4.3zm-6.7-48.5l2.3 1.8v1.3l-.4 2.3-1 3-.5-5.3-.6-1.7s.2-1.6.3-1.4zm61 78.4h-.2c-.3.3-2.1 1.2-3.5 3.8.6.6 1.2 1.6.6 2.4l4.2-.3c.8-.8 1.4-3.5.6-4.7-.2-.5-1.2-1.3-1.7-1.2zm15 3c-1.7 2.9.2 4.4-.3 6.4 2.6.7 6 2 7.3 1.3-2.5-3.2-1.5-5.8-2-6.6-2-.1-3.3-1-5-1zm7.7-21.7c-2-2 1.8-6-.7-10.8-.9-2 .4-4.2 2.2-5.4l.3.1c-.2.4-.6.5-.8 1-4.2 3.4 2.4 6.3 3.6 9.2.4.8.8 1.8 1.3 2.5 2 2.7 4.9 4.7 6.4 7.5 1.3 2.6 2.2 5.4 3.7 7.9.4.8 1.4 2 1.7 3.1.5 1.7.3 3.1 0 4.4-4 4.7-2 3.8-2.4 3.5-.1-.2-3.2-1-3-1.2.6-.7-.3-3.1-3.9-2.3 0 0-.3 0-.1-.2.8-1 1-2.3.8-3.4 0-1.6-1.1-3.3-2-4.4-1.6-1.5-2.7-4.3-3.7-6-.5-1.2-1.3-2.2-2.2-3.5-.6-.9-1-1-1.2-2zm2.3-16c-1.3 1.4-2.6 2.7-2.1 3.6.2 1.2 3.7 3.5 4.8 5 .9 0 4.2-4.3 4.6-5l.5-.9s-7.8-2.9-7.8-2.7zm6.2-9.3c.6 2.9 3.7.7 3.8 5.5 1.3-4.3.7-6-1.8-9.4l-2 4zm-2.8-32.2c-1.8 1.2 1 6 1.1 6h.2c0-1.7-.5-4.1.4-5.8.3-.4.3-.7.3-1.2-.6.7-1.2.8-2 1zm5.1-1.2c-.6.2-1.2 1.5-1.5 2-1 2.6-1 4.4-.6 5.7.4 1.4.2 2.3 2.4 3.2-.6 0 2-4.8 3.4-5.8.8-1.5.5-3.3-.3-4-.8-.9-2-1.4-3.4-1.1zm4.6 35.4c.4 1.2-.4 3.5-1.3 4.3 0-.5.2-1 .4-1.4.9-2.9.2-5.8-1.5-8.4-1.6-1.7-3-3.5-4.4-5.3-1.6-2.5-2.5-5.1-3.8-7.7a8 8 0 00-1.4-2c-1.1-1.2-3.3-3.8-3.4-5.4 1.7-2 3.4-5 4.1-8.2.5-.2.8 0 1.1-.3-.4.5-.7.8-.8 1.5 0 2.6 1.5 4.7 3.1 6.6 1 1.2 2.4 2.4 3.2 3.4.9 1.3 1.7 3.2 2.4 4.6l.6 1c.8 1.1 3.7 4.7 3.6 6.2.7 2.1-2.7 4.4-2 11.1zm-69.6 47.9c-.4 1-.8 4.4 0 5l.1-.1c-.1-.3 8.6 2.8 11.7.9 0-1.7-1.2-5.2 0-6.6-.5 0-.3-.3-.6-.6-1.3-1.9-2-3.6-3-5.5-1.1-2.8-3.8-1-6.5-2-.8.4-1.8 1.9-1.7 4.3.1 1.2.6 3.4 0 4.6zm17.1-2.3c-1.6 1-1.2 1.3-4.4 1.9-.6.7-.3 1.7-.2 2.5-.4.9-.5 3.8.3 4.3 1.5 0 1.5 1.5 4.6 1.7h.3c1.8-.7 2-1.8 3.6-2.2.2-.1.1-.3 0-.3-.2-1.2.5-2.1 0-3-.8-.8-.8-1.6-1.4-2.8-.5-.6-.9-1.6-1.7-2-.3-.3-.6-.2-1 0zm8.6-5.7c-1.8 1.1-2.7 5.4-4.7 7.2.4.1.5 2.1 1.1 3 1.5-.7 3.6-2.3 4.4-3.4.4-.6 1-1.3 1.3-2l.5-.8c1.2-2 2-2.2 2.8-2.6-1.5-1-5.6-.5-5.4-1.4zm2.1 11.6s-4.4.2-4.3.3c1.4.3 2.5 1.7 4 1.8 2 0 3.7-.6 4.3-2.4-1.7 0-.9.3-4 .3z"/><path fill="#f5c501" d="M253.6 152.6c.6.6 0 1.3.5 1.8.4.3.5.1.7.5.3.4.2 1-.2 1.4-.2.7.6.8.7 1.6 0 .3 0 .7-.2.9 0 .3-.3.5-.4.8v.7c.3.2.5.6.7 1 .1.5.3 1-.2 1.6-.6.7-1.8.9-2.6 1.2-.3.1-.8.2-.9.1-.3-.5 0-.4.5-.5.7-.3 1.7-.4 2.1-.9l.1-.2c.2-.6 0 .1-.6.4-1 .4-1.5.2-2.3.3v-.9c1.2 0 1.6-1.6 2.3-1.9.3 0 .5 0 .2-.1l-.6.1c-.6.3-1 1.1-1.5 1.3l-.4.2c-.2-.5 0-1.3 0-1.5 0-.3.2-.4.3-.7.7-.6 1.5-1.9 2.5-2.2h.2c-.4 0-.6 0-1.2.3l-1.5 1.5c.2-1 0-2.1.5-3 .2-.8.5-1.5.4-2.4-.3 1.5-1 2.1-1 3.4h-.1c-.3-.8-.5-1.5-.9-2.1 0 .3 0 .4.2.6.2.8.2 1.5.6 2.1 0 .8-.2 1.2-.3 1.8v.3c-.1.5-.3 1.2-.1 1.8-.8-.4-.9-1.4-1.3-2-.2-.2-.3-.3-.4-.2l.3.3c.2.3.3 1.8 1.2 2.4l.2.1v1.5h-.2a10.8 10.8 0 01-1.9-2.2c-.3-.6-.2-1.6 0-2 .2-.2.5-.6.4-1-.2-.6-.7-1-.5-1.6.2-.4.7-.5 1-.8.2-.2.4-.6 0-1 0-.3 0-.6.2-.8.1-.2.6-.3 1-.2.4-.1.8-.4 1-.9 0-.3 0-.7.3-1 .4-.2.8 0 1.2.1zm7.8 9.6c.4.6-.2 1-.2 1.5.3.2.6.4.6.7 0 .8-.3 1-.7 1.2-.2.2-.2.5-.2.7.2.3.4.5.3 1-.5.7-1.4.2-1.7 1-.1.5.3 1.2-.2 1.7-.5.6-1.4.9-2.2 1.1-.7.2-2 .3-2.3 0-.2-.1 0-.1.1-.3.7 0 1.5-.1 2.4-.5a2 2 0 001.3-1c-.2 0-.4.3-.7.5-.8.4-1.8.6-2.8.6.4-.2.5-1 1-1l3-.9v-.1c-1 0-2 .3-2.9.5l-.3.1c.6-.5.5-1.4 1.5-1.8.8-.1 1.5-.4 2.3-.6h.8l-.2-.2c-1-.2-1.5.3-2.5.4l-.6.1c1-1.5 1.4-1.6 2.5-2.6l.7-1h-.2c-.6 1-1.6 1.3-2.4 2.4 0-.8.6-1.4.8-2.2h-.1c-.2.7-1.3 1.4-1.1 2.6-.6.6-1.1 1.5-1.6 2.2v-.2-1.2-1-.2a11 11 0 00-.4 3.2c-.2.4-.2.8-.6 1-.3-.3-.1-.7-.3-1h-.2c0 .5 0 1 .3 1.4-.2.5-.6 0-.7-.1-.5-.6-.5-1.7-.1-2.3.5-.4 1-.8 1.2-1.4.3-.4 0-1 .3-1.3.7-1 2.2-.2 2.4-1.5.2-.3.3-.6.6-.7.5-.2.9 0 1.3-.2.4-.3.7-1.2 1.5-.8zm-18.8 17s.2.2.3.1c.6 0 .6-.6 1.3-.5 1 .2.6 1.6 1.5 1.7.5.1 1.2-.3 1.3 0 .4.5.6 1.6 1 2.3.3.4.9.3 1 .8.3.6.5 1 .5 1.6 0 .9-.2 1.7-.6 2.4l-.2-.4c-.6-.6-.2-2-.5-3l-.4-.7c0 .2.2.5.2 1.1.1.4 0 1 0 1.6-.4 0-.4-.6-.6-.7l-.7-1c-.6-.4-.2-1.2-.5-1.9v-1-.3l-.2.2v2.2l-1.5-1.6c-1.4-1.4-1.9-2.2-2-2.1 0 .4 2 2.5 2.3 2.8l-.2.1-.8-.4-1-.3h-.5c0 .2.2.1.3.2.2 0 .5 0 .9.3.5.2 1.2.8 1.6.6l.9 1.1c.3.4.6.9 1 1.2v.3c-.6-.2-1.7 0-2.3-.6l-.6-.6c-.1 0-.1 0 0 .2.4.7 1.2 1.2 2.2 1.2.6.2 1 0 1.6.8v.2c-1.3 0-2.8.3-3.6-.7 0-.4-.2-.8-.6-.8-.6-.1-1.3-.6-1.2-1.3.3-1-.8-1-1.1-1.7-.2-.3-.3-.6 0-1 0-.2.4-.3.3-.7l-.1-.4-.5-.5c-.2-.2-.3-.5-.2-.8 0-.3.3-.4.6-.5.7 0 1 .5 1 .5zm-6.3 6l.4.5.6.5c.6.1.9-.3 1.3 0 .4.5 0 1.4.7 1.8.6.4 1 .2 1.3.3 1 .4.3 1.7 1 2.4.2.2.3.4 1 .5.4.1.6.5.7.8.3.6.3 1.2.3 1.8-.2.7-.3 1.3-.8 1.8h-.2a10.2 10.2 0 00-1-2c0-.6.1-1.4-.1-1.9l-.3-.7c0-.1 0-.3-.1-.2-.1.6.5 1.5 0 2.2-.4-.7-1-1.3-1.3-2-.3-.4-.2-.8-.2-1.3-.2-.5 0-.6-.1-1l-.2-.2v1.7l-1.7-2.1-1.5-2h-.1l.9 1.5 1 1.6.1.1c-.7-.4-1.8-.3-2.5-1l.2.3c.7.8 1.4.6 2.3 1 .4.1.6.6 1 1l.2.5c.2.3.5 1 1 1.3v.3l-1.1-.4-.8-.3-.3-.1c-.8-.1-1.2-.3-1.5-.7-.1 0-.3-.2-.2 0 .4.6.9.8 1.8 1 1 .4 2 .7 2.8 1.2.3.8.9 1.4 1 2.2-.2.2-.6.2-1 .2h-.6c-1.2 0-1.5 0-2-.3-.4-.1-.6-.2-.9-.7-.2-.4-.2-.7 0-1.1-.1-1-1.7-.9-2-1.6a.9.9 0 010-.9c.2-.3.5-.5.4-1.1-.1-.4-.3-.6-.8-.7a.6.6 0 01-.5-.4c0-.4 0-.7.4-1 .2 0 .6-.3.7-.7.1-.8-1.1-.9-.7-2 .1-.2.4-.3.7-.3.3 0 .5 0 .7.2zM262 193c.2.2.2.5 0 .8-.2.2-.3.4-.3.7v.3c.3.2.5.4.4.7 0 .6-.7.4-1 1-.4.2-.3.6-.3.7 0 .6.5 1.4-.1 1.7l-1.2.3c-.5.2-1 .5-1 1 0 .7-.3 1-.7 1.5-.6.6-2 .7-2.8.4l-1-.5.1-.3a5 5 0 012.2.2h1.1l.4-.4-.7.2c-.5 0-.7-.1-1.2-.3l-.9-.1c0-.3.4-.3.6-.5l1.6-1.2c.2 0 .4-.1.8 0 .6-.2.8-.4 1.3-.4.2 0 .7-.2.8-.4l-.7.2a7 7 0 01-.5 0c-.4 0-1 .3-1.2.2l.2-.4 1-1c.3-.3 1.6-.4 1.6-.4 0-.2-1-.2-1.1-.1 0-.2.3-.4.4-.5l1.2-2c-.2-.2-1.2 1.7-2.3 2.6 0-.5 0-1 .2-1.5l.3-1.3c-.3.6-.5.8-.7 1.5-.2.7 0 1.2-.5 2l-1.7 1.5a1.7 1.7 0 01-.5.4c-.2-.6.3-1.3.4-2v-.8c0-.2-.2-.3-.2-.2 0 1.3-.9 2.3-.6 3.3-.7.5-1.2 1-2 1.4l-.7.2c-.1 0-.4 0-.3-.2a5.6 5.6 0 001.3-1.5c1-1.2 2-3 2.7-4.8.4-.3.4 0 1-.1 1 0 .6-1.8 1.6-1.7.3 0 .5.6 1.1.5.7 0 .7-1 1.5-.9l.4.2zm-.8 13.7c0 .3.2.6 0 1 0 .6-1.3 1.2-.6 1.8.6 1-.4 1.3-1.2 1.5a1 1 0 00-.6 1.4.9.9 0 01-.2.7c-.8.7-1.9 0-2.5 1a4.5 4.5 0 000 .5c0 2.2-3.8 1.5-5.1 1.6 0-.3.3-.7.6-.9.2-.4.9 0 1.3 0l1.2-.1h.9v-.1c-.3-.1-.6-.3-1-.2-.6.1-1.3.1-1.8-.2.2-.4.5-.6.9-1 .5-.4.8-1.3 1.7-.9 1 .3 1.8-.3 2.7-.1l-.2-.2c-.5-.2-.9 0-1.3.1-.5 0-1-.1-1.3-.3.4-.5.7-.8 1.3-1.2.8 0 1.4-.2 2-.4.3 0 1.5-.1 1.6-.5h-.1c-.8.3-1.8 0-2.6.5h-.4c0-.3.3-.3.5-.4.6-.6.9-1.1 1.5-1.5.4-.4 1.2-.8 1.5-1-.4-.3-2.3 1-2.5 1.3l-.3.2c0-.6.7-1 .7-1.8l-1 1.4-.5 1.1-3.1 2.8s-.1.2-.2.1l.3-1.3c.1-.4.7-1.3.5-1.8l-.8 1.6c-.3.8-.3 1.8-1 2.5-.8.6-.9 1-1.4 1.7-.1 0-.2.3-.4.2 0-1.7-.8-4.5 1.3-5.2 1.1-.3 1.5-.3 2.2-1.4 0-.8.2-1.5 1.2-1.5.5.2.8.6 1.4.3.7-.3.3-1 1.3-1.5.6 0 1 .2 1.3.5.9.2.5-.8 1.7-.6zm-21.9 1.9h1c.2-.2.5-.6 1.1-.4 1.5.7 2.5 2.7 2.8 4.2-1 0-2.2-.7-2.7-1.5-.4-.6-2-2.4-2-1.7a9 9 0 012 2.3c-.2.5-1.4 0-2.9-.1-.8-.2-1.3-.6-2-1-.4-.4-1-.5-1.5-.8-.2-.1-.3-.3-.5-.2 0 .3 2.2 1.2 2.4 1.7l-1-.2h-1.4c-.3-.1-2.4-.1-3.3-.3 0 .4 1.2.4 1.4.4l2.8.2c.9 0 1.8.6 2.6.6-.7.2-2.1 1.7-2.9 1.3h-.1c0 .2.1.2.3.3 1.5.2 2.8-1.9 4-1.4l2 .3c-.9.4-1.6 1.2-2.7 1.4v.2c1.3-.2 2.2-1 3.3-1.5.6.1 1.3.4 1.8.8-.4.5-1.4 1.3-1.8 1.6-.6.6-1.6.9-2.2.2-.6-.5-1-.6-1.9-.5-.7.2-1.2 1.1-2.1.5-.5-.4-.2-1-.8-1.4-1-.6-1.7.7-2.5.5-.8-.6.1-1.2 0-1.7-.3-1.4-1.8-.7-2-1.2-.5-.7.3-1.2 1-1.1 1.1 0 .8-.6 1-1.3.1-.4.5-.4.8-.3.5.3 1 .4 1.5.5 1.2.1 1.5-1.3 2.3-1.5 1-.2 1.2 1 2.2 1zm-1.6 15.7c.2.6.6 1 1 1 .5.1.8 0 1-.1.3-.3.5-.6.9-.8.7 0 1 .3 1.3.8.2.7 1 1.1 1.7 1l.9-.3c1 0 1 1 1.3 1.7.2.5.5 1.1.6 1.8-.5 0-.8-.5-1.5-.8-.5-.3-1-.3-1.1-.8-.3-.5-.5-1-1.2-1.3-.6-.4-.5-.7-.9-.8l.2.4.3.4c.3.4.8.6 1 1l.1.3a7.3 7.3 0 01-.7-.2l-1.9-.6c-.7 0-1-.9-1.7-1-.4-.3-1-.2-1.2-.6-.1-.1-.2-.4-.4-.4l.4.7c.2 0 .3.2.4.3.2 0 .4 0 .5.2.3.1.6.3.7.6l-.9-.3-1-.1a8.2 8.2 0 01-1-.2l-.6-.2-1-.4.8.6c.6.2 1 .5 2.7.6l2.4.8-.1.2c-.2 0-.3 0-.4.2-.6.1-1.6.6-2.3.7h.2c.4.1 1-.1 1.4-.3.5 0 .7-.2 1.1-.3a2 2 0 011.6-.1l1 .4.5.2.7.4.1.1-2.1 1c-.2.2-.6.3-.5.4.4 0 1.8-.7 2.3-1h.7l1 .3c0 .3-.4.5-.5.6-1.1.8-2.6 1-3.9 1.6h-.2c-.2-.2 0-.7-.1-1a1.1 1.1 0 00-.5-.7c-.3-.2-.7-.2-1-.1-.7.1-.9 1-1.7.9-.7-.4-.1-1.4-.5-1.9v-.1c-.4-.3-.7-.4-1.1-.3-.5 0-.9 0-1-.2-.3-.5 0-.8 0-1.2-.2-.6-.6-.9-1.2-1.2-.2-.2-.4-.3-.4-.7 0-.3.3-.4.5-.5.7 0 1.6.2 2-.3.2-.2.2-.4.6-.6.3 0 .5 0 .7.2zm-10.3 26.4c-.2-.1-.4-.3-.3-.7 0-.3.2-.4.4-.5 1.7-.3 1.1-1.7 1.7-1.9.4-.3 1.1.2 1.7.1.4 0 .8-.3 1-.8-.1-1.6 1.4-.6 2-.1 1.3.3 1.7-.8 2-1.3.8-.7 3.2 1.9 3.7 2.8h-.5c-.5-.4-2.1-1.9-2.8-2-.1.2 1.8 1.4 2 1.8h-3.6c-1 .2-2.4-1-2.6-.8.3.6 1.3.6 1.2 1.1-2 0-3.8 1-5.5 1.8 1 .1 2.6-1.1 3.9-1.1-.5.4-.5 1.2-1 1.6 0 .4-.8.5-.5.6 1.8-.5.8-2.4 3.4-2.6l1.3-.2h1.9L235 251a2 2 0 01-1 .8c0 .2.2 0 .3 0 2.2-.8 2.7-4.3 4.8-3l-2 2c1 .2 2.7-3.2 3.4-1.1-.7 1.1-2 3.6-3.5 3.5-.8 0-1.2-.4-1.5-.8-1-.6-1.7 1.1-2.7 1-.7 0-.8-.7-1.1-1.1-.9-1-1.8.3-2.4 0-.5-1 0-1.4-1.8-1.6zm29.6 1.2c.3.3 3.6 1.5 3.8 1.4l-2.2.9c-.6.2-3-.4-3.5-.7 0 0-.3-.1-.2 0 .5.8 2.1.8 2.4 1-.3.5-1 .7-1.4.9h-1.4c-1 0-1.8.2-2.3-.3h-.1c.6 1 1.7.6 2.9.7 0 .2-1.2.5-2 1l-1.7 1.3-1 .6h-2 .1l1.5.3s-1.6 1.2-2 1.7v.2c.4-.3 4.2-3.1 4.5-2.8-.4.7-.5 1.8-1.1 2.1l-.4.4c.2.1.2 0 .4-.1 1-.5 1.7-3 1.8-3l.7-.6 2.6-1.2c.5-.2 1.8-1 2.6-1-.1 1.2-1.5 2.4-1.4 3.6.4-1 1.4-2.2 1.7-3.2.1-1.1 1.3-1 1.8-1.2 1.5-.3.5 1.2.3 2-.2.6-1.6 3-3 3.3-.6.2-2.2-.6-2.6.1-.8.6-.6 1.8-2.1 1.7-.4.1-1.1-.5-1.7 0-.5.3-.8 1.5-2.2 1.2-.4 0-1.1-.7-1.8-.3-.8.6-1.7-.1-1.6-1 0-1 2.1-1.5 1-2.5a1.4 1.4 0 01.4-1.5c.4-.6 2.4.2 2.4-1v-.4c0-1.2 1.1-1.9 2.5-1.3 1.8.3 1.8-2.6 3.6-2.4l.7.1zm.5-5.8c.6.7 1.4 1.2 2 1.7 1.5 1.4 2 3.1 4.6 3.7l3 .7 2 .8.6.3c.2.1.5.1.5.5 0 0 0 .2-.2.3l-1.3-.6-1.8-.5c-.1.3 0 .2.4.4.7.2 1.5.6 2 .9.3.1.4.1.4.3v.3l-1.1-.5c-1.5-.6-2.1-.7-3.3-1.4-.6-.3-1-.3-1.1.1-.2.5-.8.7-1 .7 0-1 1.3-.8.3-1.2l-.3-.1-2.5-1.2c-2.2-1.1-4.7-.8-7.2-.8a2.2 2.2 0 010-.9c1.7-.7 4.1.4 5.9.5.4 0 .8.1.8-.1l-1-.4c-.8-.4-1-2.7-2.5-2.7.5.3 1.6 1.8 1.2 2.1-.3 0-2.5-3.1-2.8-3.5l.7-1 1.7 1.6zm20.7 12c-.6.6-1 1.5-1.9 1.3-.4 0-.6-.4-.7-.9-.1-.3 1-3.1.3-3.4 0 0 .1.5-.3 2l-.3.8s-1.8-3-1.5-3.3c0-.6.3-1.8.5-2.5 0-.2.2-.4 0-.4-.5.1-.6 2.2-.8 2.4-.4-.3-1.3-4-1.9-3.9.3.5.9 2.2 1 2.8-.1.1-1-.7-1.4-.9-.4.2 1.5 1.4 1.6 1.6.5 1 .7 2 1.3 3 0 .8-1.8-.3-2.3-1-.3-.3-.4-.4-.6-.4 0 .2.1 0 .4.5.6.8 1.4 1.3 2.4 1.6.5-.2.9 1.1 1.2 1.8 0 .1.1.3 0 .4l-2-.1c-.9 0-1.5-.3-2-1 0 0-.2-.6.2-1 0-1.2-1.9-1.5-1.1-2.6.2-.3.6-.3.8-.7.3-.3 0-1-.3-1.2-.3-.3-1-.4-.5-1.2.2-.3.8 0 .8-.5-.4-1.2-.6-2.3.6-2.2.7 0 1 1.9 1.8 1.6.2-.3.8-.3 1-.2.7.4.1 1.6.5 2 .8 1 1.6-.3 2.2.8.2.9-.6 1.9.3 2.5 1 .3 1.4 1.6.7 2.4zm1.7.7c.2.2.4.3.5.6l-2.7 1c-.8.3-1.3.7-2.1.9-.8-.2-2.6 0-3.1-.5-.1 0-.3-.2-.2 0 .5.9 2.4.6 2.5 1l-3.1 2.2c-.6-.2-.8.4-1.8 0h-.3c.2.4 1 .4 1.6.4 0 .4-1.4 1.5-1.7 1.7.1.5 3.9-3 4.3-3.1 0 .7-.7 1.8-.6 2.4.2 0 0-.4.4-.8l.6-1.8 3.6-2c.4 0-.2 1-.3 1.2-.2.8-1 1.7-.8 1.7.6-.1 1.7-2.7 1.8-3 .1-.3 2-.9 2.4-.8.8 1.3-.8 3.8-2.5 3.4-1.6.3-2 4-4 2.4-.5-.2-1 .2-1 .5-1 1.9-1.6.8-2.4.5h-.6c-1.3 1.4-3.5.2-1.3-1.2.3-.5 0-.7-.3-1-.2-.5-.1-.8.1-1 .4-.4 1.3-.5 1.8-.9a.8.8 0 00.2-.7c-.7-1.7.4-2.2 2.3-1.6 2.2.4 4.5 0 5.7-2 .4 0 .7.4 1 .5zm8.5.1l-.5 1c.1 0 5 .5 4.6 1-.2.2-2-.2-2.6-.4-.7 0-1.3-.4-2.2-.2l-.2.5c1.6 0 3.3.2 4.8.7.5.1.8.3 1.4.3 0-.4-.4-.3-.6-.5v-.1h.7c-.1-.3.2-.9 0-.8-1.8-.2-3.5-1.5-5.4-1.5zm-44.7-93c.3.6.6 1.2 1.4 1.2.5 0 .6-.6 1.2-.4.6.3.7 1.4 1.2 2 .2.2.6.9 1.2.7.4 0 1 0 1.2.3.6.9.5 2.4.5 3.1v.4a2.6 2.6 0 01-.8-.5c-.4-.5-.9-.8-1-1.5.2-.5 0-1-.2-1.3-.2-.2-.2-.4-.5-.2l.2.2c.2.5.3 1 .3 1.6v.1l-1.4-1c-.6-.2-1-1.5-1-1.7-.1-.5-.4-1.2-.6-1.3l-.1.1c.3.6.4.8.5 1.5l.2.7-.4-.2c-.5-.3-2.8-1.8-3.7-2.1l-.3-.1c-.2 0 0 .1 0 .2 1 .4 2 1.1 2.8 1.8-.8.2-1.6.3-2.4.2-.1 0-.4-.1-.4 0l.2.2.9.1c.8 0 1.8-.1 2.5.2l.5.3 1.5 1.1-.9.1c-1 .2-1.6.7-2.7.3v.1c.8.6 2 .2 2.8 0h1.6c.2 0 1 .7 1.3 1.2-.6.6-1.5 1-2.3 1.2-.7.2-1 .3-1.7 0-.4-.5-.1-.7-.5-1-.5-.5-1.9.1-2.3-.7-.2-.6-.1-1.2-.7-1.4l-.8-.3c-.4-.1-1-.6-.7-1.3 0-.4.6-.4.6-.9.1-.9-1-1.2-1.2-1.9-.1-.4-.2-.7.3-1 1-.2 1.2.9 2 .6l.5-.5c0-.2.1-.4.4-.5.4 0 .5.1.8.4zm9 7c.4.4.2 1.3.2 1.7v1.5c-.2-.1-.4-.2-.5-.1 0 .3.5.8.7 1.1 0 1 .6 1.4.8 2.5-.3.6 0 1.5-.2 2a8 8 0 01-.3 2l-.1.7.7-.8c.3-.5.3-.6.3-1.3v-2c.1-.8 0-1.7-.2-2.3 0-.2-.4-1.1-.5-2.4 0-.7 0-1.6-.3-2.4l-.4-.1c0-.1 0-.2-.2-.2zm-3.2 54.6c0 .3 0 .8.2 1 0 .5.2.7.4 1.2l1 3.1v.3l-.5-.5-1.6-1.1-.6-.7c.3-.2.4-.2.5-.7 0-.7 0-1 .2-1.7l.2-1.4.2.5zm1-23.8c.1.4-.8 1.7-1 2-.7 1.2-1 2.2-1.2 3.5a15 15 0 00.4 4.8c.1.6.3.8.5 1.2.8 1.9 1.3 3.1.7 5.3l.1 1.5.7 2.1.6 1.7c.2-.3.5-.6.6-1h.2c0 .3.3.2.4.4 0 .7-1.7 4-.7 4.1 0-.5.2-1 .3-1.4v.3l.9 3.7c0 .6-1-1.2-1-1l.5 1.7-.7.7c-.1-2.1-1.2-4-1.6-6.2-.5-1.6-.5-2.6-1.1-4.1l-.4-1c-.5-1.8.6-3.3.1-5l-.5-1.7-.3-1.2c-.6-2-.8-4.4 0-6.4.2-.9.7-1.6 1.2-2.4.3-.6.8-1 1-1.5l.3-.2v.1zm44 62.7l-2.7 2.1c-1 .9-3 2.3-3.3 2 0-.7 3-2.1 3.6-3 .1-.7-2.8 1.6-4.1 2.5-1 .6-3.4 1.8-3.5 2 .7.4 2-1 2.8-1.2.4.3 0 .6-.5.7-.6.4-1.3.8-1.7 1.3 0 .3.3.5.5.6.6 0 5.2-3.6 5-2.8.1.2-2.2 1.6-2.5 1.9-.3.2-2.1 1.2-2 1.6.1.1.1.3.3.2 1.7-1.6 3.9-2.6 5.5-4.4.9-1 1.7-2 2.8-2.8.6-.5 1-.7 1.5-1.3 0-.6-1.5.5-1.7.6zm8.7-.3c1 .7 1.8 1.5 3 2 1.1 1 2.5 1.7 3.5 2.6 1 .6 1.7 1.3 2.6 2 .7.4 1.3 1 2.1 1.2v.1s-.5.2-.8.1l-1.7-1.3-2.4-1.8-1.6-1.1c-1-.7-2-1.6-3.1-2.2-.7-.4-1.2-1-2-1.3l-.2.3c.4.5 1 .9 1.4 1.2.9.4 1.4 1 2.2 1.5.6.5 1 1.1 1.5 1.7 1 1.3 2.5 1.8 3.7 3 .4.2 1 1.6 2.1 1l1.3-.8.8-.3c.3-.2-.3-.4-.6-.6-1.6-.6-3-1.4-4.5-2.6-1-.8-2.1-1.8-3.4-2.4l-3.6-2.4h-.3zm10.6-6.6l-1.2.2c-1.8 0-3.3-.1-5 .5l-1.2.6-.5.1h-.3v.5c.5 0 1.6-.4 2-.3.4 0 .7.2 1.2.1 1.3 0 2.4 0 3.5-.4l2.7.1h.7c.7 0 1.3-.1 1.9-.4 0-.4 0-.8.3-1h-4zm7.6-1.3c.5.5.9 1.4 1.8 1.2.4 0 .6-.6.8-.9.1-.3-1-3.1-.4-3.4l.3 2 .3.8s1.9-3 1.6-3.3c0-.6-.3-1.8-.5-2.5-.1-.1-.4-.3-.1-.4.5.1.7 2.2.9 2.4.4-.3 1.3-4.3 1.8-3.9a16 16 0 00-1 2.8c.2.1 1-.7 1.5-.9.3.2-1.6 1.4-1.7 1.6-.4 1-.7 2-1.2 2.9-.1.8 1.7-.2 2.3-1 .2-.1.3-.3.5-.3.2.3-.3.3-.4.5-.6.8-1.3 1.4-2.3 1.6-.5-.2-.8 1.2-1.2 1.9v.2c.6.1 1.4.2 2 0 .8 0 1.5-.3 2-1 0 0 .2-.6-.2-1 0-1.2 1.8-1.5 1-2.6-.1-.3-.6-.3-.8-.7-.2-.3.1-1 .3-1.2.4-.3 1-.4.5-1.2 0-.1-.6-.1-.7-.5.3-1.2.6-2.3-.7-2.2-.5.4-.9 1.9-1.8 1.6-.2-.3-.7-.2-1-.2-.7.4 0 1.6-.5 2-.8 1-1.4-.4-2.2.8-.1.9.7 1.9-.2 2.5-1.1.3-1.5 1.6-.7 2.4zm-1.7.6c-.2.2-.5.3-.5.6l2.7 1c.7.3 1.3.7 2 .9.9-.2 2.9 0 3.3-.6v.1c.1.7-2.4.6-2.5 1l3.2 2.2c.3 0 1.2.3 1.8 0h.3c-.3.4-1 .4-1.6.4 0 .4 1.4 1.5 1.7 1.7-.2.5-3.8-3-4.3-3.1 0 .7.7 1.8.5 2.4-.1 0 0-.4-.3-.8l-.6-1.8a46 46 0 00-3.7-2c-.3 0 .3.8.3 1.2.1.4 1 1.7.8 1.7-.5-.1-1.6-2.7-1.7-3-.1-.3-2.1-.9-2.4-.8-.8 1.3.8 3.8 2.5 3.4 1.6.3 2 4 4 2.4.5-.2.9.3 1 .5.8 2.4 2.2.2 3 .5.9 1.3 3.4.2 1.2-1.2-.2-.5 0-.7.3-1 .8-1.7-2.2-1.2-2-2.6.6-1.7-.5-2.2-2.3-1.6-2.3.4-4.5 0-5.7-2-.4 0-.7.4-1 .5zm22.8-7c-.3.3-3.6 1.5-3.9 1.4l2.4.9c.5.2 3-.3 3.4-.7l.1.1c-.5.7-2 .7-2.3 1 .4.5 1 .6 1.4.8.4 0 .6-.3 1.2-.1 1 .1 2 .3 2.5-.2h.1c-.6 1-1.7.7-3 .7 0 .2 1.4.6 2 1 .9.5 1.3.8 1.8 1.3l1 .6h2.1c-.5.4-1 .2-1.8.3 0 .1 1.8 1.2 2 1.7v.3c-.3-.3-4-3.3-4.3-3 .3.7.4 1.8 1 2.3.2 0 .4.2.4.4l-.4-.2c-1-.5-1.7-3-1.7-3a2 2 0 00-.8-.5 42.1 42.1 0 01-2.5-1.3c-.5-.2-1.8-1-2.5-1 0 1 1.4 2.4 1.2 3.6-.4-1.1-1.5-2.1-1.6-3.2-.2-1-1.4-1-2-1.2-1.4-.3-.3 1.2-.2 1.9.3.7 1.6 3 3 3.5.6 0 2.2-.6 2.6 0 .7.6.7 1.8 2.1 1.7.5.1 1.2-.8 1.7 0 .6.4.9 1.6 2.3 1.2.3 0 1.1-.7 1.7-.4.8.8 1.8 0 1.7-1 0-1-2.2-1.4-1.2-2.3.2-.6 0-1.2-.3-1.5-.3-.7-2.4 0-2.5-1v-.5c0-1.2-1-1.9-2.4-1.3-1.8.4-1.8-2.5-3.6-2.4l-.7.2zm30.1-1.3c.3-.2.4-.3.3-.7 0-.2-.2-.4-.4-.4-1.8-.4-1.1-1.7-1.5-2-.9-.4-2 .9-2.9-.6.2-1.7-1.4-.6-2-.2-1.3.4-1.7-.9-2-1.3-.8-.6-3.2 2-3.6 2.8h.4c.6-.4 2.1-1.9 2.9-2 0 .2-2 1.4-2.2 1.8h3.7c1 .2 2.4-1 2.6-.7-.3.5-1.3.5-1.2 1 2.1 0 3.8 1 5.5 1.8-1 .1-2.6-1-3.8-1 .4.4.4 1 .8 1.5.3.3 1 .6.6.6-1.8-.4-.9-2.6-3.4-2.6-.5 0-.7 0-1.2-.2h-2l1.9 2.5c.2.4.6.7 1.2.8 0 .2-.4.1-.4.1-1.4-.4-2.2-3-3.6-3.3-.1 0-.6-.1-1.2.2l1.9 2c-1 .2-2.7-3.2-3.3-1 .6 1 2 3.5 3.3 3.4 1 0 1.2-.5 1.6-.8 1-.5 1.8 1.2 2.7 1 .7 0 .8-.7 1-1.1 1-1 1.8.3 2.6 0 .5-1-.2-1.4 1.7-1.6zM362 224.2c-.1.5-.6 1-1 1.1-.4 0-.7 0-1-.3l-.8-.7c-.7 0-1 .3-1.4.8-.2.7-1 1.1-1.6 1a2.4 2.4 0 00-1-.3c-1 0-1 1-1.3 1.7l-.6 1.8c.5 0 .9-.5 1.5-.8.5-.2 1-.2 1.1-.8.4-.5.6-1 1.2-1.3.6-.4.5-.7.9-.8 0 .2-.2.2-.2.3l-.2.5c-.3.4-.9.6-1 1a.7.7 0 00-.2.3c.2 0 .5 0 .7-.2 1.3-.5 1.3-.4 1.8-.5.9-.1 1-1 1.8-1.2.4-.1 1-.1 1.2-.5 0 0 .2-.3.4-.3 0 .2-.3.4-.4.6l-.3.2-.5.2c-.4.2-.7.4-.7.6l.9-.2c.1-.2.5 0 1 0l.9-.4h.6l1-.5c-.2.3-.5.3-.8.5-.5.2-1 .6-2.7.7l-2.4.8v.2c.1 0 .4 0 .5.2l2.2.6v.2a4 4 0 01-1.5-.4c-.5 0-.7 0-1.2-.2-.3-.3-1.1-.4-1.5-.2-.1 0-.7.4-1 .4l-.5.2-.7.3v.3a4 4 0 012 1.1c.4 0 .6 0 .5.3-.4 0-1.8-.8-2.3-1l-.7-.2c-.4.2-.5.4-1 .4 0 .4.5.6.5.6 1.1.8 2.5 1.1 4 1.6.3-.2.1-.7.2-1 0-.3.3-.5.5-.6.4-.2.7 0 1 0 .8 0 1 .8 1.8.6.6-.2 0-1.2.3-1.7.2 0 0-.2.2-.3.2-.2.6-.3 1-.2.5 0 1 0 1-.2.3-.4 0-.8 0-1.2.1-.7.5-.9 1.2-1.2.1-.2.5-.3.4-.7 0-.3-.3-.4-.4-.4-.7 0-1.7.1-2.2-.4l-.4-.5c-.3-.1-.6 0-.8.1zM349 203.5c0 .6.9 1.7 1 2a8.1 8.1 0 011.4 3.6c.1 1.4-.1 3.7-.5 4.8-1 1.8-1.9 4.6-1.3 6.5v1.4l-.7 2.3a37 37 0 01-.6 1.6l-.6-.9h-.2c0 .2-.2.2-.4.4 0 .6 1.7 3.9.7 4 0-.5 0-1-.2-1.4h-.2c.1.3-.5 2.4-.6 3 .6.1.7.8.3 1.8.3.1.4.4.7.6.2-2 1.2-4 1.6-6.2.5-1.6.5-2.6 1.1-4l.5-1.1c0-.6.2-.8.1-1.5a6.8 6.8 0 010-4.4c.5-1.5.9-3 1-4.6v-.4c0-.8-.1-2.6-.5-3.3-.2-1-.6-1.6-1.2-2.5-.4-.6-.8-1-1-1.6 0 0-.2-.2-.3 0zm11.3 5h-1c-.2-.2-.5-.6-1.1-.5-1.2.6-1.8 1.7-2.4 2.8 0 .6-.2 1-.4 1.5h.8c.8-.3 1.5-1 2-1.5.4-.5 1-1.6 1.8-1.8a7 7 0 00-1.8 2.5l.3.1c1 0 1.8-.2 2.6-.4.5-.1.8-.1 1.4-.7.2 0 .4-.3.6-.4l1.5-.7.4-.2c0 .2-.1.3-.4.5-.4.2-1.8.9-2 1.4l1-.3h1.4c1-.2 2 0 3-.2 0 0 .2-.1.4 0l-.4.1c-.3.3-.6.3-1 .3l-2.8.1c-1 .1-1.8.4-2.6.6.7.3 1.4 1 2 1.3.3 0 .5.2.8 0 0 .2 0 .3-.2.3-1.3.3-1.9-.9-3-1.3-.3 0-.6-.3-.9-.1a2 2 0 01-.8.1 3 3 0 01-1 .2h-.3l.5.2c.8.6 1.2 1 2.3 1.2v.3a6.6 6.6 0 01-1.7-.6c0-.2-.5-.3-.6-.5l-1-.5-1.5.6-.4.2c.4.8 1.5 1.6 1.9 1.9l1.1.4c.4 0 .7-.2 1-.4.8-.6 1.2-.6 1.8-.6.8.2 1.3 1.4 2.3.8.3-.4 0-1.3.7-1.6.3-.2.7 0 1.1 0 .4.1 1 .5 1.4.3.3 0 .3-.3.3-.6s-.6-.5-.4-1c0-.3 0-.6.7-.8.8-.1 1.3 0 1.5-.4a.7.7 0 000-.6c-.2-.3-.4-.5-1.1-.4-.1-.1-.4-.1-.6-.4-.3-.1-.3-.3-.3-.6a.7.7 0 00-.1-.6c0-.2-.3 0-.7 0-.5.3-1 .4-1.6.5-1.2 0-1.4-1.2-2.3-1.6-1-.2-1.2 1-2.2 1zm-21.8-2c-.2.3-.3.6-.2 1 .1.6.7.6.8 1.1v.8c-.4.3-.4.7 0 1 .4.7 2 .7 1.7 2l.1.8c.7.7 1.4 0 2 .4.3 0 .4 0 .5.4l.2.6c0 .4 0 .7.4 1 .5.3.9.5 1.6.5 1.3.2 1.8-.1 3.1 0a2.7 2.7 0 00-.7-.9c-.1-.4-1 0-1.3 0-.2.1-1 0-1.2-.1h-1v-.1c.4 0 .7-.3 1.1 0 .7 0 1.3 0 1.8-.4-.1-.4-.5-.7-.9-1-.6-.3-.7-1.3-1.7-.8-.7.2-.9 0-1.5 0-.3-.1-.7-.3-1.1-.2-.2 0 0-.2 0-.2.6-.1 1 .1 1.4.1l1.3-.2a3 3 0 00-1.3-1.2c-.8 0-1.3-.3-2-.5-.4-.1-.7 0-1.2-.2l-.4-.3h.2l1.2.2c.5 0 .9.1 1.4.3h.3l-.4-.4c-.7-.5-1-1.1-1.5-1.5l-1.5-1h.2c.9.4 1.7.7 2.3 1.4h.1c0-.2-.1-.5-.3-.7-.2-.3-.4-.6-.4-1 .3 0 .2.3.4.4.2.3.6.6.7 1l.6 1.2 1.2 1.1 1.4 1.2c.2.1.4.3.4.5.1 0 .1.2.3 0 0-.4-.3-.8-.3-1.3l-.7-1.4.1-.4c.4.5.6 1 .8 1.7l.2.6c.2.6.2 1 .6 1.6l.2.3c.8.5 1 1 1.5 1.8 0 0 0 .2.2 0l.1-1.4v-.4c0-.5.3-1.2 0-1.8 0-.4-.2-.7-.5-1-.2-.4-.3-.5-.8-.6-.4 0-.5 0-.9-.2-.6 0-1-.7-1.2-1.2 0-.2 0-1-.3-1.3-.2-.3-.5-.3-1-.3-.5.2-.8.6-1.3.4-.7-.2-.5-1.2-1.5-1.6-.6 0-.8.2-1.3.5-.8.3-.5-.7-1.7-.6zm-1-13.6c-.1.3 0 .4.1.8.3.1.3.4.3.8l-.1.3c-.3 0-.3.3-.3.6-.1.6.7.5 1 1 .5.3.3.7.2.7 0 .6-.3 1.3.3 1.7.2.2.8.2 1.2.3.3.2.9.5 1 1-.1.7.3 1 .6 1.5.6.6 2 .7 2.7.3.4 0 .9-.3 1.1-.3v-.4c-.7-.2-1.7 0-2.3.2-.5.1-1 .2-1.1-.1 0 0-.4-.1-.4-.3l.7.1 1.2-.1.8-.3c0-.2-.4-.2-.4-.4-.6-.3-1.2-.7-1.7-1.3h-.8l-1.2-.2-.9-.5.7.1.6.1c.4.2.8.3 1.2.2 0-.3-.2-.2-.2-.3-.3-.4-.8-.7-1-1.2-.4-.1-1.7-.2-1.7-.4s.8 0 1.1 0c0-.2-.4-.4-.4-.4a13.4 13.4 0 01-1.1-2.2c.1 0 1.1 1.8 2.2 2.8l-.1-1.6c-.3-.5-.3-.9-.4-1.3v-.1l.8 1.6c.1.8 0 1.5.4 2.1l1.7 1.4c.1.3.2.3.5.3.1-.6-.3-1.2-.4-1.8v-1.1h.1c0 1.2 1 2.3.6 3.3.8.5 1.4 1.1 2.2 1.5l.6.1.4-.2c-.6-.4-1-.9-1.4-1.6-1-1.2-2-3-2.6-4.7-.5-.3-.6 0-1.1-.1-1.3 0-.6-1.7-1.4-1.7-.6 0-.6.7-1.3.5-.8 0-.8-1-1.5-1l-.5.3zm26-7.7l-.5.4c-.1.1-.3.4-.6.5-.6.2-.8-.3-1.2 0-.5.5-.2 1.3-.9 1.8-.4.4-.8.3-1.2.4-1 .4-.3 1.6-1 2.3 0 .3-.4.6-1.2.5-.4.2-.4.4-.5.6-.3.6-.2 1.1-.2 1.9.1.7.3 1.4.7 2h.3c.2-.8.5-1.4 1-2 0-.8-.2-1.4 0-2 .3-.4.4-.4.4-.7h.1c.1.7-.5 1.3-.1 2h.1l1.2-2c.2-.3.1-.6.2-1 .2-.6.2-.8.2-1.3h.1v1.6l1.7-2.2c.7-1 1.3-1.4 1.5-2 0 .5-.5 1.1-.7 1.6-.4.4-.6 1-1.2 1.5v.2c.7-.6 2-.6 2.5-1.1v.1c-.6.8-1.5 1-2.6 1.3-.3.1-.6.6-.9 1l-.1.3-1 1.5c-.1 0-.3.1-.1.1.4 0 .8-.3 1.5-.5l.5-.1.1-.1c.8 0 1.3-.3 1.8-.9 0 0 .1 0 0 0-.4 1-.9 1-1.8 1.3-.9.3-2 .6-2.8 1.2-.2.8-1 1.4-1.1 2 .3.3.7.3 1.1.3h.6c1.2 0 1.2 0 2-.2l.9-.7c.2-.4.1-.8 0-1.2.4-1 1.6-1 2.1-1.5 0-.3.2-.6 0-.9-.2-.3-.5-.7-.4-1.2 0-.4.2-.7.6-.7.3 0 .5-.2.6-.4 0-.4 0-.7-.3-.9-.3 0-.7-.4-.7-.6-.1-1 1.2-1.3.6-2.2l-.7-.4c-.2 0-.5.2-.6.4zm-6.3-6.2c-.1.2-.3.3-.4.3-.6 0-.6-.7-1.2-.6-1 .2-.8 1.7-1.6 1.7-.3 0-1-.2-1.3.2-.6.3-.5 1.4-1 2.1-.2.4-.8.3-1 .8-.3.5-.4 1-.4 1.7-.3.8.1 1.6.5 2.3.2 0 .2-.2.3-.3.6-.8 0-2.1.5-3 0-.4 0-.6.2-.7.3.2-.1.5-.1 1v1.6c.4 0 .4-.6.6-.7.3-.2.4-.6.7-.9.6-.5.3-1.3.5-2v-1-.3h.2l.1 1.2-.1 1.2 1.4-1.6 2-2.2c.2.5-1.8 2.6-2.1 3h.1l.9-.4 1-.3h.3c.2.3 0 .3-.1.2l-.9.3-1.5.8c-.4.2-.8.4-1 1l-1 1v.3c.6-.2 1.6 0 2.2-.5l.6-.5h.1c-.6.8-1.3 1.3-2.3 1.3-.6.2-1.2.4-1.6.9l-.1.1c1.4 0 3 .4 3.7-.7 0-.3.2-.8.6-.9.6 0 1.5-.7 1.2-1.3-.3-1 1-1 1-1.5.4-.4.5-.7 0-1l-.2-.8.2-.4s.4-.3.4-.6c.2-.2.2-.3.2-.7 0-.2-.2-.5-.6-.5-.7 0-1 .4-1 .4zm-1.1-13c-.3.3-.7 1-1.5 1-.5 0-.5-.7-1.2-.3-.6.2-.7 1.2-1.3 1.8 0 .3-.5 1-1.1.8-.5 0-1 0-1.1.3-.7 1-.7 2.3-.7 3.2l.1.2c.4-.1.5-.2.7-.4.5-.4 1-.8 1-1.6 0-.4 0-.9.4-1.3 0-.1.3-.3.3-.1v.1c-.3.6-.4 1.2-.3 1.7l1.3-.8c.6-.3.9-1.7 1-1.9l.5-1.2.2.1-.5 1.4c0 .3 0 .7-.2.9l.4-.3c.5-.3 2.7-1.8 3.6-2.2h.5v.2c-1.1.4-2 1.1-3 1.8 1 .2 1.7.3 2.4.2h.6l-.3.1-1 .2c-.7 0-1.8-.2-2.4.2-.4.1-.4.1-.5.3-.6.3-1.1.6-1.5 1 .2.3.6 0 1 .3.9 0 1.6.6 2.6.1.1 0 .1.1 0 .1-.8.7-2 .3-2.8 0h-1.6c-.2.1-1 .7-1.3 1.2.7.6 1.6 1 2.3 1.2.6.3 1.4.3 1.7 0 .4-.2.1-.7.4-.9.6-.4 2 0 2.4-.8.2-.4.1-1.2.7-1.4l.8-.3c.4 0 1-.4.8-1.2-.2-.5-.7-.5-.7-.9-.1-.9 1-1.1 1.2-2 0-.5.3-.7-.2-.9-1-.2-1.2.8-2.1.6l-.4-.4c-.1-.3-.3-.5-.5-.6-.3 0-.5.1-.7.4zm-17.7-3.9c-.5.7.3 1.1.2 1.6-.2.2-.7.2-.7.6-.2.7.5 1 .8 1.4.3.1 0 .4 0 .5 0 .3-.3.5-.2 1 .2.7 1.3.2 1.7 1 .1.5-.4 1.2.3 1.8.4.6 1.3.8 2 1 .8.2 2 .3 2.4.1.2-.2 0-.2-.1-.4a6 6 0 01-2.4-.4c-.6-.2-.8-.4-1.2-1 .2 0 .4.3.6.4.8.4 1.8.6 2.7.7-.4-.3-.4-1-1-1-.8-.5-2-.9-3-1 1 0 2 .1 3 .5h.3c-.5-.5-.5-1.4-1.5-1.8-.7 0-1.4-.4-2.2-.6-.3 0-.5-.2-.8 0v-.2c1-.4 1.9.4 2.8.4l.5.1c-1-.9-1.7-1.8-2.6-2.8-.2-.3-.5-.4-.7-.8h.2a32.2 32.2 0 012.5 2.4c0-.9-.7-1.5-.8-2.2.5 1 1.2 1.5 1.1 2.7.6.6 1.1 1.4 1.6 2.2v-.1c0-.5.2-1 0-1.5v-1c.4 1 .5 2 .5 3.1 0 .4.1.8.5 1 .3-.2.2-.7.3-1l.2.1c0 .4 0 1-.2 1.3.1.5.4 0 .6 0 .5-.7.6-1.8.1-2.4-.1-.4-1-.7-1.3-1.3-.2-.4 0-1-.2-1.4-.6-.8-2.1-.4-2.4-1.5-.1-.2-.1-.7-.4-.8h-1.4c-.5-.4-.8-1.3-1.5-1zm7.8-9.7c-.6.4 0 1.4-.6 2-.2.3-.6 0-.7.5-.1.4-.2 1 .2 1.3.2.7-.7 1-.6 1.6-.2.4-.2.8 0 1 .1.3.4.4.4.7l.2.7c-.5.3-.6.7-.7 1-.3.4-.3 1.2 0 1.6.8.7 2 1 2.7 1.2.3 0 .6.3 1 0 0-.3 0-.3-.6-.4-.7-.3-1.6-.3-2.1-1h-.2c.3-.4.4 0 .7.2 1 .5 1.5.4 2.3.4v-1c-1.3-.2-1.7-1.6-2.3-1.7 0 0-.3 0-.3-.2.3 0 .6 0 .8.2.5.4.9 1 1.4 1.3.2 0 .3.2.5 0 .2-.4 0-1.1-.1-1.4l-.3-.6c-.8-.8-1.5-2-2.5-2.2v-.2c.5 0 .7.3 1 .4l1.6 1.5c-.2-1 0-2.2-.6-3-.1-.7-.5-1.4-.4-2.3.3 1.1 1 2 1 3.3h.2c.3-.8.4-1.5.8-2.2v.8c-.3.6-.3 1.4-.7 2 0 .8.2 1.2.3 1.9v.2l.1 1.6c.7-.4.9-1.2 1.2-1.8.1-.3.3-.3.4-.3 0 .2-.3.3-.3.4-.1.3-.4 1.6-1.2 2.3v1.7c.6-.6 1.2-1.5 1.9-2.1.4-.6.4-1.4 0-2-.2-.3-.5-.6-.4-1.1.2-.5.8-1 .5-1.7-.3-.6-1.7-.8-1-1.7 0-.3 0-.5-.2-.8-.2-.2-.5-.3-.8-.3-.3 0-1-.2-1.2-.8 0-.3 0-.7-.3-1a.9.9 0 00-1.1 0zm-4 93.7c-.6.7-1.4 1.2-2.1 1.6-1.5 1.5-2 3.2-4.6 3.8l-3 .7c-.6.1-1.2.5-2 .8l-.5.2c-.3.1-.5.2-.5.5v.4c.6-.3.8-.5 1.4-.6.7-.3 1-.3 1.7-.4.2.3-.4.2-.4.3-.6.2-1.4.3-2 .7 0 .2-.3.3-.3.5v.2l1-.4c1.6-.7 2.4-.8 3.4-1.6.8-.1 1-.2 1.2.3.1.5.6.7 1 .6 0-1-1.4-.7-.4-1.2h.3l2.6-1.3c3.5-1.3 4.5-.7 7-.7a2.6 2.6 0 000-1c-1.6-.6-4 .4-5.8.6-.4 0-.9.1-.9-.2.2 0 .9-.2 1.1-.5.8-.4 1.2-2.5 2.4-2.5-.4.4-1.5 1.7-1.1 2.1.3 0 2.2-2.9 2.7-3.3l-.9-1-1.4 1.4zm2.3.5l-1 1.7c-.3 0-.3.3-.4.4h2.7c0-.8-.3-1.4-.7-2a.5.5 0 01-.3-.4c-.2 0-.2.1-.3.3z"/><path fill="#f5c501" d="M246.3 213.1a4.7 4.7 0 00-1.2-.5l.7-.7c.3.3.4.8.5 1.2zm100.1-40a6.3 6.3 0 00-.1 1.3c0 1.2-.3 2.3-.7 3.3-.4 1.2-.3 2.9-.2 4l.2 1.1c.2.7.3 1 .7 1.3h.1c0-.5-.5-2-.5-2.7v-1.5c0-.7 0-1.6.5-2.2l.7-1.6c.2 0 0-.2-.2-.2v-.2c-.4-.1-.2-.6-.2-1l.2-1.7v-.3c0 .2-.3.3-.5.3zm7 40l1.2-.7c-.2-.1-.5-.3-.6-.6l-.6 1.2zm-40.1 45.8c-.8.2-2 0-2.9.2h-1.2l-.2.1c.7 0 1 .2 1.7.1h.9l3.3-.1c.5-.2 1 0 1.4-.2h1.4c.1-.1.3 0 .3-.2l-.3-.1-4.4.2zM255 246.5c.3.5 1 1.3 1.2 1.8.2.1.2.3.3.5l-1.8-.2h-.9c.1-.7.3-1.4.7-1.9l.3-.4.2.2zm94.3-72.5c1.1.2 2.3.7 2.8 1.3h.7v-.3l-2.6-1h-1zm-2 .2l1.1-.1c-.3-.3-.7-.2-1.1-.2zm-.1.7c0 .2-.2.5 0 .5s.3-.3.5-.3l.2-.3-.7.1z"/><path overflow="visible" fill-rule="nonzero" fill="#fff" color="#000" d="M348 192.5c0 .1 0 .7.5.7v-.3l-.4-.4zm-.7.2h-.2l.5 1.1h.4v-.2c-.3-.3-.4-.7-.6-1zm-.7.2c-.2.3 0 .5 0 .7l.7.9.2-.1-.4-.8c-.2-.4-.2-.7-.5-.7zm-.7.3c-.1.5.4 1.4.7 1.6.1 0 .3.2.3 0l-.8-1.6h-.2zm-.5.3c-.2 0-.3 0-.3.2.1.2.8 1.7 1.2 1.7l.1-.3c-.4-.3-.5-.6-.8-1.1a.7.7 0 00-.1-.4.3.3 0 00-.1 0zm-.9.2l-.2.1c.2 1 .5 1.6 1 2.3.3 0 .5 0 .5-.2-.2-.4-1-1.6-1.2-2.2z" style="marker:none"/><path d="M334.8 167.2h-69.6v72.2c0 15.4 31.3 2.7 34.7 11.7 3.3-9 34.9 3.7 34.9-11.5v-72.4z"/><path fill="#fff" d="M268 243l.4.5.7.6.8.4.9.4 1 .3 1.1.3 1.3.2 2.7.3h2.9c3.5 0 7-.2 10.6-.1l2.8.1 1.4.2 1.2.2 1.2.3 1.2.5 1 .6.7.5.7-.5 1-.6 1.2-.4 1.2-.4 1.3-.2 1.3-.2 2.8-.1 10.7.2h3l2.7-.3 1.2-.2 1.2-.3 1-.3 1-.4.7-.4.7-.5.5-.6.4-.7.3-.8.2-.9.1-1.2.1-70.7h-66.4v70.5l.2 1.2.2 1 .3.8z"/><path fill="#354990" d="M332.2 243l-.6.5-.6.5-.8.5-.9.4-1 .3-1.2.3-1.2.2-2.7.2-3 .1h-4l-49.4-56.8v-20.4h20.7l45.7 52.6V240.5l-.3 1-.3.7z"/><path d="M276.2 196.6c-.5-.5-1.5-1.2-1.8-1.8-.4 0-.6-1-.9-1a.7.7 0 010-.2c-.1 0-1.4-1.8-1.4-2h-.1c-.4 0-1.8-3.6-2-4.2-.6-2.3-1.7-5-1.2-7.3.1-.6.7-1.3 1.3-1.3.9-.1 2.4.7 3 .9h.2c.1-1.7-1.4-3.2-1.5-4l-2.4-1.2c.4-1.7 2.9-1.5 3-2.3 1-.5 2-.4 2.5 0 1.5 1.4 1.4 2.7 3 3.7-.2-1.2-.8-2-1-3.1 0-2 .3-2 1.8-2.2 1.4 0 2.6.2 4 .6 1.1.6 2.3 1.3 3.5 1.8v.1c.6.4 1.2 1 1.8 1.3v.2c.7.3 1 1.1 1.6 1.5v.2h.1l.1.1v.1h.1v.1h.1v.2h.2c0 .5 1.7 1.9 2 2.7.3 0 .4.6.4 1-.9-.2-1.5-.2-2.2-.6v.5c-.8 0-1.1-.4-1.8-.7v-.2h-.3v.3c-.4 0-.7 0-1-.2-.2.3-.6.2-.8.2a.7.7 0 010-.1.4.4 0 00-.1 0v-.2h-.2a.4.4 0 000-.1.7.7 0 010-.1.4.4 0 00-.2 0v-.1h-.2v.8c-.4 0-.5-.2-.8-.3v-.2h-.2a7.2 7.2 0 000 .4c-.4 0-.4 0-.6-.2l-.1.1.1.8h.1c0 .3.6.3.6.7l.6.3v.1c.3.2.8.7 1.2.8v.1l1 .7v.1c1.3.2 3.1.4 4.4 1.3 0 .7-.5.7-1 1l-.1.2.4.6c0 1.2-.4.5-.8.9.3.7.5.8-.2 1l-1.4-.4.3 1.2h-.8v-.2c-.1 0-.3 0-.4-.2l.2.8v.2l-.6-.1a.7.7 0 010-.1 1 1 0 00-.2 0v-.2h-.2l.3 1.2a3 3 0 00-.3.1c0-.2-1-.3-1.2-.4 0-.2-.6-.7-.7-.8 0-.2-.5-.4-.6-.5v-.1c0-.2-1.3-1.4-1.5-1.4a.7.7 0 010-.1l-.3-.2-.1.4h-.1l-.1.4a.3.3 0 00-.1 0v.1c-.7.4-.9.3-1.4-.1 0-.2-.5-.6-.6-.9a.4.4 0 00-.1 0l-.5-1.3a.7.7 0 010-.1c-.5-.3-1.2-.7-1.7-.8v-.1h-.2v-.2l-.6-.3v2h-.3c-.2.5.3 1.6-.5 1.5v-.1l-.5-.2v1.4l-.3.1.1.4h.1c.4.8.5 1 .6 2a4.2 4.2 0 00-.4 0 .3.3 0 000 .2c.2.4.7 1.5.6 2.1h-.4l.2 1.8-.4-.2c0 .5.3.8.2 1.3zm19.4 22.5c-.5-.5-1.5-1.2-1.8-1.8-.4-.1-.6-1-1-1.1a.7.7 0 010-.1 15.3 15.3 0 01-1.5-2.1c-.3 0-1.7-3.5-2-4.1-.5-2.3-1.6-5-1.2-7.3.2-.7.8-1.3 1.3-1.4 1 0 2.4.8 3 1h.3c0-1.7-1.4-3.2-1.6-4l-2.3-1.3c.4-1.6 2.8-1.4 3-2.2 1-.5 2-.5 2.5 0 1.5 1.4 1.4 2.7 3 3.7-.2-1.2-.9-2-1.1-3.2 0-1.9.4-2 1.8-2 1.5 0 2.6 0 4 .5l3.6 1.8v.1c.6.4 1.1 1 1.7 1.3v.1c.7.4 1 1.2 1.7 1.6v.1l.1.2.1.1h.1v.1h.1a.7.7 0 000 .2h.1c.1.4 1.7 1.9 2.1 2.7.3 0 .4.6.4 1-.9-.3-1.5-.3-2.2-.7v.5c-.8 0-1.2-.3-1.8-.7h-.3v.2l-1.1-.2c-.1.3-.6.2-.8.2v-.1l-.1-.2a.4.4 0 00-.1 0 .7.7 0 010-.1h-.1a.7.7 0 010-.1h-.1a.7.7 0 010-.2h-.2v.9c-.4 0-.5-.2-.8-.4h-.3v.3c-.3 0-.3 0-.5-.2a.6.6 0 00-.1.1l.1.7h.1c0 .3.6.4.6.8l.5.3v.1c.4.2.8.7 1.2.8v.1l1 .7c1.4.3 3.2.5 4.4 1.4 0 .7-.5.7-1 1v.1c0 .3.2.5.3.7h.1c0 1.2-.5.5-.8.8.3.7.5 1-.3 1l-1.3-.3.3 1.2h-.8v-.2l-.4-.2c0 .3 0 .4.2.7v.2h-.7v-.2h-.1l-.1-.1h-.1c0 .3.3.8.2 1.2l-.2.1c0-.2-1-.3-1.2-.4 0-.2-.7-.8-.8-.8 0-.2-.4-.5-.5-.5a.7.7 0 010-.1.4.4 0 00-.1 0c0-.3-1.3-1.4-1.4-1.5l-.3-.2-.2.4-.2.4c-.7.5-1 .3-1.5 0 0-.2-.5-.6-.6-1l-.5-1.2a.4.4 0 00-.1 0v-.2a7 7 0 00-1.6-.8h-.3a.7.7 0 010-.2l-.5-.3a.6.6 0 00-.1 0c0 .5.2 1.4 0 2l-.3-.1c-.1.6.4 1.7-.5 1.6v-.1l-.4-.2-.1 1.4-.2.1.1.4c.4.8.6 1 .6 2a4.1 4.1 0 00-.3 0 .3.3 0 000 .1c.2.5.7 1.6.6 2.2a6.6 6.6 0 00-.4 0c0 .5.2 1 .1 1.7a22.8 22.8 0 01-.4-.1c0 .4.3.8.3 1.3zm19.4 22.4c-.5-.5-1.6-1.2-1.9-1.8-.3 0-.5-1-.9-1a.7.7 0 010-.1 15.5 15.5 0 01-1.5-2v-.1c-.4 0-1.8-3.5-2-4.1-.5-2.3-1.7-5-1.2-7.4.1-.6.7-1.3 1.3-1.3 1 0 2.4.8 3 1a1.6 1.6 0 01.2-.1c.2-1.7-1.4-3.1-1.5-4a331 331 0 00-2.3-1.2c.3-1.7 2.8-1.4 3-2.2.9-.6 2-.5 2.5 0 1.5 1.4 1.4 2.7 2.9 3.7a1.4 1.4 0 01.1 0c-.3-1.2-.9-2.1-1.2-3.2 0-1.9.5-2 2-2.1 1.4 0 2.5.1 4 .6 1 .6 2.2 1.3 3.5 1.8.5.4 1.1 1 1.7 1.3v.2c.7.4 1 1.2 1.6 1.6v.1a.4.4 0 01.2 0V221.5h.2v.2h.2c0 .5 1.7 2 2 2.8.3 0 .4.6.4.9-.8-.2-1.4-.2-2.2-.6v.5c-.7 0-1.1-.3-1.7-.7v-.1h-.3v.2l-1.1-.1c-.1.3-.6.2-.8.1h-.1v-.2a.4.4 0 00-.1 0 .7.7 0 010-.1.4.4 0 00-.1 0 .7.7 0 010-.2H324.6v.7c-.4 0-.6-.2-.8-.3v-.1h-.3v.4l-.6-.2v.8h.2c0 .3.5.4.6.8l.5.3c.3.3.8.8 1.2.9l1 .8c1.4.3 3.2.5 4.4 1.4 0 .7-.5.7-1 1v.1l.3.7c0 1.2-.4.5-.8.8.4.7.5.9-.2 1l-1.3-.3c0 .3.3.7.2 1.1h-.7v-.1a13.9 13.9 0 00-.4-.2c0 .2 0 .4.2.7l-.1.2h-.6a.7.7 0 010-.2h-.2a20 20 0 010-.2h-.2l.3 1.3h-.2l-1.2-.3c0-.2-.7-.8-.8-.8 0-.2-.4-.5-.5-.5v-.1a.4.4 0 00-.2 0c0-.3-1.2-1.4-1.4-1.5-.1-.2-.1-.2-.3-.2l-.1.3-.2.4a.3.3 0 00-.1 0v.2c-.6.3-.8.2-1.4-.2 0-.1-.5-.5-.6-.9l-.5-1.3a.4.4 0 00-.1 0c-.5-.4-1.2-.8-1.7-.9l-.2-.1v-.1l-.6-.3c0 .5.2 1.4 0 2l-.3-.1c-.2.5.4 1.7-.5 1.5l-.5-.3v1.5h-.2v.5h.2c.3.7.5 1 .5 2a4.4 4.4 0 00-.3 0 .3.3 0 000 .1c.2.5.7 1.6.5 2.2a6 6 0 00-.3 0l.1 1.7-.4-.2c0 .5.3.9.2 1.3h-.2z"/><path d="M272 174.2l-1.3-.2a2 2 0 01-.1-.1c.4-.4.8-.6 1.4-.6.1.3.3.5.2.8l-.1.1zm2.6.5a26.8 26.8 0 00-.2-.5l-.2.1a.7.7 0 000 .2c-.4-.1-.6-.6-.9-.8v-.1l.5-.2c.4 0 1.4.5 1 1.3h-.2zm-3 .2l-.5-.4c.3 0 .5 0 .8.3l-.3.1zm4.3 0c-.3-.3-.5-.6-.6-1 .4.2.6.5.7 1a3.8 3.8 0 00-.1 0zm9.8 1c-1-.5-1.6-.6-1.7-1.8.6.3.6.3 1.3.4 0 .2.5 1 .5 1.3h-.1zm3.1.2l-1.2-.5c-.6 0-1.6-.2-1.7-.9.6 0 1 .4 1.7 0 .2 0 1.2.9 1.4 1.3zm-4 .1a1.7 1.7 0 01-.1-.1h.3a.7.7 0 00-.2.1zm-.8.3l-.1-.2c-.6-.2-1-1-1.1-1.6l.6.3c.2.2 1 1.2 1 1.5h-.4zm-.7.4l-.5-.5c.3-.3.7-.1.8.5zm-3 .3c-.3-.2-1.4-.6-1.3-1.1.4-.8-.8-2.2-1-2.7-.3-1-.3-1.5.4-1.9 2.3-.4 4.2 0 6.4 1.3v.2c.7.1 1 .7 1.6 1v.2l-2-.6a9.8 9.8 0 01-1.6-1.1h-.1l.7 1.8c-.4.2-1.5-.8-1.9-1 0 .2.2.5.5.8l.5 1.5v.1a76.3 76.3 0 00-1.3-.4l.2 1c-.6-.1-1-.5-1.4-.6l.5 1.5zm2.3.3c-.4-.5-.4-.7-.6-1.2.2 0 .7.7 1 1v.2zm-4.2.2c-.2-.2-.6-.5-.6-.7.3 0 .4.2.6.3v.3a.3.3 0 000 .1zm3.5.5l-.6-.4v-.2h-.1l-.1-.7c.7 0 1 .3 1 1.3h-.2zm4.8.7l-.3-.2a1.8 1.8 0 010-.2c-.6-.3-1.9-1.3-1-2 .4.4 1 1.8 1.4 2.4a.3.3 0 00-.1 0zm1 .1c-.7-.6-1-1.7-1.6-2.1l-.1-.4h.6c.5.8 1.2 1.4 1.3 2.5zm-2.3 0c-.6-.3-1-1.2-1.4-1.4a1 1 0 010-.2c1 0 .9.7 1.5 1.2v.4a.2.2 0 00-.1 0zm-1 .1c-.3-.3-1-.8-1-1.2h.3c.2.2.8.6.7 1.2zm7.3.2l-.9-.5a.7.7 0 010-.1c-.6-.3-1.8-1.4-1.9-2l1 .2c0 .2.3.4.5.5l1.4 1.9a.3.3 0 00-.1 0zm-1.7.3l-1-.6-1-1.5a.4.4 0 00-.1 0c-.2-.5-.6-.9-.8-1.2a.3.3 0 010-.1c.3 0 .5 0 .8.2.6.9 1.3 1.8 2.2 2.4v.8a.2.2 0 00-.1 0zm-6.3.1c-.4-.3-.9-.7-1-1.1l-.3-.1a1 1 0 010-.2l.7.1c0 .4.6.5.7 1.3zm-4.6 0c-.7-.8-.8-1.3-1.7-1.5a.7.7 0 000 .1c.1.3.5.8.5 1.2-.3 0-1.4-2.1-1.5-2.6-.3-.2-.7-.7-.6-1 .3.2.4.7 1 1 0 .5.3.5.3.9.3.1.6.4.9.1.1.3.2.2.2.6.5 0 1 .6 1 1.2zm2.5 1c-.3-.5-1-.9-1-1.3.6.2 1 .5 1.2 1.2a1.8 1.8 0 00-.2.1zm.4.8c0-.2-.5-.4-.7-.7l1 .5v.2zm-5 .3l-.3-.1c0-.2-.3-.4-.4-.5.3 0 .4.3.7.6zm1.8 1l-.8-.5c.2 0 1 .3 1 .5h-.2zm-.7.7c-.3-.2-.6-.2-.6-.5l.9.1v.4a5 5 0 00-.3 0zm3 .3l-.5-.4.6.2v.2zm-.8.5c-.2 0-1.5-.3-1.3-.8.3 0 1.2.3 1.4.7a.8.8 0 000 .1zm-5.2.6a74.4 74.4 0 01-.5-1l.5-.2.2.5h-.2v.7zm15.5.2a119 119 0 00-1.5-.7c.7 0 1.4.2 2.1.5a2.2 2.2 0 01-.6.2zm-13.4.3c-.8-1.4-.6-.7-.3-1.9.2.6.4 1.2.4 1.9h-.1zm-2.8.7c-.5-.2-.6-1-.6-1.6a.9.9 0 01.1 0v-.5l.5.1c.1.5.4 1.4.2 2a6.8 6.8 0 00-.2 0zm16.3.5l-.6-.3c-1.1-1-2.5-1.3-3.4-2.2.2-.3 1.3.5 1.6.7.6.2 2 .6 2.3 1.2.2 0 .3.3.5.6h-.4zm-14.8.3l-.6-1.3h.2v-.2h.2c.2.5.3.9.3 1.5zm1 .3c-.4-.3-.5-.2-.5-.6a.9.9 0 01.1 0c.1-.8-.4-1.4-.8-1.8-.1-.8-.5-1.1-.3-1.9h.1c.4.7.2 1.1.5 1.8.6.1 1 1 1 1.8h.1v.7zm4.7 0c-.3-.2-.8-1.1-.7-1.5l.7.1.2.9h.8c-.1.3-.7.5-1 .6zm8.4.3c-1.6-.6-2.7-2.3-4.1-3.3h-.2v-.2c.7 0 1 .5 1.9 1.1v.1c.5.4 2.5 1.3 2.8 2.3zm-1.2.9c-1-.7-1.6-2-2.6-2.7l-.6-.8.3-.3c.8.6 1.5 1.5 2.3 2.3.2 0 .1.2.4.3 0 .4.3.9.2 1.2zm-13 .2c-.5-.4-1-1.5-1.2-2.1h.5a5 5 0 011 2 3.7 3.7 0 00-.3 0zm11.9.2c-.3-.2-.9-.8-1-1.1a.6.6 0 00-.1 0v-.2c-.7-.4-1-1-1.6-1.3 0-.3-.7-.4-.8-.8h.5c0-.3-.2-.5-.3-.8.5.2 1.8 1.2 2 1.8.2 0 .9 1 1.2 1.4l.2 1h-.1zm-.6 1.2l-1-1-.5-.5c-1-1.4-1.8-2-3-2.8 1.4-.4 1-.2 2.3 1 .6.7 1.2 1.2 2 1.8l.3 1.5a6 6 0 01-.1 0zm-10.8.7l-.6-.4c-.2-.4-1.3-2.2-1.6-2.2-.4-1-.5-1.8-.7-2.8h.1l.8 1.6c.2.7.8 1.2 1 2 .5.4 1 .9 1.2 1.8zm-3.8 0v-.1h-.2c0-.5-.5-1.2-.7-1.5-1-2.4-2-5.8-2-8.4.4-1 .3-1 1.3-1.3 1.2 0 2.4 2 3.5 1 0-1-.5-2.2-.7-3.2-.4-.7-2.3-2.4-.5-2.3 0-.3-.3-.3-.4-.5a3.2 3.2 0 00-.2 0c0-.6-.2-1-.1-1.4.7-.4.7-.8 1.7-.8.4.3 1.2.5 1.2 1.3l.6.6h.2c.4.9 1.1 1.6 1.3 2.7-.3 0-.5-.5-.6-.8a.4.4 0 00-.1 0v-.2c-.2 0-.3-.3-.4-.5a5 5 0 01-.1 0c.3.6.6 1.5 1.3 1.8.1.2.7 1.2 1 .9l.8.6c.2.5.4 1.2.9 1.4l-.4-1h-.1v-.4c-.7-.6-1-1-1.3-1a1 1 0 010-.2.8.8 0 01.2-.1v-.1c-.3-.2-.3-.2-.4-.5a.4.4 0 00-.1 0v-.1l.5.2c.6.7 1.3 2.2 2.3 2.5-.2-.6-.4-.7-.8-1l-.6-.8c.5 0 1 .4 1 1 .8.6 1.2 1.4 2 2l.2.3h-.1c.1.4.4.5.6.9l-.3-.1v.1h.1v.2l.6.3v-.1c-.1-.8-.5-.8-.9-1.2.4-.5-.5-1-.7-1.2-.2-.4-.6-1-1-1.1v-.2c.7.4 1.6 1 2 1.8h.2c.2.8.6 1.2 1.2 1.8.4.2 1.8.4 2.1 1l.3.1v.2h-2.4l.7 1c-.6-.2-1.6-.7-2.1-.7v.1c0 .2.3.5.3.8h.2c0 .2.2.2.4.2v.4c-1-.2-1.9 0-2.7 0-1.2-.1-3-.6-3.8-1.5-.3-.7-.4-1-1-1 0-.4-.1-.4-.3-.5.1.5.3 1 .1 1.5h-.2l-.7-1.1c-.1-.5-.4-1.2-.8-1.3 0 .6.7 1-.1 1.9l-.1-.1c0-.7-.5-1.4-.8-1.8 0 .8.4 1.3 0 2.2l-.9-1.4c0 .4.2.9.4 1.4v.9c-.5-.2-.5-.7-.8-.7.6 1.7 1 2.9.9 5-.6-.2-.8-2-.9-2.5-.2-.7-.5-2-1-2.2 0 1.2.6 3 1 4.1l.3 2.7h-.1zm4 2.2c-1-1.2-2-3-2.8-4.4v-.4c.6 0 .8 1.5 1.3 1.8.6 1 1.5 1.6 1.6 3zm-.2 1.5c-.8-.6-1.4-2-1.9-2.8a.4.4 0 00-.1 0l-.2-.5-1-1.8h.3v-.2h.3l2 3.4c.3.7.7.8.8 2zm-.5.7a14 14 0 01-2.3-2.8c-.6-.6-.5-1.5-.5-2.3h.1c.5 1.2 1.3 2.2 1.8 3.4 0 0 1 1.2 1 1.7zm15.6 1.6l-1.4-.2v-.2c.4-.3.8-.5 1.4-.5l.2.8h-.2zm2.6.5c0-.2-.2-.3-.3-.5l-.2.1a.7.7 0 000 .1c-.3 0-.5-.5-.8-.7v-.1l.4-.2c.4 0 1.5.5 1.1 1.2h-.2zm-3 .2l-.6-.4v-.1c.4 0 .6 0 .9.4h-.4zm4.2 0c-.2-.3-.5-.6-.5-1 .3.2.6.5.7 1h-.2zm9.8 1c-.9-.5-1.5-.6-1.7-1.9l1.3.5c.1.2.6 1 .5 1.3zm3.2.2l-1.3-.5c-.5-.1-1.5-.2-1.7-1 .7.1 1.1.5 1.7 0 .3 0 1.3 1 1.5 1.4a9.3 9.3 0 00-.2 0zm-4 0a1.6 1.6 0 01-.1 0c0-.1 0-.2.2-.1a1 1 0 000 .1.7.7 0 00-.1 0zm-.9.4a6.5 6.5 0 000-.2c-.6-.2-1-1-1.2-1.6.3 0 .5.2.7.3.1.2 1 1.1 1 1.5h-.5zm-.6.4l-.5-.5c.3-.3.7-.1.8.4l-.3.1zm-3 .3c-.4-.3-1.4-.6-1.4-1.2.5-.7-.7-2.1-1-2.6-.2-1-.3-1.5.5-2 2.3-.4 4.2.1 6.3 1.4v.2l.2-.1c.5.2.9.8 1.4 1.1v.2l-2-.6a9.7 9.7 0 01-1.5-1.2l-.1.1.7 1.7c-.4.2-1.5-.7-2-1 .1.3.3.6.6.8l.4 1.6a1 1 0 000 .1l-1.2-.5c0 .5.2.6.1 1-.6 0-.9-.5-1.3-.5 0 .4.3.9.5 1.5h-.2zm2.2.3c-.4-.6-.4-.7-.6-1.3.3.1.8.7 1 1v.3zm-4.2.2c-.2-.2-.5-.5-.5-.8l.6.4v.3zm3.6.4l-.6-.3v-.2a.4.4 0 00-.1 0l-.1-.8c.7 0 1 .4 1 1.3h-.2zm4.8.8l-.3-.2v-.2c-.6-.3-2-1.4-1-2 .4.3 1 1.8 1.3 2.4zm1 0c-.7-.5-1-1.6-1.6-2a13.4 13.4 0 00-.2-.4h.7c.5.7 1.2 1.4 1.3 2.5zm-2.3 0c-.6-.3-1-1.2-1.5-1.3v-.2c1-.1 1 .7 1.5 1.2v.3zm-1 .2c-.4-.3-1-.9-1-1.2l.2-.1c.3.3.8.7.8 1.3zm7.3.2l-1-.5v-.1c-.5-.4-1.7-1.4-1.8-2l1 .1c0 .3.2.4.5.6l1.3 1.9zm-1.8.3l-.9-.7c-.3-.5-.9-1-1-1.5h-.1l-.8-1.2a2 2 0 01.8.2c.6.8 1.3 1.7 2.2 2.4l-.1.7zm-6.2.1c-.4-.3-1-.7-1-1.2h-.3a1.1 1.1 0 010-.2l.7.1c0 .4.6.5.7 1.3zm-4.6 0c-.7-.9-.9-1.3-1.7-1.5a.7.7 0 000 .1c0 .2.5.8.5 1.2-.4 0-1.4-2.1-1.5-2.7-.4-.1-.7-.7-.7-1 .4.3.5.8 1 1 0 .6.3.6.4 1 .3.1.5.4.8.1.2.3.2.1.3.6.4 0 1 .6 1 1.2zm2.5 1c-.3-.5-1-.9-1-1.4.5.3 1 .6 1.2 1.3h-.2zm.4.8c-.1-.3-.5-.4-.7-.7v-.1l.9.6v.2zm-5.1.3l-.2-.1c0-.3-.3-.4-.4-.5.3 0 .4.3.7.5a.5.5 0 00-.1 0zm1.9 1l-.8-.6c.1 0 1 .4 1 .6h-.2zm-.8.7c-.2-.3-.5-.2-.6-.5l1 .1v.3a4.7 4.7 0 00-.4 0zm3.1.3l-.6-.4c.3 0 .4 0 .7.2v.2zm-.8.5c-.2-.1-1.5-.4-1.4-.8.4 0 1.2.3 1.5.7a.7.7 0 00-.1.1zm-5.2.6a80.6 80.6 0 01-.5-1c.2-.1.2-.2.5-.2l.1.5v.7a.8.8 0 00-.1 0zm15.4.2l-1.4-.7c.7 0 1.4.2 2.1.4a2.2 2.2 0 01-.7.3zm-13.4.3c-.8-1.4-.5-.7-.3-2h.1c.2.7.4 1.2.4 2h-.2zm-2.7.7c-.5-.3-.6-1.1-.7-1.6a1 1 0 01.2 0v-.5l.4.1c.2.5.5 1.3.3 2a5.6 5.6 0 00-.2 0zm16.2.5l-.6-.3c-1-1-2.5-1.4-3.4-2.3.3-.3 1.3.5 1.7.7.6.3 2 .6 2.3 1.3.2 0 .3.3.4.5l-.4.1zm-14.7.3l-.7-1.3h.2l.1-.2h.2c.2.4.2.9.3 1.5zm1 .3c-.4-.3-.5-.2-.6-.7a.9.9 0 01.2 0c0-.8-.4-1.3-.8-1.8-.2-.7-.5-1-.4-1.8h.2c.4.7.1 1.1.5 1.8.6 0 .9 1 1 1.8l.1.7zm4.7 0c-.3-.3-.8-1.2-.7-1.5h.7c0 .7 0 .7.2 1h.7c0 .2-.7.5-1 .6zm8.3.3c-1.6-.7-2.6-2.4-4-3.3h-.3v-.3c.8.1 1.1.6 2 1.2v.1c.5.4 2.5 1.3 2.8 2.3zm-1.1.9c-1-.7-1.7-2-2.6-2.7l-.7-.8.4-.4 2.3 2.4c.1 0 0 .2.4.3l.2 1.2zm-13 .1c-.5-.3-1-1.5-1.3-2a1.2 1.2 0 00.6 0 .7.7 0 010-.1 5 5 0 011 2.1h-.3zm11.8.3l-1-1.1v-.2c-.7-.4-1.1-1-1.7-1.4 0-.2-.6-.4-.7-.7h.4l-.2-.8c.5.1 1.7 1.2 2 1.8l1.1 1.3c0 .5.3.6.3 1l-.2.1zm-.6 1.2c-.3-.3-.8-1-1-1 0-.3-.2-.4-.4-.5-1-1.4-1.8-2-3.1-2.8 1.4-.4 1-.3 2.4 1l1.9 1.8.3 1.4zm-10.7.6l-.6-.3c-.2-.4-1.4-2.2-1.6-2.3-.5-1-.6-1.7-.7-2.8h.1l.7 1.7h.1c.2.7.8 1.2 1 1.9.5.5 1 1 1.1 1.8zm-3.9.1v-.1c-.1-.5-.7-1.2-.9-1.6-1-2.4-2-5.7-2-8.3.5-1.1.4-1 1.3-1.3 1.2 0 2.4 1.9 3.6 1 0-1-.5-2.3-.8-3.2-.3-.7-2.2-2.4-.4-2.3-.1-.3-.3-.3-.4-.5h-.2c0-.6-.3-1-.1-1.4.7-.4.7-.8 1.7-.8.4.2 1.1.5 1.1 1.3l.6.6.1-.1.2.1c.4.9 1.1 1.6 1.3 2.7-.4 0-.5-.5-.6-.8h-.1a1.9 1.9 0 010-.2c-.3 0-.3-.3-.4-.5h-.2c.3.6.7 1.5 1.3 1.8.2.2.7 1.2 1 .9l.9.6c.2.5.4 1.2.8 1.4l-.4-1v-.5l-1.3-1a1 1 0 010-.2.8.8 0 01.2 0v-.2c-.3-.1-.4-.1-.5-.4v-.1l.5.2c.6.7 1.2 2.2 2.2 2.4-.1-.6-.4-.7-.7-1l-.6-.7c.4 0 1 .4 1 1 .7.6 1.1 1.4 2 2l.1.2v.1c.1.4.4.5.5.9l-.2-.1v.2l.6.3a.6.6 0 01.1 0c-.2-.8-.6-.8-.9-1.3.3-.4-.5-1-.7-1.1-.3-.4-.7-1-1-1.2v-.1c.7.3 1.6 1 2 1.8h.1c.3.8.7 1.2 1.2 1.8.5.1 1.9.4 2.2 1l.2.1v.2H304c.2.2.6.6.7 1-.7-.2-1.6-.8-2.2-.7v.1l.4.7h.2c0 .3.1.3.3.3v.3c-1-.1-1.8.1-2.7.1-1.1-.2-3-.7-3.8-1.5-.2-.7-.3-1-.9-1.1-.1-.3-.2-.4-.4-.4.2.5.4.9.2 1.4h-.2l-.8-1c0-.6-.4-1.2-.7-1.4 0 .7.7 1.1-.1 2l-.2-.1c0-.7-.4-1.4-.7-1.8 0 .8.3 1.2 0 2.2h-.1l-.8-1.5.3 1.5v.9c-.4-.2-.4-.7-.7-.7.5 1.7 1 2.9.8 4.9-.5 0-.7-2-.8-2.4h-.1c-.2-.7-.4-2-.9-2.3 0 1.3.6 3 1 4.2l.2 2.7zm4.1 2.1c-1.1-1.1-2-3-2.8-4.4v-.3c.5 0 .7 1.5 1.3 1.8.6 1 1.4 1.6 1.6 3zm-.2 1.6c-.8-.6-1.5-2-2-2.8l-.2-.5h-.1l-.9-1.8.3-.1a.7.7 0 010-.1h.2l2 3.4c.4.7.8.8.8 1.9zm-.5.7a14 14 0 01-2.3-2.9c-.7-.5-.5-1.4-.5-2.2.6 1.2 1.4 2.2 1.8 3.4.1 0 1 1.2 1 1.7zm15.6 1.5l-1.4-.1-.1-.2c.5-.3.8-.6 1.5-.5l.2.8h-.2zm2.6.6l-.3-.5h-.2a.7.7 0 000 .2c-.3 0-.6-.6-.9-.8l.5-.3c.4 0 1.4.6 1 1.3h-.1zm-3 .2l-.6-.4a.3.3 0 010-.1c.3 0 .6 0 .9.3v.1a5 5 0 00-.4 0zm4.2 0c-.3-.4-.5-.6-.5-1 .3.1.5.5.7 1a4.2 4.2 0 00-.2 0zm9.8 1c-1-.5-1.5-.6-1.7-1.9l1.3.5c0 .2.6.9.5 1.3zm3.1.1l-1.2-.5c-.6 0-1.6-.1-1.7-.8.6 0 1.1.4 1.7 0 .2 0 1.2.8 1.4 1.3h-.2zm-4 .2a1.6 1.6 0 010-.2h.2a1.1 1.1 0 000 .1.7.7 0 00-.2 0zm-.8.3a7.5 7.5 0 00-.1-.3c-.6-.1-1-1-1-1.5l.6.2c.1.2 1 1.2 1 1.6h-.5zm-.6.4l-.6-.5c.4-.3.7-.2.9.4zm-3 .2c-.4-.2-1.5-.5-1.4-1 .5-.8-.7-2.3-1-2.7-.3-1-.3-1.5.5-2 2.3-.4 4.1.1 6.3 1.4v.2l.1-.1c.6.2 1 .8 1.5 1.1v.1l-2-.5a9.8 9.8 0 01-1.6-1.2v.1l.7 1.7c-.5.2-1.6-.8-2-1 .1.3.2.6.5.8.5 1.2.5 1.2.5 1.6a69.7 69.7 0 00-1.3-.4c0 .4.3.6.2 1-.6 0-1-.5-1.4-.5l.5 1.4zm2.2.4c-.4-.6-.4-.8-.6-1.3.2 0 .7.7 1 1a3.3 3.3 0 000 .3zm-4.2.2c-.2-.2-.6-.5-.5-.8l.6.4v.3zm3.5.4l-.5-.4v-.2h-.2v-.7c.7 0 1 .3 1 1.3zm4.8.8l-.3-.3a1.9 1.9 0 010-.1c-.6-.3-1.9-1.4-1-2 .4.3 1 1.7 1.4 2.3a.3.3 0 000 .1zm1 0c-.7-.5-1-1.6-1.5-2l-.2-.4a.3.3 0 010-.1h.6c.5.8 1.3 1.5 1.4 2.6zm-2.3 0c-.6-.3-1-1.2-1.4-1.4v-.1c1-.1.9.7 1.5 1.2v.3zm-1 .2c-.3-.3-1-.9-1-1.2l.3-.1c.2.3.8.7.8 1.3a.2.2 0 00-.1 0zm7.3.2l-.8-.5a.7.7 0 010-.1c-.6-.4-1.8-1.5-2-2l1 .1c0 .2.3.4.5.6l1.4 1.8zm-1.7.2l-1-.6c-.2-.5-.8-1.1-1-1.5l-.9-1.2.8.1c.7 1 1.3 1.8 2.2 2.5v.7a.2.2 0 00-.1 0zm-6.3.2c-.3-.4-.9-.7-1-1.2a3 3 0 00-.3 0 1 1 0 010-.2h.7c.1.5.6.6.7 1.4zm-4.5 0c-.8-.9-.9-1.3-1.7-1.5a.7.7 0 00-.1 0c.2.3.6.9.5 1.3-.3-.1-1.3-2.2-1.5-2.7-.3-.2-.6-.7-.6-1 .3.2.4.8 1 1 0 .6.3.5.4 1 .2 0 .5.4.8 0l.3.6c.4 0 .9.7 1 1.3zm2.5 1c-.4-.6-1-.9-1-1.4.5.3 1 .6 1.2 1.3h-.2zm.3.7c0-.2-.5-.4-.6-.6v-.1l.9.6v.1zm-5 .4l-.3-.2c0-.2-.3-.4-.4-.4.4 0 .4.2.7.5zm1.8 1l-.8-.6c.2 0 1 .4 1 .6zm-.7.6c-.3-.2-.5-.1-.6-.5l1 .2v.3a4.7 4.7 0 00-.4 0zm3 .4l-.5-.4.7.2v.1a.2.2 0 00-.1 0zm-.7.5c-.3-.1-1.6-.4-1.4-.8.4 0 1.2.3 1.4.7a.8.8 0 000 .1zm-5.3.6a74.3 74.3 0 01-.5-1c.2-.2.3-.2.6-.2l.1.5h-.1v.6zm15.5.2a127.3 127.3 0 00-1.4-.8c.7 0 1.4.2 2 .5a2.2 2.2 0 01-.6.3zm-13.4.2c-.8-1.3-.5-.6-.3-1.9.2.6.5 1.2.4 2zm-2.8.8c-.4-.3-.6-1.1-.6-1.6a.9.9 0 01.1 0v-.5h.5c.2.5.5 1.4.2 2a10 10 0 00-.2 0zm16.3.5c-.2-.3-.4-.3-.6-.3-1-1-2.5-1.4-3.4-2.3.3-.3 1.3.5 1.7.7.6.2 2 .6 2.3 1.3.2 0 .2.2.4.5a6.7 6.7 0 00-.4 0zm-14.7.2l-.7-1.2a1.6 1.6 0 01.2 0v-.3h.2l.4 1.5zm1 .4c-.4-.3-.5-.2-.6-.7a.9.9 0 01.1 0c.1-.8-.3-1.4-.8-1.8-.1-.8-.5-1-.3-1.8h.1c.4.7.2 1.1.5 1.8.6 0 1 1 1 1.7h.2v.8zm4.6 0c-.3-.3-.8-1.2-.6-1.5h.6l.2 1h.8c0 .2-.7.5-1 .5zm8.4.3c-1.6-.7-2.7-2.4-4.1-3.3h-.2v-.3c.7.1 1.1.6 1.9 1.2.6.4 2.5 1.3 2.8 2.4zm-1.2.8c-1-.6-1.6-2-2.5-2.6 0-.2 0-.2-.7-.8l.4-.4 2.2 2.4c.2 0 .2.2.4.3 0 .3.3.8.2 1.1zm-13 .2c-.4-.4-1-1.5-1.2-2h.6a.7.7 0 010-.1 5 5 0 011 2 3.7 3.7 0 00-.4.1zm11.9.3c-.3-.3-.9-.8-1-1.2l-.1-.1-1.6-1.4c0-.2-.6-.4-.7-.8h.4c0-.3-.2-.5-.3-.7.5.1 1.8 1.2 2 1.7.2 0 .9 1 1.2 1.4l.2 1h-.1zm-.6 1.2c-.4-.3-.8-1-1-1-.1-.4-.3-.4-.4-.5-1-1.4-1.8-2-3.2-2.9 1.5-.3 1.2-.2 2.4 1l2 1.9.3 1.4h-.1zm-10.8.6l-.6-.3c-.2-.5-1.3-2.2-1.5-2.3-.5-1-.6-1.7-.7-2.8l.8 1.7c.2.7.9 1.2 1 1.9.6.4 1 1 1.2 1.8zm-3.8 0h-.1c0-.5-.6-1.2-.8-1.6-1-2.4-2-5.7-2-8.4.4-1 .3-1 1.3-1.2 1.2 0 2.4 1.9 3.6 1 0-1-.6-2.3-.8-3.3-.4-.6-2.2-2.4-.5-2.3 0-.2-.2-.2-.4-.4l-.2-.1c0-.5-.2-1 0-1.4.6-.3.6-.7 1.6-.7.5.2 1.2.5 1.2 1.2.1.3.3.4.6.6l.2.1c.5.8 1.2 1.6 1.3 2.6-.3 0-.5-.4-.6-.7a1.7 1.7 0 010-.2c-.3-.1-.4-.4-.5-.5h-.1c.3.6.7 1.5 1.3 1.7.1.3.7 1.3 1 1l.8.6c.3.4.4 1.1.9 1.4l-.4-1v-.5c-.8-.6-1-.9-1.3-1a1 1 0 010-.2.7.7 0 01.1 0v-.2c-.3-.1-.3-.2-.4-.4h-.1v-.1l.6.2c.6.6 1.2 2.2 2.2 2.4-.1-.6-.4-.7-.7-1l-.6-.8c.4 0 1 .5 1 1 .7.7 1.1 1.5 2 2v.3a.7.7 0 000 .1l.6.8a4.9 4.9 0 00-.2 0v.2a33.9 33.9 0 01.7.2c-.2-.7-.6-.7-1-1.2.4-.5-.5-1-.7-1.2-.2-.4-.6-1-1-1v-.2c.7.3 1.7 1 2 1.8h.2c.3.7.7 1.2 1.2 1.8.5.1 1.9.3 2.1 1l.3.1v.2h-2.3c.1.2.6.6.7 1-.7-.2-1.7-.8-2.2-.7l.4.8h.1c.1.3.2.2.4.3v.3c-1-.1-1.8.1-2.7.1-1.2-.2-3-.7-3.8-1.6-.3-.6-.4-1-1-1 0-.3-.1-.4-.3-.4.2.4.3.9.1 1.4h-.1l-.8-1c-.1-.6-.4-1.2-.8-1.4 0 .7.8 1.1 0 2l-.2-.2c0-.6-.4-1.3-.7-1.7 0 .8.3 1.2 0 2.1h-.2l-.8-1.4c0 .5.3 1 .4 1.5v.8c-.4-.1-.5-.6-.8-.7.6 1.8 1 3 .9 5-.5-.1-.7-2-.8-2.4a.4.4 0 00-.1 0c-.2-.7-.4-2-1-2.3 0 1.2.7 3 1 4.2l.3 2.7zm4 2.2c-1-1.2-2-3-2.7-4.4v-.3c.5 0 .7 1.4 1.3 1.8.6.9 1.4 1.6 1.6 3zm-.2 1.6c-.8-.7-1.4-2-1.9-2.9l-.2-.4h-.1l-.9-1.9h.2v-.2h.3l2 3.5c.4.7.7.8.8 1.9zm-.5.7a14 14 0 01-2.2-2.9c-.7-.5-.5-1.4-.6-2.2h.2c.4 1.1 1.2 2.2 1.7 3.4 0 0 1 1.2 1 1.7z" fill="#bcbec1"/><g><path d="M268 160.8a4 4 0 000 2v.6l-.8-.8a12.3 12.3 0 00-.4-.5 1.8 1.8 0 00-.7-.5 1.8 1.8 0 00-.7 0 2 2 0 00-1.9 1.3 2.1 2.1 0 00-.1.7c0 .7 0 1 .2 1.3.3.5 1 1 1.4 1.2l.4.4c1.1.7 2.4 1.1 3.6 1.1 1 0 2-.4 2.8-1.2a16.4 16.4 0 001.1-1.4c.1 1 .3 1.7.7 2.3l.5.4a10 10 0 004.2 2.9c1.7.6 3.8.6 6.5-.2a8.5 8.5 0 004-3.3l1-1.6a100.6 100.6 0 0120.4-.2c.3.6.6 1.3 1 1.8a8.5 8.5 0 004 3.3c2.7.8 4.8.8 6.5.2a10 10 0 004.2-2.9l.5-.4c.4-.6.6-1.2.7-2.3a16.6 16.6 0 001.1 1.4c.7.8 1.8 1.2 2.8 1.2a6.4 6.4 0 004-1.5c.5-.3 1.1-.7 1.4-1.2.2-.3.2-.6.2-1.3a2 2 0 00-.9-1.7 2 2 0 00-1.1-.4l-.7.1a1.8 1.8 0 00-.7.5 12.3 12.3 0 00-.4.5l-.8.8v-.6c.2-.7.3-1.4 0-2 0-.1-1-1-1.3-1a353.6 353.6 0 00-3.1-2.7c-1.6-.8-2.3.1-2.9 1l-.5.5c-.3.3-.7.4-1 .5-1 .4-1.8.6-1.7 2.4 0 1 0 1.7-.2 2.3-.2.6-.7 1-1.4 1.5-1.3.8-2 .2-2.8-.4a15 15 0 00-.5-.4l1.6-.7-.8-1-.4-.6v-.5c1.4.2 1.5-.3 1.3-1l-.1-.6c-.2 0-.3-.2-.5-.3l1.5-3.4 1-.8c.5.3.9.3 1.5 0 .7-.2 1.3-.9 1-1.7 1-1 .2-2.9-1.2-3 1.8-2.9 1.5-7 1-9.2-1.2-4.5-5.2-8-12.6-8.5v-.1l-1.1-.1-1 2a12.8 12.8 0 01-2.8.1l.3-.7-1.2-.2c-.6.7-2.3 1.4-3.1 1 1.8-.4 2.6-2 2.6-3.9h-.2c0-.8-.3-1.4-.8-1.9l-1.1-2.7 2.3 1v-4.5l-2.3 1 1-2.2H298l1 2.2-2.3-1v4.6l2.3-1-1.1 2.5c-.6.6-.8 1.2-1 2 0 1.8.7 3.4 2.5 3.9a2 2 0 00-.3.1c-1.1-.1-2.1-.4-2.7-1.3l-1 .7.2.7c-1 0-1.8 0-2.9-.3l-.7-1.7h-1l-.1.1c-7.9.3-12.5 3.6-13.6 8-.6 2.6-.5 7.2 1.3 10-.7-.2-1.4 0-1.9.5-1 .5-.1 1-.3 1.5l.3.8 1.1-.1v.2l2 1a2.5 2.5 0 002 2 .6.6 0 00.3 0l1.2 2.3-.5.3a1.4 1.4 0 00-.2.2l-.1.4c0 1 .5 1.3 1.4 1l-1.5 1.4 1.5 1v.2l-1 .7c-.9.6-1.5 1.2-2.8.4a3 3 0 01-1.4-1.5c-.2-.6-.2-1.3-.2-2.3.1-1.8-.7-2-1.6-2.4-.4-.1-.8-.2-1.1-.5-.2 0-.3-.3-.5-.6-.6-.8-1.3-1.7-2.9-.9l-3.1 2.6-1.3 1.1z"/><path fill="#4d8a7a" d="M284 162l.6.3.6.5-.5.5-.6.5-.7-.4-.6-.4.5-.6zm32.7.4l.5.6.4.6-.7.3-.7.4-.5-.7-.5-.6.8-.3zm-16.4-2.9l1.1.8 1.2.7-1.2.7-1.2.6-1.1-.7-1.1-.7 1.1-.7z"/><path fill="#fc0" d="M295.3 147.9c-.6-6-1.9-11.2-3.4-14.3h-.8c1.6 3.6 3 8.7 3.8 14.5zm8.2-13c-1 2.5-1.7 5.7-2.2 9.3h-.2l-.1-.2h-.3l-.2-.1a1.3 1.3 0 00.9-1.3 1.3 1.3 0 00-.7-1.1 1.6 1.6 0 00.3-2.8 2 2 0 00.5-3 5.4 5.4 0 002-.8zm-4.5 9.3a58.4 58.4 0 00-.1-1.1c.1.4.4.7.8.8a3.2 3.2 0 00-.3.1l-.3.1zm.2-5.5a1.6 1.6 0 00.3 2.8 1.3 1.3 0 00-.7 1.1c-.5-3-1.2-5.6-2-7.7.5.4 1.2.7 1.9.8a1.9 1.9 0 00.5 3zm1-7.5c1 0 2.1.2 3 .4 0 .6-.2 1-.4 1.4a10.3 10.3 0 00-2.6-.3c-1 0-1.9.1-2.6.3a3.2 3.2 0 01-.3-1.4 10 10 0 012.9-.4zm2.4 2.4a3 3 0 01-2.4 1.2c-1 0-2-.6-2.5-1.5a11 11 0 011.9-.1c1.1 0 2.1.1 3 .4zm-2.7-7.9l-.5 1-.7 1.6a3.4 3.4 0 013 0l-.7-1.5-.5-1 1 .4 1.7.8v-3.1l-1.7.8-1 .4.5-1 .7-1.7h-3l.7 1.7.5 1-1-.4-1.8-.8v3l1.7-.7 1-.5zm3 5.4a2.7 2.7 0 00-1.3-2v2zm-3.5-2.2v2h1.6v-2a2.4 2.4 0 00-1.6 0zm-2 2.2a2.7 2.7 0 011.3-2v2zm7.4 3.6a40.4 40.4 0 00-2.8 10.6v-.1l-.2-.2v-.2l-.2-.2v-.1c.5-4 1.5-7.6 2.6-10l.6.2zm-8.6-.2c1 2.6 2 6 2.7 9.9h-.1l-.1.3-.1.2-.1.2c-.8-4-1.7-7.6-2.8-10.2l.5-.4zm3.9 1.4c.6 0 1 .5 1 1.1a1 1 0 01-1 1 1 1 0 01-1-1c0-.6.4-1 1-1z"/><path fill="#fc0" d="M300.1 139a1 1 0 010 2 1 1 0 01-1-1c0-.5.5-1 1-1zm0 3a.7.7 0 010 1.4.7.7 0 010-1.3zm-10.5 11.7c-1.3-.3-2.5-2.5-.9-3.3-.8 1-.2 2.6.9 3.3zm4-4.2l-.1-1-3 .7.2.4h.1l.4.3.3.3.2.4.2.3.1.6v1.2l1.7-.4h-.1l-.2-.2-.2-.2v-.2a2.2 2.2 0 01-.3-.9v-.3l.1-.2.1-.2.1-.3.2-.1.2-.2zm10.4 6a4.6 4.6 0 01-.8-.2l.1-1.5.4.1h.4v1.6zm-8.1 0l.5-.2V154h-.6v1.5zm-4.2-11.8a61 61 0 00-1.5-3.2l-3 .9 1.5 3.2 3-.9zm-3.5 2l-3.2 1.8 1 2.9a19.3 19.3 0 013.3-1.6l-1.1-3zm6.6 9.7l-.5-2.3-2.3.7c.8 1.2 1.4 1.4 2.8 1.6zm-4-19.6l-.4-1.3-.3-.8-2.7.3c.4.6 1 1.3 1.4 2.1a22 22 0 012-.3zm2.1 7.7l-.5-2.7-.2-.6-1.1.1 1.4 3.2h.4zm-1-4l-.9-3c-.6 0-1.3 0-1.9.2l1.7 3 1.2-.2zm-2 .3a42.4 42.4 0 00-1.7-3l-3 1 1.7 3a20.2 20.2 0 013-1zm3.4 8a74.7 74.7 0 00-1.2-3.2l-3 .8 1.2 3.1 3-.7zm-9-9.7a17.1 17.1 0 00-3.2 1.9l1.7 2.9a17.4 17.4 0 013.2-1.8 35.2 35.2 0 00-1.7-3zm2 3.6a17.4 17.4 0 00-3.2 1.8l1.6 3.3a17.1 17.1 0 013.1-1.8 55.5 55.5 0 00-1.5-3.3zm-3.9-5.9l-.4.3a11.1 11.1 0 00-2.4 2l1 1.3a17.1 17.1 0 013.1-1.9 18.6 18.6 0 00-1.3-1.7zm5.3.3l-1.3-1.8a11 11 0 00-3 .9c.5.5.9 1.2 1.3 1.8l3-.9zm-7 15.3l.6-1a51.7 51.7 0 00-1.8-3.2 10.6 10.6 0 00-1.2 2.6c.1.5.4 1 .6 1.4l.4-.2h.3l.7.1.2.1.2.2zm-2.7-2.2a10.6 10.6 0 011.1-2.5 33.4 33.4 0 00-1.6-2.3 11.5 11.5 0 00.5 4.8zm4.5-5.2a13.7 13.7 0 00-2.5 2.5l1.8 3.1c.6-.8 1.4-1.6 2.3-2.3a48 48 0 00-1.6-3.3zm-2.2-3.4a13.2 13.2 0 00-2.4 2.7l1.7 2.6a13.6 13.6 0 012.5-2.5 27.6 27.6 0 00-1.8-2.8zm-2.9 2l.2.1a13.1 13.1 0 012.3-2.6 13.7 13.7 0 00-.9-1 11 11 0 00-1.6 3.5zm5.5 6.6l-1 1 1 1.1.4.1.5.4.3-.3.2-.1h.2l.2-.1.8-.6a64.4 64.4 0 00-1.1-2.8l-1.5 1.3zm4.6 1.3l-1.1.6 1 2.9.6-.3a3.8 3.8 0 01-.6-1.4 3.8 3.8 0 010-1.8zm-.5 4.2a68.7 68.7 0 00-.4-1l-.4.3a1.4 1.4 0 01-.3.3l.1.3.1.1v.4l.9-.5z"/><path fill="#ebce1f" d="M288.3 156l.2-1.2-.8.3z"/><path fill="#fc0" d="M283.3 155.7c.6.7 1.6 1.2 2.7 1.3 1.9.2 3.6-.8 4-2.3l.1-.2v-.1a2.6 2.6 0 000-.1v-.1l.4-.2c.2 0 .4 0 .6-.2h.2a3.3 3.3 0 00.1.3c.8 1.2 2.3 2 4 2 2.2 0 4-1.4 4.3-3.2h1.2c.2 1.8 2 3.2 4.3 3.2 1.7 0 3.1-.8 3.9-2a3.6 3.6 0 00.2-.4l1 .5v.1l.1.1v.3c.5 1.5 2.2 2.5 4.2 2.3 1 0 2-.6 2.6-1.3l.6.8a6 6 0 01-2.4 1.3c-2.5.7-5-.2-6-2-1 .8-2.4 1.3-3.9 1.3-2.1 0-4-.8-5-2.1h-.4c-1 1.3-3 2.1-5 2.1-1.6 0-3-.5-4-1.3-1 1.8-3.5 2.7-6 2a6 6 0 01-2.3-1.3l.5-.8zm23.3-6.2v-1l3 .7a70 70 0 00-.2.4h-.1l-.3.3-.3.3-.3.4-.2.3-.1.6v1.2h.1a21.7 21.7 0 00-1.8-.4h.2l.1-.2.2-.2.1-.2.2-.9v-.5l-.2-.2-.1-.3-.2-.1-.1-.2z"/><path fill="#fc0" d="M305.9 155.4h-.5l.5-2.3c.8.2 1.7.5 2.5.9l-.6.7-1 .5zm3.7-20l.5-1.2.3-.8 2.8.5-1.6 2a21.9 21.9 0 00-2-.4zM307 143l.7-2.7.3-.6 1 .3a63.4 63.4 0 00-1.6 3 23.8 23.8 0 00-.4 0zm1.2-4l1.2-3 1.8.4a45 45 0 00-1.8 3l-1.2-.3zm2 .5c.7-1 1.3-2 2-2.8l2.9 1-1.9 3c-.9-.5-1.9-.9-3-1.2zm-3.9 7.8l1.5-3.2a21 21 0 013 1 77.7 77.7 0 00-1.5 3 21.6 21.6 0 00-3-.8zm9.7-9.1a17 17 0 013 2l-1.8 2.9a17.3 17.3 0 00-3.1-2l1.9-3zm2-2.1l.4.2a11.2 11.2 0 012.3 2.2 24.9 24.9 0 00-1 1.2 17.1 17.1 0 00-3.1-2l1.4-1.6zm-5.3-.1l1.4-1.7c1 .2 2 .5 3 1l-1.5 1.8a20.1 20.1 0 00-2.9-1.1zm-4.6 7.5l1.6-3.1 3 1a67 67 0 00-1.7 3.2 20 20 0 00-3-1.1zm5.4-1.6c1.2.5 2.2 1.2 3.2 2l-1.8 3.2a17.1 17.1 0 00-3-2c.5-1.2 1-2.3 1.6-3.2zm3.8 2.5a13.7 13.7 0 012.3 2.7l-2 3a13.6 13.6 0 00-2.2-2.5 48 48 0 011.9-3.2zm5.2-1.3l-.1.2a13.1 13.1 0 00-2.2-2.8l1-1a11 11 0 011.3 3.6zm-10.9 2.5a18.7 18.7 0 013 2.2l-1.5 2.6a19.4 19.4 0 00-3-2l1.5-2.8zm4.8 4.1l.7 1.1-.1.2a3.2 3.2 0 00-.2 0 2.4 2.4 0 00-.4 0 1.4 1.4 0 00-.6.4l-.1-.1h-.2l-.2-.1H314.7l-.2.1-.2.2h-.1l-.6-.7a64.7 64.7 0 011.5-2.6l1.3 1.5zm-2.8 2.1l.2.2v.1a1.9 1.9 0 00-.2.8v.2l.3.6c-.2.2-.2.4-.2.6v.5l.3.4.2.3a3.6 3.6 0 00.7.4l-.2.3a4 4 0 01-2-.3 14.3 14.3 0 00-1-1c.6-1 1.2-2.1 1.9-3zm5-.1a11 11 0 00-.5-1l2-3c.5.8.9 1.7 1.1 2.6a11.5 11.5 0 01-.4.8 1.7 1.7 0 00-.8-.2 2.3 2.3 0 00-.4 0l-.5.3-.4.3v.2zm2.9-2a10.6 10.6 0 00-1-2.6l1.9-2.1a11.4 11.4 0 01-.9 4.7zm-1.7-8.8a13.2 13.2 0 012.2 2.9l-2 2.5a13.6 13.6 0 00-2.2-2.7 27 27 0 012-2.7zm-11-7.7l.9.2a80.5 80.5 0 00-5 14.3l-.2-.2-.3-.2c1.1-4.8 2.6-9.6 4.5-14zm-8.6 15.8c.8 0 1.4.9 1.4 1.9 0 1-.6 1.8-1.4 1.8-.8 0-1.4-.8-1.4-1.8s.6-1.9 1.4-1.9zm-6.7 1.9c.1-1.2 1.1-1.5 1.8-1-1.5-1.4 1.8-2.8 3 0-1.4.6-2.3.7-3.8.9 1.5 0 2.2 0 3.7.8v.2c-1.1 2.8-4.4 1.5-2.9 0-.7.5-1.7.2-1.8-1z"/><path fill="#fc0" d="M300 144.3c1.1.1 1.4 1.1 1 1.8 1.4-1.5 2.7 1.8 0 3-.7-1.3-.7-2.2-.9-3.7 0 1.4 0 2.2-.8 3.8h-.2c-2.8-1.2-1.4-4.6 0-3-.5-.8-.2-1.8 1-1.9z"/><path fill="#fc0" d="M306.7 150.8c0-1-1-1.3-1.7-1 1.5-1.5-2-2.8-3.2-.2 1 .6 1.7.7 2.8 1-1.2 0-1.7.2-2.7 1.2 1.1 2.7 4.6 1.4 3-.1.7.4 1.7.1 1.8-1zm-6.6-2.8l.3.7a1.4 1.4 0 00-.5 0l.2-.7zm-2.7 2.7l1 .3a2.8 2.8 0 010-.6 8.5 8.5 0 01-1 .3z"/><path fill="#fc0" d="M302.8 150.7a2.6 2.6 0 00-.8.4v-.8l.8.4zm-13-.7c.7-.1 1.5.5 1.6 1.5.2 1-.3 1.8-1 2-.8.1-1.6-.5-1.8-1.5-.1-1 .3-1.8 1.1-2zm21.3 0c-.8-.2-1.7.4-2 1.4-.3 1 0 2 1 2.2.7.3 1.6-.3 2-1.3.2-1-.2-2-1-2.3zm-30.6 4.6c.3-.4 1.1-.3 1.7.3.6.5.8 1.3.4 1.6-.4.4-1.1.3-1.7-.2-.6-.6-.8-1.3-.4-1.7zm3.5-2.2l-.2.5h-.3c.3-1.3-2.1-1.6-1.9.9 1 .4 2 .4 2.8-.2-.7.7-.8 1-1.2 1.8 1 1.4 3.5.1 1.8-1.2v-.2c2.3-.3.5-3.5-1-1.6zm-4 1.6h.8c.2-.7.2-.8 0-1.6-.5-1-1.8-1.2-2 .1-.5-.5-1.3-.8-1.8 0-.6 0 .2.9.3 1h-.3v.2c.7-.1 1-.2 1.7-.5.2.4.4.4.9.5l.2.2zm-.9-.7h.3v-.2l-.3-.2h-.1v.3z"/><path fill="#fc0" d="M278.3 154l1.5.9v-.3l-.3-.3-.6-.5h-.5z"/><path fill="#ebce1e" d="M283 155.2l.7-1.1c-.5.2-.7.3-1.2.3.3.3.4.4.5.8z"/><path fill="#fc0" d="M314.3 152.3c.6-.8 1.4-.6 1.7 0h.1c-.3-1 2.4-1.1 2 1.2-.2.6-1.9-.2-2.9-.5.7.5 1 .8 1.5 1.6v.7c-2 .8-3.5-1.5-1.6-1.6-.6 0-1.2-.6-.8-1.4z"/><path fill="#fc0" d="M316.3 153.8l1 .5v-.2l-.2-.2-.4-.3h-.3v.2zm-16 4.8l1.9 1.1 2 1.2-2 1.2-2 1.1-2-1.1-1.9-1.2 2-1.2zm0 .5l1.4 1 1.5.8-1.5.9-1.5.8-1.5-.8-1.4-1 1.4-.8z"/><path fill="#fc0" d="M298.4 162.7c-5.5.2-10.3 1-13 2l.4-.3 2-1.7-2-1.4-.5-.3c2.7-1.2 7.7-2 13.5-2.2l-1 .6-2.5 1.5 2.5 1.4.6.4zm-8.9-2.5l3-.3a1.4 1.4 0 011.6 1.2 1.4 1.4 0 01-1.2 1.6l-3 .4a1.4 1.4 0 01-1.6-1.3 1.4 1.4 0 011.2-1.6zm12.2-1.4c6.4.2 11.9 1.1 14.4 2.5l-1.1.4-2.2.9 1.5 1.8c-2.8-1-7.2-1.6-12.2-1.7l.6-.4 2.4-1.4-2.4-1.5zm8.7 1.4l-3-.4a1.4 1.4 0 00-1.6 1.3 1.4 1.4 0 001.2 1.6l3 .3a1.4 1.4 0 001.6-1.2 1.4 1.4 0 00-1.2-1.6z"/><path fill="#fc0" d="M316.4 161.8h-.3l-2.2 1 1.7 1.8.2.3.1-.7-1.1-1.3 1.5-.6zm-32-.8l.7.5 1.7 1.3-1.7 1.5-.7.5v-.9l1.4-1.1-1.4-1zm16.7-3.3v.1a.7.7 0 00.5.3h-.9l-.3-.4a3 3 0 000-.1.8.8 0 00-.5-.3c.5-.1 1-.2 1.2.4zm-.3-.4h.6c.2 0 .4.1.6.4v.1l.5.4c-.5 0-1 0-1.2-.5l-.1-.2a.8.8 0 00-.4-.2zm.9 0c.6-.2 1 0 1.4.6a.6.6 0 00.3.3c-.5.1-1 0-1.2-.5l-.1-.2-.4-.2zm1 0h.4c.3 0 .5.1.7.5l.1.1.3.3a1 1 0 01-.7 0l-.3-.4-.1-.2a1 1 0 00-.5-.3zm.9 0c.6 0 1 .1 1.3.7 0 .2.1.3.2.3a1.4 1.4 0 01-.7 0l-.4-.5v-.2a.8.8 0 00-.4-.3zm.9 0c.6 0 1 0 1.3.8l.3.3c-.3 0-.6 0-.9-.2a1 1 0 01-.3-.4 3.1 3.1 0 000-.1.9.9 0 00-.4-.3zm1 .2c.6-.1 1 0 1.2.7a.6.6 0 00.3.2c-.7 0-.9 0-1.1-.5a3.5 3.5 0 00-.1-.1 1 1 0 00-.4-.3zm.7 0c.7 0 1 0 1.3.7l.4.4a1.6 1.6 0 01-.9-.2s-.2-.1-.3-.4a2.8 2.8 0 000-.1.8.8 0 00-.5-.4zm1 .1c.5 0 1 0 1.2.7 0 .2.2.3.3.4-.3 0-.6 0-.8-.2l-.3-.4a2.4 2.4 0 000-.1 1 1 0 00-.5-.4zm.8.1c.6 0 1 .2 1.3.8 0 .2.1.2.2.3a1.7 1.7 0 01-.6 0l-.2-.2-.2-.4v-.1a.8.8 0 00-.5-.4zm.9.1c.6 0 .9.2 1 .8l.3.3-.6-.1-.2-.4a3 3 0 000-.2.9.9 0 00-.5-.4zm.7.1c.6 0 .9.1 1 .8.1.2.2.3.4.3a1.4 1.4 0 01-.7-.1l-.3-.4v-.2a.8.8 0 00-.4-.4zm.7.2h.5c.4.1.4.5.4.7a.8.8 0 00.5.4c-.2 0-.5 0-.7-.2l-.3-.4a3.1 3.1 0 000-.2.7.7 0 00-.4-.3zm-9.6 0h-.9l-.3-.4v-.1a.8.8 0 00-.6-.3h.6c.4 0 .6.1.8.5.1.2.3.3.4.3zm-1 0h-.7c-.2 0-.3-.1-.4-.4v-.1a.8.8 0 00-.5-.3c.6 0 1 0 1.3.6a.5.5 0 00.3.2zm-.9 0h-.7s-.2-.1-.3-.4l-.1-.1a.8.8 0 00-.4-.3h.4c.4 0 .6.2.8.6l.3.2zm-.8 0h-.7c-.1 0-.3 0-.4-.3a3.6 3.6 0 000-.2.8.8 0 00-.5-.2h.5c.4 0 .6.1.8.5a.5.5 0 00.3.3zm-.8.1h-.8c-.1 0-.2-.1-.3-.4a3.6 3.6 0 00-.1-.1.8.8 0 00-.5-.3h.4c.5 0 .7.1 1 .5 0 .2.2.3.3.3zm-.9 0c-.3 0-.5.1-.8 0l-.3-.3a3.2 3.2 0 00-.1-.2.7.7 0 00-.4-.2h.4c.4 0 .7.1.9.5 0 .2.2.2.3.3zm-.7.1h-1l-.3-.4a3.4 3.4 0 000-.1.7.7 0 00-.4-.2c.5-.1 1-.1 1.2.4.1.2.3.3.5.3zm-1 0c-.2.1-.4.2-.7.1l-.4-.3a2.2 2.2 0 000-.2.7.7 0 00-.6-.2c.5-.1 1-.2 1.3.4a.5.5 0 00.5.3zm-.8.2h-.8s-.2-.1-.3-.4a2.7 2.7 0 00-.1 0 .7.7 0 00-.5-.3c.5-.1 1-.2 1.3.4a.5.5 0 00.4.3zm-.8 0c-.2 0-.5.1-.8 0-.1 0-.3 0-.4-.3a3 3 0 00-.1 0 .8.8 0 00-.4-.3c.5-.2 1-.1 1.3.4.1.2.3.2.4.2zm-.8.2h-.8c-.2 0-.3-.1-.5-.3a3.2 3.2 0 00-.1-.2.8.8 0 00-.4-.2h.4c.4 0 .7 0 1 .4 0 .2.2.2.4.3zm-.9 0c-.5.2-1 .4-1.3-.2a3 3 0 00-.1-.1 1 1 0 00-.2-.1.9.9 0 00-.3 0c.3-.1.7-.3 1-.2l.4.4c.2.2.3.3.5.3zm-1 .2l-.8.2c-.2 0-.3-.2-.5-.4a3 3 0 000-.1.9.9 0 00-.6-.2c.5-.1 1-.3 1.4.2l.1.1a.7.7 0 00.5.2zm-.9.2c-.4.1-.4.2-.8.1a.8.8 0 01-.5-.3l-.1-.1a1 1 0 00-.5-.1l.4-.1c.3-.1.6-.1 1 .2a.7.7 0 00.5.3zm-.8.2l-.5.1h-.4a.7.7 0 01-.5-.2 3.1 3.1 0 00-.1-.2.9.9 0 00-.5 0l.6-.3a.9.9 0 01.7.3h.1a.7.7 0 00.6.3zm-1 .2l-.6.2a1 1 0 01-.7-.2 4.4 4.4 0 00-.2-.2.7.7 0 00-.5 0c.5-.3 1-.5 1.4 0h.1a.7.7 0 00.5.2zm-1 .3c-.7.2-.8.2-1.4-.1a1 1 0 00-.5 0c.4-.4.7-.5 1.3-.1h.2c.2.2.3.2.5.2zm-.7.2l-.3.1c-.7.3-1-.3-1.7-.1 1-.7 1.2 0 2 0zm-.7.3l-.4.2a2 2 0 01-.3 0 .7.7 0 01-.6-.1 3.5 3.5 0 00-.1 0 1 1 0 00-.5-.1c.6-.4.7-.3 1.3 0a1 1 0 00.6 0zm-.7.3l-.5.2h-.5l-.4-.2v-.2c.3-.2.6 0 .8.1h.6zm-.6.3l-.4.1a1.6 1.6 0 01-.1 0 .7.7 0 01-.3.1v-.5c.2.1.4.4.8.3zm-.7.3zm27.8-3l.6.1c.2 0 .4.2.5.5 0 .3.2.5.4.6l-.8-.3a.8.8 0 01-.4-.4 3.5 3.5 0 000-.2.5.5 0 00-.3-.3zm1 .2c.6 0 .7.1 1 .6l.5.6c-.4 0-.6 0-.9-.3a.7.7 0 01-.3-.5v-.1a1 1 0 00-.4-.3zm.7.2c.8 0 1 .2 1.2.7.1.3.2.4.4.5-.4 0-.4 0-.7-.2a.8.8 0 01-.3-.5l-.2-.2a1.2 1.2 0 00-.4-.3zm1 .2c.6.1 1.1.2 1.2.8 0 .3.2.4.3.6-.3 0-.5-.1-.7-.3a.8.8 0 01-.3-.5 1.1 1.1 0 00-.5-.6zm1.1.3c.5.2.9.3 1 .8 0 .3.1.5.3.6-.4-.1-.5-.1-.7-.3a.8.8 0 01-.3-.6v-.1a1 1 0 00-.3-.4zm.9.4a1.2 1.2 0 01.5.1c.3.2.4.3.5.7 0 .3.2.5.3.6-.3 0-.4 0-.7-.2a1.1 1.1 0 01-.3-.7v-.2a1 1 0 00-.3-.3zm.9.4c.3.1.6.2.7.6 0 .2.1.4.3.5v.3h-.1l-.3-.3a.9.9 0 01-.3-.6 3 3 0 000-.2 1.3 1.3 0 00-.3-.3zm.8.4l.2.1v.4a.5.5 0 01-.1-.2 2 2 0 000-.1.8.8 0 00-.1-.2zm-18.6 3c.5 0 1-.1 1.4.2l.2.3.1.2.6.3c-.8.2-1 .1-1.6-.5l-.1-.2c-.2-.2-.3-.3-.6-.3zm-1 0c.4 0 .8-.2 1.2.2l.2.3.2.2a1.3 1.3 0 00.5.3c-.7.2-1 .1-1.6-.5a4.3 4.3 0 00-.1-.2c-.2-.2-.3-.3-.5-.3zm-1.3 0c.5 0 1-.2 1.3.2l.3.3v.2l.7.3c-.8.2-1.2.2-1.7-.4a4.3 4.3 0 00-.1-.3l-.5-.3zm-1.3.1c.4 0 .7-.2 1.1 0a.9.9 0 01.3.1l.3.4.1.2.5.3h-1c-.3-.1-.4-.3-.6-.5v-.2c-.3-.2-.4-.3-.7-.3z"/><path fill="#fc0" d="M294 163.5a3 3 0 011.1 0 .8.8 0 01.4.1l.2.3.1.2a1.1 1.1 0 00.5.3 2.2 2.2 0 01-1 0c-.4 0-.5-.3-.6-.4l-.2-.2c-.1-.2-.2-.3-.5-.3zM292.9 163.6c.3-.1.6-.2 1-.1a.8.8 0 01.3.2l.2.3.1.2.6.3a2.5 2.5 0 01-1 0c-.3 0-.4-.3-.6-.5a3.6 3.6 0 00-.1-.1c-.2-.2-.3-.3-.5-.3zM291.7 163.7c.4 0 .7-.2 1-.1a.7.7 0 01.4.2l.2.2.1.2.5.3h-1c-.2 0-.3-.2-.5-.4a3.2 3.2 0 000-.1c-.2-.2-.3-.3-.7-.3z"/><path fill="#fc0" d="M290.8 163.8l1-.1a.7.7 0 01.3.2l.1.2.1.2.6.3h-1c-.2 0-.3-.2-.5-.4v-.1c-.2-.2-.3-.3-.6-.3z"/><path fill="#fc0" d="M289.9 164c.3-.2.6-.2.9-.2a.7.7 0 01.3.2 1.7 1.7 0 01.1.2l.1.2.5.3a3 3 0 01-.9 0c-.2 0-.3-.2-.4-.4a3.2 3.2 0 00-.1-.1c-.2-.2-.3-.3-.5-.3z"/><path fill="#fc0" d="M289 164c.3 0 .5-.1.8 0h.3l.2.3v.2l.6.2c-.3.1-.6.2-1 .1l-.4-.4v-.1c-.2-.2-.3-.2-.5-.2z"/><path fill="#fc0" d="M288.1 164.2c.3 0 .5-.2.8-.1a.6.6 0 01.3.1l.1.2.1.2c.2.2.4.2.5.2-.3.1-.6.2-.8.1-.2 0-.3-.2-.4-.3l-.1-.1c-.2-.2-.2-.3-.5-.3z"/><path fill="#fc0" d="M287.4 164.4l.7-.2a.6.6 0 01.2.2l.2.2v.1l.5.3c-.3 0-.5.1-.8 0-.2 0-.3-.1-.4-.3a2.6 2.6 0 000-.1l-.4-.2zm-.7.2c.3-.1.5-.3.8 0l.1.1.1.2.4.2a1.4 1.4 0 01-.7.1l-.3-.3v-.1l-.4-.2zM286 164.8l.6-.2a.5.5 0 01.2.1l.1.2.1.1.4.2c-.2 0-.3.2-.6.1-.2 0-.3-.1-.3-.2a3 3 0 00-.1-.1c-.1-.2-.2-.2-.4-.2z"/><path fill="#fc0" d="M285.5 165c0-.1.2-.2.5-.2a.5.5 0 01.2 0l.1.3.4.3h-.5c-.1 0-.2 0-.3-.2l-.4-.2z"/><path fill="#fc0" d="M285 165.3c0-.1.2-.3.4-.3h.2l.2.2v.1l.4.2-.5.2-.3-.2a1.8 1.8 0 00-.1-.1c-.1-.1-.2-.2-.4-.1z"/><path fill="#fc0" d="M285 165.3a.5.5 0 01.1 0 1.1 1.1 0 01.2.2l.4.2-.3.1c-.6.1-1-.4-.5-.5zm.2 1zm29.5-1.5l.6.2c.5.4.2.8 0 .7-.1 0-.2-.1-.2-.4a1.9 1.9 0 000-.1.7.7 0 00-.4-.4z"/><path fill="#fc0" d="M314 164.6c.4.1.8.1.9.6 0 .2 0 .4.2.5l-.6-.2c-.2-.2-.1-.4-.2-.6a.7.7 0 00-.4-.3z"/><path fill="#fc0" d="M313.1 164.4c.5 0 .9 0 1 .6.1.3.2.4.4.5a1.3 1.3 0 01-.6-.2h-.2a.6.6 0 01-.2-.5 1 1 0 00-.4-.4z"/><path fill="#fc0" d="M312 164.2c.5-.1 1.2 0 1.3.6l.4.5c-.7 0-.8 0-1.3-.7a5.3 5.3 0 00-.2-.3 2.5 2.5 0 00-.2-.1zm-1.3-.3c.3 0 .7 0 1.2.3l.2.4.2.2c.1.2.3.2.4.3a2.6 2.6 0 01-1-.1l-.5-.6a5.3 5.3 0 00-.2-.2 1.8 1.8 0 00-.3-.3zm-1.3-.1h1a1 1 0 01.3.2l.2.4.1.2.5.3h-1l-.6-.7a5 5 0 00-.2-.2 1.4 1.4 0 00-.3-.2zm-1.4-.2c.6 0 1-.1 1.4.3l.2.3.1.3a1.4 1.4 0 00.6.2c-.9 0-1.1.2-1.7-.6a5.6 5.6 0 00-.2-.2l-.4-.3zm-1.4-.1c.5-.1 1.1-.1 1.5.3l.2.3.1.3.6.3a3 3 0 01-1.1-.1c-.4-.1-.5-.4-.7-.6a5.6 5.6 0 00-.1-.2.8.8 0 00-.5-.3zm-1.4-.1c.5 0 1.2-.1 1.5.2l.2.4.2.2.5.4h-1.2l-.6-.7a5 5 0 00-.2-.2c-.1-.2-.2-.2-.4-.3zm-1.5 0c.6-.1 1.1-.2 1.6.2l.2.3a4.9 4.9 0 00.2.2l.5.4a3.4 3.4 0 01-1 0c-.4-.2-.5-.4-.7-.6a4.7 4.7 0 00-.1-.2c-.2-.3-.4-.4-.7-.4z"/><path fill="#fc0" d="M302.5 163.3c.7 0 1-.2 1.5.2l.2.4.2.2c.2.2.3.3.5.3h-1.1c-.3-.1-.5-.4-.7-.6a5.3 5.3 0 000-.2l-.6-.3zm-1.3 0c.5-.1 1.1-.2 1.5.2l.2.3.1.2c.2.3.4.3.6.4h-1.1c-.3-.1-.5-.4-.6-.6a4.7 4.7 0 00-.2-.2c-.2-.2-.3-.3-.5-.3zm-.2 0a1 1 0 01.4.2l.2.3.1.2.6.4h-1l-.6-.6a4.3 4.3 0 00-.2-.2c-.2-.2-.3-.3-.6-.3h1z"/><path fill="#f3d944" d="M300.2 155.3c.5.8.8 1 1.5 1.6a11 11 0 00-3 0c.7-.5 1-1 1.5-1.6zm9.2.9a6 6 0 01-1.8 1l3 .5c-.5-.6-.8-.8-1.2-1.5zm-18.3.3l1.3.7-2.2.3 1-1z"/><path fill="#fc0" d="M319.7 153.9c-.3-.4-1-.3-1.7.3-.6.5-.7 1.3-.4 1.6.4.4 1.1.3 1.7-.2.6-.6.8-1.3.4-1.7z"/><path fill="#fc0" d="M321 152.1l-.2.4v-.2c.1-1-2-1.3-2 1 .8.4 1.8.4 2.5-.1-.7.6-.7.8-1.1 1.6.6 1 2.8-.2 1.6-1.1v-.1c2.1-.3.4-3.1-.9-1.5z"/><path fill="#fc0" d="M320.2 154.2l.4-.6-.8.2a1 1 0 01.4.4z"/><path fill="#ebce1f" d="M282.7 157.3l1.2 2 2-.7a6.7 6.7 0 01-3.2-1.3zm35.4-.3l-1 2.4-2.3-1a7.4 7.4 0 003.3-1.4zm-30.3-.9l-.6-.8a10.4 10.4 0 01-1 .5c-.1.2-.2.3-.5.4v.3c1 0 1.7 0 2.1-.4z"/><path fill="#c33" d="M304.7 135.3a63.4 63.4 0 00-2.4 10h.1l.2.1.1.2.3.3.1.4.1.4v.7l.6.2a57 57 0 013.8-12.4c-1 .1-1.9.2-3 .1zm-9 .2a62.7 62.7 0 012.3 9.7h-.2l-.2.1-.1.2-.2.1-.2.3-.2.4v1.3l-1 .2a55.1 55.1 0 00-3.1-12.6c.9.2 1.9.3 2.9.3zm14.5 25l-2.6-.3a1.1 1.1 0 00-1.3 1c0 .6.4 1.2 1 1.2l2.6.3a1.1 1.1 0 001.3-1 1.1 1.1 0 00-1-1.2zm-20.4 0l2.7-.3a1.1 1.1 0 011.2 1 1.1 1.1 0 01-1 1.3l-2.6.3a1.1 1.1 0 01-1.3-1 1.1 1.1 0 011-1.3zm12.6-5.9l.2-1.1a4 4 0 01-.9-.7l-.3.2c.2.8.5 1.1 1 1.6zm-5.4.5l-.2-1c.8-.3 1.2-.5 1.7-1.4l.4.3a3 3 0 01-2 2z"/><path fill="#fff" d="M300.3 160l.3.8 1.5.1-1.5.2-.3.9-.3-.9-1.6-.2 1.6-.1.3-.9zm-16.8 3l1.5-.2h-1.5l.4-.7-.9.8 1 .8zm27.1-1.6v-.3c-.4-.4-3-.6-3.2-.4-.2.1-.3.2-.2.4l1.2.4c.2-.4.8-.4 1.1 0h.2c0-.2.2-.2.3 0l.6-.1zm-21.3 0v-.3c.4-.4 3-.6 3.2-.4.2.1.3.2.2.4a3.4 3.4 0 01-1.2.4c-.2-.4-.8-.4-1.1 0h-.1c0-.2-.3-.2-.4 0a1.5 1.5 0 01-.6-.1zm27.5 2.2l-1.3-.5 1.4.2-.3-.7.7 1-1.1.5zM300.7 125l2.4-1v2l-.2-1.6zm-.2.6l.9 2.4a3 3 0 00-2-.1c.5-.1 1-.3 1.6-.3l-.6-2zm-1.1-.7l-2.2-1v1.5l.2-1 2 .5zm-.2-2.4h2.3l-.8 1.8.2-1.6c-.5-.2-1-.2-1.7-.2zm19.3 23.9l2-3c.2.2.3.4.5 1.1l-.3-1.5c.3-.6.4-.6.8-1.7l-1 1.4-1.3-1.6-.6-.6-.8-.6 1.3-1.8 1.2 1.4c-.5-1-.8-1.1-1-1.5l.3-.7-.3-.3-.4.7c-1.1-1-1.6-1.2-3.1-2.1l.4-.7-.5-.2-.5.7c-1-.5-2.6-1-3.8-1.2l.3-.7h-.3l-.4.7-1.2-.2-.2.3 1.2.1-.8 1.7-.6-.1-.2.5.6.1-1.5 3.5h-.5l-.2.4h.4l-2.3 6.3.9-2 2.8 1-1.2 3.2-2.3-.5 2.2.7-1.5 4.8 2-4.6.6.2-.6-.4 1.4-3.2c1.5.8 1.6 1 2.8 1.8l-.7 1.7.8-1.6 2.3 1.7c-.7-.8-1.3-1.5-2-2l2-3.7c1.5 1.2 1.7 1.5 2.8 2.7l-2 4 2.3-3.8 1.3 1.4-1.6 3.2c.8-1.1 1.2-2.1 1.8-3l.6.9-.5-1 2.2-3.3-2.3 3-1.3-1.6zm-.2-.2l-2.7-2.8 2-3.1s1.6 1.1 2.6 2.7zm-3.4-2.5l-2 3.7-2.7-1.9 1.8-3.6 3 1.8zm-5.3 1.6l-2.8-1c.4-1.2 1-2.4 1.6-3.6 1.1.3 2 .5 3 1l-1.8 3.6zm2.1-4.1a16.3 16.3 0 00-3-1.1l1.6-3.4c1.4.4 1.6.5 3.3 1.2a88.3 88.3 0 00-1.9 3.3zm3.5 2c-1.2-.8-1.8-1.3-3-1.8l1.9-3.2c1.1.5 2 1 3.1 1.8zm2.3-3.6c-1.6-1.2-1.7-1.2-3-2l1.1-1.8c.9.4 2 1.2 3.1 2zm-3.6-2.2c-1.6-.7-1.8-.7-3.4-1.2l.8-1.7c1.2.2 2.4.5 3.8 1.1l-1.2 1.8zm-32.4 9.4l-2-3-.5 1.1.3-1.4-.8-1.8 1.1 1.4 1.2-1.6.7-.6.7-.6-1.3-1.8-1.1 1.4c.5-1 .7-1.1 1-1.5l-.4-.7.3-.2.5.6c1.1-1 1.5-1.2 3.1-2.1l-.5-.7.5-.2.5.7c1-.5 2.7-1 3.9-1.2l-.3-.6h.3l.4.6 1.2-.2.1.4h-1.2l.8 1.7h.7l.2.4-.7.1 1.6 3.5h.5l.1.4-.4.1 2.3 6.3-.8-2-2.8 1 1.1 3.1 2.3-.5-2.2.7 1.5 4.8-1.9-4.6-.7.2.7-.4-1.4-3.2c-1.5.8-1.7 1-2.8 1.8l.7 1.7-.9-1.6-2.2 1.7c.6-.8 1.2-1.5 2-2l-2-3.7c-1.5 1.2-1.8 1.5-2.9 2.7l2.1 4-2.3-3.8-1.4 1.4 1.6 3.2-1.7-3-.6.9.5-1-2.2-3.3 2.3 3 1.2-1.6zm.3-.2l2.7-2.8-2-3.1s-1.6 1.1-2.7 2.7l2 3.2zm3.3-2.5l2 3.7c1-.8 1.4-1 2.8-1.8l-.9-1.9-1-1.8-2.9 1.8zm5.4 1.7l2.8-1-1.6-3.7c-1.2.3-2 .5-3.1 1l1 1.8.9 1.9zm-2.2-4.2a16.3 16.3 0 013.1-1.1l-1.6-3.4c-1.5.4-1.6.5-3.4 1.2a90 90 0 012 3.3zm-3.4 2c1.2-.8 1.8-1.3 2.9-1.8l-1.8-3.2c-1.2.5-2 1-3.1 1.8l2 3.2zm-2.3-3.6c1.6-1.2 1.6-1.2 3-2l-1.2-1.8c-.8.5-2 1.2-3 2zm3.5-2.2l3.4-1.2-.7-1.7c-1.2.2-2.5.5-3.8 1.1l1.1 1.8zm23.2 16c-.4 2-1.9 2.8-4.5 2.3 2.7 0 3.9-1.3 4.5-2.3zm7.9 2c-1 1.7-3 2.2-5.6.9 2.6.6 4.2.4 5.6-1zm-26-1.8c0 1.2.8 3.1 5.1 2.2-3.8.1-4.3-1.2-5.1-2.2zm-7.6 2.3c.5.8 3.5 2.8 6.2-.6a5.2 5.2 0 01-6.2.6z"/><path fill="#fff" d="M309.4 153c-.8-1.4.6-3.8 2.2-2.6-1.7-.3-2.5 1.3-2.2 2.7zm-19.4.4c1.7.2 1.8-3.4-.3-3.2 1.8.7 1.5 3 .3 3.2zm5.4-1.5c-1 1 .7 2.2 2.3.7-2 1-2.7 0-2.3-.7zm0-2.3c-.7-1 .6-1.9 2-.8-1.7-.7-2.3.2-2 .8zm0 .4c-1.2-.8-2.3.5-1.6 1.5-.3-1 .4-1.6 1.6-1.5zm6.3-20.7c.8.5.8.8 1 1.7-.3-.8-.5-1-1-1.7zm-.9-.4h-.3l-.1 1.1.5.7zm-2.3.5v.1c-.4.4-.6.8-.8 1.4v-.1c0-.6.4-1 .8-1.4zm-.9 2.3c2-.5 3-.6 5.4 0 0 .6 0 .7-.3 1.2-1.6-.3-2.6-.4-4.4-.1 1.6-.3 2.7-.4 4.3 0l.2-1c-2.1-.6-3.2-.5-5.2-.1zm4.4 2.4c-1.2.8-2.3.9-3.5 0 1.2.6 2.4.5 3.6-.5zm-1.7 2c.3 0 1 .4.7 1.1-.8.6 0-.6-.7-.8-.2 0-.6 0-.6-.2.1-.2.4-.2.6-.2zm.1 3c.2 0 .7.4.6 1-.7.5-.1-.5-.6-.6-.2 0-.5 0-.5-.2s.3-.1.5-.1zm-.1 3c.1 0 .5.3.4.7-.5.3 0-.4-.4-.5h-.4c.1-.2.3-.2.4-.2zm-1 3.5c0-1.8 2.2-1.1 1.6.2-.4-1.4-1.5-.9-1.7-.2zm1.5.9c1.2-1.6 2.6.2 1 2.1 1.2-2.6-.2-2.7-1-2.1zm-1.7 0c-1-1.4-2.3 0-.8 2-1-2.6.2-2.4.8-2zm5.8 3.3c.8-.8-.5-2.4-2.6-.9 1.9-1 2.9-.1 2.6.9zm0 2.1c1 .7-.4 2.2-2.3.9 1.7.7 2.6 0 2.4-.9zm.1-2c1-.4 1.9.4 1.3 1.3 0-.8-.3-1.4-1.3-1.2zm-3.7 1.9c.6-2-1-3.3-1.7-2.2.8-.6 1.8.5 1.7 2.2z"/><path fill="#fff" d="M301 151.6c.3-2.2-1.3-2.4-1.3-1.8.7-.3 1.2.4 1.4 1.8zm17.8 2.2c1.3-.4 1.3 1.6-.1 2 .6-.6 1.2-1.7.1-2zm4-1.2c-.3-1.2-1.7-1.3-2 .2.4-1 1.4-1.4 2-.2zm-2 0c0-1.3-1.8-1.4-2 .6.4-1.5 1.5-1.8 2-.7zm-2.8.8c.2-.3 0-1-.3-1.4-.4-.4-1-.6-1.5 0v.2c.5-1 1.9.2 1.8 1.2zm-2-1c-.6-1-1.9-.4-1.7.7.1-1.2 1-1.3 1.6-.7zm-35 2c-1 0-.8 2 1 2.3-1-.5-1.9-1.7-1-2.3zm-.2-.5c.5-1-.8-3-1.8-1.8 1.3-.6 1.8 1.1 1.8 1.8zm-2-1.2c-.4-.5-1.4-1-1.7-.1.5-.4 1-.3 1.7.1zm4.7.2c-.1-1.6-2-.9-1.8.8 0-.8 1-2.2 1.8-.8zm2.5.3c0-1.7-1.8-1.5-2.2-.2.7-1 2-1.1 2.2.2z"/><path fill="#c33" d="M266.8 165.5c.4 0 .8-.3 1-.7a2.2 2.2 0 00.2-.8l-.7-.8a1.2 1.2 0 010 .6.7.7 0 01-.4.3 1.6 1.6 0 01-1.1.3l.6.7.4.4zm4.6-4.3c-.3-.2-.8-.3-1.3-.3h-1.3l-.4.1c-.2.5-.2 1.1 0 1.8v1.3a2.6 2.6 0 01-.3 1c-.3.7-1.1.9-1.9.9a6 6 0 01-.9-.1l.4.2a6 6 0 003.3 1.1c1 0 1.8-.3 2.5-1a16 16 0 001.4-1.9c-.1-.6-.2-1.2-.5-1.8a3 3 0 00-1-1.3zm-1.9-1.2l3.1-2.5c1.2-.7 1.8.1 2.3.8l.7.7 1.1.5c.8.3 1.5.5 1.4 2 0 1 0 1.8.2 2.5.3.7.8 1.2 1.6 1.7 1.5.8 2.3.3 3.2-.5l.9-.6v.7c0 .4.1.7.3.8-.6.9-1.3 1.6-2.4 2-1 .3-2.1.6-3.2.6a6 6 0 01-3-.5h-.1a18 18 0 01-.2-.1 6.6 6.6 0 01-1-.7 2.4 2.4 0 01-.4-.4c-.4-.4-.6-1-.7-2 0-.8-.1-1.6-.4-2.3-.2-.7-.6-1.4-1.2-1.8a2.6 2.6 0 00-.1 0 3 3 0 00-1.5-.4h-1.3l.7-.5zm15.2 6.3c-.7 1-1.5 1.8-2.7 2.2-1 .3-2.1.6-3.3.6-1 0-2.1 0-3-.5.7.7 1.6 1.3 2.7 1.6 1.7.5 3.7.6 6.3-.2a8.2 8.2 0 003.7-3.1l.9-1.4-4.2.7a1.6 1.6 0 01-.4 0zm-18.5-.7h.1a12.2 12.2 0 00-.1-.2c-.4-.4-.9-.8-1.1-1.5-.2-.3 0-.6.1-.8a1 1 0 01.3-.1.5.5 0 01.2 0h.2l.6.9a1.2 1.2 0 00.2-.1.3.3 0 00.1-.2 1 1 0 000-.4 1.6 1.6 0 00-.3-.8 1.8 1.8 0 00-.3-.2l-.1-.1a1.4 1.4 0 00-.7-.2 1.7 1.7 0 00-1.5 1.1l-.1.6c0 .6 0 .9.2 1.1.4.8 1.4.9 2.2.9zm-.5-2.3a.5.5 0 00-.2.1.2.2 0 000 .3c0 .2.4.3.7.3zm67.5 2.2c-.4 0-.8-.3-1-.7a2.2 2.2 0 01-.2-.8l.7-.8a1.2 1.2 0 000 .6c.1.1.2.3.4.3.3.3.7.3 1.1.3l-.6.7-.4.4zm-4.6-4.3c.3-.2.8-.3 1.3-.3h1.3l.4.1c.2.5.2 1.1 0 1.8v1.3l.3 1c.3.7 1.1.9 1.9.9l.9-.1-.4.2a6 6 0 01-3.3 1.1c-1 0-1.8-.3-2.5-1a16 16 0 01-1.4-1.9c.1-.6.2-1.2.5-1.8.2-.5.5-1 1-1.3zm-13.5 4.7a5.6 5.6 0 002.9 2.6c1 .3 2.1.6 3.3.6 1 0 2.1 0 3-.5-.7.7-1.6 1.3-2.7 1.6-1.7.5-3.7.6-6.3-.2a8.2 8.2 0 01-3.7-3.1 11.5 11.5 0 01-1-1.6l4.5.6zm15.4-5.9a359.2 359.2 0 00-3.1-2.5c-1.2-.7-1.8.1-2.3.8l-.7.7-1.1.5c-.8.3-1.5.5-1.4 2 0 1 0 1.8-.2 2.5-.3.7-.8 1.2-1.6 1.7-1.5.8-2.3.3-3.2-.5-.2 0-.3-.2-.5-.3v.2c-.1.4-.1 1-.6 1a12 12 0 00-.2 0 5 5 0 002.5 2c1 .3 2.1.6 3.2.6 1 0 2.1 0 3-.5h.1l.2-.1 1-.7a2.5 2.5 0 00.4-.4c.4-.4.6-1 .7-2 0-.8.1-1.6.4-2.3.2-.7.6-1.4 1.2-1.8a2.6 2.6 0 01.1 0 3 3 0 011.5-.4h1.3a9.6 9.6 0 01-.7-.5zm3.3 5.6h-.1l.1-.2c.4-.4.9-.8 1.1-1.5.2-.3 0-.6-.1-.8a1 1 0 00-.3-.1.5.5 0 00-.2 0h-.2l-.6.9a1.2 1.2 0 01-.2-.1.3.3 0 01-.1-.2 1 1 0 010-.4 1.6 1.6 0 01.3-.8l.3-.2.1-.1a1.4 1.4 0 01.7-.2l.9.3a1.6 1.6 0 01.7 1.4c0 .6 0 .9-.2 1.1-.4.8-1.4.9-2.2.9zm.5-2.3a.5.5 0 01.2.1.2.2 0 010 .3c0 .2-.4.3-.7.3z"/></g></svg>