<svg xmlns="http://www.w3.org/2000/svg" xml:space="preserve" width="600" height="400" version="1.1" id="svg147" clip-rule="evenodd" fill-rule="evenodd" image-rendering="optimizeQuality" shape-rendering="geometricPrecision" text-rendering="geometricPrecision"><defs id="defs4"><style type="text/css" id="style2">.fil4{fill:#f2c12e}.fil5{fill:#fc0}</style></defs><path d="M0 0h600v400H0z" id="_41424872" fill="#00a652" stroke-width="2.8"/><path d="M600 167V0H0v167z" id="_117414512" fill="#e40102"/><g id="g142"><path id="_40817096" fill="#da251d" d="M322.8 110v-3.7h-50v3.7z"/><path id="_40552704" d="M269.2 141.6c9.1-1.1 20.5-1.7 32.8-1.7 10 0 19.4-.4 27.4 1.1 10.6 2 18.2 5 19.6-1.2-.5-.3 0-.6-.5-1l4.8-2-2.4-3.2-1.4-1.8.3-1.5c3.9.6 4.1-.7 3.7-3.1 0-.5-.1-1-.4-1.5l-1.4-.9 4.3-10a8 8 0 002.9-2.6c1.6.8 2.7.8 4.4.3 2.2-.8 4-2.8 3.2-5.3 3.1-3 .6-8.5-3.8-8.7A40 40 0 00366 71c-3.6-13.3-15.4-23.8-37.2-25v-.5l-3.4-.3-3.1 5.9c-3 .5-5.1.6-8 .5l.7-2-3.3-.8c-1.7 2-6.8 4.2-9.3 3 5.5-1.2 7.9-6.2 7.9-11.5l-.6-.2c-.4-2.2-1-4-2.4-5.5l-3.4-8 6.7 3V16.2l-6.7 3 3-6.7h-13.4l3 6.7-6.7-3v13.5l6.8-3-3.3 7.6a10.1 10.1 0 00-2.7 5.8h-.2c-.2 5.4 2.2 10.2 7.4 11.6l-1 .5c-3.2-.4-6.1-1.3-8-4l-2.9 2.2.8 2c-3 0-5.4-.2-8.6-.8l-2.3-5H273l-.5.3c-23.1.7-37 10.7-40.1 23.8a45.2 45.2 0 003.8 29.6c-7.2-.2-6.8 4.4-5.7 8.3 1.2-.1 2.4-.2 3.5-.5v.6l5.8 3.2c.7 3 3 5.1 5.9 5.7.4.1.7.2 1 0l3.6 6.8-1.7 1.1-.6.6-.3 1.2c0 2.7 1.4 3.7 4.2 2.8v.3l-4.5 4 4.5 3.2v.3c-1.6 8.8 3.2 6.4 17.3 3.8z" fill="#1f1a17"/><path id="_40552008" class="fil4" d="M254 132.3l1.9 1.3-1.8 1.6-1.7 1.5-2-1.3-1.8-1.3 1.7-1.5 1.7-1.6z"/><path id="_40551312" class="fil4" d="M350 134.3l1.5 1.8-2.2 1-2 .9-1.5-1.9-1.4-1.9 2.1-.9 2.1-.9z"/><path id="_40407024" class="fil4" d="M303.7 126l3.4 2.3-3.5 2-3.5 2-3.4-2.2-3.3-2.2 3.5-2 3.4-2z"/><path id="_40406328" class="fil5" d="M285.4 89.3a129.5 129.5 0 00-10-42.3h-2.2a173 173 0 0111.2 42.9z"/><path id="_40405632" class="fil5" d="M309.7 50.9c-2.6 7.3-4.9 16.9-6.3 27.6l-.4-.2h-.2l-.6-.4-.6-.3-.6-.2a3.9 3.9 0 00.4-7 4.8 4.8 0 001-8.4 5.7 5.7 0 001.5-8.7c2.2-.5 4.2-1.3 5.8-2.4zm-13.1 27.6l-.5-3.4c.4 1.1 1.3 2 2.5 2.4l-1 .4-.7.4zM297 62a4.8 4.8 0 001 8.3c-1.2.6-2.1 2-2.1 3.5-1.5-9-3.6-16.8-5.9-23 1.5 1.1 3.4 2 5.6 2.4A5.7 5.7 0 00297 62z"/><path id="_40404232" class="fil5" d="M300 39.8c3.2 0 6.3.5 8.7 1.3v.2c0 1.4-.3 2.7-.9 4a30.2 30.2 0 00-15.5-.2 9.5 9.5 0 01-.8-4.1c2.3-.7 5.3-1.2 8.4-1.2z"/><path id="_40403280" class="fil5" d="M307 46.9a8.6 8.6 0 01-7 3.6c-3 0-5.8-1.8-7.4-4.4a32.5 32.5 0 0114.4.8z"/><path id="_40401800" class="fil5" d="M299 23.6l-1.3 3.1-2.1 4.6a9.9 9.9 0 018.7 0l-2-4.6-1.4-3 3 1.3 5 2.3v-9.2l-5 2.3-3 1.4 1.4-3 2.3-5.1h-9.2l2.3 5 1.4 3.1-3-1.4-5.1-2.3v9.2l5-2.3z"/><path id="_40401104" class="fil5" d="M308 39.5a8 8 0 00-4-5.8v5.8z"/><path id="_40400408" class="fil5" d="M297.7 33v5.8h4.6v-6a7.2 7.2 0 00-4.6.1z"/><path id="_40399712" class="fil5" d="M291.8 39.5a8 8 0 014-5.8v5.8z"/><path id="_40398712" class="fil5" d="M313.5 50.1a120.7 120.7 0 00-8.3 31.7l-.1-.5-.2-.6-.3-.6-.4-.5-.3-.3c1.9-12 4.7-22.4 8-29.6l1.6.4z"/><path id="_40398016" class="fil5" d="M288.3 49.7c3 7.6 5.8 17.7 7.8 29.2l-.2.3-.4.6-.3.6-.2.6v.1c-2.2-12-5.1-22.6-8.3-30.4l1.6-1z"/><path id="_40397064" class="fil5" d="M299.7 54a3.2 3.2 0 010 6.3 3.2 3.2 0 010-6.4z"/><path id="_40396112" class="fil5" d="M299.8 63a3 3 0 010 6 3 3 0 010-6z"/><path id="_40395160" class="fil5" d="M299.7 72a2 2 0 010 4 2 2 0 010-4z"/><path id="_40394464" class="fil5" d="M268.6 106.7c-3.6-1-7.1-7.5-2.5-10-2.4 3.4-.7 7.9 2.5 10z"/><path id="_40392888" class="fil5" d="M280.5 94l-.4-2.5c-3 .4-5.8 1-8.6 1.8l.4 1.2.5.2 1 .7.8.8.8 1 .5 1.3.4 1.6c.1 1 .1 1.9-.1 2.9l-.2.6v.1a64 64 0 015.3-1l-.5-.4-.5-.5-.4-.6-.4-.6c-.3-.8-.6-1.6-.6-2.5l.1-.9.2-.7.3-.7.4-.6.4-.6.5-.5z"/><path id="_40391936" class="fil5" d="M311.3 112c-.9-.1-1.7-.4-2.5-.7l.4-4.3 1.1.2 1.3.1h.2l-.5 4.7z"/><path id="_39904672" class="fil5" d="M287.2 112c.6-.1 1-.4 1.6-.7l-.2-3.7H287l.2 4.4z"/><path id="_40390040" class="fil5" d="M275 77a182 182 0 00-4.4-9.6c-3.1.6-6.2 1.5-9 2.6l4.5 9.6a59 59 0 018.8-2.7z"/><path id="_40389088" class="fil5" d="M264.5 83.1a55 55 0 00-9.5 5.2c1.1 2.7 2.3 5.6 3.3 8.5 3-1.8 6.2-3.4 9.6-4.6-1-3.1-2.2-6.2-3.4-9z"/><path id="_40387992" class="fil5" d="M284 111.7l-1.5-7c-2.3.6-4.6 1.4-6.8 2.3 2.4 3.5 4.4 4.2 8.2 4.7z"/><path id="_40387296" class="fil5" d="M272.4 53.6l-1.2-3.9-.9-2.4-8.2 1c1.4 1.8 2.8 3.8 4.2 6l6-.7z"/><path id="_40386368" class="fil5" d="M278.6 76.2l-1.7-8-.6-1.7-3.1.4 4.2 9.5c.4 0 .8 0 1.2-.2z"/><path id="_40385432" class="fil5" d="M275.7 64.5l-2.8-9.2-5.6.7c1.7 2.7 3.3 5.7 4.9 9l3.5-.5z"/><path id="_40384480" class="fil5" d="M269.6 65.4c-1.7-3.2-3.3-6.2-5-8.9-3.1.7-6 1.6-8.9 2.7 1.7 2.7 3.3 5.7 5 8.9 2.8-1.1 5.8-2 8.9-2.7z"/><path id="_40383528" class="fil5" d="M279.7 89.1l-3.7-9.6c-3 .7-6 1.5-8.9 2.6l3.7 9.1c2.8-.9 5.8-1.6 8.9-2z"/><path id="_40382832" class="fil5" d="M253 60.3a50.6 50.6 0 00-9.4 5.6l5 8.6c2.8-2 6-4 9.5-5.4a105 105 0 00-5-8.8z"/><path id="_40382136" class="fil5" d="M259 71a51.3 51.3 0 00-9.5 5.3c1.6 3.1 3.1 6.4 4.6 10 2.8-2.2 6-4 9.4-5.6-1.4-3.4-2.9-6.7-4.4-9.7z"/><path id="_40380928" class="fil5" d="M247.6 53.6l-1.4.7a33 33 0 00-7 6c1 1.2 1.8 2.5 2.8 3.9 2.8-2.1 6-4 9.4-5.6a54.7 54.7 0 00-3.8-5z"/><path id="_40379976" class="fil5" d="M263.1 54.4c-1.3-2-2.5-3.7-3.8-5.3-3 .4-6 1.3-8.8 2.5 1.3 1.7 2.5 3.6 3.7 5.5a59 59 0 019-2.7z"/><path id="_40379280" class="fil5" d="M242.6 99.7l1.6-3c-1.8-3.3-3.6-6.4-5.4-9.2-1.6 2.4-2.8 5-3.6 7.7.6 1.4 1.2 2.7 2 4l1.1-.5.8-.2a5 5 0 012.2.4l.7.4.6.4z"/><path id="_40378328" class="fil5" d="M234.5 93.2c.8-2.5 1.9-5 3.3-7.3a99.3 99.3 0 00-4.9-6.8 34.6 34.6 0 001.6 14.1z"/><path id="_40377376" class="fil5" d="M247.6 77.7a40.5 40.5 0 00-7.3 7.5l5.4 9.4c2-2.6 4.2-5 6.8-7-1.6-3.6-3.2-6.9-4.9-9.9z"/><path id="_40376424" class="fil5" d="M241.3 67.7a39 39 0 00-7 8c1.6 2.4 3.3 5 5 7.9 2-2.8 4.5-5.4 7.3-7.6a81.5 81.5 0 00-5.3-8.3z"/><path id="_39908912" class="fil5" d="M232.8 73.5l.4.6c1.9-2.9 4.2-5.5 7-7.9l-2.6-3c-2.2 3.1-3.8 6.6-4.8 10.3z"/><path id="_40371856" class="fil5" d="M249 93.3l-2.7 2.9 2.4 3.4c.6 0 1 .2 1.4.3l1.5 1 .9-.7.6-.4.6-.3.7-.1 2.3-1.6c-1-2.9-2.2-5.7-3.3-8.3-1.6 1.2-3.1 2.5-4.5 3.8z"/><path id="_40373424" class="fil5" d="M262.5 97l-3.3 2 2.9 8.5a55 55 0 011.9-1 11.5 11.5 0 01-1.5-9.4z"/><path id="_40373344" class="fil5" d="M261 109.5l-1-2.7a52 52 0 00-2.2 1.6l.2.2.3.6.1.5.2.6v.6l2.4-1.4z"/><path id="_40372648" class="fil4" d="M265 113.5l.5-3.6-2.4 1z"/><path id="_40370544" class="fil5" d="M250.1 112.7c2 2 4.7 3.5 8 3.8 5.6.6 10.6-2.4 12-6.9l.2-.6v-.1a5.3 5.3 0 010-.3v-.3l.1-.2 1-.4a6 6 0 001.7-.7l.5-.3a9.7 9.7 0 00.6 1.2c2.2 3.5 6.5 5.9 11.5 5.9 6.5 0 12-4.1 12.8-9.5h3.5c.8 5.4 6.2 9.5 12.7 9.5 5 0 9.4-2.4 11.5-6l.1-.1.5-1 3.2 1.4v.5l.1.2v.2l.2.6c1.4 4.5 6.4 7.5 12 6.9 3.3-.3 6.1-1.8 8-3.8l1.6 2.1a17.5 17.5 0 01-7 4c-7.3 2.1-14.7-.6-17.5-6-3 2.4-7.2 3.9-11.7 4-6.3 0-11.8-2.5-15-6.4h-1c-3.1 4-8.7 6.5-15 6.3-4.5 0-8.6-1.5-11.6-4-3 5.5-10.3 8.2-17.5 6.1-2.8-.8-5.2-2.2-7-4z"/><path id="_40368968" class="fil5" d="M318.8 94l.3-2.5c3 .4 5.9 1 8.6 1.8l-.4 1.2-.4.2-1 .7-.9.8-.7 1-.6 1.3-.4 1.6c-.1 1 0 1.9.1 2.9l.2.6v.1a64 64 0 00-5.3-1l.5-.4.5-.5.5-.6.3-.6c.3-.8.6-1.6.6-2.5l-.1-.9-.2-.7-.3-.7-.3-.6-.5-.6-.5-.5z"/><path id="_40368272" class="fil5" d="M316.8 111.6l-1.5.1 1.4-7c2.6.8 5 1.7 7.4 2.8l-1.7 2.1-3 1.6z"/><path id="_40367576" class="fil5" d="M327.7 52.6l1.5-3.8 1-2.4 8.1 1.5c-1.5 1.7-3 3.7-4.6 5.8l-6-1.1z"/><path id="_40366416" class="fil5" d="M320 74.7l2.3-7.8.6-1.7 3.2.6-4.9 9.2-1.2-.3z"/><path id="_40365720" class="fil5" d="M323.7 63.2l3.4-9 5.5 1.1a134 134 0 00-5.4 8.6l-3.5-.7z"/><path id="_40364768" class="fil5" d="M329.7 64.6l5.6-8.6c3 1 6 2 8.7 3.3a148 148 0 00-5.5 8.5 59.5 59.5 0 00-8.8-3.2z"/><path id="_40364072" class="fil5" d="M318.1 87.5c1.4-3.2 2.8-6.3 4.3-9.3 3 .8 6 2 8.7 3.1l-4.3 8.9c-2.7-1-5.7-2-8.7-2.7z"/><path id="_40363376" class="fil5" d="M346.5 60.6c3.4 1.8 6.4 3.9 9.1 6.2-1.8 2.5-3.6 5.2-5.5 8.2a51.2 51.2 0 00-9.2-6c2-3.1 3.8-6 5.6-8.4z"/><path id="_40362168" class="fil5" d="M352.4 54.3l1.4.7a33 33 0 016.6 6.5 73 73 0 00-3 3.7 50.5 50.5 0 00-9.1-6.2c1.4-1.8 2.8-3.4 4.1-4.7z"/><path id="_40361216" class="fil5" d="M337 54c1.3-1.8 2.7-3.5 4-5 3.1.6 6 1.6 8.7 3a98.5 98.5 0 00-4.1 5.3 59.2 59.2 0 00-8.7-3.3z"/><path id="_40360264" class="fil5" d="M323.2 76.4c1.6-3.3 3.3-6.4 5-9.3 3 .9 6 2 8.8 3.2-1.8 3-3.5 6-5.2 9.3a59 59 0 00-8.6-3.2z"/><path id="_40359312" class="fil5" d="M339.4 71.5c3.4 1.7 6.5 3.7 9.2 6-1.8 3-3.5 6.2-5.3 9.5a50.6 50.6 0 00-9-6.1 164 164 0 015-9.4z"/><path id="_40358360" class="fil5" d="M350.4 79c2.6 2.4 4.9 5 6.7 8-2 2.8-4 5.8-6 9a40.2 40.2 0 00-6.2-7.6 143 143 0 015.5-9.4z"/><path id="_40357408" class="fil5" d="M366 75.1l-.5.6a39 39 0 00-6.5-8.4l2.8-2.8c2 3.3 3.4 6.8 4.1 10.6z"/><path id="_40356456" class="fil5" d="M333.8 82.5c3.2 2 6.1 4.2 8.7 6.5L338 97a57.2 57.2 0 00-8.8-5.9c1.5-3 3-5.8 4.6-8.5z"/><path id="_40354984" class="fil5" d="M347.8 94.8c.8 1 1.6 2.2 2.2 3.3l-.5.5h-.4a7 7 0 00-1.4.2c-.6.2-1 .5-1.5.9l-.5-.2-.5-.2-.6-.1h-1.2l-.6.2-.5.2-.6.4-.4-.2-1.8-1.7 4.5-7.7c1.4 1.4 2.7 3 3.8 4.4z"/><path id="_40354288" class="fil5" d="M339.4 101l.8.7-.2.3c-.3.7-.4 1.4-.4 2.1v.7c.2.6.4 1.2.8 1.8-.4.5-.6 1-.6 1.7v.6l.2 1 .8 1.2.7.8a10.1 10.1 0 001.9 1.2l-.7 1a11.8 11.8 0 01-6-.8c-.9-1-1.8-2-2.8-2.8 1.9-3.5 3.7-6.6 5.5-9.5z"/><path id="_40353592" class="fil5" d="M354.4 100.6l-1.5-3c2-3.3 4-6.3 6-9 1.5 2.6 2.5 5.2 3.1 8l-1.3 2.4c-.6-.4-1.4-.6-2.1-.6-.5 0-1 0-1.4.2a7 7 0 00-1.4.6 7.5 7.5 0 00-1.4 1.4z"/><path id="_40352640" class="fil5" d="M362.9 94.6c-.6-2.5-1.6-5-2.8-7.4 1.8-2.4 3.6-4.6 5.3-6.5a34.1 34.1 0 01-2.5 14z"/><path id="_40351688" class="fil5" d="M357.8 68.7c2.6 2.6 4.8 5.4 6.5 8.4l-5.6 7.6a40.2 40.2 0 00-6.8-8c2-3 4-5.7 5.9-8z"/><path id="_40351008" class="fil5" d="M325.2 45.8l2.8.5a240 240 0 00-14.5 42.5v-.1l-.9-.6-.8-.3a263 263 0 0113.4-42z"/><path id="_40332192" class="fil5" d="M300 92.8c2.3 0 4.1 2.4 4.1 5.4 0 3-1.8 5.4-4.2 5.4-2.3 0-4.1-2.4-4.1-5.4 0-3 1.8-5.4 4.1-5.4z"/><path id="_40331496" class="fil5" d="M280.2 98.2c.3-3.4 3.3-4.2 5.3-2.8l.1-.2c-4.5-4.1 5.1-8.1 8.7.2-4.1 1.9-6.6 2-11 2.5a20 20 0 0111 2.5v.5c-3.4 8.5-13.2 4.4-8.7.3l-.1-.2c-2 1.4-5 .6-5.3-2.8z"/><path id="_40330800" class="fil5" d="M299.5 78.8c3.3.3 4.1 3.3 2.7 5.3l.3.2c4-4.7 8 5.2-.2 8.9h-.1c-1.8-4.2-2-6.8-2.4-11.4 0 4.4-.3 6.6-2.5 11.4h-.4c-8.4-3.5-4.4-13.6-.3-8.9l.2-.2c-1.4-2-.6-5 2.7-5.3z"/><path id="_40330104" class="fil5" d="M319.3 97.9c-.3-3.1-3.2-3.9-5.2-2.6l-.2-.2c4.6-4.5-5.8-8.4-9.2-.6 2.9 1.8 5 2.2 8.3 3-3.7-.3-5 .7-8 3.5 3.3 8 13.6 4 9-.3v-.2c2 1.3 5 .5 5.3-2.6z"/><path id="_40329152" class="fil5" d="M299.9 89.7c.1.8.3 1.4.6 2.2a4 4 0 00-1.3-.1l.7-2.1z"/><path id="_40328200" class="fil5" d="M291.7 97.8l3 .8v-.4l.2-1.5c-1 .4-2 .8-3.2 1z"/><path id="_40327272" class="fil5" d="M307.6 97.8c-1 .3-1.5.6-2.4 1.2.2-1 .2-1.4 0-2.3.8.4 1.5.8 2.4 1z"/><path id="_40326320" class="fil5" d="M269 95.8c2.3-.5 4.6 1.5 5.2 4.3.5 2.8-1 5.4-3.2 5.9-2.3.4-4.6-1.5-5.1-4.3-.6-2.8.9-5.5 3.1-6z"/><path id="_40325624" class="fil5" d="M332.2 95.7c-2.4-.8-5.1 1-6 4-.9 3 .4 6 2.8 6.8 2.4.7 5-1.1 6-4.1.9-3-.4-6-2.8-6.7z"/><path id="_40324928" class="fil5" d="M241.8 109.3c1-1.1 3.3-.8 5 .8 1.8 1.6 2.3 3.8 1.3 5-1 1.1-3.3.8-5-.8-1.8-1.6-2.3-3.8-1.3-5z"/><path id="_40341128" class="fil5" d="M252.2 102.8l-.5 1.3h-.8c.8-3.6-6.5-4.7-5.7 2.8a8 8 0 008.2-.6c-2.2 2.2-2.5 2.8-3.7 5.4 3 4.2 10.5.3 5.4-3.7l-.1-.4c7-1 1.5-10.4-2.8-4.8z"/><path id="_40340632" class="fil5" d="M240.3 107.6l2.6.2c.5-2.2.5-2.7 0-5-1.6-3.2-5.6-3.7-6 .4h-.2c-2.6-3.7-6.9-.6-5 3.3 2-.2 3-.4 4.8-1.3.8 1.2 1.2 1.2 2.6 1.4l.7.6z"/><path id="_40339936" class="fil5" d="M238.8 108.3l-1.7-1.4-1.6-.2-.2 1 4.5 2.5v-1z"/><path id="_40339008" class="fil4" d="M249.3 111l2.1-3.2c-1.5.7-2 .8-3.7.9.9.8 1.1 1.1 1.6 2.3z"/><path id="_40338312" class="fil5" d="M341.7 102.4c1.6-2.3 4-1.7 4.9.1h.4c-.9-3.2 7-3.4 6 3.6h-.1c-.8 1.7-5.7-.6-8.6-1.6 2.2 1.5 3 2.4 4.3 5l.1 2c-5.7 2.3-10.2-4.5-4.7-4.8v-.2c-1.8.2-3.6-1.6-2.3-4.1z"/><path id="_40337616" class="fil5" d="M349.9 107.3l-1.1-.9-1-.1-.2.7 3 1.6v-.7z"/><path id="_40336920" class="fil5" d="M300 121l5.9 3.5 5.7 3.5-5.7 3.4-5.8 3.5-5.8-3.5-5.8-3.4 5.8-3.5zm0 1.8l4.4 2.6 4.4 2.6-4.4 2.6-4.3 2.6-4.4-2.6-4.3-2.6 4.3-2.6z"/><path id="_40335808" class="fil5" d="M294.7 133.4a119 119 0 00-38.4 6.1l1.3-1 5.8-5.1-5.9-4.2-1.5-1c8.1-3.5 22.8-6 39.8-6.3l-3 1.8-7.1 4.3 7.2 4.3zm-26.2-7.4l9-1a4.3 4.3 0 011 8.5l-9 1a4.3 4.3 0 01-1-8.5z"/><path id="_40334296" class="fil5" d="M304.3 121.9c19 .3 35.1 3.2 42.7 7.2l-3.4 1.4-6.5 2.6 4.6 5.3c-8.3-2.8-21.4-4.7-36.2-5l1.8-1.1 7.2-4.3-7.2-4.3zm25.8 4l-9-1a4.3 4.3 0 00-1 8.5l9 1c2.3.2 4.4-1.5 4.7-3.8a4.3 4.3 0 00-3.8-4.7z"/><path id="_40333600" class="fil5" d="M347 131l-6.5 2.5 4.8 5.6.6.7.5-2-3.3-3.8 4.4-1.7.3-1.7z"/><path id="_40332904" class="fil5" d="M255.4 129.9l5.2 3.6-5.2 4.5-1.9 1.7V137l4-3.6-4-2.9v-2.2z"/><path id="_40323336" class="fil5" d="M302.6 118.4l.3.5c.3.5.8.8 1.2.9a4 4 0 01-2.5-.2c-.3-.1-.6-.4-1-1l-.2-.5c-.4-.5-.8-.8-1.3-.9 1.6-.2 2.7-.3 3.5 1.2zm-.8-1.1l1.8-.2c.6.2 1.2.6 1.7 1.3l.3.5c.3.6.8.9 1.2 1-1.5.2-3 .1-3.6-1.5l-.3-.5c-.3-.3-.7-.5-1-.6zm2.5 0c2-.4 3.1-.1 4.2 1.8.4.5.7.7 1.1.8-1.6.4-3 .1-3.8-1.5l-.2-.4c-.5-.5-.7-.6-1.3-.7zm2.8 0h1.6c.8.1 1.5.5 2 1.4l.3.5c.2.5.6.8 1 1-1 0-1.5 0-2.2-.4-.4-.1-.7-.4-1-1.1l-.3-.4c-.4-.6-.9-.8-1.4-1zm2.9.1c1.8-.2 3 .2 3.8 2 .2.5.5.8.8.9a4 4 0 01-2.2-.3c-.4-.2-.7-.5-1.2-1.3l-.2-.5c-.3-.4-.7-.6-1-.8zm2.6.2c1.9-.1 3-.1 4 2l.8 1c-.8 0-1.9 0-2.6-.5l-.8-1.1-.2-.5c-.4-.5-.8-.8-1.2-1zm2.8.2c2-.2 3 .4 3.7 2 .3.5.6.8 1 .9-2 .1-2.6 0-3.4-1.5l-.2-.5c-.3-.5-.7-.7-1-.9zm2.4.2c1.9-.1 3.1.2 3.9 2.1.3.5.6.8 1 1-.9 0-1.7-.1-2.5-.5-.3-.2-.6-.5-.9-1.1l-.1-.5c-.4-.6-.9-.9-1.4-1zm2.6.3c1.8-.1 3.1.2 3.8 2.1.3.6.6.9 1 1-.9 0-1.8 0-2.5-.5-.3-.2-.6-.5-.8-1.2l-.1-.4c-.5-.6-1-.9-1.4-1zm2.7.4c1.8-.2 3.1.3 3.8 2.1.2.6.4.8.7 1-.6 0-1.2 0-1.8-.3l-.7-.3c-.2-.2-.5-.5-.7-1.2l-.1-.4c-.4-.5-.8-.8-1.2-1zm2.5.2c1.7 0 2.7.4 3.2 2.3.2.5.5.7.8.9-.6 0-1.3 0-1.8-.4-.3-.2-.5-.5-.7-1.2l-.1-.5c-.4-.6-.8-1-1.4-1zm2.1.3c1.8 0 2.7.3 3.2 2.3.2.6.5.8.9 1a4 4 0 01-2-.5c-.4-.2-.6-.5-.7-1.2l-.2-.5c-.3-.6-.7-1-1.2-1.1zm2.3.4c.5 0 .9 0 1.3.2 1.2.2 1.1 1.5 1.3 2 .4.6.9 1 1.5 1.1-.7 0-1.7-.1-2.3-.6-.3-.2-.5-.5-.7-1.2v-.4c-.4-.6-.7-1-1.1-1.1zm-28.5.2c-.8.1-1.7.3-2.6-.2-.4-.1-.6-.4-1-1l-.2-.5c-.5-.5-1-.8-1.5-.9l1.7-.1c1.3 0 1.8.6 2.5 1.8.3.6.7.8 1 .9zm-2.9 0c-.8.1-1.4.1-2.2-.1-.4-.2-.7-.4-1-1.1l-.3-.5c-.4-.4-.8-.7-1.2-.8 1.7-.2 2.9-.1 3.8 1.7.2.5.5.7 1 .8zm-2.6 0c-.8.1-1.3.2-2 0-.5-.2-.8-.5-1.1-1.2l-.3-.4c-.4-.4-.8-.7-1.3-.8l1.4-.1c1 0 1.8.5 2.4 1.7.3.5.6.7 1 .8zm-2.4.1c-.7 0-1.4.2-2.2 0-.4-.2-.7-.5-1-1.2l-.3-.4c-.4-.4-.8-.7-1.2-.8h1.3c1.1 0 1.8.5 2.4 1.6.3.5.7.7 1 .8zm-2.5.1c-.8.1-1.4.2-2.2 0-.4-.1-.7-.4-1.1-1l-.3-.5c-.4-.5-.8-.7-1.3-.8l1.3-.2c1.3.1 1.9.6 2.6 1.7.3.5.6.7 1 .8zm-2.5.1c-1 .1-1.6.3-2.3 0-.4-.1-.8-.4-1.2-1l-.2-.5c-.4-.4-.8-.6-1.2-.7h1.3c1 0 1.9.4 2.5 1.4.3.5.7.8 1.1.8zm-2.1.2c-1 .1-1.8.3-2.7 0-.4-.1-.7-.4-1.1-1l-.2-.5a2 2 0 00-1.2-.7c1.6-.2 2.8-.2 3.6 1.4.4.6 1 .8 1.6.8zm-2.8.2c-.8.2-1.4.3-2.3 0-.4 0-.7-.3-1.1-1l-.3-.4c-.5-.5-1-.6-1.6-.6 1.6-.3 3-.6 4 1.2.4.6.8.8 1.3.8zm-2.4.3c-.9 0-1.5.2-2.4 0-.4 0-.7-.3-1.1-1l-.3-.4a2 2 0 00-1.3-.5c1.3-.4 2.9-.7 3.8 1 .4.6.8.8 1.3.9zm-2.5.2c-.7.1-1.6.3-2.3.2-.5-.2-.8-.4-1.3-1l-.3-.5c-.4-.3-.8-.5-1.3-.6 1.5-.5 3-.4 4 1.1.3.6.7.7 1.2.8zm-2.4.3c-1 .2-1.6.4-2.5.3-.4-.1-.8-.4-1.3-1l-.3-.5c-.4-.3-.7-.5-1.1-.6l1-.2c1.1 0 2 .2 2.7 1.3.4.5 1 .7 1.5.7zm-2.6.4c-1.4.3-2.8.8-3.9-.7 0-.2-.2-.3-.3-.4l-.7-.4h-.9c1-.3 2-.8 3-.4.6.2 1 .6 1.3 1.2.5.5 1 .7 1.5.7zm-2.7.4c-1 .2-1.7.5-2.6.4-.5 0-1-.3-1.4-1l-.4-.4c-.4-.2-.9-.4-1.4-.4 1.5-.5 2.6-1 4 .3l.4.5c.4.4.9.6 1.4.6zm-2.9.6c-1.1.3-1.4.5-2.4.3-.6 0-1-.3-1.5-.9a9 9 0 00-.4-.4l-1.2-.3 1-.3c1-.3 2-.3 2.8.5l.4.4c.4.5.9.7 1.3.7zm-2.5.5l-1.4.4h-1.2a2 2 0 01-1.5-.8l-.4-.3c-.4-.3-.9-.4-1.4-.3a7 7 0 012-.6c.6 0 1.2.1 2 .6 0 .2.2.3.3.4.5.5 1 .7 1.6.6zm-2.8.7l-2 .5a3 3 0 01-2-.7 12 12 0 00-.6-.3 2 2 0 00-1.2-.3c1.3-.6 2.6-1.2 4-.1l.4.4c.4.4 1 .5 1.4.5zm-2.8.8c-2.3.7-2.5.5-4.3-.4a3 3 0 00-1.6 0c1.2-1 2.2-1.4 4-.2l.6.3c.4.3.9.3 1.3.3zm-2.3.6l-.8.5c-2.1.9-3-1.1-5.2-.5 3.3-2.2 3.6.2 6 0zm-2.1 1c-.5 0-.9.2-1.3.4l-.8.2c-.5 0-1 0-1.6-.4-.2 0-.4-.2-.5-.3h-1.3c1.7-1 2.1-.8 3.9 0 .6.1 1 .1 1.6 0zm-2.1.7l-1.4.7h-1.5c-.6-.5-.8-.7-1-.7v-.4c.7-.5 1.5 0 2.2.4h1.7zm-1.7.9a54.1 54.1 0 00-1.5.6l-.8.1v-1.4c.4.4 1 1 2.3.7zm-2 1l-.3.3v-.2h.4zm82-9l1.9.4c.6.2 1 .6 1.2 1.5.4.9.8 1.4 1.4 1.7a5 5 0 01-2.4-.8c-.5-.3-.9-.6-1-1.3l-.3-.6c-.1-.4-.4-.7-.8-.9zm2.7.6c2 .3 2.4.5 3.2 2 .4.8.9 1.3 1.5 1.6-1.2-.1-1.8 0-2.6-.7-.5-.4-.8-.7-1-1.5l-.2-.5a3 3 0 00-.9-.9zm2.4.7c2.2 0 3 .5 3.5 2.1.4.8.6 1.2 1 1.6-1.2-.3-1-.2-2-.8-.5-.3-.8-.7-1-1.5l-.3-.5-1.2-1zm3 .6c1.6.4 3.1.5 3.3 2.3.3.8.6 1.4 1.1 1.7-.9-.1-1.5-.3-2.2-.8-.5-.3-.8-.8-1-1.6 0-.1 0-.3-.2-.5-.3-.4-.6-.8-1-1zm3.2 1c1.5.3 2.5.7 2.8 2.4.2.7.5 1.2.9 1.6-1-.3-1.4-.3-2-1-.5-.3-.7-.8-.9-1.5v-.6a3 3 0 00-.8-.9zm2.5 1c.6 0 1 .2 1.5.4.9.5 1.2 1 1.4 2.2.3.7.6 1.2 1 1.6l-2-.7c-.4-.5-.7-1-.9-2l-.1-.5a3 3 0 00-1-1zm2.6 1.1c1 .4 2 .8 2.3 2 .1.6.3 1 .7 1.3v1l-.4-.2-.9-.7c-.4-.4-.6-.9-.7-1.7v-.5c-.3-.5-.6-.9-1-1.2zm2.4 1.2l.6.4v1.3l-.2-.8v-.3l-.4-.6z"/><path id="_40322288" class="fil5" d="M296 135c1.4-.1 3-.2 4 .6l.6 1 .4.7c.7.5 1.2.8 1.7.9-2.3.5-3.2.3-4.8-1.5l-.4-.7c-.5-.6-.8-.9-1.6-1z"/><path id="_134548024" class="fil5" d="M292.7 135.2c1.4-.3 2.7-.6 3.8.5l.7 1c0 .2.2.4.4.6.6.5 1 .8 1.6.9-2.3.5-3.2.3-4.7-1.5l-.4-.7c-.5-.4-.8-.7-1.4-.8z"/><path id="_40275840" class="fil5" d="M289.1 135.3c1.5-.3 2.8-.6 4 .4l.6 1 .4.6a4 4 0 001.7 1c-2.4.5-3.6.4-4.9-1.5l-.3-.6c-.5-.5-.9-.8-1.5-1z"/><path id="_40274736" class="fil5" d="M285.3 135.4c1-.2 2.1-.4 3.3-.1.4 0 .6.2 1 .5l.6 1 .4.6c.6.5 1 .8 1.5 1-1.1.2-2 .2-3 0-.9-.3-1.2-1-1.7-1.4l-.3-.6c-.6-.7-1-1-1.8-1z"/><path id="_40091600" class="fil5" d="M281.7 135.7c1.2-.3 2-.4 3.3-.2.5 0 .7.2 1.1.5.3.3.4.6.6 1l.4.5c.6.6 1 .8 1.5.9-1 .3-2 .4-3.3.1-.8-.2-1.2-.8-1.6-1.4a13 13 0 00-.4-.5c-.5-.6-.8-.9-1.6-1z"/><path id="_40091400" class="fil5" d="M278.4 136c1-.3 2-.4 3-.3l1 .5.6 1 .3.5c.6.6 1.1.8 1.6.9-.9.2-1.9.3-3 .1-.8-.3-1.2-.8-1.6-1.4l-.4-.5c-.5-.5-.7-.8-1.5-.8z"/><path id="_40091200" class="fil5" d="M275 136.3c1-.2 2-.4 3-.3.5 0 .7.2 1 .5.3.2.5.5.6.8l.4.6c.6.6 1 .8 1.5.8a8 8 0 01-2.8.2c-.8-.2-1.1-.8-1.6-1.3 0-.2-.2-.4-.3-.5-.5-.6-.8-.8-1.7-.8z"/><path id="_40090096" class="fil5" d="M272.4 136.6a7 7 0 012.6-.3c.4.1.7.2 1 .5l.5.8.3.5c.6.6 1.1.8 1.6.8-1 .2-1.9.3-2.8.2-.7-.2-1-.8-1.4-1.2l-.3-.5c-.5-.5-.8-.8-1.5-.8z"/><path id="_40088992" class="fil5" d="M269.6 137c.8-.2 1.7-.5 2.6-.4.4.1.6.3.9.5l.5.8c0 .2.2.3.3.5.6.5 1 .7 1.5.8-1 .1-1.8.3-2.7.2-.7-.2-1-.8-1.4-1.2a9 9 0 00-.3-.5c-.4-.5-.6-.7-1.4-.7z"/><path id="_40087888" class="fil5" d="M267 137.4c.8-.2 1.5-.5 2.4-.4.4.1.6.2.9.5l.5.7c0 .2.2.3.3.5.5.5 1 .7 1.4.7-1 .2-1.8.4-2.7.3-.6-.2-.9-.7-1.3-1.2l-.2-.4c-.4-.4-.7-.6-1.3-.7z"/><path id="_40411104" class="fil5" d="M264.3 138c.8-.4 1.6-.7 2.5-.6l.7.4.5.7c0 .2.2.4.3.5.5.5.9.7 1.3.7-.9.2-1.7.4-2.5.3-.6-.2-.8-.6-1.2-1l-.2-.4c-.4-.5-.7-.7-1.4-.7z"/><path id="_40765400" class="fil5" d="M262.2 138.4c.5-.2 1-.6 2-.5l.8.4.4.7.3.4c.5.4.8.6 1.2.6-.8.3-1.5.6-2.4.4-.5-.2-.8-.6-1-1-.2-.1-.2-.3-.3-.4-.4-.4-.6-.6-1-.6z"/><path id="_39960840" class="fil5" d="M260 139c1-.4 1.7-.9 2.5-.2l.4.6.3.4c.4.4.8.6 1.1.6-.6.3-1.2.5-2 .4-.5-.2-.7-.6-1-1l-.2-.3c-.3-.4-.5-.5-1-.6z"/><path id="_41202648" class="fil5" d="M258.1 139.5c.6-.2 1.1-.6 1.8-.5.3 0 .4.1.6.3l.4.6.2.3c.4.4.7.6 1 .6-.4.2-.8.5-1.7.4-.5-.2-.7-.5-1-.8 0-.1 0-.3-.2-.3-.3-.4-.5-.6-1-.6z"/><path id="_40173904" class="fil5" d="M256.5 140.2c.4-.3.8-.6 1.6-.6.3 0 .4.1.6.3l.3.5.3.3c.4.4.7.5 1 .5-.5.3-.9.5-1.5.4-.5 0-.7-.4-1-.7l-.2-.3c-.4-.3-.6-.4-1.1-.4z"/><path id="_39898736" class="fil5" d="M255 141c.4-.4.8-.8 1.4-.8.3 0 .4.1.6.3l.4.4.2.3c.4.4.8.5 1.1.5-.4.2-.7.4-1.4.5-.4-.1-.7-.4-1-.7l-.3-.2c-.3-.3-.5-.4-1-.3z"/><path id="_39328672" class="fil5" d="M254.9 141c.3 0 .4 0 .6.2l.4.4.3.3c.4.3.7.3 1 .3-.3.2-.5.5-.9.5-1.9.3-3.1-1.3-1.4-1.7z"/><path id="_41153448" class="fil5" d="M255.7 143.8z"/><path id="_40270992" class="fil5" d="M342.9 139.7c.7.1 1.3.2 1.8.5 1.2 1.3.4 2.2 0 2.1-.5-.2-.6-.4-.6-1.2v-.4c-.3-.4-.6-.8-1.2-1z"/><path id="_40269960" class="fil5" d="M340.5 139c1.5.3 2.6.3 2.8 1.9.2.6.3 1 .7 1.3-.6-.1-1-.1-1.8-.6-.4-.5-.3-1-.6-1.6-.2-.4-.6-.8-1.1-1z"/><path id="_40270464" class="fil5" d="M338.1 138.3c1.4.2 2.7.3 3.1 2 .2.6.5 1 .9 1.4a4 4 0 01-1.7-.5l-.5-.3c-.3-.3-.5-.6-.6-1.2v-.4l-1.2-1z"/><path id="_41173848" class="fil5" d="M334.7 137.7c1.6-.2 3.6.1 4 1.9.4.7.7 1.2 1.2 1.5-2.1-.2-2.5 0-4-2.2l-.3-.7-.9-.5z"/><path id="_40093016" class="fil5" d="M331 137c1 0 2.2-.2 3.6.8l.6 1.1.4.7 1.4.9c-1 0-1.9 0-3-.4-.8-.4-1.1-1-1.6-1.7a15 15 0 00-.4-.7l-1-.7z"/><path id="_41174456" class="fil5" d="M327.2 136.5c1 0 2 0 3 .4.3 0 .5.2.8.4l.6 1.1.4.7 1.3.9c-.8 0-1.8 0-2.7-.4-1-.3-1.5-1-2-1.7a15 15 0 00-.4-.6l-1-.8z"/><path id="_39333616" class="fil5" d="M323 136c1.7-.2 3-.3 4 .9.4.3.6.7.8 1l.4.7c.6.5 1 .7 1.5.8-2.5.2-3.2.6-5-1.8l-.4-.7c-.4-.4-.8-.7-1.3-.8z"/><path id="_40093488" class="fil5" d="M318.9 135.7c1.6-.3 3.3-.4 4.4.8l.6 1 .5.8c.6.5 1 .7 1.6.9-1.1.2-2.2 0-3.4-.3-1-.3-1.4-1-2-1.7l-.3-.6c-.5-.6-.8-.8-1.4-1z"/><path id="_41174280" class="fil5" d="M314.8 135.4c1.6-.2 3.4-.3 4.4.8l.7 1 .4.7a4 4 0 001.6 1c-1.1.2-2.3.3-3.6-.1-1-.4-1.3-1.2-1.8-1.8l-.4-.7c-.5-.4-.8-.7-1.3-.9z"/><path id="_40092808" class="fil5" d="M310.5 135.2c1.6-.2 3.2-.4 4.5.7l.7 1 .4.7c.6.6 1.1 1 1.6 1-1.1.2-2.2.1-3.2 0-1-.4-1.3-1.1-1.8-1.7l-.4-.7c-.6-.6-1-1-1.8-1z"/><path id="_40270328" class="fil5" d="M306.8 135c2-.1 3-.4 4.4.8l.7 1 .4.7c.6.6 1 .9 1.5 1-1 0-2 .1-3.2-.1-1-.4-1.3-1-1.9-1.7l-.4-.6c-.5-.6-.8-.9-1.5-1z"/><path id="_41337272" class="fil5" d="M303 135c1.5-.2 3.2-.5 4.3.7l.6 1 .4.7c.7.6 1.2.8 1.7 1-1 .1-2 .2-3.2 0-1-.4-1.4-1.1-2-1.8a15 15 0 00-.3-.6c-.6-.5-.9-.8-1.6-1z"/><path id="_40556392" class="fil5" d="M302.3 135c.5.1.7.3 1.1.6l.7 1 .4.7c.6.6 1.1.9 1.6 1-1 0-2 .2-3 0-.8-.4-1.2-1-1.7-1.7a14 14 0 00-.4-.6c-.6-.6-1-1-1.8-1 1 0 1.9-.3 3 0z"/><path id="_39335680" class="fil4" d="M300.1 111.5c1.5 2.1 2.2 3 4.3 4.6-3.2-.4-5.4-.4-8.6 0a25 25 0 004.3-4.6z"/><path id="_40463392" class="fil4" d="M327.2 114c-1.8 1.6-3 2.2-5.2 3.1l8.8 1.3a16.5 16.5 0 01-3.6-4.3z"/><path id="_38600144" class="fil4" d="M273.2 114.8c1.3 1 2.3 1.5 3.8 2.2l-6.4 1c1.2-1 1.8-1.8 2.6-3.2z"/><path id="_40423128" class="fil5" d="M357.7 107.2c-1-1.1-3.3-.8-5 .8-1.8 1.6-2.3 3.8-1.3 5 1 1.1 3.3.8 5-.8 1.7-1.6 2.3-3.8 1.3-5z"/><path id="_40550328" class="fil5" d="M361.2 102l-.4 1.2v-.6c.4-3-6-4-5.8 3 2.3 1.2 5.1 1 7.3-.5-2 2-2.2 2.5-3.3 4.9 2 3 8.3-.8 4.8-3.4l-.1-.4c6.3-.9 1.3-9.2-2.5-4.2z"/><path id="_40164528" class="fil5" d="M359 108.2c.3-.7.7-1.2 1.2-1.9-1 .5-1.2.5-2.2.5.5.5.7.7 1 1.4z"/><path id="_39911456" class="fil4" d="M248.5 117.3l3.4 5.7c2.7-.9 2.7-1 6-1.9-3.4-.4-6.6-1.7-9.4-3.8z"/><path id="_40174784" class="fil4" d="M352.9 116.4l-3 7.1c-3-1.3-3-1.4-6.8-2.7 3.6-.6 6.9-2.1 9.8-4.4z"/><path id="_40174496" class="fil4" d="M263.5 113.9l-1.8-2.4c-1 .5-2 1-3.2 1.3-.1.6-.5 1-1.2 1.4v.8c2.6.2 4.8 0 6.2-1.1z"/><path id="_40993312" class="fil4" d="M313.3 52.1c-3.2 9.6-5.5 19.5-7.1 29.4l.4.2.5.4.4.4.7 1 .5 1.2.2 1.2v1.3l-.1.9c.6 0 1.2.2 1.8.4 2.4-12.6 6-25 11.3-36.9-2.7.4-5.6.6-8.6.5z"/><path id="_41206224" class="fil4" d="M286.7 52.7c3 9.3 5.3 19 6.9 28.6l-.6.2-.6.3-.5.3-.4.5-.7 1-.5 1.1-.2 1.2v1.3l.2 1.4-3.2.6a164.6 164.6 0 00-9-37.4c2.7.6 5.5.9 8.6 1z"/><path id="_40161520" class="fil4" d="M329.4 126.8l-7.7-.8a3.4 3.4 0 00-3.7 3 3.4 3.4 0 003 3.6l7.7.8c1.9.2 3.6-1.1 3.8-3a3.4 3.4 0 00-3-3.6z"/><path id="_41205280" class="fil4" d="M269.4 126.9l7.8-.8a3.4 3.4 0 013.7 3 3.4 3.4 0 01-3 3.6l-7.8.8a3.4 3.4 0 01-3.7-3 3.4 3.4 0 013-3.6z"/><path id="_40765256" class="fil4" d="M306.6 109.4l.6-3.5c-1.1-.7-1.7-1.1-2.6-2l-1 .6c.4 2.4 1.3 3.3 3 5z"/><path id="_41873384" class="fil4" d="M290.5 110.7l-.5-3.2c2.2-.5 3.5-1.2 5.1-3.7l1.2.8a9 9 0 01-5.8 6.1z"/></g><path d="M0 164.6h600v70.9H0z" id="_40347384" fill="#fff" stroke-width="2.8"/></svg>