<svg xmlns="http://www.w3.org/2000/svg" viewBox="0 0 600 400"><path fill="#ec1a23" d="M0 0h600v170.4H0z"/><path fill="#fdf100" d="M0 170.4h600v60.9H0z"/><path fill="#283595" d="M0 231.3h599.8V400H0z"/><g stroke="#000"><g stroke-width=".9"><path fill="#fff" d="M37 148.4V103h-1.8v-3.6H37v-17h2.1l.2-18.5-6-8-.2-17.2h8.3v8.6l4.2.1v-8.8h7.8v8.6H57l-.1-8.7 8.9.1v17l-6.3 8.9.1 17.9h14.7v11H79l-.2-10.9h15.1v11h5.3l-.1-11h15.6v11h5v-11l14.7-.1-.2-18.1-6.3-8.9V38.8h8.4v8.5h4.3v-8.6h7.7v8.6h3.6v-8.5h8.4v17l-6 8.6.2 18h2.4v17.2h1.3v3.3H157h0v46.2l-46.4-.3v-32.4l-.2-3-1.2-3.6-3-2.7-3.4-2.5-4.4-1-4.1.1-4.3 1-3 2.7-2.7 3.1L83 114v34.7l-46-.2h0z"/><path fill="none" d="M59.4 82.3h-.9v11.4h-5.2V82.2l-14.2.1h0m95.2.1h.9v11.2h4.8V82.5h14.5"/></g><path fill="none" stroke-width=".9" d="M116.8 148.7v-3h-6.4 7v-4h-7.1 6.2v-4.3h-6l6.8-.2v-3.5h-7 6.2v-4.2h-6.1 7v-4.3h-7.1 6.2V121h-6.2 7v-4.1h-7 5.2v-5.3l-5.3 2 6.5-2.4-2.7-4.8-5.3 3.8 4.1-3-3.1-3.8-4 3.6 5.2-4.8-4.9-3.4-3 6 2.5-5.1-5.8-1.3-1.4 5.4 1.9-6.9h-3.8m-20 51.6v-2.6h6.4l-7-.1v-4h7.1-6.2v-4.3h6l-6.8-.2v-3.5h7-6.2v-4.2h6.1-7v-4.3h7.1-6.2V121H83h-7v-4.1h7-5.2v-5.3l5.3 2-6.5-2.4 2.7-4.8 5.3 3.8-4.1-3 3.1-3.8 4 3.6-5.2-4.8 4.9-3.4 3 6-2.5-5.1 5.8-1.3 1.4 5.4-1.9-6.9h3.8M157 103l-46.9.1m46.7-3.4l-49.3.1M37 103h46.3M37 99.4l48.5.2"/><path fill="none" stroke-width=".4" d="M90.8 93.8v5M79.1 94v5.4M67.4 94v6m-12-6v5.7M44.2 94v5.3m58.3-5.5l-.1 5M114 94v5.4m11.7-5.5v6m12-6v5.7M149 94v5.3m-75.3 46.2v3.4m-12.6-3.4v3.2m6.5-9l.1 5.8m5.7-11.5v5.8m-12-5.7l-.1 5.6m-5.9.2l.1 5.7m-5.8 0l.1 3.1m-5.7-9v5.7m5.6-11.4v5.9M44 128.8v5.2m11.5-5.5v5.5m12-5.5l.1 5.6m6-11.7v6M67.4 117v5.3m6-11v5.8m-12.1-5.9v6m-11.6-5.8v5.4M44 105.5v6m11.4-5.9l-.1 5.7m12.1-5.8v6m6-8.5l.1 2.4m-12-2.3v2.3M49.7 103v2.4m11.6 17v6m-11.7-6v6.1M44.3 117v5.5m11-5.3l.1 5.6m64.1 22.8v3.4m12.6-3.4v3.2m-6.5-9l-.1 5.8m-5.7-11.5v5.8m12-5.7l.1 5.6m5.9.2l-.1 5.7m5.8 0l-.1 3.1m5.7-9v5.7m-5.6-11.4v5.9m5.7-11.1l.1 5.3m-11.5-5.5v5.5m-12-5.5l-.1 5.6m-6-11.7v6m6.1-11.4v5.3m-6-11v5.8m12.1-5.9v6m11.6-5.8v5.4m5.7-11.4v6m-11.4-5.9l.1 5.7m-12.1-5.8v6m-6-8.5l-.1 2.4m12-2.3v2.3m11.8-2.3v2.4m-11.6 17v6m11.7-6v6.1M149 117v5.5m-11-5.3l-.1 5.6M85 88.3V94m-23.1-5.7V94M50 88.2V94m58.6-5.7V94m23-5.7V94m11.8-5.8v5.9m13.1 51.4l-39 .2m39.2-6h-40.1m40-5.5h-39.5m39.4-5.5h-38.9m39-6l-40.2-.1m40.1-5.6l-39.2.2m39.1-5.6l-40.6-.2m40.9-5.8l-45-.1m-74.7 40l38.4.2m-38.6-6h39.6M37 134.3h39m-39-5.5h38.5m-38.4-6l39.5-.1M37.1 117l38.7.2M37 111.6l40.1-.2m-40-5.8l44.1-.1m21.4-23.2l-.1 6.1m23.5-6.1v6.1m23.3-6.1v6.1m-58.6-6.1v6.1m-23.5-6.1l.1 6.1M44 82.3v6.1M37 94h120m-16.8-5.6h16.6m-36.9 0h15m-35.4 0h15m-35.3 0h15m-35.7 0l16-.2m-37.5.3l16-.2m.3 4.2h5.4m-5.5-4.7h5.3m-5.3-4.2l5.3-.1m-4.1-.1l.1 4.5m-5.4-8.8l.2 3m-.2-12l.1 4.5m0-13.3v4.2m5.1 9l.2 4.6m-10.6-4.5l.1 4.5m10.3-13.6V70m-10.5-4.4L44 70m10.4-13.4l.2 4.5M44 56.7l.1 4.5m15.4-8.6l.1 4.2m-10.3-4.4v4.1m-10.5-4l.1 4.2m15.5-8.6l.2 4.1m-10.6-4l.1 4.1M59.7 44l.1 4m-10.6-4l.1 4m-10.5-4v4m.5 31.4l20.1-.2m-20-4.3l20-.2m-20-4.5l20.1-.2m-20.3-4.1l20.1-.3m-21.7-4l24.1-.2M34 56.8l30.4-.2m-31-4l32.3-.1m-32.4-4.3l32.4-.2M57 44l5.5-.1h2.8m-20 0l8.2-.2m-20.4.3l8.2-.1m98.8 48.7h-5.4m5.6-4.7H135m5.4-4.2l-5.4-.1m4.1-.1V88m5.3-8.8l-.2 3m.2-12l-.1 4.5m0-13.3v4.2m-5.1 9l-.1 4.6m10.5-4.5v4.5m-10.3-13.6L139 70m10.6-4.4l-.1 4.5m-10.4-13.4l-.1 4.5m10.5-4.4v4.5M134 52.7V57m10.3-4.4l-.1 4.1m10.5-4v4.2m-15.6-8.6l-.1 4.1m10.5-4v4.1m-15.8-8.6V48m10.5-4.2V48m10.5-4.2l-.2 4.2m-.4 31.3l-19.8-.2m19.8-4.3l-19.8-.2m19.7-4.5l-19.7-.1m20-4.3l-20.2-.2m21.7-4l-23.7-.1m27.5-4.6l-30.8-.2m31.4-4l-32.4-.1m32.5-4.3l-32.5-.2m8.5-4.2h-8.2m20 0h-7.8m20 .1l-8.3-.1"/><path fill="#ffd211" stroke-width=".2" d="M97.4 30.5c9.1 0 9.5 9 3.5 10.4 2.4-3.1 2.5-5.2 1.8-7 .2 2-.2 3.5-2 3.7 1.3-5.2-3.3-4.6-3.8-5.1z"/><g fill="#ffd211" stroke-width=".2"><path d="M95.8 20.8h.5v-1.2h.7V19h-.7v-.8h-.5v.8H95v.6h.8v1.2h0zm3.2 9.7l2.2-3.2c4.1-4.5-3-8-5-4-2.6-4-9.2-.8-5 4l2 3.1h5.9z"/><path d="M97 21.7c0 .5-.4 1-1 1a1 1 0 01-.9-1c0-.5.4-1 1-1 .5 0 1 .5 1 1zm-5.7 5.7h9.7m-6.5 3.1h3.3l.1 33-3.3-.1-.1-33h0z"/></g><path fill="#ffd211" stroke-width=".2" d="M102.9 51.8c-3.4.4-2.6-4.6 1.5-3.8 3 1 5 5 4.5 7.7-5 27.5-44.4-5.4-14.4-12.4v1.3c-11 2.5-9.9 20.7 5.7 16.5l-.1 2.1c2.6 0 11-9.2 2.2-13.4-.3.5.1 1.3.6 2z"/><path fill="#ffd211" stroke-width=".2" d="M94.6 54.2c-1.9 2.9-7 11-10.5 5.3-.7 2.4 2.4 9.3 10.5-4v-1.3zm3.3-10c2.9-.2 1.9 2 0 2.1-9.7 1.7-8.3-8.2-5.1-10.2l-2-.9c1.2-.8 2.6-2.8 3.7-2.6v-2c-1.2 0-2.4 1-3.4 2.3l.1-2.7c-2.8 4-4 6.9-3.7 9 2.2 18 23.5 3.9 10.4 3.8v1.2h0z"/></g></svg>