<svg xmlns="http://www.w3.org/2000/svg" width="600" height="400"><path fill="#ffd000" d="M0 0h600v400H0z"/><circle cy="200" cx="300" r="133.3" fill="#00b0e0"/><g fill="#fff" stroke="#00b0e0" stroke-width="2"><path d="M228 264c21.3 2.7 41.3-4 54.7-12 18.6-9.3 21.3-34.7 21.3-34.7s-33.3-2.6-50.7 16A79.9 79.9 0 00228 264z"/><path d="M372 264a87.9 87.9 0 01-54.7-12c-18.6-9.3-21.3-34.7-21.3-34.7s33.3-2.6 50.7 16c4 2.7 17.3 13.4 25.3 30.7zM230.7 202.7c-4 0-12-1.4-24 8 9.3 12 18.6 18.6 34.6 18.6 21.4 0 42.7-5.3 42.7-5.3s-29.3-21.3-40-21.3z"/><path d="M369.3 202.7c4 0 12-1.4 24 8-9.3 12-18.6 18.6-34.6 18.6-21.4 0-42.7-5.3-42.7-5.3s29.3-21.3 53.3-21.3zM274.7 132c-12 0-22.7 64-22.7 64h44s-4-64-21.3-64zM325.3 132c12 0 22.7 64 22.7 64h-44s4-64 21.3-64z"/><path d="M249.3 144c-4 0-8 14.7-8 29.3 0 17.4 18.7 60 54.7 53.4-9.3-20-32-82.7-46.7-82.7zM350.7 144c4 0 8 14.7 8 29.3 0 17.4-18.7 60-54.7 53.4 9.3-20 32-82.7 46.7-82.7z"/><path d="M300 229.3c17.3 0 20-18.6 20-42.6 0-16-10.7-54.7-20-54.7s-20 38.7-20 54.7c0 24 2.7 42.6 20 42.6z"/></g></svg>