<svg xmlns="http://www.w3.org/2000/svg" xmlns:xlink="http://www.w3.org/1999/xlink" viewBox="0 0 600 400"><defs><linearGradient id="b"><stop offset="0" stop-color="silver"/><stop offset=".5" stop-color="#f7f7f7"/><stop offset="1" stop-color="silver"/></linearGradient><linearGradient id="a"><stop offset="0" stop-color="#d4af38"/><stop offset=".5" stop-color="#ffd90d"/><stop offset="1" stop-color="#d4af38"/></linearGradient><linearGradient id="c" x1="25.7" x2="104.8" y1="251.7" y2="373.7" gradientTransform="translate(-745.7 -302.4) scale(1.32681)" gradientUnits="userSpaceOnUse" xlink:href="#b"/><linearGradient id="d" x1="39.3" x2="132.2" y1="221.9" y2="174" gradientTransform="translate(-745.7 -302.4) scale(1.32681)" gradientUnits="userSpaceOnUse" xlink:href="#b"/><linearGradient id="e" x1="228.9" x2="314.7" y1="169.2" y2="227.5" gradientTransform="translate(-745.7 -302.4) scale(1.32681)" gradientUnits="userSpaceOnUse" xlink:href="#a"/><linearGradient id="f" x1="-759.2" x2="-751.8" y1="108.8" y2="108.8" gradientTransform="translate(1493.6 94.7) scale(1.32681)" gradientUnits="userSpaceOnUse" xlink:href="#b"/><linearGradient id="g" x1="-124.2" x2="-116.8" y1="762" y2="762" gradientTransform="translate(-59.6 -1495.4) scale(1.32681)" gradientUnits="userSpaceOnUse" xlink:href="#b"/><linearGradient id="h" x1="479.1" x2="509" y1="557.5" y2="591" gradientTransform="translate(-1111.4 -1002.3) scale(1.32681)" gradientUnits="userSpaceOnUse" xlink:href="#a"/><linearGradient id="i" x1="432.5" x2="476.1" y1="600.5" y2="600.5" gradientTransform="translate(-1111.4 -1002.3) scale(1.32681)" gradientUnits="userSpaceOnUse" xlink:href="#b"/><linearGradient id="j" x1="390.1" x2="450.9" y1="608.5" y2="552.5" gradientTransform="translate(-1111.4 -1002.3) scale(1.32681)" gradientUnits="userSpaceOnUse" xlink:href="#a"/><linearGradient id="k" x1="456.6" x2="506.2" y1="616.7" y2="616.7" gradientTransform="translate(-1113.1 -1002.3) scale(1.32681)" gradientUnits="userSpaceOnUse" xlink:href="#a"/><linearGradient id="l" x1="405" x2="454.6" y1="616.6" y2="616.6" gradientTransform="translate(-1113.1 -1002.3) scale(1.32681)" gradientUnits="userSpaceOnUse" xlink:href="#a"/><linearGradient id="m" x1="228.9" x2="314.7" y1="169.2" y2="227.5" gradientTransform="translate(-745.7 -204.3) scale(1.32681)" gradientUnits="userSpaceOnUse" xlink:href="#a"/><linearGradient id="n" x1="228.9" x2="314.7" y1="169.2" y2="227.5" gradientTransform="translate(-745.7 -106.2) scale(1.32681)" gradientUnits="userSpaceOnUse" xlink:href="#a"/></defs><path fill="#c42730" d="M0 0h600v400H0z"/><path fill="#2e418a" d="M61.8 300c-19 7.8-44 16.3-61.8 11v89h600v-95.4c-20.9 6.5-42 12-69.2-4.6-29.6 12-57.6 19.7-75 0-25.5 9.6-51.3 16.6-78.7 0-25.4 10.4-50.8 18.4-77.1 0-26.2 7-46.7 20.8-80.5 0-23 11.2-60 19.7-77.3 0-25.6 9.6-51.6 23.2-80.4 0z"/><path fill="#fff" d="M63.2 356.1c-19.4 8-45.3 16.7-63.2 10.5v13.9c16.2.3 35.3-6.4 50.5-12.6 28.7 23.2 54.8 9.6 80.4 0 17.3 19.6 54.2 11.2 77.3 0 33.8 20.8 54.2 7 80.5 0 26.3 18.4 51.7 10.4 77.1 0 27.4 16.6 53.1 9.6 78.7 0 17.4 19.6 45.4 12 75 0 32 19.7 55.7 8.4 80.5 1.1v-7.8c-20.4 6.3-41.2 11.2-67.8-5-29.6 11.9-57.6 19.6-75 0-25.5 9.5-51.3 16.6-78.7 0-25.4 10.3-50.8 18.4-77 0-26.3 7-46.8 20.7-80.6 0-23 11.2-60 19.6-77.3 0-25.6 9.5-51.6 23.2-80.4 0zm-1.4-36.8c-19 7.8-44 16.3-61.8 11v13.4c15.9 0 34.3-6.5 49-12.6 28.8 23.2 54.8 9.6 80.4 0 17.4 19.7 54.3 11.2 77.4 0 33.8 20.8 54.2 7.1 80.5 0 26.2 18.4 51.7 10.4 77.1 0 27.3 16.6 53.1 9.6 78.7 0 17.4 19.7 45.3 12 75 0 32.7 20 56.6 8 81.9.7V324c-20.9 6.5-42 12-69.2-4.7-29.6 12-57.6 19.7-75 0-25.5 9.6-51.3 16.7-78.7 0-25.4 10.5-50.8 18.5-77.1 0-26.2 7.1-46.7 20.8-80.5 0-23 11.3-60 19.7-77.3 0-25.6 9.6-51.6 23.3-80.4 0z"/><path fill="#c42730" d="M160.6 33.2H33.4L97 106.6z" font-family="Sans"/><path fill="#183883" d="M98.2 190.8a16 16 0 012.8-3.5c2.6-2.2 6.4-3.5 11.9-3.5h41.8c3 0 4.8-.3 5.8-1.3s1.6-2.7 1.6-6.1V35.3L98.2 109z" font-family="Sans"/><path fill="#0093dd" d="M31.9 35.3v141.1c0 3.4.6 5.2 1.6 6.1 1 1 2.9 1.3 5.8 1.3h41.8a18 18 0 0111.9 3.5c1.1 1 2 2.2 2.7 3.4V109z" font-family="Sans"/><path fill="#d4af38" d="M31.9 35.3L95.7 109v81.7c.5.9 1 1.7 1.3 2.7.3-1 .8-1.8 1.2-2.6V109l63.9-73.7v-2.1h-1.5L97 106.6 33.4 33.2H32z" font-family="Sans"/><path fill="#fff" d="M31.9 31.4L30 33.1 95.7 109v87.4h2.5V109L164 33l-1.9-1.6L97 106.6z" font-family="Sans"/><path fill="#d4af38" d="M30 31.3v145.1c0 3.6.6 6 2.2 7.5 1.7 1.5 4 1.8 7.1 1.8h41.8c5.2 0 8.4 1.2 10.6 3a15 15 0 014.4 8l.9 3.3 1-3.4a15 15 0 014.3-7.8c2.2-2 5.4-3 10.6-3h41.8c3 0 5.4-.4 7-1.9 1.7-1.5 2.3-3.9 2.3-7.5v-145zm1.9 1.9h130.2v143.2c0 3.4-.6 5.2-1.6 6.1-1 1-2.9 1.3-5.8 1.3h-41.8a18 18 0 00-11.9 3.5 14.6 14.6 0 00-4 6c-1-2.3-2.1-4.4-4-6a18 18 0 00-11.9-3.5H39.3c-3 0-4.8-.3-5.8-1.3s-1.6-2.7-1.6-6.1z" font-family="Sans"/><path fill="#fff" d="M80.5 130.3l-.3.3-.7 6.9-6 2.5h5.7l-.4 3.5-6.1 2.4h5.9l-.4 3.6-7 2.2H78l-1.1 10.4-1.6 6.2h1l4.2-3.2 4.2 3.2h.9l-1.5-6.2-1.2-10.4h6.7l-6.9-2.2-.4-3.6h6l-6.2-2.4-.4-3.5h5.7l-6-2.5-.7-6.9zm0 3l.2 2h-.4zm-.3 2.5h.5l.2 1.5H80zm.3 1.8l.4.2.2 1.8h-1.3l.2-1.8zm-1 .4l-.3 1.8H75zm2 0l4.4 1.8h-4.2zm-1.5 2.2h1l-.5.7zm-.3.5l.4.8-.6 1zm1.5 0l.2 1.8-.6-1zm-.7 1.3l.7 1.2-.7-.1-.8.1zm0 1.6l1 .2.2 1.8h-2.5l.1-1.8zm-1.7.4l-.2 1.6h-4.4zm3.3 0l4.6 1.6h-4.4zm-2.7 1.9h2.2l-1.1 1.2zm-.3.5l1 1-1.3 1.4zm2.7 0l.1 1.1.2 1.3-1.3-1.3zm-1.3 1.5l1.2 1.3-1.2-.3-1.2.3zm0 1.4l1.7.5.2 1.7h-3.8l.1-1.7zm-2.3.7l-.2 1.5h-5zm4.6 0l5.1 1.5h-5zm-4.3 1.7h3.9l.2 1.8-2.1 2.4-2.2-2.4zm-.2 2.5l1.8 2-2.3 2.7zm4.3 0l.5 4.7-2.3-2.6zm-2.1 2.5l2.7 3 .3 2.4h-6l.2-2.3zm-2.5 6h5l-2.5 1.8zm-.7 0l2.7 2-4 3zm6.3 0l1.3 5-4-3z" font-family="Sans"/><path fill="url(#c)" d="M-711.5 31.6v36.7l84.4 125h20.5v-8.8h-9.5L-682.7 86l15.7 5.8 60.4 92.8 5.9 8.9h12.1v-8h-6.3l-58.3-88.6 18.7 7 54 89.6h10.5v-7h-5l-50.8-79.4 11.5 4.3 50 82h6.8v-6h-6.4l-45.7-79.2V87z" transform="translate(238.5 116.4) scale(.27827)"/><path fill="#cfcfcd" d="M67.6 147.4v-6.5L64 139v7zM56.4 135v8.2l5.6 2V138zM46 129.5v9.8l7 2.6v-8.7z"/><path fill="#666" d="M44.6 127.4v1.4l-.4-.3h-1v6.8l22.4 32.4h1.5l-21-31.2v-5.4l1.5.8v-1.5l6.6 3.4v6.3l18.1 28h.7l-16.2-24.8 1.8.7-2.2-3v-4.5l.4.3v-1.6l6 3.1v7.3l14.9 22.7h.8l-14.1-22.1 1.5.5-1.9-2.6v-3.6h.4v-1.3l3.7 2v4.8l13.2 22.5h.3l-12.7-22v-5.9z"/><path fill="#c1c1c1" d="M40.5 135.4v34.8H64z"/><path fill="url(#d)" d="M-652.5-40.9l10.2-5.2h13.7l41-23.7s16-5.4 19.5 0c2.4 3.7-5.4 12.2-5.4 12.2l-44 25.4L-637.9 3l-17.3 10 10.3-28.7-25 13.8s-6.5 3.5-10.5 2.8c-10-1.6-14.7-13.1-26.2-21 0 0-5 5.4-9.3 8 0 0 .2-7.6 4.3-11l-7.4-2.4s5.7-5.8 14.6-4.6c9.1 1.3 21.5 15.4 33.8 8.2l26-15c-3.6.3-5.6-2.1-8-3.9z" transform="translate(238.5 116.4) scale(.27827)"/><path fill="url(#e)" d="M-432-79.6c25.6 3.3 30.7 9.8 46.2 17 7.1-.8 16-.2 21.3 3-.7 3.8-1 8-4.7 9.7 7.7 7.5 15.7 14.7 23.1 22.6 1.4 1.4-1.7 2.3-3.3 2.8 4 2.9 8.8 5.4 11.7 9 19 1.5 24.4 7.1 24.4 7.1-9 1.7-20 8.4-20.7 21.8-2.9-1.5-8.3-9.5-16.4-24.5-3 1-5.3 1.8-7.5.1-7.3-5.7-15.5-11-24-15.3 0 0-2.5 4.2-3.1 8.4-.8 4.5-5.7-4.5-7-12-40-19.1-49-35.9-50.8-43.7-1.4-6.7 6-6.6 10.8-6z" transform="translate(238.5 116.4) scale(.27827)"/><path d="M115.4 94.7a.2.2 0 000 .3 3 3 0 011.6 2.3.2.2 0 10.3 0 3.6 3.6 0 00-1.8-2.6.2.2 0 00-.1 0zm3.6.3c-.3 0-.5.2-.5.5 0 .2.2.4.5.4.2 0 .4-.2.4-.4 0-.3-.2-.5-.4-.5z" font-family="Sans"/><path fill="url(#f)" d="M486.6 165h9.2v148.1h-9.2z" transform="scale(-.27827 .27827) rotate(-45.7 68 1227)"/><path fill="url(#g)" d="M-224-555.3h9.2v141.7h-9.2z" transform="rotate(-45.7 257.5 -225) scale(.27827)"/><path fill="url(#h)" d="M-481.6-256.8l39.6 40.4c1.8.5 4.7.8 6-1.8l-3.8-23.3-28-28.7z" transform="translate(238.5 116.4) scale(.27827)"/><path fill="url(#i)" d="M-533.9-215.3h50.6l7.2 19.5h-65z" transform="translate(238.5 116.4) scale(.27827)"/><path fill="url(#j)" d="M-550.7-242.4c.5 3.9 3.3 8.1 3.3 8.1l-6.4 6.6s-2.7-1.8-11.3-4.8c-9.7-3.5-25 36.6-28.7 37.6-2-6.6 11.7-38.6 25.8-51.7 14.5-13.4 39-26.5 54.8-22.6-12.8 8.6-38.2 21.3-37.5 26.8z" transform="translate(238.5 116.4) scale(.27827)"/><path fill="url(#k)" d="M-499.7-193.8h50.6l7.2 19.5h-65z" transform="translate(238.5 116.4) scale(.27827)"/><path fill="url(#l)" d="M-568.1-194h50.5l7.3 19.6h-65z" transform="translate(238.5 116.4) scale(.27827)"/><path fill="#d4af38" d="M90.4 98.6l4.7 6.6H97l-6.6-6.6zm6.6 6.6l6.6-6.6-6.6 4.7zm0 0l6.6 6.6-4.7-6.6zm0 0l-6.6 6.6L97 107z"/><path fill="gold" d="M90.4 111.8l6.6-6.6h-1.9zm13.2 0l-6.6-6.6v1.9zm0-13.2l-6.6 6.6h1.9zm-13.2 0l6.6 6.6v-1.9z"/><path fill="#d4af38" d="M97 92l-1.9 11.3 1.9 1.9zm0 13.2h13.1L99 103.3zm0 0v13.1l1.9-11.2zm0 0H83.9L95 107z"/><path fill="gold" d="M83.9 105.2H97l-1.9-1.9zM97 118.3v-13.1l-1.9 1.8zm13.1-13.1H97l1.9 1.8zM97 92v13l1.9-1.8z"/><path fill="url(#m)" d="M-432 18.5c25.6 3.4 30.7 9.8 46.2 17.1 7.1-.9 16-.3 21.3 2.8-.7 3.9-1 8-4.7 9.8 7.7 7.5 15.7 14.7 23.1 22.6 1.4 1.4-1.7 2.3-3.3 2.8 4 3 8.8 5.4 11.7 9 19 1.5 24.4 7.1 24.4 7.1-9 1.7-20 8.4-20.7 21.8-2.9-1.5-8.3-9.5-16.4-24.5-3 1-5.3 1.8-7.5.1-7.3-5.7-15.5-11-24-15.3 0 0-2.5 4.2-3.1 8.4-.8 4.5-5.7-4.5-7-12-40-19.1-49-35.8-50.8-43.7-1.4-6.7 6-6.6 10.8-6z" transform="translate(238.5 116.4) scale(.27827)"/><path d="M115.4 122a.2.2 0 000 .3 3 3 0 011.6 2.3.2.2 0 10.3 0 3.6 3.6 0 00-1.8-2.6.2.2 0 00-.1 0zm3.6.3c-.3 0-.5.2-.5.5 0 .2.2.4.5.4.2 0 .4-.2.4-.4 0-.3-.2-.5-.4-.5z" font-family="Sans"/><path fill="url(#n)" d="M-432 116.6c25.6 3.4 30.7 9.8 46.2 17.1 7.1-.9 16-.3 21.3 2.9-.7 3.8-1 8-4.7 9.7 7.7 7.5 15.7 14.7 23.1 22.6 1.4 1.4-1.7 2.3-3.3 2.8 4 3 8.8 5.4 11.7 9 19 1.5 24.4 7.1 24.4 7.1-9 1.7-20 8.5-20.7 21.8-2.9-1.5-8.3-9.5-16.4-24.5-3 1-5.3 1.8-7.5.1-7.3-5.7-15.5-11-24-15.3 0 0-2.5 4.2-3.1 8.4-.8 4.6-5.7-4.5-7-12-40-19.1-49-35.8-50.8-43.7-1.4-6.7 6-6.6 10.8-6z" transform="translate(238.5 116.4) scale(.27827)"/><path d="M115.4 149.3a.2.2 0 000 .3 3 3 0 011.6 2.3.2.2 0 10.3 0 3.4 3.4 0 00-1.8-2.6.2.2 0 00-.1 0zm3.6.3c-.3 0-.5.2-.5.5 0 .2.2.4.5.4.2 0 .4-.2.4-.4 0-.3-.2-.5-.4-.5z" font-family="Sans"/></svg>