<svg xmlns="http://www.w3.org/2000/svg" viewBox="0 0 600 400"><path fill="#395c98" d="M0 0h600v320H0z"/><path fill="#d5312b" d="M0 320h600v80H0z"/><path fill="#edbb32" stroke="#000" stroke-width=".7" d="M144 240c16-26.7 42.7-24 66.7-24 29.3-42.7 64-46.7 89.3-46.7 25.3 0 60 4 89.3 46.7 24 0 50.7-2.7 66.7 24l44-69.3-46.7 54.6L484 156l-46.7 61.3 32-69.3-44 62.7 25.4-70.7-40 68 18.6-69.3-34.6 66.6 20-73.3-26.7 61.3 14.7-72-25.4 64 12-74.6-21.3 68 6.7-78.7-20 69.3 2.6-77.3-16 72-4-77.3-10.6 76-5.4-80-10.6 77.3L300 80l-10.7 80-10.6-77.3-5.4 80-10.6-76-4 77.3-16-72 2.6 77.3-20-69.3 6.7 78.7-21.3-68 12 74.6-25.4-64 14.7 72-26.7-61.3 20 73.3-34.6-66.6 18.6 69.3-40-68 25.4 70.7-44-62.7 32 69.3L116 156l30.7 69.3-46.7-54.6z"/></svg>