<svg xmlns="http://www.w3.org/2000/svg" viewBox="0 0 600 400"><path fill="#e21c2a" d="M0 0h600v400H0z"/><g fill-rule="evenodd"><path fill="#2c2c2b" d="M99.6 102a318.7 318.7 0 004.5 4l.3.3.3.3a2.8 2.8 0 01.4.8 4.2 4.2 0 01.2.8 6.4 6.4 0 01-.6 2.8 11.8 11.8 0 01-1 2.2 27.8 27.8 0 01-3 3.8l-3.5 3.6-.1.2a38 38 0 00-5.6-1.5l1.3-.8 1.2-.3v-.2l.6-1.6.2-.8.2-.7.4-.8.4-.7.4-.7.7-1 1.7-1.6.5-.5c.3-.2.6-.5 1-.5h.2l.2-.2a5.9 5.9 0 00.7-.7l.2-.3v-.4l.1-.2v-.4l-.1-.2-.2-.3-.2-.2-.4-.3-.7-.8-.2-.5v-2.2zM80.3 42.4c-.6-.2-1.2-.8-1.8-1.8l-.4-.8c-.3-.6 0-1.3-.6-1.8-.3-.3-.3-.5-.4-1l-.2-.9h-.2v-2.5l.1-.5.2-.6.2-.5.2-.5.3-.4.3-.5.3-.4.3-.4.2-.1.2-.2.2-.2.2-.1.3-.1.2-.1.2-.1v-1.3a3.4 3.4 0 00-.3-.8l-.7-1-.3-.2.3-.3 1-.3h.5l.8-.1h2.3l.4.1.3.1.4.2.3.1.4.2.3.2.3.2.3.2.3.3.3.3.3.3.3.6.6 1a6.9 6.9 0 01.6 3 15 15 0 010 2l-.2 1.4c0 .5 0 1 .2 1.5v.2l.4.5a1.1 1.1 0 001 .2 1.7 1.7 0 00.7-.4l1-1.3.5-.7.5-.7a3 3 0 01.6-.4 2.9 2.9 0 011.5-.3h.3l.2.1.1.1h.2v.2h.2l.2.3a4.4 4.4 0 01.4.9l.5 1 .2.2h.3l.5.2.5-.5.7-1-.2 1.4c0 .3 0 .6-.2.9 0 .1 0 .3-.2.4l-.2.3-.2.2-.3.2-.2.1h-1l-.4-.1-.1-.1-.4-.5c-.2-.4-.3-.8-.7-1a.7.7 0 00-.3-.2 1 1 0 00-.3 0l-.3.1-.2.3c-.6.5-1.1 1-1.5 1.7l-.7 1-.2.2a3.1 3.1 0 01-2.2.9H89l-.3-.1h-.4l-.1-.1a4 4 0 01-.5-.2l-.2-.1v-.1l-.4-.2.7 1.3 4.8-.3 3.4-.3a93 93 0 019.4-.3l.8.1.2.1v.2h.2l.2-.1.3-.1h.3l.2-.1h1l.2.1h.3l.2.2h.1l.2.2.2.2v.2l.2.1v.3l.1.2v1l-.1.2-.2.3v.1l8.5 3 .6-.2-.1 1.1-.2 1.1-.2 1-.1.4-.1.3-.1.4-.2.3v.2l-.2.3-.1.2-.2.2-.2.1-.1.2-.2.1-.2.1-.2.1-1.4.6c-.3 0-.5.2-.8.3l-.7.4-.3.2-.4.2-.4.3c-.3.1-.4.4-.6.6-.3.4-.5.9-.5 1.4v.5l.3.3.2.2v.8l-.1.1-1 1-.4.5-.7.2h-1.8l-.7.2c-.2 0-.3.2-.5.3a3 3 0 00-.3.2 3.7 3.7 0 00-.6.8l-.7 1.5-.7 1.5-.3.4h-.1v.1h-1s-.2-.1-.2 0l-.6.6a9.7 9.7 0 01-1 1l-.5.2a4.3 4.3 0 01-.9.3 6.5 6.5 0 01-1.1 0h-.5l-.4-.2-.5-.2H97l-.2-.2-.3-.1-.3-.2-.3-.2-.3-.2-.3-.3-.4-.2-.3-.3-.4-.3-.3-.4-.4-.3-.4-.4-.4-.5-.4-.5-.5-.5-.4-.5-.5-.6-.5-.6-1-1.4-1-1.5-.7-1-.3.9v.8l.8 2.2.1.3h.2l.5 1.5 2.4 6.7.2.1 1.9 1.7 1 .7.8.6c5.4-2.3 10.1-3.3 16.2-.3a5.4 5.4 0 011.1-1.5 21.4 21.4 0 013-2.2 15 15 0 011.3-.7l.7-.2.5-.1h.6l.5-.1h1.1l.5.1a17.3 17.3 0 011.9.6l.6.2.9.4.5.3.6.4.5.3.5.4.5.4.4.5.4.4.4.5.4.6.3.5a13 13 0 01.6 1.4 11.5 11.5 0 01.4 2.3 19.2 19.2 0 01-.2 3.9l-.1.6a28.6 28.6 0 01-.6 2.5l-.3.8-1.5 4.5-.2.8-.3 1.2-.2.8-.1.8v.4a15 15 0 000 1.6 7.9 7.9 0 00.2 1 5.4 5.4 0 00.5 1.1l1 1.3.4.5-.7.1H125l-.5-.2-.6-.2-.5-.2-.5-.3-.5-.3-.4-.3-.2-.2-.2-.2-.2-.2-.2-.2-.2-.2-.1-.2-.2-.2-.1-.3-.1-.2-.1-.2-.2-.3-.1-.4-.2-.3-.2-.7-.2-.7-.2-.6-.1-.7v-.7l-.1-.7V89a24.6 24.6 0 01.6-4l.5-1.7.2-.9.1-.8v-.4l.1-.5v-2.5l-.1-.4-.1-.4-.1-.4-.1-.4-.2-.4-.2-.3-.2-.4-.2-.3-.3-.3-.3-.3-.3-.2-.4-.3-.4-.2-.4-.2-.5-.1-.5-.2-.5-.1-.9-.1a3 3 0 00-1.3.3 11 11 0 01.7.7 13 13 0 011.3 2.2 13 13 0 01.6 1.7 12.5 12.5 0 01.2 1.8v.4l.1.2a4.7 4.7 0 01-.2 2.5l-.1.3a8 8 0 00-.5 3.6v.7h-.2v.2-.2h-.1l-.2.6-.4 1a76.2 76.2 0 01-5 9.1v.1l-.2.2v.2l-.1.3a4.5 4.5 0 000 1v.4l.3 2 .3 1.7.6 1.4a6.2 6.2 0 01.8 1.4c.2.3.3.6.3 1v.2l-.1.2-.2.2-.6.5-.8.7a32 32 0 00-2.9 3.6 20.5 20.5 0 00-1.3 2.6l-.2.7-.6 1.6-.3 1.4h-.2l-.2.3-.2.3h-.2l-.2.1-1.3.6-.2.2a6.7 6.7 0 00-1.4 1.2h.1a24.8 24.8 0 012.5 1.4l3.3 2.1 1.5.8 1.4.6a16.6 16.6 0 003.6.8h1.5l.3-.1.2-.1h.3l.2-.2h.2l.2-.2.2-.1.2-.1.2-.2.1-.1.2-.2.2-.3.2-.3.2-.3v-.3l.2-.4v-.7a5 5 0 00-.2-1l-.8-1.8a32.8 32.8 0 01-2.2-6.3l-.3-1-.2-1v-.8l-.2-.9v-1.5l.2-.6v-.6l.3-.6.2-.6.2-.4.3-.5.3-.4.4-.3.3-.4.4-.3.4-.2.4-.2.4-.2.4-.2.4-.1.4-.1.3-.1.4-.1h.3a15.3 15.3 0 011.8-.2h.3a8.8 8.8 0 012.9 1 9.4 9.4 0 011 .7l.2.3.3.3c0 .2.2.3.3.5l.2.4a11.2 11.2 0 01.7 2.4 13.5 13.5 0 01.1 2.2 6 6 0 01-.2.9 6.4 6.4 0 01-1.4 2h-.2l-.5.5-.3-.1-.5.9-.2-1v-.3l-.3-.4-.1-.3-.3-.4-1.2-1.3-.2-.2c0-.2-.2-.3-.3-.4l-.1-.3-.1-.4v-.3l-.1-.2v-.5l.1-.1v-.2l.1-.1.2-.3.3-.3.2-.2.5-.3.9-.3a2 2 0 00-.3-.4l-.7-.5-.2-.2c-.3 0-.6-.2-.8-.3h-1.2l-.4.1-.3.1-.3.1-.3.2-.3.2-.2.2-.2.2-.2.3-.1.2-.2.3-.1.3v.4l-.2.3v3.2l.2.4v.4l.2.5.1.4.2.4.1.4.2.4.2.4.2.4c.4 1 1 1.8 1.5 2.7v.2l.8 1.3.6 1.4c.4 1 .8 2 1 3a9 9 0 01.2 1.4 8.3 8.3 0 01-.2 1.6 8.8 8.8 0 01-.6 1.5c0 .3-.2.5-.4.7l-.1.3-.2.3-.2.2-.2.3-.2.2-.3.2-.4.4-.5.4-.5.3-.5.3a15 15 0 01-5 1.4h-.7l-.7.1h-.7a26 26 0 01-4.3-.6 31 31 0 01-3.7-1.4v.1l-.1 1.3a3.2 3.2 0 00.2.9l.1.3.8.7.2.2.5.5.2.6v.2l-.1.3-.1.2-1.2 1.5a13 13 0 01-2 2.2 5.4 5.4 0 01-1.5.7 7.8 7.8 0 01-1.5.2 7.2 7.2 0 01-1.5-.1l-1.7-.6-.3-.1H95l-.5.2-.3.3-.2-.5v-.4l.2-.3.3-.3a5.2 5.2 0 00-1.4.4l-.8.5.4-1v-.1l.3-.3.1-.2.3-.2.7-.3h-.7v-.1l-.4-.1.8-.4.1-.1.2-.2.2-.2h.2l.2-.2h.2l.2-.1.2-.1H97l1 .3 1.1.4.7.1h.2l.2-.2.3-.2.1-.1.2-.3v-.3l.1-.3v-.2l-.1-.3-.2-.2h-.2l-.9-.3H96l-.8-.1-.7-.1-.7-.2-.7-.1-.7-.3-.6-.2a23.6 23.6 0 01-2.8-1.4c-.6-.3-1.1-.8-1.7-1.2l-.9.6-1.1.8-1.2.7v.5a5.8 5.8 0 00.3 1.3 5.4 5.4 0 00.7 1.1l.5.5.3.2.2.3v.1l.1.4v.2a2.3 2.3 0 01-1 1.4 3 3 0 01-.7.2l-1.4.3-1.5.2h-1.8a32.2 32.2 0 00-3.2-.3 10.6 10.6 0 00-1.2.2 7.5 7.5 0 00-1 .4 9.3 9.3 0 00-1 .7l-.7.5v-.9a4 4 0 01.2-.7l.3-.5.2-.2.7-.7a7.4 7.4 0 00-1.8.6 8 8 0 00-.7.4l-.6.4v-.8l.2-.4v-.3l.2-.3.2-.2.2-.3.2-.2h-.4l-1 .2-1 .2h-1l-1 .1H66l-.8.1h-2.7l-1-.2-.8-.1h-.2c-.1.5-.4 1-.7 1.5 0 .2-.2.3-.4.5l-.2.2-.5-.2-2.3-.2a32 32 0 00-2.9 0l-1.2.3H52a12.8 12.8 0 01-1.8.3H48a21.7 21.7 0 01-5.5-1.4l-.6-.1h-.2a6.6 6.6 0 01-2.7.8 70 70 0 01-3.7-1l-.6-.2h-.8a4.4 4.4 0 00-1.1.5 7 7 0 00-1 .7l-.3.3-.2-.5v-.5c0-.5.2-1 .4-1.6l-1 .7-.8.4.2-1a4.4 4.4 0 01.4-.9l.3-.3a5 5 0 011-.8H31l-.7-.2.7-.5.4-.3.5-.3.5-.2.6-.2.6-.2.7-.1.7-.1h.4l.4-.1H38l.4.1.5.1h.5l.5.2.5.1.5.2.5.1.5.2.6.2.4.2.3-.2a6 6 0 011.7-.2 22.2 22.2 0 013.7 0l3 .3.3-.8.3-1-.2.3-.1.1h-.5c-.7-.4-1.5-.8-2-1.3a4.5 4.5 0 01-.5-.5l-.5.1-1.6.5-.7.1h-1.3l-.3-.1h-.2l-.2-.1-.1-.1-.2-.2h-.2l-.4-.5A34.3 34.3 0 0041 131c-1.2-1-2.5-2-3.6-3.1l-.3.2-.4.2-.3.1h-.9l-1.4-.6a6.6 6.6 0 00-1.5-.5h-1l-.5.2-1.1.5 1-1.8c-.2 0-.6 0-.9.2a3.7 3.7 0 00-1 .4l-.3.3-.7.6.1-1v-.2l.4-.5.7-.7-.6.1-1.6.2 1.8-1a17.6 17.6 0 012.5-1 21.7 21.7 0 012-.4l.8-.1h.6l3 .2a5.8 5.8 0 011.5.6l.9.5a48.8 48.8 0 005.5 3 19.6 19.6 0 01-.9-2.8v-.9a23.4 23.4 0 010-2.3h-.1c-1.4.1-2.4.8-3 1.5l-.7-.5-.7-.5-1.2-.9-.7-.3a5.4 5.4 0 00-1-.3 5.7 5.7 0 00-2.5.3 9.6 9.6 0 00-1.4.6l-2.6 1.6-.5-.8-.4-.7a5.9 5.9 0 00-.8-1 5.5 5.5 0 00-1.9-1.1l-.5-.2-.6-.3-.3-.2-.3-.2-.2-.2a5.4 5.4 0 01-.6-.8l-.3-.6-.4-1.2-.3-.7a114.7 114.7 0 005-1.1v-.4a5.9 5.9 0 01.2-1l.5-1.4a8.1 8.1 0 00.3-1.1l.1-.6-.1-1-.2-.9v-1.9h.1l.1-.2.4-.2a26.8 26.8 0 005.1-4.9l1.2-1.5.9-1.2.5-1c.2-.3.2-.6.3-1a5.4 5.4 0 01.5-1 4.4 4.4 0 01.5-.6 5 5 0 011-.7 1.4 1.4 0 01.9 0l1.3.4a690.4 690.4 0 011 .3h.2l1-.2.2-.1 1.3-.8-2.1-1.3a14.4 14.4 0 01-1.7-1.4 17 17 0 01-1-1l-1.6-2.3a19.8 19.8 0 00-2-2 14 14 0 00-.7-.4l-.4-.3h-.3l-.5.5-.9 1a7.7 7.7 0 00-.7 1.3 6.5 6.5 0 00-.4 2 16.2 16.2 0 000 1.9v.8l-.1.2-.2.4-.2.1-.3.2-.5.2-.3.1c-.2.2-.3.6-.3.8v.3c.2.1.3.3.3.4a5 5 0 01.3 1.6l.1.3.2.3.3.5v.2a13.7 13.7 0 01-.8 1.2 10.5 10.5 0 01-2.8 2.3l-.6.4v-1c0-.9-.2-1.7-.3-2.5a11.7 11.7 0 010-1l.2-1.6c0-.6.2-1.2.1-1.8a2.8 2.8 0 00-.2-1 2 2 0 01-.2-.3v-.7l.7-.9.5-.6.3-.5.4-.8a57.7 57.7 0 002.4-6.6l.2-1.1v-.2l.4-.6.3-.2.5-.1 2.1-.1H38l.3.4.3.3.4.3a17.4 17.4 0 002 1.5 14.1 14.1 0 002 .9l.4.2c1.6.5 3 1.2 4.5 2l-.1-2.4h-.2l.6-1.2.4-1a42.9 42.9 0 012.2-5.4l3.5-6.7h-.4l-.5-.2H53l-.3-.3-.4-.5v.1l-.1-.4v-.2l-.1-1h-.6c-.6 0-1.1 0-1.6-.5l-.4.3-1 .6-.5.1h-.4l-.1-.1-.2-.3h-.8a1 1 0 01-.6.2H44c-.1 0-.2 0-.2-.2l-1-1-.3-.2-.5-.4v-.1l-.2-.4v-.5l.5-2v-.3h.1l.4-1.4.6-1.8a35.4 35.4 0 001-3.8l-.1-.2-.2-.5V52l.6-2.6-1-.7-.9-.7-.6-.5 1.1-.3a11.3 11.3 0 002.5-1l-.1-.3-.3-.8-.3-.2c-.2-.2-.4-.2-.7-.3h-1l-1 .2.7-.7.5-.3c.3-.2.6-.3 1-.3l-.8-.2-1-.3 1.6-.6.7-.2a4.6 4.6 0 011.2 0l.8.2H47l-.7-.5.8-.2a3.5 3.5 0 01.9 0 2.6 2.6 0 01.8.2c.5.2 1 .6 1.4 1l.5.5.4-.8.4-.6.5-.5.6-.6a32.2 32.2 0 01.6 1l1.1-.5h.5a3.6 3.6 0 012 .4c.4.2.8.5 1.3.6h4l-.5.5-.3.3 1.3.7-.1-3.4H61l-.2-.2-.1-.1-.1-.2v-.4c0-.2 0-.3.2-.4h-.2l-.1-.1h-.1v-.2h-.1v-.2h-.1v-.5l.3-.2-.1-.2-.1-.6c0-.3.2-.5.4-.5l-.1-.5v-.1l.2-.4h.1l.2-.1h1.1l-.2-6.3V29l-1.2-.6V27l1.2.6V26h-2.6v-1H62v-1h-1.8v-1H62v-2h1.4v2H65v1h-1.4v.8h2.2V26h-2.2v2l1.4.7V30l-1.4-.6.2 5.7h.5l.2.1 1 .6.1.2a3.9 3.9 0 01.5.5 4 4 0 01.2.7l.2 1.4a28 28 0 002.5 3.5l3.3 4.1c1.8-1.2 3.8-2 6.3-3.6l.8-.2h.8l.2-.1zM64 117.5v-1.7l-.2-.5-.2-.4-.2-.5-.4-.7-1.5-2.1-.6-1-.5-.7.4-.4a31.6 31.6 0 013.6-3.2l.3-.2-.4-10.2-1.5-.4-1.7-.4a13.4 13.4 0 010 .5l-.1.2-.1.4-.1.2-.2.8-.2.3-.1.3-.3.1-.3.2a3.8 3.8 0 01-.8.2h-7.5a75 75 0 01-5.1-.6l-1.7-.2a3.8 3.8 0 00-1 .2 4 4 0 00-1.2.6c-.7.5-1.4.9-2.2 1.2l-.3.2c-.3.2-.7.3-1 .6l-.3.3-.5 1-.3.7-1.7 5.2v.4a6.1 6.1 0 01-.5 1c-.1 0-.2 0-.3.2l-.2.1a1.8 1.8 0 01-.7.2h-1l-.7.8v.6l.7.6.9.7a38.8 38.8 0 005.4-2.7l5.5-3 2-.9 1.5-.6a21.5 21.5 0 012.1-.5l.5-.1h2.4l.7.3 1 .5.1.2a83.7 83.7 0 00-1 8 13 13 0 011.3.4 11 11 0 012 1 10.5 10.5 0 011.7 1.5 9.2 9.2 0 011.1 1.9 14.9 14.9 0 011.1 3.8l.3 1.7.4-.2.2-.2.3-.2.2-.2.1-.3a5 5 0 00.5-1 7.9 7.9 0 00.1-1 10.4 10.4 0 000-1.3v-.6l-.3-1 .5.4zm1.6-72.8v.2l.1.1c-.6 0-1.2-.3-1.7-.5l-.2-3.8 1.8 4zm11.8 7l.2 4.3v.6l-3.3 1.3-.2-.3-.9-2.8h.2v-.1h.2l.2-.1a4 4 0 001-.8l.4-.4-1-.2a7 7 0 01-1.6-.6l-1.2-1 .1.1c2 .5 4.3.1 5.9 0zm-10 44.8l-.8-.1-.8-.2.3 9 .4-.3a16.5 16.5 0 012.8-1.1 12.2 12.2 0 011.6-.3h.8l1.6.2 1.2.2 5.7.8 1.1.1 1.7.2h4.6l.6-.1 2.8-.5c-.4.8-.9 1.2-1.4 1.9l-.3.4-.2.3-.1.4-.2.4v.4a7 7 0 00-.2 1.2 8.4 8.4 0 00.2 1.1l.3 1.2a13.4 13.4 0 00-4.9.4l-.3.3c-1.3 1-1.8 2-1.7 3.7-1.4-.2-3-1.2-5 .1a5.8 5.8 0 00-.6.7 6.4 6.4 0 00-.5.8 9.7 9.7 0 00-.5 1.1v.2h.2a6.4 6.4 0 011 .3 6 6 0 01.7.5 4.8 4.8 0 01.5.6 3.8 3.8 0 01.4.6 50.2 50.2 0 015.1-1.4h.1l3-2 4-3 1-.7.6-.6.8-.7.5-.5.2-.3.2-.2.2-.3.1-.3.2-.2.1-.3.1-.3.1-.2.1-.3v-.3l.1-.6.2-1v-.4l-.1-.2-.4-.3a96.7 96.7 0 01-8.5-9.5l-1-1.4a69.8 69.8 0 01-7.6 1.1l-2.6.2H74l-.5.6-.2.1-.2.2-.3.2h-.9a23.6 23.6 0 01-4.6-.6l-.8-.2-.2-.1V97l.2-.1.6-.3.2-.1zM50.7 62.7a18.4 18.4 0 003.2 2.8 7.8 7.8 0 001.2.6 34.7 34.7 0 001-4.1v-1.1c-.1-1-.4-2-.7-3a6.1 6.1 0 01-.7.6L53 59.6l-.3.3-2.3 1.6.1.3-.1.8h.1l.2.1z"/><path fill="#f5f6f6" d="M69.9 70zm.1 0zm0-.1zm-.3-2.4l1.7 1-1.3 1.3a129.3 129.3 0 00-.4-2.3zm1.9-1l-.3 1.2L73 66c-.5.1-1 .2-1.3.5zm-.8.3l-.4.8c.1.2.4.3.6.4l.2-1.4-.4.2zm1.5-3.1l.3 1.3.5-.1zm-1-1.2l.6 2.8.4-.1-.6-2.7h-.4zm-2.1 3.7a9 9 0 002.3-.8l-.6-2.9-2.7.1v.4h.1v.4h.1v.4h.1v.2h.1v.3l.2.4v.3l.1.2v.2l.3.8zm4.5-3.9c.3.8.7 1.2 1.2 1.7l.4-.5-.7-.8c-.2-.1.1-.3.3-.1l.7.7 1-1-.4-.3a58.9 58.9 0 01-2.4.3zm-.7.1c.4 1 .7 1.4 1.4 2.1l.3-.4c-.6-.4-.9-.8-1.3-1.8h-.3zm-.8 0a5 5 0 001.6 2.7l.4-.4c-.8-.7-1.1-1.4-1.5-2.3h-.5zm-5.1-3.1l1 .5a10.4 10.4 0 002.6-.5l-.3-.5-.2-.7-.2-.6v-2.8l-.6-.2a9 9 0 01-1.3-.9l-.2-.1-.5-.5-.8-1.2-.6-1-.4-.1-.2-.2-.2-.1-.3-.2-.3-.4-.3-.4-.1-.1.2 4.4a24 24 0 012.7 5.6zM55.8 46.4h.2l.1.1h.1l.2.2h.1l.1.1h.2v.1a23 23 0 016.1 5l-.1-3.9h-.4a7.7 7.7 0 01-1 0 7.5 7.5 0 01-1.8-.7 9.6 9.6 0 01-1.4-1l-.6-.4a4.8 4.8 0 01-1.8.1v.4z"/><path fill="#f5f6f6" d="M64.2 48.7c1 2 2.1 2.1 4 2l-1-.8-1.1-1.1s-.1-.1 0-.2h.2c.3.5.7.8 1 1.1l1.3 1 .5-.1-.1-.1v-.1a44.2 44.2 0 01-2.3-2.5h.2l1.2 1.4a41.6 41.6 0 01-1.8-3.4l-.3.3-.8.7c-.3.3-.6.6-1 .7v.1z"/><path fill="#f5f6f6" d="M64.7 48a14.6 14.6 0 002.6 2.3s.1 0 0 .2c0 .1-.1 0-.2 0a14.1 14.1 0 01-2.6-2.3V48h.2zm1.7 2.9c.5.8 1 1.9 1.9 2.5l1.3.9a21.2 21.2 0 01-1.5-1.6v-.2c.2-.1.2 0 .2 0a22 22 0 001.9 2l1.3.2a12.6 12.6 0 01-2.7-2.4v-.2h.2a12.5 12.5 0 003 2.6c.5 0 .9 0 1.2-.2a10 10 0 01-3.6-2.2v-.1h.3c.6.6 1.5 1.2 2.4 1.7l1.4.5 1-.8a6.5 6.5 0 01-3.6-2H71l-.2-.1a8 8 0 01-.6-.2l-.4-.2-.2-.1-.2-.1h-2.5a6 6 0 01-.4 0h-.1zm3.8 3.9c-.1 2 0 3.2.8 4.4l.6-.2.3-.1-1.1-1.8v-.2h.2l1.1 1.9.5-.2a19.5 19.5 0 01-1.2-1.7v-.2h.2a15.2 15.2 0 001.3 1.8l.5-.2a9.2 9.2 0 01-1.3-1.7v-.2h.3a6.6 6.6 0 001.3 1.8l.4-.2c-.5-.9-.8-2-1-3.2-1 .3-2 .2-2.9 0zM64.7 47l-.6.4V47l.6.2zm.8-.7l-.6.6-.8-.2V46l1.4.3zM64 44.8l2 .6v.4l-.3.3h-.1l-1.5-.4zm-3-1.3l1.7.8v2c-.4 0-.9-.2-1.3-.4h-.2l.1.2 1.4.5v1.2c-1.7.1-3.3-.8-4.4-1.7l-.3-.2 1-.4c.5.6.9.9 1.3 1.1.4.3.9.5 1.6.7h.1V47l-1.6-.6-1.2-1a6 6 0 001.9-2zm-6.9 38.3zm.2 0h-.1.1zm.2 0h-.1.1zm.4-.1h-.1zm.1 0zm.3 0zm.5 0zm.6-.1zM62 62.8zm0 0zm0 0zm0-.1zm-.1 0zm0 0zM48.8 81.4h-.1m.2 0zm.1 0zm.2 0zm.5.1zm7.1-27.2zm0 .1zm0 0zm0 0zm-3-6.6c-.2.6-.5 1-.5 1.5h.2c0-.5.3-1 .4-1.4h-.1z"/><path fill="#f5f6f6" d="M53.3 42.2l1.2-.5H56c.8.3 1.5 1 2.2 1 1 .2 2.2 0 3.2 0-.3.4-.9.7-1.5.8a7 7 0 01-3.2 0c-.4 0-.3.4 0 .4 1.4.1 2.7.2 3.9-.3l-.7 1c-1.5-.1-2.6-.1-4-.5-.3 0-.5.3-.1.4 1.2.2 2.4.4 3.8.3l-1 .6-2.4-.5-1-.2c-.5-.3-.7.2-.2.3 1 .3 2 .5 3 .5a5 5 0 01-3.2 0l-.6-.1a8.5 8.5 0 00-.3-1.6 12 12 0 00-.6-1.6zm1.2 3.6c0 1.2-.3 2.4-.7 3.4.3 0 .5 0 .7.2l.2.2c.7-1.1 1-2.3.9-3.5-.4 0-.7-.2-1.1-.3zm-2.3 3.6l.6-.3.3.3-.2.3-.7-.3zm-3.9-.6a9 9 0 014.4 1l-.1.8c-2-1.3-2.7-1.5-4.7-1.3h.1l.3-.4zm5.5 2.3a.8.8 0 010-1.6.8.8 0 010 1.6zm-5.3 11.4a1 1 0 010-2 1 1 0 010 2zm-.4-2.2a87 87 0 004.8-9.4l.7.6a23 23 0 01-2.7 6.4l-1.1 1.9-.5.7-.4-.2h-.7zm-3.6-8.2l.6-2.6h.2a6.3 6.3 0 001.3.2h.5v.1l-1.1.8-.7.7-.8.8zm7.8 13.5L49.8 63v.3c0 .7 0 .8.2 1.5.3.7 1.5.9 2.3.7zm-5.5.1h.6c0-.2 0-.4.2-.5v-.3l.2-.6c0-.1 0-.2-.2-.2l-.5-.2h-.6v.3c0 .2 0 .4.2.6l.1.6v.3zM43.1 60c0 .4-.2.8-.3 1.1 1.5 0 2.9-.1 4.4.4 0-.5.3-.9.6-1.1-1.5-.5-3-.5-4.7-.4zm2.9-2.5c-.2.8.5.7.7 0 .1-1 .5-2 1-2.7H47l-.6 1c-.2.5-.2 1-.3 1.7zm22.5 37l-.7 1.7h.5V96h.1l.2-.1.3-.3.2-.1h-.4v-.1h-.3l.4-.4c0-.2.2-.3.3-.4l-.7-.2zm-2.7 1.4l.7.1c.2-.6.4-1.3.8-1.9l-1.6-.5zM61.4 92l-.1 2.8 3.1.8v-2.4l-1.8-.5.5.4c.1 0 0 .3-.3.1a6.4 6.4 0 01-1.4-1.1zm-12.7-4.6c1.1-1.1 2.3-2.1 3.8-2.2v.2c-.4 1.3-.3 3-.1 3.9.1 1 .7 1 1.4 1.2.7.3 1.7.1 1.6.9v.4c-2.1-.5-4.4-1-6.2-.2zm12.1 8.3l.1-.5-.1.5zm-28.3 14.5c.2-.6.6-1 1-1 1.3-.3 1.8.3 2.4-1.8.6-1.8 1.1-3.6 1.8-5.3.7-2 .7-2 2.5-2.8.7-.4 1.6-.8 2.2-1.3 1.3-1 2.2-.8 3.6-.6 4.4.6 8.2.7 12.5.6 2 0 1.9-.8 2-1.6l.2-.4c-4.6.1-9 .1-13.6-1-1.6-.3-2.6-.5-4.1.3l-2 1.4c-1.3.8-2 1.5-3.1 3.3l-4.7 8.4c-.8 1.4-.6 1.2-.7 1.8zm1.1 1.7c-1.5-.2-2 .9-1.7 2.2l.7 3.4c.8-.8 2-1.4 2-2.6 0-.9-.3-3-1-3zm15.1-22.5l.2 2.2-.7.3a8.4 8.4 0 00-1 .4l-.4.1-.5.1c-1.4-.8-2.8-1.6-3.9-2.8-1.5-1.8-2.7-4-5.1-5.6-.2-.1-.5-.4-.8-.3-.5 0-1 .8-1.6 1.6-.8 1-1.5 2-1.4 5.3 0 .7.2 1.4-1 1.7a1 1 0 00-.5.3l-.2-.8c.1-1.7.8-3.3 1-5 0-1 .6-1.7 1.5-2.4.7-.6 1-2.1 2.4-2 2.1.4 3.9 1.7 5.6 3 1.8 1.4 4.4 2.4 6.4 3.9zM30 105.8c0 .3 0 .6.2 1.1.4.8 1.1 1.4 1.6 2.2.3.5 0 1-.4 1.5-1 1-1.6 2-2.2 3.1 0-1.7.8-2 1.1-4.2 0-.7-.6-3-.3-3.7zm10.6-12.3zm-11.4 1.6c.2-1.4.3-2-.2-3-.2-.5 0-.8.3-1.3.6.5 1.3 1.2 1.6 1.8.3.4.2 1-.2 1.4-.3.4-1 .8-1.5 1.1zm56.5 1l3.5-1 4-.1v.2l.3.3.1.3.2.3.3.3.3.4.3.4.3.4.4.4.4.5.5.4.5.5.5.5.6.6 1.3 1.2.1 1.4c0 1 0 1.7.6 2.6l.5.4c1.2.9 1 1.7-.2 2.7-.6 0-1.2.5-2.2 1.5-1.6 1.5-3 3-3.6 5.7l-.6 2c-.4 0-.8.2-1.1.3a7 7 0 00-1.9 1.2 85 85 0 00-1.8-.1h-1a40.1 40.1 0 00-3.8.2l2.5-1.8c4.8-3.4 8.3-5.5 8.5-9l.2-1.5c0-.2-.4-.4-.6-.6a64.7 64.7 0 01-9.2-10.6zm1.5-5.3l.4-.2-.1.1h-.3zm-1.1.2zm6.9 2.2A50.1 50.1 0 0174.3 97l1-1.4 1.5-.3h.2l.4-.3h.1a98 98 0 0015.2-3.3l.3 1.5zm-19.9 3l.7 1-.6.7a9 9 0 00-1-1h.1l.4-.1.4-.6zM73 98c-.3.2-.6.2-1.4.2-1.6-.1-3-.3-4.2-.7-1.4-.2-.5-.4 0-.6h.1a19.7 19.7 0 003.9-.2 12.3 12.3 0 011.5 1.3z"/><path fill="#f5f6f6" d="M74.6 82.5l.6.2c1 .4 1.7 1 1.6 3-.1 1.5-.3 3-.2 4.5.2 1 .6 2 1 2.9.6 1.6-.6 2-2.4 2.3L74 96.9a9.2 9.2 0 00-.6-.7l.1-.2.4-.6.1-.4.4-.8c0-.2.2-.4.4-.6l.1-.1.5-.8.1-.2.1-.3V92a5 5 0 00.1-.9l-.2-1.4-.3-1.5c-.1-2-.4-3.8-.6-5.6zm-5-.4l.7-.2a10.4 10.4 0 00.5 1.1l1.1 1.8a11.3 11.3 0 01.9 1.5 8.8 8.8 0 01.5 2.5v1.5a5.7 5.7 0 01.1 1 5.6 5.6 0 01-.1.8 6 6 0 01-.9 1.7l-.6.8-.1.2-.4-.3-.3-.1-.2-.2 1.3-1.8c.7-.9.8-1 .7-2l-.5-2-2.7-6.3z"/><path fill="#f5f6f6" d="M68.9 80.5c2.8-.3 4.6.3 7.3 1.3l.3 1.5-.2-.2a3 3 0 00-.8-.6l-.9-.3h-.1l-.2-.1h-.1a13.5 13.5 0 00-2.3-.5h-1.7a6 6 0 00-.4.2l-.4.1zm3.9-13.8c-.6.3-.9.8-1.2 1.4l.6.4h.1a52.8 52.8 0 004.2 2.7l.6.4c1 .6 2.2 1.1 3.3 1.6l-.1 1 4.2-.1v1.2c1.7 0 3.3 0 5-.6l.3.6c1.4-.1 3-.5 5-1.5 1.6-.9 0-1.4-.7-2-1-.6-1.8-1.5-2.7-2.3l-2.5.9-2.1-7c-.3 0-.5.2-.8.4 0 2.4.2 4.7.3 7l-3.1.3c0-2.2.2-4.3.3-6.4h-.8L80.2 71l-2.7-1 2.6-6-.9-.2-3.8 4.7-2.6-1.8z"/><path fill="#f5f6f6" d="M78 61.7c1.5.9 2.7 1.5 3.9 2.5 1.9-1.4 5.6-2.8 6.6-2.3l-.2-.6c-2-.4-3.9.6-5.7 1.6l-.6.3-2.7-1.7H79a8 8 0 01-1 .2z"/><path fill="#f5f6f6" d="M86.8 62.4L89 70l2-.7-2.6-7a3 3 0 00-1.7.1zm-3 1.2l-.3 7.2 2.5-.2-.4-8-1.8 1zm-3.3.1l-2.6 6.1 2.2.9 2.5-6.6-.8.6-1.3-1zM73 66.4c1.3-1.5 2.8-3 4.5-4.4l2 1-4.2 5.1c-.8-.5-1.6-1-2.4-1.7zM88.3 47l.2-.2c.4 1 .5 3.2-.5 6h-.3c.8-2 .7-4 .6-5.9z"/><path fill="#f5f6f6" d="M79.8 61.5l2.2 1.4c2.4-1.5 4.5-2.4 6-2l-.8-2.3-1.2.1c-.4 0-.4-.3 0-.3h1v-.5a32 32 0 002.2-8.6c-.4 1.5-.6 3-1.2 4.3h-1.4a130 130 0 01-3.4 4.7 27.3 27.3 0 01-3.4 3.2zM79 44.6h.3a11 11 0 00-1.9 6.8h-.2c-.3-2 .3-4.3 1.8-6.8z"/><path fill="#f5f6f6" d="M75.3 45c.7 0 1.3-.2 1.8-.3 0 .1 0 .3.2.4l.8-.4-.7.7c-.1.2.2.5.4.3l.6-.8-1.2 3c-.2.4-.2.6-.2 1v2.6h-.2v-3c0-.3-.3-.2-.3 0 0-.2-.4-.2-.4 0v3l-.1-2.8c0-.2-.4-.2-.3 0V50c-.2-1.7-.4-3.3-.4-5zm-.6.4l.3-.2c0 2.3.2 4.5.7 6.4h-.2c-.4-2-.6-4-.8-6.2zm-.4.2h.2c0 2 .3 4 .8 6H75c-.6-1.8-.9-3.8-.8-6zm5.7 4.7c-.2-.3.2-.6.4-.3a7 7 0 003.2 2.5c1.3.5 2.7.7 4.3.7a8 8 0 01-5.6-.7 7.5 7.5 0 01-.8-.7l-.3-.3H81c-.4-.4-.8-.8-1-1.2z"/><path fill="#f5f6f6" d="M85.6 46.1c.6.8 1.2.8 2 .7 1-.3.9-.7-.2-1-.6-.2-1.3-.3-2-.3-.8 0-1.4.2-2 .7-1 .8-2 2-3 3.2l.8 1c.8-1.5 1.8-2.8 3-4 .4-.3 1-.8 1.4-.3z"/><path fill="#f5f6f6" d="M85.3 46.2l.2.3v.3a24 24 0 00-2.3 5.3 8 8 0 01-1.8-1.5c1.2-1.9 2.4-3.5 3.6-4.3.1-.1.1-.2.3 0zm.7.6l.5.2c.4.2.3.2.2.6a21 21 0 01-.8 4.7c-.1.5 0 .4-.5.4s-1-.1-1.4-.3c-.4-.1-.5 0-.3-.6.5-1.7 1-3.2 1.9-4.7.1-.2.1-.4.4-.3zm1.2.4l.5-.1c.3 0 .3 0 .4.2a12 12 0 01-.6 5.2c-.1.2-.2.4-.4.4h-.7c-.2-.1-.2-.2-.1-.5.5-1.6.7-3.2.7-5 0-.1 0-.2.2-.2z"/><path fill="#fff" d="M79.7 44.7c1.7 0 3.5.1 5.2.5l-.9.3c-.5.1-.6.2-1 .6a21 21 0 00-3.4 3.9 5227.3 5227.3 0 011.2 1.8 13.1 13.1 0 00-2.8 4.5c0-1.5-.2-3-.3-4.4 0-2.4.1-4.8 2-7.2z"/><path fill="#f5f6f6" d="M84.4 42l2.5-1.6.5 1-3 .6zm-2.1.3h.8l3.4-2-1.3-.5c-.8 1-1.7 1.9-2.9 2.5zM77 35.9a14 14 0 006.1-1.4s-.1 5.1 3.6 5.4a16 16 0 01-.5-4.5c0-1.4.5-2.6-.1-3.9-.3-.6-.8-1.1-1.4-1.6-1.2-.9-2.7-1.4-4.2-.8-2.4.8-4 3.8-3.5 6.8zm-17.4 33c.3-.4.4-1 .6-1.4h-.9l.3 1.4zm-.9.5a1.4 1.4 0 00.6-.3l-.3-1.7h-.3v2zm-1 0h.7v-2h-.1c-.5.7-.6 1.4-.6 2zm-1-.4l.6.3.6-2h-.2a7 7 0 00-1 1.7zm.2-1.9l-.5.4v1.1l1-1.4h-.5zm-1.3.8l.8-.7V67a22.4 22.4 0 01-1-.3zm-.9.2h.6l-.1-1.3-.3-.1zm-1.2-.1h.1l.8.1.2-1.6h-.2zm-.9-.8c.1.3.3.5.6.7l.9-1.6H54l-.3-.2zm-.1-1.3v1l1-1h-.2zm10.2 1.7h.4v2.1l-.4.1v-2.2zm-.7 0h.2c.2.7.3 1.5.3 2.3h-.8c0-.7 0-1.5.2-2.3zm1.5 0v2h-.1v-2zm-2.1 0l-.6 1.8c.1.3.4.5.6.5 0-.7 0-1.5.2-2.3h-.2zm-.9 0c0 .2-.2.3-.3.5l.4 1 .5-1.5h-.6zm7-.5h.4l.6 1.5-.5.4-.5-1.9zm-.5.1h.3c0 .6.2 1.3.4 2H67v-2zm-.5.1h.2v2L66 69l.5-1.8zm2.9-.3v.3c-.2.4-.4.8-.7 1a58 58 0 01-.4-1.2l1-.2zm-3.7.4l-.5 1.4.5.2.4-1.7h-.4zm-.8 1v.1l.5-1.1h-.6z"/><path fill="#f5f6f6" d="M50.5 63a13 13 0 003.4 2.9c1.2.6 2.6.9 4.8 1.1 2.9.4 5.7 0 8.6-.3 2.4-.2 3.7-.4 6-1.7l.2.2c-2 1.3-3.9 1.6-6.2 1.8-2.9.3-5.7.6-8.6.3-2.3-.3-3.7-.6-4.9-1.2-1.2-.6-2.1-1.5-3.5-3V63c.1-.1.2 0 .2 0zm4.1-12c.4.7 1 1.2 1.4 2 .8 1.4.8 3-.4 4.4-1 1-1.9 1.4-3 2.2L50 61.4l-.4-.3-.2-.4.7-1L51 58a40.1 40.1 0 002.5-5.8l.3-1c.3 0 .4 0 .6-.2z"/><path fill="#fff" d="M55.5 66.2c.4-1.4 1-3.1 1-4.5 0-1.3-.4-2.7-.7-4l.3-.5.3-.5.2-.4.1-.5v-.4l.1-.5v-.5l-.1-.4-.1-.5-.5-1-.6-.8-.8-.8a1 1 0 00.1-1 11.4 11.4 0 00.6-1 6.4 6.4 0 00.4-1.3v-1.2c2.9 1.4 5.2 3.2 7.1 5.5l.3 7.2h-.5l-.2.1h-.2l-.1.2H62v.2l-.1.1v.4l-.2.1-.2.2v.1l-.1.2v.7h.1l.3.2-.2.2v.8h.2c.1.2.2.3.4.3v.2h-.1v.4l.1.2h.2a2.3 2.3 0 00.8.4l.1 2.9a39.3 39.3 0 01-3.9 0 30.5 30.5 0 01-4-.7zm8 3.7l.4 9.9-2.8.9a29 29 0 01-12.5.7c1.3-4.7 4-8.6 5.9-12.8v-.2h.1l.7-.1.2-.1.5-.2.1-.2v.7l.1.3.2.4h.2c.2.2.4.4.7.4h.3l.8.1h.4l.6-.3v.1l.5-.7.2-.2v.3l.2.4.4.5.2.2.4.1h.2l.2.1h1l.4-.2h.3l.1-.1zm1-11.8l-.1-4.4c1 1.7 2 3.6 2.7 5.6l-1.5-.8a3 3 0 00-1-.3h-.1zm3.7 4.5l1 3.7-4.4.5v-2.6a13.3 13.3 0 001.5-.1l.4-.2a7.8 7.8 0 001.3-1.2h.2zm1.4 5.1l.5 2.2a32.5 32.5 0 00-2.9 3.3l-.2.3-.1.4v.1l-.1.2v.6l1 3.3-.1.2-2.5 1-.3-10.5.2.3.4.1.1.1h.2l.4.1h.6v.1h.2a3.2 3.2 0 00.8-.1h.2v-.1l.2-.1.4-.3.2-.2.2-.2.6-.8zM29 96.8l.1-1.3c.3-1.7.4-2.4 0-3.3-.4-.7 0-1 .5-1.8.2-.3.7-.7 1-1.4a28 28 0 002.8-8.3c.2-.7.6-.8 1-.8l3.2-.2c.4 0 .5.5.9.8 1.4 1.2 2.7 2 4.4 2.7 2.2.8 4.5 2 6.4 3v.3l-.5.5-.3.3.4 4.3-.7.3a8.4 8.4 0 00-1 .4l-.4.1-.5.1c-1.4-.8-2.8-1.6-3.9-2.8-1.5-1.8-2.7-4-5.1-5.6-.2-.1-.5-.4-.8-.3-.5 0-1 .8-1.6 1.6-.8 1-1.5 2-1.4 5.3 0 .7.2 1.4-1 1.7-.6.2-.8.8-.8 1.2 0 .3.3.6.4.9l.2 1.4c0 .5.5.7.6 1.3-.8 1.4-2.1 2.4-3.6 3.4 0-1.4-.3-2.5-.3-3.8z"/><path fill="#ffdc00" d="M31.5 141s2-1.7 3.3-1.2l3.9 1.1s.8.3 2.6-.5l.5-.2c1 .2 5.3 1.7 7.6 1.5 4.2-.1 2.6-1 7-.7l2.7.4c.5-.3.9-1.4 1-2.1.3-1.3 0-2.6-.2-3.9h.3c.2 1.1.5 2.9.3 3.8a38 38 0 0026.8-6.5c2.7 2.3 6 3.8 10.2 3.7 1 0 2-.1 2.8.2 1.4.4 1 2.6-.6 2.8-1 .1-4.2-2-5.7 0-.2 0 1.5 0 1.2.4-.3.1-1.9.2-2.3 1.3.3-.2 1.5-.6 2.4-.5.4 0-1.3.7-1 1.4a3 3 0 012-.3c1.4.4 1.9.8 3.4.8s2.6-.5 3.4-1.4c1-.9 1.7-2 2.5-3 .4-.6 0-1.2-.4-1.5-1.3-1-1.6-1.6-1.3-3.6.3-2.4-.4-5.3-1.4-7 0-.2.3-.3.3-.2 1.4 2.4 1.4 5.7 1.6 6.9 2.7 1.3 7 2.4 10.5 1.7 3-.5 6-1.4 7.6-4.6.8-1.4 1-3.1.5-4.8-.3-1.3-1-2.5-1.5-4-.1-.5-.5-1-.7-1.4l-1.6-2.8c-2.1-4.1-2.5-10.3 2.5-10.2 1 0 2.6 1 2.8 2-.3-.2-2.6.6-2.4 2.1.2 1.7 2.5 2.5 2.7 4.6.5-.8.8-1.7 1.2-2.8.2-.7.2-1.1 0-1.8-.1-1-.7-1.9-1.1-2.3l.3-.2c1.8 1.8 1.4 4.3.2 6.7 1.3-1.5 1.5-4.8 1-6.1-.5-1.4-1.3-2-2.3-2.7l.2-.3c1.5 1.2 3.7 2.7 2.2 7.7 0 .3-.6 1.1-.4 1a6 6 0 001.3-1.9c.4-1.3 0-4.4-1.2-6-1.1-1.6-3.7-2.2-4.6-2.2-1 0-9.7 0-6.6 11 2 7 2.8 6.7 3.2 8.7.3 1.6-.8 4.4-4.7 4.3-1.8 0-3.7-.7-5.4-1.5-2.8-1.4-5.5-3.7-8.5-4.8a28 28 0 00-21-.9c-.3.1.2.9 0 1.1-1 1-2.5 1.7-3.6 2.4l-.8.7c-.7.9-1 2.2-1.2 3.3-.3 1.6-1.5 2-2.8 2.7l1.7 1a13 13 0 01-5.6.6c-2.4.8-5.1 1.4-8 .9-.6 0 .5-.9.9-1.3-2-.3-2.6-1.2-3-2.4-.4-1.2.5-2.5.6-3-1 .3-1 1-1.8 1.6-.4.3-.5-.1-.2-.6.3-.6.7-1.4 1.4-1.5 0-.2-.3-.8-.7-.6-.6.4-.5 1-1.2 1.5-.5.4-.6.2-.4-.2.1-.6.5-1 .8-1.4.1-.2.5-.4.4-.6-.1-.2-.3-.4-.5-.4l-.4.2c-.5.3-.8.7-1.3.9-.4.1-.4-.1-.2-.5s1.2-.8 1.3-1.2c0-.2-1-.1-1.2-.2-.2 0-2.5 0-.7-.6a4 4 0 013.2.7 7 7 0 011.9 2.5c.9-1 3.3-2.6 4.5-3-.3-2-.7-4.8-2-6.8a8 8 0 00-4.6-3.2 7 7 0 00-3.5 0c-1.4.3-2.6 1-3.6 2-.6.6-1.9 2.4-2.3 3.3-.3.8-.6 2-.6 4.5 0 1.7.9 3.3 1.6 5a19 19 0 002.6 4.4c.5.6 1.7 1.2 2.4 1.6.2 0 .1-.7.5-.7.3 0 .3.5.2.8 0 .6-.3 1-.5 1.9-5.7-.8-8.5-.4-9 0-6-2.5-9.9-1.2-11.8.1.5.2 1.6 0 1.5.2-1.3.7-2.1 1.3-2.4 2.6.8-.4 1.8-1.2 2-1 .1 0 .1.1 0 .2a1 1 0 00-.3.5c-.3.6-.5 1.3-.4 1.8zM64 118.4c2.7 2.2 1.5 5-.5 6.5-1.2.9 1.4 2.9 2.5.2.9-1.9 3.8-3.5 6.3-4.9 1.1-.7 2.3-1.3 3.8-.8 1.7.6 2.4 1.7 2.1 2.7 0 .3-.4.3-.6.7-1.7 1.1-3.7 1.7-4.5 4-.5.5-1 1-1.5 1.3l.9 1.3c-.6 1-1.7 1.5-3 2l1.5.9a8 8 0 01-4.7.3c-1.7.9-4.2 1.2-7.5 1l1-1.1c-4.6-.8-5.1-5.3 2.6-8.8 1.7-.7 2-3.5 1.6-5.3zm7.7-2.3l.1 2.7-.8-.2a8 8 0 01-5.6 5l.2-.7c2.4-1 4-2.5 4.7-4.5l-.8-.3 2.2-2zm12 19.3c.1 1.3.8 3 1.9 3.6.6.3.3 1 0 1.4-.7.8-1.6.8-2.5 1-1.1.2-2.4.3-3.2.2-3.3-.5-5-.3-6.9 1.2 0-1.2 1-2 2.1-2.9a7 7 0 00-3.7 1.3c.2-1.9 1.6-2.3 3.6-2.1 1.6-1 3.1-1 4.5 0l.2-.3-2-.8a30 30 0 006-2.6zM46 127.8c.7 1.8 1.4 3.5 2.8 5-1.5.3-3.6 1.4-5.1 0-1.6-1.6-3.8-3-6.2-5.4-1 1.2-2 .7-3.2.1-1.2-.6-2.3-.8-3.4-.2l.9-1.4c-1.2 0-2.2 0-3.2 1 0-.7.5-1.1 1.9-1.7-.3-.2-1-.2-1.8 0 2.1-1.4 5.5-2.1 8.4-1.8 1.4.2 2 .6 3.1 1.4 2 1.2 3.9 2.1 5.8 3zm24.1-5.6l.8-.6 2.1-1.5 1-.3h1l.8.4.4.6c.5 0 .8.2 1 .4.4.2.6.4.7.7l-.1.2h-.2c0-.3-.2-.5-.5-.7l-.9-.4a40.3 40.3 0 00-4 4.2c-.2-.1-.2-.2-.1-.2a26 26 0 013.9-4v-.1c0-.2-.2-.3-.3-.4l-.7-.4h-1l-1 .3-2 1.4-.8.6s-.1.1-.2 0v-.2zM65 128v.3c.8.1 1.5.2 2.2 0 .7 0 1.4-.7 2-1.4.2-.2 0-.3-.2-.2-.3.2-.6.3-1 .3l-.4-.1a1 1 0 00-1-.2c-.3.1-.5.4-.5.7 0 .2 0 .5.2.7L65 128zm1.7-.6v.1l.2.1h.1c0 .1.1.1.1 0v-.3H67l-.1-.1v-.1l-.1-.2h.2l.1.1h.1l.1.1v.1l.1.2a1 1 0 010 .4l-.1.2h-.7l-.1-.1a1.1 1.1 0 01-.2-.3.4.4 0 010-.1v-.3h.2v.2z"/><path fill="#f5f6f6" d="M43 47.7c.8.7 1.3 1.4 2.7 1.7 1.4.2 2 0 2.5-.9H48a3.4 3.4 0 01-1.4-1.2 6.3 6.3 0 01-.5-.8c-.9.5-2 .9-3.1 1.2z"/><path fill="#f5e6e6" d="M67 74.7c-.4-1 2.2-3.5 4.7-6.1v-.1l.5.3a54.7 54.7 0 004.2 2.7l.6.4 2.4 1.2c-1.5.5-3.9 1.8-5.3 2.6-.7.2 0 1 .3 1.8l1.5 3.8a12.5 12.5 0 00-7.1-1L67 74.7z"/><path fill="#f5f6f6" d="M79.3 25.6c0-.1 5.6-1.8 8 2 .5.9 1.1 2.2 1.2 3.2.2 2.9-.4 3.6-.2 5 0 1.2.6 2 1.6 2 1.1 0 1.7-1 2.6-2.3.5-.7.8-1.5 2.5-1.5 1.5 0 1.3 2.7 2.5 2.9.6.2 1 0 1.3-.5 0 1-.4 2-1.4 2-.5.1-1 0-1.2-.6-.5-1.1-1-1.5-1.9-1.2a6 6 0 00-1.7 1.8c-.5.6-.8 1.3-1.5 1.8-.5.3-1 .5-1.7.5v-.8H89v.7h-.4v-.8h-.2v.7l-.6-.2c0-.3 0-.5.2-.7l-.2-.2-.3.7-.2-.2c0-.3 0-.3.3-.6a2.7 2.7 0 01-.2-.3l-.4.6-.3-.5.5-.5-.1-.2-.5.4v-.4c0-.2.2-.3.4-.5v-.4l-.5.4v-.7l.4-.3v-.3l-.5.2.1-1.7c0-.9.2-1.8 0-2.7 0-.6-.3-1-.6-1.6l-.3-.2.5-.9-.3-.1c0 .3-.2.5-.4.7l-.2-.2.7-1.7h-.4c0 .6-.2 1-.5 1.5l-.2-.2c.3-.9.4-1.6.4-2.5H85v1.3l-.3 1-.2-.1v-.8h-.2v.6L84 29v-.6c-.1 0-.2-.2-.3 0v.5l-.3-.1V28l-.2-.2s-.2 0-.2.2v.7l-.3-.1v-1s0-.3-.2-.4l-.3.1.2.4v.8H82V28l-.3-1c0-.2-.3-.3-.3 0l.3 1v.6h-.4v-1.3l-.7-1.2-.1-.2c-.1 0-.3 0-.3.2.3.5.7 1 .8 1.6v1h-.7c.2-1.3-.3-2.2-1.1-3z"/><path fill="#fff" d="M61 37.9c-.4 0-.4-1 0-1h1c-.3.3-.7.5 0 1h-1zm0 1h3.4c.5 0 .6-.7 0-.7H61c-.5 0-.3.7 0 .7zm.3.5H64c1-.2.2.7-.5.8h-1.8c-.9 0-.9-.8-.4-.8zm0-3.5c-.3 0-.5.7 0 .7h.7c.4 0 .5-.7 0-.7zm1 2h2c-.2-.5-.2-.7-.7-.4a3 3 0 01-.7.3h-.6zM74 45.8l-1.9.9c-2.1-2.6-4.7-5.6-6-8-.1-1.4-.2-2.3-1.6-3-1-.6-1.6.4-2.3 1.5-.3.5.2.3 1.1 0l1-.3c.2-.2.4-.1.3 0 0 .2-.2.2-.3.3.2.1.4.3.3.8.7.2.8.7 0 1.1.3.7 0 1-.7 1.3h.3c1.5 3.7 2.9 7 5 10 1.2 1.3 4.6 1.1 5.6 1.3-.5-1.7-.9-3.7-.8-6zm7.2 6c1.3 1.4 3 2 5 2a25.7 25.7 0 01-5.4 6.4c-1 1-1.5 1-2.9 1.3-2.9.5-6.4.7-10 .9l-1 1c-.7.5-.8.5-1.5.5-2.3 0-3.6-.6-2.6-1v-.3c-.6.4-1.5-.7-.4-1 .1.1.1-.3 0-.2-1.2.2-.7-1.4 0-.9.3 0 .3 0 .2-.1-1.3-1.5 1.7-1 3-.6.7.2.5-.1.2-.2l-.6-.2c-.6-.1-.9 0-1-.6 0-.5.4-.5 1.2 0l2.7 1.3a10 10 0 003.6-.8l6.4-2.6c.6-1.6 1.6-3.3 3-4.8zm-9 17c-.1 1.5-1.4 2.5-2.5 3.6a4.1 4.1 0 00-.9 4.4l1.5 3.4 2.4.1-.1-.7c-.1-1-.4-1.4-1-2.1-.3-.3-.6-.6-.7-1-.2-.3-.1-.8 0-1.1.3-.7 1.2-1 1.8-1.3 1.4-.7 2.8-1.4 4.2-2.3l-.5-.3a50.7 50.7 0 01-4.2-2.7zm-1.6 13c.4 1.4 1.3 2.3 2 3.6.9 1.4 1 3.3 1 4.9.4 1.7-.5 3.2-1.7 4.6h.1l.8.7.2.1.2.3c.2-.2.4-.4.4-.7.5-1.6 1-1.7 1.5-2.6.8-1 0-3-.1-4.6l-.6-5.7a8 8 0 00-3.8-.5zM68 96.7h3v-.1a9.8 9.8 0 00-1.6-.8l-1 .7-.4.2zm2.6-2.2l2.3 1.6c-.3.7-.4.7-1.1.7-1-.7-2-1.2-2.8-1.4l1-1.2.6.3z"/><path fill="#f5e6e6" d="M64.6 40l4.9 7.7c.5.7.7 1.3 1.6 1.7 1 .3 2 .3 3.2.2l.5 2.1c-1-.2-4.4 0-5.6-1.4a43.7 43.7 0 01-5-9.9h-.3l.7-.4zM77 58.4c3.5-.9 6-2.2 8-4.7h1.2a25.7 25.7 0 01-5.5 6.5c-1 1-1.5 1-2.9 1.3-2.9.5-6.4.7-10 .9l-1 1c-.7.5-.8.5-1.5.5h-.6l1.5-1c.6-.5.7-.6.8-1.4l.2-1.5c.4.6.7 1.2.6 2 4.5-.7 9-.7 12.8-3.5-1.3.1-2.3-.1-3.6-.1z"/><path fill="#fff" d="M80.6 62a11 11 0 013.5-2.5 2 2 0 011.5-.1c.6.2.5 1 .3 1.2-.3.3-1 .3-1.4.4-.6.2-1.1.7-1.6 1-.5.1-.8.6-1.2.7l-1.1-.7zm-7.4 7.2a43 43 0 004 2.4l.7-1.4-.4-.2 2.6-6-.9-.2-3.8 4.7-1-.7zm7 4h.2l-.2 1 4.3-.1v1.2c1 0 2.1 0 3.2-.2l-1.6-7.8.2 3.6-3.1.2.2-4.4zm9 1.6h.3l.3.5c1.4-.1 3-.5 4.8-1.4v-.1c.2-.5.1-.4-.3-.5l-.5-.1c-.8-.3-1.3-.3-1.8-.9a11 11 0 01-2-2.3l-1.2.4-2.1-7c-.2.4-.2.9-.2 1.5.2 4 1.4 6.4 2.3 9.2l.2.7zm-.8-41.2a4 4 0 00-1.3 2c-.2 1-.2 2.8.5 3.6 1.4 1.5 3-.2 3.7-1.2.6-1 1.5-2 2.7-2.3.5-.1 1.3 0 1.8.4.6.5.7 1.8 1.3 2 .4.1.8-.2 1.1-.6.2-.1.3-.4.3-.7-.3.2-.6.3-1 0-1.2 0-1-2.7-2.5-2.8-1.7 0-2 .8-2.5 1.5-.9 1.3-1.5 2.3-2.6 2.3-1 0-1.5-.8-1.6-2-.1-.8 0-1.4.1-2.2zM81 25.2l.9 1.2c0-.2.2-.4 0-.8l-.3-.4H81zm1.4 0h.6l.1.7c0 .2 0 .5-.2.6l-.5-1.4zm2 .2l.4.2.2.9-.1.7-.5-1.8zm2.4 8.5v-.6l1-.8c.3-.2.3-.2.3-.5v-.3c.2.4.2.4 0 .8-.2.9-.5 1-1.3 1.4zm0-1.8l-.1-.2c.3-.7.7-1 1.4-1.7l-.2.8c-.3.6-.5.8-1.2 1.1zm-.4-.8L86 31a5 5 0 001.3-2.1c0-.2.1-.2.2 0-.3 1.3-.5 1.9-1.2 2.5zm0-4.2l-.1 2c.3-.4.6-.8.7-1.4-.1-.5-.3-.6-.6-.6z"/><path fill="#00a9df" d="M77 44.2l1-.8-.1.8h-1zm1.3-.1l1.5.1c.3-.6.3-.7.3-1.4-1.6 0-1.4-.2-1.8 1.3zm2 .3c6.4.6 13.1 2.2 19.1 3.9 2.2-3.2 4.5-5.5 6.8-7.2.3-.2-2.8-.4-8.8 0l-6 .5c-2 .1-3.7.2-5.7.7l-2.3.5h-2.9l-.2 1.6zm9 2.8a23 23 0 01-1.3 9.5c6.1 9.2 9.2 10.4 11 10.4 2.2 0 2.5-1.1 3.6-2.1.3-.3 1.2.3 1.4 0 1-1.3 1.3-3.6 2.6-4.5 1-.6 1.9-.6 2.8-.5.6.2 1.4-.4 2-1.2.8-1 .1-1-.2-1.4-.4-.8.5-2.5 1.2-3 4.4-3 5.2-.2 6.3-7.4-3 .7-5.8 1.5-8.7 1.6-5 .2-2.1-2.5-.7-4.5 2.1-3-1.5-4.3-4-1.8a47.6 47.6 0 00-6 7c-2.4-2-5.9-2.6-10-2.1zm20.4-3.1l8.2 2.8a105.3 105.3 0 01-7.6 1.4h-2l-.2-.1-.2-.1h-.1l-.1-.2h-.1v-.1l-.1-.1V47l.2-.2.1-.3.4-.6 1.3-1.8.2-.1z"/><path fill="#0092cd" d="M97 50.3l20.8.8c-.9 1.9-2.1 1.2-5 3.1h-.2zm4.1 16.2c.6-.4 1-1 1.5-1.5.2-.2.7 0 1 0l-11.5-7.3 9 8.9zm5.5-6c1-.6 1.9-.6 2.8-.5.6.2 1.4-.4 2-1.2.5-.6.4-.8.3-1l-.7-.5-16.7-4.6z"/><path fill="#ffdc00" d="M60.5 23.2h1.8v-2h.8v2h1.5v.6h-1.5v1.4h2.3v.6h-2.2v2.6l1.4.6v.6l-1.4-.6v.3l.2 6-.1.2H63l-.5.6-.2-6.8v-.6l-1.2-.6v-.6l1.2.5v-2.2h-2.6v-.6h2.5v-1.4h-1.8zm3.1 17.4l.6 17.6-.2.2v.8h-.6l-.6-18.6h.8zm.8 23.6l1.7 48.4h.5l-.8 6.2-1.1-6.2h.6L63.6 64h.2l.4.1h.2zm-1.6-23.7h.2z"/><path fill="#ac4882" d="M74.9 76.1c.9-1 3.2-1.5 5.2-2.4l-.2.8h.6l3.7-.1v1.1a208.1 208.1 0 002.3 0 16.2 16.2 0 002.8-.5l.4.6a32.2 32.2 0 002.9-.6l-.1.5c-.7 5.6-3.9 8.8-7 10.3s-3.7 1.3-8.5 2v-.2a14.6 14.6 0 00-.7-6l-.2-.5c-.7-1.7-1-3.2-1.2-5z"/><path fill="#f5f6f6" d="M105.5 116.5zm9.7-28.9l-.6 1.5c-1.4 3.3-3 6-4.9 9-1 1-.3 4 .3 6.2.2.5.3 1 .6 1.4.4.5.7 1 .9 1.7.3 1-.2 1-1 1.7a17.2 17.2 0 00-4.9 7c-.8-.2-1.6-.4-2 .3.6-1.6 1.5-3 2.5-4.2l2.5-2.8c.7-.9 1.3-1.7 1-3a64 64 0 00-3-7c-.2-.6-.4-1.1 0-1.8 2.2-3.2 4.7-6.2 5.6-10h-1 2v.1h1.7zm-.8-4.5h.4l1.2-.1v.3c0 1 0 2-.3 2.8l-.2-.7v-.2l-.6-1.2-.3-.6zm-18-8l-.2 1-.8 3.3 2.6.9.7.1-.2-.9-.3-1.2-.4-1a14.2 14.2 0 00-1-1.6zm5.9 5.7l-1 2c1 .4 2.1.6 3.8.4h.1a2 2 0 01-.4-.6 2 2 0 01-.1-.7 2 2 0 010-.6 2 2 0 01.4-.6 2 2 0 01.5-.4l.4-.1h.6a2 2 0 01.7.2 2.1 2.1 0 01.4.4l.2.4a2.2 2.2 0 01.2.6v.2l.5-.3-.7-1.2a19.1 19.1 0 00-7.2-9.5l-2.3.6c3.4 3 6 6 6.6 9.2-.9.3-1.8 0-2.7 0zm1-10.4c2.1 0 4.2.3 5.7 1.2 4.9 3 4.7 5.7 5.6 8.5l-.7.2-.1.1a2 2 0 00-.7-.1h-.4a2 2 0 00-.6.3 2 2 0 00-.4.4 2 2 0 00-.3.6 2 2 0 000 .7 2 2 0 00.3.6v.1c-1.2.5-2.5.9-3.7 0 .5-.5.9-1.1 1-2 1 .3 1.7.1 2.4 0a19 19 0 00-8.2-10.6zM114.7 82l-.1.8h1.5c.2-.9.3-1.6 0-2.4h-.8c0 .5 0 1-.6 1.6zm-16 1.1c-1.4 1.4-1.5 3-1.2 4.7h.5c0-1.3.1-.8.4 0h.6v-1.2c0-.2.3-.2.3 0v1.2l1 .1-.3-1.7c0-.5.1-.5.3 0 0 .3 0 .9.3 1.7h.6l-.7-4.6c-.6.4-1.2.2-1.9-.2zm2.1 0l.8 4.9.6-.1c.2-2.3.2-3-1.4-4.7zm6.8 1l1.1 2.8c.2.3 0 .5-.3 0l-1.2-2.7c-.1-.2.2-.7.4-.1zm-2.2-.7a9 9 0 00-.6 4.2h2v-.7a7110.3 7110.3 0 01.3.8l.6-.1-.5-1.8c0-.4.2-.3.4-.2.2.3.3 1.7.4 2h1.4c-.4-3-1.4-3.7-2-4.3h-.3l-.5.2h-.2a2 2 0 01-.7 0h-.3zm6.5.1c-.5 1.3-.6 2.6-.6 4h1.7v-.6c0-.3.3-.2.3 0v.5h.5v-.3c.1-.4.3-.2.3 0v.3h.4c-.1-.8-.3-1.5-.3-2.3 0-.5.3-.5.4 0l.2 2.3h.6c0-2-.5-2.3-.8-3.2l-.5-.8h-.2l-.2.1a2 2 0 01-.6.2 2 2 0 01-.7-.1h-.5zM95.6 72.7l1.2-.4c3.2 3.1 4.2 5.6 4.7 8h-.7v-.1l-.3-.1a2 2 0 00-.6-.2h-.4a2 2 0 00-.6.3 2 2 0 00-.4.5 2 2 0 00-.3.6 2 2 0 000 .7 2 2 0 00.3.6v.1c-1.5.6-2.6.2-3.6-.5l.7-9.5zm-26 16.6l-2.8 6.8h.6l2.7-6.1z"/><path fill="#fff" d="M43.4 44.4a2 2 0 012-.5v-.4l.6 1c.8 1.4 1.7 2.9 3 3.3l.5.6c-.5 0-1 0-1.5-.3a4.3 4.3 0 01-2-2.5c-.2-.7-.4-.9-.7-1a3 3 0 00-1.9-.2zm3.7-2.4c.5.3 1 .8 1.1 1.4a2.3 2.3 0 01.1.6v.2a14.2 14.2 0 00.3 2.4v.3a2.4 2.4 0 00.5.7c.2.2.7.7.8.6 0-.3-.3-.5-.3-.9v-1.5l.6-1.4c.3-.7.4-.8-.1-1.2-1.1-.9-1.8-1.6-3-1.2zm5.4-.6a8 8 0 011.3 5.7c-.1 1-.7 1.8-1.5 2-.3-.4-.8-.8-.7-1.6l.2-1.1c.3-.5-.2-.6-.3 0-.1.7-.4 1.4 0 2.3l.4.5-.5-.1c-.3-.6-.7-1.2-.5-2 0-.6.3-1.3.7-1.9.2-.4.3-.8.3-1.3v-.5l-.4.1v.5c-.2.9-.7 1.6-1 2.5-.2.8-.1 1.4.2 2-.4-.4-.9-.7-1-1.7 0-1 1.1-3.7 2.8-5.4zm-4.9 6.9a4.2 4.2 0 01-.5-.5 4.8 4.8 0 01-1-1.3 8 8 0 01-1.6.7c1 .8 2 1 3.1 1zm5.7-6l1.2-.6H56c.8.3 1.5 1 2.2 1 1 .2 2.2 0 3.2 0-.3.4-.9.7-1.5.8a7 7 0 01-3.2 0c-.3 0-.3.3-.1.4l-3-.8a15.3 15.3 0 00-.3-.9zm3.4 1.6h.4-.2zm4.4-.4l1.6.8v1.6c-.8 0-1.8-.7-2.6-1.2a6 6 0 001-1.2zm3 1.3l.8.3-.5.4-.3.1z"/><path fill="#f5f6f6" d="M52 43.8c.5.3.7.9.4 1.7-.2.6-.5 1-.5 1.8 0 .7.4 1.2.7 1.7l-.3.1c-.3-.4-.8-.8-.7-1.6l.2-1.1c.3-.5-.2-.6-.3 0-.1.7-.4 1.4 0 2.3l.4.5-.5-.1c-.3-.6-.7-1.2-.5-2 0-.6.3-1.3.7-1.9.2-.4.3-.8.3-1.3v-.1zm-8-.8c.9-.5 1.9-.7 3.1-.3.8.3 1 .7 1 1.5 0 1.7.1 2.9.8 3.6-1.2-.4-2.1-2-3-3.4-.3-.5-.4-.9-1-1.2l-1-.2zm67.6 29.4c.4-1 1.3-1.8 2.2-2.5 1.8-1.6 4.3-3 7.3-2.2a11 11 0 017.6 5.8c1 2 .8 4.7.4 7-.6 4.5-3.2 8.6-3.3 13.1 0 2.5 1.1 3.3 2 4.5-2.6.5-6.1-1-7-3.4-1.9-3.5-1.4-7.2-.4-10.6 1.2-4.1 1.6-10.4-5-11.2-.8-.1-1.6.2-2.3.5l-1.5-1z"/><path fill="#fff" d="M109.4 71.3c1.6 1 3.4 1.4 4.9 3.3 1.5 2 1.9 3.8 2 5.5H115l-.3-.6-.5-2.1-.3-.8-.2-.6-.3-.5-.2-.3a40.1 40.1 0 01-.5-.8l-.2-.3-.3-.3-.2-.2-.3-.3-.3-.3-.3-.3-.3-.2-.4-.3-1.3-.8h.3z"/><path fill="#f5f6f6" d="M113 80.5a1.4 1.4 0 010 3 1.4 1.4 0 010-3zm-6.6-.1a1.4 1.4 0 010 2.9 1.4 1.4 0 010-2.9zm-6.5-.2a1.4 1.4 0 010 2.9 1.4 1.4 0 010-3z"/><path fill="#fff" d="M111.6 72.4c.4-1 1.3-1.8 2.2-2.5a10 10 0 014-2.2c1.8.3 3.4.7 4.8 1.7a7 7 0 013 6.6c0 2.5-.8 4.4-2 6.1.3-2 .7-4.1-.2-6.2-1.2-2.9-3.3-3.6-5.4-4.3a5.8 5.8 0 00-3.8.3l-1.7 1-.9-.5zm8.5-4.9a12.7 12.7 0 015.4 2.2c.8 1.2 1.6 2.5 2 3.9.4 1.8.5 3.7 0 5.5-.6 3.4-2.2 6.7-3.3 10-.2-1-.5-2 0-3.6.8-1.7 1.8-3.1 2.1-5 .6-2.7 1-6.8-1.7-9.7a10 10 0 00-4.5-3.3zm1.1 19.5c-.2 4 1 7.2 2.7 10-1.1-1.1-2.4-2.1-3.1-4.4-.5-1.6-.4-3.7.4-5.6zm1.2-1.5c.3 3.5.6 6.9 3.2 11.3-1.4-.7-2.5-2.4-3.3-4.8-.7-2.1-.3-4.3.1-6.5zM117 72.3c3.5 1.7 6.1 4.4 4.6 12.6 1.3-2.7 2-6.3.9-8.8-1.5-3.2-3.7-3.5-5.5-3.8zm-16-1.5l1.8-.4.8.5.8.6.8.6.7.6.6.6.7.6.5.7.6.6.4.7.5.6.4.7.4.7.3.6.3.7.6 1.5a5.3 5.3 0 01-1.4.2h-.5l-.3-.1-.2.6-.6-1a40 40 0 00-2.4-5l-.6-.8-.5-.6-.6-.6-1.7-1.5zM97 72l1-.5a87.3 87.3 0 014 4l.4.5.6.8.4.6.3.5.3.6.3.6.2.6.3.9h-2.7c-.4-.1-.2-.3-.4-.6l-.3-1.1-.2-.8-.3-.7-.3-.7-.5-.8-.5-.7-.5-.8-.7-.9-.8-.8zm1.3-.6zm-1.7 8.1l1.8.6v-.5l-.4-1.2-.4-1a12.3 12.3 0 00-1-1.7l-.8 3.5.8.3zm11.8 4h.2a4.2 4.2 0 00.7.3 4.8 4.8 0 00.8 0l.8-.2c.4 0 .7-.2 1-.3a14 14 0 00-.4 1.5l-.2 1.3-.1 1.6h1c-.8 3.7-3.3 6.7-5.4 9.9-.5.7-.3 1.2-.1 1.8a64 64 0 013 7c.3 1.3-.3 2.1-1 3l-2.5 2.8c-1 1.3-2 2.6-2.5 4.2.4-.7 1.2-.5 2-.2-.6 1.4-.7 2.3-1 3.3-.3.1-.3.4-.6.5a7.3 7.3 0 00-3.3 2.3h-.2l-.6-.3-.2-.1a31.4 31.4 0 00-2.2-1h-.1c1.7-2 3.6-3.7 5.2-5.8 1-1.3 2-2.7 2.5-4.3 1-2.6.4-4-.6-4.8-2.2-1.8-4.3-3.8-6.4-5.7-6.6-6-4.7-7.1-5.4-8.6-5 1.6-10 2.5-15.2 3.2l.3-.2v-.2l.1-.1v-.1l.1-.2v-.7l-.1-.3-.1-.3c.2-.2.4-.4.6-.4.3 0 .4.2.5.2.2 0 .2-.3.5-.4l.8.2c.2 0 .2-.3.3-.3l.6.2c.3 0 .5-.4.7-.5.3 0 .5.2.8.1.2 0 .4-.3.6-.4h.6c.2 0 0-.2.3-.2h.8c.3-.1.4-.4.6-.4.2 0 .5.1.8 0 .2 0 .3-.2.5-.3.2 0 .5.2.7 0 .2 0 .2-.4.5-.6.2-.1.5 0 .8-.2 0-.1.1-.4.3-.5l1-.1c.2-.2 0-.6.2-.8l.6-.1.5-.6c.2-.2.5-.1.7-.4.2-.2 0-.5.3-.7l.7-.6c.3-.2.3-.6.5-.8.1-.3.4-.3.5-.6l.2-1c0-.2.3-.3.4-.5l.3-.6a5.7 5.7 0 001.1.5 5 5 0 001 .2 5.1 5.1 0 001-.2h.3l-.1.1a7.3 7.3 0 00-.6.9 6.4 6.4 0 00-.3.9 6.7 6.7 0 00-.2 1 9.2 9.2 0 00.2 2.1h.5l.5-.1h1.1l.8.2h1.2v.1h.3l.5-.2h.2l.1-2a5.8 5.8 0 00-.1-1 4.4 4.4 0 00-.3-.8A7.5 7.5 0 00101 83l.3.2a6.5 6.5 0 002.5.4 11 11 0 001.2 0 7.5 7.5 0 00-.5 2.7V88h4.6l.6-.2c0-.3 0-.7-.2-1l-.1-.7a13 13 0 00-.4-1l-.3-.6-.3-.5-.2-.2c-.2-.1-.2-.2 0-.2zm-15.8 12L91 97.2c1.3 3.1 3 5.8 5.3 8.2.6.8.5 1.1 0 1.4l-.8.3v1.7c-.3 3.4-3.8 5.5-8.6 9l-2.5 1.7a24.4 24.4 0 013.8-.2h2.2l.5.1c.5-.4 1-.9 1.9-1.2l1-.3.4-1-2.5.2c.2-.7.5-1.2.9-1.9a44 44 0 014.5-5.9l1.7-2.1c.7-1 .2-1.6 0-2.3-.6-1.2-.8-2.4-1.6-3.5-.7-1-1.9-1.6-2.6-2.6-.8-1-1.3-2.4-2-3.5z"/><path fill="#ffdc00" d="M95.2 73.9v1.5l-2.5.7v-.6l.2-.6 2.2-1zm0 2l-.2.8-2.6.7V77l.2-.5c.8-.4 1.6-.6 2.5-.8zm-.2 1.3v.9l-3 .6.1-.2.1-.5.1-.3a8 8 0 012.7-.5zm-.1 1.3l-.1 1h-3.1v-.2l.2-.3 3-.5zm-.1 1.4v.7h-3.6l.2-.4.1-.3h3.3zm-.1 1.1v.8h-4.2l.1-.1.2-.4.2-.2h3.7zm-.1 1.2v.1l.2.1-.2.3-.1.4-.1.1-.2.2-2-.4c-.9 0-1.7 0-2.3-.3l.2-.4.1-.1h4.4zm-.6 1.5v.5c0 .1 0 .3-.2.5l-.2.2h-.1a5 5 0 01-2.4-.6c-.6-.4-1.2-.7-1.9-.9l.2-.2.1-.1 3 .3 1.5.3zm-.7 1.5l-.1.3-.2.4-.5.3-.1.1-1.1-.8-1.3-.4c-.7-.3-1-.7-1.5-1l.3-.3h.1c.8.2 1.5.5 2.5 1 .7.3 1.3.3 1.9.4zM92 86.5l-.1.4v.4h-.3l-.2.1-2.2-1.4-1.5-1.3.2-.2.2-.1c.5.3 1 .7 1.7.9.5.1 1 .3 1.4.6l.8.6zm-1 1.1l-.2.3v.2h-.4l-.1.1-1.8-1.2a6.4 6.4 0 01-1.6-1.7l.4-.3.1-.1 1.6 1.2 2 1.5zm-1 .9l-.1.2v.2l-.1.2h-.7l-1.5-1.5A4.7 4.7 0 0186 86l.2-.2.4-.2 1.6 1.5 1.9 1.5zm-1.3.9l-.1.2-.1.1h-.1l-.5.1-.8-.9c-.5-.5-1.1-1-1.5-1.6-.3-.3-.4-.7-.5-1l.5-.3.7 1 1.9 1.5.5.9zm-1 .6h-.1l-.2.3-.1.2h-.5l-1.6-1.8-1.4-2 1-.3c0 .4.2.9.6 1.2.8.7 1.5 1.6 2.2 2.4zm-1.3.6a1 1 0 00-.2.1v.1H86a1.3 1.3 0 00-.5-.1 15.2 15.2 0 01-1.9-2.5l-.5-1.1.4-.2.5.6c.4.5.7 1.1 1.2 1.6l1.3 1.5zm-1.2.2h-.1l-.1.1-.2.2h-.7l-.7-1-.8-1.3-.4-1.5.6-.2c.2.7.4 1.4.9 2 .4.3 1 1 1.5 1.7zm-1.4.4l-.2.1v.1h-.5l-1-1.4-.6-1.2v-1.4h.4l.4 1.4c.2.6.6 1 1 1.5l.5.9zm-1 .3l-.2.1-.2.1h-.5l-.4-1-.7-1.6-.3-1v-.5h.7l.1 1.2c.4 1 1.1 1.8 1.7 2.7zm-1.4.3l-.2.1-.2.2-.2-.1h-.2l-.5-1-.7-2.3v-1h.7v.8c.2.8.7 1.5 1 2.2l.4 1zm-1.3.3v.1H80l-.6-.2-.3-.8-.4-2.2-.1-1.2h.4c0 .4 0 .8.2 1.3l1 3zm-1.2 0a.8.8 0 00-.1.3h-.1l-.2-.2h-.2l-.2-.8-.4-2.2s0-.2-.2-.3c0-.1-.3-.2-.3 0l.8 3.4-.4.3-.3-.8a9.2 9.2 0 01-.4-1.3l-.1-1.3V88l1.3-.1c0 .9.1 1.7.3 2.6l.5 1.7zM68.2 79.6a7.5 7.5 0 01-1.8 2.7c-.2.2-.2.7-.2 1l.1.5.2.2.1.1.1.2c.3-.4.4-1.2.8-2L68 81c.2-.2.2-.6.3-1l-.2-.5zm-1.4 5v.5l.2.3.2.1.6-1.3.6-1 .5-1.7a30 30 0 01-.3-.8l-.2.5-.9 1.8c-.1.4-.1.9-.3 1.3l-.4.4zm.8 1.1v.5c0 .1.1.3.3.3l.2.1a32 32 0 001.4-3.9L69 82l-.2.7c-.1.4-.2.8-.5 1-.5.6-.7 1.3-.8 2zm.8 1.3v.4c0 .2 0 .3.2.4v.2c.4-.7.7-1.3.9-2l.4-2.3-.2-.5a77 77 0 00-1.3 3.8zm.5 1.3v.2l.1.2a3.4 3.4 0 01.3.3l1.3-3.7-.4-1-.5 2.1-.8 1.8zm.8.9l.7.8.7-3.6-.3-.5a16 16 0 00-1.1 3.3zm1 1.4v.1l.2.3h.3c.3-1 .4-2.2.4-3.4l-.3-.7-.6 3.7zm.8.7l.2.4.3.1h.1c.2-1.1.2-1.7 0-2.6l-.1-.4-.5 2.5z"/><path fill="#f6cd73" d="M35.3 140l3.4 1s.8.2 2.6-.6l.5-.2c1 .2 5.3 1.7 7.6 1.5 4.2-.1 2.6-1 7-.7l2.7.4c.5-.3.9-1.4 1-2.1l.1-1h-1.6c-1.4 0-4 .7-5.5 1-1.7.1-2 0-4.2-.1-2.1 0-5-1.4-7.3-1a21 21 0 00-6.3 1.8zm24.7-4.6h.2c.2 1.1.5 2.9.3 3.8-.1.2 14.8 2.3 26.5-6.2l-.4-.9a57.3 57.3 0 01-14.8 3.2c-4.2.2-8-.2-12-.3l.2.4zm14.6 5l.3-.1c1.1-.2 2-.4 3-.2 1.1.1 2.3.5 3.4.4 1.4-.2 2.4-.6 3.5-2.2l.8.7c.6.3.3 1 0 1.4-.7.8-1.6.8-2.5 1-1.1.2-2.4.3-3.2.2-3.3-.5-5-.3-6.9 1.2 0-1 .7-1.8 1.6-2.5zm5-1.5c1.4-.2 3-.8 4.7-1.5a5 5 0 01-.5-2 30 30 0 01-6.1 2.6l2 .8zm-45.2-11.3c4-1.2 4-1.2 8.1 1.2a13.7 13.7 0 004.7 1.6c.4.8 1 1.6 1.6 2.3-1.5.4-3.6 1.5-5.1 0-1.6-1.5-3.8-2.9-6.2-5.3-1 1.2-2 .7-3.1.2zm35.4 2.3c-1 1-2.2 1.8-3.3 2.8h-.2c-1.7.8-4.2 1-7.5 1l.2-.3 3.3-.4c3-.4 5.4-2 7.5-3.1zm-9.2-5.6c-.8-2-1.6-4.2-3.7-6.2a5.3 5.3 0 00-5.9-1.5c-2.3.8-4 3.1-3.4 6 .7 4.1 3 6.4 5.3 8.6.9.7 2.2 1.5 2.3 3 0 1.6-.7 3-2.3 3-.8 0-.8-.3-1-.6l.5-2c0-.2.1-.6-.2-.7-.4 0-.3.7-.5.7-.7-.4-1.9-1-2.4-1.6a19 19 0 01-2.6-4.5c-.7-1.6-1.6-3.2-1.6-5 0-2.4.3-3.6.6-4.4.4-.9 1.7-2.7 2.3-3.3 1-1 2.2-1.7 3.6-2a7 7 0 013.5 0 8 8 0 014.6 3.2c1.3 2 1.7 4.8 2 6.8l-1.1.5zm-.7.4a8.5 8.5 0 00-2.2-3.2c-1.1-1-2.7-2-4.4-1.7-.5 0-1.2.3-1.7.7-1.3.9-1.6 2-1.3 3.5.3 1.6.9 3 1.7 4.2.6 1 1.2 1.9 2 2.7.6.7 1.3 1.3 2.3 1.6 1 .2 1.3 0 1.5-.3a3 3 0 01-1.6-2H56a5 5 0 01-2.8-2.1 7.1 7.1 0 01-1.2-3.4v-.5c-.5 0-.9-.2.2-.6a4 4 0 013.2.7 7 7 0 011.9 2.5 10 10 0 012.7-2zm-2 7l.3-2.6c.5-1.7 2.8-3.8 4.2-5.4-6.4 2.9-7.2 6.5-4.6 8zm16.8-6.7l5.8-1.6c5.4-1.5 10.5-2.6 15.8-.7 1.8.6 3.5 1.5 5.2 2.2l-.7-2.3-1.2-.5a28 28 0 00-21-.9c-.3.1.2.9 0 1.1-1 1-2.5 1.7-3.6 2.4l-.3.3zm19.8 16.3c.9-.2 1.7-.5 2.6-.5 1.1 0 2 .6 3.6.2 1.4-.4 3.1-1.9 4.9-2.9-.8 1-1.6 2.1-2.5 3-.8.9-1.9 1.4-3.4 1.4s-2-.4-3.3-.8a3 3 0 00-2 .3c-.2-.2 0-.5.1-.7zM104 129a42 42 0 0010.9 2.6c3.6 0 5-.5 5.6-2.7.7-2.1 0-3.4-.6-6-.7-2.5-3-6.4-3.4-9-.4-2.6-.2-4.6.8-6.2 1.1-1.5 2.9-1.9 4.8-2 .6-.1 1.4 0 2.2.3 0 0-.2.1-.1.2 1 .8 1.8 1.3 2.3 2.7.5 1.3.3 4.6-1 6.1 1.2-2.4 1.6-4.9-.2-6.7-.1 0-.4.1-.3.2.4.4 1 1.2 1.2 2.3.1.7 0 1.1-.1 1.8-.4 1.1-.7 2-1.2 2.8.8-3.1.6-4.6.2-5.6a9 9 0 00-.8-1.8 3.7 3.7 0 00-2.5-1.3c-5-.1-4.6 6-2.5 10.2l1.6 2.8.7 1.4c.6 1.5 1.2 2.7 1.5 4 .5 1.7.3 3.4-.5 4.8-1.6 3.2-4.7 4-7.6 4.6-3.5.7-7.8-.4-10.5-1.7v-.1l-.5-3.7z"/><path fill="#f7ad73" d="M61.7 127.4a34 34 0 01-1.3-.4l.4-1 1.1.1-.2 1.3zm-.2 1.7l.2-1.5-1.3-.4a16.3 16.3 0 00-.4 1.5l1.5.4zm-.2 1.4l-.9-.3-.7-.2.2-1.1 1.6.4-.2 1.2zm.6-2.8c.5 0 1 .2 1.4.3l.3 1.5-1.3-.3h-.6l.2-1.5zm.2-1.6l-.2 1.4c.5 0 1 .2 1.4.3l-.2-1v-.5l-1-.2zm-3.5 2.3v.1l-.3 1 1.2.4.3-1.1-1.2-.4zm.4-1.6h.4c.2.2.5.2.8.3l-.3 1-.1.5-1.1-.4c0-.5.2-1 .3-1.4zm.3-1l-.2.8h.3l.8.3.4-1-1.3-.2zm2.8 9.3l-1.3 1-.6-1.1 1.1-1 .7 1zm1 1.4l-1-1.3c-.3.4-.8.7-1.2 1l.8 1.7 1.4-1.4zm1.7-1.7l-1.6 1.5-.9-1.2 1.8-1.4.7 1zm1.3 1.4l-1-1.4 1.4-1.5 1 1.4-1.4 1.5zm-1.7 1.7l1.5-1.5-1-1.5-1.5 1.6 1 1.4zm4.3-1.9l-1-1.3 1.3-1.3 1 1.2-1.3 1.4zm-1.6 1.7l1.4-1.5-.9-1.3-1.4 1.5.6.9.3.4zm-1.6 1.8l-1-1.4 1.5-1.6.7 1 .3.4-1.5 1.6zM73 134l-1.3-1c.5-.4 1-.9 1.3-1.4l1.1 1L73 134zm-1.5 1.7l1.3-1.6-1.2-.9-1.2 1.4 1 1.1zm-1.6 1.8l1.4-1.6-1-1.2-1.4 1.5.3.3.7 1zm-1.5 1.8l-1-1.4 1.4-1.6.2.3.8 1-1.4 1.7zm6-4.2l1.2-1.3a41 41 0 01-1.3-1L73 134l1.4 1zm-1.5 2l-1-1-.3-.2 1.4-1.6 1.4 1-1.5 1.8zm3.3-.7l-1.6-1.2 1.1-1.3.4.3 1.2.9-1.1 1.3zm2.4-6l1.4-1.8 1.7 1-1.4 1.7-1.7-1zm-1.5-.8l1.3.7 1.5-1.8-1.2-.8-1.6 1.9zm-1.6 1.4l-1.2-.8-1.1 1.3 1 1c.5-.5 1-1 1.3-1.5zm1.5 1l-1.3 1.6-1.3-1 1.3-1.4 1.3.8zm1.8 1.2l-.6-.4-1-.7-1.4 1.6a15 15 0 001.6 1.2l1.4-1.7zm-1.5-1.2l1 .6.6.4 1.3-1.5-1.8-1-1.1 1.5zm-1.5-1l1.1-1.3 1.3.7-1 1.4-1.4-.8zm-1.3-1l1-1 1.3.6-1.1 1.3-1.2-.8zm8 2.6l.3-.3 1-1.3-.8-.5-1.1-.8-1.4 1.7.6.4 1.5.8zm-1.4 1.8l-2-1.3 1.3-1.5.6.4 1.4.7-1.3 1.7zm-1.6 1.9l-2-1.3 1.5-1.7 2 1.2-1.5 1.8zm3.9-8.7l-1.7-1-1.5 1.8 1.6 1 1.6-1.8zm1.9 1.5l-1.4 1.8a70.3 70.3 0 00-1.9-1.3l1.5-1.9 1.8 1.4zm1.8 1.3l-1.5-1.4 1.6-2.2 1.6 1.5-1.7 2.1zm-1.4 1.7l1.2-1.4.1-.1v-.1c-.6-.5-1-1-1.6-1.3L84 131l1.6 1.1zm-1.2 1.5l-1.8-1 .3-.2 1-1.3 1.6 1.2-1.1 1.3zm-1.6 1.8l1.4-1.6-1.7-1-1.3 1.7 1.6.9zm7.6-5.7l-1.4-1.4 1.5-2 1.6 1.5-1.7 2zm-1.8 2.2l1.7-2-1.4-1.5-1.7 2.1 1.4 1.4zm5.2-2.7l-1.4-1.4 1.8-2.1 1.3 1.4-1.7 2zm-1.9 2.1l.7-.7 1-1.3-1.3-1.4-1.7 2 1.2 1.3.1.1zm-1.9 2.2l1.8-2-.1-.1-1.2-1.4-1.8 2 1.3 1.5zm5-3l.7-.8 1-1.1a26 26 0 00-1-1.3l-1.8 2 1.1 1.2zm-1.8 2.3l1.7-2.1-1-1.2a81.6 81.6 0 01-1.8 2l1 1.3zm-1.9 2.2l-1.1-1.3 1.7-2 1 1.3-1.7 2zm7-4.4l-1.4-2 1.5-1.8 1.3 2-1.5 1.8zm-1.7 2l1.5-1.8-1.4-2-.8 1-.7.9 1.4 1.8zm-2 2l-1.3-1.6 1.7-2.1 1.5 1.8-.3.3-1.7 1.7zm4.9-2l1.5-1.9a46 46 0 00-1.2-1.8l-1.4 1.9 1 1.9zm-1.5 1.9a71 71 0 00-1.3-1.8l1.5-1.7 1.1 1.8-1.3 1.7zm2.7.4l-1.1-2 1.5-2 1.3 2.2-1.3 1.4-.4.4zm-1.5 1.4l1.3-1.2a87 87 0 00-1-2l-1.4 1.6 1 1.6zm2.1 0l.7-.6 1.2-1-.7-1.4a29.7 29.7 0 01-1.7 1.8l.5 1.2zm.7 1.4l1.9-1.5-.6-1.4-1.2 1-.7.7.6 1.2zm.9 1.7l-.8-1.5 1.9-1.5.6 1.4-1.7 1.6zm5-9.8l-.3.3-1.3 1.6-.8-2.1 1-1.1.5-.6.9 1.9zm1.2 2.4l-1-2.3 1.3-1.6 1 2.4-.1.1-1.2 1.4zm2.6 1.2a153.1 153.1 0 01-1.1-2.6l1.7-2 .8 2.4-1.4 2.2zm6.6-1.8a33.4 33.4 0 00-1.3-3.2l.4-1 1.7 2-.8 2.2zm3.1-3.3a34 34 0 00-.8 2.5l-1.3-1.5.5-1.2.3-.9 1.3 1.1zm-1.2-1.3l1.3 1.1 1-2.4-1.6-.5-.7 1.8zm-.8-2.2l1.3.4-.7 1.7-1.2-1 .6-1zm2.4-2.1l-1.3-.1-1 2 1.3.4 1-2.3zm-.6-2l-.8 1.7h-1.8l.5-1.4.2-.6 2 .4zm-3.6-10l-.5.8-.4.5-.4-.2-1.7-1c.4-.3.8-.6 1-1 .2 0 .4-.2.5-.3l1.5 1.3zm-34 9.7l1.3.9-1.4 1.4-1.1-.9.3-.3 1-1zM46.5 138l1.3-1 .8 1.6-1.4 1-.4-1-.3-.6zm-1.8 1.2l.9 1.5.2-.1 1.2-1-.4-.8c0-.3-.2-.5-.3-.7l-1.6 1zm-2.2-1l-.3.1v-.1l-.1-.1h.4zm1.6.2l-1.3-.2c-.2 0-.3.2-.5.3l.8 1.5 1.4-.9zm.1-.2l-.4-.8 1.6-1 .8 1.5c-.5.4-1 .8-1.6 1l-.2-.4h.3c0 .1.1.1.2 0l-.1-.1-.6-.2zM43 138l.6-.5.4.7-1-.2zm7.9 1.5l-1.1 1.2-.8-1.7-.2-.4 1.9-1.2.8 1.4-.6.7zm2 1.1l-1-1.7h-.1l1-1.2 1.2 1.9-1 1zm7-3.9l-1.2 1-1.2-1.3 1.3-1.2c.4.5.8 1 1 1.5zm-4.2 1.5l1 1.3.5-.4 1.4-1.2-1.2-1.3-1.3 1.2-.4.4zm-13-8.4l.8-.2 1.2-.4.5 1.5-2.2.8zm-.3-1.4l.1.6.1.6.9-.2 1.2-.3-.5-1.4-1.8.7zm-1.5.4l1.3-.4.1.7.2.6c-.5 0-1 .2-1.3.3l-.3-1.2zm-.4-1.2l.3 1 1.4-.4-.4-1.6-.8.2-.6.2zm12.8-5.9l1-1 .8-.6v2l-1.6 1-.2-1.4zm6.9 1.2v.2h.1a2006.5 2006.5 0 011-1.5c0-.1 0 0 0 0l-1.1 1.3zm-2.7-3.6h-.1v.2h.5l-.1.2c0 .2.1.1.2 0l1.3.2-.5.4v.2h.1l.7-.5 1 .2c.1-.1 0-.1 0-.2l-.8-.1 1-.6v-.1c0-.1-.1 0-.1 0l-1 .5h-.1l-1.4-.2a5.3 5.3 0 012-1.3c.1 0 .2 0 .1-.2a5.7 5.7 0 00-2.3 1.4l-.5-.1zm-2.5-5.2l-.3 2.4 1.7-.4.3-1.3h.2c0 .5-.2.9-.3 1.3l1.8-.2v.2l-1.8.2-.3 1 1.4-.1h.8l.7-.4h.1v.2l-.4.2h.5l.1.1-.1.1h-.8l-1.6 1-.2-.1v-.2l1.4-.7h-.5l-1.4.1v.2H56v-.2l-.4.1h-.2l.1-.2h.5l.3-1-1.8.3v.2h-.2v-.2h-.2v-.1h.2v-.1a281.7 281.7 0 00.6-2.4zm-8.6 14.4l-1.6.5-.4-1.3.6-.3-.1-.2-.6.3a18 18 0 01-.3-.7l-.2-.1v.3l.3.6-1.8.6c0-.6-.2-1.1-.3-1.6l.4-.1v-.2H42l-.2-.6h-.2l.2.7-.8.2-.7.2-.6-2.4-.2-.1.6 2.6-2.3.7.1.1 2.3-.6.1.5.3 1c-.4.2-.7.3-1.1.3l-.2.1.2.2 1.2-.3.3 1.1-.4.1.2.2h.2v.2l.4.2-.2-.5 1.3-.3.3 1.6-.3.1.2.2h.2v.2l.3.2-.1-.5 2.2-.8.7 2.6h.2l-.7-2.7 1.6-.6v-.2l-1.7.6-.5-1.4 1.6-.5-.1-.2zm35.7 7.9c-.2 0-.3.2-.4.4v.1h.1l.7-.8-.4.3zm-1.7.7l.3.1h.1v-.2h-.4zm-1.4 1.4l-.6-.5.2-.3-.3.1-.1.1h-.3l.2.2.9.4zm-.1.2l.6.4h.1a5 5 0 00-.7-.4zm-1-.3h.2l-.7.7s0 .1-.1 0v-.1l.5-.6zm-3.3.6l.9.8s0 .1.1 0c.1 0 0 0 0-.1l-.7-.7h-.3zm-.6 0v.2c-.1 0-.1 0 0 .1l.3-.3H74zm-2.2 1.1l.1.2h.1c.1 0 0-.1 0-.1l-.1-.2-.1.1zm12.1-4.2l-.5-.2h-.2l.8.5v-.3zm-5.6-13.7s0-.1-.1 0v.1l.1-.1zm-15 3l.1-1.8c0-.1-.2-.1-.2 0v2.7l-1-.2a102.5 102.5 0 01-.1 0l-1.1-.2a98.7 98.7 0 01-.2 0l-1.5-.2-.3 1-.7-.2-.1.1.7.3-.3 1.5-1.5-.5v.1l1.4.6-.2 1-1.7-.6v.2l1.6.6-.4 1.7c0 .2.1.3.2 0l.4-1.6 1.2.4-.1 1.5c0 .1.2.1.2 0l.1-1.4.6.2 1 .3v.4c0 .2.2.2.2 0v-.3l3 .7c.1 0 .1-.2 0-.2l-3-.7.2-1.3.5.1 1.5.3v.2c0 .1.3 0 .2 0v-.2h2.8v-.3a7 7 0 01-2.9 0l-.3-1.4h.4a37.7 37.7 0 00-.4-.3 15.8 15.8 0 01-.2-1.4l.6.1h.1l-.4-.2h-.3v-1zm-11.3 9l-.3-.3-1.3-1.4v-.2h.2a150.3 150.3 0 001.4 2zm-6.8-11.4v.2l1.7.1-.6 1.6-1-.1v.2h1l-.5 1.4v.3l.1-.1.6-1.5 1 .1-.2 1.3-1.3.2v.2l1.3-.1-.2 1.5h-.3v.2h.3v.9h.1l.1-1h1.1v1.5h-1l.1.3h.8v1.5l.1-.1v-1.6h1.2v1.7l-1 .1v.2l1-.1a51 51 0 000 1h.1v-1l2.3-.3v-.2c-.8 0-1.5.2-2.3.3v-1.7h1v-.2h-.9v-.6h-.2v.6h-1.1V128l1-.1v-.1l-.1-.1-.9.1v-.6c-.2-.1-.2 0-.2 0v.6l-1 .2.1-1.6h1.1l.1-.2h-1.1l.1-1.3.8.1v-.2h-.8v-.2h-.2v.1h-1l.6-1.7a262.7 262.7 0 010-.2l.2-.2v-.1H47l-.1.3H45zm.1-1.6l2.5.4.1.2h-.1l-2.5-.4v-.2zm.4-1.8l1.2.3 1.1-.8a205.5 205.5 0 01-1.3-1.3h.2l1.3 1.1.3-.2h.1v.2l-.2.2.3.2v.2h-.2l-.3-.3-1.1.8 1 .3.1.2H48l-1.2-.3a4367.3 4367.3 0 00-1.6.9l1.4-1-1-.3v-.2zm2.1-3.3l-.1.1 1.6 2h.2v-.2l-1.6-1.9zm1.7-1.4a7.3 7.3 0 001.1 2.3v.2h-.1a9.2 9.2 0 01-1.2-2.4l.2-.1zm1.6-.8l.6 2.7v.1h-.2l-.6-2.7h.2zm10.2 7.1l-1.1.2-.7.6h-.2v-.1c.2-.3.5-.5.8-.6.3-.2.7-.3 1.2-.3v.2zm-6.3 7c0-.2.1-.2.2-.3H55l-1.7.6v-1.1h.6l.1-.1-.7-.1v-1h-.2v1a15.7 15.7 0 00-2.3-.1 8 8 0 01.2-1.5h1.8l.2-.1h-2c0-.4.2-.8.4-1h.2v-.1c-.2-.1-.3-.2 0-.4l.1-.3.3-.4.1.5h.2c0-.2 0-.5-.2-.7l1-1 .1 1.3-.4.3h.3l.2-.1v.1h.2v-.2c.4-.4 1-.7 1.5-1l-.1 1.7.2.1v-1.8l1.7-.8-1 2.3h-.5v.2h.4l-.2.4.1.1h.1l.2-.5 1.7-.2-1 1.5v.2h.2l1.1-1.8 1.9-.2v-.2l-1.8.2.8-1.7v-.2l-.2.1c-.2.7-.5 1.3-.8 1.8l-1.8.2 1-2.3.7-.3.5-.2v-.1h-.1c-.1 0-.3 0-.5.2l-.5.1.4-.7-.1-.1h-.1l-.4 1-1.7.7a16.4 16.4 0 000-2.1l.4-.5c0-.2 0-.1-.1 0l-.3.2v-.6H55v.8l-.9.8-1 .9-.2-2.3s0-.1-.2 0l.3 2.5-1 1a16.8 16.8 0 00-1.6-2.9v.1a31.4 31.4 0 011.5 3 6.2 6.2 0 00-.6 1l-2.5-1.5h-.2v.1l2.6 1.6-.4 1.1H49v.2h1.8l-.1.5-.1 1a25.5 25.5 0 00-.7.2h.7l.1 1.7.1.1.1-.1-.1-1.7a14.4 14.4 0 012.3 0 75.4 75.4 0 000 1.3l-1.7.8v.2h.1c.5-.3 1-.6 1.7-.8v1.8l.1.1.1-.1v-2l1.5-.5zm1.3 2.3a1338.4 1338.4 0 00-2.7 1v-.1l2.7-1v.1zm22.4-8l1.3.8 1.5 1.3s.1 0 0 .1c0 .1 0 0-.1 0l-1.5-1.2-1.4-.8.2-.1zm16-1.9h-.2a9.4 9.4 0 01-1.3 1.1l-1.1-1.3.3-.2H92l-.2-.1h-.3l.3.3-.7.6-1.2 1-1.2-1.3-.2-.1.7-.7h-.3l-.6.5a26 26 0 00-.5-.5h-.3l.7.7a28 28 0 00-1.6 1.6l-1.3-1 1.3-1.3h-.3l-1.2 1.2a160.3 160.3 0 01-1-1h-.6l.1.2-1 1c0 .2-.2.3-.3.4l-.6-.5-.6-.5h-.3v.1l.8.6.6.4L81 123s-.1 0 0 .1c0 .1 0 0 .1 0l1.3-1.3 1 .8c0 .2-.2.3-.3.4v.2h.2c0-.2.2-.3.4-.4l.4.4h.2v-.2l-.5-.4 1.3-1.4c.5.3 1 .6 1.3 1l-.4.5v.1c0 .1.1 0 .1 0l.5-.5h.1s.1.1.2 0v-.1h-.2a23 23 0 011.6-1.7l.2.2 1.2 1.2-.4.3s-.1 0 0 .1c0 .1 0 0 .1 0l.5-.3.3.3s0 .1.2 0v-.1l-.4-.3 1.2-1 .7-.5 1.1 1.3-1 .7s-.1 0 0 .1c0 .1 0 0 0 0l1.2-.7 1 1.2h.1v-.1l-1-1.2a10.5 10.5 0 001.4-1.3zm2.6.8l-.7.5.3.4.8 1.4v.1h-.2l-.8-1.4-.3-.3-.2.2-1.7 1.4h-.1c-.1-.1 0-.1 0-.2L96 122l.3-.3-.7-1h.3l.6.9.6-.5h.2zm2.6 1h-.2l-.8.5-1.3 1s-.1.1 0 .2h.1l1.4-1 .8-.7zm2.2 1a27.6 27.6 0 01-2.2 1.6v-.1a25.8 25.8 0 002-1.6l.2.1zm19.6-16.6l.2-1-.1-.2-1-1h.3l.8.8v.1l.1-.2.2-.7h.2l-.2.7v.4l.8 1c0-.3.2-.6.4-.9l-.8-1.1h.3l.6 1v-.2l.3-.5.2.1-.3.5-.1.2.3.5a90.2 90.2 0 01-.4-.3l-.4 1-.1.1-.1-.1-.8-1-.2.8h-.2zm-1.4.2h.1l-.1-.7.7.5h.4l-1.2-.8-.4-1.2h-.2c0 .4.2.7.3 1h-.3l-1-.7-.3.1 1.2.7.5.3c0 .3.2.5.3.8zm-16.7 20.4v.2l.7-.7 1 2.6-1 1.2v.5l.2-.1v-.2h-.1l1-1.2.8 2.2-1 1.3h.1l1-1.1a221.3 221.3 0 001 1.9l-.8-2.1 1.4-1.7.2-.2 1 2.4-1.5 1.6.2.1 1.3-1.5.7 2h.2l-.7-2.2 1.2-1.4a97.5 97.5 0 001.1 2.6l-.6 1.1h.2l.5-.8.4.9h.2l-.5-1.1 1.5-2.3.3.8a188.3 188.3 0 00.2 0l-.3-1 1.2-1.6.3.8.7 1.5-.8 2.7h.2l.7-2.4.8 2h.2l-.9-2.3.2-.7.9-2.5 1 2.3.3 1-.7 2 .3-.1.5-1.7.5 1.3.2-.1-.6-1.5.8-2.3 1.3 1.4-.5 1.8.2-.1.5-1.5.5.6.1-.1-.6-.7a63.7 63.7 0 011-2.5l1 1 .1-.2-1.1-1 1-2.6.5.1v-.2h-.4l.2-.5-.1-.3-.3.7-1.6-.5 1-2.3h.1l-.1-.4-.1.2h-1.3l.8-1.6a6 6 0 00-.2-.3 34 34 0 00-1.8-.4l.5-1.8-.1-.2a80 80 0 01-.8 2 26 26 0 00-1.9-.3l.8-1.6.3-.7a114.2 114.2 0 011.3 0l-1.2-.2.5-1.2-.1-.3-.7 1.5h-.7l-1.1-.1.8-1.7h1.6l-.1-.1-1.3-.1.9-1.2v-.2h-.1l-1.7-.5h-.3c.2-.5.5-.9.8-1.2l1 .4v-.2l-1-.4.4-.5.5-.7v-.4.1l-1.4-1.2 1-.8a69.6 69.6 0 01.1-.1l1.3-.5.1-.2a3 3 0 00-1.5.5l-.2-.2-.2-.4 1.8-.2.2.3.1-.2v-.2h.3l.5-.2h-1l-.5-1.3-.2-.6h-.2l.3.7.5 1.3c-.7 0-1.3 0-1.9.2l-.6-1-.1.1.5.9h-.1a50 50 0 00.2.2l.3.5.1.2-1 .8-1.2-1v.2l1 1-.3.3-1.2 1v.3a21.5 21.5 0 002.2 1.2l-.8 1.1-1.4-.5v.3l1.2.4-.8 1.2v.3l1-1.4.5.1 1.5.5-.9 1.2h-2v.1h1.9l-.9 1.8h-.4v.2h.3l-.1.3v.3l.4-.6a44.8 44.8 0 011.9.1 83.6 83.6 0 00-1 2.3h-.6v.2h.4l-.2.4.1.2.3-.6a27.3 27.3 0 012 .3l-.1.5-.5 1.5h-1l.1.2h.8l-.4 1 .1.2.5-1.2h1.8l-1 2-1.1-.3v.2l1 .3-.6 1-.4-.4v.3l.3.3c0 .1 0 .3-.2.4v.1h.2l.2-.4 1.2 1-.3 1-.4 1-1.7-2v-.2c0 .2-.2.3-.3.5l-.3.8-.2-.4-.2.1.3.5-1 2.7-.1.5-.6-1.3-.4-.9 1-1h-.4l-.7.8a49 49 0 01-.2-.6h-.3l.4.8-1.2 1.6-.9-2.3.2-.2h-.5v.1l-1.6 2-1-2.5.3-.3h-.2l-.2-.1-.2-.1c0 .1 0 .3.2.5l-1.4 1.5-.8-1.8.7-.8h-.2l-.6.6-.7-1.5c-.1 0-.2 0-.3-.2l.8 1.8a10939.2 10939.2 0 00-1.5 1.6l-1-2.5.2-.2 1-1h-.2l-1 .8v.2l-1-2.3-.2-.2 1 2.6-.7.7zm-.2.5l-.2.3h-.2v-.2l.3-.3v.2zm-43 8.7l.1.3.3-.3.9 1.6-1 1v.2l1-1 .3.4.4.9h.3l-.6-1-.2-.5 1.4-1.4 1 1.5-1.3 1.4h.2l1.3-1.2 1 1.3h.3l1.4-1.6 1 1.4h.3l1.4-1.6 1 1.4h.3l-1.2-1.5 1.5-1.7.3.3 1 1-1.6 1.9h.3l1.4-1.8 1.3 1.2h.2l-1.4-1.4 1.5-1.8 1.6 1.1-1.7 2h.3l1.5-1.8 1.4 1h.2l-1.5-1.2 1.1-1.3 2 1.3-.7.8h.3l.6-.7a111.7 111.7 0 01.1-.2l1.5-1.8 1.6 1h-.1l.5-.2 1.3-1.5.7.4.2-.2-.8-.4 1.1-1.3 1 .8.3-.1-1.1-.8 1.1-1.4.2-.2 1.3 1.4a54 54 0 00.2.1l1.3 1.5-.5.5.2.1.4-.5a61.8 61.8 0 011.6 1.5l-.1-.1 1.7-2 1.2 1.6-1.2 1 .2.1 1-1 1 1.4h.2l-1-1.5c.6-.5 1.2-1 1.7-1.7l.3-.2 1.2 1.7-1.4 1.8h.3l1.3-1.6 1 1.6h.4l1.2-1.1.6 1.1-.4.4.1.1.4-.3.6 1.2-.9.7c-.2.4-.5.7-.9.8l-.3.3v-.2h-.3l.2.3-1.1 1v.2h.1l1.1-1a192.5 192.5 0 00.2-.2l2-1.7.7 1.6-.6.6v.2h.1l.6-.6.4.8.2.3.1-.2-.1-.2-.4-.9 1.7-1.6c0 .3.2.6.3.8l.2-.2-.4-.7.8-.8v-.2l-.8.8-.7-1.5.4-.2-.2-.2-.2.3-.7-1.4.4-.3v-.2c-.2 0-.3.2-.5.3l-.7-1.4a50.7 50.7 0 00-.1-.2l-1.2-2.1a851 851 0 012-3l-2.1 2.8a52 52 0 00-1.2-1.9l.7-1s.1-.1 0-.2h-.1l-.7 1a57 57 0 00-1.4-1.9 49.8 49.8 0 00.3-.7l-.4.5-.2-.3H98v.2l.3.3-1.5 1.8-1-1.3a109.5 109.5 0 001-1.7l-1.2 1.6-1.3-1.5.5-.5v-.1h-.2l-.4.5-.2-.1s0-.1-.1 0c-.1 0 0 0 0 .1l.1.2-1.7 2-1.7-1.4a140.5 140.5 0 001-1.7l-1.2 1.6a26 26 0 00-1.5-1v.2l1.4 1-1.5 1.8-1.6-1.4 1-1.3v-.2H88c-.3.5-.6 1-1 1.3a37.7 37.7 0 00-1.4-1v.2l1.3 1-1.6 2.2a33 33 0 00-1.7-1.3l1.6-2v-.2H85l-1.6 2-1.7-1 .2-.3s.1-.1 0-.2h-.1l-.3.4-.5-.3v.2l.5.2-1.5 1.9-1.2-.7.7-.8v-.1c-.1-.1-.2 0-.2 0l-.7.8-.8-.5h-.1v.2l.8.5-1.6 1.8-1.3-.7.7-.8v-.1h-.1l-.8.8-.5-.3h-.2v.2l.6.2-1 1.2a100.3 100.3 0 01-.2.1l-1 1.3-1-1-.2.2 1 1-1.3 1.3c-.2 0-.3-.2-.5-.3h-.2l.5.5-1.2 1.3-1-1.1.4-.4H69v.2h-.4l.2.2-1.3 1.3-.9-1.4v-.1h-.3l-1.4 1.5-.7-1h-.5c-.5.5-1 1-1.6 1.3l-.6-.9H61a113 113 0 00-1 .8v.1l-.3.2v.2h.1l.3-.2.5 1.1-.2.2zM34 139.7a20.2 20.2 0 017.7-1.6l.2.2v.2l-2.6 2.4h.3l2.5-2.3.7 1.5-.5.2h.6v.2h.3l-.2-.4 1.5-.8.8 1.6-.3.2h.3l.2.1h.2l-.1-.3.2-.2 1.2-.8.7 1.7h.2l-.7-1.9 1.4-1 .1.4.8 1.7-.8 1h.2l.7-.8.3.7h.2c0-.3-.2-.6-.3-.8l1.2-1.3.5-.6 1.2 1.8a62.1 62.1 0 00-.3.5l.4-.3.1.2h.2l-.2-.4 1.1-1 .8 1.2h.2l-.8-1.4 1.3-1.3 1 1.4L55 141h.3l1.3-1.2.8 1.4h.3l-1-1.5.6-.5 1.3-1.1a52 52 0 01.1-.2l1.2-1v.2h.2v-.5h-.2l-1.1-1.5 1-1h-.2l-1 .8-.2-.3-2.8-2.6h-.2v.2a26.2 26.2 0 013.1 2.9l-1.2 1.2-.3-.4a95.7 95.7 0 00.1.5l-1.3 1.3-.3.3a60 60 0 00-3-3.5v.2l2.9 3.5-1.3 1.2-1.2-1.9.2-.2v-.1c0-.1 0 0-.1 0l-.2.2-.5-.9H52v.1l.6 1-1.1 1-.9-1.3.4-.3s.1 0 0-.1c0-.1 0 0 0 0a7 7 0 00-.5.2l-.4-.7h-.3l.5.8-1.8 1.2-.7-1.4 1-.8h-.3l-.8.6-.4-.7H47l.5.8-1.3 1-.8-1.6.3-.2H45v.1l-1.5 1-.4-.7H43l.4.8-.8.6h-.8c-.5-.8-1.2-1.5-2-2.2-.1 0 0 0 0 .1l1.8 2c-.8 0-1.6 0-2.3.2a20 20 0 00-5.3 1.5s-.1 0 0 .2zm18.7-26.1h-.2l.2 2.6h.2c0-.9 0-1.8-.2-2.6z"/><path fill="#fff" d="M66.1 82.1c-.1.5-.2 1-.1 1.5 0 .5.4.5.5.8.1.3 0 .6.2.9.2.3.4.3.6.5.2.1 0 .3.2.7.2.3.5.1.6.4l.1.7c.1.4.3.4.4.6v.5c.2.2.4.2.6.6L67.3 94l-1.6-.5-.3-11.2c.2 0 .5-.1.7-.3zm-1.7 11.1l-1.8-.5c-.7-.5-1-1-1.5-1.5a14 14 0 01-.4 4.8c-4.6.1-9 .1-13.6-1-1.6-.3-2.6-.5-4.1.3l-2 1.4c-1.3.8-2 1.5-3.1 3.3l-4.7 8.4c-.8 1.4-.6 1.2-.7 1.8-.2.9.5 1.2 1.1 1.7-1.5-.2-2 .9-1.7 2.2l.7 3.4-2.3 1.8c-1 .7-1 .5-1-.9v-3.7c1.1 0 2-.4 2.4-1h-2.5l2.2-3.1c.3-.5.7-1 .4-1.5-.5-.8-1.2-1.3-1.6-2.2-.5-1.3-.2-1.1.8-2 1.8-1.4 3.7-3 5.3-5.3l2-2.8c.4-.9.2-2 1.5-3 .9-.5.9-.5 3.2.3 1 .3 2.5-.4 3.6-1.2.9-.7 1.6-.7 2.4-1 1.9-.7 4.2-.3 6.3.2l.1-.7c.1-.8-.9-.6-1.6-.9-.7-.2-1.3-.3-1.4-1.2-.2-1-.3-2.7 0-4 1.8-.3 3.1-.7 3.5-2 2.3 1.9 4.5 2 6.4-1.5a5 5 0 001.7.7zm5.8-2.7l.2.2c.2 0 .2.2.3.4.1.1.4 0 .5.2l.3.5c.2.1.5 0 .5.3l-1.5 2-.5-.2h-.2v.1l-.2.2-.1.1-.1.2-.2.1-.7-.1z"/><path fill="#009240" d="M64.3 117.8c.7-3-1.9-5.2-3.4-7.8a28 28 0 014-3.6l.1 6-.6-.1.9 4.8-1 .7zm1.9-12.3c1.9-1.1 4-1.8 6-1.6 6.4.6 12 2.4 18.5.8a5.8 5.8 0 00-2 6.5l-13-4c-.4.2-.3.5.3.8 3.5 1.7 7 2.6 10.6 3.4-2.3-.1-3.7 1.1-4.6 3L71.1 110c.6 1 5 3.2 8.3 5.1-2.2.4-3.4 1.6-4 3.8-.6-.7-1.7-1.3-2.9-2 0 1 2.1 1.3 2.2 2h-.1l-.4.1a5.6 5.6 0 00-1.6.7l-.4.2-3 1.8.7-.8.3-.4.3-.4.6-1.2 1 .2-.2-3.6-2.9 2.7 1 .3a8.2 8.2 0 01-1 1.8 10 10 0 01-1.4 1.2l-.2.1c-.3-1.5-.7-2.8-1.1-4l.6-5.2h-.5zm-41.9 9.6l4.7-1v4.9l.1.7v.1h.1l.1.1h.5l.7-.4 2-1.6.2-.2 1.3-1 .4-.5.2-.4.1-.3.1-.3v-1.3l-.2-1v-.2l-.2-.3c2-.8 4-1.7 5.9-3a45 45 0 016-3.2c2.3-.9 5.5-2.3 7.8-1.4l1.1.6a46 46 0 00-1 8 7.6 7.6 0 00-2.4 0 7.6 7.6 0 00-2.7 1.2 9 9 0 00-1.3 1l-1 1.3a19.4 19.4 0 00-1.5 2.5 7 7 0 00-.4 1.7c-.8.1-1.4.4-1.8.7v-.2c.9-4 2.7-7.7 4.6-11.6-2 .8-4.3 5.8-6.7 11.9a6.7 6.7 0 00-4-1.9c-1.8 0-3.3.6-4.8 1.6a45.6 45.6 0 0114.6-13c-9 3.3-12.7 8.5-16.4 12.9a5.2 5.2 0 00-3.3-2.7c-2.2-.7-2.4-2.5-2.9-3.8z"/><path fill="#fff" d="M49.7 61.3c.5.3.6.3.6.5 0 .4 0 .8-.4.8-.2 0-.3-.1-.5-.3a1.3 1.3 0 00.3-1zm-6.5 3v-.8l.4-.1a1.6 1.6 0 01.8.2l.2.1s.1 0 0 .2c0 .1 0 0 0 0h-.3l-.4-.2h-.5v.5l-.1.1-.1-.1zm-.5-2.8l-.5 2c0 .7.2 1 .8 1.1.4.5.7 1 1.2 1.3H46c.5 0 .6-.3.5-.8l-.2-.6c-.2-.4-.2-1 .8-.9.6.1 1.1.2.9 1.2l-.3.7c-.1.6.2.8.7.6.5-.2 1-.6 1.4-.9-.1-.4-.4-.8-.4-1.2 0-.2.2-1.8-.2-1.5-.2.2-.5.2-.7.2-.6 0-1.1-.4-1.3-1l-.5-.1-.5-.1-.8-.1h-2.7zm3.7-7.3v1.6l.5-1c.9.1 1.3 0 .9-.9.7-.2 1-.7 1-1.4-.4.3-.8.8-1.5.8h-.5c-.6.2-.5.4-.4.9zm-1.9-1l.2.9a23.3 23.3 0 01-1.4 5.6 9 9 0 014.5.4c2-3 3.5-6 4.8-9.2-1-.6-2-1.1-3-1.4-1-.2-1.7-.1-2.6.3l-1 .8-.7.7c-1 .9-1 .7-.8 2zm5.2 7.9l1.5-1.7c3-3 4.7-4.3 3.4-8.3l-.7.3a38.5 38.5 0 01-1.8 4.9l-1 1.8-1 1.6-.6 1 .2.4z"/><path fill="#f5f6f6" d="M60.8 83.5c.3-.2.5-.6.7-1l-.6-.8-.4.1c0 .6.2 1.1.3 1.7zm-1 .6l.7-.4-.3-1.8h-.4v2.2zm-.7.2h.3l.2-.1V82H59l.1 2.3zm-.9 0h.6l-.1-2.1h-.4v2zm-1.4-.6l.5.2.4.2h.2v-1.8h-.5l-.6 1.4zm-2.5.9l.5-.3.4-.3.1-.2.2-.2.2-.7.7.6h.1l.6-1.1-1.3.1-1 .1h-.6v2zm-1 .2l.6-.1v-2h-.4l-.2 2.1zm-.5.1h.3v-2.2H53l-.1 2.2zm-1 .1h.6l.2-2.3H52c-.4 1-.5 1.3-.2 2.3zm-.8.3h.2l.3-.2c-.2-1-.2-1.4.2-2.3H51l-.1 2.5zm-.9.5l.6-.3.1-2.7h-.6c-.2 1-.2 2 0 3zm-1.4 0l.6.4v.3l.5-.4c-.1-1.1 0-2.2.1-3.4h-.5l-.1 3H49c0-1 0-2 .2-3h-.6l.1 3.1zm-.5-3.1l-.1.1.1 2.8h.2v-2.9zm13-1l1-.3-.5.8zm2.3-.8l-1 .4.8.7.2-1zm1.8 1.2l.6-.2-.6-1.3zM64 80.8l-.3 1.3h.4zm3.4 0c.3-.6.6-1 .6-1.3l-1.3.4.7.8zm-1.2 1c.4-.2.8-.4 1-.8l-1-1c-.1.2-.3.2-.5.3l.5 1.5zm-.8-1.7l2.8-1-.2-.8-2.7 1zm-16.8 1.5l-.4.8c7 .3 11-.4 15.8-1.9V80l-2.7 1c-1.9.5-3.9.9-5.8 1-2.3.1-4.6-.2-7-.3zm11.7-27.4c1 1.6 1.6 3.4 1.8 5.5v.5h-.2l-.2.2v.1l-.1.2v.7h.1l.3.2-.2.2v.8h.2l.2.2c0 1.3-.2 2.7-.5 4.2a34 34 0 01-2 0c1.1-4.4 1.5-8.3.6-12.8zM61 70c-.8 3.3-2 7.1-3.5 11.5l-1.2.1-1.2-1.3 3.6-10.1.2-.6c.2 0 .3 0 .5-.2v.1l.5-.7.2-.2v.3l.2.4.4.5.2.2zm-4.6-.8a49 49 0 01-3.3 5.8 30.6 30.6 0 00-2.4 6.6 64 64 0 01-2.1-.2c1.3-4.7 4-8.6 5.9-12.8v-.2h.1l.7-.1.2-.1.5-.2.1-.2v.7l.1.3.2.4zm.2-15.6c.7.5 1.3 1.5 1.5 3 .6 3.9.5 6.8-.6 10a29.8 29.8 0 01-2-.4c.4-1.4 1-3.1 1-4.5 0-1.3-.4-2.7-.7-4l.3-.5.3-.5.2-.4.1-.5v-.4l.1-.5v-.5l-.1-.4z"/><path fill="#fff" d="M80.7 49.1v.3c.1.3.2.6.4.6s.3-.3.4-.5l.3-1.8-1.1 1.4zm1.3.6v.8c0 .4 0 .6.3.7l.6.3c.1.1.2 0 .2-.3 0-1.4 1-3.3 1.9-5-1 .7-2 2-3 3.5zm2.3 0c0 .7-.3 1.2-.3 1.8l.1.7c.2.2 1 .3 1.2.2.3 0 .4-.2.5-.5.3-1.4.4-2.9.5-4.3V47l-.3-.2c-.3 0-.3 0-.4.3a19 19 0 00-1.3 2.7zM79.4 33c.3-1 .7-2.7 1.8-2.5.7.2 1.2.7 1.8 1 .4.5.4.8.3 1v1.3a8.6 8.6 0 00-3.9-.8zM77 36a14.2 14.2 0 006.2-1.4c-2-.3-4.1 0-6.3.6l.1.8z"/><path fill="#fff" d="M82.8 35v-.1l.2.8v.5l.2.7v.3l.2.2v.3l.2.2.1.3.2.2.1.3.2.2.2.2.2.2.3.2c-1.1 1.5-2 2.5-3.6 2.8-.7.1-1.4-.1-2.2-1.2l.7.3c-.2.3 0 .3.2.3h.2c.3-.1.3 0 .1-.4.4-.2.6-.4.8-.7-.4-.1-.8 0-1.2.1-.4.1-.6 0-.9.3l-.2-.4-.5-.8c-.2-.4-.1-.9-.3-1.3l.8-.5v2.2l.3.2v-3h-1.7l-.3-1.3c2.2 0 4-.3 5.7-1.2zm-5 3l-.3-.3h1.3v.2h-1zm2 3l.6-.2c0 .4-.5.3-.7.2zm-.4-1l.3-.1.3.1c0 .2-.2.2-.3.2l-.3-.1zm2.4-3.4v-.3c-.9.1-1.4.5-2 1l.4.4h.6l.7-.1.6-.5h-1.5a2 2 0 011.2-.5z"/></g></svg>