<svg xmlns="http://www.w3.org/2000/svg" height="400" width="600"><path fill="#a8002c" fill-rule="evenodd" paint-order="markers fill stroke" d="M0 0h600v400H0z"/><g fill-rule="evenodd" stroke-width="1.4"><path d="M387 282.4c1.2-1.7 2.7-6 1.5-7.1-1.1-1-2.3-4.2-3.8-6.7-1.3-2.4-2.1-4.8-3.3-6-1.2-1-2-4.4-3.2-4.4-1 0-1.4-.8-3.3 0-1.8.9-1.8 1.5-1.8 1.5s-.2 3.3.7 4.8c.8 1.7-.2 4.5 1.5 6.8 1.8 2.3 2.4 4.3 4.3 5.8 1.8 1.5 2.1 3 2.5 4.1.5 1.2 1.1 2.7 3.1 1.8l1.8-.6z" fill="#fff"/><path d="M302.4 30c2.4 1.6 5.2 0 7.7 1 1.8 2.4 2 5.7.8 8.7-1 1.1-1.2 3-2.8 3.6-.9.2-1.7.5-1.9 1.2 0 2.4 1.5 4.1 2.5 6a18 18 0 011.9 8.4c.3.3.1 1 .1 1.4l-.1.2c.8 3.1-.9 5.5-.2 8.8-1 2.4-.5 4.6-.5 7.4-.7 1.2.3 1.8 0 3 .2 1 1.8 1.5 2.8 1 4.7-3.2 9-9.1 16.6-6.8 2.5 1.8 5.6 1.6 8.5.5 3.5-.2 6.6-.8 10-.5.6 0 1-.3 1-1-.7-2.1-2.7-3.3-4.2-5-.2-.8.3-1.1 1-1.1 2.8.8 6.1 0 8.6 1.3.5 0 1.2-.2 1.3-.7.2-1.1-1.1-2.6.2-3.3 1 .5 1.6 1 2.5 1.7 2.3.8 4.1 2.1 6 3.5.8 1.1.8 2.8 2.4 3.3 3.7-.4 8.3-3 11.6-.4a7.9 7.9 0 014 6c.5 1.6 3.8 2 2.8 3.8-1.1.5-2.1-1.3-3.3-.3-.3.5-1 1.3-.3 1.6 1.2.8 1.8 1.7 2 3 1.6 1.3.5 4.1 1.2 6 4 4.6 7 9.9 10.7 14.7 2.2 3.4 6.8 5 8.7 8.7.1 1.8-.4 4.3.5 5.6.6 1.2.1 2.9-.4 3.8-1.5.7-1.8 3.2-4 2.2-1-1.7-2.4-2.8-4.1-4-.5-.3-1.2-.1-1.3.4.6 1.4 2.1 2.3 2.8 4 .5.3-.2 1-.3 1-2.4.2-4.7-1-6.7-2-2.1-1.4-2.1-4.4-5.5-4.5a45.8 45.8 0 00-15-3.5c-1.4.3-1 1.5-1 2.5.1 2.3 1.1 4.1 1.8 6-.4 2 1.8 2.4 1.3 4.7.8 1.8 2 3.7 3 5.5.8 2.3 2 4.3 2.5 7 .6.4.5 1.7 1.1 2.2.4.5-.1 2 .9 2.2.3 1.8 1.1 3.1 1.6 5 2.2.3.5 3.3 2.2 4 2.3.7 2.8 3.2 5.1 3.7 1.5 1.5 2.4 3.2 3.7 4.3.5 1.7 2 2.5 3.1 3.5.2 1.6 1 3 1.9 4 .5 2.3 2 3.4 2 5.6a6.1 6.1 0 011.3 3.6c.8 1.2.3 3.3 1.3 4.5.7.6.2 2.1 1.5 2.6 2.3.2 4.6-1.1 6.6-2.3 2.7-2.1 7-3.3 8.2-6.8.8-1.6 2.6-2.8 4.8-3.3 1.6-.1 3.3 1.2 4 2.2 1 1.8.8 4.1 1.8 6 1.1 1.6 1.6 3.9 3.6 5.4-.1.8 1 .8 1.5 1.5.7 2.1 2.2 3.6 3.3 5.3.7 1.4 2.2 2.3 2.9 4 1.3.4 1.5 2 3.1 2.6 1.8 1.1 3.3 2.8 4.7 4.4.6 4.7-.4 10.4 1 14.7 0 1.9.5 3.7 1.3 5 1 .8.1 3.1.8 4.3 0 2.8-1 5-1 7.8-.1.3-.6.5-1.1.1-3-3.1-7.8-5.3-9.8-9 0-1 .5-2 .6-2.9 1.4-2.4 2.4-5 4.2-7 .1-1 .8-2.2.1-3.2-1.3-2.5-1.6-6-5.8-5.8-1.5-.7-.6-2.8-1.1-4.1.5-.5.1-1.5.3-2.3-1.7-3.9-5.6-6-7.6-9.3l-5.7-4.3h-1.6c-1.8 2.8-6.2 4-7.3 7.3-.7.1-.9 1-1 1.6-3.8 3.3-7.2 7.3-11 10.8-.3.8.4 1.1 1 1.5 3.2-.7 6.7-.5 9.3-1.9 3.7 0 5.7 2.7 7.6 4.8.5 3.5 1.4 6.8 3.5 9.3 0 1.1 1 1.6 1.4 2.8 1.6 3.5 4.1 6.4 6.6 9.4 1.5 1.5 2.5 3.2 4 4.8.8 1.2 0 3.7.6 5.1-.6 1.2.2 2.4.2 3.7.5 1 .3 2.8 1.2 3.6.3 3.7 1.6 6.6 4.1 9 .7 1.4.3 3.7 1 5.4-.2.8.3 2.3.5 3.5-.2 1.5.5 3.3-1.2 3.6a32.3 32.3 0 01-11.4-7.6c-1.3-2.3 1-4.3 1.2-6.6.8-1.5 2-4.3.6-6.3 1-5.4-5-6.3-6.1-10.4-1.2-2 1.3-2.5.5-4.8-1.7-3.3-4.7-5.6-7.1-8.3-1.9-1.1-2.7-3-4.4-4.3-.1-1-1.1-1.6-2-2.3-2.1-.5-4.1.7-6.3 1-5.3.8-9.2 3.8-13.9 5.8-2-.3-2.6 1.7-4.5 1.3-4 2.8-8.8 3.3-12.7 5.8-2 .3-4 1.3-5.9 1.3-3 1.5-6.4 0-9.7.4-.9.6-1.2 1.6-1.7 2.4.2 1.7 1.7 2 2.2 3.2 1.1 2.3 2.8 4.4 4.6 6.3 1.2 2.1 2.3 3.8 3.8 5.6.8.3.7-.8 1.2-1.3v-.7c1.6-.7 1.5 1.3 2.3 2 .2.8-1.2 2.3.5 2.5h1c-.3 1.3-2 2.3-.5 3.3 0 3 1.5 5 2.8 7 1.3.4 2 2.6 3.3 1.4.9.3 0 .8.2 1.3.3 2.2 1.8 3.5 2.2 5.5.3 1 2 1.5 2.8.8 2-.8 1.8-3.1 2-5.1-1.2-.5 0-2.7-1.7-2.8-1.5-.7-.5-3.2-2.3-3.5.2-.3.5-.7.5-1.3-.5-.4-1.3-.5-1.5-1.2.5-.6.5-.6 0-1.3-.3-.2-.7-.7-.7-1.3-1-.7-2.1-.5-3.1-.2-.9.8-.9 1.8-1 3.2.6 1.3.3 3.4 2 4.3l.1.6c-1.8-1-1.8-3-3-4.3.5-2.3-.3-5.3 1.9-6.4.6-.7-.2-1.4-.9-1.7-.6-.5-1.3.3-1.8.3.4-.6 1.7-1.3.9-2.4-.4-.4-1.5-.4-2.2 0l-1 .8c0-.8 1-1.5 1.8-1.8 1.2-.4 3.2-.9 4.3.1 1.4 1.2 1.9 3 2.2 4.8.8 1.9 2 3.3 2.5 5.3.8 1.3 1.5 3.2 2.3 4.3.7.8 1.3 1.8 2.7 1.8 1.5-1.1 3.1-.1 4.6.5 1.5.5 1 2.2 2.3 2.7 1.7 3.6 2.7 7.6 5 10.7 1.8 2.8 3.2 6.3 5.6 8.8.4 1.5 2 2.3 3.4 3-.2.8-1.2 1-1.9 1.3-1.1 1.6-3.8-.5-4.8 1.3-.3 2 3 2.8 1 4.6-1.6.4-3.6.5-4.6 1.9 0 .6.5.8.6 1.1-.5 1.5-1 3.5-.3 5.1-1.5 2.4-1.6 5.7-3.3 7.6-1 1.7-2.7 2.9-2.8 5l-5.3 4.5c-.7 1.1-2.2 1.6-2.9 2.4-1.3.7-1.5 2.2-3.1 2.2-.5.8.3.8 0 1.6-.8 1.7-.5 5-3.5 4.8-.5 1.5-3.5.9-3.1 2.7.5 2.1 3 3.1 5 4.5 3.2 1.1 5.2-2.2 8.2-2.4 2.2-.6 4.8-.3 6.2 1.2 1.6-.3 3.8-.3 5.1.8 1 .8.2 2.7 1.5 3.2 1 0 1.8.8 2.3 1.4-.5 1.2 1 1.7.2 2.7-1.7-2.2-4.8-2.7-7.6-3.1-1.5.3-3.5 0-4.9 1-.5 2.3 2.5 2 3 4-.5.6.5 1 0 1.4h.2c-.8.8.5 1.5-.2 2.3-1.6-.3-1-2.6-3.1-2.6-1.5-1.5-3.5.3-5.3.3-.7-.2-1.9-.3-2.2.7-.5 1.3 1 1.3 1 2.1.5 1 1.2 2.7.5 3.8-.5-3-4.1-3.6-6.1-5.4-2.2.3-4.3-.4-6.3-.7-3.5 1-6.5 2.3-10.3 2.3-1.3.2-3.3.8-4.7-.2-.6-.8-1.5-2.3-3.1-2.1-2.7-.3-6.5-.3-8.3 1.7-1.8 0-4.7-1.2-5.8.8l-.7 1.5c-.8-.2-.5-1-1-1.7.4-2 1.7-3.5 3.2-4.8.3-1.8 2.5-2.6 4.5-3 1.4.2 2.6-1.1 3.3-2.1-.2-.7.3-1.8-.5-2.3-1-1.3-4.2-.7-3.5-3.2-.2-1.3 1.6-2.3.2-3.4l-9.3 1.5a9.8 9.8 0 01-4.3 3.8c-1.5-.2-1-1.9-1.9-2.7-.1-1-1.5-1.1-2.1-1.6-1.5-.7-2 1.4-3.3.5l-1.7-1.2c-3.8-.3-7.3-2.5-11-1.5-3.4.2-4.8-2.6-7.6-3.6-1.8-.4-3.1-2.2-5.3-1.2-1.2.8-1.2 2.3-2.5 3.2-.7 1.8.2 3 .8 4.4 1.4 2.3 4.7 3.3 6.7 5 3.3 1.8 4.8-2.3 8-1.2-.2 2 2.4 1.2 3.4 2 2 1 2.5 2.8 3.3 4.6v.9c-1.8-.4-2.4-1.9-3.8-2.7-3-1.1-4.3 1.8-7.1.7-.7.1-.8.8-1.2 1.1.2.9.4 2 1.5 2.2 2.5-.8 5 .8 6.3 2.5 1.2 1.8.9 4 .4 6-.7-.4 0-1.7-.5-2.2.1-1.5-1.2-1.7-2.2-2.3-1.7-.5-3.1.6-4.8.6-3.5-.2-6.3-.2-9.3-1.6-2.3 0-5 .5-7.3-.2-.7.2-1.7.3-1.8.8.1 1.3 1.1 2.2 1.3 3.5 1.8.7 1.5 2.6 1.5 4.6-.2.2-.7.2-.8 0 0-1.5-.7-2.5-1.7-3.1-2.1.8-4.8.3-6.1-.8-1.2-2.4-4.5-2.2-7-2.4-3-1.1-4.6-5-8.8-3.1-1.5-.3-2.5-2-4.3-1.2-3.2.4-6.6 4.2-9.6 1-.5-.6-2-.5-2.8-.1a24.6 24.6 0 00-3.9 4.4c-2-1.3.4-3 .9-4.4a6 6 0 014-3.8c.6.1 2 .3 2.6-.5.2-1.7 1.3-2.7 2.8-3.5 2.8-1.3 5.5.5 8.8 0 2-.5 4.2-.8 5.3-2.5.4-.8 0-1.6-.3-2.3-2.2-1.7-4.1-3.8-6.5-5.5-.6-.5-.5-1.4-.8-2.3.7-.6.3-2.1 1.2-2.8.3-3.8 5.4-4.4 6.1-8.2 0-1.7-1.3-2.9-2.2-4.2-.3-2.1-1.5-3.8-1-6.4-1.1-1.3-3.1-1.2-4.4-2-2.2.8-5.3 0-6 2.5.2 1.8 1.8 2.3 1.7 4.4-.2 2 0 3.7.6 5.2-.8 2.4-1 5.3-2.8 7-.2 2.2-2.5 2.9-3.2 4.5-2.1 1.5-4.6 2-6.6 3.7-3 .1-6.1.3-9.1.8-1.5-.8-4-.3-5-2-3.6-.8-4.1-4.1-6.8-5.6-1.3-1.5-1.8-3.5-3.1-4.8-.5-2.5-1-5.1-.9-7.6.5-3.3 1-5.6.4-9.1-1.9-.8-4-.7-6-1.2-3-2.1-8 0-11-2.6-.8-.7-2.3-.8-3.4-.3-.4 2.4-.4 5.3-2 7-.4.9.5 1 .8 1.6.3 1.8 1.8 3.1 2.1 5 1.7 2 2.9 4.9 4.9 6.7 1.8 1 2.6 2.8 3.4 4.8 1 .7.7 2.5 1.7 3.1-.3 1.5 1 2 .8 3.3-1.5 1.4-4.3.2-6.1 1-3-.5-6-1.1-8.3-2.8-1.5-1.6-2-4.4-1.5-7-.3-2 .8-3.6-.2-5.7.2-1.7 0-2.8-.5-3.8-.3-4.3-4.6-5.6-5.8-9.1l-1.1-3.1c.8-2.5 2.6-4.3 4.4-6.2.2-1-.1-1.8-1-2.1-3-.7-4-3.5-6.3-5-.4-1-1.4-1.8-2-3-.8-1.3-1.8-2.6-1.6-4.6-1.5-2.5-2-7.4-.5-10.2 1.3-6 3.5-11.4 6.5-16 .1-1.7 1.5-2.7 2.3-4 2.2-1.2.8-5.3 1.5-7.6.2-2.2-.3-4-.2-6.3-1.6-2.5-2-5.6-4.1-7.6l-.9.1c-2.6 3-5.8 5.5-9 7.8-2.9 2.2-5 5.5-6 9.1-.5 2.3-1.4 5-1.7 7.1.2 2-1 3-.7 5.3-.3 1.3-.3 3.3 0 4.6l-.3 1.5c-1.7-.8-1.7-3.1-3-4.1a15 15 0 01-2-5.6 11 11 0 010-3.3c.3 0 0-.7.2-1.2-.2-1.6-1.2-2.8-1.3-4.5-1-.6.1-2.8-.9-3.3.5-2.1-.8-4.1.4-5.7-.5-1.2.6-1.2.3-2.4.8-2 1-4.3 2.5-5.7.1-2.2 1.8-3.2 2.6-4.7 1.7-2.1 1.4-5.6 2.4-8-.4-1.4-1-2.4-2.4-3-2.5-.7-4.3-2.4-6.4-3.5-1.9-2.2-4.4-4-4.5-7.1-1-2-.8-4.3-1.2-6.6.5-.4-.3-.9 0-1.5 1-4.3 3.5-7.8 8.3-9.1 1.7-.5 4.5 1.1 5-1.2.7-3-1-4-1-6.3 1.2-1.1 1.5 1.4 2.5 1.9-.2 1 .8 1.6 1.1 2.3 0 2 2 2.6 1.7 4.4 0 3.3 0 6.3-.5 9.3h-.2c.5.3 0 .6 0 1.3-.6.3-.6-.5-1-.8-1-2.5-3-4.6-6-5 0-1 1.2-1.1 1.2-2.1-.1-.9-.6-1.2-1.6-1.5-2.5 1.1-5.7 2.1-6.5 4.6.3 1.3-.7 2 0 3-.5.3-.2 1.1-.3 1.6.6 1 .1 3 1.3 3.7 1.5 4 5.5 7.3 10.5 7.8 1-.2 1.3-.9 2-1.4.4-4.1 2-7.4 3-11.2.6-3.3 2-6 3.4-8.8-.2-1.1 1-1.5 1.3-2.5.7-1.6 2-2.6 2.5-4.6.7-.6 1.4-1.5 2.2-2.1 2.8-2.5 4-6.2 8-7.8 5-4.8 14.7-5.8 21.2-2.5 4.1 2.3 8.6 4.6 12.3 7.1 3.4 1.3 5.1 3.8 8.6 4.8 3.3-1 5.8-3 9.6-3.3 3-1 6.5-1.8 9.8-1.6.8-.2 1.8-.4 2.2-1 .8-1.4-.9-2.3-.9-3.7-.6-2.3-5.3-.3-4.3-4 0-.3.7-2.6-1-2.3-5.1-.6-10.3-3-12-7.2-1.7-1.3-4.2-2.3-6.4-3.3-3.5-1.8-7.6-2.3-12-3-2.6 1.3-6.6 0-9.2 1.2-5.5.8-11 1.3-16.1 3.3-.5.1-1.4.6-1.7 0-.3-.7-.5-1.4-.3-2.4 1.1-3 2.8-5.6 5-7.9.1-2.8 1.1-4.6 2.5-6.4 2.1-3.3 7.4-4.7 7.8-9.6-.7-3.8-3.5-5.8-3.2-10.3 1.8-2.6 3.2-5.8 7-6.8 4.3-.6 8.4-2.3 12.4-3.4 2.8-1.7 3.8-4.5 3.3-8.3-.3-1.2-1.3-1.6-2.3-2.1-3.6-.4-6.6 2.3-10.3 1.1-.6-.6-1.1-1-1-2.1 2.3-3.5 4.3-7.1 8.3-9.1 1.3-1.2 2.8-2.3 4.2-3.8 0-2-.7-3.7-1-5.7-.5-2.6-2.4-4.3-4.3-5.9-.5-.5-.7-1-.5-1.7.1-.5.5-.8.5-1.6 0-2.5-2.4-3.5-1.9-6.5-1.1-3.4-5.3-4.8-7.4-7.9 0-1.2 1.1-1.5 1-2.8 1.8-2.2-.7-4.1-1.5-6-1.5-1.1-1.7-3.3-3.3-4.4-1-2.2-3-3.3-3.9-5.6-2.6-3-5.1-6.5-7.3-10-.3-1.3.5-1.8 1.5-2.1 1.9.2 2.2 2.1 3.7 2.8 2.5 4.1 6.1 7.4 9.3 11 1.5 2.2 3.3 4.2 5.4 5.5 2.5-.1 4.7.9 6.5 1.9.5 1 .7 2.1 1 3.3.8 1.4 2.2 2.4 2 4.6 1 .6 1 2.3 2.3 2.8 2.8.8 4.8 2.6 5.5 5.3-.3 1.1.7 1.8 0 2.8.3 1.2 1 2.1 1.3 3.3 1.5 1.5 1.8 3.8 3.5 5.3 1.7 2.6 3.8-.7 5.8-1.2 4.5-3.8 11-9 18.4-6.7 2.2 2 5.3 1.3 8.2 1.3 2.1.6 4.3 1 6.3 2 1.3 0 1.5-1.2 2.1-1.9.5-1.4.7-3.3 1.5-4.4 0-1.8 1.8-3 .8-5.1.5-2.4-.1-3 .7-5.2.3-3.8 1.8-6.7 3.8-9.2 1.2-1.3 2.5-2.7 2.7-4.8-1.4-1-2.7.1-3.8.6-1.7 1.4-4.2.9-6.3.9-1.9-1.8-5-.5-7.5-.9-3.2.5-6-2.1-7.5-4 0-.6.5-.4.7-.6 1.8.8 4.5.8 6.3 0 .2-.2.5-.8.2-1-3.9-1.5-6.7-3.8-9.5-6-.3-.3-.3-1 0-1.3 3.8-1.1 6.3 2.5 10.5 1.5 6 1 8.7-3.8 13.2-6 2.7-.7 5-1.9 7.7-2.6 2.6.2 3.4 2.4 6 2.5z" fill="#161413"/><path d="M293.8 31.7c-2.7 2.2-5.5 4-7.6 6.5-3.7 1-7.3 4.3-11.5 2.1-2.3-1.1-5.5-2.1-7-4.1.9-1.2 2.5.5 3.7.7 2.2.6 4.7-.2 5.8 1.8 3.8-.3 7.1-2.3 10-4.3-.7-.5-1.5.3-2.5.3.6-1.6 3.3-1.3 4.1-3 .5 0 1.4-.3 1.8 0 1.2-.1 2.2-1.1 3.4-.6l-.2.6zM305.6 33.2c.1.4-.4.5-.5.7-2.8-1.2-6.2-1.3-8.6.3-1.5-.3-2.9 1-4 .5 0-1.5 1.8-1.5 3-2.5 3.1-.3 7.1-1.6 10 .4v.6zM309.4 33a9.7 9.7 0 00-.3 5c-.4 1-1 2-2 2.7l-.9-.2c.2-1.8 1.5-3.1 1.5-5 .7-1-1.8-3 .4-3.8.6.2 1.3.5 1.3 1.4z" fill="#fffefc"/><path d="M306.4 35c.7 1-.2 1.9-.2 2.9-.3.3-.5.6-1 .3.2-1.7-1.1-2.2-1.3-3.5.7-.3 2.3-.5 2.5.3zM304 36.9c0 1.6-.7 2.4-1.7 3.3-1.5-.5-.2-3.3-2-3.8-1.4-.9-3.3-.9-4.8-.5-.2-2 2 0 2.8-1.2 2.5-.3 4.8.5 5.8 2.2zM206.4 39.3c1.3 1.2 1.5 3 3.5 3.7.1 1.3 2.3 1.6 2.1 3.1 1.3.7 2.3 1.5 2.2 3.3 2.1.7 3 2.8 4.4 4.3-.3.2-.1.9-.8.9-.6-.7-2.1-.5-1.8-1.9-.5-.3-.8.4-1.3-.1-1.2-.9.5-2-.5-3-.5.5-1.4.3-1.9-.2.5-1.5-1.4-1.3-.8-3h.2c.1-1.1-2.2-.1-2-1.6-2.2.2-1-2.3-2.7-2.8-1-1.8-3.3-3.5-4.4-5.5l.1-.5c1.8.5 2 2.5 3.7 3.3zM291.5 37.2c-.4.3-1.2.7-1.5.2 0-.7 1.1-.9 1.5-.2z" fill="#fffefc"/><path d="M300.6 38.2c.2 1.8-1.5 2.6-2.7 3.6-2.4 1.5-5.3 3-8.6 3.3-.6-1 .7-1.5 1-2.5 1.8-1 4.2-1.6 6.3-1.8.2 0 0-.1.2-.5-3.7-.1-7 1.2-9.8 2.7l1.7.1c.1.9-.7 1-1.2 1-.7.2-1.2-.1-1-.6-.7.3-2.3.6-3.1.5-.5-.9.8-1.4 1-2 3.8-2.3 8-4.8 13.5-4.3.5-1.3 2.4-.3 2.7.5zM285.3 39.8c-.6 2-3.1 2.7-4.3 4.3-2.5 1.5-6 2-8.6 1.2-.3-.7.2-1.2.8-1.2 4.7.5 7.7-3 11.5-4.4l.6.1zM305 40c.3.8-.6 1.2-1 1.3l-.7-.1c0-.9.8-1.5 1.6-1.2zM307.6 42.2c-.5.3-.7 1-1.5.8-.4-.8 1-1.2 1.5-.8zM301.6 44.5c.2.8.8 2 .2 3-.9.3-2 1-3.4.4-.5-.1-.8-.8-.5-1.1l.4-.2c-.5-.3-1-1.1-.5-1.6.1-1 4.3-4.2 3.8-.5zM305.7 47.8c-.3.5-1.3.1-1.8.1-1-1-1-3-1-4.3 2.2.5 2.4 2.5 2.8 4.2zM296.8 46.3c.2.5-.3.8-1 1l-.8-.4c.1-.3.3-1 .8-1.1.5 0 .8.2 1 .5zM303 51.6c-1 1.8 1 4.1-1.2 5-2.2-.2-4 1.6-5.5 0 .2-1.2 1.6-2.2.5-3.2-.2-.3-1-.2-.7-.7-.1-.5.5-.5.7-.8-.2-2.3 2.6-2.1 4-3 2-.3 1.8 1.5 2.1 2.7zM307.6 51.7c-.5 2.2 1.8 3 .5 4.8-.5.7-.5 1.9-1.5 1.4-1.2-.5-2.5-1.2-2.5-2.5.8-2-.7-4.2.5-5.8 1.3.2 2 1.5 3 2.1zM225.6 55.7c-1.6.3-4-.3-5.1 1-1.2.3-.7 2.3-2.2 1.8a5 5 0 011.7-4.4c2 .6 5-.5 5.6 1.6zM295.1 55c-.1.9-.8 1.4-1.8 1.7l-1.2-.5c.2-.7.4-1.3 1-1.6.7-.2 1.5.1 2 .4z" fill="#fffefc"/><path d="M225.6 57.5c-.5 1.8 2.2 1.8 2.2 3.5-2-.7-2.2 1.3-3.8 1.8-.7.3-1.7.8-1.9 1.5 0 .5.4.8.9.5 1.8-.7 2.8-3.1 5-2.3 0 1.3 0 2.5-.9 3-.8 1-3 .1-2.6 2 .1.6.8 2.6-.7 2.6-3.3-.3-3.2-4-6.1-5.1-.5-.7-1-1.9-.5-2.5.3-.7 1-1 1.1-1.8 2.2-1.5 3.3-6.1 7.3-3.2zM308.7 61c.4.3.4 1.2 0 1.5-2.3-.5-4 1.8-6.3 1.1l-.1-.6h.1l-.1-.5c-.5 0-1.4.8-1.9 0-.3-1.3-2-1.2-3-1.7-1.3.4-3.4.2-2.6 2.3-.5.4-1.3 1.5-.3 1.9 2 .1 3.1 2.6 5.1.8 1.3.3.5 2.3.7 3.6-.2.7-1.4.7-1.4 1.5-.3 1.7 1.7 1.2 2.5 2 1.2 0 2.4-.7 1.9-2.1.5-1.5 0-3.7 1.3-4.3 1.1.5 2.5 1 3.8 1 1 2.3-1 3.6-.8 5.6-1 2-1.7 4.1-3.5 5.3-.5 1.1-1 2.3-2.3 2.8-3.4 1.3-4-2-6.3-2.8-.5-1.5-1.4-2.5-2-3.8.3 0 .1-.7.1-1-.6 0-.1-.7-.6-.9.8-1-.4-1.6-.5-2.4-1.4-.5.6-2-1-2.4 0-.6.8-1.1.3-2-.3 0-.3-1 0-1.1.8-.7-.3-3 1-3.5-.2-.6.3-1 .3-1.5 3.2-1.3 7-2 10.5-1.6 2 .7 3.8 1.8 5.1 2.8z" fill="#fffefc"/><path d="M224.5 58.9c-.5 1.8-2.2 2.6-3.7 3.8-.7.3-.5-.4-.8-.5 1.1-1.4 2.3-3 4.5-3.3z" fill="#161413"/><path d="M291 60c-.4 2-.2 4.1-1.8 5.3-.9.2-1.2-.5-1.2-1 .2-1.2 1.7-1.2 1.2-2.8.1-.7-.5-2 .5-2.5.6-.5 1.4.2 1.3 1z" fill="#fffefc"/><path d="M303.6 61.5c-.7-.5-1.2.3-1.3.7-.7-.5.1-.9 0-1.4.5-.6 1.1-.3 1.5 0l-.2.7z" fill="#161413"/><path d="M298.1 64c-.2.8-1.5.8-2 .3-1-.2 0-.7 0-1.2.9-.1 1.8.2 2 .9zM230 65.1c0 .7-.6 1-1.2.7-.5-.7-.4-1.2.1-1.7.7 0 1.2.5 1 1zM303.6 65.8c-.7 1.3-.7 3.3-.7 4.6-.1.5-.3 1-1.1 1-1 0-.4-1.6-.5-2.5.5-.1.1-1 .3-1.3l.2-.2c-.5-.8 0-1.1-.2-2.1-.2-.3 0-.7.7-1 1-.2 1.1.8 1.3 1.5zM307.9 65.1v.7c-.7.3-2 .2-2.5-.3 0-.4.5-.5.7-.9.8 0 1.6 0 1.8.5zM235.4 68.1c.2.7.5 1.2.5 1.8-.5.9-1.8.5-2.7.2-.8-.7-2 0-3 .3-1.3 1.5-3.3 2.5-2.4 5.3.5.5.1 1.2.1 1.7-.3.6-1.3.5-1.8 0-1.1-1-1.6-3-1.3-4.7-.3-1 .3-2.1 1.1-3 1.2-1.3 2.4-3 4.9-3 1.8-.2 3.6.3 4.6 1.4zM291.1 72.4c0 1.8 1.7 2.5 2 4.1.9 1.9 2.5 3.5 4.2 4.8.3.4.3 1.4 0 1.7-2.5.7-3.3-2-4.7-3.2-.6-2-2.8-2.6-2.3-5.2-.5-2.5-3.1-4.7-1.8-7 2.3.3 1.3 3.7 2.6 4.8zM361 71c1 1.2 3.5 1.7 2.5 3.6-1.8.3-3.3-1.2-4.7-2-.6.5-1.8.8-2.1-.2l-1.3-1.1c-.7 1.6-2.4-1-3.2.6v1c-2.5 1-2.2-2-3.2-2.8 0-.7-.4-.8-.3-1.5 2-1.3 4.5.7 6.7.5l5.6 2zM300.3 70.8l-.2-.2.2.2z" fill="#fffefc"/><path d="M351.7 71.4l-.3-.8.3.5v.3z" fill="#161413"/><path d="M233.6 74.7c.5 2.5 3.3 3.3 3.8 5.6.8.7 2.7.4 2.8 1.7-.6 2 2 1.6 1.7 3.3 1.1 1.2 3 1.5 2.8 3.3.5.5 1.5.5 1.5 1.2-.2 1.8 2 2 2.3 3.3 1.7.6 1.2 2.6 2.8 3.1.2 1.7 1.4 2.2 2.2 3.2a8.3 8.3 0 003 3.8c.8 1.3.6 3.3 2.3 4 .7 2.7 3.5 3.7 4.5 6 3.6 3.3 5.6 7.8 9.1 11.1.8 2.8 3.3 4.5 4.6 6.8 2.2 1.2 2.7 3.5 4 5.1 2.5 2.8 4.7 5.6 6.5 8.8.2 2 2.5 2.5 2.8 4.3.5 1.6 2.3 2.6 3.3 4 2 2.4 3.9 4.7 5.8 7.4 0 1.8 1.7 2.6 2 4.1 0 2.5 3.5 2.5 3.7 4.7 2 1.4 2.8 3.3 4.6 5 .9 2.7 3.2 4.5 4.5 7 2 1.2 2.2 3.8 3.8 5 .4 1.5 2.3 1.8 1.8 3.6 2.9 2.7 4.4 6.1 6.4 9.3 1.1 1 1.3 2.5 2.3 3.3 3.6 4.8 7.1 9.6 10.1 14.7 1.2 1.5 2.3 3.1 4 4.3 2.1 3.8 5.1 7.3 7.8 10.6.6 2.8 3.6 3.6 4.3 6.4 1.8 1.2 1.6 3.8 3.5 5 2.1 4 4.6 7.3 7.3 10.7 0 1.2 1.6 1.5 1 2.7-1.2.6-2-.5-2.9-1.2-1.1-1.8-1.4-4.3-4-5.3-.6-1.8-2-3.1-3-4.6-2-1.5-3.6-3-4-5.5-2.4-1-3-3.1-4.5-4.8-.9-1.8-1.5-4-3.5-5a6.4 6.4 0 01-1.7-3c-.5-1.9-2.5-2.9-3.3-4.5-2-2.8-3.3-6-5.6-8.5a111 111 0 01-6.5-8.9c-1.3-.3-2-1.5-2.3-2.8-.9-1.3-2.5-2.1-3-3.8-.7-.3-.5-1.3-1-1.6 0-1-1-1.4-1.5-1.9-.7-2-2.8-3-3.2-5.4-1.1-1.7-2.6-2.8-3.3-4.8-2.6-2.5-3.5-6.5-6.6-8.8l-10-12.4c-1.1-2.1-3.1-3.8-4.1-6-2.8-3-5-6.7-7.8-9.5a5.7 5.7 0 00-3.2-4.1c-1.5-3.7-4.8-6.3-6.6-10-1.5-1-2.2-2.8-3.5-4.1a33 33 0 01-4-5.5 32.9 32.9 0 00-4.3-5.4c-.8-1.8-2.5-3-3.6-4.6-1-.7-1.5-2-2.4-3.2-1.6-3.1-4.8-5.4-6.4-8.7-2.9-4.2-5.8-8-8.5-12.1-3.1-2.8-5-6.6-8.5-9.4-.6-.4.2-2-1.1-2.2-1.7.5-1.7-1-2.8-1.1-.7-1.7-.5-4.5.6-5.7.9-.1 1.5-.3 2.2 0 .1.9.1 1.9 1 2zM380.2 76.2c.9.7 1.5 2 .9 3.2-1.7.8-1.5-1.2-2.2-1.9-.8-.8-1.2-2-2.1-2.4-.4 1.1 1.1 1.8.6 2.8 1.3.6 1.2 2.1 1.7 3.3-.2 1.6 1.6 3 .5 4.3-.9.5-1.5-.4-1.7-.9-.2-1-.3-2.6-.3-3.3.1-.8-.5-2.1-.7-3.1-3.1 1-1.3-2.8-3.3-3.3-2.2-.7-4.6 0-6.6.6.8 1 1.6-.1 2.8 0 1.5.2 3.3 0 4.3 1 .5 1.4 1.2 3.5.2 4.5-2.2-.2-1.4-2.6-2.4-3.6-1.8-.7-4.4.3-6-.9.2-1-1.3-.5-1.3-1.4 1.7-2.2 5.2-1.5 8-2.2 3.3-1 6.5 1 7.6 3.3zM358 74.6c0 .6-1.2.6-1.7.5-.5-.4-1.1-1-.6-1.7 1-.5 2.5.3 2.3 1.2z" fill="#fffefc"/><path d="M303.3 75.5c-.4.7-.5 1.4-1.4 1.7-1.1-1.3-4.1 1.2-3.5-1.7-.4-.1-.1-.4-.1-1 1.5-.4 4-.4 5 1z" fill="#161413"/><path d="M301.6 76c-.7.2-1.5.2-2-.3-.2-.5.5-.5.8-.6.7 0 1.5 0 1.2 1zM349 76c.2.9-.8 1.4-1.6 1.7-5.5-.8-11.8-.3-16.8 2v.3l8.2-1.6c2.1 0 4.6.1 6.6.6 1 .5-.2 1.3-.7 1.7-2.3.6-4.3-1-6.6-.9a16 16 0 00-12.3 5.3c.8 2.2-1.5 2.8-1.8 4.7l-1 1.3c1.5 1.8-1 3.3-1.8 4.8-.7.1-1.4-.2-1-1.2.6-4.3 1-8.4 4.1-11 2.5-4.2 6.8-6.5 12.3-8.2 3.8 0 7.6-1 11.6-.4l.8 1zM289.2 78.2c.1.3-.5.8-.7 1-1 0-1.3-.5-1-1.3.2-.9 1.7-.5 1.7.3zM356.8 78.4a12 12 0 001.5 7.4c.4 0 .5.2.7.2.3-2.5-1.5-4-.8-7 .1-.5.8-.3 1.1 0-.3 2.5 1.2 4 2.2 5.8h.2c.5-1.6-1-2.5-1.2-4.1 0-.7.2-1.2.7-1.5 1.1-.2 1 1 1 1.8.3.3.3 1.3 0 1.7.6 1.4 1.1 2.8 2.1 4 .7 0 .3-.6.7-.7a4.8 4.8 0 01-1.2-3.2c.7.4 1.2-.1 1.2-.8-.4-.7 0-1.8 0-2.8 1.6-1 4-.5 5.8.3.3.2.3.5.3.8-.8.9-2-.6-2.6.4.1 1.3 2 .6 2.8 1.5 0 .6-.9.5-.9 1.1.4 1.2 2 .8 3.2 1.2.3.8 0 2 1.2 2.1 2.5-.1 4 1.5 6.4 1.5.4.7 1 .7 1 1.2-.3 1.5-1.8.1-2.5-.2-.5-.5-1-1.2-1.8-1v1c.8.8 2.8.5 3.2 1.7-.4 2.6-3.8.3-5.2 2.3-.3.3-.3.8 0 1 1.4.6 3.2-1.2 3.8.5-.5.1-1 .1-1 .8.5 1.3 2 2.1 3.5 2.6.9-.1 1.4-.5 2.2-.8 1 .7 3.1.2 3.3 1.8-1 .5-2.8-.8-3.1.5.4.8 1.6.2 2.4.7.2.5-.3.6-.5 1 .5 1.5 3.7 1 4.2 2.6-1 1-2.7-.8-2.8.7 1.1 1.1 3.5.3 4.3 1.6l-1 1c.3.5 1.5.5 2.1 1 0 .8-1 .7-1.3 1 .2 1 2.5.3 2.8 1.8 1.4-.3 1.2 1 1.7 1.7 1.2.5 2.2-.7 2.8.1 0 .5-.6.5-.6 1 1.3.9 3.6.4 4.4 1.9.4.3.2 1.1.4 1.8-1.5.8-3.2-.2-3.9 1.3-.4 1.5 2.9 4.5-.3 5.3-1.3 0-1.5-1-2-1.7 0-1-.3-1.6-.1-2.6-.4-.5-1.2-.2-1.7-.7-.5-.5.3-1.8-.7-2.3-1 .7-2.3-1.3-2.8.2.3 1.5-1.6 1.1-1.6 2.1-1.9.9-1-1.8-3-1.1-.5-1-1.5 0-2-1-.7.6-2 .5-2.2-.2v-.3c-.8-.3-1.3 1-2 0-.1-.8-.8-1-.8-1.8-.5-.2-1.5 1-2 .1-.3-.6-.3-1.6-.8-2.1-1.2 1.3.6 2.5 0 3.6-1 0-1.3-.8-1.8-1.5.1-.6-.2-1-.5-1.5-.5.4-1.4.5-1.7 0-.8-1.3-.3-3.4-1.2-4.6-.6 2.2.4 3.3.7 5.1-.3.4-1.2.4-1.5 0-1.2-2.3-1.2-5.6-2.5-7.7-.5.1-.1.8-.1 1.1.5 1.7.6 3.7 1.4 5 0 .6-.1 1.1-.4 1.5-.7 0-1-.4-1.4-.7 0-2-1.1-3.5-.6-5.3 0-1.6-1.2-2.5-.7-4.4-.2-.2-.7-.2-.7 0-.8 3.3 1.4 5.2 1 8-.1.6-.8.6-1.1.4-.7-2.5-1.5-5.1-1.5-8a2 2 0 00-.7-1.4c-1 .5.2 1.3 0 2.1-.2 2.7 1.3 4.3 1.2 7-.7.5-1-.2-1.5-.4-.4-.8-.9-1.6-.7-3 .3-.4-.5-1.1-.2-2.1-.4-1.2 0-2.8-.4-4-.9-.3-.2 1-.7 1.4.2 1.1.3 2.4.7 3.8l-.5 2c-2.9-1.7-.9-6.7-1.5-10 .5-.1.3-.8.3-1.3-.3-.2-.5-.3-.7 0-.3 1.8-.6 4.1-.5 6-.3 1.6-.6 4.4.4 5.6-.2 2.6 1.6 4.3 3 6l3.1 2c0 .9 0 1.4-.7 1.6a8 8 0 01-2.5-2.2c-.4 1.3 1.2 2.3 1.9 3.3-.4 1.7 1.3 2.2 1.1 3.7h-.1c-.4 1.6 2.5 1.6 1.1 3.6.5 1.3 1.9 2.1 2.5 3.1 0 .5 0 1-.3 1.2-.5-.2-1-.8-1.5-.5.2 1.6 3.5 2.1 2.6 4-.1-.2-.4 0-.8-.2 0 .3 0 .8.2.8 1.3 1.3 3.8 2 3.5 4-.9.8-1.9-.7-2.2 0 1.3 2 3.8 3 4.8 5-.5 1.1-1.8 0-2.3-.5 0-.4-.3-.5-.7-.4.4.9 1.4 1.7 2.2 2.5 1 1.2 2.2 2.5 3 3.8 0 .8-.8 1.2-1.3.7-1.2-.9-1.7-2.2-3-2.8-.2.8.8 1.4 1.3 2.1 1.3 1.2 2.5 2.8 4 3.8.3.3.3 1.2 0 1.5-.4.2-.9.2-1.2 0-.1-.5-.5-1-1-1-.5.2.2.3 0 .5 1.7 1 3 2.5 3.3 4.3-.3.7-1.6.7-2.1 0-.8-1.3-2-2.1-3.3-3.1-.4.8.6 1.3 1.1 1.6 1 1.3 2.2 2.5 3.5 3.5.5 1.5 1.8 2.3 1.8 4.1-2.5 1.2-2.8-2.3-4.8-2.8.5 1.7 2.2 2.2 2.7 3.6 1 2 2.6 3.7 3.6 5.7-.3.5-.8 1.1-1.5.6-1.8-2.3-3.4-4.8-5.6-6.6-.2 2 2 3 3 4.5.8 2 2.5 3.6 3.6 5.3 0 .6-1.1 1.1-1.6.5-1-2-2-4-3.8-5.3l-.4.1c0 1.2 1.2 1.9 1.8 2.4l3 4.7c0 .4.4 1-.1 1.2l-1.7-.7c-.2.4-.5 1.2-1 .5-.8-1-1.6-2.1-2.8-3l-.3.2c1.8 2.5 4.1 4.7 5.4 7.5v.8c-1.6.3-1.5-1.5-2.6-2-1.3-1.1-1.7-3-3-4.1-.3-.2-.7 0-.8.3 1.6 3.5 5.1 5.3 6.4 8.8-.3.3-.3 1-1 .6l-.5-.1c-2-2.2-3.3-4.8-5.3-7.1-.1.1-.3.1-.3.3l3.8 6.1c-.3.7-1.1.3-1.8.2-1.7-1.7-2.7-3.8-4.5-5.5-.3.2-.3.8 0 1 .7 1.5 2.7 2.2 2.2 3.8-2.9 1-3.2-2.1-4.7-3.1-1.3-1-2.1-2.3-3.6-3.2-.5.9.3 1 .5 1.3l2.5 2.2c.3.7-.2 1-.4 1.5-2.5.3-4.6-.8-7.1-.8-1.5-2-2.2-4.7-3.8-6.3-1.5-1.2-2.3-3.2-4-4.3-.3 0-.3.1-.3.3 0 .5.5 1 .8 1.2l5.5 7.4c.1.8-.9 1-1.7 1-2.1.2-1.8-2-3-2.6-6-6.5-11.6-13.1-17-19.9-2.6-3.1-4.7-6.8-7-9.9 0-.7 0-1.3.6-1.7l.9.2c2.6 3.5 4.1 7.8 7.1 11 2.2 2.9 4.1 5.7 7 7.9.8 1.3 1.8 2.1 3.1 3 .2 0 .7 0 .5-.4-2.6-3.6-6.6-6.4-9-10.3-2-1.4-2.6-3.6-4-5.4-2-3.3-4.9-6.5-6-10 0-.8.1-1.2.4-1.7l1.2.5c3.5 7.9 9.8 13.7 15.3 20.3l3.4 2.5c.5-.2.9-.5.4-1-8.7-7-14.1-15.7-20-24.7-.6-1-1-2.4-.4-3.8 2-.3 1.8 2.2 2.6 3.3 1.5 2 1.8 4.5 3.8 6.2.5 1.6 2.4 2.6 3 4.1 2.5 3.1 4.7 6.3 8.2 8.6.5 1.3 2 2.1 3.1 3 .5.1.7-.2.8-.2-1.3-1.7-3-3-4.4-4.5-3-2.8-5.9-6-8-9.5-1.5-1-2.2-2.7-3.2-3.8-1.8-3-3.4-6.3-5.3-9.3-.5-1.7-1.8-2.7-1.3-5 .5-.1.3-1.6 1.3-1.1.9 3 3 4.6 3.8 7.6 1.5 3.5 3.7 6.3 5.9 9.4.1.3.6.8.8 1.5 3 3.5 5.6 7.1 9.8 9.7.3 0 .1-.3.5-.3-.7-1.1-2-1.6-2.7-2.6-3.6-2.5-5.3-6.5-8.1-9.6-.8-1.7-2-2.8-2.8-4.6-.9-1.2-1.7-2.9-2.4-4.2-1.3-2.1-2.4-4.3-3.6-6.4-.2-1.2-1.7-1.4-1.7-2.7-.8-.3 0-1.8-.6-2.5 0-3 .1-5.7.6-8.2.4-1.3.4-3 1-4 .7-1.3-.5-3 .7-4.3.7-1.3 0-3.5 1.2-4.5 1.1-5 3.6-9 5.4-13.5 1.5-1.8 2.7-4 4.3-5.6.4-.5 1-1 1.7-1.4 1.3-2.4 4.6-4 7.6-5.2 1-1.2 3.7-1.2 4.3 0zM307 79c-.6 1.2-1 2.3-2.6 3.2-.6 0-.8-.9-1-1.4.4-1.3 1.4-2 2.5-2.6.8-.3 1 .3 1.2.8zM377.3 82.8c-.2.5-.9.7-1.4.4-.1-1.2-1.1-3.2 0-4.2 1.4.7.9 2.5 1.4 3.8zM289.3 80.3c-.1.2-.8.2-.8-.3.2-.2.2-.6.7-.6.3.1.8.8.1 1zM227.8 81.5c-.2.5-1.2.5-1.7.2-.2-.5-.7-1.4-.2-1.9 1.2-1 2.4.4 1.9 1.7z" fill="#fffefc"/><path d="M355 80c-.1 1.8.9 3 .9 4.6.4 1.2 1.6 1.9 1.4 3.3-1 0-1.3-1.1-1.8-1.8-.5-1.8-1-3.6-1.1-5.3 0-.3.1-.8.6-.8z" fill="#161413"/><path d="M363.6 80.7h-.3l.3-.7c.2.2 0 .3 0 .7zM232 81.5c.4.7 0 1.7.7 2.2 3.7.6 3.9 4.2 6.2 5.9.5 1 1 2 2 2.5.8 1.5 2 3 1.5 4.8-.9 3.4.3 6.4 1.5 9-.2.6-.4 1-1.2 1-1.2-.1-1.2-1.4-1.8-2 0-1.2 0-2.2-.7-2.7.2-2-.1-4.3.3-6 .2-.5-.4-.5-.3-1-.8.2-.3 1.2-.5 1.7.4.3.4 1 0 1.1-.1.4-.6.9-1.1.5-.9-1.1-.5-3.6-.2-5.1-.3-.5-.7.2-.8.2-.9 2.4.6 4.3.5 6.6 0 .6-1 .6-1.5.5-.7-1.2-1.4-3-.9-4.5.2-1.8.5-3.6.5-5.3-1.1.5-.8 2.3-.8 3.7-.3.5-.7 2-1.7 1.1-.3-1-.3-2.5 0-3.5-.1-1.8 1-3 1-5-.8-.4-.8.4-1.1.7-1.2 1 .8 4.8-1.7 4.7-1.1-2-.3-5.3 0-7.6-.6 0-.6 1.5-1.6.8-.5-1.2.3-3.3-1.5-3.5-.7-.6-.4-1.3.1-1.8 1.2 0 1.7 1.3 3 1zM341.4 81.5l-.1.8c-4.7.4-9.2 0-12.8 2.5l-.5-.3c1.3-1.8 4.5-3.5 7.4-3.7.5-.1 1.4.7 1.7-.1 1.5.1 3.3 0 4.3.8z" fill="#fffefc"/><path d="M353.5 84.3c.4 1.7 1.7 2.8 1.5 4.3-1.5-1.6-2-4-3-6 .5-.3-.1-1.3.7-1.6.5 1 .2 2.6.8 3.3zM351.2 85c.5 1.6.8 3.8 2.7 4.3v1c-1.9-.2-2.2-2.2-3-3.5-.2-1.3-1.4-2.5-.7-4 1 .2.2 1.8 1 2.2z" fill="#161413"/><path d="M342 84c-.3 2.1-3.2.6-4.4 2.1-6 .4-9.8 4.5-12.6 8.1-.7.9-.7 2-1.8 2.5-.9.2-.9-.5-.9-1.1 1-1.5 2.2-3 3.5-4.2a8.7 8.7 0 017.2-5l.1-.4c-3.6-.7-5.6 2.3-7.8 4.1h-.8c.7-1.8 2.5-2.8 3.3-4.3 2.5-.3 4.5-1.7 7-2.2l7.1-.3.2.7z" fill="#fffefc"/><path d="M349.2 86.5c.8 2.1 1.2 4.4 3.2 5.6 0 .3.1.8-.4.8-2-1.8-3.6-4-3.4-7.1-.2-.7-.9-1.2-.2-1.7.6.5.6 1.4.8 2.4z" fill="#161413"/><path d="M294.3 86.6c-.3.5-.5 1-1.3 1-.5 0-1.2-.3-1.2-1 0-.5.7-.6 1-.8.8-.3 1 .7 1.5.8z" fill="#fffefc"/><path d="M347.4 88.6c1.2 1.8 2 4.1 3.3 5.8v.3c-.7-.1-1.5-.8-1.7-1.6-1.1-1.2-1.1-3.2-2.6-4.3h-.2c-.5 2 .5 3 1 4.4.5 2.2 2.7 3.2 2.8 5.2l-.8-.4c-2-2.6-3.5-5.8-3.8-9.7 1 0 .8-1 1.2-1.5.5.3.5 1.1.8 1.8z" fill="#161413"/><path d="M336.3 88.1c-2.2 3.5-7.3 4.6-9 8.3-1.3 2.6-1.6 5.8-4.1 7.3-3.4 2-5.5 4.6-6.2 8.4-1.6.6-1.3 4-4 3-.3-2.8 1-4.7 2.2-6.8 0-1 1.2-1.5 1.2-2.7.5-1.3 1.3-2.6 2.3-4 .8-1 2.6-1.3 2.1-3 .4-.2 0-1.4 1.2-1 .5.1.5.8.5 1.3 1.8-1.5 3-3.2 3.8-5.3 1.8-2.8 4.8-4.2 7.8-6.1.8.1 2.3-.7 2.2.6z" fill="#fffefc"/><path d="M344.2 90.1c1.4 3.6 2.4 7.6 5 10.2v.5c-1 .2-1.3-1.3-2-1.8-1-1.8-1.5-4-2.6-5.4.1-1.4-1-1.8-.7-3.5h.3z" fill="#161413"/><path d="M337 90.8c-.6 1.8-3.4 1.6-4.4 3.1l-4.3 4.1h-.7c-.3-1.5 1.2-1.8 1.9-3 1.8-1.6 4.3-3 6.4-4.7.7-.2.7.1 1 .5z" fill="#fffefc"/><path d="M366.1 92.7c.4 0 .7-.3 1-.1.2 1.8-.3 4.8.4 6.8-.2.8.8 1.4.1 2.1-.8-.7-.6-2.3-1.1-3.3v-4.1c-.2-.2-.9-.4-1 0a7.6 7.6 0 000 4.3c-.4 0-.2.3-.5.1-.4-.6-.7-1.1-.5-2.3.6-.2-.7-2.1.5-3-.4-.6.1-1 .3-1.3.5.2.3.7.8.8z" fill="#161413"/><path d="M262.1 93c-.2.9-.8 1.6-1.6 2.2-.7.2-1.2-.1-1.2-.8.2-1 1-1.7 2-2.2.5 0 .8.4.8.7z" fill="#fffefc"/><path d="M343.6 94.4c1.5 3.1 2.6 6.4 4.8 9v.7c-1.2-.1-1.5-1.6-2.2-2.4-1.1-3.2-3.8-5.5-3.3-9.1.5.3.5 1.1.7 1.8zM369.3 96.7c.3.3 0 1.2.2 1.8-.2 1.7.6 3 .5 4.7h-.4c-1.3-2.7-.8-6.7-1.3-10l.5-.6c.3 1.3.3 2.6.5 4.1z" fill="#161413"/><path d="M265.4 94c-.3 1-1.5 1.7-1.6 2.9.5 0 1-1.2 2-.5.6 1.3-.4 2.3-1 3.1-.9.2-1.4-.5-1.9-1-.6.7-1 1.5-1.3 2.2.5.1 1-1 1.8-.5.4 1-.3 2.3-1.1 3-.8.1-1-.7-1.2-1.2-.6.5-1.1.2-1.6-.2-.4-1.1.5-2.4 1-3.3.3-2.3 3-3.1 3.6-5.3.7 0 1.3.2 1.3.9zM336 93.9c-1 2.3-2.2 4.8-3.9 6.8-.1.6-.6.8-1 1.3-2.1 1.7-1.6 5.3-4.1 6.6a16.4 16.4 0 01-7 6c-.8.5-2 .8-2 1.8 1.2.3 1.7-1.2 3.2-1.5h.5v.8a33.2 33.2 0 01-5.8 4.8l-1-.3c-2 1.6-4.3 2.8-4.3 5.8-1.5 1.3 1 4-1.7 4.4-1.8-1.6-.2-4.4-.7-7l.7-2.9c1.8-1.8 3.8-3.6 6.3-4.8 1.3-1.3 2.2-2.8 3.5-3.8 2.3-3.5 5.6-6 7.6-9.4 1.7-1.7 2.7-3.6 4.3-5.3 1.7-1.2 2.4-3 4.3-3.8.5 0 .9.2 1 .5zM316.2 95.4c.2.3.3 1 0 1.3.7.7 1.8.7 1.3 1.8-.3.2-.1.5-.5.5.2.2.5 1.2-.1 1.2-.7.1-.5-.7-.7-.7-.5-.8-2.3-1-1.8-2.8-.7-.2-1.4-.5-1.4-1.3.4-1.3 2.5-.7 3.2 0z" fill="#fffefc"/><path d="M371.1 96.7c-.3 3 1.3 5.1 1 7.6-.8 0-.7-1-.8-1.6-.4-1.7-.5-3.3-.9-5.2.4-1-.3-2.1 0-2.8.9.4.2 1.5.7 2zM342 97.2c.7 1.8 2.2 3.3 2.7 5.1 1.2 1.8 2 4.2 3.5 5.8-.1.5.4.5.2 1-.7.2-1.2-.5-1.7-1-1.5-4.6-5.1-7.8-5.8-13 1.2-.2 1.2 1.1 1.2 2.1z" fill="#161413"/><path d="M385 96.2h-1l.4-.6c.2 0 .7.1.7.6zM277.2 97.9c-.2 1.3.5 2.1.2 3.6h-.2c-.2 1.5.5 3.1-.5 4.6-.5 1.5-2.3 1.9-2.3 3.7-.2 1-1.8.8-1.5 2.1-.7 0-1 1.3-1.8.5-.5-.1-.2-.8-.4-1.1.9-.4 1.7-.9 1.4-2 1.1-1.3 1.6-3.5 2.6-5 0-1.1.9-2.3.2-3.6.3-1.7-.5-2.5.2-3.8 1-.4 2 0 2.1 1z" fill="#fffefc"/><path d="M373.6 99c0 2 .3 3.5.5 5 .3.6.3 1.3 1 1.6v.9h-.5c-.8-1-1.5-2.5-1.2-3.8-.8-2-.5-3.7-.3-6 .8.5 0 1.8.5 2.3z" fill="#161413"/><path d="M245 99.5c0 2.8 1.2 4.5 1.7 7 0 .6-.8.6-1.2 1-.6.1-1.3-.4-1.3-.9-.2-1.8-1.3-3-1.2-5 0-1.3-.8-2.6.4-3.2 1-.2 1.1.6 1.6 1.1z" fill="#fffefc"/><path d="M341.6 101.2c1.3 3 2.8 6 4.6 8.7.2 1.9 1.7 2.4 1.9 4.2-2.2-1.4-2.5-4.3-4.2-6-1.2-3.3-3-6-4.1-9l.1-.7c1.4.3.7 2.1 1.7 2.8z" fill="#161413"/><path d="M274.4 100v.8c-.2.5-.3 1.7-1.5 1.9-.2.8-.8 1.1-1.5 1.3-.7 0-1.2-.5-1.2-1.2-.3-1.6 1.5-2 1.5-3.4.7-1 2.9-1 2.7.6zM280.7 100c.5 1.8-1 2.3-.3 4 1.1.3.6-1.2 1.1-1.8 1 0 .2 1.8.7 2.1v.7c1.2.6.7-1.2 1.5-.7l.5 2.2h.5c.3-1.4-.4-3 .5-3.8 1.1-.2.8 1 1.1 1.3-.6.8-.1 1.6 0 2.5.2 0 .5.5.7.1l.2-2.6h.5c1 1.1-1.2 3.6 1 3.1.5-1.8 0-1.6.5-3.4h.1c.5 1.4 0 2.1.7 3.4h.3c.2-1.1 0-2.3 0-3.6 1.7-.2.8 2.3 1.8 3 .5.3.4-.4.7-.4-.3-.8-.3-2-.7-2.8.4-.1.2-1 .9-.6.1 1.1.3 2.4.6 3.4.9.4.5-.8 1-1 .9 0 .4 2.2 1.5 1.4.4-1.2-.6-2.7 0-3.8 2 .5 1.2 3.8 4 3 .2-.2 0-.7 0-.9 1.2-.5 1.2.8 1.5 1.3 0 2.3 1 4 .8 6.2-.6 1.3-2.1 1-3.5 1-.6.1 0 1.4-.8 1.8-.6-.2-1.1-.2-1.5-.9-.5 1.7-2.6-1-2.3 1.4 0 .8.5 1.4.5 2.3.2-.5.2-1.4.8-1.7.5.3 1.4.5 1 1.3.4 1-.5.9-.6 1.5-.7 0-1-.5-1.2-.8-.8 0 0 .8-.5 1-.7.2-1.7.5-1.7-.3v-5.2c-.6.2-.5.9-.8 1.2-.2 1.6.3 4.6-.3 6.3-.9.1-1.7-.4-1.7-1 0-1.8.5-3.5.5-5.6-1.1 0-.3 2-1 2.6.4 1.3 0 2.2-.8 2.8-1.5.2-1-1.5-1.3-2.1l.3-.4c-.3-.3 0-1.6 0-2.4 0-1 .5-1.7.3-2.8-.6-.5-.8.4-1.5.3l-.5-1.7c-.8.9-.6 2.3-1 3.7a8.7 8.7 0 000 4.1c0 .8-.6 1-1.4.8-.5-3 .6-5.6.4-8.7h.4c.1-.7-.5-.4-.5-.9-1.3 2.2-.8 5.8-1.2 8.6-.6.4-.6 1.2-1.5.7.2-.2-.1-.2-.3-.3-.2.6-.5 1.3-1.2 1.8a2 2 0 01-1.1-1.2c.5-.6.1-1.6 1-2l1.1.5c.4-1.8.5-3.4.7-5.3.5-.3.8-.8.7-1.6.5-.7 1-1.7.6-2.3-1.5.6-1 3.1-2 4.3h-.8c0-1.7.8-2.7.8-4.3-.5 0-1 .6-1.1 1.3-.5 1.5-.2 3.6-.9 5 .2.6-.5.8-.6 1.1-.7.3-1.2-.3-1.3-.6-.9-1 .3-1.7.3-2.7.8-.3.1-1.5.6-2 1.4-2-.1-6 1.4-7.7 0-1.5-.4-3.5.5-4.3 1-.4 1.1.6 1.3 1.1z" fill="#fffefc"/><path d="M282.9 100.2c.1.5-.5.8-.7 1-.7 0-1-.5-1-1s.3-.8.7-1.2c.6 0 1.3.5 1 1.2zM311.6 99.7c.1 1.1 1.3 1.6.6 2.8-1 .5-1.6-.5-2-1-.1-.7-.8-1.5-.3-2.5.8 0 1.3.4 1.7.7zM300.1 100.2c0 1.3 1.2 2.3.3 3.5-1 .4-1-.7-1.5-1 0-1.2-1.8-2.5-.3-3.3.8 0 1.5.1 1.5.8z" fill="#fffefc"/><path d="M375.4 99.4c-.3 1.8.7 3.8 1 5.6v1.5l-.6-.4c-.4-2.1-1.5-4.3-.7-6.7h.3z" fill="#161413"/><path d="M315.5 101.5c0 .7 0 1.2-.6 1.2-1.4 0-1.7-1.4-2.4-2.2.4-.2 0-1 .7-1 1.5 0 1.8 1.2 2.3 2zM311 103.2c.2 1.4.2 2.8-.6 3.6.2.8-.3 1.2-.7 1.5-.8.1-1.3.6-1 1.6 0 .5-.6.4-.6.5-1.9-1-1.9 1.5-2.9 1.9-.6.1-1.4 1-2 .1-.3-2.5.7-5.4 0-8 .6-.6-.1-1.9.6-2.2.8-.4 1.1 1.6 1.6.3l-.6-2c.3-.3 1-.3 1.4-.2.5 1.2.5 2.9 1.7 3.4.5-1.5-1.3-2.5 0-3.8 1.7.4 1.5 2.6 3.2 3.3z" fill="#fffefc"/><path d="M378 102.8c0 1.8 1 3 1 4.8-1 0-1-.8-1.3-1.5.2-1.3-.4-2.1-.4-3.3-.4-.3-.2-1.1-.2-1.6.8-.4.6 1 .8 1.6zM261.6 101.5l-.1-.3h.1v.3z" fill="#161413"/><path d="M238 102.3c-.1.4-.4 1-1 .7-.3-.8-.3-1 0-1.8.7 0 .9.6 1 1.1z" fill="#fffefc"/><path d="M340.3 104.1c2.3 4.7 4.3 9.6 7.8 13.4v.9h-.9c-4-4.7-5.3-10.8-9.1-15.6-.3-.5.3-1 .5-1.5.7.9 1.2 1.9 1.7 2.8z" fill="#161413"/><path d="M294.6 103.3v.5c-.6.2-1.3-.1-1-1l.4-.5c.3.2.8.4.6 1z" fill="#fffefc"/><path d="M337.8 104.6a37 37 0 003.1 7.5c.7 2 2 3.5 2.7 5.3 1.5 2.1 2.6 4.3 4.6 6v.8c-2.3-1-2.6-3.7-4.5-5.2-2.4-4.4-5.4-8.9-6.8-14.2.2-.3.5-.5.9-.2z" fill="#161413"/><path d="M272.2 106.8c-.5.5-.6 1.6-1.6 1.8-.9 0-1-.6-.9-1.5.2-.6.4-1.3 1-1.8 1.2-1 1.7.5 1.5 1.5z" fill="#fffefc"/><path d="M381.7 109.3c-.1 0-.8-.4-1-.7-.3-1-.8-2-.6-3.3 1 1 1.5 2.3 1.6 4zM336.6 108.1c3 7.5 6.1 14.6 11.6 20 0 .5.4.5.2 1.2h-.7a75.2 75.2 0 01-8.4-13c-1.2-1.4-2-3.2-2.7-5.2.2-1-1.7-2.7 0-3z" fill="#161413"/><path d="M330.1 109.8c-.3 1.1-.3 2.3-.6 3.4-1.5 3.8-5.7 5.7-8 8.6-.7.7-1.7.7-2.3.7a17.2 17.2 0 00-5.8 9c1.1-.2.8-2 1.8-2.6-.2-.6.3-.6.7-.8.5.4.3 1.2.3 1.7-.8 2-.7 4.6-1.8 6.4v.8c0 .2 0 1.5-.4 2-.6.4-1.3 1.2-2.4.9-1.2-.9.3-2.4-.5-3.5.3-1.3 1.3-2.5 1.8-3.7-.5-.1-1.2.5-1.8 0-.4-1.6.5-3.4.8-5l3.8-5.4a44.8 44.8 0 0013.1-13c.7-.9 1.7-.2 1.3.5z" fill="#fffefc"/><path d="M335.8 112.4c3 8.1 7.3 14.9 12.6 21.3.2.4-.2.7-.5.5-4.3-4.1-7-9.2-9.8-14.5-1.2-1.8-1.8-4.1-2.8-6.3-.4-.5-.4-1.6 0-2.1.6 0 0 1 .5 1.1z" fill="#161413"/><path d="M286.8 114.9c-.8 1.6.7 3.5-1 4.3-1.5-.5 0-2.2-.5-3.6.5-.7.4-1.5.7-2 .8 0 .8.6.8 1.3zM280.5 114.7c-.1.4-.8.4-1 .2 0-.3-.1-1 .2-1.2.8-.1.8.5.8 1z" fill="#fffefc"/><path d="M336.3 120.7c1.1 1.8 1.8 4.3 3.1 6 3.2 5.7 7.3 10.7 11.3 15.6-1.5.2-1.8-1.4-2.8-2.1-5.2-6.5-10.3-12.9-12.6-21.2-.7-.6-1-1.5-1.2-2.5l.3-.3c1.4 1 1.2 3.2 1.9 4.5z" fill="#161413"/><path d="M329 117.5c0 2.4.1 5.3-.9 7.3-.1 1.5-1.5 2.2-1 4.1-.1 1.5-.6 2.7-.5 4.3-.3 1.7-1.1 2.7-2.8 3.5l-.8-.1c-.2-1.9.3-3.4.5-5 .7-1.5.3-3.5 1-5 .3-2.4 2.1-4.1 2.6-6.4.5-1 .4-2.8 1.9-2.7z" fill="#fffefc"/><path d="M335.8 124.8c.5 2 1.8 3.3 2.3 5.1a72 72 0 009.3 13.1c1.2 1.8 3.6 3 4.5 5.3-1.9-.3-2.9-2.5-4-3.6-2-3.2-5.5-5.3-7.1-8.8-1.4-2.7-3.5-4.5-4.2-7.6-.8-.8-1-2.2-1.7-3.5l-1.8-5.6.2-.2c1.3 1.5 1.3 4 2.5 5.8z" fill="#161413"/><path d="M325.5 120.8c0 1.7-.7 2.5-1.3 3.8-2.2 1.7-1.2 5.3-2.5 7.5-1.4 1.5-1.9 3.6-3.8 4.1-.5-1.6 1-1.8 1.3-3 .5-1 .5-1.8 1.1-2.8 0 0 .2-.3 0-.5-1.8 1.2-1.6 4-3.4 5.3l-.9-.1c.2-2.4 1.4-4 1.9-6.2 1.3-1.3.6-4 3-4.6 1.8-1 2.3-3.5 4.6-3.5zM403.8 121.8c.2 1.7-.3 3-1.3 3.7-.5.5-1.5.5-2 .1-.5-.3-1-1-.5-1.4.5.1 1.3.4 1.6-.2.2-1.2-.3-2.5 1-3 .7-.2 1 .3 1.2.8zM396 126.5c.2.6-.5.6-.8.6a7 7 0 01-4.3-3c-.4-.8.3-.8.6-1.1 2.2.3 2.8 2.3 4.5 3.5zM313 124.2c-.3.3-.4 1-1.3.8-.1-.2 0-1.2.5-1.7.5-.6 1.2 0 .8.9z" fill="#fffefc"/><path d="M333 124.6c1.6 1.7 1.1 4.7 2.8 6.5.1 1.3 1.1 2.1 1.8 3.3a39 39 0 006.6 9.8c1.9 3 4.2 5.6 6.8 7.7 0 .4-.1.4-.3.4l-1.2-.5a70.3 70.3 0 01-13.2-18c-1.5-1-1.2-3.7-2.3-4.9-.7-1.8-1.2-3.8-2-5.4l.3-.5c.5.3.2 1.2.7 1.6z" fill="#161413"/><path d="M258.1 133.7c-.3.5-.3 1.2-1 1.4-.6.3-1.5-.2-1.1-1 0-1 .8-1.3 1.1-2 .9.2 1 .8 1 1.6z" fill="#0080c6"/><path d="M322 135.7c.2 3.7-2.3 5.2-4.3 7.3-1.5.7-2.8 2.6-4.7 1.7-.6-.7 0-1.2.2-1.9.8-1.1 2.5-1.8 3.7-2.6 1.5-1.8 2.6-3.8 4-5.6.8-.2 1.4.1 1.1 1.1zM289.7 137.4c-.4.1-.4.6-.9.6-.8.2-1-.3-1.3-.6 0-1.2-.3-2.3.7-2.7 1.6-.1 1 1.7 1.5 2.7zM286.8 136c.2.7-.3 1-.5 1.5-.6 0-1.3-.3-1.3-1 0-.6 0-1.4.7-1.6.8-.2.8.7 1.1 1.2zM292 137.5c.1.5-.5.9-.7 1-1 .5-1-.6-1-1.1.5-.7 1.7-.4 1.7.1zM329 139.5c.1.9-.9 1-1.2 1.7-.7 2-1.6 3.8-2.5 5.6-2 2-2.8 4.8-5.1 6.4-4 3.9-8 7.7-10.5 12.6-.3.5-.3 1-1 1.2-.6-.2-.6-1-.6-1.7.8-1.6 2.3-3 3-5 1.1-3.2 5.4-4.2 7-7.2 2.2-1.5 3.4-3.8 5.2-5.5 1.2-2.1 1.2-5.1 3-6.7.5-1.4.5-3 1.7-3.9 1.1.2 1 1.4 1 2.5z" fill="#fffefc"/><path d="M326.2 138.7c-2 6-10 7.6-14.8 11.2l-3.8 3.3c-.9.2-1.2-.3-1-1 .3-2.3 2.5-3 3.6-4.9 2.8-2 7.5-2.2 10-4.8 1.5-1.5 3.5-2.6 4.3-4.5.5-.8 2.1 0 1.7.7zM302.8 140.9c0 1-1 1.3-.5 2.1.1 1.2-.4 1.7-.5 2.5-.7.6-2.2.8-3.4.6-.6-1-1.1-2-.8-3.6-1.1-1-3.3.2-4-1.3-.3.6-1.1.5-1.6.5-.5-.4-.5-1.5 0-1.7.8-.5 1.5.2 1.8.7.7-1.7 2.8-.2 4.1-.5 1.5 0 4.4-1.5 4.9.7zM329 146.1c-.4.2 0 1-.2 1.5-1 1.2-.5 3.2-1.7 4.2-.4 4.4-7.4 4-9 7.6-1 2.8-4 3.6-4.7 6.2l-2.7 4.2c-.6.3-1.3 0-1.3-.7.7-2.8 3.5-4.3 4.3-7.3 1.2-1.4 2-3 3.3-4.4a27 27 0 0011-14.7c1.1.3 1 2 1 3.4z" fill="#fffefc"/><path d="M322.7 145.3c-.7 2-3.5 2.7-4.7 4.3-4 .8-5.5 4-8.3 5.8 0 .8-1 1.3-.6 2.1 1.6.4 1.8-1.6 3.1-2.1 1.8-.5 2.3-3.3 4.7-2.2-1 1.7-3.4 2.4-4.7 4-2.5 1.3-2 4.6-4.5 5.8-.8.3-1.3 0-1.5-.7 0-.5.7-.8.9-1.4-.5-.2-1.4 0-1.4-.5l1.4-4.2c1.3-3 4.6-4.8 7.3-7.2 2.5-1.4 5.1-2.5 7.3-4.3.6 0 .8.3 1 .6z" fill="#fffefc"/><path d="M376.4 154.2c-.3-.1-.3-.5-.6-1 .3.2 1 .5.6 1z" fill="#161413"/><path d="M331.5 154.4c-.2 1.3.8 1.8 1.5 2.8 1.8 3.7 4.1 6.8 7 9.8 1 .8 1.3 2.1 2.6 2.6 3 4.5 7 8.1 10.6 12.3.5.4 0 1.1-.3 1.1-2.5-.2-2.9-2.8-4.3-4-2.7-2.4-4.7-5.6-7.5-8-.2-1-.8-1.7-1.8-2.4-3.2-4.4-7.2-8-9.8-12.9-.2-1 0-1.6.5-2.1.6-.2 1.3.1 1.5.8z" fill="#fffefc"/><path d="M207.7 158.7c-.3.2-.3.8-.8.7.3-1.2 1.3-1.9 1.8-2.7.3.8-.8 1.3-1 2z" fill="#161413"/><path d="M323.3 159c-1 1.5-3.3 1.7-4.1 3.3-.5.4-1.2 1.7-2.2.9 0-1.8 1.7-2.3 2.5-3.8 1.2-.4 4-3.7 3.8-.4zM335 164.8a18 18 0 004.4 5.5c3.2 4.1 6.8 7.6 10.3 11.5 0 .7-.5 1.2-1.1.9-2.4-.2-3-2.2-4.2-3.3-4.3-4.5-7.6-9.5-11.8-14-.6-2.4-4.3-2.7-4.1-5.7.3-1 1.6-.3 2.1 0 1 2.1 3.2 3.3 4.3 5.1zM327.3 161.3c-.3 1-1.1 1.7-2.1 2.4-.7 0-1.5-.2-1.4-1.2.7-1.2 1.4-2.3 2.9-3 .8 0 .6 1 .6 1.8zM276 160.7l.4.2c-.7 1.4-2.2 2.4-2.8 3.8-.7.1-1.2.8-1.7.1-.3-1.8 1.3-1.8 1.7-3 .5-.8.8-1.6 1.5-2.1.6 0 1.3.3 1 1z" fill="#fffefc"/><path d="M357.2 162.5c-.9-.3-1.2-1-1.5-1.6l.3-.2c.7.2 1.2 1 1.2 1.8z" fill="#161413"/><path d="M322.7 162.5c-1.2 1.5-1.9 3.3-3 4.5-.2 2-1.2 3.4-2.7 4.6-.6 0-1-.7-1.1-1.3.3-1.3 1-2.5 1.1-4 1.4-2 2.5-3.8 4.7-5.3 1.1-.1 1 .8 1 1.5zM329.3 163.3c2.2 1.9 3.2 4.7 5.8 6.2 3 3.8 6.1 8 9.6 11.5.2.7 0 1.3-.8 1.2-1.5.1-1.5-1.3-2.3-2-2.2-2.5-4.5-4.8-6.3-7.4-1.2-.7-1.7-1.9-2.5-2.7-1.7-2.1-4-3.8-5.2-6.4-.3-1 1.2-.7 1.7-.4z" fill="#fffefc"/><path d="M356.8 165.8c.7 1 1.4 1.8 1.9 2.7-1.7-1-2.4-3-3.8-4.2v-.8c1 .5 1.4 1.7 2 2.3z" fill="#161413"/><path d="M288.7 165.3c-.5 0-.4.5-.4.8.9-.1 1.7-1.1 2.7-1.4.1-.5 1.3-.7 2-.4v1.8c-1.2.9-2.8 2-4.7 1.4-.1 1.8-2.1 1.8-3.3 2.6-.8.7-2.1 1-3.1 1.7-2.7 2.8-6.8 2.8-10.7 3.3-1.5-1-3.8-.2-5.6-.7-1.2-.5-1.5-1.5-1.5-2.6 1-.9 1.8-3 3.5-2.3 0 .1 0 .3.2.4 1.1-.6 1.3-2 2.4-2.6.5-.3.5.2.7.2-.2 1.5-1.3 2.1-1.5 3.4.2.4.8.2.8-.1.2-1.7 2.4-2.2 2.5-4 .5-.3.9-1 1.5-.5-.3 2.3-2.3 3.3-2.5 5.6.2.2.4 0 .5.2.9-2.6 2.9-4.1 3.5-6.8.4-.5 1-1 1.7-.5.6.7-.2 1.2-.2 1.7-1.8.8-1.6 3.3-2.6 4.8 1.5 0 1.5-1.5 2.1-2.5.8 0 .5.7.5 1.3-.5 0-.2.5-.2.7l2.2-.4c.5-.6.8-2 2.2-1.8v1.2c1.1-.5 1.5-3.7 3.4-2 1.2-1.3 1.5-3.6 3.9-3.6v1.1zM316.2 165.2c.2 1-.2 1.6-1 2.1-.8.3-.5-.5-.8-1-.2-1 .8-1.5 1.8-1.1zM390 167.8c.4 1 .5 3-.1 3.8.5 1.5-.2 3.5.5 5-1 1.4-.2 4-.9 6-.3.4-1 .7-1.6.4-1-3.8.5-7 .3-10.6.2-.8-.2-3.6-.2-5.6 0-.5.4-1.2 1-1.5 1.5 0 .4 2 1 2.5zM331.1 169.6c3.2 3.5 6 7.1 9.3 10.6 0 .5.5.8.5 1.7-3 .4-4-2.4-5.5-4-.1-1.2-1.3-1.7-2.1-2.3-2.2-2.2-3.2-5-6-6.5-.2-.8-1.1-1-.6-2.3 2.3-1 2.8 2.2 4.4 2.8z" fill="#fffefc"/><path d="M358.5 172.1c0 .7 1.2 1.2.3 1.7l-4-5.3c-.3-.5-1-.7-1-1.4 2.2.9 2.9 3.5 4.7 5z" fill="#161413"/><path d="M275 80.3c4.2 2.7 8.7 4.7 13.7 6.3.3.4.1 1.2 0 1.5-.7.7-2 .7-2.9.3-.6-.5-1.5-.5-1.8-1.3-.6.5-.6 1.8-1.6 1l-1.4-2c-.5.4-.8.7-1.5.5-.6-.6-1-1.5-1.8-2.1-.2.8-.7.8-1.5.5-.3-1.3-.8-2.5-2.1-3 .1.2.3 1.3-.2 1.7-2-.2-2-2.2-3.7-3-.5.6-1.4.6-1.8.1-.5-.5-.8-1.1-1.5-1.4-.3.1-1.1.6-1.6 0-.2-.4-.2-.9-.5-1-.7.6.5 1.3-.2 2-2.3.1-1.3-2.9-3.3-3l.6 2c-.4.3-.8 0-1.1-.4-.7-.6-.8-1.5-1.5-2-.8.9.8 1.5 0 2.4-1.5.6-1-1.2-1.8-1.5-.9.3-1.5 2.1-2.7 1-1.1-.4-.3-1 0-1.7.3-.8 2.2.3 2.3-1v-.7c2.9-.8 6-1.4 8.8-.4a25 25 0 019.2 5.2zM329.3 75.2c.2 1-1 1.2-1.5 1.5-.8.2-1.8-.2-1.5-1.2 0-.3 0-1 .7-1 .8-.1 2 0 2.3.7zM325.5 76.2c-1.2.5-1.8 3-3.5 1.5-1.2.7-1.2 2-2.2 3 .2.8-.4 1.3-.8 1.8-1 .2-.3-1-.5-1.7.2-.3.5-.8.5-1.3-1 .5-1.3 2-1.6 3-1 .8-.5 3.3-2.7 2.6l-.3-1.5c-.7 1-2.8.9-3.3 2.2-.5.2-1.4 0-1.7-.5 0-1.2.8-1.7 1.7-2.1 5.1-2.5 7-7.7 13.2-8.5 1 0 1.5.4 1.2 1.5zM284.3 80c0 .5.4.2 0 .5-.1.7-1.1.7-1.8.3-1-.5-1.1-1.4-2.5-1.3-.3.3-.1.7-.1 1-2 .5-1.2-3-3.4-1.8-.8-.2-2.3.2-3-.8 0-.5-1-.7-.3-1.4 3.5-.3 7.3 1.2 10.5 2.9l.6.6zM326.7 79.4c-2.9 2.4-5 5.2-7.5 7.7-1.5-.3-.5 2.3-2.3 1.5-.5-.3-.5-1.3 0-1.6 0-.4.8-.4 1.1-.2a12 12 0 013.3-5.3c1-1.3 3-2.3 4.9-3.1.5 0 .5.5.5 1z" fill="#0080c6"/><path d="M270.2 84.5c4.2 1.1 7 3.4 10.2 5.4 4 1.5 8.8 2.3 13 .9.6 0 1.2.5 1.2 1.1 0 2-3.1 1-3.8 2.5-1.1-.3-2.1.3-2.6 1.2-1.7-.5-2.5-1.2-4.4-1.5-.1.8-1 1.1-1.6 1-1-.5-.8-1.7-1.8-2 .1-.4 0-.5-.4-.5 0 1.1-1.5 1.8-2.8 1.1-1.1-.8-1.8-3.1-4.1-2.1-1.7-.5-1.7-2.3-3.4-3 0-.3-.3-.5-.6-.7l-.2.2c.2.5.8 1.2.2 1.7-1.7.3-2.3-1.5-3.5-2.2-.5-1.1-1.8-1.8-3.2-2.3l-.3.5c.5.8 2.2.8 1.7 2.3-.5.2-1.4.5-1.7-.2-1-1.4-2.3-2.8-3.8-3.8-.7.4.3 1.9-.8 1.9-1.9-.5-2.8-1.5-4.2-2.3l-.1 1.3c-2 1.1-3.5-1.7-5.5-.2-1 0-1.5-.7-1.5-1.1.8-3 5.1-1.9 7.5-3.2 5.8.2 11.6 1.7 16.5 4zM313.5 86.5c0 .8-.5 1.6-1.3 2.1-1 .2-1.6-.7-1.3-1.6.2-.5.5-1.2 1.3-1.2.5-.2 1.3-.2 1.3.7zM229.4 98l-.8 2.7c.2.3.5 1.1.8.5.2-.5.5-1 1-1.3 1-.4.5 1.3 1.2 1.4 1-.3 2.3 0 2.6.9.5 1.8 1.7 3.1 1.7 5.4.3 1.3 0 3 .5 4.2.2.5-.5 1-.8 1.3-1.5.1-1.4-1.3-1.5-2.3.1-1.9-.5-4.2-1.5-5.5-.2-.2-.3-.2-.7-.2 0 1.7 1.5 2.5 1.2 4.3 0 .5-.8.4-1.2 0-.3-1.4-1-3-2.5-3.6-3.5-.3-6.3 1.8-10 1.3-.4-.6 0-1.1 0-2.1 1.6-1.3 2.2-3.3 4-4.5 1.4.2-.8 2.3 1 1.8.6-.3.4-1.1 1.2-1.3.7.2.2 2.3 1.3 1.3-.3-2 1.7-2.3 1.7-4.1 0-.3.5-.3.8-.2zM238.9 107.6c.2 1.2-.2 2.2-.7 2.8-1.1 0-1.1-1.1-1.3-2.1-.2-.7 0-1.2.5-1.5.8 0 1.3.3 1.5.8z" fill="#0080c6"/><path d="M233.4 112.6c-.3.5-1.1.5-1.5.1 0-.8.2-1.3.7-1.6.8.2.8.8.8 1.5zM243.4 120.8l-3.8 2.7c-.2.2 0 .7 0 .8.5.5.6 0 1-.1l5.6-3.7 1 .5c-.5 2-3.3 2.2-4.2 3.8 0 .7.4 1 .9.7 1.5-1.5 3.6-2.5 5-4.2 1-.1 1.6-1.8 2.8-.6v.6c-1.5 1.2-3.2 2.2-4.3 3.8.3.9 1.3.4 1.4-.1.4-1.5 2.7-1 3.2-2.3.5-.2 1.3-.7 1.8-.2.2 1.5-1.8 1.5-1.6 3 1.3.3 1.3-1 2.3-1.5 1.1-.7 2.5-2.2 4.3-1.3.5.3 0 .6 0 1.1a9 9 0 00-3.3 1.7c1.3 1.8 2.6-.9 4.1-.9.9-.3 2-.3 2.5.4.2 2.1-3 1-3.3 2.3.5.7 1.2-.2 1.8 0 1.2.3 3.2-.5 3.3.8-.1 2.2-3.1 1.7-3.6 3.5-1.2.5-.8-.8-1.2-1.2-.8.5-2.5.4-3.1 1.5-2.2 0-1.7 2.5-4 2.7-.3 1.1-1.5 1.6-1.5 3h-.3c.5-.7-.2-1.4-.4-1.9-.8 0-.6 1-1 1.7 0 1-.6 1.6-1.5 2.1-.6-.1-.4-.8-.4-1.3.3.2.1-.3.1-.5s-.3 0-.3-.2c-.7.7-.5 1.5-1.5 1.5-.7.2-.3-.5-1-.5-2.2-.1-2.3 3.3-4.1 1.7-.9.7-1.4 1.6-2.4 2.1-.6.2-.8-.5-1.3-.6-1 1.8-3.8-.5-3.8 2.1-.2.7.5.4.6.9 6.9-.9 13-3.2 19.1-5.2 1.2-1 2.5-.6 3.8-.8 1-.7 2.4-1.3 3.7-.8-.2-1 .5-1.5 1.3-1.7.5-.1.7.7 1.2 0-.2-.6.1-1.3.6-1.6.5-.4 1.4-.5 1.9.1.5-1.1-.5-1.8.8-2.3.7-.1 1.2.5 1.7.8.1.7-.2 1.2-.9 1.5h-1.3c.2.4.2 1.5 0 1.9-.5 1-2.8-.2-2.2 1.4-.6 1-3-.1-2.3 1.2-.1.8-.8 1.5-1.8 1-.5.5-.5-.5-1 0 .2 1 .7 1.6-.3 2-1.5.5-2.7-.5-3.8-.5.3.5 1.3 1 .6 1.8-.5.7-1.6.7-2.5.3-.6-.3-1.3-.8-1.8-.8.2.7 1 .7.7 1.7-.5.6-2 .6-2.9.3-.5-.3-.8-.5-1.4-.3-.2.6.6 1.1-.4 1.6-1.5.7-3.3-2.3-3.8.2-.7.8-2.3.3-3 1l.7.5c4.3.6 9.4 0 13.8-1.4l8.7-3c2.2-.6 3.4-2 5.5-2.8 1-.1.7 1 .7 1.7-.2 1-1.8 1.3-1.8 2.6-1.2 1.4-1.9 3-3 4.3-.4 1.4-1.9 1.9-2.8 2.9-1 .3-1-.7-.9-1.4 1-1.1 1.7-2.6 2.3-4v-1l-.6.2c-2 3.8-4.3 7.1-8.6 9.5-.7.1-.9-.5-1.4-.7-.1-1.3 1.4-1.7 2.4-2.6 1.1-1.4 2.4-2.2 3.3-3.8-.5-.4-.7.3-1 .3-2.7 2.3-4.7 5-7.8 6.6-.5 0-.9-.5-1.3-1 1-1.3 2.4-2.3 3.6-3.8-.2-.2 0-.3-.2-.5-3 1.5-3.5 5.3-7.3 6-.6-.4-.6-1-.6-1.7 1.3-1.2 2.3-2.5 4-3.5-.7-.6-1 .4-1.7.4-1.8 1.3-3 4.1-6 3.6-.3 0-.3-.8 0-.8 1.3-.9 3-1.7 3.7-3.2-1.2 0-1.7 1.4-2.7 1.9-1.5.1-1.8 2.1-3.6 1.1.5-1.5 2.3-2 3-3.5h-.9c-1.6 1.2-2.8 4.2-5.5 2.8.2-2 3-2.1 3.7-3.8-1-.1-2.2.7-2.8 1.4-1 .8-2 2.8-3.8 2 .5-.9 1.3-1.7 2.1-2.4 0-.3.2-.6-.3-.6-1.8.3-2.3 3.1-4.5 2.1 0-1 1-1.1 1-2.1-2 0-1.3 2.8-3.6 2.5-.7-1.4 1.6-1.9 1.1-3-1.8.5-1.6 3.6-4.5 3 0-1.5 1.7-2 2.2-3.5-.5-.3-.8.2-1.2.3-1.1 1-2.1 3-4.1 2.5-.2-1.5 1.1-1.7 1.3-2.8-1.5.2-2 1.8-3.1 2.6-.4.5-1.4.5-2 .2-.5-1.3 2-1.5 1.8-3.3-1.8.3-2 2.3-3.5 3.1-.7.4-1.3.9-2.3.7-.8-.8.5-1.3.7-2 .8-.3 1-1.1 1.1-2-2.1.5-2.3 4-5.1 3.7-.2-1.9 2.6-1.9 2.3-3.7-1.3.5-1.5 2-3.2 2l.2-1c-1.8-.1-1.2 2.5-3.1 1.7v-1c1.4-2.7 4.3-5 7.8-5.8 2.1-.3 3.4-2 5.4-1.8 1.8-1.3 4.7-.4 6.8-.9 2.2-.1 4.2-.1 6.3-.5 2.4-1.3 5.3-.8 7.3-2.4 1.4-.7 3-.5 4-1.7 1.5-1 4.5-1.1 4.5-3.5h.2l-.2-.6c-1.3-.3-1.2 2.3-2.8 1.1-.2-.5.6-.8 0-1-.9.9-1.2 2.9-2.7 2.4-.1-1.2 1-1.7.3-3-1 .3-.6 1.6-1 2.3-.1.5-1.1 1.2-1.6.5-.3-1 .5-1.7.2-2.8-.7.8-.7 2.3-1.9 2-.1-.9 0-2-.3-2.7h-.2c-.1 2.2-.1 4.5-1.6 5.5-.7 0-1-.3-.9-1 .2-1.2.7-2.2.5-3.6-.3-.2.5-1.9-.6-1.4-.3 2.5.5 5.8-1.7 7-1.6-.5 0-2-.5-3.5.4-.8 0-2.3.2-3.5-.8-.1-.7 1-.7 1.7.2 1.5-.5 2.5-.1 4-.2.8-.7 1.3-1.4 1.4-.6.2-.5-.5-.8-.8.7-2.8.3-4 .5-7.3-.3-.5-.7 0-.8.2-.5 2.5.8 6.1-1.2 7.3-.7.1-.8-.5-.7-1.2.2-.3.2-1.6 0-2.1.4-.2.2-.7.2-1-.3-1-.3-2.2-.8-3-1.3.3 0 1.3-.3 2.2 0 1 .6 1.6.4 2.8h-.1c-.5.5.5 2.6-.8 3-.7.1-1.5-.2-1.2-1.2.2-2.2.7-5.5-.5-7.1-.5 0-.2.6-.2 1.1 0 1.4.5 2.3.4 3.8-.5 0 0 .7-.2.5-.2 1 .2 2.3-1.2 2.7-1.1-1.2-.1-4-.6-5.8 0-.8-.4-1.3-.5-2.2-.4.2-.5.2-.5.4.1 1.5.5 3 .5 4.8-1 .5.8 2.4-1 2.4l-.7-.1c-.3-1 .3-1.2.7-1.5-.9-1.3-.7-3.6-1-5.5-.2 0-.3-.5-.8 0 0 2.2 1.8 5.3-.4 6.5-1 0-.8-1.2-1-2 .2-1.7-.6-2.8-.8-4.5-1 .5.3 1.5 0 2.3 0 1.4 1.3 3.2-.3 3.7-.5.2-.9-.2-1.2-.7-.7.2-.5 1.2-1.5.7.3-.5-.2-1.3.5-1.5l.8.7c.4-1.4-.5-2-.8-3.2-.2.5-.8.7-1.5.3-.6-1.6-2.3-2.3-2-4.6 1.4-2 2.3-4.3 5-5.3.8-.3 1.7-.6 2.7-.5 0 .5.5 1.4 1.1.9 1.2-1.2 2.8-2 5-2-.3 1-2.2 1.1-2.2 2.3 1.4.7 1.4-.8 2.2-1.2 1.5-.1 2.1-2 3.8-1.5-.3 1.2-1.5 1.9-2.6 2.5v1h1c1.8-1.3 2.4-3.5 5-4.1l1 .2-.2.8c-1.2 1.1-3 2-2.9 3.6 2.2-.5 2.9-3 5-4h.7c-.2 1.5-2.8 2-2.2 3.7 1.8-1.2 3.3-3 5.5-3.8.8.3 0 1.3-.3 1.6-.4.7-1.5.7-1.5 1.7.3.5 1 .6 1.3.2 1.7-1.7 3-4.7 6.5-4v.6z" fill="#0080c6"/><path d="M215.5 153c4.6.4 9.3.7 13.8 1.4 3.3 2.2 8 1.7 11.2 3.5.5 1.8 2-.2 3.2.5 1.3.1 3 .6 4.1 0 1 0 2.4 0 2.4 1 .6-.4 1-1.4 2.1-1.4 1.4.5 2.3.9 3.2-.3 1.8.8 2.6-.5 3.8-1.1 1.8-1.9 5-1.4 6.6-3.4 1-.3 1.5.4 1.5.9 0 1.3-1 1.8-1 3-.5.8-.3 2.4-1.8 2l-.5-1.9c-1.2 1.7-.7 4.6-3.6 5-.9 0-1-.8-.5-1.3.3-1 1.5-1.9 1.6-3-1-.4-1.1.8-1.6 1.1-.9 1.9-1.7 4.7-4.2 4.5-.7-.7.2-1.3.2-2 .6-.5 1.1-1.3 1.1-2.3-.8.3-1.5 1.7-2.1 2.6-1.3.7-1.2 2.9-3.3 2.7-.9-.5-.4-1.3.1-1.7.9-.8 1.7-1.6 2-3-2.3 2-4 5-7.6 6.5-.5 0-1.2-.5-1.2-1 .2-.8.7-1.1 1.2-1.6 1.5-1.2 3.3-1.9 4-3.7-1.7.5-2.9 2.2-4.5 3-1.2.7-1.5 2.5-3.5 1.8-.3-.1-.3-1.1 0-1.5 1.8-.5 2.8-2 4.2-3-1.2-.3-2 1-3 1.5-1 .4-1.5 1.7-2.9 1.2-.3-.2-.3-1.2 0-1.2.7-.3 1.5-.6 1.7-1.4-1.7-.2-2.1 2.3-4.3 1.6 0-.8.8-1.3 1.2-1.8-1 0-2.7 1.3-3.7.5-.3-1 .8-.7.5-1.7-1.2 0-2.2 2.2-3.5 1-.1-.6.2-1 .2-1.5-.7 0-2 1.7-2.8.2-.4-.3.8-.7 0-.8-1 .5-1.9 1.8-3 1-.7-.4.1-.9.1-1.2.4-.2.4-.3.5-.6-.8-.5-.5.6-1.3.6-.7.3-1.1 1.5-2.3 1.3-1-.8 2.5-3.4-.3-2.1-.5.8-.9 1.8-2.2 2.1l-.8-.3c0-1 .8-1.2.8-2.1-1.3.1-1.8 1.6-3 2.4l-.6-.1c-.5-1.5 1.8-1.5 1-2.8-1.4.6-2.2 3.3-4 2 0-.7 1.3-1.4.3-1.9-.3 1.7-2 2.5-3.2 3.7l-1-.2c-.1-1.3 1.5-1.8 1.2-3.3-2 1-1.8 3.8-4.3 4.5-.8.1-.8-.7-.8-1.4-.9-.1-.9.9-1.7.9-.5.5-.8 1.3-1.6 1.4-1.7-1.3 1.1-1.8 1.3-3 .5-.8 1.3-1 1.3-2-.8 0-1.2 1-2 1.4-.8 1-2 1.8-2.3 3.2-.3 0-1.2.1-1.3-.2 0-2.3 2.6-2.8 3-4.6-2 1-3 2.8-4.4 4.3-.8.4-1-.2-1.1-.7 1.6-2.7 3.3-5.6 6.4-7.1h11zM262.4 165.2c-1.3 1.1-.6 5-3.8 3.4.2-.3-.3-.1-.3-.5-.8.9-.8 2.5-2.5 2.7-.8 0-1.3-.7-1.3-1.5-.3.2-1.5 1-2 .2-.5-.5 0-1.5.3-2 .9-1 2.5-.7 3.3-1.7.9-.2 2 0 2.4.5v.2c1.1-.2 1-1.7 1.6-2.3.9-.9 3-.9 2.3 1zM249 169c-.2.1-.3.6-.7.8-1 .3-2 0-2.6-.7.2-.3-.3-1.5.5-1.6 1.2.1 2.8.1 2.8 1.5zM252 169c-.7.3-.5 1.1-1.5 1.3-.7-.2-1-.4-.8-1.2.1-.6.3-1.5 1.3-1.6.8.1.7 1 1 1.5z" fill="#0080c6"/><path d="M279.4 168.6h-.4l.4-.5v.5zM331.8 175c1.5 2.2 4.3 3.7 4.5 6.2 0 .5-.7.3-1 .3-1.8-1-2.8-2.8-4.2-4.3-2-2.1-4.4-3.6-6-6.1 0-.5.4-.8.7-1 2.8.8 4.3 3.2 6 5z" fill="#fffefc"/><path d="M359 177.6c.8 1.1 1.3 2.4 2.3 3.4v.7c-1.5-.8-2-2.3-2.8-4-.8-.6-1.5-1.8-2.2-2.6l-4-3.8c.2-.5-.4-.7 0-1 3 1.8 4.4 5 6.7 7.3z" fill="#161413"/><path d="M297.3 174.4c-1.7 1-2.7 3.5-5.2 2.3-.1-1.1.4-1.6 1-2.1 1.7.1 2.4-2.8 4.2-1.3v1.1z" fill="#fffefc"/><path d="M379 177.7a9.4 9.4 0 01-3.2-3.8c1.6.8 2.3 2.7 3.3 3.8z" fill="#161413"/><path d="M333.1 180.9c0 1.1-1.6.8-2.1.5-1.9-1.5-2.9-3.5-4.3-4.8-.4-.4-.5-1 0-1.2 2 0 3.1 1.8 4.4 2.8.7.8 1.7 1.7 2 2.7zM288.2 177.6c.3 1.1-1.4.8-2.2.8l-.2-.4c-.3.9-.6 1.7-1.6 2-.7.2-.8-.5-1.2-.6-.3-.4-.3-1.5 0-1.8.7-.5 2-.4 2.5.1.2-.6.2-1.1 1-1.5.8 0 1.8.4 1.7 1.4zM292 177.7c-.2 1-1 1.8-2 2-.3.3-.7 1.2-1.3 1.5-2.4-.5-1.7 3.3-4.2 1.8-.3-.5-.5-.8-.3-1.5.1-1.3 1.6-1 2.8-1.1-.7-.4.2-.9 0-1.4 1-.6 2.7.2 2.7-1.3.3-.6 2.3-1.1 2.3 0zM214.7 178c5.8 1.5 9 5.7 14 7.8 1.7 1 3.2 2.3 5.4 2.8 0 .7.3.7.1 1.4-2.3.8-4.4-1-6.8.1a63 63 0 00-14.6 4.8c-.3-.2-1 0-.6-.5.5-1 1.8-1.3 2.8-1.8 2.2-1.7 5.3-2.5 8.1-3.5v-.5c-2.6 0-5.1 1.5-7.6 2.2-3 1.3-5 3.6-7.6 5.3-.7 1.5-2.5 2.3-3 3.8-2.5 1.5-2.5 5-4.8 6.4h-.9c-.3-1.5.9-1.6.7-2.6 3-4 5.5-8.3 9.6-11.4 3-2.5 7-4.2 11.5-4.8 0-.9-.9-.5-1-.7-9 1.2-14.3 7.3-18.4 13-1.2 2.2-2.9 3.7-3.4 6.5-.6 1-.6 2.8-2.1 3.3-1.8 1.2 1.1 1.7-.2 3.2 0 1.1-.5 2-1.3 2.6-.5 0-.7-.3-.7-.7l-.1-.1c-.5 1-1 1.6-.9 3.1-1.1 1.7-1.1 4.3-1.8 6.5-.5 2.6-.5 6.4-1.7 8.9-.6.3-1.1-.2-1.4-.5.1-1.8.6-3.5.5-5.6 1.1-2 .3-5.5 1.4-7.5 1.2-2.3 1.9-5 3-7.6a39.3 39.3 0 018.5-14.3c1-1.7 2.2-3.2 3.5-4.7 3.3-2.8 6.4-6 11.4-6.6.2-.2.2-.5.2-.5-1.8-.3-3.5.7-5.2 1.2a27.6 27.6 0 00-10.6 9.7 69.1 69.1 0 00-11.3 22.3c0 1.4-1.1 1.9-.6 3.4-.7 2.1-.5 4.7-1 6.9-.7 2.6.2 6.3-1.7 8-1 5.4-6.4 7.5-8.6 12-.7 1.8-1.5 3.3-2.3 4.8-.5 0-1.2-.3-1-1 1.1-5.5 5.3-8.8 8.3-12.9 2.5-3.5 2.8-8.3 3.6-12.6.5-4 1.4-7.7 2.4-11a32 32 0 013.8-9.1c.5-2.8 2.6-4.2 3.3-6.6 3-3.2 4.5-7.1 8-10.1 3.1-2 6-5 10.4-6-.5-.8-2-.3-2.7-.1a27.1 27.1 0 00-11.9 9.2c-1 .8-.8 2.2-1.8 2.8-1.3 2.2-3.2 4-4.3 6.3-1.9 4.5-4.7 8.4-5.5 13.4-.5 2-1.7 3.8-1.3 6.1-1 1.8-.9 4.6-1.5 6.6l-1.4 6.8c-1.1 5.1-6.3 7.8-8.4 12.4-.7.3-.7-.2-1-.7 1-2.6 3.5-4 4.6-6.6 1.2-1.1 1.9-2.6 2.5-4.1.8-.8.5-2.8 1.5-3.8.2-3.6 1-6.8 1.7-10.4.8-3.3 1-7 2.6-9.8-.3-2.3 1.4-3.1 1.5-5.3 1.2-2.6 2.8-5 4.3-7.6l4.2-5.3v-.3h-.7a59.1 59.1 0 00-12.4 25c0 2.5-.9 4.3-.9 6.8-1.4 2.4-1 6-2.3 8.4 0 3-2.1 4.3-3 6.8-1.8 2.3-4.3 4.4-4.6 7.9-1 .8-.2 3-1.7 3.6v.5l-.8-.1c.5-1-1.3-1.5-.3-2.8.1-1.7 1.3-2.9 2.3-3.8.7-.7.5-2 1.2-2.9 2.4-3.3 4.8-6.6 5.3-11.2.8-2 .5-4.8 1.1-6.8.4-1.8 0-4.3 1.2-5.8.6-4.3 2.6-7.7 4.1-11.7.9-1 1.2-2.5 2.2-3.5 1.6-4.6 4-8.6 7.6-11.7 1.3-1.8 3.3-3.3 5.2-4.6 1.6-1 3.1-2.2 4.3-3.2-.9-1.1-2 .7-3 .8a43.3 43.3 0 00-5.2 4.2c-.4.5-1 0-1.1-.5-2.5 1-4.2 3.3-5.3 5.6.1.2.5.5.8.2-.2 1.5-1.2 2.3-1.7 3.4-2.4 4.8-5 9.3-6.8 14.4-.8 1-1 2.5-1.4 3.8-.9 2.3-1.2 5.3-1.5 8-1.4 2.8-.2 7.2-1.9 9.9-1.3 4.1-4.3 7-5.8 11-1 .6-1 1.7-1.5 2.7-.5.3-1.1 0-1.3-.2 0-5.4 4.3-7.9 6.1-12.2.7-.5.5-1.3 1-2.3.7-1.2 1.2-3.5.4-5-.5-1.1.3-2.4.3-3.8.8-1 .5-2.8 1.2-3.8.3-1 .3-2.3 1-3.1-.2-1.2.8-1.8.5-3.5 1-3 3.3-5 3.4-8.6l-.3.2c-.5 1-1 2.1-1.8 2.6-.7-.3-1.2-.8-1.3-1.6 1.1-3.5 2.1-7.1 4.1-10.1a9.2 9.2 0 012.8-4.1l.2-.9c3.5-4.4 6.3-9 12.1-11.9 4.3-2.1 9.3-4 14.4-2.6l1.4.1zM301.1 177.6c-.3.8-1.3 1.1-2.2 1.3.2-.5 1.2-1.2 2.2-1.3z" fill="#fffefc"/><path d="M297.5 177.9c.1.5-.2 1.5.4 1.5l1-.2c0 .3-.3 1.2.2 1 1.3-.7 2.7-2.2 4.5-2 .7 1.8-3.5 1.7-2.5 3.5 1.2-.2 2.5-1.5 3.8-1.5-.1 1.7-3 1.2-2.8 2.8 1.5-.3 3.3-2.3 5.1-1.6-1 1.1-3.1 1.3-3.6 2.8 1.5-.2 2.8-1.2 4.3-2l.3.1c0 1-1.6.7-1.8 1.9 1.2.5 2-1.2 3.3-.4-.3 1.4-2.6 1-2.6 2.5 1.3 0 3.3-1.8 4.3-.5l-.3.2c.5.5 1.4.1 1.4 1-1 .6-1.4 3.1-3.4 2.1l-.4-.3c-1.6.7-3 1.6-4.8.8-.1-1.6-2.6.5-2.8-1.1-.7.1-1.7.1-2.2-.5v-.7l.2-.3-.2-.2c-.6.2-1.3 1.5-2.4.7-.2-.9-.9-.7-1.7-.5h-.2c-.3-.4-1.8-.2-1.5-1.2l.4-.1v-.4c-1 0-1.2 1.3-2.4 1.3-.8 0-1.4-.5-1.1-1.4.6-.7 1.8-1.7 1-3 1-2.3 4-3.3 6.5-4.3zM328.8 180c.2 1-.3 1.5-1 1.5-1.1 0-1.3-.6-1.5-1.5 0-.5-.1-1.1.4-1.3 1.3-.3 1.4 1 2.1 1.3zM425.9 179.7c0 .5 0 1.2-.9 1.2h-.1c1 .8 2.6.6 2.1 2.3-1.5 2.6-3.3-1.7-5.1.6-1-.1-2.2-.8-1.7-2.1-.6-.5.2-1.2.4-1.8.8-1.9 4-1.2 5.3-.2zM281.7 179.2c0 .5.2 1.2-.5 1.2-.5 0-.8-.9-.3-1.2.3-.2.6-.2.8 0zM283.2 182.7c.2.6-.3.6-.7.8-.5 0-.8-.8-.3-1.2.3 0 .7 0 1 .4zM331.3 187.5c2.3 2.8 5 5.4 7.3 8 1.3 1.7 2.2 3.5 3.8 5 1.2-.5-.3-1.1-.3-1.8-1.5-1.8-2.7-3.6-4.3-5.3-.7-1.6-2.2-2.5-3.2-4-2.1-1.8-4-3.6-5.1-5.9-.2-.5.3-.8 1-.8l1.1.3c2 2.8 5 5 6.5 8 1.5 1.6 3.2 3 4.5 4.9.8.8 1 2.2 2.1 2.5.4-1-.3-1.5-.8-2.2-3.3-4.4-7.5-8.2-10.6-12.9.3-.8 1.3-.8 2-.6 2.5 4 5.6 7.6 8.4 11.2 1.2 1.2 1.5 3 3.2 3.3 0-1.1-1.3-1.6-1.8-2.8-2.7-3.6-6-7-8.3-10.9.1-.8 1.3-.8 1.8-.5 2.3 4.1 6.5 7.3 8.5 12 .1 0 .6.4 1 .2 0-.8-.7-1.4-1-2.3-1.4-1.3-1.7-3.3-3.4-4.3-1.1-1.8-3-3.1-3.4-5.3 1-.8 1.8 0 3 .2 1.3 2.6 4.3 4 5 7.1 1.2.8 1 2.8 2.4 3.5.3-2.3-1.7-3.3-2.1-5.3l-3.5-4.5c-.2-.6.3-1 .8-1.1 2.5 1 3.6 3.4 5.1 5.1.9 1.7 1.5 3.1 3 4.1.5-.1.7-.5.5-1-1.5-2.3-3.5-4.4-5-6.6.5-1 2.4-.3 3.4-.1.6 1.1.8 2.8 2.3 3.3.2-1.4-1.3-1.9-.7-2.8 2.2-.5 2.2 2.1 3.3 3.4.5.5.5 2.2 1.7 1.7.2-2-2.3-3.2-1.8-5.1 1-.5 2 .5 2.8.8.5.5.3 2.6 1.5 2 .2-.7-.5-1.2.2-1.7 2.3-.2 5 .7 7.4 1.3 3.2 2.4 4.5 5.8 6.5 8.6 0 .7-.7 1-1.3.7a13 13 0 00-3.4-4.1c-.1.1-.6.3-.1.6 1.8 1.7 2.8 3.8 4.1 5.6 2 1.5 2.4 4.2 3.2 6.5-.2.5-1 .7-1.3.3-.7-1.1-1.4-2.1-1.7-3.6-2-2.7-3.3-5.8-5.3-8.3l-.3-.1c.1 1.6 1.4 2.8 2.1 4 1.5 2.4 3.2 4.7 3.8 7.5l-.1.7c-1.4-.3-1.7-1.7-2.4-2.7-1.1-1.6-2-3.8-3.4-5.2-.4 1.1.8 1.8 1.3 2.8 1.1 3.4 4 5.7 5 8.9 0 1.5-1.5 1.6-1 3.3 1.8 1.7 2.8 4.6 6.4 4.5 3-.7 6.3.5 9.2-.7 3-.8 6.4-.7 9.6-1.8 2.5 0 5.1-.7 7.6-.7 1.7 0 3.7-.5 5.2.5 1 1.5 2 3.2 3.3 4.5h.5c-1-1.8-2.7-3.3-2.7-5.8 2.8-.3 4.5 2.3 5.7 4.3.5 2.5 1.1 4.6 1.6 7.4-2.1 1.2-4-1.5-5.6-2.5-1 0-.9-2-1.9-.8-1.6 0-1.6-1.5-2.6-2.1 0 2-2.5.5-2.8 2.1-2.2-.8-3.5-2.5-5.5-3.1-.3.1-.2.5.2.5 1.3 1.3 4.4 1.5 3.8 3.6-2.2 1.3-3.3-1-5-1.6-1.8-.2-2.5-2-4.1-1.5v.3c2.1 1.3 5 2.2 6.4 3.6 0 .7-.6 1-1.1 1-3.9-.3-6.5-2.3-9.5-4h-1c1.2 1.9 4.2 2.5 5.8 4 .2 1.4-1.1 1.2-1.8 1.2-2.2-.5-3.5-2-5.5-2.3-2-.9-3.5-2.7-5.6-2.2l.3.7c2.2 1.6 5.2 2.5 7.8 3.6 0 .5.8.9.2 1.3-3.8.5-7-2-9.8-3.4-2.7-1.5-5.2-3.2-8-4-.3.5.2.7.4.8 5 3.2 9.6 5.3 14.7 8 .7.5 0 1-.3 1.3-3.3 0-7.3-1.8-9.6-3.8-4.3-2-8-4.8-11.2-7.8-1.8-1.5-3.3-3.1-5-4.4 0 1.3 1.2 2.1 2 3.1 5 4.6 10.5 9.3 17.2 12.6.4.5 1 1.3.4 2-2.6.8-5-1.5-7-2.5-3.6-3.7-8.7-6-11.5-10.1-2.9-1.3-3.4-4-5.3-5.8-.9-2.2-2.5-3.8-3.9-5.6-.1 0-.5.1-.5.5 3.5 5.8 7.5 11 12.5 15.3 2.5 1.7 4.3 3.4 6.8 4.8-.2.7.5.7 0 1-.8 1.4-2.5-.3-3.5-.6-.5-1.2-2.2-1.5-3.1-2.2-3.2-3.1-6.7-6.3-9.7-9.6-2.6-3-4.3-6.6-6.4-9.7-.4 0-.5 0-.5.3 1.1 2.5 2.5 4.8 4 6.8 3 4.8 7.2 8.4 11.4 12.4 2.1 1.5 4.8 2.3 6.5 4.3.1 1-.9 1.1-1.7 1.3-4.8-1.1-7-5.4-10.3-8a68.2 68.2 0 01-10.8-15c-1.3-.5-1-2.1-2-2.8-.6 2 1.9 2.7 1.9 4.6 1.6 3.4 4 6 6.1 8.8 2 4 6.3 6.3 8.6 9.8.7.6 1.9.8 1.7 1.8 0 .6-1 .8-1.5.6-.3-.6-1.3-.3-1.8-.6-1.7-2.2-3.7-4.2-5.3-6.5-2.2-3.4-5.3-6.2-7.3-9.9-2.2-2.6-3.2-6.3-5.5-9-.3.4-.2 1 0 1.4 2.3 4.6 5.1 8.8 8.1 13 2.5 2.4 3.8 5.9 6.5 8.3.3 1 2.5 1.4 1.2 2.8-.5.2-1.2-.3-1.4.4-.5-1.7-3.1-2-2.8-4.2-3-3.1-4.5-7.2-7.3-10-.7-1.7-2.2-2.5-2.3-4.5-.5-.3-.5.3-.7.3.5 3 2.7 4.5 3.7 6.8l4.6 6.1c0 .5-.6 1-1.3.5-2.7-3.5-5.7-7-7.8-10.7-.2-.2-.7-.7-.8-.2-.4.8.5 1 .5 1.7 2 2.4 3.8 5.2 6.1 7.6.5 1.6 2.7 2.3 2.5 4.4-.5.5-1.5.4-1.8-.1-2.5-3-4.4-6.3-6.8-9.1-.4-.5-.4-1.4-1.2-1.4-.7 1.5.8 2.5 1.8 3.5.9.8 1.5 1.7 1.5 3 .2.5-.6 1-1.1.5-1-1.3-2.5-2.3-2.9-4.3-.8-.5-.5-1.8-1.5-2.3-.5.3 0 1.3-.8 1.1-1.6-.1-1.2-2.1-2.5-2.6-2-1.3-1.1-4.8-3.5-6.1-1.6-1-2.3-2.7-3.1-4.3a90.4 90.4 0 00-4.8-6.3c-1-2.5-3.2-4.3-3.8-7.1.6-.5 1.5.1 1.6.5 3.5 4.8 7.3 9 11.6 12.9.2.1.4 0 .4-.4-2.2-3-5.2-5.4-7.5-8.4-1.8-2.1-3.3-4.5-5.1-6.8-.4-1.1 2.8-1.6.8-3 .1-.3.3-.6 1-.8 1.5.5 1.8 2 2.6 3 1.9 1 1.9 3.3 4.3 4 .9 1.5 1.7 3 3.2 4.1.7 1.3 1.7 2.8 2.8 4.1l.5.4.3-.4c-2.6-3.4-4.8-7.2-8.2-10a43 43 0 00-8.3-9.1c-.2-1.2.3-1.5 1.1-1.9 2.7.7 3.2 3.7 5 5.2zM318.5 184.5c-.1.3-1 .3-1.5.2 0-.5.4-1 .9-1.2.6-.2.8.5.6 1z" fill="#fffefc"/><path d="M294 184.8h-.2c-.2 0 .2-.5.5-.6.3.3-.3.5-.3.6zM297.5 185.7l.4-.5h.2l-.6.5z" fill="#161413"/><path d="M390.7 186.5c.5 1.5 1.2 3.6.2 5.1-.7.7-2 .8-3 .3-.5-.5-1.4-1.1-1.2-2.3-.5-1-.2-2.3-.2-3.3.7-1.8 3.5-.8 4.2.2z" fill="#fffefc"/><path d="M299.8 186.3l1-.6h.5l-1.5.6z" fill="#161413"/><path d="M385.5 189.8c-.3.3-.4.6-1 .6-2-.4-2.4-2.1-2.6-4 1.5-1 1.5 1 2.5 1.6l1.1 1.8z" fill="#fffefc"/><path d="M301.4 187.6l-.1-.1h.3l-.2.1z" fill="#161413"/><path d="M377 191.8c3.2 5 6.4 10 9.5 15.2.2.8-.1 1.3-.5 1.8-1.6.7-1.3-1.3-2-2.2a22 22 0 00-4-5.4c0-2.3-2-3.3-2.7-5.1-1.2-2.5-3-4.5-4.4-6.8.2-.5.4-1 1.2-1.2 1.7.7 1.8 2.7 2.8 3.7zM314.2 189.1v.4c-.5.6-1.6 1.3-2.5.6.2-.8.5-1.5 1.3-1.8.7-.2 1 .3 1.2.8zM414.6 189.1c-.2 1.3-1.2 2.2-.7 3.7.8 0 .5-1.2 1-1.7 0-.5.3-1.1 1.2-1.3.8.3.8 1.5.6 2.5-.8 2.1-1.8 5-4.8 5-2.1-.4-.6 2.6-2 3.2 0 .7-.1 1-.5 1.2l-1-.2c0-3.1.9-5.4 1.2-8.4.8-1 .8-3 2.5-2.8.5 1.6-1.2 2-.3 3.6.6-.6.5-1.8.8-2.6.3-1 .2-2.2.8-2.7.7-.1 1.2 0 1.2.5zM266.8 191v1c-2 .6-3.7-.4-5.8.1-4.2.7-8.5 1.8-12.2 3.6-.8-.1-1.5.4-2-.1.5-2.5 3.5-3 5.7-4.5 4.1-1.8 9.3-1.5 13.6-.8l.7.6zM381.2 193c1.4 3.2 3.5 5.9 4.7 9 .6.8 2 1.7 1.3 2.8-2.2.5-2.2-2-2.8-3.1-2.3-3.6-4.3-7.6-6.8-11-.2-.6.1-.7.3-1 2 .4 2.3 2.2 3.3 3.4zM232.6 191.4c0 1.2-.8 1.2-1.7 1.4l-4.3-.5-.2-.4c1.4-.8 4.2-.6 6.2-.5zM275.2 192.4c.2.9-.8.7-1.5.9-.6-.4-1.3-.4-1.6-1 .6-1.2 2.5-.4 3.1.1z" fill="#fffefc"/><path d="M340.3 205.2v.3h-.7c-3.2-4.8-7.6-8.6-10.5-13.6 3.9 4.3 8.2 8.3 11.2 13.3z" fill="#161413"/><path d="M194.4 192.3c-.5 1-1.1 2-2.3 2.4-.2-1.1 1.2-1.8 2-2.6l.3.2zM280.5 193c-.1.8-.5 1.7-1.5 1-.1 0-.6-.7-.1-1 .3-.7 1.5-.4 1.6 0zM267 193.4c0 1.3-1.7 1-2.4 1.3-1.2-.8-3.8 1-3.8-1.3 1.3-1.1 3.8-.5 5.6-.5l.5.5z" fill="#fffefc"/><path d="M284.2 194c-.4.6-.2 1.6 0 2 .5-.4.5-1.6 1.6-1.4 0 2-.5 4.3-.5 6.4-.1 1.5-.8 2.8-.3 4.3-1 1.5 1.2 2.7-.2 4 .5 1.6 0 3.8.5 5.4-.6 1.4.4 2.2 0 3.7.9 1.5-.1 4.6.9 6.3h.3c.3-6-.7-8.8-.8-14.6.3-.3.1-.8.1-1.3-.3-.7-.3-2 0-2.6-.5-4 .7-6.7.7-10.5.3-.1 0-.8.7-.8 1.5.7 0 2.7.5 4.1-.7 5.3-.5 10.5-.2 16-.5 2.2.8 3.6.5 6 .2.9-.2 1.8.7 2.7.6-.5 0-1.7.1-2.5-.5-.3.2-1.5-.3-1.8 0-3.2-.3-4.7-.5-7.6.2-.4.5-.9 0-1-.3-2.2.7-3.8 0-5.5v-1.1c.5-.5-.2-1 0-1.7.2-2 .7-3.6.5-5.6.2-.8.8-1.2.8-2h.4c-.4 1.2.6 2 0 3 .1 2.5-.5 4.3-.4 6.8-.1.3.2 1.1 0 1.8-.1 2 .9 3.3 0 5.1.5 3.3.4 6.8 1 10 0 .8-.3 2 .5 2.4h.3c.2-3.1-.8-6.3-.5-10-1.1-1.7.4-3.9-.3-5.9 0 .2 0 0 0 0-.5-3.6.5-7 0-10.9.7-.6-.1-2.5.8-2.8.9-.2.9.7 1 1-.3 3.5-.5 8.1-.6 12.2.5 4.3.3 9.3 1 13.6-.4.3-.4 1.5 0 2l.5.5c.3-.2.1-.8.1-1.2-.5-1.6.2-3.6-.3-5.1.5-3.3-1.2-5.6-.2-8.8-.6-3.1.4-6 0-9.4.4-1.5-.1-3.6 1.4-4.3.5.2 1.1.5.8 1.3-1.7 1.5-.3 5-1 6.8.7 2.2-.5 4.1.2 6.1.3 1.2-.7 1.8 0 2.8.3 3-.5 6.7.6 9-.3.6-.3 2.1 0 2.8 1 .3.4-1.3.5-2-.6-4.8-.3-9.3-.1-14.4l-.2-.3c-.2-4 .2-7.3.3-11 .4-.4.5-1 .7-1.6.7 0 1.2.3 1.2.8l-.5 3.7c-.7 3 .1 7-.7 9.9.3.7.3 1.5.3 2.5l-.1.3c.1 2.5-.4 5.3.5 7.3h.1c0-2.3.4-4.2.2-6.5.5-1.5 0-3.8 0-5 .2-1 .2-2.9.2-4.6l.3-.1-.3-.7c.3-1.5.1-4.3 1-6 0-.4.6-.8 1.1-.4 1 1.6-.7 2.3-.2 4.3-.8 3.1-1 7.2-.5 11a25 25 0 000 8.6c-.1.7-.4 1.9-1.4 1l-.4-1.1c-.5.1-.1 1-.1 1.3.3.5.1 1.3.1 2h-.1c-.5 1.6 3.6 1.3 1.4 2.8-4.4 1.3-9.2 1.6-13.7 2.8l-9.1.8c-.7.2-1-.5-1.5-1 0-3-.7-6-.2-8.9 0-.2.2-1.1-.2-1.6-.3-1.7.5-3 .2-4.8.2 0 .2 0 .2-.2 0-2.1 1.1-4.6.5-7.3l1.3-6.4c.3-1.3.2-3 .8-4 .4-.5 1-.2 1.2 0 0 2.3-.7 4-1 6-.3 1-.3 2.3-.3 3.4-.5 1.5-.7 3.3-.5 5.3h-.2c-.3.9.2 2.8-.3 3.8.3.5 0 1.3.1 1.8-.3.2-.1.7-.1 1l.1.5c0 3.7-.1 7.5 1 10.4h.4c.6-.6 0-1.4 0-2.3-.5-2.3 0-5-.5-7.2.3-1.4.3-3.2 0-4.5 0-3.6 1-6.6.8-10.4 1-.8-.2-3.2.8-4.3 0-1.2.5-2.3 1-3.5.2-.2.3-.5.7-.3.3 1.8-.7 3.6-.7 5.4-1 1.2-.3 3.7-.8 5-.4 1.5-.4 3.6 0 5.1-.5 1 0 2.7-.5 3.7.1 4 .8 7.6 1.1 11.5.7.2.4 2.2 1.5 1.2-1.8-4-1.1-9.8-1.6-14.6-.2-.6.5-.6 0-1-.2-2.1.5-4 .3-5.6.3-3.1.8-4.8 1.3-8 0-.6.5-1.2 1.2-1.4.7 3.6-1.5 6.1-.7 10.3-.5 1.8-.5 4.3 0 6-.8 4 .4 7.8.7 11.6.2.7.3 1.4 1 1.7.2 0 .3 0 .3-.2-.3-1.6-1.1-3.3-.8-5.4-.5-1.2 0-3.3-.3-4.3-.4-.5.3-.8.1-1.5-.3-3.2-.3-6.8 0-9.8-.6-1.5 1-3.1.4-5.6.3-.3 1-1 .5-1.5-.5-.3-.2-1.1-.2-1.6.5-.5-.3-1.8.8-2.2.7-.1 1 .4 1.2.7zM405.1 195.2c.2-.5.9-1.1 1.7-.6-.2.5.8 2.6-.8 2.6-.4-.3-.9-.3-.9 0 .2 1.2-.3 1.3-1 1.7-1.5.5-.8-1.3-1.5-1.7 0-1.1.9-2 .2-3.1.2-.3.7-1 1.3-.7.5.5 0 1.7 1 1.8zM386.2 195.6l-.3.6c-1.3.4-1.5-1.1-2-1.8-.2-.5.2-.6.5-1 1.5 0 .6 2 1.8 2.2zM317.5 194c0 1.4-.8 1.6-1.3 2.2-3 3-6.3 5.5-8.5 8.8 1 .5 1.2-.8 2-1.2 2.2-1.6 3.5-4 5.5-6h1.2c.1 1.7-1 2.4-1.2 3.7-3 3.2-6.8 5.6-9.3 9.3v.3l.7-.2c1.8-1.8 4-3.4 5.6-5.4h1.2v.8c-2.2 3.2-5 5.6-7.2 8.6.5.5 1.4-.2 1.7-.5 1.5-1.6 3.3-3.3 4.3-5.3.7-.6 1-1.3 2-1.5.7 0 .7.7.7 1.4-2.2 3.6-6.2 6-8.7 9.6-1.8-.5-2.8 2.8-3.4.4.6-1.3 2-2.3 3.1-3.6-1-.3-1.6 1.3-3 .7 0-2.2 2.5-2.7 3-4.7-1.1 0-1.3 1.7-2.6 1.2.1-1.7 1-2.5 1.5-3.8.3-.5-.4-.5-.5-.7h-.2a10 10 0 011.8-3.4l-1.8.3c-.5-.5.2-1.2.3-1.7 2.2-1.6 5-2.6 6.5-5 2-1.4 3.8-3 5.6-4.7.5-.2.9.3 1 .5zM392.2 196.2c.8 1.9.1 4.7 1.5 5.8.3 1.5.3 3.3 1 4.6-.7 2.5 1.8 5.3-.9 6.5-.8-.2-1.5-.5-1.5-1.3-.1-2.2-.4-4.7-.4-6.5-.4-1.5-.2-3.1-.9-4.4.2-1-.5-1.4-.1-2.5-.7-1.3-1.7-3.3-.9-4.8 1.9-.2 1.2 2 2.2 2.6zM275 195c-1.4-.3-2.8.9-4 0 .2-2 2.7-.3 4-.6v.5z" fill="#fffefc"/><path d="M411.4 195c-.3-.4.2-.6.2-1 0 .2 0 .7-.2 1z" fill="#161413"/><path d="M266.4 196.2c.4 1.5-1.5 1-2.3 1-9-1.1-15.4 4.2-19.7 9.3l.3.3c3.1-3.1 6.6-6.6 11.6-8 3.7 0 7.1-2 10.1 0 .5.7-.6 1-1.3 1-6-.8-12.4 1.4-15.3 5.7 1.4.7 1.4-1 2.5-1.3.9-1.7 3.3-1.5 4.3-2.8 3.5-.2 7-1.7 10.2-.2.6 2-.5 4 .1 5.8-.1 4.3-1.3 8.6-.6 13-.7 1.4.6 2.5-.2 3.7.3.5-.3 1.6.2 2.1-.2 1.7-.5 3-.4 5-.1.6-1.1 1.3-.5 2.3-.6 1.3-.3 3.1-1.1 4.5.6.1 1.6-.4 1.8.3.2 1-.2 1.5-.5 2-.5.1-1 .3-1.3 0l-.4-1.3-1 .5c-1.1-1.7.5-3.2 0-5.2.2-1.5.9-2.8.4-4.4-1.2 2.3-.4 5.7-1.5 8 .6 2.4-.2 4.7-1.8 6-.7 0-1-.3-1.2-.8-.5 1 0 2.5-1.3 2.8-.7 0-1.5-.3-1-1.2 0-2.3.5-4.4 1.1-6-.1-1.7.4-3 .5-4.4v-2h.2c-.2 0-.3-.8 0-1 .2-.1 0-.3-.2-.4-1 1.3-1 3.3-1 5-.5 3.7-1.8 7.2-1.1 11-.7-.2-2 1.3-2.3 0-.5-2.2.5-3.6.8-5.5.3-1.1.3-2.1.3-3.4-.5-.4-.3.5-.6.8.1 2.1-1.5 3.5-1 6-.5 2-.7 4.7-1.5 6.9-.2.6-1.2.5-1.5 0a47 47 0 011.5-7c.1-.6.8-1.4.6-2.3-1.6 1-.8 4-2.3 5.3.3 2-1.3 3.7-1.2 5.8-.1.7-.6 1-1.5 1-1.1-1.3.5-2.8.5-4.1.9-.9.2-2.4 1.4-2.8-.5-1.7 1-1.9.3-3.5h-.3l-3.7 11.6c-.6.4-1 1.4-2.1 1 .5-2.9 1.8-5.5 2.6-8.2.4-1 .5-2 .9-3.1-.5-.7-.9.3-1 .5 0 2.5-1.7 3.6-1.9 6-1.1 2.4-1.3 5.9-4.4 6.6.5-1.9 1.3-3.3 1.8-5 .3-1.5 1.6-2.3 1.5-4.3.6-.7.5-1.8 1-2.8-.4-.2-.5-.3-.9 0-1.3 4.1-2.5 8.4-4.8 11.9-.6.5-1.1 1.2-2 1.3.9-2.5 2.4-4.6 3-7.4.2-1.2 1.3-1.8.9-3.3-2 .3-.9 3-2 3.8.1 1.8-1.5 2.1-1.4 4-.8 1-1.1 2.3-2.3 2.8-1-.4 0-1.2 0-1.7 1-1.7 1.5-3.6 2.2-5.3 0-.5 0-1-.2-1.5h-.2c-1.3 2.2-1.6 4.7-3.1 6.8-.2 1.3-1.2 2.3-2.2 3.3-.1.2-.3 1 0 1 1.5.2 2.2-2.8 3.8-.8.4-.7 1.4-.7 2-.4 1.5-2.4 4.3-.3 6.7-1.8 2.3-.3 4.4-1.8 6.6-2.5.8-.3 1.5 0 2 .5.2 1.7-.3 3-1.5 3.5-1.2.7-1.3-1.6-2 0 .2 1.2-.3 1.8-.5 2.8-.7.7-1.3.5-2.3.4-.3-.4-.5-.9-.5-1.5.3-.5.8-.7.5-1.4-.7-.3-.3.5-.7.7-.5 2-1 3.6-2 5.3-.6.3-1.3 1.2-2.1.7-1-1.9 1.3-2.7.3-4.2-1.6 1.7-.8 5.1-3.1 6.5-.7 0-1.2-.5-1.4-1-.8.5-.1 2-1.5 2-.8.1-1.1-.4-1.1-.7 0-1.5.5-2.5.6-3.6-1.3.1-.8 2.3-1.5 3.3-.1 1-.3 1.8-1.3 2.1-.8 0-1-.6-1.1-1.1.5-1 .6-2.2.6-3.2-.6 0-.5.8-.8 1.3-.2.7-.8 1.5-.2 2.2-.1.8-.6 1.5-1.3 1.8-.8.2-1.3-.3-1.5-1 0-1.1.8-1.6 1-2.8-.3 0-.5-.3-.8 0-.5 1.7-.5 3.8-1.4 5.3-.3.5-1.1.3-1.6.2-.2-1.5.3-2.3.5-3.3-1.2.1-.8 1.8-1.3 2.8-.2.8 0 2.1-1.4 2.1-2-.3.2-2.8-1-3.5-1.1.9.7 4-1.5 4.3-.5.5-.8-.1-1.3-.3-.5-1.3.5-2.5-.2-3.6-.8.3-.3 1.6-.4 2.3.4.2-.2.8 0 1.5-.5.3-.9.6-1.7.5-1.3-.4 0-2.7-1-3.2-1 .9.5 2-.5 2.8-.5.5-1.2.5-1.7.2-.3-.7-.3-1.8-1-2.1-1.4.8 0 2.1-.5 3.4.4 1.4-.5 2-.1 3.2-2.5 2.8-3.8 6.3-5.7 9.6-.1.6-.6 1.3-.5 2.3h.5c1.5-2.2 2.4-4.8 4.4-6.6.8-.2 1.4.3 1.4 1-.6 1.6-1.1 3.3-2.6 4.4-.7 1.3-1 3-2.2 4.2-.1.8 0 2-1 2.3-1.1 0-2.3-1.5-2.8-.2 0 .3-.6 1.2 0 1.3.5-.1 1.5-.8 1.8-.1.4 1 .7 1.6 0 2.4-.6.4-1.3.7-1 1.7.4.3.4 1.3 0 1.6-.4.4-1.4.2-1.4 1v1.9c-2.7.6 1.3 4-1.7 5-.5.6-1 1.2-2 1-.7-.3-1.5-1.4-2-.4-.5.6-.2 1.5-1.3 1.6-1.3-.1-1.5-1.1-2-2.1-.5-2.5 1.7-3.2 2.3-5 2-1.6 3-3.8 3.3-6.4 1.2-3.3 3.2-6 4-9.6.8-1.2 1-2.8 1.5-4.1 1.3-2.7 1.3-6.3 1.8-9.5-.5-2 .5-3 .9-4.6 3-2.1 6.6-4.1 9.4-6.4a13 13 0 005.8-8.6c-.5-.4-.1-1-.3-1.4.5-1.6.2-3.8.8-5.4 0-.2-.5-.7 0-1.2-.3-1.3.2-3.5-.3-5.6-.7-1.5.3-3 .2-4.5.3-5.4-.5-11.9.8-16.7-.2-2.8 1.5-4.4 1.5-7l.1-.4c0-.7.5-2 .7-3 .5-1.1 1.5-1.8 1.2-3.6.8-2 1.5-4 3-5.8a13 13 0 015.6-7c1.2-.8 2.2-2.4 4.2-2 .8 1-1 2.2-1.7 2.9-3.2 3.6-5.3 8-7.6 12-.2 1.9-1.4 2.9-1.4 5-.8 1.2-.8 3-1.6 4.1-.4 2.5-1.2 4.3-.9 7.2-.5 1.6-.1 3.8-.5 5.6-.3.6 0 2.3-.3 3 0 .6-.3 1.6 0 2.1 0 2.3 0 5.3.5 7.4-.7 3.5.7 8.1-.2 12.1.4.5.5-.2.9-.2.3-1.1 0-3 .3-4-.5-4.2.3-6-.2-10.2.4-2.6-.6-4.6 0-7-.5-3.7 1-6.2.4-10 .5-.3 0-1.5.5-2.2 1.3-5 2.3-10 5-14.2.3-1.3 1.4-2.5 2-3.8 1.6-2.5 2.8-5.3 6-6.4l1 .1c0 2.5-3 3.2-4 4.7-.4 1.6-1.9 2.5-2.4 4-1.7 2-2.5 5-3.3 7.9-1.2 2-1.7 4.6-2 7-.2 1-.3 1.9-.7 2.9-.8 1.6-.1 4.6-.6 6.4.3.7.3 1.9 0 2.2.3 2.8-.7 5 0 7.6-.5 2-.2 4.3-.2 6.3v.1c-.5 2 .7 4.2 0 6.5-.3 2-.3 2.8-.8 4.8l.3.2.5-.7c1.2-2.7.8-6 1.2-9-.9-4.6 0-10-.2-15.1.3-1.5.3-3.7 0-5.3.2-.7.3-1.4.7-2.2.1-1.5.1-3.3.6-4.8.5-3.6 2-6.4 3-9.6 1.8-5.3 5.3-9.2 9.1-12.9l1.2-.1c.5 1.6-1.5 2.4-2.3 3.6-2.2 2.8-3.7 6.1-5.5 9.1-1 3-1.5 6.1-2.8 8.8.1.5-.2 1 .1 1.1.4 2.3-1.3 3.2-.8 5.6-.3.2-.2.9-.3 1.2.1.3.3.2.5.2.5-2.8 1.1-5.5 1.8-8.3.7-3.3 1.5-6.6 3.3-9.3a21 21 0 014.3-7c1.4-2.4 3.5-4.2 6-6a23.4 23.4 0 0117.1-3.2l.3.5zM301.6 199.7c-.5 2.8-.5 6.1-.8 9.3-1.7.1.6 2.4-1.4 1.8-.3-.7.2-1 .4-1.3-.5-.4-.4-.9-.7-1.4.3-.5.3-1.8 0-2.3.5-3.3.8-6.8 1.5-9.9.3-.5 1-.3 1.5-.2.5 1.5-1 2.7-.5 4zM304.6 197.2c.2 1.5-1 2.3-1.2 3.7-.5 0-.6.3-1 0-.6-1.2.5-2.7.5-4.2 0-1.1 2.3-.8 1.7.5zM273.9 197.7c.5 1.3-1.3.8-1.5 1.7l1.5.5c.2 1.3-1.5 1.3-2.5 1.5-.8 0-1.5-.5-1.7-1 .2-.9.2-2 .2-3 .3-.3.3-1 1-1.2.7.4 1.5-.3 1.8.4-.1.6.9 1 1.2 1.1z" fill="#fffefc"/><path d="M284 201.2c-.8 1.5.5 3.1-.3 4.6.5 1.2-.5 2 0 3 .5 1.2-.5 2 0 2.6-.8 2.9.6 4.8.3 7.6.2 1.9.3 3.5.7 5.3l-.2.2c-1.5-2.1-.7-6.1-1.5-8.8-.1-3 .2-6.4-.1-9.2.6-.8 0-2.8.5-3.8-.5-1.8 0-3.7 0-5l.4-1.1c.4 1.6-.1 3.3.2 4.6z" fill="#161413"/><path d="M406.8 199.5c-.2 1.5-.2 3-.8 4.2-.2.5-1.2.5-1.4.1-.1-.5-.6-.8-.5-1.5.4-.8-.1-3 1.4-3.6-.4-.5.3-.6.3-1 .5.7.5 1.3 1 1.8zM273.2 202.8c-.3.5-1.5.2-1.6 1 .5.2 1.3.2 1.5.7.1 1-1.5.5-1.7 1.3.7.2 2 .5 1.7 1.7-.2 1.1-2 .3-2.2 1.5.7.3 1.8.1 2 1.1 0 .8-1.5.8-2.2 1.3.4.7 2 .5 1.5 1.7-.5.5-1.5.3-1.5 1 .9 0 1.4.3 1.7.8.3 1.2-1.5.7-1.5 1.5.5.3 1.2.5 1.5.8.2.9 0 1.2-.7 1.5l-1.8.3c0 .9 2.5-.1 2.5 1.4 0 .6-.8.6-1.5 1.1.7.5 1.7.9 1.5 1.8-.5.9-2 .5-2.3 1.2.8.2 2.1-.3 2.3.8.3 1.2-4.1 1.4-.7 1.8.4 0 .4.7 0 .9-.3 0-.3.3-.6.5.1.5.8.3 1.1.6.9 1 2.4 1 3.9 1.4 1.3 0 3.8-1.5 4.6.3.8.1.7-1.5 1.8-.8.9.1 0 1.6.9 1.8 1.4-1 1.8 1.6 3 .1.1 0 .8.2.8-.1.5-.9-.4-2.5.8-2.8 1 0 .5 1.6 1.2 1.8.5-.7-.4-2 .6-2.2 1.2.2.7 1.5 1.2 2.2 1-.5-.2-1.7.5-2.5.3-.2 1-.7 1.5-.2 0 .9.6 1.4.3 2.4 1.2.3 1.2-1.4 2.3-.7 0-1 .2-1.7.9-1.8 1.6-.2 1 1.6 1.4 2.5-1 1.4-2.1 3.3-4.8 3-8 1-15.2 2.7-23.4 3.4-1.1-.2-1.1-1.5-1.8-2.1a4 4 0 00-.5-2.9c-.6-5.4.9-9.5.4-15.2.5-.8 0-2.3.3-3.1 0-2 .2-3.8.8-5.1-1-1.5.8-2.2 0-3.7.2-.8.2-2.3.8-2.8 1.4.3 3.7-1.3 3.5.8zM446.4 210.3c.4 1-.6 1.6 0 2.6.4.9.4 2.2 0 3-.3.3-1.3.3-1.5-.2-.5-.8 0-2.4-1.5-2.8-.3-1.6-2.4-3-1.3-4.8 1.8-.1-.5-3.3 2.2-1.8 1.5.8 1.8 2.3 2.1 4zM327.8 208.5c.2.6-.5 1-.5 1.3.8.5 1.8 0 2.3 1-.1.6-.5 1.1-1.1 1.5-.5 0-1.2-.2-1.7.1v.4c1 .1 3-.4 3.3.6 0 1.7-2.1 1-3 1.8.9 1.2 3.2-.4 3.9 1.2-.4 1.2-2 1-2.7 1.8.8 1 2.3-.5 3.2.5 0 2.2 1.6 4.5.1 6.5-3.1 2.1-7.3 1.6-10.8 3-.8-1.2-2.6 1.3-2.6-.9 2.1.7 1-2 3-1.8-.4-.3.1-1.2-.5-1.2-1.5.2-3.3 1.2-4.7.5-.1-1.1.2-1.6.9-2.1 3-1.2 6.8 0 8.8-2.5.1-1.3-.2-3 .1-4.3-.3-1-1.3-1.6-.6-2.8-.7-1-.5-2.3-.9-3.5 0-1.1.2-2.1.7-2.8 1.2.2 1.8 1.2 2.8 1.7zM198.6 209c0 2.1-.9 3.6-1.9 5-.6 0-.6-.9-.3-1 .7-1.6.3-3.7 2.2-4zM180.8 209.8c0 1.1-.5 2.3-1.3 2.8-.8.2-.7-.8-.7-1.5.4-.6.9-1.8 2-1.3z" fill="#fffefc"/><path d="M243.4 210.8c-1 3.5-2.9 6.4-4.3 9.6-.4 1.5-.4 3.1-.9 4.4-.5-.3-.3-1-.3-1.5.8-1 .2-2.8 1.3-3.6l.7-2.5c.5-.8.6-1.6 1.3-2.4.2-1.9 1.2-2.7 1.8-4h.4z" fill="#161413"/><path d="M320 212.8c0 .6-.3 1-1 .8-.5-.3-.8-.8-.3-1.3s1.6 0 1.3.5zM300.8 214.4c-.4.7-.2 1.5-1.2 1.5-1.2 0-.5-1.5-.7-2.1.5-1.5 1.9 0 1.9.6zM323.8 216c-.3.7-.1 1.6-1.3 1.7-.8-.3-.8-1.5-.8-2.5.3-.3.3-1 .8-1.1 1 .3 1.5.8 1.3 2zM312.9 215c-.8.6-.5 2.2-1.7 2.7-.1 1.7-2.3 1.5-3.1 2.7-.7 1-2.2 1.5-2.2 2.6 1.5-.5 3.2-3.8 4.8-1.5-.8 2.8-4 3.7-6.3 5.5 1 .1 1.7-1 2.7-.5 1 2.5-3.3 2.3-3.7 4.3 1.2.1 1.4-1.3 2.8-1.2 1 .4.7 1.2.4 2-.9 1.5-3.3 1.3-4.2 3 1.2.6 2-1.2 3.2-.5 0 1.5-1.8 1.5-1.8 2.8 1.4 0 2.6-1.8 4.1-1.8 1 1.6-2 1.5-2.2 2.6.7.5 1.4 0 2 0 .5.9 1.7 1.2 1.5 2.3.9.5 1.5-.1 2.2.7.5 1.5 3 1.7 2.3 3.8-.8 1.2-2.6.5-4 1-2.1 0-4 2.6-6.3 1-.1-1.7-.6-3.3-1.5-4.8-.3-3-2-4.8-4.6-6-1.2-2.3 1.6-3.4 2.3-5.2 1.5-1 .5-3.5 2.2-4.5.6-.5 1.1-1.2 1.5-1.8-.5-.4-1.4.3-1.5-.5 0-2.2 2.1-2.8 3.3-4.3 3.1-.5 4.1-3.5 6.5-5.3.8-.2 1.3.3 1.3 1zM335.3 219.9c0 .5-.5.8-.4 1.5.7.1 1.4-1.7 2.2-.5.3 1.1.5 3.3-.2 4.1-1.1.3-1.1-1-1.6-1.7v-1c-.5 0-1.3.9-1.8.2-.5-1.6-.9-3.1-1.2-4.8.2-.5-.3-1.6.5-1.8 1.8.5 2.5 2.5 2.5 4zM319.7 217.2c-.2.5-1.2.5-1.5 0-.5-.5.3-1 .8-1.1.4 0 .8.3.7 1.1zM300.3 217.7c-.2.7-.2 1.3-.9 1.7-.5-.2-.8-.5-.8-1.2.3-.5.3-1.3 1-1.5.5 0 .7.5.7 1z" fill="#fffefc"/><path d="M414.2 219.4c-.4-.8-2-1.3-2-2.5h.6l1.4 2.5zM410.6 218.6c-.2-.2-.7-.2-.5-.7l.5.7zM409.1 219.5c-1 .2-1.8-.6-2.6-1.1 1.1-1 1.8.8 2.6 1.1z" fill="#161413"/><path d="M323.7 219.5c.1.7-.5.5-.9.7-.6 0-.8-.5-.6-1.2.3-.4 1.6-.3 1.5.5zM193.8 221.9c-.2.5-.7 1.4-1.7 1-.7-1.2.2-2.2.8-3 1 0 .7 1.1.9 2z" fill="#fffefc"/><path d="M415.4 221.2l-.5-1 1.2.5-.7.5zM329.5 220.5c-.4.2-.7.7-1.2.4-.3-.7.8-.5 1.2-.4z" fill="#161413"/><path d="M447.8 223.3c-.2 1.7 1.5 2.9.3 4.3-1.8.5-2.5-1.1-3.7-1.8-.3-2.1.4-3.4 1-5 1.9-.1 1.5 1.9 2.4 2.5z" fill="#fffefc"/><path d="M327.1 224.2c-.1.6-.6 1.6-1.4.8-.2-.5-1.5-.8-.7-1.7.5-.8 2.5-.5 2.1.9zM264.1 225c-.7 1.2 0 3.3-.7 4.5-.5-1.9 0-4.2.4-5.8.6 0 .3.8.3 1.3zM323.8 225.5c-.8.2-.6-.7-1-1-.1-.3.4-.5.7-.8 1.3.3-.2 1 .3 1.8z" fill="#161413"/><path d="M335.1 226.5c-.2 3.3-1 6.6-1.1 9.6 0 .8-.5 1.8-1.2 2.3-.7 0-1-1.5-1.7-.7-.5.2-.8 1.8-1.6.7-1.4-2.5 1.1-5 .5-8v-.3c-.9.4-.5 1.5-1 2.2.1 1.8-.2 3.3-.5 5-.2.1-.2.6-.7.6-1.6-.5-.3-2.5-.5-3.8.3-1 .7-2.2.5-3.3-1.5 1-1.1 3.1-1.1 5-1 1 0 3-.9 4 .2 1-.5 1.2-.3 2.2a4 4 0 01-1.7 1.7c-1 0-.6-1-1-1.7 1.2-3 2.2-6.4 1.7-10.6-1.3.4-.3 2.4-.8 3.2-.4 1.5-.4 3.1-1 4.5.3 1.1-.5 1.3-.2 2.4l-.8 1.2c-.7 0-.9-.7-1.4-.8.5-.5-.3-1.4.4-2 .1-1.3 1-2.2 1-3.7l.8-2.4-.2-2.2c-.8-.3-.3.5-.6.7.1 2.3-1.2 3.3-1.2 5.6-.7.5-.2 2-.7 2.8.2.7-.3 1-.3 1.5-.5.3-1-.2-1.5-.3.4-2.7 1.2-5.7 1.5-8.5-1 0-.3 2-1.5 2.3-.6 0-.6-.6-.6-1.4.3-.2.1-.9.1-1.4h.4c0-.1-.2-.1-.2-.3-.8.3-.8 1.7-.8 2.5-.4.8-.7 1.5-1.4 2.1-1.5 0-.8-1.5-1-2.4.4 0 .2-.5.2-.7-.7 0-1.5.3-1.7-.7-.3 0-.8 1-1.4.4-.7-.5 0-1 .1-1.5.4 0 .7-.4 1 0l.3.6c1.5-1 1.9-3.1 4.5-2.8 5.7-.8 11.6-2.1 16.5-4.8 1-.1.8.9 1.1 1.2zM446.3 229.8c-.2.5-.9 1-.2 1.5.7.6 1.8.6 1.7 1.8-.4 1-1.7.7-2.4 0 .2 0 0 0 0-.2-.1 0-.1.2-.3.2.7.7 1.7 1.3 1.2 2.1-1.2.5-2-.4-2.5-1.1-1.5-1.3-4.3-2.2-3.5-4.8.3-1.3 1-2.6 2.6-3 1.2 1 3.7 1.3 3.4 3.5zM337.4 228c-.3.1 0 .5.2.6.3 0 1.2-.8 1.7 0 0 .7 0 1.4-.7 1.7-.7.2-.7-.5-1-1-.3.7-1.2.8-1.7.5-.5-.8-.3-1.2 0-2.2l.7-1c.5.2.8 1 .8 1.4z" fill="#fffefc"/><path d="M261.6 227.3l-.3 1.8c-.7 1.8-.3 4.3-1 6.1.7 1-.3 1.7-.2 2.7-.8.5-.1 2.3-1 2.8.2-.8.2-2.6.4-4.3 1-.8.5-3 .8-4.1-.3-1.5.8-2.2.2-3.2.1-.8.8-3 1.1-1.8z" fill="#161413"/><path d="M358.2 228.8c0 .5 0 1.2-.5 1.2-1 .1-.9-.7-1-1.2-.2-1 1.5-.7 1.5 0zM342 229.6c0 .9-.6 1-1 1.3-.6 0-1-.6-1-1.3-.2-.5.4-.5.4-.8.9-.2 1.2.3 1.5.8z" fill="#fffefc"/><path d="M332.5 231.3c0 .5-.7 1.1-.2 1.6l-.7 2.8c-.3-1.8 0-4.3.4-6.4.6.3.5 1.2.5 2z" fill="#161413"/><path d="M337.1 232.4c.2 1-2 1-.7 2 .4.4.4 1.5 0 1.8-.6.5-1.6 0-1.8-.5-.6-1.6 2.3-1.4.7-2.8-.4-.8.3-1.1.8-1.3.8 0 .8.5 1 .8z" fill="#fffefc"/><path d="M233 233.4c0-.5-.4-1.1 0-1.5v1.5z" fill="#161413"/><path d="M175.3 234.3c-1 3.4-3.6 5.7-5.1 9-.3.4-1.2.4-1.3 0 0-1.1.5-1.8.5-3 2-2.2 3.3-4.7 4.8-7.2 1-.5 1.5.3 1.1 1.2zM293.6 236.9c-.3 1.7-.5 3-.6 4.6-.7.4-.5 1.2-1.5 1.4-2-.4-.5-2.2-.7-3.5-.2-1 .5-1.5.2-2.7-.5 0-.7.9-.8 1.2.1 2-.4 3.5-.5 5.3l-.4.2v.1c.7.2 1.2-.3 1.8-.1.4.4.9 1.1.4 1.4-.5.5-1 .5-1.5.4l-.7-1.2c-.6 1-.3 2.3-1.1 3.2-.7.4-1.7.1-2.2-.2 0-.8.2-1.5-.2-2.2-.3.5-.8 1.9-1.6 1.2-1.3-1.7.1-3.3.3-5l.2-2.1h-.4c0 2.5-1.3 3.8-1.4 6.1-.5.3-.7 1.3-1.7 1-.5-.3-.5-.8-.7-1.2-1 .4-.8 3.2-2.8 2.4-1-.9.2-2.4 0-3.4-.5.5-.7 1.5-1 2.2-.2.5-.3 1.2-.6 1.6-1.2 0-2.2-.3-2-1.4 0-1.5.8-2.5 1.3-3.8-.2-.9.8-1.4.3-2.4-1.8 1-1 5.8-4.5 4.2-.5-.5-.1-1.3-.3-2-.2.3-.7.7-.5 1.2-.7 2.1-1.6 4.2-3.3 5.7-.3 0-1.2-1.1-1.3 0-.5.5-.2 1.5-1.2 1.5-.5.2-.7-.6-1.2-.1l-.1.8c-.5.1-1-.2-1.2-.3 0 .3-.5.6-.3 1.3h-.2c.5 1-.1 1.8-.5 2.8-.8 0-1.8.8-2-.3-.6.3-1.5.3-1.6-.2.1-.8-.5-2.5.8-2.5.5-.2 1.2 1 1.3 0 .4-.8-.5-1 0-1.6.7-.5 1.5-.5 2.2 0 0-.7.5-1 1.1-1 .7 0 .7-.7.7-1.4 0-.6-.2-1.4.5-1.6.5-.2 1.2-.3 1.3 0 .2.3.2.8.7.7.3-2-.5-3.5.7-5.2 1-.3.6-1.6 1-2.5 1.3-1.4 3.8.7 4.8-1.1 5.8-.8 11.4-2.3 17.2-3.2.5.5.5.9 1 1.2.7-.2.3-1.3 1.3-1.3 1.4 0 1 1.1 1.5 1.8zM198 237.4c-.6.7-2 .8-2.4.3-.3-.1-.3-1 0-1 .7-.6 2.5-.5 2.3.7zM318 239c0 .5-.5.9-1.1 1-.4-.6-1.2-1-.9-2.1.4-2 3.2-1.2 2 1.2zM301.4 241.9c-.3.1-.1.8-.8.6-1.3-1-3.3-1.8-4.5-3 0-.6-.8-1.4-.3-2.1.7-.2.5-.7 1.2-.7 2.4.9 3.8 3 4.4 5.2zM336.3 237.7c0 .9 0 1.7-.9 1.8-.8.7-1-.8-1.4-1.1.1-.5.1-1.2.8-1.5.8 0 1 .7 1.5.8z" fill="#fffefc"/><path d="M286.8 243.3l-.6 1.5c.5-2.1 1-5 2-7.4 0 2-1.2 3.8-1.4 6z" fill="#161413"/><path d="M297.3 241.2c1.3 1.8 5.1 2.5 4.3 5.3-1.5 1.8-2-.7-3.7-.3-1-1.9-5.3-2.5-3.3-6 1.2-.8 1.9.5 2.7 1z" fill="#fffefc"/><path d="M277.7 243.7c-.5-1.3 0-2.5.5-3.5 0 1 .2 2.8-.5 3.5zM280.5 242.9c.2-.9-.1-2 .4-2.5 0 .6.3 2-.4 2.5zM271 241v-.5h.4l-.3.5z" fill="#161413"/><path d="M436.3 245c0 .5-.7.8-1 1-1.5-.7-2.1-2-2.5-3.6.4-.5 1.7-.9 2.2 0 .5.8 1.6 1.1 1.3 2.6zM320.2 251.4v1.7c-.5.8-1.8 0-2.2.7 1.2.5 2.8.1 2.8 1.5.4.8-.8 1-1.6 1-4-1.5-9.1-.7-12.1-3.7-1.2-.3-1.7-1.3-2.3-2 .3-.5 0-1.5 1.1-1.5h1c.2-.3 0-1 .2-1.5 1.1-1.3 3.8-.4 5.4-1.4 4.9-.9 4.7 3.8 7.7 5.2z" fill="#fffefc"/><path d="M317.7 253.4c-3.7-.3-6.5-2.1-9.5-3.4l-.6-.7c3.6 1.2 6.4 3.1 10 4.1z" fill="#161413"/><path d="M202.7 250.8c0 .5-.3 1.1-.8 1.3-2-1-2 2.2-3.5.5-.2-1 .2-1.5.5-2.1 1-.4 2-.7 3.2-.2l.6.5zM257 254.4c.1.9-.2 1.5-.5 2.3-.5 1.2-1.9-1-2.2.7l-.1.7c-.7-.4-1.7-.9-1.7-1.9 0-.6 0-1.3.8-1.4.7-.2 1.3.3 1.7 0-.2-1 .6-1 1-1.5.6 0 1.1.3 1 1.1zM171.7 257c.2 1 .2 1.4-.2 2.2-.5.5-1 .2-1.5-.1-.8-1.2-.1-3 .4-4.2 1.5-.3 1 1.3 1.3 2.2zM202.6 256.4c-1.2 1.2-3.4.2-4.9 1-.5.3-1.3-.2-1.3-.7.2-1 1.5-1.3 2.5-1.4 1.3.1 2.7.4 3.7 1.1zM437.5 258.4c0 .7.3 2.1-.7 2.5-.7.1-1.5-.2-1.8-.7-.2-1.1-.5-3.5.3-4.3 1.5-.2 2.5.8 2.2 2.5zM202 258.4c-.6 1.5-2.8 1.2-4.3 1.6-.6-.6-.6-1.3 0-2 1-.1 2.2.2 2.9-.6.6.2 1.5.3 1.5 1zM368.3 258.4c1.8 2.5 5.3 4.3 4.6 8-.5.6-1.5.3-2 0 .2-1.7-.6-2.7-2.1-3 .2-2.4-3.3-2.9-1.7-5.3l1.2.3zM438.3 264.5c1 .7 2.3 1.3 2.3 2.7-.5 1.6-3.8-.9-2.8 1.6-1.2.5-.7 3.2-2.8 2.3-.7-1.5-3.8-2.3-2.3-4.4 1-.4.5-2.2 1.5-2.7.5-.5 0-1.5.8-1.6 1.6 0 2 1.6 3.3 2.1zM201.4 263.5c-1 1.2-3.3.7-5 1.3-.5 0-1.3-.3-1.3-1 .2-1.3 2-1.1 3.1-1.4 1 .3 2.7.1 3.2 1.1zM282 266.2c-.5 1.5-2.8-.7-2.5 1.5-1.6.8-2-1.4-3.3-1.5.4 1.1 1.8 1.5 2.7 2.6 0 .5-.4.8-.5 1.2-3 .5-3-2.2-5-3-.2-.8 0-1.7.8-1.8.5.1.7-.4.9-.7 0-.5.3-.8.6-1 1.5-.5 1.5 1.3 2.7 1.2-.2-.7-.7-1.3.5-1.7 1.1.7 3.5 1.2 3.1 3.2zM201 265.8c0 1.9-2.3.2-3.4.9-.9.5-1.5-.2-2-.5.3-2 3.3-.4 4.8-.9l.7.5z" fill="#fffefc"/><path d="M236.9 267.3a2 2 0 01.5-2.1h.2l-.7 2.1z" fill="#161413"/><path d="M229.4 195.2c.2 1.4-.8 1.5-1.1 2.5-.7 1.7-2.2 2.8-2.5 4.6-.8 1.4-1.7 3-2 4.7-1 1.5-1.5 3.3-2.2 5 .2 1.8-.1 3.4-.5 4.9-.1 2.3-.1 5-.6 7 .3.3-.2.3 0 .6.3 1.5-1 2-.4 3-.5.6 0 2.1-.5 3-.5 4 1 6.7.5 10.9 1 2-.1 5.6.9 7.4-.2 2.8.5 4.6.1 7.4-.5 4-2.6 7.5-5.6 10-2.5 2.3-5.8 4-8.6 6-1.5 1.7-2.8 3.6-2.2 6.5-.2 0-.2.2-.3.4.3.3 0 1.3 0 2.1l-1.2 5.5c-.3 1.1-.5 2.1-.6 3.4-.5.5-1 .9-1.7 1-3.3-1.8-3.7-6.3-3.3-9.6.6-3.6 1-7.4 3-10 1.5-2.7 2.5-5.7 3.5-8.5.3-1.6.3-3.4 1.1-5-.2-2.3.3-5.2-.5-7.2.3-2.2-.6-4.3-1-6.3-.3-2-1-3.6-2-5.1.2-1.8-1.3-2.3-1.3-3.8-1-.7-1.7-1.7-2-2.7-1.2-1.3-3.8-1.6-3.5-4.1 1.2-1.2 1.2-3.5 1.8-5.1.5-2.8.7-5.6 1.5-8.1 1.2-1.7 1.2-3.8 2.4-5.3 2.6-4.6 5.6-9.1 11-12 4.2-3 10.4-4 16-3.6l1.8.5zM355 247c4.7 4.8 8 10.7 12.5 15.7v.7c-1 .5-2-.7-2.5 0 1.5 1.8 3.3 3 5 4.6 2.4.1.3 3.6 3.1 3.1-.7 2 1 2.2 1 3.5.7.5 1 1.3 1.2 2.1-.2.5-.5 1-1.2.9-1.7-.4-2.2-3.2-4.1-2.3.3 3.3 2.4 5.7 4.3 8.2 2.3 1.3.8 4 2.5 5.8 1 1.2 1.4 2.7 2.6 3.8 1.8 2.7 2.7 6 4 9 .5 1-.5 1.8 0 2.6 1.6.5 3.1 1 3.8 2.1-.5 2-.8 3.8-2.2 5 .4 1.6-1.1 2.3-1.6 3.3-2.8 1.7-4.5 4-7.6 5.1-2.2 2.3-5.7.7-8.5 1.2-1-1.3-3-1.5-4.2-2.5-1-1.7-1.6-4-1.4-6.4-1.5-1-.7-2.7-1.4-4 .2-1-.6-1.8 0-2.7-.1-1.4 1.2-2.1.7-4 .7-2 1.5-3.9 1.5-6.5 1.1-2.4.5-6 1.3-8.5.5-3.1 1-7.6-1.1-9.6-2.7-3.8-8.7-5.2-14-4-4.1.6-7 3.5-11.6 2.4-3.3-1.3-6.5-3.5-9.3-5.1-4.1-4.2-10.8-5.3-15.6-8.6-.5-.2-.6.1-.8.5 1.1 2.4 4.6 3.6 4.5 7l.5 3.9v1.1c-.7 1.4-1.4 2.8-2.9 3.5.5.8 1.7 1.2 2.7 1.5.7 1.1 2.2 2 1.3 3.6 0 .9-.1 1.3-.6 1.7-3 .5-6-.2-8.7-.8-4 .4-7.1-1.5-11.2-1.4-4.2-1.3-9.2-1.1-13.2-3.4-.8-.4-1.6 0-2.3.5-.3 2.4 2.8 1.8 4.3 2.6 1.4 1.2 3.4 1.5 4.5 3 1.7 1.6 3.2 3.6 4 6 .7.8 1.2 2 1.3 3.2 0 .7-.5 1.5-1.1 1.7-3.2 0-6.5-.7-9.5.2a8.9 8.9 0 01-6.8.3c-2.8-2-5.5-4.2-6-7.8-3.8-3.5 1.9-5.6 2.7-8.4 3.5-2.8 7.8-5 9.6-9 .7-1.4 3-2 3-4 2.2-1.2 2.2-3.9 4.3-5 3.3-.4 6.6-.7 9.8-1.5 9.1-.7 18-1 26.4-4.2 4.3-1.3 9.1-2.6 12.8-5 1.6-.3 2.8-1.6 4.3-1.9 2.1-1 4.6-1.5 6.1-3.1 1.2 0 2.5-.2 3.8.3zM264.3 266.7c-.2 3.3-1.2 5.7-2.2 8.4 0 1.1-2.1 1.1-1.8 2.5-1.7 2.6-6.8 3.4-4.7 7.7 1.2 2.4 4.9 2.5 6 4.8.7 1.7 2.7 2.2 2.5 4.3-1.2 1.4-3.5 0-5.3.7-3.8.2-7.1 1.8-10.1 3.6-1.3.2-2.3-.6-3.7-.6-4.1 0-6.6 3.8-11 2.8-2.7-1.5-6-.2-9.2-.7-3.2-3-8.5-.3-11.8-3.1-1.2-.2-2.3-.8-2.6-1.8.1-2 2.1-2.5 2-4.7 2.3-3 3.1-7.6 7.7-8.4 2.4-1.5 5.7-1.3 8-2.6 3.8-.9 6.6-3 10.6-3.7.9-.3 1.8-1 3-1 2.3-1 4.3-2.8 7.1-3 3.7-2.3 8.7-3 12-5.7 1-.9 3.1-.9 3.5.5z" fill="#a8002c"/><path d="M318.5 269.5c-.1.3-.5.5-1 .3-.5-.8.2-1.5.4-2.1 1.3-.4 1.1 1.1.6 1.8zM323.8 269.3c5.8 3.3 11.1 7.4 17.8 9.3.5-.5 1.6-.2 2-.7 0-.7-1-.7-.7-1.5 4.3-1.3 9-3.1 13.4-1 2.7.8 4.4 2.5 6 4.2.8.8-.1 1.6 0 2.8a8 8 0 010 4c.4 1-.5 2.2-.1 3.7-.5.5 0 1.5-.7 2-2.7-2-4.7-4.4-8.1-5.6-.2.2-.2.5-.2.7 2.5 1.6 5.5 2.8 6.8 5 .5.4 1 .4 1.3 0 .9 2-.6 3.2-.3 5-1.3.7-.3 4-2.7 2.5-.5-2-3.3-2.6-5.3-3.3-1.5-1.3-3.8-2.1-4-4.4 1.7-.4 2.4 1.8 4 1.6-2.3-1.8-4-4.1-6.8-5.6-.1-.7.5-1 1.2-1s1.3.2 1.8-.3l-.2-.5c-2.3-1.7-5.8-1.9-7-4.3-2.7-2.2-6.9-2.2-9.2-4.7-4-1.4-5.7-4.8-9.1-6.7 0-1.4-2.9-1.2-2.2-2.5 1 .1 1.5.8 2.3 1.3zM275.2 271c.2.6-.3 1.1-.8 1.4-1.8-1.3-.8 1.7-2.5.9l-.2-.2c-.3.5 0 1.3-.8 1.7-1.2-.4-.3 1.4-1.7 1.4-1-.1-1.6-.4-2.1-1.1-.3-.3-.3-1.3 0-1.7 1.5.2 1.5-1.3 2.6-1.4.2-1 0-1.5.5-2-.3-.5 0-1.7.9-1.7 1.6.2 3.6 1 4.1 2.7zM375.3 270.3c-.5.3-1.4.7-1.9.2-.3-.5-.8-1.2-.3-1.7.8-.8 2.5.3 2.2 1.5zM321.2 271.1c-.4.5 0 1.7-.4 2 1 0 .7-1.6 1.9-1.1 0 1-1 1.4-.7 2.4.7-.1 1-1.8 2-1.1 0 1.1-1 1.8-.7 2.6 1.2-.3.9 1.3 2 .7.2-.4.9-.4 1-.4-.8 2 1.8.7 1.5 2.4.7.1 1.2-1.2 2.2-.5-.4 1-1 1.5-1.5 2.3 1.5.3 1.6-2.2 3.3-.8.5 2-1.7 2.3-2.2 3.8-.8.1-2.3 1-3 0 .2-1-1-1-.8-2-1.6.1-2.5-1.2-4.1-1.2-.5-1 .5-1.8-.9-2.3.4-1.2-1.3-.5-1.6-1.3-1.2-.7-1.7-2.3-1.5-3.5 0-.5.2-1-.2-1.6-.1-1.4 1.7-1 2-2.2 1 .2.2 2.3 1.7 1.8zM191.6 271.1c-.7.5.2.9.2 1.3-1 1-1.7 2.5-3.5 2.5-.7-.5 0-1 .3-1.5.4-.6 2.3-.8 2-1.8-.3 0-.3-.8 0-.8.5 0 .8-.2 1 .3zM377 272.6c-.2.7-.2 1.5-1.2 1.8-1.4 0-1-1.3-1-2.3.5-.8 2-.3 2.1.5zM192.8 274.1c0 1.5-1.7 1.8-2.4 2.5a2 2 0 01-2 1.3c-.6-.2-.6-.5-.6-1 1.5-1 2.8-2.8 5-2.8zM397 279c.2.9.8 1.7.2 2.4-1.4.6-2 2.1-3.9 2.6-.1 1-1 2.3 0 3.2.4.1.9 1.6 1.5.5.4-1.2.5-2.5 1.7-3.2.5-.3 1.3-.6 2.2-.3a7.2 7.2 0 013 5.8c-1.2 1.1.6 2.1 1.3 2.8.8 1.3 2.5 2.1 1.8 4.4-1 .9-2.3-.5-3 .4.8 1.6 2 2.8 1.7 5 .5.4.8 1.6.8 2-.3 1-1.7.6-2.3.2-1.4-.6-1.2-2.1-2.2-2.8-.6-1.1-.6-3-1.8-3.6-.2.7.8 1.8 0 2.5-.3.5-1 .1-1.5 0-.7-.7 0-2.3-1.2-2.7-.3.7.2 1 .2 1.7-.3 1-.2 2.1-1.5 2.5h-.8c.1.8.1 2.3-.7 2.8-.6.1-1.1-.5-1.6-.5-.4.5-.7 1.1-1.5 1.1-1.4 0-.7-1.8-1.5-2.3.3-1.1.1-3 1.6-3.3 1 .7 1 2.2 1 3.3 1 .2.4-1.3.5-2-.5-.6.2-2.1-.6-2.4l-.5.6c-1.4-.6-.7-2.6-1.7-3.4.3-4.3-4-5.3-4.6-9 .1-.6.5-1 1.1-1.3 1.5-.8 3.5 1 4.3-.7-1-.8 0-2 0-3 .2-1.6 3.3-1 2.5-3-1.1-.2-1.6-1-2-1.9 0-.8.4-1.5.9-2.1.8-.5 2.1-.5 3.3 0 1.6 1 2.1 2.6 3.3 3.8zM379.4 276c-.2 1.4-1.3 1.9-2.1 2.6-.9.3-1.5-.2-1.7-.7.3-1 .5-2.3 1.7-2.8 1.1-.3 1.6.5 2.1 1z" fill="#fffefc"/><path d="M355.4 277c-1.4 0-2.5-.6-3.7-.8v-.4l3.7.8v.3zM359 279.9c0 .3.2.6-.2.6-2-1.4-5.3-2.1-8-2.6 0-.8 1.6-.5 2.2-.3 2 .6 4.7 1 6 2.3z" fill="#161413"/><path d="M381.7 278.6c.2.8-.1 1.3-.8 1.6-.8.7-1.8.7-2.8 0-.2-.3-.5-1-.2-1.5 1-.5 3.2-1.5 3.8-.1zM193.1 278.7c.2 1.2-1.3 1.2-2 1.5-.3.8-1.2 1.3-1.5 2 1.2.3 2.5-1.7 3.7-.8-.2 1.3-1.7 1.6-2.2 2.8.7.2 1.8-.8 2.7-.2l-.4.7a34.6 34.6 0 00-4.6 3.6c-1 .2-1.5-.3-1.3-1.1.3-.2.3-.5.5-.7-.7-.5-1.2 1-1.9.2v-.9c.5-1.4 2.7-1.4 2.9-3.1-.5 0-1.5 1-2.4.3 0-1.5 1.4-2.3 2.4-3 1.3-.3 3-2.1 4.1-1.3z" fill="#fffefc"/><path d="M359.3 282.4l-.3.6a17.1 17.1 0 00-8.3-2.8c-.3-.5 0-.3.2-.6 3.1 0 6 1.3 8.4 2.8z" fill="#161413"/><path d="M334 281.2c-.4 1.2-1.5 2-2.2 3.1 2.5.9 4.5-1 6.8-1.3 5.6 0 5.1 5.5 7.8 8.3 2.6 1.8 3.1 5.1 3.3 8.4-1.3 1.7-1.1 4.3-1.5 6.6-1 2 .7 3.2 1 4.8 1.5 2.7 5.3 3.8 6.5 6.6 0 1.5-2.7.9-3.2 2.2.7.7 2 1 1.9 2.1-.9 1.9-1.5 3.7-2.5 5.3-1.5.2-1.4 2-2.7 2.5-.3 2.2-2.6 2.7-3 4.8-1 1-1.3 2.7-3 3.1-.3 1-2 .7-2 1.9-.3.3-1 .5-1.4.3.1 1.3-.5 2.1-1.7 2.1.5 1.7-1.5 2.2-2.2 3.5-.5.2-1.1.5-1.8 0a7.7 7.7 0 00-1-3.5c-.3-.6.4-.8.4-1.3.5-.1 1.3-.1 1.4.4.7-.4-.1-2 .9-1.9 1.3-.3 1.1 1.7 1.8 1.4 0-1-1.3-2.5 0-3.2l1 .2.2-1.5c.5-.3 1.1-.2 1.6.2.5-.7-1.1-2.5.7-2.7l1 .3c.3-.6-.4-2.1.6-2.3.7.4 1.2-.1 1.2-.5-.2-.8-.3-2.3-1.5-1.5-.2.7-1 0-1.3.5-3 1.9-5.5 4.3-8.6 6.2-.7-.2-2 .3-1.9-.7 0-1 1.5-1.7.7-2.8-.3-.7.7-.7 1-1 .7-.2 1.3.7 1.7-.2 0-1 1.3-.5 1.4-1.3-.1-.8-1.4-1.6-.8-2.5.3-.5 1.3-.5 1.8-.1.4.3.2 1.1.9.8.5-1-1.2-1.5-.4-2.7.5-.3 1.5-.3 1.9 0l.1.4c.4.1.5-.4.4-.5 0-.8-.7-1.5 0-2.3.1-.4 1-.4 1.3.1.3.2.3.7.8.7.3-1.2-.8-1.5-.6-2.7 1-.3 1.6 1 2.4.5.7-1.3-3-2.8 0-2.8.4.2.7.9 1.4.5 0-1-.5-1.8-1.4-2.3-3 1.7-5.6 3.8-8.6 5.3-2.6 2-5.6 4-8.4 5.8-.5 1.3-2.4 1.5-2.9 2.6-1.6 1-2.6 2.3-4.8 2.5-1.1.2-1.3-.8-1.5-1.6.5-1-.8-2.8.5-3.7l1 .2c.2.3.5 0 .7 0-.3-1.8-2.2-2.7-.5-4.3 1.8.5 1.1 2.8 2.5 3.6.5-.1.1-.8.3-1.3-.5-.7-.7-1.6-1.3-2.3-.2-.8.1-1.2 1-1.2 2 .4.5 3 2.1 4 .4-.3 0-1.2.2-1.7-.3-1.1-1.2-2-1.2-3.4.5-.4 1.4-.4 1.7 0 .3 1.1.2 2.6 1 3.4.5-.1.2-1.1.2-1.6 0-.7-.9-1.5-.2-2.3 2.1-.7.8 2.3 2.1 2.6 1-2.1-1.6-2.6-.4-4.8.8-.3 1.4.4 1.4.9.4.8.4 1.8.9 2.6 1.1-.8-1.7-5 1.5-4.1-.7-.9.1-1.5.1-2.3 1-.4 1.5.5 1.9 1 .3 1 .3 2.3 1 3 .6-1.2-.2-2.6-.2-3.9-.5-.8-1-2.6-.5-3.3.3-.3.8-.3 1.2 0 .8 1 .4 2.5 1.3 3.5.3 0 0-.7.1-1-.6-1.2-.5-2.8-.8-4.3.2-.3 1.2-.3 1.3 0l1.7 4.8c1.5-.2.2-1.3.5-2.3-.2-1.5-1.2-2.2-1-4 .5-.3-.2-1.1.3-1.5 1.9-.1 1.2 2.2 2.4 3 .3-1.2-.5-2.5-.9-3.8-.1-.5-.3-2.2-1.5-1.2-2.3 2.2-6 3.5-8 5.5-3.4.3-4.7 2.8-7.7 3.6-2 1-4.2 1.8-6 3-3 .5-5.1 5-8.3 2-.8-1-.2-1.8 0-3.2.5-.8 2.5.4 2.3-1.1-.3-.3-.3-1.2 0-1.5 1.5-.3 2.4 2.2 3.5.3-.2-.8-.7-1.6.5-2.1.5-.3 1.5-.7 2.2-.2.3-.5 0-1.1.5-1.5.6 0 1.1.2 1.3.7l.3 1c.2 0 .4-.2.5-.5-.5-.3-.5-1.3 0-1.8 1.2-.2 1.5-1.7 2.8-.7.4-.5.2-1.5 1-1.3.9-.2 1.2 1 1.9.3 0-.6-1-1.5-.2-2 1.5-.8 1.8.9 2.7 1.2l.3-.5c-.8-.2-.3-1.5-.3-2.2 1.4-1 1.8 1.7 2.8.9 0-.7-.5-1-.4-2 .4-.7 1.5-.3 1.9 0 0 .6 1.1 1 1.3.3.2-.3 0-.8 0-1-3.2-.8-6 1-8.8 1.2-4.1.3-7.8 1.6-12 2.1-3.4.9-6.7 2.3-10.4 2.7-.8-.4-1.5-.7-1.5-1.5.7-3.3-1.2-4.8-1.8-7.3-.2-.5-.8-.5-.5-1.5.5-.1 1.6-.1 2.1.5 1 1.5.7 4 2.2 5.1.2-.1.5-.1.3-.6-.8-1.8-1.5-4-2.3-6.1-.7-.2-.7-1-1-1.5.3-.5.3-1.3 1-1.3 1 0 1.2.8 1.5 1.6-.5.2-.5 1.2 0 1.5 1.8 1.3 1.3 4.6 3 6.3.3.5.2-.2.5-.2-1.2-2.1-1.2-5.3-2.8-7-.2-1 .1-1.2.6-1.4 1.7.6 1.9 2.5 2.2 3.8.8 1.6 1.1 3.6 2.5 4.8.5-.2.1-1 .1-1.2-1-1.5-1-3.3-1.8-4.8.3 0 .3-.5.7-.5 1.8.7 1.5 3 2.6 4.2.4.5.4 1.1 1 1.3l.7-.2c-1-1.8-2.3-4.1-2.2-6.4 1.2-.5 1.4.6 1.9 1.3.5 1.7 1 3.5 2.3 4.5.1-.2.3-.2.3-.4-.5-1.3-1.5-2.6-1.6-4.4 0-.7 1-.7 1.4-.4.4 1 .9 1.9 1.2 2.9.7.8.7 2 1.5 2.4.5-1.6-1.2-2.3-.8-4 2.1-.3 2 2 3 3 1-.8-.9-1.4-.9-2.8-.1-1.3 1.9.2 1.5-1.5.5-.5 1.4 0 1.7.4 0 1.5.5 2.6 1.5 3.4.3-.1.1-.8 0-1-.7-.3-.5-1-.5-1.8.5-.3 1.3-.1 1.6.4.2.8.2 1.6.9 2.1l.5-.2c0-.4-.7-1-.4-1.8 1.4.7 2.2-1.3 3.4 0 0 .4.3.2.4.4.2-.5-.4-.5-.1-1 1.6.1 1.8-1.9 3.5-.9.6 0 .6-.8 1.3-.8 1.3 1 1.7-.8 3.1-.2.9.2 1.4-1.1 2.4-.4.3.3.8 1 1.1.4.4-.6-.3-1-.3-1.4-3.8-2-7.8-2-12.3-2-3.1-.5-6.6-1.3-9.8-1.3-2.6-1.4-6.1-.9-8.8-2-1.5-1.8-4.3-1.2-6.4-2.3-2.2-1.2-4.7-1.4-6.8-2.9-.2-.6 0-1.1.6-1.4 5 1 10.5 1.1 15.5 2.1 1-.2 1.5 0 2.3.5 4.1.5 8.8 0 13 0 1.3-.7 3-.7 4.2-1.2.5-.3.2-1.1.5-1.4 1.5-.9 1.7-3 3.7-3l.2.8z" fill="#fffefc"/><path d="M359.5 284.8l-.2.7c-.6 0-.8-.8-1.5-1l-6.4-2.6.3-.4a14 14 0 017.8 3.3zM360.2 288v.5c-1-.3-1.9-1.3-3-2-2-.7-4-1.7-5.8-2.3l.3-.3c3 .6 6.5 1.6 8.5 4z" fill="#161413"/><path d="M195.4 287.2c-.8 2.1-4.8 2.1-6 4.3-.5.5-1.6.6-2.3.1-.3 0-.3-1.1 0-1.1 2.2-1.9 4.7-4.5 8.2-3.7l.1.4z" fill="#fffefc"/><path d="M397.5 287.2c.2 2 0 3.8-1.5 4.4-1.5 0-3 0-4-1-.3-.3-.6-.6-.8-1.3 1.5.2 2.8 2 4.8 1.2 1.3-.5.2-2.5 1-3.3h.5zM359.8 296c-1.3 0-1.5-1.4-2.1-2l-5.3-5.5c3 2 5.4 4.6 7.4 7.4z" fill="#161413"/><path d="M197.6 291.6c-.2 1.2 2.1 0 1.8 1.2-.3 1.6-2.5 2-3.5 3-1.6 1.1-2.3 3.1-4.5 3.4-.8-1.1.4-2 .7-2.8.7-.1.7-.8.8-1.1-1.3 0-1.3 2.8-3.3 1.6a6.7 6.7 0 012.5-4.3c1.3-1 3.2-2 5.1-1.6l.4.6z" fill="#fffefc"/><path d="M393.7 296.6c-.7.8 0 2.3-.5 3.3h-.5c.3-1.5-.4-3.6.5-4.6.5 0 .1.8.5 1.3z" fill="#161413"/><path d="M199 295.4c-.3 1.8-2 2.5-2.6 4.2-.3.6-1 1.3-2 1.3-.8.1-1.1-.3-1.1-1 1.3-1.8 2.5-3.8 5.1-4.6l.5.1zM266.3 297.4c.5 2.2-1 4.1-1.7 6-.8 1.4-2.5-.4-3.3.8-.7-.2-1.3-.5-1-1.3.3-.4.7-1 1.5-.9 0 .4.3.7.6.4 0-1 1.2-1.2 1-2.2-1 0-.6 1.5-1.8 1v-.5c-1.8.3-2 5.8-4.1 2.7l2-3.5c-2 .3-4.7-.2-5.8 1.6-.5.4-.5-.5-1.2-.1-.5.3-.2 1.1-1 1.1-1 .2-1-.6-1-1.3 0-2 1.7-2.8 2.8-4a44 44 0 0111.5-.8l1.5 1zM279.7 298.7c4.5.2 8.3-2.1 12.8-1.5 1 .2 2.6.5 3.1 1.5.4 2.5-2.8 2.7-4.1 4-2.8 2.1-4 5.5-6 8.3-.3 1.8-1.2 4.8-.8 7.2-.2 1 1.1 2.5-.4 3.2-.5 0-1-.5-1.1-1a9.3 9.3 0 010-4.3c-.3-2 .6-3 .6-4.8 1.2-2.5 3.2-4.3 4-7.1 1.4-1.5 3-2.7 4.7-4v-.5c-3.5 1-5 4-7 6.1-1.5 1.2-1.8 3.5-2.8 4.8l-.7 3.3c-.6 1.7 1.4 4.2-.8 4.8-.8-.1-1.2-1-1.2-2 .4-2.1-.3-4.6.5-6.2.9-2.7 2.5-4.7 4-7 1.2-.8 1.7-2.5 3.3-3.1v-.2c-3.3.4-4 3.5-6.1 5.1-.7 1.7-1.7 3-2.8 4.2-1.7-.8 0-2.5.1-3.7 1-1 1.5-2.1 2.5-3.3-.3-.6-1.1 0-1.5.2-2.3 2.1-3.1 5.5-4.4 8.4-.5 2-1 4.5-.7 6.6-.2 1.2.2 1.9.3 2.9.5 2.1 1 4 1.3 6.4.9-.7.9-2.3 1.4-3.3.5-1.8-1.5-2.3-.7-3.8-.2-1.3-.8-2.8-.3-4.3.1-2-.2-4 1-5.1l1 .1c-.5 6 .6 10.8.5 16.4-.5.5-.9 1.5-1.9 1.2-.5-.4-.5-.9-1-1.2-.4.5-.3 1.8-1.3 2.2-1.5 0-1-1.7-1.1-2.9.6-1-.4-1.8-.2-3 .3-1.8-1.5-3.2-1-5.9-.3-1.6 0-3.8-.2-5.8 1.2-1.3 1.2-3.6 2.7-5-.5-1.6 2.1-1.8 1.1-3.2-2.1.5-1.6 4.3-4.4 3.3.1-1.4-1-.9-1.9-1.2-.3.5-1.1.2-1.6-.2v-.8c.6-.6.5-2.5 1.6-3 .2-.3-.1-.1-.1-.6-1 .5-1.2 1.8-1.8 2.6-.2.7-.4 1.2-1.2 1.3-.8 0-.7-.6-.8-1.1 1-2.8 2-5.5 4.8-7.1 3.1-.2 6 1.1 8.6 2.1z" fill="#fffefc"/><path d="M334.3 298.7c-.2-.1-.8-.1-.5-.8.3.2.3.7.5.8zM390.7 298.6l-.2-.5.2.3v.2z" fill="#161413"/><path d="M214.7 299.7c-.5 1.8-2.5 2.7-3 4.5a5 5 0 01-2 2.8c-.8 0-1.7 0-1.8-.7 0-1.3 1.1-1.8 1.5-3-.9 0-1.5-.1-1.5-1 0-1.6 1.8-1.7 1.6-3.2 1.4-1.5 4-.4 5.2.6zM246.9 301.2c-1 1.3.1 3 .8 4.1 0 .9 0 1.7-.8 2-1.9.2-1.2-2-2.4-2.6-.1.6 0 1.8.7 2.5 1.2.8 1.2 2.3 1.7 3.4.1 1-1 1.2-1.9.7-.6-.5-.5-1.3-1.3-1.8-.3.3-.3.8-.7 1.1-2.1.2-1.3-2.3-2.6-3-.3-.1-.3.4-.7.6 0 1.1 2.5 2 .8 3l-1.3-.4c-.1.7-.1 1.3-1.1 1.3-1.7-.8-2.5-2.5-4.5-3.3-1.2-1 0-2.1.1-3.5a17 17 0 0111.5-5.7c1 .1 1.8.6 1.7 1.6z" fill="#fffefc"/><path d="M319.5 301.5l-.5-.1-.8-1.8c.7.5 1.2 1.1 1.3 2z" fill="#161413"/><path d="M222.6 301c.2.4.2 1.4 0 1.7-2.5.8-2.5 3.3-4.6 4.3.5.5-.2 1.3-.3 2.1-.4.4-1.4.7-1.5 0-.2-.8 0-1.4.6-2l.9-.3c-.4-1.3 1.3-2.3 1.1-3.6-2.3 1.5-2.6 4.5-4.6 6.3-.7.3-.7-.4-.7-.8.7-1.9 1-4 2.7-5.2-1.4-.1-1.7 1-2.4 1.7-.6 1.3-.5 3.3-2 3.6-1.8 0-.5-1.5-.5-2.3 1.2-1.5 1.7-3.5 3.4-4.6 1.8-1.8 5.8-2.5 8-.9zM359.3 302c0 1 0 2-1.1 2.2-1.2.2-1.9-.2-3-.5-.5-1-2-1.3-1.7-2.8 1.9-1.3 4.3.1 5.8 1.1zM256 302c0 1.2-.4 2.2-1.5 2.7-.8.1-1-.8-1-1.2.3-.8.3-2 1.5-2.1.6 0 1 .3 1 .6zM233.7 303.4c-.3 1.3-1.6 1.8-1.8 3.3-2.1 1.5-2.5 4.6-5.6 5-.4-1.7 1.6-2.4 1.5-4.2-2.2.7-1.4 5.1-4.7 4.1-.8.2-1.5-.1-1.8-.6.3-1.7-1.7 0-1.8-1.4-.4-2.6 1.6-3.4 2.5-5 2-3.2 6.6-3.2 10.6-2.7.3.6 1.3.6 1.1 1.5z" fill="#fffefc"/><path d="M271.4 301.7c-.2.3.2 1-.3.8-.4-.1-.4-1 .3-.8zM210.4 302.4c-.2.1 0 .8-.7.6.3-.1 0-1 .7-.6zM336 302.5c-.2.5-1 1-1.9.5-.5-.1.2 0 .2-.5.5 0 1.1-.3 1.6 0z" fill="#161413"/><path d="M294.3 304.2c-2.2 2.3-5 4.1-5.6 7.4-1.2.5-.7 2.3-1.5 3.2.1.5 0 .8-.2 1.1 0 1.8 1.2 2.8.7 5 .1 1.1 1.6 2.3.3 3.3-.8 0-1.2-.7-1.5-1.2-.3-1.6-.3-3.3-.8-4.4 0-.5.1-1-.4-1.4-.1-6.2 3.5-10 6.8-14 .2-.5.9-.3 1.4-.7.8 0 .8.9.8 1.7z" fill="#fffefc"/><path d="M272.6 304.2c.1-.3 0-1 .6-1.2.5.7-.5.9-.6 1.2zM199.4 308.2h-.2c.5-1.4 1.2-2.7 1.9-4l.5-.5c0 1.8-1.5 3-2.2 4.5zM341.6 307.2c-.3.3-.3-.4-.7-.5 0-.7-.5-1 0-1.5.8.1.4 1.5.7 2zM226.6 305.7c.2 1-.8 1-1.2 1.6h-.4c.6-.5 1.1-1.5 1.6-1.6zM243.4 307.7v1.1c-1.2-.3-1.2-1.8-1.5-2.5.1-.3.1-.5.5-.6 1.1 0 .3 1.6 1 2zM222.6 308.8h-.5c-.1-.5.4-.5.5-.6.2.1 0 .5 0 .6z" fill="#161413"/><path d="M295.5 309.1c-.5 1 .8.4 1.1.9.7 1.5-.5 2.3-.1 4-.9.1-.4 1.4-1.4 1.4-.8.2-.3-2-1.5-1-.6.2-1.3-.3-1-1.1 0-1.3.7-2.2 1-3.2-.3-1 .4-1.3 1-1.6.9-.3.7.5.9.6zM292 311.6c-.2 2.5-2 4.5-1 7.3-.4 1.2.8 2.5-.4 3l-1 .1c-1.3-2.4-.6-5.2-.4-8 .6-1.5.8-3.5 2.3-4.5 1.6 0 .1 1.3.5 2.1z" fill="#fffefc"/><path d="M239.2 310.6l-.6-.6.1-.4c.4.2.7.5.5 1z" fill="#161413"/><path d="M237 313.1c.4.3.4 1.3 0 1.7-1.4 1.3 2.2 3.3-.6 4.1-2.2 0-2.2-2.3-3.3-3.8-.2-.2-.4.2-.5.2.1 1.5 2.3 2.6 1.1 4-.8 0-1.8-.4-2.3.6-.6 0-1-.3-1.1-1-.7.3-1 1.3-1.5 2 0 .8.6 1.3 0 1.8-1 .3-2-.2-2.5-.8-1.5-1.7.1-3.8.3-5.8.5-1.2.5-2.8 1.7-3.3.8-1.2 1.8-2.2 3.6-2.3 2.3-.2 4 1.1 5.2 2.6z" fill="#fffefc"/><path d="M348.4 316c-.7.4-.7-.6-.8-.7.3-.5 1.1 0 .8.8z" fill="#161413"/><path d="M198.7 316c.2.6-.5.8-.8.8l-.8-.4c0-.5.3-.6.6-.8.5 0 .9.3 1 .5z" fill="#fffefc"/><path d="M347.6 318l-.2.4c-.8-.7-2.3-1-2.3-2.3 1.3.3 1.8 1.1 2.5 2zM232 318c-.6-.3-1-.6-1-1.2.6.1.6.8 1 1.1z" fill="#161413"/><path d="M199.9 318.7c-.7.4-1.2-.3-1.5-.6-.2-.5.3-.7.5-.9.8 0 1.2.5 1 1.5zM386.2 317.7c0 .4 0 1 .3 1.2-.6 1.3.7 4.1-1.5 4.1-2.4-.6-.1-2.6-.6-4.4.2-.5.2-1.2.6-1.4.9-.3.9.5 1.2.5z" fill="#fffefc"/><path d="M331.1 321.2c-.3-.5-.5-1.1-.5-2 .7.4.5 1.2.5 2z" fill="#161413"/><path d="M282.5 322.5c.4 1.4-.1 2.2-.1 3.5-.2.7-1.2.5-1.9.7-1.1-2 .9-3.7.7-5.8l.3-.3c.7.3 1 .8 1 2zM202.6 322.4c.1 2.1 2.1 3 3.1 4.6.8 1.5 2.7 2.8 2.2 4.6-1.2 1-2.9.7-4.2 0-.5-.5-1.5-.8-2.1-1.1l-.7-5.2c-.8-.8-.5-2.3-1.2-3.3.2-.5.7-.6 1.2-.8.8 0 1.2.7 1.7 1.2zM357.3 323.9c.4 2.6 2 4.3 4 5.6.5 1.5 1.7 2.5 2.2 4 1.6 2.4 5.8 4.2 3.1 8.2-1.6.8-3.3 4-5.6 2v-.7l.2-.1v-.4c-1.5.7-2.4 2.7-3.9 3.5-.5.3-1.3.7-1.6 0v-.6c1.1-1.7 3.6-2.4 3.6-4.5l3.5-3.5c0-.3.2-.6-.1-.6-1.4.6-1.9 2-3 2.8-1 1.1-1.2 3.4-3.4 3.1v-1c1.4-2 2.5-3.8 4.7-5.4.5-.4 1.2-.7 1.2-1.7-1.2 0-1.5 2.3-2.9 1.3 0-1.3 1.4-1.8 1.4-3-.9.2-1.4 2.2-2.2.9l.8-1.5c-.8.2-1.1 1.6-2.3 1.1-1.2-1 .3-2 .5-2.8-.5 0-1.2 0-1.5-.5-.3-.6.3-.8.7-1.3-.4-.6-1 .4-1.5-.3-1.7-1.5.6-2.7-.2-4.6.4-.5.4-1.2 1-1.4 1-.1 1.2.7 1.3 1.4z" fill="#fffefc"/><path d="M244.5 323.5c.4.7.5 1.2.5 2.2-.8.6-1 1.6-2.1 2.1-1 .4-2.4 0-2.8-.8-1.4-1.2.6-2.1.6-3.5.7-1.1 3-1 3.8 0z" fill="#a8002c"/><path d="M375 323.7c-.2 1.2-.2 2.8-.9 3.8 0 .7-.5 1.3-1 1.8-1 .2-1.2-.5-1-1.3.3-.3.8-.7.5-1.3-.3.1-1.2.3-1.7-.2.2-.5.4-1 1-1.2h1c0-1.1-.1-2.3.9-2.6.8-.2 1 .3 1.3 1zM291.1 323.7c-1 1.6 1.5 1.6.9 3.3-.7 1.3-.2 3.5-1.7 4.3-.6 0-1.5-.2-1.6-.7l1-2.8c.1-1 0-2.5 1-3-.4-.4-1.5-1.1-.4-1.6.5-.2.7.3.8.5zM229.1 325.8c1 1.5 3.3 1.4 4.6 2.4.4 1-.8 1.1-1.6 1.1-.2 0-.5 0-.7.2.5 1.1 2.7.6 2.8 2-.1.5-.5.8-1.1 1l-1.5-.4c-.2.4-.2.9 0 1 1 1.2 4.3.3 3.6 2.3-3 1.5-5.1-1.5-7.6-2.6-1-2.2-2.8-3.6-2.2-7-.3-.5-.3-1.6 0-2.1.5-.2 1.2-.7 1.7-.2.3 1.2 1.5 1.4 2 2.3zM378.2 324.7c-.1.6-.8 1.3-1.4 1-.7-.8 0-1.5.1-2 .7-.7 1.8 0 1.3 1zM286.3 324.5c.2.8.2 2.5-.1 3.5-.4 1.3-.9 3-2.4 3.3-.6.2-.4-.3-.8-.7 1.3-1.8 2-4.3 2-6.4.3-.7 1.2 0 1.3.3zM380.6 324.2c-.4 1.1.5 2.8-.9 3.1.2.9-.6 1.4-.3 2.5.3.3.8-.3 1-.5.2-.5.2-1.5 1-1.3 1.5-.3.5 1.2.8 1.8-1 1 0 3-1.5 3.5-.3 0-.8-.2-1.3 0-.2-.5-.7-1.2-.2-1.8v-.4c-.8-.5-.3 1-.6 1.2-.5.8-1 1.6-2.2 1.8-.5-.2-1.1-.5-.8-1.3.8-1.2 2-1.7 2-3.3 1.5-1 1.1-3.7 2.1-5.3h.9z" fill="#fffefc"/><path d="M346.9 327c-.2.3-.3.7-.7.5l-.3-1.2c.7-.1.7.5 1 .7z" fill="#161413"/><path d="M377.3 326.3c-.2 2.9-1.5 4.7-2.2 6.8-.3.8-1.3 1.2-2.2 1.3-1 .4-.6-.6-1-1.1.5-2.3 3-3.2 3.7-5.5 0-.8.5-1.8 1.7-1.5zM288.7 328.8a14 14 0 01-1.5 3.7 2 2 0 01-2.5.5c-.7-.9.5-1.4.6-1.9.9-1.6 2-3 2.5-4.6 1.7-.7.7 1.5.9 2.3zM251.7 331.1c.3.7.6 2.2-.2 2.7-2.3 0-2-3.2-3.7-3.7.5 1.2 1.4 2 1.7 3.3.7.2.5 1 .7 1.2-.4 1-1.5 1.3-2.5.8-.3-.5-.3-1-.8-1.3-.4.5-1.4 1.2-2.4.5-.6-.7-.1-2.3-1.1-3 0-1 0-1.6.6-2.1 1.2.3 2.5 0 3.7.3 0-.6-1-1.6 0-2.1 2.6-.2 3 2.1 4 3.4z" fill="#fffefc"/><path d="M345.2 329c-.6.2-.6-.5-.8-.7l.2-.3c.5.2.6.3.6 1z" fill="#161413"/><path d="M206.4 340.4c.5.2-.2.3 0 .7-1.9.3-4-.5-5-1.7-.5-1-1-1.8-1-3.1.2-.9.3-2.2.7-3 .6-.7 1.8-.5 2.5.1 2 1.2 2.4 3.5 2.8 5.8v1.2zM276 333.6c0 1.7-3.3 1.8-1.4 3.8.8 1.8 1 4.3 3.8 4.3 0 .8.8 1.5 0 2.2-3.8 2-7-1.4-10.3-2.5-.8-.8-.5-2.5-.7-4 .5-.5.2-1.5 1.2-1.3 1.3 0 .3 1.8 1.1 2.3.5-1.3.5-3.5 1.7-4.5 1.2-.1 1 .7 1 1.7-.3.3-1 1-.7 1.5.7-.3 1.5-1.5 1.5-2.7.4-.6 2.4-2.6 2.9-.8zM292.5 336.1c.3 1-.5 1-1 1.5-.5-.3-1.2-.5-1.7-.3-.3.4-.6.8-1.1 1.1-.7-.3-.9.3-1.2.7-1.5.5-3.8.5-4.6-.7 0-.5 1.4-1.1.3-1.6-.3-1 .6-1 1.1-1.2 1.5-.2 4 1.2 4.5-.7 1.5-.8 3 .4 3.7 1.2zM208.5 336.1c-.6 1.6 1.5 2.5 0 3.5-2.3.1-1-2.5-2-3.5-.1-.7 0-1.2.7-1.2 1-.3 1.2.7 1.3 1.2zM210.7 340.4c-.3.2-1.3.2-1.3-.5.1-.3 1-.3 1.3-.2v.7zM285.3 342.7c1.9 1.3 4.7 1.8 3.9 4.8-.7.7-1.4 1.5-2.5 1.8-2.2.5-2.9-1.5-4.2-2.1 0-2-.8-3.5-1.5-5.2.9-.5-.6-1.3.5-1.4.9-.4 2-1.4 3.2-.7.5.8-.2 2.5.6 2.8z" fill="#fffefc"/><path d="M335.6 342.7c-.3-.2-.2-1.2-.2-1 .2.2.4 1 .2 1z" fill="#161413"/><path d="M375.3 343.7c-.7 1.2-2.2 1.8-3.5 2.1-.7.2-1.5 0-1.5-.4.3-1.5 2.3-2 3.8-2.4.7-.1 1.2.2 1.2.7zM295.3 344.7c0 .8-.8 1.1-1.5 1.1.7.7 2.3.2 2.3 1.2l-.3.7c.7.5 2.1.8 1.5 2 .3.4 1.3-.2 1.6.4 0 1.4-1.8 1.5-3 2.2-1.4 0-2.8 1-4 .2-.4-.2-.4-1 0-1.4l1-.8c-.4-.5-.4-1.5 0-1.6.2 0 .2-.2.2-.2-.1-.5-1.8-.2-1.6-1.2 0-.8 1-1 1.5-1.3-.2-.6-1.2-.5-1.2-1.1.3-.4.8-.7 1.3-1 1-.2 1.7.3 2.2.8zM360.7 345.8c-1.2 1.4-2 3-3.7 4-.7 0-1-.6-1-1.1 0-1.4 2-1.5 2.5-2.7.3-.5 3.2-2.8 2.2-.2zM376 346c0 .8-1 1-1.4 1.5.7.2 1.5-.8 2.3-.2.4.7 0 .9-.1 1.4-1 .8-2 2.3-3.9 2-.5-.2-1-.4-.8-1.2.3-1 2-1.2 2.7-2-.9 0-2.4 1.2-2.9 0 0-1.5 2-1.2 2.9-1.8.5 0 1 .1 1.1.3zM368.5 349.8c.5 1.5-.5 1.7-1.4 2.3-1 .4-2.1.4-3-.1-.5-.5-.8-1.2-1.6-1.2-.5-.3-1-.7-1-1.5.8-1.1 1.3-3.8 3.8-3 1.3 1 2.5 2.2 3.2 3.5zM278.9 348.5v.3h-1.7c-.2-.6 0-.8.5-.8.5-.2.8.2 1.2.5zM395.3 350.5c-.6.6-1.6.1-2.3 0 0 1.8-2.5 1.3-3.6 1.8-1 0-1-1-.5-1.7 1.5.5 1.3-1.4 2.6-1l1.3.5c.2-.4.4-.8.9-1 .6.2 2.1.2 1.6 1.4zM399.6 349.8c-.1.5-.4.8-1 .8l-1-.3c0-.5.4-.6.9-1 .5 0 1 .4 1.1.5zM280 352c-.8.3-2 .8-3.1.6-.5-.5.1-1.1.3-1.6 1-.4 3.3-1.2 2.8 1zM382.4 350.5c.3 1.6-1.7 1.5-2.7 1.8-.6 0-1.5-.3-1.1-1.2 1-.6 2.5-.5 3.8-.6zM302.3 354c.6.1 2 0 1.8 1 0 .6-.8.6-.8 1.1.5.2 2-.2 2.1.7 0 1.3-1.8 1.3-2.8 1.4-.3-.3-1-.4-.8-1.3-1.2-.1-3.4.4-2.9-1.6-.8-.2-1.6-.4-1.3-1.4.8-1.3 2.8-1.1 4.2-1.1l.5 1.1zM391.2 354.6l-1-.2c-.2-.5.3-.5.3-1l.9.5-.2.7zM381.9 355.6c.7.8 0 1.7-.2 2.3-.5.5-1.1.2-1.6 0-.4-1-.4-2.8-2-1.8-1-1.2-4.2 1.3-3.8-1.5.5-.5 1.5.3 2.1-.2 1.8-.5 5.2-1.1 5.5 1.2zM281.2 354.4c.5.7-.2 1.2-.8 1.2-.9 0-1.5.3-2.2.2-.7-.5.2-1.2.2-1.7 1-.3 2.1-.3 2.8.3zM365.3 356.1v.7c.7.1 1.5-.9 2.3 0 0 .3.4.5.5.6a2 2 0 012.2-.3c.5.3 0 1-.5 1.1-1.7-.4-3 1.5-4.2-.1 0 .8-.8 1.5-1.8 1-.8-1.3-2.1.8-2.8-.7l-.7-1.6c.9-1.2 2.8.1 2.8-1.7 1.2-.7 1.5.7 2.2 1zM283.4 356.8c-.2 1.3 2.4 1.4.8 2.8.1 1 1.6.1 2.1 1 .4.8-.5 1.3-1 1.5-1.3 0-3 .3-4.1-.4v-1.1c-.7.1-1.8.8-2.7.1-.3 0-.5-.8-.1-1.1.6-.7 2.3-.7 2.6-1.5-2.1-.2-4.3 2.3-6.1.3 1.2-2.8 5.3-2 8-2l.5.4zM383.7 357.3c0 .5 0 .8-.5 1-.3-.4-1-.4-.6-1 .3-.2.8-.4 1.1 0z" fill="#fffefc"/></g></svg>