<svg xmlns="http://www.w3.org/2000/svg" viewBox="0 0 600 400"><path fill="#fff" d="M0 .4h599.5v399.5H0z"/><path fill="#008e1f" d="M434.6.1H600V400H434.6z"/><path fill="#0039a6" d="M266.2.1H332l.2 200 .3 199.9H266V0"/><path d="M166 284.7h100.1v4.3h-100v-4.3m166-.1H434v4.3H332.1v-4.3"/><path fill="#fff" d="M266.1 284h66.4v6H266v-6"/><path fill="gold" d="M261.6 154.6h76V149a39 39 0 00-25.1-24.2l-1.4-.4v-4h-23v4.1l-.9.3a39.8 39.7 0 00-25.6 24.2v5.7"/><path fill="#d20000" d="M207.8 280l-3-1 3.9-3.2 3.2.7-4.1 3.4z"/><path fill="none" stroke="#000" stroke-miterlimit="22.9" stroke-width=".4" d="M207.8 280l-3-1 3.9-3.2 3.2.7-4.1 3.4z"/><path fill="#d20000" d="M202.8 278.6l-3-.8 3.9-3.4 3.2.8c-1.4 1.3-2.7 2.3-4.1 3.4z"/><path fill="none" stroke="#000" stroke-miterlimit="22.9" stroke-width=".4" d="M202.8 278.6l-3-.8 3.9-3.4 3.2.8c-1.4 1.3-2.7 2.3-4.1 3.4z"/><path d="M187 134a4 4 0 015.7-1.9c2.5 2.2 2.2 2.8 4 5.9.8 1.1 2.4 2.6 4 4.6a46.4 46.3 0 018.7 18.4 39 39 0 01-4.9 26.3c-2.5 4.3-5.3 8.4-7.6 13-1.6 3.6-3.3 6.5-3.2 11.2.2 2.8 1 5.6 4.7 4.8a7.7 7.7 0 004-3.4 16.6 16.6 0 001.3-1.3c-.4 4.3.3 8.6-1.3 11.9a9.2 9.2 0 01-7.2 3.3 9 9 0 01-9.7-6.5c-6-16.4 2.6-45.3 2.6-57.1 0-14.6-5.4-23.1-1.1-29.2m15.4-30.8a7 7 0 00.4 4.3c-.3-3.8-.3-7.1 2.3-9.2 2.4-1.4 5.5.7 6.4 3.8 0-1.3 1-4 2-3.7 1.3 0 .8 3 1.8 4.3a40.6 40.6 0 0111.8 6.4c1.5 1.1 2.7 1.4 3 3 .4 4.2-3.4 4.5-8.2 3.6-1 1 1.6 1.8 2.7 1.9a1.5 1.5 0 01-1 1.8 30.3 30.3 0 01-7.3.2c-1.8.2-2.4 3.6 1.1 5.2a68.8 68.8 0 0126 18.5l-21.9 13.4a68.6 68.6 0 00-18.9-28.2 22.6 22.5 0 01-6.2-14.2 12.7 12.7 0 016-11"/><path fill="#fff" d="M218.9 106.9a2.4 2.4 0 011.9 2.5c0 1-2 .9-3.5.3a2.1 2.1 0 01-1.5-2.5c.3-1 1.7-.9 3-.3"/><path d="M218.6 107.3a1 1 0 11-1 1 1 1 0 011-1"/><path fill="#fff" d="M228 109.6a5.7 5.7 0 013.2 1.3c1 2-1.2 3.6-1.4 3.1a2.7 2.7 0 00-.4-1.9c-.5 0-.7.6-.9 1a5 5 0 01-.5-3.5z"/><path fill="none" d="M228 109.6a5.7 5.7 0 013.2 1.3c1 2-1.2 3.6-1.4 3.1a2.7 2.7 0 00-.4-1.9c-.5 0-.7.6-.9 1a5 5 0 01-.5-3.5z"/><path fill="#d20000" d="M224.7 116.8c1.8-.2 3.5.5 5.5-.6a4.4 4.4 0 016.1.1c1.2.8 3.2-.2 4.5-.3a3.4 3.4 0 01-4.1 3.4c-1.8-.2-2-1.4-4-1.5-1.7 0-1.9 1.6-3.2 1.7-2.7-.2-2.8-1.9-4.9-2.8"/><path fill="#fff" d="M214.8 121c.3-1.4 1.2-1.5 3.3-1.3a1.5 1.5 0 00-.5 2.5c2.2 2.7 8.6 6 13.5 10a69.6 69.6 0 00-14.5-7.7 3.2 3.2 0 01-1.8-3.4z"/><path fill="none" d="M214.8 121c.3-1.4 1.2-1.5 3.3-1.3a1.5 1.5 0 00-.5 2.5c2.2 2.7 8.6 6 13.5 10a69.6 69.6 0 00-14.5-7.7 3.2 3.2 0 01-1.8-3.4z"/><path fill="#fff" d="M206.6 101.6c1-.7 2.3.4 2.3 2-1.7-.2-2.1.6-2.4 3-1.2-1.1-1.3-4.2 0-5"/><path d="M264.9 120.4c-1.6-2.2-8.8 1.9-5.2 9.3.6 15.2-9.7 14.4-16.8 10.8a43.7 43.7 0 016.9 16.2c0 .3 10.9-5.3 13.7-13 1.5-6.7 6.4-23 1.4-23.3"/><path fill="#fff" d="M267.4 120.3a1.9 1.9 0 00-2.9.6.9.9 0 01-.4-1.6 2.9 2.9 0 013.3 1z"/><path fill="none" stroke="#000" stroke-miterlimit="22.9" stroke-width=".4" d="M267.4 120.3a1.9 1.9 0 00-2.9.6.9.9 0 01-.4-1.6 2.9 2.9 0 013.3 1z"/><path fill="#fff" d="M268.4 122a1.9 1.9 0 00-2.8.6.8.8 0 01-.4-1.6 2.9 2.9 0 013.2 1z"/><path fill="none" stroke="#000" stroke-miterlimit="22.9" stroke-width=".4" d="M268.4 122a1.9 1.9 0 00-2.8.6.8.8 0 01-.4-1.6 2.9 2.9 0 013.2 1z"/><path fill="#fff" d="M268.5 124a1.6 1.6 0 00-2.3.3l-.1.1a.7.7 0 01-.4-1.3 2.5 2.5 0 012.8.9z"/><path fill="none" stroke="#000" stroke-miterlimit="22.9" stroke-width=".4" d="M268.5 124a1.6 1.6 0 00-2.3.3l-.1.1a.7.7 0 01-.4-1.3 2.5 2.5 0 012.8.9z"/><path d="M227.4 229.6a34.4 34.4 0 016.6-28.4c-1.2 5.9-1.5 9.6 4.1 11.1 14.5 7.6 16.2 14.9 11.3 37-1.5 3.4 2 9.1 6.2 12.5 4.6.5 10.3-1.4 12 3.8 0 4.4-3.6 7.8-10 7.2-10-2.7-10.3-12.6-17-19.4.2-4.4 2.5-6.9-.7-10.7-3-4.4-10.5-4.4-12.5-13.2"/><path d="M221.2 156l21.7-13.6c5.4 7 7.3 13.1 10 20.3 1.9 4 3.3 3.5 5.9-1.3 2.5-4.9 3.3-5.4 6-6.9h9.8a5.1 5.1 0 010 1.7c0 3 0 7.7-7.2 10-2.7.1-3.9-.6-5.3.9-2.6 3-1.8 11-6.8 11.1-4.6-.3-7.6-4.7-12.4-11 1.2 2.7 1.6 4.9 4.2 6.9-3.5 15.1-7.5 17.3-12.6 25.2-3.9 6.6-8.6 11.8-8.7 23-.4 5.6 1.6 9.8.9 16.2-.4 3.3-1 10-6.6 13.9-4.8 4.3-12.5 1.9-17.8 5-2 1.6-3.2 6.8-2.3 11.6a2.5 2.5 0 002.4 2.5c5.3-.7 9.4.4 10.2 4 .3 3.3-8.8 7-12.2 6.2-3.8-.7-6.2-6.6-7-10.7v-13.5c.4-8.5 11.5-4 9.4-18.3-1.6-6.1-1-9.1 1-14.7 0-8-.6-15.2 4.2-22.3 7-14.8 17-28.4 13.2-46.2"/><path fill="#fff" d="M259.7 271.6c.4-.7 1-.7 1.7-.2a5.4 5.4 0 01-.6 4.5c-.2-1.9-1.4-3.3-1.1-4.3z"/><path fill="none" stroke="#000" stroke-miterlimit="22.9" stroke-width=".4" d="M259.7 271.6c.4-.7 1-.7 1.7-.2a5.4 5.4 0 01-.6 4.5c-.2-1.9-1.4-3.3-1.1-4.3z"/><path fill="#fff" d="M262.2 271.4a1 1 0 012-.4c.5 2-.5 3-1.1 4.4.1-2.4-.6-2.1-1-4z"/><path fill="none" stroke="#000" stroke-miterlimit="22.9" stroke-width=".4" d="M262.2 271.4a1 1 0 012-.4c.5 2-.5 3-1.1 4.4.1-2.4-.6-2.1-1-4z"/><path fill="#fff" d="M264.6 269.8c0-.7 1.5-1.2 1.9-.3.5 1.8-.7 2.7-1.2 4.1.5-2.3-.6-2.2-.7-3.8z"/><path fill="none" stroke="#000" stroke-miterlimit="22.9" stroke-width=".4" d="M264.6 269.8c0-.7 1.5-1.2 1.9-.3.5 1.8-.7 2.7-1.2 4.1.5-2.3-.6-2.2-.7-3.8z"/><path fill="#fff" d="M266.5 267.8c0-.7.8-1.5 1.4-.3.7 1.7-.6 2.6-1.1 3.8.8-2.6-.7-2.4-.3-3.5z"/><path fill="none" stroke="#000" stroke-miterlimit="22.9" stroke-width=".4" d="M266.5 267.8c0-.7.8-1.5 1.4-.3.7 1.7-.6 2.6-1.1 3.8.8-2.6-.7-2.4-.3-3.5z"/><path fill="#fff" d="M204.8 280a1.2 1.2 0 011.7-.1 3.4 3.4 0 01-.6 3.5c-.3-1.4-1.4-2.6-1.1-3.4z"/><path fill="none" stroke="#000" stroke-miterlimit="22.9" stroke-width=".4" d="M204.8 280a1.2 1.2 0 011.7-.1 3.4 3.4 0 01-.6 3.5c-.3-1.4-1.4-2.6-1.1-3.4z"/><path fill="#fff" d="M207.2 280a1.2 1.2 0 012-.4c.6 1.5-.5 2.3-1 3.4 0-2-.7-1.6-1-3z"/><path fill="none" stroke="#000" stroke-miterlimit="22.9" stroke-width=".4" d="M207.2 280a1.2 1.2 0 012-.4c.6 1.5-.5 2.3-1 3.4 0-2-.7-1.6-1-3z"/><path fill="#fff" d="M209.7 278.6c0-.5 1.5-1 1.8-.3.5 1.5-.7 2.2-1.3 3.3.6-1.8-.5-1.7-.5-3z"/><path fill="none" stroke="#000" stroke-miterlimit="22.9" stroke-width=".4" d="M209.7 278.6c0-.5 1.5-1 1.8-.3.5 1.5-.7 2.2-1.3 3.3.6-1.8-.5-1.7-.5-3z"/><path fill="#fff" d="M211.5 277a.8.8 0 011.5-.2c.6 1.3-.7 2.1-1.2 3 .8-2-.6-2-.3-2.8z"/><path fill="none" stroke="#000" stroke-miterlimit="22.9" stroke-width=".4" d="M211.5 277a.8.8 0 011.5-.2c.6 1.3-.7 2.1-1.2 3 .8-2-.6-2-.3-2.8z"/><path fill="#fff" d="M274.8 153.3a3.3 3.3 0 01-1.5 3.8c-.2 1.4.9 2.2 1.5 1.2a5.7 5.7 0 000-5z"/><path fill="none" stroke="#000" stroke-miterlimit="22.9" stroke-width=".4" d="M274.8 153.3a3.3 3.3 0 01-1.5 3.8c-.2 1.4.9 2.2 1.5 1.2a5.7 5.7 0 000-5z"/><path fill="#fff" d="M273.6 153.9a2.7 2.7 0 01-1.5 3.4c-.2 1.3 1 2 1.7 1.1a4.4 4.4 0 00-.2-4.5z"/><path fill="none" stroke="#000" stroke-miterlimit="22.9" stroke-width=".4" d="M273.6 153.9a2.7 2.7 0 01-1.5 3.4c-.2 1.3 1 2 1.7 1.1a4.4 4.4 0 00-.2-4.5z"/><path fill="#d20000" d="M391.2 279.7l3-.9-4-3.3-3.2.8z"/><path fill="none" stroke="#000" stroke-miterlimit="22.9" stroke-width=".4" d="M391.2 279.7l3-.9-4-3.3-3.2.8z"/><path fill="#d20000" d="M396.2 278.4l3-.9-3.9-3.3-3.2.8a102 102 0 004.1 3.4z"/><path fill="none" stroke="#000" stroke-miterlimit="22.9" stroke-width=".4" d="M396.2 278.4l3-.9-3.9-3.3-3.2.8a102 102 0 004.1 3.4z"/><path d="M412 134a4.1 4.1 0 00-5.8-2c-2.4 2.3-2.2 2.9-4 5.9-.7 1.2-2.4 2.6-4 4.6a46.7 46.7 0 00-8.6 18.4 38 38 0 004.9 26.2c2.5 4.3 5.3 8.5 7.5 13 1.7 3.6 3.4 6.5 3.2 11.3-.1 2.8-1 5.5-4.6 4.8a7.3 7.3 0 01-4-3.4 16.2 16.2 0 01-1.3-1.3c.4 4.2-.3 8.6 1.3 11.9a10.1 10.1 0 0016.9-3.2c6-16.4-2.6-45.3-2.6-57.1 0-14.5 5.4-23 1.1-29.1m-15.4-31a7 7 0 01-.4 4.4c.3-3.8.3-7-2.3-9.2-2.4-1.4-5.5.7-6.4 3.8 0-1.3-1-4-2-3.6-1.3 0-.8 2.8-1.9 4.2A40.5 40.4 0 00372 109c-1.5 1.2-2.7 1.4-3 3-.4 4.3 3.4 4.5 8.2 3.6 1 1-1.6 1.8-2.7 2a1.5 1.5 0 00.9 1.7 30.3 30.3 0 007.3.3c2 .1 2.5 3.5-1 5.2a68.8 68.8 0 00-26 18.4l21.9 13.4a69 69 0 0118.9-28.2 22.5 22.5 0 006.2-14.2 12.9 12.8 0 00-6-11.1"/><path fill="#fff" d="M380.1 106.8a2.4 2.4 0 00-1.9 2.4c.1 1.2 2 1 3.4.4a2.1 2.1 0 001.6-2.5c-.4-1-1.7-1-3-.3"/><path d="M380.4 107.1a1 1 0 000 2 1 1 0 001-.9 1 1 0 00-1-1z"/><path fill="none" stroke="#000" stroke-miterlimit="22.9" stroke-width=".4" d="M380.4 107.1a1 1 0 000 2 1 1 0 001-.9v0a1 1 0 00-1-1h0z"/><path fill="#fff" d="M371 109.5a6 6 0 00-3.3 1.3c-1 2 1.2 3.6 1.5 3.1a2.5 2.5 0 01.4-1.9c.5-.1.8.5 1 .9a4.9 4.9 0 00.4-3.4z"/><path fill="none" d="M371 109.5a6 6 0 00-3.3 1.3c-1 2 1.2 3.6 1.5 3.1a2.5 2.5 0 01.4-1.9c.5-.1.8.5 1 .9a4.9 4.9 0 00.4-3.4z"/><path fill="#d20000" d="M374.2 116.6c-1.7 0-3.4.6-5.4-.5a4.3 4.3 0 00-6 .1c-1.3.7-3.3-.2-4.7-.3a3.4 3.4 0 004.1 3.4c2-.2 2-1.4 4-1.5 2 0 2 1.6 3.2 1.7 2.7-.3 2.8-1.9 4.9-2.8"/><path fill="#fff" d="M384.2 121c-.3-1.4-1.3-1.6-3.3-1.4 1.2 0 1.3 1.6.6 2.5-2.3 2.7-8.7 6-13.6 10.1a67 67 0 0114.5-7.8 3.2 3.2 0 001.8-3.4z"/><path fill="none" d="M384.2 121c-.3-1.4-1.3-1.6-3.3-1.4 1.2 0 1.3 1.6.6 2.5-2.3 2.7-8.7 6-13.6 10.1a67 67 0 0114.5-7.8 3.2 3.2 0 001.8-3.4z"/><path fill="#fff" d="M392.4 101.4c-1-.6-2.3.5-2.4 2.1 1.7-.3 2.2.5 2.5 3 1.2-1.2 1.3-4.2-.1-5"/><path d="M333.7 120.2c1.7-2.2 8.8 1.9 5.3 9.3-.5 15.1 9.8 14.2 16.9 10.6a43 43 0 00-6.8 16.2c0 .3-10.9-5.2-13.8-13-1.6-6.6-6.7-22.8-1.6-23.1"/><path fill="#fff" d="M330.5 120.7a1.9 1.9 0 012.7.4v.2a.9.9 0 00.5-1.6 3 3 0 00-3.2 1z"/><path fill="none" stroke="#000" stroke-miterlimit="22.9" stroke-width=".4" d="M330.5 120.7a1.9 1.9 0 012.7.4v.2a.9.9 0 00.5-1.6 3 3 0 00-3.2 1z"/><path fill="#fff" d="M330 122.2a1.6 1.6 0 012.3.3l.1.1a.7.7 0 00.3-1.3 2.4 2.4 0 00-2.7.9z"/><path fill="none" stroke="#000" stroke-miterlimit="22.9" stroke-width=".4" d="M330 122.2a1.6 1.6 0 012.3.3l.1.1a.7.7 0 00.3-1.3 2.4 2.4 0 00-2.7.9z"/><path fill="#fff" d="M332.2 119.3a1.7 1.7 0 012.3.6l.1.2a.7.7 0 00.5-1.4 2.6 2.6 0 00-2.9.6z"/><path fill="none" stroke="#000" stroke-miterlimit="22.9" stroke-width=".4" d="M332.2 119.3a1.7 1.7 0 012.3.6l.1.2a.7.7 0 00.5-1.4 2.6 2.6 0 00-2.9.6z"/><path d="M371.6 229.5A35 35 0 00365 201c1.2 6 1.5 9.7-4.1 11.1-14.6 7.6-16.2 14.8-11.4 37 1.6 3.3-2 9.1-6.1 12.4-4.7.6-10.4-1.2-12 4-.1 4.3 3.6 7.7 10 7.1 10-2.7 10.3-12.6 17-19.3-.3-4.5-2.5-7 .6-10.8 3-4.4 10.6-4.4 12.6-13.2"/><path d="M377.8 155.9l-21.7-13.6c-5.4 7-7.3 13.1-10 20.3-1.9 4-3.4 3.5-5.9-1.4-2.5-4.8-3.3-5.3-6-6.8h-9.7a4.7 4.7 0 000 1.8c0 3 0 7.5 7.1 9.8 2.7.2 4-.5 5.3 1 2.6 3 1.8 11 6.8 11 4.6-.3 7.6-4.7 12.4-11-1.2 2.7-1.6 4.9-4.2 7 3.5 15 7.5 17.2 12.6 25.1 3.9 6.6 8.6 11.9 8.7 23 .4 5.6-1.6 9.8-.9 16.3.3 3.2 1 10 6.6 13.8 4.8 4.3 12.5 2 17.9 5 1.9 1.6 3.1 6.7 2.2 11.6a2.5 2.5 0 01-2.4 2.5c-5.3-.7-9.4.4-10.2 4-.3 3.3 8.8 6.9 12.3 6.1 3.4-.7 6.2-6.5 6.9-10.6v-13.6c-.5-8.4-11.5-4-9.4-18.2 1.6-6.2 1-9.2-1-14.7 0-8 .6-15.2-4.2-22.4-7-14.7-17-28.4-13.2-46"/><path fill="#fff" d="M339.3 271.4c-.5-.7-1-.7-1.7-.2a5.4 5.4 0 00.6 4.5c.2-1.8 1.3-3.3 1-4.3z"/><path fill="none" stroke="#000" stroke-miterlimit="22.9" stroke-width=".4" d="M339.3 271.4c-.5-.7-1-.7-1.7-.2a5.4 5.4 0 00.6 4.5c.2-1.8 1.3-3.3 1-4.3z"/><path fill="#fff" d="M336.8 271.3a1 1 0 00-1.9-.4c-.6 1.9.5 3 1.1 4.3-.3-2.4.5-2.1.8-4z"/><path fill="none" stroke="#000" stroke-miterlimit="22.9" stroke-width=".4" d="M336.8 271.3a1 1 0 00-1.9-.4c-.6 1.9.5 3 1.1 4.3-.3-2.4.5-2.1.8-4z"/><path fill="#fff" d="M334.4 269.6c0-.7-1.5-1.2-1.8-.3-.6 1.9.6 2.8 1.2 4.1-.5-2.3.5-2.1.6-3.8z"/><path fill="none" stroke="#000" stroke-miterlimit="22.9" stroke-width=".4" d="M334.4 269.6c0-.7-1.5-1.2-1.8-.3-.6 1.9.6 2.8 1.2 4.1-.5-2.3.5-2.1.6-3.8z"/><path fill="#fff" d="M332.5 267.7c0-.7-.8-1.6-1.4-.3-.7 1.7.6 2.6 1 3.8-.7-2.6.7-2.5.4-3.5z"/><path fill="none" stroke="#000" stroke-miterlimit="22.9" stroke-width=".4" d="M332.5 267.7c0-.7-.8-1.6-1.4-.3-.7 1.7.6 2.6 1 3.8-.7-2.6.7-2.5.4-3.5z"/><path fill="#fff" d="M394.2 279.8a1.2 1.2 0 00-1.6-.2 3.6 3.6 0 00.6 3.6c.2-1.4 1.3-2.6 1-3.4z"/><path fill="none" stroke="#000" stroke-miterlimit="22.9" stroke-width=".4" d="M394.2 279.8a1.2 1.2 0 00-1.6-.2h0a3.6 3.6 0 00.6 3.6c.2-1.4 1.3-2.6 1-3.4z"/><path fill="#fff" d="M391.7 279.7a1.2 1.2 0 00-2-.3c-.5 1.5.6 2.4 1.2 3.4-.2-1.9.6-1.6.8-3.1z"/><path fill="none" stroke="#000" stroke-miterlimit="22.9" stroke-width=".4" d="M391.7 279.7a1.2 1.2 0 00-2-.3c-.5 1.5.6 2.4 1.2 3.4-.2-1.9.6-1.6.8-3.1z"/><path fill="#fff" d="M389.4 278.4c0-.5-1.5-1-1.8-.3-.6 1.6.6 2.3 1.2 3.3-.6-1.9.5-1.7.6-3z"/><path fill="none" stroke="#000" stroke-miterlimit="22.9" stroke-width=".4" d="M389.4 278.4c0-.5-1.5-1-1.8-.3-.6 1.6.6 2.3 1.2 3.3-.6-1.9.5-1.7.6-3z"/><path fill="#fff" d="M387.5 276.8a.7.7 0 00-1.5-.2c-.6 1.4.7 2 1.2 3-1-2 .6-2 .3-2.8z"/><path fill="none" stroke="#000" stroke-miterlimit="22.9" stroke-width=".4" d="M387.5 276.8a.7.7 0 00-1.5-.2c-.6 1.4.7 2 1.2 3-1-2 .6-2 .3-2.8z"/><path fill="#fff" d="M324.1 153.2a3.3 3.3 0 001.5 3.8c.3 1.4-.8 2.2-1.4 1.2a5.9 5.9 0 010-5z"/><path fill="none" stroke="#000" stroke-miterlimit="22.9" stroke-width=".4" d="M324.1 153.2a3.3 3.3 0 001.5 3.8c.3 1.4-.8 2.2-1.4 1.2a5.9 5.9 0 010-5z"/><path fill="#fff" d="M325.4 153.8c-.4 2.4.3 2.4 1.4 3.4.2 1.3-1 2-1.6 1a4.3 4.3 0 01.2-4.4z"/><path fill="none" stroke="#000" stroke-miterlimit="22.9" stroke-width=".4" d="M325.4 153.8c-.4 2.4.3 2.4 1.4 3.4.2 1.3-1 2-1.6 1a4.3 4.3 0 01.2-4.4z"/><path fill="#d20000" d="M0 .1h165.4V400H0z"/></svg>