<svg xmlns="http://www.w3.org/2000/svg" id="svg696" version="1.1" height="400" width="600" xml:space="preserve" clip-rule="evenodd" fill-rule="evenodd" image-rendering="optimizeQuality" shape-rendering="geometricPrecision" text-rendering="geometricPrecision"><defs id="defs4"><style id="style2" type="text/css">.str1,.str11,.str2,.str3,.str4,.str8,.str9{stroke:#70614e;stroke-width:.5;stroke-linecap:round;stroke-linejoin:round}.str11,.str2,.str3,.str4,.str8,.str9{stroke:#c2c1c1}.str2,.str3,.str4,.str8,.str9{stroke:#a92926}.str2,.str3,.str4,.str8{stroke:#007cc3;stroke-width:.6}.str2,.str4,.str8{stroke:#0a0b0c}.str2,.str4{stroke:#70614e}.str4{stroke:#0f488e}.fil4{fill:none}.fil3{fill:#007cc3}.fil6{fill:#0a0b0c}.fil2{fill:#f8c300}.fil0{fill:#fff}.fil9{fill:#da2724}.fil11{fill:#eff0f2}</style></defs><g transform="matrix(1.20949 0 0 1.2082 0 0)" id="Слой_x0020_1"><path id="rect7" class="fil0" stroke="#fff" stroke-width=".1" d="M0 0h496v331H0z"/><path id="path9" d="M248 115.3c13.8 0 25 2 25 4.4 0 2.5-11.2 4.4-25 4.4s-25-2-25-4.4c0-2.4 11.2-4.4 25-4.4z" class="str1" fill="#a92926"/><path id="path11" d="M199 213c5.1.3 1-6.5 5.3-11.3-4.1-1.3-3.9 2.4-7.2 2.9z" class="fil2 str2"/><path id="path13" d="M307.9 143.4c1.6-2.5 5-3.5 2.2-6.8 1 1.2.6 2.7-.9 3.8z" class="fil3 str3"/><path id="path15" d="M297.2 156.2h9.4c-.3-.8-.4-1.8-.4-3.3 0-1.2 0-2.2-.2-3a6.1 6.1 0 00-2.3-4.3c1.3-2.4-.3-4.3 1.6-4.2 4.5 0 6.5-3 4.8-4.9-.9-.8-2.5-1.3-5.2-1-4.9.7-5.8 5-7.5 6.6-2 1.8-8 4.7-.5 13.8l.3.3z" class="fil3 str3"/><path id="path17" d="M306.3 202c.6-1.7 1-3.7 1-5.8.1-5.6-.9-5.2-1-7.4-.2-1.7 3-2.4 5-5.5l.2-.2.1-.3c2.3-4-.9-8.9-5.6-12.5-.3 1.8-3 8.8-6.7 12-2 1.7-1.7 7-.8 10.4.6 2.2.4 3 .3 5.2 0 1.6-.4 2.8-.8 3.9z" class="fil3 str3"/><path id="path19" d="M306 170.3c-.3 1.8-3 8.8-6.7 12-2 1.7-1.7 7-.8 10.4.6 2.2.4 3 .3 5.2a8 8 0 00.4 3" class="fil4 str4"/><path id="path21" d="M257.5 235.2l7.6 9.6 3.4-11.9c.4-4-1.1-4.4-3.4-2.6-1.2 1-1.8-2.5-3.4-1.6-1.1.6 0 3.2-.9 4-1 1-4.4-1.7-3.3 2.5z" class="fil2 str2"/><path id="path23" d="M265 232.5a13 13 0 00-4.2 5.7" class="fil4 str2"/><path id="path25" d="M272.4 251.8l10 1.4-.6 10.3c-.2 3.5-2.4 5.5-4 3.5-1.6-1.8-.5-4-3-3.7-3.6.4-.4-4-2.3-4-2-.2-2.4-.8-1.8-3.3.4-1.8 1.3-3.7 1.7-4.2z" class="fil2 str2"/><path id="path27" d="M272.4 251.8l1.8-4.7c2.3.4 4.9.4 6.7 1.1 3.7 1.5 1.9 2.9 3.2 3.3 3 1.1 4.6 1.7 4.2 4-.5 3 .8 4.7-.1 6-.8 1.1-2.2.2-3.8 0-1 0-2.8 1.3-3.8.9-1.1-.5-.4-2.9-1-3.4-.9-.7-2.1.8-3 .1-.8-.7 0-3-.7-4.4-.7-1.6-2.9 1.8-3.5-2.9z" class="fil2 str2"/><path id="path29" d="M273.6 248.8a15 15 0 0111 8.4" class="fil4 str2"/><path id="polyline31" class="fil4 str2" d="M277.5 253.4l.3-3h2.4"/><path id="polyline33" class="fil4 str2" d="M280.3 256.4l.2-4.4 2 .4"/><path id="path35" d="M315 196.2l.9-2c-1.6-.5-2.8.5-.8 2z" class="fil2 str2"/><path id="path37" d="M315.9 194.4l-.8 1.7c2.2 1 3-.8.8-1.7z" class="fil2 str2"/><path id="path39" d="M311.5 161.5v-4.2c-3 .1-4.2 3.4 0 4.2z" class="fil2 str2"/><path id="path41" d="M311.5 157.5v3.9c4.6.6 5.2-4 0-4z" class="fil2 str2"/><path id="path43" d="M312.3 123.3l1.9-2.3c-1.8-1.4-4 0-1.9 2.3z" class="fil2 str2"/><path id="path45" d="M314 121.1l-1.6 2c2.5 2.3 4.2.1 1.7-2z" class="fil2 str2"/><path id="path47" d="M322.9 234.6l18.5 5.2c1 .8.6 3.1 1.1 3.7 2 2 2.3 3.7 1.6 4.8-.5.7-2.9.3-4.7-.3-2.1-.6-4 .1-4.7 0-1.7-.5-1.8-2-3.7-3.8-1.1-1-2.4 0-3.3-1.6-1.6-2.6-1.5-4.3-4.8-8z" class="fil2 str2"/><path id="path49" d="M338.8 245.2c-3.9-3.3-10-7-16-10.6" class="fil4 str2"/><path id="polyline51" class="fil4 str2" d="M338.4 242.3h-3.5l.6 2.7"/><path id="polyline53" class="fil4 str2" d="M331 241.9v-2.3l2.3.2"/><path id="path55" d="M322.9 234.6l.4-1.2c4-.1 5-1.6 6.9-2.9 2.7-1.8 1.7 2.2 2.9 2.2 1.3 0 2.5-2.1 3.4-2.6 2.6-1.3 2 2.2 3.1 2.3 1.3 0 2.1-1.4 3.7-1.4 1.1 0 .6 1.5 1.3 2 .7.5 2.7.2 2.6 1.5-.1 1.5-2.8 1.5-3.1 2.6-.5 1.6-.1 3.6-2.6 2-3.4-2.1-2.8 3.7-6.1 0-2.7-2.8-4.4 1.3-6 0-2.6-2.1-2.2-2.2-6.5-4.5z" class="fil2 str2"/><path id="path57" d="M323 234a62 62 0 0017.7 1.2" class="fil4 str2"/><path id="polyline59" class="fil4 str2" d="M338.1 233.4l-2.7 2 2 1.9"/><path id="polyline61" class="fil4 str2" d="M330.4 233.2l-1.2 1.9 1.1 1.6"/><path id="path63" d="M313.5 224.9l1.5 9.4c3 0 2.8-4.9 5.4-7.2 1-1 1.5-2.6.4-3.1-1.6-.9-3 2-5-.2-.6-.7-1.6-.8-2.3 1z" class="fil2 str2"/><path id="path65" d="M309.7 212l1-1.3c3.3-.4 11.1-2.3 13.4-1.7 2.8.8 0 2 5 5.8 2 1.5 1.8 5.7 1.1 7.5-.8 2.2-2.6 2-3 1-1.4-3.6-3.2 1.8-3.8-2.9-.6-3.7-3.1 1.3-4.2-2-1.7-5.6-2.8.2-4.3-2.5-1.7-3.3-2.1-3.7-5.2-3.8z" class="fil2 str2"/><path id="path67" d="M310.7 210.7c6.6-1.1 11.8 2 14.7 6.4" class="fil4 str2"/><path id="polyline69" class="fil4 str2" d="M320.5 214.9l-1.5-3.3h1.9"/><path id="polyline71" class="fil4 str2" d="M316.5 213.2l-.7-2.6 1-.4"/><path id="polyline73" class="fil4 str2" d="M324.7 214.9l-2.1-1 1 3"/><path id="path75" d="M322.7 201.1c2.3-5.9.1-7.3-1.1-4.7-.8 1.4-3-.6-3.4 2-.5 3.6-2.2.3-2.1 5z" class="fil2 str2"/><path id="path77" d="M311.6 209l-.9 1.7c1.4-.8 2.8-2 4.1-1.8 4 .4 2.1-2.8 6.1-1.2 3.6 1.5 2.3-3.9 6.3 0 2.2 2 3-1 3.2-2.8.2-1.2 2.6-2 2.5-3.6-.2-2.3-3.9.2-4.2-2.1-.3-1.7-2-1.8-2.8-.6-3.4 5.4-3-3.5-5.8 1-2 3.1-4.8-1.3-4.7 3.9 0 3 .1 2.5-3.8 5.5z" class="fil2 str2"/><path id="path79" d="M311.3 209.6c7.2-3 8.2-7.1 15.6-6.4" class="fil4 str2"/><path id="polyline81" class="fil4 str2" d="M321.5 206.4l-2.4-1.5 2-2.3"/><path id="polyline83" class="fil4 str2" d="M324.9 204.1l-1-.9.6-.3"/><path id="path85" d="M320 176.4l1.7-2.4c-1.6-1-3.6 0-1.8 2.4z" class="fil2 str2"/><path id="path87" d="M317.6 175.9l.7.5c15.4-23.1 8.6-22.2 7.9-20.7-1.8 3.5-2.6.3-3.6 2.8-1.1 2.8-2.1.3-2.3 2.7-.5 4.8-3.1.7-2.7 4.3.7 5.7.2 7.7 0 10.4z" class="fil2 str2"/><path id="path89" d="M317.6 175.9l.7.4c1.5-3.4 2.5-3 5-2.6 3.8.3.8-2.8 2.8-2.7 1.3 0 1.3 1.2 3.3 1.2 2.5.1.8-3.7 1.6-4.2 1.2-.7 2 1.3 3.4.8 2.4-.9-1.5-3 1.1-3.4 2.3-.5 2.6-3.5-1.4-2.6-2 .5-1.3-2.8-4-1.4-2.9 1.6-2.7-1-4 .7-3.1 4.4-3 .7-4.4 2.6-2.7 4-.7 5.2-4.1 11.2z" class="fil2 str2"/><path id="path91" d="M321.7 174.2l-1.7 2c2.3 1.9 4-.4 1.7-2z" class="fil2 str2"/><path id="path93" d="M318.2 187l9.2-2c.2-1.2 1-1.8 1.3-2.5 2-4.2-3.3-.1-1-4.4 1-1.8-.8-2.9-1.6-1.8-3.2 4.3-3.1-1.8-5 1.9-2 4-4 4.2-2.9 8.8z" class="fil2 str2"/><path id="path95" d="M325.3 179.3a24.6 24.6 0 00-4.8 7.2" class="fil4 str2"/><path id="path97" d="M314.1 189.6l.3 1.1c1.5-.1 2.3-.1 3.7.9 1.9 1.3 1.4-1.5 5 .8 3 2 3.2-1.5 5.2-1.5 4.3 0 2.6-3 1-3.3-2.7-.5-.3-3.8-3.3-2.8-6.3 2.1-2.5-1.4-5.5-.3-2.5.8-2.5 4.2-6.4 5z" class="fil2 str2"/><path id="path99" d="M314.3 190.1c5.1-1.2 7.3-2.4 13-1" class="fil4 str2"/><path id="polyline101" class="fil4 str2" d="M320.8 189.3l-1.6-.4 1-.8"/><path id="polyline103" class="fil4 str2" d="M325.3 189.3l-1.3-.8 1.1-.3"/><path id="path105" d="M297 213c-5.1.3-1-6.5-5.3-11.3 4.1-1.3 3.9 2.4 7.2 2.9z" class="fil2 str2"/><path id="path107" d="M303.5 170.2l.4 10.3c.9-.6 5.5-14.6-.4-10.3z" class="fil2 str2"/><path id="path109" d="M330.1 165c-5.9 4.8-8.1 3-12.1 11.1" class="fil4 str2"/><path id="polyline111" class="fil4 str2" d="M329.3 164.4l-.8 1.8 1.5-.1"/><path id="polyline113" class="fil4 str2" d="M326.3 166.5l-2.4 2.5 3.2.1"/><path id="path115" d="M306.8 151.5l15.2-4.9c7.7 4.4 1 3.3 3.5 5.2.8.7 1.1 3.7-2.9 2-3.7-1.6-1.2 2.2-5 1.6-6.4-1-2-5.5-10.8-4z" class="fil2 str2"/><path id="path117" d="M306.2 151.8v-1.5c2.3-1 4-3.7 5.3-6.5.8-1.7 1.7 1.5 4.5-3 1.3-2.2 1.8.1 5.5-1.7 2.5-1.3 2.5 1.6 5.8 1.2 5.3-.8 4.4 5.1 1 4.9-5.9-.4 0 5.9-5.9 4.3-8.5-2.2-.7 4.9-7.5 3.3-5-1.3-6.1-1.2-8.7-1z" class="fil2 str2"/><path id="path119" d="M324 143.2c-6.7-.4-11 6.3-17.9 7.8" class="fil4 str2"/><path id="polyline121" class="fil4 str2" d="M321 145l-4.3.4 1.5-2.7"/><path id="polyline123" class="fil4 str2" d="M315.3 150.2l-2.8-2 1.2-1.5"/><path id="path125" d="M311 135.3l-.3-.7 9.8-4.7c1-.2 2 .4 2.8.3 3.1-.3 3-2 4.8-2 1.5 0 .8 2.5 1.8 2.8 2.2.7 2.9 2.5-2.1 3-3 .2-3 3-6.6 1.1-3.7-2-4-1.7-10.3.2z" class="fil2 str2"/><path id="path127" d="M320 132.2c1.5 0 2.2.5 5.2-.3" class="fil4 str2"/><path id="path129" d="M310.7 134.6l.2.7a54 54 0 0110.2-3.3c2.8-.6-.8-2 2.7-3.8 2.5-1.3-1-3.2.4-5.6 1-1.6-.7-3.6-2.2-1.7-1.9 2.4-5-1.3-5.2 2.3-.3 7.1-2.7 1.8-3.8 4.4-.8 1.9 1.5 4.5-2.3 7z" class="fil2 str2"/><path id="path131" d="M310.8 135c9.8-6 6.9-7.3 10.6-11.1" class="fil4 str2"/><path id="polyline133" class="fil4 str2" d="M319.5 130.8l-2.4-.5.6-2.6"/><path id="polyline135" class="fil4 str2" d="M321.4 127.4l-2.1-.4v-1.7"/><path id="path137" d="M309.7 124.5l.7-.3-7.7-14.3c-5-4.5-6-.7-5 .3 1.8 1.7 0 3.4 1.8 4 4.2 1.6-.2 3.3 2.8 4 4.6 1.1 5.9 0 7.4 6.3z" class="fil2 str2"/><path id="path139" d="M309.7 124.5l.7-.3c-1.7-8.6 3.5-10.4 3.8-12.6.5-3.6-3.2 0-2.6-4.6.7-4.7-3.7-.9-5-4-1.2-2.8-4.2-3-3.6 0 .3 1.7-1 2.4-.5 4 1.2 4-.1 6.3 1.3 8 3.4 4.3 4.3 4.7 5.9 9.5z" class="fil2 str2"/><path id="path141" d="M310 124.4c-2.5-9.8-1.1-10.9-3.5-17" class="fil4 str2"/><path id="polyline143" class="fil4 str2" d="M306.2 113.5l2.1 2 .4-1.8"/><path id="path145" d="M306.3 109.2l.4.2.7.6.3-1" class="fil4 str2"/><path id="path147" d="M304.8 135.5c-4.8.7-5.7 5-7.4 6.6" class="fil4 str4"/><path id="path149" d="M301.3 140.6c-.1-2.5 1-5 3.6-5.2 5-.4 6.5 1.8 5.5 3.6" class="fil4 str4"/><path id="path151" d="M308.3 136l-.5.7c-2.7-1.3-3.5-2-8.4-1.7-2.2.1-1-1.9-3.4-1.8-2.7 0-1-2-2.7-3.8-1.8-2-.2-5.2 6.6-.4z" class="fil2 str2"/><path id="path153" d="M307.8 136.7l.5-.8c-4.2-4.7-1.5-6.3-2.5-11-.5-2.6-2 .7-3.2-3.2-.8-2.2-3.2-.8-4.6-1.8-1-.8-2.7-.2-2.2 1.8 1 3.5-1.6 4.8 1 6.2 3.5 2 0 4 2.4 5 4.4 1.6 5.7 1.2 8.6 3.8z" class="fil2 str2"/><path id="path155" d="M298.4 122.8c3 5.6 5 9 9.7 13.5" class="fil4 str2"/><path id="polyline157" class="fil4 str2" d="M298.6 126.3l2.8 1.9v-4"/><path id="polyline159" class="fil4 str2" d="M303.5 127.8v3.5l-2.7-1"/><path id="path161" d="M310.1 141c1.2-1.2 1.8-2.4 0-4.5" class="fil4 str4"/><path id="path163" d="M309.7 124.5c-.2 4.5.2 10.4-1.4 11.4l-.5.8c-.7 2.8-1.6 5.1-2.5 6l1.4 2a43 43 0 014.2-9.4l-.2-.7c-.7-.2.2-6.8-.3-10.4z" class="fil2 str2"/><path id="polyline165" class="fil4 str2" d="M311.5 121l-.6-.1-1 2.8"/><path id="line167" class="fil4 str2" d="M314.1 194.5l-2.5-.6"/><path id="path169" d="M322.7 229.1l2.7 1.5c-.9 1.6-3.5.5-2.7-1.5z" class="fil2 str2"/><path id="path171" d="M325.3 230.6l-2.5-1.4c1.3-3 4-1.5 2.5 1.4z" class="fil2 str2"/><path id="path173" d="M308.5 233l-5 1.2c-1.3 2-2.2 1.5-4.7 3.4-1.5 1-2.1 3.4-5.3 3.5-3.8.2-3.3-2.4-7.6-2.6-2.2 0-4.3 1.3-5.1 0-1-1.5-2-1.4-3.5-1.7v3.3c1.1-.7 2.2-.7 2.6 0 1 2.4-1 2.6-.8 4.3.3 3 2.4 4 3.7 4.1 4.5.5 6.1 1.8 7.7 3.4.5.6 4.7 3.2 7.7 1 2.2-1.7 6.5-5.3 7.6-7.6 2.7-5.4 7.1-4.7 8.8-9z" class="fil3 str3"/><path id="path175" d="M314.4 237a89 89 0 01-16.2 15.8c-3 2.3-7.2-.3-7.7-.9-1.6-1.6-3.2-2.9-7.7-3.4-1.3 0-3.4-1-3.7-4.1-.1-1.7 1.7-1.9.8-4.3-.3-.6-1.1-.7-2.1-.3" class="fil4 str4"/><path id="path177" d="M321.8 237.8h-3.1c0-1.8 2.9-2.6 3 0z" class="fil2 str2"/><path id="path179" d="M318.8 237.8h2.9c.4 3.5-3.1 3.9-2.9 0z" class="fil2 str2"/><path id="path181" d="M323.3 233.4l-7.9-1.2-.1 1.5 7.5 1z" class="fil2 str2"/><path id="line183" class="fil4 str2" d="M323.4 231.2l-1.7 2"/><path id="path185" d="M286.8 246l4-.1c-.3-2.3-3.4-5-4 .1z" class="fil2 str2"/><path id="path187" d="M286.8 241a4 4 0 011.6 2.1" class="fil4 str2"/><path id="line189" class="fil4 str2" d="M320.4 236.1l-.1-1.8"/><path id="path191" d="M290.6 245.9l-3.7.1c-.6 4.5 4 4.8 3.7-.1z" class="fil2 str2"/><path id="path193" d="M298 201.8c-.7 1.8-1.5 3-1.8 4.7-.9 5.3-.3 10 2.8 13 1.3 1.4 3.4 2.3 4 2.9 2.6 2.7 1.6 10.2.6 11.8l4.9-1.2 6.1 3.4a9 9 0 00.6-2.1l.3-3c.2-5.8-2.4-5.4-4.7-10-1-2 .6-5-2.6-8.8-1-1.1-2-1.6-2.9-2 .6-3.6-2.3-3.4-1.3-4.4a11 11 0 002.3-4z" class="fil3 str3"/><path id="path195" d="M309.9 185c-1.9 1.8-3.7 2.5-3.6 3.8.1 2.2 1.1 1.8 1 7.4 0 4.1-1.5 8-3.3 10-1 .9 1.9.7 1.3 4.2" class="fil4 str4"/><path id="path197" d="M309.2 140.4c-.9.6-2.2 1-3.9 1-1.9 0-.3 1.8-1.6 4.2.9.8 1.9 1.7 2.3 4.2 2.2-1.3.2-4 1.9-6.4z" class="fil3 str3"/><path id="path199" d="M299.2 219.7c-3.2-3-4-7.8-3-13.2.4-2.6 2.4-4.3 2.6-8.6" class="fil4 str4"/><path id="line201" class="fil4 str4" d="M303.8 206.5l-1.3.4"/><path id="path203" d="M308.7 197.2c-6 6.4-10.3.7-19.4 4.8 8-3 3.1-12 19-8z" class="fil2 str2"/><path id="path205" d="M295 199c2.2-1.7 4.5-3 7-4.1" class="fil4 str2"/><path id="path207" d="M311.4 206.8c0 .6-2 3-3.7 5.1l.5.6.7 1 .8-1.4 1-1.4 1-1.7 1-.9c4-3.3-5.9-13.5 1.7-17.4l-.3-1.1c-1.2.4-3.5 3.5-2.1-1.3 1-3.3 3.7-5.8 6.3-12l-.7-.4c-2.4 4-5.6 9.6-6.4 8.7l-.2-.9-1.2 1.4.1.6-.8-.6-.7 1c1.8 2.6 1.4 5 1.2 7.4l3.2 10v3.2z" class="fil2 str2"/><path id="path209" d="M299.2 201c.7 1.8 1.8 3.2 1.8 6.1 0 5-3.8 5.7-3.3 10 .3 2.8 4.5 4.5 5.3 5.3 2.6 2.7 1.6 10.2.6 11.8" class="fil4 str4"/><path id="path211" d="M301.6 205.6c.5 0 .7.2.8.9 1 4.4 3.6 3.5 5.8 6 3.2 3.8 1.6 6.7 2.6 8.7 2.6 5.4 5.6 4 4.4 13-.2 1.2-.5 2-.8 2.8" class="fil4 str4"/><path id="path213" d="M306 149.8c2.2-1.3.2-4 1.9-6.4.6-1 1.5-1.7 2.2-2.4" class="fil4 str4"/><path id="path215" d="M310.4 139c-.6 1.3-2.4 2.4-5 2.4-2 0-.4 1.8-1.8 4.2" class="fil4 str4"/><path id="path217" d="M311.4 206.8c.5 1 1.3.7 1.8 0-.3-4.5-1.7-8-3.3-12.6-1-2.9-3.2.2-4-6.7-.3-3.9-2.2.9-6-4.5-1.6-2.2-4.7-1.2-4.1.2 2 5-3.3 4.3.7 6.6 5.3 3.2-.8 5.8 4.8 6.3 10.8 1 10 7.4 10.1 10.7z" class="fil2 str2"/><path id="path219" d="M306 183.3c-3.1-1-8.3.4-25.1-6.5 18.6-4.5 17.7-3.1 25 6.5z" class="fil2 str2"/><path id="path221" d="M308.4 186.1l.7-1c-3.3-3.2-4.4-3.4-4.6-7-.2-2.6 1-6.2.2-8-2.7-6.2-2.9 4-4.8-2-1.4-4.5-2.5-5.5-4.3-4.2-.9.6-1 2.8.3 5.5 2.1 4.8-3 2.6.4 6.6 3.1 3.8 9 6 12.1 10.1z" class="fil2 str2"/><path id="path223" d="M300.2 173.5c1.4 6 4.9 8.5 8.6 12" class="fil4 str2"/><path id="path225" d="M311.5 198.9c-3.4-8.4-5.9-.5-13-14.5" class="fil4 str2"/><path id="polyline227" class="fil4 str2" d="M297.6 187.6l2.8.3v-1"/><path id="polyline229" class="fil4 str2" d="M300.9 192l3 .2-1.2-2.7"/><path id="path231" d="M188.1 143.4c-1.6-2.5-5-3.5-2.2-6.8-1 1.2-.6 2.7.9 3.8z" class="fil3 str3"/><path id="path233" d="M198.8 156.2h-9.4c.3-.8.4-1.8.4-3.3 0-1.2 0-2.2.2-3a6.1 6.1 0 012.3-4.3c-1.3-2.4.3-4.3-1.6-4.2-4.5 0-6.5-3-4.8-4.9.9-.8 2.5-1.3 5.2-1 4.9.7 5.8 5 7.5 6.6 2 1.8 8 4.7.5 13.8l-.3.3z" class="fil3 str3"/><path id="path235" d="M189.7 202c-.6-1.7-1-3.7-1-5.8-.1-5.6.9-5.2 1-7.4.2-1.7-3-2.4-5-5.5l-.2-.2-.1-.3c-2.3-4 .9-8.9 5.6-12.5.3 1.8 3 8.8 6.7 12 2 1.7 1.7 7 .8 10.4-.6 2.2-.4 3-.3 5.2 0 1.6.4 2.8.8 3.9z" class="fil3 str3"/><path id="path237" d="M190 170.3c.3 1.8 3 8.8 6.7 12 2 1.7 1.7 7 .8 10.4-.6 2.2-.4 3-.3 5.2a8 8 0 01-.4 3" class="fil4 str4"/><path id="path239" d="M238.5 235.2l-7.6 9.6-3.4-11.9c-.4-4 1.1-4.4 3.4-2.6 1.2 1 1.8-2.5 3.4-1.6 1.1.6 0 3.2.9 4 1 1 4.4-1.7 3.3 2.5z" class="fil2 str2"/><path id="path241" d="M223.6 251.8l-10 1.4.6 10.3c.2 3.5 2.4 5.5 4 3.5 1.6-1.8.5-4 3-3.7 3.6.4.4-4 2.3-4 2-.2 2.4-.8 1.8-3.3-.4-1.8-1.3-3.7-1.7-4.2z" class="fil2 str2"/><path id="path243" d="M223.6 251.8l-1.8-4.7c-2.3.4-4.9.4-6.7 1.1-3.7 1.5-1.9 2.9-3.2 3.3-3 1.1-4.6 1.7-4.2 4 .5 3-.8 4.7.1 6 .8 1.1 2.2.2 3.8 0 1 0 2.8 1.3 3.8.9 1.1-.5.4-2.9 1-3.4.9-.7 2.1.8 3 .1.8-.7 0-3 .7-4.4.7-1.6 2.9 1.8 3.5-2.9z" class="fil2 str2"/><path id="path245" d="M222.4 248.8a15 15 0 00-11 8.4" class="fil4 str2"/><path id="polyline247" class="fil4 str2" d="M218.5 253.4l-.3-3h-2.4"/><path id="polyline249" class="fil4 str2" d="M215.7 256.4l-.2-4.4-2 .4"/><path id="path251" d="M231 232.5a13 13 0 014.2 5.7" class="fil4 str2"/><path id="path253" d="M181 196.2l-.9-2c1.6-.5 2.8.5.8 2z" class="fil2 str2"/><path id="path255" d="M180.1 194.4l.8 1.7c-2.2 1-3-.8-.8-1.7z" class="fil2 str2"/><path id="path257" d="M184.5 161.5v-4.2c3 .1 4.2 3.4 0 4.2z" class="fil2 str2"/><path id="path259" d="M184.5 157.5v3.9c-4.6.6-5.2-4 0-4z" class="fil2 str2"/><path id="path261" d="M183.7 123.3l-1.9-2.3c1.8-1.4 4 0 2 2.3z" class="fil2 str2"/><path id="path263" d="M182 121.1l1.6 2c-2.5 2.3-4.2.1-1.7-2z" class="fil2 str2"/><path id="path265" d="M173.1 234.6l-18.5 5.2c-1 .8-.6 3.1-1.1 3.7-2 2-2.3 3.7-1.6 4.8.5.7 2.9.3 4.7-.3 2.1-.6 4 .1 4.7 0 1.7-.5 1.8-2 3.7-3.8 1.1-1 2.4 0 3.3-1.6 1.6-2.6 1.5-4.3 4.8-8z" class="fil2 str2"/><path id="path267" d="M157.2 245.2c3.9-3.3 10-7 16-10.6" class="fil4 str2"/><path id="polyline269" class="fil4 str2" d="M157.7 242.3h3.4l-.6 2.7"/><path id="polyline271" class="fil4 str2" d="M165 241.9v-2.3l-2.3.2"/><path id="path273" d="M173.1 234.6l-.4-1.2c-4-.1-5-1.6-6.9-2.9-2.7-1.8-1.7 2.2-2.9 2.2-1.3 0-2.5-2.1-3.4-2.6-2.6-1.3-2 2.2-3.1 2.3-1.3 0-2.1-1.4-3.7-1.4-1.1 0-.6 1.5-1.3 2-.7.5-2.7.2-2.6 1.5.1 1.5 2.8 1.5 3.1 2.6.5 1.6.1 3.6 2.6 2 3.4-2.1 2.8 3.7 6.1 0 2.7-2.8 4.4 1.3 6 0 2.6-2.1 2.2-2.2 6.5-4.5z" class="fil2 str2"/><path id="path275" d="M173 234a62 62 0 01-17.7 1.2" class="fil4 str2"/><path id="polyline277" class="fil4 str2" d="M157.9 233.4l2.7 2-2 1.9"/><path id="polyline279" class="fil4 str2" d="M165.6 233.2l1.2 1.9-1.1 1.6"/><path id="path281" d="M182.5 224.9l-1.5 9.4c-3 0-2.8-4.9-5.4-7.2-1-1-1.5-2.6-.4-3.1 1.6-.9 3 2 5-.2.6-.7 1.6-.8 2.3 1z" class="fil2 str2"/><path id="path283" d="M186.3 212l-1-1.3c-3.3-.4-11.1-2.3-13.4-1.7-2.8.8 0 2-5 5.8-2 1.5-1.8 5.7-1.1 7.5.8 2.2 2.6 2 3 1 1.4-3.6 3.2 1.8 3.8-2.9.6-3.7 3.1 1.3 4.2-2 1.7-5.6 2.8.2 4.3-2.5 1.7-3.3 2.1-3.7 5.2-3.8z" class="fil2 str2"/><path id="path285" d="M185.3 210.7c-6.6-1.1-11.8 2-14.7 6.4" class="fil4 str2"/><path id="polyline287" class="fil4 str2" d="M175.5 214.9l1.5-3.3H175"/><path id="polyline289" class="fil4 str2" d="M179.5 213.2l.7-2.6-1-.4"/><path id="polyline291" class="fil4 str2" d="M171.3 214.9l2.1-1-1 3"/><path id="path293" d="M173.3 201.1c-2.3-5.9-.1-7.3 1.1-4.7.8 1.4 3-.6 3.4 2 .5 3.6 2.2.3 2.1 5z" class="fil2 str2"/><path id="path295" d="M184.4 209l.9 1.7c-1.4-.8-2.8-2-4.1-1.8-4 .4-2.1-2.8-6.1-1.2-3.6 1.5-2.3-3.9-6.3 0-2.2 2-3-1-3.2-2.8-.2-1.2-2.6-2-2.5-3.6.2-2.3 3.9.2 4.2-2.1.3-1.7 2-1.8 2.8-.6 3.4 5.4 3-3.5 5.8 1 2 3.1 4.8-1.3 4.7 3.9 0 3-.1 2.5 3.8 5.5z" class="fil2 str2"/><path id="path297" d="M184.7 209.6c-7.2-3-8.2-7.1-15.6-6.4" class="fil4 str2"/><path id="polyline299" class="fil4 str2" d="M174.5 206.4l2.4-1.5-2-2.3"/><path id="polyline301" class="fil4 str2" d="M171.1 204.1l1-.9-.6-.3"/><path id="path303" d="M176 176.4l-1.7-2.4c1.6-1 3.6 0 1.8 2.4z" class="fil2 str2"/><path id="path305" d="M178.4 175.9l-.7.5c-15.4-23.1-8.6-22.2-7.9-20.7 1.8 3.5 2.6.3 3.6 2.8 1.1 2.8 2.1.3 2.3 2.7.5 4.8 3.1.7 2.7 4.3-.7 5.7-.2 7.7 0 10.4z" class="fil2 str2"/><path id="path307" d="M178.4 175.9l-.7.4c-1.5-3.4-2.5-3-5-2.6-3.8.3-.8-2.8-2.8-2.7-1.3 0-1.3 1.2-3.3 1.2-2.5.1-.8-3.7-1.6-4.2-1.2-.7-2 1.3-3.4.8-2.4-.9 1.5-3-1.1-3.4-2.3-.5-2.6-3.5 1.4-2.6 2 .5 1.3-2.8 4-1.4 2.9 1.6 2.7-1 4 .7 3.1 4.4 3 .7 4.4 2.6 2.7 4 .7 5.2 4.1 11.2z" class="fil2 str2"/><path id="path309" d="M174.3 174.2l1.7 2c-2.3 1.9-4-.4-1.7-2z" class="fil2 str2"/><path id="path311" d="M177.8 187l-9.2-2c-.2-1.2-1-1.8-1.3-2.5-2-4.2 3.3-.1 1-4.4-1-1.8.8-2.9 1.6-1.8 3.2 4.3 3.1-1.8 5 1.9 2 4 4 4.2 2.9 8.8z" class="fil2 str2"/><path id="path313" d="M170.7 179.3c2.6 2.8 3.6 4.6 4.8 7.2" class="fil4 str2"/><path id="path315" d="M181.9 189.6l-.3 1.1c-1.5-.1-2.3-.1-3.7.9-1.9 1.3-1.4-1.5-5 .8-3 2-3.2-1.5-5.2-1.5-4.3 0-2.6-3-1-3.3 2.7-.5.3-3.8 3.3-2.8 6.3 2.1 2.5-1.4 5.5-.3 2.5.8 2.5 4.2 6.4 5z" class="fil2 str2"/><path id="path317" d="M181.7 190.1c-5.1-1.2-7.3-2.4-13-1" class="fil4 str2"/><path id="polyline319" class="fil4 str2" d="M175.2 189.3l1.6-.4-1-.8"/><path id="polyline321" class="fil4 str2" d="M170.7 189.3l1.3-.8-1.1-.3"/><path id="path323" d="M165.9 165c5.9 4.8 8.1 3 12.1 11.1" class="fil4 str2"/><path id="polyline325" class="fil4 str2" d="M166.7 164.4l.8 1.8-1.5-.1"/><path id="polyline327" class="fil4 str2" d="M169.7 166.5l2.4 2.5-3.2.1"/><path id="path329" d="M189.2 151.5l-15.2-4.9c-7.7 4.4-1 3.3-3.5 5.2-.8.7-1.1 3.7 2.9 2 3.7-1.6 1.2 2.2 5 1.6 6.4-1 2-5.5 10.8-4z" class="fil2 str2"/><path id="path331" d="M189.8 151.8v-1.5c-2.3-1-4-3.7-5.3-6.5-.8-1.7-1.7 1.5-4.5-3-1.3-2.2-1.8.1-5.5-1.7-2.5-1.3-2.5 1.6-5.8 1.2-5.3-.8-4.4 5.1-1 4.9 5.9-.4 0 5.9 5.9 4.3 8.5-2.2.7 4.9 7.5 3.3 5-1.3 6.1-1.2 8.7-1z" class="fil2 str2"/><path id="path333" d="M172 143.2c6.7-.4 11 6.3 17.9 7.8" class="fil4 str2"/><path id="polyline335" class="fil4 str2" d="M175 145l4.3.4-1.5-2.7"/><path id="polyline337" class="fil4 str2" d="M180.7 150.2l2.8-2-1.2-1.5"/><path id="path339" d="M185 135.3l.3-.7-9.8-4.7c-1-.2-2 .4-2.8.3-3.1-.3-3-2-4.8-2-1.5 0-.8 2.5-1.8 2.8-2.2.7-2.9 2.5 2.1 3 3 .2 3 3 6.6 1.1 3.7-2 4-1.7 10.3.2z" class="fil2 str2"/><path id="path341" d="M176 132.2c-1.5 0-2.2.5-5.2-.3" class="fil4 str2"/><path id="path343" d="M185.3 134.6l-.2.7a54 54 0 00-10.2-3.3c-2.8-.6.8-2-2.7-3.8-2.5-1.3 1-3.2-.4-5.6-1-1.6.7-3.6 2.2-1.7 1.9 2.4 5-1.3 5.2 2.3.3 7.1 2.7 1.8 3.8 4.4.8 1.9-1.5 4.5 2.3 7z" class="fil2 str2"/><path id="path345" d="M185.2 135c-9.8-6-6.9-7.3-10.6-11.1" class="fil4 str2"/><path id="polyline347" class="fil4 str2" d="M176.5 130.8l2.4-.5-.6-2.6"/><path id="polyline349" class="fil4 str2" d="M174.6 127.4l2.1-.4v-1.7"/><path id="path351" d="M186.3 124.5l-.7-.3 7.7-14.3c5-4.5 6-.7 5 .3-1.8 1.7 0 3.4-1.8 4-4.2 1.6.2 3.3-2.8 4-4.6 1.1-5.9 0-7.4 6.3z" class="fil2 str2"/><path id="path353" d="M186.3 124.5l-.7-.3c1.7-8.6-3.5-10.4-3.8-12.6-.5-3.6 3.2 0 2.6-4.6-.7-4.7 3.7-.9 5-4 1.2-2.8 4.2-3 3.6 0-.3 1.7 1 2.4.5 4-1.2 4 .1 6.3-1.3 8-3.4 4.3-4.3 4.7-5.9 9.5z" class="fil2 str2"/><path id="path355" d="M186 124.4c2.5-9.8 1.1-10.9 3.5-17" class="fil4 str2"/><path id="polyline357" class="fil4 str2" d="M189.8 113.5l-2.1 2-.4-1.8"/><path id="path359" d="M189.7 109.2l-.4.2-.7.6-.3-1" class="fil4 str2"/><path id="path361" d="M191.2 135.5c4.8.7 5.7 5 7.4 6.6" class="fil4 str4"/><path id="path363" d="M194.7 140.6c.1-2.5-1-5-3.6-5.2-5-.4-6.5 1.8-5.5 3.6" class="fil4 str4"/><path id="path365" d="M187.7 136l.5.7c2.7-1.3 3.5-2 8.4-1.7 2.2.1 1-1.9 3.4-1.8 2.7 0 1-2 2.7-3.8 1.8-2 .2-5.2-6.6-.4z" class="fil2 str2"/><path id="path367" d="M188.2 136.7l-.5-.8c4.2-4.7 1.5-6.3 2.5-11 .5-2.6 2 .7 3.2-3.2.8-2.2 3.2-.8 4.6-1.8 1-.8 2.7-.2 2.2 1.8-1 3.5 1.6 4.8-1 6.2-3.5 2 0 4-2.4 5-4.4 1.6-5.7 1.2-8.6 3.8z" class="fil2 str2"/><path id="path369" d="M197.6 122.8a45 45 0 01-9.7 13.5" class="fil4 str2"/><path id="polyline371" class="fil4 str2" d="M197.4 126.3l-2.8 1.9v-4"/><path id="polyline373" class="fil4 str2" d="M192.5 127.8v3.5l2.7-1"/><path id="path375" d="M186 141c-1.3-1.2-2-2.4 0-4.5" class="fil4 str4"/><path id="path377" d="M186.3 124.5c.2 4.5-.2 10.4 1.4 11.4l.5.8c.7 2.8 1.6 5.1 2.5 6l-1.4 2a43 43 0 00-4.2-9.4l.2-.7c.7-.2-.2-6.8.3-10.4z" class="fil2 str2"/><path id="polyline379" class="fil4 str2" d="M184.5 121l.6-.1 1 2.8"/><path id="line381" class="fil4 str2" d="M181.9 194.5l2.5-.6"/><path id="path383" d="M173.3 229.1l-2.7 1.5c.9 1.6 3.5.5 2.7-1.5z" class="fil2 str2"/><path id="path385" d="M170.7 230.6l2.5-1.4c-1.3-3-4-1.5-2.5 1.4z" class="fil2 str2"/><path id="path387" d="M218.7 236.8c1.3-.3 3-.9 5.3-2.9 2.7-2.2 4.7 0 5.6 1.4 1.7 2.6.4 4.7 1.7 7l.1-.2c.9-3.3.7-7.3 5.2-7 5 .2 3.7 3.1 11.4 3.2 7.7 0 6.3-3 11.4-3.2 4.5-.3 4.3 3.7 5.2 7v.3l.1-.2c1.3-2.2 0-4.3 1.7-7 .9-1.4 3-3.5 5.6-1.3 2.3 2 4 2.6 5.3 2.9v3.3c-1.5.8-3 2.7-3.1 5.2-.2 2.9 0 6.4-5.6 9-2.4 1.3-4.6 1.8-7.3.9-1.2-.4-2-1.6-2.1-2.6 0-1.5-.5-3.5-1-4-2.5.3-6.8.6-10 .6H247.8c-3.3 0-7.6-.3-10.2-.7a9.2 9.2 0 00-.9 4c0 1.1-1 2.3-2 2.7-2.8.9-5 .4-7.4-.8-5.7-2.7-5.4-6.2-5.6-9a6.5 6.5 0 00-3.1-5.3z" class="fil3 str3"/><path id="path389" d="M303.6 234.2c-7.2 8.7-10.5 4.7-17.7 4.3-2.2 0-4.3 1.3-5.1 0-1.6-2.6-3.6-.2-8.8-4.6" class="fil4 str4"/><path id="path391" d="M187.5 233l5 1.2c1.3 2 2.2 1.5 4.7 3.4 1.5 1 2.1 3.4 5.3 3.5 3.8.2 3.3-2.4 7.6-2.6 2.2 0 4.3 1.3 5.1 0 1-1.5 2-1.4 3.5-1.7v3.3c-1.1-.7-2.2-.7-2.6 0-1 2.4 1 2.6.8 4.3-.3 3-2.4 4-3.7 4.1-4.5.5-6.1 1.8-7.7 3.4-.5.6-4.7 3.2-7.7 1a31.6 31.6 0 01-7.6-7.6c-2.7-5.4-7.1-4.7-8.8-9z" class="fil3 str3"/><path id="path393" d="M181.6 237a89 89 0 0016.2 15.8c3 2.3 7.2-.3 7.7-.9 1.6-1.6 3.2-2.9 7.7-3.4 1.3 0 3.4-1 3.7-4.1.1-1.7-1.7-1.9-.8-4.3.3-.6 1.1-.7 2.1-.3" class="fil4 str4"/><path id="path395" d="M192.4 234.2c7.2 8.7 10.5 4.7 17.7 4.3 2.2 0 4.3 1.3 5.1 0 1.6-2.6 3.6-.2 8.8-4.6" class="fil4 str4"/><path id="path397" d="M205.4 240.4l-2-2-14.2 4.1c-.9 1.4-.8 3-1.6 4.4-2 3.3 1 .8.4 2.8-.8 2-.5 4.5 1.4 3 2.4-1.7 2.8.4 4 0 1.5-.4 1-2 2-3.2.4-.6 3.6 0 4.3-1.2 1.2-2 .9-2.2 2.8-3.7 1.1-.9.3-2.7 2.9-4.2z" class="fil2 str2"/><path id="path399" d="M174.2 237.8h3.1c0-1.8-2.9-2.6-3 0z" class="fil2 str2"/><path id="path401" d="M177.2 237.8h-2.9c-.4 3.5 3.1 3.9 2.9 0z" class="fil2 str2"/><path id="path403" d="M172.7 233.4l7.9-1.2.1 1.5-7.5 1z" class="fil2 str2"/><path id="line405" class="fil4 str2" d="M172.6 231.2l1.7 2"/><path id="path407" d="M209.2 246l-4-.1c.3-2.3 3.4-5 4 .1z" class="fil2 str2"/><path id="path409" d="M209.2 241a4 4 0 00-1.6 2.1" class="fil4 str2"/><path id="path411" d="M191.8 248.6c3.3-4.4 7.3-6 12.6-9.1" class="fil4 str2"/><path id="line413" class="fil4 str2" d="M175.6 236.1l.1-1.8"/><path id="line415" class="fil4 str2" d="M200.6 241.6l-.3 2.5"/><path id="path417" d="M205.4 245.9l3.7.1c.6 4.5-4 4.8-3.7-.1z" class="fil2 str2"/><path id="path419" d="M218.9 240.8c-1.2-.2-2.1-.9-2.7-2.3l-1.2.2 1 1.8c-2.2 0-3.6-.8-4-2.4h-1.5c1 2.6-8.3-2.7-9.2-7.6l-.6-.6c-3.3-1.4-5.7-5.2-7.3-7.8l-.4.3c-.4.4-.7 1-1 1.6 3.4 5.4 8.2 6.9-.5 7l.3 1.6c6-.2 6.5-1.7 7.8 0 1.2 1.6 5.3 6 3.9 5.9l1.9 2c1.6-.8 2.4 0 3.8.5 5.6 1.8 9.2 2.1 12.2 2.2-.4-1-1-1.8-1.7-2.4z" class="fil2 str2"/><path id="path421" d="M198 201.8c.7 1.8 1.5 3 1.8 4.7.9 5.3.3 10-2.8 13-1.3 1.4-3.4 2.3-4 2.9-2.6 2.7-1.6 10.2-.6 11.8l-4.9-1.2-6.1 3.4a9 9 0 01-.6-2.1l-.3-3c-.2-5.8 2.4-5.4 4.7-10 1-2-.6-5 2.6-8.8 1-1.1 2-1.6 2.9-2-.6-3.6 2.3-3.4 1.3-4.4a11 11 0 01-2.3-4z" class="fil3 str3"/><path id="path423" d="M186.1 185c1.9 1.8 3.7 2.5 3.6 3.8-.1 2.2-1.1 1.8-1 7.4 0 4.1 1.5 8 3.3 10 1 .9-1.9.7-1.3 4.2" class="fil4 str4"/><path id="path425" d="M216.2 238.5c1-3.4 3.9-3.1 4.1-5 .4-2.5-1.7-1.4-1.8-3.1 0-2.1 2.7-2.2 1.9-6l-12.9-2.4 7.5 16.7z" class="fil2 str2"/><path id="path427" d="M212 238.1c.3-2.7 4.8-2.4 4.6-4.4-.1-2.2-3.8-1.2-4-3.5-.2-2 2.2-2.7 1-5.5l-5.9-2.2c-4.5 1.1-5 3.3-1 7.7.9 1-2.3 1.6-1.6 3 .6 1.5 2.8-.7 5.4 5z" class="fil2 str2"/><path id="path429" d="M211.3 238.1c-.6-4.4-1.5-8.5-2.7-12.4" class="fil4 str2"/><path id="path431" d="M203.4 238.5l1.3 1.3c-4 .6-4.1 1.5-6.7 4.1-3.5 3.8-3-3.5-5-1.1-1.5 1.6-1.4 5-3.6 5-2.3-.1-.2-5.3-2.4-3.8-2 1.2-3.2 3.8-5 3.4-1.3-.2-1.6-4-.3-5.3 1.7-2-1.8-1.4-.4-3.9.5-.8 3.4-.4 4.6-1 1.1-.6-.7-3.1 1.9-3.4 2.6-.2 2.2 2.3 3.9 2.4 1.4 0 2.2-2.4 4.9-.1 3.4 2.9 4.3 2 6.8 2.4z" class="fil2 str2"/><path id="path433" d="M203.5 238.5c-9.3-1.2-15.8.2-19.6 4.1" class="fil4 str2"/><path id="path435" d="M187.9 236.9c1.4.4 2.7 1.2 4 1.7l-2 3.7" class="fil4 str2"/><path id="polyline437" class="fil4 str2" d="M194.7 237l1.5 1.2-.6 2.5"/><path id="path439" d="M186.8 140.4c.9.6 2.2 1 3.9 1 1.9 0 .3 1.8 1.6 4.2-.9.8-1.9 1.7-2.3 4.2-2.2-1.3-.2-4-1.9-6.4z" class="fil3 str3"/><path id="path441" d="M218.2 239.8c1.6.7 3.5 2.7 3.6 5.5.2 2.9 0 6.4 5.6 9 2.4 1.3 4.6 1.8 7.3.9 1.9-.6 3.1-3.4 1-4.1-1-.3-2.3-.1-3.7-.8-1.6-.8-1.7-2.9-1.2-3.4 1.2-1 2.7.6 5.2 1.3" class="fil4 str4"/><path id="path443" d="M224 234c2.7-2.3 4.7-.2 5.6 1.3 1.7 2.6.4 4.7 1.7 7" class="fil4 str4"/><path id="path445" d="M196.8 219.7c3.2-3 4-7.8 3-13.2-.4-2.6-2.4-4.3-2.6-8.6" class="fil4 str4"/><path id="path447" d="M234 250.8c-9.7-1.2-3.6-5-2.6-8.7.9-3.3.7-7.3 5.2-7 5.1.3 3.6 3.2 11.4 3.2 7.8 0 6.3-3 11.4-3.2 4.5-.3 4.3 3.7 5.2 7 1 3.6 7 7.5-2.6 8.7" class="fil4 str4"/><path id="path449" d="M236.8 252.6c0-1.4.5-3.5 1-4" class="fil4 str4"/><path id="line451" class="fil4 str4" d="M192.2 206.5l1.3.4"/><path id="path453" d="M187.3 197.2c6 6.4 10.3.7 19.4 4.8-8-3-3.1-12-19-8z" class="fil2 str2"/><path id="path455" d="M201 199c-2.2-1.7-4.5-3-7-4.1" class="fil4 str2"/><path id="path457" d="M184.6 206.8c0 .6 2 3 3.7 5.1l-.5.6-.7 1-.8-1.4-1-1.4-1-1.7-1-.9c-4-3.3 5.9-13.5-1.7-17.4l.3-1.1c1.2.4 3.5 3.5 2.1-1.3-1-3.3-3.7-5.8-6.3-12l.7-.4c2.4 4 5.6 9.6 6.4 8.7l.2-.9 1.2 1.4-.1.6.8-.6.7 1c-1.8 2.6-1.4 5-1.2 7.4l-3.2 10v3.2z" class="fil2 str2"/><path id="path459" d="M196.8 201c-.7 1.8-1.8 3.2-1.8 6.1 0 5 3.8 5.7 3.3 10-.3 2.8-4.5 4.5-5.3 5.3-2.6 2.7-1.6 10.2-.6 11.8" class="fil4 str4"/><path id="path461" d="M194.4 205.6c-.5 0-.7.2-.8.9-1 4.4-3.6 3.5-5.8 6-3.2 3.8-1.6 6.7-2.6 8.7-2.6 5.4-5.6 4-4.4 13 .2 1.2.5 2 .8 2.8" class="fil4 str4"/><path id="path463" d="M190 149.8c-2.2-1.3-.2-4-1.9-6.4-.6-1-1.5-1.7-2.2-2.4" class="fil4 str4"/><path id="path465" d="M185.6 139c.6 1.3 2.4 2.4 5 2.4 2 0 .4 1.8 1.8 4.2" class="fil4 str4"/><path id="path467" d="M184.6 206.8c-.5 1-1.3.7-1.8 0 .3-4.5 1.7-8 3.3-12.6 1-2.9 3.2.2 4-6.7.3-3.9 2.2.9 6-4.5 1.6-2.2 4.7-1.2 4.1.2-2 5 3.3 4.3-.7 6.6-5.3 3.2.8 5.8-4.8 6.3-10.8 1-10 7.4-10.1 10.7z" class="fil2 str2"/><path id="path469" d="M184.5 198.9c3.4-8.4 5.9-.5 13-14.5" class="fil4 str2"/><path id="polyline471" class="fil4 str2" d="M198.4 187.6l-2.8.3v-1"/><path id="polyline473" class="fil4 str2" d="M195.1 192l-3 .2 1.2-2.7"/><path id="path475" d="M230.7 240.3c-.5.4-.2 1-.7 1.1" class="fil4 str4"/><path id="path477" d="M222.7 244c-.5.2-.5.3-1 .8" class="fil4 str4"/><path id="path479" d="M247.4 249.2c-7.6 5.9-15.4 10.3-17.2 15.4l-4.8-.8c8.3-10 10.1-9 18.3-14.7l3.7.1z" class="fil2 str2"/><ellipse cy="0" cx="0" id="ellipse481" ry="1" rx="2.5" transform="matrix(-.98892 -.14072 -.10675 .6739 227.8 264.2)" class="fil2 str2"/><path id="path483" d="M277.8 239.8a6.5 6.5 0 00-3.6 5.5c-.2 2.9 0 6.4-5.6 9-2.4 1.3-4.6 1.8-7.3.9-1.9-.6-3.1-3.4-1-4.1 1-.3 2.3-.1 3.7-.8 1.6-.8 1.7-2.9 1.2-3.4-1.2-1-2.7.6-5.2 1.3" class="fil4 str4"/><path id="path485" d="M273.3 244c.5.2.5.3 1 .8" class="fil4 str4"/><path id="path487" d="M259.2 252.6c0-1.4-.5-3.5-1-4" class="fil4 str4"/><path id="path489" d="M248.6 249.2c7.6 5.9 15.4 10.3 17.2 15.4l4.8-.8c-8.3-10-10.1-9-18.3-14.7l-3.7.1z" class="fil2 str2"/><ellipse cy="0" cx="0" id="ellipse491" ry="1" rx="2.5" transform="matrix(.98892 -.14072 .10675 .6739 268.2 264.2)" class="fil2 str2"/><path id="path493" d="M236 248.2a67.1 67.1 0 0024 0" class="fil4 str4"/><path id="path495" d="M272 234c-2.7-2.3-4.7-.2-5.6 1.3-1.7 2.6-.4 4.7-1.7 7" class="fil4 str4"/><path id="path497" d="M265.3 240.3c.5.4.2 1 .7 1.1" class="fil4 str4"/><path id="path499" d="M290.6 240.4l2-2 14.2 4.1c.9 1.4.8 3 1.6 4.4 2 3.3-1 .8-.4 2.8.8 2 .5 4.5-1.4 3-2.4-1.7-2.8.4-4 0-1.5-.4-1-2-2-3.2-.4-.6-3.6 0-4.3-1.2-1.2-2-.9-2.2-2.8-3.7-1.1-.9-.3-2.7-2.9-4.2z" class="fil2 str2"/><path id="path501" d="M304.2 248.6c-3.3-4.4-7.3-6-12.6-9.1" class="fil4 str2"/><path id="line503" class="fil4 str2" d="M295.4 241.6l.3 2.5"/><path id="path505" d="M277.1 240.8c1.2-.2 2.1-.9 2.7-2.3l1.2.2-1 1.8c2.2 0 3.6-.8 4-2.4h1.5c-1 2.6 8.3-2.7 9.2-7.6l.6-.6c3.3-1.4 5.7-5.2 7.3-7.8l.4.3c.4.4.7 1 1 1.6-3.4 5.4-8.2 6.9.5 7l-.3 1.6c-6-.2-6.5-1.7-7.8 0-1.2 1.6-5.3 6-3.9 5.9l-1.9 2c-1.6-.8-2.4 0-3.8.5-5.6 1.8-9.2 2.1-12.2 2.2.4-1 1-1.8 1.7-2.4z" class="fil2 str2"/><path id="path507" d="M279.8 238.5c-1-3.4-3.9-3.1-4.1-5-.4-2.5 1.7-1.4 1.8-3.1 0-2.1-2.7-2.2-1.9-6l12.9-2.4-7.5 16.7z" class="fil2 str2"/><path id="path509" d="M284 238.1c-.3-2.7-4.8-2.4-4.6-4.4.1-2.2 3.8-1.2 4-3.5.2-2-2.2-2.7-1-5.5l5.9-2.2c4.5 1.1 5 3.3 1 7.7-.9 1 2.3 1.6 1.6 3-.6 1.5-2.8-.7-5.4 5z" class="fil2 str2"/><path id="path511" d="M284.7 238.1c.6-4.4 1.5-8.5 2.7-12.4" class="fil4 str2"/><path id="path513" d="M292.6 238.5l-1.3 1.3c4 .6 4.1 1.5 6.7 4.1 3.5 3.8 3-3.5 5-1.1 1.5 1.6 1.4 5 3.6 5 2.3-.1.2-5.3 2.4-3.8 2 1.2 3.2 3.8 5 3.4 1.3-.2 1.6-4 .3-5.3-1.7-2 1.8-1.4.4-3.9-.5-.8-3.4-.4-4.6-1-1.1-.6.7-3.1-1.9-3.4-2.6-.2-2.2 2.3-3.9 2.4-1.4 0-2.2-2.4-4.9-.1-3.4 2.9-4.3 2-6.8 2.4z" class="fil2 str2"/><path id="path515" d="M292.5 238.5c9.3-1.2 15.8.2 19.6 4.1" class="fil4 str2"/><path id="path517" d="M308.1 236.9c-1.4.4-2.7 1.2-4 1.7l2 3.7" class="fil4 str2"/><path id="polyline519" class="fil4 str2" d="M301.3 237l-1.5 1.2.6 2.5"/><path id="path521" d="M298.7 163.6c.1 1.4.2 2.6.5 3.5.1.5 1.6 3.6 3 3 .6-.2.1-1 .5-2l.3.2.3.1.3.2.3.2.3.2.3.2.3.2.2.1.2.2h.1l.1.2h.2l.1.2.2.1.1.1c4.7 3.7 7.9 8.5 5.6 12.5 2.1-3.6 1-9.2 2-11.5 1.5-3.4 4.5-5.8.3-8.8-4.6-3.2-6.6-4-7.3-6.3h-9.4c.9 1.5 1.2 4.7 1.5 7.4z" class="fil3 str3"/><path id="path523" d="M302.7 168c6.5 3.8 12 10.3 8.6 15.3-.4.7-1 1.3-1.4 1.7" class="fil4 str4"/><path id="path525" d="M297 155.9c1.5 1.9 1.5 8.6 2.2 11.2.1.5 1.6 3.6 3 3 .6-.2.1-1 .5-2 .8-2 2-3.2 3-4.4" class="fil4 str4"/><path id="path527" d="M311.3 183.3c2.5-3.6 1.3-9.6 2.3-12 1.5-3.4 4.5-5.8.3-8.8-6.2-4.3-7.7-4.1-7.7-9.6 0-9.4-4.7-5.5-5-12.3" class="fil4 str4"/><path id="path529" d="M190 183.3c3.1-1 8.3.4 25.1-6.5-18.6-4.5-17.7-3.1-25 6.5z" class="fil2 str2"/><path id="path531" d="M192.5 170.2l-.4 10.3c-.9-.6-5.5-14.6.4-10.3z" class="fil2 str2"/><path id="path533" d="M187.6 186.1l-.7-1c3.3-3.2 4.4-3.4 4.6-7 .2-2.6-1-6.2-.2-8 2.7-6.2 2.9 4 4.8-2 1.4-4.5 2.5-5.5 4.3-4.2.9.6 1 2.8-.3 5.5-2.1 4.8 3 2.6-.4 6.6-3.1 3.8-9 6-12.1 10.1z" class="fil2 str2"/><path id="path535" d="M195.8 173.5c-1.4 6-4.9 8.5-8.6 12" class="fil4 str2"/><path id="path537" d="M197.3 163.6c-.1 1.4-.2 2.6-.5 3.5-.1.5-1.6 3.6-3 3-.6-.2-.1-1-.5-2l-.3.2-.3.1-.3.2-.3.2-.3.2-.3.2-.3.2-.2.1-.2.2h-.1l-.1.2h-.2l-.1.2-.2.1-.1.1c-4.7 3.7-7.9 8.5-5.6 12.5-2.1-3.6-1-9.2-2-11.5-1.5-3.4-4.5-5.8-.3-8.8 4.6-3.2 6.6-4 7.3-6.3h9.4c-.9 1.5-1.2 4.7-1.5 7.4z" class="fil3 str3"/><path id="path539" d="M193.3 168c-6.5 3.8-12 10.3-8.6 15.3.4.7 1 1.3 1.4 1.7" class="fil4 str4"/><path id="path541" d="M199 155.9c-1.5 1.9-1.5 8.6-2.2 11.2-.1.5-1.6 3.6-3 3-.6-.2-.1-1-.5-2-.8-2-2-3.2-3-4.4" class="fil4 str4"/><path id="path543" d="M184.7 183.3c-2.5-3.6-1.3-9.6-2.3-12-1.5-3.4-4.5-5.8-.3-8.8 6.2-4.3 7.7-4.1 7.7-9.6 0-9.4 4.7-5.5 5-12.3" class="fil4 str4"/><path id="path545" d="M203 123.3h90v91.3c0 6-5 11-11 11l-23 .6a11 11 0 00-10.9 9.6h-.1a11 11 0 00-11-9.6l-23-.6a11 11 0 01-11-11z" fill="#dededd" stroke="#707477" stroke-width=".8" stroke-linecap="round" stroke-linejoin="round"/><path id="path547" d="M250.4 149.3c-6.2-1-6-6.5-4.7-11 .6-2 2.9-6.2 8-8-6-.4-7 4.2-8 3.8-.6-.2.3-4.4 1-6.1-3.2 2-2.3 7.6-2.5 9.5-.5 4.5-1.4 5-4.2 1.6-1-1.2-1.2-2.3-1.6-5-1.7 6 4 9 5.2 11.2.5 1-.5 1.7-2.3.9-1-.5-1.3-.6-2.2-2.2 1 5.6 4.5 2 7 6.2a5 5 0 012.7 0z" class="fil6"/><path id="path549" d="M275 177.6l.8 1.2c.5-.3 1.4-.6 1.4-1.7 0-1.9-.3.4-2.2.5-3-2.4-4-4-9-4-4.2 0-3.9 1.5-7.2 1.6-2.2 0-2.4-1-5.5-1.2-2-.1-4 1.5-5 .5-1.2-1-1.2-3.8-.3-4.8 5-5.7 4.9-12.7 4-16.2l-.7-.2c1.9.5 3.2.6 4-1.6.5-1.1 0-1-.5-.5-.8 1-2.4 1.2-3.3.9-1-1.2-2.4-2-3.9-2-3-.2-2.5 1.3-6.2 1.9l.1.4v-.4l-3 .2-.5 2.2c3.7 0 4.9 1.3 1.2 1.3-.5 0-1.8-.2-1.4.6.4.6.7.3 1.4.2l2.4.2c1 .1 1.1 1.4 2.7 1.7 1.9.3 3.5-1 5-3.1-1.5 2.1-3.1 3.4-5 3 0 2.1-.5 4.5-3.2 5-1 .2-10 1.8-10 10.1v5.2c.2 2 .8 3.3 1.2 4.6-3.4.8-3.7 1.3-5.5 1.8-2.8.7-5.8 1-9 .8l-.6.4c-1.5 3.6-5.8 6.2-9.3 9.2v.2c.3 1.4 0 3-.2 4.3l1.6-.6c0-1.2.1-2.3.7-3.2l.9-.4c2.8-3.1 5.5-5.1 8.6-7.5 2.3-.8 5.5-.7 7.4-.4 2.4.3 4.5 2.1 7.7 2.8a13.6 13.6 0 010 0c.3 1.3.6 2.7 1 3.5 1.4 2.7 1.8 4.7 1.5 8.2l.1.4c2 2.9 3.9 6 4.8 10.5v.2c0 1.2-1.2 3.3-2.9 5.2l1.7.5c.9-1.6 2.3-3.3 3.8-4.5v-.6c-2-3.8-3.4-8.2-4.2-12.6v-.4c-1.3-2.4-1.4-7.5.8-9.2.6-.5 0-5 .1-7.6 0 2.5.5 7-.1 7.6 4 3.5 10 .4 17.3-1.5a20 20 0 000 0c-1.6 1.5-1.5 6.2 1 14.8 0 2-2.9 6.3-5.3 8.5-.7 2.1-1.6 3.4-3.1 5l1.7.5a7 7 0 013-3.3l.6-.6c.5-2.9 3.9-7 6.2-9.7v-1c-1.9-2.4-2-3.5-2-4.4 0-2.9 4.7-2.8 6.4-7a15.1 15.1 0 010 0c8 4.7 10.7 6 14.2 11 1.7 2.5 2.8 6 4.2 10.2a17 17 0 01-2.8 4.3l1.7.5c.7-1.1 2-3.2 3.2-3.3l-.2-1.4a30.8 30.8 0 01-3-11.4l-.6-1c-5-3.2-8.8-8.2-8-12.8.4-3 3.6-4.6.1-10.4z" fill="#d52e26" stroke="#a92926" stroke-width=".6" stroke-linecap="round" stroke-linejoin="round"/><ellipse id="ellipse551" ry=".5" rx=".8" cy="152.7" cx="245.7" class="fil6"/><path id="path553" d="M297.4 142.1c-2 1.8-8 4.7-.5 13.8" class="fil4 str4"/><path id="path555" d="M198.6 142.1c2 1.8 8 4.7.5 13.8" class="fil4 str4"/><path id="path557" d="M238.6 152.1l-.6 2.3c-.7 0-.9-.8-.9-1.6 0-.7.5-.7 1.5-.7z" fill="#1f1a17" stroke="#1f1a17" stroke-width=".6" stroke-linecap="round" stroke-linejoin="round"/><path id="path559" d="M252.7 220.7v-1.6l-1.6-.5c-1 .5-1.7 1.2-2.3 2.1z" class="fil6 str8"/><path id="path561" d="M240.8 220.7v-1.6l-1.7-.5c-1 .5-1.7 1.2-2.3 2.1z" class="fil6 str8"/><path id="path563" d="M284.2 220.7v-1.6l-1.6-.5c-1 .5-1.7 1.2-2.3 2.1z" class="fil6 str8"/><path id="path565" d="M210.2 200.7l-.9-1.4-1.6.6c-.6 1-.7 2-.7 3z" class="fil6 str8"/><path id="path567" d="M248.8 150.2c.8.3 1.7.8 2.5 1.6 4-3.5 9.3-4.3 11.6-9 1.6-3.2 2-11.1-.6-15.7 1.5 11.4-.5 14.7-3 4-1.2 6.2 4.1 10.2.5 13.5-1.9 1.7-3.2-.4-4.5-5.5-1.8 4.6 1.7 6.2 0 8-2 2-4.5 1.9-4.9-2.9-1.2 1.6-.6 3.6 0 5.1l-1.3-.1H247z" class="fil6"/><path id="path569" d="M251.4 93.1a33.6 33.6 0 015.7-16.3c19-2.7 29.8 16.2 13.3 32.6l-17.8-3-3.2-7.3z" class="fil9 str9"/><path id="path571" d="M244.6 93.1a33.6 33.6 0 00-5.7-16.3c-19-2.7-29.8 16.2-13.3 32.6l17.8-3 3.2-7.3z" class="fil9 str9"/><path id="polygon573" class="fil2 str1" d="M223 106.6l2.6 2.8 17.8-3 3.2-7.3-2-6-.7-3.3h8l-.5 3.3-2 6 3.2 7.2 17.8 3.1 2.5-2.8.2 6h-50.2z"/><path id="path575" d="M235.4 108c-.3-13.5-1.5-21-3.6-31.4 2.5-.3 4.3-.3 6.5-.2 2.4 8.5 4 20.6 4 30.9z" class="fil2 str1"/><path id="path577" d="M231.6 101.9c1.6-.2 2.3.2 2.9 1.5h.3c.3-2.1.5-2.5 2-3.3v-.4c-1.7-.2-2-.5-2.9-2.3h-.3c-.1 1.5-.7 2-2.3 2.5-.2-2.5.2-3.6 1.7-4.4V95c-2.4-.6-2.8-1-3.7-3.2h-.5c-.2 2.6-.5 3-2.6 4.4v.4c1.7.2 2.4 1.1 2.9 3.6-1.7.2-2.4-.2-3-1.6l-.2.1c-.3 2-.5 2.4-2 3.2v.4c1.7.2 2 .5 2.9 2.4l.2-.1c.2-1.5.8-2 2.4-2.4 0 3.2 0 6.4-1.8 7.2 2.5-.7 5.2-1.2 8-1.5-2-.1-3.2-3-4-6.1z" class="fil2 str1"/><path id="path579" d="M220.3 105c2 3 2.3 4.8 4.9 5.3-1 .4-2 1.1-2.2 2l-3.5-7 .1 1.4a9.5 9.5 0 01-2-4.7l1 1.2c-.7-2.2-.5-2-1.4-4.1l-.3-1.9-.1-3.2h.2c1 2.7.7 3 2.1 3.6l.2.5c-.7 1-.8 2.2 0 4.8.7-.5.8-1.2.7-2.7h.2c.6 1.8 1 2 1.9 2l.1.5c-.5 1-.4 1.4.4 3.5-1-1.3-1.6-1.6-2.3-1.2z" class="fil2 str1"/><path id="path581" d="M260.6 108c.3-13.5 1.5-21 3.6-31.4-2.5-.3-4.3-.3-6.5-.2-2.4 8.5-4 20.6-4 30.9z" class="fil2 str1"/><path id="path583" d="M264.4 101.9c-1.6-.2-2.3.2-2.9 1.5h-.3c-.3-2.1-.5-2.5-2-3.3v-.4c1.7-.2 2-.5 2.9-2.3h.3c.1 1.5.7 2 2.3 2.5.2-2.5-.2-3.6-1.7-4.4V95c2.4-.6 2.8-1 3.7-3.2h.5c.2 2.6.5 3 2.6 4.4v.4c-1.7.2-2.4 1.1-2.9 3.6 1.7.2 2.4-.2 3-1.6l.2.1c.3 2 .5 2.4 2 3.2v.4c-1.7.2-2 .5-2.9 2.4l-.2-.1c-.2-1.5-.8-2-2.4-2.4 0 3.2 0 6.4 1.8 7.2-2.5-.7-5.2-1.2-8-1.5 2-.1 3.2-3 4-6.1z" class="fil2 str1"/><path id="path585" d="M275.7 105c-2 3-2.3 4.8-4.9 5.3 1 .4 2 1.1 2.2 2l3.5-7-.4 1.3a9.5 9.5 0 002.1-4.8l-.7 1.4c.6-2.2.4-2 1.3-4.1l.3-1.9.1-3.2h-.2c-1 2.7-.7 3-2.1 3.6l-.2.5c.7 1 .8 2.2 0 4.8-.7-.5-.8-1.2-.7-2.7h-.2c-.6 1.8-1 2-1.9 2l-.1.5c.5 1 .4 1.4-.4 3.5 1-1.3 1.6-1.6 2.3-1.2z" class="fil2 str1"/><path id="path587" d="M250.5 94.4c.4-13.6.7-11.5 2.1-16.4h-9.2c1.4 4.9 1.7 2.8 2.1 16.4z" class="fil2 str1"/><path id="path589" d="M252.6 78a4.7 4.7 0 01-9.2 0z" class="fil0 str1"/><path id="path591" d="M246.9 75.8h-3.5c.4-1.7 1.8-3.1 3.5-3.5z" class="fil0 str1"/><path id="path593" d="M249.1 72.3c1.8.4 3.1 1.8 3.5 3.5h-3.5z" class="fil0 str1"/><path id="path595" d="M249.1 72.3v3.5h3.5a4.7 4.7 0 010 2.2h-9.2a4.7 4.7 0 010-2.2h3.5v-3.5a4.7 4.7 0 012.2 0z" class="str1" fill="#96aebe"/><path id="path597" d="M247.4 67.7c-2 0-2.7.3-3.2 1v-3.3c.5.8 1.1 1 3.2 1 0-2-.3-2.7-1-3.2h3.3c-.8.5-1 1.2-1 3.2 2 0 2.7-.2 3.2-1v3.4c-.5-.8-1.2-1.1-3.3-1.1 0 2 .3 2.7 1.1 3.2v1.6a4.7 4.7 0 00-3.4 0v-1.6c.8-.5 1-1.1 1-3.2z" class="fil2" stroke="#70614e" stroke-width=".5" stroke-linejoin="bevel"/><path id="path599" d="M248.3 90.4c.7 2.5 1.2 2.9 3.9 3.8v.4c-2 .6-2.7 1.5-2.8 4 2 0 2.8-.5 3.3-2h.3c.7 2 1 2.3 3 2.8v.5c-2 .5-2.3.8-3 2.8h-.3c-.5-1.4-1.3-2-3.3-2 .5 3.2.8 6.2 3.2 6.6h-9.2c2.4-.4 2.7-3.4 3.2-6.6-2 0-2.8.6-3.3 2h-.3c-.7-2-1-2.3-3-2.8v-.5c2-.5 2.3-.8 3-2.8h.3c.5 1.5 1.3 2 3.3 2-.1-2.5-.8-3.4-2.8-4v-.4c2.7-1 3.2-1.3 3.9-3.8h.6z" class="fil2 str1"/><rect id="rect601" ry="1.1" rx="1.1" height="4.3" width="4.3" y="97.4" x="245.9" class="fil11 str11"/><rect y="0" x="0" id="rect603" ry="1.1" rx="1.1" height="3.7" width="3.7" transform="matrix(1.10829 .15131 -.1587 1.16235 264 98.7)" class="fil11 str11"/><rect y="0" x="0" id="rect605" ry="1.1" rx="1.1" height="3.7" width="3.7" transform="matrix(-1.10829 .15131 .1587 1.16235 232 98.7)" class="fil11 str11"/><rect y="0" x="0" id="rect607" ry="1.1" rx="1.1" height="3.7" width="3.7" transform="matrix(.19867 .09519 -.50689 1.05797 277.3 102)" class="fil11 str11"/><path id="path609" d="M277.8 102.3c1.2.5-.7 4.4-1.8 3.9-.1 0 0-.6.4-1.2l.7-1.6c.3-.6.6-1.1.7-1z" class="fil11 str11"/><rect id="rect611" ry=".9" rx=".9" height="2.5" width="2.5" y="83.1" x="246.8" class="fil0 str11"/><rect id="rect613" ry=".9" rx=".9" height="2.5" width="2.5" y="86.8" x="246.8" class="fil0 str11"/><rect id="rect615" ry=".9" rx=".9" height="3" width="3" y="101.3" x="255.8" class="fil0 str11"/><rect id="rect617" ry=".9" rx=".9" height="2.8" width="2.8" y="97.3" x="256.1" class="fil0 str11"/><rect id="rect619" ry=".9" rx=".9" height="2.7" width="2.7" y="93.3" x="256.5" class="fil0 str11"/><rect id="rect621" ry=".9" rx=".9" height="2.6" width="2.6" y="89.5" x="257" class="fil0 str11"/><rect id="rect623" ry=".9" rx=".9" height="2.5" width="2.5" y="85.6" x="257.6" class="fil0 str11"/><rect id="rect625" ry=".9" rx=".9" height="2.4" width="2.4" y="81.7" x="258.3" class="fil0 str11"/><rect id="rect627" ry=".9" rx=".9" height="2.3" width="2.3" y="78" x="259.1" class="fil0 str11"/><rect id="rect629" ry=".9" rx=".9" height="3" width="3" y="101.3" x="237.2" class="fil0 str11"/><rect id="rect631" ry=".9" rx=".9" height="2.8" width="2.8" y="97.3" x="237.1" class="fil0 str11"/><rect id="rect633" ry=".9" rx=".9" height="2.7" width="2.7" y="93.3" x="236.8" class="fil0 str11"/><rect id="rect635" ry=".9" rx=".9" height="2.6" width="2.6" y="89.5" x="236.4" class="fil0 str11"/><rect id="rect637" ry=".9" rx=".9" height="2.5" width="2.5" y="85.6" x="235.9" class="fil0 str11"/><rect id="rect639" ry=".9" rx=".9" height="2.4" width="2.4" y="81.7" x="235.3" class="fil0 str11"/><rect id="rect641" ry=".9" rx=".9" height="2.3" width="2.3" y="78" x="234.6" class="fil0 str11"/><rect y="0" x="0" id="rect643" ry="1.1" rx="1.1" height="3.7" width="3.7" transform="matrix(-.19867 .09519 .50689 1.05797 218.7 102)" class="fil11 str11"/><path id="path645" d="M218.2 102.3c-1.2.5.7 4.4 1.8 3.9.1 0 0-.6-.3-1.2l-.8-1.6c-.3-.6-.6-1.1-.7-1z" class="fil11 str11"/><path id="path647" d="M284.7 113c-1.5.6-2.7.4-1.5 3.4 2.1 5.1-1 4.9-3.5 6l-2 1.1c-4.4 2.6-5.8 1.4-7.3 0-2-1.7-5.4-.2-7.4-1.1-1.6-.8-3.2-4.6-3.5-7.8l9.3-.1c0 1 0 1.8.2 2.5 4.7 6.4 5.7 3.2 7.4 2.2 1.4-1 4.6-.2 2.4-4.3-3.2-5.7 4-9 6.2-7.3 3.2 2.6 6.2-.4 5.5 5.3l3.1-.7c.4-.1 2.3.7 2.9 2 .7 1.8-.7 2-8.6 5.1h-.1c-.7.2-1.8-1.1-3-6.3z" class="fil3 str3"/><path id="path649" d="M268.8 114.5c-.2 4 2 4.8 3.4 8.1 1.6 4.1 4.3 1.4 7.5-.1 2.5-1.2 5.6-1 3.5-6.1-1.6-3.8.9-2.4 3-4.3 3.8-3.3 4.2-2 4.3.8" class="fil4 str4"/><path id="path651" d="M259.5 114.6c.3 3.2 1.9 7 3.5 7.8 2 .9 5.5-.6 7.4 1.2 1.5 1.3 3 2.5 7.4-.1" class="fil4 str4"/><path id="path653" d="M290.5 113c.7-5.8-2.3-2.8-5.5-5.4-2.1-1.7-9.4 1.6-6.2 7.3 2.2 4.1-1 3.4-2.4 4.3-1.7 1-2.7 4.2-7.4-2.2" class="fil4 str4"/><path id="path655" d="M284.7 113c2.4 9.7 4.2 5.9 3.6 4.4" class="fil4 str4"/><path id="path657" d="M295.5 113.8c-4.5-2.5 0-1.7 1 .5.7 1.7-.8 1.8-8.7 5m7.7-5.4c-2.6.9-5.3 2-8.2 3.8-1.5-2.4-2.3-3.5 2.6-4.6l3.7-.9" class="fil4 str4"/><path id="path659" d="M211.3 113c1.6.6 2.7.4 1.5 3.4-2.1 5.1 1 4.9 3.5 6l2 1.1c4.4 2.6 5.8 1.4 7.3 0 2-1.7 5.4-.2 7.4-1.1 1.6-.8 3.2-4.6 3.5-7.8l-9.3-.1c0 1 0 1.8-.2 2.5-4.7 6.4-5.7 3.2-7.4 2.2-1.4-1-4.6-.2-2.4-4.3 3.2-5.7-4-9-6.2-7.3-3.2 2.6-6.2-.4-5.5 5.3l-3.1-.7c-.4-.1-2.3.7-2.9 2-.7 1.8.7 2 8.6 5.1h.1c.7.2 1.8-1.1 3-6.3z" class="fil3 str3"/><path id="path661" d="M227.2 114.5c.2 4-2 4.8-3.4 8.1-1.6 4.1-4.3 1.4-7.5-.1-2.5-1.2-5.6-1-3.5-6.1 1.6-3.8-.9-2.4-3-4.3-3.8-3.3-4.2-2-4.3.8" class="fil4 str4"/><path id="path663" d="M236.5 114.6c-.3 3.2-1.9 7-3.5 7.8-2 .9-5.5-.6-7.4 1.2-1.5 1.3-3 2.5-7.4-.1" class="fil4 str4"/><path id="path665" d="M205.5 113c-.7-5.8 2.3-2.8 5.5-5.4 2.1-1.7 9.4 1.6 6.2 7.3-2.2 4.1 1 3.4 2.4 4.3 1.7 1 2.7 4.2 7.4-2.2" class="fil4 str4"/><path id="path667" d="M211.3 113c-2.4 9.7-4.2 5.9-3.6 4.4" class="fil4 str4"/><path id="path669" d="M200.6 113.8c4.4-2.5-.1-1.7-1 .5-.8 1.7.7 1.8 8.7 5m-7.7-5.5c2.5 1 5.2 2.1 8.1 4 1.5-2.5 2.3-3.6-2.6-4.7l-3.7-.9" class="fil4 str4"/><path id="path671" d="M273 112.7c0-3-11.2-5.4-25-5.4s-25 2.4-25 5.4v7c0-2.4 11.2-4.4 25-4.4s25 2 25 4.4z" class="fil2 str1"/><rect id="rect673" ry="1.1" rx="1.1" height="3.6" width="3.6" y="109.5" x="246.2" class="fil11 str11"/><rect id="rect675" ry="1.1" rx="1.1" height="3.6" width="3.5" y="109.6" x="251" class="fil11 str11"/><rect id="rect677" ry="1.1" rx="1.1" height="3.6" width="3.5" y="109.9" x="255.7" class="fil11 str11"/><rect id="rect679" ry="1.1" rx="1.1" height="3.6" width="3.3" y="110.4" x="260.4" class="fil11 str11"/><rect id="rect681" ry="1.1" rx="1.1" height="3.6" width="3.1" y="111.1" x="264.9" class="fil11 str11"/><rect id="rect683" ry="1.1" rx="1.1" height="3.6" width="2.8" y="112.5" x="269.2" class="fil11 str11"/><rect id="rect685" ry="1.1" rx="1.1" height="3.6" width="3.5" y="109.6" x="241.5" class="fil11 str11"/><rect id="rect687" ry="1.1" rx="1.1" height="3.6" width="3.5" y="109.9" x="236.8" class="fil11 str11"/><rect id="rect689" ry="1.1" rx="1.1" height="3.6" width="3.3" y="110.4" x="232.3" class="fil11 str11"/><rect id="rect691" ry="1.1" rx="1.1" height="3.6" width="3.1" y="111.1" x="228" class="fil11 str11"/><rect id="rect693" ry="1.1" rx="1.1" height="3.6" width="2.8" y="112.5" x="224" class="fil11 str11"/></g></svg>