<svg xmlns="http://www.w3.org/2000/svg" xmlns:xlink="http://www.w3.org/1999/xlink" height="400" width="600"><path fill="green" d="M0 0h600v400H0z"/><path fill="#0038a8" d="M0 0h600v352H0z"/><path fill="#fff" d="M0 0h600v272H0z"/><g transform="scale(9.32448) rotate(-45 32.2 15.3)"><path d="M0 3V2h1v1h1V0h1v1h1v1H3v1h1V2h1v1h1v1H3v1h1v1h1V5h1v1H5v2z" fill="#0038a8" id="a"/><use height="100%" width="100%" xlink:href="#a" y="5" x="5"/><use height="100%" width="100%" xlink:href="#a" y="10" x="10"/><use height="100%" width="100%" xlink:href="#a" y="15" x="15"/><use height="100%" width="100%" xlink:href="#a" y="20" x="20"/><use height="100%" width="100%" xlink:href="#a" y="25" x="25"/><use height="100%" width="100%" xlink:href="#a" y="30" x="30"/><use height="100%" width="100%" xlink:href="#a" y="35" x="35"/><use height="100%" width="100%" xlink:href="#a" y="40" x="40"/></g></svg>