<svg xmlns="http://www.w3.org/2000/svg" height="400" width="600"><path fill="#fff" d="M112.2 0h350.9v400H112.2z"/><path fill="#2f418c" d="M0 0h151.2v400H0z"/><path fill="#d03528" d="M424.1 0H600v400H424.1z"/><path d="M219.3 114v145.1s0 6 4.2 9.4c4.4 3.6 9.7 3.3 9.7 3.3l41.7.1s6.1 0 9.1 4.5c2.6 3.8 3.6 8 3.8 9.2v.3-.3c.3-1.1 1-5.3 3.9-9.2 3.6-4.9 9.4-4.6 9.4-4.6h41.5s5.5.3 9.6-3.3c4.4-4 4.3-9.4 4.3-9.4v-145h-68.6z"/><path d="M220.4 115.3v129.4h10a32 32 0 00-2.8-8c-2.8-5.8-4.2-6.1-4.2-7.3 0-1.2 4-4.8 2.6-9.5-1-3.4-4-2.4-4.5-3-.5-.6-.9-6.7 1-16a169 169 0 0122.7-55.4c.4-.3 2.9 2.6 2.9 2.6s5 .2 6.1.5c1.1.4 2.9 2.4 2.9 2.4l3.3 1c1.2.5 2 .8 2.5 2-1.5 3.7-2 1.8-4.3 5-1.4.7-3.2.1-4.5 1-2 1.5-2.6 7.4-2.6 7.4s3.2.4 6.1-1.1c2.6-1.4 4.3-3.4 7.9-6 4.2-3 8.3-3.6 8.3-3.6l1.8 3.5c-2.3.4-2.6.2-6 4-3.3 3.7-3 5-6.3 8.7-3.3 3.7-5.4 3.8-7.8 5.4 2.7.4 9.8-1.1 11.5.6 1.5 1.5 1.3 2.8.8 4.1-.3 1-2.6 1.5-2.6 1.5s-1.5-.4-4-.3c-3.3 0-3 2.3-5.6 2.8-2.2.5-5.3 0-5.3 0s.3 1.1 3.8 1c-1.9 5-8.2 14-8.2 14s5.3 1 8.1 4.2c3.4 3.7 1.3 7.6 1.3 9.8 0 2.8-.9 5.1 1.9 8 2.7 3 6.7 2.3 6.7 2.3v4.4H255s-3.8-4-8-6.6c.2-1.2 1.2-4.4-.2-5.5-3-2.1-6.7-1.7-6.7-1.7l.4 5.8s-1.5 1.3-3 3.6c-1.7 2.2-2.2 3.7-2.2 3.7s-.6 4.4.8 8.7c.8 2 2.2 2.1 2.2 2.1s4.3-.4 6 1c1 .7 1.2 2 1.1 2.9H329c0-.9 0-2.3 1.2-3.1 1.7-1.3 6-1 6-1s1.4 0 2.1-2c1.5-4.3.9-8.8.9-8.8s-.6-1.5-2.2-3.7-3-3.6-3-3.6l.4-5.8s-3.8-.4-6.7 1.8c-1.4 1-.4 4.2-.3 5.5-4 2.6-8 6.5-8 6.5h-8.7v-4.3s4 .7 6.7-2.3 1.9-5.3 1.9-8c0-2.2-2.2-6.1 1.2-9.9 2.8-3.1 8.2-4.1 8.2-4.1s-6.3-9-8.3-14c3.6.1 3.9-1.1 3.9-1.1s-4.4.2-6.5-.2c-2.5-.6-4-3-7.3-3h-2.6s-1.4-.2-2.1-1.3c-.6-.9-.5-3.5.6-4.3 2.1-1.7 10 .3 12.8-.1-2.4-1.6-4-.9-7.8-4-3.8-3-3.5-4.6-6.4-8.7-3.2-4.6-3.5-3.8-5.8-4.2-2.7-1.2-1.3-4.2-1.3-4.2s4-1 8.1 2c3.6 2.6 7 5.5 11 7.3 3 1.4 6 1.2 6 1.2s-.5-6-2.6-7.4c-1.2-1-3-.4-4.5-1-2.3-3.2-2.7-1.4-4.3-5.1.7-1.2 1.3-1.5 2.6-2l3.3-1s1.7-2 2.9-2.3c1-.4 6-.5 6-.5s2.5-3 3-2.6c2.3 2 11.2 20 15.5 30.4 3.3 8.1 6 15.8 7.8 25A50.6 50.6 0 01354 217c-.5.7-4.5-.6-5.5 2.7-1.5 4.8 2.6 8.3 2.6 9.5 0 1.2-1.4 1.6-4.2 7.4a31 31 0 00-3 8h11.4V115.4z" fill="#ccc"/><path d="M265 186.3H260s0-4.6.4-5.2c.6-2.4 5.2-5.4 8.2-8.4 3.1-2.9 7-7.8 7-7.8l-.3 5.6c-5.6 5.9-10 8.8-10 8.8zM307.8 186.3h5.1s.1-4.6-.4-5.2c-.6-2.4-5.2-5.4-8.2-8.4-3-2.9-6.9-7.8-6.9-7.8l.2 5.6c5.7 5.9 10 8.8 10 8.8z" fill="#ddb523" stroke="#8c5700" stroke-width=".40627"/><path fill="#fff" stroke="#767479" d="M298 123.3h2.2V134h-2.1z" stroke-width=".40627"/><path d="M298.9 117.2s-.2 1.1-.8 2.5c-.7 1.5.5 2.6 1.2 3.5 0-.7.3-1.4.6-2.6.3-1.6-.5-2.4-1-3.4z" fill="#d23225" stroke="#4a0000" stroke-width=".40627"/><path fill="#fff" stroke="#767479" d="M270 123.2h2.1v10.9h-2z" stroke-width=".40627"/><path d="M270.8 117.2s-.2 1-.8 2.4c-.7 1.5.5 2.7 1.3 3.6 0-.8.2-1.5.5-2.7.4-1.6-.5-2.4-1-3.3z" fill="#d23225" stroke="#4a0000" stroke-width=".40627"/><path fill="#fff" stroke="#767479" d="M284.2 122.6h2v10.9h-2z" stroke-width=".40627"/><path d="M283 132.3a9.2 9.2 0 001.3 4.3s-1.5 3.8-1.2 8.4h4.2c0-5.7-1-8.5-1-8.5s1-1.7 1-4.2z" fill="#ddb523" stroke="#8c5700" stroke-width=".40627"/><path d="M273.4 158s2.9-2.2 2.7-7.8c5.9-1 5.2-6.1 8.8-6.2 3.8 0 4.2 4.7 9.3 6.2.5 5.6 3.7 7.8 3.7 7.8z" fill="#ddb523" stroke="#8c5700" stroke-width=".40627"/><path fill="#ddb523" d="M277.9 159h16v28.6h-16z"/><path fill="#ddb523" stroke="#8c5700" d="M275.3 187.5v-27h2.5v27zM293.6 187.5v-27h2.5v27z" stroke-width=".40627"/><path d="M286 167c-4.4 0-8.2.7-11.1 2.1l.2 3c2.5-1.3 5.9-2.4 10.6-2.4 4.3 0 7.8 1 10.5 2.5V169c-2.7-1.1-6.1-2-10.2-2zM286 175.6c-4.5 0-8.1.5-11 1.9v3.2c2.5-1.3 5.9-2.3 10.6-2.4 4.4 0 7.8 1.1 10.5 2.5v-3.3c-2.7-1.1-6.1-2-10.2-2z" fill="#ddb523" stroke="#8c5700" stroke-width=".40627"/><path d="M262.5 199.6h47.6s-8.2-16.2-24.6-16c-16.4.1-23 16-23 16z" fill="#d9251c" stroke="#8c5700" stroke-width=".40627"/><path d="M262.5 200.5v29.2l23.8-27.5 24 27.5v-29.2l-24 .1z" fill="#ddb523"/><path d="M264.2 210.6s.6.5 1.2 1.8c.5 1.2-.6 2.3.6 4 1.2 1.9 4.5 1.3 5.1-.4.7-1.7.2-3-1.2-3.3-1.3-.2-2.2 1.2-2.3 1.8-.3 0 0-1.8-1-2.7-1-.9-2.4-1.2-2.4-1.2z" fill="#ddb523" stroke="#8c5700" stroke-width=".40627"/><path d="M266.5 230.3h-4.2s2.1-6.1 4-8.7c2.2-3.2 6.5-5 6.5-5s-.2-3.2 1.1-5.3c1.9-2.8 5.3-3.5 7.5-6.3.9-1.1.8-4.1.8-4.1h4.2v2.2s-.4 2-1.6 3.5c-2 2.1-6.6 5.2-7.8 7.5-1.3 2.6-1 5.5-1 5.5s-3.1-.3-6.4 3.2c-2 2-3.1 7.5-3.1 7.5zM306.3 230.3h4.1s-2-6.1-4-8.7c-2.2-3.2-6.5-5-6.5-5s.3-3.2-1-5.3c-2-2.8-5.3-3.5-7.6-6.3-.8-1.1-.7-4.1-.7-4.1h-4.2v2.2s.3 2 1.6 3.5c2 2.1 6.5 5.2 7.7 7.5 1.4 2.6 1.1 5.5 1.1 5.5s3-.3 6.4 3.2c1.9 2 3 7.5 3 7.5z" fill="#ddb523" stroke="#8c5700" stroke-width=".40627"/><path fill="#ddb523" stroke="#8c5700" d="M263 199.6h47v2.1h-47z" stroke-width=".40627"/><path fill="#ddb523" stroke="#8c5700" d="M261 186.2h2.8v44h-2.7zM309.1 210.5s-.7.6-1.2 1.8c-.5 1.2.5 2.3-.6 4-1.2 1.9-4.5 1.3-5.2-.4-.6-1.7-.1-3 1.2-3.3 1.4-.2 2.2 1.2 2.3 1.8.4 0 0-1.8 1-2.7 1-.9 2.5-1.2 2.5-1.2zM309.2 186.3h2.7v44h-2.7z" stroke-width=".40627"/><path d="M274.7 203.3s1.5 0 1.8 1.6c.3 1.5-1.4 2-2.4 1-1-1.1-2-3.8-6-3.4-3.8.5-5 7-.2 7.6 3.4.5 3.2-2.6 3.2-2.6s-1.4 1.3-2.7.8c-1.3-.5-1.2-3.5 1.4-3.3 2.7.2 3.2 3.1 6 3.2 2.7 0 3.2-2.5 2.4-4.1-.9-1.6-3.5-.8-3.5-.8zM298.6 203.4s-1.5 0-1.8 1.6c-.3 1.5 1.4 2 2.3 1 1.1-1 2.1-3.7 6-3.3 3.8.4 5 7 .3 7.6-3.4.4-3.3-2.6-3.3-2.6s1.5 1.3 2.8.7c1.3-.5 1.2-3.4-1.4-3.3-2.7.2-3.2 3.1-6 3.2-2.7 0-3.2-2.5-2.4-4 .8-1.7 3.5-.9 3.5-.9zM256.6 230.2h62.9v6.9h-63z" fill="#ddb523" stroke="#8c5700" stroke-width=".40627"/><path d="M304 485.3a4.8 4.3 0 11-9.5 0 4.8 4.3 0 119.6 0z" transform="matrix(.36006 0 0 .378 180.5 49.7)" fill="#ddb523" stroke="#8c5700" stroke-width="1.1"/><path d="M289 233.1a.8.7 0 11-1.6 0 .8.7 0 111.6 0z" fill="#8c5700"/><path d="M288.3 236.5c1.3-2.2 4.6-5.4 8-5.3 2.2 0 3 1.4 3 2.9-.2 1.4-1.8 2.7-3.4 2.2-1.6-.5-1.6-2-1.6-2s1 .9 2 .6c1.2-.4 1.5-2.5-.7-2.5-2.3 0-5.3 2.7-7.3 4.1zM307.2 236.8c1.3-2.2 4.6-5.4 8-5.3 2.2 0 3 1.4 2.9 2.9-.1 1.4-1.7 2.7-3.3 2.2-1.6-.5-1.6-2-1.6-2s1 .9 2 .6c1.2-.4 1.5-2.5-.7-2.5-2.3 0-5.3 2.7-7.3 4zM288.2 236.5c-1.3-2.2-4.6-5.4-8-5.3-2.2 0-3 1.4-3 2.9.2 1.4 1.8 2.7 3.4 2.2 1.6-.5 1.6-2 1.6-2s-1 .9-2 .6c-1.2-.4-1.5-2.5.7-2.5 2.3 0 5.3 2.7 7.3 4.1z" fill="#ddb523" stroke="#8c5700" stroke-width=".40627"/><path d="M297.7 236.8c1.3-2.2 4.7-5.4 8.1-5.3 2.1 0 3 1.4 2.9 2.9-.2 1.4-1.8 2.7-3.4 2.2-1.6-.5-1.6-2-1.6-2s1 .9 2.1.6c1.1-.4 1.4-2.5-.7-2.5-2.4 0-5.3 2.7-7.4 4zM278.8 236.8c-1.3-2.2-4.6-5.4-8-5.3-2.2 0-3 1.4-3 2.9.2 1.4 1.8 2.7 3.4 2.2 1.6-.5 1.6-2 1.6-2s-1 .9-2 .6c-1.2-.4-1.5-2.5.7-2.5 2.3 0 5.3 2.7 7.3 4z" fill="#ddb523" stroke="#8c5700" stroke-width=".40627"/><path d="M269.2 236.8c-1.3-2.2-4.6-5.4-8-5.3-2.2 0-3 1.4-3 2.9.2 1.4 1.8 2.7 3.4 2.2 1.6-.5 1.6-2 1.6-2s-1 .9-2 .6c-1.2-.4-1.5-2.5.7-2.5 2.3 0 5.3 2.7 7.3 4zM249.2 237.1h77.6v6.7h-77.6z" fill="#ddb523" stroke="#8c5700" stroke-width=".40627"/><path d="M304 485.3a4.8 4.3 0 11-9.5 0 4.8 4.3 0 119.6 0z" transform="matrix(.36006 0 0 .378 180.5 56.4)" fill="#ddb523" stroke="#8c5700" stroke-width="1.1"/><path d="M289 239.8a.8.7 0 11-1.6 0 .8.7 0 111.6 0z" fill="#8c5700"/><path d="M288.2 242.5c-1.2-1.9-4.5-4.7-7.7-4.6-2 0-2.9 1.3-2.7 2.5 0 1.2 1.6 2.4 3.1 1.9 1.6-.5 1.5-1.8 1.5-1.8s-1 .9-2 .6c-1-.3-1.3-2.2.8-2.1 2.2 0 5 2.3 7 3.5z" fill="#ddb523" stroke="#8c5700" stroke-width=".40627"/><path d="M279.3 242.9c-1.2-2-4.4-4.9-7.7-4.7-2 0-2.9 1.2-2.7 2.5a2.5 2.5 0 003.1 2c1.6-.5 1.6-1.9 1.6-1.9s-1 .9-2 .6c-1-.3-1.4-2.2.7-2.2 2.2 0 5 2.4 7 3.7z" fill="#ddb523" stroke="#8c5700" stroke-width=".40627"/><path d="M270.2 243c-1.2-2-4.4-5-7.7-5-2 0-2.8 1.4-2.7 2.7.2 1.4 1.6 2.7 3.2 2.1 1.5-.5 1.5-2 1.5-2s-1 1-2 .7c-1-.3-1.3-2.4.7-2.3 2.2 0 5 2.5 7 3.8z" fill="#ddb523" stroke="#8c5700" stroke-width=".40627"/><path d="M261 242.9c-1.2-2-4.4-4.9-7.6-4.7-2 0-2.8 1.2-2.6 2.5.1 1.3 1.6 2.5 3 2 1.6-.5 1.6-1.9 1.6-1.9s-1 1-2 .6c-1-.3-1.3-2.2.7-2.2 2.2 0 5 2.4 6.9 3.7zM288.5 242.5c1.2-1.9 4.4-4.7 7.7-4.6 2 0 2.8 1.3 2.7 2.5-.2 1.2-1.6 2.4-3.2 1.9-1.5-.5-1.5-1.8-1.5-1.8s1 .9 2 .6c1-.3 1.3-2.2-.7-2.1-2.3 0-5.1 2.3-7 3.5z" fill="#ddb523" stroke="#8c5700" stroke-width=".40627"/><path d="M297.3 242.9c1.3-2 4.5-4.9 7.8-4.7 2 0 2.8 1.2 2.7 2.5a2.5 2.5 0 01-3.2 2c-1.5-.5-1.5-1.9-1.5-1.9s1 .9 2 .6c1-.3 1.3-2.2-.7-2.2-2.3 0-5.1 2.4-7 3.7z" fill="#ddb523" stroke="#8c5700" stroke-width=".40627"/><path d="M306.4 243c1.3-2 4.5-5 7.7-5 2 0 2.9 1.4 2.7 2.7-.1 1.4-1.6 2.7-3.1 2.1-1.6-.5-1.5-2-1.5-2s1 1 2 .7c1-.3 1.3-2.4-.8-2.3-2.2 0-5 2.5-7 3.8z" fill="#ddb523" stroke="#8c5700" stroke-width=".40627"/><path d="M315.7 242.9c1.2-2 4.3-4.9 7.5-4.7 2 0 2.8 1.2 2.7 2.5-.2 1.3-1.6 2.5-3.1 2-1.6-.5-1.5-1.9-1.5-1.9s.9 1 2 .6c1-.3 1.2-2.2-.8-2.2-2.2 0-5 2.4-6.8 3.7zM297 133.1c.2 2 .4 3.6 1.2 3.8 0 .9-.3 2.7-2.7 2.8-3 .1-4.3-2-6.5-2-2.2-.1-3.3 1.1-3.4 2.6-.2 1.5.5 3 2.7 3s2.6-2.8 1-3.2c-.6-.2.4 1.4-1 1.5-1.6.2-1.8-2.5.7-2.4 2.5 0 4.4 2.3 7.1 1.8 3-.5 3.5-2.7 3.9-4.1.7-.2 1-1.9 1.2-3.8z" fill="#ddb523" stroke="#8c5700" stroke-width=".40627"/><path d="M285 116.6c-.1 0-.2 1-.9 2.4-.7 1.5.5 2.7 1.3 3.6 0-.8.2-1.5.5-2.7.4-1.6-.5-2.4-1-3.3z" fill="#d23225" stroke="#4a0000" stroke-width=".40627"/><path d="M278.7 154.3s3.9 3 6.7 3c3 0 7-2.9 7-2.9l-3.1-4.2c-1.3-1.6-2-4.8-4-4.8-2.1.1-2.5 3.2-3.7 4.8l-3 4.1z" fill="#ddb523" stroke="#8c5700" stroke-width=".40627"/><path d="M276.4 158.2s2-2.4 2-6.5h2.9a12 12 0 01-1.3 6.5zM294.4 158.2s-2-2.4-2-6.5h-3a12 12 0 001.4 6.5zM284.3 148.2v6c.2 1.2 2 1.2 2.2 0v-6c-.3-1-1.8-1-2.2 0z" fill="#ddb523" stroke="#8c5700" stroke-width=".40627"/><path fill="#ddb523" stroke="#8c5700" d="M276 150.2h18.4v2H276z" stroke-width=".40627"/><path fill="#ddb523" stroke="#8c5700" stroke-width=".44689700000000004" d="M273.2 158h25v2.6h-25z"/><path fill="#ddb523" stroke="#8c5700" d="M273.2 187.5v-29.1h2.7v29.1zM295.4 187.5v-29.3h2.7v29.3z" stroke-width=".40627"/><path d="M315.4 129.3a2.4 2.4 0 00-2 3.7l-3.7 5.2-2.3-1.6v-.6a2.4 2.4 0 10-4.7 0c0 1.3 1 2.4 2.4 2.4.4 0 .9-.2 1.2-.4l2.4 1.7-35.7 50.8 1.2.9 35.9-50.8 2.6 2v.5a2.4 2.4 0 104.7 0 2.4 2.4 0 00-3.7-2l-2.6-1.9 3.7-5.2h.6a2.4 2.4 0 000-4.7z" fill="#ddb523" stroke="#8c5700" stroke-width=".40627"/><path d="M255.5 127.6a1.6 1.6 0 100 3.3h.1l2 2.9-2.1 1.5-.7-.1c-.9 0-1.6.7-1.6 1.6a1.6 1.6 0 003.3 0v-.1l2.1-1.5 2.9 4a2 2 0 000 1.6c.5.8 1.2 1.3 1.9 1.2l.8 1.2c-.2.8 0 1.8.6 2.8.8 1.4 2 2.2 2.9 2.1l.8 1.1h0c-.2.5 0 1.2.3 1.7.4.6 1 1 1.5 1l6.5 9.2c.1 1 .8 2.5 1.8 4a11 11 0 003 3l.8 1c0 .5 0 1.2.4 1.7.4.7 1 1.2 1.7 1.3l6.5 9.4s0 0 0 0l6.3 9.4 1-.8s-8.3-12.7-12.6-18.8c0-.6 0-1.3-.4-1.8-.5-.6-1-1.2-1.7-1.3l-.6-.8s0 0 0 0c-.2-1-.9-2.5-2-4a11 11 0 00-3-3l-6.5-9.3c.2-.5 0-1.2-.3-1.7-.4-.7-1-1-1.6-1l-1-1.4c.3-.7 0-1.8-.5-2.8-.8-1.4-2-2.2-2.8-2l-.7-1c.2-.5.2-1.1-.1-1.7a2 2 0 00-1.6-1.2l-2.9-4 2-1.5.7.1c1 0 1.7-.7 1.7-1.6 0-1-.8-1.7-1.7-1.7-.9 0-1.6.8-1.6 1.7v.2l-2 1.3-2.1-3 .1-.6c0-.9-.7-1.6-1.6-1.6zM273.2 133.1c-.2 2-.3 3.6-1.1 3.8 0 .9.2 2.7 2.7 2.8 3 .1 4.2-2 6.4-2 2.2-.1 3.3 1.1 3.5 2.6.1 1.5-.6 3-2.8 3-2.1 0-2.5-2.8-.9-3.2.6-.2-.5 1.4 1 1.5 1.5.2 1.8-2.5-.8-2.4-2.5 0-4.4 2.3-7 1.8-3-.5-3.6-2.7-3.9-4.1-.8-.2-1-1.9-1.2-3.8z" fill="#ddb523" stroke="#8c5700" stroke-width=".40627"/><g><path d="M220.3 245.4v12.9s-.2 5.3 3.8 8.9c4.1 3.6 10.6 3.3 10.6 3.3h40s5.8 0 9.3 4c2.8 3 3.5 5.5 3.7 6.5v.2l.1.2v-.4c.2-1 1-3.5 3.7-6.6 3.6-3.9 9.3-3.9 9.3-3.9h40s6.5.3 10.6-3.3c4-3.6 3.8-8.9 3.8-8.9v-13h-67.4zm43.2 2l3.2 3.9c2.7 0 4.8.1 6 .3 4.7.6 5.1 1.7 7.1 2.2l3.5.6s-2.2 1.7-3.4 2.2c-1.2.5-3.8 1-3.8 1s2.6 0 3.5.4c.9.3 1.7 1.2 1.7 1.2l-3 .4c-3.5.6-6.6 2.2-10.1 2.3H263c-.4.5-1 1-1 1.7 0 .6.7 1.9.7 1.9s-3.8.6-5.8.5c-2 0-6.2-.7-6.2-.7l1.8-3.3h-1l-8-.5-1.6 3-6.2-1 1.2-2.6c-2.5-.2-4.2-.3-5.4-.1-1.2.1-2.5 1-3.6 1.8-1.2.7-3.4 2.8-3.4 2.8s-.2-2.7.5-4c.7-1.4 2.5-2.4 2.5-2.4s-1.5-1.3-2.2-2.4c-.7-1.2-1.8-4.6-1.8-4.6s6 3.4 9.2 3.4c1.8 0 3.7-.2 5.5-.6l-2.2-2.3 7.6-3.6 2.7 4.3c2.7-.4 5-.9 7.4-1l-2.2-4zm44 0l11.8.7-2 4 6.9 1.2 2.8-4.4 7.4 3.6-2.2 2.3c1.9.4 3.7.6 5.5.6 3 0 9-3.4 9-3.4s-1.1 3.4-1.8 4.6c-.7 1.1-2.2 2.4-2.2 2.4s1.7 1 2.5 2.4c.7 1.3.4 4 .4 4s-2-2-3.3-2.8c-1-.8-2-1.6-3.5-1.8-.9-.2-2.8 0-5.3.1l1.2 2.6-6 1-1.6-3-7.8.5h-1l1.7 3.3s-4 .7-6 .7-5.7-.5-5.7-.5.8-1.3.7-2c0-.5-.6-1.1-1-1.5l-5-.1c-3.4-.1-6.5-1.7-9.8-2.3l-3-.4s.8-.9 1.6-1.2c.9-.3 3.4-.4 3.4-.4s-2.5-.5-3.7-1c-1.2-.5-3.3-2.2-3.3-2.2l3.4-.6c2-.5 2.4-1.6 7-2.2 1.1-.2 3.4-.4 6-.3z" fill="#056a9e"/></g><g fill="#e6e6e6"><path d="M267 251.9c-4 0-8.9.4-12.7.8-5.8.6-17.3 3.2-20.9 3.2-2 0-4-.6-5.4-1.1l-3.6-1.8s.7 2.2 1.5 3.5c.8 1.2 2 1.8 2.4 2.5-.6.5-.8.4-2.1 1.6-1.3 1.3-1.2 3.7-1.2 3.7s1.3-1.3 2.6-2.2a9.5 9.5 0 014-1.9c1.4-.2 16.2 1.2 21.2 1.2s14.3 0 16.4-.2c2.8-.4 5.4-1.5 8.2-2l2.7-.4s-.3-.3-1.4-.6c-1.2-.2-3.8.2-4.2-.5.6-.8 3-.8 4.4-1.4 1.5-.5 3-1.5 3-1.5l-2.4-.5c-2.2-.6-2.5-1.4-6.4-2.1a34 34 0 00-6-.3zm4.5.1c.4.4-3 2.2-3.1 5-.1 2.2 2.5 3.8 2 4-.4.4-3-1.7-2.8-3.9.2-3 3.5-5.5 3.9-5zm-3.2.3c.3.4-3 2-3.3 4.7-.3 2.6 2.1 3.7 1.7 4.1-.4.4-2.7-1.8-2.5-3.9.3-2.9 3.7-5.3 4-4.9zm5.7 1.6c.6 0 1 .4 1 1 0 .5-.4.9-1 .9s-1.1-.4-1.1-1c0-.5.5-1 1-1zm-12.7 1l1.8 3-3.5.2zm-3.5.3l1.5 2.8-3 .1zm-3.3.2l1.4 2.7h-2.8zm-3.3.4l1.4 2.4h-2.9zm-3.2.3l1.3 2.2h-2.8zm-3.4.2l1.2 2-2.4.1zm-3.3.3l1.2 1.8-2.3.1zm-3.2.3l1.1 1.6h-2.4zm-3.2.3l1 1.4h-2zM304.1 251.8c4 0 8.8.5 12.5.9 5.7.5 17 3.2 20.4 3.2 2 0 4-.6 5.3-1.1 1.2-.5 3.4-1.8 3.4-1.8s-.6 2.2-1.4 3.5c-.8 1.2-1.9 1.8-2.3 2.5.6.5.8.4 2 1.6 1.3 1.3 1.2 3.7 1.2 3.7s-1.3-1.4-2.5-2.2a9.1 9.1 0 00-4-1.9c-1.3-.2-15.8 1.1-20.7 1.2-4.9 0-13.8 0-15.9-.2-2.7-.4-5.3-1.6-8-2l-2.7-.4s.3-.3 1.4-.6c1.1-.2 3.7.1 4-.5-.5-.8-2.8-.9-4.2-1.4-1.5-.5-3-1.5-3-1.5l2.4-.5c2.1-.6 2.5-1.4 6.3-2.1 1.4-.3 3.5-.4 5.8-.4zm-4.3.2c-.4.4 3 2.2 3 5 .2 2.2-2.4 3.8-2 4 .5.3 3-1.7 2.8-3.9-.2-3-3.4-5.5-3.8-5.1zm3.2.3c-.4.4 2.9 2 3.2 4.7.3 2.6-2 3.7-1.7 4.1.4.4 2.6-1.8 2.4-4-.2-2.8-3.5-5.2-4-4.8zm-5.6 1.6c-.6 0-1 .4-1 1 0 .4.4.9 1 .9s1-.5 1-1-.4-1-1-1zm12.4 1l-1.8 3 3.5.1zm3.4.3l-1.5 2.8 3 .1zm3.2.2l-1.4 2.7h2.8zm3.2.4l-1.4 2.4h2.9zm3.2.2l-1.3 2.3h2.7zm3.2.3l-1.1 2 2.4.1zm3.2.3l-1.1 1.8h2.3zm3.3.3l-1.2 1.6h2.4zm3 .3l-.9 1.4h1.9z"/></g><g><path d="M262.3 182.8c-1 0-1.7 2-5 2.1 0 0-.3-4-.3-6.3 3 0 8.2-2 10.5.7 1 1.2 1.1 4.5-.5 5-3.3.9-3.7-1.4-4.7-1.5zM310.5 182.5c1 0 1.3 2.2 4.8 2.5l.6-6.7c-3-.2-8-2.4-10.3.3-1.1 1.2-1.5 4.4 0 5 3.3 1.1 3.9-1 4.9-1z"/></g></svg>