<svg xmlns="http://www.w3.org/2000/svg" xmlns:xlink="http://www.w3.org/1999/xlink" fill-rule="evenodd" viewBox="0 0 600 400"><defs><linearGradient id="a"><stop offset="0" stop-color="#4b453f" stop-opacity="0"/><stop offset=".5" stop-color="#4b453f"/><stop offset="1" stop-color="#4b453f" stop-opacity="0"/></linearGradient><linearGradient id="c" x1="282.5" x2="308.6" y1="61.9" y2="63" gradientTransform="matrix(1.55916 0 0 1.06075 -146.8 .5)" gradientUnits="userSpaceOnUse" xlink:href="#a"/><filter id="b" width="1" height="1" x="0" y="0" color-interpolation-filters="sRGB"><feGaussianBlur/></filter></defs><g filter="url(#b)"><path fill="#ffdc00" d="M0 0h640v400H0z"/><path fill="#008a3e" d="M0 0h100v400H0z"/></g><path fill="#2c2c2b" d="M355.6 188.6l-.8.4-.7.5-.8.4-.7.4-.7.5-.6.4-.7.5-.6.4-.6.5-.6.5-.6.4-.6.5-.5.5-.5.4-.5.5-.5.5-.4.5-.5.5-.4.5-.4.5-.3.5-.3.5-.3.6-.3.5-.3.5-.2.5-.4.7-.3.7-.3.7-.3.7-.3.8-.2.7-.3.7-.2.7-.2.8-.2.7-.1.7-.2.8-.1.7-.1.8-.1.7v.8l-.1.8v3.9l.1.7.1.8.1.8.2.8.2.9.1.8.3.8.2.8.3.8.3 1 .2.2.1.1v.2h.1v.7h-.1v.4h-.1v.4l-.1.1v.3l-.1.1v.3h-.1v.2l-.1.1v.2l-.1.2v.1l-.1.2v.1l-.1.2-.1.1v.1l-.1.2v.1l-.2.2v.1l-.1.1v.2l-.1.1-.1.1-.1.2-.1.1v.1l-.1.1-.1.1v.1h-.1l-.1.2h-.1v.1l-.2.2-.1.2-.2.1-.2.2-.2.2-.1.1-.2.2-1-1.4-1-1.4-1-1.4-1.2-1.2-1.2-1.2-1.2-1-1.3-1-1.3-.8-1.4-.8-1.4-.6-1.4-.6-1.5-.4-1.5-.4-1.5-.2-1.5-.2h-3l-1.5.1-1.5.3-1.5.3-1.5.4-1.4.5-1.5.6-1.4.7-1.4.8-1.3 1-1.3.9-1.3 1-1.2 1.2-1.1 1.3-1.2 1.3-1 1.4-.1.1-.2.2h-.1l-.2.2-.1.1-.2.2-.1.1-.1.1-.2.1-.1.2h-.2l-.1.2-.1.1-.2.1-.1.1-.2-.1-.2-.2-.3-.2-.2-.3-.3-.2-.2-.2-.2-.2-.2-.2-.2-.2-.2-.2-.1-.2-.2-.2-.1-.2-.2-.2-.1-.2-.1-.2-.1-.2-.2-.2v-.2l-.1-.2-.1-.2-.1-.2v-.2l-.1-.2-.1-.2v-.2l-.1-.2v-.4l-.1-.2v-.4l.1-.1v-6.4l-.2-1.3-.2-1.4-.2-1.3-.3-1.3-.3-1.2-.4-1.2-.4-1.2-.4-1.2-.5-1.1-.5-1.1-.5-1.1-.6-1.1-.6-1-.6-1-.7-1-.7-1-.7-1-.7-1-.8-.8-.8-1-.8-.8-.9-.9-.8-.8-1-.9-.8-.8-1-.8-.9-.8-1-.8-.9-.8-1-.6-1-.7-.9-.7-.8-.7-.8-.7-.7-.7-.6-.7-.6-.6-.5-.7-.5-.7-.4-.7-.4-.7-.3-.7-.3-.7-.2-.7-.2-.8-.2-.7-.1-.7v-.7l-.1-.7v-2.9l.1-.8.1-.7.2-.7.1-.8.2-.7.2-.7.1-.8.5-1.8-.8.6v-.9l.1-.2v-1.2l.1-.2v-1.4l.4-9v-.7l.3-9 .1-1 .1-.7.1-.9.2-.8.1-.7.2-.8.1-.7.2-.8.1-.7.2-.6.2-.7.1-.6.2-.7.2-.6.2-.6.2-.5.2-.6.2-.5.2-.5.2-.5.2-.4.2-.5.2-.4.3-.4.2-.4.2-.3.3-.4.2-.3.3-.3.2-.3.3-.2.3-.3.3-.6.4-.6.4-.5.3-.6.4-.5.3-.6.3-.5.4-.6.3-.5.3-.6.3-.5.3-.6.3-.5.3-.6.3-.5.3-.6.3-.5.2-.6.3-.5.3-.6.2-.5.3-.6.2-.5.3-.6.2-.5.3-.6.2-.5.2-.6.3-.5.2-.6.2-.5.2-.6.3-.5.3-.5.3-.5.3-.5.3-.5.4-.4.3-.5.4-.5.4-.4.4-.5.4-.4.4-.4.4-.5.4-.4.5-.3.4-.4.4-.4.4-.3.5-.4.4-.3.4-.3.4-.3.4-.2.4-.3.4-.2.4-.2.4-.2.3-.2.4-.2.3-.1.3-.1.3-.2.5-.2.4-.3.4-.2.4-.2.4-.3.5-.2.4-.2.5-.3.4-.2.5-.2.4-.2.5-.2.5-.2.5-.2.4-.2.5-.2.5-.2.5-.2.5-.2.5-.2.6-.2.5-.2.5-.2.5-.2.5-.2.6-.2.5-.1.6-.2.5-.2.6-.2.5-.1.5-.2-.3.3-.2.3-.2.2-.3.2-.2.3-.2.2-.3.3-.2.2-.3.2-.2.3-.2.2-.2.2-.4.2-.5.2-.4.3-.4.2-.4.3-.4.3-.4.3-.3.3-.4.3-.3.3-.3.3-.3.4-.3.3-.3.4-.2.3-2 2.7 2.4-1.9.2-.1.2-.2h.1l.2-.2.2-.1.2-.1.1-.2h.2l.2-.2h.2l.1-.2h.2l.2-.1.2-.1h.2l.1-.2h.4l.2-.1h.2l.2-.1h.2l.2-.1h.4-.1l-.3.3-.2.3-.3.3-.2.3-.2.3-.2.3-.2.3-.2.3v.3l-.2.4v.3l-.2.4v1.4l.2.3.1.4.2.3.2.4.2.3.3.3.3.3.3.3.4.3.4.2.5.3 2.6 1.2-2-2-.3-.2-.3-.3-.2-.3-.2-.3-.2-.2v-.3l-.2-.3v-.2l-.1-.2v-1l.1-.2.1-.3.1-.2.2-.2.2-.3.2-.2.3-.2.3-.3.3-.2.3-.2.4-.3.4-.2.5-.3.4-.2.5-.2.6-.2.3-.2v.7l.1.1v.2l.1.2v.1l.1.2.1.1v.2l.4 1v.3l-.2.2v.2l-.1.3v.2l-.1.2v1.9l.1.2v.2l.1.3.6 1.8.3-1.9v-.5l.2-.2v-.2l.1-.3.1-.2.1-.2.1-.2.1-.2.2-.2v-.2l.2-.2.2-.2.2-.1.1-.2.2-.2.2-.1.2-.2.3-.1.2-.2.2-.1.3-.1.3-.2.2-.1.3-.1.3-.1.4-.1.3-.1.3-.1.4-.1.4-.1.3-.1.2-.1.2-.1.3-.2.2-.1.2-.2.2-.1.2-.2.2-.2.1-.2.2-.2.2-.2.1-.2.2-.2.2-.3.1-.2.1-.2.2-.3.1-.2.1-.3.2-.3v-.2l.2-.3.1-.3.1-.3.2-.3v.9l-.1.2v.2l-.1.2v.2l-.2.2v.2l-.1.2-.2.3-.1.2-.1.2-.2.2-.2.3-.2.2-.2.3-.3.2-.3.3-.3.3-.3.2-.3.4-.3.3-.2.3-.2.3-.1.3-.1.4-.1.3v1.4l.1.2.2.2.1.2.2.2.2.2.2.1.3.1.2.1h.3l.3.1h.9l.4-.1.3-.1.3-.2.4-.2.3-.2.4-.2 1.5-1.2-1.9.3h-.4l-.3.1h-1.4l-.1-.1v-.9l.1-.2.4-.3.4-.4.3-.3.3-.4.3-.3.3-.4.2-.4.2-.3.2-.4.2-.3.1-.4.2-.3V98l.2-.3.2.2.2.2.2.3.1.2.1.3.1.3.1.2.1.3v.3l.1.2v.3l.1.3v1.3l.9-.5.3-.2.3-.2.2-.3.3-.2.2-.2.2-.3.2-.3.1-.2.2-.3.1-.3.2-.3v-.2l.2.4v.2l.3.6v.2l.2.6.5 1.2.4-1.3.1-.3v-.2l.1-.3.1-.3V99l.1-.3v-.5l.1-.3v-1.7l-.1-.3v-.5l-.1-.3-.1-.3v-.3l-.2-.3V94l-.1-.3-.1-.2-.1-.3-.1-.3-.2-.3h.7l.2.1h.5l.2.1h.5l.2.1.4.1.5.1.5.2.5.2.5.2.6.2.5.2.6.2.5.3.6.3.6.3.6.3.6.3.7.4.6.4.7.3.6.4.7.4.7.4.6.4.7.5.7.4.8.4.7.5.7.5.8.4.7.5.8.5.7.5.8.4.8.5.7.5.2.2.3.3.3.3.2.4.3.3.3.3.3.4.3.4.3.4.3.4.3.4.3.4.3.5.3.5.3.5.3.5.3.5.4.5.3.6.3.6.3.6.4.6.3.6.3.7.3.6.4.7.3.7.4.8.3.7.3.8.4.8.3.8.2.4.2.4.1.5.2.4.2.4.2.5.1.4.2.4.2.5.2.4.2.4.1.4.2.5.5 1.3.2.4.2.4.2.5.1.4.2.4.2.5.2.4.1.4.2.4.2.5.2.4.2.4.1.5.5 1.2.2 1.2.2 1.1.1 1.1.2 1.1v1l.1 1.1.1 1v1l.1 1v6.7l-.1.8v1l-.1.8v1l-.1.8v1l-.1.8v1l-.1.9v1.9l-.1.9v5.6l-.2-.2-.6-.8-2-2.5.9 2.8.2.7.3.8.2.7.2.8.2.7.1.7.2.7.1.7.1.7v.7l.1.7v3.3l-.1.6-.2.6-.1.6-.2.6-.2.6-.3.6-.3.5-.3.6-.3.5-.4.5-.5.5-.4.6-.5.4-.6.5-.6.5-.8.4-.8.4-.9.4-.8.4-.8.5zM273 244.9l.1.6v.6l.1.7v.7l.1.7.1.7.1.7.2.7.1.6.2.7.2.7.2.6.2.7.2.6.3.7.3.6.3.6.3.7.4.6.4.6.4.6.4.6.4.6.5.6.5.6.5.6.5.6.6.6.6.5.6.6.6.5.7.6.5.4-.2.7-.1.8-.2 1-.1.8-.1.9-.1.8v1l-.1.8v2.5l.1.8.1.9.2.8.2.8.2.8.3.8.3.7.3.8.4.8.4.7.5.7.5.8.6.7.6.7.7.6.7.7.7.7.9.6.8.6 1 .6.6.4-.2.5-.3.9-.4.8-.3.9-.2.8-.3.9-.2.9-.2.8-.1 1-.2.8v4.2l.2.8.1.8.3.8.3.8.3.7.4.7.5.7.5.7.6.6.6.6.7.5.8.5.8.5 1 .4 1 .4 1 .3 1.1.3h1.4l1.2-.1 1-.2 1.1-.3 1-.3.7-.4.8-.4.6-.5.6-.6.5-.5.5-.7.4-.6.3-.7.3-.7.2-.8.2-.7.2-.8v-.7l.2-.8v-.8l.1-.8.1-.7v-.8l.1-.7v-.7l.2-.8v-.6l.2-.7.1-.6.2-.6.2-.5.2-.5.2-.4.2-.4.1-.4.2-.3.3-.3.2-.3.2-.2.2-.2.2-.2.3-.2.2-.2.2-.1.2-.1h.2l.2-.1h.7v.1l.2.1v.3l.1.2v1.1l-.1.4-.1.4-.2.3v.2l-.2.1-.2.2-.1.3-.2.2-.1.2-.2.3-.1.2-.1.3-.2.3-.1.3-.1.3-.1.3-.2.3v.4l-.2.3v.4l-.1.4-.1.3v.4l-.2.4v1.3l-.1.4v3.4l.2.3v.2l.1.3v.2l.1.3.1.3.1.2v.3l.2.2v.3l.1.2.1.3.1.2.1.2.2.3v.2l.2.3.1.2.2.2.1.3.2.2.1.2.2.2.2.2.2.3.2.2.2.2.2.2.3.2.2.2.3.2.3.2 1 .3 1.1.2 1 .2h3.9l.8-.3.9-.2.8-.3.9-.4.8-.4.7-.4.8-.6.7-.5.6-.6.7-.7.6-.6.6-.8.5-.7.5-.8.4-.8.5-.9.3-.9.4-.9.3-1 .2-.9.2-1 .2-1 .1-1v-2l-.1-.7v-.3l-.3-.6v-.3l-.3-.7v-.2l-.2-.7v-.2l-.3-.7v-.2l-.3-.7v-.2l-.2-.7v-.2l-.3-.7.3-.4.3-.5.3-.5.4-.5.3-.5.3-.6.4-.5.3-.5.3-.5.3-.5.3-.6.3-.5.3-.5.2-.6.3-.5.2-.5.3-.6.2-.5.2-.6.3-.5.2-.6.1-.5.2-.6.2-.5.1-.6.2-.6v-.6l.2-.5v-.6l.1-.6v-.6l.1-.6v-.4l.2-.4v-.4l.2-.4.1-.3.1-.4.1-.4.2-.4.1-.3.2-.4.1-.3.2-.3.2-.4.1-.3.2-.3.2-.3.2-.4.2-.3.2-.3.2-.3.2-.3.2-.3.2-.2.2-.3.2-.3.3-.3.2-.3.2-.2.3-.3.2-.3.2-.3.3-.2.3-.5.3-.5.3-.5.2-.4.3-.5.2-.5.3-.5.2-.5.2-.5.2-.5.2-.5.2-.5.2-.5.2-.5.1-.6.2-.5.1-.5.2-.6v-.5l.2-.6v-.5l.2-.6v-.6l.1-.5v-.6l.1-.6v-1.8l.1-.6v-.9l.4-.2.4-.1.4-.2.3-.1.4-.2.3-.3.1.2.2.4.2.4.2.4.2.3.1.4.2.4.2.5.1.4.1.4.2.4.1.4.1.4.2.4v.5l.2.4v.4l.2.5v.4l.1.5.1.4v.4l.1.5v.5l.1.4v.5l.1.4v2.8l-.2.6-.2.5-.1.6-.2.5-.1.6-.1.5-.1.6-.1.5v.6l-.1.5v3.5l.2.5v.6l.2.6.2.6.2.6.3.6.2.6.3.6.4.7.3.6.4.6.5.6.4.7.6.6.5.7.7.4.7.4.6.4.6.5.5.4.6.4.5.4.6.4.5.3.4.4.4.4.4.4.4.4.4.4.2.3.3.4.2.3.2.4.1.3.1.3v1.3l-.2.2-.2.3-.2.3-.3.3-.4.4-.4.3-.5.3-.7.3-.2.9-.1.6-.1.7-.1.6v.6l-.1.6v2.3l.1.6.1.5.2.5.1.5.2.5.3.5.2.4.3.4.3.4.4.4.4.4.4.3.5.3.5.3.5.2.6.2.6.2.6.2.7.1.7.1h.7l.9.1.9-.3.8-.3.8-.3.8-.3.7-.3.7-.4.8-.3.6-.4.7-.4.6-.4.6-.5.6-.4.5-.5.5-.5.5-.5.4-.5.4-.6.4-.6.4-.6.3-.6.2-.6.3-.7.1-.7.2-.7.1-.7v-.8l.1-.7v-1.7l-.2-.8-.1-.9-.2-1-.3-.6-.3-.7-.3-.7-.3-.6-.3-.6-.3-.6-.2-.5-.3-.5-.3-.5-.3-.5-.3-.5-.3-.4-.3-.4-.3-.4-.3-.4-.3-.3-.2-.4-.3-.3-.3-.3-.3-.3-.3-.3-.3-.3-.3-.3-.3-.2-.3-.3-.3-.2-.3-.2-.3-.2-.2-.2-.3-.2-.3-.2-.3-.2-.4-.3-.4-.3-.4-.3-.3-.3-.4-.2-.3-.3-.3-.3-.2-.3-.3-.3-.2-.3-.3-.3-.2-.2-.2-.3-.1-.3-.2-.3-.1-.3-.2-.2v-.3l-.2-.3-.1-.3v-.3l-.2-.3v-.2l-.1-.3v-.3l-.1-.3v-.6l-.1-.3v-.9l-.3-.5-.1-.5-.1-.5-.2-.5v-.4l-.2-.5-.1-.4-.1-.5v-.4l-.1-.4-.1-.4v-.4l-.1-.4V251l.1-.3v-.3l.1-.2.1-.3.1-.2.1-.2.1-.2.1-.2.1-.2.2.1.2.1.3.1.2.1.3.1.2.1v2.8l.1.7v1.6l.1.7.1.8.1.8.1.7.2.8.1.8.2.7.3.8.2.8.3.7.4.8.4.7.4.8.5.7.5.8.6.7.6.7.7.7.8.7.8.7.9.7 1 .7 1 .7 1 .7 1 .6.2.9.3 1 .4 1 .4 1 .5.9.6.8.6.8.7.7.7.7.8.6.8.5.9.5.8.4 1 .3.8.3 1 .2h.9l.9.1h1l.8-.1 1-.2.8-.2.9-.4.8-.4.9-.5.7-.6.7-.7.7-.7.6-.9.6-1 .5-1 .4-1.1.3-1 .2-1v-1l.1-.9v-2.5l-.2-.8-.2-.8-.2-.7-.3-.7-.3-.7-.3-.7-.4-.6-.5-.7-.4-.6-.5-.5-.5-.6-.6-.5-.6-.5-.6-.5-.6-.5-.7-.5-.7-.5-.7-.4-.7-.4-.7-.4-.8-.5-.7-.4-.8-.3-.8-.4-.5-.3v-.9l.1-1.1v-3.1l-.1-1-.2-.9-.1-.9-.2-.8-.2-.8-.3-.8-.3-.7-.3-.8-.3-.6-.4-.7-.4-.6-.4-.6-.4-.6-.5-.5-.4-.6-.5-.5-.5-.4-.6-.5-.5-.4-.6-.5-.5-.4-.6-.4-.6-.3-.6-.4-.6-.4-.6-.3-.4-.2.2-.7.3-1 .3-.9.2-1 .2-.8.1-1 .1-.8.1-.9.1-.8v-4l-.1-.8-.1-.8-.2-.7-.1-.7-.2-.7-.2-.7-.2-.7-.3-.7-.2-.6-.3-.7-.3-.6-.3-.7-.3-.6-.4-.6-.4-.6-.4-.6-.4-.6-.1-.2 1.3-1 1.7-1 1.5-1.3 1.5-1.2 1.4-1.3 1.2-1.3 1.3-1.4 1-1.3 1.1-1.5 1-1.4.8-1.5.8-1.6.7-1.5.6-1.6.5-1.7.4-1.7.4-1.7.2-1.7.2-1.8v-5.6l-.2-2-.3-1.9-.3-2-.4-2-.5-2-.7-2.2-.6-2.1-.8-2.2-.9-2.2-1-2.3v-.3l-.2-.3v-.3l-.2-.3v-.3l-.2-.4v-.6l-.1-.3v-.3l-.1-.3v-2.5l.1-.3v-.4l.1-.3.1-.3.1-.3.1-.3.1-.3.1-.3.2-.4.1-.3.1-.3.2-.3.2-.4.1-.8.1-.7.1-.7.1-.7v-.7l.2-.7v-.8l.2-.7v-.7l.2-.8v-.7l.1-.7v-.8l.1-.7v-.8l.1-.7v-3.7l-.1-.7-.1-.7-.1-.8-.1-.7-.2-.7-.2-.7-.2-.7-.2-.7-.3-.7-.3-.7-.3-.7-.3-.6-.3-.7-.3-.6-.3-.7-.2-.6-.3-.6-.3-.7-.2-.6-.2-.7-.3-.6-.2-.7-.2-.6-.2-.7-.2-.6-.2-.7-.2-.6-.1-.7-.2-.6-.1-.7-.2-.6v-.7l-.2-.6v-.7l-.2-.7v-.6l-.1-.7-.1-.6v-.7l-.1-.7v-2l-.2-1.4-.2-1.4-.3-1.4-.3-1.4-.4-1.4-.4-1.4-.5-1.4-.5-1.4-.6-1.3-.7-1.4-.6-1.3-.8-1.3-.8-1.3-.8-1.4-.8-1.3-1-1.3-.9-1.2-1-1.3-1-1.3-1-1.3-1.1-1.2-1.1-1.3-1.2-1.3-1.2-1.2-1.2-1.2L371 69l-1.3-1.2-1.2-1.3-1.3-1.2-1.4-1.2-1.3-1.2-1.4-1.3-3.4-2.2-3.4-2.1-3.4-2-3.4-1.7-3.4-1.6-3.4-1.3-3.4-1.2-3.4-1-3.4-1-3.3-.6-3.4-.5-3.4-.3-3.3-.2h-3.4l-3.3.3-3.4.4-3.3.5-3.3.8-3.4.9-3.3 1.1-3.3 1.3-3.3 1.4-3.3 1.7-3.3 1.8-3.3 2-3.3 2.1-3.2 2.4-3.3 2.5-3.3 2.7-3.2 2.9-3.3 3-3.2 3.3-1 1.2-1 1.3-1 1.3-.9 1.3-.9 1.3-.8 1.3-.8 1.3-.8 1.3-.8 1.3-.7 1.4-.7 1.3-.6 1.3-.7 1.4-.6 1.3-.5 1.4-.6 1.4-.5 1.3-.5 1.4-.4 1.4-.5 1.4-.4 1.4-.4 1.3-.3 1.4-.4 1.4-.3 1.4-.3 1.5-.3 1.4-.3 1.4-.2 1.4-.2 1.4-.2 1.5-.2 1.3-.4 1-.4 1-.4 1-.3 1-.4.9-.2 1-.3 1-.3 1-.2 1-.2 1-.1.9-.2 1v1l-.2 1v1.9l-.1 1v3l.1.9v1l.2 1v1l.2 1 .2.9.1 1 .2 1 .2 1 .2 1 .2.9.2.8-.7 1.8-.7 1.8-.8 1.9-.6 1.8-.7 1.9-.6 1.9-.6 1.8-.5 1.9-.4 1.8-.4 1.9-.4 1.9-.3 1.8-.2 1.9v1.9l-.1 1.8v1.9l.1 1.9.2 1.8.3 1.9.4 1.9.6 1.8.6 2 .7 1.8.8 1.8 1 2 1 1.8 1.3 1.8 1.3 2 1.5 1.8 1.6 1.8 1.8 1.9 1.7 1.6-.2.4-.4.6-.3.6-.3.6-.3.7-.3.6-.2.6-.3.7-.2.7-.2.7-.2.7-.1.7-.2.7v.7l-.2.8v.7l-.1.8v3.2l.1.8.1.9.1.9.2.8.2 1 .2.8.2 1 .3 1 .3.9.3 1 .2.5h-.4l-1 .3-.8.2-.8.2-.9.3-.8.3-.7.3-.8.4-.7.4-.7.4-.6.5-.7.5-.6.5-.5.6-.5.6-.5.7-.5.7-.4.7-.4.8-.3.8-.3.8-.3 1-.2.8-.1 1-.2 1v5.9l.2 1.3.2 1-3 1.7-2.7 1.8-2.2 1.9-2 1.9-1.4 2-1.1 1.9-.8 1.9-.4 1.9-.2 1.9.2 1.8.3 1.8.6 1.6.8 1.6 1 1.5 1.1 1.3 1.3 1.2 1.4 1.1 1.4 1 1.5.6 1.5.6 1.5.3 1.5.2 1.5-.1 1.4-.4 1.3-.6 1.2-.9 1-1.1.9-1.5.6-1.8.5-2 .1-2.4v-2.5l.5-.4.8-.5.7-.5.7-.5.6-.5.6-.6.6-.6.5-.6.5-.6.5-.6.5-.7.4-.6.4-.7.4-.7.3-.6.3-.7.3-.8.3-.7.3-.7.2-.7.3-.8.2-.7.2-.8.2-.7.2-.8.1-.8.2-.7.2-.8.1-.8.2-.8v-.7l.2-.7.1-.1.2-.2h.1l.2-.1h.1v.1l.1.1v4.1l-.1.4v.9l-.1.5v.9l-.1.4v7l-.1.3v1l-.1.3v.6l-.1.2v.3l-.2.2v.3l-.6.2-.7.4-.8.4-.7.5-.7.5-.7.6-.6.7-.6.7-.6.7-.6.8-.5.8-.5.9-.5.8-.4 1-.4.9-.3 1-.3 1-.2 1-.1 1-.1 1v2l.1 1 .2 1 .3 1 .3 1 .5 1 .5.9.7.9.7.9.8.8 1 .9.8.2.7.2.6.2.7.1.7.2h.7l.6.2h.7l.6.2h2.4l.6-.1.6-.1.5-.2.5-.2.6-.2.4-.3.5-.3.5-.3.4-.4.4-.5.4-.5.3-.5.3-.6.3-.7.3-.7.2-.7.2-.8.2-1 .1-.8.1-1 .1-1 .2-.8.2-.8.2-.7.2-.7.3-.7.2-.6.3-.6.3-.5.3-.6.3-.5.3-.5.3-.4.3-.5.3-.5.2-.4.3-.5.3-.5.2-.4.3-.5.2-.5.1-.5.2-.6.1-.5v-.6l.1-.7v-1.9l-.2-.8-.2-.7.2-.6.1-.7.2-.6.1-.7.2-.7.3-1.3.1-.7.2-.6.1-.7.2-.7.1-.6.2-.7.3-1.3.1-.7.2-.7.2-.6.1-.7.2-.7.1-.7.3-1.3.2-.7.1-.6.3-1.4.2-.6.1-.7.3-1.3.2-.7v-.3l.2-.3.1-.3.1-.3.1-.3.1-.3.1-.3.2-.3v-.3l.2-.3v-.4l.2-.3.1-.3zM308.8 102l.4-1 .2-.4.2-.4.2-.3.2-.3.3-.3.2-.3.3-.2.4-.2.3-.2.4-.2.3-.2.4-.2.4-.1.3-.1v.2l-.1.1-.1.2-.1.2-.1.2-.2.1v.2l-.2.2-.2.1-.2.2-.2.1-.2.2-.2.1-.3.2-.2.1-.3.2-.3.2-.2.2-.2.1-.2.2-.2.2-.2.2-.2.2-.2.2-.1.2zm57.7 64.8l.1.2.3.3.3.4.3.4.3.4.3.4.3.3.3.4.3.4.2.4.3.4.3.4.2.4.2.4.3.4.2.4.2.4.2.4.2.4.2.4.2.4.1.5.2.4.1.4.2.5v.4l.2.5v.4l.2.5v.5l.1.5v.5l.1.5v.5l.1.5v2.3l-.1.4v.5l-.2.4v.4l-.2.4v.4l-.2.4-.2.4-.1.4-.2.3-.2.4-.2.4-.2.3-.2.4-.3.3-.2.4-.3.3-.3.3-.3.3-.3.3-.3.3-.5.5v.9l.1.7v1.2l-.2.6v.5l-.2.5-.2.5-.2.4-.3.4-.2.4-.3.3-.3.2-.3.3-.3.2-.4.1-.3.2h-.7l-.3.1h-.3l-.3-.1-.3-.1-.3-.2-.3-.1-.2-.3-.3-.2-.2-.4-.2-.3-.2-.5-.1-.4-.2-.6v-.4l-.1-.4v-1.3l.2-.3.1-.3.2-.4.2-.3.2-.3.2-.3.3-.3.3-.3.2-.3.3-.3.4-.3.3-.3.3-.3.3-.3.4-.3.3-.4.4-.3.3-.4.3-.4.3-.4.4-.4.3-.4.2-.4.3-.5.2-.5.2-.5.3-.4.2-.5.2-.4.2-.4.1-.5.2-.4.1-.5.2-.4v-.4l.1-.5.1-.4v-.5l.1-.4v-3l-.1-.4-.1-.4v-.5l-.2-.4-.1-.4-.1-.4-.1-.4-.2-.5-.1-.4-.2-.4-.2-.4-.1-.4-.3-.4-.1-.3-.2-.3-.2-.3-.2-.3-.1-.3-.2-.3-.1-.2-.2-.3-.1-.3-.2-.3v-.3l-.2-.3-.1-.2z"/><path fill="#a37d55" d="M264.4 181l.9 2.3c1.7 3 5 7 8 10.4l.5.7.8.8 1 1a37.6 37.6 0 0113.2 29.4 8 8 0 000 2.2l.8-.9 1.5-1.8v.1c2.5-1.3 5-3.3 6.8-5.7.6-2 2-3.2 3.5-4.3 2.4-.8 4.7-1 6.9-.7-1.7 1 .7 4.4 3.8 4.6 2.9.1 6 .6 8.4.1 2.5-.4 4.7-1.3 5.6-2.7 1-1.4-.1-2-1.7-2.1a11 11 0 017.2 1.3 19 19 0 013.7 6.7c1.2 1.7 3 2.1 5 2.4l.9 1a30 30 0 011.3-24.6c2.1-5.2 8-9.7 16.3-13.9h-1.3c6-5.1 7.7-10.8 5.3-16.8-.8-5.8-.6-11.5 1.9-17.3 1.2-11.8-1.2-16.3-3.4-21.3-3.2-8-6.4-16-11.9-19.9a42.6 42.6 0 00-21.7-15.8c.2 1.5 0 3-.5 4.5l-1.1-3.2c-.5 1.7-1.2 3.2-2.9 4 0-1.6-.4-3.2-1.8-4.5a9.7 9.7 0 01-3.4 5.4c-1 2.2.7 2.1 2.8 1.7-3.5 3-6.7 0-3.6-3.2 3.3-2.7 3-4.7 2.9-6.6h-.2c-1 3-2.3 5.6-4.6 6.4-4.1.9-6 2.9-6.4 5.7-.8-2.4-.4-4.6 2.8-6.2 1.3-.9 2-1.9 2.1-3-2.4.6-4.4 1.8-5.1 4.1-.3-.8-.8-1.6-.2-2.4-6.6 2.4-8 5.2-4.3 8.4-5.5-2.2-3.4-7-.2-8.8-2.4-.2-4.4.7-6.3 2.2a14 14 0 013.9-3.8c-3.5 2-6.8 4-9.4 6.5-3.6.5-7.2 4.1-10.9 7.5l-10.6 17.9c-5.1 8.5-5.7 18.9-6.6 29.1l.3 23.1zm26.5 51.4l.1.1zm.1.1l.1.1.1.1v.1m.1 0v.1zm.1.2h.1l.1.2h.1m0 .1h.1zm.4.3zm.2.2zm.2.1l.2.3m0 0h.2m.1.2a19 19 0 004.2 2.4c9.5-15.6 30-17.2 38-1 .9-.8 1.6-1.6 2-2.2l.3-.2c-9.8-17.2-31.5-16.5-42.2-1l-2.3 2zm4.6 2.5zm.6.2zm.2 0zm.6.2zm.6 0zm.7 0zm.1 0zm.2 0zm.2 0zm.1 0zm.4 0zm.6-.2zm.5-.2zm.2 0zm.2-.2zm23.7.7zm.2.1zm.3.1zm.1.1h.1zm.5.2zm.2 0zm.2.1zm.2 0zm.5.1zm.2 0zm.2 0zm.2 0zm.4 0zm.4 0zm.2 0zm.5 0zm.5-.2zm.3 0zm.1-.1zm.2 0zm.2-.1zm.2-.1zm.2-.1h.1m0 0l.2-.1h-.1zm.2-.2zm.4-.2zm0 0zm.2-.1h.1m0 0l.2-.1v-.1l.2-.1h.1m0-.1zm.7-.5zm2.8-2.7zm1.5-1.4zm0 0zm1.7-3.1zm0 0a17.3 17.3 0 000-.2v.1zm.1-.5zm0 0v-.1zm0-.1zm0 0v-.2m0 0zm.1 0zm0-.1v-.2.1zm0-.2zm0 0zm0 0zm.1-.1zm0 0v-.1zm0-.1zm0 0zm0 0v-.1zm0-.1zm0 0zm0 0l.2-.6v.1a9.3 9.3 0 01-.1.3v.1zm.2-.6zm0 0v-.1zm0-.2zm0 0zm0-.2zm0 0v-.2.1zm.1-.3l-.1-.4.1.4zM303.3 96h-.1zm61 70.5zm0 0v-.1zm0-.1zm-.2-.2zm0-.1l-.2-.2.2.2zm-3.4 20.3z"/><path fill="#a88b5a" d="M340.3 146.8c12.9 3.4 5.5 10.7-.6 12-5.7 1.2-12.6-1.2-9-9.3a21 21 0 019.6-2.7z"/><path fill="#796c57" d="M363.8 165.8c2.9 8.1 3.6 15.6-3.1 20.6-9.2 4.4-15.9 9.2-18.2 14.8a29.6 29.6 0 00-1.5 24.1l.2.3.1.1v.1l.1.1v.1l.1.2v.4h-.1v.5h-.1v.4h-.1v.4h-.1v.4h-.1v.3l-.1.1v.3h-.1v.2l-.1.1v.2l-.1.1v.2l-.2.1v.2l-.2.2v.1l-.1.2v.1l-.1.2h-.1l-.1.2v.2h-.1v.1l-.2.1v.1l-.1.1v.1l-.2.1v.1l-.1.1-.2.2-.2.2-.1.2-.2.2-.2.2-.2.1-.2.2-.2.1-.2.2-1-1.8-1-1.4-1.1-1.3-1.2-1.3-1.1-1.1-1.3-1-1.2-1-1.3-.8-1.4-.8-1.4-.6-1.4-.5-1.4-.5-1.5-.3-1.4-.3-1.5-.1h-3l-1.5.1-1.4.2-1.5.4-1.5.4-1.4.5-1.4.6-1.4.7-1.4.8-1.3.8-1.3 1-1.2 1-1.2 1.2-1.2 1.2-1 1.3-1.1 1.5-.2.1-.1.1-.2.2-.1.1-.2.1-.1.2h-.2l-.1.2-.1.1-.2.1-.1.2h-.2l-.1.2-.1.1-.2.1-.2.2-.4-.3-.3-.2-.2-.2-.3-.3-.2-.2-.3-.2-.2-.2-.2-.2-.2-.3-.2-.2-.1-.2-.2-.2-.2-.2-.1-.2-.1-.2-.2-.2v-.2l-.2-.3-.1-.2-.1-.2v-.2l-.2-.2v-.2l-.1-.2v-.2l-.1-.2v-.2l-.1-.2v-.2l-.1-.2v-.4l.1-.3v-1.9c.3-15.7-7.7-25.5-18-33.6-11.4-7.3-10.8-15.2-8.5-23.2-5.2 3.5-8.1 18 3.7 26.3 1.3 4.8-.3 10.7-2.3 16.7-1.9 5.8-.3 12.5 2.8 19.5 3.5 3.7 5.8 8.2 7 14.1.2 7.4 3.2 14.1 10.6 19.8-2.1 9.5-1.4 18.2 9.3 24.4-4 8.6-4.8 19.6 7.4 22.3 14.2 0 9.2-13 12.1-18.4 1.8-4.5 6.4-5.1 4.4 0-1.6 1.6-3 5.5-2.5 10.8.8 2.8 1.4 5.3 4.3 7.2 10.8 3.6 19.2-5.8 19-16.6l-2-7.2a34 34 0 007.2-17.2c.8-4.6 3.2-7.7 5.7-10.6a28 28 0 004.6-16.9c3.9-1 6.6-4.8 7.5-12.7a39 39 0 004.8-19.3c-.4-3.1-1-7.2-2.4-10.3-3.7-2.2-4.5-5.6-2-9 10.8-10.7 10-16.8 2.4-25.9z"/><path fill="#48433e" d="M388.4 272.6c1.7 11.7 17.9 15.2 22 3 2.7-10.7-4.3-15.5-12.8-19.5 1.2-12.5-4.4-17.2-11-20.7 3.4-10.5 1.4-17.8-3-23.8 18.6-11.8 22.6-29.7 12.1-53.7-1.4-3.5-1.2-7 .6-10.4 1-7.5 2.8-15.8-.7-23a48.6 48.6 0 01-5.4-21c-1.1-15.1-12.8-28.5-27.4-41.4C326.5 37 291 42 256.6 77.3a81.4 81.4 0 00-17.7 43.3 45.7 45.7 0 00-1.9 31.2c-8.3 19.7-13 39.4 8 59.2-3.9 6.2-5.2 13.8-1.2 24.4-9.8 1.6-15.8 7.3-13.5 22-36.1 18.3 10.4 48.2 8 17.7 8.4-4.9 10.1-13 11.6-21.4 2.3-2.4 1.5 1.8 1.2 6.8-.2 4 .3 8.5-.6 10.9-7.7 2.6-15 17.3-5 25.6 7.5 2.2 14 2.8 15.3-7.3.9-10.7 7.7-10.7 5.5-19.5l5-21.4c.5-1.6 1-3.3 1.7-5a87.3 87.3 0 00-.3-1l-.2-.5-.1-.5-.2-.5a57.6 57.6 0 00-.3-1l-.2-.4-.2-.5-.2-.5-.2-.4-.2-.4-.2-.5-.3-.4-.2-.4-.2-.5a74.6 74.6 0 00-.5-.8l-.3-.4-.2-.4-.3-.3-.3-.4c0-.2-.2-.3-.3-.4l-.3-.4-.2-.4-.3-.3-.4-.4-.3-.3c0-.2-.2-.3-.3-.4l-.3-.7-.3-.6c0-.3-.2-.5-.3-.7l-.2-.6-.3-.7-.2-.6-.2-.7-.3-.6c0-.2 0-.5-.2-.7l-.1-.6-.2-.6-.2-.7-.1-.6-.2-.6-.1-.6-.1-.7-.1-.6-.1-.6v-.6l-.1-.6v-3.6l.1-.5v-.6l.2-.6.1-.6.2-.5.1-.6.2-.6.2-.5a75.9 75.9 0 00.4-1.1l.1-.6.2-.5.2-.6.1-.5.2-.6.1-.5.2-.6v-.5a86 86 0 00.4-1.6l.1-.5.1-.6v-.5l.1-.5.1-.5V197l-.1-.5v-.5l-.2-.4v-.4c-.4-.3-.8-.5-1-.8l-1-.8-1-.8-.8-1-.8-.8-.6-1a414.2 414.2 0 01-1.2-2l-.4-.9-.4-1-.3-1-.3-1-.2-1-.2-1v-1a244.1 244.1 0 000-2.8v-1l.2-.8.2-1 .2-.8a152.8 152.8 0 00.6-1.6l.3-.7.3-.7.4-.6.4-.6.5-.6.4-.5.5-.4.3-3.9.6-19.4c1.3-9.3 3.4-15.2 6.3-17.9 4-5.8 6.8-11.7 9-17.5A26 26 0 01290.1 99a68 68 0 0117-6.8l-3.9 3.8c-2.5 1-4 2.8-5.5 4.7a8.5 8.5 0 016.3-2.2c-3.2 1.8-5.3 6.6.2 8.8-3.7-3.2-2.3-6 4.3-8.4-.6.8 0 1.6.2 2.4.7-2.3 2.7-3.5 5.1-4.1-.1 1.1-.8 2.1-2 3-3.3 1.6-3.7 3.8-3 6.2.5-2.8 2.4-4.8 6.5-5.7 2.5-.9 3.7-3.8 4.7-7 .2 2.2.8 4.2-2.8 7.2-3.1 3.3 0 6.2 3.6 3.2-2.1.4-3.9.5-2.8-1.7a9.6 9.6 0 003.4-5.4 5.9 5.9 0 011.8 4.5c1.7-.8 2.4-2.3 2.9-4l1.1 3.2c1-2.7.7-5.6-.7-8.6l2.8.3c5 1 12.3 6 20.7 11.3a55 55 0 0110 17l5.6 13.7c2.2 12.8.2 20.4.3 31.3 3.5 4 6.5 8 7.2 13.2 1 5.6-.4 10-4.2 13.2 1.1 8-6.6 10.5-7.7 4.3-1.4-4.9 4.9-6.3 7-11.6 2.6-4.7 2.1-9.1.2-13.5a31 31 0 01-2.4-4.7v1.6l.5.8.5.8.5.8a446.7 446.7 0 00.8 1.5l.4.8.3.7.2.8.2.7.2.8v.8l.1.7v1.5l-.1.8-.2.8-.3.8-.2.8-.4.8a263.3 263.3 0 01-1.4 2.5l-.6.8-.6 1-.7.8-.8 1-.9.9-.9 1-1 1-.1.2-.2.4-.2.3-.2.3-.2.3v.3l-.2.3v.3l-.2.3v2.3l.2.3v.3l.2.2.1.3.2.2.2.3.2.2.2.3.2.2.3.3.2.2a44.7 44.7 0 01.6.4l.3.2.4.3.2.3v.3l.2.3.1.3.1.4.1.3.1.3.1.3.1.4v.3l.2.3v.4l.1.3.1.3.1.4v.3l.1.3.1.4v.3l.2.4v.6l.1.4v.3l.1.3.1.3v.7l.1.3v.3l.1.3v.3l.1.6v3.5l-.1.6-.1.6v.6l-.2.6-.1.7-.1.6-.2.6-.1.6-.2.6-.2.6-.1.6a135.4 135.4 0 00-.4 1.2l-.3.6a198 198 0 00-.6 1.9l-.3.6-.2.6-.3.6-.3.6-.2.7-.3.6-.3.6-.3.6v.7l-.2.7v.7l-.2.6-.1.7-.2.6-.1.6-.2.5-.2.6-.1.5-.2.5-.2.5-.3.5-.2.4-.2.4-.2.4-.3.4-.2.4-.3.3-.3.3c0 .2-.2.3-.3.4l-.3.2-.3.3-.2.2c2.2 4.1 3.3 8.8 3.3 14-1.9 5.7-2.7 11.5 3.3 18.3 6.9 4.4 12.1 8.6 5.5 11.9-1.6 7-.1 12.5 8.3 12.7 9-2.8 14.5-7.8 12.2-17.4-3-7.6-6-10.2-9.1-12.2-4.7-3.1-5.4-6.3-5.6-9.4-1.7-5.5-1.8-9.2-.2-11.3l1.9.8c.2 8.2-.4 16.4 12.4 23.4z"/><path fill="#765a4a" d="M307.8 156.4c.6.7.6 1.4 0 2.1a9.3 9.3 0 00-6 0c-11.1 4-20 3.6-25.8-3l1.5-1.1c8.2-11.2 21.4-9.3 30.6 2.7l-.3-.7z"/><path fill="#645e4d" d="M319 199l.1.3-.1.1-.1.2h-.1l-.1.2h-.1v.1h-.1v.1l-.1.2-.4.7v.1h-.1v.2l-.1.3v.1h-.1v2.7c.8 2.4 3.7 3.4 5.7 4.9l7.9 6v.4a10.9 10.9 0 00-7-1.1 43.1 43.1 0 01-13.8 0c-1-.2-1.8-.1-2.2.1a16 16 0 00-6.8.7l.5-.4c5.4-3 8.8-6.5 11.9-10.2.7-1.8.7-3.2-.2-4.2l.7-.5a4 4 0 004.5-.8z"/><path fill="#2c2c2b" d="M354.6 154.9c-4.8 5-14.5 7.9-25.4 5.8-2.4-1-4.8-1.3-7.1-1.3 1.6-.8 3.5-1.4 7-.3 9.6 1.8 18-.4 23.7-5.7-2-1.8-3.4-4-5.8-5.2-7.4-3.7-19.7.3-23.8 8.9 3.4-10 14.6-15 23.4-11.2 4.1 1.8 6 5.8 9.8 8.2a13 13 0 006.2 2.3c-2.8 1-5.5.2-8-1.5z"/><path fill="#895740" d="M356.2 150.4c-8-18-30.3-10.2-35.5 3 7.8-11 25.8-17.7 35.5-3z"/><path fill="#a1714b" d="M310.6 140.9c1.5 2.2 2.7 4.6 3.4 7.2 1 .3 1.9.3 2.8.2a16 16 0 013-7.4h-9.2z"/><path fill="#b68a57" d="M360 157.3c3.9 36-37.8 43.4-38 4.2 15.3 10.6 29.5 9.2 38-4.2z"/><path fill="none" d="M356.2 156.2l3.5 1c-4.7 7.1-10.5 11-17.7 11 8.7-.8 12.7-5.3 14.2-12z"/><path fill="#ba8d4e" d="M365.3 164.9c3.7 4.4 7 8.4 7.8 14 1 5.6-.4 10-4.2 13.2 1.1 8-6.6 10.5-7.7 4.3-1.4-4.9 4.9-6.3 7-11.6 2.6-4.7 2.1-9.1.2-13.5a30 30 0 01-3.1-6.4z"/><path fill="#5f554a" d="M320.6 198.5a4.3 4.3 0 00-3 3.7c0 .8 0 1.5.2 2 .7 2.5 3.6 3.5 5.6 5l7.9 6c1.8 2.3 3.3 4.6 4 7.2 1.2 1.7 3 2.1 5 2.4-1-4.5-2.3-7.2-3.2-9.9-.9-2.6-1.4-3.6-3.3-5.7a50 50 0 00-13.2-10.7z"/><path fill="#895740" d="M272.4 154c2.7-6.9 6.9-12.2 13.2-12.4 10.3-3.6 18.1 1 24.4 12.3-11.6-17.6-29.5-13.4-37.6.1z"/><path fill="#2c2c2b" d="M268.7 159c3.6-2 6.6-4.6 9.3-7.5 8.2-10.7 22.7-9 30.1 5.6-9.2-12-22.4-13.9-30.6-2.7-3.2 2.6-6 4.1-8.8 4.5z"/><path fill="#2c2c2b" d="M307.8 158.4a9.3 9.3 0 00-6 0c-11.1 4-20 3.7-25.8-2.8l-1.4 1c5.6 6.8 13.4 9.7 26.1 4 2.4-1 4.8-1.7 7.1-2.2z"/><path fill="#b7a582" d="M314.6 186.5c-2.4 1.4-4 8.3-1.6 10.8-1-4.3-.2-8 1.6-10.8z"/><path fill="#9c7357" d="M318.3 188.3c4.8 5.1.4 14.3-5 9.3 4.8 2.4 7.8-3.2 5-9.3z"/><path fill="#423d39" d="M320 197.8c-2.5 2.6-5.3 2.7-7.7 0-3.1-5.8-5.8-4.4-7.1-2.4 2.6-1.6 4.8-.6 6.7 2.7 3 3.3 6.2 2.6 8.1-.3z"/><path fill="#b68a57" d="M308.3 158.8c2.4 18.2-13.1 32.8-21 33-10.8.4-22.6-17.7-18.6-32l2.2-.9c6.5 14 25 16.8 34.4.5 1 0 2-.4 3-.6z"/><path fill="#5f554a" d="M312.6 199.6a52.3 52.3 0 00-19.2 14c-2 3.9-3.2 8.7-2.3 11.6 2.5-1.3 5-3.3 6.8-5.7.6-2.3 2.4-3.4 4-4.7 5.5-3 9-6.5 12-10.2 1-2.3.6-4-1.3-5z"/><path fill="none" d="M315 200.6c-.2 2-.4 4 0 6 .3.9 2.1 1 2.5-.2l-.5-5.9c-.6.2-1.3.3-2 .1z"/><path fill="#b29665" d="M314 205.4a22.3 22.3 0 01-4.3 4.7c1.7-1.1 3.5-1 5.2.5.9.1 1.8.4 3.3-.1.9-1 2.8-1.4 4.4-1a13 13 0 01-4.8-4.3h-.4l.1 1.2c-.4 1.2-2.2 1-2.5.2l-.2-1.3h-.8z"/><path fill="#af714f" d="M308.6 212.2c1.7 0 3.3 0 4.4.8 2.2 1 4.4 1 6.6 0 2.2-1 4.4-.8 6.5-.4a8.4 8.4 0 00-3.3-3l-.3-.2v.1c-1.5-.4-3.4 0-4.3 1-1.5.5-2.4.2-3.3 0-1.7-1.3-3.5-1.5-5.2-.4l.4-.4c-1.1.8-1.6 1.6-1.5 2.5z"/><path fill="#ae825a" d="M310.6 214.4c2.8.3 5.6.6 8.6.4 3-.6 8.7-1.1 7 1.7-1 1.4-3.2 2.3-5.7 2.7-2.5.5-5.5 0-8.4-.1-4-.2-6.7-5.7-1.5-4.7z"/><path fill="#ba8d4e" d="M261 167.4c-3.7 4.4-7 8.5-7.8 14-1 5.6.5 10 4.3 13.2-1.2 8 6.5 10.5 7.7 4.3 1.3-4.9-5-6.3-7-11.6-2.6-4.7-2.1-9.1-.3-13.5a30 30 0 003.2-6.4z"/><path fill="#b29054" d="M329 96.7c12.3 4 22.5 14.6 30.3 32.8-25-14-39.4-4.7-39.6 10.5h-9.3c-1-.8-1.9-1.4-2.8-1.6 11.8-13.7-25.9-19.7-30.9-9.6.7-5 2.3-9.1 5.7-11.8 1.4-5.6 3.9-10.2 9.1-13 2.8-2.7 6.3-5 10-7.1a14 14 0 00-3.8 3.8 8.5 8.5 0 016.3-2.2c-3.2 1.8-5.3 6.6.2 8.8-3.7-3.2-2.3-6 4.3-8.4-.6.8 0 1.6.2 2.4.7-2.3 2.7-3.5 5.1-4.1-.1 1.1-.8 2.1-2 3-3.3 1.6-3.7 3.8-3 6.2.5-2.8 2.4-4.8 6.5-5.7 2.3-.8 3.6-3.4 4.6-6.4h.2c.2 2 .4 3.9-2.9 6.6-3.1 3.3 0 6.2 3.6 3.2-2.1.4-3.9.5-2.8-1.7a9.6 9.6 0 003.4-5.4 5.9 5.9 0 011.8 4.5c1.7-.8 2.4-2.3 2.9-4l1.1 3.2c.5-1.4.7-3 .5-4.5l1.3.5zm-25.8-.7z"/><path fill="#a46c52" d="M357.5 187.4c6-5.2 7.7-10.9 5.3-17-.8-5.7-.6-11.4 1.9-17.2 1.2-11.8-1.2-16.3-3.4-21.3-3.2-8-6.4-16-11.9-19.9a42.6 42.6 0 00-21.7-15.8 16 16 0 00-1.2-4.1h.4l2.5.3c5 1 12.3 6 20.7 11.3a55 55 0 0110 17l5.6 13.7a74.8 74.8 0 01.9 6.8v2.2l.1.3v7.3l-.2 2.7v1.3l-.1.5v1.4l-.1.2v1.8h-.1v.5l-.1 2.7v6.4a48 48 0 00-2.2-2.7c2.9 8.1 3.6 15.6-3.1 20.6l-1.9 1h-1.3zm-95.8-19.5v1.3l.5-.4c-2.2 8-2.9 15.9 8.5 23.2l3.7 3.1a59 59 0 01-10-13.7l-.3-23.5c.9-10.2 1.4-20.6 6.6-29.1l10.6-17.9c3.7-3.4 7.3-7 11-7.5a44.5 44.5 0 0110.9-7.4l3.8-3.8-.6.1h-.4v.1h-.2A68 68 0 00290 99a25 25 0 00-12.2 11.3 87.9 87.9 0 01-9.1 17.5c-3 2.7-5 8.6-6.3 18L262 165v1.1l-.1.4v1.3z"/><path fill="#ac926c" d="M360.7 160.5c1.3 28.8-28.7 37.9-37.3 13.7 0 13.7 5.6 14.7 4.8 20.3-4.2-.3-5.9 1.4-8 3.3 6.5 3.7 12 8.4 16.6 14 .2-7 2.8-13.5 7.1-16.8 15.3-7.4 19-19.7 16.8-34.5zM308 172.8c.4 4 .4 8.2-.7 13.1-2.9 2-5.1 4.6-2.9 10.7 3-2.7 5.6-1.8 8 2.6a80.5 80.5 0 00-19.8 13.5 33 33 0 00-8.3-10.4c-4.6-4-7-8.1-8.6-12.2-5-4.7-7.5-10.4-7.5-17 10.5 27 27.5 24.4 39.8-.3z"/><path fill="#7c6954" d="M305 159.1c-11.3 17.4-28.3 11-33.9-.8.7-.2 1.4-.6 2.1-1 6.6 9.9 18.5 12.4 28.2 3l3.6-1.2zm51.2-3.3c-3.6 14.9-19 15.3-33.8 5.2 13.5 4 23.9 3.7 29.2-3.6 1.1-.8 2.2-1.6 3-2.5l1.6 1z"/><path fill="#b19f82" d="M332.4 149.1c-4.5 3.7-2.7 8.8 3.3 9-4.2-2-5-5.2-3.3-9z"/><path fill="#a88b5a" d="M291.6 147.7c-.3-.1-.7-.3-1.8-.4h-2c-2.2.4-4 1.3-6 2.8-6.3 20.9 36.3 3.9 9.8-2.4z"/><path fill="#b19f82" d="M294.5 149.7c5.4 3.2 3.7 9.5-4.4 9.3 6-2.2 6.5-5.5 4.4-9.3z"/><path fill="#443927" d="M283.5 151.2a5.8 5.8 0 108.7-3.1 7.6 7.6 0 00-3.9-.8c-1 .3-2 .6-3 1.1a6 6 0 00-1.8 2.8z"/><path fill="#4f4241" d="M285 150.2a4.8 4.8 0 108.8 2.7c0-2.2-1.5-4-3.4-4.6-2.5-.5-4.3 0-5.4 1.9z"/><path fill="#3a3532" d="M288.5 151a1.5 1.5 0 100 3.1 1.5 1.5 0 000-3z"/><path fill="#b78c58" d="M324.8 173.6c9.6 10.6 22.6 11.2 32.6-.7-10.5 10.9-21.4 11.1-32.6.7z"/><path fill="#b89665" d="M317.8 63.5l18.2-.3c9.4.8 18.6 2.3 27.2 6.5a35 35 0 019.3 6.4l3.9 4.1c-4.4-3.8-8.2-7.4-13.5-9.8-14.3-6.6-29.7-6.5-45-5.4a.7.7 0 010-1.5zm-43.4-1.7l-.5.4c4-1.4 8-2.5 12.3-2.8l9.1.1 1.7.2 1.8.3 1.7.4 1.1.3 1.2.2 1.1.2h5.9c.4 0 .6-.5.6-.9s-.4-.6-.8-.6c-6 .8-11.8-1.4-17.8-1.4h-1.9l-1.9.1-2 .2h.1l-1.9.2-1.8.3-1.8.4zm36.8 1.7l-17.4-.3c-9 .8-17.8 2.3-26 6.5A37 37 0 00259 76l-3.6 4.1c4.1-3.8 7.7-7.4 12.8-9.8 13.6-6.6 28.4-6.5 43-5.4.4 0 .7-.3.7-.7 0-.4-.2-.8-.6-.8zm-60 124.6c1.1 6.4 1.9 11.5 7 14.3-4.4-4.1-4.1-9.3-5.6-14.7a.7.7 0 00-.9-.5c-.4.2-.6.6-.5 1zm1.8-9.3a31.8 31.8 0 006.1 21h.1c-3.5-7.8-5-12.4-4.8-21 0-.4-.3-.7-.7-.7-.4 0-.7.3-.7.7zm.6-5.3c-6.8 9-6.3 27.8 3.1 30.7-9.5-4.8-7.4-22.6-2-29.7.2-.3.1-.8-.2-1a.7.7 0 00-1 0zm6-8.5c-6.2 13-7 21.2 2.2 33.6-5-9.9-8.9-19-2.5-30l1.5-2.9c.1-.3 0-.8-.3-1a.7.7 0 00-1 .3zm.7-4.3l-2.4 3.8-1.3 2.3c-2.4 3.3-5.4 6.2-6.7 9.5-1 3-2 5.9-2.5 9a21.4 21.4 0 007.9 21.1 26 26 0 01-6.9-12l-.2-3.2-.2-3.2.4-2.5.4-2.5 1-3.1 1.1-3c1-3.6 4.5-6.2 6.8-9.4l1.3-2.3 1.2-1.8 1.3-2c.2-.3 0-.7-.2-1a.7.7 0 00-1 .3zm-.2-3.2c-4.9 5.9-10.7 14-14.3 20.9-4.4 14-1.7 19.8 6.6 29.8-7.1-9.9-9.2-17.6-5.6-29.4 4-7.4 9-14 14.3-20.3.3-.3.3-.8 0-1a.7.7 0 00-1 0zm.9-8.6l-1.7 4-1.7 4-1.5 2.1-1.6 2.2-1.7 2.7-5.5 6.3-3 4.8c-3.3 5.5-2.5 13.3-1.5 19.5.8 5.2 2.3 9.6 5.2 14.2l-3.8-11c-1-7.4-3-15.4.9-22.2l1.4-2.5 1.7-2 5.6-6.4 3.3-4.8 1.7-2.3 3.4-8c.2-.4 0-.9-.3-1a.7.7 0 00-1 .4zm-18.6 52.8l-.6-2.3-.6-2.3-.9-3.4c-1.5-6-.9-12 2-17.5l1.6-3c3.1-5 6.6-9.4 10.5-13.8v-.1c2-3.3 4-6.6 5.1-10.3 1-7.5 2.3-13.6 5.7-20.4a52.5 52.5 0 00-6.4 20.2l-.7 1.9-.7 1.8-1.9 3.1-1.8 3.2-1.6 1.8c-9.8 10.8-16 21.3-12.2 36.9l1.2 4.6c0 .4.5.6.8.5.4-.1.6-.5.5-1zm24.4-80c-2.3 4.1-4.2 8.4-5.9 12.7-6 14.7-13.2 25.7-21.4 38.7-2.8 5.7-2.6 11.8-2.6 18.1 1.4-10.4 2.2-16.6 9.3-25.9 10.9-14 12.5-28.6 21.8-42.8.2-.4.1-.8-.2-1a.7.7 0 00-1 .1zm45-38.1c-13 4.8-28.3 9.6-37.4 21.4l-7.7 12.5-1.4 2.2-1.3 2-1.3 2c-9.6 10.5-7.8 25-16.8 34.6-6.7 7-9.8 14.8-11 24.8 1.8-10 4.8-17.5 11.4-24.3 9-9.4 8.3-24.2 17.1-34.4l8-12.3 1.3-1.9 1.4-2.3 1.3-2.2c7.1-9.3 18.5-14.2 29-18.2l2.7-1 2.5-.8 2.6-.7c.3-.1.5-.5.4-1a.7.7 0 00-.8-.4zm-2.4-1.3a85.2 85.2 0 00-29.1 12.2c-8.2 5.3-11.4 13.7-15.7 22.2l-1.8 2.2-1.8 2.3-1.8 2.2-1.8 2.1c-2.1 3-3.7 6-4.9 9.4l-2.5 9-2.6 6.4c-3.3 6.4-9.5 12-11.6 18.6l-1.1 3.6c3.1-8.4 8.4-12.1 12-19.7l2.9-5.3 3-10.4 2.3-5.8.5-1.2 1.4-2 1.3-2 1.8-2 1.8-2.2c7-8.7 9.6-20.3 19.2-26.3l3-1.9a98.3 98.3 0 0123.5-9.4l2.3-.6c.4 0 .6-.5.5-.9a.7.7 0 00-.8-.5zm1.3-2c-14 3.2-25.4 5.6-36.2 16-6.4 6.2-9.7 15.5-16.2 22.9a37.3 37.3 0 00-7.7 11.3c-2.4 7-3.1 18.8-9.4 25 6.3-5.7 7.2-15.6 10.2-24a41 41 0 018.2-12.5c5.2-6 7.2-11.7 11.3-17l1.5-2.1 2.9-2.8 2.9-2.7 2.1-1.6 2.2-1.7c4.8-3 10-5 15.4-6.7l2-.6 2-.6 2.1-.5 2-.5 2.4-.2 2.4-.3c.4 0 .7-.4.7-.8s-.4-.7-.8-.6zm-.6-1.8L300 80.3c-3.4.4-6.5 1-9.7 2.3-4.7 2.3-9 3.9-13 7.3l-4 3.9-6.2 7.3c-7 9.5-16.3 18.6-19.7 30.1-2 6.8-3 14.5-6.2 20.7l-.8 3 1-2.9c3.2-5.8 3.4-10.6 5.3-17l1.3-3.6c3.3-10.7 12-18.7 18.8-27.4 1.9-3.8 4.7-6.4 7.4-9.6l.6-1 3.2-2.6 3.4-2.7c5-2.1 10.3-5.2 15.7-6l6.9-1 6.5-1.2c.4 0 .6-.4.6-.8-.1-.4-.5-.7-.9-.6zm-.2-2.3l-3 .7-3 .6-3.1.4-3.2.4L288 81l-9 3.9c-13.2 6.3-15.5 19-24.6 29.4l-1.8 1.8-1.8 1.7-5 6.7-1.8 3.9-.5 1.6-.4 1.5c-2 5.9-2.6 11.4-3.4 17.6 1.1-6 1.8-11.7 3.9-17.4l.5-1.6.5-1.5.8-1.8.9-1.9 1-1.5 1.2-1.5 1.4-1.7 1.5-1.8 1.8-1.7c10-9.8 13-24.5 26.2-30.7l3-1.2 3-1.3 3-1.2 3-1.3 3.2-.7 3-.8 3.2-.3 3.2-.4 6-1.3c.4 0 .7-.4.6-.8 0-.4-.4-.7-.8-.6zm1.3-2l-9.3 1.5-2.1.3-2.2.3A60.5 60.5 0 00269 87.9c-7.3 8-12.6 20.7-19 27.2-2.5 2.5-4.8 6-6.6 9l-2 4.4c-2 8-3 11.6-3.3 20.4.5-7.6 1.9-13 4-20.2l.9-2 1-2.2 1.4-2.3 1.5-2.2 1.8-2.1 1.8-2.1c6.5-4.8 10-15.4 15.4-22.3l2-2.4 1.8-2.3 2-1.5A52.4 52.4 0 01295 78l2.9-.4 2.1-.2 2.2-.3h.1c2.3-.7 4-1.2 6.4-1.3l2.7-.2c.4 0 .7-.3.6-.7 0-.4-.3-.7-.7-.7zm.4-2.1l-10.8 1.6-7.4.9c-8.4 1.8-21.7 4.3-27.4 11.8l-6.7 8.7c-8.3 11-22.2 31-23 44.8h.1c1.6-15.6 16-33.7 25.5-46.5l5.6-6.2c5.8-6.5 17-9.2 24.8-11l12-1.4 7.6-1.3c.3 0 .6-.4.5-.8 0-.4-.4-.7-.8-.6zm-1.9-1.4l-6 .4-4 .7h-4.8c-10.3 1.5-18.1 2-26.7 8.9a91.5 91.5 0 00-15 16c-4 6.1-7 12.9-10.8 19.2 15.7-25.4 23.7-39.1 50.9-42.5l6.4-.2 7.2-.8 3-.3c.3 0 .6-.3.6-.7 0-.4-.4-.7-.8-.7zm.1-2h-1.2l-1.2.2-1.6.1-1.6.2-1.9.1-1.8.1h-1.4c-23.6 2-34.3 6.4-49 27l-5.5 9.4 6-9.1C269 71.8 281.3 72 310 70c.3 0 .6-.4.6-.8s-.4-.7-.8-.6zm-.4-2.4a92 92 0 00-40.2 7 47 47 0 00-14.6 10.5c-3 3.3-4.6 7.1-6.5 11.2l3.5-6.4 3.4-4.3 1.6-1.6 1.6-1.5 2-1.4 1.8-1.4 1.8-1.2 1.8-1.2 4-1.8 3.9-1.7 2.4-.9c10.8-4 22.3-3.5 33.6-3.9.4 0 .7-.3.6-.7 0-.4-.3-.7-.7-.7zm1.1-4.5c-7 .3-13.5-1.1-20.5-.7-3.8.3-8 .2-11.7 1.4l-10.1 5 8.2-3.4c3.7-1.5 7.1-1.5 11-1.7 8-.4 15.3 1 23.1.8.4 0 .7-.3.7-.7 0-.4-.3-.7-.7-.7zm-.8-4.7c-1.7.4-3 .6-4.7.3l-5-1-4.9-1-2.7-.4-2.7.4-2.3.2-2.4.6-4 1.4h.1l4-.9c3.3-.5 6.5-.8 9.8-.4l4.8 1.2 5 1.3 1.7.2h1.4l1.2-.2 1-.3c.4 0 .6-.4.6-.8-.1-.4-.5-.7-.9-.6zm-14.6-1.8zm9.6 3.4zm4.4-3.4c-3 .3-5.6-.2-8.6-.7l-2.3-.4-2.2-.3-2.1-.3-2-.2h-2l-1.2.3-1.2.3 8.4.8 2.2.4 2.2.5 2.3.6h-.1l2 .5 2 .1h1.4l1.4-.1c.4 0 .7-.4.6-.8 0-.4-.4-.7-.8-.7zm-.8-2.2c-1.6.3-3 .6-4.6.1l-5.4-1.6c-1.6-.2-3 .1-4.5.5h3l1.4.2 1.4.5 1.9.9 1.8.7 1.5.4h2.7l1.1-.3c.4 0 .6-.5.6-.9-.1-.4-.5-.6-.9-.5zm-5 1.3zM310 51l-5.3-.5-4.6-.4v.1l4.4 1.2 5.6 1c.4 0 .7-.3.7-.7 0-.4-.4-.7-.8-.7zm70.7 137c-1.2 6.4-2 11.5-7.3 14.3 4.6-4.1 4.3-9.3 5.9-14.7a.7.7 0 011.4.4zm-1.8-9.3a30.7 30.7 0 01-6.5 21 41.3 41.3 0 005-21 .7.7 0 011.5 0zm-.7-5.3c7.2 9 6.6 27.8-3.3 30.7 10-4.8 7.8-22.6 2.2-29.7a.7.7 0 111.1-1zM372 165c6.4 13 7.3 21.2-2.4 33.6 5.3-9.9 9.3-19 2.7-30l-1.6-2.9a.7.7 0 111.3-.7zm-.8-4.3l2.5 3.8 1.4 2.3c2.5 3.3 5.6 6.2 7 9.5 1.1 3 2 5.9 2.5 9 1.4 9.6-1.5 15.4-8.2 21.1 4-4 5.6-6.7 7.2-12l.2-3.2.3-3.2-.4-2.5-.4-2.5-1.2-3.1-1.1-3c-1-3.6-4.7-6.2-7-9.4l-1.5-2.3-1.2-1.8-1.3-2a.7.7 0 111.2-.7zm.2-3.2c5 5.9 11.2 14 15 20.9 4.6 14 1.8 19.8-7 29.8 7.5-9.9 9.6-17.6 5.9-29.4-4.2-7.4-9.3-14-15-20.3a.7.7 0 111-1zm-.9-8.6l1.7 4 1.8 4 1.6 2.1 1.6 2.2 1.8 2.7 5.8 6.3 3.2 4.8c3.4 5.5 2.6 13.3 1.5 19.5-.9 5.2-2.4 9.6-5.5 14.2l4-11c1.1-7.4 3.2-15.4-.9-22.2l-1.5-2.5-1.7-2-5.9-6.4-3.5-4.8-1.7-2.3-3.6-8a.7.7 0 111.3-.6zm19.4 52.8l.6-2.3.7-2.3.9-3.4c1.6-6 1-12-2.1-17.5l-1.7-3a99.8 99.8 0 00-11-13.8v-.1A46 46 0 01372 149c-1-7.5-2.4-13.6-6-20.4 4 6.5 5.6 12.8 6.7 20.2l.8 1.9.8 1.8 1.9 3.1 1.9 3.2 1.7 1.8c10.2 10.8 16.8 21.3 12.8 36.9l-1.3 4.6a.7.7 0 01-1.4-.4zm-25.5-80c2.4 4.1 4.4 8.4 6.2 12.7 6.2 14.7 13.7 25.7 22.4 38.7 3 5.7 2.6 11.8 2.7 18.1-1.5-10.4-2.3-16.6-9.8-25.9-11.3-14-13-28.6-22.8-42.8a.7.7 0 011.3-.9zm-47-38.1c13.5 4.8 29.6 9.6 39 21.4l8 12.5 1.6 2.2 1.3 2 1.4 2c10 10.5 8.1 25 17.6 34.6 7 7 10.2 14.8 11.4 24.8-1.9-10-5-17.5-11.9-24.3-9.5-9.4-8.6-24.2-17.9-34.4l-8.3-12.3-1.4-1.9-1.4-2.3-1.4-2.2C348 96.4 336 91.5 325 87.5l-2.8-1-2.6-.8-2.7-.7a.7.7 0 11.4-1.4zm2.4-1.3a91.4 91.4 0 0130.5 12.2c8.6 5.3 11.9 13.7 16.4 22.2l1.9 2.2 1.9 2.3 1.8 2.2 2 2.1c2.1 3 3.8 6 5 9.4l2.7 9 2.7 6.4c3.5 6.4 9.9 12 12.1 18.6l1.2 3.6c-3.3-8.4-8.8-12.1-12.5-19.7l-3.1-5.3-3-10.4-2.6-5.8-.5-1.2-1.4-2-1.4-2-1.9-2-1.9-2.2c-7.2-8.7-10-20.3-20-26.3l-3.2-1.9c-6.6-3.7-16-7.2-24.6-9.4l-2.4-.6a.7.7 0 01.3-1.4zm-1.3-2c14.6 3.2 26.5 5.6 37.8 16 6.7 6.2 10.1 15.5 17 22.9 3.3 3.6 6.6 7.4 8 11.3 2.6 7 3.3 18.8 9.8 25-6.5-5.7-7.5-15.6-10.6-24-1.6-4.4-5-8.5-8.6-12.5-5.5-6-7.5-11.7-11.8-17l-1.6-2.1-3-2.8-3-2.7-2.3-1.6L348 91a73 73 0 00-16.1-6.7l-2.2-.6-2.1-.6-2.2-.5-2-.5-2.6-.2-2.5-.3a.7.7 0 11.2-1.4zm.5-1.8l10.8 1.8c3.5.4 6.8 1 10 2.3 5 2.3 9.5 3.9 13.7 7.3l4.2 3.9 6.4 7.3c7.4 9.5 17.1 18.6 20.7 30.1 2.2 6.8 3.2 14.5 6.4 20.7l1 3-1.2-2.9c-3.3-5.8-3.5-10.6-5.5-17l-1.3-3.6c-3.5-10.7-12.5-18.7-19.7-27.4-2-3.8-5-6.4-7.8-9.6l-.6-1-3.4-2.6-3.5-2.7c-5.3-2.1-10.8-5.2-16.4-6l-7.2-1-6.8-1.2a.7.7 0 01.3-1.4zm.3-2.3l3.2.7 3 .6 3.4.4 3.2.4h.1L342 81l9.5 3.9c13.7 6.3 16.1 19 25.6 29.4l2 1.8 1.8 1.7 5.3 6.7 1.8 3.9.5 1.6.5 1.5c2.2 5.9 2.7 11.4 3.5 17.6-1.1-6-1.8-11.7-4-17.4l-.6-1.6-.5-1.5-.9-1.8-.9-1.9-1-1.5-1.2-1.5-1.5-1.7-1.6-1.8-1.9-1.7C368 107 365 92.3 351 86l-3.2-1.2-3.1-1.3-3.2-1.2-3.1-1.3-3.3-.7-3.2-.8-3.3-.3-3.3-.4-6.4-1.3a.7.7 0 01.3-1.4zm-1.4-2l9.8 1.5 2.2.3 2.2.3a65 65 0 0130 11.6c7.7 8 13.1 20.7 19.9 27.2 2.6 2.5 5 6 6.9 9l2 4.4c2.2 8 3.3 11.6 3.5 20.4-.5-7.6-2-13-4-20.2l-1.1-2-1-2.2-1.5-2.3-1.6-2.2-1.9-2.1-1.8-2.1c-6.8-4.8-10.6-15.4-16.1-22.3l-2-2.4-2-2.3-2.2-1.5A55.6 55.6 0 00335 78l-3-.4-2.3-.2-2.3-.3h-.1c-2.4-.7-4.2-1.2-6.7-1.3l-2.8-.2a.7.7 0 11.1-1.4zm-.4-2.1l11.3 1.6 7.7.9c8.9 1.8 22.8 4.3 28.8 11.8l7 8.7c8.7 11 23.2 31 24 44.8h-.1c-1.7-15.6-16.7-33.7-26.7-46.5l-5.8-6.2c-6-6.5-17.9-9.2-26-11L325 74.8l-7.9-1.3a.7.7 0 11.3-1.4zm2-1.4l6.3.4 4.2.7h5c10.8 1.5 19 2 27.9 8.9a93.4 93.4 0 0115.7 16c4.2 6.1 7.4 12.9 11.3 19.2-16.4-25.4-24.8-39.1-53.2-42.5l-6.7-.2-7.6-.8-3-.3a.7.7 0 010-1.4zm-.1-2h1.2l1.2.2 1.8.1 1.7.2 1.9.1 1.9.1h1.5c24.7 2 35.9 6.4 51.3 27l5.7 9.4-6.2-9.1C362 71.8 349 72 319.1 70a.7.7 0 11.2-1.4zm.4-2.4c13.6.1 27.3.5 42.1 7 5.7 2.6 10.8 6 15.2 10.5 3.2 3.3 4.9 7.1 6.8 11.2l-3.6-6.4-3.6-4.3-1.7-1.6-1.7-1.5-2-1.4-1.9-1.4-1.9-1.2-1.9-1.2-4-1.8-4.2-1.7-2.5-.9c-11.3-4-23.4-3.5-35.2-3.9a.7.7 0 110-1.4zm-1.2-4.5c7.3.3 14.2-1.1 21.5-.7 4 .3 8.4.2 12.3 1.4l10.5 5-8.6-3.4c-3.8-1.5-7.4-1.5-11.5-1.7-8.3-.4-16 1-24.2.8a.7.7 0 010-1.4zm.9-4.7c1.7.4 3.1.6 5 .3l5.1-1 5.2-1 2.8-.4 2.8.4 2.5.2 2.5.6 4 1.4-4.2-.9c-3.5-.5-6.7-.8-10.3-.4l-5 1.2-5.2 1.3-1.8.2h-1.5l-1.2-.2-1-.3a.7.7 0 01.3-1.4zm15.3-1.8zm-10 3.4zm-4.7-3.4c3.2.3 6-.2 9-.7l2.4-.4 2.3-.3 2.3-.3 2-.2h2.1l1.3.3 1.2.3-8.8.8-2.2.4-2.3.5-2.4.6-2 .5-2.1.1h-1.5l-1.5-.1a.7.7 0 11.2-1.5zm.8-2.2c1.7.3 3.2.6 4.9.1l5.6-1.6c1.7-.2 3 .1 4.7.5H333l-1.5.2-1.5.5-1.9.9-2 .7-1.5.4h-2.8l-1.2-.3a.7.7 0 11.3-1.4zm5.2 1.3zm-6.8-3.3l5.5-.5 4.9-.4v.1l-4.7 1.2-5.9 1a.7.7 0 01.2-1.4zm.3 8.5c6.3.8 12.3-1.4 18.7-1.4h1.9l2 .1 2 .2 2 .2 1.9.3 1.9.4 9 3.4h-.1c-5-1.6-9.6-3-14.8-3.4l-9.5.1-1.9.2-1.8.3-1.8.4-1.2.3-1.2.2-1.2.2h-6.1a.7.7 0 11.2-1.5z"/><path fill="#b89665" d="M258.2 204.4c-.7 4.3-5 5.9-8 8.5-4 3.4-8 7.4-7.2 13l.5 3.1c.2-2.1.4-4 1.2-6 1.4-3.8 4-7.7 6.8-10.4 1.6-1.6 2.8-2.4 4.6-3.4.3-.2.8 0 1 .3.1.4 0 .8-.4 1a26.6 26.6 0 00-13 18.8c.3 2 1 3.8 2.2 5.2 1 1.4 2.5 1.4 4.2.9.8-.2 1-1.5 1-2V229a18 18 0 016.5-12.7 19.4 19.4 0 00-5.8 12.7c-.1 1.8.8 5.3-.9 6.9-.7.6-2 .8-3.1.7-.1.2-.4.4-.7.4-2.5.7-5.8 1.5-8 3.2l1.2-.3c3.5-.8 7.3-.4 10.7-1.7 1.2-.4 2-2.9 2.3-4l1-7.8c.3-2.1 2.1-3.5 1.9-5.8.6 2.4-1.4 4.4-1.6 6.8-.2 3-.2 5.6-1.2 8.5-.3.8-1.1 2.5-2 2.8-4.4 1.8-9.5.7-13.7 2.8-2.6 1.2-5.1 4.1-4.8 7.2l.1 1.3c2.1-3.7 7-5.9 10.7-7 2.4-.8 4.9-.9 7.1-2.1 6-3.4 5.6-11.7 6.4-17.7 0-.4.4-.7.8-.6.4 0 .7.4.6.8-.8 5.5-.5 12.5-4.7 16.8-2.8 2.8-6.3 2.9-9.9 4-3.8 1.1-9.5 3.6-10.8 8l.1 1a11 11 0 012.4-2.4c2.5-3 6-4.3 9.7-5.6 2.6-1 5.3-1.4 7.6-3l3.5-3.4c.3-.3.7-.3 1 0 .3.2.4.6.1 1-1.9 1.8-3.4 3.4-5.8 4.5-4.4 2-9.2 2.2-13.3 5l-.5.3c5-2 11.4-1.1 16.1-3.7 1.5-.8 2-2 2.5-3.5h.1a5.5 5.5 0 01-3.6 4.5c-5.3 2.2-11.2 1.6-16.3 4.4l-1.4 1-1 1.8c4.4-2.6 9.5-3.1 14.5-4 1.3-.2 2.5-.3 3.6-1l3-2.8c.2-.3.7-.3 1 0 .3.2.3.7 0 1-2 1.9-3.6 3.6-6.4 4l-8.1 1.3a7 7 0 012.1 3.7c.8 2.6 1 5.6-1 7.8-3.4 4-9.1 5.7-13.6 8.2l-.8.8c1.6 1 3.4.4 5-.5 5.6-3.3 11.3-7.8 11.9-14.8 0-1.5-.6-2.9-1.3-4.1a.7.7 0 01.2-1c.3-.3.7-.2 1 .2a9.5 9.5 0 011 7.4c-1.3 5-5.3 8.5-9.6 11-2 1.4-6 4.2-8.3 1.9-.5.9-.6 2 .3 2.6.8.5 2 .2 2.9.1l5.2-.7c-2.4.5-5 1.6-7.5 1.4-1.7 0-2.3-1.9-1.8-3.3.9-2.5 4.7-3.4 6.7-4.5 2.7-1.5 5.8-3 7.9-5.5 2-2.5 1.1-7.3-1-9.5-.3-.3-.7-.4-1.1-.5l-.5-.1-1.6.5a7.4 7.4 0 014.5 6.6c0 2.3-2.9 3.4-4.5 4.2-3.2 1.7-8 2.7-10.5 5.7-2 2.5-2.6 7.9.8 9.5 2.3 1 5.5-.6 7.8-1.1.3 0-.1.7-.2.8-1.7 2-3.4 3.2-6 3.2-2.2-.1-4.3-.7-5.5-2.7a10.6 10.6 0 011.7-13.4c2.1-2 4.6-2.8 7.4-3.4 2.3-.5 4.4-2 4.6-4.6 0-1-.3-2.8-1.7-2.6-.6.1-.7 1.2-.7 1.7 0 .6.7 1.7 0 2-5.3 2.1-11.6 4.3-14.5 9.8-2.2 4-.9 8.4 1.8 11.8 1.5 2 3 3.5 5.5 3.7 1.3.2 2.2 0 3.3-.7.6-.4 1-.8 1.7-1 .4 0 .7.4.7.8 0 .3-.2.6-.5.7h-.2c-1.3.8-2.4 1.7-4 1.7-3.1 0-5.1-1.4-7-3.8a13.6 13.6 0 01-3.5-6.7c-1.3-8 5.9-13 12.3-15.8l1.4-.6 1.4-.5.7-.3v-.3c-.2-1.2 0-3 1.2-3.4 1.4-.5 2.7.9 3 2.2.6 3.4-1.8 5.7-4.8 6.6-1.9.6-3.6.7-5.4 1.7a10.2 10.2 0 00-4.8 12.5c.8 2 2 3.4 4.3 4 1.3.2 3.2.5 4.4-.3 1-.6 2.2-1.5 3-2.4.2-.1.6-.5.4-.6-2.3.7-4.8 2.1-7.2 1.7-1.7-.2-3.2-1.9-3.6-3.5-.6-2.5.2-6.3 2.2-8 1.6-1.5 3.5-2.4 5.3-3.3 1.4-.7 7.2-2.7 8.2-4.5 1.1-2-1.3-4.6-2.6-5.7-.6-.5-1.3-.7-2-.8h-.4a18.2 18.2 0 00-2.3 1.3l-.1.5v.6l.2.3h-.1v.6c0 .2-.4.3-.6.1l-.2-.1c0 .2-.3.3-.6.1-.6-.3-.5-1-.2-1.7a9.4 9.4 0 010-4.6l-.3-3v-1c.3-3.5 3.1-5.9 6.2-7.1.2-.4.6-.7.9-1 2.1-1.6 4.4-2.7 7-3.6-1-.7-1.8-2.1-2.3-3.1-2-4.6-3-10.7.1-15l5.5-6c2.4-2.2 7-3.9 7.5-7.5 0-.4.3-.7.7-.7.4 0 .7.3.7.7zm12.8 45.4l.2-1 .3-.9-.4-.3a.7.7 0 00-.8.6l-2.3 4.5-7 7.8a9.6 9.6 0 00-1.6 4.3c-.6 3.4-1.4 8.2-4.2 10.7l-8 7.2a8.6 8.6 0 00-2.1 7.6c1.1 4.2 5.2 5 9 4.2 1.2-.3 2.6-.8 2.7-2.2l-.4.9c-2 1.7-5.7 1.3-8 .4-2.7-1-3.3-4.6-2.5-7 1.7-5.4 7.5-7.4 10.9-11.3 2.3-2.7 3.1-7.1 3.8-10.5l.5-1.8c1.5-3.9 5.6-6.2 8-9.5zm-6.8 22.1c0 3.2-2.2 6.2-4.3 8.2-2 2-4.5 2.9-6.7 4.5-1.4 1-1.6 2.3.1 2.9 1.4.5 2.8.2 4.1-.3-1.7 1.1-3.7 1.5-5.4.3-1-.7-.8-2.1 0-3 1.9-2 4.9-2.9 6.9-5 1.7-1.8 4-4.7 4-7.4-.1-.4.2-.7.5-.8.4 0 .8.2.8.6zm1.9-11.2c-1.2 1.5-2.6 2.9-3.4 4.7-1.9 4.3-1.1 10.3-5.3 13.4-1.4 1-3 1.4-4.5 2.5-2 1.4-4.7 3.7-4.8 6.4-.1 1.7 1.5 2.4 2.9 2.8 1.4.3 4.3.8 5.7-.3v-.1h.2c0 .2-.2.4-.4.5-2.4 1.2-6.4 1-8.4-1-1.6-1.3-.4-4.1.6-5.5 1.7-2.2 3.7-3.6 6-5 1.3-.8 2.8-1.3 3.6-2.7 1.9-3.6 1.6-7.8 3.2-11.6.8-2 2.3-3.5 3.6-5.2.3-.2.8-.2 1 0 .3.4.3.8 0 1.1zm4-16c-.4 2-.7 3.6-1.8 5.4l-4 5.2c-2.1 2.3-5 3.8-5.8 7.1-1 4.3-1.4 9-4.9 12l-10.1 8.3c-1.3 3.8-1 8 1.6 11.2a7.5 7.5 0 004.4 2.8c-4.4-.5-7.8-5.6-7.5-10 .4-4.8 2.7-8.2 5.6-11.6 1.6-2 4.1-4 4.9-6.7 1-3.5-.3-7.2.3-10.7.9-4.8 4.5-7.3 6.8-11.4 1.7-3 2.7-6 2.4-9.4-.3-2.7-1.6-5.1-2.2-7.7l-.5-6.6c0-.4.4-.7.8-.7s.7.4.6.8l.5 6.2c.7 3.6 2.6 7 2 10.8-.5 4.2-2.6 7.3-5 10.6-1.4 2-3 3.3-3.9 5.6l-.5 2.7c1.7-4 5.7-6.7 8-10.4 2.2-3.6 2.8-7.7 2.7-12 0-.5 0-1.8-.5-2.3a.7.7 0 01-.2-1c.2-.3.6-.4 1-.2 1.3 1.2 1.2 3.4 1 5-.2 2.7-.4 5.7-1.6 8.2-2.4 5.4-8.1 8.5-10.4 13.8 0 2.2.2 4.3 0 6.4l1.2-4c2.6-5.8 7.7-9.8 10.7-15.4 1.5-3 1.6-5.5 1.9-8.8 0-.4.2-.8.6-.8.4 0 .8.3.8.7l-1 6.6c-2 6-7.2 10-10.7 15-2 2.8-2.3 6.2-3.8 9.2l-.1.1c-1.2 3.9-5.1 6.5-7.5 9.5a16 16 0 00-2.3 4.3l9.5-8.6a15 15 0 003.7-6.9c.7-2.8.3-5.3 2-7.8l4.6-4.7c2.6-3 4.6-5.8 5.2-9.7 0-.4.3-.7.7-.7.4 0 .7.2.8.6zM256 217a14.7 14.7 0 00-5.5 7.4c-.9 2.6 0 5-.2 7.7-.2 1.9-1.3 3-3.1 2.2-1.2-.5-1.8-2-1.9-3.2-.3-5 1.4-9.8 5.1-13.2l7.2-6.3-5.2 5.4c-1.8 1.7-4 3.4-4.9 5.9-1 2.8-2 6.8-.6 9.7.2.5 1.3 1.3 1.8.8 1-.8.3-3.9.2-4.8a14 14 0 012.8-9.5c1-1.4 2.2-2.3 3.6-3.4.4-.2.8 0 1 .3.2.4 0 .8-.3 1zm113.3-14.1c.7 4.3 4.8 6 7.8 8.6 3.9 3.5 8 7.5 8 13.2l-.2 3.2c-.4-2.2-.8-4-1.7-6.1a39.8 39.8 0 00-7.4-10.6 20.7 20.7 0 00-4.4-3.4.6.6 0 00-.8.3c-.2.3 0 .8.3 1a32 32 0 0110.6 11.2c1.6 2.6 2.5 5 3.4 8-.2 1.8-.6 3.8-1.6 5.3s-2.3 1.4-3.9 1c-.7-.3-1-1.6-1-2.2l-.4-4.4a22 22 0 00-7.4-13.1 24.8 24.8 0 016.8 13.1c.2 1.9-.3 5.4 1.3 7 .7.7 2 .8 3 .7.1.3.4.5.6.5 2.4.6 5.5 1.2 7.6 2.7l-1.1-.2c-3.3-.6-6.8 0-10-1.3-1.1-.4-2.1-3-2.4-4l-1.6-8.1c-.5-2.2-2.4-3.7-2.4-6h-.1c-.2 2.4 1.9 4.5 2.3 7 .5 3 .7 5.7 1.9 8.6.3.8 1.1 2.7 2 3 2 1 4.2 1.1 6.4 1.2 2.2 0 4.4.1 6.4 1 2.4 1 4.8 3.7 4.5 6.7l-.2 1.3c-2-3.4-6.5-5.1-10-6-2.2-.6-4.5-.6-6.5-2-5.8-3.7-6-12.2-7.4-18.2 0-.4-.4-.8-.7-.7-.4 0-.6.3-.5.7 1.3 5.6 1.6 12.6 5.7 17.4 2.6 3 5.8 3.1 9.2 4 3.5 1 9 2.8 9.9 7l-.2 1.1a6 6 0 00-2.1-2.1c-2.3-2.8-5.4-3.7-9-5-2.4-.7-5-1-7-3-1.2-1-2.2-2.4-3.3-3.6-.2-.4-.6-.5-1-.2-.2.2-.2.6 0 1 1.8 2 3.1 4 5.4 5.2 4 2 8.5 1.9 12.3 4.2l.5.4c-2.4-.8-5-.8-7.7-1-2.6-.2-5.2-.7-7.4-2.2-1.3-1-1.8-2.2-2.2-3.8.3 2.3 1.2 3.8 3.2 4.9 2.3 1.2 5 1.6 7.5 2 2.6.2 5.2.5 7.6 1.6l1.3.9.8 1.7a20 20 0 00-6.6-2l-7-.8c-1.2-.2-2.4-.3-3.3-1.2-1-1-1.7-2-2.6-3-.2-.3-.6-.4-1-.2-.2.2-.3.7 0 1 .7 1 1.5 2.1 2.4 3h.1c.9.8 1.9 1.4 3.1 1.6 2.6.5 5.2.5 7.7.9a9 9 0 00-2.4 3.9c-1 2.7-1.4 5.8.3 7.8s4 3 6.3 4c2.4.8 5 1.4 7.3 2.3l.7.7c-1.7 1.2-3.4 1-5 .2-5.6-2.4-11.2-6.3-11.2-13.3 0-1.6.9-3 1.7-4.3.2-.4.2-.8-.1-1a.8.8 0 00-1 .2c-1.4 2.6-2.3 4.8-1.8 7.6 1 5 5 8.1 9.2 10.2 2 1 5.8 3 8.3.4.5.8.5 2-.4 2.6-.9.7-2.1.6-3 .7h-5.2v.1c2.4.1 5 .8 7.6.2 1.7-.4 2.3-2.3 1.9-3.6-.8-2.3-4.6-2.7-6.6-3.4-2.7-1.1-5.8-2.2-7.7-4.5-1.9-2.3-.6-7.2 1.7-9.7.3-.3.6-.5 1-.5.2 0 .4-.2.5-.3l1.5.4a9.4 9.4 0 00-4.8 7.1c-.2 2.4 2.6 3.1 4.2 3.7 3.2 1.3 8 1.5 10.4 4.2 2 2 2.2 7.3-1.3 9.4-2.4 1.4-5.5.4-7.7.2-.3.2 0 .7.2.8 1.5 1.6 3.2 2.6 5.7 2a8.8 8.8 0 005.8-3.4c3.1-4.5 2.4-9.8-1.2-12.8-2-1.8-4.5-2.2-7.3-2.4-2.3-.1-4.3-1.4-4.3-4 0-.9.4-2.8 1.7-2.8.6 0 .6 1.2.6 1.6 0 .6-.7 1.8 0 2 2.5.7 5.4 1.4 8 2.5 2.6 1.2 4.9 2.8 6.2 5.4 2 3.8.5 8-2.5 11.6-1.6 2-3.4 3.8-5.8 4.5-1.3.3-2.1.3-3.2-.2l-1-.4c1.4.9 3 1.5 4.7 1.7a14 14 0 005.8-4.3c1.7-2 3.5-4.3 4-6.8 1.7-7.8-5.6-12.2-12-14l-1.3-.5-1.3-.3-.8-.1.1-.4c.3-1.2.2-3-1-3.2-1.4-.4-2.7 1.2-3 2.5-1 3.5 1.4 5.5 4.4 6 1.8.4 3.6.2 5.3 1a8.5 8.5 0 014.4 11.5 7.8 7.8 0 01-4.6 4.5c-1.3.5-3.2 1.1-4.4.6-1-.5-2-1.1-2.9-1.9-.1-.1-.5-.4-.3-.6 2.3.4 4.7 1.3 7.1.5a6.6 6.6 0 003.8-4c.8-2.5.1-6-1.8-7.6-1.6-1.2-3.5-1.8-5.3-2.4-1.3-.5-7-1.7-8-3.5-1-1.9 1.6-4.7 3-6 .6-.5 1.3-.8 2-1l.3-.1a14.8 14.8 0 012.2 1l.1.6v.5l-.2.4v.6c0 .2.4.2.6 0l.2-.1c0 .2.3.2.6 0 .6-.4.5-1 .2-1.7a10 10 0 00.2-4.6 132.8 132.8 0 00.5-4 18 18 0 00-3-5.1l-2.8-1.4-.9-.8a23.8 23.8 0 00-6.7-3.3c1-.8 1.5-2.2 1.8-3.3 1.4-4.7 1.8-11-1.7-15.2a95.6 95.6 0 00-5.6-6c-2.3-2.4-6.6-4-7.2-7.7 0-.4-.3-.7-.7-.7-.3 0-.6.3-.6.7zm-3.8 72.8l2.5 1.9c-1.7-2.3-3.6-5.5-3.5-8 0-.4-.2-.8-.6-1-.4 0-.7.1-.8.5 0 2 1 4.5 2.4 6.6zm5.5 5l.6 1.7 2.5 2.1c1.3 1.2 1.5 2.6-.2 3-1.4.3-2.7-.4-4-1.2 1.6 1.5 3.6 2.4 5.3 1.3 1-.6.8-2 0-3-1.1-1.4-2.7-2.5-4.2-3.8zm4-17.2l-.6-3c-.2 1.7-.5 3.4-.5 5.2-.3-1.4-.4-2.9-.8-4.3-1.8-6.3-6.1-11.3-8.2-17.2-1.1-3.2-1.2-5.6-1.4-8.8 0-.4-.3-.8-.7-.8-.3 0-.6.2-.6.6.3 2.2.3 4.4.7 6.5.9 6.1 5.3 11 8.2 16.6 1.6 3.3 1.6 6.6 3 10h.1v.1c1 4 5 6.7 7.2 9.6a14 14 0 012.3 4.1c-3.1-2.6-6.3-5.3-9.4-8.5-1.9-1.9-3-5-3.4-7.5-.6-3 .2-5.6-1.3-8.3-1.2-2-2.7-3.8-3.9-5.7a19 19 0 01-3.4-10c0-.4-.2-.8-.6-.8-.3 0-.7.2-.8.6.1 2 .1 3.5 1 5.3a61 61 0 002.8 5.6c1.7 2.7 4.3 4.8 4.8 8.3.6 4.5.7 9.4 4.3 13 3.2 3.3 6.6 5.8 10 8.2 1 3.7.5 8-2.3 11.6a8 8 0 01-4.3 3.2c4.2-.9 7.8-6.5 7.7-11 0-4.7-2.3-7.8-5.1-11.1-1.6-1.9-4-4.1-4.7-6.8-.3-1.6-.2-3.1 0-4.7zm-1.6-7.2c-.1-.7-.3-1.3-.3-2-1.5-2.7-3.5-5.2-4.7-8a31 31 0 01-2.2-12.2c0-.6 0-1.8.4-2.2.3-.2.4-.7.1-1-.2-.4-.6-.5-.9-.3-1.1 1-.9 3.1-.7 4.8.2 2.6.4 5.5 1.2 8.1 1.4 4.7 5 8.4 7.1 12.8zm-.4-4.6c0-.7.1-1.2.3-1.7-1-1.7-2-3.3-2.7-5.2a22.8 22.8 0 01-2-9.8c.1-2.6 1.3-4.8 1.4-7.3.1-2.2-.1-4.4-.2-6.6-.1-.4-.5-.8-.8-.7-.4 0-.6.3-.5.7 0 2 .4 4 .3 6-.2 3.6-1.9 6.6-1.4 10.5.6 4.2 2.3 7.6 4 11.4l1.6 2.7zm-10.8 6c1 1.7 2.2 3.4 2.8 5.3 1.6 4.7.7 10.5 4.8 14.8 1.4 1.4 3.2 2.2 4.6 3.4 1.9 1.6 4.5 4 4.6 6.7 0 1.7-1.5 2.6-2.9 2.8-1.4.3-4.2.3-5.4-1.1l-.1-.3h-.1c0 .3.1.5.3.6 2.3 1.8 6.1 2 8 0 1.7-1.5.6-4.3-.4-5.6-1.5-2.3-3.5-3.8-5.8-5.6-1.3-1-2.8-1.9-3.5-3.6-2-4.1-1.5-8.2-2.8-12.3-.7-2.2-2-4-3-6a.7.7 0 00-1 0c-.4.2-.4.7-.1 1zm-3.3-12.2c.6 1.7.9 3.4 1.6 5 1.5 3.5 5.4 6.4 6.4 10.6.2.6.2 1.2.3 1.9.5 3.5 1 8.1 3.4 11.4 3.3 4.7 9 6.8 10.6 12.2.7 2.4-.1 6.2-2.7 7.3-2.2 1-5.7 1-7.5-1.3a2 2 0 01-.4-1h-.1c.1 1.4 1.4 2.4 2.6 2.9 3.5 1.2 7.3.2 8.7-4.2.9-2.7 0-6-1.7-7.6-2.6-2.4-5.3-4.9-8-7.7-2.7-3-3.3-8.2-3.7-11.8-.2-1.7-.3-3.1-1.2-4.6-1.9-3.2-4-6-5.5-8.9-.7-1.4-1-3-1.4-4.5 0-.4-.4-.6-.7-.5-.4 0-.7.5-.7.8zm13.2-29.9c2.5 2 4.5 4.5 5.8 7.7 1.1 2.7.6 5.2 1 8 .4 1.8 1.5 3 3 2.1 1.1-.6 1.5-2 1.5-3.3-.2-5.2-2.4-10-6.2-13.4l-7.1-6.6v.1c1.7 1.9 3.4 3.8 5.3 5.6 1.8 1.8 4 3.5 5 6 1.3 2.8 2.8 7 1.7 10-.1.4-1.1 1.2-1.6.8-1-1-.6-4-.6-5a17 17 0 00-3.7-9.6 18.5 18.5 0 00-3.7-3.6c-.3-.2-.7-.1-.8.2-.1.4 0 .8.4 1z"/><path fill="#2c2c2b" d="M358.5 196c-.4 7.2.4 14 4.2 20.3a57 57 0 01-4.2-20.2zm-42.4 54.7c1.2 6.6.8 14.2-.3 22.4-.4 4 .1 8 1.4 12 1.6 4.8 8.6 11.9 3.8 16 3.6-5-2.6-10-4.3-14.9-1.5-4.3-2-8.7-1.8-13 1-7.5 1.5-15 1.2-22.5zm3.4.4c1.2 12.5-4.1 29.3 4.7 39.4 4 4.4 4.4 13.5-3.7 11.5 7.9-.6 6.1-6.3 3-11.5-8.5-9.4-3.7-27.4-4-39.4zm8 19c1 7.7 2.8 15 5 22.2 1.2 6.7-.1 11.9-5 15.2 4.4-4.4 5.8-9.5 4-15.2a88.2 88.2 0 01-4-22.2zm-3.4-21c1 10.2-1.3 21.5.6 29.5 1.2 5.3 4.3 15 4.1 20.9 0 3.2-1 5.3-3.9 5-1.2-.1-2.9-.8-5-2 1.7 1 3.4 2.2 5 2.3 3.7.3 4.6-2.4 4.4-5.5-.4-6.8-2-13.9-4-21-2.4-9 .8-20-1.2-29.2zm-11.8 1.6a67 67 0 00.4 22.4c.4 4-.1 8-1.5 12-1.7 4.8-9.2 11.9-4 16-4-5 2.7-10 4.5-14.9 1.6-4.3 2.2-8.7 2-13-1-7.5-1.6-15-1.4-22.5zm-3.6.4c-1.3 12.5 4.4 29.3-5 39.4-4.3 4.4-4.7 13.5 4 11.5-8.5-.6-6.6-6.3-3.2-11.5 9-9.4 4-27.4 4.2-39.4zm-8.6 19c-1 7.7-3 15-5.2 22.2-1.5 6.7 0 11.9 5.3 15.2-4.8-4.4-6.3-9.5-4.4-15.2a83 83 0 004.3-22.2zm3.6-21c-1 10.2 1.5 21.5-.5 29.5-1.4 5.3-4.6 15-4.5 20.9.1 3.2 1.2 5.3 4.2 5 1.4-.1 3-.8 5.3-2-1.8 1-3.6 2.2-5.4 2.3-3.8.3-4.8-2.4-4.6-5.5.4-6.8 2-13.9 4.4-21 2.5-9-1-20 1.1-29.2zm-5.9-1.3a46.1 46.1 0 01-5 36.8 54 54 0 005-36.8zm-4 1c.5 12.3-.4 23-3.9 31 3.2-9.8 3.9-20.3 4-31zm-3.2 0c-2.6 8.1-1 19-3.5 25.6 3.4-4 1.5-17 3.5-25.6zm-2.2-4.1c-3 6.8-3.8 13.6-3.3 20.4.1-6.6 1-13.4 3.3-20.4zm-3-2.8a33.5 33.5 0 00-3 20.4c-.5-6.8.5-13.6 3-20.4zm-2-7c-4 6.8-7.6 13.7-4.4 24-2.1-9.4.7-16.8 4.3-24zm1.9-24.3a98 98 0 01-9.9 31.5 147 147 0 009.9-31.5zm-2.6-5.6c-.7 6.7-.8 12.7-10 31.6 5.2-10.5 8.3-21 10-31.6zm-3.3-1.9c-.4 9.4-4 20.5-9.3 32.5a197 197 0 009.3-32.5zm-2.7-2.2a124.4 124.4 0 01-8.7 30.5c3.8-10.2 6.7-20.4 8.7-30.5zm-4.5-3.6a59 59 0 01-6.4 29.3 77.4 77.4 0 006.4-29.3zm-3.5-1.2c.5 7-.4 14-4.2 20.2a57 57 0 004.2-20.2zm60.7 51.7a46.5 46.5 0 005 36.8 54.7 54.7 0 01-5-36.8zm4 1c-.5 12.3.4 23 3.9 31a106 106 0 01-4-31zm3.2 0c2.6 8.1 1 19 3.5 25.6-3.4-4-1.4-17-3.5-25.6zm2.2-4.1c3 6.8 3.8 13.6 3.3 20.4 0-6.6-1-13.4-3.3-20.4zm3-2.8a33.5 33.5 0 013 20.4c.5-6.8-.5-13.6-3-20.4zm2.1-7c3.9 6.8 7.5 13.7 4.3 24 2.1-9.4-.7-16.8-4.3-24zm-2-24.3a98 98 0 0010 31.5c-4.8-10.5-8-21-10-31.5zm2.7-5.6c.6 6.7.7 12.7 9.8 31.6a109.8 109.8 0 01-9.8-31.6zm3.3-1.9a95 95 0 009.2 32.5 197 197 0 01-9.2-32.5zm2.6-2.2c1.6 10.6 4.5 20.7 8.7 30.5a203.8 203.8 0 01-8.7-30.5zm4.5-3.6a59 59 0 006.4 29.3 77.4 77.4 0 01-6.4-29.3z"/><path fill="#ad9465" d="M324.4 214.4a11 11 0 017.2 1.3 19 19 0 013.7 6.7c1.2 1.7 3 2.1 5 2.4l.9 1 .1.4v.4l-.1.1v.3a9.3 9.3 0 01-.1.3v.4h-.1v.4h-.1v.3l-.2.4v.1a10.6 10.6 0 01-1.7 3.2l-1.5 1.4c-9.8-17.2-31.5-16.5-42.2-1l-2.3 2c-3-2.4-4-4.5-4.2-6.6l.8-.9 1.5-1.8v.1c2.5-1.3 5-3.3 6.8-5.7.6-2 2-3.2 3.5-4.3 2.4-.8 4.7-1 6.9-.7-1.7 1 .7 4.4 3.8 4.6 2.9.1 6 .6 8.4.1 2.5-.4 4.7-1.3 5.6-2.7 1-1.4-.1-2-1.7-2.1zm-27.2 22.4c9.5-15.6 30-17.2 38-1-2.3 1.8-5.6 3.5-8.9 1.5-5.7-9.1-17.3-5.8-23.3-.6-2.1 1-4 .8-5.8 0z"/><path fill="#a7895f" d="M313.3 84.5c-1.5 3-2 5.7-7 9.2 1.4-.1 2.4-.8 3.3-1.6-1.5 2-3.6 3.8-5.6 5.6 5-3 8.4-7.3 9.3-13.2zm1.4.7a39.7 39.7 0 01-6.5 12.7c2.5-2 4.3-4.3 5.8-6.9a31 31 0 01-5.1 8.3c5.1-4 7.5-8.5 5.8-14z"/><path fill="#a7895f" d="M315.4 86.2c.9 3.2.7 6.9-.8 11.2a11 11 0 002.6-8.4c1.7 2.8 1 6.1-.5 9.6 2.9-4.7 3.4-9-1.3-12.4zm4 1.5c4.3 2.6 7 5.7 5.4 10.1-.5-3-1.4-5.5-3.2-7.2 1.5 3 1.4 4.7 1 6.2-.3-3.4-1.4-6.4-3.2-9.1z"/><path fill="#765a4a" d="M340.3 146.8h.1c.3 0 .9.2 1.4.5 10.7 3.5 3.7 10.2-2.1 11.4-5.7 1.3-12.6-1-9-9.2a20 20 0 00-6.3 5.5l-1.1 2.1-2.8 1.4.3 3c.2-1 .5-1.8 1.3-2.1 1.6-.8 3.5-1.4 7-.3 9.5 1.8 17.8-.3 23.5-5.5v-.3c-1.8-1.8-3.2-4-5.6-5.1a15 15 0 00-6.7-1.4z"/><path fill="#ba9457" d="M310 112l-.4 2.7-1.1-3.3-5.6-2.6-.6-.2-.5-.4-.4-.3-.5-.4-.3-.4-.4-.4-.3-.4-.3-.5-.2-.5-.2-.4v-.5l-.2-.5v-1.5l.1-.2-5.2 4.1v.2l.2.6.2.7.3.7.3.6.3.6.4.6.5.6.4.5.5.6.6.6.6.5.6.6.7.5.6.5.7.4.8.4.8.4.8.5.8.3 1 .4.8.2 1 .3.9.2 1 .2 1 .2 1 .1 1 .1 1.1.1h3.1l1-.2 1-.1 1.1-.2 1-.2.9-.2 1-.3.9-.2.8-.4.9-.3.8-.5.8-.4.7-.4.8-.4.7-.5.7-.5.6-.6.6-.5.5-.6.5-.6.5-.5.4-.6.3-.6.4-.6.3-.6.3-.7.2-.7.1-.6.1-.7v-.7l.2-.6-.1-.4v-1.4l-.2-.4v-.2l-.1-.4-.1-.2-.1-.3-.1-.3-.2-.3v-.3h-.1l-.4-.2-.2-.1-.4-.1-.3-.2-.3-.2h-.3l-.4-.2-.3-.1-.3-.2h-.3l-.2-.1v.7l-.1.4-.1.3-.1.3v.4l-2 5.7-1.4-4.3-.8.8-3.5 2.7-.4.3-.4.2-.4.3-.5.2-.4.1-.5.1h-2l-.4-.2-.5-.1-.4-.3-.3-.2-.4-.4-.2-.3-.2-.5-.3-.4v-.4l-.1-.4v-.9l-.1.1h-.3l-.2.2h-.2l-.2.2-.2.1-.2.1-.2.2h-.1l-.2.1v.2l-.2.1-.1.2h-.2v.2l-.2.1v.2l-.1.2h-.1l-.1.2-.1.2v.3l-.2.2v.3l-.6 3.9 3.9 3.6zm-2.6-4.5l-.4-.8v-.6l-.1-.3-.1-.2v-.4l-.1-.2v-1.6l.2-.3v-.2l.1-.4.1-.2-.2-.5v-.1h-.1l-.5.2-.3.2-.3.2-.3.2-.3.2-.2.2-.2.1-.1.2-.1.2-.1.1-.1.1v1l.2.1.1.3.2.2.2.2.2.3zm14-6l-.2.3-.2.3h.4z"/><path fill="#bb9157" d="M310 117.2l.8.2h2l1 .2 1-.1h1l1-.1 1-.2 1-.1h.1l-8.1-3.7zm9-.1l.8-.2.8-.3 1-.2.8-.3.9-.3.8-.4.8-.3.7-.4.7-.5.8-.4.6-.4.7-.5.6-.4.5-.5.5-.6.5-.6.4-.5.4-.6.3-.5.3-.6.3-.6.2-.6.2-.5.2-.6v-.6l.2-.6v-1.5l-.1-.2v-.3l-.1-.2v-.3l-.1-.3v-.3l-.2-.3v-.2l-.1-.3-.1-.1v-.1l-.4-.1-.3-.2-.3-.1-.3-.1-.3-.2h-.3v.3l-.2.3v.3l-2.8 8.5-2-5.6-3.2 2.6-.5.3-.4.3-.5.2-.5.3-.5.2h-.5l-.5.1-.6.1H317l-.5-.2-.6-.2-.4-.2-.5-.3-.4-.4-.5-.4-.3-.4-.3-.5-.2-.5-.2-.5h-.1l-.1.1-.2.1-.2.2-.1.2-.1.1-.1.1v.2h-.2v.4l-.1.2-.1.2v.2l-.6 3.3zm-9.7 0l-1.6-5-5.2-2.4-.6-.3-.6-.4-.5-.4-.5-.4-.4-.4-.4-.5-.5-.5-.2-.5-.3-.6-.2-.5-.1-.6-.1-.4-3 2.5v.2l.1.5.3.6.2.6.4.6.3.5.4.6.4.5.5.6.5.6.6.5.6.4.6.5.6.4.7.4.8.5.8.4.7.3.8.4.8.3 1 .3.8.2 1 .3.9.2zm-4-12.9l.1.2v.2l.3.1v.1-1.3l.1-.2-.3.2-.1.1v.2h-.2v.2z"/><path fill="#bc9256" d="M311.2 116.5h4.2l-4-1.7zm16.3-4.2h.3l.5-.6.5-.4.5-.5.4-.5.5-.6.3-.5.3-.5.3-.5.2-.5.2-.6.2-.5.2-.5v-.5l.1-.6v-1.7l-.1-.3v-.2l-.1-.3-.1-.2v-.2l-.1-.3-.3-.2-.2-.1h-.1zm0 .2l-2.5-6.8-2.2 1.7-.6.4-.5.3-.5.3-.6.2-.6.2-.6.2h-.6l-.6.1H317l-.6-.2-.7-.2-.6-.2-.6-.4-.5-.4-.5-.5-.4-.6-.2-.3v.1l-.1.2v.2l-.5 2.8 7 6.4h.2l.9-.3 1-.3.7-.2.8-.3.8-.3.8-.4.6-.4.8-.3.6-.4.7-.5zm-28.8-4.6l-.4-.6-.4-.6-.3-.6-.1-.3-1.4 1.2v.1l.2.6.3.5.3.5.3.5.4.5.4.6.4.5.5.5.5.4.6.5.6.4.6.5.6.4.7.3.8.4.7.4.8.3.8.3.8.2.9.3.6.2-1-3.2-4.8-2.2-.7-.3-.6-.4-.6-.4-.6-.5-.5-.4z"/><path fill="#4e433c" d="M332.1 150.6c-.2.6-.2 1.1-.2 1.7a5.8 5.8 0 0011.4 0c0-2-1-3.7-2.5-4.7-.6-.3-1.3-.6-2-.7a21 21 0 00-5 1.2 6 6 0 00-1.7 2.5z"/><path fill="#3d2f2e" d="M333.6 149.6a4.8 4.8 0 108.8 2.7c0-2.1-1.4-4-3.4-4.6-2.4-.4-4.3 0-5.4 2z"/><path fill="#3a3532" d="M337 150.5a1.5 1.5 0 000 3 1.5 1.5 0 000-3z"/><path fill="#5c5d5e" d="M269.1 155.6c0-6 1.2-10.5 2.8-14.4 3.9-9.2 12.1-11.8 19.7-8 5 2.4 10.5 3.4 14.9 7.2 3 0 3 2 3.2 4l3.6 7.8c.2 11.1.5 22.2.3 33.3-1.8 2.8-2.3 6.4-1.9 11-.4-1.5-1.2-2-2.1-2.7 0-2.3.4-5.2 1.3-7.5 0-10.4-.3-20.8-.8-31.2 0-.5-.2-1-.4-1.5a27.5 27.5 0 00-5.7-9.1c-1.7-2-6.7-3.7-12.2-5.4-13.2-3.5-20.1 3-22.7 16.5zm91.3-3.6c-4.1-11.4-12.1-16.7-19.8-14-12.6 3.5-19.4 9.2-20.5 17.2 1.2 10.2 2 20.4 4.2 30.6-1.2.1-2.3.4-2.7 1.7-.5 1.6-.7 3.6-.9 5.6-.1-1.7-.4-3.4-1.4-5.1l-1.8-34.8c.7-6.8 3.1-10 6.3-11.5 22.1-17 35.6-12.9 36.6 10.3z"/><path fill="none" d="M307.4 186.2c-3.3 2.2-4.6 5.2-2.9 9.6 1.2-2.3 2.8-3 4.8-2.2a14 14 0 011.3-7.2l-3.2-.2zm17.5 0c1.9 2.2 3 5.5 2.9 7.9-2.9-.4-6.1 1.6-7.3 3.2a65 65 0 011.2-8.7c.2-1.9 1.5-2.5 3.2-2.3z"/><path fill="#9a7753" d="M310 187l-.1.2-.1.2-.1.2v.3l-.2.2v.4l-.2.3v.4l-.1.3v.2l-.1.2v.5l-.1.2v.5l-.1.2v1.7h-.6l-.4-.1h-.7l-.4.2h-.3l-.4.3-.3.2-.3.2-.3.3-.3.3-.2.4-.2-.3-.1-.4v-.3l-.1-.4v-.3l-.1-.4v-1.5l.1-.3v-.3l.1-.3.1-.3.2-.2v-.3l.2-.2.2-.3.1-.2.2-.3.2-.2.2-.2.2-.3.3-.2.2-.2.3-.2.2-.2.3-.2.2-.2h1l.4.1h1.2zm16.8 3.5v.2l.2.3v.2l.1.3v.2l.1.3v.5l.1.2v.9H326l-.3.1h-.3l-.3.2h-.3l-.2.1-.3.1-.3.1-.3.1-.2.1-.3.2-.2.1-.3.1-.2.2-.3.1-.2.2-.2.1-.2.2-.2.2-.2.1-.2.2-.2.1v-.4l.1-.2v-.9l.1-.3v-.2l.1-.3v-.6l.1-.3v-.3l.1-.3v-.3l.1-.2v-.3l.1-.3v-.3l.1-.3v-.3l.1-.2v-.3l.1-.3v-.2l.1-.3v-.2l.1-.3v-.3l.1-.3v-.2l.2-.2.1-.2.1-.2.2-.1.1-.1.2-.1.2-.1h.2l.3-.1h1l.2.2.2.2.1.2.2.3.1.2.2.2.1.3.1.2.2.2v.3l.2.2.1.3.1.2.1.3.1.2z"/><path fill="#9e7b54" d="M308.5 192v.5H307l-.4.2-.4.1-.4.2-.3.3-.4.2-.3.4-.1.1-.1-.3v-.3l-.1-.4v-2l.1-.3.1-.3.1-.2.1-.3.1-.2.2-.2v-.3l.2-.2.2-.2.2-.3.2-.2.2-.2.2-.2.2-.2.3-.2.3-.2.2-.2h2v.2l-.2.2v.2l-.1.3v.2l-.2.2v.5l-.1.2-.1.3v.5l-.1.2v.2l-.1.3v.7l-.1.2v.3zm16.3 1.6h-.3l-.3.2h-.2l-.3.2-.3.1-.3.1-.2.2-.3.1-.2.2-.3.1-.2.2-.2.1-.3.2v-.5l.1-.3v-.6l.1-.3v-.3l.1-.2v-.6l.1-.3v-.3l.1-.3v-.3l.1-.2v-.3l.1-.3v-.3l.1-.2v-.3l.1-.2v-.3l.1-.2v-.3l.1-.3v-.3l.1-.2.1-.1.1-.2.1-.1.1-.1.2-.1.3-.2h.5l.3-.1h.2l.1.2.2.2.1.2.2.2.1.2.1.2.2.2.1.3.1.2.1.2.2.3v.2l.2.3v.2l.2.3v.2l.1.2.1.3v.2l.1.3v.2l.1.3v.2l.1.2v.7h-.6l-.3.1h-.3l-.3.1h-.3z"/><path fill="#a27e56" d="M305.2 190.6v-.3l.2-.2v-.2l.2-.3.1-.2.2-.2.1-.2.2-.2.2-.2.2-.2.2-.2.2-.2.2-.2.3-.2.2-.2h1.2v.5l-.2.2v.5l-.2.2v.5l-.1.2v.3l-.1.2v.5l-.1.3v.9l-.1.3v.1h-.6l-.5.1-.4.1-.5.2-.4.2-.4.3-.3.2V191l.1-.2zM322 193v-.6l.1-.2v-.3l.1-.3v-.3l.1-.3v-.2l.1-.3v-.3l.1-.2v-.3l.1-.3v-.2l.1-.3v-.2l.1-.4v-.2l.1-.1v-.2h.1l.1-.1v-.1h.2v-.2h.5l.2-.1h.2l.2.2.1.2.1.2.2.2.1.2.1.2.2.3v.2l.2.2.1.2.1.3.1.2.1.2.1.3v.2l.2.3v.4l.2.3v.4l.1.3v.4h-.2l-.3.1h-.3l-.4.1-.3.1-.3.1h-.3l-.3.2-.3.1-.3.1-.2.2h-.3l-.3.2-.3.2-.2.1-.3.2v-.5l.1-.3v-.3z"/><path fill="#a68257" d="M308.1 187.8h.3v.2l-.1.2v.3l-.1.2v.3l-.1.2-.1.3v.5l-.1.2v.3l-.1.2v1h-.4l-.5.1-.5.2-.4.1-.5.3-.2.1v-1.1l.1-.3v-.2l.1-.2.1-.2.1-.3.1-.2.1-.2.1-.2.2-.2.1-.2.2-.2.2-.2.1-.2.2-.1.2-.2.3-.2.2-.2h.2zm15.2.5l.1-.2.1-.1.1-.1h.2l.2-.1h.1l.2.2.1.2.2.2v.2l.2.2.1.2.1.3.2.2v.2l.2.2v.3l.2.2v.2l.1.2v.3l.2.2v.5l.1.2v.2l.1.2v.1h-.2l-.3.1h-.3l-.4.1-.3.1-.3.1-.3.1-.3.2h-.3l-.3.2-.3.1-.3.2h-.1v-.5l.1-.3v-.6l.1-.3v-.2l.1-.3v-.3l.1-.3v-.2l.1-.3v-.3l.1-.2v-.3l.2-.5v-.6z"/><path fill="#aa8559" d="M306 190.6v-.2l.1-.2.2-.2v-.2l.2-.2.1-.1.2-.2.1-.2.2-.2.2-.2.2-.1.2-.2.2-.2v.2l-.1.2v.3l-.1.2v.3l-.1.2v.3l-.1.3v.5l-.1.2v.5h-.6l-.5.2-.5.2v-.8l.1-.2zm18.8-1l.1.3.1.2.1.2v.2l.2.2v.3l.1.2v.2l.2.2v.6h-.4l-.4.2h-.3l-.3.2h-.3l-.4.2-.3.1-.3.2v-.7l.1-.3v-.3l.1-.3v-.2l.1-.3v-.3l.1-.2v-.3l.1-.3v-.2l.1-.5.1-.3v-.4l.1-.1v-.1h.1l.1-.1.2.2.1.2.2.2v.2l.2.2.1.2z"/><path fill="#606061" d="M285.2 132.3h1.4l.7.2.7.1.7.2.7.2.7.2.7.3.7.4.4.2.5.2.5.2.5.2.5.2.5.2.5.2.5.2.4.2.5.2.5.2.5.2.5.1.5.2.4.2.5.2.5.2.5.2.4.2.5.2.4.2.5.2.4.3.5.2.4.2.5.3.4.3.4.3.5.3.4.3.4.3.5.4h.6l.4.1.4.1.3.1.2.2.2.2.2.2.2.2v.2l.2.3v.3l.1.3.1.4v.7l.1.4.4.8.1.2.1.3.1.2.1.3.2.2v.3l.2.2v.3l.2.2.1.3.1.2.1.3.1.2.4.7v.3l.2.2.1.3.1.2.1.3.1.2.2.3v.2l.2.3v.2l.2.2.1.3v.2l.1 1v3l.1 1v4.2l.1 1v5.2l.1 1.1v16.5l-.1.2-.2.3-.2.2-.1.3-.1.3-.2.3-.1.3-.1.3-.1.3-.1.3-.1.3-.1.4v.3l-.2.3v.7l-.1.4v.3l-.1.4v.7l-.1.4v2.3l-.1-.1-.2-.2-.1-.1-.2-.1-.1-.2-.2-.1-.2-.1-.1-.2v-2.3l.1-.3v-.4l.1-.3v-.5l.1-.2v-.2l.1-.3v-.2l.1-.3v-.2l.1-.2.1-.3v-.2l.1-.2.1-.3v-.2l.2-.2v-.2l.1-.3v-12.8l-.1-.9v-3l-.1-.9v-2.9l-.1-1v-2l-.1-.9v-2l-.1-1v-.9l-.1-1v-2l-.1-.2-.1-.2v-.1l-.1-.2v-.2l-.2-.5-.1-.3-.2-.3v-.3l-.2-.3-.1-.2-.1-.3-.2-.3v-.3l-.2-.2-.2-.3-.1-.3-.2-.3-.1-.3-.2-.3-.1-.2-.2-.3-.2-.3-.1-.3-.2-.3-.2-.3-.2-.3-.2-.3-.2-.3-.2-.3-.3-.3-.2-.3-.2-.3-.3-.3-.3-.3-.2-.3-.3-.3-.3-.3-.2-.2-.2-.2-.2-.2-.2-.2-.3-.2-.3-.2-.2-.2-.3-.2-.4-.1-.3-.2-.3-.2-.4-.2-.3-.1-.4-.2-.4-.2-.4-.1-.4-.2-.5-.2-.4-.1-.4-.2-.5-.2-.5-.1-.4-.2-.5-.1-.5-.2-.5-.2-.5-.1-.5-.2-.5-.1-.5-.2-.5-.1-.5-.2-1.3-.3-1.2-.2-1.1-.2-1.2-.1-1-.1H284l-1 .1-1 .2-1 .2-.8.3-.9.3-.8.3-.8.5-.8.5-.7.5-.7.6-.7.6-.6.7-.6.7-.6.8-.6.8-.5.9-.4.9-.5 1-.4 1-.4 1-.4 1-.2.7v-.5l.1-.5.1-.5v-.5l.1-.4.1-.5.1-.4.1-.5v-.4l.2-.4v-.5l.2-.4.1-.4.1-.4.1-.4.2-.4v-.4l.2-.4.2-.4v-.3l.2-.4.2-.4.3-.6.3-.8.4-.8.4-.8.5-.7.4-.7.5-.6.5-.6.5-.6.6-.5.5-.5.6-.4.6-.4.6-.4.6-.3.6-.3.6-.3.7-.2.6-.2.7-.2h.6l.7-.2h.7zm54.3 6l-1.2.4-1 .4-1.2.3-1 .4-1 .4-1 .4-.9.5-1 .4-.8.5-.8.4-.8.5-.8.5-.7.5-.7.6-.7.5-.6.6-.6.5-.6.6-.5.6-.5.6-.5.6-.4.7-.4.6-.4.7-.3.7-.3.7-.3.7-.2.7-.2.7-.1.8-.2.8.2 1v1l.2.9v1l.2.9v1l.2.9.1 1 .1 1 .1.9.1 1 .1.9.1 1 .1.9.2 1v.9l.2 1 .1 1 .1.9.2 1 .1.9.1 1 .2.9.1 1 .2 1 .1.9.2 1 .2.9.1 1 .2.9.2 1 .1.5h-.5l-.2.1-.2.1h-.2l-.2.2h-.2l-.2.2-.2.2-.1.2-.2.2-.1.2-.1.2-.1.3-.1.3-.1.3v.4l-.2.3v.3l-.1.4v.3l-.1.4-.2-.3v-.4l-.2-.3-.1-.3-.2-.4-.1-.3-.2-.2V186l-.1-1-.1-1.2v-1l-.2-3.3v-1.1l-.3-3.3v-1l-.2-3.3v-1l-.1-1.2v-1l-.1-1.1v-1.1l-.3-3.3v-1l-.2-3.3v-1l-.2-2.3V153l.1-.6.1-.6.1-.5.1-.6.2-.5v-.5l.2-.5.2-.4.1-.5.2-.4.1-.4.2-.4.2-.4.2-.3.2-.4.2-.3.2-.3.2-.3.2-.3.2-.3.3-.2.2-.2.2-.3.3-.2.3-.2.2-.2.3-.2.2-.1.3-.2.3-.1.3-.2 2.1-1.6 2-1.4 2-1.2 1.8-1.2 1.9-1 1.7-1 1.7-.7 1.7-.7 1.6-.5 1.6-.5 1.4-.3 1.5-.2h2.6l1.2.2 1.2.2 1.1.4 1 .5 1 .6 1 .7.8.9.8 1 .8 1 .6 1.2.7 1.3.5 1.4.5 1.5.4 1.7.3 1.7.3 1.9.2 1.7-.4-.8-.5-1-.5-.9-.5-.9-.5-.8-.5-.8-.6-.8-.6-.7-.6-.7-.6-.6-.6-.6-.6-.6-.7-.5-.7-.5-.6-.5-.7-.4-.7-.3-.7-.3-.7-.3-.8-.2-.7-.2-.7-.2h-.8l-.7-.1h-1.5l-.8.1-.7.2-.8.2-.7.2z"/><path fill="#626364" d="M303.6 139.5l.4.3.4.3.4.3.4.3.4.3.6.5h1.2l.3.2h.2l.2.2.2.1.1.2.1.2.1.2.1.2.1.3v.3l.1.3v.4l.1.3v.5l.4.8.2.3v.2l.2.3v.2l.2.3.1.2.1.3.1.2.1.3.2.2v.3l.2.2v.3l.4.7.1.2.2.3v.2l.2.3v.2l.2.3.1.2.1.3.1.2.1.3.2.2v.3h.1v3l.1 2.1v3.1l.1 1v4.2l.1 1v18.6l-.2.3-.2.3-.1.2-.2.3-.1.4-.2.3v.3l-.2.3-.1.3v.3l-.2.4v.3l-.1.4-.1.3v.4l-.1.3v.4l-.1.3v1.2l-.1.4v1h-.1l-.2-.2-.1-.1v-2.3l.1-.2v-.7l.1-.3v-.2l.1-.2v-.3l.1-.2v-.2l.1-.3v-.2l.1-.2v-.3l.1-.2.1-.2v-.2l.1-.3.1-.2.1-.2.1-.3v-12.9l-.1-.9v-3l-.1-.9v-2l-.1-1V163l-.1-1v-.9l-.1-1v-2l-.1-.9v-2l-.2-.3v-.2l-.1-.2v-.2l-.3-.6v-.3l-.2-.2-.1-.3-.1-.3-.2-.3v-.3l-.2-.2-.1-.3-.2-.3-.1-.3-.2-.3-.1-.3-.2-.3-.1-.2-.2-.3-.2-.3-.1-.3-.2-.3-.2-.3-.2-.3-.2-.3-.2-.3-.2-.3-.2-.3-.3-.3-.2-.3-.2-.3-.3-.3-.3-.3-.2-.4-.3-.3-.3-.3-.2-.2-.2-.2-.2-.2-.3-.2-.3-.2-.2-.2-.3-.2-.3-.2-.4-.2-.3-.1-.4-.2-.3-.2-.4-.2-.4-.2-.4-.1-.4-.2-.4-.2-.4-.1-.5-.2-.4-.2-.5-.1-.4-.2-.5-.1-.5-.2-.5-.2-.5-.1-.5-.2-.5-.1-.5-.2-.5-.1-.5-.2-.5-.2-1.3-.3-1.2-.2-1.2-.2-1.1-.1-1.1-.1H284l-1.1.1-1 .2-1 .2-.9.3-.8.3-.9.4-.8.4-.8.5-.8.6-.7.6-.7.6-.6.7-.6.8-.6.8-.6.8-.5.9-.5.9-.4 1-.1.1v-.3l.2-.4v-.5l.2-.4v-.4l.2-.4.1-.4.1-.4.2-.4v-.4l.2-.3.2-.4v-.4l.2-.3.3-.6.4-.9.4-.7.4-.8.4-.7.5-.6.4-.7.5-.6.5-.5.5-.5.6-.5.5-.4.6-.4.6-.4.6-.3.6-.3.6-.3.6-.2.6-.2.7-.1.6-.1h.7l.6-.1h2.1l.7.2h.7l.7.3.6.2.7.2.7.3.7.3.5.2.5.3.5.2.5.2.5.2.4.2.5.2.5.2.5.2.5.1.5.2.5.2.4.2.5.2.5.2.5.1.4.2.5.2.5.2.4.2.5.3.4.2.5.2.4.2.4.3zm18.3 9.5l-.5.6-.3.7-.4.7-.3.7-.2.7-.3.8-.2.7-.1.8-.2.9.2 1v1l.2 1v.9l.2 1 .1.9.1 1 .1.9.1 1 .1 1 .1.9.1 1 .2.9v1l.2.9.1 1 .1 1 .1.9.2 1 .1.9.1 1 .2.9.1 1 .2 1 .1.9.2 1 .1.9.2 1 .2 1 .1.9.2 1v.1h-.3l-.2.1-.3.1-.2.1-.2.2-.2.1-.3.2-.1.2-.2.3-.2.2v.3l-.2.3v.3l-.2.3v.4l-.1.3-.2-.3-.2-.4v-.1l-.1-1-.1-1V185l-.1-1.1v-1l-.2-3.3-.1-1.1-.2-3.3v-1l-.2-3.3v-1l-.1-1.2v-1l-.1-1.1-.1-1.1-.2-3.3v-1l-.2-3.3v-1.1l-.2-2.2V153l.1-.5.1-.6.1-.6.1-.5.1-.5.2-.5v-.5l.2-.4.2-.5.1-.4.2-.4.2-.3.1-.4.2-.4.2-.3.2-.3.2-.3.2-.3.2-.2.2-.3.2-.2.3-.3.2-.2.2-.2.3-.2.2-.2.3-.1.2-.2.3-.2.3-.1.3-.2 2.1-1.5 2-1.4 2-1.3 1.8-1.2 1.8-1 1.8-.9 1.7-.8 1.6-.6 1.6-.6 1.5-.4 1.5-.3 1.4-.2h2.6l1.2.1 1.1.3 1 .4 1 .4 1 .6 1 .7.7.8.8 1 .7 1 .7 1.1.6 1.3.5 1.4.5 1.5.4 1.6.4 1.8.1 1.3-.3-.7-.5-.9-.6-.8-.5-.8-.6-.8-.6-.7-.6-.7-.6-.7-.6-.6-.7-.6-.7-.5-.6-.5-.7-.5-.7-.4-.8-.4-.7-.3-.7-.3-.8-.2-.7-.2-.8-.1-.7-.1h-3.1l-.8.2-.8.2-.7.3-1.2.3-1.1.3-1.1.4-1 .4-1.1.4-1 .4-1 .4-1 .4-.9.5-.9.4-.8.5-.8.5-.8.5-.7.5-.8.6-.6.5-.7.6-.6.5-.6.6-.5.6-.5.7-.5.6z"/><path fill="#676869" d="M311.4 155.2l-.1-.3v-.2l-.1-.2v-.1l-.1-.2-.2-.6-.1-.3-.1-.3-.2-.3v-.3l-.2-.2-.1-.3-.2-.3-.1-.3-.1-.3-.2-.3-.1-.3-.2-.2-.1-.3-.2-.3-.2-.3-.1-.3-.2-.3-.2-.3-.2-.3-.2-.3-.2-.3-.2-.3-.2-.3-.2-.3-.3-.3-.2-.4-.3-.3-.2-.3-.3-.3-.3-.3-.2-.3-.3-.3-.2-.2-.2-.3-.3-.2-.3-.2-.2-.2-.3-.2-.3-.2-.3-.2-.4-.2-.3-.2-.4-.2-.3-.1-.4-.2-.4-.2-.4-.2-.4-.1-.5-.2-.4-.2-.4-.1-.5-.2-.4-.2-.5-.1-.5-.2-.5-.2-.4-.1-.5-.2-.5-.1-.5-.2-.5-.2-.6-.1-.5-.2-.5-.1-1.3-.3-1.2-.3-1.2-.2-1.2-.1H283l-1 .2-1 .2-1 .3-.9.4-.9.4-.8.4-.8.5-.8.6-.7.6-.7.7-.7.7-.6.7-.6.8-.6.8.1-.3.1-.3.2-.4.1-.4.2-.3v-.4l.4-.6.3-.8.4-.8.4-.7.4-.7.5-.6.4-.6.5-.6.5-.5.5-.5.5-.5.6-.4.5-.4.6-.4.5-.3.6-.2.6-.3.6-.2.6-.2.6-.1.7-.1.6-.1h2.6l.6.1.7.2.7.1.6.2.7.3.7.2.6.3.5.3.5.2.5.2.5.2.5.2.5.2.5.2.5.2.5.2.5.2.4.2.5.2.5.2.5.1.5.2.4.2.5.2.4.2.5.2.5.2.4.2.4.2.5.2.4.3.4.2.5.3.4.2.4.3.4.3.4.3.4.3.7.6h1.2l.2.1.2.1.2.1.1.1.1.1v.2l.2.1v.3l.1.2v.3l.1.3v.3l.1.4v.5l.5 1 .1.2.1.2.1.2.1.3.2.2.2.5v.3l.2.2.1.3.1.2.1.3.1.2.4.8v.2l.2.2.1.3.1.2.1.3.1.2.2.3v.2l.2.3v.2l.2.3.1.2v1.9l.1 1v4.1l.1 1.1v4.1l.1 1.1v19.4l-.2.3-.1.3v.1-2.6l-.1-1v-7.8l-.1-1V171l-.1-1v-3l-.1-1v-1.9l-.1-1v-1.9l-.1-1v-2l-.1-.9v-1zm9 12v1l.2.9.1 1 .1.9.1 1 .2 1v.9l.2 1 .1.9.2 1 .1 1 .2.9.1 1 .2.9.1 1 .2 1 .2.9.2 1 .1.7h-.2l-.3.2-.3.1-.2.1-.3.2-.2.2-.2.3-.2.3-.2.3-.1.3-.1.3-.1.2v-.6l-.1-1V185l-.1-1.1v-1.1l-.3-3.3v-1l-.2-3.3v-1l-.2-3.3v-1.1l-.1-1.1-.1-1v-1.2l-.1-1-.2-3.3v-1l-.2-3.3v-1.1l-.2-2.2v-1.5l.1-.6v-.6l.2-.5v-.5l.2-.5.1-.5.2-.5v-.4l.2-.4.2-.4.1-.4.2-.4.2-.3.1-.4.2-.3.2-.3.2-.3.2-.2.2-.3.2-.2.2-.3.2-.2.3-.2.2-.2.2-.2.3-.2.2-.1.2-.2.3-.1.3-.2.3-.2 2.2-1.5 2-1.4 1.8-1.3 2-1.1 1.7-1 1.8-1 1.7-.7 1.6-.7 1.5-.5 1.5-.4 1.5-.3 1.3-.2h2.6l1.1.1 1.1.3 1 .3 1 .5 1 .5.8.7.8.8.7.9.7 1 .7 1.1.5 1.3.6 1.3.4 1.5.4 1.6.2 1-.3-.6-.6-.9-.6-.7-.6-.8-.6-.7-.6-.7-.7-.6-.7-.6-.6-.5-.7-.6-.7-.4-.8-.4-.7-.4-.7-.3-.8-.3-.8-.3-.7-.2-.8-.1-.8-.1h-3.2l-.8.2-.8.2-.7.3-1.2.3-1.1.4-1.1.3-1.1.4-1 .4-1 .4-1 .4-1 .5-1 .4-.8.5-.9.5-.8.5-.8.5-.8.5-.7.6-.7.5-.6.6-.7.6-.6.6-.5.6-.5.6-.5.7-.5.7-.4.6-.4.7-.3.8-.3.7-.3.7-.2.8-.2.7-.2.8-.1 1v1l.2 1 .1 1 .1 1 .1.9.1 1 .1.9.1 1 .1.9.1 1 .2 1z"/><path fill="#6b6c6c" d="M274 141.5l-.6.7-.1.2v-.1l.4-.8.3-.8.4-.7.5-.7.4-.6.4-.6.5-.5.5-.6.5-.5.5-.4.5-.4.5-.4.6-.3.5-.3.6-.3.5-.2.6-.2.6-.2.6-.2h.6l.6-.1h2.5l.7.1.6.1.7.2.6.2.6.2.7.3.7.3.5.2.5.3.5.2.5.2.5.2.5.2.5.2.4.2.5.2.5.2.5.1.5.2.5.2.4.2.5.2.5.2.4.1.5.2.5.2.4.2.4.2.5.3.4.2.4.2.5.2.4.3.4.2.4.3.4.3.4.3.4.3.8.7h1.2l.2.1h.2v.1h.1v.2h.2v.4l.2.2v.6l.1.3v.3l.1.6.4 1 .2.2v.3l.2.2v.2l.2.3.2.5.1.2.1.3.2.2v.3l.2.2v.3l.4.7.1.3.2.2v.2l.2.3v.2l.2.3.1.2.1.3.1.2.1.3.2.2v2l.1 1v3.1l.1 1v2.7-3.3l-.1-1v-1.9l-.1-1.2-.1-.3v-.2l-.1-.2-.1-.1v-.2l-.2-.6-.2-.4v-.2l-.2-.3-.1-.3-.2-.3v-.3l-.2-.3-.1-.3-.2-.2-.1-.3-.2-.3-.1-.3-.2-.3-.1-.3-.2-.3-.2-.3-.2-.3-.2-.3-.1-.3-.2-.3-.3-.3-.2-.3-.2-.4-.2-.3-.3-.3-.2-.3-.3-.3-.2-.3-.3-.3-.3-.4-.3-.3-.2-.3-.2-.2-.3-.3-.2-.2-.3-.2-.3-.2-.3-.2-.3-.2-.4-.2-.3-.2-.3-.2-.4-.2-.4-.2-.4-.2-.4-.2-.4-.1-.4-.2-.4-.2-.5-.1-.4-.2-.4-.2-.5-.1-.5-.2-.5-.2-.4-.1-.5-.2-.5-.1-.5-.2-.5-.2-.5-.1-.5-.2-.6-.1-.5-.2-1.3-.3-1.3-.3-1.2-.2h-1.2l-1.1-.2H284l-1.1.2-1 .1-1 .3-1 .3-1 .3-.8.4-1 .5-.7.5-.8.6-.8.6zm45.2 11.3v-.2l.2-.6v-.5l.2-.5v-.5l.2-.5.1-.5.2-.4v-.4l.2-.4.2-.4.2-.3.1-.4.2-.3.2-.3.1-.3.2-.3.2-.2.2-.3.2-.2.2-.2.2-.2.2-.2.2-.2.3-.2.2-.1.2-.2.2-.2h.3l.2-.2.4-.2 2.2-1.6 2-1.4 1.9-1.3 1.8-1 1.8-1.1 1.7-.9 1.7-.8 1.6-.6 1.6-.5 1.4-.4 1.4-.3 1.4-.2h2.4l1.1.1 1 .2 1 .4 1 .4.9.6.8.6.8.8.7.8.7 1 .6 1.1.6 1.2.5 1.4.5 1.4.1.5-.4-.5-.6-.7-.6-.8-.7-.6-.6-.7-.7-.6-.7-.5-.7-.6-.7-.4-.8-.5-.7-.4-.8-.3-.8-.3-.8-.2-.7-.2-.9-.2-.8-.1h-2.4l-.8.1-.9.2-.8.2-.7.2-1.2.3-1.1.4-1.2.4-1 .4-1.1.4-1 .4-1 .4-1 .4-1 .5-.8.5-.9.4-.8.6-.8.5-.8.5-.7.6-.7.5-.7.6-.6.6-.6.6-.6.7-.5.6-.5.7-.5.7-.4.7-.4.7-.4.7-.3.7-.3.8zm.6 12.5v1l.2 1v.9l.2 1 .1.9.1 1 .2.9v1l.2 1 .1.9.2 1 .1.9.1 1 .2 1 .1.9.2 1 .2 1 .1.9.2 1 .2 1v.3l-.2.1-.3.2-.2.1-.3.2-.3.3-.2.3h-.1v-1.2l-.1-1-.1-1.1-.2-3.3v-1l-.2-3.3V174l-.2-3.2-.1-1.1v-1.1l-.1-1.1v-1l-.1-1.2z"/><path fill="#cd9f55" d="M323.6 141c-5.4.3-3-7.4 0-10.4 8.6-8.3 33.4-11 35.5 9.9-3.9-9.3-10.1-11-18.3-9.2-5.7 1.4-12.7 6.8-17.2 9.6zm-19.4-3.7c5.6.5 6-4.4 2.7-7.7-8.5-8.2-33-9.9-35 11 3.9-9.3 12.1-11.6 19.7-7.9 5.7 2.9 8 3.3 12.6 4.6z"/><path fill="#c89c55" d="M325.2 139.5l.4-.4.5-.3.5-.3.6-.4.5-.3.5-.4.5-.4.6-.3.5-.4.6-.3.6-.4.5-.4.6-.3.6-.3.6-.4.5-.3.6-.3.6-.4.6-.3.6-.2.5-.3.6-.3.6-.2.6-.2.5-.2.6-.2.6-.2.5-.1.8-.2.8-.1.7-.2h.7l.8-.1h.7l.7-.1h2l.7.2h.6l.7.2.6.2.6.2.6.3.6.3.6.3.5.3.6.4.5.4.5.5.5.5.5.5.5.6.5.6.4.7.5.6.4.8-.2-1-.5-1.6-.6-1.4-.7-1.4-.8-1.2-1-1-.9-1-1-1-1.1-.7-1.2-.7-1.2-.6-1.3-.4-1.3-.4-1.4-.3-1.3-.2-1.4-.2h-2.9l-1.4.2-1.4.1-1.4.3-1.3.3-1.4.4-1.3.4-1.2.5-1.2.5-1.2.6-1 .6-1 .7-1 .7-.8.7-.2.3-.3.3-.3.4-.2.3-.3.4-.2.4-.3.4-.2.4-.2.4-.2.4-.1.5-.2.4-.1.4-.1.5-.1.4v.4l-.1.4v1.4l.1.3.1.3.2.2.2.2.1.2.3.1.2.2h.3l.4.1h.8l.3-.2.4-.2.5-.3zm-18.5-2.8l.3-.1.3-.2.2-.1.2-.2.2-.2.2-.2.1-.2.1-.2.1-.3.1-.2V133l-.1-.4-.1-.3-.2-.3-.1-.3-.2-.3-.2-.4-.2-.3-.3-.3-.2-.3-.3-.3-.8-.7-1-.7-1-.7-1-.6-1.1-.5-1.2-.5-1.2-.5-1.3-.4-1.3-.3-1.4-.3-1.3-.2-1.4-.1h-4.2l-1.4.2-1.3.2-1.4.4-1.2.4-1.3.5-1.2.7-1.2.7-1 .8-1 1-1 1-1 1-.7 1.3-.7 1.4-.6 1.5-.5 1.6-.2 1.1v-.2l.5-.7.5-.7.5-.7.5-.6.6-.6.5-.5.6-.6.6-.4.6-.4.7-.4.6-.4.7-.3.6-.3.7-.2.7-.2.7-.1.7-.1.7-.1h2.9l.8.2.7.2.7.1.8.3.7.2.7.3.7.4.6.2.5.3.5.2.4.2.5.2.4.2.5.2.4.2.4.2.4.1.4.2.3.1.4.1.4.2h.3l.4.2.3.1.4.1.3.1.3.1.4.1.3.1.4.1.3.1.4.1.3.1.4.1.4.1.4.1.4.2h.4l.4.2h1.7l.4-.1z"/><path fill="#c29956" d="M328 137l.5-.3.6-.3.5-.4.6-.4.6-.3.5-.4.6-.3.6-.4.6-.3.5-.4.6-.3.6-.3.6-.3.6-.3.6-.3.6-.2.5-.3.6-.2.6-.2.6-.2.6-.2.5-.1.8-.2.8-.1.7-.1.8-.1.7-.1h4.3l.6.2.7.2.6.2.7.2.6.2.6.3.6.3.6.4.5.4.6.4.5.5.5.5.5.6.5.5.4.6-.6-1.5-.7-1.3-.7-1.2-.9-1-1-1-1-.9-1-.7-1.2-.7-1.2-.5-1.2-.5-1.3-.4-1.3-.2-1.4-.3h-1.4l-1.4-.1h-1.4l-1.3.1-1.4.2-1.4.3-1.4.3-1.3.3-1.2.5-1.3.4-1.2.6-1 .5-1.1.7-1 .6-.9.7-.8.7-.2.3-.3.3-.3.3-.2.3-.3.4-.2.4-.2.4-.2.4-.2.4-.2.4-.2.4-.1.4-.2.4v.5l-.1.4-.1.3v1.7l.1.3v.2l.2.2.1.1.2.2.2.1.2.1.2.1h1.2l.4-.4.5-.3.5-.3.4-.3.5-.3.5-.4.5-.3.6-.4zm-20-1.9v-.2l.1-.2v-.2l.1-.3v-.8l-.1-.3v-.3l-.2-.2-.1-.3-.2-.3-.1-.3-.2-.3-.2-.3-.3-.3-.2-.3-.3-.3-.8-.7-.9-.7-1-.6-1-.6-1-.6-1.2-.5-1.2-.4-1.3-.4-1.3-.3-1.3-.3-1.4-.2-1.3-.1-1.4-.1h-1.4l-1.4.1-1.3.2-1.3.2-1.3.4-1.3.4-1.2.5-1.2.6-1.1.7-1.1.8-1 .9-1 1-.8 1.1-.8 1.2-.7 1.4-.5 1.4-.2.5.3-.4.5-.7.6-.6.6-.5.6-.5.6-.5.6-.5.7-.4.6-.3.7-.3.7-.3.7-.3.7-.1.7-.2.8-.1h.7l.7-.1h1.5l.8.1.7.1.8.2.7.2.8.2.7.3.8.3.7.3.5.3.5.2.5.3.5.2.5.2.4.2.4.2.4.1.4.2.4.2.4.1.4.2h.3l.4.2.3.1.4.1.3.2h.4l.3.2h.3l.4.2h.3l.4.2h.3l.4.2h.3l.4.2h.4l.4.2h.4l.4.2.3.1h2l.3-.2h.2l.3-.2.2-.1.2-.2.1-.1.2-.2v-.2z"/><path fill="#bd9556" d="M331.7 134.2l.6-.3.6-.4.6-.3.5-.3.6-.3.6-.3.6-.3.6-.3.6-.3.6-.2.6-.3.6-.2.6-.2.6-.1.5-.2.8-.1.8-.2.8-.1.7-.1.8-.1h3.6l.7.1.7.1.7.2.6.2.7.2.6.3.7.3.6.3.6.4.5.4.6.4.6.5.2.2-.2-.3-.7-1.1-.9-1-.9-1-1-.8-1-.8-1.2-.6-1.1-.6-1.2-.4-1.3-.4-1.3-.3-1.3-.2h-1.4l-1.4-.1h-1.3l-1.4.1-1.4.2-1.3.2-1.4.3-1.3.4-1.2.4-1.2.5-1.2.5-1 .6-1.1.6-1 .6-.8.7-.8.7-.3.3-.2.2-.3.3-.2.4-.2.3-.3.4-.2.4-.2.3-.2.4-.2.4-.1.4-.2.4v.4l-.2.4v.4l-.1.4v1.7l.1.2.1.2h.1l.1.2h.2l.1.2h.5l.3.1h.1l.2-.1.4-.3.5-.3.4-.3.5-.3.5-.3.5-.4.5-.3.5-.4.6-.3.5-.4.6-.4.5-.3.6-.4.6-.3.5-.4zm-24-1.2l-.1-.3-.2-.3-.1-.3-.2-.3-.1-.2-.2-.3-.3-.3-.2-.3-.2-.2-.8-.7-.9-.7-1-.6-1-.6-1-.5-1.2-.5-1.2-.5-1.2-.3-1.3-.4-1.3-.2-1.3-.2-1.4-.2h-4l-1.3.2-1.4.3-1.2.3-1.3.4-1.2.5-1.1.6-1.1.7-1 .8-1 .9-1 1-.8 1-.7 1.2-.6 1 .5-.4.6-.5.7-.5.6-.5.7-.4.7-.4.7-.3.7-.3.7-.2.7-.2.8-.2.7-.1h.8l.7-.1h1.6l.7.1.8.1.8.2.7.2.8.3.8.2.7.3.8.4.5.3.5.2.5.2.5.2.4.2.4.2.5.2.4.2.4.2.4.1.3.2h.4l.4.2.3.1.4.2h.3l.3.2.4.1.3.1.4.1.3.1.3.1.4.1.3.1.4.1.7.2.4.1.4.1.4.1.4.1.3.1h1.8l.2-.1.3-.1.2-.1.2-.1.1-.2h.1l.2-.2v-.2l.1-.1.1-.2v-.2l.1-.2v-1.2z"/><path fill="#b79256" d="M337.5 130.8l.6-.2.6-.2.6-.2.6-.2.6-.1.8-.2.8-.2.7-.1.8-.1h.8l.7-.1h3l.7.1.7.2.7.1.7.2.6.3.7.2.6.3.7.4.5.3-.3-.3-.9-1-1-.7-1-.8-1-.6-1.2-.5-1.2-.5-1.2-.3-1.3-.3-1.3-.2-1.3-.1h-4.1l-1.3.3-1.4.2-1.3.3-1.2.4-1.3.4-1.2.5-1.1.5-1.1.5-1 .6-1 .6-.8.7-.8.7-.2.2-.2.3-.3.3-.2.3-.2.3-.2.4-.2.3-.2.4-.2.4-.2.4-.2.4-.1.4-.1.4-.1.3-.1.4v.7l-.1.3v.7l.1.2v.1l.1.1.1.1.2.2h.2l.2.1h.3l.5-.3.5-.3.4-.3.5-.3.5-.4.5-.3.5-.3.5-.4.6-.3.5-.4.6-.4.5-.3.6-.4.5-.4.6-.3.6-.4.6-.3.6-.4.6-.3.6-.4.6-.3.6-.3.6-.3.6-.3.6-.2zm-31 .7l-.2-.2-.3-.3-.2-.2-.8-.7-.8-.7-1-.6-1-.5-1-.6-1.1-.5-1.2-.4-1.2-.4-1.3-.3-1.3-.3-1.3-.1-1.3-.2h-4l-1.3.2-1.3.3-1.2.3-1.2.4-1.2.5-1.1.6-1.1.6-1 .8-1 .8-.9 1-.8 1-.2.3h.1l.7-.5.7-.4.7-.4.7-.3.7-.3.8-.3.7-.2.8-.2h.8l.7-.2h2.4l.8.1.8.2.8.1.7.2.8.3.8.3.8.3.7.3.6.3.5.3.5.2.4.2.5.2.4.2.4.2.4.1.4.2.4.2.4.1.3.1.4.2h.3l.4.2.3.1.4.1.3.1.3.1.4.1.3.1.3.1.4.1.3.1.4.1.7.2.4.1.4.1.4.2h.4l.3.1h1.6l.2-.1h.2l.2-.2h.1l.2-.2.1-.2h.1v-.2l.1-.1v-.2l.1-.1v-1.1l-.1-.2-.1-.3-.1-.2-.1-.3-.2-.3-.2-.2z"/><path fill="#b28f57" d="M343.5 129l.8-.1h.8l.7-.1h1.5l.8.1.7.1.7.1.7.2.8.2.6.2.3.1-.3-.2-1-.7-1-.6-1.1-.5-1.2-.5-1.2-.3-1.3-.3-1.2-.2h-1.4l-1.3-.1h-1.3l-1.3.1-1.4.2-1.3.2-1.3.3-1.2.4-1.3.4-1.1.4-1.2.5-1 .6-1 .6-1 .6-.8.6-.7.7-.2.2-.2.3-.3.2-.2.3-.2.4-.2.3-.2.4-.2.3-.2.4-.2.4-.1.4-.1.3-.2.4v.4l-.1.3v.3l-.1.3v1.1l.1.1v.1h.2l.1.1h.3l.4-.2.4-.3.5-.3.5-.3.5-.3.5-.4.5-.3.5-.4.5-.3.6-.4.5-.4.6-.3.6-.4.5-.4.6-.3.6-.4.6-.3.6-.4.6-.3.6-.3.6-.4.6-.3.6-.3.6-.3.6-.2.6-.3.6-.2.6-.3.6-.2.7-.1.6-.2.8-.2.8-.1.8-.1zm-43.6-1.4l-1.1-.4-1.2-.4-1.3-.3-1.2-.2-1.3-.2-1.3-.2h-4l-1.2.2-1.3.3-1.2.3-1.2.4-1.2.5-1 .5-1.1.7-1 .7-1 .9-.4.4.3-.1.7-.4.8-.3.7-.2.8-.2.8-.2.8-.1.8-.1h2.4l.8.1.8.1.8.2.8.2.8.3.8.3.8.3.8.3.5.3.5.2.5.3.5.2.4.2.4.2.5.2.4.1.3.2.4.1.4.2.4.1.3.1.3.2h.4l.3.2.4.1.3.1.3.1.4.1.3.1.3.1.4.1.3.1.4.1.7.2.4.1.4.1.4.1.4.1.2.1h1.5l.2-.1h.2v-.2h.2v-.1h.2v-.2l.1-.1v-.2l.1-.2v-.9l-.1-.2v-.2l-.2-.2v-.3l-.2-.2-.2-.3-.2-.2-.2-.3-.2-.2-.2-.2-.7-.7-.8-.6-1-.6-1-.6-1-.5z"/><path fill="#ac8c57" d="M338.3 126.9l-1.3.1-1.3.3-1.3.3-1.2.3-1.2.4-1.2.5-1 .5-1.1.5-1 .6-.9.6-.8.6-.7.6-.2.2-.2.3-.2.2-.3.3-.2.3-.2.4-.2.3-.2.4-.1.3-.2.4-.1.3-.2.4v.4l-.2.3v.7l-.1.2v1h.2l.3-.1.4-.3.5-.3.5-.4.5-.3.5-.3.5-.4.5-.3.5-.4.6-.3.5-.4.6-.4.6-.3.5-.4.6-.4.6-.3.6-.4.6-.3.6-.4.6-.3.6-.4.6-.3.6-.3.6-.3.7-.2.6-.3.6-.2.6-.3.6-.2.7-.1.6-.2.8-.2.8-.1.8-.2h.8l.8-.1.8-.1h3l.8.2.7.1-.2-.1-1-.5-1.2-.4-1.2-.4-1.2-.2-1.3-.2-1.3-.1h-2.6zm-49.7-.6l-1.3.2-1.2.2-1.2.3-1.2.4-1 .5-1.2.5-1 .7-.6.4.5-.1.7-.2.9-.2.8-.1.8-.1h3.3l.8.2.8.2.9.2.8.3.8.3.8.3.8.4.5.2.5.3.5.2.4.2.5.2.4.2.4.2.4.1.4.2.4.1.3.2.4.1.4.1.3.2h.3l.4.2.3.1.3.1.4.1.3.1.3.1.4.1h.3l.3.2h.4l.7.3h.4l.4.2.4.1.4.1h.2l.2.1h1.1l.2-.1h.1l.1-.1h.1v-.1h.1v-.2h.1v-1.2l-.1-.2-.1-.2-.1-.2-.1-.3-.2-.2-.1-.2-.2-.3-.2-.2-.2-.2-.8-.6-.8-.6-.8-.6-1-.6-1-.5-1.1-.4-1.1-.5-1.2-.3-1.2-.3-1.3-.3-1.3-.2-1.2-.1h-2.6z"/><path fill="#a78857" d="M323.5 135.8l-.1.3-.1.4-.1.3v.3l-.1.3v.7l.3-.3.5-.3.5-.3.5-.3.5-.3.5-.4.5-.3.5-.4.6-.4.5-.3.6-.4.6-.4.5-.3.6-.4.6-.4.6-.3.6-.4.6-.3.6-.4.6-.3.6-.3.7-.3.6-.3.6-.3.6-.2.7-.3.6-.2.6-.2.7-.2.6-.2.8-.1.9-.2.8-.1.8-.1.8-.1h.8l.8-.1h1.1l-1-.3-1.3-.3-1.2-.1-1.3-.2h-2.6l-1.3.1-1.2.2-1.3.2-1.3.3-1.2.4-1.2.4-1.1.4-1.1.5-1 .5-1 .6-.9.6-.8.6-.7.6-.1.2-.2.2-.2.3-.2.3-.3.3-.1.3-.2.3-.2.3-.2.4-.1.3zm-39.1-7.4h1.6l.8.1.9.1.8.2.9.2.8.3.8.3.8.3.8.4.6.3.5.2.4.2.5.2.4.2.5.2.4.2.4.2.3.1.4.2.4.1.3.2h.4l.3.2.4.1.3.1.3.1.3.1.4.1.3.1.3.1.4.1.3.1.3.1.4.1.7.2.4.1.4.1.4.1.4.2h1.5v-.1h.1v-.1h.1v-1.2l-.2-.2v-.2l-.2-.2-.1-.2-.2-.2-.1-.2-.2-.2-.2-.2-.7-.6-.8-.6-.8-.6-1-.5-1-.5-1-.5-1.2-.4-1.1-.4-1.2-.3-1.3-.2-1.2-.2-1.3-.1h-3.8l-1.2.2-1.2.2-1.2.3-1.1.4-1.1.4-.7.4.6-.1.9-.1z"/><path fill="#a18558" d="M327.8 134.4l.6-.3.5-.4.6-.4.6-.3.6-.4.6-.4.6-.3.6-.4.6-.3.6-.3.7-.4.6-.3.6-.3.7-.2.6-.3.6-.3.7-.2.6-.2.7-.2.6-.1.9-.2.8-.2.8-.1.8-.1h.6l-.6-.2h-1.2l-1.3-.1h-1.2l-1.3.1-1.3.2-1.2.2-1.3.3-1.2.3-1.2.4-1 .5-1.2.4-1 .6-.9.5-.8.6-.8.6-.7.6-.2.2-.1.2-.2.2-.2.3-.2.3-.2.3-.2.3-.2.3-.1.3-.2.4-.1.3-.1.4-.1.3-.1.3v.3l-.1.1h.2l.5-.4.4-.3.5-.4.6-.3.5-.4.5-.3.6-.4zm-28.2-1.6h.4l.3.2h.3l.3.2h.4l.3.2h.3l.4.2.7.2h.4l.4.2h.4l.4.2h1.4v-.7l-.1-.1-.1-.2-.1-.2-.1-.2-.1-.2-.2-.2-.1-.2-.2-.2-.2-.1-.6-.6-.8-.6-.8-.6-1-.5-1-.5-1-.4-1-.4-1.2-.4-1.2-.3-1.2-.2-1.3-.2-1.2-.1-1.3-.1h-2.4l-1.2.2-1.2.3-1.2.3-.6.2h1.6l.9.1.9.2.8.1.9.3.8.2.9.3.8.4.8.4.5.2.5.3.5.2.5.2.4.2.4.2.4.2.4.1.4.2.4.1.3.2.4.1.3.1.3.1.4.2h.3z"/><path fill="#9c8258" d="M338.7 128.3l.7-.2.6-.1.5-.1h-.8l-1.3.1-1.2.2-1.3.2-1.2.3-1.2.3-1.1.4-1.1.4-1 .5-1 .5-1 .5-.8.6-.8.6-.6.6-.2.1-.2.2-.1.2-.2.3-.2.3-.2.3-.2.3-.1.3-.2.3-.1.3-.2.4v.3h-.1l.3-.1.5-.4.5-.3.6-.4.5-.3.5-.4.6-.4.6-.3.5-.4.6-.4.6-.4.6-.3.6-.4.6-.3.6-.4.6-.3.7-.4.6-.3.6-.3.7-.3.6-.3.6-.3.7-.2.6-.2zm-33.2 5.5v-.2h-.1v-.2l-.1-.2-.1-.2-.1-.2-.2-.1-.1-.2-.2-.2-.1-.2-.7-.5-.7-.6-.8-.5-1-.6-.9-.4-1-.5-1.1-.4-1.1-.3-1.2-.3-1.2-.3-1.2-.1-1.2-.2h-3.7l-1.2.2-.6.1h.1l1 .2.8.2.9.2.8.3.9.3.9.3.8.4.5.3.5.2.5.2.4.2.4.2.5.2.4.2.4.2.3.1.4.2.4.1.3.1.3.2h.4l.3.2.3.1.3.1.4.1.3.1.3.1h.3l.4.2h.3l.4.2h.3l.7.3h.4l.4.2.4.1.4.1h.8z"/><path fill="#b68a57" d="M270.7 177.1c10 12.5 23.7 13.2 34.2-.8-11 12.8-22.4 13-34.2.8zm55.4 0c8.8 10.6 20.8 11.2 30-.7-9.7 11-19.7 11.2-30 .7z"/><path fill="#b78c58" d="M269.7 175c10.7 12.4 25 13.2 36.2-.8-11.7 12.8-23.8 13-36.2.8zm55.5.3c9.4 10.6 22 11.2 31.8-.7-10.3 10.9-20.9 11.1-31.8.7z"/><path fill="#b88f59" d="M269.3 173c10.9 12.4 25.7 13.2 37-.8-12 12.8-24.3 13-37 .8z"/><path fill="#b9915a" d="M269.3 170.9c11.2 12.4 26.2 13.1 37.8-.9-12.2 12.8-24.8 13.1-37.8.9zm55.5 1c9.9 10.5 23.1 11 33.3-.8-10.7 10.9-21.8 11.1-33.3.7z"/><path fill="#ba935a" d="M269.3 168.7c11.2 12.5 26.2 13.2 37.8-.8-12.2 12.8-24.8 13-37.8.8zm55.5 1.3c9.9 10.6 23.1 11.2 33.3-.7-10.7 10.9-21.8 11.1-33.3.7z"/><path fill="#bb955b" d="M270.4 166.6c10.5 12.4 24.7 13.2 35.6-.9-11.5 12.9-23.3 13.2-35.6.9zm55.4 1.6c9.3 10.6 21.7 11.2 31.3-.7-10 10.8-20.5 11-31.3.7z"/><path fill="#bc985c" d="M270 164.9c10.7 12.4 25.3 13.1 36.4-.9-11.7 12.9-23.9 13.1-36.4.9zm55.4 1.8c9.5 10.6 22.3 11.2 32.1-.7-10.3 10.9-21 11.1-32 .7z"/><path fill="#bd9a5d" d="M270.7 162.8c10.3 12.4 24.3 13.1 35-.9-11.3 12.8-23 13.1-35 .9zm55.4 2.1c9 10.6 21.3 11.2 30.8-.7-10 10.9-20.2 11.1-30.8.7z"/><path fill="url(#c)" d="M314 46.1c-7.6 0-12.7 2.3-20.9 5.3-1.6 2.8.5 10.7.5 14.1 0 5.8-.1 25.6.7 28.7A50.5 50.5 0 01314 85c6 0 14.8 5.6 19.1 7.3 3.2-3.5 1.3-21.7 1.3-26.7 0-4 .6-14.2-1.7-17.4-5.7-1.8-11.7-2-18.7-2z" color="#000" enable-background="accumulate" overflow="visible" style="marker:none"/></svg>