<svg xmlns="http://www.w3.org/2000/svg" xml:space="preserve" width="600" height="400" id="svg2" version="1.0" clip-rule="evenodd" fill-rule="evenodd" image-rendering="optimizeQuality" shape-rendering="geometricPrecision" text-rendering="geometricPrecision"><defs id="defs4"><style type="text/css" id="style6"></style></defs><path id="rect1902" opacity="1" fill="#fff" fill-opacity="1" stroke="none" stroke-width="1.1" stroke-linecap="square" stroke-linejoin="round" stroke-miterlimit="4" stroke-dasharray="none" stroke-opacity="1" d="M0 .1h600V400H0z"/><path id="_211683760" transform="matrix(3.77072 0 0 3.76391 -1.7 .5)" fill="#da251d" fill-rule="evenodd" stroke="#da251d" stroke-width=".1" d="M140.1-.1H.5v85z"/><path id="_210078080" transform="matrix(3.77072 0 0 3.76391 -1.7 .5)" fill="#0093dd" fill-rule="evenodd" stroke="#0093dd" stroke-width=".1" d="M159.5 106.1H22l137.6-88.2z"/><g id="g13" transform="matrix(3.77072 0 0 3.76391 -1.7 .5)" fill-rule="evenodd"><path id="_210108112" d="M14 8.4c.2.2.5.6.5.8.6.1 1 .5 1.5.9.5 0 1.1-.1 1.5.3.6.2 1 .6 1.7.7h2.7c.6 0 1 .1 1.5.3a6 6 0 002.4.1c.7 0 3 .2 3.4 1l.5.5c.2 0 .2.3.3.4.7.6 2.3 1.4 3 .4.2-.2.1-.6.1-1-.8-1.5-3.3-1.8-4.8-1.6-.5 0-1 .1-1.6 0-1 0-2.5.2-3.4-.2-.6-.2-1-.5-1.7-.6-1.1-.4-.8-1.6.2-1.6 1.5-.6 2.9 1 4 .6l2.1-.2c.9-.1 1.7 0 2.5.1 2 .4 4.6 1.2 5 3.6.3 2-2 4-4 3.3.1.7.8 2.5 1.6 2.8.4.2 1 0 1.3.4.3.7.5 1.5.9 2.2 0 .4-1 1.7-1.1 2.2h-4.3c-.4-.5.4-1.8.3-1.6.3-.4.7-.7 1.2-.9-.2-.1-.3-.4-.5-.3-.6-.5-1.4-.7-2-1.3v.3c-.6.6-.4 1.6-1 2.1-1 .3-1.1 1.2-1.6 1.7h-7.9c0-1.2.4-2 1.6-2.4v-.1c-.5-.4-1-1.4-1.5-1.6-.4.5-.4 1-.8 1.5-.5.1-1 .4-1.3.7-.9.5-1 1.3-1.2 2h-5c0-1.4 1-2.3 2.3-2.5.3-.7 1.1-1.1 1.4-1.9l.6-2.1c-1-.4-2-1.5-2.5-2.5-.3-.2-.6-.3-.8-.6-.5 0-1.2-.4-1.5-.2l-1-.1c-.5.2-.9-1.6-.3-2 .3-.2.8 0 1-.2-.6-.1-1.2.4-1.7-.3-.2-.2.1-.5-.1-.8-.5 0-.4-1 0-1.2l.7-.2.6-.3c.8 0 1.3-.9 2.2-.7h1.4c.4-.2 1.3-.4 1.6.1zm10.6 9.3c-.2.7.2 1.9.4 2.6-.3.4-.7.8-1.2 1l-.9.3c0-.6.2-1.3-.4-1.6l-.9-1.7c1.2 0 2-.5 3-.6z" fill="#1f1a17"/><path id="_212594072" d="M14.5 20.8c-.4 0-.6.1-.5-.3zm-.2-.7c.3.3.8.3 1.1.5 0 .3-1-.1-1.2-.2l.1-.3zm11.8-.2h.4c-.2.2-.6.2-.9.2v-.2s.4-.2.5 0zm-5.8-.3l-.5.5c-.2 0-.2 0-.2-.2l.3-.1c.1 0 .2-.3.4-.3zm-5.8-.1h.6l1.3.8c-.5-.2-1.2-.4-1.7-.4-.3 0-.3-.3-.3-.5h.1zm12.5 0c-.4 0-1.3.1-1.6-.2.6-.1 1 .2 1.6.3zm3.7-.5c-.1.2-1 .6-1.1.4a3 3 0 011-.4zm-10.3-.1c.1.2-.9.6-1.1.6l-.2-.2h.4c.3 0 .7-.2 1-.4zm-5 .2c.2 0 1 .5 1.2.7-.7-.4-1.4-.5-2-.8v-.2c.3 0 .6 0 .8.3zm4.4-.5c-.3.2-.7 0-.9.2l-.1.1c-.2 0-.5 0-.6-.2h.5l1-.2zm10.7-.3l-.5.2-.5.4h-.6v-.1l1.6-.5zm-4.4.1c.3 0 1.1.2 1.3.4-.7-.3-1.4.1-2.1-.3-.2-.4.7-.1.8-.1zm-10.4-.2l1 .7c-.7-.2-1.3-.5-2-.6 0-.6.8-.1 1 0zm10.1-.4c.4 0 .8.3 1.2.4l-1.5-.2s-.4-.1-.2-.3h.5zm-10 0l.7.4 1.3.9-.5.7-.3.9c-1 .2-2.4 1.4-2.5 2.5h-3.9c0-.6.9-1 1.3-1.1l.6-.2c.5-.7 1.4-1.4 1.7-2.2l.5-2c0-.3 1 .1 1.2.1zm14.4-.2c0 .1-.3 0-.5.2l-.9.6-.5-.2c.5-.3 1.3-.6 2-.6zm-10.4-.1c-.2.2-.6.1-.8.3-.4.1-1 1.1-1.4.6l-.2-.1c.4 0 .6-.2 1-.3.4-.3 1-.5 1.4-.5zm10-.4c-.2.1-.5.1-.7.3-.4 0-.6.5-1 .5 0 0-.5 0-.5-.2.5.1.7-.4 1-.4L30 17zM19.5 17l-.5.1-1.3 1c-.2 0-.7 0-.7-.2l1.4-.8 1-.1zm9.9-.3c-.9-.1-1.2 1-2 .7h-.4c.2-.2.5 0 .7-.3.5-.3 1-.5 1.7-.5zm-11-.2l-.5.2-.8.8c-.3.1-.6 0-.8 0 0-.2 1.8-1 2-1.1zm-2.1-1c-.2.5-.4 1.3-.7 1.5-.2.1-.4 0-.4 0l.7-.9.3-.5zm-.8-.4l-.2.8c-.3 0-.6.6-.7.8-.2 0-.5 0-.5-.2.5 0 1.1-1.3 1.5-1.7l-.1.3zm11.8.6c.6 0 1.7 0 2.1.5h-2l-.8-.4-.6-1.1c.5.6.6.8 1.3 1zm-12.7-1.3c0 .5-.8 1.8-1.4 1.2.7-.3 1-.6 1.3-1.2zm4.3-.1l.6.6c.4.4 0 .8 0 1-.2 0-.2-.4-.2-.5.2 0-.4-1-.4-1.1zm10-.4c0 .3 0 .7.2 1-.6-.5-.8-.8-1-1.6.3.2.6.3.7.6zm-6-.7c.4.5.4 1 .6 1.4 0 .6.7 1 .4 1.8 0-.6-.3-.9-.6-1.3s-.2-1.4-.3-1.9zm-2.4 0c0 .3.2.5.4.7.2.6.3 1.3.2 2l-.2.6V15l-.5-2.2.1.2zm7.1 0c.2.6.4 1.1.7 1.5l-.8-.5-.8-1.3c.3 0 .6.1 1 .4zm-1.7-.3c.2 0 .5.2.5.5 0 .2.3 1.3.6 1.3l.6.6c-1.1-.6-1.5-1-1.9-2.1l-.4-.4h.6zm-1.3-.1c.2 0 .3.2.5.3 0 0 .3 2 .2 2.3-.1-.4-.2-.8-.5-1 0-.5-.1-1-.3-1.3 0-.2-.3-.2-.3-.4l.4.1zm-1 0c.4 0 .6 1 .7 1.5l.4.7.1 1c-.3-1-1.1-1.6-1.1-2.4-.1-.3-.4-1-.7-1 .2-.1.4 0 .7.1zm-12.1.7c-.2 0-.4.2-.6.1.4-.3.7-.8 1-1.2 0 .4-.2.8-.4 1zm7.5-1.3c1.2.2 3.9-.6 3.7 1.4-.3.6.4 1 .2 1.7-.2-.2-.2-.7-.5-1-.3-.3 0-.8 0-1.3-.2-.2-.2-.5-.5-.4-.8.7.2 1.8-.2 2.5 0 .3-.1.5 0 .8v-1.3l-1-1.8-.4-.2c-.7.9.4 1.7 0 2.7 0-.3-.1-.7-.3-1-.5-.4 0-1.5-.8-1.7-.4.2-.3 1.1-.1 1.4-.3 0-.4-1.4-.5-1.7 0-.1-.3 0-.3-.2l.7.1zm-5-.1c-.1.5-1.6 3-2.3 2 1-.3 1.7-1.1 2.3-2zm3.6-.3c.7.5.4.7.2 1.5l.2.9c0 .5-.3 1-.5 1.4 0 .5-.6.7-.9 1.2.1-.5.6-.8.7-1.3l.3-1.2c0-.6-.7-.3-.9 0l.2-.4c.5-.5.6-1.4.6-2zm-.5-.3c0 .1.2.1.2.3v.2c-.4.5-.6 1-.9 1.6 0 .2-.3.9-.6 1l.8-2c.1-.5.2-.8-.2-1-.2.8-.7 2-1.3 2.7.1-.2.6-1.5.5-1.8-.2 0-.2.3-.4.3-.1-.3.4-1.3.5-1.5.4-.3 1 0 1.4.2zm-7-.1c.4.3.5 1 0 1.4 0 .4-1 .2-1.3.2.4 0 1.1-.2 1.3-.6 0-.3.1-.7-.2-1a1 1 0 00-.6-.2c-.2-.2.7.1.8.2zm.8-.4c.3.7.2 1-.3 1.6-.1-.2.5-1-.1-1.4-.2-.2-.7-.4-1-.3v-.1c.6 0 .9-.3 1.4.2zm4.3-.1c.2.3 0 1.2-.3 1.5V12c-.1.2-.8 1.3-1 1.3 0-.3.6-1.3.6-1.7.1-.2.2-1 0-1.3h.1zm-3.2-.5l.4.9c0 .3 0 1.3-.2 1.5-.1-.2.2-1.2-.2-1.4l-.5.7h-.1l.2-.7c0-.3 0-.9.2-1.1h.2zm2.2 0l-.4 1.3c-.6.4-1 1.7-1.7 1.8.8-.6.7-1.4 1-2.2.4-.4.5-1 .5-.1.3-.2.1-.7.4-1l.2.1zm-4.6-.1l-1.3.8v-.2c.5-.2.7-.9 1.2-.7zm3.5-.7c0 .3-.2.6-.6.8 0-.4.4-.6 0-1 0-.2.5-.1.6.2zm.5 0c0 .4.1 1-.4 1.2-.1 0-.3 0-.3-.2.2-.5.5-.9.3-1.4.2 0 .2.3.4.4zm-.2-.8c.2.3.5.5.5.8v.1c.4.2.8.1 1 .5.3 0 .5.4.8.5h1.2c1.7 1.3 3 1.1 5 1 .6 0 1.2.2 1.8.4h2l2 .4c.8 0 1 .8 1.6 1l.1.2c1 1 1.9 1.2 3.2 1.1.2-.1.8-.3.9-.7.3-.2.2-1.1.1-1.4-.1-.8-1.7-1.6-2.4-2a29 29 0 00-2-.1c-1.8-.1-4.5.6-6-.2l-1.8-.7c.1-.4 1.1-.4 1.4-.4 1 .3 2 1 3 .7a18 18 0 014.9 0c1.5.4 3.4 1 4 2.7.4 1.8-1.5 3.4-3.2 3-.5 0-.8-.2-1.2-.4 0 .4.3.8.4 1.2.2 1 .7 2 1.5 2.7 0 .4 1.3.6 1.6.7 0 .6.4 1.4.7 2-.2.4-.7.8-.8 1.4h-3.4c0-1 1-1.5 1.9-1.6l-.9-1-2-1.3-.4-.4-1.2-1c-1.8-1.2-3.2-1-5.2-.4H21c-.2-.1-.2-.3-.3-.5 0-.2-.2-.2-.3-.3l-1.2-.9c.1 0 0 .3.2.4.2.3.5.4.8.6l.2.1c0 .6.3 1 .4 1.5.5.7.6 1.6 1.3 2.2 0 .5-.2 2 .1 2.3.2 0 .2-.1.3-.2.2-.4.8-1 1.3-.8.2 0 1.5-1.1 1.8-1.3L25 19c0-.5-.3-1.1 0-1.6-.2-.5 2.3.5 2.4.5l1 1c-.2 0-.2.3-.4.4a5 5 0 00-.7 2c-.2.3-.6.3-.6.4-.5.4-.6 1-1.1 1.4h-7c.4-1.3 1-1.2 1.5-1.4 0-.2.3-.7 0-.8-.4-.5-.7-1-1.2-1.4-.1-.3-.5-.4-.7-.6-.8-.4-1.3-.7-1.8-1.4-.7-.4-1.5-.6-2.2-.9-.7-.4-1.1-1-1.7-1.5l-.4-.8c-.3-.2-.8-.3-1-.7-.3-.1-.8 0-1.1-.3.2 0 .7-.3.7-.6 0 0-.1-.1-.2 0-.4.4-1.7 1-2.2.3v-.6h.1v-.3c.2 0 0 .4.3.3.1.2.9-.2 1-.5.3-1.3-1.3-.6-1.9-.8v-.6c.4-.2.5-.4.5-.9.8-.5 2 .3 2.8.3-.1-.5 0-.5-.4-.6H9.6c.1 0 .3-.4.5-.4.2-.2 2 0 2.2 0l.6-.3c0-.1.2 0 .4 0zM8 9.7c0 .3-.3.8-.6.5V10c0-.1.4-.2.6-.1zm1 1.8l-.2-.1-.1.4-.2-.3c-.2 0-.1.2-.2.3l-.2-.4H9v.1zm.5.4c-.1.2-.3.5-.7.5 0-.3.3-.5.7-.5z" fill="#fff500"/></g></svg>