<svg xmlns="http://www.w3.org/2000/svg" xmlns:xlink="http://www.w3.org/1999/xlink" viewBox="0 0 600 400"><path fill="#038cd4" d="M0 0h600v400H0z"/><path fill="#fff" d="M76.3 31.7L55 20 76.3 8.3zm0 40L55 60l21.4-11.7zm0 40L55 100l21.4-11.7zm0 40L55 140l21.4-11.7zm0 40L55 180l21.4-11.7zm0 40L55 220l21.4-11.7zm0 40L55 260l21.4-11.7zm0 40L55 300l21.4-11.7zm0 40L55 340l21.4-11.7zm0 40L55 380l21.4-11.7zM81.3 0L44.7 20l36.8 20-36.8 20 36.8 20-36.8 20 36.8 20-36.8 20 36.8 20-36.8 20 36.8 20-36.8 20 36.8 20-36.8 20 36.8 20-36.8 20 36.8 20-36.8 20 36.8 20-36.8 20 36.8 20zM66.8 0L29.9 20l36.8 20-36.8 20 36.8 20-36.8 20 36.8 20-36.8 20 36.8 20-36.8 20 36.8 20-36.8 20 36.8 20-36.8 20 36.8 20-36.8 20 36.8 20-36.8 20 36.8 20-36.8 20 36.8 20H0V0z"/><path fill="#ffcc01" stroke="#000" stroke-linecap="round" stroke-miterlimit="8" stroke-width="1.5" d="M360.8 279.9c-11 9.3-3.3 14.2-5.7 23.4 5-5.6 4-11.4 4.7-4.8 1 7-1.7 9-3.6 13 7.1-2.2 7-6.6 6-1.8-4.3 16.8 3.8 10-.5 23-3.6 5.2-16.2 22.3-24 21-8.3 0-8.5-3.9-13.2-3.9-7.7 0-5.9 7.9-7 9.7 0 7 3.4 6.4 3.4 6.4-1.2 12.3 11 11.3 13.5 9.6 6.4 13.8 21.3.9 26.1-5.7 6 7 8.3 5.8 13.7 1 5.4-5 2.5-8.3 1-11.8 19.6-13.5 15.6-28.8 24.6-34 2-2.9-3-7.7-3-12 0-1.7 1.9-4.6 4.2-3.5 3 8-1.9-2.6 2.9-10 2.2-3.4.7 1.5 2.9 3 .3-2.7 1.4-4.7 2.9-6.4v-27.7h-48.9zM236.6 248c-7.9.2-19-1.4-23.3-4.4-10-6.8-14.6-16.8-14.6-23.5 0-8 6-14.5 6-19.5 0-8.3-5.7-11.6-7-11.6a7.2 7.2 0 00-6.3 3.5c-3.5-5-11.4-4.4-12.7 4.7-5.2-1.4-9.8-.6-9.8 5.1 0 11 9.4-2 7.2 17.8-5.2 1-4.6 11.7.6 11.5-.3 3.2 2.4 9.6 5.4 20l1-6.5c1.2 8.6 8.5 17.2 14.6 22.8 6 5.7 10.7 10 16.4 24.7.8-5.6 4.6-.8 5.7 1.3 2.7-5.3 11-8.1 16.5-11z"/><path fill="#f0f1f3" stroke="#000" stroke-linecap="round" stroke-miterlimit="5" stroke-width="1.5" d="M237.5 245c-11.6 33.2 1.3 48.3 22.5 59.8l36.9 10c11 .4 20.6-1.3 28.8-5.5 4.8-1.4 9.3-3 12.3-6l-2.6-.3 7.2-4.4c1.2-.7-1.2-1.7-1.2-1.7 2.1-1.8 4.4-3.5 7-4.5 1-.4-.8-2-.8-2 7-7.5 16-12.9 27.4-15.1v-43.5H252.8z"/><path fill="#cde" d="M297 314h7.3c.6-2.2.6-4.4 2.4-6.7.5 2.3 1.2 4 2.5 3.6 0-2.3 1.2-4.2 2.3-6.2 3.3-.2 6.5.1 9.6 1.6 0-1-1-1.8-1.7-2.6a16 16 0 0110.2-2.3c.3-1.8-1.4-2-2.2-2.8 3.5-3.1 8.2-4 13.2-4.2-.4-1.8-2.5-1.7-4.2-2A62 62 0 01349 288l.8-.8c-.4-1-1.7-1-2.8-1.2 2.4-1.5 5.2-2 7.8-2.9a54.9 54.9 0 0117.8-7.9v-7.8h-77.4zm-40-72c-1.3 8.8-1.6 18-13.9 22.1 2 2.8 5.3 4.5 10.7 4.2-2.3 6.3-5.3 12-11.4 14.2 2.4 2.9 6 3 9.9 2.1-2.5 2.7-3.6 6.7-2.5 12.9a65 65 0 0010 6.4l12.6-67.8z"/><g stroke="#000"><path fill="#ffcc01" stroke-linecap="round" stroke-miterlimit="8" stroke-width="1.5" d="M264.3 200.3c-.5 10-2.9 15.7-7.6 19-5.9 4-12 7.5-15 12.9l3.6-1a71 71 0 00-11 14.4c4.3 0 8.5-1.4 12.6-3l-1 7.3c3.9-.9 8.3-2 13-8.3a13 13 0 01.9 7.4c0 1 1.2.4 1.2.4-.8 5.6-2 11.2-7.7 15.5 1.5.5 3.6.3 5-1 0 3.6.4 8.8-5.4 15.2-5 4.6 3.6 0 4.2-.2-.2 2-1.1 4-1.7 6-1.8 3.6.9.8 3-.5-7 7.9-2 13.4-2.7 19.9 3.8-4.2 3.2-10 3.9-3.3 1 7-1.7 9-3.6 13 7.1-2.3 7-6.6 6.1-1.9-4.4 16.9 3.8 10-.6 23-3.6 5.3-16.2 22.4-24 21.1-8.3 0-8.4-4-13.2-4-7.7 0-5.8 8-7 9.8 0 7 3.5 6.4 3.5 6.4-1.2 12.3 11 11.2 13.4 9.6 6.5 13.7 21.3.8 26.2-5.7 6 6.9 8.3 5.7 13.6.9 5.4-5 2.5-8.2 1-11.7 19.6-13.5 15.7-28.8 24.7-34 2-3-3-7.7-3-12.1 0-1.6 1.8-4.6 4.2-3.4 3 8-2-2.6 2.8-10 2.3-3.5.7 1.5 2.9 2.9a17 17 0 012.2-6c2.9 0 6.2.2 8.8 1l-1-2c2 .3 3.3-3 10.1-2.1 0-1-1.2-1.3-2.4-2.2 3.3-2.8 7.8-4.8 13-5-.2-.6-3.8-1-5-1.2 5-2.5 10-4 14.6-5.4-.4-.4-3.6-1-3.6-1 4.2-3.4 26.2-9 29.8-6a13.3 13.3 0 00-5.8 8.9c12-6.6 16.3-.2 30.2 7.5 1.8.4 5 0 6.3-1.1 1.6 1.6.8 1.8 3.7 3.6a32 32 0 014.9 12.6c1-1 1.5-3.7 2.1-5.3 1.3 1.5 2.5 3.9 3.5 6 1.2 2.6 1.4-.8 1.6-2.3 1.1 10.2 9.6 9.7 13 16-.2-6.2-5.9-10.9 0-6.4 5.4 4.1 4.5 4.8 7 11.1 2.7-5.2-.2-10.3 2.9-5.4 8.7 14 8.8 5 14.8 13.4 2.7 4 3.4 13.9 3.4 17.2 0 7-4.8 7.6-9.7 7.6-5.6 0-5.2-2-9-2-3.7 0-6.8 2.2-6.4 8.1.1 3.5-.3 7.2 4.6 9 1.2 10.6 11.5 9.6 14.7 6.4 7.2 12 19.1-.6 22.2-5.6 2.3-3.7 5.2-7 5.1-10.2 2 .6 12.8 3.8 13-6.7 0-5.2-1.1-7.4-8-9.3 3.9-29.2-10.9-34.7-8.1-45.3 0-.8-2.1-2.8-5.4-3.3-6.2-1-9.3-7.5-4-8-4-2.3-7.4-9.2-6.5-10.2.5-.6 3.1 2.4 4 1.4-2-2.6-1.7-4-3.2-7.2-2.8-5.8-6.3-11.2-1.6-5.1 4.6 7.3.7-6.6-4.5-10.6l-3.6-6c4.2-.7 21.4.2 21.4-23 0-30-36.7-32.9-36.7-43.3 0-8.9 29.6-7.2 29.6-39.4 0-7.6-3-9.4-6.9-9.4-2.3 0-7.8 1-6.1 10.8-2.2 25.3-29.8 18.6-29.8 38.8 0 21.4 34.5 20.7 34.5 39.3 0 3.4-1.7 6.5-7.2 6.5-13.5 0-31.5-16.1-53.9-16.1-23.5 0-47.6 12.4-66.6 12-10.2-.3-2.3-5.2-14.8-6.6-5-.5-4.5-4.3-5.7-9.7 0 0 2.5.7 3.2 1.2-1.8-1.7-3.2-6-4-9 3.1-.3 5.8 1.2 3.6-1.2-4-4.4-5.1-8.2-7.3-12.4l4.9.4c-3.2-4-5-8.7-7.3-12.3-2.2-3.4-5-5.9-6.9-9.7L294 152c-1.5-6.5-2.3-9-3.8-9-1.7 0-2.7 6.3-16.8 6.2z"/><path fill="#e20514" stroke-linecap="round" stroke-miterlimit="8" stroke-width="1.1" d="M247.1 191.6c-4.3-6-8-4.3-24.4-4.3-1.8 0-10.1-1.6-10.1-9.9 0-3.6 1.5-7.6 5.7-7.6 1.4 0 3.7 1 3.7 3.1 0 1.7-2.5 2.8-2.5 4.5 0 4 10.5.9 23.3.9 8.6 0 13.5 5 13.5 13.3z"/><path fill="none" stroke-miterlimit="5" stroke-width="1.3" d="M327 233.5a69.7 69.7 0 012.5 18.3l-2.8-3.4c1.8 7.2-.9 10-1 12.3L323 256c-.4 4.5-1 9.4-2.4 12.3"/><path fill="#fff" stroke-miterlimit="5" stroke-width="1.3" d="M234.1 192.4c-.2-1.6-1.5-9.2 2-13.1-.5 3.7.8 7.7 4.6 11.3m-14.8-18c.6 4.6 1.8 9 5 12.2 0-3.8 0-7.5 1.2-11.4"/><path fill="#fff" stroke-linecap="round" stroke-miterlimit="5" stroke-width=".9" d="M246 190.3c-.7-2 0-4 1.2-5.9.3 2.2 1 4.3 2.6 6m-7.1-.2c-.8-2-.1-4 1-5.8.4 2.2 1 4.3 2.6 6m-7-.2c-.8-2 0-4 1.1-5.8.4 2.2 1 4.3 2.6 6m2.6-17.6c-.7 2.1.2 4 1.4 5.8a12 12 0 012.3-6.2m-7.1.4c-.7 2 .1 4 1.4 5.8a12 12 0 012.3-6.2m-7.1.5c-.7 2 .1 4 1.4 5.8.2-2.2.8-4.3 2.3-6.2m-7.1.7c-.7 2 .1 4 1.4 5.8a12 12 0 012.2-6.2m-7 .6c-.6 2 .2 4 1.5 5.8.2-2.2.8-4.4 2.2-6.2"/><path fill="#ffcc01" stroke-linecap="round" stroke-miterlimit="8" stroke-width="1.5" d="M230.6 189.6c-6.2 0-8 15.4 4 22l-.7-1.8c-2.5-9.6-.7 3.3 10.8 4-2.4-1.6-3.5-3.7-4.5-5-3.2-6.4 1 .5 2.7-.8-2.8-6 .2-7 2.4-8.4 7-3.3 7.5 2.4 9.4 6.8 1-4 1-6.7 1-6.7-.4-7.4.1.7 4.3 2.3 1.8.5-.5-3.4 2.5-9.8.7 6.5.5 10.3 6 12.7-1.4-8.4 1-10 4.6-15-1.8 6.6 2 12.3 5 15.4-1.4-6.2 3-12 4.2-17.9-1 7.7 4.4 12.1 6.3 13.8-2.3-14 8.6-16.6.7-31 0 0 4 2 7.9 2 5.3 0 7.5-11.1 7.5-16.7 0-4.7-1.8-5.4-3-5.4-1.8 0-6 2.5-17.8 2.5-7.7 0-11.1-7-24-7-8.8 0-12.5 3.9-13.3 3.9-3.7 0-12.3-2.5-20.2 1.1-6.6 1.8-6 7.7-3.1 9-4.6 7.4 1.2 15 6.4 14.3 6.5-.8 16.6-2.5 19.8-1 2.7 1.1 7.6 11.7 6 15.4-1.5 3.6-16.6 1.3-25 1.3z"/><path fill="none" stroke-linecap="round" stroke-miterlimit="8" stroke-width="1.5" d="M178.7 197.2c-.3 6 3.6 6.2 3.6 6.2-.5 1.7-.2 12-.2 12m9.3-23c-3 5.5.5 8 .5 8-2.2 4.2-2.5 8.7-2.8 13m-1.8 6.6c-4.2 6.2-4.6-1.2-11.2.1m.6 11.5c2.1-.1 4.3-.1 6.5-.8M321 366c-.3-4.3 1.3-7.9 6.7-7.9 1.8 0 10.2 4.9 17-.4M334.5 374c-1.8-3-1.2-10 5.6-10 3.8 0 8.6 1.7 10.4-4.7m10 10.6a36 36 0 003.5-6.8M308.8 299c.6-1.5 1.3-2.9 1.6-3.9 5.6-15.6-1.7 8 3.3-1.8 1.7-3.4 2.4-3.6 3-9.8m-95.9 84.9c-.2-4.3 1.4-7.8 6.7-7.8 1.8 0 10.2 4.8 17-.4m-10.2 16.2c-1.8-3.1-1.2-10 5.7-10 3.7 0 8.5 1.7 10.4-4.8m10 10.7a36 36 0 003.4-6.8M261 249.4c5.7-3 9.7-6.6 11.4-13.3 2.6 3.1 3.3 6.8 4.4 5.8 3-3 6.4-5.8 7.2-11-.7-3.7.6-3 3.6-.5"/></g><path d="M293.3 217c1.8 8-5.6 14.4-5.6 14.4l-1.1-1s5.4-4.2 6.7-13.3zM404 289.3c-4.3-5-8.3-11.4-10.4-12.4 1.1 3.7 4.2 7.2 9.3 13.5z"/><path fill="none" stroke="#000" stroke-linecap="round" stroke-miterlimit="8" stroke-width="1.5" d="M435.5 237a55.1 55.1 0 0118.8 16.8m-14.1 119.8c-1.7-5.7 1.5-9.4 5.8-9.4 1.7 0 3.6.6 6 .6 3.4 0 8-1 10-3.9m6.2.2c-.7 5.3-3.3 6.5-8.2 6.5-4.1 0-9.7 4.2-5.3 10.5"/><g transform="scale(.2181)"><path d="M1162.6 729.3c-5-4.8-8.7-10.5-17.2-15-25-13.6-61.1-14.4-79.9-14.5 50.1-10 72 8.8 88.8 8.8 7.6 0 19.6-10.7 35.5-10.7 28 0 55 31 52.7 32.4-3.3 1.9-13-9.1-19.6.6-7.8 11.3-12.8 25.9-31.7 25.9-15.6 0-28-10-28.6-27.5z"/><circle cx="1191" cy="728.8" r="23.9" fill="#fff"/><circle cx="1190.9" cy="728.7" r="12.6"/><circle cx="1201.7" cy="726.8" r="12.3" fill="#fff"/></g><g transform="scale(.2181)"><path id="a" fill="#fff" stroke="#000" stroke-width="4" d="M779.1 998.9c1.8 8.7 7.6 19.7 23.1 20.1 20.3.5 17.2 24-5 24-14.5 0-27.3-18.4-18-44.1z"/><use width="100%" height="100%" transform="scale(1 -1) rotate(-75.9 -437 63.2)" xlink:href="#a"/><use width="100%" height="100%" transform="scale(-1 1) rotate(83.6 61.8 25)" xlink:href="#a"/><use width="100%" height="100%" transform="scale(-1 1) rotate(65 69.2 -396.2)" xlink:href="#a"/><g id="b"><use width="100%" height="100%" transform="scale(1 -1) rotate(14.2 11982.7 785.8)" xlink:href="#a"/><use width="100%" height="100%" transform="scale(1 -1) rotate(14.5 11636.8 522.1)" xlink:href="#a"/><use width="100%" height="100%" transform="scale(1 -1) rotate(14.1 11739.8 477.5)" xlink:href="#a"/><use width="100%" height="100%" transform="rotate(-110 1260.8 1223)" xlink:href="#a"/></g><use width="100%" height="100%" transform="translate(459.3 -11)" xlink:href="#b"/><use width="100%" height="100%" transform="scale(1 -1) rotate(25.3 7621 2533)" xlink:href="#a"/><use width="100%" height="100%" transform="scale(1 -1) rotate(23.7 7967.2 2578)" xlink:href="#a"/><use width="100%" height="100%" transform="scale(1 -1) rotate(23.3 7964.8 2577)" xlink:href="#a"/><use width="100%" height="100%" transform="rotate(-146 1622.4 1120)" xlink:href="#a"/></g><path fill="#d79500" d="M469.7 240h1c-.2.3-1.2.3-1.3.1h.3zm-31.2-54s-.6-.3-.7.1c-.2.6.5 1 .5 1zm.1 3.2s-1.3 0-1.5-1.5c-.2-1 1.2-.5 1.2-.5 0 .7 0 1.4.3 2zm2.7 9c-.3 0-.7.3-.3.4.2.1.8 0 .7-.3h-.4zM456 202c2.5 1.4 4.8 3 7 4.8-.5.1-1.2 0-1.6-.5l-1.8-1.6c-1-.7-1.4-.4-3.2-1.3-.5-.3-.6-1-.4-1.4zm-21-4.3c-.3 0-.8.4-.4.6.3.2 1.1 0 1-.5h-.6zm-8-10.3c-.3 0-.4 1-.2 1.2 0 .3 1 .4 1.2 0 .2-.3-.6-1.2-1-1.2zm.1 5.3a2 2 0 001.9-.5c.4-.4.6-1.1 0-1.5-.6-.3-1.8-.5-2.3-.3 0 .8.2 1.6.4 2.3zm32.7-24.4c-1 .1-.9 1.8 0 2.6l1.8-2c-.2-.3-1-.8-1.8-.6zm-4.5-13.1l-.8 2.5c.9.6 2.1 2 3.3 2 1-.5.2-2-.4-2.5-.5-.5-1.4-1.8-2-2zm-4.7 8.8l-1.6 1.6c.4 1.4.2 3.5-.4 4.6-.8.4-2.3-.3-2.6 1-.2.4-.6 1.2.2 1 2.4.1 4-1.8 5.6-3.1 1.2-1.1 1-3.1.2-4.3-.2-.3-.6-1-1.4-.8zm0 8.6c-1.3.3-1.4 2-2 2.9-.4 1.7-2.5 1.8-3.5 3-.1 1 1.2.7 1.7.4a45 45 0 005.2-2.9c1.2-1.1.3-3.7-1.5-3.4zm4.5-5.4c-1.7.3-2 2.5-1.8 4 .1 1.1.5 3.2 1.3 4a17 17 0 003.4-2.6l-1.5-4.8c-.3-.4-.9-.6-1.4-.6zm-16.4 25c.6 0 1.2.1 1.5-.3a9 9 0 01-1.4-2c-1.7.3-1.2 2.3 0 2.4zm10.5 5.9c-1.4.3 0 2 .4 2.6 1 1.2 2.3 3.2 4.1 2.8.8-.1 1.4-1 1.2-2.2l-5.7-3.2zm9.3 21.5c.6 1 1.8 3.3 2 4 .4.2 1.2.4 1.6.8 1 .5.8 1 0 1.6-1.7.5-1.2 2.2.2 2.2a5 5 0 002.2-2.1c0-1.6.4-3.4 0-5a9.4 9.4 0 00-6-1.5zm-7.3-8.7c-1.9 0-3 .2-3 .2l4.6 3c1.6-.2 4.7-.5 6.3-1.1.8-.6-.4-1.6-1-1.7-2.2-.5-4.6-.3-6.9-.4zm8.9 3.1c-1.3.2-4.3 1.3-4.2 2.7l1.3 1.3c1.1 0 6.7.3 6.1-2.1-.3-1.5-1.9-1.9-3.2-1.9zm2.3-5.5c-1 .1-2.7.3-2.6 1.6.6 1 2 1.4 3 2 .5.2 1.1.2 1 .8.7 1 1.5 2.5 3 2.6 1.7-1 2.8 0 2.6-2-1.2-2-2.8-3.3-4.2-4.7-1-.3-1.9-.3-2.8-.3zm5 7.7c-1.3 0-3 1.4-2 2.6 1.9 1.7 5.6 2.6 8 2.5-.4-1.5-1-3-2-4.6l-4-.5zm3.8 6.4c-1 .1-2.5.4-2.9 1.4.5 1.5 2 2.3 2.9 3.5-.3 1.1-1 2.4-.5 3.5 1.6.1 2.4-1.9 2.6-3.3.3-1 .3-1.6 1.2-2.2a24.7 24.7 0 00-.5-2.2c-.8-.8-2.3-.7-2.8-.7zm2.8 16.8c-1.4-.5-2.2 2.5-5.2 2.3-.9 0-2.5.5-2.2 1.7.6 1.1 2.3.5 3.3.4 1.3-.3 2.7-1 3.4-2.3l.7-2.1zm-34.8-59.9c-.6.1-1.9.2-1.7 1 .7.2 2 0 2.2-.9h-.5zm-3 3c-1 0-1 2 .2 1.7 1.1 0 1.1-1.7 0-1.7h-.2zm-2.7 8.5c-1-.2-1.4 1-.6 1.5.8.7 2.3 1 3.2.4.1-1.1-1.7-2-2.6-2zm-2.4-6.7c-1.2.1-1.8 2-.7 2.6 1 .7 1.3 2 2.5 2.4.6.2 1.1-.2.9-.9-.2-1.6-.7-4-2.7-4.1zm3.3-6.2c-1.2 0-2.3 1.1-2.7 2.2.2 1 1.5.3 2 0 .6-.5 1.9-1 1.9-1.9-.3-.4-.8-.3-1.2-.3zm10.9-4.8c-1.6 0-2.8 1.5-3.5 2.8 0 1 1.4.5 1.9.2 1-.4 3-1 2.3-2.5a.8.8 0 00-.7-.5zm13.8-18.5c-.7 0-1.9 1-1.1 1.7.8.3 2-.8 1.6-1.6-.1-.1-.3-.2-.5-.1zm1-2.2c-.8.2-.4 1.8.5 1.3.7-.1.9-1 .1-1.1l-.6-.2zm-.2-6.1c-.8.1-1.6 1-1.5 1.8.1.6.7 1.2 1.3.7.8-.5 2-1 2.4-2-.4-.6-1.5-.4-2.2-.5zm3.4 2.2c-1-.2-1.4 1.2-.5 1.7.8 1 2.8-.6 1.8-1.5-.4-.2-.8-.3-1.3-.2zm2.4 4c-1.2.3-2.7.9-3.2 2.1.5.8 1.7.1 2.4 0 .7-.4 1.8-1 1.8-1.8-.3-.3-.7-.3-1-.3zm-4.6 5c-1.4.4-1.2 2.3-1.3 3.5 0 1-1 1.7-1.3 2.8-.3.6-.6 1.4.3 1.8.5.4 1.3 1 1.8.1 1-1 1.2-3 2.7-3.7.8-1.5-.2-3.6-1.6-4.4l-.6-.2zm-6.2 3.4c-1.7 0-2 2-1.3 3.2.5 1 1.8 2 2.8 1 1.7-1 1.3-4-.8-4.2a3.3 3.3 0 00-.7 0zm-25.5 32.1c-.5.4.2 1.2.3 1.7.8 1.5 2.6 3.2 4.4 2.1.1-.6-1-1.1-1.3-1.7-1-.8-2-2.1-3.4-2zm7 2.6c-.5-.2-.9.3-.4.6.4.6 1.7 1.2 2 .4 0-.8-1-1-1.6-1zm4.8 6.3c-1 .5-2.2.7-3.1 1.2-.6 1 1 1.3 1.6 1.4 1.2.2 2.9.2 3.3-1.2-.3-.6-1-1.3-1.8-1.4zm2.4-5.1c-.6.3.2 1.2.4 1.6.8.9 1.6 2 2.8 2.2.6-.7-.1-1.9-.6-2.5a4 4 0 00-2.6-1.3zm2.6 10c-1 .4-.6 2.2.5 2.2.9.3 1.9 1 2.7 1 0-1.2-1.3-2-2.1-2.7-.4-.2-.7-.5-1.1-.5zm2-3.1c-1.6.2-4-.4-5 1.2-.5 1.1 1.4 1.6 2 .8.5-1 1.1-1 1.9-.2 1.5 1 2.5 3 4.4 3.2 1.4-.2 1.3-2 .6-3-.6-1.2-1.7-2.2-3.2-2h-.6zm7.4.8c-1.6-.1-1.7 2-1.2 3 .4 1.3 2.3 2.3 3.4 1.2 1.7-1.7 0-4.4-2.2-4.2zm6.3 29.2c-.8-.2-1.3.5-1 1.2.4.6 1.4 0 1.8-.5.5-.6-.3-.8-.8-.7zm5.4-3a9 9 0 00-2.6 2c-.2.8.4 1.1 1 .7 1.2-.2 1.6-1.7 1.6-2.7zm-.3-4.8c-1.2.2-2.6 1.3-2.1 2.6 0 .8.3 2.2 1.4 1.8.8-.1 1.2-.8 1.4-1.5.3-.7 1.4-1.2 1.3-2-.5-.5-1.3-1-2-1zm4.5 6.3c-.7.1-1.7.5-1.9 1.2.5 1 2.3.2 2.4-.7.1-.3-.2-.5-.5-.5zm1.5 3c-.8 0-3 1.2-1.8 2.1 1 0 2.2-.8 2.3-1.8 0-.2-.3-.3-.5-.2zm-4.6 1.1c-1-.2-2.5.9-1.5 1.8 1 .3 2.4-.3 2.5-1.4-.1-.4-.7-.4-1-.4zm0-2.6c-1.9.5-2.9 2.3-4.4 3.4-.6.3-.9 1.7 0 1.5 1.5-.6 1.6-2.3 3-3 .4-.7 2-.5 2-1.6a1 1 0 00-.7-.3zm-8.7 3c-1.5.3-2.9 1.2-4.4.9-1.2-.1-3.2-.6-3.6 1-.1 1.1 1.5.8 2.2 1 1-.2 1.6.8 2.4 1.2 1.3-.8 2.4-2 4-2 .9 0 1.8-1.1 1-1.7a3 3 0 00-1.6-.5zm7.1 3c-.7 0-1.5.7-2.1.7 0-1-1.5-.5-2-.2-1.8 1.5-4.5 2-5.7 4 0 .8 1.2.4 1.7.5 1.6.3 2.7-.9 3.7-1.8 1.5-.7 2.4-2.3 4.2-2.6.2 0 1.3-.6.2-.7zm.5 5.9c-1.2.2-2.7.6-3.5 1.7 0 1 1.5.4 2 .3.9-.2 2.6-.7 2.2-1.8-.1-.2-.4-.2-.7-.2zM460 250c-.4 0-1.6.3-1.2.9.6.1 1.7 0 1.9-.7-.1-.3-.5-.2-.7-.2zm1.2-4.6c-2.4.6-4.3 2.3-6.7 3-.5.4-1.8.8-1.7 1.6 1.6.2 3.2-.8 4.7-1.3 1.5-.8 3.2-1.6 4.1-3 0-.3-.2-.3-.4-.3zm-7.1 2c-.5-.1-1 .7-.3.6.4 0 1-.7.3-.6zm-1.5-5.5c-.7.7-.8 2-1.1 2.8-.3.7-.5 1.7.5 1.8.7.4 1.7.4 2-.5 0-.7 1-1 1.1-1.6-.2-1.4-1-2.5-2.5-2.5zm-6.2-5.9c-1.3.3-.7 1.8-1 2.7-.6.9.8 1.7 1.3 2.4.8.7 1.6 2 2.8 2.2.4-.9-.7-1.8-.8-2.6-.8-1.4 1.2-2.4.8-3.7-.8-.3-2-.1-2.6-.9a1 1 0 00-.5 0zm-4.7-1.7c-.8.1-1.5.6-2.4.4-1-.2-2 1.4-.8 1.8 1.4.3 2.5 1.1 3.8 1.4.4-.5.3-1.4.6-2 .2-1-.1-1.8-1.2-1.6zm-55.5 105c-.6-.1-1.8.5-1.2 1.2.8 0 1.5.5 2.1 1 .6-.4 1-1.2 1-1.8-.4-.5-1.3-.2-1.9-.3zm-6.6 6c-1.3 0 .2 2.1 1 1.2.8-.7-.2-1.4-1-1.2zm-6-3c-.8.2 0 1.5.7 1.3.5 0 2.2.3 2-.2-.9-.4-1.7-1-2.6-1zm-5.5 5c-1.2-.1-.4 1.7.5 1.3.7-.1 1-1.5 0-1.3a3.8 3.8 0 00-.5 0zm-1.2-6.1c-.7.1-1 .8-1.7 1-.5.3-.8 1 0 1.2 1.2.5 2.4-.8 3.2-1.6 0-.6-1.2-.6-1.5-.6zm-7.2 3.9c-.8 0-1.4 1-2.1.3-.7-.4-.5.5-.1.7.7 1.1 2.7.3 2.6-.8 0-.2-.3-.3-.4-.2zm2.2-7.3c-.7.2.2 1.3.6 1.5.6-.1 1.4-1.3.4-1.4-.4 0-.7-.2-1-.1zm7.6-1.7c-.8.2-2.1 1.3-1.2 2 .8.5 1.8-.4 2.6.3.7.5 2.2.6 2.2-.5 0-.8-.8-1.1-1.4-1.2-.8-.3-1-1.5-2-.7zm8.1-2.1c-1.2.2-2.2 1.8-1.1 2.8.6-.1 1-1 1.7-.8.5.3 1.8 0 1.2-.7-.7-.2-1.4-.4-1.5-1.2l-.3-.1zm1 4.8c-.5.4.5 1.2.8 1.5.4.7 1.4 1 2 .2.7-.9-.8-1.5-1.5-1.2-.5 0-.8-.4-1.2-.5zm-.6-15.5c-1 0 0 2 .5 1 .3-.4.1-1.1-.5-1zm-.5 3.9c-1.2 0-2.5.4-3 1.6-.8.6-2.6 1.2-2.1 2.6.4 1.1 2 .3 2.9 0 1.7-.7 3.6-1.3 5.1-2.4-.1-1.2-1.8-2-3-1.8zm8.5 5.7c-1 .6-2.1.7-3.2 1-.4.5-.2 1.6.6 1.4.9.1 2.4-.4 2 1 0 .5.4 2 1 1.2.5-.8 1.7-.7 2.1-1.4-.6-.8-1.8-1.3-1.8-2.5-.1-.3-.3-.8-.7-.7zm.3-5c-1 .5-1 2-.8 2.9.5.8 1.1-.5 1.1-1 .2-.5.7-1.7-.3-1.9zm4.3.9c-.5.2-.4 1-1 1.3-.8.5-.7 1.4-.2 2.1 0 .9 1.3 1 1.4.1.2-1 1.5-3-.2-3.5zm2.4-5.9c-.8.4-1 2.2.1 2.4.8-.5 1.3-2 0-2.4zm-5.4-2.7c-.9.6-1 2.2.2 2.7.7.7 1.2-.7 1-1.3-.2-.5-.6-1.2-1.2-1.4zm5.4-7.8c-1.4.2-1.5 2-2.4 2.9-1 .7-1 2.2-.1 3 1.3 1.3 2.6 3 4.4 3.7.6-.2-.3-1.1-.5-1.4-.4-.6-1.6-1.3-.7-2 .6-.4 1.3-1.1.6-1.8-1-1.2-.3-3-1-4.4h-.3zm1-7.5c-1.3-.1-1 1.6-.9 2.5.3.8.7 2 1.5 2.2 1-.6.5-2 1.3-2.8.6-.6.4-1.5-.4-1.6a3.9 3.9 0 00-1.4-.3zm-4.4 2.5c-1 .3-1.5 2.5 0 2.6.9-.4 1.4-2.4 0-2.6zm-4.2 3c-1.7.4-1.6 2.7-1 4 .1.7.7 1 1.3.7 1.3 0 1.4-1.7 1.5-2.6 0-1-.8-2.1-1.8-2.2zm-5.7 4.8c-1.1.7-.6 2.4-.6 3.4 1 2.5.4 5.2 1.7 7.5.3.6 1.2 1.7 1.8.8.9-2.2.3-4.6-.2-6.7-.5-1.8-1-3.8-2.5-5a.3.3 0 00-.2 0zm1-18.2c.2.6 2-.2 1.7-.6-.2-.2-1.8.4-1.7.6zm-2.6 7.5c-.6 0-1.1 1.5-.2 1.3.2-.2.8-1.2.2-1.3zm2.4-1.7c-.9.1-1.8 1.3-.9 2 .7.7 1.2 1.8.6 2.8-.4 1.1-1.3 2-1.8 3-.3 1 .3 2.1 1.4 2 1.4-.6 1.3-2.5 1.4-3.7 0-1.9.2-3.8.7-5.6-.3-.4-1-.6-1.4-.5zm-5.5 4c-1 .4-.4 2-1 2.8-.5-.2-1.2-.7-1.5 0-.8.9-.3 2 .1 2.8.3 2.2-.3 5 1.8 6.4 1.1 0 2-1 2.6-1.9.7-1 .3-2.2-.5-3-.3-1-.4-2.2-1-3.2-.3-1.2.6-2.7-.1-3.8a.5.5 0 00-.4-.2zm-1 14.4c-1.6.4-2.5 2-2.2 3.7-.1.9.6 1.8 1.5 1.3 2.2-.2 3.3-3.6 1.3-4.8a1 1 0 00-.6-.2zm-8.8 9.8c-.6 0-1.1 1-.4 1.1.4.7.6 1.7 1.2 2.3.8-.7 2-.7 2.8-1.3.4-1.3-1.4-1.5-2.2-1.8l-1.4-.3zm2.2-5.1c-1 .3-1.5 1.7-1 2.5a8 8 0 012.4.7c1 0 .7-1.4.3-1.9-.4-.6-1-1.3-1.7-1.3zm-1.4-6.2c-.5 0-.9.7-1.3.1-.5-.1-1.6.3-1.3.8 1 .6 2.4.6 2.9 1.8.3.4.7 1.6 1.2.8.7-.9 2.6-.7 2.6-2-1.1-.6-2.8-.2-3.6-1.3 0-.2-.3-.2-.5-.2zm1.8-6.2c-1 .6-2.2.5-3.3.7 0 1.1-.4 2.4 1 2.7.7.5 2 1.2 2.5.1.3-1.2 1.8-1.3 2.3-2.3-.3-.9-1.5-1-2.3-1.2h-.2zm-3.3-11.4c-.7.3-.6 1.5-.2 2 .3 1.7 1.5 3.2 1.1 5 0 .6 0 2 .8 2 1.3-1 2-2.8 3.7-3 .7-.8-.6-1.7-.9-2.5-.5-1.2-1-2.7-2.6-3l-1.9-.5zm7-2.9a2.5 2.5 0 00-.9 3.3c.4.8 1.3 2.2 2.3 1.6 1.2-1.3.6-3.6-.7-4.6l-.6-.3zm5.8-1c-.9.2-1.2 1.3-1.6 2 .5.4.9 2 1.8 1.6 1-1 1-2.9 0-3.7a.5.5 0 00-.2 0zm9.4-.1c-1 .2-2.3.8-2.6 1.8.5 1.1 1.8 1.9 1.8 3.3.3 1.3-.3 3 .7 4 1 .2 1.1-1.3 1.5-2 .3-1.5-.7-3-.7-4.5-.3-.8 0-1.7-.1-2.5l-.6-.1zm-2.7-4c-.8 0-1.8 1.6-.7 2 .5.2 1.5 1.2 1.9.5 0-1 .4-2.7-1.2-2.5zm-5.3-5.2c-1.3 0-2 1.7-1 2.6.7.4 1.8 1 2.6.5 1-1 .4-3.2-1.2-3.1a1.9 1.9 0 00-.4 0zm-6-1.2c-1.5.6-2.5 3-1.2 4.3 1.2.3 1.7-1.2 2-2 .3-.9.3-2-.7-2.3zm-5 6c-1 .1-2.5.2-2.4 1.4-.3.7-1.3 1.3-.4 2s2.2.7 3 1.6c.7.4 1.2-1 1.9-1.1.8-.8 2.2-1.1 2.8-2.2-.7-.7-2-.2-2.9-.7-.7-.3-1.2-1-2-1zm-4.1-10.6c-.9.2-1.5 1.2-2.5 1.3-.8 0-1.8.4-1.7 1.4 0 .7 0 1.5.4 2-.3 1.5-2.4 2.2-2.2 3.8.4 1 2-.2 2.6.6.7.8 1.5 2.5 2.8 1.7 1-1-1-2.6.2-3.6.8-.8 1.2-1.6.5-2.7-.5-1-.1-2 .5-2.8.2-.5.2-1.7-.6-1.7zm7.7.6c-.7.6-1.5 1-2.3 1.4-1.4 1-3.2 2.4-3 4.4-.1 1-.4 2.1-.1 3 1.6-1 2-3.3 3-5 .2-.6.7-.9 1.3-1.1.6-.7 1.3-1.7 1.1-2.6zm4-.6c-1 .4-2.4 1.7-1.7 3 .2.7.6 2 1.6 1.5.9-.2 1.8-1 2.6-.2 1.3.8 3-.2 4.1-.8.5-.5 1-1.8 0-2-1.3-.7-2.6-1.4-4.1-1.3l-2.4-.2zm9.3 4.5c-1.5.4-1 2.4-.2 3.2.7.6 1.5 1.7 2.5 1.6 1.2-1 0-2.5 0-3.7-.4-.8-1.3-2-2.2-1.1zm7.9 4.3c-.8 0-2.2.6-1.5 1.5 1 1.2 1.4 3.4 0 4.5-.5.4.2 1.2.3 1.7.4.4.6 1.7 1.3 1.5.7-1.2 1-3 2.5-3.4 1 0 1.8-.6 1.6-1.6.1-1.6-.4-4.1-2.4-4.2a2 2 0 01-1.7 0h-.1zm10.4 2c-1.4.5-2.8 1.3-4.2 1.9-.2.5.6 1 .4 1.6a9 9 0 01-2.2 3.5c-.9.8-.2 2.4 1 2.3.8-.7 1-1.9 2-2.4 1.4-1.3 1.8-3.2 3.2-4.4.5-.5 1.7-1.6.6-2.2a.8.8 0 00-.8-.2zm58.3 40c-.4.4.5 1 1 1.2.6 0-.4-1-1-1.2zm4.8-2.7c-1.1.1-.4 2 .4 2.1.3-.5.9-.5 1.4-.7.9-.4-.3-1.3-.9-1.3-.3-.1-.6-.2-.9-.1zm.5-4.7c-1 .2.3 2 .7 1 .1-.4-.2-1-.7-1zm5.5.6c-.7 0-1.3 1.1-.4 1.2.7.3 1.6-1 .7-1.2a1.2 1.2 0 00-.3 0zm3 3.2c-.7-.2-1.4.5-1 1.2.1.5 1 1.4 1.2.5 0-.5 0-.9.5-1 .6-.1.5-.8-.1-.7a3.3 3.3 0 00-.5 0zm-.4 7c-.7.4-2 0-2.3 1.2-.3.6 0 2 .9 1.7.6-.9 1.6-1 2.4-1.6.2-.5-.3-1.4-1-1.3zm-5.5-2.1c-.8.3-2 .5-2.4 1.4.4.8 1.5 1.1 2.3 1.2.5-.4.5-1.3 1-1.8 0-.4-.5-.8-.9-.8zm.5 6.1c-.6.3-1 1-1.6 1.2.5.6 2 1.6 2.5.5.1-.6-.1-1.6-.9-1.7zm11.5-1c-1.2.5-2.9-.1-3.8 1.2-1 .8-.8 1 .3 1 .6.7 1.5.4 2-.2.5-.7 1.8-1 1.9-2h-.4zm-1-6.7c-.9.4-1.5 1.4-2.6 1.2-.7.5.2 1 .7 1 1 .2 2.5.7 2.8-.6 0-.6-.1-1.5-.8-1.6zm2.4-5.6c-.7.5-1.7 1.2-2 2 0 .6.6 1.1 1 .5.5-.5 1.7.1 1.8-.6-.1-.6-.2-1.6-.8-2zm-4.4-2.2c-.4.4-1.1 1.3-.8 2 .6.2.9-1 1.5-.4.2.3.9.7.9 0 .2-.4.4-1.4-.5-1.2-.5.1-.7-.2-1-.4zm-.6-4c-.6-.1-1.7.7-.9 1.1.7 0 1.8.3 2.2-.3.3-.8-.8-.7-1.3-.7zm-6.6-.1c-1 0-.7 1.3 0 1.6 1.3 1 1.7-1.9 0-1.6zm-7.8 4c-.9.5-1.8 1-3 1-.2.3-.3.7-.8.9-.5.2-.5 1.4.3 1 .8-.4 1.8-.6 2.6-.1.9.1.9-1.2 1-1.8 0-.3.3-1 0-1zm-2.3-4.7c-1.6 0-1 2 .3 1.7.5 0 1.3-.5.7-1-.2-.4-.5-.7-1-.7zm13.7-7.8c-.9.5.3 2 .8 1 0-.4-.4-1-.8-1zm-6.3 0c-1-.1-.7 1.1-.2 1.5a11 11 0 006.2 3.8c.7-.1 1.8.3 2.2-.4 0-2-2.4-2.7-4-3.2-1.3-.6-2.6-1.7-4.2-1.8zm-4 4c-1 0-2.1.8-1.4 1.8a2.5 2.5 0 003 1.4c.7 0 .8-.8 1-1.4.4-.6-.8-1-1.1-1.3-.4-.3-1-.6-1.5-.6zm-13 3.4c-1 .3 0 1.5.2 2s.8 2.1 1.5 1.3c.6-.5 2.2 0 2.2-1.1-.5-1.2-2-1.5-3.2-2l-.8-.2zm7-12.2c-.6 0-.7.9 0 .7.4.2 1.4-.2.7-.6l-.7-.1zM448 311c-1 0-2.1 1-1.4 2 .7 1.5 2.6 1.8 3.7 3l4.8 3.1c.8.3 2.4.5 2.8-.5-.4-1.2-2-1.3-2.8-1.8-2.6-1-3.9-3.6-5.8-5.4a2 2 0 00-1.3-.4zm.2-4.5c-.7-.2-1.2 1-.3 1 1 .3 1.7-1 .4-1zm5.9 2.1c-1.3.2-1.1 1.8-.6 2.6.8 1 2.3.6 3.3 1 2 .7 3.8 2 5.9 1.3 1.2-1-.5-3-1.8-2.6-1.4.4-3.2 1.5-4.4 0-.8-.7-1.3-2-2.4-2.3zm16.7-6c-1.1.6-2.3-.3-3.4-.2-.2 1.1 1 2 2 2.4 1.3.3 2.9.1 3.8-.8.2-.8-1-1.2-1.4-1.8zm-7.5 2c-1 .1-.6 1.3-.4 2-.9 0-2-1-2.9-.4 0 1 1.4 1.3 2.1 1.5 1.7 0 2.6 1.7 4 2.2.9.7 2 2.2 3.3 1.4 1-.6 2-1.8 1.1-3-1.5-2-4.3-1.7-6.1-3.4a2 2 0 00-1.1-.3zm-7.1-4.7c-1 0-1.6 1-1.1 1.8.3 1.1 2.1 2.1 3 1 .2-1.2-.5-3-2-2.8zm-6.5 2.7c-1 .2-.4 1.5 0 2 .6.7 2.1 1.8 2.9.8 0-1.5-1.4-2.8-2.9-2.8zm-9.6 4.7c-2 .7-3 3.2-2.4 5.2.8 1 1.7-.5 2.1-1.1.3-1 1.3-1.3 2.2-1 1-.1 1-1.3.3-1.7-.6-.6-1.3-1.4-2.2-1.4zm-1.3-7.2c-.4-.1-1 0-.5.6.8 1.5 1.6 3.2 3 4 .8.2 2-.3 2.2-1-1.2-1.3-2.4-2.8-4-3.6h-.7zm4.8-4.2c-1 0-1.5 1.6-.7 2.3.7 1.2 2.8 1.4 3.7.4.7-1.7-1.6-2.9-3-2.7zm16.7-8.5c-.8.3-1.8.9-2 1.7 1 1 2.8.8 4.3 1.1 1.2 0 1.2-1.8.1-2-.7-.4-1.5-.8-2.4-.8zm0 6c-.8.1-1.4 1.3-.6 1.9 1.6 1.6 3.2 3.2 5.2 4.3.4.3 1.7.2 1.2-.6a17.4 17.4 0 00-5.6-5.6.5.5 0 00-.2 0zm-6.5 1.9c-1 .3-.6 2.3.5 2.3 2 0 3.4 1.5 4.6 3 .5.4 1.4 1.4 2 .8 0-1.7-1.7-2.8-3.1-3.5-1.3-.8-2.3-1.9-3.6-2.6a1 1 0 00-.4 0zm-3.3-.4c-1.1 0-.7 1.5-.1 1.9.4.7 1.4 1 1.9.2 0-.4 0-.4.3-.4 0-1.2-1.1-1.6-2.1-1.7zm-3.7-6.2c-.9.3 0 1.5.2 2 .3 1.1 2.3.9 1.9-.3-.2-1-1.2-1.6-2-1.7zm1-3.9c-.7.2-1.5 1.4-.6 2 1.3.6 2.8 1.3 3.2 3 .3.8.9 1.9 2 2 1 .5 2 2 3.4 1.8.5-1-.4-2.3-1.4-2.6-1-.7-2.6-.4-3.4-1.3-1-1.5-1.2-3.7-2.8-4.8h-.4zm2.2-4.3c-1.2 0-.6 1.6-.1 2.1 1.5 1.8 3.3 3.8 5.8 4.2 1 0 1-1.5.4-2-1.5-2-3.3-4.5-6-4.3zm4.2-2.6c-.7-.1-1 .7-.3 1 1.5 1.2 3.4 2 5 3.3.3.4 1.5.4 1.2-.4-1.1-2.1-3.3-4.1-5.9-3.9zm-.3-8.4c-.4.6.4 1.4.3 2.1-.3 1-.2 3 1.3 2.4 1-.3 2.3.4 3.3-.1.3-1-1-1.8-1.6-2.4-1-.7-2-1.7-3.3-2zm-7 1c-1 .6-1.4 2-1.7 3 .4.8 1.6.4 2.2.8.7.6 1.4 1 2.3.9 1-.2 2.3.2 3.2-.3a9 9 0 00-3.4-3.5c-.9-.3-1.7-1-2.6-1zm7.4-10.3c-1 .5-.7 2.2-1 3.1 0 .8 0 2.3 1 2.5.9-.8 2.1-.8 3-1.5.6-1.3-1-2.3-1.6-3.2-.4-.3-.8-.9-1.4-.9zm-4.4-1c-.5.7-.2 1.9.4 2.5.2.4.9.3.7-.3-.2-.7-.3-1.9-1-2.1zm-2.6-7.8c-1.4-.1-2.4 1.7-1.3 2.6 1 .6 2.3.3 3 1.3.5.7 1.4 1.1 2 .3.8-.4.5-1.4-.2-1.9l-2.7-2.2h-.8zm-7.3 2c-.8.1.1 1 .3 1.4l7.4 11.6c.5.8 2.1 1.6 2.6.3.5-2.6-1.6-4.8-3.1-6.8a23.2 23.2 0 00-6-6.2l-1.2-.3zm3 14c-1.1.3-1.3 2.2 0 2.3.8 0 1-1.2.7-1.8-.2-.2-.4-.5-.7-.5zm1.1 9.3c-1.4.4-1 2.4 0 3 .2 0 .3.6.7.3.8 0 1.3-.7 1-1.5-.1-.8-1-1.5-1.7-1.8zm-3.7-2.8c-1 .3-.3 1.9.5 2.1.3.3 1.2.3 1-.4 0-.7-.6-1.7-1.5-1.7zm-3 8.8c-1.6.2-1.3 2.4-.7 3.4.9 1.2 2.5 1.6 3.4 2.7.5.7 1.8 1.7 2.4.6.3-1.7-1-3-1.7-4.5-.7-1.2-2-2.2-3.3-2.2zm.1 11.1c-1 .2-1.7 1-1.9 1.9-1 .8.3 2.8 1.5 2 1-.6 2.5-1.2 2.1-2.6-.1-.7-1-1.2-1.7-1.3zm-13.6 6.2c-1 1-.3 2.6-1 3.8-.5.6-.7 1.7.3 2 .9.3 2.4 1 3.1 0a3 3 0 00-.7-2.6c-.8-.3-.6-1.4-.3-2 .1-.7-.8-1-1.4-1.2zm6-1.8c-.9 0-1.4.7-1 1.5.3 1.8 1.3 3.4 2.2 5 .4.4 1.5 1.1 1.6.2.3-.9-.3-2.4.8-3 .5.2 1.7-.2 1-.9-1-.9-2.4-1.3-3.5-2.3-.3-.2-.7-.5-1.2-.5zm-1.3-5.3c-.7.4 0 1.5.3 1.9.6.5 2 1.3 2.4.2.2-1.2-1-2-2-2l-.7-.1zm.6-11.3c-1.6.3-2.9 1.5-2.8 3.1 0 2.1 1.8 3.9 3.9 4.2 2.2 1 3.6 3.7 6.2 4 .8 0 1-1 .4-1.4-.9-1.5-2.4-2.3-3.5-3.6-1.2-2.1-1.7-5-4-6.3a.6.6 0 00-.2 0zm-1-11.6c-2 0-3 2.1-2.8 3.8-.1 1.7.7 3.5 2.5 3.9 2 .5 4 1 5.8 2a6.2 6.2 0 005 1.4c.5-.5-.3-1.4-.4-2a2.4 2.4 0 00-2.7-1.5c-1.5 0-3.5 0-4-1.8-.8-1.8-.6-4.3-2.3-5.6-.3-.2-.8-.3-1.2-.2zm5.5 0c-1.4 0-1.3 1.8-1.1 2.7.2 1.2 1.2 2.7 2.6 2.2 1.5-.2 1-2.1.8-3 0-.8-.2-1.6-1-1.7-.5-.1-1-.3-1.3-.2zm2.1-13c-1.2 0-2.3.7-3.2 1.4-.1 1.4.2 3-.2 4.3-1 .8-2 2-2 3.3.7.3 1.5-.7 2.2 0 .9.8 1.8 1.7 3.1 1.4 1 .1 2.1-.4 2-1.5.2-.8-.5-1.7 0-2.4 1-.2 2.7 0 3.2-1.4 0-1.2-1.4-1.8-1.8-2.8-.8-1-1.8-2.4-3.3-2.3zm-6.6-27.6c-.7 0-1.5 1.2-.6 1.7 1 1.3 2.9 1.1 4.2 2 .9.2 1.6 1.5 2.6.7.4-.8 0-2-.4-2.8-1.6-1.2-3.7-.7-5.4-1.6a1.4 1.4 0 00-.4 0zm-4.3 7.4c-.7.2-1.3.8-1.8 1.3 1 1.4 1.3 3.1 2.2 4.5.9.6.8-1.3 1.7-1.1.8 0 2-.7 1.8-1.6a14 14 0 00-4-3zm7.7 5.3c-1.4-.1-3.2.4-3.8 1.8.6 1.8 2.8 2.2 4.3 2.8 1.7.7 3.8.7 5 2.2 1.2 1 2.6 2.3 4.2 1.8 1.3-.6 1.5-2.6.4-3.5-2-2.5-4.4-5.3-7.8-5l-2.3-.1zm-.3 8.4c-1.9.4-2.4 3.2-4.4 3.2-2.1-.5-3.8-2-5.7-2.9-1 0-2 1.3-1.1 2.2.8.9 1.5 2.4 3 2 3-.1 6.2-.3 9-1.7 1.4-.6.8-3-.8-2.8zm-16.8 5c-.6.8-2 1.6-1.6 2.7 1 1.5 2.7 2 4.3 2.2 2.4 1 4.9 2.1 7.5 2.1 1 .2 2.4.4 3-.8.3-.5 1.2-1.1 1-1.7-1.3.1-2.4.8-3.7.5-2.6-.4-4.8-1.8-6.8-3.4-.8-.4-1.4-1.2-2.4-1.3l-1.3-.2zm3.7 7.8c-1.8-.1-3.7 1.4-3.2 3.3a6.6 6.6 0 004.8 5c2.7-.3 3.7-4 2.3-6a4 4 0 00-3.9-2.3zm-.2 10.4c-1 0-2 .9-1.8 2 .1 2.6-.4 5.3.6 7.7.9 1.8 3 3.8 5 3 2.2-1.3 1.7-4.1 1.4-6.2-.3-2.8-1.9-6.4-5.2-6.5zm1.5 17c-1 0-.4 1.4-.3 2 .6 1 1.1 2 1.3 3 .7.6 1.7 0 2.5 0 .7-.2 1.7-1 1-1.7-1.2-1.3-2.3-3-4-3.4h-.5zm-6.8-1.8c-.7.4-1.6 0-2.3.2-.2 2 1 4.2 3.2 4.5 1-1 1.6-2.5 1.7-4-.5-.6-1.8-.6-2.6-.7zm-4.6-12.8c-1.2 0-2.3 1.2-1.9 2.5 0 1.6 1.2 3 2.7 3.6 1.8 1.3 3.5 3.1 5.7 3.7 1 0 .5-1.5.3-2a43 43 0 00-3-6.5 8 8 0 00-3.8-1.3zm-2.8-3.9c-1.3.1-3 1.6-2.4 3 .4.7 1.1.6 1.5 0a7 7 0 011.8-2c.4-.6-.4-1-.9-1zm1.7-9.4c-1.5.2-3 1.4-2.9 3-.2 1.3 0 2.8 1.4 3.2.9.5 2 0 2.6 1 1.4 1.5 2.8 3.2 4.7 4.2 1-.1 2-.7 2.8-1.3 0-1.6-1.4-2.8-2.3-4-.5-.8-1.4-1.3-2.1-1.8-.5-1.5-1.4-3-2.7-3.9-.4-.2-1-.4-1.5-.4zm-5.7-.4c-1 .9-2 2-2.5 3.4-.1 1.3.2 3.2 1.6 3.6.8 0 1.8-.4 2.2-1.2-.4-1.3-1.7-2.6-1-4 0-.5.2-1.5-.3-1.8zm3.6-8c-.6 0-1.5.4-1.7 1 .2 1.2 1.3 2 2.2 2.5.1 1.2-.2 2.8 1 3.4 1-.6 1.4-2 2.7-1.7.6 0 2 .1 1.7-.9-1.1-1.8-3.2-3-4.9-4.1-.3-.2-.6-.3-1-.3zm-4.6-5.7c-.7.2-1.7.6-1.8 1.3.5.6 1.4.7 2 1.3 1.6.8 3.8 2 5.4.5.5-.4 1.2-1.6.2-1.9a23 23 0 00-5.8-1.2zm8.3-12.5c-.8-.2-2 .7-1.2 1.5.9.8 2.2 1.3 3.4 1 .7-.3.8-1 .2-1.5-.5-1-1.4-1.1-2.4-1zm1.3 6.6c-.7.9-2 1.6-2.2 2.8.5 1 2 1.6 2.2 2.7-.3 1.4-.4 3.5 1.3 4 1 .1 1.1-1.5 2-1.7.4-.8.9-1.5 1.7-2 .9-.4 2.1-1 2.3-2-.6-1-1.5-1.8-1.7-2.9-.7-1.4-2.6-.7-3.8-.9H411zm8.4-3.5c-1 .2-2 1.3-1.2 2.2 1 1.4 3.4 2.5 5 1.4.1-1.2-1.2-2.1-2-2.9-.5-.4-1.2-.7-1.8-.7zm-3.4-5.1c-.6-.1-1.3.2-1.1 1 0 1.2-.6 3 .5 3.8.8.3 1-1 1.6-1.2.7-.7 2.4-1.3 2-2.6-.6-1-2-1-3-1zm3-4.4c-.5.6-1.2 1.8-.2 2.3 3.1 2 6.8 2.8 10 4.6.6.6 2.3.7 2.3-.5-1.8-1.9-4.3-3-6.6-4.3-1.8-.8-3.7-1.6-5.6-2zm2-4.8a4 4 0 00-.5 2.8c.6.7 1.7.2 2.3.8.7.2 1.3 1.1 2 1 .5-.5 1.5-1 1.5-1.8-.8-1.3-2.8-.3-3.7-1.6-.5-.4-1-1-1.5-1.2zm-7-2.3c-.8.2-2.6-.3-2.1 1 0 1.2.6 2.6 2 2.7 1 .5 2 1.5 3.3 1 .7-.2.7-.9.2-1.3-.5-.8-.3-2.4-1.6-2.7-.6-.3-1-.8-1.8-.7zm-17.4 4.4c-1.2 0-1.7 1.7-.7 2.4 1.4.9 3.1-.5 4.7 0 2.5.5 4.5 2.6 7 2.5 1.2-.5 2.6.2 3.8.4.7.2 2 .3 2.4-.5-.5-.9-1.5-1.4-2.2-2-2-.2-4 0-5.8.7-1.3.3-2.5-.8-3.7-1.2-1.8-.7-3.5-2-5.5-2.3zm3.3 4.5c-.6 0-2 .5-1.4 1.2 1.2.9 3 2 4.5 1.2 1-.7-.4-1.7-1-2a4.7 4.7 0 00-2.1-.4zm.4 5.2c-.8.2-2.4 1-1.5 2 .3.4 1 1 1.4.4.8-.4 2.3-.3 2.6-1.3-.7-.6-1.7-1-2.5-1zm4.2 4.2c-1 .2-2.5.6-3 1.6.4.5.2 1.5 1 1.7 1.3.7 3.2 1.1 4.3-.3.7-.4 1.3-1.3.5-2a4 4 0 00-2.8-1zm-8.2 2.8c-1 0-2 .6-2 1.7-.6 1.2.6 2.2.7 3.4.7.6 1.9 0 2-1 .8-1.2 1.2-3.6-.6-4zm1.2 9.5c-1.6.2-2 2.5-1 3.6.7 1 1.7 2 2.9 2.2.8-.5.4-1.7.8-2.5.2-.9 1-2.4-.1-3-.8-.3-1.7-.3-2.6-.3zm-6 2.3c-.8.3-2.2.7-2.2 1.8.9 1.2 2.7.2 3.7 1 .5.2 2 0 1.2-.7-.7-.8-1.5-2-2.6-2.1zm-3-5.5c-1 .6-2.1 1.4-2.8 2.4.6.9 2.2 1 3 .3.7-.4 1.8-1 1.6-1.8a4 4 0 00-1.7-.9zm-6.8 2.6c-1 .2-2.4-.2-3.3.4 0 1.1-1.3 1.8-1.7 2.8.7.2 1.5-.3 2.1 0 1.5 0 2.2-1.5 3.3-2 .2-.5.2-1.4-.4-1.2zm9.3-10c-2 0-3.8 1-5.7 1a19 19 0 00-10.2 0c-.9.7-1.2 2.1-1.3 3.3.4 2 2.8 3 4.8 2.7 1.7.1 3.1-.6 4.4-1.7 2.9-2 6.7-1.5 9.8-3.1.3-.4 1-1.2.7-1.7-.8-.4-1.6-.5-2.5-.4zM387 234c-1.8 0-4 .7-4.7 2.6 0 1.5 2 2 3.2 2.4 2 .5 3.8-1.3 5.9-1 1.2 0 3.5 0 3.4-1.7-1-1.4-2.7-1.7-4.3-1.9a12 12 0 00-3.5-.4zm1.3-5c-.7 0-1.3.9-.6 1.3.7.6 1.7 1.9 2.7 1.3.8-1-.6-1.9-1.3-2.4l-.8-.2zm8.8-8.8c-1.8.1-4.2.6-5.2 2.4 1.3 1.4 3.6 1.3 5.3 1.7 3.2.3 6.4 1 9.5.4 1.1-.2.8-1.6 0-2-2.3-1.8-5.5-1.9-8.3-2.5a8 8 0 00-1.3 0zm-12.4 3.7c-1.1.2-3.2-.3-3.4 1.3.2 1.5 2.2 1.6 3.3 2 1.2 0 2-1.3 2.4-2.1-.7-.6-1.3-1.4-2.3-1.2zm-10.4 1.4c-.9.2-1.2 1.3-1.6 2a9.3 9.3 0 004.2 2.6c1.4-.3 2.8-1 3.6-2-.2-1-1.6-1.1-2.3-1.5-1.1-.2-2.4 0-3.3-1a1 1 0 00-.6 0zm-8.8 4.4c-1.6.4-3 1.7-3.7 3 .6 1.4 2 2.2 3.5 2 1.5 0 3.3.5 4.6-.4.6-.6 1.4-1.5 1.3-2.4-.5-1-1.6-1.3-2.6-1.6a9 9 0 00-3.1-.6zm12.7 2.6c-2.4 0-3.4 2.4-4.7 4-2.3 2.2-5.6 1.6-8.4 1.1-2.3-.3-5.4-.2-6.6 2.2-1.1 1.8 0 4.2 1.9 5 1.7.9 3.8.8 5.7.5 3.2-1.6 5.2-5 8.5-6.5.7-.4 1.3-1 2.2-1 2-1 4-2.4 5.3-4.3.1-.7-1-.5-1.5-.7a9 9 0 00-2.4-.3zM364.5 249c-3.7-.2-7.5 2.5-8.1 6.3-.3 1.5 1.7 1.6 2.7 2 2.2.6 4.2 2.3 6.6 1.8 3.3-.5 6.8-2.3 8-5.6-.1-1.6-1.8-2.8-3.2-3.4-1.9-.8-4-1.2-6-1.1zm-.5 12.7c-1.4.1-3 0-4.4.7-1.4.3-3.4 0-4.4 1.5-1.5 1.8-3.3 3.8-3.1 6.2.6 1.7 3 1.3 4.1.5 1.7-1.3 3.2-2.9 5.2-4 1.7-1.3 4-2.3 5-4.4-.7-.5-1.6-.6-2.4-.5zm-16.3 9.9c-1.4 0-3.2 1.6-2.4 3 .7.8 1.7-.4 2-1 .1-.7 1.7-1.1 1.1-2h-.7zm-14.6 5.3c-1 1-2 2.3-2.6 3.7-.1 1.3.4 3.1 1.8 3.4.9 0 1.7-.6 2.2-1.3-.7-1.3-1.8-2.6-1.1-4.1 0-.4.3-1.5-.3-1.7zm5.1-1c-1.3.4-1.4 2.5-.4 3.3.7.5 1.3 1.7 2.2 1.4.7-1.1.9-2.6 1-3.9-.4-1-2-.7-2.8-.8zm14.6-19.5c-1 .4-1.8 1.3-2.8 1.7a36.6 36.6 0 00-6.3 4.4c-1.3.6-2.7.8-4 1.4a6.8 6.8 0 00-5.4 7.8c.8 2 3.7 1.9 5.1.7 1.6-1 2.5-2.6 3.8-3.9 3-1.9 6.3-3.6 8.9-6a4 4 0 002-3.5c0-.8 1-2.3-.4-2.4l-.9-.2zm-.5-11.4c-2.2.1-4 1.6-5.2 3.2-1.7 2-3.6 4.2-3.6 7 .2 1.6 2.3 1.6 3.5 1.3 3.5-.8 6.5-3.1 8.7-5.9.8-1.4.5-3.4-.5-4.6-1-.2-1.8-1.1-3-1zm2.1-14.7c-2.5 0-3.9 2.6-5.8 4-2.2 1.6-5.3 2.4-6.5 5.2-.4 1-1.6 1.7-2 2.7.4 2.7.3 5.6.9 8.2.5.5.9-.7 1.2-.9 2.7-4 6.8-6.6 10.1-10 2-2.2 4.6-4 6-6.7.6-1.5-1.3-2.3-2.5-2.4a6.5 6.5 0 00-1.4-.1zm-21.9 4.2c-1.6 1.1-.4 3.3-.5 5 .2 1.6-.3 4 1.5 4.9 1.1.5 2-.6 2.2-1.5.4-.9.9-2 2-2 2.1-1.4 3.2-4 4.3-6.2.6-1-.4-2-1.4-1.9a7 7 0 00-.7 0c-2.5.3-5.1.4-7.4 1.7zm4.7 16.8c-2.7.6-5 2.4-6.8 4.4a3 3 0 00.5 4.4c1.7 1.2 3.9 1.8 5.9 2.3a6.7 6.7 0 004.2-3.5c.6-1.7-1.1-2.8-1.4-4.3-.4-.8 0-2-.7-2.6-.6-.3-1.1-.7-1.7-.7zm-8.6 16.7c-2.1.2-4.4.2-6.2 1.5-1.4 1.5-.3 3.5-.1 5.2 0 1.5-.5 3.7 1.3 4.6.8.5 1.7-.1 2-1 .5-.9.8-2.5 2.1-2.4 1.3-.8 1.2-2.6 1.8-3.8.2-1.2 1-2.4.8-3.6-.4-.6-1.2-.5-1.7-.5zm-4.5 13.2c-1.4 0-1.9 1.8-1.9 3 .3 2 2.2 3.6 4 4.4 1.3-.1 1-1.8 1.2-2.6.2-1.3 1.2-2.6.8-4-.9-1-2.5-.5-3.7-.8h-.4zm-2.6 5.4c-1.4-.1-2.8 1.2-2.8 2.5.2 1.1 1.7 1 2 0 .4-.8 1.8-1.3 1.6-2.3-.1-.2-.5-.2-.8-.2zm-2.1 5.3c-1.4.4-1.7 2.7-3.4 2.5-.6 0-1.9.3-1.7 1 1.5.6 3.4 1.2 4.9.2.3-.1.1-.5.5-.3.1-.6.9 0 1-.6 1-1.1-.1-2.6-1.3-2.8zm-25.8 28.9c-.9.4-2 .3-2.8.8-.2.7-.2 1.6.5 2-.2 1.2-1.9 2.1-1.3 3.6.2 1 1 0 1.6-.2.9-.5 2.4.2 2.8-1.1 1-1.4.2-3.2-.2-4.7 0-.2-.3-.4-.6-.4zm-2.4-9.7c-2 .3-3.6 1.7-5.3 2.6-.3.7-.1 1.5-.1 2.2 1-.2 2.4-.1 2.9 1 .5.8 1.2 1.6 2.3 1.3.7 0 1.4-.5 1-1.2-.3-.6-1-1.4 0-1.6 1.3-.2 2.7-2 1-2.6-.6-.2-1.5.1-1.3-.8 0-.3 0-1-.5-1zm-3.1-6.7c-1.4.6-2.2 2.3-2.5 3.8-.2.7-.3 2.1.6 2.4a9 9 0 003.2-5c.5-1.3-.4-1-1.3-1.2zm11.6-8c-1.2.4-2.5 1.5-2.6 2.8.2.6 1 0 1.2.6 1 2.3-1.2 4.3-1.7 6.5-.2.6-.8 1.6-.3 2a9 9 0 003.7-7.3 8 8 0 00.1-4.5.5.5 0 00-.4-.1zm5-9.4c-1 .5-1.6 1.6-1.4 2.8.4 1.5-1.5 2.2-1.2 3.6.5.7 1.5-.3 2.2-.3 1-.1 2.7-.9 2.3-2.2-.3-1.2.2-2.7-1.1-3.4-.3-.2-.5-.5-.8-.5zm-12 5.6a5.6 5.6 0 00-4.9 4.7v4c1.4.1 3-.2 3.8-1.4 1.3-1.1 2-2.7 3-4.1-.5-1.1-1-2.3-1.8-3.2h-.1zm-.5-9.3c-2 .4-3 2.6-3.7 4.3-.4.8.2 1.9 1.1 1.6 1.8-.6 2.9-2.5 3.6-4.2.3-.6-.2-1.7-1-1.7zm8.6-7.7l-1.7 1.1c-.9.8-2.1 1.5-2.4 2.6.6.8 1.5 1.6 1.1 2.6-.5 2.2-2.2 4.1-2.2 6.4.2.6 1.2.1 1 1 .1 1.3-.3 2.7.3 4 .8.5 1.8-.1 2-1 .6-1.4 2.3-3 1.2-4.6-.4-1-1-2-2.2-1.9-1 0-.8-1-.4-1.5 1.1-2.8 2.9-5.4 4-8.2.1-.3-.4-.5-.7-.5zm11.5 6.4c-1 .4-2.3.7-3 1.5.2.8.1 1.6.3 2.3.6 0 1.7-.2 2-.9 0-.8 1.1-1.3 1-2.3.1-.3 0-.7-.3-.6zm3.4-10c-.5.1-.7.9-1.4 1-1.4.2-.7 1.9-1 3 0 .8-1 1.8-.1 2.5.3.7 1.4 1 1.5 0 .5-1 .4-2.2.7-3.4.4-.9 1.9-1.9 1-2.9a1 1 0 00-.7-.3zm-6.8-.3c-3.2.2-4.9 3.6-5 6.5-.2 1.4 0 3.4 1.4 4 2-.8 3.4-3 3.8-5l1-4.4c0-.6-.6-1.2-1.2-1.1zm-2.2-5.2c-2.4 1-3.9 3.5-4.8 5.8.5.8 1.7 0 2.2-.4 1.7-1.2 3.3-3.2 3-5.3l-.4-.1zm-1.3-10.6c-2.5.7-4.3 3-6 4.8-.4.7-1.4 1.5-1.1 2.3 2.3.6 4-1.5 5.5-3 1-1 2.2-2.1 3-3.4-.4-.3-.8-.7-1.4-.7zm11.4-1.1c-1.4.2-2.2 1.4-3.4 2-1.3.8-2.6 2.3-1.7 3.9.6 1.2 1.6 2.8.5 4-.6.6-1.5 1.6-.7 2.5.7.7 1.4 1.6 2.4 1.8 1.4-.8 2-2.5 3.3-3.5a10 10 0 001-7.1 6.2 6.2 0 01-.6-3.7c-.2-.1-.6 0-.8 0zm4.5-10.6c-.6.5-1.2.6-1.8.8-.5.8-.8 2.1 0 2.9.4.1.9.6.5 1.1-.4.7-1.1 1.9 0 2.2 1 .4 1.7-.6 1.6-1.6.1-1.1 2-1.1 1.9-2.3l-2.1-3a.1.1 0 00-.1 0zm2-10.7c-1 .2-.5 1.7-.8 2.4-.1 1.4-1.2 2.5-1.2 3.8.8.5 2 .1 3 .1.7-.2.2-1.2.5-1.7.6-1.5.4-3.5-.9-4.4a1.2 1.2 0 00-.6-.2zm-5.4-6.9c-1.8 1-4.5 1.6-5.2 3.9.3.8 1.5.2 2.2.3 2.2-.5 4.6-.2 6.7-1 .6-.8-.7-1.5-1-2.1-.7-.7-1.3-2.3-2.4-1.2l-.2.1zm-.8 7.6c-2 .6-3.4 2.2-5.4 2.4-2.2.5-4.3 2-5.4 4 .4 2 1.2 4.5 0 6.6a8.3 8.3 0 00-.6 6.2c.8 1.3 2.6.5 3.7 0 1.5-1 3.3-1.6 4.5-2.9 0-.5-.6-.9-.3-1.5.5-2.3 3-3.4 3.3-5.9a12 12 0 011.3-5.2c.5-1.1 1-2.8-.4-3.5l-.7-.2zm-19 10.4c-4.3 0-7.9 3.5-9.4 7.3-.4 1-.1 3 1.4 2.9a10 10 0 006.1-1.9c1.6-.7 3-1.7 4-3.1.7-.8 1.2-1.9 1.3-3-.3-1.6-2-2.3-3.4-2.2zm.6 12c-4.5.4-8.4 3.3-11.3 6.5-.8 1-2 2.7-.7 3.7 1.5 1 3.6 1.9 4 3.9-.3 1.2 1 2.3 2 2.8s2.4.4 3-.8c.7-1.3 2.1-2.6 2-4.3-.4-1-1.8-.4-2.6-.6-.7 0-2.1.3-1.9-.9.5-2.1 2.6-3.4 3.8-5 1.3-1.4 2.7-2.8 3.4-4.6 0-.8-1.2-.8-1.7-.8zM287.8 275c-2.3.5-3.8 2.7-5 4.6-1 1.4-.2 3 0 4.4.1.9-.6 2 0 2.7 1.7.7 2.8-1.1 3.6-2.3 1-1.7 1.7-3.5 2.7-5.2.6-1.2.7-3.3-.6-4.1l-.7-.1zm-6.5 19.8c-1.3 0-2.2 1.2-3.2 2-.3 1-.7 2.9.7 3.4 1.3.2 2.8.4 4-.1.9-.7 2-1.4 1.8-2.6.3-1-.3-2.3-1.5-2.5l-1.8-.2zm-2.8 9c-1.4.2-1.6 2-2 3.1-.3 1.2 0 2.5 1.2 3 1 .3 1.6-1.1 2-1.8.4-1 1.8-2 .7-3-.4-.6-1-1.4-1.9-1.3zm2.9 9.6c-1.3.5-.6 2-.5 3 .7-.5 2-1.9 1-2.7-.2-.1-.3-.3-.5-.3zm1.8 5c-.8.5-1.8 1.8-1.1 2.7.8 1-.6 2-.4 3.1-.2 1.2-1.5 2.8-.2 3.8a4 4 0 003 0 5.2 5.2 0 001.4-4.3c-.1-1.1.2-2.6-.3-3.6-.8-.1-1.4 1-2 1-.3-.8.4-2.2-.4-2.6zm5.6 14c-.9.2-2.5.1-2.7 1.3.3 1 1.3 1.7 2 2.3.2-1 1-1.9 1.6-2.7 0-.5-.3-1-.9-1zm-4 8c-1.7.4-.6 3.3-2.4 3.7-.8-.2-.7.7-.2 1 .3.9 1.4 1.1 1.9.3.9-1.1 2-2.3 2.1-3.8 0-.6-.7-1.2-1.3-1.2zm-3.7-4c-.8.3-1.4 1.3-.7 2 .5.3 1-.8 1-1.2.1-.3 0-.8-.3-.8zm-3.4-6.2c-1.4.6-1.9 2.4-2.2 3.8-.2 1.1-.6 3 .9 3.4 1.5-.2 2.4-1.8 2.2-3.3-.2-1.1.5-2.3 0-3.4-.2-.2-.5-.5-.9-.5zm-23.6 20.5c-.7.2-.4 1.4.3 1.5.6.7 3 .2 2.1-1-.7-.3-1.6-.4-2.4-.5zm10.3-8.1c-1.3.7-2.7 1.4-4.3 1.7-1 0-1.9 1-1.5 2 1.7.3 3.5 0 5-.4 1-.5 2.5-1.6 1.6-2.7-.2-.3-.4-.6-.8-.6zm4.7 5.5c-.9 0-1.6 1.9-.4 1.9 1 .1 2-1 1-1.8a.8.8 0 00-.6-.1zm3-5c-.8.3-.2 1.6 0 2.3.3.7 1 0 1-.5 0-.7 0-1.9-1-1.9zm-1.4-6.3c-1 .1-1.2 2-.3 2.2.9-.2 1.5-1.1.8-1.8 0-.2-.2-.4-.5-.4zm-6-1.2c-.7.3 0 1.4-.2 2 .2 1.2 1.6 2.5 2.8 2.2 1-.7-.6-1.4-.8-2 .2-.5.6-1-.2-1.3-.4-.4-1-.9-1.6-.9zm6.8-8.4c-1.4.3-2.2 2-1.9 3.3.4 1.1 1.6 2.1 2.8 1.3 1-.7.8-2.3.6-3.4-.3-.6-.8-1.2-1.5-1.2zm-5.5-.5c-1.1.3-1 2 0 2.3 1.2.6 1.6-1.3.9-2a1 1 0 00-.9-.3zm11-14a3.4 3.4 0 00-2.6 2.4c.5 2.6 0 5.5.9 8.1.2 1 1.4 1.2 2.1.5 1-.5 1.5-1.7.8-2.7-.8-1-2.7-1.7-2.2-3.4.5-1.5 1.8-2.7 2.1-4.3-.2-.3-.7-.6-1.1-.5zm-7.5-1.5c-1-.2-2 .3-2 1.4 0 2-.1 3.9-.9 5.7-.2 1.2-1 2.6 0 3.7.3.7 1.3 1.9 2 .7.5-2-.2-4.4.8-6.5.4-1.3 1.4-2.2 2-3.4.4-.7 0-1.9-.9-1.6a35.1 35.1 0 00-1 0zm-2.7-4.8c-.5 0-1.7.2-1.3.9.6.1 2.2.2 1.9-.8l-.6-.1zm3.7-6.5c-.8.3-.6 1.5-.8 2.2-.1 1.1-.2 3 1 3.5 1 0 3 0 2.8-1.5a9.2 9.2 0 00-1.4-3.9c-.5-.2-1-.3-1.6-.3zm-6.2-5c-1.7 0-1.9 2-1 3.2.5 1 .5 3 2 3 1.4-.5 2.4-2.1 1.5-3.3-.6-1-1-3-2.5-3zm10.7-3.7c-2 0-3.4 1.5-4.6 2.7-.6.7 0 2 1 1.7 2 .2 4.3-.5 5.5-2.3.5-.8-.5-2.8-1.7-2.2h-.2zm-9-7.5c-1 .6-1.6 2-1.6 3 .3 1.3 1.1 3 2.6 2.5.9-.6 1.2-1.7 1.5-2.7a5 5 0 00-2.5-2.8zm14.7-12c-3.6 0-7.4 1.8-9 5-.8 1.4-.3 3 .8 4 1.9 2.4.2 5.7 1.2 8.4.4 1 1.4 1.4 2.4 1.2 1.5 0 1.4-2 1.5-3 .3-1.6 0-3.4.1-5 1.5-3.6 4.6-6.4 5-10.4 0-.5-1.5 0-2-.2zm-19.3 1.1c-.7.3-.6 1.4-.7 2 0 1 .3 2.3 1.5 2.4.8.2 2.5.1 2.1-1.1a5.3 5.3 0 00-2.8-3.3zm20.9-17.5c-2.6.2-4.4 2.2-6.6 3.4-3 2.2-6.8 3.9-8.8 7.3-.8 1.5-2 3.4-1.1 5 1.4 2 4.3 1.7 6.2.7a26.8 26.8 0 0012.7-12.6c.7-1.3.5-3.3-1.2-3.7-.4-.1-.8-.2-1.2-.1zm-12.6-5.6c-3 .3-5.8 2.4-6.4 5.4-.4 1.7-1.6 3-1.8 4.8-.6 2-1.8 4.4-.8 6.5.3.6 1 .9 1.4.1 2.7-2.4 5.1-5.2 7.4-8 .3-1.2 1.7-1.6 2.4-2.5 1.2-.9 2-2.3 1.4-3.8-.4-1.4-1.7-2.7-3.4-2.5h-.2zM288 240c-3.3.2-6.4 2-8.8 4.1-.8 1 .4 2 1.3 2.2.8.3-.4 1.2-.4 1.8-.6 1.5-1.6 3.1-1.5 4.8 1.3.5 2.8.4 4.1.9 2.2-.8 3.5-2.8 4.5-4.8.5-.7 1-1.7.4-2.5.2-.7 1-1 1.2-1.8.6-1.2 1.5-2.3 1.5-3.6-.4-.8-1.4-1.1-2.3-1zm8.7-12.4c-2 .4-3 2.6-4.7 3.4-1.2.4-.5 2-.8 2.8-.4.8-2 1.6-1.4 2.7 1.5.4 2.8-1.1 3.8-2.1.8-1.2 1.2-2.7 2.4-3.7.5-.8 1.7-2 1.2-3l-.5-.1zm9.3-3c-2.6.6-4.3 3-5.9 4.9-2.2 3.5-4 7.3-6 11-.6 1.3-.4 3.7 1.5 3.7 3-1 5.3-3.7 7.8-5.7 2-1.7 4.4-3.2 5.4-5.7 1.2-1.7 1.4-4 .5-5.8a3.7 3.7 0 00-3.3-2.3zm-83.6 36.6c.4.3 1.1-1.4.8-1.6 0 0-1 1.4-.8 1.6zm4.8 1.2c-1.3.4-1 2.2-.7 3.3.2.6.9 1 1.5.5 1.4-.9 1.3-3.8-.8-3.8zm-6.4.9c-.6.1-1.8.7-1 1.4.4.9 1.4 1.4 2.3.7.6-.3 1-1.3.1-1.5-.4-.3-.9-.6-1.4-.6zm6.3 6.8c-1 .1-3 .5-2.6 2 .7.8 2 1 3 .2.9-.4 1.1-1.6.1-2a1 1 0 00-.5-.2zm4.6 4.2c-.8 0-1.8.6-2.1 1.4-1.7.2-3.6.5-4.9 1.8.2.6 1.3.4 1.7.6 2.1.6 4.3-.7 5-2.7 0-.5 1.3-.6.7-1l-.4-.1zm-6.6 7.6c-1.8.3-3.6.6-5.4.7-1.4.3-2.2 2.3-1.2 3.4.5 1.3 2.1 1 3 .3 1.2-1.4 3.2-2 4.1-3.6.3-.4 0-.9-.5-.8zm-18-9.3c-.8 0-1.5.5-.7 1.2 2 3 5.3 4.8 8.7 6 .8.2 2.3 1 2.6-.3.5-1.3-1.3-1.6-2-2.1a76.4 76.4 0 01-8.7-4.8zm4.7-2.7c-.9.3 0 1.5.4 2 1.5 1.5 3.9 1.7 5.9 2.5 2.2.6 4.6.8 6.8.1.8-.6-.3-1.4-1-1.6-1-.5-2.1-.5-3 .2-2.2.3-4.7-.1-6.4-1.8-.8-.6-1.6-1.3-2.7-1.4zm3.8-2.5c-1.6.2-1.5 2.6-.3 3.2.7.6 1.7.9 2.4.2.5-.2 1.1-.6.6-1.2-.5-1-1.5-2.1-2.7-2.2zm-.5-5.2c-.5 0-1 1-.2 1 .2-.2 1-1 .2-1zm-1.9-4c-1.2 0-2.5 1-2 2.3.9 1.2 2.5.2 3.5-.3.8-.3 2-.7 2.6.3.4.5 1 1.8 1.7 1a2 2 0 00.5-2.6c-2 .2-3.8-.1-5.7-.6a4.8 4.8 0 00-.6 0zm15.3-2.7c-1.2.4-.5 2-.2 2.7.3 1 1.3 2.5 2.4 1.7 1-.7 1.3-2.1.5-3a6.4 6.4 0 00-2.7-1.4zm3-6c-1.3 0-1.5 2.7 0 2.3 1.2.3 1.3-1.3 1.3-2.1-.4-.2-.9-.2-1.3-.2zm-12.3 2.9c-.7 0-1.9.3-1.8 1 1.3 1.4 3.8.9 4.7 2.8.2.7.6 1.4 1.4 1.4.5.5.2 1.8 1 2 1-.2 1.8-1.9.8-2.5-.3-.1-1.6-.1-1-.7.3-.5 1.2-1.5.5-2-1 .1-2-.7-3-1-.8-.4-1.6-1.2-2.6-1zM215 249c-.7 0-1.5.6-1 1.3.4.9 1.6.2 2-.2 0-.5-.5-1.1-1-1.1zm-4.7 2.3c-.8 0-1.8.4-1.8 1.3-.7.9.6 1.8 1.4 2 1.2.8 3.3-.5 2.5-2a2 2 0 00-2.1-1.3zm-5 9.6c-1.2.2-2.2 1.4-2.6 2.4.5 1.8 2.4 2.5 4 2.8 1.2.1 2 1.8 3.2 1 .7-.3.2-1.4.4-2 .8.4 2.5.8 2.7-.4-.8-1-2.5 0-3.4-1-.7-.8-1.7-1-2.4-1.7-.1-.8-1.3-1.1-2-1zm-6.2-3c-1 .2.3 2 .7 1 .2-.5 0-1-.7-1zm-.4-4.8c-1 0-1.6 1-.9 1.8 1.2 2.1 4 2 5.7 3.4l1.7.7c.7.3 2.1-.1 1.6-1.1-1.5-2.4-4.3-3.8-7-4.7l-1.1-.1zm4.5-5.3c-1.4.2-.5 2.5.7 2.3.7-.1 1.2-.9.6-1.5-.3-.5-.7-.9-1.3-.8zm-6.2.7c-.5 0-2 0-1.8.9.6.7 1.8.6 2.5.3.6-.6.1-1.4-.7-1.2zm5.6-6.1c-1 0-.8 1.6.1 1.4.8.2 1.5-.7.7-1.2-.2-.2-.5-.2-.8-.2zm80.2-21.8c-1.2.6-2.3 2.1-2.2 3.5.2.7 1 1.6 1.7 1.5.9-1.1.6-2.7.7-4 0-.3.2-1-.2-1zm4.8-4.4c-1 .4-.7 1.9-1.2 2.7-.4 1.5-1 3.4-.2 4.9.6.6 2 .7 2-.4.6-2 1.2-4.5.3-6.5-.2-.3-.5-.7-1-.7zm11.8-.2c-1.2.5-1.8 2-2.5 3-.6 1.2-1.7 2.3-2 3.5.2.6 1 2 1.8 1.1 1.1-1.2 2.5-2 3.8-3 1.3-1.3.3-3.5-1-4.5a.5.5 0 00-.1 0zm-.5-7.2c-1.3-.1-2.7.8-2.7 2.2-.1 1.3-.4 3 .6 4 1-.5 1.2-1.9 2.3-2.2 1.2-.6 2-2.4.9-3.5a1 1 0 00-1-.5zm7.2 2.3c-3 .3-5 4.3-3.4 6.8 1.2 1.6 4 1.3 4.4 3.5.3 1 .7 2.6 2 2.7 1.7-.9 1.7-3.3 1.5-5a17 17 0 01-.9-4.5c-.2-1.9-1.6-3.7-3.6-3.5zm-.5-10c-1.7 0-3.4-.2-5 .4-1.2 1-.3 2.8.1 4 .8 2.1 2.5 4.4 4.9 4.2 1.9-.8 2.1-3.2 2-5-.1-1.2.2-3-1-3.6h-1zm-12.2.7c-1 0-1.1 1.2-.7 1.9.3 1.5 1.9 2.3 3.4 2.3.4-.1 1.4.3 1.6-.2-1-1.3-1.7-3-3-3.8a4 4 0 00-1.3-.2zm-10.7 2c-.8.1-.2 1.4-.2 2l1.3 4.4c1.3-.1 3-.5 3.8-1.6.3-2.5-2.6-4.7-4.9-4.9zm-9.5-.2c-.8.4-.1 1.7.4 2.2.5.5 2 .3 1.5-.7a3 3 0 00-1.9-1.5zm8-5.2c-.5.5-.6 1.7-.4 2.4.7.4 1.8-.4 1.2-1.2-.2-.4-.3-1-.8-1.2zm10.6-5.7c-1.2-.1-1 1.5-1 2.3-.2 1 0 2 1.3 2.2.5.2 1.6.4 1.4-.5-.2-1.3 1.1-2.6.5-3.8-.7-.3-1.5-.1-2.2-.2zm8.4-2.8c-2.3.2-2.7 3-2.7 4.8 0 1.7.1 3.8 1.6 5 1.4.3 2.2-1.6 3.6-1.3.9 0 2.7-.5 2.1-1.7-.5-2.4-.7-5.4-3.2-6.6-.5-.2-1-.3-1.4-.2zm-4.2-14.8c-.7.4-.3 1.5-.5 2.2 0 3.6-.6 7.3.5 10.8.4.7 1-.5 1.6-.5 2.1-.7 4.8-.2 6.6-1.7.7-1.2-.9-2.1-1.4-3a51.4 51.4 0 01-6.2-7.4c-.2-.2-.4-.4-.6-.4zm-9.8 3.8c-1.3.5-.3 2.3-1.2 3.2-.5.6-1 1.8 0 2.1.8.6 1.7-.1 1.8-1 .4-1.2 1-2.2 1.8-3.2-.8-.5-1.4-2.2-2.4-1.1zm-1.6-6.4c-.6.2-.3 1.1-.8 1.5-.4.6 0 1.4.7 1.3.8-.1 2 .3 2.4-.4-.3-1-1.3-2.2-2.3-2.4zm-5.3 4.7c-1.9.5-2.7 2.6-3.3 4.2-.4 1 .6 1.7 1.3 2.2.6.4 1.7 1.6 2.3.7.2-1.3.7-2.4 1.6-3.4 1-1 .7-2.8-.7-3.3-.4-.2-.8-.4-1.2-.4zm-10.2 6c0 1.2-.3 2.4-1 3.4-.3.6-.5 2 .6 1.8 1 0 1.8-.7 1.8-1.7.6-.9 2.5-1.3 2-2.6-.7-1.1-2.3-1-3.4-.9zm2.9-7.5c-1 0-.5 1.3-1.4 1.6-.6.4-1.8.2-1.6 1.2.2 1.2 1.3 2.6 2.6 2.4 1.1-.6 1.4-2.2 2.3-3 .7-1.2-1-2.2-2-2.2zm-4.4-3.8a7 7 0 00-2.3 2.2c.4 1.2 2.2 2.5 3.3 1.3 1-.6.3-2.4-.9-2.2-.6 0-.1-.3 0-.5s.2-.7-.1-.8zm4.3-4.3c-.8.2-.3 1.3-1 1.5-.7.3-1.7 1.4-1 2 .8 0 1.6-.6 2.3.1.9.6 1-.8 1-1.3 0-1-.2-2.2-1.3-2.3zm6.2 2c-1.3.6.2 2.5-1 3.3-.6.5-.8 2.3.4 2 .9-.4 1.7-1.5 2.7-.8.7.7 1.8 0 1.5-1-.8-1.2-2-2-2.9-3.1a1 1 0 00-.7-.3zm3.4-4c-.7.4-1.4 1.5-1 2.4.7.2 1.9.3 2.3-.4.2-.8-.6-1.8-1.3-2zm-6.5-2c-.9 0 0 .9-.1 1.3-.4 1.5.9 1 1.8.8.5-.1 1.9-.3 1.4-1-.9-.7-2-1.1-3-1zm2.9-3c-.7-.2-1 .5-.3.7.8.3 1.8 1.1 2.7.9.7-1.4-1.5-1.7-2.4-1.7zm20.9-5.3c-4 2.2-8.6 1.4-12.9 1.6-1.2 0-2.6-.2-3.8 0 1.9 1.8 3.5 3.8 4.7 6 1.1 1.3 3.2.8 4.7.6a12 12 0 008.1-5.3c.8-1.2 1.6-2.7 1.5-4.1z"/><path d="M260.6 169.3a33.3 33.3 0 014.4 19.5c2.6-5.8.2-16.3-3.4-20.6-1.4-2-2.3-.4-1 1.1zm-37.3-8.7a6.5 6.5 0 002.9-3.5c1.3-1.4 3.4-2.4 4-4.3-1.3-.6-2.6-1.3-3.3-2.5-5.2 1-8 5.4-3.6 10.3z"/><path fill="#fed6a5" stroke="#000" stroke-linecap="round" stroke-miterlimit="8" stroke-width="1.5" d="M325.3 51.8c-.3 4-.7 8-1.3 12.1-5.2 3.2-9.6 15.4-11 22.8.2 5.6-.6 11.3.7 16.8 1 3.3 0 11.6 4.2 9.8a8 8 0 004.1-1.3c.7 3.8 1.3 7.6 2.6 11.1-.4 2.8-.8 5.6 1 9-.7 6.7 2.8 12.5 8 8.6.4 3 2 5.3 4.9 5.3 3.3 0 4-2.9 4-5.7.7 1 1.8 1.6 3.3 1.6 3.8-.1 3.8-4.5 4.3-7a3 3 0 002.9 2c3.7 0 4.7-3.6 4.7-9.9 1.3-3.4 1.3-7 1-10.8 1.4-4.8 1.2-9.7 1.3-14.5 4.6-16 1-34.3-2.4-38l-.5-11.9z"/><path fill="#fac185" d="M326 52.6c-.3 3.8-.6 7.6-1.3 11.4v.4l-.3.2a22.5 22.5 0 00-6.6 9.4 62.5 62.5 0 00-4 12.8c0 4.2-.3 8.4 0 12.4 3.1-3.7 2.3-10.5 3.5-15.9a27.5 27.5 0 017.8-14.4c4-3.7 9.3-3.2 15-.6-2.4-4.4-6-6.2-10.4-5.8l.5-.2 3-9.7zm30.8 9.3l-9.3.1a35 35 0 0110.6 31.3c-.3 3-1 6.5 1.2 8.2a63 63 0 000-32.3c-.7-2.4-1.6-4.2-2.2-5l-.2-.2zM337 84.2c-4.8 1.8-9.9 4.6-10.4.3-3.3 5.7-3.7 13-2.4 21 3.4-1.8 4.2-6.3 5-10.7.5-2.4 12.4-7.8 7.8-10.6zm-22 19.2h-.4c.5 2 .5 4.7.8 6.8.2 1 .5 2 .8 2.3l.5.3 1-.2h.5c.7-4.2 1.3-9.1-3.2-9.2zm37.2.8l-1.6.5-.7 28 1 2c.3.7.7 1.3 1.6 1.4a17 17 0 00-.5-6.4c1-3.6.5-7 .1-10.6 1.2-5 1-10 0-15zm-21.6 1c-.4 5.6-.9 11 .3 16.4 0 3.5.1 7 .8 10.2 0 3-.2 6.2.6 8.9a7.1 7.1 0 001-.6l.7-.5-1.4-33.7zm13.7.2l-4.2.5c.6 5.8.5 11.3 0 16.8.3 3.5.6 7-.2 10.3a23 23 0 01-1 12.2c1.2 0 1.8-.5 2.2-1.4.5-.8.7-2.1.8-3.5V138l1.4 2c.3.4.7.8 1.3 1 .3-2.5.5-6-.6-9 1-3.8.8-7.4.2-11a40 40 0 00.1-15.6z"/><g fill="none" stroke="#000" stroke-linecap="round" stroke-miterlimit="8"><path stroke-width="1.1" d="M340.3 68.2c-3.7-6.6-9.6-6.8-16.3-4.3m2.3 20.7l-1.7 4.5-1 5.8c-.7 5.8 2.5 11.6-1.2 16.5m10.4-5.3c-.3 5.2-.7 10.2.7 15.4-.7 3-.7 6.3.4 10.3-.4 2.8-.2 5.6-.1 8.4m8.1-34c.7 5 1.4 9.8 0 15 .6 3 .8 6.5-.1 10.9.5 2.5.6 4.9.5 7.3m8-34.5a55 55 0 01-.1 13.4c.6 3.4.1 6.7-.4 10 .3 2 .2 3.8 0 5.7"/><path stroke-width=".9" d="M330.3 105.2c1.8 1.1 3.6.8 5.3.2m3.2 0c1.6.6 3.1 1 5.6-.2m3.2-.5c1.3.3 2.5.5 5-1m-28.3-20c1.3.7 2.7 1.2 4.2.4m25-18.9c2 2.6 3 5.5 3.2 8.5m-21 20.7c3.6-1 5.3-4.7 7.8-7 2.4-2 6.1-3.3 7.3-6m.8 5c-1.1 2.4-3 3.3-4.9 4.8-1.6 1.4-2.5 3.2-5.2 4m-10-25.9c-2.9.4-5.7 1.3-7.7 5m14 9.3c-4.6 5.7-6.3 6.3-13.3 6.3m33.3 12.4c1 0 1.6-.2 2.2-.7m-4.5 26.7a4 4 0 002.1-1.6m-1.4-8.8a4 4 0 002.2-1.6m-10.3 3.4c1-.2 1.5-.8 2-1.4m-2.4 11.5a4 4 0 002-1.4m-10 5a4 4 0 002.1-1.6M336 133c-.8-.4-1.7-.7-2.1-1.2m-5.8 1.4c-.9-.4-1.8-.7-2.3-1.9m.9-7.4c-.8-.4-1.6-.5-2.1-1.3m10.8 0c-.7-.3-1.4-.7-1.8-1.2m6.3 1.5a3 3 0 002-1.5m-19.7-26.6c1-.4 1.3 0 1.3 0m-9.4 8.8c5.6-1.2 4.8 6.4 3.8 9.4"/></g><g fill="#fff" stroke="#adc7d6" stroke-linecap="round" stroke-miterlimit="8" transform="scale(.2181)"><circle cx="1383" cy="140.8" r="129.8" stroke-width="10"/><circle cx="1615.5" cy="98" r="181" stroke-width="11"/><circle cx="1499" cy="-97.5" r="240.5" stroke-width="11"/><circle cx="1218.3" cy="24.8" r="175" stroke-width="11"/><circle cx="1032.3" cy="-67.5" r="156.5" stroke-width="10"/><circle cx="1799.4" cy="89.4" r="135.9" stroke-width="10"/><circle cx="1966" cy="-17" r="175.5" stroke-width="11"/><circle cx="2119.3" cy="-50.3" r="131.3" stroke-width="10"/></g><path fill="#fff" stroke="#adc7d6" stroke-linecap="round" stroke-miterlimit="8" stroke-width="1.1" d="M222.1 12c-6.8-1.5-13.5-4-20.2-12.7M217.1 2c-2.3-.7-4.2-1.5-5.3-2.8M255 13a8.7 8.7 0 01-4.3-4.2m5.5 14.2a16.4 16.4 0 01-10.9-9.5m16.5 21.4a32 32 0 01-23-17.8M311 1c-2.3 0-4.4-.5-6.4-2.1M315 10.7c-4.4 0-7.7-2.3-10.7-5.3m19.5 16.5a33 33 0 01-20.7-6.6m-6 15.3l-1.2-1m-3.3 10.1c-1.3-.8-2.4-2-3.3-3.5m.1 13c-3.4-2-6-5-8-8.5M295.7 52a32 32 0 0024.6-6.5M304 43.4c4.2.1 8.3-.8 12.1-4.7m-7.5-3.4c2 0 3.7-1.1 5.2-2.5M339 50.5a32.4 32.4 0 01-17-19m16.4 8.6c-3-2-5.8-4.4-7-8.7m9.5.2l-1.6-1.4M345 8.5c4.4-1.6 7.4-3.6 10-9.3M343.8 18c9.8-3.2 17-9.9 21-18.7m-4 37.3a9 9 0 005.6-2.8m-10.2 10.9c5.8.3 10-2 13.3-5.8m16.3 3.7c9.7 1 22.3-3.9 27-11.2m-19.5 2.8c5.5.2 10-1.9 13.1-6.4m-9.6-1.7a6.8 6.8 0 004.7-2.3m34.2-13c2-.1 3.6-1.3 5-2.6M432.2 19c5.3.3 9.5-2.4 13.2-6.6m-21 14.8c9.9 1.5 23-4.4 27.7-11.4m9.8-3.9c7.2-.7 16.2-6.5 20.4-12.9M467 2c1.6-.3 3.2-.9 5.2-2.9M346.7 53.4a31 31 0 0027.8-9.9"/><path fill="none" stroke="#000" stroke-linecap="round" stroke-miterlimit="8" stroke-width="1.3" d="M189.7-15.8a35.7 35.7 0 0039.5 36.3 39.6 39.6 0 0045.9 23.2 29.7 29.7 0 0048.6 6.7 40.9 40.9 0 0058.9-1.6 31 31 0 0036.8-14 40 40 0 0041.3-15c.3-.9 1-1 1.7-.8a30 30 0 0028.4-21.2"/></svg>