<svg xmlns="http://www.w3.org/2000/svg" overflow="visible" viewBox="0 0 600 400"><path fill="#dc1b00" d="M0 0h600v400H0z"/><g fill="#fff" stroke="#000"><path d="M394.6 328.5c9.7.6 18-6.6 18.6-15.9.6-9.3-6.8-17.3-16.4-17.9-3.6-.2-7.2.9-10.1 2.5l4.4 4.4a12 12 0 015.3-1.2c6.4.4 11.3 5.7 10.9 11.9-.4 6.1-6 10.9-12.3 10.5a11.4 11.4 0 01-10.9-11.9c0-1.5.9-3 1.5-4.4l-4.3-4.2a17 17 0 00-3.1 8.3 17.2 17.2 0 0016.4 17.9z"/><path d="M382.3 292.8l9.5 9.5c4.6 4.6-.5 9.2-4.9 5.5l-10-9.7zm-22.1.5l14.9-15.4a2 2 0 012.7 0l4.2 4-18 17.8-3.8-3.6a2 2 0 010-2.8zM222.3 191.9c-7-3.4-9-3.7-20-8.1l3.3-2.3c-33-29.6-6.1-46-20.1-69.3h.3C210 124.5 223.3 99 255.7 129l1.2-3.9a65.7 65.7 0 0110 20.3 44.6 44.6 0 00-19.1-10.6l4.7-2.3c-10-10.6-32-12-45.4-4.5l164.2 153.8-6.5 6.7-163.4-154.7a35.3 35.3 0 007.5 44.5l2-3.9c3.2 6.7 6 12.3 11.4 17.5z"/><path d="M351.1 317.7a143.5 143.5 0 0149.5-49l5.3 5.5a181.4 181.4 0 00-49.5 48.9l-5.3-5.4z"/></g><g fill="#fff" stroke="#000"><path d="M211.7 292.5L202 301c-5.1 4.5 0 9.7 4.8 6l9.8-8.4zm201.9-141.6h0c.6 9-12.2 19.9-18.8 24.4l4.5 1a56.3 56.3 0 01-26 9.2 89 89 0 0016.5-17.5l1.1 4c6.3-3 16.6-16 15.4-24.7l-11-9.7 4.7-2.6c5.1-.6 10 5 11.4 6.8z"/><path d="M391.8 147.8c2.2-2.3 5.2-5.8 6.7-8.7h0c39.1 3.7 27.8 34.5 3.4 52l5.5-.1a60.9 60.9 0 01-24.3 11.5c5.8-5.9 10-11.7 14.1-19l1.2 4.3c19.6-14.7 31.9-44.6-4.3-40.5zm.4-24.5l-.3-.5h0c-12.7-23.2-37.4-7.3-50.2 2.8-.1-1.7-.1-.2.2-4.9-6.3 7-9.4 14.6-12.5 23.4 5-5.6 12-9.5 19.5-12.9-1.5-1-2.7-1.4-4.2-2.5 12.9-10.3 32-16 40.3-5.6.5 6.4 2.4 15.3-2 20.8l14.6-6.7-5.5-14z"/><path d="M365 170.7c11-9.9 43.5-30.2 33.5-44-7.5-9.9-37.6 1.8-41.9 10.2l1-6.1c-8 8.3-9.4 12-12.7 23.3a60 60 0 0119.6-13l-4.3-1.8a48 48 0 0120.7-10.7c4-.8 9.5 0 10.7 2.6 1.3 2.9-.9 6.2-9 13l-21.2 17.6c-52.6 45.6-95.8 82.1-148.2 127.7-1.9 1.6-2 2.2-1.6 2.9l5.2 6.3c1 .3 1.5.6 3.2-1 51.1-45.6 93.1-82.3 145-127zM197.6 328.4a18.4 18.4 0 01-18.7-17.7 18.1 18.1 0 0118.3-18c3.5 0 8 1.4 10.8 3l-5 4.3c-1.4-.6-4.2-1.3-5.9-1.2a12 12 0 00-12 11.8 12 12 0 0012.3 11.8 12 12 0 0012.1-11.9c0-1.4-.6-3.7-1-5l4.8-4.1c1.4 2.5 2.4 6 2.5 9 0 9.9-8.2 18-18.3 18z"/></g><path fill="#1f1a17" d="M299.8 357.7c-2.5 0-4.7-2-4.7-4.5 0-1.2.5-2.3 1.4-3.2.3-.2.6-.5 1-.6a6.8 6.8 0 01-4.1-6.2c.6-8.7 2.7-18.2 4.4-20.3-.7-.3-1.3-.6-1.8-1.1a5 5 0 01-1.6-3.7 5 5 0 012.6-4.4 3.5 3.5 0 01-2.7-3.3c0-1.1.2-2.4.6-3.7 1.4-3.3 1-4.5.5-6.3l-1-4.5h3.1c-2-.7-3-2.5-3.3-5-.4-2.3-.3-5.1 0-8 0-6.2.5-13.6 1-21.8 1-15.4 2.2-34 1.4-53.4v-1.2c-3.2-2.2-2.5-7 .9-8.5-2.5-1-3.3-3.9-3.5-7.2 0-1.7.5-9.7-.4-10.2l-3.4-1.7 4.8-.3a5 5 0 01-1-2.2 25 25 0 01-.7-7.3c.2-5.2.8-10 1.3-14.8 1.5-14.2 2.3-27-2-40.9h4.4c-2.9-1.8-3-5.9-2.3-8.8.6-2.6 2-4.8 3.6-5.2a8 8 0 013 0c1.5.4 3 2.7 3.6 5.4.7 2.8.6 6.8-2.1 8.5h4.2a105 105 0 00-1.7 37.2c.5 5.9 1 12 1 18.6v.8c.2 3.7.2 6.9-1.4 8.8h5l-4 2c-1.7.8-.6 8.7-.7 10.8-.1 3-.8 5.6-3.2 6.5a4.9 4.9 0 01.8 8.6v1c-.5 16.7.7 32.7 1.7 46.5.8 11.5 1.5 21.4 1 29 .1 3.4 1 11-3.5 12.7l3-.1c-.3 1.5-.5 3-1 4.5-.5 1.9-1 3.1.6 6.4 1 2 1 4 0 5.5-.5.8-1.1 1.4-2 1.6 1.5 1 2.6 2.6 2.6 4.4 0 2.3-1.6 4.2-3.6 4.9.7 1 1 2.3 1.4 3.5a95 95 0 013.2 16.7 7 7 0 01-4 6.2c1.4.7 2.3 2.2 2.3 3.8 0 1.3-.5 2.4-1.4 3.2-.8.8-2 1.3-3.3 1.3z"/><path fill="#e7a425" d="M299.8 356.7c-2 0-3.7-1.6-3.7-3.5s1.7-3.4 3.7-3.4 3.7 1.5 3.7 3.4c0 2-1.7 3.5-3.7 3.5zm0-243.7c-7 0-4.4-11.8-1.3-12.6h2.5c3.1.8 5.8 12.6-1.1 12.6zm-1.4 66.3c-3.8-.4-4.2-4.7-4.1-10.2 1.1-19.8 5.5-36-.3-54.7h11.6c-4.7 17-.6 34-.3 54.7.1 5.3.4 9.4-3.8 10.3-.8.2-2.2 0-3-.1zm1.2 18c8.5.3 1.8-15.6 5.9-17.6-2 0-2.9-.3-3.7 1.8-.4-1-.2-1.2-1.9-1.8h-.3c-1.7.6-1.3.8-1.7 1.8-.9-2.2-1.8-2-3.8-1.8 3 1.5-2.4 18 5.5 17.6zm-1.5 97.6c-3.3-.7-3.4-6.4-2.9-11.9.3-17.7 3.6-45.4 2.5-75.3l4-.1c-.8 30.5 3.7 58.8 2.8 75.4.1 5.3.4 11-3.2 11.9-.8.2-2.3.2-3.2 0zm1.7-96.4c-2.3 0-4.3 1.8-4.3 4s2 4 4.3 4 4.3-1.8 4.3-4-2-4-4.3-4zm2.8 114.1c1.7-1 2.2-3.2 1-5.6-2.3-5.1-.5-5.8.2-10.2l-8.1.1c.7 4.5 2.4 5 .2 10.2-.8 2.3-1 4.5.8 5.4 1.7.7 4.2.8 6 .1zm-2.8 9.6c-2.4 0-4.4-1.8-4.4-4 0-2.3 2-4.2 4.4-4.2 2.4 0 4.4 1.9 4.4 4.1 0 2.3-2 4.1-4.4 4.1zm0 26.6c-3 0-5.4-2.5-5.4-5.6 0-2.6 2.4-19.4 4.6-20l1.1-.1c2.2.7 5 17.5 5 20 0 3.2-2.3 5.7-5.3 5.7z"/><path fill="#2b2828" d="M314.8 88.7c0-.2.1-.3.2-.3a3.6 3.6 0 012.7-2.9c0-.2.4-.5.5-.8l-.8.6v-1.8c.2.1.5.5.8.5 0-.2-.4-.6-.6-.7h1.8c-.1.1-.5.5-.5.7.2 0 .6-.4.8-.5v1.8l-.8-.6.4.7.1.1c1.4.4 2.4 1.5 2.6 2.9.1 0 .2.1.2.3l.2.6c0 .2 0 .4-.2.5 0 .2-.2.4-.3.4a3.6 3.6 0 01-6.8 0c-.1 0-.3-.1-.3-.3v-.1a.7.7 0 01-.2-.5c0-.2 0-.4.2-.6z"/><path fill="#e7a425" d="M321.6 90.2a3.3 3.3 0 01-6.2 0c2.1-.2 4.1-.2 6.2 0zm-2.1-4.3a3 3 0 012.2 2.4l-2.2-.1v-2.3zm-4.2 2.4a3.3 3.3 0 012.4-2.5v2.3l-2.4.2zm6.6 1.4v.2a33 33 0 00-6.8 0v-.2h.2c2.2-.2 4.2-.2 6.4 0h.2z"/><path fill="#e7a425" d="M319 85.6h.1l.2.1v2.7a22.2 22.2 0 012.7.3h-.3a73 73 0 00-2.6-.1v-3zm-4 3.2v-.1l.2-.2 2.7-.1a76.1 76.1 0 01.2-2.8v3a78.2 78.2 0 00-3 .2z"/><path fill="#e7a425" d="M318.5 88.7c.2 0 .3.1.3.3 0 .2-.1.4-.3.4a.4.4 0 01-.3-.4c0-.2.1-.3.3-.3zm.2.3c0 .1 0 .2-.2.3.2 0 .3-.2.2-.3zm.6-.3c.2 0 .4.2.4.4s-.2.3-.4.3a.3.3 0 01-.3-.3c0-.2.2-.4.3-.4zm.3.3c0 .2-.2.2-.3.3.2 0 .3-.1.3-.3zm.5-.2c.2 0 .4.1.4.3 0 .2-.2.4-.4.4-.1 0-.3-.2-.3-.4s.2-.3.3-.3zm.3.3l-.2.3.2-.3zm.6-.3c.2 0 .3.2.3.4s-.1.3-.3.3c-.2 0-.3-.1-.3-.3 0-.2 0-.4.3-.4zm.2.4l-.2.2c.2 0 .2-.1.2-.2zm-5.2-.4c.2 0 .4.2.4.4s-.2.3-.4.3a.4.4 0 01-.3-.3c0-.2.1-.4.3-.4zm.3.4l-.3.2c.2 0 .3-.1.3-.2zm.6-.4c.2 0 .3.1.3.3 0 .2-.1.4-.3.4-.2 0-.4-.2-.4-.4s.2-.3.4-.3zm.2.3l-.2.3c.2 0 .2-.2.2-.3zm.6-.3c.2 0 .3 0 .3.3 0 .2-.1.3-.3.3a.4.4 0 01-.4-.3c0-.2.2-.3.4-.3zm.2.3l-.2.2c.2 0 .2-.1.2-.2zm.7-3.7c.1 0 .3.2.3.4s-.2.3-.3.3c-.2 0-.4-.1-.4-.3 0-.2.2-.4.4-.4zm.2.4l-.2.2.2-.2zm-.2.4c.1 0 .3.2.3.4s-.2.3-.3.3c-.2 0-.4-.1-.4-.3 0-.2.2-.4.4-.4zm.2.4l-.2.2.2-.2zm-.2.5c.1 0 .3 0 .3.3 0 .2-.2.3-.3.3-.2 0-.4-.1-.4-.3 0-.2.2-.3.4-.3zm.2.3l-.2.2c.1 0 .2 0 .2-.2zm-.2.5c.1 0 .3.1.3.3 0 .2-.2.3-.3.3-.2 0-.4-.1-.4-.3 0-.2.2-.3.4-.3zm.2.3l-.2.2c.1 0 .2 0 .2-.2zm3.2 1c0 .2 0 .2-.2.3.2 0 .2-.1.2-.3zm0-.2l.1.3c0 .2-.1.3-.3.3-.2 0-.3-.1-.3-.3 0-.2.1-.4.3-.4h.2zm-6.6.2c0 .2 0 .2-.2.3.2 0 .3-.1.2-.3zm-.2-.3c.2 0 .3.2.3.4s-.1.3-.3.3c-.2 0-.3-.1-.3-.3 0-.3.1-.4.3-.4zm3.8-1.3v.4l-.3-.2.3-.2zm0-.8v.4l-.3-.2.3-.2zm0-.8v.4l-.3-.2.3-.2zm-.8.3V86l.2.2-.2.1zm0 .9v-.4l.2.2c-.1 0-.2 0-.2.2zm0 .8v-.4l.2.2c-.1 0-.2 0-.2.2zm-.3.7h.2v-.3l.2.2-.2.3-.2-.2zm-.8 0h.3l-.2.2-.1-.2zm-.9 0h.4l-.2.3c0-.1 0-.2-.2-.2zm-.8.1h.4l-.2.2-.2-.2zm.4.8h-.3l.1-.2.2.2zm.8 0h-.3l.2-.3.1.2zm.9-.1h-.4l.2-.2.2.2zm.9 0h-.5l.2-.3.3.3zm.7 0h-.5l.3-.3.2.3zm.8 0h-.4l.2-.2.2.2zm.8 0h-.3l.2-.2.1.2zm.8.1h-.3l.2-.2.1.2zm-.3-.8h.4l-.2.2s0-.2-.2-.2zm-.8 0h.4s-.2 0-.2.2l-.2-.2zm-.8 0h.3l-.1.1-.2-.2zm-.6-.2v.2l-.3-.2.3-.2zm-.2-4.8l-.1.3c0 .4.6 0 .7-.1v.8s-.4-.3-.6-.2c-.3 0 .1.6.2.7h-1c.2-.1.4-.4.4-.6 0-.4-.7 0-.8.1V84c.2 0 .4.3.6.2.4 0 0-.6-.1-.7h.9a6 6 0 00-.2.3z"/><path fill="#2b2828" d="M315.7 90.8c.3.5.8 1.3 1.6 1.3 0-.5.2-.8.6-1 0 0 0-.4-.2-.5.4 0 .6.3.7.5.6.1.6.7.5 1 .2.1.4 0 .4 0-.1-.4.1-.5.3-.7l-.1-.6c.4 0 .5.5.6.5.2 0 .3.1.5.4 0 .1 0 .6-.2.8l-1 .4c-.3.2-.4.5-.7.5-.4.2-.8 0-1.2 0-.6.2-.7.6-1.2.6s-.3-.3-1-.4l-1.7-.9c-.8-.3-1.7-.3-2.6-.5-.8-.2-1.5-.5-2.3-.6-.5 0-2.3 0-2.5-.3-.2-.4.3-.5.4-1.6v-1l2.6-.2c0 .6.2 1.2.3 1.4.3.4 1 .7 1.5.9 1.1.4 2.4.8 3.5.7.1 0 .7-.3.8-.8 0-.2.4-.2.4 0z"/><path fill="#e7a425" d="M309 88.6c0 .4-.1.5.2 1.4l.4.3c-.1 0-.2.3-.1.4 0-.1.2-.4.4-.1v.3c0-.1.3-.4.5 0v.2c0-.1.3-.3.5 0 0 0 0-.1.2 0l1.8.5c1 .2 2 .4 2.6-.6l.3.3c0 .2-.2 0-.3.1.2.1.8.2.5.6 0 0-.1-.3-.4-.2l.3.2h-.3v.3h1.5c-.2.4-.4.4-1 .5-.2 0 0 .2 0 .2h.3s0 .2.2.3c0-.2 0-.3.2-.3 0 0 0 .2.2.3-.1-.2-.2-.4 0-.5.2 0 .2.1.3.2v-.5l.2.2v-.4l.2.1c-.2-.5-.1-.7.2-1 .2-.1.7 0 .7.3v.5l-.5.3c-.6.4-1 1-1.6 1.2-.4.2-.5-.2-1-.3l-1.6-1c-.8-.3-1.4-.2-1.5-.3-.2.1-.3-.1-.3-.2l-.1.2c-.3 0-.4-.3-.4-.4v.3c-.5 0-.5-.3-.5-.4v.3c-.3 0-.4-.3-.3-.4-.2 0-.2.2-.2.3-.3 0-.3-.4-.3-.4l-.1.3c-.4 0-.4-.4-.4-.5l-.1.3c-.4 0-.4-.4-.4-.5l-.1.4c-.3 0-.4-.3-.2-.6-.3.2-.2.5-.2.5-.8 0-2.1 0-2.3-.3 0 0 .5-.6.5-2.2.1 0 2 0 2-.2z"/><path fill="#2b2828" d="M307.1 90v.7c0 .3.7.3 1 .4l-1.3-.2.3-.8z"/><path fill="#2b2828" d="M307.5 90.2v.3l.2.2-.4-.1c-.1-.2.1-.4.2-.4z"/><path fill="#e7a425" d="M319.8 91.1zm.2.5c.3 0 .5.6.1.8l-.8.3v-.3h.4c-.2-.2-.3-.8.3-.8zm-1 .9c.2 0 .3.1.3.2l-.5.4c-.2.3-.7.1-1.2.1.5-.4.6-.4 1-.3.1-.1 0-.2.2-.3l.2.2v-.3zm-1-1.6l.2.2h-.2V91z"/><path fill="#2b2828" d="M321.1 90.4c0 .3-.3.7-.6.8.2-.2.5-.5.6-.8zm-.3 0c0 .2-.2.5-.5.6l.5-.6zm-.3 0c0 .2-.1.3-.3.4.1-.1.3-.2.3-.4zM300 102a3 3 0 01-1.5-1.7 2.5 2.5 0 01-3.7-1.1c-.7.7-1.7.6-2.3.3a2.2 2.2 0 01-1.2-2c-.2.1-.2.5-.3.8-.1.5-.4.8-.9 1 .3-1.2-.5-1.2-.8-2a2 2 0 011-2.2c-.5-.3-.7-1-.5-1.7.3-.6 1-1 1.6-1-.6.6-.3 1.3.3 1.2.8 0 1.5-1 2.5-1.5 1.1-.6 2-.7 3-1.5-.7 0-1.3.2-1.7.7-.1-1.1.9-1.6 1.5-2 1.3-.9-.1-3-1-3.3-1.5-.3-2.4.6-2.3 1.6.1 1.2 1.3.9 1.8.6 0 .7-.6 1.2-.9 1.3-.3.1-1.2.2-1.7-.3 0 .3-.2.5-.5.7a3 3 0 00-.4-1c-.2.8-.8 1.2-1.4 1 .2-.3.1-.7 0-1a2 2 0 01-.5.6l-.1-.5c-.3.4-.8.6-1.3.6.3-.3.5-1 .3-1.6-.4.7-2.1.9-2.5-.5.7.3 1 0 1.2-.4.2-.5-.5-1.8.1-2.9a3 3 0 012.2-1.4 1 1 0 01-.2-.5c1.2.4 2.1.1 2.6-.8l-1 .2c1-.8 1-3 .3-4.3l-.2-.1c-.2.4-.9.4-1.2.8l-.3-.3s0 1.9-.2 2.6c0 .9-1 .8-1.4 1.2-.4-.6-1.3-.5-1.2-1.5l.4-2.4c-.3.5-.9 2.7-1.1 3.3-.3 1-1.2.7-1.7 1-.4-.6-1.2-.8-.9-1.8l1.7-3.6-2.2 3.9c-.5.7-1.3.4-1.9.6 0-.6-1-1.2-.3-2.1.7-1.2 2.4-3.4 2.5-3.6l-3.2 3.8c-.6.5-1.5.1-2 .1 0-.6-.5-1.3.2-2l2.4-2c-1 .7-2.1 1.7-2.9 2-1.1.2-1.6-.3-2-.4.3-1.2-.2-1.7 2.4-2.7-2.2.7-3.2.4-4-.3.3-.8 1.1-1.4 1.8-1.7-1.4 0-2.3-.5-2.9-1.3.5-.7 1.5-1.2 2.6-1.3-1.6-.2-3-1.3-3.1-2.5a5 5 0 012.8-.5c-1.7-.6-3-1.9-3-3a5 5 0 012.7 0c-.8-.6-2.2-1.8-2-3.5.8-.2 2.3.4 3 .7-2.1-1.2-2.8-3.9-1.8-5.4.7.4 3.6 3.3 4 3.7-1.5-1.7-2.2-3-2.6-4.1-.4-1.3-.5-3.5 1-4.2a61 61 0 004.8 7.8l.5-.4a7.6 7.6 0 002.3 3.3l.3-.6c1 1.4 3.5 3.4 4.3 4.7.7.9.7 1.7-.2 2.6-.4.3-1 1-.5 1.9 1 1.4 3.1 1.3 3.8 0-1.4 0-1.8-1.7-1-2.7.4.6 1.2 1 2 .6l1-.7c-1 .4-2-.3-1.9-1.4.9.7 1.8 0 2-.2.6-.6.7-1.4.5-2.5a7 7 0 00-1.9-3s-.2.2-.6.2l-.7-.3c-.7-.2-1.3 0-1.7.2-.8.5-.7 1-.7 1.4-1.2-.7-.8-1.8.8-2.2-1 0-2 1-2.2 1.1-.5.4-1.4.3-1.8.1-1-.4-1.2-1.5-1-1.7.2.3.5.7 1 .7a4 4 0 002.2-.5c.5-.2 1.3-.3 1.9-.3-1-.6-2.7-.5-3.3.4a2 2 0 01-.6-1.1c-.3-1.6.9-2.4 2.2-2.4 0-.4.2-.6.6-.4 0-.3 0-.4.3-.4h5.1c1 0 2.8-.1 3-.4 0 .7-1.4 1.4-2.3 1.6.7 0 1.4 0 2-.3-.3.5-.7.8-1.3 1a4 4 0 003.2 1.2c-.3.3-.9.6-1.4.5 1 1.6 2 3.4 2.2 5.9.2-2.5 1.2-4.3 2.2-5.9-.5 0-1.1-.2-1.4-.5 1.2 0 2.5-.4 3.2-1.2-.6-.2-1-.5-1.3-1 .6.3 1.3.4 2 .3-.9-.2-2.3-1-2.3-1.6.2.3 2 .4 3 .4h5.1c.2 0 .3.1.3.4.4-.2.6 0 .6.4 1.3 0 2.5.8 2.2 2.4 0 .5-.3.8-.6 1-.6-.8-2.2-.9-3.3-.3a7 7 0 012 .3c.5.3 1.3.6 2 .5a1 1 0 001-.7c.3.2 0 1.3-.9 1.7-.4.2-1.3.3-1.8 0-.3-.2-1.1-1.2-2.2-1.2 1.6.4 2 1.5.8 2.2 0-.4 0-.9-.7-1.4-.4-.2-1-.4-1.7-.2l-.7.3c-.4 0-.5-.1-.6-.2-.7.5-1.7 2-1.9 3-.2 1.1 0 1.9.5 2.5.2.2 1 1 2 .2.1 1.1-.8 1.8-2 1.4.3.2.6.5 1.2.7.7.3 1.5 0 1.9-.6.8 1 .4 2.6-1 2.8.7 1.2 2.8 1.3 3.8-.1.6-1-.1-1.6-.5-2-.9-.8-.9-1.6-.2-2.5.8-1.3 3.3-3.3 4.3-4.7l.3.6c1-.7 2-2.2 2.3-3.3.2 0 .3.2.5.4 1.4-1.8 4-6.1 4.7-7.8 1.6.7 1.5 2.9 1 4.2a11 11 0 01-2.5 4c.4-.3 3.3-3.2 4-3.6 1 1.5.3 4.2-1.7 5.4.6-.3 2.1-.9 3-.7.1 1.7-1.3 2.9-2.1 3.5a5 5 0 012.7 0c-.1 1.1-1.3 2.4-3 3a5 5 0 012.8.5c-.1 1.2-1.5 2.3-3.1 2.5 1.1.1 2 .6 2.6 1.3-.6.8-1.5 1.4-2.9 1.3.7.3 1.5 1 1.8 1.7-.8.7-1.8 1-4 .3 2.6 1 2 1.5 2.4 2.7-.4.1-.9.6-2 .3-.8-.2-2-1.2-2.9-1.9l2.4 2c.7.7.2 1.4.2 2-.5 0-1.4.4-2-.1l-3.2-3.8c0 .2 1.8 2.4 2.5 3.6.6 1-.2 1.5-.3 2-.6-.1-1.4.2-1.9-.5l-2.2-4 1.7 3.7c.3 1-.5 1.2-.9 1.8-.5-.3-1.4 0-1.7-1l-1-3.3.3 2.4c.1 1-.8 1-1.3 1.5-.4-.4-1.2-.3-1.3-1.2-.2-.7-.2-2.6-.2-2.6l-.3.3c-.3-.4-1-.4-1.2-.8l-.2.1c-.7 1.2-.8 3.5.2 4.3-.3 0-.6 0-.9-.2.5 1 1.4 1.2 2.6.8l-.2.5a3 3 0 012.2 1.4c.5 1-.1 2.4 0 3 .2.3.6.6 1.3.3-.4 1.4-2 1.2-2.5.5-.2.6 0 1.3.3 1.6-.5 0-1-.2-1.3-.6v.5a2 2 0 01-.7-.5v1c-.5 0-1-.3-1.3-1.1l-.5 1-.4-.7c-.5.5-1.4.4-1.7.3-.3-.1-1-.6-1-1.3.6.3 1.7.6 2-.6 0-1-.9-2-2.3-1.6-1 .3-2.4 2.4-1.1 3.3.6.4 1.6.9 1.5 2-.5-.5-1-.8-1.8-.7 1.1.8 2 .9 3 1.5s1.8 1.5 2.5 1.5 1-.6.4-1.2c.6 0 1.3.4 1.6 1 .2.8 0 1.4-.5 1.7a2 2 0 011 2.2c-.3.8-1.1.8-.8 2-.5-.2-.8-.5-1-1 0-.3 0-.7-.2-.8 0 .6-.3 1.6-1.2 2-.6.3-1.6.4-2.3-.3-.3.8-1.3 1.6-2.4 1.5-.4 0-1-.1-1.3-.4-.2.7-.8 1.3-1.5 1.6zm-6.3-5.7c.2.3.7.4 1 .4v.7c-.8 0-1.4-.5-1-1.1zm8-5.2l1.6 2c.5.7 1 1.3 1.4 2.3.6-.1.5-1 .3-1.3-.5-.9-2.3-2-3.2-3zm4.6 5.2c-.2.3-.7.4-1 .4v.7c.8 0 1.4-.5 1-1.1zm-5.8-6.3c-.3.6.5 3.7.8 4.5.3 1.4.6 3.6.5 4.6 1.3-.7.5-3.3 0-4.4a21 21 0 01-1.3-4.7zm-1 0c.3.6-.5 3.7-.8 4.5-.3 1.4-.6 3.6-.5 4.6-1.3-.7-.5-3.3 0-4.4a21 21 0 001.3-4.7zm-1.3 1c-.3.6-1 1.5-1.5 2-.5.8-1 1.4-1.4 2.4-.6-.1-.5-1-.3-1.3.5-.9 2.3-2 3.2-3z"/><path fill="#e7a425" d="M300 101.2v.4c-.4-.2-1.2-1-1.3-1.4l.1-.2c.2.5.7 1.2 1.2 1.2z"/><path fill="#e7a425" d="M300 100.2v.7c-.5-.1-1-.8-1-1l.4-1c-.2.2-.3.2-.5.2V97c-.2.4-.3 1.6-.2 2.2h-.2c-.2-1.2.1-3.1.4-4.5.4-1.5.7-2.6.9-4a65.2 65.2 0 00.3 9.6z"/><path fill="#e7a425" d="M299.3 89.5c.1 1-.6 3-1 4.1-.4 1.1-1 2-1.1 3.4-.1 1.5.4 2.5 1.8 2.4a2.2 2.2 0 01-3.7 0l-.2-.3c.3-.3.7-.2.8 0 .5-1 0-1.5-1-1.6 0-.3 0-.6.2-.8.7 0 1-1 1-1.4h-.4c.2-.9 1.1-2 1.8-2.9.6-.7 1.5-1.7 1.8-3z"/><path fill="#e7a425" d="M298.8 88.5c.4.7 0 1.3-.3 1.8-.7 1-1.6 1.7-2.6 2.5-.4.3-1 .6-1.2 1.1-.3.7-.2 1.7.6 1.8h.4l-.4.6c-.6.4-1.4-.1-1.6-.5-.8.7-.4 1.7.4 1.9.8.1 1.8 0 1.7 1-.6-.3-1 0-1.3.4-1 .8-2.2.1-2.7-.8a3 3 0 01-.1-1.5c-1.1.4-.7 1.4-1.2 1.9 0-.8-.8-1-.9-1.6-.2-.9.5-2 1.8-2-.7 0-1.2-.3-1.3-.8-.2-.9.3-1.3.7-1.5-.3.6.5 1.6 1.6 1 .5-.2 1.3-1 2-1.4l3-1.5a3 3 0 001.4-2.4z"/><path fill="#e7a425" d="M297.7 87.6c.9 1.3.4 2.7-.5 2.7-.6 0-.8 0-1.3.3.2-.6 1-.9 1.3-1 .4-.4.7-.8.5-2zm-7.3-1.3v1l.5-.4c-.2.4-.2 1.1-.2 1.6l-.4.5-.1-.4c.2-.6.1-1.1-.2-1.5l.4-.8zm1.3.1l.4-.1c-.2.4-.4.7-.4 1.1 0 1 .2 2-.7 2.3V89c-.2-.9-.1-1.7 0-2.3l.4-.3c-.2.5-.2 1-.1 1.6.1-.7 0-1.1.4-1.7z"/><path fill="#e7a425" d="M293.1 85.7c-.6.6-.8 1.4-.7 2.2 0 .6.4.8.1 1.6 0-.5-.5-.8-.6-1.4-.2-1.1.5-2 1.2-2.4zm3.9-.4c.3.7 1 1.3 1.2 1.4.4 1.3.6 1.9.2 2.7 0-1.2-.4-1.7-.9-2.2 0-.4-.4-1.5-.5-1.9z"/><path fill="#e7a425" d="M294.3 85.4c.4 0 1.1 0 1.5.3-1.4-.2-2.3.5-2.4 1.5-.1.8.3 1.6 1.3 1.5 0 .1-.4.3-.9.3.6.1 1 0 1.3-.3-.3.7-1.6.8-2.2 0-1-1.2 0-3.2 1.4-3.3zm5.7 4v.8c-.7-1.4-1.9-3-1.9-5.3a6 6 0 001 2.3c.2.4.7.9.8 1.4v.8zm-7.7-4.6l-1 1 1.4-.7-.7 1c-.6.2-1.1.5-1.5.9 0-1.5.6-2 1.8-2.2zm-1.8 0l.5-.1-.8.5z"/><path fill="#e7a425" d="M289.5 85.2l.8-.3c-.1.1-.4.5-.5 1a3 3 0 011-1h.4c-.8.8-1.2 1.7-1.5 2.4-.6-.7-.5-1.4-.2-2.1z"/><path fill="#e7a425" d="M289.3 84.5v.7c-.3.7-.4 1.6.5 2.3l.1-.3c.2.2.3.7.2 1-.1.5-.5.9-.9 1 .4-.7 0-1.7-.1-1.8-.4-1-.8-2 .2-2.9zm10.7 2.8v.9c-.8-1-1.6-2.2-1.8-3.7 1.2.3 1.7 1.3 1.8 2.8zm-7.5-2.5l.8-.3-.4.4-1 .5.6-.6zm4.8-.3h.1v.4z"/><path fill="#e7a425" d="M296.7 84.4h.4l.5 1-.1-1h.5l.1 2-.7-.7-.7-1.3zm-1.4 0h.4c.1.2.6 1 .8 1l-.4-1h.4l.7 2.4a11 11 0 01-1.9-2.4zm-.9.2l.7-.3.1.1z"/><path fill="#e7a425" d="M294.1 84l.7.3a3 3 0 00-1.1.6l1.6-.3.5 1c-1-.7-2.5-.5-3.6.5.3-.8 1.7-2 2-2zm-1.6-.6l-.5.3-.8.1.6-.2.7-.2z"/><path fill="#e7a425" d="M290.5 83.3l1 .3a2 2 0 00-1.2.6l1.6-.3c-.2 0-.5.4-.7.5l-1.8.6c0-.7.4-1.3 1.1-1.7z"/><path fill="#e7a425" d="M290.1 83l.3.3a2 2 0 00-1 1c-.3.1-.7.5-.8 1-.2.5-.1 1 .1 1.6 0 .5-.3 1-1 1 .7 0 1-.2 1.1-.8.2.5 0 .9-.5 1-.4.2-.9.2-1.1-.2 1.7-.3.2-2.2.8-3.5.3-.6 1-1.2 2.1-1.3zm3.3 0l.2.3-1.2.9 1.4-.5.2.2c-1.1.9-2.4 1-3 1 .6-.9 1.9-1.6 2.4-2zm-.1-2.4v.6c-.2.5-.6 1-.8 1.2l.8-.8.1 1.2-.7.4c-1.1.5-2.2.1-2.4-.5.4.4 1.4.8 2.3.2a2 2 0 01-2-.2c.7.1 1.8-.1 2-1.4.2-.1.6-.4.7-.7zm0-3.1v2.7c-.2.3-.6.8-1 1 .4-1 .5-2.4-.2-3.6l.6.3.2 1.8c.2-.6 0-1.6 0-1.8l.4-.4zm-4.6-.2c0 .4-.2 1.7-.1 2.5l.6-2.6c0 .3.4.3.5.5V80c-.1 1-.9.8-1.2 1-.4-.2-1.1-.4-1-1 0-1 .2-1.7.3-2.5l.9-.3zm-2.2-.8l-1 3.3c.5-.7 1.2-2.6 1.4-3.2l.4.6-1.1 3.8c-.2.5-1 .4-1.3.6-.2-.3-1-.6-.7-1.2.2-.8 1.2-3.1 1.7-3.8h.6zm-2.5-1.1c.3 0 .7 0 1-.3 0 .1-1.8 2.8-2.1 3.7l2.2-2.9.2.6-2.2 4c-.4.3-.9 0-1.4.2-.1-.4-.5-.6-.4-1.3 0-.5 2.4-3.6 2.8-4z"/><path fill="#e7a425" d="M293.4 76.5c.1.6-.3.7-.6 1.2-.4-.3-1.1-.4-1.2-.8l-.2-2.7.5.1.6 2-.2-2.1.4-.3.7 2.6zm-2.8-2.6l.2-.3c0 .3.2.5.4.5l.1 2.8c0 .5-.6.5-1 .8-.4-.3-1-.4-1-1l.3-2.4.2.2c.1-.2.3-.2.4-.3l.1 2c.2-.7.2-1.6.3-2.3zm-1.8-.2l.1.1-.3 1z"/><path fill="#e7a425" d="M288.7 73.6l-.4 2.1.7-1.8.4.3-.4 2.4c-.2.6-.8.5-1.3.7-.3-.4-.8-.7-.5-1.5l1-2c.1 0 .3 0 .5-.2zm4.1.1v-.3l.5.1v1.7zm-6-.7l.3.4c-.2.5-.7 1.3-.8 1.8a4 4 0 001-1.6l.6.2c-.2.4-.5 1.3-1 2.1-.2.5-.9.4-1.4.5-.1-.5-.4-.8-.2-1.2.3-.7 1.1-1.7 1.5-2.3zm-1.3-.8c.2 0 .2.1.3.2l-1.1 1.5 1.6-1.4c.2 0 .3 0 .4-.2v.4l-1.5 2c-.4.4-1 .4-1.6.4-.1-.6-.4-1 0-1.6l1.9-1.3zm-3-.6l2.4-.5v.4l-1.8.8c.7 0 1.7-.3 1.8-.4l.4.3c-.4.1-1.1.7-1.8 1-.7.3-1.5-.1-1.8-.3.1-.5.3-1.2.8-1.3zm-4.1-.8l2-.1v.1h-2z"/><path fill="#e7a425" d="M273.9 70.8c.6-.6 1.8-1 3.1-1h4l-.5.7c-1.3.2-2.2 0-3.6.4 1.3.2 3.3.1 3.7.1.1.2.4.4.8.5l-4.5.5c-1.4.2-2.4-.3-3-1.2z"/><path fill="#e7a425" d="M281.9 69.7h2.6l.4.3-2.1.4h2.5a1 1 0 00-.3.5l-2.6.5c-1 0-1.4-.3-1.7-.7.2-.5.7-1 1.2-1zm1.1-1.2h1.2l-.1.2-1.2-.2zm-4.8-.1l1.8.2.1.2-1.9-.4zm13.3-.4c.5.5 1 .5 1.8.3V70c-1.2.2-2.4-.7-1.8-2zm7.4-.7v1h-.3l.3-1z"/><path fill="#e7a425" d="M280.2 68.3c.4-.8 1.2-1 2.2-.8l2.5.5-.5.4H282c.6.3 1.4.4 2 .4l.2.6h-2.6a2 2 0 01-1.5-1.1zm16.8-1.4v1.4h-.4c.1-.4.4-.8.5-1.4zm-.7-.4l-.5 1.8h-.6c.2-.3.9-1.2 1-1.8z"/><path fill="#e7a425" d="M273.3 67.3c1-.5 2.7-.5 3.8-.2l3 .7-.3.4v.2s-2.2-.4-3.5-.3c1.2.4 3.9.8 4 .8.3.4.6.5 1 .7-.3 0-3.9 0-4.7-.2-1.1-.1-3-.8-3.3-2zm24.5-.7v1.7h-.6c0-.7.4-1.2.6-1.7zm2.1 0v1.7h-.7c.1-.6.5-1.1.7-1.7zm-21.7-.6l2 .5.2.2a18 18 0 01-2.2-.8zm20.3-1.1s.4 1.6.3 2.2l-.4 1.2h-.4v-2.9c.3.7.3 1 .3 1.7l.2-2.2zm-1.6.2c.3 1.8 0 2.4-.5 3.2h-.5c.3-.6.6-2.2.6-3.1V67c.3-.8.3-1.2.4-1.9zm-1.5-.5c0 .9-.5 1.8-1 2.1.6-.2 1-1 1-1-.1.3-.2.8-.4 1-.7.7-1.9.5-2.1-.2 1.3.5 2.2-.6 2.5-1.9zm-15.4.8a2 2 0 012.2-.2l2 1 .1.4c-.5 0-1.3-.3-2.1-.5.8.6 2 .8 2.3 1 .1.2.3.5.7.7-1.2-.2-3-.4-4-.9-.4-.1-1.1-.7-1.2-1.5zm3.9-.6l1.2.7h-.2l-1-.7z"/><path fill="#e7a425" d="M296.3 63.9c.3 1.8-.2 3.3-1.3 4.4h-1.7.2c1.7-.7 2.4-2.3 2.7-4.4l-.1 1.6c.2-.5.2-1.2.2-1.6zm-23.1-.1a7 7 0 013.6.5l2.9 1.3c0 .3.2.5.3.7-.7-.2-2.4-.9-4.3-1.3a35.4 35.4 0 005.3 2.3c-.3 0-.4.1-.7.3a29 29 0 01-3.2-.8c-1.8-.5-3.7-1.6-3.9-3zm5-.4l2.6 1.3-.3.1-2.3-1.4zm19-.6l.8 2.4c0 1-.5 1.9-.8 2.5 0-1 0-2-.3-2.8v-2.1c.2.3.5 1.7.6 2.4l-.3-2.4zm1.2-.1a72.6 72.6 0 01.2 0l.4 1.3c.2.6.7 1.8.7 2.4-.1.7-.4 1-.7 1.6 0-.9 0-1.7-.3-2.6l-.2-1-.1-1.7zm-17.6-.2c2.4.2 3.7 2 5.2 3h-.6c-.3 0-1.6-1-2.6-1.4.5.6 1.4 1 2 1.5l-.6.3-2.3-1.1c-.6-.7-1-1.6-1-2.3zm3.2-.3l.6.6v.3l-.7-.9z"/><path fill="#e7a425" d="M285.4 70c-.7 0-.9-.8-1-1.2.1-.2.6-.8 1.3-.7.5 0 .9.2 1.3.3v-.1c-1.5-.3-2.5-1-2.5-2.3 1.1-.8 2.3 0 3 1l.2-.2c-.6-1-1.5-1.3-2.2-2-.6-.8-.8-2.2-.5-3.4 1.4 1.8 3.7 3.3 4.3 4.8.5 1.4-1 1.7-1.2 2.7-.3 1.2.4 2 1.8 2.5 1 .3 2.3-.1 2.7-1.1h.7v1c-.2 0 0 0-.2.2l.2.7v.8c-.2 0-.3 0-.4-.2 0 .2.2.3.4.4v.2l-.4-.2-.5-1.4c0-.1-.2 0-.1 0l.4 1.3c.1.6-.4.7-.7 1-.4-.1-1 0-1.1-.6l-.2-1.3h-.1v1.2c0 .5-.5.5-.8.8-.4-.3-1-.3-.9-.9l.4-1.1-.2-.1c-.1.3-.3 1-.5 1.2-.3.6-.7.2-1.3.2-.1-.4-.7-.7-.4-1.2.1-.2.8-.8.8-1 0 0 0-.1-.1 0l-1 .9c-.4.3-1.3-.3-1.6-.4.1-.4 0-1 .6-1.4l1.2-.3V70h-1.4zm-6.7-9l2 1.2h-.2v.2c-.4-.3-1.4-1-1.8-1.5zm18.3-1l.7 1.2c.6 1 .7 2.7.6 4.9-.3-2.2-1.3-3.8-1.4-4.7.4.6 1 1.4 1.2 2.3 0-.5-.8-3.1-1-3.7zm-23.2.4a7 7 0 014 1.3l3 2 .8 1h-.6c-.5-.3-3-1.8-4.4-2.3 1.1 1 3.2 2.2 3.7 2.4l-.6.5a18 18 0 01-3.6-1.6c-1-.8-2.4-1.8-2.3-3.3z"/><path fill="#e7a425" d="M297.2 60c.8 1 2 2.5 2.4 3.2.4 1.3.3 2.4.2 3-.4-2.2-1.3-4.3-2.6-6.3zm-1.5-.1c.3.3 1 1 1.1 1.4.2 1.3.1 3.6-.2 4.7 0-1-.1-2.8-.7-3.6a6 6 0 01-.6 4.1c.4-1.2.5-3.5 0-4.8l-.5-1a5 5 0 011.7 1.8c-.2-1-.5-1.7-.8-2.6zm-6.3.2c.7-.4 1.3-.5 2.4-.3-.8 0-2.3-.2-2.7 1.3-.2-.3 0-.7.3-1zm.1-1l1.3.1c-2.3.1-2.4 1.1-3.3 1.4-.7.2-1.6 0-2-.9.6.4 1.1.4 1.7.2.8-.2 1.4-.7 2.3-.8z"/><path fill="#e7a425" d="M295.4 58.6l1.3 1.8c-.3-.7-.8-1.4-1.2-1.9l1.1.9c.4.6.9 2 1 3a9.4 9.4 0 00-2-2.7l-.2-1.1zm-13.2.1a8.4 8.4 0 002.4 3v1l-1.4-1.5c.3.9 1 1.8 1.4 2 0 .4.2.7.3 1l-2-1.7c-1-1-1.4-2.5-.7-3.8zm-2.7-1.1a32 32 0 002 2.4v.3c-.6-.6-1.6-1.9-2-2.7zm16.5.4l1.6 1.7c-.2-.5-1.2-1.4-1.5-1.7l1.3.6c.3.3 1.6 2.5 2 4-1.3-2-2.5-2.8-3.4-4.6zm-2.7-.5a8 8 0 012.1 2l.8 2.3c-.4-.6-1-1.1-1.6-1.4-.4-.4-1-1-1.5-1.3l-.9-1c.6.5 2 1.6 3 2-.6-.9-1.4-2-2-2.6zm.7-.6l1 .1a9 9 0 011.5 2.2c-1-.6-2-1.8-2.5-2.3z"/><path fill="#e7a425" d="M295.8 57c.2.6 1.4 1.3 2.6 1.3a3 3 0 01-3.1-1.3h.5zm-3.7-.8l-.5.3.5-.3z"/><path fill="#fff" d="M291.1 56l.8.2-.7.3V56zm-.6 0l.2.3v.3l-.2-.3V56z"/><path fill="#fff" d="M290.2 56h.2c0 .4 0 .6.5.7l-.3.2c-.2-.2-.4-.7-.4-.9z"/><path fill="#e7a425" d="M286.7 57.1c.2-.5 1-1.1 2-1 1.1 1.7 2.3 2.8 4.2 3.9-.2.2-.7-.3-1.2-.5a6.1 6.1 0 00-2.9-1.3c-.7 0-1.4.2-1.8.7-.4-.4-.5-1.3-.3-1.8zm-11.9-1.2c.9.5 4.4 4.4 7.7 6.7-.4-.2-1.1-.4-1.6-.4-.2-.2-2.6-2-3.8-2.6 1 1.1 3 2.6 3.4 3 0 .2 0 .4.2.6-1.2-.7-3.3-1.8-4.8-3.2-1-1-1.7-2.6-1.1-4.1z"/><path fill="#e7a425" d="M288.9 56c-.2-.4.3-.6.4-.4a7 7 0 001.4 2.3l2 1.3c.6.3 1.7 1 2 1.7.5.7.7 1.6.7 2.5a7 7 0 00-2.6-3.7c-1-.6-2-1.3-2.6-2-.4-.6-1-1.2-1.3-1.8z"/><path fill="#e7a425" d="M289.6 55.1l6.8.1.6-.1-.7.5c-1.2.6-2.7.7-4.2.5-.4 0-1.3-.5-2.1-.2 0 .4.4 1 .6 1.2.4-.3.9-.4 1.5-.6.7-.3 1.7-.3 2.5-.2a6 6 0 002 0c-.7.6-1.9.7-3 .4.8.6 1.8 1.7 2 2.8-.8-1-2-2-3-2.5a9 9 0 012.1 2.8c-.9-.5-2.2-1.5-3-2.4.3.6.7 1.2 1.2 1.7-.2-.1-1.2-.6-1.9-1.2a7.6 7.6 0 01-1.6-2.5c0-.2 0-.3.2-.3zM277 51.3c.6 1 3.1 5.6 4.8 7.5a4 4 0 00-.3 1c-1-1-2.2-3-3.5-4.3.8 1.8 2.6 4.2 3.5 5 .1.5.3 1.2.7 1.6a19 19 0 01-5.7-7.2c-.6-2-.1-3.1.6-3.6z"/><path fill="#2b2828" d="M295.7 66.8a2 2 0 01-.8 1l.8-1zm-4.1 1.5c.2.2.6.3 1 .3h-.9c0 .2.2.7.6 1-.6-.1-1-1-.7-1.3zM288 57.6c.2-.1 0 .2 0 .2.3 0 .2 0 .2.1l-.6.2c0-.2 0-.5.4-.5zm-4.6-2l-.1.6c-.3-.2 0-.5.1-.6zm-6.4-3.8l1.8 3.1-1.8-2.7c-.9 1.3.5 3.9 1 5.1-.8-1.1-2.4-4.2-1-5.5zm-2.9 8.9a8 8 0 013.4 1.2l-3-1c.3 1.6 1.4 2.2 2.2 2.8-1-.5-2.6-1.7-2.6-3zm.9-4.4c.4.2 2.3 2.2 2.9 2.7-.8-.5-2-1.8-2.8-2.3-.2 1.8 1.3 3.3 1.7 4-.9-.8-2.4-2.6-1.9-4.4zm7.2 2.9c.3.5.5 1 .9 1.4l-.8-.8c-.2.9.6 2.5 1.3 3-1.4-1-1.8-2.6-1.4-3.6zm-1 3.6c.6 0 1.8.5 2 .8-.5-.3-1-.5-1.8-.6.1.4.6 1.3 1 1.8-.7-.5-1.3-1.5-1.2-2zm-7.5 1.2c1-.1 2.4.3 3 .6-1-.2-1.4-.4-2.6-.4a6 6 0 002.5 2.2c-1.6-.5-2.8-1.7-3-2.4zm8.6 1.5c-.6-.2-1-.2-1.7 0 .1.7.8 1.2 1.2 1.4a2 2 0 01-1.5-1.4c.7-.5 1.5-.3 2 0z"/><path fill="#e7a425" d="M283 66.4l1.4.3v.2c-.3 0-.9-.3-1.4-.5z"/><path fill="#2b2828" d="M286.4 66.1c-.5 0-1 0-1.4.2 0 .4.3.9.6 1.2-.5-.2-.9-1-.8-1.4.3-.2 1-.3 1.6 0zm-1.2-4.1l1.2 1.3c-.4-.2-.8-.5-1-.8-.2.9.5 2.2.7 2.4a3 3 0 01-1-3zm1.1 2c.8.4 1.9 1.6 1.9 1.6v.2h-.2s-1.3-1.2-1.7-1.8z"/><path fill="#e7a425" d="M287.2 64.8l.9.9h-.1s-.8-.8-.8-1z"/><path fill="#2b2828" d="M286 66.8c.7.2 1.1.5 1.3.6v.2l-.1.1-1.2-.9z"/><path fill="#e7a425" d="M286.7 67.2l.5.3v.1l-.5-.4zm-3.5 6.6v.5l-2.7 3.1 2.8-2.6v.5l-2.8 3.5c-.6.6-1.3.3-1.8.3 0-.6-.3-1 .3-1.7l4.2-3.6zm-6.7 2.9c.1-.6.1-1.5 1.7-2.1l3.4-1.4.4.1c-.4.2-2 1.2-3 2 1.2-.4 3.3-1.8 3.5-1.8h.8c-.6.4-3.7 2.7-4.6 3.2-1.4.7-1.7.2-2.2 0zm5.5-5.1l-.4.5c-.2 0-2.4.5-3.6 1 1.3 0 3.5-.6 3.6-.6v.4c-1 .5-3.3 1.1-3.7 1.3-1 .3-2.5.2-3-.4a3 3 0 012.2-1.5l4.9-.7z"/><path fill="#2b2828" d="M276.9 70c-.8 0-1.8.4-2.2.9.3.6 1.9.9 2.7.9-1.4.1-2.7-.3-3.1-1 .6-.5 1.8-.8 2.6-.8zm.1-2.6c-.9 0-2-.1-2.7.2.2.5 1.3 1.3 2.6 1.6-1 0-2.8-.8-3.1-1.7.8-.4 2.6-.3 3.2-.1zm5.3.3c-.8 0-1.3.2-1.6.6.2.4.8.8 1.2.9-.6 0-1.2-.4-1.4-1 .3-.5 1.2-.7 1.8-.5zm3.7.6c-.5 0-.9.3-1.2.5.2.4.4.8.7 1-.5 0-.7-.5-1-1 .3-.3.8-.7 1.5-.5z"/><path fill="#e7a425" d="M279.7 72.8l2-.6-.1.2-2 .4z"/><path fill="#2b2828" d="M277.3 72.5c-.7.1-1.4.6-1.8 1.2.8.5 1.8.4 2.4.3-.7.3-2 .3-2.7-.3.5-.8 1.4-1.2 2-1.2zm14.7 24c0 .6 0 2.1 1 2.7-1-.4-1.3-1.7-1.2-2.6l-.8.5c.1-.5.5-.7 1-.6zm-.3-1c-1.3.4-1.3 1.4-1.3 2-.4-1.1.2-1.8 1.3-2zm.2-1.1c.4 0 0 .1-.2.2-.2 0-.3-.2-.3-.2h.5zm-1.6-.9c0 .5.2 1 1 1.3a.9.9 0 01-1-1.3zm8-1.3c-.4 1-1.6 2.5-2 4-.3 1.4.2 2.8 1 3.3-.8-.3-1.5-1.7-1.1-3.4.3-1.5 1.4-2.7 2.1-4zm-1.2-.8c-.6.6-1.8 1.2-2.2 1.5-.9.6-2.5 1.7-2.3 3.8.2 1.7 1 1.7 1.5 1.7-.7.1-1.2-.1-1.5-.6-.7-1.5 0-3.6 1.6-4.8l3-1.6z"/><path fill="#2b2828" d="M293.8 95.6c.3.4 1 .5 1.6.4-.4.4-1.3.2-1.6-.4z"/><path fill="#e7a425" d="M295.9 84.5h.1l.2.4zm-2.2-1l-.7.3.6-.3z"/><path fill="#2b2828" d="M277.8 75c-.7.4-.7 1-.8 1.4.5 0 .8.4 1.4.2-.8.3-1 .1-1.6 0 0-.7.2-1.1 1-1.6z"/><path fill="#e7a425" d="M280.6 74.4l1.5-1h.3zm1.2 1.6l1.4-1.5v.2z"/><path fill="#2b2828" d="M279.5 77.3c-.6.6-.5 1-.4 1.4.5 0 1 .2 1.5-.3-.6.8-1 .5-1.7.5 0-.8-.2-1 .6-1.6z"/><path fill="#e7a425" d="M283.9 77.3l1.2-1.8v.3z"/><path fill="#2b2828" d="M281.9 78.8c-.4.9 0 1 0 1.4.7-.1 1 .1 1.4-.7-.3 1.1-.8.8-1.4 1-.3-.8-.7-.7 0-1.7z"/><path fill="#e7a425" d="M286 78.4l.6-2 .3-.1v.1z"/><path fill="#2b2828" d="M284.6 79.8c-.2 1 .2 1 .4 1.4.5-.3 1-.1 1.3-1-.2 1.1-.8.9-1.4 1.2-.4-.7-.8-.5-.3-1.6z"/><path fill="#e7a425" d="M288.7 78.7l.2-1.5.2-.3z"/><path fill="#2b2828" d="M287.7 79.6c0 1 .5.8.8 1.1.5-.4 1-.1 1-1 .1 1.1-.5.8-1 1.2-.6-.5-1-.2-.8-1.3z"/><path fill="#e7a425" d="M283.7 70.3l1.4-.2.4.1z"/><path fill="#2b2828" d="M282.5 69.9c-.8 0-1 .2-1.3.7.3.4 1 .5 1.4.6-.7 0-1.3-.1-1.6-.5.3-.6.7-.9 1.5-.8z"/><path fill="#e7a425" d="M284 72l.9-.3z"/><path fill="#2b2828" d="M283 71.7c-.7.2-.7.5-.8 1 .4.2.8.4 1.2.3-.6.3-1 0-1.4-.2.1-.7.3-1 1-1.1zm1.1 1.7c-.4.4-.3.7-.1 1.3.4 0 .8 0 1.2-.4-.4.7-1 .5-1.4.6-.2-.8-.4-1 .3-1.5z"/><path fill="#e7a425" d="M285.4 73.2l.6-.8h.1zm1.4 1.2l.3-.9.1.2z"/><path fill="#2b2828" d="M285.7 74.9c-.3.5 0 .7.1 1 .5 0 .8 0 1-.3-.2.7-.6.5-1.1.6-.1-.5-.5-.7 0-1.3zm1.7.9c-.1.6.2.7.4 1 .5-.1.9 0 1-.5 0 .7-.6.6-1 .8-.2-.4-.8-.7-.4-1.3zm2.1.6c0 .6.6.6.8.8.5-.2.8-.2.8-.8.1.9-.4.7-.8 1-.3-.3-1-.2-.8-1z"/><path fill="#e7a425" d="M290.3 74.1l.2-.1-.2 1.3z"/><path fill="#2b2828" d="M293.2 76.3c.3.7-.2.7-.5 1.1-.4-.3-1-.2-1-1 .1.6.6.6 1 .8.3-.3.5-.4.5-1z"/><path fill="#e7a425" d="M292.4 75.5l-.4-1.1h.1l.1-.1z"/><path fill="#2b2828" d="M286 70.5c-.6.2-.5.6-.6 1.1.5.2.8.6 1.3.3-.5.4-1 0-1.5-.2.2-.8 0-1 .8-1.2zm-.5-1.5l1.5.1.1.2-1.6-.3zm.9.1l.6.2v-.1h-.6z"/><path fill="#2b2828" d="M286 71.4l1.2-.9h.2v.3l-1.4.6zm.8-.5l.5-.2h-.1l-.4.2zm.4 1.3c-.3.4.2.6.4 1 .4-.2.7.2 1-.1-.3.6-.7 0-1.2.2 0-.4-.6-.5-.2-1.1zm.7.4c.2-.8.4-1 .4-1l.2-.1v.1s-.1.5-.6 1zm.3-.6l.3-.4h-.1l-.2.4zm1.6 1.1v-1h.2l-.3 1zm0-.5l.2-.4h-.1v.4zm-.7.5c0 .5.5.4.7.7.3-.3.7-.2.7-.6 0 .7-.4.5-.7.8-.2-.3-.8-.2-.7-.9zm2.6 0c-.3-.7-.3-1.1-.3-1.1v-.1h.3v1.2zm0-.5l-.1-.6h-.1l.2.6zm-.7.7c.1.5.6.3 1 .4.2-.3.6-.3.5-.7.2.6-.3.5-.5 1-.4-.3-.9 0-1-.7z"/><path fill="#e7a425" d="M293.3 71.9l-.1-.4z"/><path fill="#2b2828" d="M302.6 52.6l-2.6.2a10 10 0 01-2.7-.2v-1.3c-.4-.7-.8-1.5-1-2.3-.7-2 .3-2.8 2-3.1.2-.1.4-.2.7-.1v.3h.4v-.4h.2a.8.8 0 01-.4-.7c0-.3 0-.5.3-.6h-.3l.5-.7c-.2 0-.5.3-.7.5v-1.7c.2.2.5.5.7.5 0-.2-.4-.5-.5-.6h1.6l-.5.6c.2 0 .5-.3.7-.5v1.7c-.2-.2-.5-.5-.7-.5 0 .2.4.5.5.7h-.3c.2 0 .3.3.3.6s-.1.6-.4.7h.2v.4h.3v-.3h.7c1.8.4 2.8 1.3 2.1 3.2l-1 2.3z"/><path fill="#e7a425" d="M300 52.3c-.8 0-1.6 0-2.1-.2l2-.2c.9 0 1.7 0 2.2.2l-2.1.2z"/><path fill="#e7a425" d="M297.6 52.4v-.2c.5.2 1.5.2 2.4.2.9 0 1.9 0 2.4-.2v.2l-2.4.2c-1.2 0-2 0-2.4-.2zm4.8-.8v.1zm-1.9-2.6v-.3zm3 0l-.1.4-.2-.2.3-.4v.2zm.1-.4l-.3-.3c0-.2.2-.3.3-.5l.1.2v.6zm.1-.6v-.4.2zm0-.5v.2l-.4-.6.1-.2.3.6zm-.3-.6l-.2.2c0-.2-.2-.3-.4-.5l.5.2zm-.6-.4zm-.2-.1l.2.2-.4.5c0-.2-.2-.3-.4-.4l.3-.4h.3zm-.4-.1s0 .2-.2.3l-.3-.3V46l.5.2zm-.5.1l.3.3-.4.4zm-.2.7v.2zm-.1.3l.2-.2.4.4-.3.4-.3-.2z"/><path fill="#e7a425" d="M301.4 47.8l.2.3-.3.3zm-.2.8c.2 0 .3.2.4.3l-.4.3h-.1zm.1.8l-.1.1v-.2zm1 1.5l.3-.2v.3l-.3-.1zm.2-.3v-.1zm.1-.2l.4-.3c0 .3-.2.5-.3.7v-.1l-.1-.3zm.5-.4l-.3-.4c.1-.1.2-.3.4-.3v.2l-.1.5zm-1.9-4h.3l-.6 2.8h-.1zm.8.7l.4.5-.4.4c0-.2-.2-.3-.3-.4l.3-.5zm.8.9c0-.2-.2-.3-.3-.4l.3-.6.4.5-.4.5zm-.3.4c-.2 0-.3-.2-.4-.4l.3-.4.4.5-.3.4zm-.5.5l-.3-.4.3-.4.4.4-.4.4zm-.4.4c0-.2-.2-.3-.3-.4l.4-.4c0 .2.2.3.3.5l-.4.3zm1.7-.7l-.4-.5.3-.5c.1.1.3.3.3.6l-.2.4zm-.4.4l-.4-.5.3-.4.4.5-.3.4zm-.4.4h-.1l-.3-.4.3-.4.4.5-.3.4zm-.2 0h-.6l.4-.4.2.3zm.1.2zm-.7-.1l-.3.2h-.1l.3-.3.1.1zm.3.5zm0 .6h-.1l.3-.3-.2.3zm1.2-1.1l-.3-.4.3-.4.3.4-.3.4zm-.5.4l-.2-.3.3-.4.3.4-.4.3zm-.4.5v-.1l.1-.2h-.3v-.2l.4-.3.2.4-.4.3zm0 0l.2.4h-.5l.1-.1z"/><path fill="#e7a425" d="M302.7 49.6l.3.5-.5.3-.2-.4.4-.4zm-2.3-1v-.3l.2.1v.3zm0-.3l.1-.3h.1v.3zm.1-.4v-.3l.2.1v.2zm0-.4v-.2l.3.1v.1zm0-.4V47h.3v.2zm.1-.3v-.2l.3.1v.1zm0-.4v-.1h.3v.2zm-.3 4.8v-.1.1zm0 .2h-.1.1zm.5-.2v-.1.1zm0 .3h-.1v-.1h.1zm.4-.3zm.1.3h-.1zm.4-.2zm-.1.2zm.4-.1h.1zm0 .2zm-1.5-.5s.2 0 .2.2l-.2.1-.1-.1.1-.2zm.5.1l.1.1-.1.1h-.1l.1-.2zm.4 0l.1.2h-.2l.1-.2zm.4.1l.2.1-.2.1v-.2zm.4.1l.1.1v.1h-.2l.1-.2z"/><path fill="#2b2828" d="M302.1 47l.2.2-.2.1V47zm.4.4l.2.2-.1.3v-.5zm.5.6l.1.2-.1.2V48zm.3.5l.2.2-.2.2v-.4zm-.7 0l.2.2-.2.2v-.4zm-.9-.2l.2.3-.2.1c.1-.1.1-.2 0-.4zm.4-.3l.2.1-.2.2c.1-.1.1-.3 0-.4zm-.4-.6l.2.2-.2.2c.1-.1.1-.3 0-.4zm.8-1l.2.2-.2.2v-.4zm.5.6l.1.1-.2.2c.1-.1.1-.3 0-.4zm.3.5l.2.2-.1.2v-.4zm-.4 1.5l.1.2-.2.1c.1-.1.1-.2 0-.4zm-.2.8l.2.2-.2.2c.1-.2.1-.3 0-.4zm-1.3-1zm1.1.5l.1.3-.2.1c.1-.1.1-.2 0-.4z"/><path fill="#e7a425" d="M302.5 50.7a1 1 0 01-.4.1h-.6l.3-.3c.3 0 .5 0 .7.2zm-1.3-1.1c.3-.3.7-.5 1.1-.5 0 .2-.3.4-.5.6h-.3l.1-.2h-.4zm-.8-.7v.2l-.1.2v-.2l.1-.2zm.7.4l-.1.4h-.2l.1-.3h.2zm.3.6c.3-.1.6-.2.9-.1a2 2 0 01-.6.4h-.6c.2 0 .3-.2.3-.3zm-1.1-.4l.5-.6c0 .4 0 .7-.2 1l-.4.4.1-.7zm1.7.8l-.7.4h-.8c.4-.3 1-.5 1.4-.4z"/><path fill="#e7a425" d="M301.4 49.6c-.2.5-.7 1-1.2 1 .2-.5.7-.9 1.2-1zm-3.8 2v.1zm1.9-2.6v-.3.3zm-3 0v-.2l.3.4-.2.2-.1-.4zm-.1-.4l-.1-.6v-.2l.4.5-.2.4zm-.1-.6v-.3zm0-.5l.3-.6.1.2-.3.6zm.3-.6h.1c.1-.2.3-.3.4-.3l-.3.5-.2-.2zm.6-.4zm.2-.1l.3-.1.2.4-.3.4-.4-.5.2-.2zm.4-.1l.5-.2v.2l-.3.3-.2-.3zm.5.1l.2.6-.1.1-.4-.4.3-.3zm.2.7v.2-.1zm.1.3v.4l-.3.2-.3-.4.4-.4c0 .1 0 .2.2.2zm0 .4l.1.6a3 3 0 01-.3-.3l.2-.3zm.2.8l.1.5h-.1v.1c-.2 0-.2-.2-.4-.3l.3-.3zm-.1.8h.1v.1zm-1 1.5l-.3.1v-.2h.3zm-.3-.3l.1-.1zm0-.2v.2h-.1v.2l-.3-.7.4.3zm-.5-.4l-.2-.5.1-.2c.2 0 .3.2.4.3l-.2.4zm1.9-4l.4 2.8h-.1l-.6-2.8h.3zm-.8.7l.3.5-.4.4c0-.2-.2-.3-.3-.4l.4-.5zm-.8.9l-.4-.5.4-.5.3.6-.3.4zm.3.4l-.3-.3.4-.5.3.4-.4.5zm.5.5l-.4-.4.3-.4.4.4-.4.4zm.4.4l-.4-.3.3-.5.4.4-.3.4z"/><path fill="#e7a425" d="M296.7 48.2l-.2-.4c0-.3.1-.5.3-.6l.3.5-.4.5zm.4.4l-.3-.4.4-.5c0 .2.2.3.3.4l-.4.5zm.4.4l-.3-.3c0-.2.2-.3.3-.5l.4.4-.3.3h-.1v.1zm.2 0l.2-.4.4.3-.1.2-.5-.2zm-.1.2zm.7-.1V49c.2 0 .3.2.4.3h-.1a.7.7 0 00-.3-.2zm-.3.5zm0 .6l-.2-.2.3.2zm-1.2-1.1l-.3-.4.2-.4.4.4-.3.4zm.4.4l-.3-.3.2-.4.4.4-.3.3zm.5.5l-.4-.4.2-.4.4.3v.1h-.3v.1l.1.2zm0 0l.2.2.1.2h-.5l.2-.4zm-.5-.4l.5.4-.2.4-.5-.3.2-.5zm2.2-1.2h.2v.2h-.2zm0-.4h.1v.3h-.1zm-.1-.2l.2-.1v.1l-.2.1zm-.1-.4l.3-.1v.2h-.3zm0-.4h.3v.1l-.3.1zm-.1-.3l.3-.1v.1l-.3.1zm0-.2v-.2h.3v.1zm.6 4.7v-.1.1zm0 .2zm-.5-.2V51v.1zm0 .3v-.1h.1zm-.4-.3zm-.1.3h.1zm-.4-.2zm0 .2h.1zm-.3-.1h-.1zm0 .2zm1.5-.5l.1.2-.1.1-.2-.1.2-.2zm-.5.1l.1.1-.1.1h-.1l.1-.2zm-.4 0v.2h-.1v-.2zm-.4.1v.2h-.2l.2-.2zm-.4.1v.2h-.1v-.2z"/><path fill="#2b2828" d="M297.9 47v.3l-.2-.1zm-.4.4v.5l-.2-.3zm-.5.6v.4l-.1-.2zm-.3.5v.4l-.1-.2zm.7 0v.4l-.2-.2zm.9-.2c-.1.2-.1.3 0 .4l-.2-.1zm-.4-.3v.3l-.2-.2zm.4-.6c-.1.1-.1.3 0 .4l-.2-.2zm-.8-1v.4l-.2-.2zm-.5.6v.3l-.1-.2zm-.4.5v.4-.2zm.5 1.5v.3l-.1-.1zm.1.8l.1.4-.2-.2zm1.4-1v.3l-.1-.2zm-1.1.5v.4l-.1-.1z"/><path fill="#e7a425" d="M297.5 50.7l.7-.2.3.2-.6.1a1 1 0 01-.4-.1zm1.3-1.1h-.4v.1h-.2c-.3-.2-.4-.4-.5-.6.4 0 .8.2 1 .5zm.8-.7l.1.2v.2l-.2-.2V49zm-.7.4l.2.1.1.4-.2-.1-.1-.4zm-.3.6l.3.3h-.6a2 2 0 01-.6-.4h.9zm1.1-.4v.8l-.3-.4c-.2-.3-.3-.6-.2-1l.5.6zm-1.7.8c.6 0 1 0 1.5.4h-.8c-.2 0-.5-.2-.6-.4z"/><path fill="#e7a425" d="M298.6 49.6c.5.1 1 .5 1.2 1-.5 0-1-.5-1.2-1zm1.5 1.7l-.1.1-.2-.1.2-.2.1.2z"/><path fill="#e7a425" d="M300 51c-1.1 0-2 .1-2.4.4v-.2a6 6 0 012.4-.4c1 0 2 .2 2.4.4v.2a6 6 0 00-2.4-.4zm0-2.4l-.2.4-.2-3.1h.2l-.1.2v1l.1.2v1.1s0 .2.2.2zm.2-2.6l.2-.1-.2 3s0-.2-.2-.3l.2-.2v-1.5l.1-.3-.1-.2.1-.3V46zm-.2 5.7c-1.1 0-2 .1-2.4.3v-.2l2.4-.3c1 0 2 .2 2.4.3v.2c-.4-.2-1.3-.3-2.4-.3zm.2-2.1c0 .3 0 .7-.2 1l-.2-1c0-.3 0-.6.2-.9l.2.9zm0-6.8v.3c0 .3.5 0 .6-.1v.8l-.5-.3c-.4 0 0 .6.1.7h-.8l.3-.6c0-.3-.6 0-.7.2V43l.5.2c.4 0 0-.6-.1-.7h.8l-.2.3zm-.2 1.6c.3 0 .6.2.6.6 0 .3-.3.6-.6.6a.6.6 0 01-.6-.6c0-.4.3-.6.6-.6z"/><path fill="#e7a425" d="M300 47.8l.1.2-.1.1-.1-.1v-.2zm0 .4l.1.2h-.2v-.2h.1zm0-.8l.1.2-.1.1-.2-.1c0-.1 0-.2.2-.2zm0-.4l.2.1-.2.2c-.1 0-.2 0-.2-.2l.2-.2zm0-.2c-.1 0-.2 0-.2-.2l.2-.1.2.1c0 .1 0 .2-.2.2zm0-.8l.2.1c0 .1 0 .2-.2.2-.1 0-.2 0-.2-.2 0 0 0-.2.2-.2z"/><path fill="#2b2828" d="M299 52.8c-.9.8-2.6 1.8-4.4 2.2-1.5.3-4.3.1-5.4 0-1.3 0-2.5-.5-3.2-1.2-1.2-1.2.7-2.8 0-4-.6.2-1 .6-2 .7l-.2.8c-.3 1.4 1.1 1.6.8 3-.2.7-.7 1-.9 1.8 0 0 0 .5.4 1-1 0-1.7-1-1.3-1.8.1-.4.5-.7.5-1.1-.5.7-1 .7-2 .4-.4-.1-.4.5-.1 1-.6-.4-.8-1-.8-1.3 0-.6.5-1 1-.8.2 0 .7.4.8-.1 0-.9-1.3-.9-1-2.3.1-.7 1-1.1 2.2-1.3l.6-.6c.7-1.2 1.4-1.5 1.8-1.3l1.1.7c.4.2.7.3 1 .6.5.6 0 1.7-.3 2.3-.2.4-.7 1.3-.5 1.9.3.8 1.5 1.2 2.3 1.4.6.1 2.6.2 3.7 0s3.5-1.7 4.1-2.5l.3-.3c.8-.3 2.5-.3 2.5-.3l-1 1z"/><path fill="#e7a425" d="M297.5 52.3l.9-.3c-.5.9-3 2.5-5 3 1-.4 3.5-1.7 4.1-2.7z"/><path fill="#e7a425" d="M299.4 52c-.6 1.1-3 2.5-5.3 3 2.2-.8 4-2.1 4.5-3h.8zm-16.3-1.4h.2c-.1.3-.2.7 0 1.1l.2-1.1h.2c-.4 1-.2 1.7.2 2.1.6.8.6 1.5.2 2.2-.2.4-1 1.3-.5 2-1.1-.6-.6-1.7-.3-2.1.3-.4.3-1 0-1.2 0 .6-.5 1-1 1-.4 0-1.3-.6-1.5.1 0-.7.5-.5 1-.4 1.4.3 1.3-1.4.8-1.9-.6-.4-1.3-1-.4-1.5v.9l.2-1h.2c-.1.2-.2.6 0 1l.1-1 .2-.1v1l.2-1zm3.5-1.1h.2v1c.2-.4.2-.7.1-1 .8 0 0 1.7-.4 2.5-.1.3-.4 1.3.2 2-.3 0-.9-.7-.9-1.1 0-.8.2-1.2.3-1.5.2-.6.4-1.2 0-1.8h.3c.1.1.3.5.2 1 .2-.5 0-1 0-1z"/><path fill="#e7a425" d="M286.5 49h.9c1.3.8-.7 2.8-.6 4.3.1.9 1.2 1.2 1.8 1.5-1.4-.2-2.3-.9-2-2.2.2-1 1.6-3 .5-3.3-.8-.2-1.8.7-2.9 1-1 0-2.9.1-2.6 1.4.1.4.7.7.9 1 .4.6.1 1.5-.6 1.4-.9-.3-1-.2-1.2.3 0-1.5 1.4 0 1.7-.8.2-.6-.2-1-.6-1.2-.2-.2-.5-.6-.4-1 .1-1.4 1.9-1.2 3-1.5.6-.1 1.5-.7 2.1-.9z"/><path fill="#e7a425" d="M285.5 48l.4.2c-.4 0-.6.3-.9.5.2-.1.8-.4 1-.3h.2s-.5 0-.9.5a2 2 0 011.2-.3l.4.2c-.6 0-1 .1-1.7.6-.6.3-1.6.4-1.6.4l.7-.8c.3-.4.8-1 1.2-1z"/><path fill="#2b2828" d="M283.3 53c.1.4 1 .7.4 1.7.3-.9-.5-1.2-.4-1.7zm7.7-2.1a.5.5 0 01-.1-.4l.1-.4h-.1l.2-.3v-.1l-.2.3h-.1v-1.3.1l.2.2h.1l-.2-.3h1.2l-.2.2-.1.2.1-.1.2-.2V50l-.2-.2-.1-.1.3.3h-.2l.2.5-.2.4v.3h.2V51h.5c1.2.3 2 .9 1.4 2.2a9 9 0 01-.6 1.3v.6h-3.9v-.6l-.5-1.3c-.6-1.3.2-2 1.3-2.2h.5v.2h.2v-.3z"/><path fill="#e7a425" d="M291.8 53.2V53zm2-.1v.4l-.1-.2s0-.2.2-.3v.1zm.2-.2h-.1l-.2-.2.2-.3v.5zm0-.5v-.1.1zm0-.2c-.2 0-.2-.2-.3-.3v-.1c.2 0 .2.3.3.4z"/><path fill="#e7a425" d="M293.8 51.7l-.1.2-.3-.4.3.2zm-.4-.2zm-.2-.1l.1.1c0 .1 0 .3-.2.4a2 2 0 00-.2-.3l.2-.2h.1zm-.2-.1l-.2.3-.2-.3h.4zm-.4.1l.2.2-.2.3zm-.1.5v.1zm-.1.2l.2-.1.2.2-.2.3-.2-.2zm0 .3l.2.2-.3.2zm-.1.5l.2.2-.2.2zm0 .6v-.1zm.9.7zm0-.1l.3-.2-.1.4h-.1V54zm.4-.3c-.1 0-.2-.1-.2-.3l.2-.2.1.2-.1.3zm-1.3-2.7h.2l-.4 2h-.1zm.5.5l.3.3-.2.3-.3-.3.2-.3z"/><path fill="#e7a425" d="M293.4 52.2l-.3-.3.3-.3.2.3-.2.3zm-.3.3l-.2-.3.2-.2.3.3-.3.2zm-.2.3l-.3-.2.3-.3.2.3-.2.2z"/><path fill="#e7a425" d="M292.6 53.1l-.2-.3.2-.2.2.3-.2.2zm1.1-.5l-.3-.3.3-.3s0 .2.2.3l-.2.3zm-.3.4l-.2-.4.2-.3.2.4-.2.2zm-.3.2c0-.2-.1-.2-.2-.3l.2-.3.3.4-.3.2zm-.1-.1l-.3.1c0-.1 0-.2.2-.3l.1.2zm.1.2zm-.5 0h-.2v.1l.2-.2zm.3.3zm-.1.4l.2-.2zm.8-.7l-.2-.3.3-.3.1.3-.2.3z"/><path fill="#e7a425" d="M293.3 53.5l-.1-.2.2-.3.2.3-.3.2z"/><path fill="#e7a425" d="M293 53.8l.1-.2h-.2l.2-.3.2.2-.2.3zm0 .1l.1.2h-.3.1z"/><path fill="#e7a425" d="M293.3 53.6l.2.3c-.1 0-.2 0-.3.2l-.1-.3.2-.2zm-1.5-.7v-.1h.1v.1zm0-.3v-.1h.1v.2zm0-.2v-.1h.1v.2zm.1-.2V52l.1.1v.1zm0-.3v-.1h.2l-.1.2zm0-.3h.2v.1zm0-.1v-.2h.2v.2z"/><path fill="#2b2828" d="M292.9 51.8l.1.1v.2l-.1-.3zm.3.3l.1.1v.2l-.1-.3zm.3.4zm.2.3zm-.5 0l.1.2v-.2zm-.6-.1l.2.2-.2.1v-.3zm.4-.3zm-.4-.3l.2.1-.1.2v-.3zm.5-.7l.2.1-.1.2v-.3zm.4.4zm.2.4l.1.1v-.1zm-.3.9l.1.2h-.1v-.2zm-.1.6l.1.2v-.2zm-.9-.7zm.7.4l.1.1v-.1z"/><path fill="#e7a425" d="M292.6 54.2h.5-.5zm-.3-.6c.2-.2.5-.4.8-.4l-.4.4h-.4zm-.5-.5v.2h-.1V53zm.4.3v.2l-.2.1.1-.2.1-.1zm.3.3h.5l-.4.3h-.3l.2-.3zm-.8-.2l.4-.4-.2.7a2 2 0 00-.3.3v-.5zm1.1.5l-.3.3h-.6c.2-.2.6-.3.9-.2z"/><path fill="#e7a425" d="M292.5 53.6c-.2.3-.6.6-1 .6.2-.3.6-.6 1-.6zm-1.4-.4V53v.2zm-2-.1l.2.2v.2l-.2-.4zm-.1-.2v-.5l.3.3-.2.2zm0-.5v-.1zm0-.2c0-.1 0-.3.2-.4 0 .2 0 .3-.2.5zm.2-.5l.4-.2-.3.4zm.4-.2zm.2-.1h.1l.2.2-.3.3-.2-.4h.2zm.2-.1h.3l-.2.3-.1-.3zm.4.1v.4l-.2-.2s0-.2.2-.2zm.1.5v.1-.1zm0 .2v.2l-.1.2-.3-.3.3-.2.1.1zm.1.3v.4l-.2-.2.2-.2zm.1.5v.4l-.3-.2.2-.2zm-.1.6v-.1l.1.1zm-.8.7zm-.1-.1v.1c-.1 0-.2-.1-.2-.3l.2.2z"/><path fill="#e7a425" d="M289.4 53.8l-.1-.3v-.2l.3.2-.2.4zm1.3-2.7l.3 2h-.1l-.4-2h.2zm-.6.5l.2.3-.2.3-.2-.3.2-.3zm-.5.6l-.3-.3.3-.3.2.3-.2.3zm.2.3l-.2-.2.2-.3.3.2-.3.3zm.2.3l-.1-.2.2-.3.2.3-.2.2zm.4.3l-.2-.2c0-.1 0-.2.2-.3l.2.2-.2.3zm-1.1-.5l-.2-.3.2-.3.3.3-.3.3zm.3.4l-.3-.3.3-.4.2.3-.2.3z"/><path fill="#e7a425" d="M289.8 53.2l-.2-.2.2-.4.3.3-.2.2v.1z"/><path fill="#e7a425" d="M290 53.1l.1-.2.2.2v.1a1 1 0 00-.4 0zm-.1.2zm.4 0v-.1c.2 0 .2 0 .3.2l-.3-.1zm-.2.3zm.1.4l-.2-.2.2.2zm-.8-.7l-.3-.3.2-.3.2.3-.1.3z"/><path fill="#e7a425" d="M289.6 53.5l-.2-.2c0-.1 0-.2.2-.3l.2.3-.2.2zm.4.3c-.2 0-.3-.2-.3-.3l.1-.2.3.2v.1h-.2v.2zm0 .1l.1.1v.1h-.2V54z"/><path fill="#e7a425" d="M289.6 53.6l.3.2-.1.3-.3-.2.1-.3zm1.5-.8h.1v.1h-.1zm-.1-.3h.1l.1.1-.1.1zm0-.2h.1v.1h-.1zm0-.2l.1-.1v.2h-.1zm0-.2l.1-.1v.1h-.2zm-.1-.3h.2l-.2.1zm0-.2l.2-.1v.2h-.2z"/><path fill="#2b2828" d="M290 51.8v.3-.2zm-.2.3v.3l-.2-.2zm-.3.4v.3l-.1-.1zm-.2.3v.3l-.1-.1zm.4 0v.3-.1zm.6-.1v.3l-.1-.1zm-.3-.3v.3-.1zm.3-.3v.3l-.1-.2zm-.5-.7v.3l-.1-.2zm-.3.4v.3l-.1-.2zm-.3.4v.3-.2zm.4.9v.3l-.1-.1zm0 .6v.3-.1zm1-.7v.2h-.1zm-.8.4v.3-.2z"/><path fill="#e7a425" d="M289.9 54.2h.4-.4zm.8-.6h-.4l-.4-.4c.3 0 .5.2.8.4zm.5-.5l.1.1v.2l-.1-.1V53zm-.5.3h.2v.3l-.2-.3zm-.2.3l.2.3h-.3a1 1 0 01-.4-.3h.5zm.8-.2v.6a2 2 0 00-.2-.3 1 1 0 01-.2-.7l.4.4z"/><path fill="#e7a425" d="M290.2 54c.3 0 .7 0 1 .3h-.7l-.3-.2zm.3-.4c.4 0 .7.3.9.6-.4 0-.7-.3-.9-.6zm1-.8l-.2.4V51h.4v2l-.2-.3z"/><path fill="#e7a425" d="M291.6 53.6l-.1.6-.2-.6.2-.6.1.6zm0-4.6v.2c0 .2.4 0 .4-.1v.5s-.2-.2-.3-.1c-.3 0 0 .4 0 .4h-.5l.2-.4c0-.2-.4.1-.4.1v-.5l.3.2c.2 0 0-.4 0-.5h.4v.2zm-.1 1c.2 0 .4.2.4.5 0 .2-.2.4-.4.4a.4.4 0 01-.4-.4c0-.3.2-.5.4-.5zm1.7 4.7zm-1.5-.1zm0 .2zm.3-.2h.1zm0 .2zm.4-.2h-.1.1zm0 .2h-.1v-.1zm.3-.2zm0 .2zm.3-.2zm0 .2zm-1-.1h-.3l.2-.1zm.3 0h-.2v-.1h.2zm.2-.1h.1v.2l-.2-.1.1-.1zm.3 0h.1v.2l-.2-.1.1-.1zm.4.1h-.1v-.1zm-3.5 0h.1zm1.6-.1zm-.1.2h.1zm-.2-.2h-.1zm-.1.2zm-.3-.2zm0 .2v-.1.1zm-.3-.2zm0 .2v-.1.1zm-.3-.2zm0 .2zm1.1-.2h.1v.2l-.2-.1.1-.1zm-.3 0v.2l-.1-.1v-.1zm-.3 0v.2l-.1-.1v-.1zm-.3 0v.2l-.1-.1v-.1zm-.3 0v.2l-.1-.1v-.1zm1.7.1h-.2v-.1h.2zm-.1-.2h-1.8c.3-.2 1 0 1.8 0s1.4-.2 1.7 0h-1.7zm0 .5h-1.8v-.1h3.5-1.7z"/><path fill="#2b2828" d="M291.5 52.4l-.1.1h.2l-.1-.1zm0 0l.2.1-.1.1v.2h-.3v-1.5c0-.1 0-.2.2-.2 0 0 .2 0 .2.2l-.1.2v.9zm0 .3h-.1v.1h.2l-.1-.1zm0-.6l-.1.1v.1h.2l-.1-.2zm0-.3l-.1.1v.2l.2-.2h-.1zm0 0v-.2h-.1v.1zm0-.6h-.2c0 .2.1.2.2.2v-.2z"/><path fill="#e7a425" d="M300 101.2v.4c.4-.2 1.2-1 1.3-1.4l-.1-.2c-.2.5-.7 1.2-1.2 1.2z"/><path fill="#e7a425" d="M300 100.2v.7c.5-.1 1-.8 1-1l-.4-1c.2.2.3.2.5.2V97c.2.4.3 1.6.2 2.2h.2c.2-1.2-.1-3.1-.4-4.5-.4-1.5-.7-2.6-.9-4-.2 1.2-.2 3.1 0 4.8 0 .5 0 4-.2 4.8z"/><path fill="#e7a425" d="M300.7 89.5c-.1 1 .6 3 1 4.1.4 1.1 1 2 1.1 3.4.1 1.5-.4 2.5-1.8 2.4.3.5.7.8 1.2 1 1.2.2 2-.3 2.5-1l.2-.3c-.3-.3-.7-.2-.8 0-.5-1 0-1.5 1-1.6 0-.3 0-.6-.2-.8-.8 0-1-1-1-1.4h.4c-.2-.9-1.1-2-1.8-2.9-.6-.7-1.5-1.7-1.8-3z"/><path fill="#e7a425" d="M301.2 88.5c-.4.7 0 1.3.3 1.8.7 1 1.6 1.7 2.6 2.5.4.3 1 .6 1.2 1.1.3.7.2 1.7-.6 1.8h-.4l.4.6c.6.4 1.4-.1 1.6-.5.8.7.4 1.7-.4 1.9-.8.1-1.8 0-1.7 1 .6-.3 1 0 1.3.4 1 .8 2.2.1 2.7-.8a3 3 0 00.1-1.5c1.1.4.7 1.4 1.2 1.9 0-.8.8-1 .9-1.6.2-.9-.5-2-1.8-2 .7 0 1.2-.3 1.3-.8.2-.9-.3-1.3-.7-1.5.3.6-.5 1.6-1.6 1-.5-.2-1.3-1-2-1.4l-3-1.5a3 3 0 01-1.4-2.4z"/><path fill="#e7a425" d="M302.3 87.6c-.9 1.3-.4 2.7.4 2.7.7 0 1 0 1.4.3-.2-.6-1-.9-1.3-1-.4-.4-.7-.8-.5-2zm7.3-1.3v1a2 2 0 00-.5-.4c.2.4.2 1.1.2 1.6l.4.5.1-.4c-.2-.6-.1-1.1.2-1.5l-.4-.8zm-1.3.1a1 1 0 00-.4-.1l.4 1.1c0 1-.2 2 .7 2.3V89a6 6 0 000-2.3l-.4-.3c.2.5.2 1 .1 1.6-.1-.7 0-1.1-.4-1.7z"/><path fill="#e7a425" d="M306.9 85.7c.6.6.8 1.4.7 2.2 0 .6-.4.8-.1 1.6 0-.5.5-.8.6-1.4.1-1.1-.5-2-1.2-2.4zm-3.9-.4c-.3.7-1 1.3-1.2 1.4-.4 1.3-.6 1.9-.2 2.7 0-1.2.4-1.7.9-2.2 0-.4.4-1.5.5-1.9z"/><path fill="#e7a425" d="M305.7 85.4c-.4 0-1.1 0-1.5.3 1.4-.2 2.3.5 2.4 1.5.1.8-.3 1.6-1.3 1.5 0 .1.4.3.9.3-.6.1-1 0-1.3-.3.3.7 1.6.8 2.2 0 1-1.2 0-3.2-1.4-3.3zm-5.7 4v.8c.7-1.4 1.9-3 1.9-5.3a6 6 0 01-1 2.3c-.2.4-.7.9-.8 1.4l-.1.8zm7.7-4.6l1 1-1.4-.7.7 1c.6.2 1.1.5 1.5.9 0-1.5-.6-2-1.8-2.2zm1.8 0l-.5-.1.8.5z"/><path fill="#e7a425" d="M310.5 85.2l-.8-.3c.1.1.4.5.5 1a3 3 0 00-1-1h-.4c.8.8 1.2 1.7 1.5 2.4.6-.7.5-1.4.2-2.1z"/><path fill="#e7a425" d="M310.7 84.5v.7c.3.7.4 1.6-.5 2.3l-.1-.3c-.2.2-.3.7-.2 1 .1.5.4.9.9 1-.4-.7 0-1.7.1-1.8.4-1 .8-2-.2-2.9zM300 87.3v.9a7 7 0 001.8-3.7c-1.2.3-1.7 1.3-1.8 2.8zm7.5-2.5l-.8-.3.4.4 1 .5-.6-.6zm-4.7-.3h-.2v.4z"/><path fill="#e7a425" d="M303.3 84.4h-.4l-.5 1 .1-1h-.5l-.1 2 .7-.7.7-1.3zm1.4 0h-.5c0 .2-.5 1-.7 1l.4-1h-.4l-.8 2.4a11 11 0 002-2.4zm.9.2l-.7-.3-.1.1z"/><path fill="#e7a425" d="M305.9 84a3 3 0 01-.8.3c.4.1 1 .3 1.2.6l-1.6-.3-.6 1c1.1-.7 2.6-.5 3.7.5-.3-.8-1.7-2-2-2zm1.6-.6l.5.3.8.1-.6-.2-.7-.2z"/><path fill="#e7a425" d="M309.5 83.3l-1 .3c.5.1.8.2 1.2.6l-1.6-.3c.2 0 .5.4.7.5l1.8.6c0-.7-.4-1.3-1.1-1.7z"/><path fill="#e7a425" d="M309.9 83l-.3.3c.6.2 1 .8 1 1 .3.1.7.5.8 1 .2.5 0 1-.1 1.6 0 .5.3 1 1 1-.7 0-1-.2-1.1-.8-.2.5 0 .9.5 1 .4.2.9.2 1.1-.2-1.7-.3-.2-2.2-.8-3.5-.3-.6-1-1.2-2.1-1.3zm-3.3 0l-.2.3 1.2.9-1.4-.5-.2.2c1.1.9 2.4 1 3 1a7.7 7.7 0 00-2.4-2zm.1-2.4v.6c.2.5.6 1 .8 1.2l-.8-.8-.1 1.2.7.4c1.1.5 2.2.1 2.4-.5-.4.4-1.4.8-2.3.2a2 2 0 002-.2c-.7.1-1.8-.1-2-1.4-.2-.1-.6-.4-.7-.7zm0-3.1v2.7c.2.3.6.8 1 1-.4-1-.5-2.4.2-3.6l-.6.3-.2 1.8a5 5 0 010-1.8l-.4-.4zm4.6-.2c0 .4.2 1.7.1 2.5l-.6-2.6c0 .3-.4.3-.5.5V80c.1 1 .8.8 1.2 1 .4-.2 1.1-.4 1-1 0-1-.2-1.7-.3-2.5l-.9-.3zm2.2-.8l1 3.3c-.5-.7-1.2-2.6-1.4-3.2l-.4.6 1.1 3.8c.2.5 1 .4 1.3.6.2-.3 1-.6.7-1.2-.2-.8-1.2-3.1-1.7-3.8h-.6zm2.5-1.1c-.3 0-.7 0-1-.3 0 .1 1.8 2.8 2.1 3.7l-2.2-2.9-.2.6 2.2 4c.4.3.9 0 1.4.2.1-.4.5-.6.4-1.3 0-.5-2.4-3.6-2.8-4z"/><path fill="#e7a425" d="M306.6 76.5c-.1.6.3.7.6 1.2.4-.3 1.1-.4 1.2-.8l.2-2.7-.5.1-.6 2 .2-2.1-.4-.3-.7 2.6zm2.8-2.6l-.2-.3c0 .3-.2.5-.4.5l-.1 2.8c0 .5.6.5 1 .8.4-.3 1-.4 1-1l-.3-2.4-.2.2c-.1-.2-.3-.2-.4-.3l-.1 2c-.2-.7-.2-1.6-.3-2.3zm1.8-.2l-.1.1.3 1z"/><path fill="#e7a425" d="M311.3 73.6l.4 2.1-.7-1.8-.4.3.4 2.4c.2.6.8.5 1.3.7.3-.4.8-.7.5-1.5l-1-2c-.1 0-.3 0-.5-.2zm-4.1.1v-.3l-.5.1v1.7zm6-.7l-.3.4c.2.5.7 1.3.8 1.8a4 4 0 01-1-1.6l-.6.2c.2.4.5 1.3 1 2.1.2.5.9.4 1.3.5.2-.5.5-.8.3-1.2-.3-.7-1.1-1.7-1.5-2.3zm1.3-.8c-.2 0-.2.1-.3.2l1.1 1.5-1.6-1.4c-.2 0-.3 0-.4-.2v.4l1.5 2c.4.4 1 .4 1.6.4.1-.6.4-1 0-1.6l-1.9-1.3zm3-.6l-2.4-.5v.4l1.8.8a8 8 0 01-1.8-.4l-.4.3c.4.1 1 .7 1.8 1 .7.3 1.5-.1 1.8-.3-.1-.5-.3-1.2-.8-1.3zm4-.8l-2-.1v.1h2z"/><path fill="#e7a425" d="M326.1 70.8c-.6-.6-1.8-1-3.1-1h-4l.5.7c1.3.2 2.2 0 3.6.4-1.3.2-3.3.1-3.7.1-.1.2-.4.4-.8.5l4.5.5c1.4.2 2.4-.3 3-1.2z"/><path fill="#e7a425" d="M318.1 69.7h-2.6l-.4.3 2.1.4h-2.6c.3.1.4.3.4.5l2.6.5c1 0 1.3-.3 1.7-.7-.2-.5-.7-1-1.2-1zm-1.1-1.2h-1.2l.1.2 1.2-.2zm4.8-.1l-1.8.2-.1.2 1.9-.4zm-13.3-.4c-.5.5-1 .5-1.8.3V70c1.2.2 2.4-.7 1.8-2zm-7.4-.7v1h.3l-.3-1z"/><path fill="#e7a425" d="M319.8 68.3c-.4-.8-1.2-1-2.2-.8l-2.5.5.5.4h2.3c-.6.3-1.4.4-2 .4l-.2.6h2.6a2 2 0 001.5-1.1zM303 66.9v1.4h.4c-.2-.4-.4-.8-.5-1.4zm.7-.4l.5 1.8h.6c-.2-.3-1-1.2-1-1.8z"/><path fill="#e7a425" d="M326.7 67.3c-1-.5-2.7-.5-3.8-.2l-3 .7.3.4v.2s2.2-.4 3.5-.3a30 30 0 01-4 .8c-.3.4-.6.5-1 .7.3 0 3.9 0 4.7-.2 1.1-.1 3-.8 3.3-2zm-24.5-.7v1.7h.6c0-.7-.4-1.2-.6-1.7zm-2.1 0v1.7h.7c-.1-.6-.5-1.1-.7-1.7zm21.7-.6l-2 .5-.2.2 2.2-.8zm-20.3-1.1s-.4 1.6-.3 2.2l.4 1.2h.4v-2.9c-.3.7-.3 1-.3 1.7a14 14 0 01-.2-2.2zm1.6.2c-.4 1.8 0 2.4.5 3.2h.5c-.3-.6-.6-2.2-.6-3.1V67c-.3-.8-.3-1.2-.4-1.9zm1.5-.5c0 .9.5 1.8 1 2.1-.6-.2-1-1-1-1 .1.3.2.8.4 1 .7.7 1.9.5 2.1-.2-1.3.5-2.2-.6-2.5-1.9zm15.4.8a2 2 0 00-2.2-.2l-2 1-.1.4c.5 0 1.3-.3 2.1-.5-.8.6-2 .8-2.3 1a2 2 0 01-.7.7c1.2-.2 3-.4 4-.9.4-.1 1.1-.7 1.2-1.5zm-3.9-.6l-1.2.7h.2l1-.7z"/><path fill="#e7a425" d="M303.7 63.9c-.3 1.8.2 3.3 1.3 4.4h1.7-.2c-1.7-.7-2.4-2.3-2.7-4.4l.1 1.6c-.2-.5-.2-1.2-.2-1.6zm23.1-.1a7 7 0 00-3.6.5l-2.9 1.3-.3.7c.7-.2 2.4-.9 4.3-1.3a35.4 35.4 0 01-5.3 2.3c.3 0 .4.1.7.3l3.2-.8c1.8-.5 3.7-1.6 3.9-3zm-5-.4l-2.6 1.3.3.1 2.3-1.4zm-19-.6c-.2.5-.8 2-.8 2.4 0 1 .5 1.9.8 2.5 0-1 0-2 .3-2.8l-.1-2.1-.5 2.4.3-2.4zm-1.2-.1a66.6 66.6 0 00-.2 0L301 64c-.2.6-.7 1.8-.7 2.4.1.7.4 1 .7 1.6 0-.9 0-1.7.3-2.6l.2-1 .1-1.7zm17.6-.2c-2.4.2-3.7 2-5.2 3h.6c.3 0 1.6-1 2.6-1.4-.5.6-1.4 1-2 1.5l.6.3 2.3-1.1c.6-.7 1-1.6 1-2.3zm-3.2-.3l-.6.6v.3l.7-.9z"/><path fill="#e7a425" d="M314.6 70c.7 0 .9-.8 1-1.2-.1-.2-.6-.8-1.3-.7a6 6 0 00-1.3.3v-.1c1.4-.3 2.5-1 2.5-2.3-1.1-.8-2.3 0-3 1l-.2-.2c.6-1 1.5-1.3 2.2-2 .6-.8.8-2.2.5-3.4-1.4 1.8-3.7 3.3-4.3 4.8-.5 1.4 1 1.7 1.2 2.7.3 1.2-.4 2-1.8 2.5-1 .3-2.3-.1-2.7-1.1h-.7v1c.2 0 0 0 .2.2l-.2.7v.8c.2 0 .3 0 .4-.2 0 .2-.2.3-.4.4v.2l.4-.2.5-1.4c0-.1.2 0 .1 0l-.4 1.3c-.1.6.4.7.7 1 .4-.1 1 0 1.1-.6l.2-1.3h.1v1.2c0 .5.5.5.8.8.4-.3 1-.3.9-.9l-.4-1.1c0-.1.1-.2.2-.1.1.3.3 1 .5 1.2.3.6.7.2 1.3.2.1-.4.7-.7.4-1.2-.1-.2-.8-.8-.8-1 0 0 0-.1.1 0l1 .9c.4.3 1.3-.3 1.6-.4-.1-.4 0-1-.6-1.4l-1.2-.3V70h1.4zm6.7-9l-2 1.2h.2v.2c.4-.3 1.4-1 1.8-1.5zM303 60l-.8 1.2a11 11 0 00-.5 4.9c.3-2.2 1.3-3.8 1.4-4.7-.4.6-1 1.4-1.2 2.3 0-.5.8-3.1 1-3.7zm23.2.4a7 7 0 00-4 1.3l-3 2-.8 1h.6c.5-.3 3-1.8 4.4-2.3-1.1 1-3.2 2.2-3.7 2.4l.6.5c.8-.3 2.8-1.1 3.6-1.6 1-.8 2.4-1.8 2.3-3.3z"/><path fill="#e7a425" d="M302.8 60c-.8 1-2 2.5-2.4 3.2a8.2 8.2 0 00-.2 3c.4-2.2 1.3-4.3 2.6-6.3zm1.5-.1c-.3.3-1 1-1.1 1.4-.2 1.3-.1 3.6.2 4.7 0-1 .1-2.8.7-3.6a6 6 0 00.6 4.1 9.7 9.7 0 010-4.8c0-.4.3-.8.5-1a5 5 0 00-1.7 1.8c.2-1 .5-1.7.8-2.6zm6.3.2c-.7-.4-1.3-.5-2.4-.3.8 0 2.3-.2 2.7 1.3.2-.3 0-.7-.3-1zm-.1-1l-1.3.1c2.3.1 2.4 1.1 3.3 1.4.7.2 1.6 0 2-.9-.6.4-1.1.4-1.8.2s-1.3-.7-2.2-.8z"/><path fill="#e7a425" d="M304.6 58.6l-1.3 1.8c.3-.7.8-1.4 1.2-1.9a9 9 0 01-1.1.9c-.4.6-.9 2-1 3a9.4 9.4 0 012-2.7l.2-1.1zm13.2.1a8.4 8.4 0 01-2.4 3v1l1.4-1.5c-.3.9-1 1.8-1.4 2 0 .4-.2.7-.3 1l2-1.7c1-1 1.4-2.5.7-3.8zm2.7-1.1c-.6 1-1.8 2.2-2 2.4v.3a17 17 0 002-2.7zM304 58l-1.6 1.7c.2-.5 1.2-1.4 1.5-1.7l-1.3.6c-.3.3-1.6 2.5-2 4 1.3-2 2.5-2.8 3.4-4.6zm2.7-.5a8 8 0 00-2.1 2l-.8 2.3c.4-.6 1-1.1 1.6-1.4.4-.4 1-1 1.5-1.3l.9-1c-.6.5-2 1.6-3 2 .6-.9 1.4-2 2-2.6zm-.7-.6l-1 .1a9 9 0 00-1.6 2.2c1.1-.6 2.1-1.8 2.6-2.3z"/><path fill="#e7a425" d="M304.2 57c-.2.6-1.4 1.3-2.6 1.3a3 3 0 003.1-1.3h-.5zm3.7-.8c.1.1.3.3.5.3l-.5-.3z"/><path fill="#fff" d="M308.9 56l-.8.2.7.3V56zm.6 0l-.2.3-.1.3.3-.3V56z"/><path fill="#fff" d="M309.8 56h-.2c0 .4 0 .6-.5.7l.3.2c.2-.2.4-.7.4-.9z"/><path fill="#e7a425" d="M313.3 57.1c-.2-.5-1-1.1-2-1a12.8 12.8 0 01-4.2 3.9c.2.2.7-.3 1.1-.5.8-.5 1.9-1.2 3-1.3.7 0 1.4.2 1.8.7.4-.4.5-1.3.3-1.8zm11.9-1.2c-.9.5-4.4 4.4-7.7 6.7.4-.2 1.1-.4 1.6-.4.2-.2 2.6-2 3.8-2.6a25 25 0 01-3.4 3c0 .2 0 .4-.2.6 1.2-.7 3.3-1.8 4.8-3.2 1-1 1.7-2.6 1.1-4.1z"/><path fill="#e7a425" d="M311.1 56c.2-.4-.3-.6-.4-.4a7 7 0 01-1.4 2.3l-2 1.3c-.6.3-1.7 1-2 1.7-.5.7-.7 1.6-.7 2.5a7 7 0 012.6-3.7c1-.6 2-1.3 2.6-2 .4-.6 1-1.2 1.3-1.8z"/><path fill="#e7a425" d="M310.4 55.1l-6.8.1-.6-.1.7.5c1.2.6 2.7.7 4.2.5.4 0 1.3-.5 2.1-.2 0 .4-.4 1-.6 1.2l-1.5-.6c-.7-.3-1.7-.3-2.5-.2a6 6 0 01-2 0c.7.6 1.9.7 3 .4-.8.6-1.8 1.7-2 2.8.8-1 2-2 3-2.5a9 9 0 00-2.1 2.8c.9-.5 2.2-1.5 3-2.4-.3.6-.7 1.2-1.2 1.7a6.5 6.5 0 003.5-3.7c0-.2 0-.3-.2-.3zm12.6-3.8c-.6 1-3.1 5.6-4.8 7.5l.3 1c1-1 2.2-3 3.5-4.3-.8 1.8-2.6 4.2-3.5 5-.1.5-.3 1.2-.7 1.6 2.3-1.8 5-5 5.7-7.2.6-2 .1-3.1-.6-3.6z"/><path fill="#2b2828" d="M304.3 66.8c.2.3.4.7.8 1l-.8-1zm4.1 1.5c-.2.2-.6.3-1 .3h.9c0 .2-.2.7-.6 1 .6-.1 1-1 .7-1.3zm3.6-10.7c-.2-.1 0 .2 0 .2-.3 0-.2 0-.2.1l.6.2c0-.2 0-.5-.4-.5zm4.5-2l.2.6c.3-.2 0-.5-.2-.6zm6.5-3.8c-.3.3-1.2 2.2-1.8 3.1l1.8-2.7c.9 1.3-.5 3.9-1 5.1.8-1.1 2.4-4.2 1-5.5zm2.9 8.9a8 8 0 00-3.4 1.2l3-1c-.3 1.6-1.4 2.2-2.2 2.8 1-.5 2.6-1.7 2.6-3zm-.9-4.4c-.4.2-2.3 2.2-2.9 2.7.8-.5 2-1.8 2.8-2.3.2 1.8-1.3 3.3-1.7 4 .9-.8 2.4-2.6 1.9-4.4zm-7.2 2.9a6 6 0 01-.9 1.4l.8-.8c.2.9-.6 2.5-1.3 3 1.4-1 1.8-2.6 1.4-3.6zm1 3.6c-.6 0-1.8.5-2 .8.5-.3 1-.5 1.8-.6-.1.4-.6 1.3-1 1.8.7-.5 1.3-1.5 1.2-2zm7.5 1.2c-1-.1-2.4.3-3 .6 1-.2 1.4-.4 2.6-.4-.3.6-1.5 1.8-2.5 2.2 1.6-.5 2.8-1.7 3-2.4zm-8.6 1.5c.5-.2 1-.2 1.7 0-.1.7-.8 1.2-1.2 1.4a2 2 0 001.5-1.4c-.7-.5-1.5-.3-2 0z"/><path fill="#e7a425" d="M317 66.4l-1.4.3v.2c.3 0 .9-.3 1.4-.5z"/><path fill="#2b2828" d="M313.6 66.1c.5 0 1 0 1.4.2 0 .4-.3.9-.6 1.2.5-.2.9-1 .8-1.4-.3-.2-1-.3-1.6 0zm1.2-4.1l-1.2 1.3c.4-.2.8-.5 1-.8.2.9-.5 2.2-.7 2.4a3 3 0 001-3zm-1.1 2c-.8.4-1.9 1.6-1.9 1.6v.2h.2s1.3-1.2 1.7-1.8z"/><path fill="#e7a425" d="M312.8 64.8l-.9.9h.1s.8-.8.8-1z"/><path fill="#2b2828" d="M314 66.8c-.7.2-1.1.5-1.3.6v.2l.1.1 1.2-.9z"/><path fill="#e7a425" d="M313.3 67.2l-.5.3v.1l.5-.4zm3.5 6.6v.5l2.7 3.1-2.8-2.6v.5l2.8 3.5c.6.6 1.3.3 1.8.3 0-.6.3-1-.3-1.7l-4.2-3.6zm6.7 2.9c-.1-.6-.1-1.5-1.7-2.1l-3.4-1.4-.4.1c.4.2 2 1.2 3 2-1.2-.4-3.3-1.8-3.5-1.8h-.8c.6.4 3.7 2.7 4.6 3.2 1.4.7 1.7.2 2.2 0zm-5.5-5.1l.4.5c.2 0 2.4.5 3.6 1-1.3 0-3.5-.6-3.6-.6v.4c1 .5 3.3 1.1 3.7 1.3.9.3 2.5.2 3-.4a3 3 0 00-2.2-1.5l-4.9-.7z"/><path fill="#2b2828" d="M323.1 70c.8 0 1.8.4 2.2.9-.3.6-1.9.9-2.7.9 1.4.1 2.7-.3 3.1-1-.6-.5-1.8-.8-2.6-.8zm-.1-2.6c.9 0 2-.1 2.7.2-.2.5-1.3 1.3-2.6 1.6 1 0 2.8-.8 3.1-1.7-.8-.4-2.6-.3-3.2-.1zm-5.3.3c.8 0 1.3.2 1.6.6-.2.4-.8.8-1.2.9.6 0 1.2-.4 1.4-1-.3-.5-1.2-.7-1.8-.5zm-3.7.6c.5 0 .9.3 1.1.5 0 .4-.3.8-.6 1 .5 0 .7-.5.9-1-.2-.3-.7-.7-1.4-.5z"/><path fill="#e7a425" d="M320.3 72.8l-2-.6.1.2 2 .4z"/><path fill="#2b2828" d="M322.7 72.5c.7.1 1.4.6 1.7 1.2-.7.5-1.7.4-2.3.3.7.3 2 .3 2.7-.3a2.6 2.6 0 00-2-1.2zm-14.7 24c0 .6 0 2.1-1 2.7 1-.4 1.3-1.7 1.2-2.6l.8.5c-.1-.5-.5-.7-1-.6zm.3-1c1.3.4 1.3 1.4 1.3 2 .4-1.1-.2-1.8-1.3-2zm-.2-1.1c-.4 0 0 .1.2.2.2 0 .3-.2.3-.2h-.5zm1.5-.9c0 .5-.1 1-.8 1.3.6 0 1.2-.6.8-1.3zm-7.9-1.3c.4 1 1.6 2.5 2 4 .2 1.4-.2 2.8-1 3.3.8-.3 1.5-1.7 1.1-3.4-.4-1.5-1.4-2.7-2.1-4zm1.2-.8c.6.6 1.8 1.2 2.2 1.5.9.6 2.5 1.7 2.3 3.8-.2 1.7-1 1.7-1.5 1.7.7.1 1.2-.1 1.5-.6.7-1.5 0-3.6-1.6-4.8l-3-1.6z"/><path fill="#2b2828" d="M306.2 95.6c-.3.4-1.1.5-1.6.4.4.4 1.3.2 1.6-.4z"/><path fill="#e7a425" d="M304.1 84.5h-.1l-.2.4zm2.2-1l.7.3-.6-.3z"/><path fill="#2b2828" d="M322.2 75c.7.4.7 1 .8 1.4-.5 0-.8.4-1.4.2.8.3 1 .1 1.6 0 0-.7-.2-1.1-1-1.6z"/><path fill="#e7a425" d="M319.4 74.4l-1.5-1h-.3zm-1.2 1.6l-1.4-1.5v.2z"/><path fill="#2b2828" d="M320.5 77.3c.6.6.5 1 .4 1.4-.5 0-1 .2-1.5-.3.6.8 1 .5 1.7.5 0-.8.2-1-.6-1.6z"/><path fill="#e7a425" d="M316.1 77.3l-1.2-1.8v.3z"/><path fill="#2b2828" d="M318.1 78.8c.4.9 0 1 0 1.4-.7-.1-1 .1-1.4-.7.3 1.1.8.8 1.4 1 .3-.8.7-.7 0-1.7z"/><path fill="#e7a425" d="M314 78.4l-.6-2a.8.8 0 01-.3-.1v.1z"/><path fill="#2b2828" d="M315.4 79.8c.2 1-.2 1-.4 1.4-.5-.3-1-.1-1.3-1 .2 1.1.8.9 1.4 1.2.4-.7.8-.5.3-1.6z"/><path fill="#e7a425" d="M311.3 78.7l-.2-1.5-.2-.3z"/><path fill="#2b2828" d="M312.3 79.6c0 1-.5.8-.8 1.1-.5-.4-1-.1-1-1-.1 1.1.5.8 1 1.2.6-.5 1-.2.8-1.3z"/><path fill="#e7a425" d="M316.3 70.3l-1.4-.2-.4.1z"/><path fill="#2b2828" d="M317.5 69.9c.8 0 1 .2 1.3.7-.3.4-1 .5-1.4.6.7 0 1.3-.1 1.6-.5-.3-.6-.8-.9-1.5-.8z"/><path fill="#e7a425" d="M316 72l-.9-.3z"/><path fill="#2b2828" d="M317 71.7c.7.2.7.5.8 1-.4.2-.8.4-1.2.3.6.3 1 0 1.4-.2-.1-.7-.3-1-1-1.1zm-1.1 1.7c.4.4.3.7.1 1.3-.4 0-.9 0-1.2-.4.4.7 1 .5 1.4.6.2-.8.3-1-.3-1.5z"/><path fill="#e7a425" d="M314.6 73.2l-.6-.8h-.1zm-1.3 1.2l-.4-.9-.1.2z"/><path fill="#2b2828" d="M314.3 74.9c.3.5 0 .7-.1 1-.5 0-.8 0-1-.3.2.7.6.5 1 .6.2-.5.6-.7.1-1.3zm-1.7.9c.1.6-.2.7-.4 1-.5-.1-.9 0-1-.5 0 .7.6.6 1 .8.2-.4.8-.7.4-1.3zm-2.1.6c0 .6-.6.6-.9.8-.4-.2-.7-.2-.7-.8-.1.9.4.7.7 1 .4-.3 1-.2.9-1z"/><path fill="#e7a425" d="M309.7 74.1l-.2-.1.2 1.3z"/><path fill="#2b2828" d="M306.8 76.3c-.3.7.2.7.5 1.1.4-.3 1-.2 1-1-.1.6-.6.6-1 .8-.3-.3-.5-.4-.5-1z"/><path fill="#e7a425" d="M307.6 75.5l.4-1.1h-.1l-.1-.1z"/><path fill="#2b2828" d="M314 70.5c.6.2.4.6.6 1.1-.5.2-.8.6-1.3.3.5.4 1 0 1.5-.2-.2-.8 0-1-.8-1.2zm.4-1.5a5 5 0 00-1.4.1l-.1.2 1.5-.3zm-.8.1l-.6.2v-.1h.6z"/><path fill="#2b2828" d="M314 71.4a10 10 0 00-1.2-.9h-.2v.3l1.4.6zm-.8-.5l-.5-.2h.1l.4.2zm-.4 1.3c.3.4-.2.6-.4 1-.4-.2-.7.2-1-.1.3.6.7 0 1.2.2 0-.4.6-.5.2-1.1zm-.7.4c-.2-.8-.4-1-.4-1l-.2-.1v.1s.1.5.6 1zm-.3-.6l-.3-.4h.1l.2.4zm-1.6 1.1v-1h-.3l.3 1zm0-.5l-.2-.4h.1v.4zm.7.5c0 .5-.5.4-.7.7-.3-.3-.7-.2-.7-.6 0 .7.4.5.7.8.2-.3.8-.2.7-.9zm-2.7 0c.4-.7.4-1.1.4-1.1l-.1-.1h-.2v1.2zm.1-.5l.1-.6h.1l-.2.6zm.7.7c-.1.5-.6.3-1 .4-.2-.3-.6-.3-.5-.7-.2.6.3.5.5 1 .4-.3.9 0 1-.7z"/><path fill="#e7a425" d="M306.7 71.9l.1-.4z"/><path fill="#2b2828" d="M301 52.8c.9.8 2.6 1.8 4.4 2.2 1.5.3 4.3.1 5.4 0 1.3 0 2.5-.5 3.2-1.2 1.2-1.2-.7-2.8 0-4 .6.2 1 .6 2 .7l.2.8c.3 1.4-1.1 1.6-.8 3 .2.7.7 1 .9 1.8 0 0 0 .5-.5 1 1.2 0 1.8-1 1.4-1.8-.1-.4-.5-.7-.5-1.1.5.7 1 .7 2 .4.4-.1.4.5.1 1 .6-.4.8-1 .8-1.3 0-.6-.5-1-1-.8-.2 0-.7.4-.8-.1 0-.9 1.3-.9 1-2.3-.1-.7-1-1.1-2.2-1.3l-.6-.6c-.7-1.2-1.4-1.5-1.8-1.3l-1.1.7c-.4.2-.7.3-1 .6-.5.6 0 1.7.3 2.3.2.4.7 1.3.5 1.9-.3.8-1.5 1.2-2.3 1.4-.6.1-2.6.2-3.7 0s-3.5-1.7-4.1-2.5l-.3-.3c-.8-.3-2.5-.3-2.5-.3l1 1z"/><path fill="#e7a425" d="M302.5 52.3l-.9-.3c.5.9 3 2.5 5 3-1-.4-3.5-1.7-4.1-2.7z"/><path fill="#e7a425" d="M300.6 52c.6 1.1 3 2.5 5.3 3-2.2-.8-4-2.1-4.5-3h-.8zm16.3-1.4h-.2c.1.3.2.7 0 1.1l-.2-1.1h-.2c.4 1 .2 1.7-.2 2.1-.6.8-.6 1.5-.2 2.2.2.4 1 1.3.5 2 1.1-.6.6-1.7.3-2.1-.3-.4-.3-1 0-1.2 0 .6.5 1 1 1 .4 0 1.2-.6 1.5.1 0-.7-.5-.5-1-.4-1.4.3-1.3-1.4-.8-1.9.5-.4 1.3-1 .4-1.5v.9l-.2-1h-.2c.1.2.2.6 0 1l-.1-1-.2-.1v1l-.2-1zm-3.5-1.1h-.2v1c-.2-.4-.2-.7-.1-1-.8 0 0 1.7.4 2.5.1.3.4 1.3-.2 2 .3 0 .9-.7.9-1.1 0-.8-.2-1.2-.3-1.5-.3-.6-.4-1.2 0-1.8h-.3c-.1.1-.3.5-.2 1-.2-.5 0-1 0-1z"/><path fill="#e7a425" d="M313.5 49h-.9c-1.3.8.7 2.8.6 4.3-.1.9-1.2 1.2-1.8 1.5 1.4-.2 2.3-.9 2-2.2-.2-1-1.6-3-.5-3.3.8-.2 1.8.7 2.9 1 1 0 2.9.1 2.6 1.4-.1.4-.7.7-.9 1-.4.6-.1 1.5.6 1.4.9-.3 1-.2 1.2.3 0-1.5-1.4 0-1.7-.8-.2-.6.2-1 .6-1.2.2-.2.5-.6.4-1-.1-1.4-1.9-1.2-3-1.5-.6-.1-1.5-.7-2.1-.9z"/><path fill="#e7a425" d="M314.4 48l-.3.2c.4 0 .6.3.9.5-.2-.1-.8-.4-1-.3h-.2s.5 0 .9.5a2 2 0 00-1.2-.3l-.4.2c.6 0 .9.1 1.7.6.6.3 1.6.4 1.6.4l-.7-.8c-.3-.4-.8-1-1.3-1z"/><path fill="#2b2828" d="M316.7 53c-.1.4-1 .7-.4 1.7-.3-.9.5-1.2.4-1.7zm-7.7-2.1l.1-.4-.1-.4h.1l-.2-.3v-.1l.2.3h.1v-1.3.1l-.3.2.2-.3H308l.2.2.1.2-.1-.1-.2-.2V50l.2-.2.1-.1-.3.3h.2l-.2.5.2.4v.3h-.2V51h-.5c-1.2.3-2 .9-1.4 2.2.2.4.3 1 .6 1.3v.6h3.9v-.6l.5-1.3c.6-1.3-.2-2-1.4-2.2a.5.5 0 00-.4 0v.2h-.2v-.3z"/><path fill="#e7a425" d="M308.2 53.2V53zm-2-.1v.4l.1-.2s0-.2-.2-.3v.1zm-.2-.2h.1l.2-.2-.2-.3-.1.1v.4zm0-.5v-.1.1zm0-.2c.2 0 .2-.2.3-.3v-.1c-.2 0-.2.3-.3.4z"/><path fill="#e7a425" d="M306.2 51.7l.1.2.3-.4-.3.2zm.4-.2zm.2-.1l-.1.1c0 .1 0 .3.2.4l.2-.3a1 1 0 01-.2-.2h-.1zm.2-.1l.2.3.2-.3h-.4zm.4.1l-.2.2.2.3zm.1.5v.1zm.1.2l-.2-.1-.2.2.2.3.2-.2zm0 .3l-.2.2.3.2zm.1.5l-.2.2.2.2zm0 .6v-.1zm-.9.7zm0-.1l-.3-.2.1.4h.1V54zm-.4-.3c.1 0 .2-.1.2-.3l-.2-.2-.1.2.1.3zm1.3-2.7h-.2l.4 2h.1z"/><path fill="#e7a425" d="M307.2 51.6l-.3.3.2.3.3-.3-.2-.3z"/><path fill="#e7a425" d="M306.6 52.2l.3-.3-.3-.3-.2.3.2.3zm.3.3l.2-.3-.2-.2-.3.3.3.2zm.2.3l.3-.2-.3-.3-.2.3.2.2z"/><path fill="#e7a425" d="M307.4 53.1l.2-.3-.2-.2-.2.3.2.2zm-1.1-.5l.3-.3-.3-.3s0 .2-.2.3l.2.3zm.3.4l.2-.4-.2-.3-.2.4.2.2zm.3.2c0-.2.1-.2.2-.3l-.2-.3-.3.4.3.2zm.1-.1l.3.1c0-.1 0-.2-.2-.3l-.1.2zm-.1.2zm.5 0h.2v.1l-.2-.2zm-.3.3zm.1.4l-.2-.2zm-.8-.7l.2-.3-.3-.3-.1.3.2.3z"/><path fill="#e7a425" d="M306.7 53.5l.1-.2-.2-.3-.2.3.3.2z"/><path fill="#e7a425" d="M307 53.8l-.1-.2h.2l-.2-.3-.2.2.2.3zm0 .1l-.1.2h.2z"/><path fill="#e7a425" d="M306.7 53.6l-.2.3c.1 0 .2 0 .3.2l.1-.3-.2-.2zm1.5-.7v-.1h-.1v.1zm0-.3v-.1h-.1v.2zm0-.2v-.1h-.1v.2zm-.1-.2V52l-.1.1v.1zm0-.3v-.1h-.2l.1.2zm0-.3h-.2v.1zm0-.1v-.2h-.2v.2z"/><path fill="#2b2828" d="M307.1 51.8l-.1.1v.2l.1-.3zm-.3.3l-.1.1v.2l.1-.3zm-.3.4zm-.2.3zm.5 0l-.1.2v-.2zm.5-.1zm-.3-.3zm.3-.3zm-.4-.7l-.2.1.1.2v-.3zm-.4.4zm-.2.4l-.1.1v-.1zm.3.9l-.1.2h.1v-.2zm.1.6l-.1.2v-.2zm.9-.7zm-.7.4l-.1.1v-.1z"/><path fill="#e7a425" d="M307.4 54.2h-.5.5zm.3-.6c-.2-.2-.5-.4-.8-.4l.4.4h.4zm.5-.5v.2h.1V53zm-.4.3v.2l.2.1-.1-.2-.1-.1zm-.3.3a1 1 0 00-.5 0l.4.3h.3l-.2-.3zm.8-.2l-.4-.4.2.7.3.3v-.5zm-1.1.5l.3.3h.6a1 1 0 00-.9-.2z"/><path fill="#e7a425" d="M307.5 53.6c.2.3.6.6 1 .6-.3-.3-.6-.6-1-.6zm1.4-.4V53v.2zm2-.1l-.2.2v.2l.2-.4zm.1-.2v-.5l-.3.3.2.2zm0-.5v-.1zm0-.2c0-.1 0-.3-.2-.4 0 .2 0 .3.2.5zm-.2-.5l-.4-.2.3.4zm-.4-.2zm-.2-.1h-.1l-.2.2.3.3.1-.4zm-.2-.1h-.3c0 .1 0 .2.2.3l.1-.3z"/><path fill="#e7a425" d="M309.6 51.4v.4l.2-.2s0-.2-.2-.2zm-.1.5v.1-.1zm0 .2v.2l.1.2.3-.3-.3-.2-.1.1zm-.1.3v.4l.2-.2-.2-.2zm-.1.5v.4l.3-.2-.2-.2zm.1.6v-.1l-.1.1zm.8.7zm.1-.1v.1c.1 0 .2-.1.2-.3l-.2.2zm.3-.3l.1-.3v-.2l-.3.2.2.4zm-1.3-2.7l-.3 2h.1l.4-2h-.2z"/><path fill="#e7a425" d="M309.9 51.6l-.2.3.2.3.2-.3-.2-.3zm.5.6l.3-.3-.3-.3-.2.3.2.3zm-.2.3l.2-.2-.2-.3-.3.2.3.3zm-.3.3l.2-.2-.2-.3-.2.3.2.2zm-.3.3l.2-.2c0-.1 0-.2-.2-.3l-.2.2.2.3zm1.1-.5l.2-.3-.2-.3-.3.3.3.3zm-.3.4l.3-.3-.3-.4-.2.3.2.3zm-.2.2l.2-.2-.2-.4-.3.3.2.2v.1zm-.2-.1l-.1-.2-.3.2.1.1h.4zm.1.2zm-.4 0v-.1c-.2 0-.2 0-.3.2l.3-.1zm.2.3zm-.1.4l.2-.2-.2.2zm.8-.7l.3-.3-.2-.3-.2.3.1.3z"/><path fill="#e7a425" d="M310.3 53.5l.3-.2c0-.1 0-.2-.2-.3l-.2.3.1.2zm-.3.3c.2 0 .3-.2.3-.3l-.1-.2-.3.2v.1h.2v.2zm0 .1l-.1.1v.1h.2V54z"/><path fill="#e7a425" d="M310.3 53.6l-.2.2.1.3.3-.2c0-.1 0-.2-.2-.3zm-1.4-.8h-.1v.1h.1zm.1-.3h-.1l-.1.1.1.1zm0-.2h-.1v.1h.1zm0-.2l-.1-.1v.2h.1zm0-.2l-.1-.1v.1h.2zm.1-.3h-.2l.2.1zm0-.2l-.2-.1v.2h.2z"/><path fill="#2b2828" d="M310 51.8v.3-.2zm.2.3v.3l.1-.2zm.3.4v.3l.1-.1zm.2.3v.3l.1-.1zm-.4 0v.3-.1zm-.6-.1v.3-.1zm.3-.3v.3-.1zm-.3-.3v.3l.1-.2zm.5-.7v.3l.1-.2zm.3.4v.3l.1-.2zm.3.4v.3-.2zm-.4.9v.3l.1-.1zm0 .6v.3-.1zm-1-.7v.2h.1zm.8.4v.3-.2z"/><path fill="#e7a425" d="M310.1 54.2h-.4.4zm-.8-.6h.4l.4-.4c-.3 0-.5.2-.8.4zm-.5-.5l-.1.1v.2l.1-.1V53zm.5.3h-.2v.3l.2-.3zm.2.3l-.2.3h.3l.4-.3a1 1 0 00-.5 0zm-.8-.2v.6l.2-.3.2-.7-.4.4z"/><path fill="#e7a425" d="M309.8 54c-.3 0-.7 0-1 .3h.7l.3-.2zm-.3-.4c-.4 0-.7.3-.9.6.4 0 .7-.3.9-.6zm-1-.8l.2.4V51h-.5l.2 2 .1-.3z"/><path fill="#e7a425" d="M308.4 53.6l.1.6.2-.6-.2-.6-.1.6zm0-4.6v.2c0 .2-.4 0-.4-.1v.5s.2-.2.3-.1c.3 0 0 .4 0 .4h.5l-.2-.4c0-.2.4.1.4.1v-.5l-.3.2c-.2 0 0-.4 0-.5h-.5l.2.2zm.1 1c-.2 0-.4.2-.4.5 0 .2.2.4.4.4s.4-.2.4-.4c0-.3-.2-.5-.4-.5zm-1.7 4.7zm1.5-.1zm0 .2zm-.3-.2h-.1.1zm0 .2zm-.4-.2zm0 .2h.1v-.1zm-.2-.2h-.1zm-.1.2zm-.3-.2zm0 .2zm1.2-.2h-.2c0 .1 0 .2.2.2v-.2zm-.5.1h.2v-.1h-.2zm-.2-.1h-.1v.2l.2-.1-.1-.1zm-.4.1h.1v-.1zm-.2 0v-.1zm3.4 0h-.1zm-1.5-.1h-.1zm0 .2h-.1zm.2-.2h.1zm.1.2zm.3-.2zm0 .2v-.1.1zm.3-.2zm0 .2v-.1.1zm.3-.2zm0 .2zm-1.1-.2h-.1l.1.2.1-.1-.1-.1zm.2.1h.2v-.1h-.2zm.5-.1h-.1v.2l.1-.1v-.1zm.1.1h.2v-.1h-.2zm.3 0h.1v-.1zm-1.5.1l.1-.1v-.1h-.2l.1.2zm0-.3h1.8c-.3-.2-1 0-1.8 0s-1.4-.2-1.7 0h1.7zm0 .5h1.8v-.1h-3.5 1.7z"/><path fill="#2b2828" d="M308.5 52.4l.1.1h-.2l.1-.1zm0 0l-.2.1.1.1v.2h.3v-1.5c0-.1 0-.2-.2-.2 0 0-.2 0-.2.2l.1.2v.9zm0 .3h.1v.1h-.2l.1-.1zm0-.6l.1.1v.1h-.2l.1-.2zm0-.3l.1.1v.2l-.2-.2h.1zm0 0v-.2h.1v.1zm0-.6h.2c0 .2-.1.2-.2.2v-.2zm-33.1 24.1v-.5h-.2c0 .3 0 .5.2.5zm.4-1l.1-.3v-.2l-.4.1v.1h.2v.2h.1zm1 .3h.2c0-.2-.1-.3-.3-.4l-.2.1h.1l.2.3zm-1 1.8l.2.2.1-.3h-.4zm14 13.9a6 6 0 001-.7v.1h.3l.3-.1c.3-.2.3-.5.4-.8h.2l.3.3v.3c.1.2.2.2.3.1v-.1c.1-.2 0-.4.2-.5l.7.4.3.6.6 1-.2.4c-.5.4-1.3.2-1.9.2H291c-1.4 0-2.6.8-3.8 1.6l-1.2.7.2.7c.2.1.4.6.2.9v.6c.2.4 0 .7-.1.8-.2 0-.6 0-.8-.3a.6.6 0 01-.5-.4c-.6-.2-.8-.7-.5-1l-.8-.5c-.3 0-.8-.3-.8-.8-.6 0-1-.3-.8-1-.3-.1-.5-.2-.6-.6 0-.6.5-1 .7-1.4l-.1-1a.8.8 0 01-.6-.9c-.5-.4-.1-1-.2-1.2 0-.3-.3-.2-.4-.1l.1-.4c-.2-.1-.4-.5-.2-.8l-3.3-7.9c-.4-.1-.5-.3-.4-.6a.8.8 0 01-.6-.7c-.2 0-.5 0-.7-.3l-.8-.6s-.3 0-.5-.3c-.6-.6-.6-1.6-.5-1.7l.8.3.1-.3c-.2-.3 0-.6.2-.7-.1-.2 0-.4.2-.6v-.2h.2v.1c.3 0 .5 0 .5.3.3-.1.6 0 .7.3l.3.1.3-.8s.8.7 1 1.5c0 .4-.3 1-.5 1.2.1 0 .2 0 .3.2v.4c0 .2-.2.4-.4.5.2.1.3.3.3.6v.2c.2.2.4.6.1.8l3.7 7.7c.4 0 .5.5.5.8l.3.1c-.2 0-.2.3-.1.4.1.3.6.3.6 1 .4.2.4.6.3 1l.4.5c.1-.2.4-.2.6 0 .5-.5 1-.3 1.3.5.2.7 1.2 1 1.7 1 .7-.2 1.9-.6 2.5-1z"/><path fill="#e7a425" d="M276.7 77.2c0-.3.2-.5.5-.5.2 0 .5.2.5.5 0 .2-.3.5-.5.5a.5.5 0 01-.5-.5zm9.3 18.5c.2.2 0 .5-.1.6-.2 0-.5 0-.7-.2.3 0 .7-.2.9-.4zm-1.5-1.7c.4 0 .9.3.5.7-.2.3-.9 0-1-.2l-.4-.2v-.1h.3v.2c0-.1 0-.2.2-.1l.1.2v-.3c.2 0 .2 0 .3-.2zm.2-1l-.1.4-.1-.2.2-.2zm-2.4-.2h.3s-.1.3 0 .4c0-.2.2-.3.2-.2v.4c0-.2.2-.3.3-.1v.1h.3l.7-.2c.2.1.3.3.2.5 0 .3-.4.3-.7.1-.4-.3-1-.2-1.2-.4-.2-.1-.2-.4-.1-.6zm2-.9l.1.3c-.1 0-.3-.1-.3-.3z"/><path fill="#e7a425" d="M284.5 91.7c.5.4 1.4 2.4 1.3 3 0 .3-.2.5-.5.6-.4.1-.7 0-.7-.2.6.1 1-.4.8-1 0-.3 0-.5-.2-.8 0 .3-.1.4-.2.5h-.4v-.2c.3-.2.3-.6.1-1 0 .3-.2.4-.3.5h-.2c.1-.3.1-.5 0-.8.2.1.4.2.6.1-.2-.1-.3-.5-.3-.7zm-2.3-.5c.4.4-.1.6-.2 1l.2-.3.2.3h-.1v.1l.2-.1.2.2h.1v-.1l.3.2c.3 0 .3-.3.6-.2 0 0 .3 0 .3.2.1.5 0 .5-.3.6-.4.1-.7-.3-1-.5-.3-.1-.5 0-.7-.2-.6-.2 0-.9.2-1.2zm2-1.4c0 .2-.2.3-.3.4l-.1-.3c.1-.2.3-.2.4-.1z"/><path fill="#e7a425" d="M283.1 89.4c.3.3.4.7.6 1l-.4.4c-.2.3 0 .8.3 1l-.6.3c-.3-.2-.8-1.9-.8-2.3.4 0 .7-.2 1-.4z"/><path fill="#e7a425" d="M293.3 89.5l.2.6c0 .2.4.5.5.7.2.2 0 .4-.4.5l-2.2-.1h-.5c0-.2 0-.3-.2-.4 0 .3-.1.5-.4.5 0 0 .1-.3-.1-.4 0 .3 0 .5-.4.5.1-.2 0-.3 0-.4 0 .4-.1.6-.4.6l-.2-.4c0 .2 0 .6-.3.6l-.2-.4c0 .4-.1.5-.3.6l-.1-.4c0 .3-.1.6-.4.7l-.1-.5c0 .3-.2.6-.5.9l-1.5.9-.5-1.2h1c.3 0 .6-.2.7-.4l-.8.3c-.7 0-1.1-.2-1.4-.8.3.2.7.4 1.1.2-.4 0-1-.2-1-.8.1 0 .2-.4 0-.5l-.1.5-.4-.4v.2h-.3l.4.3c.3.6-.5.9-.8.5a.6.6 0 010-.8l.7-.8c.3-.4.7 0 .8.2a2 2 0 001.5 1.3c.7 0 1.6-.2 2.4-.6.4-.1.4-.2.5 0 .1 0 0-.2 0-.2.2-.1.4-.1.4 0 .2 0 0-.2 0-.2.3-.2.4 0 .5 0 .1 0 0-.2 0-.2l.4-.2c.5 0 1-.4 1-1.1.3.4.4.5.5 1 .3-.2.4-.4.5-.7l.4.3zm-11.6-.4c.1.1.5.2.8 0 .4-.1.5-.4.5-.6.3.3 0 .7-.4.9-.3.1-.8.1-.9-.3z"/><path fill="#e7a425" d="M282 87.1c.1.4.4.5.6.7.2.4.2.9-.2 1-.4.2-.8 0-1-.4 0-.3.2-.6 0-1 .1.3.4.4.5.4 0-.1.2-.5.1-.7z"/><path fill="#e7a425" d="M281.8 87.1v.3l-.4-.1.4-.2zm-4.2-8.7h.3l3.7 7.7c.1.2 0 .4-.2.5l-.5-.1zm8.6 17.9l-.1.3h-.4c.2 0 .4-.2.5-.3z"/><path fill="#e7a425" d="M280.9 86.7c0 .1.4.2.6 0 .3 0 .4-.3.4-.4.2.2 0 .5-.3.7-.2.1-.7.1-.7-.3zm4.4 7v.3l-.2-.1.2-.2zm-2.2.3l.4.1v.2s-.4-.2-.4-.4zm1.5 1.4c0 .2.5.2.9 0 .4-.1.5-.4.5-.6.3.4 0 .7-.4 1-.3.1-1 .1-1-.4z"/><path fill="#2b2828" d="M293.5 90.7c.2 0 .2.2.1.2-.2.3-.7 0-1.5 0 .5-.1 1.4.2 1.4-.2zm-1.9 0zm-.4-.1c.1.1.1.3 0 .4v-.4zm1.9-.5c.4.4.1.7-.2.6.3-.2.3-.3.2-.6zm-10.5-1.9v.4l-.4.2.4-.6zm3.3 7.2c0 .1-.3.3-.4.2l.4-.2z"/><path fill="#e7a425" d="M277.2 78.1V78c.2 0 .4 0 .5-.2l.2.1c0 .1 0 .3-.2.4h-.5zm.1-4.9l.2.2-.3.6.4-.5.1.2-.4.6.5-.4v.1l-.4.5.5-.3v.3l-.5.2h.4v.1h-.5l.4.1v.2h-.5l.4.1-.2.2c-.2 0-.3.1-.4.4l-.2-.1.2-.4-.2-.4h.3c.3-.3 0-.7-.1-.8zm-1.9.5c-.4-.3 0-.4 0-.5 0 0 .3-.2.4.4zm-1.3 1l.8.3c0 .3.2.6.6.6l.2-.2c0 .2 0 .3.2.4l.3.1v.2h-.8l.1-.3-.2.4h-.2l.2-.4-.3.3-.2-.1.3-.3-.4.2-.2-.1.4-.2h-.5l-.1-.2h.6l-.7-.1V75l.5.2-.6-.3v-.2zm1 1.6v-.1l1 .5-.1.1zm2.3-.3v-.3l.3.1v.3l-.3-.1z"/><path fill="#e7a425" d="M276.8 75.7l.2.2s.3.4.7.2c0 .1-.2.3-.4.3l-.6-.2-.2.6c-.2.2-.5.2-.5 0 .4 0 .3-.6.3-.6v-.3h.3v.1l.1-.2zm-1-.7v-.3c-.2-.2-.4-.2-.6-.1l-.2.1c-.1 0 0-.2 0-.2l.1-.2.4-.1c.2 0 .4.3.4.3s0-.3.2-.5h-.1l.4-.2h.1l.3.1c-.2 0-.2.2-.3.1-.2 0-.3.3-.3.4l.2.2z"/><path fill="#e7a425" d="M276.5 74.7c.1.1.4.3.4.6 0 .4-.2.4-.3.6l-.7-.1c-.2-.2-.2-.6-.2-.8zm-1.2-.5h-.2c-.3-.2 0-.3 0-.4 0 0 .2 0 .2.4zm.8-.4c-.3-.2 0-.3 0-.4 0 0 .2-.1.2.3z"/><path fill="#d52c27" d="M300 86c-.3-1-1-2-2.2-2h-2.1c-1.4 0-2.1-.7-2.1-2.3v-13h12.8v13c0 1.6-.7 2.4-2 2.4h-2.2c-1.1 0-1.9.8-2.2 1.8z"/><path fill="#2b2828" d="M305.2 81.8s0-.1-.1 0h-.2l-.7.5h.5s.2 0 .3-.2v.1l.3-.2v.2c.1 0 .2 0 .3-.2 0 .1 0 .2.2 0v.1s.2 0 .2-.2v.8h-.8l-.4.3-.7-.1c-.1 0-.2.4-.4.3l-.3-.3h-.4l-.2-.1c-.2 0-.6.9-.6 1-.2 0-.7-.3-1.3 0-.3-.3-.8-.2-1 0-.2-.6-1.5-.3-1.5-.3l.4-.3-.6-.4c-.6.3-1.5.2-1.7.2-.5-.1-1.2-.4-1.4-1-.2-.2 0-.4 0-.6 0-.2-.1-.5-.5-.6h.7l.2.4v.7c.2.2 1.2.5 1.6.3l.4-.2v-.6c.2-.3.5-.7 1.2-.7.5 0 .7.1 1 .3.3 0 .7.3.8.4l1.3.1v-.6l.4-.4.3.1h.2c-.1.1 0 0 0 .2h.3l-.1.2s.2 0 .1.1c-.1.2-.3.3-.3.5h.1c.2 0 .4-.3.4-.5v-.4s-.4-.2-.2-.2l.4.2s-.2-.3 0-.3v.2h.2l.2.5.2.5c.2 0 .6 0 .8-.2.3-.1.7-.7 1-.3l.1.2-.3-.2v.4h-.1l-.1.2-.2-.1v.2z"/><path fill="#e7a425" d="M300.9 83.4l.1.2-.2-.1zm.2-.1h.1v.1zm.9 0h.3-.3zm-2.4-.1l.4.3-.2-.1-.2-.1zm2.8-.1v.1h-.1zm-2.6 0h.1l.3.2-.4-.2zm2.3-.1zm-2 0l.2.1h-.2zm.2 0l.3.1-.3-.2zm-1.3-.1zm3.5-.2l-.4.2-.4.3.3.2h-.3l.3.2h-.4c0-.1 0 0-.1 0h-.2l.6-.7.6-.2zm2.2.1s.1 0 0 0v.2l-.1-.1v-.1zm-2.9 0zm-1 0l.2.1h-.1l-.1-.1zm-1.5 0zm4.8 0h.2-.2zm-7.1 0h.1zm6.5-.1zm-6.8 0v.1zm3.2-.1v.1zm1.9 0l-.1.2-.4.2-.7.5h-.5l1.7-1zm-4.8-.1v.1zm6.7 0v.1zm-5.2 0zm6.6-.2v.1zm-.1 0v.1zm-.2 0zm-8.5 0v.1zm9.5 0c-.1 0 0 0 0 0zm-.4 0h.2l-.3.2v-.2zm-9.5-.1v.2c-.1 0 0-.1 0-.2zm1.6-.1v.2h-.1V82zm4.5 0zm-1.7 0v.2zm1-.1v.2zm-2.3 0c.2 0 .3.1.5.3-.2 0-.4-.2-.5-.3zm-3.7 0v.1h.2l-.2.1zm5.3 0zm1 0l.1.3zm-.5 0v.1zm2.5-.1h.3-.3zm-2.2-.1l.1.5-.1-.5zm-1.6 0v.3-.3zm3.5 0l.2.1h-.2zm-3.7 0zm3 0h.4-.3v.3l-.1-.3zm-2.5 0l-.1.5.1-.5zm-.1 0v.2c-.1 0 0-.2 0-.2zm-1.8 0l-.2.2.2-.2zm2.5-.1l.1.3v-.3zm4.1-.1v.2h-.1l.1-.2zm-3 0v.1h-.1zm-.4 0l.1.2-.1-.2zm-.5 0l.2.3v.1l-.2-.4zm2.8 0c.1 0 .2.2 0 .1v-.1zm-3.3 0c.1 0 0 .3 0 .4v-.4zm.1-.1l.2.3-.2-.3zm-.3-.2h.1zm5 0h.1s-.1 0 0 0zm.2-.2zm-5.6 0l.1.1v.6c-.1-.1 0-.3 0-.4v-.3zm3.5-.1h.1v.1zm.4 0zm-8.4.3c.1 0 .1 0 0 0zm4.1-.4l.3.3v.4l-.2.4.1-.6-.2-.5zm2.8-.1v.1zm-.2 0h.1v.1z"/><path fill="#e7a425" d="M298.5 80.8c.3.2.3.4.4.6 0-.4 0-.3-.2-.7h.2c.2.2.2.7.2 1 .1-.2.1-.6 0-.8h.1l.1.6V81c.2 0 .2.6.1.8v-.2h-.1v.4h-.1l-.1-.2c-.1 0 0 0 0-.1h-.2v.3s-.4 0-.5.2h-.2c0-.2.3-.3.4-.3h.1c0-.1-.2-.3-.4-.3a1 1 0 00-.5.4c-.2 0 0-.4.4-.5h.4l-.3-.3-.4-.1c.2-.3.6 0 .7.1l-.4-.3.3-.1zm0 2l.1-.4.3-.2h-.3c-.1.2-.2.4-.1.6z"/><path fill="#e7a425" d="M298.1 82l.3-.1s-.2 0-.2.2l-.2.3.1-.4zm.9.5l-.2.1.1.2v-.3zm2.6 0h-.3v.2l-1.7.5-.2.3h-.8l1-.5h.4c.2-.1 1.4-.5 1.6-.4zm-.5.3v-.1zm-3.2-.3v.1h.1-.1zm-2.9-.9l.2.2c0 .1 0 0 .1 0v.1l-.1.1c-.2 0-.1-.3-.1-.4zm3-.2l-.2.2.1-.2zm-2.8 0l.2.2-.2-.2zm2.6-.2h.2l-.1.2h-.2l.1-.2zm-.3.9l.3.3h-.1l-.1-.1V82zm-2 .1h-.1v.1zm.2-.1l-.2.2.1.2.1-.4zm.3.2c-.1.2.2.4.2.5l-.2-.2v-.3zm.5.1zm.4.3l.1.2-.2-.2v-.4.4zm.4-.5v.4l.2.3-.3-.2v-.5h.1zm-2-1.2l-.1.4v-.2c0-.2-.1-.3-.4-.4.3 0 .4.1.5.3zm2.4 1.6zm5.9.2v.3h.2l.2-.4h-.1l-.2.3-.1-.1zm-7.8-.3v.1zm5.5.5l.2.2-.2-.1zm1.1-.2l.1.1h-.1z"/><path fill="#2b2828" d="M300.5 73.3l-.1.6.4-.2v-.3l-.3-.1zm2.8 0l.1 1 .7.1h.2l-.2-.5c-.2-.2-.6-.2-.8-.6zm1.3 8.2s.2.3.2.7h-.9v-1l-.8-1.6-.1-.5c-.2-.5-.6-1-1-1.3h-.5l.2.7c.3.3.6.4.5.5h-.5c0 .1-.3.1-.4 0h-.3l.2.4s.9 2 1 2.6a23 23 0 01-1.2-2.6l-.2-.4h-.2c-.2-.2 0-.5-.1-.8V78h-.3v.2c-.3.8-.7 1-.8 1 0 .3.3.7 1 1.2l.6.3c.2.2.5.5.6.8a4 4 0 01-1 0v-.4c0-.3-.2-.1-.5-.2l-.4-.5-1.1-1 .1-.5-.1-.5c-.3.4-1 .7-1.3.9-.5.4-.8 1.6-.5 2.2l.2.7h-1l.2-.9h-.4c.2-.4.5-1 .5-1.6l.2-1.3.5-.4c0-.3-.2-.6-.2-1.3V76c0-.2-.2-.2-.3-.2-.3.1-.2.7-.2 1 0 .7-.2 1.2-.4 1.6v-.6c0 .3-.5 1-.5 1v-.4l-.5.8V78l-.2.1.2-.8c0-.8-.1-1.4.3-2 .5-.6 1.3-.6 2 .3a3 3 0 011.3-.7l-.4-.7h.7V74c-.2-.2-.7-.5-1-.3l-.3.4-.3-.1-.1.1c-.2-.2-.4 0-.6-.1v.2l-1-.4.3-.4s-.2-.3-.4-.3l.2-.4c-.2-.1-.3-.4-.6-.4l.8-.8 1-.6v-1c0-.2 0-.2.2-.3l-.2-.5s.1-.1.2 0l.2.4h.2l.2.5v.7c.6 0 1.1.2 1.7.5l.1-.3h-.5v-.1s-.1-.1 0-.2c-.4 0-.5-.3 0-.7l.5-.2c.7-.6 1.7.3 1.6 1 0 .3-.3.3-.6.3 0 .2-.2.3-.4.5l.4.5.2.7.4-.1s0 .1.1 0l.3-.3h-.3c0-.2.4-.3.4-.4l.3-.3h-.3l.7-.4-.2-.1c.3-.2.5-.2.8-.2l-.2-.4h.8l.5.1c.1.1.3.5.5.5h.2l-.2.3.8.3-.5.2.2.5.4 1.6-.1.3c-.1.1-1.1.7-1.1.3-.2 0-.3.2-.3.3.2.5.5.8.5 1.3l-.1.6 1-.3c.4 0 .6 0 .7.2.2.3 0 .6-.2 1l-.4 1.4-.5.3h-.5c0-.4.2-.8.3-1l.3.1c0-.2.1-.3.3-.3l.1-.8c0-.3-1.2.3-1.8.4 0 .5.1 1 .4 1.4v.8l.4 1c0 .2.2.6.3.5z"/><path fill="#007eba" d="M296.4 71.2l.4-.2v1l.3.1-1.2 1h-.1l.4-.6-.4.3v.2h-.3c0-.5.8-1.1 1-1.5a8 8 0 00-.9 1l-.1-.1.4-.6-.3.4-.2.1-.2-.1s.8-.9 1.2-1.1zm1.9 1.6l.4 1s-.4-.3-.7-.3l.3-.7zm-.2-.4l.2.4-.5.8-.2.4-.4-.1zm-.1-.3v.2l-.6 1.2-.3.5-.5-.1c.1-.3.6-1.1 1-1.5l.1-.3h.3zm-.8.1h.4l-1.2 1.8h-.2l.1-.2.2-.3-.2.2-.1.2-.5-.1a8 8 0 011.5-1.6zm1 0h.4v.6zm-.5-1.4c.8 0 1.6.3 1.8.7.2.4.2.7 0 .7l-.1-.6c-.1-.2-.3-.3-.6-.4h-.9zm-.2 0l.2.5h-.3l-.1-.5z"/><path fill="#fff" d="M301.6 71.8l.5-.3h-.4a2 2 0 011-.3l-.5-.1s.4-.2.7-.1l-.1-.4c.7-.1 1 0 1.3.6-.1 0-.3 0-.4.2l.6-.2c0 .2-.2.3-.3.4l.4 1c0-.2.2-.2.3-.2l.5 1.5-.1.3c-.2.1-.4.3-.6.2l-.2-.3-.1-.3c-.3-.2-.6-.2-.8-.6-.1-.3 0-.5 0-.8-.2.2-.2 1.3-.1 1.8a14.4 14.4 0 01-2.4-1.3c0 .1 0 .3-.1.2.1 0 .1.2 0 .2-.3 0-.2-.4-.2-.5 0-.1.3-.2.4-.1l.1.2.3-.3h-.2l.4-.4h-.3l.5-.4h-.2zm-4.9 10l.2.4h-.8c.2-.3.6-.4.6-.4zm7.8-.1c.2.1.2.3.2.3h-.6l.4-.3zm-3.8-.3l.5-.2.2.3h-.7zm1-2.7l.4.2h-.4zm2.9-.2l.2.2v.6h-.4l.2-.8zm-4 0l.2.4c-.3 0-.2-.2-.2-.4z"/><path fill="#d52c27" d="M301.3 77.9v.4a.9.9 0 01-.2-.4z"/><path fill="#fff" d="M300.1 77.4l.3.6c-.2 0-.4-.5-.4-.6h.1zm1-.4l.1.8h-.2V77h.1zm4.4-.4c.2 0 .3 0 .4.2v.3l-.2.6-.4 1.2c-.1.1-.3.3-.5.3v-.5h.2c.1 0 0-.3 0-.4h.3c0-.3.2-1 0-1-.3-.2-1 .2-1.6.3l.5-.7 1.3-.3zm-4.5-.4l.4 1.5c.1.5.3 1 .2 1.2 0 .1-.2 0-.2 0v-.7l-.3-2z"/><path fill="#d52c27" d="M300.9 76.1l.2.8h-.2v-.8z"/><path fill="#fff" d="M303.6 76h.2v1.4c0-.6 0-1-.2-1.5zm.4-.3c.2.3.2 1 0 1.5 0-.6 0-1-.2-1.4l.2-.1z"/><path fill="#d52c27" d="M301.2 75.6l.5 1.1-.4.1-.2-.8.1-.4zm-2.4-.1l.2 1h.8l.3.7-1.2.3-.1-2z"/><path fill="#fff" d="M298.5 75h.1l.1 1.9v.7l1.3-.2c0 .3 0 .4.2.6h-.6c-.4 0-.7-.2-.9-.3 0 0 0 .5-.2.8-.4.4-.9.5-1.3.8-.3.3-.6 1.2-.6 1.7v.7c-.2 0-.3.2-.5.3 0 0 0-.4.2-.6l-.3-.1.5-1.5v-1.2c0-.2.6-.2.6-.5l-.2-.8c0-.7 0-1.5.7-1.9a3 3 0 011-.4zm-3 .2c.5-.5 1.3 0 1.6.5l-.2.3c0-.3-.5-.3-.6 0-.2.4 0 .8 0 1.1l-.3 1-.1-1.4v1l-.4.8v-1.1c0 .9-.3 1.1-.6 1.6 0-1 .4-1.4.3-2 0 .2 0 .7-.3 1v-.5c.2-1 0-1.6.6-2.3zm5.4-.5c0 .2.3.8.2 1 0 .2 0 .3-.2.3l-.4-1.2c0-.1.3 0 .4 0zm3.4-.3l.1.2h-.2l.1-.2zm-5.6-.2c0 .3-.1.5.3.7l-.2.1-.4-.3a2 2 0 01-.2-.4h.5z"/><path fill="#fff" d="M298.9 74.2l.3.8-.4-.3v-.5z"/><path fill="#2b2828" d="M304.9 74.1v.1c-.2.1-.2.1-.2 0h.2z"/><path fill="#fff" d="M300.7 73.9l.2.7-.5.1v-.6zm.8 1.8c.1 0 1.3-.3 1.9.1.3.3.4 1 .3 1.5 0 .2-.1.3-.3.4 0 .4 0 .8.2 1.2l.2.4v.6l.6 1.7s-.2 0-.3.2c-.2-.1-.1-.3-.2-.7a5 5 0 00-.7-1.5l-.1-.6a3 3 0 00-.4-.7l-.5-.4-.3-.2-.1-.4v.4h-.3l-.2-.8c.1 0 .4 0 .5-.2l-.4-.8v-.2zm2.1-.1l-1.4-.2h-1l-.2-.6a2 2 0 010-1.5c.5.7 1.8 1.4 2.7 1.7l.2.4-.3.2z"/><path fill="#fff" d="M303.5 75.6l-.1.2c-.3-.3-1.2-.4-2-.2l-.1-.1a5 5 0 012.2.1zM301 73l1.4.9 1.6.6c-.2.1-.2.3-.3.4l-1.1-.5c-.8-.4-1.6-1-1.6-1.3z"/><path fill="#2b2828" d="M304 72.5l.3.3-.2.1zm-2-.3l-.4.3z"/><path fill="#fff" d="M300.2 71.8s.4.5.1.5l-.1-.5zm4.3-.2h.4l-.2.1-.2-.1zm-.3-.1c.3.1.5.6.6.8h-.4l-.3-.7h.1zm-4.5 4.9l-.4.1c-.3 0-.4-1-.5-1.3l.4-.2zm0-2.7h.3v.2h-.3v-.2zm.1-.4h.3v.3h-.4l.1-.3zm0-.4h.4v.4h-.4v-.4zm.5-.5c.4 0 .1.9 0 1.4l-.2-.1v-.3h.1V73l.2.1-.2-.2v-.2l.1-.3zm0 1.6c-.1.2-.2 0-.2 0v-.3h.2v.3zm-.5.1c0 .1.4 0 .5.3 0 .5.4 1.1.5 1.6l.1 1.9s.1.3.4.5v.5h-.3l-1-2.6v-.5s0 .3-.1.2c-.1-.3.2-.5.2-.5-.3 0-.3.4-.3.4l-.5-1.2v-.3h-.1l-.5-1.1v-1.1c.2 0 .3.1.3.3l-.1-.4h-.7l-.3-.7h.5c.4-.2.8 0 1 .3v.5h.2c.2 0 .1-.4 0-.5l-.2-.4.1-.4.4.7c.3.3.4.7.3 1.1v.2h-.3v-.3l-.1.2h-.4l-.1-.4v1.5l.1-1h.4v.4h-.2.2l-.1.3h-.3v.1h.3v.2h-.3c.3 0 .6 0 .7.2h-.3zm.3 4l-.2.6a2 2 0 01-.6.6c0 .8 1.7 1.5 1.8 1.8l-.4.1v-.1c-.2-.2-.5-.1-.6-.3l-.3-.3-1.1-1 .1-.4-.1-.7.1-.5c.5.2.8.3 1.3.2zm-2.8-7.7h.1l3.8 9.2z"/><path fill="#fff" d="M296.8 70.2v-.4l.4-.2h.2s-.2 0-.2.2h.3-.3l.3.1-.2.1h.2v.2c0-.2-.2 0-.2 0l-.1.3.2 1h.3l.3.5-.7.1h-.3l-.1-.4v-1.5zm2.5-.4l.5-.2c.2 0 .5 0 .6.2.5.2.7 1 .4 1.1h-.4v-.2.3l-.4.5c-.3 0-.5-.5-.5-.8h-.3.1l-.4.1v-.2c-.2 0-.2-.2-.2-.3.2-.3.4-.4.6-.5z"/><path fill="#2b2828" d="M300 70.6h.2l-.1.1h-.2v-.1z"/><path fill="#2b2828" d="M299.9 70l.5.3h.2v.5l-.1-.4-.6-.2-.3.1.3-.2z"/><path fill="#fff" d="M296.9 69.1l.2.5-.2-.5z"/><path fill="#2b2828" d="M303.6 71.1h-.5.5zm-1.3.8l-.2.2c.2-.2-.2 0-.3-.1z"/><path fill="#fff" d="M303.8 75.6l.2-.1v.1h-.2zm-.3.2l.1-.2c.1 0 .2 0 .2.2h-.3z"/><path fill="#2b2828" d="M299.9 71.1h.3v.1zm.4-.3v.2h-.2l.2-.3h.1v.1h-.1zm-.7-.2l-.1.2z"/></svg>