<svg xmlns="http://www.w3.org/2000/svg" width="600" height="400"><path fill="red" d="M0 0h599v400H0z"/><g transform="matrix(.23892 0 0 .2393 26.7 -37.9)"><path d="M285 363.5c-12.5.2-25.4 4-38 12.6-56.2 38.2 7.3 111.3 7.3 111.3 5.6-.2 11.7 1.1 18.6 5 15.7-19 31.5-37.4 72.8-12.2 9-9 13.7-20.3 36.6-20.3 23 0 27.7 11.3 36.6 20.3 41.3-25.2 57.2-6.7 72.9 12.2 6.9-3.9 13-5.2 18.5-5 0 0 63.6-73 7.4-111.3a68.4 68.4 0 00-38-12.6c-45-.6-85.8 44.3-97.4 75.4-11.5-31-52.4-76-97.2-75.4z" fill="red"/><path d="M284.5 356.1c-13.8 0-28 3.3-41.8 11.4-68.8 40.3 1.7 122 1.7 122s0 0 0 0a31 31 0 0110-2v-.1s-63.6-73-7.4-111.3a68.4 68.4 0 0138-12.6c45-.6 85.8 44.3 97.3 75.4 11.6-31 52.5-76 97.3-75.4 12.6.2 25.5 4 38.1 12.6 56.2 38.2-7.3 111.3-7.3 111.3h0c3.4.2 6.7 1 9.9 2.1 0 0 0 0 0 0s70.5-81.7 1.7-122c-13.8-8.1-28-11.5-41.8-11.4-45.2.4-86.5 37.7-97.9 68.2-11.3-30.5-52.6-67.8-97.8-68.2zM267 489.6l1.7.7-1.7-.7zm230.7 0l-1.7.7 1.7-.7z" fill="gold" stroke="#000" stroke-width="2.1" stroke-linejoin="round"/><path transform="matrix(1.6379 0 0 1.22933 -314.2 -131.6)" d="M491.4 566.2a66.2 18.7 0 11-132.3 0 66.2 18.7 0 11132.3 0z" fill="red" stroke="#000" stroke-width="1.5" stroke-linejoin="round"/><path d="M382.3 459.9c-22.9 0-27.6 11.3-36.6 20.3-41.3-25.2-57.1-6.7-72.8 12.2-16.1-9-27.8-4.6-38.6 2.5 17.7 22.4 32.8 45.2 39.7 69.6 0-12.7 48.5-23 108.3-23 59.9 0 108.4 10.3 108.4 23 7-24.4 22-47.2 39.6-69.6-10.7-7-22.4-11.5-38.5-2.5-15.7-19-31.6-37.4-72.9-12.2-9-9-13.6-20.3-36.6-20.3z" fill="#fff" stroke="#000" stroke-width="2" stroke-linejoin="round"/><path d="M555.8 476.6a11.6 11.6 0 11-23.2 0 11.6 11.6 0 1123.2 0zM568 452.2a11.6 11.6 0 11-23.2 0 11.6 11.6 0 1123.2 0zM574.5 427a11.6 11.6 0 11-23.2 0 11.6 11.6 0 1123.2 0zM564.9 407.5a11.6 11.6 0 11-8-21.8 11.6 11.6 0 118 21.8z" fill="#fff" stroke="#000" stroke-width="1.0036319999999999" stroke-linejoin="round"/><path d="M539.3 381.6a11.6 11.6 0 1113.9-18.6 11.6 11.6 0 11-13.9 18.6zM532 361a11.6 11.6 0 11-19.2-13 11.6 11.6 0 1119.2 13z" fill="#fff" stroke="#000" stroke-width="1.003644" stroke-linejoin="round"/><path d="M506.5 345.7a11.6 11.6 0 11-23.3 0 11.6 11.6 0 1123.3 0zM476.5 346a11.6 11.6 0 11-23.2 0 11.6 11.6 0 1123.2 0zM443.6 364.2a11.6 11.6 0 11-7.9-21.9 11.6 11.6 0 118 21.9zM208.9 476.6a11.6 11.6 0 1023.2 0 11.6 11.6 0 10-23.2 0zM196.7 452.2a11.6 11.6 0 1023.2 0 11.6 11.6 0 10-23.2 0zM190.2 427a11.6 11.6 0 1023.2 0 11.6 11.6 0 10-23.2 0zM199.8 407.5a11.6 11.6 0 108-21.8 11.6 11.6 0 10-8 21.8z" fill="#fff" stroke="#000" stroke-width="1.0036319999999999" stroke-linejoin="round"/><path d="M225.4 381.6a11.6 11.6 0 10-14-18.6 11.6 11.6 0 1014 18.6zM232.6 361a11.6 11.6 0 1019.3-13 11.6 11.6 0 10-19.3 13z" fill="#fff" stroke="#000" stroke-width="1.003644" stroke-linejoin="round"/><path d="M258.2 345.7a11.6 11.6 0 1023.3 0 11.6 11.6 0 10-23.3 0zM288.2 346a11.6 11.6 0 1023.2 0 11.6 11.6 0 10-23.2 0zM321 364.2a11.6 11.6 0 108-21.9 11.6 11.6 0 10-8 21.9z" fill="#fff" stroke="#000" stroke-width="1.0036319999999999" stroke-linejoin="round"/><path d="M342.5 362c-2.3 2-4.2 3-7.5 7.2 17.4 21.7 30.8 50 36.3 91.7l11-1 11 1c5.6-41.6 19-70 36.4-91.7-3.3-4.2-5.2-5.2-7.5-7.2-12.3 6.2-22.8 14-39.9 15.4-17-1.3-27.6-9.2-39.8-15.4z" fill="gold" stroke="#000" stroke-width="2.1" stroke-linejoin="round"/><path d="M375.2 275.3v17.9h-13.5v12.3h13.5v12.9h14.3v-12.9H403v-12.3h-13.5v-17.9z" fill="gold" stroke="#000" stroke-linejoin="round"/><path d="M412.3 347.4a30 30 0 11-60 0 30 30 0 1160 0z" fill="gold" stroke="#000" stroke-width=".966681" stroke-linejoin="round"/><path d="M342.5 362c12.1 25.1 33.3 54.8 33.4 98.2a57.8 57.8 0 0112.9 0c0-43.4 21.3-73 33.4-98.2-12.3 6.2-22.8 14-39.9 15.4-17-1.3-27.6-9.2-39.8-15.4z" fill="gold" stroke="#000" stroke-width="2.1" stroke-linejoin="round"/><path d="M382.3 317.4c-2.9.3-7 .1-9 1.9v25c-6.9-.4-13.7-1-20.4-2.5-1 5.3-.6 10.8 1.3 15.8a166 166 0 0056.3 0c1.8-5 2.3-10.5 1.3-15.8-6.7 1.5-13.5 2.1-20.4 2.5v-25.5c-2.9-.9-6-1.4-9-1.4z" fill="gold" stroke="#000" stroke-linejoin="round"/><path d="M418.6 498.2s-8.3 8.8-9.1 14.4c-.9 5.7 3.9 16.1 3.9 16.1s10-9.1 13-14c1.6-2.8 2.9-13.6 2.9-13.6l-3.9-.2c-.6 10.3-5.7 11.8-9.1 16.6 0 0-1.6-2.4-1.6-4 0-5.4 6.8-14 6.8-14-.6-2.3-1.8-1.6-3-1.3zM454.8 478s-8.3 8.8-9 14.5c-.9 5.6 3.8 16 3.8 16s10.1-9 13-14c1.7-2.8 3-13.6 3-13.6l-3.9-.1c-.7 10.3-5.7 11.8-9.2 16.5 0 0-1.5-2.4-1.5-4 0-5.4 6.8-14 6.8-14-.7-2.2-1.9-1.6-3-1.3zM477.2 513s-7.7 8.2-8.5 13.4c-.7 5.3 3.7 15 3.7 15s9.4-8.5 12-13a55.8 55.8 0 002.7-12.7l-3.5-.1c-.6 9.5-5.3 11-8.6 15.3 0 0-1.4-2.2-1.4-3.7 0-5 6.3-13 6.3-13-.6-2-1.7-1.4-2.7-1.2zM504 499.4s-7.7 8.2-8.5 13.5c-.7 5.2 3.7 14.9 3.7 14.9s9.4-8.5 12-13a55.8 55.8 0 002.7-12.6l-3.5-.2c-.6 9.6-5.4 11-8.6 15.3 0 0-1.4-2.2-1.4-3.7 0-5 6.3-13 6.3-13-.6-2-1.7-1.4-2.7-1.2zM376 472s-8.2 9-9 14.6c-.9 5.7 3.9 16 3.9 16s10-9 13-13.9c1.6-2.9 2.9-13.7 2.9-13.7l-3.9-.1c-.6 10.3-5.7 11.8-9.1 16.5 0 0-1.6-2.4-1.6-4 0-5.4 6.8-14 6.8-14-.6-2.2-1.8-1.5-3-1.3zM346.2 502.6s8.3 8.9 9 14.5c.9 5.7-3.9 16-3.9 16s-10-9-13-13.9c-1.6-2.9-2.9-13.6-2.9-13.6l3.9-.2c.6 10.3 5.7 11.8 9.2 16.5 0 0 1.5-2.3 1.5-4 0-5.4-6.8-14-6.8-14 .7-2.2 1.8-1.5 3-1.3zM317 484s8.3 8.9 9.1 14.5c.8 5.7-4 16-4 16s-10-9-12.9-13.8c-1.7-3-3-13.7-3-13.7l4-.2c.6 10.3 5.6 11.8 9.1 16.5 0 0 1.5-2.3 1.5-4 0-5.3-6.8-13.9-6.8-13.9.7-2.3 1.9-1.6 3-1.3zM287.8 511.6s8.3 8.8 9.1 14.4c.8 5.7-3.9 16-3.9 16s-10.1-9-13-13.8c-1.6-3-2.9-13.7-2.9-13.7l3.8-.2c.7 10.3 5.8 11.8 9.2 16.5 0 0 1.6-2.3 1.6-4 0-5.3-6.8-13.9-6.8-13.9.6-2.3 1.8-1.6 3-1.3zM259 495.1s8.3 8.9 9.1 14.5c.8 5.7-4 16-4 16s-10-9-12.9-13.9c-1.7-2.9-2.9-13.6-2.9-13.6l3.8-.2c.7 10.3 5.8 11.8 9.2 16.5 0 0 1.6-2.3 1.6-4-.1-5.4-6.8-14-6.8-14 .6-2.2 1.8-1.5 3-1.3z" fill="silver"/><path d="M385.4 396.3a9.1 9.1 0 11-6.2-17.1 9.1 9.1 0 116.2 17.1z" fill="#fff" stroke="#000" stroke-width=".984645" stroke-linejoin="round"/><path d="M384.8 412.5a7.3 7.3 0 11-5-13.8 7.3 7.3 0 115 13.8z" fill="#fff" stroke="#000" stroke-width="1.002991" stroke-linejoin="round"/><path d="M384.1 426.7a5.2 5.2 0 11-3.5-9.7 5.2 5.2 0 113.5 9.7zM384.1 439.2a5.2 5.2 0 11-3.5-9.7 5.2 5.2 0 113.5 9.7zM384.1 453.2a5.2 5.2 0 11-3.5-9.8 5.2 5.2 0 113.5 9.8z" fill="#fff" stroke="#000" stroke-width="1.008882" stroke-linejoin="round"/><path d="M172 564.2v282.9c0 116.6 94.2 211 210.3 211a210.6 210.6 0 00210.3-211V564.2l-23.2 15.2-23.3-15.2V613h-47v-48.7l-23.3 15.2-23.2-15.2V613h-47v-48.7l-23.3 15.2-23.2-15.2V613h-47v-48.7l-23.3 15.2-23.2-15.2V613h-47v-48.7l-23.3 15.2z" fill="silver"/><path d="M172 564.2v282.9c0 116.6 94.2 211 210.3 211a210.6 210.6 0 00210.3-211V564.2l-23.2 15.2-23.3-15.2V613h-47v-48.7l-23.3 15.2-23.2-15.2V613h-47v-48.7l-23.3 15.2-23.2-15.2V613h-47v-48.7l-23.3 15.2-23.2-15.2V613h-47v-48.7l-23.3 15.2z" fill="none" stroke="#000" stroke-width="3"/><path d="M370.2 788.6c-11 0-13.6 8.4-13.6 8.4h-9.4v3.6l-108.3-1.1c-8.3-1.2-9.5-2.4-12.8-3.6a51.3 51.3 0 00-6.8 22.6c0 6.8 3.1 16.4 6.8 22.6 3.3-1.2 4.5-2.4 12.8-3.6l242.5-2.5c12.6 1.7 23.3 4.5 27.9 11.4 2 .4 3.2 3.3 6.4 0 6.2-5.2 3.5-12.7 7.9-17.5 2-2.1 4.9-3.4 8.1-4.3 1.5 4 4.3 6.7 7.6 6.7 4.7 0 8.5-5.7 8.5-12.8 0-7-3.8-12.8-8.5-12.8-3.3 0-6.1 2.8-7.5 6.8-3.3-1-6.2-2.3-8.2-4.4-4.4-4.8-1.7-12.3-7.9-17.5-1.2-1.3-2.1-1.6-3-1.5-1.2 0-2.2 1.2-3.4 1.5-4.6 7-15.3 9.8-27.9 11.4l-91.4-1v-3h-5s-3.9-9.4-14.8-9.4z"/><path d="M541.4 815.6a2.3 6.4 0 11-4.6 0 2.3 6.4 0 114.6 0z" opacity=".9" fill="#fff"/><rect y="804.5" x="253.2" width="230" ry="2.3" rx="19.3" height="4.6" opacity=".9" fill="#fff"/><g fill="gold" stroke="#000" stroke-width="1.5" stroke-linejoin="round"><path d="M409.2 835.8l-113 1.1v31.4h56.5l57.5 95.7H480l-6-9.1c-14-23.5 1.8-54.7-36.8-60.6l-28-58.5z"/><path d="M442.7 835.4l-33.4.4 27.9 58.5c38.6 5.9 22.8 37.1 36.9 60.6l5.9 9 25.2-17.6-6-9c-14-23.5 1.8-54.7-37-60.6z"/><path d="M442.7 835.4l-16.7.2 23.7 49.9c38.7 5.9 22.9 37.1 37 60.6l5.9 9 12.6-8.8-6-9c-14-23.5 1.8-54.7-37-60.6z"/></g><g fill="gold" stroke="#000"><path d="M327.1 814.6a74.1 74.1 0 100 148.3 74.1 74.1 0 000-148.3zm0 10.6a63.5 63.5 0 110 127 63.5 63.5 0 010-127z" stroke-width="1.5"/><path d="M307.7 829.3c7.2 6.7 15.8 12.8 13.3 19.6-2.6 7-3.3 8.7-3.3 10.5 0 5.3 4.3 9.5 9.4 9.5 5.1 0 9.5-4.2 9.5-9.5 0-1.8-.8-3.6-3.3-10.5-2.6-6.8 6-12.9 13.3-19.6-3.7 3.2-11 5.4-19.5 5.4-8.4 0-15.8-2.2-19.4-5.4z" stroke-width="1.5"/><path d="M327.1 825.2c-7 0-13.9 1.2-20.3 3.3 3.4 3.7 11.2 6.2 20.3 6.2 9.2 0 17-2.5 20.3-6.2a63.4 63.4 0 00-20.3-3.3zM386.5 869.2c-6.7 7.3-12.8 16-19.6 13.4-7-2.6-8.7-3.4-10.5-3.4a9.5 9.5 0 00-9.5 9.5c0 5 4.3 9.5 9.5 9.5 1.8 0 3.6-.8 10.5-3.4 6.8-2.5 12.9 6.1 19.6 13.4-3.2-3.7-5.4-11-5.4-19.5s2.2-15.8 5.4-19.5z" stroke-width="1.5"/><path d="M390.6 888.7c0-7.1-1.2-14-3.3-20.3-3.7 3.3-6.2 11.2-6.2 20.3 0 9.2 2.5 17 6.2 20.3a63.4 63.4 0 003.3-20.3zM307.7 948c7.2-6.7 15.8-12.7 13.3-19.5-2.6-7-3.3-8.7-3.3-10.5 0-5.3 4.3-9.5 9.4-9.5 5.1 0 9.5 4.2 9.5 9.5 0 1.8-.8 3.6-3.4 10.5-2.5 6.8 6.2 12.8 13.4 19.6-3.7-3.2-11-5.5-19.5-5.5-8.4 0-15.8 2.3-19.4 5.5z" stroke-width="1.5"/><path d="M327.1 952.2c-7 0-13.9-1.2-20.3-3.3 3.4-3.7 11.2-6.3 20.3-6.3 9.2 0 17 2.6 20.3 6.3a63.4 63.4 0 01-20.3 3.3zM386.5 869.2c-6.7 7.3-12.8 16-19.6 13.4-7-2.6-8.7-3.4-10.5-3.4a9.5 9.5 0 00-9.5 9.5c0 5 4.3 9.5 9.5 9.5 1.8 0 3.6-.8 10.5-3.4 6.8-2.5 12.9 6.1 19.6 13.4-3.2-3.7-5.4-11-5.4-19.5s2.2-15.8 5.4-19.5z" stroke-width="1.5"/><path d="M390.6 888.7c0-7.1-1.2-14-3.3-20.3-3.7 3.3-6.2 11.2-6.2 20.3 0 9.2 2.5 17 6.2 20.3a63.4 63.4 0 003.3-20.3zM267.7 908.1c6.8-7.2 12.8-15.8 19.7-13.3 6.8 2.6 8.6 3.4 10.5 3.4 5.2 0 9.4-4.4 9.4-9.5s-4.2-9.5-9.4-9.5c-1.9 0-3.7.8-10.5 3.4-6.9 2.5-13-6.2-19.7-13.4 3.2 3.7 5.5 11 5.5 19.5s-2.3 15.8-5.5 19.4z" stroke-width="1.5"/><path d="M263.6 888.7c0 7 1.2 13.9 3.3 20.3 3.7-3.3 6.3-11.2 6.3-20.3 0-9.2-2.6-17-6.3-20.3a63.4 63.4 0 00-3.3 20.3zM271.4 860.4c9.8-.3 20.3-2.1 23.3 4.5 3 6.7 3.7 8.5 5 9.8a9.5 9.5 0 0013.4 0 9.6 9.6 0 000-13.4c-1.3-1.3-3-2-9.8-5-6.6-3-4.8-13.5-4.4-23.4-.3 4.9-4 11.6-10 17.6-6 6-12.7 9.6-17.5 10z" stroke-width="1.5"/><path d="M282.2 843.8c-5 5-9 10.6-12 16.7 5 .2 12.3-3.5 18.8-10 6.4-6.4 10.2-13.8 10-18.7-6.1 3-11.7 7-16.8 12zM382.9 860.4c-9.9-.3-20.3-2.1-23.3 4.5-3 6.7-3.8 8.5-5 9.8a9.5 9.5 0 01-13.5 0 9.6 9.6 0 010-13.4c1.3-1.3 3.1-2 9.8-5 6.6-3 4.8-13.5 4.4-23.4.4 4.9 4 11.6 10 17.6 6 6 12.7 9.6 17.6 10z" stroke-width="1.5"/><path d="M372 843.8c5 5 9 10.6 12 16.7-5 .2-12.3-3.5-18.7-10-6.5-6.4-10.2-13.8-10-18.7 6 3 11.7 7 16.7 12zM271.4 917c9.8.3 20.3 2 23.3-4.5 3-6.7 3.7-8.5 5-9.8a9.5 9.5 0 0113.4 0 9.6 9.6 0 010 13.4c-1.3 1.3-3 2-9.8 5-6.6 3-4.8 13.5-4.4 23.4-.3-5-4-11.7-10-17.7s-12.7-9.6-17.5-9.9z" stroke-width="1.5"/><path d="M282.2 933.6c-5-5-9-10.7-12-16.7 5-.2 12.3 3.5 18.8 10 6.4 6.4 10.2 13.8 10 18.7-6.1-3-11.7-7-16.8-12zM382.9 917c-9.9.3-20.3 2-23.3-4.5-3-6.7-3.8-8.5-5-9.8a9.5 9.5 0 00-13.5 0 9.6 9.6 0 000 13.4c1.3 1.3 3.1 2 9.8 5 6.6 3 4.8 13.5 4.4 23.4.4-5 4-11.7 10-17.7s12.7-9.6 17.6-9.9z" stroke-width="1.5"/><path d="M372 933.6c5-5 9-10.7 12-16.7-5-.2-12.3 3.5-18.7 10-6.5 6.4-10.2 13.8-10 18.7 6-3 11.7-7 16.7-12z" stroke-width="1.5"/><path d="M348.3 888.7a21.1 21.1 0 11-42.3 0 21.1 21.1 0 1142.3 0z" stroke-width="1.351977"/><path d="M334.4 888.7a7.3 7.3 0 11-14.6 0 7.3 7.3 0 1114.6 0z" stroke-width="1.499158"/></g><path d="M451.3 640.6c-5.3 34-34 54-34.4 64.7-.3 8.6 15.8 26.1 18.2 41.9l13.2 3.8 2-6.7c2.6-11.9.1-25.2 9.8-36-4-3.6-5.5.8-7.8 3l7.3-26c-2.7-1.6-4.7.8-7 1.8 8-16 .4-31-1.3-46.5z" fill="gold" stroke="#000" stroke-linejoin="round"/><path d="M447.6 654.8c-9.5 25.5-30.3 41.5-30.7 50.5-.2 6.7 9.6 19 15 31.5 6-7.7-12.2-19.7-9.9-29.8 5.8-25.2 20.8-30.9 25.6-52.2z" fill="green"/><path d="M441.7 749c-2.5-15.7-18.5-33.2-18.2-41.9.4-10.5 29-30.7 34.4-64.6 1.7 15.4 9.2 30.4 1.2 46.5 2.3-1 4.4-3.4 7-1.8l-7.2 26c2.2-2.2 3.8-6.6 7.8-3-11.6 12.9-5.8 29.3-11.9 42.7 27.6-37 17.6-137.9 71.2-103.3-38.8-17.7-40.5 41.9-51.5 81 16.9-18.4 19-88.7 52.1-50-21.1-20.5-32.7 35.7-47.8 63.4 18.8-15.8 37.6-66.9 56.4-32.5-41.2-11.3-43.7 80.8-96 75.6-45-4.4-35.6-50.6-40-90.6-.4-4.7-14.2-8.4-13.3-14.1.8-5.5 7.5-8.3 14.6-6.6 21.8 5.4-1.6 51.3 41.2 73.3z" fill="gold"/><path d="M387.8 678.5c-5.3 1.5-10.2 4-16.5 3.3-1.1 5.4 3.7 6.3 6.2 6.4 3.9.2 8.5.5 13.5 1-3-2.1-5.5-4.3-5.1-6.8.2-1.5.9-2.8 2-3.9z" fill="red" stroke="#000" stroke-linejoin="round"/><path d="M395 680.4c4.6-3 7 .7 9.6 3.5-3.1-.8-6.3-.1-9.5-3.5z"/><path d="M395 650a3.3 3.3 0 000 6.5c.8 2.4 1.3 5.8 1.6 9.4l.5 9.4c.7 0 1.4.1 2 .3 0-3-.2-6.4-.4-9.9a52 52 0 00-1.6-10 3.3 3.3 0 00-2-5.8zm-8.2 5.8a3.2 3.2 0 10.9 6.4c2.3 4.4 4.3 8.2 5 13.6a14 14 0 012-.4c-.7-5.8-3-10-5.3-14.4.4-.6.6-1.2.6-2 0-1.7-1.4-3.2-3.2-3.2zm21 .4a3.3 3.3 0 00-3.3 3.2c0 1 .4 1.7 1 2.3a43 43 0 00-4.6 14.2l2 .8c.5-5.3 2.3-9.8 4.5-14h.4a3.3 3.3 0 000-6.5z" font-family="Sans"/><path d="M507 642.5c-9.4-.1-15.7 6.3-20.5 16.2l3.5 9.8c4.6-12.1 11-20.9 21-22l-.7-3.7-3.4-.3zm1.9 26.7c-6 .3-10.3 6.2-14 14.3l4 13.7c5.4-11.5 11.2-20.2 18-21-.5-1.7-.8-3.5-1.2-5.2-2.5-1.4-4.7-2-6.8-1.8zm12.2 30.6c-5.9.3-11.7 5.9-17.6 13.2l3 10.5c5.4-6.8 11.4-11.7 18.8-12.8l-3-10.8h-1.2z" fill="red"/><path d="M481.7 671c-2.4 7.4-4.4 15.7-6.5 24.2l3.4 18.7c2.4-11 4.6-22.5 7.4-32.8l-4.3-10.1zm9.1 22.3c-3.5 9.7-6.8 20.6-10.8 28.8l2.4 14.5c4.5-9.6 8.7-21 13-31.3l-4.6-12zm9 24.5c-5.6 7.6-11.2 16-16.8 22.1 1 5.9 1.8 11.5 2.5 16.7 6.2-9.8 11.7-20.3 17.7-28.8a418 418 0 00-3.3-10z" fill="green"/><path d="M461.5 662a785.4 785.4 0 01-16.5 51.8L459 689l1.5-3.5a43 43 0 001-23.5z" fill="red"/><path d="M463.3 715c-.2 0-13.6 10.7-15.4 20.7-.8 4.4 1.4 12 1.4 12 2.6-4.4 5.6-8 9-11.2.6-7.3 1-14.8 5-21.6z" fill="green"/><path d="M451 663.8c-10.2 21.4-27.2 35.2-27.5 43.4-.3 7.5 11.8 21.6 16.6 35.5l.2-.5c3.2-9.4-7.7-21.2-10.9-30.8-2.1-6.5 9.8-17 12.5-22.6 4.4-8.8 9.4-15.6 9.2-25z" fill="red"/><path d="M441.7 749c-2.5-15.7-18.5-33.2-18.2-41.9.4-10.5 29-30.7 34.4-64.6 1.7 15.4 9.2 30.4 1.2 46.5 2.3-1 4.4-3.4 7-1.8l-7.2 26c2.2-2.2 3.8-6.6 7.8-3-11.6 12.9-5.8 29.3-11.9 42.7 27.6-37 17.6-137.9 71.2-103.3-38.8-17.7-40.5 41.9-51.5 81 16.9-18.4 19-88.7 52.1-50-21.1-20.5-32.7 35.7-47.8 63.4 18.8-15.8 37.6-66.9 56.4-32.5-41.2-11.3-43.7 80.8-96 75.6-45-4.4-35.6-50.6-40-90.6-.4-4.7-14.2-8.4-13.3-14.1.8-5.5 7.5-8.3 14.6-6.6 21.8 5.4-1.6 51.3 41.2 73.3z" fill="none" stroke="#000" stroke-linejoin="round"/><path d="M446.9 787.2c-2.3.2-4.6.2-7 0l-3.2 10.3s-3.6 1.9-6 4l13.8.1c0-1.6-1.4-4.6-1.4-4.6l3.8-9.8zM427.1 784.5l-7.7 12.5c-4.9 1-10.2 2.5-9.5 5.2.9 3 4.5-.6 6.2-.8-.4 2-.6 3 1.2 3.1 1.2.1 2.1-1.1 3.9-2 1.5.7 2.6 3.7 4.8 2 .8-1.2-.3-6.4-.3-6.4s6-8.2 8.3-11.7c-2.5-.5-4.8-1.1-6.9-1.9z" fill="red" stroke="#000"/></g><path fill="#ff0" d="M0 340.8h599v20H0zM1 244.7h599v20H1z"/></svg>