<svg xmlns="http://www.w3.org/2000/svg" height="400" width="600"><path fill="#47a5ae" d="M0 0h600v400H0z"/><path d="M289.7 349c-.4-.9-1.4-1-1.4-.2 0 .5.4 1 .8 1 .5 0 .8-.3.6-.7zm-1.7-.9c.4-.6-.3-2-1-2-1 0-1.4.7-1 1.8.4.8 1.5 1 2 .2zm3.9-.2c.5-.7.5-1 0-1.6-1.1-1-2.6-.4-2.6.8 0 .8.6 1.4 1.6 1.6.2 0 .7-.4 1-.8zm1.6-3.5c0-1.2-.8-1.9-2-1.6-.7.1-1.1.7-1.1 1.2 0 .8.3 1 1.5 1 .9 0 1.6-.2 1.6-.6zm-18.3-4c0-3.5 0-3.6 2.4-6.3 2.1-2.2 2.4-2.9 2.4-4.8 0-1.3.4-2.5.8-2.9.5-.3 1.2-1.3 1.6-2.3.4-1 1-1.7 1.3-1.7.4-.1 1.5-.8 2.4-1.6 1.1-.8 2.2-1.6 2.6-1.6.4 0 .6-.1.6-.4 0-.3.8-.7 1.8-.8 1.3-.3 1.8-.7 2.1-1.7.5-2-.4-2.4-3-1.5-2.5 1-4.2 1-5.4.4-.5-.3-1.2-.4-1.5-.1-.6.4-2.2 3.6-2.2 4.4l-1.4 3.6c-2 4.6-2.1 4.9-2.8 7.6a9.8 9.8 0 01-2.5 4.4c-1 1-2.1 2.5-2.4 3.3a6 6 0 01-.8 1.9c-.7.8 0 2.1 1 2.1.6 0 1.3.4 1.7.8 1.2 1.5 1.4.8 1.3-2.8zm29-7.9c.6-.6 1.1-1.3 1.1-1.7 0-.4.2-.7.4-.7.3 0 .7-.6 1-1.3.5-1 .5-1.2-.2-1.5-1.3-.5-1.6-.4-4 1.8-1.3 1-2.5 2-2.9 2.1-.8.3-.1 1.7 1.2 2.4 1.2.5 1.6.4 3.3-1zm-67-1.3c0-.5.4-1.2.8-1.6.4-.3 1-1.7 1.3-3 .6-2.5.7-4 .6-12.2 0-2.5.1-5.7.5-7.2.5-2.4.8-2.8 2.8-3.7l2.1-1.1 3.2 1.7c3.6 1.8 4.7 1.9 9 .4 2.9-.9 3.4-.6 3.4 2 0 1.6 1.5 5.5 2.2 5.5.1 0 .6.8 1 1.7l1.6 3.5c1 1.5 1.2 1.6 1.8.8.2-.4.5-2.1.4-4.4-.2-2 0-4.1.2-4.5.4-.7.2-1.9-.6-4l-2.2-5.5c-1.2-3.3-3.6-5.2-5.7-4.7-2.1.7-5.9-.5-7.9-2.5a24.7 24.7 0 01-4.6-8.5c-.2-1.4-6.4-7-11.5-10.2-2.3-1.3-5.7-9.3-6.4-14.5a71.4 71.4 0 01-1.5-10.1 22 22 0 00-.6-4.6c-.3-.8-.4-1.7-.2-2.1.3-.4.6-2 .8-3.5.2-1.6.7-3.6 1.1-4.5 1-2.1 1-4.3.1-9.6-.5-4.3-.5-4.4.6-5.5.5-.6 1.3-1 1.6-1 .2 0 1.3-.7 2.2-1.4 1-.6 2-1.3 2.3-1.3.3 0 .7-.1.7-.4l3.8-1.5c5.6-1.6 9.5-1 13.1 2.3.7.5 3 2.1 5.3 3.3 2.6 1.5 5.6 3.8 7.5 5.6 1.7 1.9 3.3 3.1 3.5 3 .2-.2-.2-1.4-.7-2.7-.7-1.3-1.2-2.5-1.2-3 0-1.4-1.7-3.4-3.7-4-4.2-1.1-7-3.4-8.7-6.9a64.3 64.3 0 00-8.7-14l-1-1.7a62 62 0 01-6.4-8.8c-.7-1-2.2-3.2-3.4-4.5-3.8-4.6-4.6-5.6-4.9-7.1-.3-1-.7-1.9-1-2.4-.3-.4-1.1-2.1-1.8-3.9-.7-1.6-1.9-4-2.7-5.2-2-2.9-3-5.4-3-7.3 0-1.7-1.9-4.3-3.1-4-.5 0-1.5-.4-2.1-1l-1.4-.9 1-1.4c1.2-1.5 1.2-1.2-1.4-5.6-.9-1.6-2.4-3.1-3.2-3.1-.2 0-.6.7-.8 1.3-.2 2.6-1.4 2.2-1.3-.4.1-3-1.2-5.8-3.6-7.4a7.4 7.4 0 01-2.7-3.5c-1-3.2-1.4-6-.9-6.1.3 0-.4-2.4-1.5-5.2-1.6-4.8-1.7-5.2-1-6.7.6-1.2.8-1.3 1-.7.2.6.2 1.2-.1 1.8-.4.8-.1 3.2.4 3.2.7 0 2.3-5.5 2-6.8-.5-3-1.7-6-3.2-8.4-1-1.5-1.9-3.2-2-4-.4-1.6-1.3-1.5-1.3.2 0 1.6-.8 1-3.9-3.3-3.3-4.8-4-6.3-2.4-6.8 1.2-.3 1.7.4 2.3 2.8.4 1.5 4.1 4.5 4.4 3.6.1-.4-.6-1.7-1.5-3.2a12 12 0 01-1.6-3.5c0-1.2-2.5-3.6-3.7-3.6-.6 0-1.2-.6-1.5-1.6a5.2 5.2 0 00-1.7-2c-.7-.2-1.2-.9-1.2-1.4 0-1-2.8-5.1-4.2-6.2-.8-.6-1.2-6.2-.5-7.2 1.2-1.4-3.3-8.9-5.5-8.9-.4 0-1-.7-1.3-1.3-.8-1.6-2.1-1.5-2.4.1-.1.7.3 1.6 1 2.4.9.8 1.1 1.3.7 1.3-.4 0-.9.4-1.3.8s-1 .6-1.2.4c-.3-.2-2.1-.4-4-.4l-3.5-.1 3 2.8c3.3 3.2 7.2 5.9 7.8 5.5.8-.4 1.5 2.4 1.4 5.4-.2 3.9.8 5.1 1.8 2.6 1.4-3.4 2.8-3 2.2.5-.4 2.3-1.4 3-2.8 2.1-.8-.4-1.1-.4-1.1.3 0 1 .3 1.6.5 1.5.2-.2.6.4.8 1.2.4.6.4 1.2.2 1.2s-.3.8-.2 1.8c.2 1.9 0 2.2-2.4 3.6-1.3 1-2.5 1.6-2.6 1.4-.2-.3-.4-1.5-.6-2.8a7.5 7.5 0 00-.8-2.6c-.8 0-3.7 1.8-3.7 2.2l-1.7 2.4c-2.2 2.5-2.2 3.8.2 8.1 2.6 4.7 4.2 9.3 4.2 12 0 2.1.8 6.1 2.2 11.3.4 1.2-.5 3-1.3 2.4-.3-.1-.4.3-.4 1 0 .6-.3 1.4-.5 1.7-.7.7.9 4.4 1.7 4.1 1.2-.5 1.7.7 2.3 5.4.9 6.4 1 7.2 1.8 7.2 1.5 0 3.5 2.5 3.8 4.5.1 1.5.6 2.5 2.8 4.7 1.4 1.4 2.9 2.5 3 2.4.7-.4 2.6.2 2.6 1 0 .3.5 1 1 1.5l1.1.7c0-.3.4-.2 1 .1.5.4.9 1 .6 1.5-.1 1 3 6.1 4.7 7.3 1.3 1 1.2 2.1-.4 1.9-1.4-.4-1.5-.3-2.3 6.2-.7 4.2-.4 5 2.7 11.5 1 2.1 1.8 4.1 1.8 4.5 0 .4.7 2 1.6 3.5.8 1.6 1.6 4 1.9 5.7.1 1.8.8 4.4 1.5 6.2a48.2 48.2 0 013.6 16.5 95 95 0 001.2 12.5c.6 3.8.4 4.8-1.9 7.2l-1.6 1.8 1.3 1c.8.7 2 1.5 2.8 1.8.7.4 2 1.8 3.1 3.8 1 1.8 2.5 4 3.3 4.8 1.9 1.9 2.8 3.5 5.1 8.8.4 1 .7 4.4.7 9.6 0 10.8 1.3 14.6 7 20.8 2.2 2.3 2.2 2.7 1.2 5.2-.4 1-.6 1.9-.5 2 .1.2 0 .6-.4 1.1-.5.4-1 2.1-1.2 4-.3 1.7-.5 3.6-.8 4-.4 1 .4 3.6 1.6 5 1.2 1.4 2.4 4.7 3.6 9.1 1 3.9 1.7 5.2 2.7 4.6.2-.2.8.6 1.2 1.6.8 2 1.7 2.5 1.7.9zm66.1-23c2.8-2.5 3.5-3.7 4.2-6a43 43 0 012.9-6.2c1.2-1.7 2.1-3.7 2.1-4.1 0-1.4 1.5-2.6 3.2-2.6 2 0 4.3-2.4 7-7 2.9-5.5 3.7-6.4 6.5-7.6 2.8-1.2 5.5-3.8 5.6-5.4l-.1-4.8c0-.2-.7-.4-1.5-.4-2.1 0-6.1 2.8-7 4.8-.5 1.1-1 2-1.3 2.2-.4.1-.4.5-.2.8.6 1-2.4 4.5-5.1 5.7-1.3.5-1.7.4-3-.7-2.3-1.6-3.3-.9-3.3 2.6 0 2-.2 2.9-1.2 3.8-.6.7-1.2 1.6-1.2 2.2 0 .8-.2 1-2.6 1.6-1 .1-1.4.5-1.1 1 .4 1.1-.3 3.1-1.6 4.7-.7.8-1.5 2.3-1.6 3-.3.9-1 2-1.5 2.5-.9.6-.9.9-.4 2.1.8 1.9.8 2.1-.6 2.8-1 .4-1.2.8-1 1.5.2.8-.1 1.2-.9 1.3-.7.1-1 .7-1 1.6 0 1.3.9 3.9 1.3 3.9a22 22 0 003.4-3.2zm43.9-50.2c1.7-1.2 3.5-3.6 3.5-4.8 0-.5 1.3-2.3 3-4 2-2 3.1-3.6 3.1-4.4 0-2 1.2-4.5 2.7-6.3.8-.8 1.6-2.1 1.7-3 .3-.8.7-1.8 1-2.2 1.1-1.4-.9-1.8-4-.6-1.5.5-2 1-2 3.3-.2 1-.3 2-.5 2-2 1.5-3.3 2.7-4.4 4.3-1 1.6-1.2 2.4-1 4.2l.2 2.4-2.4 1.1c-2.4 1-2.5 1-2.8 3.9-.1 1.4-.4 3.3-.6 3.8-.4 1.5.5 1.6 2.5.3zm19.5-35.3c0-1.1-.7-1.4-1.6-.8-.6.2-.6.5 0 1.2.6.9 1.6.6 1.6-.4zm.9-2.6c.8-.8-.3-1.8-1.5-1.6-1.2.4-1.3.8-.4 1.6.8.8 1.1.8 1.9 0zm-5.5-5.6c-.2-1-2.4-1.3-2.9-.4-.7 1 .7 1.9 2 1.6 1-.1 1-.4 1-1.2zm21.8-10.1c.4-.4 1-1.7 1.6-3 .5-1.4 1-2.7 1.3-3 .3-.3.4-1 .4-1.9 0-.6.7-2.4 1.3-3.7 1.5-2.7 1.1-3.3-1.2-2.3-.9.4-1.4 1.2-1.7 2.4a20 20 0 01-2.1 6c-.2.3-.4 1-.4 1.5 0 1.2-1.1 2.5-2.7 3-.8.3-1 .6-.4 1.1.7.8 2.7.8 3.9-.1zm7.8-20.7c.4-.2.4-.6-.4-1.6-.9-1.2-.9-1.2-1.8-.4-.7.7-.7 1.1-.2 1.8.7.8 1.5.9 2.4.2zm3.6-8.4c.3-.5-1.2-2.4-1.7-1.8-.4.4.3 2.5 1 2.5 0 0 .5-.3.7-.7zm-1-.2c-.2-.2-.3-.6-.3-.8 0-.4.1-.4.5 0s.6.8.4.9c-.1.1-.4.1-.6-.1zm2.8-7.1c0-1.9-.7-3.2-1.5-2.7-.7.4-.8 4.6-.3 5.1.7.7 1.8-.8 1.8-2.4zm.6-11.3c.2-.4-.1-1.1-.6-1.6-1.8-1.6-3.2-.6-1.5 1.2 1.2 1.3 1.7 1.4 2.1.4zm-3-7.6a2 2 0 00-1.8-.2l-1.2.4 1.2.7c1.5.7 2.7.1 1.8-1zm20.4-2.4c0-.7-1.5-1.5-2.4-1.5-.4.1-.7.3-.7.5v1.4c0 .5.4 1 1 1.2.9.1 2-.8 2-1.6zm-10.6-9c.2-.1-.5-.4-1.6-.4-1.4 0-1.7.3-1.2.7.6.7 2.3.5 2.8-.3zm0-7.7c.3-1 .8-2.3 1.2-2.8 1.5-2.7.2-4.3-2.1-2.5-.7.5-1 1.3-1 4.1 0 3.7 1 4.4 2 1.2zm-3.6-4c.3-1.2 0-2.1-.8-2.1-.6 0-2.5 2.1-2.2 2.6.5 1 2.6.4 3-.5zm18-3.2c.7-1-1-2.1-2.8-1.7-1.4.2-2 1.2-1.2 2 .6.5 3.8.4 4-.3zm-9.2-6.3c.8-.9.3-1.7-1.4-2.1-1.1-.3-1.4-.1-1.8.8-.5 1.7 1.8 2.7 3.2 1.3zm-9-2.6c0-1.1-2.2-1.9-3.2-1.2-1.5.6-.6 2 1.4 2 1.2 0 1.8-.3 1.8-.8zm10.6-5.1c.8-1.3.8-1.6 0-4-.6-1.7-.9-3.2-.6-4.4.4-2.1-.2-2.8-2.4-2.8-1.6 0-1.6.1-1 1.6.4.5.4 1.2.3 1.6-.7 1-.8 7.6-.3 8.7.8 1.4 3 1.2 4-.7zm-12.8-9.9c0-.4-.4-1.2-.8-1.8-.8-1-1-1.1-1.6-.4-.5.5-.4.9.2 1.8.9 1.2 2.2 1.5 2.2.4zm15.1-15.2c2 .2 3-.2 3-1.2-.2-.8 1-3 3.1-6.2 1.9-2.7 2-4 1.1-8.2-.7-2.8-.7-3 .1-3.7 1-.5 1-.8-.5-3.7-1-1.8-2.3-3.5-3-4-1.3-.8-1.3-.8-1.5 0-.3.5-.7 1.8-1.1 2.9-.5 1.5-.5 2.4-.1 3.3.9 2.4.8 7-.2 8-.5.6-1.2.8-1.4.7-.3-.1-1.6 1-3 2.8-1.3 1.7-2.6 3-2.9 3-.7 0 .3 1.5 1.2 1.8.5.1 1 1 1.3 2 .6 2.5 1.2 3.7 1.8 3 .2-.3 1.2-.6 2.1-.5zm-8.8-3.2c0-1.2-.1-1.2-1.9-.4-.9.6-1 .8-.6 1.1 1.3.8 2.5.4 2.5-.7zm3.5-20.9c.2-1.6-1.4-2.8-3-2.5-2 .5-2.8 1.6-2.1 2.8.7 1.3 4.8 1.2 5-.3zm16.1-1.5c1.2-1.4 1.3-2.1 1-4.2-.2-2.7-.7-3.8-2-3.8-.9.2-3.3 1.6-2.3 1.6.2 0-.2.4-.8.8-1 .8-1.1 1.2-1 3a5 5 0 001.8 3.3c.8.7 1.6 1.2 1.7 1.2.1 0 1-1 1.6-1.9z" fill="#fff"/></svg>