<svg xmlns="http://www.w3.org/2000/svg" height="400" width="600"><path d="M0 0h600v400H0z" fill="#fc0" fill-rule="evenodd"/><path d="M180 0h108v400H180z" fill="#fff" fill-rule="evenodd"/><path d="M0 145.7h600v108.6H0z" fill="#fff" fill-rule="evenodd"/><path d="M259.8 178.7v48c-1.4 14.7-20.8 2.2-25 12.2-3.9-10.3-25.4 2.8-25-12.2v-48h50z" fill="#2c2c2b" fill-rule="evenodd"/><path d="M265.1 236.4c0 .2.3.6.3 1 0 .7 0 1.7-.3 2.3-.1.3-.4.6-.7.9h-.1c.6-.6.8-1.3.5-1.6-.2-.1-.5-.1-.8 0 .9-.8 1.3-3.2-.4-1.8 0-3.1-2.8-2-2.2.1.1.4-.9-.4-1 .2-.1.3 0 1.2.6 1.8-.5-.3-1.3-.5-1.4-.3-.3.5.3 1.4.6 1.9-.3-.4-1.3.2-1.7.4.2-1.2-2-.4-3.1.1-.2-.2-.5-.5-.1-.6a7 7 0 002-.8c0-.1 2.8-2.2 2.7-2.3 0-.5-.2-.7 0-.9l2.3-2c.4-.4-.4-1.8-2.4-3.4-1.3 1-2 2.2-3.7 3.4l-1.2 1.4c-.8-1.3-2.3 2-2.4 2.3-1-.3-1.7 1.9-2.2 2.5 0-.3-.1-.4-.4-.5l-1-.1c-.4 0-.8.2-1 .4l-.5-.2c-.8-1-1.4-2-2.3-2.1-1.6-2.5-2.8-2-4.1-1.6-1.6.9-3 2-4.2 3.2-1.1-.9-3-.9-4.8.2a18 18 0 00-2.4-2.6c-1.5-1.7-2.9-1.4-4.2-.3-2.6 0-4 .8-4.1 2.2-.2.9-.2 1.7.2 2.5l-1.4.4c1.3-2.7-1.4-3-3-.8-.1-1.8-1-2.5-2-3.2.2-2.1-.8-2.5-2.4-3-.4-1.8-1.4-2.6-3.2-2.3-.9-1.3-1.7-1.1-2.8-.6a14 14 0 001.4-4.3c0-3.6-1.1-6.3-3.5-8.2a14 14 0 00-2.2-1.4c.6-.3 2-.2 1.2-1.9 0-.2 0-.4.4-.7 1.3-.1 1.9-.6 1.5-2.5 1.2 0 2.5-1 1.6-3 1.3-2.2 0-3-1.9-2 2-1.8 2-4.2 2.2-6.3a17 17 0 00-1-3.3c.7-.3 1.2-.9 1-2.7 1.4-.9 2.2-1.9.6-3.9 1.3-4.3-1.9-3.8-3-1.8-1.6 0-2.1 1-1.8 2.5-.7.1-1.2.4-1.1.9l-.4-.4v-1.3c.7-1.3.4-.5.8-1.6 0-.3.8-.2 1-.5l2.4-2.6c1.2-.3 2-1 1.6-2.8 1.2-1 1.3-1.8.6-2.6.7-1 1-1.8-.1-3 .1-1.3.2-2.2-1-2.4v-.5c.8-.7 1.6-1.4.8-2.9 1.2-.8 1.9-1 1.4-2.4l3-1.8c-.5 1.1-.7 3.3-.3 4.5.4 1.1 1.2 1.5 2 1.8 5.3 1 9.7 1.3 15 1.6l.4.3c.2 0 .3-.4.3-.6.4.8.8 1.1 1.9.8.5.7 1.2.8 2.1.6l1 .8a2 2 0 001-.8c.8.1 1.6 0 2-.6 1.2.3 2 .4 2-.8.2.1.2.3.3.4l.4.4c.2 0 .2-.2.3-.4 3.8 0 8.6-.2 12.5-1 1.4-.5 2.4-1 3.6-1.6 1-.7 1.6-1.7.8-3.9l1.1-2.7 2.8 1.9c0 .3.4.7 1 1-1.4.2-1.5 1 .4 2.2-.3 0-.5.2-.5.7.2.5.4.8 1 1.3-2.7.1-3.5 2-3.6 4.3.6.7 1.5 3.5 2 4.3 0 .4 0 1.2.8 1.4-1.3.7-.1 1.2 1 2-.6.2-.3.7-.5.8.4 1 .7 1.7 2 1.7.1.4.3 1 .5 1.2-.4-.6-.8-.8-1.2-.1-.2-.6-.5-.8-1-1.1l-.8-2.4c-1.7 2.5-2 2.8-2.3 4.8.6 1.6 1.5 3 2.5 4.3l1.6 1.1-.7.8c-2 2.8-2 4.5-1.4 6.4l1.2 1.8-2.2-1.8a12 12 0 00-.6 5.7l1.6 1c.2.7.4 1.5 1.4 1.7 0 .9-.2 1.4 1.8 1.4-1 .4-1.6 1.8.8 1.7-1.2 1-.2 1.8.3 1.7-2.2 2-4 4-5 6.8-1 2.2-.7 4-.5 5.7.8 1.8 1.4 3.6 2.7 4.3 0 .5 0 1.1.4 1.5.3.2.7.1 1-.2v.5zm10.1-21.6l-.3 2-1.8-.3c.8-.8 1.5-1 2.1-1.7zm0 2.2l.5-2.7.1-.2a4 4 0 00-.3-2.4c.6.1 1.7-.2 2.4-1 .5-.3 1.5-.3 1.7-.4.9-3 .8-5.3-.7-7.1l-4 3.1c.8-.8.8-1.1 1.2-2.3l3-3c1.1-5.3-.6-6.4-3.6-6.1l-2.8 4.7c-.7 2.8-.5 1.2-.6-.6l-1.9 1c1.8-1.9 4.3-4.6 6-6.8 1.8-3.5.5-5.7.1-6.5l2.7-.8c2.6-4-1.3-5.5-2.7-5l-.2.3v-.8c.4-.2.7-.5 1-1 .9-.6 2.3-.9 2.5-2 .6-2.3 0-3.9-3.5-4.5l-1.6 2.7-.3-.7-2.8-5c.7-.3 2-1 1-1.5l4-1.8c.3-.6 3.9-6.2-2.8-7.7-1.4 1.7-2.1 3.4-3.3 5.3l-.8 1.5v-1c.5-.5 1-1.2.8-2 .3-.2.5-.5.7-.9.1-.3.2-.7.1-1 .6-.1.7-.5.8-1 1.2-1.6 2.5-2.7 3.6-4.3-.6-5-3.2-4.6-6.2-3.4-.9 1.7-1.4 4.1-1.9 5.8-.5.5-.9 1-.4 2.1-.8 0-1 1-.6 1.9-.6-.2-1 .1-1 .6v.7c0 .3 0 .6.2.9-.1 0-7.1-4.7-11.5-4.6-2.2.3-2.6 1.4-2.8 2.6.2 2.4-.6 3.8-1 5-.8 2 .2 2.2 2 3-1.3.3-3.5.4-5 .4-.2-.7-.5-1-1.3-1.5v-1.4h-1.8v1.4c-1.8.8-1.7 2.3-1.1 3.5-1 .2-1.9 0-2.7-.4.5-.1 1.4.5.8-.7 1.5.3 1.3-.3 1.4-.6-.8-.3-.4-.6-.4-1 0-.6-.1-.9-.3-1.2-.4-.3-.8-.4-1.2-.5v-.2c-.7-.1-1.4 0-1.6-.3v-1.8l.6-.3.6.2c0 .6 0 1.1.3 1.7.4.7 1.1.5 1.5-.3 1 1.5 1.8.6 1.8 0 1.4.6 1.6.2 1.8-.8 1 .2 1.7.5 1.2-1.2 1.1.3 2 .5 1.3-1.1.7-.2 1.9 0 .9-1.5 1-.5.8-1.2.1-1.7 1.7-.8 1-1.3.2-1.6 2-2 .2-1.7-.1-1.8 1-1.8.9-1.8-.6-1.7 1.3-1.6.8-3.3 0-2.7.3-1.2-.3-2.1-1-2.7a33 33 0 01-2.5 4c-.1 0-.3-.2-.4 0-.3.5-.6 1.1-1.1 1.5-.9.6-2 1.5-2.8 2.5-.5.7-.6 1.2-.2 1.7.5.7.4 1.2 0 1.5-.5.1-1 0-1.2-.2.5-.5.5-1 .5-1.5l-.3-.5-1 .5c.4-.3 1-.7.9-1.3-.7 0-1 .2-1.7-.4-.2-.7 0-1.3 1-2 .8.2 1.6-.9 2 .9l.6-.5v-.5c.8.4 1.3.3 1.9-.2l.2-1.2c-.4.3-.6.5-1 .6l.4-1c0-.7-.6-1-1.3-1.1 1.5-.5 1.3-1.3 1.3-2.6l.8.3c.1.7-.3.8-.4 1.5.2.7.2 1.2 0 2 .9 0 1.4-.2 1.6-1.2.3-.2.3.2.4.3.3 0 .5-.4.7-.7 0-.6-.5-.7-.7-1 0-.4.2-.7.1-1.1-.7-.7-1.1-1.1-2.1-1.7-.6 0-1.2 0-1.5.4-.3.1-.6 0-.1 2.9 0 .3-.6.3-.6.2.1-.7.5-1.3.1-2-.3-.2-.8-.2-1-.2v-.4h.2v-.6h-.3v-.4h-.7v.4h-.3v.6h.3v.4h-.3c-.8 0-1 .5-1 .9 0 .5.2.9.3 1.3-1 0-1.6-.7-2-1.3 0-.8.4-1.6.7-2.2 0-.7 0-1.4-2-1.4v-.5h.3v-1h-.3v-.3h-.9v.3h-.3v1h.3v.5c-1 0-2.2.5-2.1 1.2.2 1.2.5 1.3.8 2.5-.5.5-1 .9-1.7 1.2l.4-1.3c-.2-1-1-1-1.4-1v-.3h.3v-.6h-.2v-.4h-.9v.4h-.2v1c-1.2 0-1.3 1-.7 2 0-.1-.7-.1-.7-.4-.1-.6.7-1.6.5-2.2-.4-.5-.7-.8-1.3-1-.4 0-.8-.1-1.1.3-.7 1-1.3.6-2 1.3-.4.3-.4 1 .4 1.7-.4.1-1 0-.8.8l.5.7h.2c.1-.6.2-.5.5-.5a1 1 0 00-.2.5c.4.6.9.8 1.5 1v-.5c-.4-.3 0-.8.3-1.5.2-.7-.5-1.3-.4-1.7l.6-.3c0 1.1-.5 2.4 1.4 2.6l-.9.4c-.8.8-.3 1.4 0 1.6h-1v.1c0 1 1.2 1.3 2 1-.1.3.2.9.6.6 1-1.3 1.4-.2 2-.5.4.5 1 .7 1 2-.3.3-.6.5-1.3.5-.4.5.2.7.5 1l-1.2-.4c-.3.6-.4 1.3.1 2-.3.2-1.2.2-1.3-.5.4-.9 1.2-1 .2-2.6l-2-1.9c0-.2-.2-.4-.4-.5-.1-.1 0 .2-.2 0-.5-.4-.7-.8-1-1.7l-.5.2-2.7-3.8c-1.5.3-1.2 1.6-.7 2.8-1.5-1.6-1.4 1.7-.7 2-2.4-.3-.8 1.3-.3 2-1.7 0-1.4.8-.3 1.8-1.7.5 0 1.2.2 1.7-1.3.8-.2 1.3.2 1.8-.1.5-.2 1-1.1 1.3 0 .6 0 1.6 1 1.5.2.4.2.6 1 .7l1.4 4.3.5.3c-1.7 0-2.4-.2-4.1-.6.7-.7.9-1.6.7-2.8l-1.4-3.5v-1.5c0-2.1-.5-1.8-2-1.9-2.8.3-6.8 2-8.8 3.5-.8 0-1.4.8-1.7 1.8 0 0-.5.2-.4 0 .7-1-.6-2-.8-2.3 1-1.1 1-2.8-.3-3.4 0-1.2.7-2.2-1.6-3.6-.1-1.8-.8-2.7-2.3-2.4-1.4-2.2-2.5-2.2-3.8-1.5-2.2-.8-2.7.8-1.7 2.6-.7 1.4-.5 2.4.9 3.2-.2.8.2 1.7 1.3 2.2v.1c-.7-.5-1.4-.5-2 0-1.6-1.7-3.7 0-2 2.4-.2.5-1.4 1.2 1 2.9-.9 1.4-.2 2.3 2 3-.2 1.2 0 2.3 2 2.6 0 .5.3.9.8 1l-1.5 2.7c-.4-.4-1-.7-1.6-.8-.5-1.4-1.6-1.6-2.8-1.3-2.6-1-3 .6-2 2-.6 1.1-1 2 .8 2.4v.5c-.2 1.5.5 2 1.7 2.2-.1.5-.4 1 .3 1.5l-.5.3c-3-.5-3.5 2-1.3 3.1-.3 1.8 0 2.3 1.7 2h.4c-1.3 2.5-.8 5.2-.3 7.6-2.3-.8-2.5.4-2 2.6-.8 1-.5 2 .6 3.1-.6 1.2-.7 2.4.5 2.8 1.2.4.4.9.8 1-1-.8-2.1-.5-2.1 0-2.8-1-3.1 1.8-1.8 2.8-.5 1-.4 2 1 2.2 0 1.5.8 2.1 2.5 2l.3.4a8 8 0 00-.7 4.5c0 .1.4 0 .4.3v1.3c-1.3 1.2-1.3 2.4 0 3.5-.2.6 0 1.2.2 1.6-.8-.2-1.7.7-2 1.3-1-.3-1.7.2-2.2 1.6-1.7 1-1.8 2.1.3 2.9-.2.7.3 1 1 1.3l-.8 1.4c-3.8 1-1.9 3.4-.2 3.2.6 2.1 1.6 2.3 3 .6 1.1.6 2.2.4 3-.7 1-.5 1 1 2.5.3v.6c-.1.3-.8.6-1 .4-2.1-1-2.9.7-3 1.8-2 .5-2.6 1.2-2.3 2.3-1.7 1.3-1.2 2.2.3 3-.5 2.6 1.7 3 3 .8 1 .2 2 .2 2.8-2.6.4.2.8.2 1.2 0a5 5 0 001 2.5c-.7.5-.6 1-.5 1.5-2.7 1.2-2.1 2-1 3-2.3 2.3.8 5.7 3 2.2 1.3.4 2.3.4 3-1.2 1.4.7 4.2 1.1 4.4 1.1.3 0 .6.4.6.6-1 1.6 0 4.5 3 2.1 1.1.7 2.8.3 2.8-1.2 3.2-.3 2.8-.9 2.8-1.2 2.5-.4 5.6-1.7 8-3.3l.7.3c-2.9 1.5-5.9 2.7-8.6 5.3-.2 1.1.5 1.1 1.4 1 1 .9 1.7.7 2.3 0 .7.5 1.5.6 2.4.3 1.3-1.4 9.1-7.2 8.7-7 1.1 0 3.1.2 4.4 0 2.7 2 4.6 3.8 7.4 6.3 1.9 1 4.4.5 4-.6-1.8-1.7-3.8-2.6-6-4 .9-.5 1.8-1 2.3-1.5 1.9 1.4 4.5 2.2 7.4 2.8l1 3.1c2.6.8 3.9.5 6.3 0l-2.3-3c2.4.1 5-.3 7.8-2.2.4 1 1.5 2.4 2.2 3.3 1.2 0 4.6-3 4.4-4.1a19.7 19.7 0 00-3.7-3.1c.8-1.1 1.4-2.3.7-5l.3-.3c.8 1.4 1.5 1.2 1.9 0 .5 1 1.4 2.3 2.5 1.4.7 1 1.9 1.5 3 2.2 3.7-.9 3.4-5 3.4-5-1.4-.7-2.8-.9-4.3-1.1-.5-.8-1.3-.8-1.9-.6.2-.4-.2-.6-.4-.7l.4-.1c.6 0 1.2 0 1.6-.3 1 .3 2.6.8 3.7.9.7-1 .4-5-.7-6-1-.2-1.6 0-2.5 0l-1.7.7c0-.3-.2-.3-.5-.3.3-.5 0-1-.3-1.4 1.2.5 1.5 0 1.6-.4.9.2 3.2.3 4 .1 1.8-.9 1.6-4.6 0-5.6a8.3 8.3 0 00-3.9 1.3c0-.5-.4-.5-1-.3-.2 0 0-.1 0-.2.4-.2 1.5-.5 2-1 .8-3.4 0-4.7-1-5.3zm-10.4-50.2l1.9 1.8-.3 1.7.4-.4.3-1 .2.3v.2c-.7 1-.7 1.5-1.2 1.1.2-1.2.7-2-.8-1.7.1-.5.6-1.4-.6-1.8l.1-.2zm2.5 2v-.2l.2-1c.5 0 .7-.4 1-.6-.1.3-.2.6 0 .9-.7-.6-1 0-1.2.9zm-.6-.6l-1.8-1.8c0-.1 0-.2-.2-.3l.5-1.5h.3c-.9 1.4 0 2.5 1.3 3.3v.3zm1.2 7.8v.2l1.3-1.4-.7-1.1c-.5 0-1-.1-1.3-.3 0 .4.2.4-.1.7.8-.5 1.9-.7 1.2 1.2l-.4.7zm0 .6l-.1-.3c-.5.6-1 1-2 1-.4.2-.6.1-.8 0 .2 1.4.4 2.6.2 4h.4c.2-1.2.4-2 1-1.8-.3-.7-.4-2.2 1-2.6l.2-.3zm8 4v.8c-.5.4-.7.6-.9 1v-.7c.4-.3.6-.6.5-1l.3-.2zm-6.5-6l-.5-1h.1c.4.1 1.5-.6 1.2-.2l-.8 1.1zm1.1 10.9l-.2-1.5c.1 0 .2 0 .2-.2.5.2.8.4 1.6.2l.6-.2.1.1-.7 1c-.4-.3-1-.4-1.6.6zm4.2-3.6v1c-.4.1-1 .3-1.4.6h-.1c.4-.3.7-.6.9-1.2.2 0 .4-.2.6-.4zm-44.7-8c-.2-.2 0-.6.1-.6.6 0 1-.2 1.4-.3l.2-.3-.3-.6c.6-.2 1-.5 1-1-.6 0-1.1-.2-.9-.7.4-.3 1-.4 1.5.6-.3.5-1.1 1.2-1 1.8-.2.2-1.7 1.2-2 1.1zm7-2.9c.8 0 1-.2.8-.7-.4-.3-.6-.1-1 0-.4.5-.4.8-.3 1.1l.8.8.1.6 1.9 1c.3-.2.5-.3.1-.5l-1.3-.3v-1c-.8-.2-1.1-.6-1-1zm-14.1-4.4l1.5 3.3-.1.4.3.4h2.4c.5-.3.4-1.3.6-1.9.2-.2.6-.5 1-.6v-.3c.6-.1 1 0 1.6-.3v-1.9l-.3-.3-.6.5c-.2 2.6-1.3 1.9-1.8 1.3-.2.7-1.9 1.3-1.9 0-1.5 1-2.1.3-1.8-.6-.2 0-.6.2-1 0zm10.4-14c1.2-.8 1.8-.8 3 0h-.5l.7.8-.4.1.6.5-1.7.6c0 .3.3.6.7.6l-1 2-.7-2c.2 0 .5-.2.6-.6l-1.5-.7.6-.4-.4-.3.5-.6zm36.5 78v.5h.4c.5-.5 1-1 2-.7.2-.2.4-.2.6-.5a3 3 0 01-1.5-.6c-.2.8-1.5 1.3-1.5 1.3zm1.4-60.3l.5 1-1 1.3c0-.3 0-.6-.2-.9.5-.3.7-.9.7-1.4zm1.8 3.2c-.4.3-.4.6-.7.8l.4 1.7h.5l.7-.5c-.2-.6-.8-1.3-1-2zm-5.3 20.4c-.3.5-.4.3-.8.8l-.3-.9zm-1.3 10c.1.4.6 1.4 1 1.9v.3c-.6-.4-1-1.3-1.4-1.6l.4-.6zm5.6 10.6l-1.6 1 .5-1.1c.3.2.7.2 1.1 0zm2-3.8l-.5.7c.3.2.9.2 1 .6 1-.3-.3-1-.5-1.3zm-6 14c-.1.5-.2.8-.1 1.3-.8-.5-1 .2-1 1.4-.4.1-.6.4-.8.6l-.2-1.8c-.9 0-1.2.5-1.9 1 .5-.8 1.8-1.5 4-2.5zm-4.4 3l.7 2.4.1.7h-.5c-.2-.4-.9-1.6-.9-2.4.1-.3.3-.6.6-.7zm-55.3-57.9v.1zm19.8 72.8a8 8 0 002.5 2.9c.4.2.9.4.8 0-.6-.5-1-1.3-1.5-1.8-.8-.4-1.3-.6-1.8-1.1zm-21.6-9.3c-.1.5-.6 1-1 1.4l1.7 1.9c0-.5 0-1.1.2-1.6-.4-.4-.7-1.3-.9-1.7zm-1.3 4c-.3-.2-.8 0-1 .4 0 1.5.8 2.3 1.4 2.8.3-.5.6-1 1.3-1.3l-1.7-2zm4.9 5.1c-.5.2-1 .5-1 1 1.2.5 3 .6 4 .3-.8-.3-1.9-1.2-3-1.3zm-11.8-13c-.1.2 0 .2-.2.3.5.2.8.5 1.2 1l.2-.4zm-6.9.4c0-.2.3-.4.8-.5.3.4.7.7 1.4.9-.8 0-1.5-.3-2.2-.4zm3.6-.3a2 2 0 011.7-.2c-.5.2-.7.4-.8.6-.2-.2-.5-.3-1-.4zm4.4-13c-.2-.5 0-1.5 0-1.8-.6-.3-.7.6-1 1zm.4 7.4c0 .5.6.7 0 1.8l1.6 1c.5.2.8 1.4.6 1.5l.6-1.4.4-1.1-3.2-1.8zm2-20.6c-.7.3-1.2 1.4-1.4 2.3 0 .3.2.2.3.2.8-.1 1.4-1.2 1.5-2.2 0-.2-.2-.3-.3-.3zm-1.1-1.3c-.2.7-.8 1.6-1.1 2.3 0 .6.3.8.5.8.2-.8.8-1.7 1.5-2.2l-1-1zm-1.8-2l-.3 1.2.3.4c.6.3.8.6.8 1.5 0-.3.5-1.1.7-1.4-.5-.4-1.2-1.3-1.5-1.7zm1.6-7.7c.3-1.2.5-1.4-.6-2.2-.7.3-1.7-.5-1.8-1l-.4-.1c.7.8 2 2.6 2.8 3.3zm2.5-15.7l.3-2c0-.2-.3-.4-.4-.6-.5.6-.6 1-1 1.6.2 0 .9.3 1 1z" fill="#2c2c2b" fill-rule="evenodd"/><path d="M214 173.2c2.2 1 4.3 1 6.7 1.4l2 .2 1.7.2c.4.5.9 1 1.5 1 .2 0 .5-.6.5-1l2.4.2c-.5.9-.1 1.2 0 1.6-5.3-.4-17.1-.9-15.7-2.8z" fill="#e21c2a" fill-rule="evenodd"/><path d="M226 174.3l.3.4 2.4.1c-.4-.6 0-1.2.3-1.5-1.3.3-1.6.5-3 1zM216.2 171.8l1.2.4c2.2.4 3.7.5 5.8.5-.3 1.2.9 1.8 1 2 0 0-10.9-1.1-9.7-1.8z" fill="#008ed1" fill-rule="evenodd"/><path d="M247.4 171c2.6-.1 4-.2 6-.8l1.9.5c-1.3.4-4.5 1.4-8 1.5l.1-1.1z" fill="#fff" fill-rule="evenodd"/><path d="M241 175.2c6.8 0 13.6-1.3 15.6-2.9.1 0 .8-.5.7.1.2.6.3.6-.4 1.4-4 2.4-8.8 3-16 3z" fill="#e21c2a" fill-rule="evenodd"/><path d="M240.7 173.5l2.5.9c.6.1 1.9 0 2.3-.3 1.4-1 1.7-1.5 1.7-1.6 0-.2 4.5.1 8.4-1.6l1.5.3c.5 1.7-8.5 3.5-16.2 3.7l-.2-1.4z" fill="#008ed1" fill-rule="evenodd"/><path d="M255 236.4l4.9-4.7.2.2-3 3 .2.1 3.1-2.9.3.3-2.9 2.7.8-.2 2.5-2 .2.2-2 1.8v.3l2.4-1.7.2.3-3 2.6.1.2 3.1-2.4v.4l-3.4 3v.3l1-.6v.5l-2.6 2c-.6.5-1.5.7-2.2 1 0 .3 0 .7.4 1 1.8-1 3.4-1.4 3-.2 1-.5 1.5-.7 2-.6 0-.7-1.8-2.6 1-1.6-1.4-2.2-.4-1.9.4-1.7-.4-1.7 1.2-3.5 1.7-.2 1.6-1 1.4-.2.4 1.5l.2.2c.7-.2 1 .1.1 1.2v.4c-.1.4-.8.5-.2 1 .7.2 2.1 0 2.1.9.8.3 2.4 0 1.9 1.3l1.5 1.1 2.3 2.2-.2.5-2.4-2.2v.6l2 2-.4.4-1.7-1.7-.5.2 1.8 1.9-.5.3-1.9-2.2-1-.3 2.5 3-.5.4-2.5-3.4-.3.2 2.3 3.5-.5.3-2.1-3.4c-.7-.5-1.4-1-1.6-1.8-.7.4-2-.5-2.3-1.2-.7 1-1.7.6-3 .1-.8 1-1.7.2-2.5.3-.4.8-1 .7-2.7.2.5.7 1.4 1.7 1.2 2.3 1 .5 2.1 1.4 1.3 1.8l.8.9 2.2 3h-.3l-2-2.6h-.3l1.8 2.7-.5.2-1.5-2.5-.3.2 1.3 2.4h-.6l-.9-2h-.5l.8 2-.6-.1-.6-2-.4-.3.5 2.2h-.5l-.5-2.4-.4-.3.6 2.5h-.4l-1-2.9c-.3-.5-.6-.9-.5-1.4-1.2 0-1-1-1.6-1.7-.6.3-1-1-1.4-1.6-1 0-1.3-1.2-1.9-2a8 8 0 00.3-2.3c.8-.3 1.4-1 2.7 0 .7-.8 1-2.7 2.2-2.4.4-.7 1.4-3.3 2.3-2.3zM264 231c.2-.1.3 0 .7.1l-.2-1-.2-1-.4-1.3.3-.4.5 2.2.2-.2-.5-2.3.2-.1.5 2.2.2-.2-.4-2.2.3-.2.4 2.2.2-.2-.4-2.1h.3l.3 2c.3-.3.6-.8 1-.8.1-1.2 0-1.8 1-1.5 0-1.6.2-2.3 1.3-2.3.2-1 .3-2.2 1.5-1.8 0-.7.3-2.1.8-2.2l.5-2.3.4-.2-.5 2.1.3.4.6-2.7.4-.2-.4 1.6c.2-.4.5-.6.8-.5l.3-1.1h.5l-.5 1.2c.2.2.3.5.2.7l1-1.6.3.2-1.1 2-.5.7c.2 0 .4-.2.7-.1l1.4-2 .1.5-1.1 1.7c.1 0 .2.2 0 .6l1.3-.9v.5l-1.5.9-.2.5 1.8-1-.2.6-2.4 1.2v.3l2.4-1.2v.4l-2.3 1c0 .3-.2.5-.4.8.8-.3 1.6-.6 1.7 0l1.4-.7c.8-.3 1.6-.5 2.6-.6v.3l-2.6.7v.3l3-.8.2.3-3 .8-.1.2 3-.7.3.3-3.4.7-.1.3 3.5-.7v.3l-1.8.4.4.2 1.6-.1v.4h-1.5l-.4.5h1.8v.3h-2.6c-.4.2-1 0-1.5 0 .3.1.7.3.8.6h3l-.2.4-2.5-.1v.2l2.3.2-.4.2-2-.1c-.5.1-1.4 0-2.1-.2.1.8-.9.8-1.8.6.3.2.8 1.3.4 1.3-.2.3-.9.3-2.2-.5-.5.5-.5 1-2 1.5.3.2.3.5 0 1 .5-.2.8-.1 1 .1.6-.9 1-1 1.9-1 1-.7 1.6-1 1.9-.1.7-.5 1-.7 1.5-.7l2.9-.3.3.5-3 .3v.3l3.2-.2.1.4-3.4.3-.2.3c.6-.1 1.3-.4 2.1 0l1.7.1v.5l-1.5-.1c0 .2-.4.3-.6.4l2.2.5v.4l-3-.6-.2.1.7.7 2.5.5-.1.5-2.5-.6-.5.3 3 .7-.2.5-3.8-1.2c-.2.5-1.2.6-1.8.4 0 .3-.7.3-.9.4.7 0 1.3.4 1 1 .5-.2 1.5-.4 2 .5l1.4.1 3 1-.1.2-2.8-.7v.1l.6.6 2.2.6v.4l-2.1-.7c0 .2 0 .4-.3.5l2.3 1-.2.5-2.4-1.2c-.5 0-1 0-1.7-.2l3.5 2-.2.4-3-1.7.2.6 2.2 1.5-.3.5-2.1-1.6-.5.4 2 1.2-.5.3-2-1.4c-.4-.2-.9-.7-1-1.2-.8 1-1.7.4-2.6-1.5-.4 1.1-.7 2-1.8.4-.6.1-1 .4-2.2-.7-1.5.1-1.7-1.5-1.7-2.5-1 .8-1.3.4-1.4-.5l.4-1.4c-.7-.2-1-1.9-.5-2.4zM268.9 201.2l.6.8v-1.5l.5-.2v2.2l.3.7.2-3h.5l-.2 3.3.5-.3.2-3.5.4-.3.1 2.6.7-1c0-.4.1-1 .5-1.6l2.4-4.3h.6l-2.3 4h.5l2.4-4 .4.2-1.7 2.8h.4l2-2.7.4.2-1.8 2.7.1.6 2.2-2.8.1.8-2.2 2.6v.7l2.4-2.7.1.7-2.6 2.6v.6l2.5-2.5v.8l-2.6 2.3-.2.7 2.7-2.4v.6l-2.9 2.7-.3.4c-.3 1-1 2-2.1 3.2l1.7-.9 3.5-2.7.3.5-3 2.2h.4l2.8-1.8.2.4-2.7 1.7.4.2 2.3-1.4.1.6-2 1.1v.4l2-1 .2.4-2.1 1v.3l2-.9v.6l-2 .8v.2l2-.5-.2.5-1.7.6v.4l1.6-.4v.5l-2 .4c-.2.6-.6 1-2.1 1l-1.5-1-.8 1c2.6 1-.9 3.9-2.3 2.5l-.8 1.4c-.6.8-1.7 1.5-2.6 2.3-.4 0-2-.1-.6-1.7-1 0-2.3-.3-1-1.6-2-.3-1.6-1.1-1.6-1.6-.7-.2-1.5-.7-1.7-1.5L261 210v-.8l2 1.7v-.4l-2-2v-.5l2.2 2.2h.5c-.4-.2-.6-.6-.7-1l-2-1.7v-.5l2.2 1.7v-.5l-2-1.7v-.5l2.3 1.9.2-.3-2.3-2 .1-.6 2.8 2.6c.5.6 1.5 1.1 1.3 2 .7-.6 1.6-.1 2 1.9 1-1.2 1.3.3 2.2.9-.2-.7-.3-1.6.4-2-.5-.6-.7-1.5 0-2.3a4 4 0 01-2.4-1.7l.2-.7c-1-.7-1.8-2.3-.3-2.2-.1-.6 0-2 1.1-1.9zM271.8 171.8l-2.8 3.8c-.7.5-.9.7-1.2 1.6-1 0-1.2.7-1 2.5-.7.1-.8.8-.9 2l-1.2-.1c.7-1.6.2-3-.2-4.4l-.4-.3.3 2-.3-.4-.4-1.8-.7-.8.5 2.4-.4-.4-.4-2.4-.4.1.3 2.2-.3.3-.5-2.4-.4.4.6 2.3v.4l-1-2.4-.2.5 1 2.6v.5l-1.3-2.6-.3.5 1.4 3.2v.5l-1.3-2.7v.9l1.6 3.4c.3.6.4 1.5 1.3 1.8-.5.8-1.4.9.8 2-1.3 1.2.8 2.4 1.3 2.3l.7 1.8c-.7 0-1-1-1.6 0-.3-.6-.6-1.1-1.2-1.4l-.7-2-.3.4.5 1.7-.1.3-.8-1.4-.2.4.9 1.7v.8l-1.1-2-.3.4 1.5 2.5-.2.3-1.4-2.4-.1.6 1.5 2.6-.2.2-1.4-2.3-.2.7 2.3 3.8 1.9 1.2 1.9-2.2-.5-1.7c.6 0 1.5.4 2 .2 2-1.8 3.5-3 5-5.5 1.9-.5 2.6-.9 2.5-1.4l3.3-1 .2-.5-2.3.7.2-.5 2.3-.9.3-.6-2.5.8v-.2l2.3-1.1v-.6l-2.3 1.3.2-.5 1.9-1.2-.5-.5-1.7 1.3-.2-.4 1.5-1.1-.7-.3-1.3 1.3-.3-.2 1.2-1.3h-.8L275 183c-1.4.4-2 1-2.7 2.2-1.2-.4-1.3.3-2 .7l-.4-1.9.5-.4c1.3.5 3 .2 3.6-1.5a2 2 0 001.2-1.7c.5-.2 1.4-.6 1.4-1.2.7-.3 1.8-.7 2.5-1.5l.2-.5-1.9 1.2v-.6l2-1.4v-1l-2 2v-.4l1.8-2-.2-.5-1.4 1.7-.3-.3 1.3-1.6-.5-.5-1.2 1.9h-.5l1.3-2-.5-.2-1.3 2-.6.2 1.5-2.4h-.5l-1.6 2.6c-.7 0-1.6 0-1.8 1.7-.4 0-1.3.4-1.5 2.2l-1.8.8c.5-.8.8-1.8.5-2.4l2-2.6v-.7l-1.7 1.9v-.6l2-2.6-.2-.5-2.3 2.8-.3-.3 2.5-3.2z" fill="#a75e22" fill-rule="evenodd"/><path d="M262.5 166.8c-.6.1-.8 1.2-.5 2.2-.3 1.1-.4.7.8 2.1-.7.3-1.9.4.5 2-.8.4-.9.7.6 1.9-1.6.4.2 2 1.7 2.2l1.7-.7c.8-1.3 1.5-3.1-.5-2 0-.3.3-.8.2-1.3l1.5.2c2.3-.4 2-1.2 1.4-1.7 1.2-.5 1-1.3.9-1.8 1.1-.5 1.6-1 1.3-1.6 1-.3 1.6-.7 1.4-.9l2.4-.8.4-.7-2.6 1 .4-.5 2.5-1.2.2-.9-2.5 1.6v-.5l2.8-2 .1-.8-2.8 2.4-.2-.4 2.9-2.7-.1-.7-3 3.1-.1-.6 2.6-3-.3-.4-2.6 2.8-.2-.5 2.1-2.8-.6-.1-2 2.6h-.5l1.9-3-.4-.2-2.2 3.7c-.8.7-1.3 2-1.9 3.1-.9.5-1.1 1.3-1.3 2.3-1-.5-.8.3-1 1.8-.5 0-.9 1-1 1.6 0-.4-.1-.7-.6-1-.3-.5.8-2-1-1.5.5-.7.4-1.8-.4-2 0-.4 0-.8-.2-1.1l.6-1.8-.5-.2-.4 1.4-.3-.1.4-1.7-.5-.2-.3 1.8h-.5l.3-2-.6-.2v2.2c-.2.5-.5 1 0 1.6z" fill="#a75e22" fill-rule="evenodd"/><path d="M267.5 167.4h-.6c-.7-.2-2.3-1.6-.9-3-.5-1.2-.3-2.8.9-2-.7-1.1-.3-2.3.5-2.1-.4-1 0-2.1.2-2.2l1.7-5.7.5-.2-1.6 5.3.5-.8 1.5-4.6.7-.2-1 3 .4-.1 1.2-3 .7-.2-1.4 3.2.4.2 1.5-3.3h.5l-1.8 3.6.3.4 2-3.6.4.2-2.3 3.7.1.5 2.5-3.7.3.6-2.8 3.6v.6l3-3.9v.6l-3 4v.6l3.3-4.2v.7l-3.6 4.3c-.2.5-.1.6-.8 1 .3.3-.1 1.3-.8 1.9.5.6-.2 1.6-.8 2 .3.6.1 1.4-.3 1.9l-1.4.9z" fill="#a75e22" fill-rule="evenodd"/><path d="M259.5 179v47.3c-.9 15-20.5 2.4-24.8 12-3.7-9.8-25.3 3.1-24.7-12v-47.2h49.5z" fill="#fc0" fill-rule="evenodd"/><path d="M235 235.2c-4-3.7-11.2-2-16-2.5a17 17 0 01-4.3-.7l-1.2-.6-.6-.5c-.3-.3-.5-.5-.7-1l-.3-.8-.1-1.2V207h45.8v20l-.2 1.4-.3 1-.4.8-.8 1-1 .6-1.5.4c-5.6 1.1-14-1.1-18.5 3z" fill="#0062aa" fill-rule="evenodd"/><path d="M211.5 180.3H258v25.5h-46.5z" fill="#2c2c2b" fill-rule="evenodd"/><path d="M212 180.7h45.6v24.8H212z" fill="#56c7ed" fill-rule="evenodd"/><path d="M204.4 227c-.4 1.3-.8 2.6-1.4 3.7l-.6.8 1.2 1.4.6-.9c.5-.6 1.1-1.7 1.3-2.4l.3-1-.8-1z" fill="#008ed1" fill-rule="evenodd"/><path d="M206 229.3c1.2 2 .7 3.1-.8 5.1L204 233c1.1-1.5 1.5-2 2-3.7z" fill="#e21c2a" fill-rule="evenodd"/><path d="M199.3 222c-.2.5-.4 1-.1 1.2.6.5 6.4 2 8 7.2 1.2-1.5-1-5.2-8-8.4z" fill="#e21c2a" fill-rule="evenodd"/><path d="M197.8 218.6c-.1.2 0 .7 0 .8.4.6 1.2.7 1.3 1 0 .5 0 1 .4 1.4.2 0 4 2.2 4.5 2.6.8.5 2.6 2.3 3.1 3l.7 1.2c1-4.3-6-8.2-10-10z" fill="#008ed1" fill-rule="evenodd"/><path d="M204 226.6c-.3 1.7-.6 3.2-1.8 4.6l-1-1.2c1.1-.7 1.7-2.8 2-4 .1-.2 0-.1.9.6zM208 164c1.6-1.5 8.5-4.2 9.9-2.9v1c-1.9-.4-8 1.7-9.1 3.2 0-.6-.4-1-.9-1.3z" fill="#fff" fill-rule="evenodd"/><path d="M209.2 165.3c.7-.8 7.8-4 8.7-2.4 0 1 .3 1.5.5 2.3l-1.1-.4a13 13 0 00-7.8 2.5c-1 .7-.8-1.5-.3-2z" fill="#008ed1" fill-rule="evenodd"/><path d="M209.5 167.7c1.7-1.2 3.5-1.8 5.5-2.4 1-.2 1.5-.4 2.8 0 1 .2 1.5 1.4 1.8 2.2-.7-.3-1.2-.6-2-.6-4.4.5-6.7 3-8.4 3.8-.4-.5-1-.8-.8-.9.7-.5 1.7-1.1 1.1-2.1z" fill="#e21c2a" fill-rule="evenodd"/><path d="M212.7 169c1.2-.8 2.7-1.3 4.2-1.6.2 0 1-.3 1.4 0 .3.2-.4.7-.7 1-1.9 1.3-4 1.9-5.4 3.8-.1-.6.3-2.4.5-3.2z" fill="#008ed1" fill-rule="evenodd"/><path d="M215.9 167.6l1-.2c.2 0 1-.3 1.4 0 .3.2-.4.7-.7 1-.2 0-.3.2-.5.3z" fill="#004b95" fill-rule="evenodd"/><path d="M218.6 167.4c3.8 1.8-5.8 5.3-6 6.8-2-3 5.9-5.2 6-6.8z" fill="#e21c2a" fill-rule="evenodd"/><path d="M204.2 163.4c.1.4.7.8.9 1.3.4 1-.7 1.7-.7 2-.4.4-.2 2.6-.7 2.4-.2-.3 0-1.5-.6-1.5-.4-.1-.7-.2-.8-.5 0-.2-.2-.4-.2-.9 0-.4 0-1-.4-1.2-1.2-.4-1.3-.9-1.1-1.5 0-.5-.3-1-.7-1.3l-1.2-.2c-.6 0-1-.3-1-.7 0-.2-.2-.5-.1-.9-.3-.5-2-1.2-1.4-2.4-1.2-.3-2-1.6-.8-3-1.4-1.5-.4-3.1 1.1-2 .6-.3 1-.5 1.5-.5.9 0 1.3.7 1.5 1.4.2.3.8.5 1.3.6h.4c.8 0 1 .7 1 1.4 0 1.2 2 1.3 2 3l-.4 1.4c.8.4 1 .9 1 1.4 0 .5-.3 1-.6 1.7z" fill="#fc0" fill-rule="evenodd"/><path d="M202.6 170.1s.7 1.8-.3 2.6c-1-.2-.7 0-1.6-.8-1 .4-2.1.7-2.2-1-2.6.1-1.7-1.2-2-2.4-2.1-.5-2.7-1-2-2.8-.7-.3-1.4-1.1-1.4-1.6s.2-1 .7-1.3a2 2 0 01-.8-1.5c0-.7.1-.9.8-.9.5 0 1 .6 1.2 1.2.1-.5.6-.9 1-.9.6 0 1.4.5 1.7 1.6h.9c1.5 0 1.4 1.4 1.4 2.4 2.3.8 1.3 2 1.9 3 1.2 0 1.6 2 .7 2.4z" fill="#fc0" fill-rule="evenodd"/><path d="M207.5 164.3c1.1 0 1 2 .8 2.8 1.3.8 1.3 2-.3 2.5v.5c1.7 1 1.5 2.2-.4 3.2.3.8.8 2-.8 2.8.3.8 0 1.3-1.5 1.3-.3 0-.5.4-1 .4-.3 0-.6-.5-.6-.7-.7-.4-.4-1.4 0-2.7-1-.9-1.3-1.5-.3-2.6-1-1.7 0-2.3 1-2.7 0-1-.2-3 1.4-3 .5 0 .3-1.8 1.7-1.8zM193 223.2c1.6 0 1.5 1.8 1.6 3l1.5.9c.2.2.8 1.8 1 1.9 0 0-1 0-1.2-.2 0 .2-1 .6-1.2.3-.7 1.3-1.9.5-2.6-.3-.3.3-1 .8-1.4.6-.6 0-1-.8-.9-1.3-1.3 0-2.2-1.5-.1-2.1 0 0 0-2 1.8-1.4 1 0 .3-1.4 1.5-1.4z" fill="#fc0" fill-rule="evenodd"/><path d="M204.7 234.5c0 .4 4.5 4.2 4 4.5-.5.3-.8.9-1.7-.4-.1-.3-1.5-2-1.8-1.9-.4.1-1.2.4-1.3.6 0 .7-.4 1.5-1 1.5-1.5 0-1.3-1.1-2.4 0-.2 1.8-2.1 2.2-2.3 1.6l-1 .6c-.5 2.2-1.3 2.7-2 2-.2 0-.4.5-.7.5-.4 1.2-2 1.8-2.1.3l.2-1.3c-2.2-.1-1.6-2.2-.1-2.7-1.3-1.3 1-1.8 2-2 0-1.5 1-3 2.7-1.6l1.2-.6c.2-1.8 2.8-1.8 3.5-.1.8 0 1.3.3 2 .8 1.2-.5 1.3 0 .4-1.2l-2.4-2.6c-.3 0-1-.2-1.4 0-1 1-2.9 3.3-4.2 1.4h-.2c-.2.3-.6.2-.8.3-.2.4-.6.8-1.2.8-.5 0-1-.2-1.4-.5a3 3 0 01-.7.4c-.1.5-.5 1-1 1-.8 0-.6-1.6-1-1.6-1 0-2-.6-2-1.3 0-.6 1.2-1.3 2.2-1.3 0-1 .5-1.5 1.5-1.5.6 0 1.1.1 1.6.5.2-.5.8-.7 1.5-.7.5 0 .9 0 1.3.3.4-1.5 2.3-.4 2.8.4l1.4.6.3.4.3-.1c.2 0 0 0 0 0-.3-.4-1.7-2.1-1.9-2.1-.4 0-.8-.2-1-.5-.6 0-.9-.6-1-1.2 0-.4-.7-.5-.8-1-2.1-1-1-1.8-1.5-3.2-1.2-.6-.9-1-1-2.6-1.4-.8-1-2.6 0-2.9-.5-3.5 1.4-3.4 2-1 0 0 2-.5 1.5 2 .5 1.3 2.2.7 1.7 3l-.3 1c2 1.8.8 2.2.7 3.7.5.2 1 1.6.5 2.2.3.8 3 3.6 4.9 5.5z" fill="#fc0" fill-rule="evenodd"/><path d="M213.3 241z" fill="#ffec00" fill-rule="evenodd"/><path d="M218.1 241.3c.6.4.8.9 1.5 1.3-.5.9-1.8.7-2 .6 0-.1-.2-.8.5-1.9zM209.5 240.5l.7-.2c.5.2.7.2.8.8l.1.6.6.3c1 .4.8 0 1.8.8 0 .4 0 .8-1 0l-1.4-.7c-.6 0-.6-.3-1.1 0-2.8 1.1-.2 3.4-2.4 3.4-.3 0-.9.4-1.1.6-.2.4-.2 1.2-.2 1.5-.6.9-1.4.5-2 1.1-.5.7-.6 1.3-1.5 1.4-.5-.3-1-.1-1.3-.4-.4.5-1.2 1.7-1.9 1.7-1-.2-1.3-.8-1.4-1-.2-.6.5-2.2 1-2.4-.6-.5-1-1-1.1-1.3 0-.6 1-1.2 1.8-1.4l.1-.5c-.5-1.2 1.5-1.8 2.7-1.6.3-2 1.7-1.7 3.2-1.8 0-1.5 2.3-2.5 3.6-.9z" fill="#fc0" fill-rule="evenodd"/><path d="M217.8 248.1c-.4 2.7.4 3-1.7 3-.7 0-1 .1-1 .4-.4 2.1-2.2 1.3-2.6.9-2.3 2.4-3.8 0-2.4-1.7-1.2-.8-.4-2.5 1.3-2.6-.5-1.7 1.7-2.3 2.3-2.3 0-1.9 2-1.7 3.1-1.6-.1-.1.6-.2-.6-.5-1.8-.5-2.8-.7-2.4-1.5-.4-.5-1.8-.5-1.8-1-.2-.5-.6-1.2-1.1-1.2-.8-.1-1.6-.3-1.6-1 .5-2.4-1.6-.8-1.7-2.7 0-.4 0-1 .4-1.5-.4-.1-.7-.7-.8-.8-.3-.6 0-1 .4-1.2.6-.4.8-.1 1.8.7.7-.2 2.3 0 2.7 1.6 0 .7.6 1 1.2 1 .9 0 1.7 1.4 1.6 2.6 1 .7 1.7 1 1.5 2.8.7.7.6.8.8 2 0 .5 1.4.1 1.8.2.5-.6 1 1 .9 1.4-1.9.7-.1.3-1.1 1.5.4.4 1 1.5-.2 1.5h-.8z" fill="#fc0" fill-rule="evenodd"/><path d="M219.4 243.2c.8-.2 1.7-.3 2.5-.6l.5 1c-.6.6-1.5.7-2.2 1 0-.2-.2-1-.8-1.4z" fill="#fff" fill-rule="evenodd"/><path d="M220.6 245l2-.9 1.3 1.6c-1.2.6-2.7 1-4.2 1.6-.2-.2-.3-.6-.4-.9.2-.2 0-.5.1-.7a4 4 0 001.2-.8z" fill="#008ed1" fill-rule="evenodd"/><path d="M218.2 248.5c.7.1 1.3-.1 1.5-.8l4.5-1.7c.4.5.7.5 1.5 1-2.8 1.5-5 2.6-7.4 2.8v-1.3zM221.9 239.2l.7.3c0 2.4 1.7 4.8 5.8 7.4l-.9.4c-3.7-1.7-6.4-4.8-5.6-8z" fill="#e21c2a" fill-rule="evenodd"/><path d="M223 239.6l1.9.9c0 1.3 1 3 5.1 6l-1 .3c-4.2-2.9-6.1-5-6-7.2z" fill="#008ed1" fill-rule="evenodd"/><path d="M218.7 252.8c3.5-3 7.8-5 13-6.6-.3 0 .3.1 0 .2a49.4 49.4 0 00-12.6 7.2.6.6 0 01-.4-.8z" fill="#fc0" fill-rule="evenodd"/><path d="M220.1 253.3a53 53 0 0111.8-6.7v.2a63.3 63.3 0 00-10.5 7c-.7.3-1.2-.2-1.3-.5z" fill="#fc0" fill-rule="evenodd"/><path d="M222.6 253.4c1.2-1.4 6.6-5 9.6-6.4l.2.2c-2.2 1.6-8 5.9-8.4 6.5-.7.3-1.4 0-1.4-.3z" fill="#fc0" fill-rule="evenodd"/><path d="M226.6 237.3c4.7 4.1 7.2 8.4 6.6 9l-.5.5c-2.7-4-5.7-7-8.2-9h1.4z" fill="#008ed1" fill-rule="evenodd"/><path d="M228 236.9c1.4.8 4.7 3.8 5 6.4l.2 1.3c-1.1-2-3-5-6.3-7.5.3-.2.6-.4 1.1-.2z" fill="#fff" fill-rule="evenodd"/><path d="M224 238a49 49 0 015.6 5.1l-.7-.3a14 14 0 00-7-3.8c.4-.5 1-1 2.1-1z" fill="#e21c2a" fill-rule="evenodd"/><path d="M227.3 241.8c.8 1.8 2 3.4 3.6 4.2l-.6.2c-3.5-2.6-5.1-4.3-5-5.5z" fill="#fff" fill-rule="evenodd"/><path d="M232.7 240.5l1.2-.6c.8 1 1 4.6.3 6.7h-.9c.7-2 .1-4.1-.6-6.1z" fill="#e21c2a" fill-rule="evenodd"/><path d="M234.3 239.9l1.4.1c.5 2.4.7 4.7.2 6.7h-1.4c.6-1.5 1-4.3-.2-6.8z" fill="#008ed1" fill-rule="evenodd"/><path d="M236 240.2l1 .3c.8 2.2.7 4.5.2 6.2l-1-.1c.4-1.8.2-3.6-.2-6.4zM237.4 240.4c2.3-2.4 4.4-3.7 5.8-3.3l.7.8c-2.3-.1-4.4 1-6.3 3z" fill="#fff" fill-rule="evenodd"/><path d="M237.8 241.3c2-2.2 3.9-3 6-3 .3.4.2 1.2.2 1.5-2 0-3.9.7-6.1 3.3v-1.8z" fill="#008ed1" fill-rule="evenodd"/><path d="M238 243.3c2.3-2.3 4.3-3.2 5.9-3l-.6 1.1a9 9 0 00-5.4 3.1z" fill="#e21c2a" fill-rule="evenodd"/><path d="M238.7 246.6c4.8-3.6 5.7-6 5.7-8.4l.9.7c-.9 3.9-2.5 6.2-5.7 8-.4 0-.7-.1-1-.3z" fill="#fff" fill-rule="evenodd"/><path d="M239.8 247.2c3.2-1.5 4.9-3.9 6-8l.8 1c-.2 2.5-3 7-5.7 7.7-.3 0-.8-.3-1-.7z" fill="#008ed1" fill-rule="evenodd"/><path d="M241.2 248.1c3-1.1 4.7-3.6 5.7-7.6l.7 1c-.8 3.5-2 5.4-5.3 7.1zM246.4 245.8a11 11 0 004.4 1.9c.3.5.3 1 1.3 1.4l.1.5c-3.1-.7-5.4-1.5-6.7-2.8z" fill="#e21c2a" fill-rule="evenodd"/><path d="M247.4 243.8c1 1.6.4 1.1 2 2 .2.5.7 1.2 1.2 1.6-1.8-.4-1.8-.5-4-1.9zM255.2 246.5c3.9-.1 7.2 0 7.8-.8l1 .4.4.6c-2.3 1.1-5 1.8-7.8 1.7.1-.6-.7-1-1.4-1.3z" fill="#008ed1" fill-rule="evenodd"/><path d="M254.5 245.5c1.5.6 1.7 0 2.1-.5.4.4 1.8.6 2.6-.2 1.1.4 2 .8 2.6 0 .2.5.3.5.8.8-.2.7-4.6.6-7.6.6 0-.1-1-.8-.5-.7z" fill="#fff" fill-rule="evenodd"/><path d="M256.7 248.5c2.3.4 6-.6 7.8-1.5l.7.7c-1.3 1-4.1 2.3-7.8 2.2-.4-.2-.6-.5-.8-.8.1-.2.2-.3 0-.6z" fill="#e21c2a" fill-rule="evenodd"/><path d="M252 161c1.7-1.6 4.6-1.4 10.1 1.8l-.3 2c-4.3-3.3-7.2-3.8-9.8-2.6z" fill="#fff" fill-rule="evenodd"/><path d="M252 162.5c2.2-1 4.9-1 9.8 2.7v2c-4.8-3-7.5-4-10-2.9z" fill="#008ed1" fill-rule="evenodd"/><path d="M251.5 164.8c1.7-1 4.8-.7 10 2.9v1.6c-4.8-3.6-8.4-4.8-10.4-3z" fill="#e21c2a" fill-rule="evenodd"/><path d="M252.8 165.8c1.8.4 3.6 1 5.4 2.4l-.6 1.6c-.7-1.3-7.2-2.6-6-3.3z" fill="#008ed1" fill-rule="evenodd"/><path d="M251 166.8c.9 1 5.7 1.7 6 3l.5 1.4c-.6-.5-5.4-1.8-5.6-2-1.3-.5-1.9-1.1-1.4-1.7z" fill="#e21c2a" fill-rule="evenodd"/><path d="M209 243.8c1.3.5 3.4.7 5.4 0-1 .9-1 1.3-1.1 1.6-1.7.4-3.9.2-4.5-.2.4-.3.2-.7.3-1.4z" fill="#fff" fill-rule="evenodd"/><path d="M208.6 245.8c.7.2 1.4.2 3 .2-.2.6-.9 1.3-.6 1.8 0 0-.7 0-1.2.3-1 0-2-.2-3-.7-.2-.7.2-1.7 1.8-1.6z" fill="#008ed1" fill-rule="evenodd"/><path d="M206.7 247.8c1 .5 1.8.5 2.9.6-.2.6-.5 1-.4 1.3-2-.2-3.3-.5-4-1 .7-.3 1.3-.2 1.5-1z" fill="#e21c2a" fill-rule="evenodd"/><path d="M267.2 238.4l1.2.5c-.3 1.7-1.6 2.4-2.3 3l-.4-.2a6 6 0 001.5-3.3z" fill="#008ed1" fill-rule="evenodd"/><path d="M265.8 237.6c.3.5.7.5 1.2.6a5.5 5.5 0 01-1.6 3.5l-1.4-.3c1.2-1 1.8-2 1.8-3.8z" fill="#fff" fill-rule="evenodd"/><g fill-rule="evenodd" fill="#fc0"><path d="M257.6 235.7c.6-.5 1.2-.7 1.4-.5.3.2 0 .7-.5 1.2-.4.4-1 .6-1.2.6l-.2-.5c0-.3.3-.5.5-.8zM255.8 235.9c.4-.7.9-1 1-.5.3.5.1 1.4-.3 2.1l-.2.4c-.3 0-.5.2-.7.3l-.1-.2c-.2-.5 0-1.4.3-2.1zM253.7 237.2c.4-.7.9-1 1-.4.3.4.1 1.4-.3 2.2-.4.7-.9 1-1.1.5-.2-.5 0-1.5.4-2.3zM251.6 239.7c.4-.8 1-1 1.1-.5.2.5 0 1.3-.3 2-.5.2-.9.4-1.1.7-.2-.6 0-1.5.3-2.2zM257.7 237.3c.6-.1 1 .2.7.6-.2.5-.9 1-1.5 1-.6.2-1 0-.8-.6.3-.4 1-.9 1.6-1zM260 241.2c.8-.1 1.3.1 1 .6-.3.4-1.1.8-2 .9-.8.1-1.2-.2-1-.6.3-.4 1.2-.8 2-1zM263.4 239.5c.6-.3 1-.3 1 .1s-.6 1-1.3 1.3c-.3.2-.6.3-.8.2l-.1-.4c.1-.3.6-.9 1.2-1.2zM263.5 237.6c.6-.3 1-.3 1 .1-.2.4-.7 1-1.2 1.4l-.5.3-.2-.6c.1-.4.5-.9 1-1.2zM260.2 240.2c-.4-.6-.4-1 0-1 .5.1 1.2.6 1.6 1.2.2.3.3.6.2.8a3 3 0 00-.6 0c-.4-.1-.9-.6-1.2-1zM261 238.5c-.4-.5-.3-1 0-.8.5 0 1.1.6 1.4 1.2.4.6.3 1-.1.9-.4-.1-1-.7-1.4-1.3zM262 236.7c0-.7.3-1 .6-.7.3.3.5 1 .5 1.8l-.7.7a3 3 0 01-.4-1.8zM264.6 242.1c.8 0 1.3.3 1 .6-.2.3-1.1.6-2 .6-.5 0-.8 0-1-.2.6 0 1.2-.3 1.4-.7v-.2h.6zM266.9 243.1c.6.2.8.7.4 1-.3.3-1 .5-1.5.4l-.7-.4c-.2-.2-.2-.5 0-.7.4-.4 1.2-.5 1.8-.3zM255.7 239c.8 0 1.2.2 1 .6-.3.4-1.2.8-2 1l-1.3-.1v-.4a7 7 0 012.3-1zM253.8 241.2c.6 0 1 .3.9.6-.4.1-.7.3-.8.5l-.1.1c-.4.2-.8.2-1.2.2l-.7-.1c-.3-.2-.3-.4-.1-.6.3-.4 1.2-.7 2-.7zM255.6 242c.7 0 1 .4.7.7-.2.3-.8.6-1.4.6-.3-.1-.6-.2-.9-.1-.3-.1-.4-.3-.2-.6.3-.3 1.1-.6 1.8-.5zM249.9 241c.6.2.8.7.5 1-.4.3-1.2.4-1.8.2-.6-.3-.8-.7-.5-1 .4-.4 1.2-.5 1.8-.2z"/><path d="M257 241.1c.7-.1 1.2.1 1.2.5 0 .3-.4.6-1 .7-.4-.2-1-.3-1.3-.3v-.1c0-.3.5-.7 1.1-.8zM249.4 244c0 .6-.4.9-.8.6-.4-.2-.6-1-.5-1.5 0-.7.4-1 .8-.7.4.2.6 1 .5 1.6zM251 246c-.2.7-.5.9-.8.6-.3-.4-.5-1.2-.4-1.8.1-.7.4-.9.7-.6.4.4.5 1.2.4 1.8zM252.6 247.7c0 .6-.5.8-.8.5-.4-.3-.6-1-.5-1.7.1-.6.5-.8.9-.5.3.3.5 1 .4 1.7zM251.6 242.7c.6.4.8.9.3 1.1-.4.2-1.3.1-1.8-.3-.6-.4-.8-.9-.3-1.1.4-.3 1.3-.1 1.8.3zM253.1 244.6c.6.3.6.7.2.9-.4.1-1.2 0-1.8-.4-.5-.4-.6-.8-.2-1 .5 0 1.3 0 1.8.5zM255.3 243.9c.6.4.7.9.3 1.1-.4.2-1.2.1-1.8-.3-.6-.4-.7-.9-.3-1.1.4-.2 1.3-.1 1.8.3zM258 243.5c.5.4.6.9.2 1-.5.3-1.3 0-1.8-.3-.6-.4-.7-.9-.2-1 .4-.2 1.2 0 1.8.3zM261 243.4c.7.4.9 1 .4 1.2-.5.2-1.5.1-2.2-.3-.7-.4-.8-1-.4-1.2.5-.2 1.5-.1 2.2.3zM263.9 244.3c.3.6.3 1-.2 1.1-.4 0-1-.4-1.4-1-.2-.2-.2-.5-.2-.7l.7-.2c.4 0 .8.4 1.1.8zM266.2 245.7c.2.7 0 1.2-.4 1.2-.5 0-1.1-.7-1.4-1.4-.2-.6 0-1.1.5-1.1.4 0 1 .6 1.3 1.3zM268.5 245.6c.5.5.5 1 0 1.2-.4 0-1.1-.2-1.6-.6l-.3-.6-.2-.3v-.1l.5.2c.4.1.9 0 1.2-.1l.4.3zM262.5 241.5c.8 0 1.3.2 1 .6-.2.4-1 .8-1.8.9-.8 0-1.3-.2-1-.6.2-.4 1-.8 1.8-.9zM254.4 246.4c.4.5.3 1-.1 1s-1-.2-1.5-.7c-.4-.5-.3-1 .1-1 .4-.2 1.1.2 1.5.7zM255.8 248c.5.3.6.7.2.9-.4.2-1 0-1.6-.3-.5-.3-.6-.7-.3-.9.4-.1 1.2 0 1.7.3zM254 249.6c-.1.6-.5.9-.8.6-.3-.2-.5-1-.4-1.6.1-.6.5-.9.8-.6.3.2.5 1 .4 1.6zM255.8 250.4c.2.5 0 1-.3.8-.4 0-.9-.6-1-1.2-.2-.6 0-1 .3-.9.4.1.9.7 1 1.3z"/></g><path d="M220.6 162.7l-.5 1-.6.3c0 .3.1.6.5.9l.7.2c-.1.2 0 .3.1.5l.4.1.4.3 1.2 4.1.5.3c.1.4 0 1 .4 1.2v.6c0 .5-.6 1 0 1.6l.4.2a3 3 0 001.5 1.6l.3.1.2-.6a1323.5 1323.5 0 00-1-2.4l-.5.2c-.2.2-.3-.5 0-1l-.2-.6c0-.4-.3-.7-.6-1.1l.2-.4-2-4.1.5-.8c-.1-.3-.4 0-.1-1.3l-.2-.6-.5.4-.3-.5-.4-.1-.2-.2s-.2.1-.2 0zM244.8 167.9h.5v.4h.4v.4h-.4v.4h-.5v-.5l-.4.1v-.5h.5z" fill="#fc0" fill-rule="evenodd"/><g fill-rule="evenodd" fill="#fc0"><path d="M245 169.1a2 2 0 110 4 2 2 0 010-4z"/><path d="M230.6 167.7c-.5.3-1 .5-1.5.4v.2c-.4 0-.7.1-1 .3-.3.2-.3 1.7-.7 2.3l.2.3 1-.3-.2 1 .6-.5.1.4.4-.4v.4c-.5.4-1 .6-1.7.8-.6.3-1.2.3-1.7.2l-.6-.9-.4-.1-.6.4c-.3.5 0 .4 0 .7 0 .2-.2.2-.4.1-.2-.2-.1-.5-.3-.8-.3.2-.3.4-.3.7-.1.3 0 .5.1.7l.5.4c.1.3.2.6.5.8h.3l.3-.1c.1-.3.2-.3 0-.6-.2 0-.1-.2-.1-.5-.5 0-.2-.4-.3-.5-.1-.1-.2-.2.3-.3l.4.6.1.5.1.2c1.6-1 3.5-1.4 5.5-1.4 0 0 0-.4-.3-1 .4.1.8 0 1-.3-1.4-.2-1-1.8.4-1.6.4.2.8.4 1 .9.2.9-.4 1.1-.9 1.5h.9c-1 .7-2.2 1.5-3.3 2-.6.2-.3-.5-.5-.7-1 .3-.6 1.2-.2 1.6-.3.1-.3.3-.4.5 0 .9.1 1.2.5 1.4 0-.4.1-.7.4-1 .2.9.5 1.4 1.1 1.3h.8c.4.6 1 .7 2 .5l1 .8c.4-.2.6-.4.9-.8.7.2 1.3.1 1.9-.6 1 .3 1.7.4 1.6.2.3-.2.5-.6.5-1.3.4 0 .5.5.7 1 .1-.6.4-1 0-2.1.2-1.7-.3-1-.4-1.5-.1.8-.7.5-1.5.1a6 6 0 01-2-1.2h.5s.1 0 0-.1c0 0 0-.3-.2-.4-.4-.2-.7-.6-.6-1 0-.5.4-.9 1-1.2h.6c1.4 1.5.4 1.6-.3 1.5.2.3.5.6 1 .5-.2.3-.2.7 0 1 1.8.2 3.6.6 5.4 1.4 1.6-.2 2.5-.7 2.6-1.4l-.5-.2-.3.6h-.5c.1-.2 0-.4-.3-.5l-.4.1v.4l-.5-.3-.4-.4c-.2.3-.5.4-.8.4-1.5.1-2.5-.2-2.8-1l.3-.2.1.1.2-.2.4.3v-.6c0-.2 0-.3.3-.3 0 .2.3.3.7.3.2 0 .2-.2.2-.3-.3-.1-.3-.4-.3-.7.3-1.2-.2-1.8-1.5-1.9l-.2-.3c-.5.3-1 0-1.4-.2-.2.6-.6 1-1.1 1.2l-2.2.1-.7 1-.8-1-3.3-1.4z"/></g><path d="M247.7 150.8l.6 1v1l-1.6 2.7 2.3-2.3.2.8c-.4.7-.6 1.5-1.4 2.1 0 .3 1.2-.1 1.7-.2.2.5-.5 1.2-1.2 2l1.3-.2s.3 0 .4.2c-.4.7-1 1.1-1.6 1.5.5 0 1 0 1.5.3.2.4-.4.7-1.4 1l1 .8c0 .4-.5.6-1.1.7.4.4.6.8.6 1-.2.4-.7.5-1.3.5.2.3.4.7.4 1-.2.5-1 .3-2.5-.5l1 1c.1.4.2.7 0 .8-.3.2-.7.2-1.2-.4-.6-.8-1-1.2-1.5-1.6.5.7 1.1 1.3 1.3 2.2.2.4 0 .6-.2.8-.4 0-.8-.1-1-.4l-1-2s-.2-.2-.1 0l.1.4c.2.5.5 1.3.5 1.7 0 .3 0 .6-.2.8-.4 0-.7-.2-1-.5 0-.6-.2-1.3-.4-2l-.2.2.1 1.3c-.2 1-.6 1.1-1.2.4l-.1-1.4c-.4 0-.7-.3-.9-.6a1 1 0 01-1 .5v-5.2c.4.1.7-.2.9-.5.2 0 .1.3.1.5 0 .3-.4.7-.8 1 .6.5 1.3.7 2.2.4.4-.2.6-.6.2-1.6l-.3-.8c.2-.7.9-1.6 2.6-3v.2c.5-.5 1-1.1 1.3-1.8l.3.1c1.1-1.2 1.9-2.6 2.6-3.9zM221.8 150.9c-.3 0-.5.3-.6.7 0 1.3.7 2.5 1.5 3.7l-2.2-2.1-.3.7c.4 1.2 1.2 1.6 1.8 2.3-.8-.3-1.8-.6-2.3-.5.1.5.8 1.3 1.5 2-.7-.2-1.4-.1-1.8 0 .3.8 1.2 1.2 1.9 1.7-.6-.1-1.3 0-1.7.2.2.5.7 1 1.5 1.2-.5 0-1 .3-1.3.7.2.5.7.7 1.4.9 1 0 2-.1 2.9-.5.1 0 .3.1.4 0a1 1 0 00-.3.8c-1 .4-1.3.7-1.7 1-.2.5-.3.8-.2 1.1l.7-.2c-.4.4-.6 1-.4 1.5.2.2.5.2.8.1.5-.2.9-.7 1.2-1a5 5 0 00-.5 2h.9c.4-.4 1-1.6 1-1.5 0 .1-.4 2 .3 1.9.7-.1 1-.9 1.2-1.2 0 .4.2.8.8.9.2.2.6 0 .6-1.1 0-1 .1-.4-.2-1.3-.4-.8 0 .8.4.7.4-.1.6-.4.7-.7l.7.4.2-.3.2-4.9s-.5.2-1-.3c-.4-.5 0 1.4.6 1.2.6-.2.4 0 0 .4-.3.4-1 .4-1.6.4-.6 0-1-.3-.8-1.3.3-.9.5-.7.6-1 0-.4 0-.8-.4-1.4l-2-2c-.5.3-1-.7-1.5-1.5-.2.5-1.5-1.5-3-3.7zM228.8 152.5c-.3 0-.7 0-1-.3-.3-.2-.3-.5-.3-1 .2-.2.3-.4.5-1.4-.4-.5-.6-1-1.3-1 0-.1-.8.7-1.4 1l-1 .3-.3.5.7 1.3s0 .2-.2.2l-.6.3c-.2.1 0 .3.1.5.1-.2.2-.4.6-.3h.6s0 .3-.3.6c0 .1 0 .3.2.5.3.2.5.2.7.1l-.3-.2c0-.4.2-.8.4-1.1.4-.1-.2-1.2-.3-1.8 0 0 0-.3.2-.4l1-.4c.1-.2.2.4 0 2 .2.3.3.5.7.7l1.2.2s.5-.2.1-.3z" fill="#fc0" fill-rule="evenodd"/><path d="M240.8 152.7h-4c0 .2-.3 0-.3.3l.5.4-.4.2.7.3c-.4.4-1.2.6-1.7.7l.7.4c-.7 1-1.2 2.2-1.6 2.8-.4-1-.8-2.1-1.4-3l.6-.1-1.5-1c.2 0 .3-.2.5-.3l-.2-.1.5-.6c-.8.2-1.5.1-2.2 0l-.4-.5-1.6.2-.7.6-1.3.8c0 .7.1.9.3 1.1.4 0 .7-.2 1-.3l.6.3a477 477 0 01-2 .4l-.5-.1c0 .3.2.5.5.6h1l.8-.4c0 .2-.2.4-.3.5v.5l.6-.6.8-.2.8.2h.2c.5.3.8.7 1 1.1.3.6.3 1.2.2 1.5-.4.3-.8.6-1.3.6l.8.6-.4.6h7.3l-.5-.7.6-.1c.3-.2.5-.3.4-.5-.5.2-1-.2-1.4-.6-.1-.4-.1-.8.1-1.4a3 3 0 011.2-1.1h.8c.8-.4 1.3 0 1.4.7.3 0 .3-.5 0-1 .5.2 1 .6 1.7.4.4-.2.6-.5.5-.8-.1.5-1 .4-2.6 0 .2-.3.6-.5 1.5-.1.4-.1.7-.4.4-1.3-.3-.2-.7-.3-1.3-.3 0-.2 0-.4-.4-.7zM241.5 152.6c.4-.3.5-.2.5-.7l-.3-1.8.1-.4.4-.4.9-.2c.9.8 1.4.7 2 1.5.2.5 0 .9-.2 1.2.2.1.5.2.6.4l.2.4-.2.3-.3-.2-.7-.2v.9c0 .3-.2.4-.4.5h-.3c0-.3.2-.6.1-.9l-.1-1 .4-1.2-.3-.4c-.6-.2-1-.3-1.2-.2-.1.3 0 .5.1.8l-.1.9-.5.5c-.2.3-1.1.5-.7.2z" fill="#fc0" fill-rule="evenodd"/><path d="M233.4 151.1c-.5.6-1 1-1.6 1.4.7 0 1.4-.3 2.2-.8h1.2l2.2 1 .7-.2a6 6 0 01-2-1.3z" fill="#fc0" fill-rule="evenodd"/><path d="M238.8 152.3h2v.4h-2z" fill="#fff8b3" fill-rule="evenodd"/><path d="M239.6 149v.2l-.2.1v.2h.3l-.1 1-.6-.2h-.1c-.5.3-.6.5-.6.7l.5 1.7h2l.5-1.5v-.5l-.8-.4-.4.1v-.8h.1v-.3h-.2v-.3zM229.8 149v.2h-.4v.3h.4v1c-.4-.2-.6-.1-.9-.1-.4.2-.5.4-.4.6l.4 1.4v.2l2 .1.5-1.6c0-.2 0-.3-.5-.6h-.8v-1h.3v-.2h-.3v-.4zM234.5 145.8v.3l-.3.1v.5h.3v1h-.6l-1.3.5c-.5.7.3 1.6.5 2.4l.2.6h2.8l.8-2.6-.5-.6-.9-.3h-.5v-1h.3v-.5h-.3v-.3z" fill="#fc0" fill-rule="evenodd"/><g fill-rule="evenodd" fill="#fff"><path d="M227.5 154.5c0-.2.1-.4.4-.4l.3.2-.7.2zM229.2 152.2v-.2h.2l-.2.2zM228.8 151.5v-.3h.2v.2h-.2zM229.2 151.4v-.3.3zM228.6 151.2v-.2.2zM229 151.1v-.2h.1v.1l-.2.1zM228.7 151v-.3h.2v.3h-.2z"/><g><path d="M242 154.5l-.3-.1v-.1l.2-.1s.2.2 0 .3zM239.1 152.1v-.1h.2l-.2.1zM238.7 151.4v-.2h.2v.2h-.2zM239.1 151.2v-.2.2zM238.5 151.2v-.2h.1v.2zM238.8 151v-.1h.2l-.2.2zM238.6 151v-.3h.1v.2h-.1z"/></g><g><path d="M233.7 150.4h-.2v-.2h.4l-.2.2zM233.2 150.3v-.1h0zM233.3 150v-.2h.2v.2h-.2zM233.6 150v-.2h.2v.2h-.2zM233.8 149.7v-.2h.1v.2zM233.5 149.5v-.2h.1v.2zM233 149.3c.1-.3 0-.3.3-.4v.4h-.2zM233.7 149v-.2.2zM232.7 149v-.2h.2v.1l-.2.1zM233.2 148.8v-.3h.2v.2l-.2.1zM233 148.6v-.3h.1v.2l-.2.1z"/></g></g><path d="M245 170.5h.2v.2h-.3v-.2zm-19.4 5c0-.2.2-.2.4-.2l-.1.3-.3-.1zm-.4-.2l-.3-.4c.6.1.8 0 1-.3l.1.4-.8.3zm-.4-.7l-.6-.5c.4.2.5.4 1 0V174.5c-.1.2-.1.2-.4.2zm.4.2c.3-.4.2-.4.2-.8v-.2l-.2.2v-.7l-.3.2.2-.4h-.2c0-.2 0-.2.2-.2 0 .1 1 2 .1 1.9zm-.5-.7c-.3 0-.7-.3-1-.5h1.3v.4l-.3.1zm-.4-.5c-.6-.4-.9-.5-.6-1.1h.1v.4c.3.2.5.3.9.3v.3h-.4zm-.1-.6l-.3-1.4h.4c.5.8-.3.7.2 1.4h-.3zm-.6-1.6l-.1-.1.8-.4v.2c-.2.3-.3.3-.7.3zm0-.5c-.2 0-.2-.1-.2-.3l.5-.1c.1 0 0 .1 0 .4h-.4zm-.4-.6h-.2c0-.2.7-.4.8-.3-.1.3-.4.3-.6.3zm-2.8-5.4h.1v-.2c-.2 0-.2.2-.4.1h.2a48 48 0 01-.1-.2h-.4v-.2l.3-.1-.5-.2h.6l.2.2h.3v.6h-.3zm.4.6l-.1-.2c.4-.1.3-.4.5-.5 0 .5.1.6-.4.7zm1 .8s0-.3-.1-.2h.5c-.1.2-.3.2-.5.2zm-.2-.5c-.3-.1-.2-.3-.2-.4.2-.2.2-.2.4-.1l.1.4-.3.1zm.4-.8c-.2 0-.3-.1-.4-.3.5.2.3.1.5-.1l.1.3-.2.1zm-1.4-.9l-.2-.2h.2v.2zm.2-.2v-.1h-.4v-.2h.3l.3.4h-.2zm-.5-.5l.2-.2v.2h-.2zm.4-.4v-.1-.1h.2v.2h-.2zm.3.6l-.3-.2c0-.2.2-.2.4-.2l-.1.4zm.2.3l.1-.6h.3l-.3.5h-.1zm.5.4c0-.4.2-.8.4-1.1v.4l.1-.1-.1.2h.1v.1h-.2v.2h.1l-.2.1v.2h-.2zm-.4.4c-.3-.1-.4-.3-.4-.5l.6-.1-.1.5h-.1zm2 5.2l-.3-.4c0-.4-.4-1.5-.7-1.7h.1l-.4-1.3h.1c.2.5 1.4 3 1.3 3.4h-.2zm12-22.1l.1-.2c3 .3.9 2 .9 3.6.6.6 1.4 1.4 2.4 1.3 0-.9-1-1.8.2-2.2v.1l-.1.1v.1c-.8 0-.2 1.1 0 1.5h.2l-.1.2.6-.2h-.2v-.3l.1.2c0-.5-.3-1.3-.4-1.8.2 0 .5 0 .6.2v-.8h-.3v-.4h.3v-.3h.5v.3h.3v.4h-.3v.8c.5-.4 1 0 1.2.3.2.5-.2 1.3-.4 1.8 2.7.4-1.3-3.5 2.3-3.5.3.2 2 1.3 2.2 1.7 0 .4-.4 1-.3 1.2 1 .1.8 1.2.3 1.2l-.1-.3h-.7c.5.6-.4 1.4-1 1.2.2-.8.4-.7 0-1.6 0-.7.7-1.1.3-1.8l-1.1-.4c.2 1.6.2 2.5-1.7 2.6 0 .2.2.2.3.4 1.4 0 1.8 1 .8 2-.5-.4-.8-.5-1.4-.3.9.2 1.6 1 2.4.1h.2c-.1 1.4-1.3 1.2-2.2.6 0 .4.3.8-.3 1.1 0-1.8-1.8-.5-2-.8-1.8 1-2 3 .4 2.8-.3.6-.6.8-1.2 1 .4.5 1.1.6 1.3-.2 1 .2.1 1.4-.4 1.7 1.2 1.2 3.3.2 1.8-1.5-.6-1.2 2.5-3.5 2.8-3.7v.1c.4-.4 1-1.1 1.1-1.6l.4.1c1-1.2 1.9-2.5 2.6-4h.2c1.9 2.2-.8 3.9-1 4.6 1.4-1.3 1.3-1.4 2-2.2h.2c.5 1-.3 2.4-1 3l1.6-.2c0 .6-.7 1.5-1.2 1.9.4 0 1.2-.4 1.6 0 0 .8-.9 1.2-1.4 1.6.4 0 1 .1 1.3.4v.3c-.3.3-.7.6-1.2.8 1.3.6 1 1.3-.3 1.5.4.3.6.5.7 1-.5.6-.7.3-1.3.5 1.5 2.6-2.1.4-2.2.5.8.6 1.2.8 1.2 1.8-.5.4-1 0-1.4 0 0-.5-1.1-1.6-1.4-2 .4.7 2 2.2 1 3-1.5 0-1.5-1.2-2-2.3 0 1 1.2 1.7.2 2.8-1.4-.1-1.2-1.3-1.4-2.5 0 1 .3 1.6-.4 2.4-1 .4-1-1.5-1-2-.4 0-.6-.2-.8-.4a2 2 0 01-1 .4l.1 2.1c.6.5.9.3 1.6.3l-.1.3c1.7.3 1.7.6 1.6 2.4l.5.2c-.2 1-1.2.2-1.4.3l.1.9c-.2 0-.6-.4-.6-.4v.2c-.2.1-.3-.1-.3-.1-.5.9 2.4 1.4 3.2.8-.3-.4-.5-.9-.5-1.4 0-1 .8-2 1.8-2v-.4l-.3.2v-.8l.4.1-.1-.4h.7v.4l.4-.1v.8l-.5-.2.1.3a2.1 2.1 0 011.5 3.1c-.6 1.3-1.4 2.1-3.2 2.1-1.9-.7-3.4-1.2-5.4-1.4h-.1v-1c-.5 0-1-.3-1-.7 1.6.5 1-1.9-.4-1-1.6 1.4.4 1.5.4 2.5-.3 0-.5-.2-.7-.1.7.4 2.3 1.5 3 1.5.2-.2.2-.4.2-.6 1.3.2.6 1.2 1 2.1 0 .7-.3 1.2-.3 1.8h-.1l-.6-1.2c-.3 2.4-1.3 1-2.1 1.2-1 1-1 .7-2 .7-.2.2-.6.7-1 .7l-.8-.7c-.7.1-2 0-2.1-.7-1.1.5-1.6.1-2-1l-.2.8h-.1c-.6-.4-1-1.6-.2-2-.7-.6-.4-1.9.5-1.8 0 .4-.1.5 0 .8.7 0 2.9-1.5 3.5-1.8-.5 0-.6 0-1 .3 0-1 1.7-1 .6-2.3-1.5-1.3-2.4 1.2-.6.9-.2.6-.7.6-1.2.7l.4.7-.1.2c-2 .1-3.8.2-5.4 1.5v.2c.4.2.4 1.2 0 1.3h-.1c-.3.1-1.7-1.2-1.8-1.9-1.2-.3-.4-1.6-.3-2.2l-.3-.2-.1-1-.5-.2-1.3-4.3c-.4-.4-.9 0-1-.9-.8 0-1-.6-1-1.2.8 0 .7-.6 1-1.4l.5.1c.1.3.3 0 .6.3l.2.3c.2-.1.2-.3.5-.3l.1.6v-.1l1.7-.7.2-.7c-.7.6-4.4 1.1-4.6-.6l1-.6c-.5-.3-1.2-.8-1.3-1.3.5-.2.9-.3 1.5-.3-.7-.3-1.6-.8-1.6-1.5.2-.3 1.1-.2 1.5-.2-.1-.3-.7-.7-.9-1-.2-.1-.3-.7-.4-1 .6 0 2 .5 2.1.5-.8-.8-2-1.7-1.1-3h.1l1.8 2h.2c-.6-.7-2.6-4-.7-4.2.7 1.2 1.6 2.7 2.6 3.7l.5-.1c0 .5.7 1.7 1.2 1.8v-.2h.2c.4 1.5 2.6 1.7 2.4 3.5-.4.7-1 1.2-.2 2 .6.3 1.5.3 1.9-.4-.9 0-1-1-.7-1.5.3 0 1 .8 1.5 0-.5-.1-.6-.3-.8-.7 2.2-.2 1.5-2 .3-3-.6.4-1.4-.9-2.3.6h-.1c-.3-.4.2-.8.1-1-.8.6-2 .8-2.3-.4 1.7.2 1-.1 2.6-.3-.6-.2-1 .2-1.5.2-1.3-1.6.8-1.6 1-2.1h.3c-2.7-.4-1.6-1.3-1.8-2.9l-1 .4c-.2.9.4 1.1.3 2-.1.4-.5.7-.5 1.1l.3.3v.1c-.9.1-1.5-.6-.8-1.2h-.8l-.1.4h-.2c-.6-.8 0-1 .6-1.1v-.2c-.5-.6-1.1-1.3 0-1.8 1.9-.3 1.4-2.5 3.5-.4 0 1.4-1.6 2.4.7 2.9-.2-1-1-1.8.2-2.2V150.6c-.9.2-.3 1-.1 1.6h.2l-.1.1.6-.1h-.1v-.3.1c-.2-.4-.3-1.3-.4-1.7.1 0 .4-.1.6.2v-1h-.3v-.3h.3v-.3h.5v.3h.3v.4h-.3v.8c.6-.5 1.1.1 1.3.5 0 .5-.3 1.2-.5 1.7.7 0 1.7-.8 2.2-1.4 0-1.1-2-3 .1-3.4V148h-.2c-1.1.4 0 1.5 0 2.2h.1v.2h.2l.8-.1h-.2l.1-.2-.6-2.5h.9v-.9h-.3v-.7h.3v-.3h.7v.3h.3v.7h-.4v.8zm8.8 25c.2 0 .3-.2.5-.3v-.4c.2.1.6.5.7.9h.3c0-.3 0-.4.2-.5v-.3h.2c0 .2 0 .3.3.3l.5-.8h-3.6c.2.5.5.9 1 1zm-1-1.8h.3v.2h-.2v-.2zm.5 0h.2v.2h-.2v-.2zm.4 0h.2v.2h-.2v-.2zm.4 0h.2v.2h-.2v-.2zm2.3 0h.2v.2h-.2v-.2zm-.4 0h.2v.2h-.2v-.2zm-.4 0h.2v.2h-.2v-.2zm-.4 0h.2v.2h-.2v-.2zm-.6 0h.3v.2h-.3v-.2zm-1.3 1.7l.2.2-.3.2v.1l.6.2h-.6c.2.2.4.3.7.3l.2-.4h.2v-.5h.3l.1.2-.1.2c-.2.4-.8.9-1.1.9a16 16 0 00-5.4-1.5c0-.5 0-.7.3-1h.1l.3.5.3-.5.3.5h.1c1 .8 2.6 1.3 3.8.6zm.6.4h-.1-.1.2zm1.6 0v-.4h.4v.2c0 .6-1 .7-1.5.8.3-.3.8-.3 1.1-.5v-.1zm-.9-5.2h.3v.5h.4v.2h-.4v.3h-.3v-.4h-.4v-.2h.5zm0 2h.2V170.3h-.2v-.2zm0-.4h.2v.3h-.2v-.2zm0-.3h.3v.2h-.3zm-1.7 2.3h3.7-3.7zm1.3-2.2v1.2h-1.3c.2-.5.7-1 1.3-1.2zm-1.3 1.5h1.5v-1.5h.1v1.6h-1.6v-.1zm2-1.5v1.6h1.7v-.1h-1.5v-1.5h-.1zm1.6 1.2h-1.2v-1.2c.6.2 1 .7 1.2 1.2zm-6.7-1.5c-.4 0-.4-.2-.7-.3.3 0 .5.2.8.3h-.1zm.3 2.5l-.2-1.3c.3.2.2 1.3.2 1.3zm.2-.1v-.7.2c.5-.3.1-1.2.2-1.4h.1v-.3c.5.7-.2 2.2-.3 2.2zm-.6-1c-.2-.2-.9-.6-.8-.8l.5.2-.6-.5.7.2v-.3c.5 0 1.2.6.8 1.1-.2-.2-.4-.7-.7-.6.2.6.2.6.1.7zm1.6.7l-.5-.4c.2-.4.5-.9.3-1.3h-.1.1c-.2-.5-.5-.7-.9-.7 0 .1.3.3.2.5l-1-.7c1.7 0 2 0 2 1.9 0 .4.5.7-.1.7zm-3-2.7l.1-.4 1 .3h-1.1zm.8.7l-1.3-.2c.2-.2.5 0 .9 0l-.6-.3c.4 0 .9.2 1.1.5zm-.4.9c-.6-.5-1.2-.4-2-.4.9-.7.3 0 1.4 0v-.1c-.1-.2-.3-.3-.5-.3.8 0 1.2.8 1.1.8zm-1 1.6l-.2-.1c1-.3.7-1.4 0-1.7 1.1 0 1.2 1 .7 1.7h-.4zm1 0l-.1-1.5c.5.3.5 1 .2 1.5zm.6 0l-.2-1.3c.2 0 1.6 1.4.2 1.4zm-10.9 0c0-.7-.7-2-.2-2.3.2.8 0 .9.3 1.8l.2-.3c0 .2-.1.8-.3.8zm-1-.5v-.3c.5-.4-.3-2.2 1-2.2-1.2 1 0 2.5-1 2.5zm1-1.8c0-.6.3-.8 1-.7-.6 0-.7.4-1 .7zm0 1.2c-.2-.8.5-1.8 1.3-1.8l-.3.5h-.4c-.1 0-.6.5-.4.6l.6-.4-.7 1zm1.3-2l-.6-.2c.5 0 .8-.1 1.1-.5l.1.6h-.6zm.4 1.2l.5-.5v-.2h-.9c.1-.4.4-.4.8-.5-.2.2-.5.2-.5.5.5-.3.7-.3 1.1 0l-.5.3v.2c.2-.1.7-.4 1-.3v.1c-.3 0-1.3.5-1.5.4zm-.8 2l.1-1.6c-.2 0-.4.3-.5.2.2-.4.3-.7.7-1h-.1.6c-.6 1-.2 1.8-.8 2.4zm.8-.2c-.2-.4-.5-1.3.1-1.6-.3.7 0 1.7-.1 1.6zm.6.1c-1.1-1-.2-2 1.1-2-1.2 0-1.8 1.5-.5 1.8-.2.2-.3.2-.6.2zm2.1-1.4l-1-1h.3c0 .2.1.3.3.5v-.5h.1c.3.5.5 1.1.3 1zm-.4 2c.7-.5.7-.5.8-1.3.2.6.3 1.5-.8 1.3zm1.1-.7c0-.6-.6-1-.4-1.4.4.5.4.6.6 1.3l-.2.2zm-.1-1.2l-.7-1.1h.2c0 .1 0 .3.2.4v-.4c.5 0 .3 1 .3 1zm2.6-.3l.2-.8h.2v.5l.4-.6c0 .3-.5.8-.8 1v-.1zm-.7.3l.2-1.1h.2l-.1.5c.3 0 .2-.4.4-.5 0 .4-.4.8-.7 1zm-.9.8c-.3-.5-.9-1.3-1-1.9.7.1.8 1 1 1.4.2-.4.4-1 .8-1.3 0 .6-.4 1.3-.8 1.8zm0 1.2c-.2-.4-.9-1.5-.7-1.8.5.7.6 1.1.7 1.4l.8-1.6c0 .5-.5 1.7-.8 2zM232 175c-.5-.7 1.3-1.7 1.7-2.2-.5.6-1.4 1.4-1.6 2.2h-.1zm-1.1 2.4c-1-.5-.8-1-.8-1.8-.7 0-.5 1-.9 1.3-.6-1.7.2-1 .4-1.9-.7 0-.6-.8-.2-1.3.2 1.7 2.5-.4 3.4-.8v-.1c.4 0 .5-.6 1.2-1h.1c-.4.8-3.8 3.2-2 3.5-.2.5-.7.8-1 .1h-.2c-.5 1.5 1.3 1 1.2 1.6-.5 0-.8.4-1.2.4zm4.7-5.9c0-.4-.1-.5.1-.8l-.1-.1h.1l.4-.3c0 .4-.3.8-.5 1.2zm.7.8v-.1c-.6-.2-.5-.6-.3-1.1.1 1 .4.6.8 1.2h-.4zm2.3 5.2c-.6-.2-.8-.5-1.5-.4v-.2c.2-.3 2-.6 1.3-1.4h-.8l.2-.2-.5.1v-.1c1.6-.9-2-2.6-1.9-3.8.6 1.2 3.8 3.5 4.7 2.4.4.5.2.9-.4 1v.1c.9.3.7 1 .5 1.8 0-.6-.3-.8-.8-.9 0 .7.1 1.6-.8 1.6zm-2.7-.6c0-1.4-1-3.3-.8-4.3 0 .4.2 1.4.6 1.6 0 0 .7 3.3.2 2.7zm0 1l-.5-.5c2.2 0 0-4.2-.2-5 .5 1.3 2.2 3.9 1 5v.1c.3 0 .5-.2.6-.4v.3l.5-.2-.4.5v0c-.4.2-.6.2-1 .2zm-1.2.3c-.8-.7-.3-.3-.3-1.2l-.7.1c.1-1.6.7-3 .8-4.5.2.2 0 4 0 4.6h.3v-4.6c.4 1.5.8 2.9.8 4.4h-.6c.3 1 .3.6-.2 1.2h-.1zm0 .4c-.2-.2-.7-.5-.7-.8.3 0 .4.5.8.5l.6-.4c0 .2-.4.7-.7.7zm-1.8-.7c-.4-.1-.7-.3-1-.6h.5c0-.7 0-.8-.7-1v-.2c.6-.3.7-.6.7-1.3l1.6-2.2h-.1.1l.2-.6c.2 1-2.7 5.1-.3 5.4v.1c-.4.4-.4.4-1 .4zm.5-1c-.7-1.1.6-3.4 1-4.5l-.1 1-.1.3-.8 3.3zm-7.6-2.9l-.1-.4.4-.2c-.8-.2-.8-.3-.7-1h-.2v.1h-.3c.1.6-.4.5-.4 0 .2-.2.6-.5 1-.5l.2.7c1.2 1 3.2-.4 4-.5 0-.2.2-.5.4-.5l.3.5c.1-.1.2-.3.1-.5.3 0 .6.9.6 1a10 10 0 00-5.3 1.3zm.6-1.1c-1-.3-.3-1-1.3-1h-.3c-.4-.6-.3-1.1-.9-1.6l.2-.3-1.8-4s.1-.2 0-.4c.1 0 0-.5.3-.5-.2.4-.1.7-.1 1.1.7.6 1.4.1 1.8-.5 0 .5-.4.9-.3 1.6 1 .6 1.6-.5 1.9-1.1 0 .8-.4.6.1 1.5.8 0 1 0 1.4-.8 1.2 1.4 1.6.2 1.7-1.2h.1l.7-.5.6.4v2.1c-.7.5-.8.4-1.7.5v.1c-1.8.4-.7 1.9-1.5 2.6.1.8.8.3 1.2.3l-.2 1 .7-.6v.4c.2 0 .3-.2.4-.4v.3c-.9.6-2 1-3 1zm18.3-16c0-.8 2.1-2.4 2.5-3.3-.4 0-1.4 1.5-1.9 1.9v-.2c-.1-.8 2-3 2.4-4.2 2 1.5-2.3 5.6-3 5.8zm1 .6c0-.5 0-.5-.4-.6l1-.8h-.1.1c.6-.5 2.3-2.4 2.7-2.5.5.6-.7 2-.7 2h-.1c-.9.9-1.7 1.3-2.6 2zm.3 1.1l-.1-.1c.2-.2 1.6-1 1.7-1.2-.7.3-1.7 1.1-2.3.8 1.1-1 2.6-1.8 4.1-2-.5 1.3-2 2.5-3.4 2.5zm-.3 1.2l-.1-.2 2.5-.9c-.5 0-1.7.5-2.2.4 0-.4 3.2-1.3 4-1.2v.1c-1 1.4-2.5 1.7-4.2 1.8zm-.3 1.1c.9-.6 1.7-.5 2.7-.7-.2-.2-1.7 0-2.1 0v-.1l.8-.2h.2c1-.1 1.8-.3 2.8 0 0 1.1-3.9 1-4.4 1zm2.4 1.3l-2.4-.3c.6-.5 1.2-.3 2-.3v-.1l-1.8-.2v-.2c1.2 0 2.8-.4 3.9.5-.7.6-.8.6-1.7.6zm0 1.4l-2.6-1v-.1a77.2 77.2 0 011.7.3l-1.8-.6c.6 0 3.8 0 3.8 1.2-.3.2-.7.2-1 .2zm-.6 1.4c-.8-.4-2-1.3-2.6-1.8.3-.4 1.3.9 1.9.8-.3-.5-1.3-.7-1.4-1.1l1.4.5h.1c.6.3 1.4.7 1.3 1.5h-.7zm-1 1.2c-.6-.2-2-2-2-2.3l1.5 1.4c.1-.1-1.4-1.6-1.4-2 .2.2 3.7 2.9 1.9 2.9zm-1.6.8c-.7-.3-1.5-2.3-1.4-2.8.6 1 1 2 1.2 2l-1-2c.7 0 2.2 1.9 1.6 2.8h-.4zm-1.6.5c-.6-.3-1.1-2.3-.8-2.8.2.3.4 1.8.7 1.9 0-.7-.2-1.2-.4-1.8h.3c.3.9 1 1.7.5 2.7h-.3zm-1.9 0c-.5-.5-.7-2-.2-2.5.3.3.1 1.2.2 1.7.2 0 .2-1.3.2-1.5h.3c.3.6.4 2.1-.5 2.2zm-2.3-2.1c.3-.3.4 0 .7-.7-.2 0-.4.3-.6.4 0-.7-.1-.9.1-1.5.2.2.1 1 0 1.2.5-.2 0-1 .6-1.1 0 .3.1 2-.8 1.7zm1.5 0c-.8-.4-.5-1.1-.5-1.9l.2-.1.2 1 .1-.8.3.2s.2 1.9-.3 1.6zm1.3-.3l-.7-.4v-1.1h.1l.4.7a191.3 191.3 0 000-1c.2.1.9 2.3.2 1.8zm.9-.6c-.5-.3-.7-.7-.7-1.2.4-.1.3.5.7.6 0-.3-.4-.8-.2-1 .5.7.9.9.5 1.6h-.3zm1-.5c-.3-.2-1.2-1.1-1.1-1.4.4 0 .6.3.9.7 0-.4-.4-.5-.4-.7.3-.2.9.4 1.2.6 0 .6 0 .7-.5.8zm.8-1l-1-.6v-.2l.7.2c0-.3-.5-.3-.7-.6.3 0 2.2.3 1.5 1l-.5.2zm-1-5c0-.6 1-1 1.2-1.8-.2 0-.7.7-.9.8-.1-.6 1-1.4 1.2-2 1 .6-1.2 2.6-1.6 3zm.1.9l-.1-.1 1.1-.8v-.1c-.5 0-1.2.8-1.6.7.8-.6 1.7-1.5 2.7-1.5 0 .3-.4.6-.3 1v-.2c-.6.4-1.2.9-1.8 1zm0 .8c.3-.3 1.5-.5 1.6-.7l-1.5.2v-.1c.9-.1 1.3-1 2.2-.4 0 1-1.5 1.1-2.3 1zm.2 1v-.2l1.2-.1v-.1c-.5 0-1.2 0-1.6-.2.6-.2 1.7-.6 2.3-.2.9 1-1.5.9-1.9.9zm1.1 1.2c-.4 0-1.3-.2-1.6-.5h1.3v-.1l-1-.2c.3-.3 1.9-.4 2 .5l-.7.3zm-5.5 1.7c-.6-.4-.2-.8-.1-1.3h-.3v-.8c1.4 1 3.6.4 2.5-1.5-1.2-1 1.4-2.6 2-3.2 0 1-.9 1.8-1.6 2.5v.2c.7-.4.8-.6 1.5-.5.4.8-.7.9-1.1 1v.2c1.8 0 1.6 1 .1.9v.1c.7.4.9 0 .8 1-.6.4-.8.3-1.2-.3h-.2c0 .3.5.4.5 1-.5.5-1-.2-1-.6h-.3c.4 1.7-.8 1.3-.7.2h-.2c0 .4-.1 1-.7 1zm-.4-2.6v-.6c.3 0 .5 0 .7-.4 0 .6-.1 1-.7 1zm-8.4 0c-.5-.3-.5-.5-.5-1l.6.3v.3h-.1v-.2l-.4-.2c0 .3.1.5.5.7h-.1zm-2.3 6.4c-.8-.6-.4-1.3-.2-2 .1 0 .2-.2.4-.1l-.1 1c.2 0 .3-1 .4-1.2.5.8 0 1.4 0 2.1l-.5.2zm-2 .1c-.5-.8.2-2.6 1.1-2.8.4.9.3 2.8-1 2.8zm-1.8-.3c-.5-1 1-2.8 1.9-3.1.3 1.2-.7 3-2 3zm-1.2-1h-.5c0-1.5 1.4-2 2.4-2.7.2 1-.8 2.6-1.9 2.7zm-.6-1.4c-.4-1 .5-1.5 1.7-1.8l.1.1-1 .6c.7 0 1-.5 1.7-.5-.5.7-2.2 1.2-2.5 1.6zm-1.7-2.5c-.4-.1-.6-.4-.9-.7.8-.8 2.8-.5 4-.4-.3.3-1.9.2-2.3.2v.2c.6 0 1.8-.2 2.3.3-1 .2-2.1.4-3 .4zm3.2-1.3c-1.1 0-3.9 0-4.3-1.3 1.5-.2 2.2 0 3.6.4l-2-.1v.1c1.1.2 1.8.4 2.8.8h-.1zm-.6-1.2c-1.4-.3-3-.7-4-1.8.6-.6 3.8.4 4 1l-2.6-.6c.9.4 2.4.7 3.1 1.2l-.5.2zm-.1-1.4a6.3 6.3 0 01-3-2.2l.6.1c-.2-.2-.6-.3-.8-.3.1.8 1.4 1.5 1.7 2-1-.3-1.8-1.5-2-2.1 1.1-.3 2.5 1.3 3.3 1.2.3.3.6.4.9.9-1 0-.5-.2-2.7-1.3v.1l2.5 1.4c-.2.2-.3.2-.5.2zm.3-1.1c-.6-.4-4.2-3-3-3.7 1.2 1.2 2.6 2.3 4 3.4-1.3 0-2-1.7-3.1-2 0 .6 2.1 1.4 2.2 2.3zm.9-.6c-.2-.2-5-4.9-2.6-5.6.3 1.3 2.6 3.3 2.4 4.2l-.5-.6-.1.1v-.1l-.2-.3h-.1v-.1-.1h-.2c-.1-.3-.6-1.2-.9-1.3.3 1 1.6 2.8 2.3 3.8h-.1zm5.9 8.6c-.6-.5-.4-1-.5-1.7.6.2.5.7.6 1.4-.2 0-.2-.1-.2-.3h-.1c0 .2 0 .4.3.5v.1h-.1zm-1.2.1c-.7-.6-.4-.8-.3-1.8h.1l.1 1c.1.1.1.1.2 0v-1.3h.3c0 .2.3 2.5-.4 2.1zm-1.4-.3c-.8-1 .1-1 .3-2h.2l-.3 1.3.5-1 .1.2c0 1 0 1.3-.8 1.5zm-1.1-.5c-.8-.2.3-1.5.4-1.6l-.1 1 .5-.6h.2c-.3.7-.3 1-1 1.2zm-1.1-.6c-1-.3.4-1.5 1-1.5-.3.3-.7.6-.8.9.3-.2 1.2-1 1.3-.9-.5.7-.7 1.4-1.5 1.5zm-.8-1l-.4-.2c0-.8 1-.9 1.7-1-.2.3-.6.4-.8.5v.2l.9-.2c-.4.3-.9.7-1.4.7zm-.3-1c-.3-.2-.6-.2-.6-.5.5-.5 1.6-.8 2.2-.4l-.9.1v.2h1l-.1.2-1.6.3zm-.1-1.2c-.3-.1-.8-.3-.8-.7.6-.6 1.5-.2 2.3 0v.2h-1.2v.1h.9v.3l-1.2.1zm1.4-1c-.7-.1-2.2-.2-2.2-1.2.8-.3 1.3 0 2.1.4v.3c-.4-.3-1-.3-1.4-.4v.1l1.5.5.1.3zm0-1c-.8-.3-2-.6-1.8-1.6a5 5 0 012.4 1.4c-.2.2-1.1-.6-1.4-.7 0 .3.7.7 1 .9h-.3zm.4-.8c-.3-.3-2.6-2.3-1.4-3 .2.5 1.2 1.3 1.2 1.8l-.8-.4 1 1.6zm2.6 5.4c-.5-.3-.3-.6-.3-1.2l-.2.1c-.1.6-.3.8-1 .8 0-.7.3-.7.5-1.3-.6 0-.7.9-1.5.3 0-1 .2-.6 1-.9v-.1c-.6 0-1.3 0-1.4-.6.4-.6.8-.3 1.5-.3-.4-.5-1.4-.2-1.4-1 1-.8 1.4.4 1.8.3 0-.9-2.1-1.5-1.5-2.8h.1c.6.7 3.1 2 2 3.2-1.3 1.9.8 2.9 2 1.7 0 .2.2.6 0 .6.1 1.4-.7 1.6-.8.3h-.2c0 .4-.2.8-.6.9zm-3.4-9.6h-.2c-.1-.7.4-1.1.3-1.9h-.1c0 .2-.2.7-.5.6.8-.7-.3-1-.2-1.6l.1.3h.2v-.5.4c.4 0 .1-.2.3-.4.7 1.4.6 1.5.1 3v.1zm1.6-2.7c-.1-.3 0-.6 0-.8H227.4c0 .1-.1.9-.3.8zm-1.3-1.2v-.2c.4 0 .4-.6.8-.5l-.1.2h.6l-1.3.5zm2.8 2.9c-2.6-.5-1-1.3-1-2.9-.4-.3-3 .6-3.1.8 0 .7 1.5 1.8-.2 1.8.2-.3.4 0 .7-.4-1-1.7-1.2-1.7 1-2.1 3.6-1.5.6 1.2 1.8 2.4l1 .3h-.2zm.6 0c.5-.5 1.5-.3 1.7 0h-1.7zm.5.9l-.1-.2h.4c-.2 0-.2.2-.3.2zm-1.1 2.4c.3-.5.7-.7 1.2-.7l.1.1c-.6.2-.9.2-1.3.6zm-1.3-.2l-.6-.4c.8 0 2-.4 2.8-.4v.1c-.8.2-1.4.6-2.2.7zm3.2 0c-1-1.2-1.7-1.5-3-1-.7-1 0-1.3.8-1.5.5.9 1.5 1.6 2.4 2.4h-.2zm1.8-1.4l-.6-.5h.3c0 .2.2.3.4.4v.1zm1.3.3c-.6-.2-1-.5-1.4-.8.5 0 1 .5 1.5.7h-.1zm-2 .5c-.5-.4-1.1-1-1.6-1.1l.5.7c-.6 0-1.6-1.4-1.5-2 1-.2 2.8.1 4 0-.7 1-3 .1-3.7.5 0 .2 0 .6.4.6.6-.7 2.2-.4 3.1-.4-.3.2-1.2.2-1.6.2v.1c.4.3 1.3 2 .4.8-.3-.3-.5-.6-1-.7.3.3 1 1 1 1.3zm.4 1.6c-.7-1.5-3.3-2.3-3.4-3.7.2 0 .6.9.9 1.2 1 1 2 .9 2.5 2.3v.2zm.6-.3c-.4-.7-1.3-1.3-2-1.7v-.1c.3.2.8.6 1.3.7l-.3-.7c.4.5 1 1.1 1 1.8zm.7 0l-1.3-2c.6 0 1.4 1.5 1.3 2zm.8-.2c-.4-.7-1-1.2-1.4-1.8.6 0 1 1.2 1.4 1.7v.1zm.7 1.2c-.1-.5-1.2-2.6-1.2-2.6.4 0 .6 0 .8-.3-.2-.2-1.3-.5-1.7-.8l.6-.3v-.2h-.3l.5-.7-1.5.1c1.9-.5 2.4-1.8 4.4-.4l1.2.4c-.5 0-1-.2-1.4-.3.2.4.4.7.8 1l-.5.1c.1.2.4.3.6.4-.1.6-1.5.5-1.9.5.1.5.5.5 1 .6-.3.5-1.1 2.2-1.4 2.5zm-.1 1l-1.4-3c.7.8 1 1.4 1.3 2.4v.7zm2.5 1.5v-.3l.2.3h-.2zm-1 0v-.1.1zm-.8 0l.2-.4c.1.4-.2.5-.2.5zm-.3 0v-1l.2 1h-.2zm-.7 0l.3-.8c0 .6.2.8-.3.9zm-.4 0l.2-.4-.1.5h-.1zm-2.7 0a3 3 0 001.3-1.8c0 .6-.5 2-1.3 1.9zm.7 0c.2 0 .4-.5.5-.6 0 .3 0 .8-.5.7zm.6 0c0-.5.2-.9.5-1.4 0 .5 0 1.2-.5 1.5zm.7 0l.2-.3v.4h-.2zm.4 0v-1l.1.4h.1l.1-.7-.1 1.3h-.2zm0-1.6c0-.5-.5-1-.4-1.7l.1.1h.2l-.1-.6c.1.3.6 2.2.3 2.2zm-1.4 0c0-.6-.3-1.7-.2-2.3.3.8.4 1.5.2 2.4zm.5.2c0-.8-.2-1.4-.3-2l.3.5h.2c0-.3-.3-.8-.2-1 0 .2.7 2.5 0 2.5zm-1.2.8l-.6-.2a2 2 0 001.2-.7c0 .3-.3.6-.5.9h-.1zm2.7.2c0-.8-.4-1.7-.3-2.4 0 0 .7 2.9.3 2.4zm1.5.5c0-.4-.2-1.1 0-1.4v.7h.2v.6h-.2zm.4-.5c0-.9 0-1.2.3-2l-.3 2zm.7.4c-.3-.6-.5-.8-.3-1.5.2.4.4 1 .3 1.5zm.8 0c-.6-.6-.6-.9-.6-1.7 0 .1.1.6.3.7h.1v-.8c.3.6.6.8 1.3.9-.4.4-.8 0-1.2 0 0 .4.3.7.6 1h-.5zm-.5-1.8c0-.5 0-1.6.4-1.9l-.4 1.9zm-.4.4c0-.5-.2-1.2 0-1.6h.1l.2-.3h.1l-.4 2zm-1.4 1c0-1.2 0-1.5.4-2.6l-.4 2.5zm-.4-1c0-1 .4-1.4 1-2.3l-1 2.3zm1 0c-.2-1 0-2.3.6-3l-.5 1.3h.1l1-1.1c0 .3-1 2.3-1.2 2.8zm-.3-2.2c0-.2 1-1.8 1.3-1.6l-1.3 1.6zm.7 0c.3-1 .7-1.2 1.2-1.8 0 .3-.9 1.6-1.2 1.8zm.6.1l1.2-1.8c0 .3-.5.5-.4 1l1-.8c-.3.4-1.6 1.7-1.8 1.6zm-1-1.8zm1.2 0l.5-.6h.3c-.1 0-.7.6-.8.5zm2.3-1.2l.6-.1v.3l-.6-.2zm-2 1.6l1-1.3c-.3 0-1.4 0-1.5-.2 1.2 0 2.2 0 3.3.2l.3-.6c-1.3-.1-2 .5-3.9-.2 1-.3 3-.2 4.2-.1 0 .6-.8 1.7-2 2.2l.7-.8c-.4 0-1.2.7-1.3.7l.7-1c-.4 0-1 .7-1.4 1zm.2 1.6c1-1.7 2.6-1.7 3.4-3.6h.1c-.1 1.2-2.6 2.7-3.5 3.6zm3.4-.7c-.3-.4-.6-.4-1-.6.3-.2 1.2.2 1 .6zm1.3-.1l-1.5-.7c.6 0 1.1.4 1.8.4l.5-.1c-.3.3-.4.4-.8.4zm-3.3-.1c0-.3 1.6-1.4 2-1.7 1-1.7 2.2.5 1.1.8-.9-1-2.4.7-3.1.9zm5-2l.1-.4c0 .1.1.5-.1.4zm-1.4-2c0-.6-.5-1-.2-1.4 0 .1.5 1.3.2 1.3zm1.7 1.7c0-.5-.3-.7-.5-1.1 0-.7.7-1 .5-1.8l.4.2c-.2 1.7-.6.8.8 1.8v.1c-.1 0-1-.4-1.2-.3 0 .2.4 1 0 1.1zm-2.6-.9c1.5-1-1.7-4.4 2-2.5.7 0 1.4 0 1.5.9-.6 1.4-.4.6.4 1.3-.6-.3-1 0-.8-.8.2-.3.4-.5 0-.8-.4-.3-2.3-.8-2.8-.8-.2.2 1 2.4-.3 2.7zm2-2.7l-1.3-.5h.2v-.1c.5.2.5.2.6.1v-.1c.1.1.6.3.5.6zm-6.1 2.6c-.6-.2-1.2-.7-1.7-1.2.2 0 1.4 1 1.7 1.2zm-.4 0c-.7-.3-1.4-.7-1.9-1.3h.1l1.8 1.3zm-2.8-1.2v-.1h.6v.1h-.6zm0 .2h-.2 1-.9zm-2.3 1l.5-.3h-.1l1-1c-.2.4 0 .3-.7.9.4 0 .8-.5 1-.8h.3c-.3.3-1 1-2 1.1zm6.9.1c.3-.4 1.5-.3 1.7 0H239zm1.8-.5h-.1v-.1h.2l-.1.1zm0-.7v-.4a.6.6 0 01-.2-.4l.1.1h.3l.2.4-.2-.4-.1.1c0 .2.3.4-.2.6zm-.8.7l.1-.6h-.1.2v-.5-.1l.1-.5h.2v.6h-.1v.5h.1l-.2-.1-.1.4.1-.1V152l-.2-.2-.1.3zm-.5 0l-.2-1.3-.1-.1v-.3h.1c0 .2 0 .3.2.4v.5h.1v.8zm.2-1.7h.3c0 .2 0 1.3-.2 1.7l-.1-1.7zm0-.2v-.3h.2v.3zm0-.4v-.3h-.2v-.2h.2v-.3h.2v.3h.3v.2h-.3v.3zm-8.8 2.4v-.1h.1zm0-.8v-.1-.3a.7.7 0 01-.2-.4l.1.2.4-.1s.2.3.1.4l-.2-.3v.4l-.3.2zm-.8.7l.1-.5v-.1l.2-.5h-.2l.3-.6v.5h.1v.1h-.1c-.1.2-.1.5.1.2v.3h.1l-.1.1-.2-.2V152l-.1-.1-.2.2zm-.3-2.3v-.3h-.2v-.2h.2v-.3h.2v.3h.3v.2h-.3v.3zm0 .4v-.3h.2v.3zm-.1 2c0-.4-.2-1-.4-1.5h.1v-.2c0 .1 0 .2.2.3v.5h.1v.1s.1.8 0 .8zm.2 0l-.1-1.7h.3v1.6zm6-1.1h-2.5v-.3c.7-.1 2-.2 2.7 0v.3h-.1zm-.3-2.5l.1-.2.1.2h-.1zm.2.5v-.3l.3-.1-.3.4zm.3.2v-.2l.2-.2-.3-.5c-.2 0-.2-.2-.1-.4h.1V148.3c.2 0 .3 0 .3-.2.4.1.4.3.6.7-.3.2-.4-.4-.4-.4h-.2v.2c.2 0 .2.1.2.3l-.4.4zm-.5 0v-.3l.1.1-.1.2zm1 0l-.1-.2h.2v.2zm-.3.2l.1-.2v.2h-.1zm-.7 0c.1-.2.1-.2.3-.2l-.2.3h-.1zm.9.3v-.2l.1-.1-.1.3zm-.6 0v-.1-.2h.2v.2l-.2.1zm-.2.3v-.2h.2l-.2.2zm-.4 0l.1-.3h.2v.1h-.2v.2h-.1zm1 .3l-.3-.1v-.2c.2 0 .2-.1.2-.3h.1a139.2 139.2 0 00-.1.3l.1.3zm-1.1 0l.5-.2v.2h-.5zm.8.2l-.3-.1c.2-.2.2 0 .4 0h-.1zm-1.4-4.7v.4h-.3v.4h.3v.5h.3v-.5h.3v-.4h-.3v-.4zm.4 4.5c0-.7.2-2.2.5-2.5.2.3-.2 2.3-.5 2.5zm-.6 0c-.2-.6-.7-2.1-.5-2.5.2.2.7 2.2.5 2.5zm.2 0l-.2-2.6c0-.2.5-.1.7 0 0 .9-.2 1.7-.3 2.6h-.2zm-5.4 21v-.7h.2l-.2.8zm8.1 3.5c-.4-.8-1.5-1.6-1.6-2.3.3.9 1.8 1 1.7 2.2zm.3.8l-.2-.2h.9c-.2.2-.5.2-.7.2zm.3.4v-.2h.3l-.3.2zm-1 .3c0-1-1.2-3-1.1-3.3.3.6.9 1.2 1.3 1.8h-.1c0 .5.2.7.6 1v.3l-.7.2zm-5.5-.1l-.3-.3v-.2l.4.2v.3z" fill="#a75e22" fill-rule="evenodd"/><g fill-rule="evenodd" fill="#fff"><path d="M226.3 167.3c-.3-.2-.1-.7-.2-1l.2.3c0 1 .4.1.7 0-.1.5-.3.7-.7.7zM226.5 166.4c0-.4.2-1.3.5-1.3 0 .3-.2 1-.5 1.3zM224.8 166.1c0-.4.7-1.3 1-1.7h.1c0 .3-.8 1.6-1.1 1.7zM223 166h-.2c0-.5 0-.8.4-1 0 .3-.3.5-.3.8.4.1.5-.2 1-.2 0 .3-.7.4-1 .4zM223.7 165.1c0-.3.7-1 1-1 0 .3-.7 1-1 1zM222.5 163v-.2c.3-.1 1.1-.4 1.4-.3-.1.3-1 .5-1.4.5zM221 162.1c-.4 0-.7-.2-.8-.7l.6-.3c-.1.2-.4.2-.4.4.2.4.5.4 1 .6h-.4zM226.5 162h-.1v-.5h.2v.3l.1.2h-.2zM226.7 161.8c.2-.2.4-.5.7-.4v.2l-.7.2zM224.6 161.7c-.4 0-.4 0-.5-.2.2-.3.3-.4.6-.5 0 .2-.3.3-.4.4l.7.1v.2h-.4zM226.4 160.8c-.5-.2-.3-.7.2-.6-.2.2-.3 0-.3.4 0 0 .2 0 .3.2h-.2zM222 160.7c-.6-.1-2-.4-2-1h1.2l-1 .1c.6.6 1.5.5 2 .9h-.2zM227 160.6h-.4v-.2h.7v.2h-.3zM227.2 159.7l-.5-.4c.3 0 .5 0 .8.2v.2h-.3zM226.4 159.6c-.3-.3-.3-.2-.3-.6.7-.4.4.7.3.6zM222 159.3c-.5-.2-2.1-.9-2.3-1.5.5 0 1 0 1.5.2H220c.5.6 1.3.9 2 1.2h-.1zM222.2 156c-.6-.6-1.4-1.2-1.6-2.3.1 0 1 .7.8 1l-.5-.5c0 .5 1 1.3 1.4 1.8zM224 154.6l-2.3-3c-.2.7.3 1.3.6 2-.6-.6-1.1-1.5-.7-2.3h.2l1.8 2.6.3.7zM224.8 162.8h-.3c0-.5.2-.6.6-.7-.2.3-.4.1-.4.5h.7c-.2.2-.4.2-.6.2zM225.5 163.8l-.1-.1c0-.4 0-.5.3-.8l-.1.7.7-.2c-.3.3-.4.3-.8.4zM226.6 164.3c-.2-.3 0-.6.2-.7v.6l.4-.2c0 .3-.3.4-.6.3zM226.6 157.7c-.3-.2-.3-.6-.3-1h.1c.1.2 1 .8.8 1-.2-.1-.6-.5-.8-.5l.2.5zM227.5 162.8c0-.1 0-.5.2-.6v.5h.1v.1h-.3z"/><path d="M227.7 162.5c0-.2 0-.2.3-.5.2.2 0 .5-.3.5zM228 167.1l-.2-.5.3.3h.2l.2-.4c0 .3 0 .4-.2.6h-.2zM228.7 163.1l-.2-.3h.2v.2h.4c-.1.2-.2.1-.4.1zM230 163h-.2v-.4c.1 0 0 .2.2.3.1 0 .1-.2.3-.2 0 .3-.2.4-.4.4z"/><path d="M228.8 163v-.6h.3l-.2.5h-.1zM230 162.8l-.1-.4.3-.1c0 .4-.1.6-.2.5zM227.8 164.9l-.3-.6h.1v-.1h.2v.4c.3 0 .4 0 .5-.3h.2c0 .4-.3.5-.7.6zM229.2 165.1c-.3-.2-.3-.3-.3-.6h.1c0 .3 0 .2.3.4l.2-.4v.2l-.2.4zM228 159l-.7-.9c.2 0 1 .7.8 1h-.1zM225.2 156.7c-.4-.5-.8-.9-.5-1.5h.1l.4.5c-.1.1-.3-.2-.4-.2 0 .7.4.8.5 1.4l-.1-.2zM224.5 158l-.4-.7c.4 0 .7 0 1 .3l-.8-.1.2.5zM224.3 159.3c-.2-.2-.6-.5-.6-.7.3 0 .6-.2.9 0l-.7.1.5.5zM224.3 160.6c-.2 0-.6-.3-.6-.5.3-.3.4-.2.9-.3l-.7.4.7.4h-.3zM221.6 165.7v-.4h.2v.4h-.2zM224.4 167c-.2-.4 0-.8.1-1.1v.9c.1 0 .5-.5.7-.5-.1.4-.6.6-.8.6z"/></g><g fill-rule="evenodd" fill="#fff"><path d="M233 177.3c-1-.7-.4-3.4.5-3.6-.4 1-1.2 2-.7 3l.3.6zM238.5 177.2l-.4-.1c.6 0 .8-.1 1-.6 0 0 0-.7.1-.3.4.3-.4 1-.7 1z"/><path d="M238 177v-.2c.9-.3 1-.6.8-1.6.6.4.1 1.7-.7 1.7zM231 177c-1.6-1.2 0-3.2 1-3.4 0 .4-1.5.6-1.5 2.4l.3.7.1.3z"/><path d="M229.2 176c0-.6.4-.7.8-1.2h-.5v-.2h1a26 26 0 01-1.3 1.5zM240 175.9c-.8-1.3-1.8-1.8-3-2.6h-.2c.7.3 3.2 1.5 3.2 2.6zM231.4 175.6l-.2-.3c.1 0 .2 0 .2.2h.3v-.3h.2c-.2.3-.1.4-.5.4zM239.6 174.7h-.2v-.2c.3 0 .6 0 .7-.4 0 .5 0 .5-.5.6zM238.8 172.5h-.1v-.6h.1v.4c.1 0 .2 0 .3.2h-.3zM230.3 172.5v-.2l.5.1h-.5zM230.8 172.4l-.1-.2h.1v.2zM231 171.5v-.1h.2l-.5-.2v-.2l.7.5h-.4zM227.8 171c0-.2-.1-.3.2-.4v.2c-.3.2 0 .2-.2.2zM229.6 170c0-.2.4-.8.6-.6l-.6.6z"/></g><path d="M234.7 169.7c-.6-1.6-3 .2-3.7-1.8v-7.7h7.5v7.7c-1 2-3.2.1-3.8 1.8z" fill="#e21c2a" fill-rule="evenodd"/><path d="M235 168.7l-1.5-.2v-.1l.3-.2-.6-.4.2.2c-.2.2-1 .1-1.1.1-.8-.3-.7-.6-.6-1.3.2-.2.2-.2.2-.5h.1c0 .4-.4 1.3.3 1.3l.2-2c.4-.3.2-.8.2-1.2-.3.5-.1 1-.6 1.4v-.2l-.3.4v-.3l-.3.3v-.4h-.2c1-2.1 1-1.7 1.8-1.6l.4-.3v-.4h.3l-.1-.1v-.2c-.3 0-.3 0-.5.3-.4-.1-.5 0-.8 0l-.4-.2v-.2l-.3-.3v-.5c1-1 .9-.4 1-1.8l.1.2c.4 0 .4.3.4.8l.8.1-.3-.1v-.3c.4-.3.7-.4 1.2-.4.3.3.4.6.2 1.1h-.5l.3 1h.2v-.2h-.1c0-.2.5-.7.6-.8l-.2-.2.7-.2-.2-.3c.5 0 .8 0 1.1.4h.4l-.2.3h.4v.2h-.2v1.6c-.5.3-.7-.2-.7 0l.4 1.1h.8c.4.3-.2 2-.8 1.7 0-.8.5-.6.4-1.2-.2.1-.5.3-.8.3l.5 1.9.7-.3v.3l-.6.3v.1l.8-.1-.1.3-.7.2v.1h-.1l-.3-.1v.2h-.2c-.2-.2-.2-.3-.5-.3l-.5.6h-.3c-.2 0-.3.2-.4.1z" fill="#2c2c2b" fill-rule="evenodd"/><path d="M234.7 168.5h-.2l.7-.3-.2.3h-.3zM234 168.4v-.2h.4v-.1h.2c-.1.2-.3.2-.5.3zM235.6 168.3v-.2h.2v.1l-.2.1zM234.8 168.2l.5-.2-.5.2zM234 168v-.3l-.4.2v-.3c.3-.1.3 0 .4-.4h-.4v.2c-.1 0-.2 0-.1-.2h.4v-.1l.3.1v-.1h.2v.2h-.2c-.2.3-.2.3 0 .6h-.2zM236.2 167.9l-.2-.1.3-.1h.1l-.2.2zM235 167.8l-.2-.2v-.3c.1.2.2.1.2.3h.3s-.2 0-.2.2h-.1zM236.9 167.8l.1-.2h-.4v.1l-.2-.2h.4v-.1l-.8-.1v-.3h-.2a3 3 0 00-.3-.1l-.5-1.3-1-2.3c.3-.2.7-.3.6.2l-.2-.1v.1l.8 2.4.7.2c0-.1 0-.2-.2-.2l-.3-.3-.2-.8h.3l.1-.5h1c.1.3.1.5 0 .8-.1-.2 0 0-.3-.1.4 1 .5 1.7.8 2.8h-.2z" fill="#fff" fill-rule="evenodd"/><path d="M233.1 167.7h-.2c-.4-1.3.9-2.4.9-1.3.6.4.7.4.7.6-1.5-.8-1.3.7-1.4.7z" fill="#e21c2a" fill-rule="evenodd"/><path d="M234.6 167.5v-.3l.1.2z" fill="#fff" fill-rule="evenodd"/><path d="M235.3 167.4l-.6-.3c0-.4-.4-.6-.7-.8l-.1-.6v-.5h.4v-.1l-.5-.2c0 1-.3.7-.9 1.2 0 .5-.4.8-.2 1.4h-.3l.2-1.6c.2-.7.4-.5.2-1l.1-.6h-.3c-.2.2-.2.5-.2.8-.2 0-.2.1-.3.3v-.4l-.3.4.3-.7h-.2l-.1.4c0-.9.6-1.4 1.2-1l.6-.2.2.8.7.2.1.6h-.5.4c0 .3 0 .4-.3.6.2.4.7.9 1.1 1.2 0 .1 0 .1 0 0zM236.4 167.3c-.2-.1-.4-.3-.4-.5l.4-.1c-.2-.7-.8-1.1-.8-1.8h.1c0 .6.9 1.6 1.1 2.2l-.4.2z" fill="#fff" fill-rule="evenodd"/><path d="M235.2 167c-.4-.3-.4-.3-.7-.8l.2-.6.6 1.4h-.1z" fill="#e21c2a" fill-rule="evenodd"/><path d="M237.2 166.1v-.2c.4-.1.5-.6.6-1-.4 0-1 .3-1.1.3.4-.4.5-.4 1.1-.4h.1c-.2.7 0 1-.7 1.3zM235.1 164.8c0-.4-.1-.7-.3-1h.3v.6l.2.2v-.2.4h-.2zM234.3 164.7c-.4-.2-.7-1-.6-1.3h.1c0 .2.1.3.3.5 0 .3.2.5.3.8h-.1zM236.7 164.7l.1-.3v.3zM236.4 164.1h-1c-.2-.4-.4-1-.3-1.2h.2l-.1.2h.2v-.2l1 .4c-.3 0-.7-.2-1-.1l1.2.5.1.4h-.3zM234.9 163.6c-.2-.5-.3-.8-.2-1.4l.2.7c0 .1 0 .1 0 0 0 .1-.1.2 0 .2v.5zM237.2 163.4c0-.3-.4-.4-.6-.5v-.7c-.3 0-.2.7-.3 1l-.8-.3c.2-1.5.9-1.3 1.6-1v.5c.2.2.3.5.3 1h-.2z" fill="#fff" fill-rule="evenodd"/><path d="M236.8 163.3c-.2-.1-.3-.1-.3-.3l.5.3h-.2z" fill="#fff" fill-rule="evenodd"/><path d="M232.4 163.2l-.3-.2c.2-.2.6-.4.7-.7-.3 0-.7.5-.6.5l-.3-.2.7-.8h-.2l-.5.5v-.1c.2-.3.5-.5.8-.6 0 .6 0 .6.6.7l.2.6s-.3.3-.5.2l.4-.6c-.3.1-.3.5-.5.7 0 0-.2 0-.1-.2 0-.1.4-.4.3-.5l-.7.7z" fill="#7092c6" fill-rule="evenodd"/><path d="M234 163c-.2-.2-.3-.5-.3-.8.1.1.1.2.4.2v-.3h-.6v-.3l.5-.2.1 1.4h-.2z" fill="#fff" fill-rule="evenodd"/><g fill-rule="evenodd" fill="#fff"><path d="M240.2 165.1l-.3-.6c.2.1.2.3.3.4.2 0 .2-.4.3-.6v.1c-.1.3.2.6-.3.7zM240.6 163.2c-.3 0-.3-.1-.3-.3l.2.1h.1c.1-.1 0-.1 0-.2h.2c0 .3 0 .3-.2.4zM247 156.3c.3-.8 1.5-1.1 1.6-2.1l-1 .8c0-.2.9-1.1 1.2-1.2 0 1.3-1 1.7-1.9 2.5zM247.4 153.7c0-.7.8-1.3.4-2l-1 1.4c0-.4.7-1.3 1-1.7h.1c.4.7 0 1.6-.4 2.3z"/><path d="M243 167.3c-.4-.2-.4-.5-.5-.8h.2c0 .2 0 .4.3.6.3 0 .2-.5.3-.8v1h-.3zm-1.8-.1c-.4-.4-.4-.5-.4-1h.1c0 .4 0 .7.3.8l.5-.6s-.2 1-.5.8zm3.4-.4c-.2-.2-.4-.3-.4-.5.5.6.8.3.7-.4h.1c0 .6.2.8-.4.9zm1.7-.9c-.3 0-.7-.3-.7-.5.2.1.4.4.8.4v-.1a1 1 0 01-.1-.5c.2.3.5.7 0 .7zm-4.9-1c-.2-.2-.3-.3-.3-.5l.3.3c.3 0 .1-.3.2-.5h.1v.6h-.3zm5.9-.1c-.4-.1-.4-.1-.5-.3.2 0 .5.2.8 0l-.3-.6c.3 0 .6.5.4.9h-.4zm-4.7-.5c-.3-.1-.4-.2-.4-.5.1 0 .2.4.5.3v-.4h.1v.6h-.2zm1-.6l-.6-.4.8.2-.1-.5c.3 0 .4.7-.2.7zm4.1-.3h-.3v-.2h1c0-.2-.3-.4-.4-.5.3 0 .7.1.7.5-.3.3-.6.2-1 .2zm-6.1-.5c-.2-.1-.2-.2-.2-.3.1 0 .2.1.4 0v-.3l.2.4-.4.2zm-1.1 0v-.5h.1v.4h-.1zm3.6-.2l.5-.2-.1-.4c.2 0 .3.2.3.4-.2.2-.3.2-.7.2zm-2.7-.2l-.1-.4.2-.1v.5zm1-.2l-.1-.1v-.1l.4-.1c0-.3 0-.4-.2-.6.3 0 .5.4.4.7l-.5.2zm5.3-.4l1-.2.2-.2-.8-.4c.4 0 .6 0 1 .4v.1c-.4.4-.9.3-1.4.3zm-5.3 0l-.5-.3v-.3c.2 0 .5.4.6.5zm2.3-.3c.1 0 .3 0 .3-.3l-.2-.2v-.1c.2 0 .4.1.4.5l-.5.1zm-2-.8l.3-.3h-.3l-.1-.2c.3 0 .6 0 .6.3-.2.2-.3.2-.5.2zm-.6-.2v-.3l.6.2v.1h-.6zm2.8-.1c0-.2.4-.1.5-.4-.2-.2-.3-.1-.5-.2v-.1c.8-.1.8.8 0 .7zm3.2 0l1.2-.5-.6-.2v-.1l.8.1v.2c-.5.3-.9.5-1.4.5zm-6.2-.8v-.1c.2 0 .4-.2.6-.1-.1 0-.4.3-.6.2zm.7 0c0-.2.2-.2.3-.3v-.2h-.4v-.1c.2 0 .4-.2.7 0 0 .3-.2.4-.6.6zm2.3-.4c.2-.4.7-.8 0-.7v-.1l.6.2c-.2.4-.2.5-.6.6zm-3.7-.1c0-.3.5-.7.7-.8 0 .2 0 .2-.5.8h-.2zm7-.2v-.1c.4-.2.7-.4 1-.8l-.7.2v-.2l1.1-.1c0 .3-1 1-1.4 1zm-5.4-1.2v-.5l.4-.2-.4.7zm2.1 0l.2-.5-.7.3v-.1c.2-.2.6-.5.9-.3 0 .3-.2.6-.4.6zm2.8-.1c.1-.3 1-1 1.2-1.3-.3 0-.8.3-1 .4v-.2a5 5 0 011.3-.4c-.3.5-.9 1.2-1.5 1.5zm-3.3-1.7c0-.3.2-.5.4-.8h.1v.7h-.2v-.2l-.3.3zM239.3 163.4c-.3-.1-.2-.2-.3-.4.5 0 .5-.2.8-.1-.1.2-.2.4-.5.5zM239.2 162.8c0-.3 0-.3.2-.5h.2c0 .2-.2.4-.4.5z"/></g><path d="M235.3 162.7h-.1c.4-1 .4-.7 1-1.3-.1 0 .1-.1 0-.2.3 0 .6 0 .6.4h-.6c-.7.4-.8 1.1-.9 1.1zM237 162.7v-.3.3zM234.3 162.2v-.4c0 .2.3.2.3.4h-.3zM233 162.1c-.6-.5-.2-2 .1-1.1 0 0-.2.1-.2.3l.2.8zM233.3 161.6v-.1h.4l-.4.1zM234.3 161.7c0-.3 0-.4.3-.6l.2.2V161.6l-.5.1z" fill="#fff" fill-rule="evenodd"/><path d="M234.9 161.6c0-.6 0-.6-.4-.7 0 .2-.1.3-.3.4v-.2c-.3.4-.3 0-.5 0 .2-.3.8-.4 1.2-.4.1.3.3.5 0 .9zM218.5 170.3c-.5.4-1.4 1-2 1.2 2 .7 3.7.9 6.6 1 .3-.1.2-.2.2-.5l-.3-.9c-2.5 0-2.9-.4-4.5-.8zM224.7 171l.2.5h.6c.5.2.4.7.9 1 .5 0 1.2-.1 1.7-.4l.1-.7h-.5c-.6 0-.5-.3-.7-.4h-2.3z" fill="#fff" fill-rule="evenodd"/><path d="M200.1 227.2l.6-.4c.6 0 1 .4 1.1 1.2 0 1-.7 1.4-1.2 1.2-.1.1-.6-1.7-.5-2zM200.2 226.2c.2 0 .3.1.3.3 0 0-.1.2-.3.2l-.4-.2c0-.2.2-.3.4-.3z" fill="#fc0" fill-rule="evenodd"/><path d="M201.7 233l-.4 1.1 1 1 .5-1z" fill="#008ed1" fill-rule="evenodd"/><path d="M203 234.4l-.5.8 1.2.6.3-.2z" fill="#fff" fill-rule="evenodd"/><path d="M201.5 232.8h-.8l-1.2 1c.5 0 1 0 1.3.3z" fill="#e21c2a" fill-rule="evenodd"/><path d="M203.8 238.7l-.7.6.7 1.8c.5-.1 1.2-.2 1.8 0-1-.7-1.5-1.4-1.8-2.4z" fill="#fff" fill-rule="evenodd"/><path d="M202.6 239.2h-.4l-.7-.4-.6.2c-.2 1 .8 2.9 1.4 3.7.2-.4.5-1.1 1.1-1.5l-.8-2z" fill="#008ed1" fill-rule="evenodd"/><path d="M200.5 240l-.9 1c0 .9.2 1.5.7 2.2l1.4-.5z" fill="#e21c2a" fill-rule="evenodd"/><path d="M218.4 241c1.2-1.1 2.6.1 1.2 1.3l-1.2-1.3z" fill="#fc0" fill-rule="evenodd"/><path d="M240 243.2c.4-.6 1.9-1.2 2.8-1.3-.1.6-.7 1-1.2 1.5.5 0-1.5.4-1.5-.2z" fill="#fff" fill-rule="evenodd"/><path d="M238.5 244.6a4 4 0 011-1c.6.3 1.1.2 1.6.3l-.9.9c-.4-.3-1.1-.2-1.7-.2z" fill="#e21c2a" fill-rule="evenodd"/><path d="M237.8 246.2c.2-.3 0-1 .4-1.3.7.2 1 .1 1.6.2l-.9 1c-.4.2-.5.1-1 0z" fill="#008ed1" fill-rule="evenodd"/><path d="M247.2 252.4c.8 0 1.5.3 1.5.6s-.7.5-1.5.5c-.9 0-1.6-.2-1.6-.5s.7-.6 1.6-.6z" fill="#fc0" fill-rule="evenodd"/><path d="M238.8 247.5l4 1.7 4.7 2.9c-1-.1-2.2.4-2.4.9-2-1.7-4.3-3.9-6.3-5.5z" fill="#fc0" fill-rule="evenodd"/><path d="M268.7 239.2c-.4 1.4-1.4 2.2-2.4 2.8.2.2-.1.4 0 .5l2.2.4c.6 0 .4-3 .2-3.7z" fill="#e21c2a" fill-rule="evenodd"/><path d="M193.7 212l-.3 1v1c.2.3.7.9 1 1 .8 0 1 .3 1.4 1.2.1.2.4.5.6.5.9.2 1.1.3 1.4 1.6 3.7 1.6 6.8 3 9.7 6.7-1.6-4.4-4.2-5.2-7.6-7.5l-1.7-1.4-1.1-.9c-.5-.2-1.3-.6-1.7-1z" fill="#fff" fill-rule="evenodd"/><path d="M204.4 188c-.1-.6-.7-2 .4-2.9V184c-.5-.6-.6-1.3.3-2 0 0-.2-1 0-1.4-.5-.4-1.5-.8-.7-1-.5-1.2.5-2.1 1.9-1.8.9-1.3 2-.3 1.4 1.7 1.5 1.1.7 1.8 0 2.9 1.5 1.4-.8 2-.5 2.9.2.2.2.5.2.9 0 .6-.9 1.1-1.5 1l-2.6 2.7c-.4.4-.5.5-.6.3-.3-.3.7-1 1.7-2.1z" fill="#fc0" fill-rule="evenodd"/><path d="M203.8 180c1.7.5.7 2.3 0 3.1 1.8 1.4 0 2.1-.2 3 1 2.3-1.3 3-1.3 3.8 0 1.2-.5 1.8-.7 1.8-.2 0-.2-2-.2-2.3-.9-.5-1-1.6-.8-2.4-1.4-1.1-1-2.1-.7-3.4-1-1-1.3-1.8-.2-2.8-.3-1.1-.2-2.9 1.2-3.1.8-3.7 1.9-.5 2-.5 1.4 0 1.2 2 .9 2.8z" fill="#fc0" fill-rule="evenodd"/><path d="M193.8 180c-2.5-.8-1.1-1.3-1.7-2.8-1.2-.3-1.7-.7-.6-2.2-1.2-1-.7-2.5 1.6-1.5.8-.9 2.6.6 2.3 1.1 2 .2 2.1 1.5 1.8 3 .8 0 1.6 1 1.6 1.8.4.7.5.7.5 1.2 0 .3-.3.5-.5.8v1.5c.3.3 1.1 2 .2 2-.3 0-.3-.4-.4-.8-.1-.1-.4-.5-.7-.6-.7.1-2 0-2.1-.8 0-.2-.2-.7-.1-1-1.6.2-2.1-.2-1.9-1.7z" fill="#fc0" fill-rule="evenodd"/><path d="M200 188c0 .2.6 1.5 1 1.5v.5c.5 1.2-.9-.4-1.4-.3-.6.3-1.2-.2-1-.7-.4-.2-.4-.5-.8-.6-.4-.3-1.5.3-2-.1-.7-.5-.5-1.1-1.2-1.5-.8-.5-2.3.9-2.4-.8l.2-1c-.7-.2-1.5-1-1.4-1.7 0-1 1.5-1.4 2.3-1l.7-.2c.5-.2 1.4-.1 1.3.7.3.2.6.5.6.9 0 .1 2.7-.3 2.4 1.2.3.4 1.1.2 1 .8 0 .8 1 1 .8 2.3zM208.1 195.3l-.9.6c-.4.3-.1 1.3-.1 1.5 0 .8-.4 1.3-.8 1.3-.2 0-.4 0-.5-.3-.8-1.1-3.2-3.6-3.2-4 0-.5.5-.9 1-1v-1.2c0-.7.4-1.1 1.2-1.1l.6-.1c.7-1.7 3.2-2 2.6.3-.2.6-.6 1.3 0 1.8.4.4.7.9.7 1.1 0 .5-.2 1-.6 1.1zM194.1 196c.2.7 1 .3 1.5.3 1.6.3.5 1.7 1.5 2.2 1 .5 1.8 1 1.2 2.6-.1.4.3.9.6.9 1 .4 0 1.5.2 2.2.1 1.3.8.9.8 2 0 .6-.3 1-.6 1.2-.2.3-.3.8 0 1.1.2.4.6.7.3 1-.2.2-1-1-1.3-1-1.3 0-1-1-1-2.3-.7-1.3-1.5-1.6-2-1.4-.6.2-1.2.2-1-.3 0-.5-.2-1.3-.8-1.5-2.2-.7 0-2.6-.7-3-.9-.4-1.3-1.4-.4-2.7-1.5-3 1.5-3 1.7-1.3z" fill="#fc0" fill-rule="evenodd"/><path d="M206.9 202.5c-1.3-1.7-11.8-12.8-11.8-14.4.6.9 1.5.7 2.1.6.4.9 4.9 6.3 8.2 10 1.3 1.3 1.9 4.2 1.5 3.8z" fill="#fff" fill-rule="evenodd"/><path d="M205.8 205.6c.4.8-.2 2.2-.3 2l-1-2-2.6-2.9-1.8-2c-2.4-2.6-3-3.2-3.2-3.8 0-.7-.7-1.1-1.5-1-.8 0-1.4-1.7-1.6-3.2l-.3-2.1c0-.3 2.4 3.8 4 5.3 2.8 3 6.6 6.7 8.3 9.7z" fill="#e21c2a" fill-rule="evenodd"/><path d="M202.7 198.3c.2.1 3.4 3.7 3.8 4.6l.4 1.2c0 1-.4 2.2-.5 2l-1.2-2.2c-1.1-1.8-2.9-3.5-3.6-4.3-1.6-1.8-6.8-7-7.9-9.4 0-1 .2-2.2.8-3 0 0 .5 2.2 1.8 3.7.9 1.1 2 2.7 3.3 4l3.1 3.4zM203.8 205.4c.5.3.8.8.8 1.2-.4 1-.8 1.4-1.5 2-.4.5-1 .9-1.5 1.1.1-.3-.6-.7-1.5-.8.5-.3 1.5-.8 2-1.3a13 13 0 001.7-2.2z" fill="#008ed1" fill-rule="evenodd"/><path d="M202.8 204c.4.5.8.8.8 1.2l-2 2.3c-.7.6-1.6 1.3-1.7.8 0-.4.5-1.1.7-1.4.1-.3 0-.7.3-.6.4.2 1.2-.6 1.9-2.2z" fill="#fff" fill-rule="evenodd"/><path d="M204.8 207.1s-.2.6-1.6 1.9c-1 .8-2 1.5-1.2 1.5h1l.8-1.2c.3-.5.8-.7 1-.8.5 0 0-1.4 0-1.4z" fill="#e21c2a" fill-rule="evenodd"/><path d="M198.4 213.5v-.1z" fill="none"/><path d="M199.5 214.3l-1.3-.4c-.2 0-1.4.6-1.4-.2-.7-1.7-1.4-.6-1.8-1-.5-.7-1.1-2-1.3-2-2.4 0-2.1-.6-2.4-1.8-.2-.4-1.1-.3-1.2-.8-.2-.4 0-.9.2-1.3-.4-.3-.8-.8-.8-1.1 0-.6.2-1.1 1-1.2.3 0 1 .1 1.3.3.2-.4.4-1 1-.7.8.3.5 1 1.2 1 2.4.2 2.7.3 2.7 2.8 0 1.2 3 .5 2 3-.3 1.9 3 .9 2.4 1 .5.9-1.6 2.2-1.6 2.4z" fill="#fc0" fill-rule="evenodd"/><path d="M206.9 208.5c1.5.3 0 2 0 2.2.3.4.4 1 .3 1.3 0 .5-.4 1-1 1.2-.5-.1-1.6.4-1.1.7.4.3.1.6.2 1 .3.7-.8 1-1.3.9-.2 0-.3 0-.6.4-.3.5 0 1 .1 1.2 0 .7-.6.7-1.1 1-.2 0-.4-.2-.5 0-.3-.5-.9-.6-1.4-.9-.6-.4-.7-.4-.8-1.5 0-1 .2-1.7.7-2 .4-.2 1-.4 1-1.1 0-1.4.5-2 1.7-2 .4 0 .5-.3.7-.7.2-.6.4-1.2 1-1.2h.8c.3-.3 1-.5 1.3-.5z" fill="#fc0" fill-rule="evenodd"/><g fill-rule="evenodd" fill="#2c2c2b"><path d="M189.7 226.5c-.2.2 0 .3 0 .5l1.9-.2-1 1c0 .2 0 .2.2.3l1.4-1.3c1 0 2 .2 3 .4.1 0 .1-.2 0-.4l-1.4-.4-1.1-1.1c-.4-.1-.5 0-.4.2l.7.8c-1.1 0-2.1 0-3.3.2zM194.4 217.1c0 1.6.6 3.4 1.2 5.1-.5 0-.9-.4-1.2-.8-.3 0-.4.2-.3.4.6.9 1.2 1.3 1.9 1.7l.8 2-1.1-.7c-.4.2-.4.3-.1.6.3.6.9.7 1.4.8l1 1.5c.4.2.5 0 .5-.2-.4-.7-.8-1.4-1-2.3.3-1 .5-2 .5-3.1-.2-.3-.3-.4-.5-.1l-.3 2.3c-.6-1.2-1-2.4-1.4-3.7l.8-2.8c-.2-.3-.4-.4-.5-.2l-.6 2.2-.8-2.7c0-.2-.2-.2-.3 0zM189.5 233.3c1-.2 3.3-1 5-1l-1.3 1.4c0 .2.2.3.4.3l1.4-1.7c.8-.2 1.4-.2 2-.2l-.5.6c-.2.3-.1.5.1.4l1-1 1 .1c.2-.1.2-.3.2-.5-2.1 0-4.2 0-6.2.4-.5-.3-1-.6-1.2-.9-.2-.2-.3-.1-.3 0 .2.4.4.7.8 1l-2.2.7c-.7.2-1.1.5-.2.4zM202.8 236.1l-2.6.5c-1.4 0-2.6.1-3.7.3-.2.2-.2.3 0 .4l2.4-.2-2.9 1.8c-1 .4-2.1.8-3 1.4-.3.3-.3.5 0 .5l1.6-.8-1.4 1.6c0 .4.1.5.4.4.6-.8 1.2-1.5 2.1-2.1l-.5 1.6c0 .3.2.4.4.2l.8-2.3c.9-.8 1.8-1.3 2.8-1.7l-.4 1.3c0 .2.2.2.6 0l.6-1.7c.8-.4 1.8-.5 2.8-.8v-.4zM207 241.6c.4 0 .5 0 .4.3-.8.5-1.4 1-1.8 1.5 0 1-.3 2-.5 3-.2.2-.3.2-.5 0 .2-.8.4-1.6.3-2.5a16 16 0 00-2.2 2.1l-.5 3.2c-.2.2-.3.2-.4 0l.1-2.1-1.6 1.8c-.3 0-.4 0-.3-.3.8-1.2 1.8-2.4 2.8-3.6a8 8 0 00-1.9.5c-.2-.1-.4-.2 0-.4l2.6-1 3.6-2.5zM217.6 244.6l-2.3 1.8-2.8 1c-.5.3-.6.5 0 .6l1.6-.4-1.2 1.5-2.3.8c-.3.2-.2.4.1.5l1.3-.3-1 1.6c0 .3.2.4.5.2l1.5-2c0 .5.2 1 .3 1.4.1.3.3.3.4-.1l-.3-1.8 2.1-2.4v1.7c.3.7.4.7.6 0v-2.2l2-1.4c.1-.4 0-.6-.5-.5zM208.6 234c-.4-.1-.5 0-.4.3 1 .5 1.3 1.2 1.9 1.8l-1.7-.4c-.2 0-.3.2-.1.3l2.6 1 1.3 1.6-1.5-.3c-.2.2 0 .3 0 .5l2.2.6 1.3 1.3c-.5.1-1 0-1.6-.2-.3.1 0 .3 0 .5l2 .5 1 1c.3 0 .5-.2.4-.4l-1.4-1.8a8 8 0 00-.1-1.8c-.2-.3-.4-.3-.5-.2v1.2l-1.8-1.9c0-.6 0-1.3-.2-2-.1-.2-.3-.3-.5-.1.2.5.2 1 .1 1.5l-3-3zM193 196.7c0-.1.2 0 .4 0 0 0 1.3 3.6 1.6 1.9.4-2.6.7-1.3.3 1.3 0 .3 1.4 2.4 1.6 2.8.4.6.2-1.7.8-1.5.4.2-.7 2-.2 3 1.4 2.7.7 2.8.4 2.6l-.4-1.1c-.5-1.3-1.5-1.7-2-1.9-.6-.2-.1-.6.5-.2 1.4.8.2-1.1-1.3-3.3-.4-.7-2.3-.9-2.3-1.6 0-.5 1.8.9 1.6.5-.2-.5-1.3-2-1-2.5zM191.3 206c.2-1 2 2 1.2-.1-.3-.8.4-1.5.8 1 0 .3.3.7.6 1 1.9 1.4 1.3 1.2 1.7 1.4.7.4-1-2.1-.2-1.9 1 .4.1 1.5 2.2 3.8 1.7 1.8 1.3 2 1 2.3-1.5-1.8-1.2-1.6-3.7-2.5-.5-.1-.2-.6.3-.5 2.8.7 1.2.2-1.1-1.7-.7-.6-2.4 0-2.5-.6 0-.5 2 .1 1.7-.2-.3-.4-2.1-1.4-2-2zM206.5 209.4c.3 0 .4 0-.1.7-.1 0-2.2 2-.8 1.3.7-.3 2.2-.1-1 .7-.4.1-1 .8-1.2 1.2-.3.6-1 1.2-.6 1 1.5-.2 1.3-.7 1.4-.1 0 .5-1.5.2-2.5 1.6-1.2 1.7-.6 1.4-1.2 1.2l.3-.7c.2-.4 0-.8.1-2 0-.5.5-.7.5-.1 0 1.7-.1 1 1.7-1.3.4-.4-.6-1.6.1-1.8.5-.1.4 1.3.8 1 .4-.5 2-2.7 2.5-2.7z"/></g><path d="M199.5 172.5c.5 0 .9 0 1.1-.2.2.3.4.5.8.6a9 9 0 00-3.2 4.7l-.6-.2c0-.7.2-1.3 0-2 .4-.9 1-2 1.9-2.9z" fill="#fff" fill-rule="evenodd"/><path d="M201.8 172.9h.6l.2.7a44 44 0 01-1.6 2.6c-.1.2-.4 1-.3 1.2-.6.2-1.3.8-1.4 2l-.4-.9-.5-.7c.6-2 1.7-3.6 3.4-5z" fill="#008ed1" fill-rule="evenodd"/><path d="M201.2 211c-.1.1-.5 0-.9-.3l-.6-1c.5 0 2-.7 1.5 1.2zM199.3 210.1c-.2.3-.3 1 0 1.4.3.3.8.4 1.4 0-.5-.3-1-1-1.4-1.4z" fill="#fc0" fill-rule="evenodd"/><path d="M193.3 214.3c.1.5.3.5.7.8l-.5.5c-.5.1-.4-.5-.2-1.3zM195 213c.2.7.6 1 1 1.3.4.3.7 0 .4-.6-.5-.5-1-.8-1.5-.6z" fill="#008ed1" fill-rule="evenodd"/><path d="M196.6 214.6c.6.1 1.3-.6 2-.2 0 .4-.2 1-.5 1.2-.4-.4-.9-.7-1.5-1z" fill="#e21c2a" fill-rule="evenodd"/><g fill-rule="evenodd" fill="#2c2c2b"><path d="M194.6 162.3c.8-.2 3 3.4 4.2 4.3.3-.4-.7-3.5.1-2.6.5.9.5 3.1.8 3.6 1.8 2.9 2.5 4 1.5 3.4l-1-1.4c-.8-.2-2.1-.5-2.8-1-.6-.3.5-.4 2.1.2.5.2-.8-1.6-2.6-3.7-.6-.6-2.4-.5-2.9-1-.3-.4 2.3.5 2 0-.3-.4-2-1.7-1.4-1.8zM206.2 168.5c1.5-2.6-.8 4.5-.2 4l.4-.4.5-.3c.6-.2.6.5-1.3 1.6l-.3 2.2c-.4.4-.7.6-.8-.2 0-.3.7-2.4.5-2.9-1.1-2.3-.4-3.3.2-.6.3 1 .6-2 1-3.4zM202.2 178c.3 0 .4 3 .7 2.8l.6-.8c.2-.2 0 .5-.5 1.5-.2.3 0 1.6 0 2.2 0 .7 1-.4.7.1-.5 1-1 1.6-1 2.4-.3 2.5-.6 2.4-.8 2V187c-.3-1.1-1.2-2.3-1.3-3-.2-.4.7.5.9 1 1.1 2.6.9 0 .7-3 0-.7-1.8-1.8-1.3-2.3.3-.3 1.3 1.7 1.3 1.3 0-.6-.4-3.3 0-3zM207 179c-.4 1.2-1 2.8-.3 2.1 1-1 2-.8-.5.8l-.4.8c-.3.3-.5.3-.3-.3 0-.2.6-1.4.5-1.8-.4-1.6-.7-2.2.2-1 .3.4.3 0 .4-.4.1-.6.5-.8.4-.2zM206.4 191.7c.7-.6.5 0 .4.2-.5 1.2-1.4 2.7-.5 2.2 1.3-.8 2.4-.3-.8.8l-.8 1.2c-.3.3-.5.2-.4-.2 0-.3 1.3-1.8 1.2-2.2-.3-1.2-.7-2.8.3-1.2.3.5 0 .1.6-.8zM192.3 183.9c.6-.4 1.7-.2 2.4.1.7.4-.8-1.5-.1-1l.3.4.7.7 2.5 2.2c1.8 1.1 1.1 1.2.8 1.3l-.3-.2c-1-1.3-2.5-.7-3-.8-.5-.1 1-.5 1.1-.6 1 0-.8-1.1-1.7-.8-.7.2-1.5.5-2 .2-.4-.2 2-.5 1.7-.8-.4-.5-2.7-.5-2.4-.7zM192.5 174.3c1.2-.1 2.9 3.1 3.5 4 .4.6.2-3 .5-1.9.2.9.1 1.6 0 2.6l1.7 3.3c.3.5 0 .5-.3.6-1-2.4-2.3-1.5-3.1-2.5-.3-.3.4-.2.8 0 2.3 1 .7-.6-1-3-.5-.8-2.1-.5-2.5-1-.3-.5 2.2.4 2 0-.2-.5-2-2-1.6-2.1zM197.6 155.1c1.2 0 3 4.2 3.7 5.2.6.7-.3-3.5.3-2.4.7 1 0 3.1.2 3.7 1.5 3 1.8 4.5 1 3.7l-1.2-2.6c-.8-.8-2-1-2.4-1.5-.3-.3.7 0 1 0 1.8 1.1.8-.5-.8-3-.5-.8-2.5-.8-2.9-1.4-.2-.4 2.5.6 2.4.2-.2-.5-1.8-1.8-1.3-1.9z"/></g><path d="M276.5 191c-3.6 4-6.3 5.8-10.5 10.1-1.4 1.7-2.7 3.7-2.7 4.6l1.2 1.4c0-2.2 1.5-3.4 2.8-5.1 2.9-3 7.7-7.2 9.2-11z" fill="#e21c2a" fill-rule="evenodd"/><path d="M275.4 187.6l-1.8.5a31.6 31.6 0 01-5.6 6.2c-3.8 3.1-5.7 6.9-5.7 7.8v1.2c.5-1.8 3.5-5.5 5.4-7.2 2.7-2.5 5.9-5.3 7.7-8.5z" fill="#fff" fill-rule="evenodd"/><path d="M276 187.1c-.8 3.7-13.4 13.1-13.3 16.7l.3 1.2c2.2-5 9.6-10.3 13.4-14.5.4-1.7.1-3-.5-3.4z" fill="#008ed1" fill-rule="evenodd"/><path d="M265 206c-.1.8-.2 1.1 0 1.6-.1.3 4.8 4.4 4.4 3.7V210c-1.6-.8-3-2.5-4.4-4.2z" fill="#e21c2a" fill-rule="evenodd"/><path d="M265.6 204.6c-.2.9-.4.8-.4 1.1 0 .5 4.6 4.7 4.2 4v-1.5c-1.5-1-2.4-2-3.8-3.6z" fill="#008ed1" fill-rule="evenodd"/><path d="M275.2 211.9c-.5 1-1 1.8-3 3-4.8 2.6-8.5 5.4-10.2 9.5 4-4 2.7-2.5 12.8-9.7.4-.4 1-1 .4-2.8z" fill="#fff" fill-rule="evenodd"/><path d="M261.4 229.6c-.1-1.1-.2-2.2 0-3.4 1.4-3.2 8-7.3 11.2-9.4l-.8.8-.3 2-.7.8c-3.3 2.3-8.5 4.7-9.4 9.2z" fill="#008ed1" fill-rule="evenodd"/><path d="M261.5 230.2c.4-3.4 3.1-5.8 8.5-9-.1.7-.9 1.6-1.2 2.5-.4 0-.7.3-1 .7-3.3 1.7-4.7 2-5.7 5.6l-.2 1.4z" fill="#e21c2a" fill-rule="evenodd"/><path d="M262.8 229c-1.2 2.4-.3 3.8 1.2 5.3l.1-.7c.2 0-.9-1.1-.5-2.5 0-.4-.8-1.6-.8-2.2z" fill="#e21c2a" fill-rule="evenodd"/><g fill-rule="evenodd" fill="#fc0"><path d="M265.5 173.5c.4-.6.9-1 1.2-.7.2.2.2 1-.2 1.6-.4.6-1 .9-1.2.7-.3-.3-.2-1 .2-1.6zM265 171.8c.3-.6.8-1 1.1-.7.3.2.2 1-.2 1.5-.3.7-.9 1-1.1.8-.3-.3-.2-1 .1-1.6zM264.4 170c.4-.5 1-.9 1.2-.6.3.2.2 1-.2 1.5-.3.7-.9 1-1.1.7-.3-.2-.2-.9.1-1.5zM264 168.4c.3-.6.7-1 .9-.7.2.2.1.9-.1 1.5-.3.6-.7.9-.9.6-.2-.2-.1-.9.1-1.4zM262.8 166.6c-.1-.8 0-1.3.3-1.3.4 0 .8.7.9 1.4.1.7 0 1.2-.3 1.2-.4 0-.7-.6-.9-1.3zM262.3 168.4c-.3-.6-.2-1.1 0-1.1.4 0 .9.4 1.1 1 .3.6.3 1.1 0 1.2-.4 0-.8-.5-1.1-1zM262.5 170.5c-.4-.5-.6-1-.3-1.1.3-.1 1 .2 1.3.7.5.5.6 1 .3 1.2-.3 0-.9-.2-1.3-.8zM263 172.6c-.6-.4-.8-1-.5-1.1.2-.2.9 0 1.4.5.5.4.7.9.4 1-.2.2-.9 0-1.4-.4z"/><path d="M263.6 174.4c-.5-.4-.7-.9-.5-1 .3-.2.9 0 1.4.4.5.4.7.8.4 1-.2.2-.8 0-1.3-.4zM265.7 166c-.2-.7-.1-1.2.2-1.3.3 0 .8.5 1 1.1.2.7.2 1.3-.2 1.3-.3 0-.7-.4-1-1.1zM266.2 164c-.3-.7-.2-1.4.1-1.4.4 0 .9.5 1.1 1.2.3.7.2 1.3-.1 1.4-.4 0-.9-.5-1.1-1.2zM267 162c-.3-.8-.3-1.4 0-1.4.4 0 1 .5 1.2 1.2.3.7.2 1.3-.2 1.4-.3 0-.8-.5-1-1.3zM267.6 159.9c-.3-.8-.2-1.5.1-1.6.4 0 1 .6 1.2 1.4.3.8.2 1.5-.2 1.5-.3 0-.9-.5-1.1-1.3zM267.8 165.5c.5-.5 1-.7 1.2-.4.2.3 0 .9-.6 1.4-.5.5-1 .6-1.2.4-.2-.3.1-1 .6-1.4z"/><path d="M268.5 163.3c.6-.5 1.1-.6 1.3-.3.2.3-.1.9-.6 1.4-.5.5-1.1.7-1.3.4-.2-.3.1-1 .6-1.5zM270.7 168.5c.7-.2 1.3-.1 1.3.2 0 .4-.6.8-1.3 1-.7.2-1.3 0-1.3-.3s.5-.8 1.3-1zM269.4 170.3c.7-.3 1.2-.3 1.3 0 0 .3-.4.8-1 1.1-.6.3-1.2.3-1.3 0 0-.4.4-.9 1-1.1zM268.7 172c.7-.3 1.2-.2 1.3.2 0 .3-.5.7-1.2.9-.7.2-1.2 0-1.3-.3 0-.3.5-.7 1.2-.9zM272 166.7c.8-.2 1.4 0 1.4.3s-.5.8-1.2 1c-.8.2-1.4 0-1.4-.3 0-.4.6-.8 1.3-1zM272.9 165c.7-.3 1.3-.2 1.3.2s-.5.9-1.3 1.1c-.7.2-1.3.1-1.3-.3s.6-.9 1.3-1zM271.7 163.5c.4-.7 1-1 1.2-.7.3.2.2 1-.2 1.6-.5.6-1 1-1.2.7-.3-.3-.2-1 .2-1.6zM270.1 165.9c.2-.8.6-1.2.9-1 .3.1.4.8.2 1.5s-.6 1.2-.9 1c-.3-.1-.4-.8-.2-1.5zM268.8 167.5c.2-.6.5-1 .8-1 .3.2.4.9.3 1.6-.2.6-.6 1-.9 1-.2-.2-.4-.9-.2-1.6zM267.7 169.4c0-.7.3-1.1.6-1 .3 0 .6.6.6 1.2s-.3 1.1-.6 1c-.3 0-.6-.6-.6-1.2zM266.8 171.2c.2-.6.6-1 .9-.8.3.2.3.8.2 1.4-.2.5-.6.9-.9.7-.3-.1-.4-.7-.2-1.3zM269.2 161.1c.6-.5 1.2-.7 1.4-.4.1.3-.1 1-.7 1.5-.5.5-1.1.7-1.3.4-.2-.3.1-1 .6-1.5zM270 159c.7-.5 1.3-.6 1.5-.3.2.2-.1.9-.7 1.4-.6.4-1.2.6-1.4.3-.3-.3 0-.9.7-1.4zM270.6 157c.5-.4 1-.5 1.2-.3.1.3-.1.8-.6 1.3-.4.4-1 .6-1.1.3-.2-.2 0-.8.5-1.2zM269.6 156c.2-.7.6-1.1 1-1 .2.2.3.8.1 1.5-.2.6-.6 1-.9.9-.3-.2-.4-.8-.2-1.5zM269.7 158.1c.2.6 0 1.1-.3 1.1s-.7-.5-.8-1.1c-.1-.7 0-1.2.4-1.2.3 0 .6.6.7 1.2zM262.2 182c-.6-.5-.7-1.1-.4-1.3.3-.2 1 0 1.5.6.5.5.7 1 .4 1.3-.3.2-1 0-1.5-.6zM262.2 179.4c-.1-.6 0-1.1.3-1.2.4 0 .7.5.9 1.2.1.6 0 1.1-.3 1.1-.4 0-.7-.4-.9-1zM263.7 180.7c0-.8.3-1.4.6-1.5.3 0 .6.6.5 1.4 0 .8-.3 1.4-.6 1.4-.4 0-.6-.6-.5-1.3zM263.4 196c-.5-.4-.7-1-.4-1.3.3-.2 1 0 1.5.6.6.5.7 1.1.4 1.3-.3.3-1 0-1.5-.5zM263.2 194.1c-.5-.4-.6-1-.4-1.1.3-.2.9 0 1.4.5.4.4.6 1 .3 1.1-.2.2-.8 0-1.3-.5zM263 191.3c-.3-.7-.2-1.2 0-1.3.4 0 .9.4 1.1 1 .2.6.2 1.2-.1 1.2-.4.1-.8-.3-1-1zM264.5 192.2c0-.7.4-1.1.7-1 .3 0 .5.7.4 1.3-.1.7-.5 1.1-.8 1-.3 0-.5-.7-.3-1.3zM265.1 194.5c.1-.7.4-1.1.7-1 .4 0 .6.6.5 1.3 0 .6-.4 1.1-.7 1-.3 0-.5-.7-.5-1.3zM268.4 189.6c.5-.6 1-.8 1.3-.5.2.3 0 1-.5 1.5s-1 .7-1.3.5c-.2-.3 0-1 .5-1.5zM271.6 187.8c.7 0 1.2.2 1.2.6 0 .3-.6.7-1.4.7-.7 0-1.3-.2-1.2-.5 0-.4.6-.7 1.4-.8zM271.2 189.4c.2 0 .6.2.6 0l-.8 1.2c-.7 0-1.1-.3-1.1-.6s.6-.5 1.3-.6zM273.5 186.4c.8 0 1.3.2 1.3.5 0 .4-.7.7-1.4.8-.7 0-1.3-.2-1.2-.6 0-.3.6-.7 1.3-.7zM275.5 185c.6 0 1.2.1 1.1.5 0 .3-.6.6-1.2.6-.7 0-1.2-.1-1.2-.5 0-.3.6-.6 1.3-.6zM275.7 183.3c.6-.3 1.2-.3 1.3 0 0 .3-.3.8-1 1.1-.5.3-1 .3-1.1 0-.1-.3.2-.8.8-1zM268.5 187.4c.5-.5 1-.7 1.3-.4.2.3 0 1-.5 1.5s-1 .7-1.3.4c-.2-.2 0-1 .5-1.5zM270.7 185.8c.5-.5 1-.7 1.3-.5.2.3 0 1-.5 1.5-.4.6-1 .8-1.2.5-.3-.3 0-1 .4-1.5zM273 184.4c.6-.6 1.2-.8 1.5-.5.2.3 0 1-.6 1.7-.5.6-1.2.9-1.4.5-.3-.3 0-1 .5-1.7zM268 185.7c.5-.5 1-.7 1.3-.5.2.3 0 1-.5 1.5-.5.6-1 .8-1.3.5-.2-.3 0-1 .5-1.5zM268.2 183.5c.5-.6 1-.8 1.3-.5.2.3 0 1-.5 1.5-.4.5-1 .7-1.2.5-.3-.3 0-1 .4-1.5zM270.3 181.1c.2-.7.7-1 1-1 .3.3.4 1 .1 1.6-.2.7-.7 1.1-1 1-.3-.2-.4-.9-.1-1.6zM271.8 179.2c.2-.7.7-1.1 1-1 .3.2.4 1 .1 1.6-.2.7-.6 1.1-1 1-.3-.2-.3-1-.1-1.6zM273.3 177.3c.2-.7.7-1.1 1-1 .3.2.4 1 .2 1.6-.3.7-.7 1.1-1 1-.4-.2-.4-1-.2-1.6zM275.7 176.3c.7-.4 1.3-.5 1.5-.1.1.3-.3 1-1 1.4-.6.4-1.2.5-1.4.2-.1-.4.3-1 1-1.5zM275 178.5c.7-.1 1.4 0 1.4.4s-.6.9-1.4 1c-.8.2-1.5 0-1.5-.4s.6-.8 1.4-1zM273.3 180.5c.8-.2 1.4 0 1.5.4 0 .4-.6.9-1.4 1-.8.2-1.4 0-1.5-.4 0-.4.6-.8 1.4-1zM272 182.2c.8-.1 1.5 0 1.5.4s-.6.9-1.4 1c-.7.2-1.4 0-1.4-.4s.6-.8 1.4-1zM268.3 181.4c.4-.5 1-.7 1.2-.4.3.2 0 1-.4 1.5-.5.5-1.1.7-1.3.4-.2-.3 0-1 .5-1.5zM268.5 179.2c.5-.5 1-.7 1.3-.5.2.3 0 1-.5 1.5-.5.6-1 .8-1.3.5-.2-.3 0-1 .5-1.5zM268.7 176.7c.4-.5 1-.7 1.2-.4.3.2 0 1-.4 1.4-.5.6-1 .8-1.3.5-.2-.3 0-1 .5-1.5zM266.5 175c.5-.6 1-.8 1.3-.5.2.3 0 1-.5 1.5-.5.6-1 .8-1.3.5-.2-.3 0-1 .5-1.5zM264.3 176.4c-.5-.5-.8-1-.5-1.2.3-.2 1 0 1.4.5.5.5.7 1 .5 1.2-.3.2-1 0-1.4-.5zM269 191.2c.5-.5 1-.8 1.3-.5v.3l-1.5 1.8-.3-.1c-.2-.3 0-1 .5-1.5zM266.5 192.7c-.5-.5-.7-1.1-.4-1.3.2-.3 1 0 1.4.5.6.5.8 1 .5 1.3-.3.2-1 0-1.5-.5zM266 190.2c-.4-.5-.6-1-.3-1.3.2-.2 1 0 1.4.5.6.5.8 1 .5 1.3-.3.2-1 0-1.5-.5zM266.2 188c-.5-.5-.7-1-.5-1.3.3-.2 1 0 1.5.5.6.5.8 1.1.5 1.3-.3.3-1 0-1.5-.5zM264.6 182.8c.2-.7.7-1 1-.9.3.2.4.9.1 1.6-.2.6-.6 1-1 .9-.3-.2-.3-.9-.1-1.6zM265.8 185.7c-.3-.6-.3-1.1 0-1.3.3 0 .9.3 1.2.9.4.6.4 1.2 0 1.3-.2.1-.8-.3-1.2-.9zM264 186.5c-.7-.4-1-1-.7-1.2.2-.2 1-.1 1.5.3.6.4 1 .9.7 1.2-.3.2-1 .1-1.6-.3z"/><path d="M263 184.4c-.6-.5-.9-1-.6-1.3.3-.2 1 0 1.5.4.6.5.8 1 .5 1.3-.2.2-1 0-1.5-.4zM264.5 188.6c-.6-.2-1-.7-.8-1 .1-.3.7-.4 1.3-.1.6.2.9.6.8 1-.2.3-.8.3-1.3.1zM266.2 183.8c-.3-.6-.2-1.1.1-1.2.3 0 .8.4 1 1 .3.6.2 1.1 0 1.2-.4 0-.9-.4-1.1-1zM266.3 181.4c0-.8.2-1.3.6-1.3.3 0 .7.6.8 1.4 0 .7-.2 1.3-.6 1.2-.4 0-.8-.6-.8-1.3zM267 178.6c-.2-.6 0-1 .3-1s.7.5.8 1c0 .7-.1 1.2-.5 1.2-.3 0-.6-.5-.7-1.2z"/></g><g fill-rule="evenodd" fill="#fc0"><path d="M265.7 235.5c0-.7.3-1 .7-.8.3.3.6 1 .5 1.7 0 .7-.3 1-.6.8-.4-.3-.6-1-.6-1.7zM267.3 237.2c-.2-.8-.1-1.4.3-1.4s.9.5 1.1 1.2c.3.8.2 1.4-.2 1.4s-1-.5-1.2-1.2zM267.7 235.5c-.8-.3-1.1-.8-.9-1 .3-.3 1.2-.2 1.9.1.7.3 1 .8.8 1-.3.3-1.1.3-1.8 0zM265.4 234.8c-.3.6-.7.8-1 .6-.1-.3 0-1 .3-1.5s.7-.8.9-.5c.2.2 0 .9-.2 1.4zM269.8 235c-.7-.2-1-.7-.8-1 .3-.2 1.1-.1 1.9.2.7.3 1 .8.8 1-.3.3-1.1.2-1.9-.1zM269.3 237.5c-.2-.8-.1-1.5.3-1.5s.9.6 1.1 1.4c.3.8.2 1.5-.2 1.5s-1-.6-1.2-1.4zM271.7 238.6c-.2-.8-.1-1.4.3-1.5.4 0 1 .6 1.2 1.3.3.8.2 1.4-.2 1.5-.5 0-1-.6-1.3-1.3zM272.2 236.6c-.7.3-1.3.2-1.3-.1 0-.4.4-1 1.1-1.2.7-.2 1.3-.1 1.3.2 0 .4-.5.9-1.1 1.1zM274 237.3c-.7 0-1.2-.2-1.1-.6 0-.3.7-.6 1.3-.6.7 0 1.2.2 1.2.5-.1.4-.7.7-1.4.7zM275.8 238.3c-.6-.2-1-.7-.8-1 .2-.2.9-.3 1.5 0 .6.2 1 .6.8.9-.2.3-.8.3-1.5 0zM274 239c-.3-.8-.2-1.4.2-1.5.4 0 1 .6 1.2 1.4.3.8.2 1.5-.2 1.5s-1-.6-1.3-1.4zM267.2 233.9c-.6.4-1.1.6-1.3.3 0-.3.3-1 .8-1.5.6-.5 1.2-.6 1.3-.3.1.3-.2 1-.8 1.5zM268 231.9c-.7.2-1.2 0-1.2-.3s.6-.8 1.3-1c.6-.2 1.1 0 1 .3 0 .3-.5.8-1.2 1zM269.4 230c-.8.2-1.3.1-1.3-.3 0-.3.7-.8 1.5-1 .7-.2 1.3-.1 1.2.3 0 .3-.7.8-1.4 1zM266.2 229.3c0-.8.4-1.3.7-1.1.3.2.5 1 .5 1.7-.1.8-.4 1.3-.8 1.1-.3-.2-.5-1-.4-1.7zM264.9 230.9c0-.7.2-1.2.6-1 .4.1.8.9.8 1.6 0 .7-.2 1.2-.6 1-.4-.1-.8-.9-.8-1.6zM264 232c0-.6.1-1 .4-.8.3.1.6.7.6 1.3 0 .6-.2 1-.5.9-.2-.2-.5-.8-.5-1.4zM267.3 227.6c-.1-.8 0-1.3.4-1.2.4.1.8.8.9 1.5 0 .7-.1 1.3-.5 1.2-.3-.1-.7-.8-.8-1.5zM268.3 225.5c0-.8.1-1.3.5-1.2.4 0 .7.8.8 1.6.2.7 0 1.3-.4 1.2-.4-.1-.7-.8-.9-1.6zM269.7 223.5c0-.8.3-1.4.6-1.3.4.1.6.7.6 1.4 0 .8-.2 1.5-.5 1.4-.4 0-.7-.8-.7-1.5zM271.1 221.5c0-.8.4-1.4.7-1.3.4.1.6.7.5 1.4 0 .8-.3 1.5-.7 1.4-.3 0-.5-.8-.5-1.5zM270.3 228.3c-.8.2-1.4.1-1.3-.3 0-.3.7-.8 1.4-1 .8-.2 1.3-.1 1.3.3 0 .3-.7.8-1.4 1zM272 228.9c-.6-.3-.9-.7-.7-.9.3-.2 1 0 1.5.2.5.3.8.7.5.9-.2.2-.8 0-1.4-.2zM273 227.7c-.7-.3-1-.8-.7-1 .3-.2 1-.1 1.6.2.7.4 1 .8.7 1-.3.3-1 .1-1.6-.2zM275.1 227.3c-.6-.3-.8-.7-.6-.9.3-.2 1 0 1.5.2.6.3.8.8.6 1-.2.1-1 0-1.5-.3zM277 226.2c-.7 0-1-.2-1-.5.2-.3.8-.5 1.4-.5.6 0 1 .2 1 .5-.2.3-.8.5-1.4.5zM271.3 226.6c-.8.2-1.3 0-1.3-.3 0-.4.7-.9 1.4-1 .8-.3 1.4-.2 1.3.2 0 .4-.7.8-1.4 1zM274.1 225.7c-.5.5-1 .7-1.2.3-.1-.3.2-1 .7-1.5.6-.6 1-.7 1.2-.4.2.3-.2 1-.7 1.6zM275.8 225.5c-.5.5-1 .7-1.1.4-.2-.3.1-1 .6-1.5s1-.6 1.1-.3c.1.3-.2 1-.6 1.4zM272.4 224.4c-.6.3-1.2.3-1.2 0 0-.4.5-1 1.2-1.3.6-.3 1.2-.3 1.2 0 0 .4-.5 1-1.2 1.3zM273.7 222.1c-.6.5-1.2.6-1.2.2-.1-.4.3-1 1-1.5.5-.5 1.1-.6 1.2-.2.1.4-.3 1-1 1.5zM273.7 220c-.2.6-.6 1-.8.7-.2-.2-.2-.9 0-1.5s.6-.9.8-.7c.2.2.2.9 0 1.5zM269.2 233.3c-.6.5-1 .7-1.2.4-.1-.4.2-1 .7-1.5.5-.5 1-.7 1.2-.3.1.3-.2 1-.7 1.4zM271.3 232.6c-.5.5-1 .7-1.1.4-.2-.3 0-1 .5-1.5.4-.6 1-.8 1.1-.5.2.3 0 1-.5 1.6zM273.2 231.8c-.5.6-1 .8-1.1.5-.2-.3 0-1 .5-1.6.5-.5 1-.7 1.1-.4.2.3 0 1-.5 1.5zM274.9 231.8c-.5.5-1 .7-1.1.4-.2-.3 0-1 .5-1.5.4-.6 1-.8 1.1-.5.2.3 0 1-.5 1.6z"/><path d="M271.3 234.3c-.5-.2-.8-.6-.6-.8.2-.2.9-.2 1.4.1.6.3.9.6.7.8-.3.2-.9.2-1.5 0zM273.3 234c-.6-.2-1-.6-.7-.8.3-.2 1-.2 1.6 0 .6.4 1 .8.7 1-.2.2-1 .2-1.6-.1zM275 233.5c-.7-.2-1-.5-.8-.7.3-.2 1-.1 1.6 0 .6.3 1 .7.7.9-.2.2-1 0-1.6-.2zM276 232.4c-.7.1-1.1 0-1-.3.1-.3.8-.6 1.4-.6.7-.1 1.2 0 1 .3 0 .3-.8.5-1.5.6z"/></g><g fill-rule="evenodd" fill="#fc0"><path d="M265.3 213.9c-.7-.2-1-.7-.7-1 .3-.3 1-.5 1.8-.3.7.2 1 .6.8 1-.4.3-1.2.4-1.9.3zM266.6 215.5c-.7-.2-1-.7-.8-1 .3-.3 1.2-.5 1.9-.3s1 .6.7 1c-.3.3-1.1.4-1.8.3zM267.5 217c-.7.2-1.1 0-1-.4.1-.4.8-.8 1.4-1 .7 0 1 .2 1 .5-.2.4-.8.8-1.4 1zM263.7 212c-.7-.3-1-.7-.7-1 .3-.3 1.1-.3 1.9 0 .7.3 1 .8.7 1-.3.3-1.1.3-1.9 0zM263.6 209.3c-.2-.7 0-1.4.3-1.4.4 0 1 .6 1.2 1.4.2.8 0 1.4-.3 1.4-.4 0-1-.6-1.2-1.4zM269 213.6c.4-.7.9-1 1.1-.7.3.4.2 1.2-.1 2-.4.6-.9 1-1.1.6-.3-.4-.2-1.2.1-2zM272.5 212.1c.7-.3 1.2-.3 1.3.2 0 .4-.6 1-1.3 1.4-.7.4-1.3.3-1.3-.1 0-.5.6-1.1 1.3-1.5zM272.7 209.6c.7-.4 1.3-.4 1.3.1s-.5 1.2-1.2 1.6c-.7.4-1.2.4-1.3 0 0-.5.5-1.3 1.2-1.7zM271.4 209.8c.2.6 0 1.1-.3 1-.4 0-.9-.6-1-1.2-.3-.7-.1-1.2.2-1.1.4 0 .9.6 1 1.3zM271.8 207.5c.2.7 0 1.1-.3 1-.4 0-.8-.5-1-1.2-.2-.6-.1-1.1.3-1 .3 0 .8.6 1 1.2zM269.8 206.6c.4.5.5 1 .2 1.1-.4.1-1-.2-1.5-.7-.5-.5-.5-1-.2-1.1.4-.1 1 .2 1.5.7zM268.8 204.6c.4.5.5 1 .1 1-.3.2-1-.2-1.5-.7-.4-.5-.5-1-.1-1 .3-.2 1 .1 1.5.7zM270.6 205.6c-.2.4-.5.7-.7.5-.3-.2-.4-.7-.2-1.1.2-.5.5-.7.7-.5.3.1.4.6.2 1zM268.8 203c-.2.5-.5.7-.8.6-.2-.2-.3-.7-.1-1.2.1-.4.4-.6.7-.5.2.2.3.7.2 1.2zM269.9 204c-.2.6-.5.9-.8.7-.2-.3-.3-.9-.1-1.5.1-.6.4-.9.7-.7.2.3.3 1 .2 1.5zM272.4 205.4c0 .7-.4 1.2-.7 1-.3-.2-.6-1-.5-1.7 0-.7.3-1.2.6-1 .4.2.6 1 .6 1.7zM273.4 203.2c0 .8-.3 1.2-.6 1-.4-.2-.6-1-.6-1.7s.4-1.1.7-1c.3.2.6 1 .5 1.7zM274.3 201.2c0 .7-.4 1-.7.9-.3-.2-.6-.8-.5-1.5 0-.6.3-1 .6-.8.4.1.6.8.6 1.4zM275.7 200.3c-.4.6-1 .9-1.1.5-.3-.3-.2-1 .2-1.7.4-.6.9-.8 1.1-.5.3.4.1 1.1-.2 1.7zM271.1 212c.2.6 0 1-.2 1-.4 0-.8-.6-1-1.1-.1-.6 0-1 .3-1 .4 0 .8.6 1 1.1zM273 207.6c.6-.3 1.1-.3 1.2.1 0 .4-.5 1-1.1 1.4-.7.4-1.2.3-1.2 0 0-.5.4-1.1 1-1.5zM274.7 207.4c.3-.6.7-1 1-.7.2.3.2 1 0 1.6-.2.6-.6.9-.9.6-.2-.2-.3-1 0-1.5zM276.5 208.4c.6-.1 1.1 0 1.1.4s-.5.8-1 1c-.7.2-1.2 0-1.2-.3 0-.4.5-.9 1.1-1zM276.3 210.1c.6.1 1 .4.8.6-.2.2-.9.4-1.5.3-.7-.1-1-.4-.9-.6.2-.2.9-.4 1.6-.3zM276.1 207c.2-.4.5-.5.7-.4.2.2.3.6 0 1 0 .4-.4.6-.6.5-.2-.2-.2-.7 0-1zM273.5 205.3c.6-.4 1-.4 1.1 0 0 .5-.4 1.2-1 1.6-.6.3-1.1.3-1.2-.1 0-.5.5-1.1 1-1.5zM274.5 203c.7-.4 1.3-.3 1.3.1 0 .5-.5 1.1-1.2 1.5-.7.4-1.3.4-1.3 0 0-.5.5-1.2 1.2-1.6zM275.2 201.2c.5-.3 1-.3 1 0 0 .4-.4 1-1 1.2-.5.3-.9.3-1 0 0-.4.5-.9 1-1.2zM267.5 212.3c.1-.7.5-1.2.9-1 .3.3.5 1.1.4 1.9-.2.7-.6 1.1-.9.9-.4-.2-.5-1-.4-1.8zM265.7 210.8c0-.7.2-1.2.6-1.1.4.1.8.8 1 1.6 0 .7-.3 1.2-.7 1-.4 0-.8-.8-.9-1.5z"/></g><path d="M272.2 176l-1 1.3.4.8 1-1 .4-.7z" fill="#004b95" fill-rule="evenodd"/><path d="M271 177.6l-.5.6c.1.6 0 1-.4 1.9l1-.5.3-1.2z" fill="#e21c2a" fill-rule="evenodd"/><path d="M215.6 211.6l-.8-.3.4-.6 1.7-.2.6-.7.8.3c1-.6 3 0 4.3 0l.2-1.1.6-.6.9-.3v1.8h.7l1-.4.9-.9 1-.3.5-1 .8-.2 1.9 1 1.4.7 1.4.4 1-.1 3.1.9 1.2 1.8.8 1.1 2.3.7 1 .4 1-.1 1 .6 1.2.3h.9l1 .7 1.7.5 1.4.5 1.3 1.7a4 4 0 01-.6 1.2l.4.6c0 .7-.9 1.8-1.5 2.6-.4.1-1 .5-1.4.1 0 .4 0 .8-.2 1.2l1.5.2c-.1.6 0 1.2-.3 1.6-.6.3-.9.8-1.8.8v.7c1.3.3 2.2 0 3.2 0v1.4l-.3.8v.9c-.8.4-1.3.4-2 .4-.1-.2-.1-.5-.4-.6-.4-.2-.6.2-1 0l.5 1.4-.5.8c-.7.1-1.1.4-1.7.3l-.2-.8h-.9l-2.3.3H242c-.4.2-.5-.2-.4-.5l.3-.7c-.5.2-.8 0-1.2 0l-.6-.4-.6.2-.8-.4-.6.5c-.6.5-.4 1.2-.6 1.8-.7 0-1.3 0-1.6-.4l-1-.1-.8.4-.4.3-.7-.8c.1-.7-.5-.3-.7-.6-.2.3-.2.8-1 .8h-1l-.7.5-1.6-.2.1-.8-.8-.4c-.2-.2-.1-.5-.3-.6l-1 .6c-.8.3-.7-.9-1.1-1.3.3-.7.8-1.3 2-1.6.7-.8-.5-1.4-.9-1.4l-1 .5h-1.7l-1.5-.3-1.8-.1-.3-.6-1.5-.6-.5-.7-.5-.2c.1-.5-.4-.9-.6-1.3l1-.6c1-.9 1-1.7 1.3-2.4h-1.7l-.9-.6-.1-1-.3-1-1.8.2c-1-.3-.5-1.1-.8-1.8-.6-.1-.6-.6-.6-1.2-.3-.1-.7 0-.7-.5.2-.5.2-1 .1-1.5l1.2-.3 1 .2.5-.6s.9-1 .7-1z" fill="#2c2c2b" fill-rule="evenodd"/><path d="M216.1 211.3l-.9-.1.1-.3 1.8-.1.5-.5.8.2c.4-.3 1-.3 1.6-.3v5.4H216v.8h-2.5c-.5-.2-.6-.8-.5-1.3-.3-.1-.8-.2-.7-.3.2-.4.3-.8.2-1.3l.9-.2.9.3.7-.8s1.2-1.4 1-1.5zm5.6-1l1.1.2.2-1 .5-.7.4-.1.2 1.6h1l1-.3.8-.9 1.1-.4.5-1 .7-.1 1.8 1 1.4.6 1.4.4h1l3 .8 1.1 1.8.7 1 2.3.7 1.3.4 1-.1.7.5 1.7.4h.7l.6.5 1.6.6.6.2h-24.5v-.7h-3.9zm29.3 6.3l.2.1 1.2 1.5a4 4 0 01-.7 1.2l.4.6c0 .7-.8 1.6-1.4 2.4-.4 0-1 .1-1.4-.2a5 5 0 01-.3 2c.5.2 1.1.2 1.6.3l-.2 1c-.7.2-1 .6-1.8.7l.1 1.4c1.2.3 2 0 3 0 .1.6 0 .1-.1.6l-.3.9v1c-.8.4-1.3.3-1.5-.3-.2-.2-.7 0-1-.2-.4-.2-.6.2-1 0l.7 1.8-.3.5c-.8.2-.6.5-1.1.4l-.2-.8-1.6-.2-1.9.3-1 .2c-.4.1.2-.7.2-1l-.7-.3c-.5.1-1-.1-1.5-.1l-.5-.4-.3.3-.8-.5-.8.5c-.6.5-.4 1.4-.7 2-.6 0-1.2-.2-1.6-.6h-1l-.6.2-.3.5-.5-1c-.3-.5-.8-.3-1-.5-.2.2-.2.7-1 .7l-.9.1-.7.6-1.2-.2.3-.6c-.4-.3-1.2-.3-1.1-1-.1-.1-.4 0-.5-.2l-1 .5c-.8.2-.4-.5-.8-.9.5-.5 1-1.2 2-1.5.6-1.1-.8-1.9-1.2-1.7l-1 .5h-1.8l-1.4-.3h-.3v-9.5h4v-.8zm-31 9.5l-1.5-.5-.4-.6-.5-.2c0-.5-.3-.5-.5-1l1-.5c1-.9.9-2.2 1.3-2.8l-1.7-.1-.9-.5-.2-1.5-.5-.6-1.7.2c-.8-.2-.5-.8-.6-1.4h2.3v.8h3.9z" fill="#fc0" fill-rule="evenodd"/><path d="M220.2 210.4h1.3v5.5h3.9v1.3h-4v9.7h-1.2v-9.8h-3.8V216h3.8zM254 218.2v-.6h-1.4v-.3l1.4-1.5h.5v1.5h.4v.3h-.4v.6zm0-1v-1l-1 1zm1.4 0v-1.4h1.8v.4h-1.4v.5a6.4 6.4 0 01.7 0l.8.1.2.6c0 .3 0 .5-.3.6l-.8.2a5.8 5.8 0 01-1-.1v-.5a5.1 5.1 0 001 .2l.5-.1.2-.3c0-.1 0-.2-.2-.3a1 1 0 00-.5 0 5.9 5.9 0 00-1 0z" fill="#fff" fill-rule="evenodd"/><path d="M240.8 185.2v8.4l8.3 12.3-14.9-.1 1.9-12.2V191l-1-1-.8 1v2.7l-5.4 12.1h-7l7.6-12.2v-8.4h-.7V183h1.7v1h1.1v-1h1.7v1h1.2v-1h1.7v1h1.1v-1h1.7v1h1.2v-1h1.5v2.3z" fill="#2c2c2b" fill-rule="evenodd"/><path d="M222.5 205.6l7.2-11.9h11l7.8 12z" fill="#fc0" fill-rule="evenodd"/><path d="M234 193.6l-5.6 12.2h6.2l1.8-12.2z" fill="#2c2c2b" fill-rule="evenodd"/><g fill-rule="evenodd" fill="#fc0"><path d="M230.3 184h1.5v-1h1.4v1h1.4v-1h1.4v1h1.4v-1h1.5v1h1.4v-1h1.2v2H229v-2h1.3zM235.1 188.7l.3.3.3.2-.1.4-.1.3h-.8v-.4l-.2-.3.3-.3zM229.7 191.1h2v1.1h-2zM238.5 191h2.1v1.2h-2zM232 191.1h1.7v1.1H232zM236.6 191.1h1.7v1.1h-1.7zM233 192.4h.7v1.2h-.6zM236.6 192.4h.7v1.2h-.7zM234.5 189.7h-1.4v1.2h.6zM237.2 189.7h-1.5l.9 1.2h.6zM230.8 192.4h2v1.2h-2zM237.4 192.4h2.1v1.2h-2zM237.4 189.8h2.1v1.1h-2.1zM232.9 189.8h-2.1v1.1h2.1zM229.7 192.4h1v1.2h-1zM239.7 192.4h1v1.2h-1zM239.7 189.8h1v1.1h-1zM230.6 189.8h-1v1.1h1zM230.6 188.2h-1v1.3h1zM231 186.8h-1.3v1.3h1v-.6zM239.2 186.8h1.4v1.3h-1v-.6zM233 186.8h2v1.3h-1.6v-.6zM237.3 186.8h-2v1.3h1.6v-.6zM232.4 188.2h-.8v1.3h.8zM234.1 188.2h-.7v1.3h.7zM238.6 188.2h-.7v1.3h.7zM236.9 188.2h-.8v1.3h.8zM232.8 186.8h-1.6l.4.7v.6h.8v-.6zM239 186.8h-1.5l.4.7v.6h.7v-.6zM234.5 186h-1.2v.7h1.2zM237 186h-1.2v.7h1.2zM239.5 186h-1.2v.7h1.2zM232 186h-1.2v.7h1.2zM240.6 188.3h-1v1.3h1zM234.3 188.2v.8l.7-.5v-.3zM235.9 188.2v.8l-.7-.5v-.3zM234.6 190l-.7 1v2.6h.2V191l.8-1zM235.4 190l.9 1v2.6h.1V191l-.7-1z"/></g><path d="M218.5 170.3l-2 1.3 1.8.4 1.4-1.4zM208.8 163.4c-.5.2-.4.2-.9.7.5.3.7.7.8 1.2l1-.7zM202.7 204.1l-.8 1.6c.4.4.4.3.7.8l1-1.3c0-.5-.5-.8-.9-1zM203.3 226c-.2.5-.2.9-.5 1.4l.8.9.5-1.6c-.4-.5-.5-.4-.8-.7zM261.4 162.4l.9.5c-.4.6-.3 1.4-.4 2l-1-.8zM253.5 170.2l1.8.5-1 .3-1 .3-1-.8z" fill="#d9dbdc" fill-rule="evenodd"/><path d="M216.2 171.8l-1.8 1.1c-.1.5 1 .6 2.1.7l1.5-1.4-1.8-.4zM209.8 164.9c-.5.1-.5.2-.7.5-.6 1.3-.3 2.5.3 2 .6-.4.4-.4 1-.6-.1-.7-.2-1.3-.6-2zM203.9 205.4l-1.4 1.7.8 1.3c.5-.3 1-1.2 1.3-1.8 0-.6-.2-.7-.7-1.2zM204.4 227l-.5 1.7 1.3 1.8.7-1.9c-.2-.6-1-1-1.5-1.6z" fill="#004b95" fill-rule="evenodd"/><path d="M234.2 193.7h2l-1.9 11.9h-5.5z" fill="#fff" fill-rule="evenodd"/><path d="M265.6 204.7l-.4 1 1.2 1.5.7-1-1.5-1.5zM260.8 164.6c.5.1 1 .5 1.1.7l-.2 1.9-1.4-1 .5-1.6zM252.8 165.9c.6 0 1 .2 1.7.4l-1.3 1.4-1.3-.6c-.5-.2-.6-.4-.2-.6l1-.6zM255.6 170.8l1.5.4c.3.7-1 1.3-2 1.6l-1.4-1.3c.6-.1 1.4-.5 2-.7z" fill="#004b95" fill-rule="evenodd"/><path d="M214 173.2l-1 .9c-.3.4.6 1 1.7 1.2l1.5-1.3c-.7-.2-1.7-.5-2.2-.8zM218.7 167.4c-.3.6-1 1-1.5 1.4l1.2 1.2c.3-.3.6-.5.9-1 .5-.7 0-1.4-.6-1.6zM209.6 167.7c-.1.5.3 1.3-1.3 2.2l1 .8c.4-.2 1-.5 1.4-.9.3-.4 0-2.2-.3-2.7-.4.2-.6.3-.8.6zM204 207.8c0 .5 0 .3-.6 1 .3.2.1-.2.5.5.4-.5.6-.6 1-.9.3-.3.1-.8 0-1.2-.4.1-.5.4-.8.6zM205.3 231.1l1 1.6c.8-.9.2-2.5-.2-3.4 0 0-.5 1.4-.8 1.8zM262.3 230.7c0 .4 0 1.3.3 1.8.2-1 .4-1.7.7-2.3l-.5-1.3a6 6 0 00-.5 1.8zM265 206c0 .4-.3 1.3 0 1.9l.8.7c.3-.5.3-.7.6-1l-1.4-1.7zM261.5 167.7c0 .4.2 1.1 0 1.6-.4-.2-1.3-.7-1.6-1.1l.3-1.4c1.4 1-.6-.2 1.3.9zM251.1 166.8c.3.4 1.4.7 2 1l-1.2 1.5c-.5-.3-1-.4-1.2-.7-.7-.5 0-1.5.4-1.8zM257.1 172l.5.4c.2.4-.3 1.2-1 1.6l-1.1-1 1.6-1z" fill="#b42c30" fill-rule="evenodd"/><path d="M202.9 174c-.5.5-.7 1-1 1.6.4 0 .8.4 1 1 .1-.6.2-1.4.5-2 0-.3-.4-.4-.5-.6z" fill="#e21c2a" fill-rule="evenodd"/><path d="M231.8 166.9c0 .2-.2.5 0 .8.4.4 1 .3 1.5.3 0-.1-.3 0-.3-.2-.4.1-.9 0-1-.3-.2-.1-.2-.4-.2-.6z" fill="#fff" fill-rule="evenodd"/><path d="M235.2 166l.3.9.6-.1.4.4h.2l-.2-.6c0-.1-.3-.3-.1-.5a1 1 0 01-.4-.6h-.4c0 .3.3.4.3.6l-.7-.2z" fill="#e21c2a" fill-rule="evenodd"/><path d="M237.2 167.5l.8-.4v.2h-.4l-.3.3zM237 168.1h.3l.7-.3v-.1c-.3 0-.6.2-1 .1v.3z" fill="#fff" fill-rule="evenodd"/><path d="M233.4 167.2l-.2.4h-1l.4.2h.8v-.6zM235.8 167.4l-.3.3-.8.2.6.1v.5l.5-.5v-.6z" fill="#96a69b" fill-rule="evenodd"/><path d="M235.5 167.4l.1-.4.7.4-.2.1-.3-.2zM236.4 168l.2-.3.5.2H236.5z" fill="#96a69b" fill-rule="evenodd"/><path d="M263.6 227.6a2 2 0 00-.6.8c.1.8.4 1.7.9 2.4h.5c0-1-.4-2.3-.8-3.2z" fill="#008ed1" fill-rule="evenodd"/><path d="M273.4 183.5l1.4-.7v-1l-.8.5s0 .7-.8 1.1c0 .2 0 .2.2.1z" fill="#273785" fill-rule="evenodd"/><path d="M272.1 184.9l.7-1v-.1c-.2 0-2 .3-2.3 0l-.2.2.2 1.5c.3-.4.7-.7 1.6-.6z" fill="#e21c2a" fill-rule="evenodd"/><path d="M269.2 183.8l.4 3h.8c0-1 0-2-.3-3z" fill="none"/><path d="M268.8 173.7l.5 1 1.1-1.5z" fill="#004b95" fill-rule="evenodd"/><path d="M275.5 180.7l.3-.2v1l-.8.8v-.6c.3-.2.6-.5.5-1z" fill="#fff" fill-rule="evenodd"/><path d="M267.1 173.4c.2.2 0 .5 0 .7.7-.2 1.4-.2 1.2.8l-.4 1.1v.4c.5-.7 1-1 1.3-1.6l-.7-1.1-1.4-.3z" fill="#e21c2a" fill-rule="evenodd"/><path d="M264.8 166.5l2 1.8-.4 1.8.4-.2c0-.4.2-.8.3-1.1l.2.1c0 .3 0 .6-.3.9-.2.3-.3.7-.6 1l-.4-.3.3-1.2c0-.4-.4-.6-1-.5.3-1 0-1.5-.6-1.7 0 0 .2-.5.1-.6z" fill="#004b95" fill-rule="evenodd"/><path d="M275.2 214.9l-.2 1.9c-.7-.2-1.2-.3-2.1-.2z" fill="#008ed1" fill-rule="evenodd"/><path d="M199.5 204.5l1.2-2.5.9 1-1.6 2c-.2 0-.4-.2-.5-.5zM201 191.5c.1.2.2.4.5.5l-.2 1.2-.6-.6z" fill="#fc0" fill-rule="evenodd"/><path d="M266.4 203.9l1.2 1.8-.2.4c-.6-.4-1-1.2-1.5-1.7l.5-.5z" fill="#ececed" fill-rule="evenodd"/><path d="M263.6 227.6a2 2 0 00-.6.8l.4 1.5.7-.7-.5-1.6z" fill="#004b95" fill-rule="evenodd"/><path d="M221.9 239.3a4 4 0 000 2c.3 0 .7.2 1 .1l-.3-2s-.4-.2-.7-.1z" fill="#b42c30" fill-rule="evenodd"/><path d="M223 239.6c0 .6 0 1.3.3 1.8l1.9.5-.3-1.4-1.8-1z" fill="#004b95" fill-rule="evenodd"/><path d="M225.3 240.7c0 .5.1.8.3 1.2l2.1.8-.5-1z" fill="#d9dbdc" fill-rule="evenodd"/></svg>