<svg xmlns="http://www.w3.org/2000/svg" overflow="visible" height="400" width="600"><path fill="#dc1b00" d="M0 0h600v400H0z"/><g stroke-width="2" stroke="#000" fill="#fff"><path d="M394.6 328.5c9.7.6 18-6.6 18.6-15.9.6-9.3-6.8-17.3-16.4-17.9-3.6-.2-7.2.9-10.1 2.5l4.4 4.4a12 12 0 015.3-1.2c6.4.4 11.3 5.7 10.9 11.9-.4 6.1-6 10.9-12.3 10.5a11.4 11.4 0 01-10.9-11.9c0-1.5.9-3 1.5-4.4l-4.3-4.2a17 17 0 00-3.1 8.3 17.2 17.2 0 0016.4 17.9z" stroke-width="1"/><path d="M382.3 292.8l9.5 9.5c4.6 4.6-.5 9.2-4.9 5.5l-10-9.7zM360.2 293.3l14.9-15.4a2 2 0 012.7 0l4.2 4-18 17.8-3.8-3.6a2 2 0 010-2.8zM222.3 191.9c-7-3.4-9-3.7-20-8.1l3.3-2.3c-33-29.6-6.1-46-20.1-69.3h.3C210 124.5 223.3 99 255.7 129l1.2-3.9a65.7 65.7 0 0110 20.3 44.6 44.6 0 00-19.1-10.6l4.7-2.3c-10-10.6-32-12-45.4-4.5l164.2 153.8-6.5 6.7-163.4-154.7a35.3 35.3 0 007.5 44.5l2-3.9c3.2 6.7 6 12.3 11.4 17.5z" stroke-width="1"/><path d="M351.1 317.7a143.5 143.5 0 0149.5-49l5.3 5.5a181.4 181.4 0 00-49.5 48.9l-5.3-5.4z" stroke-width="1"/></g><g stroke-width="2" stroke="#000" fill="#fff"><path d="M211.7 292.5L202 301c-5.1 4.5 0 9.7 4.8 6l9.8-8.4zM413.6 150.9h0c.6 9-12.2 19.9-18.8 24.4l4.5 1a56.3 56.3 0 01-26 9.2 89 89 0 0016.5-17.5l1.1 4c6.3-3 16.6-16 15.4-24.7l-11-9.7 4.7-2.6c5.1-.6 10 5 11.4 6.8z" stroke-width="1"/><path d="M391.8 147.8c2.2-2.3 5.2-5.8 6.7-8.7h0c39.1 3.7 27.8 34.5 3.4 52l5.5-.1a60.9 60.9 0 01-24.3 11.5c5.8-5.9 10-11.7 14.1-19l1.2 4.3c19.6-14.7 31.9-44.6-4.3-40.5zM392.2 123.3l-.3-.5h0c-12.7-23.2-37.4-7.3-50.2 2.8-.1-1.7-.1-.2.2-4.9-6.3 7-9.4 14.6-12.5 23.4 5-5.6 12-9.5 19.5-12.9-1.5-1-2.7-1.4-4.2-2.5 12.9-10.3 32-16 40.3-5.6.5 6.4 2.4 15.3-2 20.8l14.6-6.7-5.5-14z" stroke-width="1"/><path d="M365 170.7c11-9.9 43.5-30.2 33.5-44-7.5-9.9-37.6 1.8-41.9 10.2l1-6.1c-8 8.3-9.4 12-12.7 23.3 6.6-6.6 11.3-9 19.6-13l-4.3-1.8a48 48 0 0120.7-10.7c4-.8 9.5 0 10.7 2.6 1.3 2.9-.9 6.2-9 13l-21.2 17.6c-52.6 45.6-95.8 82.1-148.2 127.7-1.9 1.6-2 2.2-1.6 2.9l5.2 6.3c1 .3 1.5.6 3.2-1 51.1-45.6 93.1-82.3 145-127zM197.6 328.4c-10.2 0-18.6-7.9-18.7-17.7a18.1 18.1 0 0118.3-18c3.5 0 8 1.4 10.8 3L203 300c-1.4-.6-4.2-1.3-5.9-1.2a12 12 0 00-12 11.8c0 6.6 5.5 11.8 12.3 11.8a12 12 0 0012.1-11.9c0-1.4-.6-3.7-1-5l4.8-4.1c1.4 2.5 2.4 6 2.5 9 0 9.9-8.2 18-18.3 18z" stroke-width="1"/></g><path d="M299.8 357.7c-2.5 0-4.7-2-4.7-4.5 0-1.2.5-2.3 1.4-3.2.3-.2.6-.5 1-.6-2.5-1-4.1-3.6-4.1-6.2.6-8.7 2.7-18.2 4.4-20.3-.7-.3-1.3-.6-1.8-1.1a5 5 0 01-1.6-3.7c0-1.8 1-3.5 2.6-4.4a3.5 3.5 0 01-2.7-3.3c0-1.1.2-2.4.6-3.7 1.4-3.3 1-4.5.5-6.3l-1-4.5h3.1c-2-.7-3-2.5-3.3-5-.4-2.3-.3-5.1 0-8 0-6.2.5-13.6 1-21.8 1-15.4 2.2-34 1.4-53.4v-1.2c-3.2-2.2-2.5-7 .9-8.5-2.5-1-3.3-3.9-3.5-7.2 0-1.7.5-9.7-.4-10.2l-3.4-1.7 4.8-.3c-.5-.6-.8-1.3-1-2.2a25 25 0 01-.7-7.3c.2-5.2.8-10 1.3-14.8 1.5-14.2 2.3-27-2-40.9h4.4c-2.9-1.8-3-5.9-2.3-8.8.6-2.6 2-4.8 3.6-5.2a8 8 0 013 0c1.5.4 3 2.7 3.6 5.4.7 2.8.6 6.8-2.1 8.5h4.2a105 105 0 00-1.7 37.2c.5 5.9 1 12 1 18.6v.8c.2 3.7.2 6.9-1.4 8.8h5l-4 2c-1.7.8-.6 8.7-.7 10.8-.1 3-.8 5.6-3.2 6.5a4.9 4.9 0 01.8 8.6v1c-.5 16.7.7 32.7 1.7 46.5.8 11.5 1.5 21.4 1 29 .1 3.4 1 11-3.5 12.7l3-.1c-.3 1.5-.5 3-1 4.5-.5 1.9-1 3.1.6 6.4 1 2 1 4 0 5.5-.5.8-1.1 1.4-2 1.6 1.5 1 2.6 2.6 2.6 4.4 0 2.3-1.6 4.2-3.6 4.9.7 1 1 2.3 1.4 3.5a95 95 0 013.2 16.7c0 2.6-1.6 5.1-4 6.2 1.4.7 2.3 2.2 2.3 3.8 0 1.3-.5 2.4-1.4 3.2-.8.8-2 1.3-3.3 1.3z" fill="#1f1a17"/><path d="M299.8 356.7c-2 0-3.7-1.6-3.7-3.5s1.7-3.4 3.7-3.4 3.7 1.5 3.7 3.4c0 2-1.7 3.5-3.7 3.5zm0-243.7c-7 0-4.4-11.8-1.3-12.6h2.5c3.1.8 5.8 12.6-1.1 12.6zm-1.4 66.3c-3.8-.4-4.2-4.7-4.1-10.2 1.1-19.8 5.5-36-.3-54.7h11.6c-4.7 17-.6 34-.3 54.7.1 5.3.4 9.4-3.8 10.3-.8.2-2.2 0-3-.1zm1.2 18c8.5.3 1.8-15.6 5.9-17.6-2 0-2.9-.3-3.7 1.8-.4-1-.2-1.2-1.9-1.8h-.1-.2c-1.7.6-1.3.8-1.7 1.8-.9-2.2-1.8-2-3.8-1.8 3 1.5-2.4 18 5.5 17.6zm-1.5 97.6c-3.3-.7-3.4-6.4-2.9-11.9.3-17.7 3.6-45.4 2.5-75.3l4-.1c-.8 30.5 3.7 58.8 2.8 75.4.1 5.3.4 11-3.2 11.9-.8.2-2.3.2-3.2 0zm1.7-96.4c-2.3 0-4.3 1.8-4.3 4s2 4 4.3 4 4.3-1.8 4.3-4-2-4-4.3-4zm2.8 114.1c1.7-1 2.2-3.2 1-5.6-2.3-5.1-.5-5.8.2-10.2l-8.1.1c.7 4.5 2.4 5 .2 10.2-.8 2.3-1 4.5.8 5.4 1.7.7 4.2.8 6 .1zm-2.8 9.6c-2.4 0-4.4-1.8-4.4-4 0-2.3 2-4.2 4.4-4.2 2.4 0 4.4 1.9 4.4 4.1 0 2.3-2 4.1-4.4 4.1zm0 26.6c-3 0-5.4-2.5-5.4-5.6 0-2.6 2.4-19.4 4.6-20l1.1-.1c2.2.7 5 17.5 5 20 0 3.2-2.3 5.7-5.3 5.7z" fill="#e7a425"/><g><path d="M314.8 88.7c0-.2.1-.3.2-.3a3.6 3.6 0 012.7-2.9c0-.2.4-.5.5-.8l-.8.6v-1.8c.2.1.5.5.8.5 0-.2-.4-.6-.6-.7h1.8c-.1.1-.5.5-.5.7.2 0 .6-.4.8-.5v1.8l-.8-.6.4.7.1.1c1.4.4 2.4 1.5 2.6 2.9.1 0 .2.1.2.3l.2.6c0 .2 0 .4-.2.5 0 .2-.2.4-.3.4a3.6 3.6 0 01-6.8 0c-.1 0-.3-.1-.3-.3v-.1a.7.7 0 01-.2-.5c0-.2 0-.4.2-.6z" fill="#2b2828"/><path d="M321.6 90.2a3.3 3.3 0 01-6.2 0c2.1-.2 4.1-.2 6.2 0zM319.5 85.9c1.1.3 2 1.2 2.2 2.4l-2.2-.1v-2.3zM315.3 88.3a3.3 3.3 0 012.4-2.5v2.3l-2.4.2zM321.9 89.7v.2a33 33 0 00-6.8 0v-.2h.2c2.2-.2 4.2-.2 6.4 0h.2z" fill="#e7a425"/><path d="M319 85.6h.1l.2.1v2.7a22.2 22.2 0 012.7.3h-.1-.2a73 73 0 00-2.6-.1v-2.8-.2zM315 88.8v-.1l.2-.2 2.7-.1a76.1 76.1 0 01.2-2.8v3a78.2 78.2 0 00-3 .2z" fill="#e7a425"/><path d="M318.5 88.7c.2 0 .3.1.3.3 0 .2-.1.4-.3.4a.4.4 0 01-.3-.4c0-.2.1-.3.3-.3zm.2.3c0 .1 0 .2-.2.3.2 0 .3-.2.2-.3zm.6-.3c.2 0 .4.2.4.4s-.2.3-.4.3a.3.3 0 01-.3-.3c0-.2.2-.4.3-.4zm.3.3c0 .2-.2.2-.3.3.2 0 .3-.1.3-.3zm.5-.2c.2 0 .4.1.4.3 0 .2-.2.4-.4.4-.1 0-.3-.2-.3-.4s.2-.3.3-.3zm.3.3l-.2.3.2-.3zm.6-.3c.2 0 .3.2.3.4s-.1.3-.3.3c-.2 0-.3-.1-.3-.3 0-.2 0-.4.3-.4zm.2.4l-.2.2c.2 0 .2-.1.2-.2zm-5.2-.4c.2 0 .4.2.4.4s-.2.3-.4.3a.4.4 0 01-.3-.3c0-.2.1-.4.3-.4zm.3.4l-.3.2c.2 0 .3-.1.3-.2zm.6-.4c.2 0 .3.1.3.3 0 .2-.1.4-.3.4-.2 0-.4-.2-.4-.4s.2-.3.4-.3zm.2.3l-.2.3c.2 0 .2-.2.2-.3zm.6-.3c.2 0 .3 0 .3.3 0 .2-.1.3-.3.3a.4.4 0 01-.4-.3c0-.2.2-.3.4-.3zm.2.3l-.2.2c.2 0 .2-.1.2-.2zm.7-3.7c.1 0 .3.2.3.4s-.2.3-.3.3c-.2 0-.4-.1-.4-.3 0-.2.2-.4.4-.4zm.2.4l-.2.2.2-.2zm-.2.4c.1 0 .3.2.3.4s-.2.3-.3.3c-.2 0-.4-.1-.4-.3 0-.2.2-.4.4-.4zm.2.4l-.2.2.2-.2zm-.2.5c.1 0 .3 0 .3.3 0 .2-.2.3-.3.3-.2 0-.4-.1-.4-.3 0-.2.2-.3.4-.3zm.2.3l-.2.2c.1 0 .2 0 .2-.2zm-.2.5c.1 0 .3.1.3.3 0 .2-.2.3-.3.3-.2 0-.4-.1-.4-.3 0-.2.2-.3.4-.3zm.2.3l-.2.2c.1 0 .2 0 .2-.2zm3.2 1c0 .2 0 .2-.2.3.2 0 .2-.1.2-.3zm0-.2l.1.3c0 .2-.1.3-.3.3-.2 0-.3-.1-.3-.3 0-.2.1-.4.3-.4h.2zm-6.6.2c0 .2 0 .2-.2.3.2 0 .3-.1.2-.3zm-.2-.3c.2 0 .3.2.3.4s-.1.3-.3.3c-.2 0-.3-.1-.3-.3 0-.3.1-.4.3-.4zm3.8-1.3v.4l-.3-.2.3-.2zm0-.8v.4l-.3-.2.3-.2zm0-.8v.4l-.3-.2.3-.2zm-.8.3V86l.2.2-.2.1zm0 .9v-.4l.2.2c-.1 0-.2 0-.2.2zm0 .8v-.4l.2.2c-.1 0-.2 0-.2.2zm-.3.7h.2v-.3l.2.2-.2.3-.2-.2zm-.8 0h.3l-.2.2-.1-.2zm-.9 0h.4l-.2.3c0-.1 0-.2-.2-.2zm-.8.1h.4l-.2.2-.2-.2zm.4.8h-.3l.1-.2.2.2zm.8 0h-.3l.2-.3.1.2zm.9-.1h-.4l.2-.2.2.2zm.9 0h-.5l.2-.3.3.3zm.7 0h-.5l.3-.3.2.3zm.8 0h-.4l.2-.2.2.2zm.8 0h-.3l.2-.2.1.2zm.8.1h-.3l.2-.2.1.2zm-.3-.8h.4l-.2.2s0-.2-.2-.2zm-.8 0h.4s-.2 0-.2.2l-.2-.2zm-.8 0h.3l-.1.1-.2-.2zm-.6-.2v.2l-.3-.2.3-.2zM318.8 83.8l-.1.3c0 .4.6 0 .7-.1v.8s-.4-.3-.6-.2c-.3 0 .1.6.2.7h-1c.2-.1.4-.4.4-.6 0-.4-.7 0-.8.1V84c.2 0 .4.3.6.2.4 0 0-.6-.1-.7h.9a6 6 0 00-.2.3z" fill="#e7a425"/><path d="M315.7 90.8c.3.5.8 1.3 1.6 1.3 0-.5.2-.8.6-1 0 0 0-.4-.2-.5.4 0 .6.3.7.5.6.1.6.7.5 1 .2.1.4 0 .4 0-.1-.4.1-.5.3-.7l-.1-.6c.4 0 .5.5.6.5.2 0 .3.1.5.4 0 .1 0 .6-.2.8l-1 .4c-.3.2-.4.5-.7.5-.4.2-.8 0-1.2 0-.6.2-.7.6-1.2.6s-.3-.3-1-.4l-1.7-.9c-.8-.3-1.7-.3-2.6-.5-.8-.2-1.5-.5-2.3-.6-.5 0-2.3 0-2.5-.3-.2-.4.3-.5.4-1.6v-1l2.6-.2c0 .6.2 1.2.3 1.4.3.4 1 .7 1.5.9 1.1.4 2.4.8 3.5.7.1 0 .7-.3.8-.8 0-.2.4-.2.4 0z" fill="#2b2828"/><path d="M309 88.6c0 .4-.1.5.2 1.4l.4.3c-.1 0-.2.3-.1.4 0-.1.2-.4.4-.1v.3c0-.1.3-.4.5 0v.2c0-.1.3-.3.5 0 0 0 0-.1.2 0l1.8.5c1 .2 2 .4 2.6-.6l.3.3c0 .2-.2 0-.3.1.2.1.8.2.5.6 0 0-.1-.3-.4-.2l.3.2h-.3v.3h1.5c-.2.4-.4.4-1 .5-.2 0 0 .2 0 .2h.3s0 .2.2.3c0-.2 0-.3.2-.3 0 0 0 .2.2.3-.1-.2-.2-.4 0-.5.2 0 .2.1.3.2v-.5l.2.2v-.4l.2.1c-.2-.5-.1-.7.2-1 .2-.1.7 0 .7.3v.5l-.5.3c-.6.4-1 1-1.6 1.2-.4.2-.5-.2-1-.3l-1.6-1c-.8-.3-1.4-.2-1.5-.3-.2.1-.3-.1-.3-.2l-.1.2c-.3 0-.4-.3-.4-.4v.3c-.5 0-.5-.3-.5-.4v.3c-.3 0-.4-.3-.3-.4-.2 0-.2.2-.2.3-.3 0-.3-.4-.3-.4l-.1.3c-.4 0-.4-.4-.4-.5l-.1.3c-.4 0-.4-.4-.4-.5l-.1.4c-.3 0-.4-.3-.2-.6-.3.2-.2.5-.2.5-.8 0-2.1 0-2.3-.3 0 0 .5-.6.5-2.2.1 0 2 0 2-.2z" fill="#e7a425"/><path d="M307.1 90v.7c0 .3.7.3 1 .4l-1.3-.2.3-.8z" fill="#2b2828"/><path d="M307.5 90.2v.3l.2.2-.4-.1c-.1-.2.1-.4.2-.4z" fill="#2b2828"/><path d="M319.8 91.1v0zM320 91.6c.3 0 .5.6.1.8l-.8.3v-.3h.4c-.2-.2-.3-.8.3-.8zM319 92.5c.2 0 .3.1.3.2l-.5.4c-.2.3-.7.1-1.2.1.5-.4.6-.4 1-.3.1-.1 0-.2.2-.3l.2.2v-.3zM318 90.9l.2.2h-.2V91z" fill="#e7a425"/><path d="M321.1 90.4c0 .3-.3.7-.6.8.2-.2.5-.5.6-.8zM320.8 90.4c0 .2-.2.5-.5.6l.5-.6zM320.5 90.4c0 .2-.1.3-.3.4.1-.1.3-.2.3-.4zM300 102c-.7-.4-1.3-1-1.5-1.7a2.5 2.5 0 01-3.7-1.1c-.7.7-1.7.6-2.3.3a2.2 2.2 0 01-1.2-2c-.2.1-.2.5-.3.8-.1.5-.4.8-.9 1 .3-1.2-.5-1.2-.8-2-.2-1 .3-1.8 1-2.2-.5-.3-.7-1-.5-1.7.3-.6 1-1 1.6-1-.6.6-.3 1.3.3 1.2.8 0 1.5-1 2.5-1.5 1.1-.6 2-.7 3-1.5-.7 0-1.3.2-1.7.7-.1-1.1.9-1.6 1.5-2 1.3-.9-.1-3-1-3.3-1.5-.3-2.4.6-2.3 1.6.1 1.2 1.3.9 1.8.6 0 .7-.6 1.2-.9 1.3-.3.1-1.2.2-1.7-.3 0 .3-.2.5-.5.7a3 3 0 00-.4-1c-.2.8-.8 1.2-1.4 1 .2-.3.1-.7 0-1a2 2 0 01-.5.6l-.1-.5c-.3.4-.8.6-1.3.6.3-.3.5-1 .3-1.6-.4.7-2.1.9-2.5-.5.7.3 1 0 1.2-.4.2-.5-.5-1.8.1-2.9.5-.7 1-1.2 2.2-1.4a1 1 0 01-.2-.5c1.2.4 2.1.1 2.6-.8l-1 .2c1-.8 1-3 .3-4.3l-.2-.1c-.2.4-.9.4-1.2.8l-.3-.3s0 1.9-.2 2.6c0 .9-1 .8-1.4 1.2-.4-.6-1.3-.5-1.2-1.5l.4-2.4c-.3.5-.9 2.7-1.1 3.3-.3 1-1.2.7-1.7 1-.4-.6-1.2-.8-.9-1.8l1.7-3.6-2.2 3.9c-.5.7-1.3.4-1.9.6 0-.6-1-1.2-.3-2.1.7-1.2 2.4-3.4 2.5-3.6l-3.2 3.8c-.6.5-1.5.1-2 .1 0-.6-.5-1.3.2-2l2.4-2c-1 .7-2.1 1.7-2.9 2-1.1.2-1.6-.3-2-.4.3-1.2-.2-1.7 2.4-2.7-2.2.7-3.2.4-4-.3.3-.8 1.1-1.4 1.8-1.7-1.4 0-2.3-.5-2.9-1.3.5-.7 1.5-1.2 2.6-1.3-1.6-.2-3-1.3-3.1-2.5a5 5 0 012.8-.5c-1.7-.6-3-1.9-3-3 1-.3 1.9-.2 2.7 0-.8-.6-2.2-1.8-2-3.5.8-.2 2.3.4 3 .7-2.1-1.2-2.8-3.9-1.8-5.4.7.4 3.6 3.3 4 3.7-1.5-1.7-2.2-3-2.6-4.1-.4-1.3-.5-3.5 1-4.2.8 1.7 3.4 6 4.8 7.8l.5-.4c.3 1.1 1.4 2.6 2.3 3.3l.3-.6c1 1.4 3.5 3.4 4.3 4.7.7.9.7 1.7-.2 2.6-.4.3-1 1-.5 1.9 1 1.4 3.1 1.3 3.8 0-1.4 0-1.8-1.7-1-2.7.4.6 1.2 1 2 .6l1-.7c-1 .4-2-.3-1.9-1.4.9.7 1.8 0 2-.2.6-.6.7-1.4.5-2.5a7 7 0 00-1.9-3s-.2.2-.6.2l-.7-.3c-.7-.2-1.3 0-1.7.2-.8.5-.7 1-.7 1.4-1.2-.7-.8-1.8.8-2.2-1 0-2 1-2.2 1.1-.5.4-1.4.3-1.8.1-1-.4-1.2-1.5-1-1.7.2.3.5.7 1 .7.8.1 1.6-.2 2.2-.5.5-.2 1.3-.3 1.9-.3-1-.6-2.7-.5-3.3.4-.3-.3-.5-.6-.6-1.1-.3-1.6.9-2.4 2.2-2.4 0-.4.2-.6.6-.4 0-.3 0-.4.3-.4h5.1c1 0 2.8-.1 3-.4 0 .7-1.4 1.4-2.3 1.6.7 0 1.4 0 2-.3-.3.5-.7.8-1.3 1 .7.8 2 1.3 3.2 1.2-.3.3-.9.6-1.4.5 1 1.6 2 3.4 2.2 5.9.2-2.5 1.2-4.3 2.2-5.9-.5 0-1.1-.2-1.4-.5 1.2 0 2.5-.4 3.2-1.2-.6-.2-1-.5-1.3-1 .6.3 1.3.4 2 .3-.9-.2-2.3-1-2.3-1.6.2.3 2 .4 3 .4h5.1c.2 0 .3.1.3.4.4-.2.6 0 .6.4 1.3 0 2.5.8 2.2 2.4 0 .5-.3.8-.6 1-.6-.8-2.2-.9-3.3-.3.6 0 1.4.1 2 .3.5.3 1.3.6 2 .5a1 1 0 001-.7c.3.2 0 1.3-.9 1.7-.4.2-1.3.3-1.8 0-.3-.2-1.1-1.2-2.2-1.2 1.6.4 2 1.5.8 2.2 0-.4 0-.9-.7-1.4-.4-.2-1-.4-1.7-.2l-.7.3c-.4 0-.5-.1-.6-.2-.7.5-1.7 2-1.9 3-.2 1.1 0 1.9.5 2.5.2.2 1 1 2 .2.1 1.1-.8 1.8-2 1.4.3.2.6.5 1.2.7.7.3 1.5 0 1.9-.6.8 1 .4 2.6-1 2.8.7 1.2 2.8 1.3 3.8-.1.6-1-.1-1.6-.5-2-.9-.8-.9-1.6-.2-2.5.8-1.3 3.3-3.3 4.3-4.7l.3.6c1-.7 2-2.2 2.3-3.3.2 0 .3.2.5.4 1.4-1.8 4-6.1 4.7-7.8 1.6.7 1.5 2.9 1 4.2-.4 1.1-1 2.4-2.5 4 .4-.3 3.3-3.2 4-3.6 1 1.5.3 4.2-1.7 5.4.6-.3 2.1-.9 3-.7.1 1.7-1.3 2.9-2.1 3.5.8-.2 1.7-.3 2.7 0-.1 1.1-1.3 2.4-3 3a5 5 0 012.8.5c-.1 1.2-1.5 2.3-3.1 2.5 1.1.1 2 .6 2.6 1.3-.6.8-1.5 1.4-2.9 1.3.7.3 1.5 1 1.8 1.7-.8.7-1.8 1-4 .3 2.6 1 2 1.5 2.4 2.7-.4.1-.9.6-2 .3-.8-.2-2-1.2-2.9-1.9l2.4 2c.7.7.2 1.4.2 2-.5 0-1.4.4-2-.1l-3.2-3.8c0 .2 1.8 2.4 2.5 3.6.6 1-.2 1.5-.3 2-.6-.1-1.4.2-1.9-.5l-2.2-4 1.7 3.7c.3 1-.5 1.2-.9 1.8-.5-.3-1.4 0-1.7-1l-1-3.3.3 2.4c.1 1-.8 1-1.3 1.5-.4-.4-1.2-.3-1.3-1.2-.2-.7-.2-2.6-.2-2.6l-.3.3c-.3-.4-1-.4-1.2-.8l-.2.1c-.7 1.2-.8 3.5.2 4.3-.3 0-.6 0-.9-.2.5 1 1.4 1.2 2.6.8l-.2.5c1.2.2 1.7.7 2.2 1.4.5 1-.1 2.4 0 3 .2.3.6.6 1.3.3-.4 1.4-2 1.2-2.5.5-.2.6 0 1.3.3 1.6-.5 0-1-.2-1.3-.6v.5a2 2 0 01-.7-.5v1c-.5 0-1-.3-1.3-1.1l-.5 1-.4-.7c-.5.5-1.4.4-1.7.3-.3-.1-1-.6-1-1.3.6.3 1.7.6 2-.6 0-1-.9-2-2.3-1.6-1 .3-2.4 2.4-1.1 3.3.6.4 1.6.9 1.5 2-.5-.5-1-.8-1.8-.7 1.1.8 2 .9 3 1.5s1.8 1.5 2.5 1.5 1-.6.4-1.2c.6 0 1.3.4 1.6 1 .2.8 0 1.4-.5 1.7.7.4 1.2 1.1 1 2.2-.3.8-1.1.8-.8 2-.5-.2-.8-.5-1-1 0-.3 0-.7-.2-.8 0 .6-.3 1.6-1.2 2-.6.3-1.6.4-2.3-.3-.3.8-1.3 1.6-2.4 1.5-.4 0-1-.1-1.3-.4-.2.7-.8 1.3-1.5 1.6zm-6.3-5.7c.2.3.7.4 1 .4v.7c-.8 0-1.4-.5-1-1.1zm8-5.2l1.6 2c.5.7 1 1.3 1.4 2.3.6-.1.5-1 .3-1.3-.5-.9-2.3-2-3.2-3zm4.6 5.2c-.2.3-.7.4-1 .4v.7c.8 0 1.4-.5 1-1.1zm-5.8-6.3c-.3.6.5 3.7.8 4.5.3 1.4.6 3.6.5 4.6 1.3-.7.5-3.3 0-4.4-.7-1.6-1.1-3.5-1.3-4.7zm-1 0c.3.6-.5 3.7-.8 4.5-.3 1.4-.6 3.6-.5 4.6-1.3-.7-.5-3.3 0-4.4.7-1.6 1.1-3.5 1.3-4.7zm-1.3 1c-.3.6-1 1.5-1.5 2-.5.8-1 1.4-1.4 2.4-.6-.1-.5-1-.3-1.3.5-.9 2.3-2 3.2-3z" fill="#2b2828"/><path d="M300 101.2v.4c-.4-.2-1.2-1-1.3-1.4l.1-.2c.2.5.7 1.2 1.2 1.2z" fill="#e7a425"/><path d="M300 100.2v.7c-.5-.1-1-.8-1-1l.4-1c-.2.2-.3.2-.5.2V97c-.2.4-.3 1.6-.2 2.2h-.2c-.2-1.2.1-3.1.4-4.5.4-1.5.7-2.6.9-4a65.2 65.2 0 00.3 9.6z" fill="#e7a425"/><path d="M299.3 89.5c.1 1-.6 3-1 4.1-.4 1.1-1 2-1.1 3.4-.1 1.5.4 2.5 1.8 2.4a2.2 2.2 0 01-3.7 0l-.2-.3c.3-.3.7-.2.8 0 .5-1 0-1.5-1-1.6 0-.3 0-.6.2-.8.7 0 1-1 1-1.4h-.4c.2-.9 1.1-2 1.8-2.9.6-.7 1.5-1.7 1.8-3z" fill="#e7a425"/><path d="M298.8 88.5c.4.7 0 1.3-.3 1.8-.7 1-1.6 1.7-2.6 2.5-.4.3-1 .6-1.2 1.1-.3.7-.2 1.7.6 1.8h.4l-.4.6c-.6.4-1.4-.1-1.6-.5-.8.7-.4 1.7.4 1.9.8.1 1.8 0 1.7 1-.6-.3-1 0-1.3.4-1 .8-2.2.1-2.7-.8a3 3 0 01-.1-1.5c-1.1.4-.7 1.4-1.2 1.9 0-.8-.8-1-.9-1.6-.2-.9.5-2 1.8-2-.7 0-1.2-.3-1.3-.8-.2-.9.3-1.3.7-1.5-.3.6.5 1.6 1.6 1 .5-.2 1.3-1 2-1.4l3-1.5a3 3 0 001.4-2.4z" fill="#e7a425"/><path d="M297.7 87.6c.9 1.3.4 2.7-.5 2.7-.6 0-.8 0-1.3.3.2-.6 1-.9 1.3-1 .4-.4.7-.8.5-2zM290.4 86.3v1l.5-.4c-.2.4-.2 1.1-.2 1.6l-.4.5-.1-.4c.2-.6.1-1.1-.2-1.5l.4-.8zM291.7 86.4l.4-.1c-.2.4-.4.7-.4 1.1 0 1 .2 2-.7 2.3V89c-.2-.9-.1-1.7 0-2.3l.4-.3c-.2.5-.2 1-.1 1.6.1-.7 0-1.1.4-1.7z" fill="#e7a425"/><path d="M293.1 85.7c-.6.6-.8 1.4-.7 2.2 0 .6.4.8.1 1.6 0-.5-.5-.8-.6-1.4-.2-1.1.5-2 1.2-2.4zM297 85.3c.3.7 1 1.3 1.2 1.4.4 1.3.6 1.9.2 2.7 0-1.2-.4-1.7-.9-2.2 0-.4-.4-1.5-.5-1.9z" fill="#e7a425"/><path d="M294.3 85.4c.4 0 1.1 0 1.5.3-1.4-.2-2.3.5-2.4 1.5-.1.8.3 1.6 1.3 1.5 0 .1-.4.3-.9.3.6.1 1 0 1.3-.3-.3.7-1.6.8-2.2 0-1-1.2 0-3.2 1.4-3.3zM300 89.4v.8c-.7-1.4-1.9-3-1.9-5.3.2.9.5 1.6 1 2.3.2.4.7.9.8 1.4v.8zM292.3 84.8l-1 1 1.4-.7-.7 1c-.6.2-1.1.5-1.5.9 0-1.5.6-2 1.8-2.2zM290.5 84.8l.5-.1-.8.5z" fill="#e7a425"/><path d="M289.5 85.2l.8-.3c-.1.1-.4.5-.5 1a3 3 0 011-1h.4c-.8.8-1.2 1.7-1.5 2.4-.6-.7-.5-1.4-.2-2.1z" fill="#e7a425"/><path d="M289.3 84.5v.7c-.3.7-.4 1.6.5 2.3l.1-.3c.2.2.3.7.2 1-.1.5-.5.9-.9 1 .4-.7 0-1.7-.1-1.8-.4-1-.8-2 .2-2.9zM300 87.3v.9c-.8-1-1.6-2.2-1.8-3.7 1.2.3 1.7 1.3 1.8 2.8zM292.5 84.8l.8-.3-.4.4-1 .5.6-.6zM297.2 84.4h.2v.5z" fill="#e7a425"/><path d="M296.7 84.4h.4l.5 1-.1-1h.5l.1 2-.7-.7-.7-1.3zM295.3 84.4h.4c.1.2.6 1 .8 1l-.4-1h.4l.7 2.4a11 11 0 01-1.9-2.4zM294.4 84.6l.7-.2h.1z" fill="#e7a425"/><path d="M294.1 84l.7.3c-.3.1-.8.3-1.1.6l1.6-.3.5 1c-1-.7-2.5-.5-3.6.5.3-.8 1.7-2 2-2zM292.5 83.4l-.5.3-.8.1.6-.2.7-.2z" fill="#e7a425"/><path d="M290.5 83.3l1 .3c-.5.1-.8.2-1.2.6l1.6-.3c-.2 0-.5.4-.7.5l-1.8.6c0-.7.4-1.3 1.1-1.7z" fill="#e7a425"/><path d="M290.1 83l.3.3a2 2 0 00-1 1c-.3.1-.7.5-.8 1-.2.5-.1 1 .1 1.6 0 .5-.3 1-1 1 .7 0 1-.2 1.1-.8.2.5 0 .9-.5 1-.4.2-.9.2-1.1-.2 1.7-.3.2-2.2.8-3.5.3-.6 1-1.2 2.1-1.3zM293.4 83l.2.3-1.2.9 1.4-.5.2.2c-1.1.9-2.4 1-3 1 .6-.9 1.9-1.6 2.4-2zM293.3 80.6v.6c-.2.5-.6 1-.8 1.2l.8-.8.1 1.2-.7.4c-1.1.5-2.2.1-2.4-.5.4.4 1.4.8 2.3.2a2 2 0 01-2-.2c.7.1 1.8-.1 2-1.4.2-.1.6-.4.7-.7zM293.3 77.5v2.7c-.2.3-.6.8-1 1 .4-1 .5-2.4-.2-3.6l.6.3.2 1.8c.2-.6 0-1.6 0-1.8l.4-.4zM288.7 77.3c0 .4-.2 1.7-.1 2.5l.6-2.6c0 .3.4.3.5.5V80c-.1 1-.9.8-1.2 1-.4-.2-1.1-.4-1-1 0-1 .2-1.7.3-2.5l.9-.3zM286.5 76.5l-1 3.3c.5-.7 1.2-2.6 1.4-3.2l.4.6-1.1 3.8c-.2.5-1 .4-1.3.6-.2-.3-1-.6-.7-1.2.2-.8 1.2-3.1 1.7-3.8h.6zM284 75.4c.3 0 .7 0 1-.3 0 .1-1.8 2.8-2.1 3.7l2.2-2.9.2.6-2.2 4c-.4.3-.9 0-1.4.2-.1-.4-.5-.6-.4-1.3 0-.5 2.4-3.6 2.8-4z" fill="#e7a425"/><path d="M293.4 76.5c.1.6-.3.7-.6 1.2-.4-.3-1.1-.4-1.2-.8l-.2-2.7.5.1.6 2-.2-2.1.4-.3.7 2.6zM290.6 73.9l.2-.3c0 .3.2.5.4.5l.1 2.8c0 .5-.6.5-1 .8-.4-.3-1-.4-1-1l.3-2.4.2.2c.1-.2.3-.2.4-.3l.1 2c.2-.7.2-1.6.3-2.3zM288.8 73.7l.1.2-.4 1z" fill="#e7a425"/><path d="M288.7 73.6l-.4 2.1.7-1.8.4.3-.4 2.4c-.2.6-.8.5-1.3.7-.3-.4-.8-.7-.5-1.5l1-2c.1 0 .3 0 .5-.2zM292.8 73.7v-.3l.5.1v1.7zM286.8 73l.3.4c-.2.5-.7 1.3-.8 1.8.3-.2 1-1.3 1-1.6l.6.2c-.2.4-.5 1.3-1 2.1-.2.5-.9.4-1.4.5-.1-.5-.4-.8-.2-1.2.3-.7 1.1-1.7 1.5-2.3zM285.5 72.2c.2 0 .2.1.3.2l-1.1 1.5 1.6-1.4c.2 0 .3 0 .4-.2v.4l-1.5 2c-.4.4-1 .4-1.6.4-.1-.6-.4-1 0-1.6l1.9-1.3zM282.5 71.6l2.4-.5v.4l-1.8.8c.7 0 1.7-.3 1.8-.4l.4.3c-.4.1-1.1.7-1.8 1-.7.3-1.5-.1-1.8-.3.1-.5.3-1.2.8-1.3zM278.4 70.8l2-.1v.1h-2z" fill="#e7a425"/><path d="M273.9 70.8c.6-.6 1.8-1 3.1-1h4l-.5.7c-1.3.2-2.2 0-3.6.4 1.3.2 3.3.1 3.7.1.1.2.4.4.8.5l-4.5.5c-1.4.2-2.4-.3-3-1.2z" fill="#e7a425"/><path d="M281.9 69.7h2.6l.4.3-2.1.4h2.5a1 1 0 00-.3.5l-2.6.5c-1 0-1.4-.3-1.7-.7.2-.5.7-1 1.2-1zM283 68.5h1.2l-.1.2-1.2-.2zM278.2 68.4l1.8.2.1.2-1.9-.4zM291.5 68c.5.5 1 .5 1.8.3V70c-1.2.2-2.4-.7-1.8-2zM298.9 67.3v1h-.3l.3-1z" fill="#e7a425"/><path d="M280.2 68.3c.4-.8 1.2-1 2.2-.8l2.5.5-.5.4H282c.6.3 1.4.4 2 .4l.2.6h-2.6a2 2 0 01-1.5-1.1zM297 66.9v1.4h-.4c.1-.4.4-.8.5-1.4zM296.3 66.5l-.5 1.8h-.6c.2-.3.9-1.2 1-1.8z" fill="#e7a425"/><path d="M273.3 67.3c1-.5 2.7-.5 3.8-.2l3 .7-.3.4v.2s-2.2-.4-3.5-.3c1.2.4 3.9.8 4 .8.3.4.6.5 1 .7-.3 0-3.9 0-4.7-.2-1.1-.1-3-.8-3.3-2zM297.8 66.6v1.7h-.6c0-.7.4-1.2.6-1.7zM299.9 66.6v1.7h-.7c.1-.6.5-1.1.7-1.7zM278.2 66l2 .5.2.2a18 18 0 01-2.2-.8zM298.5 64.9s.4 1.6.3 2.2l-.4 1.2h-.4v-1.9-1c.3.7.3 1 .3 1.7l.2-2.2zM296.9 65.1c.3 1.8 0 2.4-.5 3.2h-.5c.3-.6.6-2.2.6-3.1V67c.3-.8.3-1.2.4-1.9zM295.4 64.6c0 .9-.5 1.8-1 2.1.6-.2 1-1 1-1-.1.3-.2.8-.4 1-.7.7-1.9.5-2.1-.2 1.3.5 2.2-.6 2.5-1.9zM280 65.4a2 2 0 012.2-.2l2 1 .1.4c-.5 0-1.3-.3-2.1-.5.8.6 2 .8 2.3 1 .1.2.3.5.7.7-1.2-.2-3-.4-4-.9-.4-.1-1.1-.7-1.2-1.5zM283.9 64.8l1.2.7h-.2l-1-.7z" fill="#e7a425"/><path d="M296.3 63.9c.3 1.8-.2 3.3-1.3 4.4h-1.7.2c1.7-.7 2.4-2.3 2.7-4.4l-.1 1.6c.2-.5.2-1.2.2-1.6zM273.2 63.8a7 7 0 013.6.5l2.9 1.3c0 .3.2.5.3.7-.7-.2-2.4-.9-4.3-1.3a35.4 35.4 0 005.3 2.3c-.3 0-.4.1-.7.3a29 29 0 01-3.2-.8c-1.8-.5-3.7-1.6-3.9-3zM278.2 63.4l2.6 1.3-.3.1-2.3-1.4zM297.2 62.8l.8 2.4c0 1-.5 1.9-.8 2.5 0-1 0-2-.3-2.8v-2.1c.2.3.5 1.7.6 2.4l-.3-2.4zM298.4 62.7a72.6 72.6 0 01.2 0l.4 1.3c.2.6.7 1.8.7 2.4-.1.7-.4 1-.7 1.6 0-.9 0-1.7-.3-2.6l-.2-1-.1-1.7zM280.8 62.5c2.4.2 3.7 2 5.2 3h-.6c-.3 0-1.6-1-2.6-1.4.5.6 1.4 1 2 1.5l-.6.3-2.3-1.1c-.6-.7-1-1.6-1-2.3zM284 62.2l.6.6v.3l-.7-.9z" fill="#e7a425"/><path d="M285.4 70c-.7 0-.9-.8-1-1.2.1-.2.6-.8 1.3-.7.5 0 .9.2 1.3.3v-.1c-1.5-.3-2.5-1-2.5-2.3 1.1-.8 2.3 0 3 1l.2-.2c-.6-1-1.5-1.3-2.2-2-.6-.8-.8-2.2-.5-3.4 1.4 1.8 3.7 3.3 4.3 4.8.5 1.4-1 1.7-1.2 2.7-.3 1.2.4 2 1.8 2.5 1 .3 2.3-.1 2.7-1.1h.7v1c-.2 0 0 0-.2.2l.2.7v.8c-.2 0-.3 0-.4-.2 0 .2.2.3.4.4v.2l-.4-.2-.5-1.4c0-.1-.2 0-.1 0l.4 1.3c.1.6-.4.7-.7 1-.4-.1-1 0-1.1-.6l-.2-1.3h-.1v1.2c0 .5-.5.5-.8.8-.4-.3-1-.3-.9-.9l.4-1.1-.2-.1c-.1.3-.3 1-.5 1.2-.3.6-.7.2-1.3.2-.1-.4-.7-.7-.4-1.2.1-.2.8-.8.8-1 0 0 0-.1-.1 0l-1 .9c-.4.3-1.3-.3-1.6-.4.1-.4 0-1 .6-1.4l1.2-.3V70h-1.4zM278.7 61l2 1.2h-.2v.2c-.4-.3-1.4-1-1.8-1.5zM297 60l.7 1.2c.6 1 .7 2.7.6 4.9-.3-2.2-1.3-3.8-1.4-4.7.4.6 1 1.4 1.2 2.3 0-.5-.8-3.1-1-3.7zM273.8 60.4a7 7 0 014 1.3l3 2 .8 1h-.6c-.5-.3-3-1.8-4.4-2.3 1.1 1 3.2 2.2 3.7 2.4l-.6.5a18 18 0 01-3.6-1.6c-1-.8-2.4-1.8-2.3-3.3z" fill="#e7a425"/><path d="M297.2 60c.8 1 2 2.5 2.4 3.2.4 1.3.3 2.4.2 3-.4-2.2-1.3-4.3-2.6-6.3zM295.7 59.9c.3.3 1 1 1.1 1.4.2 1.3.1 3.6-.2 4.7 0-1-.1-2.8-.7-3.6a6 6 0 01-.6 4.1c.4-1.2.5-3.5 0-4.8l-.5-1a5 5 0 011.7 1.8c-.2-1-.5-1.7-.8-2.6zM289.4 60.1c.7-.4 1.3-.5 2.4-.3-.8 0-2.3-.2-2.7 1.3-.2-.3 0-.7.3-1zM289.5 59.1l1.3.1c-2.3.1-2.4 1.1-3.3 1.4-.7.2-1.6 0-2-.9.6.4 1.1.4 1.7.2.8-.2 1.4-.7 2.3-.8z" fill="#e7a425"/><path d="M295.4 58.6l1.3 1.8c-.3-.7-.8-1.4-1.2-1.9l1.1.9c.4.6.9 2 1 3-.6-1.2-1.5-2.3-2-2.7l-.2-1.1zM282.2 58.7a8.4 8.4 0 002.4 3v1l-1.4-1.5c.3.9 1 1.8 1.4 2 0 .4.2.7.3 1l-2-1.7c-1-1-1.4-2.5-.7-3.8zM279.5 57.6a32 32 0 002 2.4v.3c-.6-.6-1.6-1.9-2-2.7zM296 58l1.6 1.7c-.2-.5-1.2-1.4-1.5-1.7l1.3.6c.3.3 1.6 2.5 2 4-1.3-2-2.5-2.8-3.4-4.6zM293.3 57.5c.6.4 1.8 1.4 2.1 2l.8 2.3c-.4-.6-1-1.1-1.6-1.4-.4-.4-1-1-1.5-1.3l-.9-1c.6.5 2 1.6 3 2-.6-.9-1.4-2-2-2.6zM294 56.9l1 .1c.4.4 1 1.2 1.5 2.2-1-.6-2-1.8-2.5-2.3z" fill="#e7a425"/><path d="M295.8 57c.2.6 1.4 1.3 2.6 1.3a3 3 0 01-3.1-1.3h.5zM292.1 56.2l-.5.3.5-.3z" fill="#e7a425"/><path d="M291.1 56l.8.2-.7.3V56zM290.5 56l.2.3v.3l-.2-.3V56z" fill="#fff"/><path d="M290.2 56h.2c0 .4 0 .6.5.7l-.3.2c-.2-.2-.4-.7-.4-.9z" fill="#fff"/><path d="M286.7 57.1c.2-.5 1-1.1 2-1 1.1 1.7 2.3 2.8 4.2 3.9-.2.2-.7-.3-1.2-.5a6.1 6.1 0 00-2.9-1.3c-.7 0-1.4.2-1.8.7-.4-.4-.5-1.3-.3-1.8zM274.8 55.9c.9.5 4.4 4.4 7.7 6.7-.4-.2-1.1-.4-1.6-.4-.2-.2-2.6-2-3.8-2.6 1 1.1 3 2.6 3.4 3 0 .2 0 .4.2.6-1.2-.7-3.3-1.8-4.8-3.2-1-1-1.7-2.6-1.1-4.1z" fill="#e7a425"/><path d="M288.9 56c-.2-.4.3-.6.4-.4a7 7 0 001.4 2.3l2 1.3c.6.3 1.7 1 2 1.7.5.7.7 1.6.7 2.5-.4-1.3-1.4-3-2.6-3.7-1-.6-2-1.3-2.6-2-.4-.6-1-1.2-1.3-1.8z" fill="#e7a425"/><path d="M289.6 55.1l6.8.1.6-.1-.7.5c-1.2.6-2.7.7-4.2.5-.4 0-1.3-.5-2.1-.2 0 .4.4 1 .6 1.2.4-.3.9-.4 1.5-.6.7-.3 1.7-.3 2.5-.2a6 6 0 002 0c-.7.6-1.9.7-3 .4.8.6 1.8 1.7 2 2.8-.8-1-2-2-3-2.5.8.7 1.8 2 2.1 2.8-.9-.5-2.2-1.5-3-2.4.3.6.7 1.2 1.2 1.7-.2-.1-1.2-.6-1.9-1.2a7.6 7.6 0 01-1.6-2.5c0-.2 0-.3.2-.3zM277 51.3c.6 1 3.1 5.6 4.8 7.5a4 4 0 00-.3 1c-1-1-2.2-3-3.5-4.3.8 1.8 2.6 4.2 3.5 5 .1.5.3 1.2.7 1.6-2.3-1.8-5-5-5.7-7.2-.6-2-.1-3.1.6-3.6z" fill="#e7a425"/><path d="M295.7 66.8a2 2 0 01-.8 1l.8-1zM291.6 68.3c.2.2.6.3 1 .3h-.9c0 .2.2.7.6 1-.6-.1-1-1-.7-1.3zM288 57.6c.2-.1 0 .2 0 .2.3 0 .2 0 .2.1l-.6.2c0-.2 0-.5.4-.5zM283.4 55.6l-.1.6c-.3-.2 0-.5.1-.6zM277 51.8l1.8 3.1-1.8-2.7c-.9 1.3.5 3.9 1 5.1-.8-1.1-2.4-4.2-1-5.5zM274.1 60.7a8 8 0 013.4 1.2l-3-1c.3 1.6 1.4 2.2 2.2 2.8-1-.5-2.6-1.7-2.6-3zM275 56.3c.4.2 2.3 2.2 2.9 2.7-.8-.5-2-1.8-2.8-2.3-.2 1.8 1.3 3.3 1.7 4-.9-.8-2.4-2.6-1.9-4.4zM282.2 59.2c.3.5.5 1 .9 1.4l-.8-.8c-.2.9.6 2.5 1.3 3-1.4-1-1.8-2.6-1.4-3.6zM281.2 62.8c.6 0 1.8.5 2 .8-.5-.3-1-.5-1.8-.6.1.4.6 1.3 1 1.8-.7-.5-1.3-1.5-1.2-2zM273.7 64c1-.1 2.4.3 3 .6-1-.2-1.4-.4-2.6-.4a6 6 0 002.5 2.2c-1.6-.5-2.8-1.7-3-2.4zM282.3 65.5c-.6-.2-1-.2-1.7 0 .1.7.8 1.2 1.2 1.4a2 2 0 01-1.5-1.4c.7-.5 1.5-.3 2 0z" fill="#2b2828"/><path d="M283 66.4l1.4.3v.2c-.3 0-.9-.3-1.4-.5z" fill="#e7a425"/><path d="M286.4 66.1c-.5 0-1 0-1.4.2 0 .4.3.9.6 1.2-.5-.2-.9-1-.8-1.4.3-.2 1-.3 1.6 0zM285.2 62l1.2 1.3c-.4-.2-.8-.5-1-.8-.2.9.5 2.2.7 2.4a3 3 0 01-1-3zM286.3 64c.8.4 1.9 1.6 1.9 1.6v.2h-.2s-1.3-1.2-1.7-1.8z" fill="#2b2828"/><path d="M287.2 64.8l.9.9h-.1s-.8-.8-.8-1z" fill="#e7a425"/><path d="M286 66.8c.7.2 1.1.5 1.3.6v.2l-.1.1-1.2-.9z" fill="#2b2828"/><path d="M286.7 67.2l.5.3v.1l-.5-.4zM283.2 73.8v.5l-2.7 3.1 2.8-2.6v.5l-2.8 3.5c-.6.6-1.3.3-1.8.3 0-.6-.3-1 .3-1.7l4.2-3.6zM276.5 76.7c.1-.6.1-1.5 1.7-2.1l3.4-1.4.4.1c-.4.2-2 1.2-3 2 1.2-.4 3.3-1.8 3.5-1.8h.8c-.6.4-3.7 2.7-4.6 3.2-1.4.7-1.7.2-2.2 0zM282 71.6l-.4.5c-.2 0-2.4.5-3.6 1 1.3 0 3.5-.6 3.6-.6v.4c-1 .5-3.3 1.1-3.7 1.3-1 .3-2.5.2-3-.4a3 3 0 012.2-1.5l4.9-.7z" fill="#e7a425"/><path d="M276.9 70c-.8 0-1.8.4-2.2.9.3.6 1.9.9 2.7.9-1.4.1-2.7-.3-3.1-1 .6-.5 1.8-.8 2.6-.8zM277 67.4c-.9 0-2-.1-2.7.2.2.5 1.3 1.3 2.6 1.6-1 0-2.8-.8-3.1-1.7.8-.4 2.6-.3 3.2-.1zM282.3 67.7c-.8 0-1.3.2-1.6.6.2.4.8.8 1.2.9-.6 0-1.2-.4-1.4-1 .3-.5 1.2-.7 1.8-.5zM286 68.3c-.5 0-.9.3-1.2.5.2.4.4.8.7 1-.5 0-.7-.5-1-1 .3-.3.8-.7 1.5-.5z" fill="#2b2828"/><path d="M279.7 72.8l2-.6-.1.2-2 .4z" fill="#e7a425"/><path d="M277.3 72.5c-.7.1-1.4.6-1.8 1.2.8.5 1.8.4 2.4.3-.7.3-2 .3-2.7-.3.5-.8 1.4-1.2 2-1.2zM292 96.5c0 .6 0 2.1 1 2.7-1-.4-1.3-1.7-1.2-2.6l-.8.5c.1-.5.5-.7 1-.6zM291.7 95.5c-1.3.4-1.3 1.4-1.3 2-.4-1.1.2-1.8 1.3-2zM291.9 94.4c.4 0 0 .1-.2.2-.2 0-.3-.2-.3-.2h.5zM290.3 93.5c0 .5.2 1 1 1.3a.9.9 0 01-1-1.3zM298.3 92.2c-.4 1-1.6 2.5-2 4-.3 1.4.2 2.8 1 3.3-.8-.3-1.5-1.7-1.1-3.4.3-1.5 1.4-2.7 2.1-4zM297.1 91.4c-.6.6-1.8 1.2-2.2 1.5-.9.6-2.5 1.7-2.3 3.8.2 1.7 1 1.7 1.5 1.7-.7.1-1.2-.1-1.5-.6-.7-1.5 0-3.6 1.6-4.8l3-1.6z" fill="#2b2828"/><path d="M293.8 95.6c.3.4 1 .5 1.6.4-.4.4-1.3.2-1.6-.4z" fill="#2b2828"/><path fill="#e7a425" d="M295.9 84.4h.1l.2.5zM293.7 83.6l-.7.2.6-.4z"/><path d="M277.8 75c-.7.4-.7 1-.8 1.4.5 0 .8.4 1.4.2-.8.3-1 .1-1.6 0 0-.7.2-1.1 1-1.6z" fill="#2b2828"/><path fill="#e7a425" d="M280.6 74.4l1.5-1h.2zM281.8 76l1.4-1.6v.3z"/><path d="M279.5 77.3c-.6.6-.5 1-.4 1.4.5 0 1 .2 1.5-.3-.6.8-1 .5-1.7.5 0-.8-.2-1 .6-1.6z" fill="#2b2828"/><path fill="#e7a425" d="M283.9 77.2l1.1-1.7v.2z"/><path d="M281.9 78.8c-.4.9 0 1 0 1.4.7-.1 1 .1 1.4-.7-.3 1.1-.8.8-1.4 1-.3-.8-.7-.7 0-1.7z" fill="#2b2828"/><path d="M286 78.4l.6-2 .3-.1v.1z" fill="#e7a425"/><path d="M284.6 79.8c-.2 1 .2 1 .4 1.4.5-.3 1-.1 1.3-1-.2 1.1-.8.9-1.4 1.2-.4-.7-.8-.5-.3-1.6z" fill="#2b2828"/><path d="M288.7 78.7l.2-1.5.2-.3z" fill="#e7a425"/><path d="M287.7 79.6c0 1 .5.8.8 1.1.5-.4 1-.1 1-1 .1 1.1-.5.8-1 1.2-.6-.5-1-.2-.8-1.3z" fill="#2b2828"/><path d="M283.7 70.3l1.4-.2.4.1z" fill="#e7a425"/><path d="M282.5 69.9c-.8 0-1 .2-1.3.7.3.4 1 .5 1.4.6-.7 0-1.3-.1-1.6-.5.3-.6.7-.9 1.5-.8z" fill="#2b2828"/><path fill="#e7a425" d="M284 72l.9-.4v.2z"/><path d="M283 71.7c-.7.2-.7.5-.8 1 .4.2.8.4 1.2.3-.6.3-1 0-1.4-.2.1-.7.3-1 1-1.1zM284.1 73.4c-.4.4-.3.7-.1 1.3.4 0 .8 0 1.2-.4-.4.7-1 .5-1.4.6-.2-.8-.4-1 .3-1.5z" fill="#2b2828"/><path fill="#e7a425" d="M285.3 73.1l.7-.7h.2zM286.8 74.4l.4-1v.2z"/><path d="M285.7 74.9c-.3.5 0 .7.1 1 .5 0 .8 0 1-.3-.2.7-.6.5-1.1.6-.1-.5-.5-.7 0-1.3zM287.4 75.8c-.1.6.2.7.4 1 .5-.1.9 0 1-.5 0 .7-.6.6-1 .8-.2-.4-.8-.7-.4-1.3zM289.5 76.4c0 .6.6.6.8.8.5-.2.8-.2.8-.8.1.9-.4.7-.8 1-.3-.3-1-.2-.8-1z" fill="#2b2828"/><path fill="#e7a425" d="M290.3 74h.2l-.2 1.3z"/><path d="M293.2 76.3c.3.7-.2.7-.5 1.1-.4-.3-1-.2-1-1 .1.6.6.6 1 .8.3-.3.5-.4.5-1z" fill="#2b2828"/><path fill="#e7a425" d="M292.4 75.5l-.4-1.1h.1v-.1z"/><path d="M286 70.5c-.6.2-.5.6-.6 1.1.5.2.8.6 1.3.3-.5.4-1 0-1.5-.2.2-.8 0-1 .8-1.2zM285.5 69l1.5.1.1.2-1.6-.3zm.9.1l.6.2v-.1h-.6z" fill="#2b2828"/><path d="M286 71.4l1.2-.9h.2v.3l-1.4.6zm.8-.5l.5-.2h-.1l-.4.2zM287.2 72.2c-.3.4.2.6.4 1 .4-.2.7.2 1-.1-.3.6-.7 0-1.2.2 0-.4-.6-.5-.2-1.1zM287.9 72.6c.2-.8.4-1 .4-1l.2-.1v.1s-.1.5-.6 1zm.3-.6l.3-.4h-.1l-.2.4zM289.8 73.1v-1H290l-.3 1zm0-.5l.2-.4h-.1v.4zM289.1 73.1c0 .5.5.4.7.7.3-.3.7-.2.7-.6 0 .7-.4.5-.7.8-.2-.3-.8-.2-.7-.9zM291.7 73.1c-.3-.7-.3-1.1-.3-1.1v-.1h.3v1.2zm0-.5l-.1-.6h-.1l.2.6zM291 73.3c.1.5.6.3 1 .4.2-.3.6-.3.5-.7.2.6-.3.5-.5 1-.4-.3-.9 0-1-.7z" fill="#2b2828"/><path d="M293.3 71.9l-.1-.4z" fill="#e7a425"/><path d="M302.6 52.6l-2.6.2a10 10 0 01-2.7-.2v-1.3c-.4-.7-.8-1.5-1-2.3-.7-2 .3-2.8 2-3.1.2-.1.4-.2.7-.1v.3h.4v-.4h.2a.8.8 0 01-.4-.7c0-.3 0-.5.3-.6h-.3l.5-.7c-.2 0-.5.3-.7.5v-1.7c.2.2.5.5.7.5 0-.2-.4-.5-.5-.6h1.6l-.5.6c.2 0 .5-.3.7-.5v1.7c-.2-.2-.5-.5-.7-.5 0 .2.4.5.5.7h-.3c.2 0 .3.3.3.6s-.1.6-.4.7h.2v.4h.3v-.3h.7c1.8.4 2.8 1.3 2.1 3.2l-1 2.3z" fill="#2b2828"/><path d="M300 52.3c-.8 0-1.6 0-2.1-.2l2-.2c.9 0 1.7 0 2.2.2l-2.1.2z" fill="#e7a425"/><path d="M297.6 52.4v-.2c.5.2 1.5.2 2.4.2.9 0 1.9 0 2.4-.2v.2l-2.4.2c-1.2 0-2 0-2.4-.2zM302.4 51.6v.1zM300.5 49v-.3zM303.5 49l-.1.4-.2-.2.3-.4v.2zM303.6 48.6l-.3-.3c0-.2.2-.3.3-.5l.1.2v.6zM303.7 48V47.6v.2zM303.7 47.5v.2l-.4-.6.1-.2.3.6zM303.4 46.9l-.2.2c0-.2-.2-.3-.4-.5l.5.2zM302.8 46.5zM302.6 46.4l.2.2-.4.5c0-.2-.2-.3-.4-.4l.3-.4h.3zM302.2 46.3s0 .2-.2.3l-.3-.3V46l.5.2zM301.7 46.4l.3.3-.4.4zM301.5 47.1v.2zM301.4 47.4l.2-.2.4.4-.3.4-.3-.2z" fill="#e7a425"/><path d="M301.4 47.8l.2.3-.3.3zM301.2 48.6c.2 0 .3.2.4.3l-.4.3h-.1zM301.3 49.4l-.1.1v-.2zM302.3 50.9l.3-.2V51l-.3-.1zM302.5 50.6v-.1zM302.6 50.4l.4-.3c0 .3-.2.5-.3.7v-.1l-.1-.3zM303.1 50l-.3-.4c.1-.1.2-.3.4-.3v.2l-.1.5zM301.2 46h.3l-.6 2.8h-.1zM302 46.7l.4.5-.4.4c0-.2-.2-.3-.3-.4l.3-.5zM302.8 47.6c0-.2-.2-.3-.3-.4l.3-.6.4.5-.4.5zM302.5 48c-.2 0-.3-.2-.4-.4l.3-.4.4.5-.3.4zM302 48.5l-.3-.4.3-.4.4.4-.4.4zM301.6 48.9c0-.2-.2-.3-.3-.4l.4-.4c0 .2.2.3.3.5l-.4.3zM303.3 48.2l-.4-.5.3-.5c.1.1.3.3.3.6l-.2.4zM302.9 48.6l-.4-.5.3-.4.4.5-.3.4zM302.5 49h-.1l-.3-.4.3-.4.4.5-.3.4zM302.3 49h-.5-.1l.4-.4.2.3zM302.4 49.2zM301.7 49.1l-.3.2h-.1l.3-.3.1.1zM302 49.6zM302 50.2h-.1l.3-.3-.2.3zM303.2 49.1l-.3-.4.3-.4.3.4-.3.4zM302.7 49.5l-.2-.3.3-.4.3.4-.4.3z" fill="#e7a425"/><path d="M302.3 50v-.1l.1-.2h-.3v-.2l.4-.3.2.4-.4.3zM302.3 50l.2.4h-.2-.3l.1-.1z" fill="#e7a425"/><path d="M302.7 49.6l.3.5-.5.3-.2-.4.4-.4zM300.5 48.6v-.2h.1v.2zM300.5 48.2V48h.2v.3zM300.5 47.9v-.2h.2v.2zM300.5 47.5v-.2h.2v.3zM300.5 47.2V47h.3v.2zM300.6 46.8v-.2h.2v.2zM300.6 46.4v-.1h.3v.2zM300.3 51.2v-.1.1zM300.3 51.4h-.1.1zM300.8 51.2v-.1.1zM300.8 51.5h-.1v-.1h.1zM301.2 51.2zM301.3 51.5h-.1zM301.7 51.3zM301.6 51.5zM302 51.4h.1zM302 51.6zM300.5 51.1s.2 0 .2.2l-.2.1-.1-.1.1-.2zM301 51.2l.1.1-.1.1h-.1l.1-.2zM301.4 51.2l.1.2h-.2l.1-.2zM301.8 51.3l.2.1-.2.1v-.2zM302.2 51.4l.1.1v.1h-.2l.1-.2z" fill="#e7a425"/><path d="M302.1 47l.2.2-.2.1V47zM302.5 47.4l.2.2-.1.3v-.5zM303 48l.1.2-.1.2V48zM303.3 48.5l.2.2-.2.2v-.4zM302.6 48.5l.2.2-.2.2v-.4zM301.7 48.3l.2.3-.2.1c.1-.1.1-.2 0-.4zM302.1 48l.2.1-.2.2c.1-.1.1-.3 0-.4zM301.7 47.4l.2.2-.2.2c.1-.1.1-.3 0-.4zM302.5 46.4l.2.2-.2.2v-.4zM303 47l.1.1-.2.2c.1-.1.1-.3 0-.4zM303.3 47.5l.2.2-.1.2v-.4zM302.9 49l.1.2-.2.1c.1-.1.1-.2 0-.4zM302.7 49.8l.2.2-.2.2c.1-.2.1-.3 0-.4zM301.4 48.8V48.8zM302.5 49.3l.1.3-.2.1c.1-.1.1-.2 0-.4z" fill="#2b2828"/><path d="M302.5 50.7a1 1 0 01-.4.1h-.6l.3-.3c.3 0 .5 0 .7.2zM301.2 49.6c.3-.3.7-.5 1.1-.5 0 .2-.3.4-.5.6h-.3l.1-.2h-.4zM300.4 48.9v.2l-.1.2v-.2l.1-.2zM301.1 49.3l-.1.4h-.2l.1-.3h.2zM301.4 49.9c.3-.1.6-.2.9-.1a2 2 0 01-.6.4h-.6c.2 0 .3-.2.3-.3zM300.3 49.5l.5-.6c0 .4 0 .7-.2 1l-.4.4.1-.7zM302 50.3l-.7.4h-.8c.4-.3 1-.5 1.4-.4z" fill="#e7a425"/><path d="M301.4 49.6c-.2.5-.7 1-1.2 1 .2-.5.7-.9 1.2-1zM297.6 51.6v.1zM299.5 49v-.3.3zM296.5 49v-.2l.3.4-.2.2-.1-.4zM296.4 48.6l-.1-.6v-.2l.4.5-.2.4zM296.3 48v-.3zM296.3 47.5l.3-.6.1.2-.3.6zM296.6 46.9h.1c.1-.2.3-.3.4-.3l-.3.5-.2-.2zM297.2 46.5zM297.4 46.4l.3-.1.2.4-.3.4-.4-.5.2-.2zM297.8 46.3l.5-.2v.2l-.3.3-.2-.3zM298.3 46.4l.2.6-.1.1-.4-.4.3-.3zM298.5 47.1v.2-.1zM298.6 47.4v.4l-.3.2-.3-.4.4-.4c0 .1 0 .2.2.2zM298.6 47.8l.1.6a3 3 0 01-.3-.3l.2-.3zM298.8 48.6l.1.5h-.1v.1c-.2 0-.2-.2-.4-.3l.3-.3zM298.7 49.4h.1v.1zM297.7 50.9l-.3.1v-.2h.3zM297.4 50.6l.1-.1zM297.4 50.4v.2h-.1v.2l-.3-.7.4.3zM296.9 50l-.2-.5.1-.2c.2 0 .3.2.4.3l-.2.4zM298.8 46l.4 2.8h-.1l-.6-2.8h.3zM298 46.7l.3.5-.4.4c0-.2-.2-.3-.3-.4l.4-.5zM297.2 47.6l-.4-.5.4-.5.3.6-.3.4zM297.5 48l-.3-.3.4-.5.3.4-.4.5zM298 48.5l-.4-.4.3-.4.4.4-.4.4zM298.4 48.9l-.4-.3.3-.5.4.4-.3.4z" fill="#e7a425"/><path d="M296.7 48.2l-.2-.4c0-.3.1-.5.3-.6l.3.5-.4.5zM297.1 48.6l-.3-.4.4-.5c0 .2.2.3.3.4l-.4.5zM297.5 49l-.3-.3c0-.2.2-.3.3-.5l.4.4-.3.3h-.1v.1zM297.7 49l.2-.4.4.3-.1.2-.5-.2zM297.6 49.2zM298.3 49.1V49c.2 0 .3.2.4.3h-.1a.7.7 0 00-.3-.2zM298 49.6zM298 50.2l-.2-.2.3.2zM296.8 49.1l-.3-.4.2-.4.4.4-.3.4zM297.2 49.5l-.3-.3.2-.4.4.4-.3.3zM297.7 50l-.4-.4.2-.4.4.3v.1h-.3v.1l.1.2zM297.7 50l.2.2.1.2h-.5l.2-.4zM297.2 49.6l.5.4-.2.4-.5-.3.2-.5zM299.4 48.4h.1v.2zM299.3 48h.2v.2h-.2zM299.3 47.7h.2v.2h-.2zM299.2 47.4h.3v.1h-.2zM299.2 47h.2v.2h-.2zM299.1 46.7h.3l-.2.1zM299.1 46.5v-.2h.3v.1zM299.7 51.2v-.1.1zM299.7 51.4zM299.2 51.2V51v.1zM299.2 51.5v-.1h.1zM298.8 51.2zM298.7 51.5h.1zM298.3 51.3zM298.3 51.5h.1zM298 51.4h-.1zM298 51.6zM299.5 51.1l.1.2-.1.1-.2-.1.2-.2zM299 51.2l.1.1-.1.1h-.1l.1-.2zM298.6 51.2v.2h-.1v-.2zM298.2 51.3v.2h-.2l.2-.2zM297.8 51.4v.2h-.1v-.2z" fill="#e7a425"/><path d="M297.9 47v.3l-.2-.1zM297.5 47.4v.5l-.2-.3zM297 48v.4l-.1-.2zM296.7 48.5v.4l-.1-.2zM297.4 48.5v.4l-.2-.2zM298.3 48.3c-.1.2-.1.3 0 .4l-.2-.1zM297.9 48v.3l-.2-.2zM298.3 47.4c-.1.1-.1.3 0 .4l-.2-.2zM297.5 46.4v.4l-.2-.2zM297 47v.3l-.1-.2zM296.6 47.5v.4-.2zM297.1 49v.3l-.1-.1zM297.2 49.8l.1.4-.2-.2zM298.6 48.8v.3l-.1-.2zM297.5 49.3v.4l-.1-.1z" fill="#2b2828"/><path d="M297.5 50.7l.7-.2.3.2-.6.1a1 1 0 01-.4-.1zM298.8 49.6h-.4v.1h-.2c-.3-.2-.4-.4-.5-.6.4 0 .8.2 1 .5zM299.6 48.9l.1.2v.2l-.2-.2V49zM298.9 49.3l.2.1.1.4-.2-.1-.1-.4zM298.6 49.9l.3.3h-.6a2 2 0 01-.6-.4h.9zM299.7 49.5V50.3l-.3-.4c-.2-.3-.3-.6-.2-1l.5.6zM298 50.3c.6 0 1 0 1.5.4h-.8c-.2 0-.5-.2-.6-.4z" fill="#e7a425"/><path d="M298.6 49.6c.5.1 1 .5 1.2 1-.5 0-1-.5-1.2-1zM300.1 51.3l-.1.1-.2-.1.2-.2.1.2z" fill="#e7a425"/><path d="M300 51c-1.1 0-2 .1-2.4.4v-.2a6 6 0 012.4-.4c1 0 2 .2 2.4.4v.2a6 6 0 00-2.4-.4zM300 48.6l-.2.4-.2-3.1h.2l-.1.2v1l.1.2V48.4s0 .2.2.2zM300.2 46l.2-.1-.2 3s0-.2-.2-.3l.2-.2v-.2-.2-.2-.2-.3-.2-.2l.1-.3-.1-.2.1-.3V46zM300 51.7c-1.1 0-2 .1-2.4.3v-.2l2.4-.3c1 0 2 .2 2.4.3v.2c-.4-.2-1.3-.3-2.4-.3zM300.2 49.6c0 .3 0 .7-.2 1l-.2-1c0-.3 0-.6.2-.9l.2.9zM300.2 42.8v.3c0 .3.5 0 .6-.1v.8l-.5-.3c-.4 0 0 .6.1.7h-.8l.3-.6c0-.3-.6 0-.7.2V43l.5.2c.4 0 0-.6-.1-.7h.8l-.2.3zM300 44.4c.3 0 .6.2.6.6 0 .3-.3.6-.6.6a.6.6 0 01-.6-.6c0-.4.3-.6.6-.6z" fill="#e7a425"/><path d="M300 47.8l.1.2-.1.1-.1-.1v-.2zM300 48.2l.1.2h-.1-.1v-.2h.1zM300 47.4l.1.2-.1.1-.2-.1c0-.1 0-.2.2-.2zM300 47l.2.1-.2.2c-.1 0-.2 0-.2-.2l.2-.2zM300 46.8c-.1 0-.2 0-.2-.2l.2-.1.2.1c0 .1 0 .2-.2.2zM300 46l.2.1c0 .1 0 .2-.2.2-.1 0-.2 0-.2-.2 0 0 0-.2.2-.2z" fill="#e7a425"/><path d="M299 52.8c-.9.8-2.6 1.8-4.4 2.2-1.5.3-4.3.1-5.4 0-1.3 0-2.5-.5-3.2-1.2-1.2-1.2.7-2.8 0-4-.6.2-1 .6-2 .7l-.2.8c-.3 1.4 1.1 1.6.8 3-.2.7-.7 1-.9 1.8 0 0 0 .5.4 1-1 0-1.7-1-1.3-1.8.1-.4.5-.7.5-1.1-.5.7-1 .7-2 .4-.4-.1-.4.5-.1 1-.6-.4-.8-1-.8-1.3 0-.6.5-1 1-.8.2 0 .7.4.8-.1 0-.9-1.3-.9-1-2.3.1-.7 1-1.1 2.2-1.3l.6-.6c.7-1.2 1.4-1.5 1.8-1.3l1.1.7c.4.2.7.3 1 .6.5.6 0 1.7-.3 2.3-.2.4-.7 1.3-.5 1.9.3.8 1.5 1.2 2.3 1.4.6.1 2.6.2 3.7 0s3.5-1.7 4.1-2.5l.3-.3c.8-.3 2.5-.3 2.5-.3l-1 1z" fill="#2b2828"/><path d="M297.5 52.3l.9-.3c-.5.9-3 2.5-5 3 1-.4 3.5-1.7 4.1-2.7z" fill="#e7a425"/><path d="M299.4 52c-.6 1.1-3 2.5-5.3 3 2.2-.8 4-2.1 4.5-3h.8zM283.1 50.6h.2c-.1.3-.2.7 0 1.1l.2-1.1h.2c-.4 1-.2 1.7.2 2.1.6.8.6 1.5.2 2.2-.2.4-1 1.3-.5 2-1.1-.6-.6-1.7-.3-2.1.3-.4.3-1 0-1.2 0 .6-.5 1-1 1-.4 0-1.3-.6-1.5.1 0-.7.5-.5 1-.4 1.4.3 1.3-1.4.8-1.9-.6-.4-1.3-1-.4-1.5v.9l.2-1h.2c-.1.2-.2.6 0 1l.1-1 .2-.1v1l.2-1zM286.6 49.5h.2v1c.2-.4.2-.7.1-1 .8 0 0 1.7-.4 2.5-.1.3-.4 1.3.2 2-.3 0-.9-.7-.9-1.1 0-.8.2-1.2.3-1.5.2-.6.4-1.2 0-1.8h.3c.1.1.3.5.2 1 .2-.5 0-1 0-1z" fill="#e7a425"/><path d="M286.5 49h.9c1.3.8-.7 2.8-.6 4.3.1.9 1.2 1.2 1.8 1.5-1.4-.2-2.3-.9-2-2.2.2-1 1.6-3 .5-3.3-.8-.2-1.8.7-2.9 1-1 0-2.9.1-2.6 1.4.1.4.7.7.9 1 .4.6.1 1.5-.6 1.4-.9-.3-1-.2-1.2.3 0-1.5 1.4 0 1.7-.8.2-.6-.2-1-.6-1.2-.2-.2-.5-.6-.4-1 .1-1.4 1.9-1.2 3-1.5.6-.1 1.5-.7 2.1-.9z" fill="#e7a425"/><path d="M285.5 48l.4.2c-.4 0-.6.3-.9.5.2-.1.8-.4 1-.3h.2s-.5 0-.9.5a2 2 0 011.2-.3l.4.2c-.6 0-1 .1-1.7.6-.6.3-1.6.4-1.6.4l.7-.8c.3-.4.8-1 1.2-1z" fill="#e7a425"/><path d="M283.3 53c.1.4 1 .7.4 1.7.3-.9-.5-1.2-.4-1.7zM291 50.9a.5.5 0 01-.1-.4l.1-.4h-.1l.2-.3v-.1l-.2.3h-.1v-1.3.1l.2.2h.1l-.2-.3h1.2l-.2.2-.1.2.1-.1.2-.2V50l-.2-.2-.1-.1.3.3h-.2l.2.5-.2.4v.3h.2V51h.5c1.2.3 2 .9 1.4 2.2a9 9 0 01-.6 1.3v.6h-3.9v-.6l-.5-1.3c-.6-1.3.2-2 1.3-2.2h.5v.2h.2v-.3z" fill="#2b2828"/><path d="M291.8 53.2V53zM293.8 53.1v.4l-.1-.2s0-.2.2-.3v.1zM294 52.9h-.1l-.2-.2.2-.3v.5zM294 52.4v-.1.1zM294 52.2c-.2 0-.2-.2-.3-.3v-.1c.2 0 .2.3.3.4z" fill="#e7a425"/><path d="M293.8 51.7l-.1.2-.3-.4.3.2zM293.4 51.5zM293.2 51.4l.1.1c0 .1 0 .3-.2.4a2 2 0 00-.2-.3l.2-.2h.1zM293 51.3l-.2.3-.2-.3h.4zM292.6 51.4l.2.2-.2.3zM292.5 51.9v.1zM292.4 52.1l.2-.1.2.2-.2.3-.2-.2zM292.4 52.4l.2.2-.3.2zM292.3 52.9l.2.2-.2.2zM292.3 53.5v-.1zM293.2 54.2zM293.2 54.1l.3-.2-.1.4h-.1V54zM293.6 53.8c-.1 0-.2-.1-.2-.3l.2-.2.1.2-.1.3zM292.3 51.1h.2l-.4 2h-.1zM292.8 51.6l.3.3-.2.3-.3-.3.2-.3z" fill="#e7a425"/><path d="M293.4 52.2l-.3-.3.3-.3.2.3-.2.3zM293.1 52.5l-.2-.3.2-.2.3.3-.3.2zM292.9 52.8l-.3-.2.3-.3.2.3-.2.2z" fill="#e7a425"/><path d="M292.6 53.1l-.2-.3.2-.2.2.3-.2.2zM293.7 52.6l-.3-.3.3-.3s0 .2.2.3l-.2.3zM293.4 53l-.2-.4.2-.3.2.4-.2.2z" fill="#e7a425"/><path d="M293.1 53.2c0-.2-.1-.2-.2-.3l.2-.3.3.4-.3.2zM293 53.1l-.3.1c0-.1 0-.2.2-.3l.1.2zM293 53.3h.1zM292.6 53.3h-.2v.1l.2-.2zM292.9 53.6zM292.8 54l.2-.2zM293.6 53.3l-.2-.3.3-.3.1.3-.2.3z" fill="#e7a425"/><path d="M293.3 53.5l-.1-.2.2-.3.2.3-.3.2z" fill="#e7a425"/><path d="M293 53.8l.1-.2h-.2l.2-.3.2.2-.2.3zM293 53.9l.1.2h-.3.1z" fill="#e7a425"/><path d="M293.3 53.6l.2.3c-.1 0-.2 0-.3.2l-.1-.3.2-.2zM291.8 52.9v-.1h.1v.1zM291.8 52.7v-.2h.1v.2zM291.8 52.4v-.1h.2v.1zM291.8 52.2V52h.2v.2zM291.8 52v-.2h.2v.2zM291.8 51.7v-.1h.3v.1zM291.9 51.4h.2z" fill="#e7a425"/><path d="M292.9 51.8l.1.1v.2l-.1-.3zM293.2 52.1l.1.1v.2l-.1-.3zM293.5 52.5v0zM293.7 52.8V52.8zM293.2 52.8l.1.2V52.8zM292.6 52.7l.2.2-.2.1v-.3zM293 52.4V52.4zM292.6 52.1l.2.1-.1.2v-.3zM293.1 51.4l.2.1-.1.2v-.3zM293.5 51.8V51.8zM293.7 52.2l.1.1V52.2zM293.4 53.1l.1.2h-.1v-.2zM293.3 53.7l.1.2v-.2zM292.4 53v0zM293.1 53.4l.1.1V53.4z" fill="#2b2828"/><path d="M292.6 54.2h.5-.5zM292.3 53.6c.2-.2.5-.4.8-.4l-.4.4h-.2-.2zM291.8 53.1v.2h-.1V53zM292.2 53.4v.2l-.2.1.1-.2.1-.1zM292.5 53.7h.5l-.4.3h-.3l.2-.3zM291.7 53.5l.4-.4-.2.7a2 2 0 00-.3.3v-.5zM292.8 54l-.3.3h-.6c.2-.2.6-.3.9-.2z" fill="#e7a425"/><path d="M292.5 53.6c-.2.3-.6.6-1 .6.2-.3.6-.6 1-.6zM291.1 53.2V53v.2zM289.1 53.1l.2.2v.2l-.2-.4zM289 52.9v-.5l.3.3-.2.2zM289 52.4v-.1zM289 52.2c0-.1 0-.3.2-.4 0 .2 0 .3-.2.5zM289.2 51.7l.4-.2-.3.4zM289.6 51.5zM289.8 51.4h.1l.2.2-.3.3-.2-.4h.2zM290 51.3h.3l-.2.3-.1-.3zM290.4 51.4v.4l-.2-.2s0-.2.2-.2zM290.5 51.9v.1zM290.5 52.1v.2l-.1.2-.3-.3.3-.2.1.1zM290.6 52.4v.4l-.2-.2.2-.2zM290.7 52.9v.4l-.3-.2.2-.2zM290.6 53.5v-.1l.1.1zM289.8 54.2zM289.7 54.1v.1c-.1 0-.2-.1-.2-.3l.2.2z" fill="#e7a425"/><path d="M289.4 53.8l-.1-.3v-.2l.3.2-.2.4zM290.7 51.1l.3 2h-.1l-.4-2h.2zM290.1 51.6l.2.3-.2.3-.2-.3.2-.3zM289.6 52.2l-.3-.3.3-.3.2.3-.2.3zM289.8 52.5l-.2-.2.2-.3.3.2-.3.3zM290 52.8l-.1-.2.2-.3.2.3-.2.2zM290.4 53.1l-.2-.2c0-.1 0-.2.2-.3l.2.2-.2.3zM289.3 52.6l-.2-.3.2-.3.3.3-.3.3zM289.6 53l-.3-.3.3-.4.2.3-.2.3z" fill="#e7a425"/><path d="M289.8 53.2l-.2-.2.2-.4.3.3-.2.2v.1z" fill="#e7a425"/><path d="M290 53.1l.1-.2.2.2v.1a1 1 0 00-.4 0zM289.9 53.3zM290.3 53.3v-.1c.2 0 .2 0 .3.2l-.3-.1zM290 53.6h.1zM290.2 54l-.2-.2.2.2zM289.4 53.3l-.3-.3.2-.3.2.3-.1.3z" fill="#e7a425"/><path d="M289.6 53.5l-.2-.2c0-.1 0-.2.2-.3l.2.3-.2.2zM290 53.8c-.2 0-.3-.2-.3-.3l.1-.2.3.2v.1h-.2v.2zM290 53.9l.1.1v.1h-.2V54z" fill="#e7a425"/><path d="M289.6 53.6l.3.2-.1.3-.3-.2.1-.3zM291 52.8h.2l-.1.1zM291 52.5h.1v.2zM291 52.3h.1v.1zM291 52h.1v.2h-.1zM291 51.8h.1v.1h-.1zM291 51.6h.1l-.2.1zM290.9 51.4h.2-.2z" fill="#e7a425"/><path d="M290 51.8v.3-.2zM289.8 52.1v.3l-.2-.2zM289.5 52.5v.3l-.1-.1zM289.3 52.8v.3l-.1-.1zM289.7 52.8v.3-.1zM290.3 52.7v.3l-.1-.1zM290 52.4v.3-.1zM290.3 52.1v.3l-.1-.2zM289.8 51.4v.3l-.1-.2zM289.5 51.8v.3l-.1-.2zM289.2 52.2v.3-.2zM289.6 53.1v.3l-.1-.1zM289.6 53.7v.3-.1zM290.6 53v.2h-.1zM289.8 53.4v.3-.2z" fill="#2b2828"/><path d="M289.9 54.2h.4-.4zM290.7 53.6h-.3-.1l-.4-.4c.3 0 .5.2.8.4zM291.2 53.1l.1.1v.2l-.1-.1V53zM290.7 53.4h.2v.3l-.2-.3zM290.5 53.7l.2.3h-.3a1 1 0 01-.4-.3h.5zM291.3 53.5v.6a2 2 0 00-.2-.3 1 1 0 01-.2-.7l.4.4z" fill="#e7a425"/><path d="M290.2 54c.3 0 .7 0 1 .3h-.7l-.3-.2zM290.5 53.6c.4 0 .7.3.9.6-.4 0-.7-.3-.9-.6zM291.5 52.8l-.2.4V51h.4v2l-.2-.3z" fill="#e7a425"/><path d="M291.6 53.6l-.1.6-.2-.6.2-.6.1.6zM291.6 49v.2c0 .2.4 0 .4-.1v.5s-.2-.2-.3-.1c-.3 0 0 .4 0 .4h-.5l.2-.4c0-.2-.4.1-.4.1v-.5l.3.2c.2 0 0-.4 0-.5h.4v.2zM291.5 50c.2 0 .4.2.4.5 0 .2-.2.4-.4.4a.4.4 0 01-.4-.4c0-.3.2-.5.4-.5zM293.2 54.7zM291.7 54.6zM291.7 54.8zM292 54.6h.1zM292 54.8zM292.4 54.6zM292.4 54.8zM292.7 54.6zM292.7 54.8zM293 54.6zM293 54.8zM292 54.7h-.1-.2l.2-.1zM292.3 54.7h-.1-.1v-.1h.2zM292.5 54.6h.1v.2l-.2-.1.1-.1zM292.8 54.6h.1v.2l-.2-.1.1-.1zM293.2 54.7h-.1v-.1zM289.7 54.7h.1zM291.3 54.6zM291.2 54.8h.1zM291 54.6h-.1zM290.9 54.8h0zM290.6 54.6zM290.6 54.8zM290.3 54.6zM290.3 54.8zM290 54.6zM290 54.8zM291.1 54.6h.1v.2l-.2-.1.1-.1zM290.8 54.6v.2l-.1-.1v-.1zM290.5 54.6v.2l-.1-.1v-.1zM290.2 54.6v.2l-.1-.1v-.1zM289.9 54.6v.2l-.1-.1v-.1zM291.6 54.7h-.1-.1v-.1h.2zM291.5 54.5h-1.8c.3-.2 1 0 1.8 0s1.4-.2 1.7 0h-1.7zM291.5 55h-1.8v-.1h3.5-1.7z" fill="#e7a425"/><path d="M291.5 52.4l-.1.1h.2l-.1-.1zm0 0l.2.1-.1.1v.2H291.3v-.2-.1-.1-.2-.1-.2-.1-.2-.1-.2c0-.1 0-.2.2-.2 0 0 .2 0 .2.2l-.1.2V52.4zm0 .3h-.1v.1h.2l-.1-.1zm0-.6l-.1.1v.1h.2l-.1-.2zm0-.3l-.1.1v.2l.2-.2h-.1zm0 0v-.2h-.1v.1zm0-.6h-.2c0 .2.1.2.2.2v-.1-.1z" fill="#2b2828"/><path d="M300 101.2v.4c.4-.2 1.2-1 1.3-1.4l-.1-.2c-.2.5-.7 1.2-1.2 1.2z" fill="#e7a425"/><path d="M300 100.2v.7c.5-.1 1-.8 1-1l-.4-1c.2.2.3.2.5.2V97c.2.4.3 1.6.2 2.2h.2c.2-1.2-.1-3.1-.4-4.5-.4-1.5-.7-2.6-.9-4-.2 1.2-.2 3.1 0 4.8 0 .5 0 4-.2 4.8z" fill="#e7a425"/><path d="M300.7 89.5c-.1 1 .6 3 1 4.1.4 1.1 1 2 1.1 3.4.1 1.5-.4 2.5-1.8 2.4.3.5.7.8 1.2 1 1.2.2 2-.3 2.5-1l.2-.3c-.3-.3-.7-.2-.8 0-.5-1 0-1.5 1-1.6 0-.3 0-.6-.2-.8-.8 0-1-1-1-1.4h.4c-.2-.9-1.1-2-1.8-2.9-.6-.7-1.5-1.7-1.8-3z" fill="#e7a425"/><path d="M301.2 88.5c-.4.7 0 1.3.3 1.8.7 1 1.6 1.7 2.6 2.5.4.3 1 .6 1.2 1.1.3.7.2 1.7-.6 1.8h-.4l.4.6c.6.4 1.4-.1 1.6-.5.8.7.4 1.7-.4 1.9-.8.1-1.8 0-1.7 1 .6-.3 1 0 1.3.4 1 .8 2.2.1 2.7-.8a3 3 0 00.1-1.5c1.1.4.7 1.4 1.2 1.9 0-.8.8-1 .9-1.6.2-.9-.5-2-1.8-2 .7 0 1.2-.3 1.3-.8.2-.9-.3-1.3-.7-1.5.3.6-.5 1.6-1.6 1-.5-.2-1.3-1-2-1.4l-3-1.5a3 3 0 01-1.4-2.4z" fill="#e7a425"/><path d="M302.3 87.6c-.9 1.3-.4 2.7.4 2.7.7 0 1 0 1.4.3-.2-.6-1-.9-1.3-1-.4-.4-.7-.8-.5-2zM309.6 86.3v1a2 2 0 00-.5-.4c.2.4.2 1.1.2 1.6l.4.5.1-.4c-.2-.6-.1-1.1.2-1.5l-.4-.8zM308.3 86.4a1 1 0 00-.4-.1l.4 1.1c0 1-.2 2 .7 2.3V89a6 6 0 000-2.3l-.4-.3c.2.5.2 1 .1 1.6-.1-.7 0-1.1-.4-1.7z" fill="#e7a425"/><path d="M306.9 85.7c.6.6.8 1.4.7 2.2 0 .6-.4.8-.1 1.6 0-.5.5-.8.6-1.4.1-1.1-.5-2-1.2-2.4zM303 85.3c-.3.7-1 1.3-1.2 1.4-.4 1.3-.6 1.9-.2 2.7 0-1.2.4-1.7.9-2.2 0-.4.4-1.5.5-1.9z" fill="#e7a425"/><path d="M305.7 85.4c-.4 0-1.1 0-1.5.3 1.4-.2 2.3.5 2.4 1.5.1.8-.3 1.6-1.3 1.5 0 .1.4.3.9.3-.6.1-1 0-1.3-.3.3.7 1.6.8 2.2 0 1-1.2 0-3.2-1.4-3.3zM300 89.4v.8c.7-1.4 1.9-3 1.9-5.3-.2.9-.5 1.6-1 2.3-.2.4-.7.9-.8 1.4l-.1.8zM307.7 84.8l1 1-1.4-.7.7 1c.6.2 1.1.5 1.5.9 0-1.5-.6-2-1.8-2.2zM309.5 84.8l-.5-.1.8.5z" fill="#e7a425"/><path d="M310.5 85.2l-.8-.3c.1.1.4.5.5 1a3 3 0 00-1-1h-.4c.8.8 1.2 1.7 1.5 2.4.6-.7.5-1.4.2-2.1z" fill="#e7a425"/><path d="M310.7 84.5v.7c.3.7.4 1.6-.5 2.3l-.1-.3c-.2.2-.3.7-.2 1 .1.5.4.9.9 1-.4-.7 0-1.7.1-1.8.4-1 .8-2-.2-2.9zM300 87.3v.9a7 7 0 001.8-3.7c-1.2.3-1.7 1.3-1.8 2.8zM307.5 84.8l-.8-.3.4.4 1 .5-.6-.6zM302.7 84.4l-.2.5zM303.3 84.4h-.4l-.5 1 .1-1h-.5l-.1 2 .7-.7.7-1.3zM304.7 84.4h-.5c0 .2-.5 1-.7 1l.4-1h-.4l-.8 2.4a11 11 0 002-2.4zM305.6 84.6l-.7-.2h-.1z" fill="#e7a425"/><path d="M305.9 84a3 3 0 01-.8.3c.4.1 1 .3 1.2.6l-1.6-.3-.6 1c1.1-.7 2.6-.5 3.7.5-.3-.8-1.7-2-2-2zM307.5 83.4l.5.3.8.1-.6-.2-.7-.2z" fill="#e7a425"/><path d="M309.5 83.3l-1 .3c.5.1.8.2 1.2.6l-1.6-.3c.2 0 .5.4.7.5l1.8.6c0-.7-.4-1.3-1.1-1.7z" fill="#e7a425"/><path d="M309.9 83l-.3.3c.6.2 1 .8 1 1 .3.1.7.5.8 1 .2.5 0 1-.1 1.6 0 .5.3 1 1 1-.7 0-1-.2-1.1-.8-.2.5 0 .9.5 1 .4.2.9.2 1.1-.2-1.7-.3-.2-2.2-.8-3.5-.3-.6-1-1.2-2.1-1.3zM306.6 83l-.2.3 1.2.9-1.4-.5-.2.2c1.1.9 2.4 1 3 1a7.7 7.7 0 00-2.4-2zM306.7 80.6v.6c.2.5.6 1 .8 1.2l-.8-.8-.1 1.2.7.4c1.1.5 2.2.1 2.4-.5-.4.4-1.4.8-2.3.2a2 2 0 002-.2c-.7.1-1.8-.1-2-1.4-.2-.1-.6-.4-.7-.7zM306.7 77.5v2.7c.2.3.6.8 1 1-.4-1-.5-2.4.2-3.6l-.6.3-.2 1.8a5 5 0 010-1.8l-.4-.4zM311.3 77.3c0 .4.2 1.7.1 2.5l-.6-2.6c0 .3-.4.3-.5.5V80c.1 1 .8.8 1.2 1 .4-.2 1.1-.4 1-1 0-1-.2-1.7-.3-2.5l-.9-.3zM313.5 76.5l1 3.3c-.5-.7-1.2-2.6-1.4-3.2l-.4.6 1.1 3.8c.2.5 1 .4 1.3.6.2-.3 1-.6.7-1.2-.2-.8-1.2-3.1-1.7-3.8h-.6zM316 75.4c-.3 0-.7 0-1-.3 0 .1 1.8 2.8 2.1 3.7l-2.2-2.9-.2.6 2.2 4c.4.3.9 0 1.4.2.1-.4.5-.6.4-1.3 0-.5-2.4-3.6-2.8-4z" fill="#e7a425"/><path d="M306.6 76.5c-.1.6.3.7.6 1.2.4-.3 1.1-.4 1.2-.8l.2-2.7-.5.1-.6 2 .2-2.1-.4-.3-.7 2.6zM309.4 73.9l-.2-.3c0 .3-.2.5-.4.5l-.1 2.8c0 .5.6.5 1 .8.4-.3 1-.4 1-1l-.3-2.4-.2.2c-.1-.2-.3-.2-.4-.3l-.1 2c-.2-.7-.2-1.6-.3-2.3zM311.2 73.7l-.1.2.4 1z" fill="#e7a425"/><path d="M311.3 73.6l.4 2.1-.7-1.8-.4.3.4 2.4c.2.6.8.5 1.3.7.3-.4.8-.7.5-1.5l-1-2c-.1 0-.3 0-.5-.2zM307.2 73.7v-.3l-.5.1v1.7zM313.2 73l-.3.4c.2.5.7 1.3.8 1.8-.3-.2-1-1.3-1-1.6l-.6.2c.2.4.5 1.3 1 2.1.2.5.9.4 1.3.5.2-.5.5-.8.3-1.2-.3-.7-1.1-1.7-1.5-2.3zM314.5 72.2c-.2 0-.2.1-.3.2l1.1 1.5-1.6-1.4c-.2 0-.3 0-.4-.2v.4l1.5 2c.4.4 1 .4 1.6.4.1-.6.4-1 0-1.6l-1.9-1.3zM317.5 71.6l-2.4-.5v.4l1.8.8a8 8 0 01-1.8-.4l-.4.3c.4.1 1 .7 1.8 1 .7.3 1.5-.1 1.8-.3-.1-.5-.3-1.2-.8-1.3zM321.5 70.8l-2-.1v.1h2z" fill="#e7a425"/><path d="M326.1 70.8c-.6-.6-1.8-1-3.1-1h-4l.5.7c1.3.2 2.2 0 3.6.4-1.3.2-3.3.1-3.7.1-.1.2-.4.4-.8.5l4.5.5c1.4.2 2.4-.3 3-1.2z" fill="#e7a425"/><path d="M318.1 69.7h-2.6l-.4.3 2.1.4h-2.6c.3.1.4.3.4.5l2.6.5c1 0 1.3-.3 1.7-.7-.2-.5-.7-1-1.2-1zM317 68.5h-1.2l.1.2 1.2-.2zM321.8 68.4l-1.8.2-.1.2 1.9-.4zM308.5 68c-.5.5-1 .5-1.8.3V70c1.2.2 2.4-.7 1.8-2zM301.1 67.3v1h.3l-.3-1z" fill="#e7a425"/><path d="M319.8 68.3c-.4-.8-1.2-1-2.2-.8l-2.5.5.5.4h2.3c-.6.3-1.4.4-2 .4l-.2.6h2.6a2 2 0 001.5-1.1zM303 66.9v1.4h.4c-.2-.4-.4-.8-.5-1.4zM303.7 66.5l.5 1.8h.6c-.2-.3-1-1.2-1-1.8z" fill="#e7a425"/><path d="M326.7 67.3c-1-.5-2.7-.5-3.8-.2l-3 .7.3.4v.2s2.2-.4 3.5-.3c-1.2.4-3.9.8-4 .8-.3.4-.6.5-1 .7.3 0 3.9 0 4.7-.2 1.1-.1 3-.8 3.3-2zM302.2 66.6v1.7h.6c0-.7-.4-1.2-.6-1.7zM300.1 66.6v1.7h.7c-.1-.6-.5-1.1-.7-1.7zM321.8 66l-2 .5-.2.2 2.2-.8zM301.5 64.9s-.4 1.6-.3 2.2l.4 1.2h.4v-1.9-1c-.3.7-.3 1-.3 1.7a14 14 0 01-.2-2.2zM303.1 65.1c-.4 1.8 0 2.4.5 3.2h.5c-.3-.6-.6-2.2-.6-3.1V67c-.3-.8-.3-1.2-.4-1.9zM304.6 64.6c0 .9.5 1.8 1 2.1-.6-.2-1-1-1-1 .1.3.2.8.4 1 .7.7 1.9.5 2.1-.2-1.3.5-2.2-.6-2.5-1.9zM320 65.4a2 2 0 00-2.2-.2l-2 1-.1.4c.5 0 1.3-.3 2.1-.5-.8.6-2 .8-2.3 1a2 2 0 01-.7.7c1.2-.2 3-.4 4-.9.4-.1 1.1-.7 1.2-1.5zM316.1 64.8l-1.2.7h.2l1-.7z" fill="#e7a425"/><path d="M303.7 63.9c-.3 1.8.2 3.3 1.3 4.4h1.7-.2c-1.7-.7-2.4-2.3-2.7-4.4l.1 1.6c-.2-.5-.2-1.2-.2-1.6zM326.8 63.8a7 7 0 00-3.6.5l-2.9 1.3-.3.7c.7-.2 2.4-.9 4.3-1.3a35.4 35.4 0 01-5.3 2.3c.3 0 .4.1.7.3l3.2-.8c1.8-.5 3.7-1.6 3.9-3zM321.8 63.4l-2.6 1.3.3.1 2.3-1.4zM302.8 62.8c-.2.5-.8 2-.8 2.4 0 1 .5 1.9.8 2.5 0-1 0-2 .3-2.8l-.1-2.1-.5 2.4.3-2.4zM301.6 62.7a66.6 66.6 0 00-.2 0L301 64c-.2.6-.7 1.8-.7 2.4.1.7.4 1 .7 1.6 0-.9 0-1.7.3-2.6l.2-1 .1-1.7zM319.2 62.5c-2.4.2-3.7 2-5.2 3h.6c.3 0 1.6-1 2.6-1.4-.5.6-1.4 1-2 1.5l.6.3 2.3-1.1c.6-.7 1-1.6 1-2.3zM316 62.2l-.6.6v.3l.7-.9z" fill="#e7a425"/><path d="M314.6 70c.7 0 .9-.8 1-1.2-.1-.2-.6-.8-1.3-.7a6 6 0 00-1.3.3v-.1c1.4-.3 2.5-1 2.5-2.3-1.1-.8-2.3 0-3 1l-.2-.2c.6-1 1.5-1.3 2.2-2 .6-.8.8-2.2.5-3.4-1.4 1.8-3.7 3.3-4.3 4.8-.5 1.4 1 1.7 1.2 2.7.3 1.2-.4 2-1.8 2.5-1 .3-2.3-.1-2.7-1.1h-.7v1c.2 0 0 0 .2.2l-.2.7v.8c.2 0 .3 0 .4-.2 0 .2-.2.3-.4.4v.2l.4-.2.5-1.4c0-.1.2 0 .1 0l-.4 1.3c-.1.6.4.7.7 1 .4-.1 1 0 1.1-.6l.2-1.3h.1v1.2c0 .5.5.5.8.8.4-.3 1-.3.9-.9l-.4-1.1c0-.1.1-.2.2-.1.1.3.3 1 .5 1.2.3.6.7.2 1.3.2.1-.4.7-.7.4-1.2-.1-.2-.8-.8-.8-1 0 0 0-.1.1 0l1 .9c.4.3 1.3-.3 1.6-.4-.1-.4 0-1-.6-1.4l-1.2-.3V70h1.4zM321.3 61l-2 1.2h.2v.2c.4-.3 1.4-1 1.8-1.5zM303 60l-.8 1.2c-.5 1-.6 2.7-.5 4.9.3-2.2 1.3-3.8 1.4-4.7-.4.6-1 1.4-1.2 2.3 0-.5.8-3.1 1-3.7zM326.2 60.4a7 7 0 00-4 1.3l-3 2-.8 1h.6c.5-.3 3-1.8 4.4-2.3-1.1 1-3.2 2.2-3.7 2.4l.6.5c.8-.3 2.8-1.1 3.6-1.6 1-.8 2.4-1.8 2.3-3.3z" fill="#e7a425"/><path d="M302.8 60c-.8 1-2 2.5-2.4 3.2a8.2 8.2 0 00-.2 3c.4-2.2 1.3-4.3 2.6-6.3zM304.3 59.9c-.3.3-1 1-1.1 1.4-.2 1.3-.1 3.6.2 4.7 0-1 .1-2.8.7-3.6a6 6 0 00.6 4.1 9.7 9.7 0 010-4.8c0-.4.3-.8.5-1a5 5 0 00-1.7 1.8c.2-1 .5-1.7.8-2.6zM310.6 60.1c-.7-.4-1.3-.5-2.4-.3.8 0 2.3-.2 2.7 1.3.2-.3 0-.7-.3-1zM310.5 59.1l-1.3.1c2.3.1 2.4 1.1 3.3 1.4.7.2 1.6 0 2-.9-.6.4-1.1.4-1.8.2s-1.3-.7-2.2-.8z" fill="#e7a425"/><path d="M304.6 58.6l-1.3 1.8c.3-.7.8-1.4 1.2-1.9a9 9 0 01-1.1.9c-.4.6-.9 2-1 3 .6-1.2 1.5-2.3 2-2.7l.2-1.1zM317.8 58.7a8.4 8.4 0 01-2.4 3v1l1.4-1.5c-.3.9-1 1.8-1.4 2 0 .4-.2.7-.3 1l2-1.7c1-1 1.4-2.5.7-3.8zM320.5 57.6c-.6 1-1.8 2.2-2 2.4v.3a17 17 0 002-2.7zM304 58l-1.6 1.7c.2-.5 1.2-1.4 1.5-1.7l-1.3.6c-.3.3-1.6 2.5-2 4 1.3-2 2.5-2.8 3.4-4.6zM306.7 57.5c-.6.4-1.8 1.4-2.1 2l-.8 2.3c.4-.6 1-1.1 1.6-1.4.4-.4 1-1 1.5-1.3l.9-1c-.6.5-2 1.6-3 2 .6-.9 1.4-2 2-2.6zM306 56.9l-1 .1c-.5.4-1 1.2-1.6 2.2 1.1-.6 2.1-1.8 2.6-2.3z" fill="#e7a425"/><path d="M304.2 57c-.2.6-1.4 1.3-2.6 1.3a3 3 0 003.1-1.3h-.5zM307.9 56.2c.1.1.3.3.5.3l-.5-.3z" fill="#e7a425"/><path d="M308.9 56l-.8.2.7.3V56zM309.5 56l-.2.3-.1.3.3-.3V56z" fill="#fff"/><path d="M309.8 56h-.2c0 .4 0 .6-.5.7l.3.2c.2-.2.4-.7.4-.9z" fill="#fff"/><path d="M313.3 57.1c-.2-.5-1-1.1-2-1a12.8 12.8 0 01-4.2 3.9c.2.2.7-.3 1.1-.5.8-.5 1.9-1.2 3-1.3.7 0 1.4.2 1.8.7.4-.4.5-1.3.3-1.8zM325.2 55.9c-.9.5-4.4 4.4-7.7 6.7.4-.2 1.1-.4 1.6-.4.2-.2 2.6-2 3.8-2.6a25 25 0 01-3.4 3c0 .2 0 .4-.2.6 1.2-.7 3.3-1.8 4.8-3.2 1-1 1.7-2.6 1.1-4.1z" fill="#e7a425"/><path d="M311.1 56c.2-.4-.3-.6-.4-.4-.4 1-.9 1.8-1.4 2.3l-2 1.3c-.6.3-1.7 1-2 1.7-.5.7-.7 1.6-.7 2.5.4-1.3 1.4-3 2.6-3.7 1-.6 2-1.3 2.6-2 .4-.6 1-1.2 1.3-1.8z" fill="#e7a425"/><path d="M310.4 55.1l-6.8.1-.6-.1.7.5c1.2.6 2.7.7 4.2.5.4 0 1.3-.5 2.1-.2 0 .4-.4 1-.6 1.2l-1.5-.6c-.7-.3-1.7-.3-2.5-.2a6 6 0 01-2 0c.7.6 1.9.7 3 .4-.8.6-1.8 1.7-2 2.8.8-1 2-2 3-2.5-.8.7-1.8 2-2.1 2.8.9-.5 2.2-1.5 3-2.4-.3.6-.7 1.2-1.2 1.7.2-.1 1.1-.6 1.8-1.2.6-.5 1.4-1.6 1.7-2.5 0-.2 0-.3-.2-.3zM323 51.3c-.6 1-3.1 5.6-4.8 7.5l.3 1c1-1 2.2-3 3.5-4.3-.8 1.8-2.6 4.2-3.5 5-.1.5-.3 1.2-.7 1.6 2.3-1.8 5-5 5.7-7.2.6-2 .1-3.1-.6-3.6z" fill="#e7a425"/><path d="M304.3 66.8c.2.3.4.7.8 1l-.8-1zM308.4 68.3c-.2.2-.6.3-1 .3h.9c0 .2-.2.7-.6 1 .6-.1 1-1 .7-1.3zM312 57.6c-.2-.1 0 .2 0 .2-.3 0-.2 0-.2.1l.6.2c0-.2 0-.5-.4-.5zM316.5 55.6l.2.6c.3-.2 0-.5-.2-.6zM323 51.8c-.3.3-1.2 2.2-1.8 3.1l1.8-2.7c.9 1.3-.5 3.9-1 5.1.8-1.1 2.4-4.2 1-5.5zM325.9 60.7a8 8 0 00-3.4 1.2l3-1c-.3 1.6-1.4 2.2-2.2 2.8 1-.5 2.6-1.7 2.6-3zM325 56.3c-.4.2-2.3 2.2-2.9 2.7.8-.5 2-1.8 2.8-2.3.2 1.8-1.3 3.3-1.7 4 .9-.8 2.4-2.6 1.9-4.4zM317.8 59.2a6 6 0 01-.9 1.4l.8-.8c.2.9-.6 2.5-1.3 3 1.4-1 1.8-2.6 1.4-3.6zM318.8 62.8c-.6 0-1.8.5-2 .8.5-.3 1-.5 1.8-.6-.1.4-.6 1.3-1 1.8.7-.5 1.3-1.5 1.2-2zM326.3 64c-1-.1-2.4.3-3 .6 1-.2 1.4-.4 2.6-.4-.3.6-1.5 1.8-2.5 2.2 1.6-.5 2.8-1.7 3-2.4zM317.7 65.5c.5-.2 1-.2 1.7 0-.1.7-.8 1.2-1.2 1.4a2 2 0 001.5-1.4c-.7-.5-1.5-.3-2 0z" fill="#2b2828"/><path d="M317 66.4l-1.4.3v.2c.3 0 .9-.3 1.4-.5z" fill="#e7a425"/><path d="M313.6 66.1c.5 0 1 0 1.4.2 0 .4-.3.9-.6 1.2.5-.2.9-1 .8-1.4-.3-.2-1-.3-1.6 0zM314.8 62l-1.2 1.3c.4-.2.8-.5 1-.8.2.9-.5 2.2-.7 2.4a3 3 0 001-3zM313.7 64c-.8.4-1.9 1.6-1.9 1.6v.2h.2s1.3-1.2 1.7-1.8z" fill="#2b2828"/><path d="M312.8 64.8l-.9.9h.1s.8-.8.8-1z" fill="#e7a425"/><path d="M314 66.8c-.7.2-1.1.5-1.3.6v.2l.1.1 1.2-.9z" fill="#2b2828"/><path d="M313.3 67.2l-.5.3v.1l.5-.4zM316.8 73.8v.5l2.7 3.1-2.8-2.6v.5l2.8 3.5c.6.6 1.3.3 1.8.3 0-.6.3-1-.3-1.7l-4.2-3.6zM323.5 76.7c-.1-.6-.1-1.5-1.7-2.1l-3.4-1.4-.4.1c.4.2 2 1.2 3 2-1.2-.4-3.3-1.8-3.5-1.8h-.8c.6.4 3.7 2.7 4.6 3.2 1.4.7 1.7.2 2.2 0zM318 71.6l.4.5c.2 0 2.4.5 3.6 1-1.3 0-3.5-.6-3.6-.6v.4c1 .5 3.3 1.1 3.7 1.3.9.3 2.5.2 3-.4a3 3 0 00-2.2-1.5l-4.9-.7z" fill="#e7a425"/><path d="M323.1 70c.8 0 1.8.4 2.2.9-.3.6-1.9.9-2.7.9 1.4.1 2.7-.3 3.1-1-.6-.5-1.8-.8-2.6-.8zM323 67.4c.9 0 2-.1 2.7.2-.2.5-1.3 1.3-2.6 1.6 1 0 2.8-.8 3.1-1.7-.8-.4-2.6-.3-3.2-.1zM317.7 67.7c.8 0 1.3.2 1.6.6-.2.4-.8.8-1.2.9.6 0 1.2-.4 1.4-1-.3-.5-1.2-.7-1.8-.5zM314 68.3c.5 0 .9.3 1.1.5 0 .4-.3.8-.6 1 .5 0 .7-.5.9-1-.2-.3-.7-.7-1.4-.5z" fill="#2b2828"/><path d="M320.3 72.8l-2-.6.1.2 2 .4z" fill="#e7a425"/><path d="M322.7 72.5c.7.1 1.4.6 1.7 1.2-.7.5-1.7.4-2.3.3.7.3 2 .3 2.7-.3a2.6 2.6 0 00-2-1.2zM308 96.5c0 .6 0 2.1-1 2.7 1-.4 1.3-1.7 1.2-2.6l.8.5c-.1-.5-.5-.7-1-.6zM308.3 95.5c1.3.4 1.3 1.4 1.3 2 .4-1.1-.2-1.8-1.3-2zM308.1 94.4c-.4 0 0 .1.2.2.2 0 .3-.2.3-.2h-.5zM309.6 93.5c0 .5-.1 1-.8 1.3.6 0 1.2-.6.8-1.3zM301.7 92.2c.4 1 1.6 2.5 2 4 .2 1.4-.2 2.8-1 3.3.8-.3 1.5-1.7 1.1-3.4-.4-1.5-1.4-2.7-2.1-4zM302.9 91.4c.6.6 1.8 1.2 2.2 1.5.9.6 2.5 1.7 2.3 3.8-.2 1.7-1 1.7-1.5 1.7.7.1 1.2-.1 1.5-.6.7-1.5 0-3.6-1.6-4.8l-3-1.6z" fill="#2b2828"/><path d="M306.2 95.6c-.3.4-1.1.5-1.6.4.4.4 1.3.2 1.6-.4z" fill="#2b2828"/><path fill="#e7a425" d="M304.1 84.4h-.1l-.2.5zM306.3 83.6l.7.2-.6-.4z"/><path d="M322.2 75c.7.4.7 1 .8 1.4-.5 0-.8.4-1.4.2.8.3 1 .1 1.6 0 0-.7-.2-1.1-1-1.6z" fill="#2b2828"/><path fill="#e7a425" d="M319.4 74.4l-1.5-1h-.2zM318.2 76l-1.4-1.6v.3z"/><path d="M320.5 77.3c.6.6.5 1 .4 1.4-.5 0-1 .2-1.5-.3.6.8 1 .5 1.7.5 0-.8.2-1-.6-1.6z" fill="#2b2828"/><path fill="#e7a425" d="M316.1 77.2l-1.1-1.7v.2z"/><path d="M318.1 78.8c.4.9 0 1 0 1.4-.7-.1-1 .1-1.4-.7.3 1.1.8.8 1.4 1 .3-.8.7-.7 0-1.7z" fill="#2b2828"/><path d="M314 78.4l-.6-2a.8.8 0 01-.3-.1v.1z" fill="#e7a425"/><path d="M315.4 79.8c.2 1-.2 1-.4 1.4-.5-.3-1-.1-1.3-1 .2 1.1.8.9 1.4 1.2.4-.7.8-.5.3-1.6z" fill="#2b2828"/><path d="M311.3 78.7l-.2-1.5-.2-.3z" fill="#e7a425"/><path d="M312.3 79.6c0 1-.5.8-.8 1.1-.5-.4-1-.1-1-1-.1 1.1.5.8 1 1.2.6-.5 1-.2.8-1.3z" fill="#2b2828"/><path d="M316.3 70.3l-1.4-.2-.4.1z" fill="#e7a425"/><path d="M317.5 69.9c.8 0 1 .2 1.3.7-.3.4-1 .5-1.4.6.7 0 1.3-.1 1.6-.5-.3-.6-.8-.9-1.5-.8z" fill="#2b2828"/><path fill="#e7a425" d="M316 72l-.9-.4v.2z"/><path d="M317 71.7c.7.2.7.5.8 1-.4.2-.8.4-1.2.3.6.3 1 0 1.4-.2-.1-.7-.3-1-1-1.1zM315.9 73.4c.4.4.3.7.1 1.3-.4 0-.9 0-1.2-.4.4.7 1 .5 1.4.6.2-.8.3-1-.3-1.5z" fill="#2b2828"/><path fill="#e7a425" d="M314.7 73.1l-.7-.7h-.2zM313.2 74.4l-.4-1v.2z"/><path d="M314.3 74.9c.3.5 0 .7-.1 1-.5 0-.8 0-1-.3.2.7.6.5 1 .6.2-.5.6-.7.1-1.3zM312.6 75.8c.1.6-.2.7-.4 1-.5-.1-.9 0-1-.5 0 .7.6.6 1 .8.2-.4.8-.7.4-1.3zM310.5 76.4c0 .6-.6.6-.9.8-.4-.2-.7-.2-.7-.8-.1.9.4.7.7 1 .4-.3 1-.2.9-1z" fill="#2b2828"/><path fill="#e7a425" d="M309.7 74h-.2l.2 1.3z"/><path d="M306.8 76.3c-.3.7.2.7.5 1.1.4-.3 1-.2 1-1-.1.6-.6.6-1 .8-.3-.3-.5-.4-.5-1z" fill="#2b2828"/><path fill="#e7a425" d="M307.6 75.5l.4-1.1h-.1v-.1z"/><path d="M314 70.5c.6.2.4.6.6 1.1-.5.2-.8.6-1.3.3.5.4 1 0 1.5-.2-.2-.8 0-1-.8-1.2zM314.4 69a5 5 0 00-1.4.1l-.1.2 1.5-.3zm-.8.1l-.6.2v-.1h.6z" fill="#2b2828"/><path d="M314 71.4a10 10 0 00-1.2-.9h-.2v.3l1.4.6zm-.8-.5l-.5-.2h.1l.4.2zM312.8 72.2c.3.4-.2.6-.4 1-.4-.2-.7.2-1-.1.3.6.7 0 1.2.2 0-.4.6-.5.2-1.1zM312.1 72.6c-.2-.8-.4-1-.4-1l-.2-.1v.1s.1.5.6 1zm-.3-.6l-.3-.4h.1l.2.4zM310.2 73.1v-1H309.9l.3 1zm0-.5l-.2-.4h.1v.4zM310.9 73.1c0 .5-.5.4-.7.7-.3-.3-.7-.2-.7-.6 0 .7.4.5.7.8.2-.3.8-.2.7-.9zM308.2 73.1c.4-.7.4-1.1.4-1.1l-.1-.1h-.2v1.2zm.1-.5l.1-.6h.1l-.2.6zM309 73.3c-.1.5-.6.3-1 .4-.2-.3-.6-.3-.5-.7-.2.6.3.5.5 1 .4-.3.9 0 1-.7z" fill="#2b2828"/><path d="M306.7 71.9l.1-.4z" fill="#e7a425"/><path d="M301 52.8c.9.8 2.6 1.8 4.4 2.2 1.5.3 4.3.1 5.4 0 1.3 0 2.5-.5 3.2-1.2 1.2-1.2-.7-2.8 0-4 .6.2 1 .6 2 .7l.2.8c.3 1.4-1.1 1.6-.8 3 .2.7.7 1 .9 1.8 0 0 0 .5-.5 1 1.2 0 1.8-1 1.4-1.8-.1-.4-.5-.7-.5-1.1.5.7 1 .7 2 .4.4-.1.4.5.1 1 .6-.4.8-1 .8-1.3 0-.6-.5-1-1-.8-.2 0-.7.4-.8-.1 0-.9 1.3-.9 1-2.3-.1-.7-1-1.1-2.2-1.3l-.6-.6c-.7-1.2-1.4-1.5-1.8-1.3l-1.1.7c-.4.2-.7.3-1 .6-.5.6 0 1.7.3 2.3.2.4.7 1.3.5 1.9-.3.8-1.5 1.2-2.3 1.4-.6.1-2.6.2-3.7 0s-3.5-1.7-4.1-2.5l-.3-.3c-.8-.3-2.5-.3-2.5-.3l1 1z" fill="#2b2828"/><path d="M302.5 52.3l-.9-.3c.5.9 3 2.5 5 3-1-.4-3.5-1.7-4.1-2.7z" fill="#e7a425"/><path d="M300.6 52c.6 1.1 3 2.5 5.3 3-2.2-.8-4-2.1-4.5-3h-.8zM316.9 50.6h-.2c.1.3.2.7 0 1.1l-.2-1.1h-.2c.4 1 .2 1.7-.2 2.1-.6.8-.6 1.5-.2 2.2.2.4 1 1.3.5 2 1.1-.6.6-1.7.3-2.1-.3-.4-.3-1 0-1.2 0 .6.5 1 1 1 .4 0 1.2-.6 1.5.1 0-.7-.5-.5-1-.4-1.4.3-1.3-1.4-.8-1.9.5-.4 1.3-1 .4-1.5v.9l-.2-1h-.2c.1.2.2.6 0 1l-.1-1-.2-.1v1l-.2-1zM313.4 49.5h-.2v1c-.2-.4-.2-.7-.1-1-.8 0 0 1.7.4 2.5.1.3.4 1.3-.2 2 .3 0 .9-.7.9-1.1 0-.8-.2-1.2-.3-1.5-.3-.6-.4-1.2 0-1.8h-.3c-.1.1-.3.5-.2 1-.2-.5 0-1 0-1z" fill="#e7a425"/><path d="M313.5 49h-.9c-1.3.8.7 2.8.6 4.3-.1.9-1.2 1.2-1.8 1.5 1.4-.2 2.3-.9 2-2.2-.2-1-1.6-3-.5-3.3.8-.2 1.8.7 2.9 1 1 0 2.9.1 2.6 1.4-.1.4-.7.7-.9 1-.4.6-.1 1.5.6 1.4.9-.3 1-.2 1.2.3 0-1.5-1.4 0-1.7-.8-.2-.6.2-1 .6-1.2.2-.2.5-.6.4-1-.1-1.4-1.9-1.2-3-1.5-.6-.1-1.5-.7-2.1-.9z" fill="#e7a425"/><path d="M314.4 48l-.3.2c.4 0 .6.3.9.5-.2-.1-.8-.4-1-.3h-.2s.5 0 .9.5a2 2 0 00-1.2-.3l-.4.2c.6 0 .9.1 1.7.6.6.3 1.6.4 1.6.4l-.7-.8c-.3-.4-.8-1-1.3-1z" fill="#e7a425"/><path d="M316.7 53c-.1.4-1 .7-.4 1.7-.3-.9.5-1.2.4-1.7zM309 50.9l.1-.4-.1-.4h.1l-.2-.3v-.1l.2.3h.1v-1.3.1l-.3.2.2-.3H308l.2.2.1.2-.1-.1-.2-.2V50l.2-.2.1-.1-.3.3h.2l-.2.5.2.4v.3h-.2V51h-.5c-1.2.3-2 .9-1.4 2.2.2.4.3 1 .6 1.3v.6h3.9v-.6l.5-1.3c.6-1.3-.2-2-1.4-2.2a.5.5 0 00-.4 0v.2h-.2v-.3z" fill="#2b2828"/><path d="M308.2 53.2V53zM306.2 53.1v.4l.1-.2s0-.2-.2-.3v.1zM306 52.9h.1l.2-.2-.2-.3-.1.1v.4zM306 52.4v-.1.1zM306 52.2c.2 0 .2-.2.3-.3v-.1c-.2 0-.2.3-.3.4z" fill="#e7a425"/><path d="M306.2 51.7l.1.2.3-.4-.3.2zM306.6 51.5zM306.8 51.4l-.1.1c0 .1 0 .3.2.4l.2-.3a1 1 0 01-.2-.2h-.1zM307 51.3l.2.3.2-.3h-.4zM307.4 51.4l-.2.2.2.3zM307.5 51.9v.1zM307.6 52.1l-.2-.1-.2.2.2.3.2-.2zM307.6 52.4l-.2.2.3.2zM307.7 52.9l-.2.2.2.2zM307.7 53.5v-.1zM306.8 54.2zM306.8 54.1l-.3-.2.1.4h.1V54zM306.4 53.8c.1 0 .2-.1.2-.3l-.2-.2-.1.2.1.3zM307.7 51.1h-.2l.4 2h.1z" fill="#e7a425"/><path d="M307.2 51.6l-.3.3.2.3.3-.3-.2-.3z" fill="#e7a425"/><path d="M306.6 52.2l.3-.3-.3-.3-.2.3.2.3zM306.9 52.5l.2-.3-.2-.2-.3.3.3.2zM307.1 52.8l.3-.2-.3-.3-.2.3.2.2z" fill="#e7a425"/><path d="M307.4 53.1l.2-.3-.2-.2-.2.3.2.2zM306.3 52.6l.3-.3-.3-.3s0 .2-.2.3l.2.3zM306.6 53l.2-.4-.2-.3-.2.4.2.2z" fill="#e7a425"/><path d="M306.9 53.2c0-.2.1-.2.2-.3l-.2-.3-.3.4.3.2zM307 53.1l.3.1c0-.1 0-.2-.2-.3l-.1.2zM307 53.3h-.1zM307.4 53.3h.2v.1l-.2-.2zM307.1 53.6zM307.2 54l-.2-.2zM306.4 53.3l.2-.3-.3-.3-.1.3.2.3z" fill="#e7a425"/><path d="M306.7 53.5l.1-.2-.2-.3-.2.3.3.2z" fill="#e7a425"/><path d="M307 53.8l-.1-.2h.2l-.2-.3-.2.2.2.3zM307 53.9l-.1.2H307.1z" fill="#e7a425"/><path d="M306.7 53.6l-.2.3c.1 0 .2 0 .3.2l.1-.3-.2-.2zM308.2 52.9v-.1h-.1v.1zM308.2 52.7v-.2h-.1v.2zM308.2 52.4v-.1h-.2v.1zM308.2 52.2V52h-.2v.2zM308.2 52v-.2h-.2v.2zM308.2 51.7v-.1h-.3v.1zM308.1 51.4h-.2z" fill="#e7a425"/><path d="M307.1 51.8l-.1.1v.2l.1-.3zM306.8 52.1l-.1.1v.2l.1-.3zM306.5 52.5v0zM306.3 52.8V52.8zM306.8 52.8l-.1.2V52.8zM307.3 52.7V52.7zM307 52.4V52.4zM307.3 52.1V52.1zM306.9 51.4l-.2.1.1.2v-.3zM306.5 51.8V51.8zM306.3 52.2l-.1.1V52.2zM306.6 53.1l-.1.2h.1v-.2zM306.7 53.7l-.1.2v-.2zM307.6 53v0zM306.9 53.4l-.1.1V53.4z" fill="#2b2828"/><path d="M307.4 54.2h-.5.5zM307.7 53.6c-.2-.2-.5-.4-.8-.4l.4.4h.4zM308.2 53.1v.2h.1V53zM307.8 53.4v.2l.2.1-.1-.2-.1-.1zM307.5 53.7a1 1 0 00-.5 0l.4.3h.3l-.2-.3zM308.3 53.5l-.4-.4.2.7.3.3v-.5zM307.2 54l.3.3h.6c-.2-.2-.6-.3-.9-.2z" fill="#e7a425"/><path d="M307.5 53.6c.2.3.6.6 1 .6-.3-.3-.6-.6-1-.6zM308.9 53.2V53v.2zM310.9 53.1l-.2.2v.2l.2-.4zM311 52.9v-.5l-.3.3.2.2zM311 52.4v-.1zM311 52.2c0-.1 0-.3-.2-.4 0 .2 0 .3.2.5zM310.8 51.7l-.4-.2.3.4zM310.4 51.5zM310.2 51.4h-.1l-.2.2.3.3.1-.4zM310 51.3h-.3c0 .1 0 .2.2.3l.1-.3z" fill="#e7a425"/><path d="M309.6 51.4v.4l.2-.2s0-.2-.2-.2zM309.5 51.9v.1zM309.5 52.1v.2l.1.2.3-.3-.3-.2-.1.1zM309.4 52.4v.4l.2-.2-.2-.2zM309.3 52.9v.4l.3-.2-.2-.2zM309.4 53.5v-.1l-.1.1zM310.2 54.2zM310.3 54.1v.1c.1 0 .2-.1.2-.3l-.2.2zM310.6 53.8l.1-.3v-.2l-.3.2.2.4zM309.3 51.1l-.3 2h.1l.4-2h-.2z" fill="#e7a425"/><path d="M309.9 51.6l-.2.3.2.3.2-.3-.2-.3zM310.4 52.2l.3-.3-.3-.3-.2.3.2.3zM310.2 52.5l.2-.2-.2-.3-.3.2.3.3zM309.9 52.8l.2-.2-.2-.3-.2.3.2.2zM309.6 53.1l.2-.2c0-.1 0-.2-.2-.3l-.2.2.2.3zM310.7 52.6l.2-.3-.2-.3-.3.3.3.3zM310.4 53l.3-.3-.3-.4-.2.3.2.3z" fill="#e7a425"/><path d="M310.2 53.2l.2-.2-.2-.4-.3.3.2.2v.1z" fill="#e7a425"/><path d="M310 53.1l-.1-.2-.3.2.1.1h.4zM310.1 53.3z" fill="#e7a425"/><path d="M309.7 53.3v-.1c-.2 0-.2 0-.3.2l.3-.1zM309.9 53.6zM309.8 54l.2-.2-.2.2zM310.6 53.3l.3-.3-.2-.3-.2.3.1.3z" fill="#e7a425"/><path d="M310.3 53.5l.3-.2c0-.1 0-.2-.2-.3l-.2.3.1.2zM310 53.8c.2 0 .3-.2.3-.3l-.1-.2-.3.2v.1h.2v.2zM310 53.9l-.1.1v.1h.2V54z" fill="#e7a425"/><path d="M310.3 53.6l-.2.2.1.3.3-.2c0-.1 0-.2-.2-.3zM309 52.8h-.2l.1.1zM309 52.5h-.1v.2zM309 52.3h-.1v.1zM309 52h-.1v.2h.1zM309 51.8h-.1v.1h.1zM309 51.6h-.1l.2.1zM309.1 51.4h-.2.2z" fill="#e7a425"/><path d="M310 51.8v.3-.2zM310.2 52.1v.3l.1-.2zM310.5 52.5v.3l.1-.1zM310.7 52.8v.3l.1-.1zM310.3 52.8v.3-.1zM309.7 52.7v.3-.1zM310 52.4v.3-.1zM309.7 52.1v.3l.1-.2zM310.2 51.4v.3l.1-.2zM310.5 51.8v.3l.1-.2zM310.8 52.2v.3-.2zM310.4 53.1v.3l.1-.1zM310.4 53.7v.3-.1zM309.4 53v.2h.1zM310.2 53.4v.3-.2z" fill="#2b2828"/><path d="M310.1 54.2h-.4.4zM309.3 53.6h.4l.4-.4c-.3 0-.5.2-.8.4zM308.8 53.1l-.1.1v.2l.1-.1V53zM309.3 53.4h-.2v.3l.2-.3zM309.5 53.7l-.2.3h.3l.4-.3a1 1 0 00-.5 0zM308.7 53.5v.6l.2-.3.2-.7-.4.4z" fill="#e7a425"/><path d="M309.8 54c-.3 0-.7 0-1 .3h.7l.3-.2zM309.5 53.6c-.4 0-.7.3-.9.6.4 0 .7-.3.9-.6zM308.5 52.8l.2.4V51h-.2-.3l.2 2 .1-.3z" fill="#e7a425"/><path d="M308.4 53.6l.1.6.2-.6-.2-.6-.1.6zM308.4 49v.2c0 .2-.4 0-.4-.1v.5s.2-.2.3-.1c.3 0 0 .4 0 .4h.5l-.2-.4c0-.2.4.1.4.1v-.5l-.3.2c-.2 0 0-.4 0-.5h-.5l.2.2zM308.5 50c-.2 0-.4.2-.4.5 0 .2.2.4.4.4s.4-.2.4-.4c0-.3-.2-.5-.4-.5zM306.8 54.7zM308.3 54.6zM308.3 54.8zM308 54.6h-.1.1zM308 54.8zM307.6 54.6zM307.6 54.8zM307.3 54.6zM307.3 54.8zM307 54.6zM307 54.8zM308.2 54.6h-.2c0 .1 0 .2.2.2v-.1-.1zM307.7 54.7h.2v-.1h-.2zM307.5 54.6h-.1v.2l.2-.1-.1-.1zM307.1 54.7h.1v-.1zM306.9 54.7v-.1zM310.3 54.7h-.1zM308.8 54.6h-.1zM308.8 54.8h-.1zM309 54.6h.1zM309.1 54.8zM309.4 54.6zM309.4 54.8zM309.7 54.6zM309.7 54.8zM310 54.6zM310 54.8zM308.9 54.6h-.1l.1.2.1-.1-.1-.1zM309.1 54.7h.2v-.1h-.2zM309.6 54.6h-.1v.2l.1-.1v-.1zM309.7 54.7h.2v-.1h-.2zM310 54.7h.1v-.1zM308.5 54.8l.1-.1v-.1h-.2l.1.2zM308.5 54.5h1.8c-.3-.2-1 0-1.8 0s-1.4-.2-1.7 0h1.7zM308.5 55h1.8v-.1h-3.5 1.7z" fill="#e7a425"/><path d="M308.5 52.4l.1.1h-.2l.1-.1zm0 0l-.2.1.1.1v.2H308.7v-.2-.1-.1-.2-.1-.2-.1-.2-.1-.2c0-.1 0-.2-.2-.2 0 0-.2 0-.2.2l.1.2V52.4zm0 .3h.1v.1h-.2l.1-.1zm0-.6l.1.1v.1h-.2l.1-.2zm0-.3l.1.1v.2l-.2-.2h.1zm0 0v-.2h.1v.1zm0-.6h.2c0 .2-.1.2-.2.2v-.1-.1zM275.4 75.3v-.5h-.2c0 .3 0 .5.2.5zm.4-1l.1-.3v-.2l-.4.1v.1h.2v.2h.1zm1 .3h.2c0-.2-.1-.3-.3-.4l-.2.1h.1l.2.3zm-1 1.8l.2.2.1-.3h-.4zm14 13.9a6 6 0 001-.7v.1h.3l.3-.1c.3-.2.3-.5.4-.8h.2l.3.3V89.4c.1.2.2.2.3.1v-.1c.1-.2 0-.4.2-.5l.7.4.3.6.6 1-.2.4c-.5.4-1.3.2-1.9.2H291c-1.4 0-2.6.8-3.8 1.6l-1.2.7.2.7c.2.1.4.6.2.9v.6c.2.4 0 .7-.1.8-.2 0-.6 0-.8-.3a.6.6 0 01-.5-.4c-.6-.2-.8-.7-.5-1l-.8-.5c-.3 0-.8-.3-.8-.8-.6 0-1-.3-.8-1-.3-.1-.5-.2-.6-.6 0-.6.5-1 .7-1.4l-.1-1a.8.8 0 01-.6-.9c-.5-.4-.1-1-.2-1.2 0-.3-.3-.2-.4-.1l.1-.4c-.2-.1-.4-.5-.2-.8l-3.3-7.9c-.4-.1-.5-.3-.4-.6a.8.8 0 01-.6-.7c-.2 0-.5 0-.7-.3l-.8-.6s-.3 0-.5-.3c-.6-.6-.6-1.6-.5-1.7l.8.3.1-.3c-.2-.3 0-.6.2-.7-.1-.2 0-.4.2-.6v-.2h.2v.1c.3 0 .5 0 .5.3.3-.1.6 0 .7.3l.3.1.3-.8s.8.7 1 1.5c0 .4-.3 1-.5 1.2.1 0 .2 0 .3.2v.4c0 .2-.2.4-.4.5.2.1.3.3.3.6v.2c.2.2.4.6.1.8l3.7 7.7c.4 0 .5.5.5.8l.3.1c-.2 0-.2.3-.1.4.1.3.6.3.6 1 .4.2.4.6.3 1l.4.5c.1-.2.4-.2.6 0 .5-.5 1-.3 1.3.5.2.7 1.2 1 1.7 1 .7-.2 1.9-.6 2.5-1z" fill="#2b2828"/><path d="M276.7 77.2c0-.3.2-.5.5-.5.2 0 .5.2.5.5 0 .2-.3.5-.5.5a.5.5 0 01-.5-.5zM286 95.7c.2.2 0 .5-.1.6-.2 0-.5 0-.7-.2.3 0 .7-.2.9-.4zM284.5 94c.4 0 .9.3.5.7-.2.3-.9 0-1-.2l-.4-.2v-.1h.3v.2c0-.1 0-.2.2-.1l.1.2v-.3c.2 0 .2 0 .3-.2zM284.7 93l-.1.4-.1-.2.2-.2zM282.3 92.8h.3s-.1.3 0 .4c0-.2.2-.3.2-.2v.4c0-.2.2-.3.3-.1v.1h.3l.7-.2c.2.1.3.3.2.5 0 .3-.4.3-.7.1-.4-.3-1-.2-1.2-.4-.2-.1-.2-.4-.1-.6zM284.3 91.9l.1.3c-.1 0-.3-.1-.3-.3z" fill="#e7a425"/><path d="M284.5 91.7c.5.4 1.4 2.4 1.3 3 0 .3-.2.5-.5.6-.4.1-.7 0-.7-.2.6.1 1-.4.8-1 0-.3 0-.5-.2-.8 0 .3-.1.4-.2.5h-.4v-.2c.3-.2.3-.6.1-1 0 .3-.2.4-.3.5h-.2c.1-.3.1-.5 0-.8.2.1.4.2.6.1-.2-.1-.3-.5-.3-.7zM282.2 91.2c.4.4-.1.6-.2 1l.2-.3.2.3h-.1v.1l.2-.1.2.2h.1v-.1l.3.2c.3 0 .3-.3.6-.2 0 0 .3 0 .3.2.1.5 0 .5-.3.6-.4.1-.7-.3-1-.5-.3-.1-.5 0-.7-.2-.6-.2 0-.9.2-1.2zM284.2 89.8c0 .2-.2.3-.3.4l-.1-.3c.1-.2.3-.2.4-.1z" fill="#e7a425"/><path d="M283.1 89.4c.3.3.4.7.6 1l-.4.4c-.2.3 0 .8.3 1l-.6.3c-.3-.2-.8-1.9-.8-2.3.4 0 .7-.2 1-.4z" fill="#e7a425"/><path d="M293.3 89.5l.2.6c0 .2.4.5.5.7.2.2 0 .4-.4.5l-2.2-.1h-.5c0-.2 0-.3-.2-.4 0 .3-.1.5-.4.5 0 0 .1-.3-.1-.4 0 .3 0 .5-.4.5.1-.2 0-.3 0-.4 0 .4-.1.6-.4.6l-.2-.4c0 .2 0 .6-.3.6l-.2-.4c0 .4-.1.5-.3.6l-.1-.4c0 .3-.1.6-.4.7l-.1-.5c0 .3-.2.6-.5.9l-1.5.9-.5-1.2h1c.3 0 .6-.2.7-.4l-.8.3c-.7 0-1.1-.2-1.4-.8.3.2.7.4 1.1.2-.4 0-1-.2-1-.8.1 0 .2-.4 0-.5l-.1.5-.4-.4v.2h-.3l.4.3c.3.6-.5.9-.8.5-.2-.2-.2-.6 0-.8l.7-.8c.3-.4.7 0 .8.2.3.8.9 1.2 1.5 1.3.7 0 1.6-.2 2.4-.6.4-.1.4-.2.5 0 .1 0 0-.2 0-.2.2-.1.4-.1.4 0 .2 0 0-.2 0-.2.3-.2.4 0 .5 0 .1 0 0-.2 0-.2l.4-.2c.5 0 1-.4 1-1.1.3.4.4.5.5 1 .3-.2.4-.4.5-.7l.4.3zM281.7 89.1c.1.1.5.2.8 0 .4-.1.5-.4.5-.6.3.3 0 .7-.4.9-.3.1-.8.1-.9-.3z" fill="#e7a425"/><path d="M282 87.1c.1.4.4.5.6.7.2.4.2.9-.2 1-.4.2-.8 0-1-.4 0-.3.2-.6 0-1 .1.3.4.4.5.4 0-.1.2-.5.1-.7z" fill="#e7a425"/><path d="M281.8 87.1v.3l-.4-.1.4-.2zM277.6 78.4h.3l3.7 7.7c.1.2 0 .4-.2.5l-.5-.1zM286.2 96.3l-.1.3h-.4c.2 0 .4-.2.5-.3z" fill="#e7a425"/><path d="M280.9 86.7c0 .1.4.2.6 0 .3 0 .4-.3.4-.4.2.2 0 .5-.3.7-.2.1-.7.1-.7-.3zM285.3 93.7v.3l-.2-.1.2-.2zM283.1 94l.4.1v.2s-.4-.2-.4-.4zM284.6 95.4c0 .2.5.2.9 0 .4-.1.5-.4.5-.6.3.4 0 .7-.4 1-.3.1-1 .1-1-.4z" fill="#e7a425"/><path d="M293.5 90.7c.2 0 .2.2.1.2-.2.3-.7 0-1.5 0 .5-.1 1.4.2 1.4-.2zM291.6 90.7v0zM291.2 90.6c.1.1.1.3 0 .4v-.4zM293.1 90.1c.4.4.1.7-.2.6.3-.2.3-.3.2-.6zM282.6 88.2v.4l-.4.2.4-.6zM285.9 95.4c0 .1-.3.3-.4.2l.4-.2z" fill="#2b2828"/><path d="M277.2 78.1V78c.2 0 .4 0 .5-.2l.2.1c0 .1 0 .3-.2.4h-.5zM277.3 73.2l.2.2-.3.6.4-.5.1.2-.4.6.5-.4v.1l-.4.5.5-.3v.3l-.5.2h.4v.1h-.5l.4.1v.2h-.5l.4.1-.2.2c-.2 0-.3.1-.4.4l-.2-.1.2-.4-.2-.4h.3c.3-.3 0-.7-.1-.8zM275.4 73.7c-.4-.3 0-.4 0-.5 0 0 .3-.2.4.4zM274.1 74.7l.8.3c0 .3.2.6.6.6l.2-.2c0 .2 0 .3.2.4l.3.1v.2h-.6-.2l.1-.3-.2.4h-.2l.2-.4-.3.3-.2-.1.3-.3-.4.2-.2-.1.4-.2h-.5l-.1-.2h.6l-.7-.1V75l.5.2-.6-.3v-.2zM275.1 76.3l1 .5h-.1zM277.4 76v-.3l.3.1v.3l-.3-.1z" fill="#e7a425"/><path d="M276.8 75.7l.2.2s.3.4.7.2c0 .1-.2.3-.4.3l-.6-.2-.2.6c-.2.2-.5.2-.5 0 .4 0 .3-.6.3-.6v-.3H276.6v.1l.1-.2zM275.8 75v-.3c-.2-.2-.4-.2-.6-.1l-.2.1c-.1 0 0-.2 0-.2l.1-.2.4-.1c.2 0 .4.3.4.3s0-.3.2-.5h-.1l.4-.2h.1l.3.1c-.2 0-.2.2-.3.1-.2 0-.3.3-.3.4l.2.2z" fill="#e7a425"/><path d="M276.5 74.7c.1.1.4.3.4.6 0 .4-.2.4-.3.6l-.7-.1c-.2-.2-.2-.6-.2-.8zM275.3 74.2h-.2c-.3-.2 0-.3 0-.4 0 0 .2 0 .2.4zM276.1 73.8c-.3-.2 0-.3 0-.4 0 0 .2-.1.2.3z" fill="#e7a425"/><path d="M300 86c-.3-1-1-2-2.2-2h-2.1c-1.4 0-2.1-.7-2.1-2.3v-13h12.8v13c0 1.6-.7 2.4-2 2.4h-2.2c-1.1 0-1.9.8-2.2 1.8z" fill="#d52c27"/><path d="M305.2 81.8s0-.1-.1 0h-.2l-.7.5h.5s.2 0 .3-.2v.1l.3-.2v.2c.1 0 .2 0 .3-.2 0 .1 0 .2.2 0v.1s.2 0 .2-.2v.8h-.8l-.4.3-.7-.1c-.1 0-.2.4-.4.3l-.3-.3h-.4l-.2-.1c-.2 0-.6.9-.6 1-.2 0-.7-.3-1.3 0-.3-.3-.8-.2-1 0-.2-.6-1.5-.3-1.5-.3l.4-.3-.6-.4c-.6.3-1.5.2-1.7.2-.5-.1-1.2-.4-1.4-1-.2-.2 0-.4 0-.6 0-.2-.1-.5-.5-.6h.7l.2.4v.7c.2.2 1.2.5 1.6.3l.4-.2v-.6c.2-.3.5-.7 1.2-.7.5 0 .7.1 1 .3.3 0 .7.3.8.4l1.3.1v-.2-.4l.4-.4.3.1h.2c-.1.1 0 0 0 .2h.3l-.1.2s.2 0 .1.1c-.1.2-.3.3-.3.5h.1c.2 0 .4-.3.4-.5v-.4s-.4-.2-.2-.2l.4.2s-.2-.3 0-.3v.2h.2l.2.5.2.5c.2 0 .6 0 .8-.2.3-.1.7-.7 1-.3l.1.2-.3-.2v.4h-.1l-.1.2-.2-.1v.2z" fill="#2b2828"/><path d="M300.9 83.4l.1.2-.2-.1zM301.1 83.3h.1v.1zM302 83.3h.3-.3zM299.6 83.2l.4.3-.2-.1-.2-.1zM302.4 83.1v.1h-.1zM299.8 83.1h.1l.3.2-.4-.2zM302.1 83h0zM300.1 83l.2.1h-.2zM300.3 83l.3.1-.3-.2zM299 82.9zM302.5 82.7l-.4.2-.4.3.3.2h-.3l.3.2h-.4c0-.1 0 0-.1 0h-.2l.6-.7.6-.2zM304.7 82.8s.1 0 0 0v.2l-.1-.1v-.1zM301.8 82.8zM300.8 82.8l.2.1h-.1l-.1-.1zM299.3 82.8zM304.1 82.8h.2-.2zM297 82.8h.1zM303.5 82.7v0zM296.7 82.7v.1zM299.9 82.6v.1zM301.8 82.6l-.1.2-.4.2-.7.5h-.5l1.7-1zM297 82.5v.1zM303.7 82.5v.1zM298.5 82.5zM305.1 82.3v.1zM305 82.3v.1zM304.8 82.3v0zM296.3 82.3v.1zM305.8 82.3c-.1 0 0 0 0 0zM305.4 82.3h.2l-.3.2v-.2zM295.9 82.2v.2c-.1 0 0-.1 0-.2zM297.5 82.1v.2h-.1V82zM302 82.1v0zM300.3 82.1v.2zM301.3 82v.2zM299 82c.2 0 .3.1.5.3-.2 0-.4-.2-.5-.3zM295.3 82v.1h.2l-.2.1zM300.6 82v0zM301.6 82l.1.3zM301.1 82v.1zM303.6 81.9h.3-.3zM301.4 81.8l.1.5-.1-.5zM299.8 81.8v.3-.3zM303.3 81.8l.2.1h-.2zM299.6 81.8v0zM302.6 81.8h.4-.3v.3l-.1-.3zM300.1 81.8l-.1.5.1-.5zM300 81.8v.2c-.1 0 0-.2 0-.2zM298.2 81.8l-.2.2.2-.2zM300.7 81.7l.1.3V81.7zM304.8 81.6v.2h-.1l.1-.2zM301.7 81.6v.1zM301.4 81.6l.1.2-.1-.2zM300.9 81.6l.2.3v.1l-.2-.4zM303.7 81.6c.1 0 .2.2 0 .1v-.1zM300.4 81.6c.1 0 0 .3 0 .4v-.4zM300.5 81.5l.2.3-.2-.3zM300.2 81.3h.1v0zM305.2 81.3h.1s-.1 0 0 0zM305.4 81.1v0zM299.8 81.1l.1.1v.6c-.1-.1 0-.3 0-.4v-.3zM303.3 81h.1v.1zM303.7 81v0zM295.3 81.3c.1 0 .1 0 0 0zM299.4 80.9l.3.3v.4l-.2.4.1-.6-.2-.5zM302.2 80.8v.1zM302 80.8h.1z" fill="#e7a425"/><path d="M298.5 80.8c.3.2.3.4.4.6 0-.4 0-.3-.2-.7h.2c.2.2.2.7.2 1 .1-.2.1-.6 0-.8h.1l.1.6V81c.2 0 .2.6.1.8v-.2h-.1v.4h-.1l-.1-.2c-.1 0 0 0 0-.1h-.2v.3s-.4 0-.5.2h-.2c0-.2.3-.3.4-.3h.1c0-.1-.2-.3-.4-.3a1 1 0 00-.5.4c-.2 0 0-.4.4-.5h.4l-.3-.3-.4-.1c.2-.3.6 0 .7.1l-.4-.3.3-.1zM298.5 82.8l.1-.4.3-.2h-.3c-.1.2-.2.4-.1.6z" fill="#e7a425"/><path d="M298.1 82l.3-.1s-.2 0-.2.2l-.2.3.1-.4zM299 82.5l-.2.1.1.2v-.2-.1zM301.6 82.5h-.3V82.7l-1.7.5-.2.3h-.8l1-.5h.4c.2-.1 1.4-.5 1.6-.4zm-.5.3v-.1zM297.9 82.5v.1h.1-.1zM295 81.6l.2.2c0 .1 0 0 .1 0v.1l-.1.1c-.2 0-.1-.3-.1-.4zM298 81.4l-.2.2.1-.2zM295.2 81.4l.2.2-.2-.2zM297.8 81.2h.2l-.1.2h-.2l.1-.2zM297.5 82.1l.3.3h-.1l-.1-.1V82zM295.5 82.2h-.1v.1zM295.7 82.1l-.2.2.1.2.1-.4zM296 82.3c-.1.2.2.4.2.5l-.2-.2v-.3zM296.5 82.4v0zM296.9 82.7l.1.2-.2-.2v-.4.4zM297.3 82.2v.4l.2.3-.3-.2v-.5h.1zM295.3 81l-.1.4v-.2c0-.2-.1-.3-.4-.4.3 0 .4.1.5.3zM297.7 82.6v0zM303.6 82.8v.3h.2l.2-.4h-.1l-.2.3-.1-.1zM295.8 82.5v.1zM301.3 83l.2.2-.2-.1zM302.4 82.8l.1.1h-.1z" fill="#e7a425"/><path d="M300.5 73.3l-.1.6.4-.2v-.3l-.3-.1zm2.8 0l.1 1 .7.1h.2l-.2-.5c-.2-.2-.6-.2-.8-.6zm1.3 8.2s.2.3.2.7h-.9v-.5-.5l-.8-1.6-.1-.5c-.2-.5-.6-1-1-1.3h-.2-.3l.2.7c.3.3.6.4.5.5h-.5c0 .1-.3.1-.4 0h-.3l.2.4s.9 2 1 2.6a23 23 0 01-1.2-2.6l-.2-.4h-.2c-.2-.2 0-.5-.1-.8V78h-.3v.2c-.3.8-.7 1-.8 1 0 .3.3.7 1 1.2l.6.3c.2.2.5.5.6.8a4 4 0 01-1 0v-.4c0-.3-.2-.1-.5-.2l-.4-.5-1.1-1 .1-.5-.1-.5c-.3.4-1 .7-1.3.9-.5.4-.8 1.6-.5 2.2l.2.7h-.6-.4l.2-.9h-.4c.2-.4.5-1 .5-1.6l.2-1.3.5-.4c0-.3-.2-.6-.2-1.3v-.7c0-.2-.2-.2-.3-.2-.3.1-.2.7-.2 1 0 .7-.2 1.2-.4 1.6v-.6c0 .3-.5 1-.5 1v-.4l-.5.8V78l-.2.1.2-.8c0-.8-.1-1.4.3-2 .5-.6 1.3-.6 2 .3a3 3 0 011.3-.7l-.4-.7h.7V74c-.2-.2-.7-.5-1-.3l-.3.4-.3-.1-.1.1c-.2-.2-.4 0-.6-.1v.2l-1-.4.3-.4s-.2-.3-.4-.3l.2-.4c-.2-.1-.3-.4-.6-.4l.8-.8 1-.6v-1c0-.2 0-.2.2-.3l-.2-.5s.1-.1.2 0l.2.4h.2l.2.5v.7c.6 0 1.1.2 1.7.5l.1-.3h-.3-.2v-.1s-.1-.1 0-.2c-.4 0-.5-.3 0-.7l.5-.2c.7-.6 1.7.3 1.6 1 0 .3-.3.3-.6.3 0 .2-.2.3-.4.5l.4.5.2.7.4-.1s0 .1.1 0l.3-.3h-.3c0-.2.4-.3.4-.4l.3-.3h-.3l.7-.4-.2-.1c.3-.2.5-.2.8-.2l-.2-.4h.8l.5.1c.1.1.3.5.5.5h.2l-.2.3.8.3-.5.2.2.5.4 1.6-.1.3c-.1.1-1.1.7-1.1.3-.2 0-.3.2-.3.3.2.5.5.8.5 1.3l-.1.6 1-.3c.4 0 .6 0 .7.2.2.3 0 .6-.2 1l-.4 1.4-.5.3h-.5c0-.4.2-.8.3-1l.3.1c0-.2.1-.3.3-.3l.1-.8c0-.3-1.2.3-1.8.4 0 .5.1 1 .4 1.4v.8l.4 1c0 .2.2.6.3.5z" fill="#2b2828"/><path d="M296.4 71.2l.4-.2V72l.3.1-1.2 1h-.1l.4-.6-.4.3v.2h-.3c0-.5.8-1.1 1-1.5a8 8 0 00-.9 1l-.1-.1.4-.6-.3.4-.2.1-.2-.1s.8-.9 1.2-1.1zm1.9 1.6l.4 1s-.4-.3-.7-.3l.3-.7zm-.2-.4l.2.4-.5.8-.2.4-.4-.1zm-.1-.3v.2l-.6 1.2-.3.5-.5-.1c.1-.3.6-1.1 1-1.5l.1-.3h.3zm-.8.1h.4l-1.2 1.8h-.2l.1-.2.2-.3-.2.2-.1.2-.5-.1a8 8 0 011.5-1.6zm1 0h.4v.6zm-.5-1.4c.8 0 1.6.3 1.8.7.2.4.2.7 0 .7l-.1-.6c-.1-.2-.3-.3-.6-.4h-.9zm-.2 0l.2.5h-.3l-.1-.5z" fill="#007eba"/><path d="M301.6 71.8l.5-.3h-.4c.3-.2.7-.3 1-.3l-.5-.1s.4-.2.7-.1l-.1-.4c.7-.1 1 0 1.3.6-.1 0-.3 0-.4.2l.6-.2c0 .2-.2.3-.3.4l.4 1c0-.2.2-.2.3-.2l.5 1.5-.1.3c-.2.1-.4.3-.6.2l-.2-.3-.1-.3c-.3-.2-.6-.2-.8-.6-.1-.3 0-.5 0-.8-.2.2-.2 1.3-.1 1.8a14.4 14.4 0 01-2.4-1.3c0 .1 0 .3-.1.2.1 0 .1.2 0 .2-.3 0-.2-.4-.2-.5 0-.1.3-.2.4-.1l.1.2.3-.3h-.2l.4-.4h-.3l.5-.4h-.2zM296.7 81.8l.2.4h-.8c.2-.3.6-.4.6-.4zM304.5 81.7c.2.1.2.3.2.3h-.6l.4-.3zM300.7 81.4l.5-.2.2.3h-.7zM301.7 78.7l.4.2h-.4zM304.6 78.5l.2.2v.6h-.4l.2-.8zM300.6 78.5l.2.4c-.3 0-.2-.2-.2-.4z" fill="#fff"/><path d="M301.3 77.9v.4a.9.9 0 01-.2-.4z" fill="#d52c27"/><path d="M300.1 77.4l.3.6c-.2 0-.4-.5-.4-.6h.1zM301.1 77l.1.8h-.2V77h.1zM305.5 76.6c.2 0 .3 0 .4.2v.3l-.2.6-.4 1.2c-.1.1-.3.3-.5.3v-.5h.2c.1 0 0-.3 0-.4h.3c0-.3.2-1 0-1-.3-.2-1 .2-1.6.3l.5-.7 1.3-.3zM301 76.2l.4 1.5c.1.5.3 1 .2 1.2 0 .1-.2 0-.2 0v-.7l-.3-2z" fill="#fff"/><path d="M300.9 76.1l.2.8h-.2v-.8z" fill="#d52c27"/><path d="M303.6 76h.2v1.4c0-.6 0-1-.2-1.5zM304 75.7c.2.3.2 1 0 1.5 0-.6 0-1-.2-1.4l.2-.1z" fill="#fff"/><path d="M301.2 75.6l.5 1.1-.4.1-.2-.8.1-.4zM298.8 75.5l.2 1h.8l.3.7-1.2.3-.1-2z" fill="#d52c27"/><path d="M298.5 75h.1l.1 1.9v.7l1.3-.2c0 .3 0 .4.2.6h-.6c-.4 0-.7-.2-.9-.3 0 0 0 .5-.2.8-.4.4-.9.5-1.3.8-.3.3-.6 1.2-.6 1.7v.7c-.2 0-.3.2-.5.3 0 0 0-.4.2-.6l-.3-.1.5-1.5v-1.2c0-.2.6-.2.6-.5l-.2-.8c0-.7 0-1.5.7-1.9a3 3 0 011-.4zM295.5 75.2c.5-.5 1.3 0 1.6.5l-.2.3c0-.3-.5-.3-.6 0-.2.4 0 .8 0 1.1l-.3 1-.1-1.4v1l-.4.8v-1.1c0 .9-.3 1.1-.6 1.6 0-1 .4-1.4.3-2 0 .2 0 .7-.3 1v-.5c.2-1 0-1.6.6-2.3zM300.9 74.7c0 .2.3.8.2 1 0 .2 0 .3-.2.3l-.4-1.2c0-.1.3 0 .4 0zM304.3 74.4l.1.2h-.2l.1-.2zM298.7 74.2c0 .3-.1.5.3.7l-.2.1-.4-.3a2 2 0 01-.2-.4h.5z" fill="#fff"/><path d="M298.9 74.2l.3.8-.4-.3v-.5z" fill="#fff"/><path d="M304.9 74.1v.1c-.2.1-.2.1-.2 0h.2z" fill="#2b2828"/><path d="M300.7 73.9l.2.7-.5.1v-.6zM301.5 75.7c.1 0 1.3-.3 1.9.1.3.3.4 1 .3 1.5 0 .2-.1.3-.3.4v0c0 .4 0 .8.2 1.2l.2.4v.6l.6 1.7s-.2 0-.3.2c-.2-.1-.1-.3-.2-.7 0-.3-.5-1.2-.7-1.5l-.1-.6a3 3 0 00-.4-.7l-.5-.4-.3-.2-.1-.4v.4h-.3l-.2-.8c.1 0 .4 0 .5-.2l-.4-.8v-.2zM303.6 75.6l-1.4-.2h-1l-.2-.6c-.2-.5-.2-.9 0-1.5.5.7 1.8 1.4 2.7 1.7l.2.4-.3.2z" fill="#fff"/><path d="M303.5 75.6l-.1.2c-.3-.3-1.2-.4-2-.2l-.1-.1c.8-.2 1.8 0 2.2.1zM301 73l1.4.9 1.6.6c-.2.1-.2.3-.3.4l-1.1-.5c-.8-.4-1.6-1-1.6-1.3z" fill="#fff"/><path d="M304 72.5l.3.3-.2.1zM302 72.2l-.4.3z" fill="#2b2828"/><path d="M300.2 71.8s.4.5.1.5l-.1-.5zM304.5 71.6h.4l-.2.1-.2-.1zM304.2 71.5c.3.1.5.6.6.8h-.4l-.3-.7h.1zM299.7 76.4l-.4.1c-.3 0-.4-1-.5-1.3l.4-.2zM299.7 73.7h.3v.2h-.3v-.2zm.1-.4h.3v.3h-.4l.1-.3zm0-.4h.4v.4h-.4v-.4zm.5-.5c.4 0 .1.9 0 1.4l-.2-.1v-.3h.1V73l.2.1-.2-.2v-.2l.1-.3zm0 1.6c-.1.2-.2 0-.2 0v-.3h.2v.3zm-.5.1c0 .1.4 0 .5.3 0 .5.4 1.1.5 1.6l.1 1.9s.1.3.4.5v.5h-.3l-1-2.6v-.5s0 .3-.1.2c-.1-.3.2-.5.2-.5-.3 0-.3.4-.3.4l-.5-1.2v-.3h-.1l-.5-1.1v-1.1c.2 0 .3.1.3.3l-.1-.4h-.7l-.3-.7h.5c.4-.2.8 0 1 .3v.5h.2c.2 0 .1-.4 0-.5l-.2-.4.1-.4.4.7c.3.3.4.7.3 1.1v.2h-.3v-.3l-.1.2h-.4l-.1-.4v1.5l.1-1h.4v.4h-.2.2l-.1.3h-.3v.1h.3v.2h-.3c.3 0 .6 0 .7.2h-.3zM300.1 78.1l-.2.6a2 2 0 01-.6.6c0 .8 1.7 1.5 1.8 1.8l-.4.1v-.1c-.2-.2-.5-.1-.6-.3l-.3-.3-1.1-1 .1-.4-.1-.7.1-.5c.5.2.8.3 1.3.2zM297.3 70.4h.1l3.8 9.2z" fill="#fff"/><path d="M296.8 70.2v-.4l.4-.2h.2s-.2 0-.2.2h.3-.3l.3.1-.2.1h.2v.2c0-.2-.2 0-.2 0l-.1.3.2 1h.3l.3.5-.7.1h-.3l-.1-.4v-1.2-.3zM299.3 69.8l.5-.2c.2 0 .5 0 .6.2.5.2.7 1 .4 1.1h-.4v-.2V71l-.4.5c-.3 0-.5-.5-.5-.8h-.3.1l-.4.1v-.1-.1c-.2 0-.2-.2-.2-.3.2-.3.4-.4.6-.5z" fill="#fff"/><path d="M300 70.6h.2l-.1.1h-.2v-.1z" fill="#2b2828"/><path d="M299.9 70l.5.3h.2v.5l-.1-.4-.6-.2-.3.1.3-.2z" fill="#2b2828"/><path d="M296.9 69.1l.2.5-.2-.5z" fill="#fff"/><path d="M303.6 71.1h-.5.5zM302.3 71.9l-.2.2c.2-.2-.2 0-.3-.1z" fill="#2b2828"/><path d="M303.8 75.6l.2-.1v.1h-.1-.1zM303.5 75.8l.1-.2c.1 0 .2 0 .2.2h-.2-.1z" fill="#fff"/><path d="M299.9 71.1h.3v.1zM300.3 70.8v.2h-.2l.2-.3h.1v.1h-.1zM299.5 70.6v.1z" fill="#2b2828"/></g></svg>