<svg xmlns="http://www.w3.org/2000/svg" xmlns:xlink="http://www.w3.org/1999/xlink" id="svg2" fill-rule="evenodd" clip-rule="evenodd" image-rendering="optimizeQuality" shape-rendering="geometricPrecision" text-rendering="geometricPrecision" version="1.0" viewBox="0 0 600 400" xml:space="preserve"><defs id="defs4"><linearGradient id="id14" x1="122.3" x2="122.3" y1="169.7" y2="169.7" gradientUnits="userSpaceOnUse" href="#id9"/><linearGradient id="linearGradient2682" x1="120.5" x2="120.5" y1="120.1" y2="121.2" gradientUnits="userSpaceOnUse" xlink:href="#id4"/><linearGradient id="id1" x1="104.7" x2="105.5" y1="173.9" y2="173.9" gradientUnits="userSpaceOnUse"><stop id="stop14" offset="0" stop-color="#c38a13"/><stop id="stop16" offset=".7" stop-color="#9c711b"/><stop id="stop18" offset="1" stop-color="#ac6f1e"/></linearGradient><linearGradient id="id2" x1="80.4" x2="81.6" y1="117.9" y2="117.9" gradientUnits="userSpaceOnUse"><stop id="stop21" offset="0" stop-color="#daaf4f"/><stop id="stop23" offset=".7" stop-color="#f2ae6b"/><stop id="stop25" offset="1" stop-color="#ca9900"/></linearGradient><linearGradient id="id3" x1="80" x2="80.9" y1="117.1" y2="117.1" gradientUnits="userSpaceOnUse" href="#id2"/><linearGradient id="id4" x1="120.5" x2="120.5" y1="120.1" y2="121.2" gradientUnits="userSpaceOnUse"><stop id="stop29" offset="0" stop-color="#183573"/><stop id="stop31" offset=".1" stop-color="#183573"/><stop id="stop33" offset=".7" stop-color="#0073a6"/><stop id="stop35" offset="1" stop-color="#00427c"/></linearGradient><linearGradient id="id5" x1="112" x2="115.5" y1="174.6" y2="174.6" gradientUnits="userSpaceOnUse" href="#id0"/><linearGradient id="id6" x1="113" x2="113.8" y1="173.9" y2="173.9" gradientUnits="userSpaceOnUse" href="#id1"/><linearGradient id="id7" x1="136.9" x2="138.1" y1="117.9" y2="117.9" gradientUnits="userSpaceOnUse" href="#id2"/><linearGradient id="id8" x1="137.6" x2="138.5" y1="117.1" y2="117.1" gradientUnits="userSpaceOnUse" href="#id2"/><linearGradient id="id9" x1="122.3" x2="122.3" y1="169.7" y2="169.7" gradientUnits="userSpaceOnUse"><stop id="stop42" offset="0" stop-color="#005c8e"/><stop id="stop44" offset="0" stop-color="#005c8e"/><stop id="stop46" offset=".2" stop-color="#48b0e1"/><stop id="stop48" offset=".7" stop-color="#40b5eb"/><stop id="stop50" offset="1" stop-color="#006194"/></linearGradient><linearGradient id="id10" x1="122.3" x2="122.3" y1="169.7" y2="169.7" gradientUnits="userSpaceOnUse" href="#id9"/><linearGradient id="id11" x1="122.3" x2="122.3" y1="169.7" y2="169.7" gradientUnits="userSpaceOnUse" href="#id9"/><linearGradient id="id12" x1="122.3" x2="122.3" y1="169.7" y2="169.7" gradientUnits="userSpaceOnUse" href="#id9"/><linearGradient id="id13" x1="122.3" x2="122.3" y1="169.7" y2="169.7" gradientUnits="userSpaceOnUse" href="#id9"/><linearGradient id="id0" x1="103" x2="106.5" y1="174.6" y2="174.6" gradientUnits="userSpaceOnUse"><stop id="stop9" offset="0" stop-color="#75c5f0"/><stop id="stop11" offset="1" stop-color="#006194"/></linearGradient><linearGradient id="id15" x1="81.2" x2="81.2" y1="163" y2="163" gradientUnits="userSpaceOnUse"><stop id="stop58" offset="0" stop-color="#005c8e"/><stop id="stop60" offset="0" stop-color="#005c8e"/><stop id="stop62" offset=".2" stop-color="#48b0e1"/><stop id="stop64" offset=".5" stop-color="#42b5ea"/><stop id="stop66" offset=".5" stop-color="#40b5eb"/><stop id="stop68" offset="1" stop-color="#006194"/></linearGradient><linearGradient id="id16" x1="111.3" x2="111.3" y1="169.9" y2="169.9" gradientUnits="userSpaceOnUse"><stop id="stop71" offset="0" stop-color="#439cd5"/><stop id="stop73" offset="1" stop-color="#004873"/></linearGradient><linearGradient id="id17" x1="122.3" x2="122.3" y1="169.7" y2="169.7" gradientUnits="userSpaceOnUse" href="#id9"/><linearGradient id="id18" x1="81.2" x2="81.2" y1="162.9" y2="162.9" gradientUnits="userSpaceOnUse" href="#id15"/><linearGradient id="id19" x1="107.2" x2="107.2" y1="169.9" y2="169.9" gradientUnits="userSpaceOnUse" href="#id16"/><linearGradient id="id20" x1="137.3" x2="137.3" y1="162.9" y2="162.9" gradientUnits="userSpaceOnUse" href="#id15"/><linearGradient id="id21" x1="137.3" x2="137.3" y1="163" y2="163" gradientUnits="userSpaceOnUse" href="#id15"/><linearGradient id="id22" x1="122.3" x2="122.3" y1="169.7" y2="169.7" gradientUnits="userSpaceOnUse" href="#id9"/><linearGradient id="id23" x1="123.6" x2="123.6" y1="170.7" y2="170.7" gradientUnits="userSpaceOnUse" href="#id9"/><linearGradient id="id24" x1="94.9" x2="94.9" y1="170.7" y2="170.7" gradientUnits="userSpaceOnUse" href="#id9"/><linearGradient id="linearGradient2676" x1="120.5" x2="120.5" y1="120.1" y2="121.2" gradientUnits="userSpaceOnUse" xlink:href="#id4"/><linearGradient id="linearGradient2678" x1="111.3" x2="111.3" y1="169.9" y2="169.9" gradientUnits="userSpaceOnUse" xlink:href="#id16"/><linearGradient id="linearGradient2680" x1="111.3" x2="111.3" y1="169.9" y2="169.9" gradientUnits="userSpaceOnUse" xlink:href="#id16"/><style id="style6" type="text/css">.str0{stroke:#1f1a17;stroke-width:.0762}.fil11{fill:#007cc3}.fil7{fill:#605d5c}.fil3{fill:#75c5f0}.fil4{fill:#8f5444}.fil0{fill:#da251d}.fil6{fill:#db214c}.fil5{fill:#f8c300}.fil14{fill:#87c3dd}.fil8{fill:#fbfdfd}.fil10{fill:url(#id4)}</style></defs><path id="rect2278" fill="#fff" fill-opacity="1" stroke="none" stroke-dasharray="none" stroke-linecap="square" stroke-linejoin="round" stroke-miterlimit="4" stroke-opacity="1" stroke-width=".3" d="M0 0h600v400H0z" opacity="1"/><g id="Слой_x0020_1" fill-rule="evenodd" transform="matrix(3.20776 0 0 3.20977 -49.3 -250)"><g id="_127852504"><path id="_129505848" fill="#da251d" stroke="none" stroke-width=".1" d="M15.4 77.9h186.8v41.5H15.4z" class="fil0 str0" transform="matrix(1.0004 0 0 1 .1 0)"/><path id="_129505848-0" fill="#0093dd" fill-opacity="1" fill-rule="evenodd" stroke="none" stroke-width=".1" d="M15.4 77.9h186.8v41.5H15.4z" class="fil0 str0" clip-rule="evenodd" image-rendering="optimizeQuality" shape-rendering="geometricPrecision" text-rendering="geometricPrecision" transform="matrix(1.0004 0 0 -1 .1 280.5)"/><g id="g89"><path id="_129491712" fill="#75c5f0" d="M122 120.3h-.1z" class="fil3"/><path id="_129485784" fill="#8f5444" d="M121.7 107.1s0-.4-1-.6l-.5-.7-1.7-.7s-.3-.4-1.5-.8l-2.6-.6s-1.3-.6-2.8.8c.1.2.1.4-.2.4-.4.7-1.2 1.1-2 1.1-1 0-1.8-.5-2.2-1.2-1.6-1.8-3.1-1-3.1-1l-2.6.4c-1.2.5-1.5 1-1.5 1l-1.7.6-.5.6c-1 .3-1 .7-1 .7-3 2.3-2.2 4.2-2.2 4.2.4 1.5 1 2.1 1 2.1-.4 0-.6.3-.6.3.5.6 1 .8 1 .8.4 1.1 1.1 1.3 1.1 1.3.5 1.2 1.8 1.3 1.8 1.3 0 .6.4 1 .4 1 .1 1.2.4 1.8.4 1.8.5.7.5 1.1.5 1.1.4.5.4.3.4.3 6.2-1.6 8.4-1.4 8.6-1.4 0 0 2-.3 8.7 1.4 0 0 0 .2.4-.3 0 0 0-.4.5-1.1l.4-1.9s.3-.3.3-.9c0 0 1.4-.1 1.9-1.3 0 0 .6-.2 1-1.3 0 0 .6-.1 1-.8 0 0 0-.2-.5-.3 0 0 .4-.1.9-1.6 0 0 1.2-2-2.1-4.7zm-10.3-2.2z" class="fil4"/><path id="_129484240" fill="#f8c300" d="M102.7 109.9c-.3 0-1 0-2-.3l.6 1.5h.6c-.1.5-.3 1-.7 1.5h.4c.5-.4.6-.9.6-.9l.4.2-.6 1s.2 0 .2.2c.1-.1.7-.6 1-1.5l-.8-.4h1a11 11 0 01-.7-1.3z" class="fil5"/><path id="_129483576" fill="#f8c300" d="M100.3 105.5l1.7.6.3-1.6a6 6 0 00-2 1z" class="fil5"/><path id="_129482888" fill="#f8c300" d="M102 106.4l-1.8-.6.1 1.8 1.8.4a8 8 0 01-.1-1.6z" class="fil5"/><path id="_129482504" fill="#f8c300" d="M98.8 110.4l.4.2a14.7 14.7 0 001.7.3l-.5-1.4-2.2-.7.6 1.6z" class="fil5"/><path id="_129481784" fill="#f8c300" d="M96 109c.8.6 1.6 1 2.4 1.3l-.6-1.7-1.5-.8-.6.7.3.5z" class="fil5"/><path id="_129481096" fill="#f8c300" d="M97.7 112.8l.4.6h.3v-.4l-.7-.2z" class="fil5"/><path id="_129480408" fill="#f8c300" d="M100.4 108l.3 1.2 1.8.4-.3-1.2-1.8-.5z" class="fil5"/><path id="_129479744" fill="#f8c300" d="M97.7 108.2l-.2-1.3-.8.8 1 .5z" class="fil5"/><path id="_129478920" fill="#f8c300" d="M97 112c-.5-.7-1-1.7-1.3-2.8l-.4-.2c-.4.6-.4 1.2-.5 1.4a8 8 0 002.1 1.7z" class="fil5"/><path id="_129478232" fill="#f8c300" d="M98.1 108.4c.8.3 1.5.6 2.2.7l-.3-1.3c-.8-.3-1.6-.6-2.1-1 0 .5 0 1 .2 1.6z" class="fil5"/><path id="_129477512" fill="#f8c300" d="M100 107.4l-.1-1.8c-1.3.2-1.8 1-1.8 1l1.9.8z" class="fil5"/><path id="_129476792" fill="#f8c300" d="M98.4 112.7c0-.8.4-1 .6-1l-.4-1-2.4-1.2c.3 1 .8 2 1.2 2.8l1 .4z" class="fil5"/><path id="_129476072" fill="#f8c300" d="M115.7 109.9c.3 0 1 0 2-.3l-.6 1.5-2 .2.6-1.4z" class="fil5"/><path id="_129475408" fill="#f8c300" d="M118.1 105.5l-1.7.6-.3-1.6a6 6 0 012 1z" class="fil5"/><path id="_129474720" fill="#f8c300" d="M116.4 106.4l1.8-.6-.1 1.8-1.8.4.1-1.6z" class="fil5"/><path id="_129474336" fill="#f8c300" d="M119.6 110.4l-.4.2a14.7 14.7 0 01-1.7.3l.5-1.4 2.2-.7-.6 1.6z" class="fil5"/><path id="_129473616" fill="#f8c300" d="M122.6 109l-2.6 1.3.6-1.7 1.3-.6c.6 0 .4.4.6.6.2.2.1.2 0 .4z" class="fil5"/><path id="_129472928" fill="#f8c300" d="M120.7 112.8l-.4.6a2 2 0 01-.3 0v-.4l.7-.2z" class="fil5"/><path id="_129472104" fill="#f8c300" d="M118 108l-.3 1.2-1.8.4.3-1.2 1.8-.5z" class="fil5"/><path id="_129471720" fill="#f8c300" d="M123 111.5l.7-.6c-.3 2.1-1.2 2.3-1.2 2.3.4-1 .4-1.5.4-1.7z" class="fil5"/><path id="_129471032" fill="#f8c300" d="M121.2 112.6l1.6-1a4 4 0 01-1.3 1.6 4 4 0 01-.8.2l.5-.8z" class="fil5"/><path id="_129470648" fill="#f8c300" d="M120.7 108.2l.2-1.3.8.8-1 .5z" class="fil5"/><path id="_129469960" fill="#f8c300" d="M121.5 112c.4-.7.9-1.7 1.2-2.8l.2-.1c.7.3.6 1.1.7 1.3a8 8 0 01-2.1 1.7z" class="fil5"/><path id="_129468984" fill="#f8c300" d="M120.3 108.4c-.8.3-1.5.6-2.2.7l.3-1.3c.8-.3 1.6-.6 2.1-1 0 .5 0 1-.2 1.6z" class="fil5"/><path id="_129468600" fill="#f8c300" d="M118.4 107.4l.1-1.8c1.3.2 1.8 1 1.8 1l-1.9.8z" class="fil5"/><path id="_129468216" fill="#f8c300" d="M120 112.7c0-.8-.4-1-.6-1l.4-1c.8-.3 1.7-.7 2.5-1.2l-1.3 2.8-1 .4z" class="fil5"/><path id="_129466200" fill="#f8c300" d="M100.4 111.3c-.3 0-.6.2-.9.4.3.3.6.7.8 1.2l.2-.1s-.1-.6-.5-1c0 0 .2-.2.6-.1l.3.9h.3c0-.2 0-.7-.3-1.5l-.5.2z" class="fil5"/><path id="_129464984" fill="#f8c300" d="M104.1 113c-.4.2-1.2.4-1.9.1l.2.4h1.1c.1.3 0 .4 0 .4h-1l-.1.2a3 3 0 001.6.1c.2-.4.2-.8.1-1.2z" class="fil5"/><path id="_129464048" fill="#f8c300" d="M100 114.1a3 3 0 01-1.3.6l.8.8c.8-.3 1-.6 1.2-.8-.1 0-.2 0-.3-.2l-.6.5-.2-.2s.4-.2.6-.5l-.1-.2z" class="fil5"/><path id="_129463664" fill="#f8c300" d="M100 113.9a1 1 0 010-.3h-1c.2-.3 0-.6 0-.6l1 .3.2-.3c-.3 0-.9-.1-1.5-.4-.2.3-.3.7-.3 1.2.6.1 1.2.1 1.6 0z" class="fil5"/><path id="_129462544" fill="#f8c300" d="M96.5 114.3v-.8l.9.6c-.2.8-.5 1.2-.5 1.2a3 3 0 000-1.3l-.4.3z" class="fil5"/><path id="_129461808" fill="#f8c300" d="M97.2 115.4c.7-.5 1-.5 1-.5l.3 1h-1c.5-.2.6-.5.6-.5h-1z" class="fil5"/><path id="_129461424" fill="#f8c300" d="M100.5 113c-.7 1.1.6 1.5.6 1.5l-.6-1.4z" class="fil5"/><path id="_129461040" fill="#f8c300" d="M101.1 112.7c.7.5.8 1.2.8 1.2.5-.5-.2-1-.2-1l-.6-.2z" class="fil5"/><path id="_129460328" fill="#f8c300" d="M100.8 112.8c0 .6.4 1.2.4 1.2.3.3.5.3.5.3l-.6-1.5h-.3z" class="fil5"/><path id="_129459944" fill="#f8c300" d="M121.3 114.3c.2-.6 0-.8 0-.8l-.8.6c.2.8.5 1.2.5 1.2V114l.3.3z" class="fil5"/><path id="_129458888" fill="#f8c300" d="M120.7 115.4c-.7-.5-1-.5-1-.5l-.3 1h1c-.5-.2-.6-.5-.6-.5h1z" class="fil5"/><path id="_129457856" fill="#f8c300" d="M117.4 113c.7 1.1-.6 1.5-.6 1.5l.6-1.4z" class="fil5"/><path id="_129457472" fill="#f8c300" d="M116.8 112.7c-.7.5-.8 1.2-.8 1.2-.5-.5.2-1 .2-1l.6-.2z" class="fil5"/><path id="_129456464" fill="#f8c300" d="M117.1 112.8c0 .6-.4 1.2-.4 1.2-.3.3-.5.3-.5.3l.6-1.5h.3z" class="fil5"/><path id="_129455744" fill="#db214c" d="M104.9 103.8c-2.8 3.2 1.7 8.8 1.7 8.8l1.4-.2V106c-.6-.3-.7-.7-.7-.7a4.4 4.4 0 00-2.4-1.5z" class="fil6"/><path id="_129455360" fill="#db214c" d="M113.6 103.8c2.8 3.2-1.7 8.8-1.7 8.8l-1.4-.2V106c.6-.3.7-.7.7-.7.8-1.2 2.4-1.5 2.4-1.5z" class="fil6"/><path id="_129452344" fill="#f8c300" d="M116.4 114.7c-.1 0-.3 0-.4-.2 0 0-3 1-5.5-.8.3 0 .9.3 1.3.5 0 0 .6-.5.5-1.3 0 0-.6 0-1.7-.3l1.6-.8s0-.8-.8-1.2c0 0-.4.5-1.4 1V110s-.6-.4-1.4 0c0 0 .2.6.2 1.7l-1.6-1s-.7.2-.8 1c0 0 .7.2 1.6.8l-1.8.6s0 .7.6 1.3l1.4-.8c-.6.6-3 2.3-6.1.8 0 0 0 .2-.3.3a6.6 6.6 0 007.3-.8h-.3c-.4-.3-.7-.7-.7-1.1 0-.7.6-1.2 1.2-1.2.7 0 1.3.5 1.3 1.2 0 .5-.4 1-1 1a5.9 5.9 0 006.8 1z" class="fil5"/><path id="_129451152" fill="#8f5444" d="M109.5 111.5c.3 0 .5.2.7.3l1-.6c.3.2.3.5.3.5l-1 .5a1 1 0 010 .6l1 .2c.2.4-.1.5-.1.5l-1-.3c-.1.4-.6.6-1 .6-.6 0-1-.3-1.2-.7l-1 .4c-.3-.1-.2-.5-.2-.5.5 0 1-.3 1.1-.3 0-.2 0-.4.2-.6l-1.1-.5c0-.4.3-.5.3-.5l1 .7.6-.2v-1.2c.3-.3.5 0 .5 0v1.1h-.1z" class="fil4"/><path id="_129450512" fill="#f8c300" d="M108.9 113.6v-1.8c-1 1.2 0 1.8 0 1.8z" class="fil5"/><path id="_129450128" fill="#f8c300" d="M109.8 111.8v1.8s1-.7 0-1.8z" class="fil5"/><path id="_129449264" fill="#f8c300" d="M109.4 113.7c.6-1 0-2 0-2-.6 1 0 2 0 2z" class="fil5"/><path id="_129447984" fill="#f8c300" d="M101.5 114.8l-.6-.1s-1.3 2.3-2.9 1.7l.4.3c2-.2 2.8-1.4 3-2z" class="fil5"/><path id="_129447280" fill="#f8c300" d="M117 114.7h-.4c1.1 2.3 3.2 2 3.2 2l.2-.2s-1.9-.2-3-1.8z" class="fil5"/><path id="_129446896" fill="none" stroke="#b07d36" stroke-linecap="round" stroke-linejoin="round" stroke-width=".6" d="M108.9 98.4h0"/><path id="_129446208" fill="#8f5444" d="M109.5 99.3c.3-.3.3-1 .3-1h-1c0 .6.3 1 .3 1h.4z" class="fil4"/><path id="_129445520" fill="#8f5444" d="M109 99.5c-.4-.2-1-.2-1-.2-.3.4-.1.8-.1.8.6 0 1-.2 1-.2v-.4z" class="fil4"/><path id="_129444648" fill="#8f5444" d="M109.1 100c-.2.4-.2 1-.2 1 .4.2.9 0 .9 0 0-.6-.3-1-.3-1h-.4z" class="fil4"/><path id="_129444264" fill="#8f5444" d="M110.7 99.3c-.6 0-1 .2-1 .2v.4c.4.2 1 .2 1 .2.3-.4 0-.8 0-.8z" class="fil4"/><path id="_129443176" fill="#8f5444" d="M109.2 99.4c-.1 0-.2 0-.2.2v.2l.2.2h.2l.2-.2v-.2c0-.1 0-.2-.2-.2z" class="fil4"/><path id="_129442376" fill="#f8c300" d="M100.7 117.6l.7-.2c.1 0 .2 0 .2-.2v-.6l-.3-.2-.7.2-.2.2v.7c0 .1.2.2.3.1z" class="fil5"/><path id="_129441576" fill="#f8c300" d="M99.4 118l.7-.2.2-.2v-.7l-.2-.1-.7.2-.2.2v.7l.2.1z" class="fil5"/><path id="_129441056" fill="#8f5444" d="M109.3 101.1c1.3 0 2.5 1.1 2.5 2.5 0 1.3-1.2 2.4-2.5 2.4-1.4 0-2.5-1-2.5-2.4s1-2.5 2.5-2.5z" class="fil4"/><path id="_129440344" fill="#f8c300" d="M109.3 101.6a2 2 0 110 4 2 2 0 010-4z" class="fil5"/><path id="_129411904" fill="#75c5f0" d="M128.2 156.8v-35.7H90.4V158c.3 5.8 7 6.5 7 6.5 6.3.2 9.1 0 9.1 0 2.6 0 2.8 2.6 2.8 2.8 0-.2.2-2.8 2.8-2.8 0 0 2.8.2 9 0 0 0 6.8-.7 7.1-6.5v-1.1z" class="fil3"/><path id="_129411536" fill="#605d5c" d="M123.7 158.3l-.1.2-.9 1.7c-1-.2-.5-.5-.2-1l.4-.8.4-.4v-.2l-.1-.6-1.1-3.6c0-.2-.2-.8-.4-1-.2-.3-.6-.5-1-.7l-.3-.4-1.3-.8-1.4-1.2-.8-.4-.1-.2-1-.7-.3-.4c-.7-.7-1.4-1.4-2-2.3h-.1l-.1 1a9 9 0 01-2.1.8h-.2l-.2.1h-.4l-.7.1h-1.1c-.2.1-.6.2-.9 0-.1 0-.2-.6-.6-.7l-.4 2.5c-.2.9-.6 2.5-.4 3.5v1.8c0 1 .7 4 .3 4.7l-.5.8-.3.8s-.3.2-.5.1c-.2 0 .3-1 .4-1.1l.5-1.2v-1l-.4-3.2c0-.3-.4-.7-.4-1-.2-.7 0-1.3-.2-2l-1-2.8c-.2-.5-.4-.9-.4-1.7v-.1c-.1-.1-.3.2-.4.2-.3.1-.4-.3-.7-.1-.3 0-.1.2-.6.1 0 .2.1.3.3.4-.2 0-.3-.2-.5-.4v-.4l-.2-1-.3-2 .3-.2-.4-1.7v-1c0-.3.3-.7.4-1a7 7 0 00.5-2v-2.1c1-.2 1.2-.6 1.4-1.6-.6.2-.5.4-.8.7-.6.4-1.3.3-2 .7l-.5.5-.5.1c.5-.3.7-.8 1-1.2-.7-.1-1 .4-1.5.5a1 1 0 01-.7 0c-.3-.2.5-.8.7-1v-.1h-.7l1.3-1.6c.6-1 .1-1.2 1.2-1.8l.3-.3h1c-.1.2 0 .3.3.3.5 0 .9 0 1 .5 1.1-.9 2-2.3 3.3-2.8v.5c-.1 1-.4 1.4-1.2 1.8-.6.3-1.3.5-1.9 1 .3.1.5.6.7.9.9 1.5.5 4 1 5.8.1.6.1 1 .4 1.5 1.5-.1 2.8.6 4.2.7 1.1.1 2 0 3-.3.3 0 .7-.3 1.3-.2.4 0 .7.2 1 .4h.1c1.4 1 2.5 2 3.2 3.7l.1.4.2 2v.6c.2 0 0 .2.1.2v.3l.1.3.1.2v.3c.4.8 1.2 1.5 2 2 .2.1.5.1.7.3.2 0 .1.4.2.6l.7 3.1v.6c.3.7.9 2 .7 3zM103 147.9l.6.4c0 1-.5 2-.8 2.7l-.3.6-.2 1c0 .3-.4.7-.5 1v.3l-.8 2.8c0 .2 0 .7-.2 1h-.2l-.2.4-1 1-.6-.1s0-.1 0 0c.4-.6 1.2-1.2 1.4-1.7v-.2h.1v-.3l.1-.2.1-.3v-.2s.1 0 0 0c.3-.8.6-1.8.7-2.8v-.6.2l.5-.4v-.8s.3-.2.4-.9zm-1.6 3.8zm4.2 2.2l-.1-.4c-.2-.7 0-1.3-.2-2l-1-2.8c-.2-.5-.4-.9-.4-1.7v-.2s-.4-.8-.5-1.4c0 0 0-.8.4-1.7l-.7.7s.6-2 2.1-2c0 0 0-.5-.4-.9 0 0-.5.3-1 1.1 0 0 0-1.6 1.2-1.6l-.2-.6-.8.7s-.3-.5-.2-1.5c0 0 .2-.8.2-2 0 0-.2-.8 0-1.7 0 0 .7-1 .8-1.8.1.2.2.4.1.6v.6s.2 0 .2-.2v.6c0 .2-.2.4 0 .6v1.2s0 .1.2 0v.2s0 .5-.3.6c0 0-.1.4.5.3 0 0 0 .4-.4.5l.4.3-.4.5h.6s0 .2-.3.4l.2.3s1.7-.2 3.5.2c0 0 2.8.7 5.3-.4l.4.1v.2h.5v.1l.1.2h.2v.2h.4v.4c.2 0 .4 0 .5.2v.2h-.2v.1l.4.1.5.4c.1 0 .2.2.1.3h-.2c-.1.1.1.2.2.3v.2l.3.2-.1.2c0 .2.2.2.3.4.1.1-.1.2-.2.3l.2.3v.1c-.1 0-.3.1-.2.3 0 .1.3.1.3.3v.3h-.2v.3l.3.2c.1 0 0 .3 0 .4 0 0-.3 0-.2.2l.3.2h.1c0 .3-.2.3-.3.3v.2s0 .2.4.3l-.2.4s.2.1.4 0c0 0 0 .3-.3.5 0 0 0 .3.6.6 0 0-.5 0-1.6-.7 0 0-2-1.2-3.4-3.4l-.7-.8v.4s0 .1-.2 0l-.1.7s-.2.1-.4 0v.2s-.2 0-.4-.3v.9s-1-1.6-2.1-2l-.3.2-.1-.4s0 .3-.3.5c-.1.1 0 0 0 0s-.3-.8-.8-1.3c0 0 0 .4-.3.7l-.3-1-.2.6-.5-.8c.1.2.6 1.1-.3 2 0 0 .2.1.7-.1 0 0 0 .2-.5.5 0 0 0 .2.5.2 0 0 0 .2-.5.5l.6.1-.7.7s-.1 1-1 1.8c0 0 .5 1.2 0 2.7l-.1 1 .1 1-.3.6z" class="fil7"/><path id="_129411368" fill="#fbfdfd" d="M100.9 134.6h.6v-.4l.4-.1v-.3c.4 0 .3-.2.3-.2 1-.5.8-1.4.8-1.4-.2-.7-1.2-.8-1.2-.8l.9-.2c-.3 0-.5-.2-.5-.2h1l-.5-.1c-.3 0-.4 0-.3-.3h-1l-.3.3c-1 .6-.6.8-1.2 1.8-.3.4-1 1-1.3 1.6h.7v.2c-.2.1-1 .7-.7.9h.7c.6 0 .8-.6 1.5-.5h.3a.6.6 0 01-.2-.3zm-1.6 1zm0 0zm0 0zm0 0zm.3-.2zm0 0h.1zm.1 0zm0 0zm0 0zm0 0h.1zm.1 0zm0 0zm0 0zm0 0zm0 0v-.1zm0-.1zm.1 0zm0 0zm0 0zm0 0zm0 0zm0 0zm.1 0z" class="fil8"/><path id="_129410712" fill="#fbfdfd" d="M101.8 140.1v.2s-.1 1.6.5 2.5c0 0 0-.3.5-1 0 0-.8-.8-1-1.7z" class="fil8"/><path id="_129416144" fill="#fbfdfd" d="M101.9 147l-.3.6v.8l-.1 1v1.4l-.2.9s-.3.3-.2 1.2l.5-.4v-.8s.3-.2.4-.9l1-3s-.4 0-1.1-.7z" class="fil8"/><path id="_129415760" fill="#fbfdfd" d="M98.6 159l.6.2.6-1.5c-.7.6-1.2 1.3-1.2 1.3z" class="fil8"/><path id="_129415376" fill="#fbfdfd" d="M105.8 159.3l-.7 1.8h.7s-.2-1.1 0-1.8z" class="fil8"/><path id="_129414992" fill="#fbfdfd" d="M122.1 160l.5.3c0-1.1.5-2.2.5-2.2-.7 1-1 2-1 2z" class="fil8"/><path id="_129426840" fill="#605d5c" d="M119.6 143v.2c.2 0 0 0 0 0-.4.2-.7-.8-1-1 .5 0 .8.3 1 .8z" class="fil7"/><path id="_129427296" fill="#fbfdfd" d="M118.1 148.8c.3-.2.3-.4.3-.4l-.4-.1.2-.4c-.5-.1-.5-.3-.5-.3v-.2c.2 0 .5 0 .4-.2l-.1-.1c-.1-.1-.3 0-.3-.2-.1-.1.1-.1.2-.2 0-.1.1-.4 0-.4l-.3-.2v-.3h.2v-.3c0-.2-.2-.2-.3-.3 0-.2 0-.2.2-.3 0-.2-.3-.3-.2-.4 0-.1.3-.2.2-.3 0-.2-.2-.2-.3-.3v-.1s.2-.1.1-.2c0 0-.2 0-.3-.2v-.2c0-.1-.3-.2-.2-.3h.2v-.3l-.6-.4h-.4v-.1l.2-.1v-.2c0-.2-.3-.2-.5-.2v-.3l-.4-.1v-.2h-.2l-.2-.2c-.1-.1-.3 0-.4 0v-.3c-.1 0-.3-.1-.4 0-2.5 1-5.3.3-5.3.3-1.8-.4-3.5-.2-3.5-.2l-.2-.3c.3-.2.3-.5.3-.5h-.6c.2 0 .4-.4.4-.4l-.4-.3c.3-.1.4-.5.4-.5-.6.1-.5-.3-.5-.3.4-.1.3-.6.3-.6v-.1l-.2-.1v-1.2c-.2-.2 0-.4 0-.6v-.6c0 .2-.1.2-.3.2v-.3l.1-.3v-.6c-.2.9-.8 1.8-.8 1.8-.3.9-.1 1.6-.1 1.6 0 1.3-.2 2-.2 2 0 1.1.2 1.6.2 1.6l.8-.8.2.7c-1.2 0-1.3 1.6-1.3 1.6.6-.8 1.1-1 1.1-1 .4.3.4.9.4.9-1.5-.1-2.1 2-2.1 2l.7-.8c-.5.9-.4 1.7-.4 1.7 0 .6.6 1.4.6 1.4-.2.7 0 1 0 1l.1 1 .3 1 .5 1.1.3 1.9.1.6.3.6.3-.7-.1-1 .1-1c.5-1.5 0-2.7 0-2.7.9-.7 1-1.8 1-1.8l.7-.7h-.6c.5-.4.5-.6.5-.6-.5 0-.5-.2-.5-.2.5-.3.5-.5.5-.5l-.7.2c1-1 .4-1.9.3-2l.5.7c0-.4.2-.5.2-.5l.3 1c.3-.4.3-.8.3-.8.5.5.8 1.3.8 1.3s-.1.1 0 0l.3-.5.1.4.3-.2c1 .4 2.1 2 2.1 2v-.9l.3.3.1-.2c.2.1.4 0 .4 0l.1-.6h.3c-.2-.4-.1-.5-.1-.5l.7.8c1.4 2.2 3.4 3.4 3.4 3.4 1 .7 1.6.7 1.6.7-.5-.3-.6-.6-.6-.6z" class="fil8"/><path id="_129413616" fill="#f8c300" d="M118.3 118l.6.3.2-.1v-.7l-.1-.2-.6-.3-.2.1a1294.3 1294.3 0 000 1zm-1.2-.4l.7.2h.1l.1-.7-.1-.2-.7-.3c-.1 0-.2 0-.2.2v.8zm-1.3-.3l.8.2.1-.1.1-.7-.1-.2-.8-.2-.2.1a514 514 0 00.1.9zm-1.3-.3l.8.2.2-.1a668 668 0 00-.1-.9l-.8-.1h-.2v.7l.1.2zm-1.3-.2l.8.1.2-.1v-.6l-.1-.2-.8-.1h-.2l-.1.7c0 .1 0 .2.2.2zm-1.4-.1a33.3 33.3 0 011 0v-.7l-.1-.2a36.2 36.2 0 00-1 0l-.1.7s0 .2.2.2zm-1.4-.1a34.8 34.8 0 011-.1v-.7l-.1-.1a34.5 34.5 0 00-1 0l-.1.7c0 .1 0 .2.2.2zm-1.5 0a43.7 43.7 0 011-.2l.1-.6c0-.1 0-.2-.2-.2a41 41 0 00-1 .2v.6l.1.2zm-1.4 0a36.1 36.1 0 011-.2v-.6l-.1-.2h-.9s-.2 0-.2.2v.6l.2.2zm-1.4 0a39.5 39.5 0 011-.2v-.6c0-.1 0-.2-.2-.2a39.8 39.8 0 00-1 .3v.6l.2.2zm-1.4.2h.8l.2-.2v-.7s-.1-.2-.2-.1h-.9l-.1.2v.7l.2.1zm-1.4.2a33.6 33.6 0 011-.3v-.6l-.3-.2a34.1 34.1 0 00-1 .3l.1.7c0 .1.1.2.2.1zm-1.3.3l.7-.2c.1 0 .2 0 .2-.2a473.1 473.1 0 00-.2-.7l-.8.1-.2.2v.7l.3.1z" class="fil5"/><path id="_129419776" fill="#f8c300" d="M118.6 120l-.5-.3-.2.1v.7l.1.2.4.2s.2 0 .2-.2v-.7zm-1-.4l-.7-.3c-.1 0-.2 0-.2.2a1425.1 1425.1 0 010 .8l.8.2h.2v-.7l-.1-.2zm-1.2-.4l-.8-.2-.2.1a1417.9 1417.9 0 01.1.9l.8.2.1-.1.1-.7-.1-.2zm-1.3-.3l-.8-.2-.2.2v.6l.1.2.8.2s.2 0 .2-.2v-.6l-.1-.2zm-1.3-.3h-1v.7l.1.2.8.1.2-.1a437.1 437.1 0 00-.1-.9zm-1.3-.1l-.8-.1-.2.1v.9h.9l.2-.1v-.7l-.1-.1zm-1.4-.2a33.7 33.7 0 00-1 .2 698.6 698.6 0 00.1.8h.8l.2-.1v-.7l-.1-.2zm-1.4 0a35.2 35.2 0 00-1 .1v.7s0 .2.2.2a33.9 33.9 0 011-.2v-.6c0-.1 0-.2-.2-.2zm-1.4 0a38.3 38.3 0 00-1 .2v.6l.2.2h.8l.2-.2v-.7l-.2-.1zm-1.4 0l-.8.1-.1.2v.6c0 .1 0 .2.2.2h.7l.2-.3v-.6c0-.1 0-.2-.2-.2zm-1.3.2h-.8l-.2.3v.6c0 .1.1.2.2.1h.8l.2-.2v-.7l-.2-.1zm-1.4.1l-.8.2-.1.2v.6c0 .1 0 .2.2.2l.8-.2.1-.2v-.6l-.2-.2zm-1.3.3l-.8.1-.2.3v.6c.1.1.2.2.3.1l.7-.1.2-.2v-.7l-.2-.1zm-1.3.3l-.8.2-.1.2v.7s.1.1.2 0l.7-.1.2-.2v-.7l-.2-.1zm-1.3.3l-.5.3c-.1 0 0 0 0 0 0 .3.2.7.3.8h.3l.1-.3a9730 9730 0 00-.2-.8z" class="fil5"/><path id="_129409792" fill="#f8c300" d="M108.4 117.5c.2.7 1 .6 1.2.6.2 0 1 .1 1.2-.5 0 0-.2-.6-1.2-.6s-1.2.5-1.2.5zm10.6 1.2h.1c-.3-.6-.6-.4-.9-.2-.2-.4-.5-.7-.9-.5h-.1a25.8 25.8 0 00-1-.3.7.7 0 00-1.1-.1c-.3-.3-.6-.6-1-.3h-.2l-1-.2h-.1c-.4-.4-.9-.2-1.2 0-.2-.3-.6-.5-1-.2h-.3s.7 0 1 .6c-.3.5-.8.6-.8.6.6.2 1 0 1-.2.3.2.5.5 1.1.4 0 0-.4-.2-.7-.8.3-.3.7-.3.9-.4l-.2.2v.8c0 .1 0 .2.2.2l1 .2s.2 0 .2-.2v-1c.2 0 .5.2.7.6-.3.5-.8.6-.8.6.6.2.9 0 1-.1.2.2.5.5 1 .5 0 0-.4-.3-.6-.8.3-.4.6-.4.9-.4l-.2.2-.1.8c0 .1 0 .2.2.3l.9.2.2-.1a6560.8 6560.8 0 000-1c.2 0 .5.2.8.7-.4.4-.8.4-.8.4.5.3.8.2 1 0 0 .3.1.6.6.7l-.3-1c.2-.2.4-.2.5-.2zm-19.6-.3c.1 0 .6-.1 1 .2h-.1c-.2.6-.6 1-.6 1 .5 0 .8-.4.9-.6.2.1.5.3 1 0 0 0-.4 0-.7-.5.3-.7.9-.8.9-.8h-.2c-.5-.3-.8 0-1 .4-.3-.2-.7-.3-1 .2h-.3l.1.1zm8.5-1c.4-.5 1-.5 1-.5h-.1c-.5-.4-.9-.1-1.2.1-.3-.2-.7-.4-1.1 0h-.2l-1 .1h-.2c-.4-.3-.8 0-1 .3-.4-.2-.8-.4-1.2 0l-.1.1-1 .2c-.1 0-.2.1-.2.3v.8s.2.2.3.1l1-.2.1-.2v-.8l-.1-.2c.2 0 .5 0 .8.3-.3.6-.7.9-.7.9.6 0 .9-.3 1-.5.2.2.6.4 1.1.1 0 0-.4 0-.8-.6.3-.4.7-.5.9-.6l-.2.2v.9l.3.1h1l.2-.3v-.8l-.1-.2c.2 0 .6.1 1 .4h-.1c-.3.6-.8.8-.8.8.6 0 1-.1 1.1-.3.2.1.5.4 1.1.2 0 0-.4-.1-.8-.7z" class="fil5"/><path id="_129408992" fill="#8f5444" d="M103.7 104.9v.3l-.3.3-.4-.2-.3.1v-.4c0 .2.1.3.3.3.2.1.5 0 .7-.3v-.1z" class="fil4"/><path id="_129408192" fill="#8f5444" d="M103.5 106c0 .3 0 .4-.2.5h-.6a.5.5 0 01-.2-.6c.1.3.3.5.5.5.3 0 .5-.2.5-.5z" class="fil4"/><path id="_129407392" fill="#8f5444" d="M103.5 107a.5.5 0 01-.1.5l-.2-.1c-.2 0-.4.1-.5.3a.5.5 0 01-.2-.6c0 .2.2.4.5.4.2 0 .4-.2.5-.4z" class="fil4"/><path id="_129406592" fill="#8f5444" d="M103.7 108a.5.5 0 01-.1.5h-.1c-.2 0-.4 0-.5.2a.5.5 0 01-.3-.7c0 .3.2.5.5.5.2 0 .4-.2.5-.5z" class="fil4"/><path id="_129405144" fill="#8f5444" d="M104 109a.5.5 0 01-.1.5h-.2c-.2 0-.3 0-.4.2a.5.5 0 01-.3-.6c0 .2.2.4.5.4.2 0 .4-.2.4-.4z" class="fil4"/><path id="_129404224" fill="#8f5444" d="M104.2 110a.5.5 0 010 .3c-.2 0-.4.2-.5.4a.5.5 0 01-.5-.5v-.1c.1.2.3.4.5.4.3 0 .5-.2.5-.4z" class="fil4"/><path id="_129401120" fill="#8f5444" d="M104.7 111a.5.5 0 010 .2c-.2 0-.3.2-.4.4a.5.5 0 01-.6-.5v-.2c.1.3.3.5.5.5.3 0 .5-.2.5-.5z" class="fil4"/><path id="_129399968" fill="#8f5444" d="M105.3 111.9a.5.5 0 010 .1c-.3 0-.5.3-.5.5a.5.5 0 01-.5-.5v-.1c0 .2.2.4.5.4.2 0 .4-.2.5-.4z" class="fil4"/><path id="_129399584" fill="#f8c300" d="M104.3 104l-1.6.4c-1 3.2.4 6 1.6 7.7a.6.6 0 010-.2.6.6 0 010-.3.5.5 0 01-.6-.5.5.5 0 010-.2.5.5 0 010-.2.5.5 0 01-.5-.5v-.1a.6.6 0 01.1-.4.5.5 0 01-.3-.6v-.4a.5.5 0 01-.3-.7.6.6 0 010-.3.5.5 0 01-.2-.6v-.1c0-.3 0-.4.2-.5a.5.5 0 01-.2-.6l.2-.5a.5.5 0 010-.4v-.3c.1-.3.4-.4.7-.4.3.1.4.4.3.7v-.1.3l-.3.3a.5.5 0 01.1.4v.2c0 .2 0 .3-.2.4a.5.5 0 01.1.6.5.5 0 010 .4.5.5 0 01.3.6.5.5 0 01-.1.4c.2 0 .4.2.4.5a.5.5 0 01-.1.5c.2 0 .3.2.3.5a.5.5 0 010 .3c.3 0 .5.2.5.5a.5.5 0 010 .1.5.5 0 010 .3c.4 0 .6.3.6.6v.1a.5.5 0 010 .1c.3 0 .5.2.5.5l.4.2c-2.4-3.6-2.6-6-2.6-6-.1-2 .7-2.7.7-2.7z" class="fil5"/><path id="_129398800" fill="#8f5444" d="M113.1 111.9a.5.5 0 000 .1c.3 0 .5.3.5.5.3 0 .5-.2.5-.5v-.1c0 .2-.3.4-.5.4a.5.5 0 01-.5-.4z" class="fil4"/><path id="_129395776" fill="#f8c300" d="M114.1 104l1.6.4c1 3.2-.4 6-1.6 7.7a.6.6 0 000-.2.6.6 0 000-.3c.3 0 .6-.3.6-.5v-.2a.5.5 0 000-.2c.2 0 .5-.2.5-.5v-.1a.6.6 0 00-.1-.4.5.5 0 00.3-.6v-.4a.5.5 0 00.3-.7.6.6 0 000-.3.5.5 0 00.2-.6v-.1c0-.3 0-.4-.2-.5a.5.5 0 00.1-.6l-.1-.5v-.7c-.1-.3-.5-.4-.7-.4-.3.1-.4.4-.3.7v-.1.3l.3.3a.5.5 0 00-.1.4v.2c0 .2 0 .3.2.4a.5.5 0 00-.2.6.5.5 0 00.1.4.5.5 0 00-.3.6.5.5 0 00.1.4c-.2 0-.4.2-.4.5a.5.5 0 000 .5c-.1 0-.3.2-.3.5a.5.5 0 000 .3c-.2 0-.5.2-.5.5a.5.5 0 000 .1.5.5 0 000 .3c-.3 0-.5.3-.5.6v.1a.5.5 0 000 .1c-.3 0-.5.2-.5.5l-.4.2c2.4-3.6 2.5-6 2.5-6 .2-2-.6-2.7-.6-2.7z" class="fil5"/><path id="_129392872" fill="#f8c300" d="M117.8 114.1c.5.4 1 .5 1.4.6l-.8.8c-.8-.3-1-.6-1.2-.8.3-.1.5-.3.6-.6zm.1-.2v-.2c0-.3 0-.5-.2-.7.2 0 .9-.1 1.4-.4.3.3.4.7.4 1.2-.6.1-1.2.1-1.6 0zm-.4-2.6c.3 0 .6.2.9.4-.3.3-.6.7-.8 1.2-.2-.2-.5-.3-.9-.3 0-.2 0-.7.3-1.5l.5.2zm-1.5-.2c.1.4.3 1 .7 1.5-.4 0-.8.2-1 .5-.1-.1-.7-.6-1-1.5a3 3 0 011.3-.5zm-2.2 1.9c.4.2 1.2.4 1.8.1a1 1 0 000 1c-.6.2-1.3.2-1.7.1-.2-.4-.2-.8-.1-1.2z" class="fil5"/><path id="_129389296" fill="#fff" d="M100.1 128.6l.2-.6.5.6.3.6.1.2.2.4c-.1.7-.2.5-.4.8-.3.6-1-1.3-.9-2z"/><path id="_129388912" fill="#8f5444" d="M117.5 114.5l.2-.2c.2.3.6.5.6.5l-.2.2-.6-.5zm.3-1.2l1-.3v.5l-.9.1v-.3zm0-1.5c-.3.4-.4 1-.4 1l-.4-.2.3-1c.4 0 .5.2.5.2zm-2.1 0s0 .4.6.8l-.4.2-.6-.9.4-.2zm-1.3 1.7h1.1a1 1 0 000 .3c-.3 0-.7.2-1.1.1 0 0-.1-.1 0-.4z" class="fil4"/><path id="_129388544" fill="#605d5c" d="M116.4 153.2l.2.3c-.5.4-.8 1-1.3 1.6l-1.2 1.4-.3.6-.6.6-.2.3-1.4.4c-.3.1-.4.4-.8.3-.5-.3.4-.5.7-.6l.9-.5.5-.1a19 19 0 002.3-3.7l-.6-.7c-.8-1-1.5-2-1.4-3.7v-.6c.1-.2.6-.1 1-.2.2 0 .5-.3 1-.3h.1l.3.4c.2.2.2.2.1.5 0 .6-.2 1.3-.1 2 .1.8.4 1.5.8 2z" class="fil7"/><path id="_129389808" fill="#da251d" d="M99.2 135.7l.3.4h.4l.3-.6v-.2c0-.1-.3 0-.4 0l-.5.3z" class="fil0"/><g id="g209"><path id="_129388264" fill="#f8c300" d="M107.3 124.6h-.3l-.2.1a1 1 0 00-.4.4l-.5 1-.2.2-.1.2-.4.5h-.7l-.1-.6h-.1l-.1.1a1 1 0 00-.3.7v1l-.2.5-.5.8-.2.5-.3.4v.2c.2.2.4 0 .7 0h.2c.2 0 .3-.2.3-.3l.2-.5.3-.7c.4-.4.9-.3 1.1-.7v-.2l-.3.1-.5.2.2-.5.8-.7c.4-.2.8-.4 1.2-.4l.8-.5.2-.3h-1.3v-.3l.2-.6h.1z" class="fil5"/><path id="_129373576" fill="#f8c300" d="M102.7 123.5v1c0 .2 0 .4.2.6l.1.1h.4c.3 0 .5-.3.6-.5h.2c.1.3-.2.5-.4.7l-1.1 1.5c-.2.3-.2.5-.2.8l-.1 1.8-.1.7-.3.2h-.6v-.5c.2-1 .3-2-.2-2.9l-.1-.2c-.2-.4-.2-.8-.2-1.2l.3.6.3.4c.2 0 .4 0 .6-.2v-.3c.2-.6.1-1.2.2-1.8l.2-.4s0-.2.2-.2z" class="fil5"/></g><path id="_129372912" fill="#605d5c" d="M122.8 150.7c-1-.3-2.1-1-2.5-2-.6-1.6 0-3.6-.3-4.4l.9-.2-1-1.7c-.1-.2-.4-.5-.8-.6h-.8c-.3-.1-.5-.5-.8-.6a7 7 0 00-2.6-1.1c-1.2-.2-2.5.5-3.9.5-1.1 0-2.2-.4-3.1-.7-.4 0-1 0-1.2-.3-.3-.2-.6-2.5-.7-3 0-1.2-.1-2.6-.5-3.6-.1-.4-.4-.7-.6-1.1.5-.4 1.5-.7 2-1.3.4-.5.5-1.5.5-2.4-.9.3-1.7.6-2.2 1.2l-.9 1h-.4l-.3.2h-.2c-.3 0-.5.2-.7 0v-.2l.2-.3h-.3l-.3-.3v.4l-.3.2h-.6v-.5l.1-.9-.2-.3-1-1.2-.4 1c-.1 1.2.4 1.8.7 2.5-.3.2-.3.3-.7 1.1l-.5.1v.3h.4c-.3.6-1 1-1.4 1.6-.2.2-.2.4-.2.7v.6c.1.2.5.2.8.4.2 0 .2.5.4.6 1 .4 1.3-.8 2.3-.6.2 1 .3 2 0 3.2-.1.7-.7 1.3-.8 2l.2 1.8c0 1.1 0 2 .2 3l.2 1.2v1.4c-.2 1 0 2.1-.3 3 0 .3-.3.6-.4.8-.1.5.1 1.1 0 1.6-.3 1.2-.4 2.6-1 3.5l-.6.6c-.5.7-1 1.4-1.8 2 .6.2.6 0 .2.7.6 0 1.5 0 2-.4.6-.4.4-1.7 1.4-1.3l.6-2 .2-1.8.5-1.5.5-.7.1-1 1.3-2.2c.4.8.8 1.9.9 2.8v1l.3.6c.2 1 .3 2.2.3 3.1 0 .5.2 1 .1 1.6a6 6 0 01-1 2.3l-.8 1c.6.1.6 0 .5.5.6 0 1.5-.2 1.8-.5.3-.5.4-1.5.6-2l.5.2c.2-1.8-.4-3.4-.5-5.1v-1.7l.1-.1-.1-.5c-.1-.8.1-1.6.3-2.2l.3-1.7c.9 0 2.3 0 3.1-.3l-.5 1c.8-.1 1.5-.5 2.3-.7 0 1.1.2 2 .6 2.7.3.6.8 1 1.2 1.7l.5.6v.2c-.5.9-1.2 1.7-1.8 2.5l-.4.5c-.4.4-1.1.5-1.6.7-.8.4-1.3 1-2 1.5.6.2.6.2.3.6 1.8.1 2-.4 3-1 .2-.2.3-.3.4-.1.2.2.2.3.5 0 .9-.8 1.4-2 2.1-3 .6-.8 1.5-1.5 2-2.3v-.1l-.8-1.5c-.3-1 0-1.7.1-2.5l1.7 1.1c1 .7 2.8 1.5 3.4 2.6.4.8.6 1.7.9 2.6 0 .5.5 1.6.5 2 0 .3-.4.6-.5.8l-.6 1.2-1.1 1.3c.7.2.6 0 .5.6.6 0 1.3 0 1.7-.3.3-.3.6-1.7 1-2.2.3.1.4.2.6.1.1-1.5-.5-2.8-.9-4l-1-4.6zm-3.2-7.7v.2c.2 0 0 0 0 0-.4.2-.7-.8-1-1 .5 0 .8.3 1 .8zm4.1 15.3l-.1.2-.9 1.7c-1-.2-.5-.5-.2-1l.4-.8.4-.4v-.2l-.1-.6-1.1-3.6c0-.2-.2-.8-.4-1-.2-.3-.6-.5-1-.7l-.3-.4-1.3-.8-1.4-1.2-.8-.4-.1-.2-1-.7-.3-.4c-.7-.7-1.4-1.4-2-2.3h-.1l-.1 1a9 9 0 01-2.1.8h-.2l-.2.1h-.4l-.7.1h-1.1c-.2.1-.6.2-.9 0-.1 0-.2-.6-.6-.7l-.4 2.5c-.2.9-.6 2.5-.4 3.5v1.8c0 1 .7 4 .3 4.7l-.5.8-.3.8s-.3.2-.5.1c-.2 0 .3-1 .4-1.1l.5-1.2v-1l-.4-3.2c0-.3-.4-.7-.4-1-.2-.7 0-1.3-.2-2l-1-2.8c-.2-.5-.4-.9-.4-1.7v-.1c-.1-.1-.3.2-.4.2-.3.1-.4-.3-.7-.1-.3 0-.1.2-.6.1 0 .2.1.3.3.4.3.3.5.3.5.3v.1l.6.4c0 1-.5 2-.8 2.7l-.3.6-.2 1c0 .3-.4.7-.5 1v.3l-.8 2.8c0 .2 0 .7-.2 1h-.2l-.2.4-1 1-.6-.1s0-.1 0 0c.4-.6 1.2-1.2 1.4-1.7v-.2h.1v-.3l.1-.2.1-.3v-.2s.1 0 0 0c.3-.8.6-1.8.7-2.8v-.6c0-.7.2-1 .2-1l.1-.9v-1.3l.2-1.1v-.8l.3-.5v-.4l-.2-1-.3-2 .3-.2-.4-1.7v-1c0-.3.3-.7.4-1a7 7 0 00.5-2v-2.1c1-.2 1.2-.6 1.4-1.6-.6.2-.5.4-.8.7-.6.4-1.3.3-2 .7l-.5.5-.5.1c.5-.3.7-.8 1-1.2-.7-.1-1 .4-1.5.5a1 1 0 01-.7 0c-.3-.2.5-.8.7-1v-.1h-.7l1.3-1.6c.6-1 .1-1.2 1.2-1.8l.3-.3h1c-.1.2 0 .3.3.3.5 0 .9 0 1 .5 1.1-.9 2-2.3 3.3-2.8v.5c-.1 1-.4 1.4-1.2 1.8-.6.3-1.3.5-1.9 1 .3.1.5.6.7.9.9 1.5.5 4 1 5.8.1.6.1 1 .4 1.5 1.5-.1 2.8.6 4.2.7 1.1.1 2 0 3-.3.3 0 .7-.3 1.3-.2.4 0 .7.2 1 .4h.1c1.4 1 2.5 2 3.2 3.7l.1.4.2 2v.6c.2 0 0 .2.1.2v.3l.1.3.1.2v.3c.4.8 1.2 1.5 2 2 .2.1.5.1.7.3.2 0 .1.4.2.6l.7 3.1v.6c.3.7.9 2 .7 3zm-7.3-5.1l.2.3c-.5.4-.8 1-1.3 1.6l-1.2 1.4-.3.6-.6.6-.2.3-1.4.4c-.3.1-.4.4-.8.3-.5-.3.4-.5.7-.6l.9-.5.5-.1a19 19 0 002.3-3.7l-.6-.7c-.8-1-1.5-2-1.4-3.7v-.6c.1-.2.6-.1 1-.2.2 0 .5-.3.9-.3h.2l.3.4c.2.2.2.2.1.5 0 .6-.2 1.3-.1 2 .1.8.4 1.5.8 2zm-16.3-24.6l.2-.6.5.6.3.6.1.2.2.4c-.1.7-.2.5-.4.8-.3.6-1-1.3-.9-2zm-.9 7c0 .2.1.4.3.5h.4l.3-.6v-.2c0-.1-.3 0-.4 0l-.5.3z" class="fil7"/><path id="_129375088" fill="#da251d" d="M101.2 132.7l.2-.4c.5.3.2.5-.2.4z" class="fil0"/><path id="_129374344" fill="url(#linearGradient2676)" d="M122.5 120.5l-.6.4h-3.5s0-.3.3-.7c1.5 1 3.4.4 3.5.4h.3zm-3.2-.4l.7.2-.7-.2z" class="fil10"/><path id="_129373960" fill="#007cc3" d="M125 117.6c.9 1.5 2.2 1.6 2.2 1.6.8-.6 1.9-1 2.2-1.2h-.1a1.6 1.6 0 01-.1 0h-.1c-.2-.1-1.4-.7-1.4-2.3v-.2h-.4a3.3 3.3 0 00-2.1 1.4l-.3.6zm2.7-2zm-2.8 1.8z" class="fil11"/><path id="_129372128" fill="#75c5f0" d="M122 116.5s.2-1.7 2.7-2.4l.5.1s.9.6 2 1l.1-.1.7.1c.2.2 0 .6 0 .6 0 1.4 1.2 1.8 1.2 1.8h.5c.2 0 .3-.4.3-.5.1-.1.2-.6 0-.8-.1-.1-.3-.2-.6-.1l-.4.3v.6h-.5l-.4-.9h.7c.2-.3.5-.4.6-.4.4 0 .7 0 .9.2.3.4.1 1.1.1 1.2 0 0-.1.6-.5.8h-.8s-1.4-.6-1.4-2.3v-.2h-.3a3.4 3.4 0 00-2.2 1.4l-.4.8a3.3 3.3 0 010 .4c-.1 0-.8 2.3-2.6 2.5-.1 0-2 .5-3.5-.4l.1-.2v-.1a4 4 0 00.2 0c.6 0 2.1-.5 3-3.4z" class="fil3"/><path id="_129371512" fill="#007cc3" d="M129.3 118c-.4 0-.9-.4-1-.7a2.3 2.3 0 001 .7z" class="fil11"/><path id="_129370608" fill="#007cc3" d="M129 117s.8 1.2 0 0h-.1l.2-.1-.1-.4c0-.2.4-.3.5-.3h.3l.2.1c.2.2 0 .7 0 .8 0 .1-.1.4-.3.5h-.5l-.7-.5h.4z" class="fil11"/><path id="_129370088" fill="url(#id7)" d="M137.4 117.3c-.5 0-.5.5-.5.5.3.6 1.2.2 1.2.2l-.7-.7z"/><path id="_129365704" fill="url(#id8)" d="M137.7 117c.8-.3.4.4.4.4-.5.1-.4-.3-.4-.3z"/><path id="_129366880" fill="#8f5444" d="M134.8 120zm0 0c-.5-1.4-.8-1.4-.8-1.4h-1.1c-2.3-.4-1.1-2-1.1-2-2.8-1.4-.6-2.4-.6-2.4-2.1-2.2.4-2.3.4-2.3-.2-1.8 1-2 1.9-1.6.7.4 1.1 1.2 1.1 1.2 1.7-.7 1.4 2 1.4 2 2 .9.4 3 .4 3 .6 1.2-.2 2.1-.2 2.1.5 0 .7-.4.7-.4-.6-1.1.6-1.2.6-1.2.8-.8 1 .6 1 .6.4 1-1.1 1-1.1 1-.7 1-1.4.9-1.4.9 0 1.3-.5 1.9-.5 1.9a2 2 0 00.2 1.2c.2-2.6 1.6-1.5 1.6-1.5 0-2.7 1.5-1.8 1.5-1.8 0-1.5 1.3-1.5 1.3-1.5 1.4.8.6 2.3.6 2.3 2.3-1 1.6 1.7 1.6 1.7-.2.5-.7.7-.7.7 1.2 2-1.7 1.9-1.7 1.9 0 1.7-1.8 1-1.8 1-.6-.1-1 .3-1 .3l-.5.3h-.8c-.9 0-1 1-1 1-.4 0-.8 0-1.2-.2-.4-1.2-1.1-1.5-1.1-1.5l-1.3-.1c-1.5-.1-.8-1.7-.8-1.7-1 0-1.5-.5-1.7-.9V121h-.4c.2-1.6 1.5-.9 1.5-.9.1-1.7 1.1-1.6 1.7-1.2.3.1.4.6.4.6 1.7.2 1.3 1.8 1.3 1.8 2 .3 1.2 2 1.2 2-.3.7-.2 1-.2 1 .7-.8.5-1.6.5-1.6-.2-1.2 0-1.5 0-1.5.1-.6-.5-.6-.5-.6-.4.8-.8 0-.8 0-1-.9 0-1.2 0-1.2.9-.8.9.4.9.4.5 0 .5.2.5.2z" class="fil4"/><path id="_129366072" fill="#f8c300" d="M132.4 112.5s-1.7 1.1.6 2.3c0 0 .5 0 .2.5 0 0-1.6 1.2 1.2 2.3 0 0 1.2.5.6 2.4 0 0-.5 2-.2 4.2 0 0 .3 0 .2-1 0 0-.2-1 .2-2.2 0 0 1.2-1.7.8-4.7 0 0 1.5-1.7-.3-2.5 0 0 .3-1 0-1.6 0 0-.3-.9-1.4-.3 0 0-.1.8.1 2 .6-.8.6-1.6.6-1.6.7 1.3 0 2.4 0 2.4-.4 1 .1 1.3.1 1.3.3-.6.8-1 .8-1-.6 1.5-.5 3.4-.5 3.4-1-4.1-2-4.4-2-4.4.5-.2.8 0 .8 0-1-2.4-2-3.4-2-3.4-.6 1 .2 1.9.2 1.9z" class="fil5"/><path id="_129364504" fill="#f8c300" d="M135.8 125.5c-1 .2-1.4 1.5-1.4 1.5-.4 0-.6-.2-.6-.2-.2-1.5-1.4-2-1.4-2-1.2-.8-.5-1.3-.5-1.3-1.8-.9-2-1.8-2-1.8-.3-.7.5-.8.5-.8-.7-1.6.7-2 .7-2-.4 1.9 1 3.4 1 3.4 1 1.3 1.7 3 1.7 3-.5-2-.3-2.9-.3-2.9-.4.3-.5.7-.5.7-1-1.8-.6-3-.6-3-.7.5-.6 1.2-.6 1.2-.4-1.5.8-1.5.8-1.5.7.5.2 1.6.2 1.6-.3.6.2.3.2.3.9-.6 1 .1 1 .1.4.7 0 1.6 0 1.6-.1.9.1 1.2.1 1.2.4.6.2 1.5.2 1.5.7-1.5 1.2-1.7 1.2-1.7s.4-.5.5-1.7c0 0-.2-.7.3-1.4 0 0 .4-.4 1 .2 0 0 .3.5.3 0 0 0 0-.6.2-1.1 0 0 .8-1.4 1.4-.8 0 0-.2 1.5-1.8 3.2 0 0 0-.7-.6-1.2 0 0 0 1.2-1 3 0 0 2.4-2.4 4.6-3.4 0 0-.5-.3-1.1-.1.9-1.7.8-2.8.8-2.8.6.8.1 2 .1 2 1.2 1.2-.7 2-.7 2-1.1.6-.9.7-.9.7.6 1.2-.8 1.3-.8 1.3-1.3.3-1.3.8-1.3.8 0 .5-.8.4-.8.4z" class="fil5"/><path id="_129364120" fill="#8f5444" d="M137.5 139.5l-.1-1.3s-.4-1.2 1.5-1.1c0 0-.3-.7 0-1.6 0 0 .4-1 1.4-.2 0 0-.2-.9 1-1.3 0 0 1.4-.1 1 2 0 0 .8-.2 1 .6 0 0 .7-1.2 1.8-.7 0 0 1.5 1.6-1 3.1 0 0 1 1.9-2 2 0 0-.5 1-2 .7 0 0-1.1-.5-1.9.6 0 0 0 .3-.4.8 0-1.2 0-2.4-.2-3.3l-.1-.3z" class="fil4"/><path id="_129363064" fill="#f8c300" d="M143.4 137s0-.5-.5-.7c0 0-1-.3-1.8 1.6 0 0-.8-1-1.6.2l-.3 1s-1 .4-1.4 2.7v.3c.2-.4.7-1 2-.8 0 0 1.8.6 2.1-.8 0 0 2.9.5 1.6-1.7 0 0 2.2-1.2 1.4-2.5-1 2-3.3 3-3.3 3-2.3 1-3.1 1.5-3.1 1.5.2-.7.6-.9.6-.9.8-.4 1-1.1 1-1.1.2.4 0 .8 0 .8 1.9-1.3 2.2-2.5 2.2-2.5.1 1-.2 1.7-.2 1.7 1.3-1 1.3-1.8 1.3-1.8z" class="fil5"/><path id="_129362408" fill="#f8c300" d="M141 136.4zm0 0c-.2-1.3.4-2.2.4-2.2.8 1.2-.5 2.2-.5 2.2z" class="fil5"/><path id="_129362024" fill="#f8c300" d="M139.8 135.4c0 1.8-.7 1.5-.7 1.5-.2-1.7.7-1.5.7-1.5z" class="fil5"/><path id="_129361640" fill="#007cc3" d="M133 147c.1 0 .2 0 .2-.2l.1.1.6-.5-.2-.1.1-.2c.6.6.8 1.4.8 1.4a7.7 7.7 0 01.6 2.6l-.3-.4h-.2l-.3-.1c-1.3-1-.8-1.8-.8-1.8 0-.4-.3-.6-.5-.7z" class="fil11"/><path id="_129361120" fill="#007cc3" d="M132.2 148.4l.1-.2.5.5.1-.8a4 4 0 001.3 1.8c-.8-.4-1.5-.9-2-1.3z" class="fil11"/><path id="_129360496" fill="#007cc3" d="M131.4 149.7l.1-.2h.4v.2z" class="fil11"/><path id="_129359672" fill="#007cc3" d="M135.6 152l-1 .8a5.8 5.8 0 00-2.8 3.9 14 14 0 01-1.6-3s-.1-1.6.5-2.3l-.2-.1c.5.1 1.1-.2 1.1-.2.5 1.5 2 .5 2 .5.8-.5 1.3-.2 1.3-.2l.7.5z" class="fil11"/><path id="_129359288" fill="#007cc3" d="M134.3 141.4c2 1.8 2.9 3.7 3.1 4.4v.5s-1.5-.2-.7 2.2c0 0 .2.4-.4 1.2v.1h-.2c0-.2-.2-.5-.1-1 0 0 .3-.7-.4-1.9 0 0-.5-1.1.4-2.3l-.1-.3-.4.2c-.3.3 0 0 0 0v-1s-.3-.6-.9-1.1c0 0 .3.4.1 1.2 0 0-.3.3-.3 1.3 0 0 0 .5-.2.1v-.7l-.1-1.1s-.3.1-.2-1l.4-.8z" class="fil11"/><path id="_129356696" fill="#007cc3" d="M132.7 125.5c.3.2.7.6 1 1.3l-.7-.4h-.4c.2 1.8 0 3 0 3.6l-.3-.7s-1.2-2.9.5-3.6zm3.4 2zm0 0zm0 0zm0 0zm.3-1.5l-.2.1v.2c.2 0 .4.3.4.5l-.6.2s-.5.2-1.2 0c0 0 .1-1 1-1h.6z" class="fil11"/><path id="_129341192" fill="#75c5f0" d="M136.4 127.4c.3-.1.5-.3.6-.5 0-.2 0-.6-.4-1l-.4.2v.2c.2 0 .4.3.4.5l-.6.2s-.5.2-1.2 0h-.9v-.1h-.2l-.1-.1-.7-.4h-.4c.2 1.8 0 3 0 3.6l.2.4.5.4.5.1h.6c.6 0 .3-.3.3-.3l.2-.6v-.3c0-.7.4-1 .7-1.1l.8-1.2z" class="fil3"/><path id="_129351536" fill="#75c5f0" d="M129.8 135.6c0 1.7.6 2 .6 2 .4-.6 1-.5 1.3-.2.4.4.4 1 .4 1 2-1.2 1.3 2 1.3 2 1-.2 1 .5.9 1 2 1.8 2.9 3.7 3.1 4.4v-.4 1c0-.1 0-1.2.4-1.7 0-1.5 0-3.6-.2-5 0 0-.8-2-2.2-3.3 0 0-2.5-1.9-2.3-3.8 0 0 .3-1.1-.8-3.3 0 0-1.2-2.9.5-3.6l-.1-.3h-.1c-.8.3-1 1.1-1.1 1.9v-.3c-.6 1.2-.9 1.3-.9 1.3-1.2 1.4-.5 3.4-.5 3.4-.5 1.8-.3 3.9-.3 3.9z" class="fil3"/><path id="_129351152" fill="#75c5f0" d="M130 154.4v-.1s.5 2.3-.3 5.3c0 0-.5.5.7 2.2l2.5 3.1s2.2 1.6 1 4h.4l.5.3v.3c.2.6-.3 1-.3 1h1.4a20 20 0 001.6-3.5l.2-.8a5 5 0 000-3.4c-.1-1.7-3.4-3.9-3.6-4-2.5-1.4-4-5.1-4-5.2v.1s0-1.6.6-2.3l-.4-.3c-.7.8-.6 2.6-.6 2.6v.1l.3.6z" class="fil3"/><path id="_129350632" fill="#8f5444" d="M141.5 131s-.4-1-1.8 0c0 0 .4-.4.1-1.6 0 0 1.3-.6.8-2.3 0 0-.3-1.3-2 .6 0 0-1-1-2 1 0 0-1.5-.8-1.7 1 0 0 .3 1.4-.8 2l-.6.2c.1-.2.3-.5.3-1 0 0-.4 0-1-.4.3.8.3 1.3.3 1.6v.5a2.5 2.5 0 00.3 1.4s1.2-.7 2.2 0c0 0 1.4 1 1.7 0 0 0 2.2 1.2 2.5-.7 0 0 2.2-.3 1.7-2.2z" class="fil4"/><path id="_129349448" fill="#8f5444" d="M133.8 134.8c.4-.2.7 0 .7 0 1.3-1 1.6.4 1.6.4.6 1-.7 1.1-.7 1.1s.2 0 0 0a8 8 0 01-1.6-1.5z" class="fil4"/><path id="_129339584" fill="#8f5444" d="M135 149.7l-.7-.6c-.5-2.7-1.8-2.2-1.8-2.2-.3-2-1.7-1.2-1.7-1.2-1.3-1.5-2-.2-2-.2l-.1.8v3.1c0 .2.2.3.2.3.7.8 1 .4 1 .4 0 .6.2 1 .4 1l.2.2c.5.1 1.1-.2 1.1-.2.5 1.5 2 .5 2 .5.8-.5 1.3-.2 1.3-.2 1.9 1 1.5 3 1.5 3l-.5 1.4-.8.5c-.5 0-.4-.4-.4-.4 1-1-.3-1.3-.3-1.3-1.2-1-1.2.5-1.2.5-.6 1 .8 1 .8 1 .3.6.6.8.6.8l-.4 1.2-.3.6.2.1 1 .7.5-.4c.5-.2.5.1.5.1.5.7 1 .5 1 .5.5 0 .4.6.4.6.7 1.6 1.7.7 1.7.7.5.8 1.3 1.1 1.7 1 .5 0 .7-.6.7-.6 3 .4 2.6-1.6 2.6-1.6-.3-1.1-1.5-.4-1.5-.4.4-1.6-2.1-1.2-2.1-1.2-.2-1.6-2.2-.5-2.2-.5l-.4.2c-.9.4-1.1 0-1.1 0-.8-.3-1-.1-1-.1 0-.6 1-1 1-1 .7-.4 1.2 0 1.2 0 2 1.2 2.5-.4 2.5-.4 3.1.7 2.3-1.3 2.3-1.3 1.7-.2 1.5-1.5 1.5-1.5-.1-1.6-1.7-.9-1.7-.9.7-2.3-.5-1.9-.5-1.9-.8.1-1.3.6-1.3.6-1.2-1-2 .5-2 .5-.8-.2-1.4.7-1.4.7-.2-.5-.1-.8-.1-.8 1.1-1.8 2.6-1.5 2.6-1.5 1 0 1.5-.4 1.7-.6l.2-.2c.1-.5 0-.8 0-.8 2-.5 1.8-1.4 1.8-1.4 0-1-.6-.9-.6-.9 1.7-2 .4-2.6.4-2.6-1-.4-1.5 1-1.5 1-.3-.2-.6-.1-.6-.1.4-2.2-1-2.2-1-2.2-1.3.2-1.3 1.5-1.3 2h.2c.1.3.2-.1.2-.1-.3-2.1 1-1.7 1-1.7v.1c0 2.5-1.8 4.4-1.8 4.4a7.8 7.8 0 00-1.6 3.2c1-1.5 1.7-1.7 1.7-1.7-.4-.2-.7 0-.7 0 1-1.7 2.8-2.2 2.8-2.2-.7-.3-1.1 0-1.1 0 .5-1 .9-1 .9-1 2 1-.8 2.4-.8 2.4.4 1.4-1.4 2-1.4 2-2 1-1.5 3.7-1.5 3.7l-.3.3c-.5-2.4-.6-3.5-.5-4v-.2c-.1-.1-.3-.4-.2-.9 0 0 .3-.7-.4-1.9 0 0-.5-1.1.4-2.3l-.1-.3-.4.2c-.3.3 0 0 0 0v-1s-.3-.6-.9-1.1c0 0 .3.5.1 1.2 0 0-.3.3-.3 1.3 0 0 0 .5-.2.1v-.7l-.1-1.1s-.3.1-.2-1c0 0 1.3-2-.5-1.8 0 0 .8-3.2-1.3-2 0 0 0-.6-.4-1-.4-.5-1.3-.5-1.6 1 0 0-.5 0-1.4.4v3c.5.6 1.2.6 1.2.6 0 2 1.4 1.8 1.4 1.8.8 1.2 1.4 1.2 1.4 1.2 1.5.4 1.9 2.1 1.9 2.1a7.7 7.7 0 01.6 2.6l-.3-.4zm3.3-5.3c-1 .3-.9 2-.9 2s-1.5-.3-.7 2c0 0 .1.4-.2 1h.2c.6-1 .2-1.5.2-1.5-.4-1.2.4-1.4.4-1.4.3 0 .4.2.4.2 0 .3.1-.2.1-.2 0-1.2.2-1.8.5-2z" class="fil4"/><path id="_129338752" fill="#f8c300" d="M140.2 127.3zm0 0c1 .6-.6 2-.6 2 .6 1-.1 1.6-.1 1.6-.9.4-1.6.3-1.6.3.4 1.3-1 1.1-1 1.1-2-.2-3.4.6-3.4.6.6-1.6 1.7-2 1.7-2 0-2.5 1.5-2 1.5-2 .3.4.3 0 .3 0 .3-1.5 1.2-1.2 1.2-1.2.6.2.3.5.3.5l-.7 1.3c0-.6-.2-1-.2-1-.7 1.9-2.5 3.2-2.5 3.2 3.8-2.1 5-4.4 5-4.4z" class="fil5"/><path id="_129338368" fill="#f8c300" d="M141.3 131zm0 0c.2 2-1.3 1.4-1.3 1.4.8-.3 1.3-1.3 1.3-1.3z" class="fil5"/><path id="_129337720" fill="#f8c300" d="M139.5 133v-.2l-1.8.8c.8 1.1 1.8-.6 1.8-.6z" class="fil5"/><path id="_129336776" fill="#f8c300" d="M135.7 135.1c0-.5-.4-.5-.4-.5-.7.2-.2 1.1-.2 1.1l.6-.6z" class="fil5"/><path id="_129336392" fill="#f8c300" d="M136 135.4c.3.8-.3.4-.3.4-.2-.5.3-.4.3-.4z" class="fil5"/><path id="_129336008" fill="#f8c300" d="M142.7 152zm0 0c-1 .2-1.1.4-1.1.4.5-.9 1-1.1 1-1.1.2.2.1.6.1.6z" class="fil5"/><path id="_129335096" fill="#f8c300" d="M140.5 151.8zm0 0c0-.7-.2-.6-.2-.6-1.1.6-1 1.8-1 1.8l1.2-1.2z" class="fil5"/><path id="_129334576" fill="#f8c300" d="M141.3 153.5s-.2-1.5-1.5 0c0 0-.3.4-.4.2l-.5-.4s-.5-.5-1.2 1.2c0 0-.3-.1-.8.5 0 0-.5.1-1.7 2.5 0 0 .2-.1.6-.8 0 0 2.4-2.1 5.2-3.2 0 0-.7.2-.6.9 0 0 1.7-1 3.3-.5 0 0-1.8.1-5.5 1.5 0 0 .6-.1 1.2.8 0 0-1.9-.7-3.2.3 0 0 1-.3 3 .3 0 0 1.4.5 1-1 0 0-.4-.6.4-.1 0 0 1.9 1.4 2-.9 0 0 2.3 0 1.2-1.6 0 0-.8-.9-2.3.4l-.2-.1z" class="fil5"/><path id="_129334192" fill="#f8c300" d="M134.6 154.8zm0 0c.4.9-.6 1-.6 1-1-.3 0-.8 0-.8.4-.4.6-.2.6-.2z" class="fil5"/><path id="_129333120" fill="#f8c300" d="M134.2 154.6zm0 0c-.5 0-.7.3-.7.3 0-.8.7-.3.7-.3z" class="fil5"/><path id="_129331408" fill="#f8c300" d="M140.9 159.7zm0 0c1.8.2 1.6-.8 1.6-.8 0-1-1.9-.6-1.9-.6-.8-1.2-1.6-.6-1.6-.6-1.2.6-2.2.4-2.2.4-1.5-.2-2 .6-2 .6 1.4-.3 1.7.4 1.7.4.2.4 1 .4 1 .4.5 1 1 1.2 1 1.2.4.4.6-.4.6-.4.6 1 1.1 1 1.1 1 1 0 1.4-.4 1.4-.4 1.4.2 2.3-.9 2.3-.9-2.3.7-5-.8-5-.8a9 9 0 00-2-.7c1.5.1 2.6-.2 2.6-.2-.2.3-.6.5-.6.5 1.5.4 3-.2 3-.2-.3.7-1 1-1 1z" class="fil5"/><path id="_129330248" fill="#f8c300" d="M135.8 149.7zm0 0c-.2-3.4-.7-4.3-.7-4.3-.2-1 0-2.1 0-2.1-.7 1.3-.4 2.8-.4 2.8-1-1-.8-1.6-.8-1.6 0-1-.4-1.2-.4-1.2-.5-1 .1-1.3.1-1.3.7-1.5-1.2-1.2-1.2-1.2 0-2.5-1.5-1.2-1.5-1.2-1.2-1.6-1.9-.6-1.9-.6a6 6 0 012 2.5c.5-.6.6-1.6.6-1.6.3 1.4.2 1.6.2 1.6-.4 1.1.3 1.4.3 1.4.2-.9.5-.9.5-.9 0 1.2.5 2.3.5 2.3-1-1.1-1.8-1-1.8-1-.9-.4-1-.8-1-.8.1.7.8 1 .8 1l2.4 1.8c.8.7.7 1.1.7 1.1.2.7.7.8.7.8l.9 2.5z" class="fil5"/><path id="_129325560" fill="#f8c300" d="M129.1 141.1s-.7-.5 0 0zm0 0c.8.6 2 1 2 1-1.1.1-2-.3-2-.3a1 1 0 01-.4-.8v-.2z" class="fil5"/><path id="_129325176" fill="#f8c300" d="M136 151.8zm0 0c-.7-1.9-1.6-2.2-1.6-2.2-1.3-1-.8-1.8-.8-1.8-.2-1-1.2-.7-1.2-.7-.4-1.7-1.7-1.1-1.7-1.1 0 1.4.6 1.6.6 1.6 0-1 .3-1 .3-1 .4 1.6 1.2 2 1.2 2l.1-.7a5 5 0 001.4 2c-3.5-2-4.8-4-4.8-4-.2-.6.2-.6.2-.6-.4-.1-.7.4-.7.4-.2 1.6 1 2.2 1 2.2-.9 1.2.3 1.5.3 1.5 1 .3 1.6 0 1.6 0 .1 1.8 1.2 1 1.2 1 1.7-.3 2.9 1.4 2.9 1.4z" class="fil5"/><path id="_129324608" fill="#87c3dd" d="M133.9 146.4l-.4-.3-.5.5.3.3z" class="fil14"/><path id="_129324240" fill="#f8c300" d="M140.5 142.7v.1c0 2.5-1.8 4.4-1.8 4.4a7.8 7.8 0 00-1.6 3.2c1-1.5 1.7-1.7 1.7-1.7-.4-.2-.7 0-.7 0 1-1.7 2.8-2.2 2.8-2.2-.7-.3-1.1 0-1.1 0 .5-1 .9-1 .9-1 2 1-.8 2.4-.8 2.4.4 1.4-1.4 2-1.4 2-2 1-1.5 3.7-1.5 3.7l-.3.3c-1.2-5.2 0-4.5 0-4.5.6-1 .2-1.5.2-1.5-.4-1.2.4-1.4.4-1.4.3 0 .4.2.4.2 0 .3.1-.2.1-.2 0-2.3.8-2.3.8-2.3.6.1.7.4.7.4.1.2.2-.2.2-.2-.3-2.1 1-1.7 1-1.7z" class="fil5"/><path id="_129326832" fill="#f8c300" d="M142.3 146.3zm0 0c1.2-1.5 1-2.2 1-2.2-1.1-.1-1.1.8-1.1.8.2.7.1 1.4.1 1.4z" class="fil5"/><path id="_129324216" fill="#8f5444" d="M130 169h-.4c.2-.5.9-1.5 1.8-1.8 0 0 2-.7 2.8-.1 0-.4-.1-.7-.3-1-.1 0-1.3 0-2-.4 0 0-.1-.8.2-1.8l-.2-.2-.6-.7s-.3.7-.5 2.5c0 0-.6 0-1 .5v-.7h-.3s-.4.5-.4 1.7c0 0-.6.6-.8 2.2-.8.1-1.9.5-3.2 1 0 0 .4-.9 1.4-1.5 0 0 2.2-.8 1.2-2 0 0 2.5-2 .6-2.9 0 0 .8-1.5-.3-2.3v-.5l-.4.4-1.2 1.3-.6.7-1 .5-1.2.5-1.1 1.2s0 .5.5.8c0 0 .8 0 .5.8 0 0-.5 1.5.5 3.3 0 0-1.7.9-4.5.6.3.3.5.7.4 1v.3c2.2-.1 5-.7 5-.7 2.2-1 3.4-1.3 3.4-1.3.4.6 0 1 0 1-1.2.2-.7 1.2-.7 1.2.7.8 2 0 2 0 .4-.5-.5-1.2-.5-1.2.3-.9-.2-1.3-.2-1.3s1.7 0 1.3 1.8c0 0-.7 2.4 1.1 1.6l-.1.9s-.1 1.9 1.4 1.5c0 0 0 1 1.7 1.4 0 0 1.4.2.9-2.4 0 0 .7 0 1-.8 0 0 .7.6 2 0 0 0 2.4-1.7-1.1-2.2 0 0 .3 0 .1-.8 0 0 .3-.8-2.7-.6 0 0 .5-.4.3-1 0 0 .4-.8-2.2-.5 0 0-.8-.9-2.6 0z" class="fil4"/><path id="_129323448" fill="#007cc3" d="M118.2 170.2l-.6-.6s-.2-.1-.3-.5v-.3c.6-.4 1.1-.3 1.2-.3.7.5 1.3.7 1.9.8v.3l.3.5s0 .9 1 .4c0 0 .5.1.8.5a10 10 0 01-3 .1c-.5-.6-1.4-1-1.4-1h.1z" class="fil11"/><path id="_129321320" fill="#007cc3" d="M125.3 171.5l.6-.2 1.2-.1 1.4-.2a.8.8 0 01-.2.4c-1.2.2-.7 1.2-.7 1.2.7.8 2 0 2 0 .4-.5-.5-1.2-.5-1.2v-.2h.1v-.3h1v1s-.7 2.4 1.1 1.6l-.1.9-.4.1s-3.3 1-5.6.8c.4-1.6-2.3-1.3-2.3-1.3 0-1.2-1.1-1.2-1.1-1.2a2 2 0 00-1 .2c-.4.4-1 .1-1.2 0l.2-.6c2.3-.1 5-.7 5-.7l.5-.2z" class="fil11"/><path id="_129320936" fill="#007cc3" d="M123.6 170.7a7 7 0 01-.5.1c0-.1-.3-.6-.8-.8v-.6c1 .3 1.5 1 1.5 1.1h.1l-.3.2z" class="fil11"/><path id="_129314424" fill="#8f5444" d="M114.6 176.2zm-4.7.3a6 6 0 002.6 1.2c1.5.5 2.1 2 2.1 2 1 1.5 1.6 1.2 1.6 1.2 2-.7 3.8-.7 3.8-.7 1.3 0 1.2-.3 1.2-.3a9 9 0 01-3-1.7c-1-.7-1.8-.6-1.8-.6l-.8-.5c-2.5.3-4.7-.8-4.7-.8s-.5.3-1 .2z" class="fil4"/><path id="_129313536" fill="#8f5444" d="M117.5 176c.4.4.9.3.9.3-.4 2.5 1.3 2.1 1.3 2.1 2 2.4 2.8.6 2.8.6.1-.5-.2-.9-.2-.9 1 0 1.3-.6 1.3-.6 3.1.6 3-1.1 3-1.1 0-1-1.5-1-1.5-1 .7-1.7-2.2-1.4-2.2-1.4 0-1.2-1.1-1.2-1.1-1.2a2 2 0 00-1 .2c-.4.3-1 .1-1.2 0l-.9.8s-1 .7-1.2 1.8v.4z" class="fil4"/><path id="_129313152" fill="#8f5444" d="M122.5 171zm0 0c-.3-.4-.7-.5-.7-.5-1.2.5-1.1-.4-1.1-.4-1-1.5.8-1.3.8-1.3 1.2-.5.8 1.2.8 1.2.6.2.8 1 .8 1h-.6z" class="fil4"/><path id="_129312080" fill="#f8c300" d="M120 172c3.9-.2 7.1-1.4 7.1-1.4 2.2-1.3 2.1-1.9 2.1-1.9a16 16 0 01-9.5 2.7l.2.6z" class="fil5"/><path id="_129311432" fill="#f8c300" d="M122 169.4s-.2.8-.6 1c0 0-.7.2-.4-.4 0 0 .5-.3.6-1 0 0 .5-.3.4.4z" class="fil5"/><path id="_129310808" fill="#f8c300" d="M119 176.1c-.1 1.2.3 1.8.3 1.8.6.7.5 0 .5 0-.1-1-.9-1.8-.9-1.8z" class="fil5"/><path id="_129309960" fill="#f8c300" d="M121.8 178.5a4 4 0 00-1.4-.8c.4 1.6 1.5 1.5 1.5 1.5.6-.2-.1-.7-.1-.7z" class="fil5"/><path id="_129308032" fill="#f8c300" d="M126.1 176.2c-.3-.8-1-.5-1-.5.7.3.5.7.5.7-.6.6-2.2 0-2.2 0-1.8-.7-2.8-1.6-2.8-1.6l-1.6-1.2c1.8 0 3 .2 3 .2-1 .3-1.1.7-1.1.7.3.4.7.5.7.5 1.5-.6 2.5-.1 2.5-.1-.7.8-1.5.7-1.5.7 1.5.3 2.3-.2 2.3-.2.8-.6-.5-1-.5-1-1.4-.5-1.9-.1-1.9-.1.3-.7-.5-1.2-.5-1.2-1-.1-1.6.2-1.6.2-.4.2-.8 0-1 0a2 2 0 01-.7.5l-.1.5c-.3.6.6.6.6.6 0 1.5 2 1.5 2 1.5.7 1.7 2.5.7 2.5.7 2.7.7 2.4-1 2.4-1z" class="fil5"/><path id="_129307648" fill="#f8c300" d="M111.9 176.7a9 9 0 01-1.1-.4l-.3.1a9 9 0 002.6.8c1.4.6 1.8 1.5 1.8 1.5.7 1.5 1 1.8 1 1.8-.3-1.3.5-1.3.5-1.3 2.1.1 3.6.6 3.6.6a7.8 7.8 0 00-3.5-1.6c-1-.6-1.7-1-2-1-1 0-2-.3-2.6-.5z" class="fil5"/><path id="_129300672" fill="url(#id6)" d="M113.8 173.7l-.1.4a8.5 8.5 0 00-.7-.3h.8z"/><path id="_129300288" fill="#007cc3" d="M115.7 171.2c-.7.2-1.3.1-1.6 0a2 2 0 00-.1-1.4c-.5-1-.3-1.8-.3-1.8.5-.5 1.2-.2 1.3-.1h1c-.6 1.6-.6 2.6-.3 3.3zm-2.9 2.6c1.3 0 2.7-.3 3.6-.6h.1v-.1h.1v-.1h.1v-.1h.1l.1-.2h.1a2 2 0 01-1-.9c.1.4.5.6.5.6-1.7.6-4.4.8-4.4.8 1-.2 1.8-1.4 1.8-1.4h2l-.2-.6c-.7.2-1.3.1-1.6 0v.2l-.1.1v.1l-.1.1v.1a4 4 0 01-.1.2h-.1v.1l-.8.7h-.1l-.8.4v.4l.8.2zm3.8-.8zm-2.5-1.7z" class="fil11"/><path id="_129299200" fill="#75c5f0" d="M111.2 170c1-1.9 1.5-2.2 1.5-2.2.6-.4 1.6-.6 1.6-.6h-.1l1 .2c.3.2.8.1 1 .1.7 0 1 .6 1 1 .1.8.3 1.1.3 1.1.5.6 1 .7 1 .7.8.5.7 1.3.5 1.6a2 2 0 01-1.4 1c-.7.2-1 .9-1 .9-.4 1.5-1.1 2-1.2 2-1.1 1-1.7.8-1.8.8-.5 0-.9 0-1.2-.2-.4 0-.6-.2-.6-.2l-.5-.2a3 3 0 00.2-.4c.3-.5.4-1 .5-1.6.7.1 2.5.5 3.1 1.4-.9.8-1.3.7-1.3.7s.4.1 1.3-.7c.1 0 .7-.4 1-1.8a2 2 0 011-.9c-.7-.3-2.4-1.3-1.1-4.7l-1-.1s-.8-.4-1.3.1c0 0-.2.8.3 1.8 0 0 .6 1-.4 2.4a4 4 0 01-1.6 1 2.3 2.3 0 000-.1v-.3c-.2-1.5-.7-2.9-.7-2.9h-.1z" class="fil3"/><path id="_129298088" fill="#007cc3" d="M116.6 173.9v-.1s.3-.7 1-.8c0 0 1-.2 1.4-1 .2-.4.3-1.2-.5-1.7l-.3-.1v-.1s2 1 1.7 2c0 0-.3 1.2-1.2 1.7 0 0-1 .7-1.2 1.8.1 1.3-1.2 1.4-1.2 1.4-2.7.6-5.4-.7-5.4-.7l.3-.4.1.1.5.2s.8.4 1.9.4h-.1s.7.2 1.9-.9c0 0 .7-.3 1-1.8z" class="fil11"/><path id="_129297296" fill="url(#id5)" d="M115.5 175.3c-.6-1.1-2.8-1.6-3.5-1.7v.4c.7.1 2.6.5 3.2 1.5z"/><path id="_129295256" fill="#8f5444" d="M116 171.8c.1.4.5.6.5.6-1.7.6-4.4.8-4.4.8 1-.2 1.8-1.4 1.8-1.4h2z" class="fil4"/><path id="_129294872" fill="#f8c300" d="M116 171.9l.3.3-3.4.7.8-.8 2.3-.2z" class="fil5"/><path id="_129292656" fill="#f8c300" d="M127.4 162h.2c1.1 1.2.2 2.2.2 2.2 1.6.7-.4 2.6-.4 2.6.6 1.5-1.6 2-1.6 2-.9.5-1.5 2-1.5 2 .5-2.4 0-2.3 0-2.3-.7-1.9.6-2 .6-2-1-1.1-.7-1.8-.7-1.8a5.3 5.3 0 002.3-1.5c.4 1.7-.1 2.6-.1 2.6-.5-1-1-1.2-1-1.2l.4 2c-.6-.6-.8-.6-.8-.6 0 .8.4 1 .4 1-.4 1.1-.3 2-.3 2 .7-1 1.8-1.5 1.8-1.5-.7-.1-1.1.2-1.1.2 1.6-1.6 2.3-2.7 2.3-2.7l-1.5 1c.8-2 .8-3.5.8-3.5z" class="fil5"/><path id="_129291872" fill="#f8c300" d="M134.6 176.5zm0 0c-.9-.3-1.6-1.8-1.6-1.8 0 1.2.5 2 .5 2 .6.6 1.1-.2 1.1-.2z" class="fil5"/><path id="_129291184" fill="#8f5444" d="M138 164.9c.3-.2.4-.5.4-.5-.2-1.2.7-1 .7-1 1.6-.7 1 1 1 1 .4 1.4-1.3.6-1.3.6-.2.4-.7.6-1 .6l.2-.7z" class="fil4"/><path id="_129290536" fill="#f8c300" d="M140 164.4zm0 0c.2.5-.6.6-.6.6-1.2-.7-.3-1.4-.3-1.4 0 .4.8.8.8.8z" class="fil5"/><path id="_129290152" fill="#f8c300" d="M140 164.2zm0 0c.1-.5-.1-.7-.1-.7-.5-.3-.5 0-.5 0 0 .6.7.7.7.7z" class="fil5"/><path id="_129289768" fill="#f8c300" d="M134.2 166.7c-2.7-.7-5 2.1-5 2.1 1-2.6 4.2-2.6 4.8-2.6l.2.5z" class="fil5"/><path id="_129289384" fill="#f8c300" d="M128.2 171.7s.8 0 1 .4c0 0 .4.6-.2.4 0 0-.4-.4-1.2-.3 0 0-.3-.4.4-.5z" class="fil5"/><path id="_129288600" fill="#f8c300" d="M128.8 172.8s-.5.4-.8-.2c0 0 .5 0 .8.2z" class="fil5"/><path id="_129287976" fill="#f8c300" d="M132.1 173.5zm0 0c-1 1.4 0 2 0 2 .3-.9 0-2 0-2z" class="fil5"/><path id="_129285960" fill="#f8c300" d="M136.8 172.3s.2-.4.1-1c0 0 .2-1.1-1.8-.4 0 0-.8.6-1-.4 0 0 1-.6-.1-1.4 0 0-.2-.3-1.9.2 0 0-.7-.8-2.7 0l-.2.1s1 .2 1.4.7c0 0-.3.4.5.6 0 0 .5-.2 1 1 0 0 .6 2.4 1.6 1 0 0 1 3.1 2.2 1 0 0 .2.6 1.8.2 0 0 1.8-1-.2-1.5.5.7-.3 1-.3 1-1.7 0-2.6-1.1-2.6-1.1-1.6-1.8-3.4-2.6-3.4-2.6h2.6c-1 .3-.6.7-.6.7.5.9 1.6 1.2 1.6 1.2 1.5-.4 1.7.2 1.7.2-1.1 0-1.4.5-1.4.5 1.3.6 1.7 0 1.7 0z" class="fil5"/><path id="_129284784" fill="#f8c300" d="M137.7 166.6l-.1.5s1.5 1.2 3.7 2.1c0 0 1.5 1 1.6-.9 0 0 0-.2.4 0 0 0 .4.8 1.7.6 0 0 .7 0 .3-1.9 0 0 1.9 0 1.5-1.9a9.2 9.2 0 01-5.5 2.5l.8 1c-1.3-.4-2-1.2-2-1.2-1 0-1.6-.3-1.6-.3 1.7 0 2.9-.5 2.9-.5-.1.4-.5.6-.5.6 2.4-.4 2.8-1.6 2.8-1.6 0 .8-.3 1.3-.3 1.3 1.4-.5 1.3-.8 1.3-.8.5-1.6-.5-1.4-.5-1.4-.8.1-1 .5-1 .5-.4.8-.9.8-.9.8-.2-1-1-.7-1-.7a2 2 0 00-1.4 1.3c-.5.2-1 0-1 0h-1.2z" class="fil5"/><path id="_129279264" fill="#8f5444" d="M137.7 166.3zm0 .3l-.1.5s1.5 1.2 3.7 2.1c0 0 1.5 1 1.6-.9 0 0 0-.2.4 0 0 0 .4.8 1.7.6 0 0 .7 0 .3-1.9 0 0 1.9 0 1.5-1.9a9.2 9.2 0 01-5.5 2.5l.8 1c-1.3-.4-2-1.2-2-1.2-1 0-1.6-.3-1.6-.3 1.7 0 2.9-.5 2.9-.5-.1.4-.5.6-.5.6 2.4-.4 2.8-1.6 2.8-1.6 0 .8-.3 1.3-.3 1.3 1.4-.5 1.3-.8 1.3-.8.5-1.6-.5-1.4-.5-1.4-.8.1-1 .5-1 .5-.4.8-.9.8-.9.8-.2-1-1-.7-1-.7a2 2 0 00-1.4 1.3c-.5.2-1 0-1 0h-1.2zm0-.3c1-.2 1.5.1 1.5.1l.5-.1.4-.5c.7-1 1.5-1 1.5-1 .6.2.6.7.6.7 1.2-.7 1.2-1 1.2-1 1.4-.9 1.7.5 1.7.5.8-1.5 1.8-.4 1.8-.4 1 1.7-1.2 2.6-1.2 2.6l.1.3c1.4.4.9 1.5.9 1.5 0 1-2.2 1-2.2 1-1 2-2.8 0-2.8 0-1.4 1-2.5-.8-2.5-.8.2 1-.3.7-.3.7-.8 1.3-1.4 0-1.4 0-1-.7.3-1.4.3-1.4-.2-.6-.6-.6-.6-.6a5 5 0 00.5-1.6z" class="fil4"/><path id="_129278536" fill="#007cc3" d="M109.3 170.3c.3-.1 1-.4 1.4-.1 0 0 0-.2.6-.3 0 0 1.9 4.5-.4 6.4 0 0-.7.5-1.4 0h-.2v-6z" class="fil11"/><path id="_129280168" fill="url(#linearGradient2682)" d="M96 120.5l.6.4h3.5s0-.3-.3-.7c-1.5 1-3.4.4-3.5.4H96zm3.2-.4l-.7.2.7-.2z" class="fil10"/><path id="_129279784" fill="#007cc3" d="M93.5 117.6c-.9 1.5-2.1 1.6-2.1 1.6L89 118h.4c.2-.1 1.4-.7 1.4-2.3v-.2h.4a3 3 0 012.1 1.3l.3.7zm-2.7-2zm2.8 1.8z" class="fil11"/><path id="_129277920" fill="#75c5f0" d="M96.5 116.5s-.2-1.7-2.7-2.4l-.5.1s-.8.6-2 1l-.1-.1-.7.1c-.2.2 0 .6 0 .6 0 1.4-1.2 1.8-1.2 1.8h-.5c-.2 0-.3-.4-.3-.5 0-.1-.2-.6 0-.8.1-.1.3-.2.6-.1l.4.3v.6h.5c.2-.2.3-.5.4-.9h-.7c-.2-.3-.5-.4-.5-.4-.5 0-.8 0-1 .2-.3.4-.1 1.1 0 1.2 0 0 0 .6.5.8h.7s1.4-.6 1.4-2.3v-.2h.3s1.5.2 2.2 1.3l.4.9a3.3 3.3 0 000 .4c.1 0 .8 2.3 2.6 2.5.1 0 2 .5 3.5-.4v-.2h-.1v-.1a4 4 0 01-.2 0c-.5 0-2.1-.5-3-3.4z" class="fil3"/><path id="_129275352" fill="#007cc3" d="M89.2 118c.5 0 .9-.4 1-.7a2.3 2.3 0 01-1 .7z" class="fil11"/><path id="_129275088" fill="#007cc3" d="M89.6 117s-.9 1.2 0 0l-.2-.1c.1-.2.2-.3.1-.4 0-.2-.3-.3-.4-.3a1 1 0 00-.4 0l-.2.1c-.2.2 0 .7 0 .8 0 .1.1.4.3.5h.5s.4-.1.7-.5h-.4z" class="fil11"/><path id="_129274400" fill="url(#id2)" d="M81.1 117.3c.5 0 .5.5.5.5-.2.6-1.2.2-1.2.2l.7-.7z"/><path id="_129274016" fill="url(#id3)" d="M80.9 117c-.9-.3-.5.4-.5.4.5.1.5-.3.5-.3z"/><path id="_129271712" fill="#8f5444" d="M83.7 120zm0 0c.6-1.4.9-1.4.9-1.4h1c2.3-.4 1.1-2 1.1-2 2.8-1.4.7-2.4.7-2.4 2-2.2-.5-2.3-.5-2.3.2-1.8-1-2-1.9-1.6-.7.4-1.1 1.2-1.1 1.2-1.7-.7-1.4 2-1.4 2-2 .9-.4 3-.4 3-.6 1.2.3 2.1.3 2.1-.6 0-.8-.4-.8-.4.7-1.1-.6-1.2-.6-1.2-.8-.8-1 .6-1 .6-.3 1 1.1 1 1.1 1 .7 1 1.4.9 1.4.9 0 1.3.5 1.9.5 1.9.1.7-.2 1.2-.2 1.2-.2-2.6-1.6-1.5-1.6-1.5 0-2.7-1.5-1.8-1.5-1.8 0-1.5-1.3-1.5-1.3-1.5-1.3.8-.5 2.3-.5 2.3-2.4-1-1.7 1.7-1.7 1.7.2.5.7.7.7.7-1.2 2 1.7 1.9 1.7 1.9 0 1.7 1.8 1 1.8 1 .6-.1 1 .3 1 .3l.5.3h.8c1 0 1 1 1 1 .4 0 .8 0 1.2-.2.4-1.2 1.1-1.5 1.1-1.5l1.4-.1c1.5-.1.7-1.7.7-1.7a2 2 0 001.8-.9V121h.3c-.2-1.6-1.5-.9-1.5-.9-.1-1.7-1.1-1.6-1.7-1.2-.3.1-.4.6-.4.6-1.7.2-1.3 1.8-1.3 1.8-2 .3-1.2 2-1.2 2 .3.7.2 1 .2 1-.7-.8-.5-1.6-.5-1.6.2-1.2 0-1.5 0-1.5-.1-.6.5-.6.5-.6.4.8.8 0 .8 0 1.1-.9 0-1.2 0-1.2-.8-.8-.9.4-.9.4-.5 0-.5.2-.5.2z" class="fil4"/><path id="_129273120" fill="#f8c300" d="M86.1 112.5s1.7 1.1-.6 2.3c0 0-.4 0-.2.5 0 0 1.6 1.2-1.2 2.3 0 0-1.2.5-.6 2.4 0 0 .6 2 .3 4.2 0 0-.4 0-.2-1 0 0 0-1-.3-2.2 0 0-1.2-1.7-.8-4.7 0 0-1.5-1.7.3-2.5 0 0-.3-1 0-1.6 0 0 .3-.9 1.4-.3 0 0 .2.8-.1 2-.6-.8-.6-1.6-.6-1.6-.7 1.3 0 2.4 0 2.4.4 1 0 1.3 0 1.3l-.8-1c.5 1.5.4 3.4.4 3.4 1-4.1 2-4.4 2-4.4-.5-.2-.8 0-.8 0 1-2.4 2-3.4 2-3.4.6 1-.2 1.9-.2 1.9z" class="fil5"/><path id="_129269280" fill="#f8c300" d="M82.7 125.5c1.1.2 1.4 1.5 1.4 1.5.4 0 .6-.2.6-.2.2-1.5 1.4-2 1.4-2 1.2-.8.5-1.3.5-1.3 1.8-.9 2-1.8 2-1.8.4-.7-.5-.8-.5-.8.7-1.6-.6-2-.6-2 .3 1.9-1.2 3.4-1.2 3.4-.9 1.3-1.6 3-1.6 3 .5-2 .3-2.9.3-2.9.4.3.5.7.5.7 1-1.8.6-3 .6-3 .7.5.6 1.2.6 1.2.4-1.5-.8-1.5-.8-1.5-.7.5-.2 1.6-.2 1.6.3.6-.2.3-.2.3-.9-.6-1 .1-1 .1-.4.7 0 1.6 0 1.6.1.9-.1 1.2-.1 1.2-.4.6-.2 1.5-.2 1.5-.7-1.5-1.2-1.7-1.2-1.7s-.4-.5-.5-1.7c0 0 .2-.7-.3-1.4 0 0-.4-.4-1 .2 0 0-.3.5-.3 0 0 0 0-.6-.2-1.1 0 0-.8-1.4-1.4-.8 0 0 .2 1.5 1.8 3.2 0 0 0-.7.6-1.2 0 0 0 1.2 1 3 0 0-2.4-2.4-4.6-3.4 0 0 .5-.3 1.1-.1-.9-1.7-.8-2.8-.8-2.8-.6.8-.1 2-.1 2-1.2 1.2.7 2 .7 2 1.1.6.9.7.9.7-.5 1.2.9 1.3.9 1.3 1.2.3 1.2.8 1.2.8.1.5.8.4.8.4z" class="fil5"/><path id="_129268328" fill="#8f5444" d="M81 139.5l.1-1.3s.4-1.2-1.5-1.1c0 0 .3-.7 0-1.6 0 0-.4-1-1.4-.2 0 0 .2-.9-1-1.3 0 0-1.4-.1-1 2 0 0-.8-.2-1 .6 0 0-.7-1.2-1.8-.7 0 0-1.5 1.6 1 3.1 0 0-1 1.9 2 2 0 0 .5 1 2 .7 0 0 1.1-.5 1.9.6 0 0 0 .3.4.8 0-1.2 0-2.4.2-3.3l.1-.3z" class="fil4"/><path id="_129267272" fill="#f8c300" d="M75.1 137s0-.5.5-.7c0 0 1-.3 1.9 1.6 0 0 .7-1 1.5.2 0 0 .3.6.3 1 0 0 1 .4 1.4 2.7v.3c-.2-.4-.7-1-2-.8 0 0-1.8.6-2.1-.8 0 0-2.9.5-1.6-1.7 0 0-2.2-1.2-1.4-2.5a8 8 0 003.3 3c2.3 1 3.1 1.5 3.1 1.5-.1-.7-.6-.9-.6-.9-.7-.4-1-1.1-1-1.1a1 1 0 000 .8c-1.9-1.3-2.2-2.5-2.2-2.5a3 3 0 00.2 1.7c-1.3-1-1.3-1.8-1.3-1.8z" class="fil5"/><path id="_129266344" fill="#f8c300" d="M77.6 136.4zm0 0c.1-1.3-.5-2.2-.5-2.2-.8 1.2.5 2.2.5 2.2z" class="fil5"/><path id="_129265960" fill="#f8c300" d="M78.8 135.4c0 1.8.6 1.5.6 1.5.2-1.7-.6-1.5-.6-1.5z" class="fil5"/><path id="_129265248" fill="#007cc3" d="M85.5 147c-.1 0-.2 0-.2-.2l-.1.1-.5-.5.1-.1-.1-.2c-.6.6-.8 1.4-.8 1.4a7.7 7.7 0 00-.6 2.6l.3-.4h.2l.3-.1c1.3-1 .8-1.8.8-1.8.1-.4.3-.6.6-.7z" class="fil11"/><path id="_129264584" fill="#007cc3" d="M86.3 148.4l-.1-.2-.5.5-.1-.8a4 4 0 01-1.3 1.8c.8-.4 1.5-.9 2-1.3z" class="fil11"/><path id="_129263960" fill="#007cc3" d="M87.1 149.7l-.1-.2h-.3v.2z" class="fil11"/><path id="_129263576" fill="#007cc3" d="M83 152c.4.5.9.8.9.8 2 1.3 2.6 2.8 2.8 3.9 1-1.5 1.6-3 1.6-3s.2-1.6-.5-2.3l.2-.1c-.5.1-1.1-.2-1.1-.2-.5 1.5-2 .5-2 .5-.8-.5-1.3-.2-1.3-.2l-.7.5z" class="fil11"/><path id="_129262296" fill="#007cc3" d="M84.2 141.4c-2 1.8-2.9 3.7-3.1 4.4v.5s1.5-.2.7 2.2c0 0-.1.4.4 1.2v.1h.2c0-.2.2-.5.1-1 0 0-.3-.7.4-1.9 0 0 .5-1.1-.4-2.3l.2-.3.3.2c.3.3 0 0 0 0v-1s.3-.6.9-1.1c0 0-.2.4-.1 1.2 0 0 .3.3.3 1.3 0 0 0 .5.2.1 0 0 .2 0 0-.7l.1-1.1s.4.1.2-1l-.4-.8z" class="fil11"/><path id="_129258872" fill="#007cc3" d="M85.8 125.5c-.3.2-.6.6-.9 1.3l.6-.4h.4c-.2 1.8 0 3 0 3.6l.4-.7s1.1-2.9-.6-3.6zm-3.4 2zm0 0zm0 0zm0 0zm-.3-1.5l.2.1v.2c-.2 0-.4.3-.3.5l.5.2s.5.2 1.2 0c0 0 0-1-1-1h-.6z" class="fil11"/><path id="_129243192" fill="#75c5f0" d="M82.1 127.4a1 1 0 01-.6-.5c0-.2 0-.6.4-1l.4.2v.2c-.2 0-.4.3-.3.5l.5.2s.5.2 1.3 0h.7v-.1h.2l.1-.1h.1l.6-.4h.4c-.2 1.8 0 3 0 3.6l-.2.4a2 2 0 01-.5.4l-.5.1H84c-.5 0-.3-.3-.3-.3l-.2-.6v-.3c0-.7-.4-1-.7-1.1l-.8-1.2z" class="fil3"/><path id="_129245608" fill="#75c5f0" d="M88.8 135.6c-.2 1.7-.7 2-.7 2-.4-.6-1-.5-1.3-.2-.4.4-.4 1-.4 1-2-1.2-1.3 2-1.3 2-1-.2-1 .5-.9 1-2 1.8-2.9 3.7-3.1 4.4v-.4 1c0-.1.1-1.2-.4-1.7 0-1.5 0-3.6.2-5 0 0 .8-2 2.2-3.3 0 0 2.5-1.9 2.4-3.8 0 0-.4-1.1.8-3.3 0 0 1.1-2.9-.6-3.6l.2-.3c.8.3 1.1 1.1 1.1 1.9v-.3c.7 1.2.9 1.3.9 1.3 1.2 1.4.5 3.4.5 3.4.5 1.8.4 3.9.4 3.9z" class="fil3"/><path id="_129252464" fill="#75c5f0" d="M88.5 154.4l.1-.1s-.6 2.3.2 5.3c0 0 .6.5-.7 2.2l-2.5 3.1s-2.2 1.6-1 4h-.4l-.5.3v.3c-.2.6.3 1 .3 1h-1.4A20 20 0 0181 167l-.2-.8c-.6-1.6 0-3.3 0-3.4.1-1.7 3.4-3.9 3.6-4 2.5-1.4 4-5.1 4-5.2v.1s0-1.6-.6-2.3l.4-.3c.7.8.6 2.6.6 2.6v.1l-.3.6z" class="fil3"/><path id="_129251360" fill="#8f5444" d="M77 131s.4-1 1.8 0c0 0-.4-.4-.1-1.6 0 0-1.3-.6-.8-2.3 0 0 .3-1.3 2 .6 0 0 1-1 2 1 0 0 1.5-.8 1.7 1 0 0-.3 1.4.8 2 0 0 .1-.1.6.2l-.3-1s.4 0 1-.4l-.3 1.6v.5a2.5 2.5 0 01-.3 1.4s-1.2-.7-2.2 0c0 0-1.4 1-1.7 0 0 0-2.2 1.2-2.5-.7 0 0-2.2-.3-1.7-2.2z" class="fil4"/><path id="_129250976" fill="#8f5444" d="M84.7 134.8c-.4-.2-.6 0-.6 0-1.3-1-1.7.4-1.7.4-.6 1 .7 1.1.7 1.1s-.2 0 0 0a8 8 0 001.6-1.5z" class="fil4"/><path id="_129241112" fill="#8f5444" d="M83.6 149.7l.7-.6c.4-2.7 1.7-2.2 1.7-2.2.3-2 1.8-1.2 1.8-1.2 1.2-1.5 1.9-.2 1.9-.2l.2.8v3.1l-.3.3c-.7.8-1 .4-1 .4 0 .6-.1 1-.4 1l-.2.2c-.5.1-1.1-.2-1.1-.2-.5 1.5-2 .5-2 .5-.8-.5-1.3-.2-1.3-.2-1.8 1-1.5 3-1.5 3 .4.6.5 1.4.5 1.4l.8.5c.5 0 .4-.4.4-.4-1-1 .3-1.3.3-1.3 1.2-1 1.2.5 1.2.5.7 1-.8 1-.8 1-.3.6-.6.8-.6.8.4.7.4 1.2.4 1.2l.3.6-.2.1-1 .7c-.3-.4-.5-.4-.5-.4-.5-.2-.5.1-.5.1-.5.7-1 .5-1 .5-.5 0-.4.6-.4.6-.7 1.6-1.7.7-1.7.7-.5.8-1.2 1.1-1.7 1-.5 0-.7-.6-.7-.6-3 .4-2.6-1.6-2.6-1.6.3-1.1 1.5-.4 1.5-.4-.4-1.6 2.1-1.2 2.1-1.2.3-1.6 2.2-.5 2.2-.5l.4.2c.9.4 1.1 0 1.1 0 .8-.3 1-.1 1-.1 0-.6-1-1-1-1-.7-.4-1.2 0-1.2 0-2 1.2-2.5-.4-2.5-.4-3 .7-2.2-1.3-2.2-1.3-1.8-.2-1.6-1.5-1.6-1.5.2-1.6 1.7-.9 1.7-.9-.7-2.3.6-1.9.6-1.9.8.1 1.2.6 1.2.6 1.2-1 2 .5 2 .5.9-.2 1.4.7 1.4.7.2-.5.1-.8.1-.8-1.1-1.8-2.6-1.5-2.6-1.5-1 0-1.5-.4-1.7-.6l-.2-.2c-.1-.5 0-.8 0-.8-2-.5-1.8-1.4-1.8-1.4 0-1 .6-.9.6-.9-1.7-2-.3-2.6-.3-2.6.8-.4 1.4 1 1.4 1 .3-.2.6-.1.6-.1-.4-2.2 1-2.2 1-2.2 1.3.2 1.3 1.5 1.3 2h-.2c-.1.3-.2-.1-.2-.1.3-2.1-1-1.7-1-1.7v.1c0 2.5 1.8 4.4 1.8 4.4a8.2 8.2 0 011.6 3.2c-1-1.5-1.7-1.7-1.7-1.7.4-.2.7 0 .7 0-1-1.7-2.8-2.2-2.8-2.2.7-.3 1.1 0 1.1 0-.5-1-.8-1-.8-1-2.1 1 .7 2.4.7 2.4-.4 1.4 1.5 2 1.5 2 2 1 1.4 3.7 1.4 3.7l.3.3c.6-2.4.6-3.5.5-4v-.2c.2-.1.3-.4.2-.9 0 0-.3-.7.4-1.9 0 0 .5-1.1-.4-2.3l.2-.3.3.2c.3.3 0 0 0 0v-1s.3-.6.9-1.1c0 0-.2.5-.1 1.2 0 0 .3.3.3 1.3 0 0 0 .5.2.1 0 0 .2 0 0-.7l.1-1.1s.4.1.2-1c0 0-1.3-2 .5-1.8 0 0-.8-3.2 1.3-2 0 0 0-.6.4-1 .5-.5 1.3-.5 1.6 1 0 0 .5 0 1.5.4v3c-.6.6-1.3.6-1.3.6 0 2-1.4 1.8-1.4 1.8-.8 1.2-1.4 1.2-1.4 1.2-1.5.4-1.9 2.1-1.9 2.1a7.7 7.7 0 00-.6 2.6l.3-.4zm-3.3-5.3c1 .3.8 2 .8 2s1.5-.3.7 2l.2 1h-.2c-.5-1-.2-1.5-.2-1.5.5-1.2-.4-1.4-.4-1.4-.2 0-.3.2-.3.2-.2.3-.2-.2-.2-.2 0-1.2-.2-1.8-.4-2z" class="fil4"/><path id="_129240144" fill="#f8c300" d="M78.3 127.3zm0 0c-1 .6.6 2 .6 2-.6 1 .1 1.6.1 1.6.9.4 1.6.3 1.6.3-.4 1.3 1 1.1 1 1.1 2-.2 3.4.6 3.4.6-.6-1.6-1.7-2-1.7-2 0-2.5-1.4-2-1.4-2-.4.4-.3 0-.3 0-.3-1.5-1.3-1.2-1.3-1.2-.6.2-.3.5-.3.5l.7 1.3c0-.6.2-1 .2-1a8.3 8.3 0 002.5 3.2c-3.8-2.1-5-4.4-5-4.4z" class="fil5"/><path id="_129239216" fill="#f8c300" d="M77.2 131zm0 0c-.2 2 1.3 1.4 1.3 1.4-.8-.3-1.3-1.3-1.3-1.3z" class="fil5"/><path id="_129238560" fill="#f8c300" d="M79 133v-.2l1.8.8c-.8 1.1-1.8-.6-1.8-.6z" class="fil5"/><path id="_129237872" fill="#f8c300" d="M82.8 135.1c0-.5.4-.5.4-.5.7.2.3 1.1.3 1.1l-.7-.6z" class="fil5"/><path id="_129236952" fill="#f8c300" d="M82.5 135.4c-.3.8.3.4.3.4.2-.5-.3-.4-.3-.4z" class="fil5"/><path id="_129236568" fill="#f8c300" d="M75.8 152zm0 0c1 .2 1.1.4 1.1.4-.5-.9-1-1.1-1-1.1-.2.2-.1.6-.1.6z" class="fil5"/><path id="_129235384" fill="#f8c300" d="M78 151.8zm0 0c0-.7.2-.6.2-.6 1.1.6 1 1.8 1 1.8-.5-.7-1.2-1.2-1.2-1.2z" class="fil5"/><path id="_129233576" fill="#f8c300" d="M77.2 153.5s.2-1.5 1.5 0c0 0 .3.4.4.2l.5-.4s.5-.5 1.2 1.2c0 0 .3-.1.8.5 0 0 .5.1 1.7 2.5 0 0-.2-.1-.6-.8 0 0-2.4-2.1-5.1-3.2 0 0 .7.2.5.9 0 0-1.7-1-3.3-.5 0 0 1.8.1 5.6 1.5 0 0-.7-.1-1.3.8 0 0 2-.7 3.3.3 0 0-1.1-.3-3 .3 0 0-1.5.5-1-1 0 0 .4-.6-.5-.1 0 0-1.8 1.4-2-.9 0 0-2.2 0-1.2-1.6 0 0 .8-.9 2.3.4l.2-.1z" class="fil5"/><path id="_129233192" fill="#f8c300" d="M84 154.8zm0 0c-.5.9.6 1 .6 1 .8-.3-.2-.8-.2-.8-.3-.4-.5-.2-.5-.2z" class="fil5"/><path id="_129027768" fill="#f8c300" d="M84.4 154.6zm0 0c.4 0 .6.3.6.3 0-.8-.6-.3-.6-.3z" class="fil5"/><path id="_129025264" fill="#f8c300" d="M77.7 159.7zm0 0c-2 .2-1.7-.8-1.7-.8 0-1 2-.6 2-.6.7-1.2 1.5-.6 1.5-.6 1.3.6 2.2.4 2.2.4 1.5-.2 2 .6 2 .6-1.4-.3-1.7.4-1.7.4-.2.4-.9.4-.9.4-.6 1-1 1.2-1 1.2-.5.4-.7-.4-.7-.4-.6 1-1 1-1 1-1 0-1.5-.4-1.5-.4-1.4.2-2.3-.9-2.3-.9 2.3.7 5-.8 5-.8 1-.5 2-.7 2-.7-1.5.1-2.6-.2-2.6-.2.2.3.6.5.6.5-1.5.4-3-.2-3-.2.3.7 1 1 1 1z" class="fil5"/><path id="_129024104" fill="#f8c300" d="M82.7 149.7zm0 0c.2-3.4.7-4.3.7-4.3.2-1 0-2.1 0-2.1.8 1.3.4 2.8.4 2.8 1-1 .8-1.6.8-1.6 0-1 .4-1.2.4-1.2.6-1 0-1.3 0-1.3-.8-1.5 1-1.2 1-1.2 0-2.5 1.6-1.2 1.6-1.2 1.2-1.6 2-.6 2-.6-1.7 1.2-2.1 2.5-2.1 2.5-.5-.6-.6-1.6-.6-1.6-.3 1.4-.2 1.6-.2 1.6.4 1.1-.2 1.4-.2 1.4-.3-.9-.6-.9-.6-.9.1 1.2-.5 2.3-.5 2.3 1-1.1 1.8-1 1.8-1 .9-.4 1.1-.8 1.1-.8-.2.7-.9 1-.9 1l-2.4 1.8c-.8.7-.7 1.1-.7 1.1-.2.7-.7.8-.7.8l-.9 2.5z" class="fil5"/><path id="_129023072" fill="#f8c300" d="M89.4 141.1s.7-.5 0 0zm0 0c-.7.6-2 1-2 1 1.2.1 2-.3 2-.3.3-.2.4-.5.5-.8v-.2z" class="fil5"/><path id="_129016528" fill="#f8c300" d="M82.5 151.8zm0 0c.8-1.9 1.6-2.2 1.6-2.2 1.3-1 .8-1.8.8-1.8.3-1 1.3-.7 1.3-.7.3-1.7 1.6-1.1 1.6-1.1 0 1.4-.6 1.6-.6 1.6.1-1-.3-1-.3-1-.4 1.6-1.2 2-1.2 2l-.1-.7a5 5 0 01-1.4 2c3.5-2 4.8-4 4.8-4 .2-.6-.2-.6-.2-.6.4-.1.7.4.7.4.2 1.6-1 2.2-1 2.2.9 1.2-.3 1.5-.3 1.5-1 .3-1.5 0-1.5 0-.2 1.8-1.3 1-1.3 1-1.7-.3-2.9 1.4-2.9 1.4z" class="fil5"/><path id="_129016264" fill="#87c3dd" d="M84.7 146.4l.3-.3.5.5-.3.3z" class="fil14"/><path id="_129018048" fill="#f8c300" d="M78 142.7v.1c0 2.5 1.8 4.4 1.8 4.4a8.2 8.2 0 011.6 3.2c-1-1.5-1.7-1.7-1.7-1.7.4-.2.7 0 .7 0-1-1.7-2.8-2.2-2.8-2.2.7-.3 1.1 0 1.1 0-.5-1-.8-1-.8-1-2.1 1 .7 2.4.7 2.4-.4 1.4 1.5 2 1.5 2 2 1 1.4 3.7 1.4 3.7l.3.3c1.3-5.2 0-4.5 0-4.5-.5-1-.2-1.5-.2-1.5.4-1.2-.4-1.4-.4-1.4-.2 0-.3.2-.3.2-.2.3-.2-.2-.2-.2 0-2.3-.8-2.3-.8-2.3-.6.1-.7.4-.7.4-.1.2-.2-.2-.2-.2.3-2.1-1-1.7-1-1.7z" class="fil5"/><path id="_129017784" fill="#f8c300" d="M76.2 146.3zm0 0c-1.1-1.5-1-2.2-1-2.2 1.1-.1 1.1.8 1.1.8-.2.7-.1 1.4-.1 1.4z" class="fil5"/><path id="_129015056" fill="#8f5444" d="M88.5 169h.4c-.2-.5-.8-1.5-1.8-1.8 0 0-1.9-.7-2.8-.1 0-.4.1-.7.3-1 .2 0 1.4 0 2-.4 0 0 .2-.8-.2-1.8a206.6 206.6 0 01.9-1l.4 2.6s.6 0 1 .5v-.7h.3s.4.5.5 1.7c0 0 .5.6.8 2.2.7.1 1.8.5 3 1 0 0-.3-.9-1.3-1.5 0 0-2.2-.8-1.2-2 0 0-2.5-2-.6-2.9 0 0-.8-1.5.3-2.3v-.5l.4.4 1.2 1.3.6.7 1 .5 1.2.5 1.1 1.2s0 .5-.5.8c0 0-.8 0-.5.8 0 0 .6 1.5-.5 3.3 0 0 1.7.9 4.5.6-.3.3-.5.7-.4 1l.1.3c-2.3-.1-5-.7-5-.7-2.3-1-3.4-1.3-3.4-1.3-.5.6 0 1 0 1 1 .2.6 1.2.6 1.2-.7.8-2 0-2 0-.4-.5.5-1.2.5-1.2-.2-.9.2-1.3.2-1.3s-1.7 0-1.3 1.8c0 0 .7 2.4-1.1 1.6l.1.9s.2 1.9-1.4 1.5c0 0 0 1-1.7 1.4 0 0-1.4.2-.9-2.4 0 0-.7 0-1-.8 0 0-.7.6-2 0 0 0-2.4-1.7 1.1-2.2 0 0-.2 0 0-.8 0 0-.4-.8 2.6-.6 0 0-.5-.4-.3-1 0 0-.3-.8 2.2-.5 0 0 .8-.9 2.6 0z" class="fil4"/><path id="_129230496" fill="#007cc3" d="M100.3 170.2l.6-.6s.2-.1.3-.5v-.3c-.6-.4-1.1-.3-1.1-.3-.8.5-1.4.7-2 .8v.3l-.3.5s0 .9-1 .4c0 0-.5.1-.7.5a10 10 0 002.9.1c.5-.6 1.4-1 1.4-1h-.1z" class="fil11"/><path id="_129009856" fill="#007cc3" d="M93.2 171.5l-.5-.2-1.3-.1-1.4-.2a.8.8 0 00.2.4c1.2.2.7 1.2.7 1.2-.7.8-2 0-2 0-.4-.5.5-1.2.5-1.2v-.5h-1l-.1.3v.7s.7 2.4-1.1 1.6l.1.9.4.1s3.3 1 5.6.8c-.4-1.6 2.4-1.3 2.4-1.3 0-1.2 1-1.2 1-1.2l1 .2c.4.4 1 .1 1.3 0a3 3 0 01-.3-.6c-2.3-.1-5-.7-5-.7l-.5-.2z" class="fil11"/><path id="_129009104" fill="#007cc3" d="M95 170.7l.4.1c.1-.1.3-.6.8-.8v-.6c-1 .3-1.5 1-1.5 1.1l.2.2z" class="fil11"/><path id="_128802480" fill="#8f5444" d="M103.9 176.2zm4.7.3a7 7 0 01-2.6 1.2c-1.5.5-2.1 2-2.1 2-1 1.5-1.6 1.2-1.6 1.2-2-.7-3.7-.7-3.7-.7-1.4 0-1.3-.3-1.3-.3a9 9 0 003-1.7c1-.7 1.8-.6 1.8-.6l.8-.5c2.5.3 4.8-.8 4.8-.8s.4.3 1 .2z" class="fil4"/><path id="_128800688" fill="#8f5444" d="M101 176c-.4.4-.8.3-.8.3.3 2.5-1.4 2.1-1.4 2.1-2 2.4-2.8.6-2.8.6-.1-.5.2-.9.2-.9-1 0-1.3-.6-1.3-.6-3.1.6-2.9-1.1-2.9-1.1 0-1 1.4-1 1.4-1-.7-1.7 2.3-1.4 2.3-1.4 0-1.2 1-1.2 1-1.2l1 .2c.4.3 1 .1 1.3 0l.8.8s1 .7 1.2 1.8v.4z" class="fil4"/><path id="_128800304" fill="#8f5444" d="M96 171zm0 0c.3-.4.7-.5.7-.5 1.2.5 1.1-.4 1.1-.4 1-1.5-.7-1.3-.7-1.3-1.3-.5-.9 1.2-.9 1.2-.6.2-.8 1-.8 1h.7z" class="fil4"/><path id="_128799120" fill="#f8c300" d="M98.6 172c-4-.2-7.2-1.4-7.2-1.4-2.1-1.3-2-1.9-2-1.9a19 19 0 006.2 2.5c1.1.2 2.3.2 3.2.2a1 1 0 00-.2.6z" class="fil5"/><path id="_128798472" fill="#f8c300" d="M96.5 169.4s.2.8.6 1c0 0 .7.2.4-.4 0 0-.5-.3-.5-1 0 0-.5-.3-.5.4z" class="fil5"/><path id="_128798088" fill="#f8c300" d="M99.6 176.1c0 1.2-.4 1.8-.4 1.8-.6.7-.5 0-.5 0 .1-1 .9-1.8.9-1.8z" class="fil5"/><path id="_128778224" fill="#f8c300" d="M96.7 178.5a4 4 0 011.4-.8c-.4 1.6-1.5 1.5-1.5 1.5-.6-.2.1-.7.1-.7z" class="fil5"/><path id="_128777976" fill="#f8c300" d="M92.4 176.2c.3-.8 1-.5 1-.5-.7.3-.5.7-.5.7.6.6 2.2 0 2.2 0 1.8-.7 2.8-1.6 2.8-1.6l1.6-1.2c-1.8 0-3 .2-3 .2 1 .3 1.1.7 1.1.7-.3.4-.7.5-.7.5-1.5-.6-2.5-.1-2.5-.1.7.8 1.6.7 1.6.7-1.6.3-2.4-.2-2.4-.2-.8-.6.5-1 .5-1 1.4-.5 1.9-.1 1.9-.1-.3-.7.5-1.2.5-1.2 1-.1 1.6.2 1.6.2.4.2.8 0 1 0l.7.5c0 .3.2.5.2.5.2.6-.7.6-.7.6 0 1.5-2 1.5-2 1.5-.7 1.7-2.4.7-2.4.7-2.8.7-2.5-1-2.5-1z" class="fil5"/><path id="_128403056" fill="#f8c300" d="M106.6 176.7a9 9 0 001.1-.4l.3.1c-1.4.7-2.6.8-2.6.8-1.4.6-1.8 1.5-1.8 1.5-.6 1.5-1 1.8-1 1.8.3-1.3-.5-1.3-.5-1.3-2.1.1-3.6.6-3.6.6a7.8 7.8 0 013.5-1.6c1-.6 1.7-1 2-1 1 0 2-.3 2.6-.5z" class="fil5"/><path id="_128301848" fill="url(#id1)" d="M104.7 173.7l.1.4a8.5 8.5 0 01.7-.3 9 9 0 01-.8 0z"/><path id="_128417128" fill="#007cc3" d="M102.8 171.2c.7.2 1.4.1 1.6 0a2 2 0 01.1-1.4c.5-1 .3-1.8.3-1.8-.5-.5-1.2-.2-1.3-.1h-1c.6 1.6.6 2.6.3 3.3zm2.9 2.6c-1.3 0-2.7-.3-3.6-.6l-.1-.1v-.1h-.1l-.1-.1h-.1l-.1-.2c.2-.1.6-.4 1-.9-.2.4-.6.6-.6.6 1.8.6 4.4.8 4.4.8-1-.2-1.8-1.4-1.8-1.4h-2l.2-.6c.7.2 1.4.1 1.6 0v.2h.1v.2l.1.1v.1l.1.1v.1a3.5 3.5 0 00.2.1c0 .2.3.4.7.7h.2l.7.4v.4l-.8.2zm-3.8-.8zm2.6-1.7z" class="fil11"/><path id="_129003112" fill="#75c5f0" d="M107.3 170c-1-1.9-1.5-2.2-1.5-2.2-.5-.4-1.5-.6-1.5-.6l-1 .2c-.3.2-.8.1-1 .1-.7 0-1 .6-1 1 0 .8-.3 1.1-.3 1.1-.5.6-1 .7-1 .7-.8.5-.7 1.3-.5 1.6a2 2 0 001.4 1c.7.2 1 .9 1 .9.4 1.5 1.1 2 1.2 2 1.1 1 1.8.8 1.8.8.5 0 1 0 1.2-.2.4 0 .6-.2.6-.2l.5-.2a2.4 2.4 0 01-.1-.4c-.3-.5-.5-1-.6-1.6-.6.1-2.5.5-3.1 1.4.9.8 1.3.7 1.3.7s-.4.1-1.3-.7c0 0-.7-.4-1-1.8a2 2 0 00-.9-.9c.6-.3 2.3-1.3 1-4.7l1-.1s.8-.4 1.3.1c0 0 .2.8-.3 1.8 0 0-.5 1 .4 2.4.1.2.8.7 1.6 1a3.9 3.9 0 010-.3v-.1c.2-1.5.7-2.9.7-2.9h.1z" class="fil3"/><path id="_128275976" fill="#007cc3" d="M102 173.9l-.1-.1s-.3-.7-1-.8c0 0-.9-.2-1.4-1-.2-.4-.3-1.2.5-1.7l.3-.1v-.1s-2 1-1.7 2c0 0 .3 1.2 1.2 1.7 0 0 1 .7 1.2 1.8 0 1.3 1.2 1.4 1.2 1.4 2.7.6 5.5-.7 5.5-.7l-.4-.4-.1.1-.5.2s-.7.4-1.9.4h.1s-.7.2-1.8-.9c0 0-.7-.3-1.2-1.8z" class="fil11"/><path id="_128322152" fill="url(#id0)" d="M103 175.3c.7-1.1 2.8-1.6 3.5-1.7v.4c-.7.1-2.6.5-3.2 1.5z"/><path id="_128305080" fill="#8f5444" d="M102.6 171.8c-.2.4-.6.6-.6.6 1.7.6 4.4.8 4.4.8-1-.2-1.8-1.4-1.8-1.4h-2z" class="fil4"/><path id="_128304552" fill="#f8c300" d="M102.5 171.9l-.3.3 3.5.7-.9-.8-2.3-.2z" class="fil5"/><path id="_128303352" fill="#f8c300" d="M91.1 162H91c-1.1 1.2-.2 2.2-.2 2.2-1.6.7.5 2.6.5 2.6-.7 1.5 1.5 2 1.5 2 1 .5 1.6 2 1.6 2-.6-2.4 0-2.3 0-2.3.6-1.9-.6-2-.6-2 .9-1.1.6-1.8.6-1.8a5.3 5.3 0 01-2.2-1.5c-.5 1.7 0 2.6 0 2.6.5-1 1-1.2 1-1.2l-.4 2c.6-.6.8-.6.8-.6 0 .8-.4 1-.4 1 .4 1.1.3 2 .3 2a4.5 4.5 0 00-1.8-1.5c.7-.1 1.1.2 1.1.2-1.6-1.6-2.3-2.7-2.3-2.7l1.5 1c-.8-2-.7-3.5-.7-3.5z" class="fil5"/><path id="_128302776" fill="#f8c300" d="M83.9 176.5zm0 0c.9-.3 1.6-1.8 1.6-1.8 0 1.2-.5 2-.5 2-.6.6-1.1-.2-1.1-.2z" class="fil5"/><path id="_128302512" fill="#8f5444" d="M80.5 164.9c-.3-.2-.4-.5-.4-.5.2-1.2-.7-1-.7-1-1.6-.7-1 1-1 1-.4 1.4 1.3.6 1.3.6.2.4.7.6 1 .6l-.2-.7z" class="fil4"/><path id="_128301328" fill="#f8c300" d="M78.6 164.4zm0 0c-.3.5.5.6.5.6 1.2-.7.3-1.4.3-1.4 0 .4-.8.8-.8.8z" class="fil5"/><path id="_128300728" fill="#f8c300" d="M78.5 164.2zm0 0c-.1-.5.1-.7.1-.7.5-.3.5 0 .5 0 0 .6-.6.7-.6.7z" class="fil5"/><path id="_128331640" fill="#f8c300" d="M84.3 166.7c2.7-.7 5.1 2.1 5.1 2.1-1.1-2.6-4.2-2.6-4.9-2.6l-.2.5z" class="fil5"/><path id="_128331272" fill="#f8c300" d="M90.3 171.7s-.8 0-1 .4c0 0-.4.6.2.4 0 0 .4-.4 1.2-.3 0 0 .3-.4-.4-.5z" class="fil5"/><path id="_127844600" fill="#f8c300" d="M89.7 172.8s.6.4.9-.2l-1 .2z" class="fil5"/><path id="_128279648" fill="#f8c300" d="M86.4 173.5zm0 0c1 1.4 0 2 0 2-.3-.9 0-2 0-2z" class="fil5"/><path id="_127980104" fill="#f8c300" d="M81.7 172.3s-.2-.4-.1-1c0 0-.2-1.1 1.9-.4 0 0 .8.6.9-.4 0 0-1-.6.1-1.4 0 0 .2-.3 1.9.2 0 0 .7-.8 2.7 0l.2.1s-1 .2-1.4.7c0 0 .3.4-.5.6 0 0-.5-.2-1 1 0 0-.6 2.4-1.6 1 0 0-1 3.1-2.2 1 0 0-.2.6-1.8.2 0 0-1.8-1 .2-1.5-.5.7.3 1 .3 1 1.7 0 2.6-1.1 2.6-1.1 1.6-1.8 3.4-2.6 3.4-2.6h-2.6c1 .3.6.7.6.7-.5.9-1.6 1.2-1.6 1.2-1.5-.4-1.7.2-1.7.2 1.1 0 1.5.5 1.5.5-1.4.6-1.8 0-1.8 0z" class="fil5"/><path id="_127979672" fill="#f8c300" d="M80.8 166.6l.1.5s-1.5 1.2-3.7 2.1c0 0-1.4 1-1.6-.9 0 0 0-.2-.4 0 0 0-.4.8-1.6.6 0 0-.8 0-.4-1.9 0 0-1.9 0-1.5-1.9a9.2 9.2 0 005.5 2.5l-.8 1c1.3-.4 2-1.2 2-1.2 1.1 0 1.6-.3 1.6-.3-1.7 0-2.9-.5-2.9-.5.1.4.5.6.5.6-2.3-.4-2.8-1.6-2.8-1.6 0 .8.3 1.3.3 1.3-1.4-.5-1.3-.8-1.3-.8-.5-1.6.5-1.4.5-1.4.8.1 1 .5 1 .5.4.8.9.8.9.8.2-1 1-.7 1-.7a2 2 0 011.4 1.3c.5.2 1 0 1 0h1.2z" class="fil5"/><path id="_127979440" fill="#8f5444" d="M80.8 166.3zm0 .3l.1.5s-1.5 1.2-3.7 2.1c0 0-1.4 1-1.6-.9 0 0 0-.2-.4 0 0 0-.4.8-1.6.6 0 0-.8 0-.4-1.9 0 0-1.9 0-1.5-1.9a9.2 9.2 0 005.5 2.5l-.8 1c1.3-.4 2-1.2 2-1.2 1.1 0 1.6-.3 1.6-.3-1.7 0-2.9-.5-2.9-.5.1.4.5.6.5.6-2.3-.4-2.8-1.6-2.8-1.6 0 .8.3 1.3.3 1.3-1.4-.5-1.3-.8-1.3-.8-.5-1.6.5-1.4.5-1.4.8.1 1 .5 1 .5.4.8.9.8.9.8.2-1 1-.7 1-.7a2 2 0 011.4 1.3c.5.2 1 0 1 0h1.2zm0-.3c-1-.2-1.5.1-1.5.1l-.5-.1-.4-.5c-.7-1-1.5-1-1.5-1-.6.2-.6.7-.6.7-1.2-.7-1.2-1-1.2-1-1.4-.9-1.6.5-1.6.5-1-1.5-1.9-.4-1.9-.4-1 1.7 1.2 2.6 1.2 2.6l-.1.3c-1.4.4-.9 1.5-.9 1.5.1 1 2.2 1 2.2 1 1 2 2.9 0 2.9 0 1.3 1 2.4-.8 2.4-.8-.2 1 .3.7.3.7.8 1.3 1.5 0 1.5 0 .9-.7-.4-1.4-.4-1.4.2-.6.6-.6.6-.6-.4-.8-.5-1.6-.5-1.6z" class="fil4"/><path id="_127979120" fill="#007cc3" d="M109.3 170.3c-.4-.1-1-.4-1.5-.1 0 0 0-.2-.6-.3 0 0-1.8 4.5.5 6.4 0 0 .6.5 1.3 0h.3v-6z" class="fil11"/><path id="_127978160" fill="#8f5444" d="M109.3 102.3c.6 0 1.2.6 1.2 1.3 0 .6-.6 1.2-1.2 1.2-.7 0-1.3-.6-1.3-1.2 0-.7.6-1.3 1.3-1.3z" class="fil4"/><path id="_127982496" fill="#f8c300" d="M109.3 103c.3 0 .5.3.5.6s-.2.5-.5.5a.6.6 0 01-.6-.5c0-.3.2-.6.6-.6z" class="fil5"/><path id="_128309840" fill="#f8c300" d="M97.2 112.6l-1.6-1c0 .3.2.5.3.7l1 1 .8.1a20 20 0 01-.5-.8zm-1.7-1a8 8 0 01-.8-.7c.3 2.1 1.2 2.3 1.2 2.3" class="fil5"/><path id="_128322376" fill="#605d5c" d="M101.4 132c.1 0 .3-.2 0-.3-.2.2-.2.5-.3.8-.4 1 1.6.3 1-.3-.1-.2-.4-.2-.7-.1zm-.2.7l.2-.4c.5.3.2.5-.2.4z" class="fil7"/><path id="_128316960" fill="#605d5c" d="M100.2 128.3c.4.5.8 1.4 1 2l.2-.5-.2-.4v-.2l-.4-.6-.5-.6v.3z" class="fil7"/><path id="_127987608" fill="#f8c300" d="M108.4 110h.3c0-.2-.1-.1-.1-.1.7-.3 1.2-.2 1.4 0l.3-4a2.5 2.5 0 01-2 0l.1 4.1z" class="fil5"/><path id="_128267520" fill="#8f5444" d="M109.7 107v.3l-.2.2h-.4a.4.4 0 01-.2-.4v-.5c.2-.2.4-.2.6-.1.2 0 .2.3.2.4z" class="fil4"/><path id="_128781280" fill="#8f5444" d="M109.7 108v.5c-.1.2-.4.2-.6.1a.4.4 0 01-.2-.4h.1c.2.2.5 0 .6-.1v-.1z" class="fil4"/><path id="_128310776" fill="#8f5444" d="M109.5 107.5c.2.1.3.4.1.6-.1.2-.4.3-.6.1-.2 0-.2-.3 0-.5 0-.2.3-.3.5-.2z" class="fil4"/><path id="_128325520" fill="#8f5444" d="M109.7 109.2v.5h-.7c-.1 0-.2-.2-.1-.3v-.5c.2-.2.4-.3.6-.1.2 0 .3.2.2.4z" class="fil4"/><path id="_128311424" fill="#f8c300" d="M128.9 156.7v-36.3H89.7v37.4c.4 6.4 7.3 7.1 7.3 7.1 6.5.2 9.4 0 9.4 0 2.7 0 2.9 2.8 2.9 3 0-.2.2-3 2.9-3 0 0 2.9.2 9.4 0 0 0 7-.7 7.3-7v-1.2zm-.7.1v-35.7H90.4V158c.3 5.8 7 6.5 7 6.5 6.3.2 9.1 0 9.1 0 2.6 0 2.8 2.6 2.8 2.8 0-.2.2-2.8 2.8-2.8 0 0 2.8.2 9 0 0 0 6.8-.7 7.1-6.5v-1.1z" class="fil5"/></g></g></g></svg>