<svg xmlns="http://www.w3.org/2000/svg" xmlns:xlink="http://www.w3.org/1999/xlink" viewBox="0 0 600 400"><defs><linearGradient id="m" x1="1012.6" x2="1033.6" y1="255.4" y2="255.4" gradientTransform="scale(.5244 1.90693)" gradientUnits="userSpaceOnUse"><stop offset="0%" stop-color="#688"/><stop offset="100%" stop-color="#ded"/></linearGradient><linearGradient id="f"><stop offset="0%" stop-color="#fc3"/><stop offset="15%" stop-color="#e90"/><stop offset="55%" stop-color="#fe4"/><stop offset="90%" stop-color="#e81"/></linearGradient><linearGradient id="a"><stop offset="0%" stop-color="#9ba"/><stop offset="100%" stop-color="#fff"/></linearGradient><linearGradient id="b"><stop offset="0%" stop-color="#fff"/><stop offset="100%" stop-color="#7a9"/></linearGradient><linearGradient id="c" x1="0" x2="0" y1="0" y2="1" gradientUnits="objectBoundingBox"><stop offset="0%" stop-color="#8aa"/><stop offset="100%" stop-color="#eee"/></linearGradient><linearGradient id="g" x1="0" x2="0" y1="0" y2="1" gradientUnits="objectBoundingBox"><stop offset="0%" stop-color="#d70"/><stop offset="100%" stop-color="#f91"/></linearGradient><linearGradient id="d" x1="0" x2="0" y1="0" y2="1" gradientUnits="objectBoundingBox"><stop offset="0%" stop-color="#fe9"/><stop offset="25%" stop-color="#d80"/><stop offset="65%" stop-color="#fe5"/><stop offset="85%" stop-color="#c70"/><stop offset="100%" stop-color="#e80"/></linearGradient><linearGradient id="l" x1="107.9" x2="-67.9" y1="2647" y2="2822.8" gradientTransform="scale(5.0228 .1991)" gradientUnits="userSpaceOnUse"><stop offset="0%" stop-color="#699"/><stop offset="100%" stop-color="#eee"/></linearGradient><linearGradient id="h"><stop offset="0%" stop-color="#d81"/><stop offset="100%" stop-color="#fd4"/></linearGradient><linearGradient id="i" x1="0" x2="0" y1="0" y2="1" gradientUnits="objectBoundingBox"><stop offset="0%" stop-color="#ec5"/><stop offset="100%" stop-color="#fe9"/></linearGradient><linearGradient id="j" x1="0" x2="0" y1="0" y2="1" gradientUnits="objectBoundingBox"><stop offset="0%" stop-color="#a81"/><stop offset="100%" stop-color="#ffa"/></linearGradient><linearGradient id="n" x1="160.1" x2="227.2" y1="1767.6" y2="1767.6" gradientTransform="scale(3.3541 .29814)" gradientUnits="userSpaceOnUse" xlink:href="#a"/><g id="k"><path fill="#fff" d="M434 195l19 17L622 37 479 234l19 15-667 759-31 10 4-33z"/><path fill="url(#a)" d="M464 226L622 37 479 234z"/><path fill="url(#b)" d="M491 250l7-1-667 759-3-3z"/><path fill="url(#c)" d="M460 230l31 20-663 755-28 13z"/><path fill="#a99" d="M-172 1005l3 3-31 10z"/></g><g id="o"><path fill="url(#d)" d="M207 371c57 0 36-122 30-151-12-49-8-61-8-185 0-31-44-31-44 0 0 124 4 136-8 185-6 29-27 151 30 151z"/><path fill="url(#e)" d="M207 360c44 0 31-96 24-124-12-49-8-77-8-201 0-21-32-21-32 0 0 124 4 152-8 201-7 28-20 124 24 124z"/><path fill="url(#f)" d="M92 100h260V89c-67 0-91-34-101-56H91z"/><path fill="url(#g)" d="M92 92h260v8H92z"/><path fill="url(#h)" d="M92 100l8-8V42l-8-10z"/><path fill="url(#i)" d="M92 32h159l-6 10H100z"/><path fill="url(#j)" d="M352 92v-3c-67 0-91-34-101-56l-6 9c2 6 26 43 69 50z"/></g><radialGradient id="e" cx="207" cy="292" r="300" gradientUnits="userSpaceOnUse"><stop offset="0%" stop-color="#fe9"/><stop offset="10%" stop-color="#fd5"/><stop offset="33%" stop-color="#d60"/><stop offset="100%" stop-color="#fc1"/></radialGradient></defs><g transform="matrix(.30785 0 0 .30817 234.9 33.3)"><path fill="red" d="M-763-108h1949v1298H-763z"/><use width="100%" height="100%" xlink:href="#k"/><use width="100%" height="100%" transform="matrix(-1 0 0 1 420 0)" xlink:href="#k"/><path fill="#fff" d="M-341 527l44 27 839 13v-20l220-20-220-18v-21l-839 13z"/><path fill="url(#l)" d="M-341 527h872l11 35-837-13-2 5z"/><path fill="#ced" d="M537 527l5 20v20l-2-6-9-34z"/><path fill="url(#m)" d="M537 527l5-18v-22l-11 40z"/><path fill="url(#n)" d="M537 527h225l-220 20z"/><path fill="#588" d="M540 561l2 6-839-13 2-5z"/><use width="100%" height="100%" xlink:href="#o"/><use width="100%" height="100%" y="740" xlink:href="#o"/></g></svg>