<svg xmlns="http://www.w3.org/2000/svg" width="600" height="400"><path fill="#d20000" d="M0 0h600v400H0z"/><path fill="gold" d="M0 0h166.7v400H0zM433.3 0H600v400H433.3z"/><path d="M275.7 260l.1 12.6 2.6 3.2h43.2l2.6-3.2V260h-13.6v2.8h-7.7l-3 3.4-2.8-3.4h-7.7V260h-13.6zm79.4 0v19.3c.4 1.8 1.1 3.4 3 4.1v1.4l17 12v2.8l14.8 11v12H210l.2-12 14.8-11v-2.8l17-12v-1.4c1.9-.7 2.6-2.3 3-4.1V260h-2v-21.2h1.2a11.5 11.5 0 01-3.5-4.1l-.2 1.2a22.7 22.7 0 00.5 8.5c.6 2.6 0 4.4-3 4.4-1.9 1.9-3.7 1.5-5.3.2a3.2 3.2 0 01-3.5-2.5c-1.5-.6-1.7-2.6.4-4.6 2.2-2 2-4.6 1.9-7.2a2.7 2.7 0 011-3.1 4.6 4.6 0 016.6-6h1a10.9 10.9 0 018.7-7.5v-.2c-2-4.6.2-10.6 6.8-13h3.2l1.9-2.8V88.9h2.3l6.8-6.2 7 6.2h2.4v5h3.5V89h5.5v-7.6h7.2l4.7-4 4.7 4.1h7.2V89h5.5v4.8h3.5V89h2.4l7-6.2L337 89h2.4v113l1.9 2.9h3c6.7 2.5 8.9 8.4 6.8 13h.1v.2a10.9 10.9 0 018.7 7.5h1a4.6 4.6 0 016.6 6 2.7 2.7 0 011 3.2c-.1 2.6-.2 5.1 1.9 7.2 2 2 1.9 4 .5 4.5a3.2 3.2 0 01-3.6 2.5c-1.6 1.4-3.4 1.8-5.3-.1-3 0-3.5-1.8-3-4.4a22.7 22.7 0 00.5-8.5l-.2-1.2a11.5 11.5 0 01-3.5 4h1V260h-1.8z"/><path fill="#a15a41" d="M261 211.8l3.8-1a5.2 5.2 0 015-.2h1.6c.7-.5 1.7-.6 2.4-1s1-.9 1.7-.4v1.6a1.8 1.8 0 001.8 0 3.8 3.8 0 002.8-1.8 1.4 1.4 0 012-.2l.1.2-.2 1.5c1.9.5 3.5.7 3.5-.8 1.2-1.1 2.3-1.7 3.2 0 .7.7 1.4 1.2 2.7 0a1 1 0 011.4 0q.4 1.2 2.2 0c.6 1 1.2 1.6 2.8 0a3 3 0 012.6 0c1.2.7 2.8 2.3 2.4 0 .2-1 1-1.5 1.7 0 .6.7 1.3 1.3 2 .1a1.1 1.1 0 011.8.2c.6 1 1.3 1.3 1.8.1q.9-2.2 1.8.2a3.8 3.8 0 001.8.1c.9-.5 1.7-.9 2.6.2l1.3-.2-.1-1.1h1.4l1 1.4q.8.7.9 0 .8-1 1.6.1 2.1.7 2-1l1.6-.3 2.3 1.2a1.1 1.1 0 002 0l.3-1.3c.7-.5 1.4-.8 2 .6l1.1.7q1.2 1 1.8 0l.4-.7h1.6l1.4 1.3 2 .2 2.3-.3 1 2.4-.7.7-2.9-.5q-1.6 3.2-3.2-.5H336l-1 1.8-.8-1.7h-1.1l-.4 1.2-.9-1-1 .4-.7 1.4-1-1.5-1.3-.4-.3 1.4-.9-1.1h-1.5l-.4 2-1-2-1.3-.1q-.2 1-1.6 0c-1-1-1.5-.4-2 .4-1.6 1.2-2.1.2-3-.5q-.8 1-1.5 0l-.6.3q-1.2-1-1.4.5a1.3 1.3 0 01-1.8-.3q-.7-1-1.4-.1-.2 1-1.9.2l-.5 1.1-1.5-1.4-1.3-.1-.7 1-1.4-.8q-.4 2.5-2.7-.3-.7-1-1.5-.1l-.3 1.3-.8-1-1-.2-.7 1.3h-.5l-.8-1c-1.1-1.1-1.5-.6-1.6.5l1.2 2.7q-1.8-.4-2.4-3h-.8c-1.4 1-2 .3-2.7-.7-.6-.9-1-.5-1.6 0q-1 2.2-4.1-.4c-.5-1-1-.7-1.6-.1l-.4 1c-2 .5-3.4.2-4-1a.8.8 0 00-1 .1l-.7 1q-.5 1.1-1.8.4l-1.5-1.6a.6.6 0 00-1 0q-1.6.7-2-1.1a1 1 0 00-2-.2l-3.9 1.4q-1.4-.3-.5-1.3"/><path fill="#009aff" d="M280.8 182.7c.9-1.2 2.3-1.8 3.1-1.2.8.5.8 2 0 3.3-.8 1.2-2.2 1.8-3 1.3-.9-.6-1-2.1 0-3.4m38.2 0c-.8-1.2-2.2-1.8-3-1.2-.9.5-.9 2 0 3.3.8 1.2 2.2 1.8 3 1.3.9-.6.8-2.1 0-3.4"/><path fill="#d20000" d="M300 163.2a2.3 2.3 0 002.1-1.4H298a2.3 2.3 0 002.1 1.5m0-11a2.3 2.3 0 012.1 1.4H298a2.3 2.3 0 012.1-1.5m2.5 33.4c-.3-1-1.1-4-2.5-4.1-1.4 0-2.2 3-2.5 4.1-.5 1.4-.5 3.1.7 4.2a2.7 2.7 0 003.6 0c1.2-1 1.2-2.8.7-4.2"/><path fill="#008e1f" d="M305 234a31.7 31.7 0 01-1 4.2h45.2a9 9 0 007.7-4.3H305m-54.3 4.4h45.1a17.5 17.5 0 002.2-4.4h-55a9 9 0 007.7 4.4m106.6-12.7a9 9 0 00-7.7-5.2 11.3 11.3 0 01-5.3 3.3h-39.9l.5 2h52.5m-60-.1a13.3 13.3 0 00-1.2-2h-40.8a11.3 11.3 0 01-5.3-3.3 9 9 0 00-7.6 5.2h54.8z"/><path fill="gold" fill-rule="evenodd" d="M329.4 88.6h-2l2-1.9zm1.6 0h2l-2-1.9zm1.6 27.3l-2.5-7.2-2.4 7.2h5m-5-19l2.4 7 2.5-7h-5m5.9 13v-7.2l-2 3.6 2 3.7m-6.7-7.3v7.3l2-3.7-2-3.6m7.5-8H326a1 1 0 00-.9 1V117a1 1 0 001 1h8.4a1 1 0 00.9-1V95.7a1 1 0 00-1-1zm-11.4 29V180l.1.1a2.6 2.6 0 013.7.5 3 3 0 01.2.3v-49.1a1.1 1.1 0 011-1.2h3.4a1.1 1.1 0 011.1 1.2V190a2.6 2.6 0 012 4.8l3 4.1v-75.3h-14.5m6.2 64l1 1.3v-56.3h-1zM323 91h14.5v30.8h-14.5zm-84.2 138.5a2.2 2.2 0 01-2.2 2.2 2.2 2.2 0 01-2.2-2.2 2.2 2.2 0 012.2-2.2 2.2 2.2 0 012.2 2.2m127 0a2.2 2.2 0 01-2.2 2.2 2.2 2.2 0 01-2.2-2.2 2.2 2.2 0 012.2-2.2 2.2 2.2 0 012.2 2.2M302 145.9a2 2 0 01-1.9 2 2 2 0 01-1.9-2 2 2 0 012-1.9 2 2 0 011.8 2m-29.7-30.1l-2.5-7.2-2.5 7.2h5m-5-19l2.6 7 2.4-7h-5m5.8 13v-7.2l-2 3.6 2 3.7m-6.6-7.3v7.3l2-3.7-2-3.6m78.8 145.5l3.3-3.1h-6.7l3.4 3m0 2.4l-3.4 3.1h6.7l-3.3-3m2.1-1.3l3.1 3.4V246l-3 3.3m-4.4 0l-3.1 3.4V246l3 3.3m-88.2-1.1l-3.4-3.1h6.7l-3.3 3m0 2.4l3.3 3.1h-6.7l3.4-3m-2.2-1.3l-3.1 3.4V246l3 3.3m4.4 0l3.1 3.4V246l-3 3.3m44.2-10.6h-2.8a13.3 13.3 0 00.8-15h2.7c.1.3 3.7 8.2-.7 15m1.9-67.6H297c-7.7 9-13.6 20.4-18.7 33.7h13.3l2.3-2c.6-.5.8-.9.6-1.2l-2-3a1.3 1.3 0 01-.3-1.7c.8-1 2.6-1.4 4.3-1.4-1.5-1-1.2-3 1.3-2.4l1.1-.3a5.8 5.8 0 01-3.5-2.7c-1.2-2.1-.8-4.2.2-6.7a14 14 0 012.2-3.7 4.4 4.4 0 114.4.1 13.7 13.7 0 012.1 3.6c1 2.5 1.4 4.6.2 6.7a5.8 5.8 0 01-3.5 2.7l1.1.3c2.5-.5 2.7 1.4 1.2 2.3 1.8.1 3.5.5 4.4 1.5a1.3 1.3 0 01-.3 1.8l-2 2.9c-.1.3 0 .7.7 1.2l2.3 2h13.3c-5-13.3-11-24.7-18.6-33.7m58.4 62c-.2 2-.3 3.8 1 5.4.2-2.2.3-4.2-1-5.3m-.2 8.4c-.2 2-.3 3.8 1 5.4.2-2.2.3-4.2-1-5.4m5 0c-.3 2-.3 3.8.9 5.4.2-2.2.3-4.2-1-5.4m-2.4-3.9c-.2 1.9-.3 3.7 1 5.4.2-2.2.3-4.2-1-5.4m1.4-4.4c-.2 2-.2 3.7 1 5.4.2-2.2.3-4.2-1-5.4m-59.9-5.4a22.8 22.8 0 010 3.6H359V228h-53.6m-7 0H241v3.6h57.6a9.8 9.8 0 00-.2-3.6m-59.7 13.7c-1.3 1.2-1.2 3.2-1 5.4 1.2-1.6 1.1-3.5 1-5.4m-2.5-3.9c-1.3 1.2-1.2 3.2-1 5.4 1.2-1.7 1.2-3.5 1-5.4m2.3-4.5c-1.3 1.2-1.2 3.2-1 5.4 1.2-1.6 1.2-3.5 1-5.4m-3.7 0c-1.3 1.3-1.2 3.3-1 5.5 1.2-1.7 1.2-3.5 1-5.4m-1 8.3c-1.4 1.2-1.3 3.2-1 5.4 1.2-1.6 1.1-3.5 1-5.4m65.7 17.9l-2 1.8 2.5 2.6 2-1.9-2.5-2.5M299 249v-7.3h-8l2.2 2.6h4v3.7l-6 4.8v8h5.3l1.9-2.2-1.8-1.6-.7 1h-1.8v-4.8l4.9-4.2m-14.8-2l-1 .9 1.5 1.5 1-1-1.5-1.4m-1.1 6l-5-4.7-1.3 1 4.9 4.4h6.8V251l-5.4 2m4.8-11.4h-7.5v4.2l5.2-2.6 5.8 5.7 2-1.4-5.5-5.9m-10.6 3.1v-3h-7.5l-.1-.1v4h1V243h5c.7.2.8.7.4 1.5l-6.4 6.4v3h6.5L273 251l.1-2.1m-5.4 7.8v-15.9h-1.9V258h23.6v-1.3h-21.7m33.3-15v7.2l1.9-1v-3.6h3.9l2.2-2.7h-8m5.8 13.7v2.7h-1.6l-5.8-5.4-1.5 1.2 7.2 7.2 4.6-.3v-8.5l-3 3.1m9-8.3l-1.5 1.5 1 1 1.4-1.6-.9-.9m6.2 1.4l-5 4.5-5.5-1.9v2.7h6.9l4.9-4.4-1.3-1m-8.6-6.7l-10.5 10.8 1.3 1 10.2-10.2 5.3 2.6v-4.2h-6.3m17 4v-4h-7.7v3.1l4.3 4.1v2.1l-3 2.8h6.4v-3l-6.3-6.3c-.4-.8-.4-1.3.3-1.5h5.1v2.7m3-4.8v15.9h-21.8v1.3h23.6v-17.2h-1.8m-61.5 32.3v-12.4h-2v15.8h3.6a4 4 0 01-1.6-3.4m-1.1 5.3l2.7 2.9h2.2v-2.9h-5m-2.8-.7v-18.2h-1V278a7 7 0 003.9 5v5.2h1v-5.6a7.2 7.2 0 01-3.9-4.9m-3.3.1v-18.6H247v19a8 8 0 01-1.4 4.7h19.8a10.5 10.5 0 01-2-5M244 285h23v4.8h-23zm85.2-24.3v12.4a4 4 0 01-1.6 3.4h3.7v-15.8h-2m-4 17.7v2.9h2.3l2.7-2.9h-5m7.9-18.9v18.2a7.3 7.3 0 01-3.9 4.9v5.6h1.1V283a7 7 0 003.8-5v-18.5h-1m19.9 18.6v-18.9h-16.5v18.6a10.6 10.6 0 01-1.9 5h19.8a8 8 0 01-1.4-4.7m-19.9 7h23v4.7h-23zm25.1 2v4.6h-27.9l-3-3-.3-5.4c-4.1.2-6.4-1.5-5.8-6h-42.3c.5 4.5-1.7 6.2-5.8 6l-.3 5.3-3 3h-28v-4.5l-12.4 9.1h141.2M212.1 312H388v8.7H212zm163.2-9.8v4.7H224.7v-4.7l-10.4 7.8h171.4l-10.4-7.8M226.8 298h146.4v7.1H226.8zM302 122.1a2 2 0 01-1.9 1.9 2 2 0 01-2-2 2 2 0 012-1.8 2 2 0 012 1.9m10.4 11.5a2 2 0 01-2 2 2 2 0 01-1.9-2 2 2 0 012-1.9 2 2 0 011.9 2m-21.4 0a2 2 0 01-2 1.8 2 2 0 01-1.8-1.9 2 2 0 011.9-1.9 2 2 0 012 2m9.4-.5v-7.4h-1v7.4h-6.8v.9h6.8v7.4h1V134h6.5v-1h-6.5m-.6-18.5c-9.3 0-17.3 4.2-21 10.1v52.8l3-3.2a2.6 2.6 0 013.4-3.3l1.7-1.5a2.8 2.8 0 01.7-2.6c-.3-.7 0-1.9.5-2V163a5.7 5.7 0 01-.8-8 5.5 5.5 0 011.3-1.2c-.8-3.4 3.6-6.3 7-4.8l1.7-.4a3.8 3.8 0 010-5.4 2.8 2.8 0 01.5-.4v-7.2h-5.6a3.8 3.8 0 110-4.3h5.6v-6.2a3.8 3.8 0 115.3-1 4 4 0 01-1 1v6.2h5.2a3.8 3.8 0 111 5.3 4 4 0 01-1-1h-5.1v7a3.8 3.8 0 011 5.4 3.8 3.8 0 01-.6.7l1.5.3c3.4-1.5 7.8 1.4 7 4.8a5.7 5.7 0 011.7 7.9 6 6 0 01-1.2 1.3v1.9c.6.1.8 1.3.5 2a2.8 2.8 0 01.8 2.5l1.7 1.6a2.6 2.6 0 013.3 1.7 2.6 2.6 0 010 1.6l2.8 3v-52.6c-3.5-6-11.5-10.2-20.8-10.2zm-10.4 49.2h20.9v1.4h-21zm7.4-12.3a4.3 4.3 0 016 0c0-2.5-6-2.5-6 0m-6 1.6l3.8-2c-1.2-1.2-4.2-.1-3.8 2m-1.5 7.6v-4.3c-1.6.5-2 3.6 0 4.3m5.2.9v-5.7c-2.1.5-2.7 4.8 0 5.7m10.6-5.8v5.8c2.8-1 2.1-5.2 0-5.8m5.2.7v4.3c2-.7 1.6-3.9 0-4.3m-5.2-5.4l3.7 2c.4-2.2-2.6-3.3-3.7-2m-34.8-64.4v1.8h2l-2-1.8m-3.6 1.8h2v-1.8l-2 1.8m2.9 44.1v56.5l1-1.4v-55h-1m55.7 48.5a1.2 1.2 0 00-.9-.3 1.2 1.2 0 00-.7.2l1.6 1.9a1.2 1.2 0 000-1.8zm-50.1-.4a1.2 1.2 0 00-.9.4 1.2 1.2 0 000 1.7l1.6-1.9a1.2 1.2 0 00-.8-.2zm-2.3 2.5v1.5l.6-.7a2.6 2.6 0 01-.6-.8m-10.5-59.6V199l3-4.2a2.6 2.6 0 011.5-4.8 1.8 1.8 0 01.4 0v-58.4a1.1 1.1 0 011.1-1.2h3.4a1.1 1.1 0 011 1.2v49.3a2.6 2.6 0 01.3-.5 2.6 2.6 0 013.7-.4V123.7h.1-14.4zm63.8 60.3l.5.7v-1.4a3 3 0 01-.5.7m-59.4 7.7a1 1 0 00-.5 1.8l1.1-1.6a1 1 0 00-.6-.2m66.8.4a1 1 0 00-.8-.4 1 1 0 00-.7.2l1.2 1.6a1 1 0 00.4-1.4zm-32.5-111v3l2-1.7-2-1.3m-4.6 1.3l2 1.6v-2.9l-2 1.3m15.6 24.2l2.7 1.3v-4.2l-2.7 2.9m-27.4-3v4.3l2.7-1.3-2.7-3m-5.4 12.9v1a29.8 29.8 0 0115.6-7l-2.4-2.3v-2.4l-9.9-10.2H279v18.7a43.6 43.6 0 019.3-4.5v-1.1l-3.7 1.6c-1 .5-1.5.2-1.6-1v-8.5c.2-.7.6-1 1.6-.6l6.9 6.6v3.3a51.2 51.2 0 00-11.9 6.4M307.8 95l-1.5 1.4 2.9 3 1.4-1.6-2.8-2.8m3.6-3.9l-1.8 1.9 3.8 3.3 1.8-1.9v-3.3h-3.8m-22.8 0h-3.8v3.3l1.8 1.9 3.8-3.3-1.8-1.9m6.3.7l-6.7 6 2.1 2.3 6.8-6-2.2-2.3m.6-8.2H290v5.7l1.5 1.8 2-1.5-1-1.2c0-.8.2-1.5 1.4-1.2l5.7 6 2.9-2.5m22 99.2h.1a1 1 0 101 1 1.1 1.1 0 00-1-1m-49.1 0a1.1 1.1 0 00-1 1 1 1 0 101-1m25.5 5a1 1 0 01-1 1 1 1 0 01-1-1 1 1 0 011-1 1 1 0 011 1zm4.8 3.4a1 1 0 01-1 1 1 1 0 01-1-1 1 1 0 011-1 1 1 0 011 1m-17.4-23.7a1.1 1.1 0 00-1 1 1 1 0 101-1m23.2-.2a1 1 0 101 1 1.1 1.1 0 00-1-1m-11.4.6a1 1 0 101 1 1 1 0 00-1-1m-19.3 14.5a2.9 2.9 0 011.2 1l.9-1.7a5.5 5.5 0 01-2.1.7m-9.5 15.3h4.1l1-2.5a8.7 8.7 0 01-5 2.5m-3.6-7.9v-.2q-2.9 4-5.5 8.1h4.7c-1.2-2.3-1.6-4.6 1.4-6.6.5-1.3-.5-.9-.6-1.3m11.9-1.9a2.9 2.9 0 01-2.6-1.7 2.9 2.9 0 01-4-.7 2.8 2.8 0 01-.5-2.4l-3.8 5a2.3 2.3 0 012 1.1c.3.6.9.3 1.2 0l1-1.3c.9-.9 2-.7 2.8.4.1.7-.2 1.6 1 1.8a3 3 0 012.2-.4l.8-1.8h-.2zm-1-6c-1.4-.9-1.7-2.8-1.2-5l-3.6 4.5a2.9 2.9 0 014 1 2.2 2.2 0 01.1.4 2.8 2.8 0 011.3-.6 2.7 2.7 0 01-.6-.2M285.6 176.3a2.8 2.8 0 010-.7.9.9 0 010-.2l-2.7 2.7a3.2 3.2 0 014.2 1.7 3.1 3.1 0 01.2 1.3l1.7-2.7a2.9 2.9 0 01-3.4-2.1zm3.9-5c-.5.3-1 1.1-1.4 1.5h.3a2.9 2.9 0 012.8 2.5c.9-1.3 1.8-2.9 2.7-4h-4.5m15.4 33.5a9.4 9.4 0 00-9.7 0h9.7m18.4-3.2l1.3 3.2h4.1a9.5 9.5 0 01-5.4-3.2m14.4 3.2l-5.5-8.1v.2c0 .4-1 0-.5 1.2 2.9 2.1 2.5 4.4 1.3 6.7h4.7m-10.3-14.6a2.9 2.9 0 01-4.4 3 2.9 2.9 0 01-2.7 1.8h-.1l.8 1.8a3 3 0 012.2.4c1.2-.2.9-1 1-1.8.8-1.1 2-1.3 2.8-.4l1 1.3c.3.3.9.6 1.2 0a2.3 2.3 0 012-1l-4-5m-10-1.4l.8 1.6a2.8 2.8 0 011.2-1 5.4 5.4 0 01-2-.6m5.3-4.8c.5 2.1.2 4-1.2 5a2.7 2.7 0 01-.6.2 2.8 2.8 0 011.3.6 2.9 2.9 0 014-1.4l-3.5-4.4m-8-8.7a3.2 3.2 0 010 1 2.9 2.9 0 01-3.6 1.9l1.8 2.8a3.3 3.3 0 01.3-1.3 3.2 3.2 0 014.1-1.6 72 72 0 00-2.6-2.8m-8.4-4.3h.1m4.4.1H306c1 1.2 1.9 2.8 2.8 4a2.9 2.9 0 012.9-2.5l-1.2-1.5m5-61l-3.7-1.5v1.1a43.5 43.5 0 019.2 4.5V95.6h-3.8l-10 10.2v2.5l-2.3 2.3a29.8 29.8 0 0115.6 7v-1.1a51.4 51.4 0 00-11.8-6.4v-3.3l6.8-6.6c1-.3 1.4-.1 1.6.6v8.6c0 1.1-.6 1.4-1.6.9M309 83.6h-4.8l-3.3 2.4 2.4 2.6 1.3-1 2 2-5.6 5V107a1.2 1.2 0 01-2.4 0V96l-3.9 3.3v7.5l5.3 4.5 4-4.1V95l5-4.5v-6.9M262.5 91H277v30.8h-14.5zm-17.7 150V258H264v-17.1h-19m91.2-.1V258h19v-17.2h-19m-26.7-52.6c-1.4.3-2.7-1-3-2.8-.4-1.7.4-3.4 1.7-3.7 1.4-.2 2.7 1 3 2.8.4 1.8-.4 3.5-1.7 3.7m-15.7-2.7c-.3 1.7-1.6 3-3 2.8-1.3-.3-2-2-1.7-3.7.3-1.7 1.6-3 3-2.8 1.2.2 2 2 1.7 3.7M274 94.7h-8.4a1 1 0 00-1 1V117a1 1 0 001 1h8.4a1 1 0 001-1V95.7a1 1 0 00-1-1zm78.8 160.8h-14.4v-12.3h14.4zm-105.6-12.3h14.4v12.4h-14.4zm122.6 56H230.2a3.4 3.4 0 000 4.4h139.6a3.4 3.4 0 000-4.4m14.2 19.9H216a5 5 0 010-5.5h168c.8 1.7 1 3.8 0 5.5"/></svg>