<svg xmlns="http://www.w3.org/2000/svg" xmlns:xlink="http://www.w3.org/1999/xlink" height="400" width="600"><defs><linearGradient id="f"><stop stop-color="#fc3" offset="0%"/><stop stop-color="#e90" offset="15%"/><stop stop-color="#fe4" offset="55%"/><stop stop-color="#e81" offset="90%"/></linearGradient><linearGradient gradientTransform="scale(5.0228 .1991)" gradientUnits="userSpaceOnUse" y2="2822.8" x2="-67.9" y1="2647" x1="107.9" id="l"><stop stop-color="#699" offset="0%"/><stop stop-color="#eee" offset="100%"/></linearGradient><linearGradient id="a"><stop stop-color="#9ba" offset="0%"/><stop stop-color="#fff" offset="100%"/></linearGradient><linearGradient id="b"><stop stop-color="#fff" offset="0%"/><stop stop-color="#7a9" offset="100%"/></linearGradient><linearGradient gradientUnits="objectBoundingBox" y2="1" x2="0" y1="0" x1="0" id="c"><stop stop-color="#8aa" offset="0%"/><stop stop-color="#eee" offset="100%"/></linearGradient><linearGradient gradientUnits="objectBoundingBox" y2="1" x2="0" y1="0" x1="0" id="g"><stop stop-color="#d70" offset="0%"/><stop stop-color="#f91" offset="100%"/></linearGradient><linearGradient gradientUnits="objectBoundingBox" y2="1" x2="0" y1="0" x1="0" id="d"><stop stop-color="#fe9" offset="0%"/><stop stop-color="#d80" offset="25%"/><stop stop-color="#fe5" offset="65%"/><stop stop-color="#c70" offset="85%"/><stop stop-color="#e80" offset="100%"/></linearGradient><linearGradient gradientUnits="userSpaceOnUse" y2="255.4" x2="1033.6" y1="255.4" x1="1012.6" gradientTransform="scale(.5244 1.90693)" id="m"><stop stop-color="#688" offset="0%"/><stop stop-color="#ded" offset="100%"/></linearGradient><linearGradient id="h"><stop stop-color="#d81" offset="0%"/><stop stop-color="#fd4" offset="100%"/></linearGradient><linearGradient gradientUnits="objectBoundingBox" y2="1" x2="0" y1="0" x1="0" id="i"><stop stop-color="#ec5" offset="0%"/><stop stop-color="#fe9" offset="100%"/></linearGradient><linearGradient gradientUnits="objectBoundingBox" y2="1" x2="0" y1="0" x1="0" id="j"><stop stop-color="#a81" offset="0%"/><stop stop-color="#ffa" offset="100%"/></linearGradient><linearGradient gradientUnits="userSpaceOnUse" y2="1767.6" x2="227.2" y1="1767.6" x1="160.1" gradientTransform="scale(3.3541 .29814)" id="n" xlink:href="#a"/><g id="k"><path d="M434 195l19 17L622 37 479 234l19 15-667 759-31 10 4-33z" fill="#fff"/><path d="M464 226L622 37 479 234z" fill="url(#a)"/><path d="M491 250l7-1-667 759-3-3z" fill="url(#b)"/><path d="M460 230l31 20-663 755-28 13z" fill="url(#c)"/><path d="M-172 1005l3 3-31 10z" fill="#a99"/></g><g id="o"><path d="M207 371c57 0 36-122 30-151-12-49-8-61-8-185 0-31-44-31-44 0 0 124 4 136-8 185-6 29-27 151 30 151z" fill="url(#d)"/><path d="M207 360c44 0 31-96 24-124-12-49-8-77-8-201 0-21-32-21-32 0 0 124 4 152-8 201-7 28-20 124 24 124z" fill="url(#e)"/><path d="M92 100h260V89c-67 0-91-34-101-56H91z" fill="url(#f)"/><path fill="url(#g)" d="M92 92h260v8H92z"/><path d="M92 100l8-8V42l-8-10z" fill="url(#h)"/><path d="M92 32h159l-6 10H100z" fill="url(#i)"/><path d="M352 92v-3c-67 0-91-34-101-56l-6 9c2 6 26 43 69 50z" fill="url(#j)"/></g><radialGradient gradientUnits="userSpaceOnUse" r="300" cy="292" cx="207" id="e"><stop stop-color="#fe9" offset="0%"/><stop stop-color="#fd5" offset="10%"/><stop stop-color="#d60" offset="33%"/><stop stop-color="#fc1" offset="100%"/></radialGradient></defs><g transform="matrix(.30785 0 0 .30817 234.9 33.3)"><path fill="red" d="M-763-108h1949v1298H-763z"/><use height="100%" width="100%" xlink:href="#k"/><use height="100%" width="100%" transform="matrix(-1 0 0 1 420 0)" xlink:href="#k"/><path d="M-341 527l44 27 839 13v-20l220-20-220-18v-21l-839 13z" fill="#fff"/><path d="M-341 527h872l11 35-837-13-2 5z" fill="url(#l)"/><path d="M537 527l5 20v20l-2-6-9-34z" fill="#ced"/><path d="M537 527l5-18v-22l-11 40z" fill="url(#m)"/><path d="M537 527h225l-220 20z" fill="url(#n)"/><path d="M540 561l2 6-839-13 2-5z" fill="#588"/><use height="100%" width="100%" xlink:href="#o"/><use height="100%" width="100%" y="740" xlink:href="#o"/></g></svg>