<svg xmlns="http://www.w3.org/2000/svg" viewBox="0.1 -9.6 600 400" height="400" width="600"><path fill="#da251d" d="M0-9.6h598v400H0z"/><path fill="#398fca" d="M301-9.6h299v400H301z"/><path d="M616.7 298.4a92.4 92.4 0 003.6-37.8c-1.3-6.1-4.6-13.4-6.9-13.4h-20l-1-5.8a58 58 0 012.8-22 73.4 73.4 0 0111.8-16 37 37 0 0010-19.3c.5-6-1.2-11.4-6.5-14.5-2.8-1.6-5.3-2.9-7.6-4M602.9 165.6l-14-7.9M589 157.7c2.4-1.6 4.4-3.2 5.7-5a9.6 9.6 0 00-.2-10.6c-1.3-1.7-2.7-2.9-4.4-3.6l.6.1-1-.2a16.7 16.7 0 00-3.4-1c-8.3-2.4-26-7.6-31-9.3-8.4-2.8-18.3 13-35.2 26.2-21.4 16.7-36.2 20.5-36.2 20.5M483.9 174.8l34.6 4.6M518.5 179.4s19-4.9 33.4-17.8M551.9 161.6l19.2 13.9M571.1 175.5l2.1 1.6c2.6 2 5.6 1.4 9.3-.3 0 0 0 0 0 0 .7 11.3-10.3 22.1-16.8 31.6s-6.2 32.5-5.2 39c1 6.3 4.1 23.6 13 24.4h-.3M573.2 271.8h1.1M574.3 271.8s0 0 0 0 0 0 0 0M574.3 271.8h11.6M586 271.8c-.5 6-1.8 12.7-4.5 19.6a114.3 114.3 0 00-7.3 37.8c1.4 28.2 7.5 60 6.5 76.8-.4 5.7.7 23.3-10 30.6-10.8 7.2-21 14-27.7 21.7-2 2.2-3.6 4-5 5.2M538 463.5l-.5-9.6M537.5 454c0-6.5-9.7-16.8-36.2-6-26.5 10.8-32.1 11.3-40.1 11.8-6.7.4-13.1.4-19.7 0-8-.5-13.7-1-40.2-11.8-26.5-10.8-36.2-.5-36.2 6M365.1 453.9l-.4 9.6M364.7 463.5c-1.5-1.3-3.1-3-5-5.2-6.8-7.7-17-14.5-27.7-21.7-10.7-7.3-9.7-24.9-10-30.6-1.1-16.8 5-48.6 6.4-76.8.3-6.6-2-24.4-7.3-37.8-2.7-6.9-4-13.7-4.4-19.6M316.7 271.8h11.6M328.3 271.8s0 0 0 0 0 0 0 0M328.4 271.8h1M329.4 271.8h-.2c8.8-.8 12-18.1 13-24.4 1-6.5 1.2-29.5-5.3-39s-17.5-20.3-16.8-31.5v-.1c3.7 1.7 6.7 2.3 9.3.3l2-1.6M331.5 175.5l19.2-13.9M350.7 161.6a90.3 90.3 0 0033.4 17.8M384.1 179.4l34.7-4.6" stroke-width="1.1" stroke="#1f1a17" fill="none" transform="matrix(.66515 0 0 .66742 0 -3.2)"/><path d="M418.8 174.8s-15-3.8-36.3-20.5c-16.9-13.3-26.7-29-35.2-26.2a1329.9 1329.9 0 01-34.5 10.3l-1 .2.8-.1c-1.7.7-3.2 1.9-4.5 3.6a9.6 9.6 0 00-.1 10.5c1.3 2 3.2 3.5 5.7 5M313.7 157.7l-14 7.9M299.7 165.6c-2.3 1.1-4.8 2.4-7.6 4-5.3 3-7 8.5-6.5 14.5s5.5 15.1 10 19.4c4.5 4.2 10 12.3 11.8 15.8a58 58 0 011.9 27.9h-20c-2.3 0-5.7 7.3-7 13.4-1.9 8.7.2 29.3 3.6 37.8 4.2 10.7 7.7 21.6 8.4 29.6 1.7 20-7.6 64.9-5.9 91 .8 12.5 7.3 31.7 20.5 40.6 9.6 6.5 18.1 14 23.5 20.2 7 8 14.2 13 24.7 14.5 9.4 1.4 16-.7 18-7l3.2-10.2c7.5.7 16.1 4.1 26 8 13 5.2 22.7 6.6 34 7.7 7.4.7 18.6.7 26 0 11.3-1 21-2.5 34-7.6 10-4 18.5-7.4 26-8.1l3.2 10.2c2 6.3 8.6 8.4 18 7a38.3 38.3 0 0024.7-14.5c5.4-6.2 13.9-13.7 23.5-20.2 13.2-8.9 19.7-28.1 20.5-40.6 1.7-26.1-7.6-71-5.9-91 .7-8 4.2-18.9 8.4-29.6" stroke-width="1.1" stroke="#1f1a17" fill="none" transform="matrix(.66515 0 0 .66742 0 -3.2)"/><g stroke-width=".1" stroke="#eb891b"><path d="M537.5 454c0-6.5-9.7-16.8-36.2-6-26.5 10.8-32.1 11.3-40.1 11.8-6.7.4-13.1.4-19.7 0-8-.5-13.7-1-40.2-11.8-26.5-10.8-36.2-.5-36.2 6l-.5 20.3 4.5 3.5c9.3-2.9 21 1.6 35.2 7.4 13 5.1 22.7 6.5 34 7.6 7.4.7 18.6.7 26 0 11.3-1 21-2.5 34-7.6 14.3-5.8 26-10.3 35.2-7.4l4.5-3.5z" fill="#fff500" transform="matrix(.66515 0 0 .66742 0 -3.2)"/><path d="M537.5 454c0-.6 0-1-.2-1.6-3-5.9-13.3-11.4-35.3-2.4-26.5 10.8-32.1 11.3-40.1 11.8-6.8.4-14.4.4-21.2 0-8-.5-13.6-1-40.1-11.8-22-9-32.3-3.5-35.3 2.4l-.2 1.5-.4 17 1 1.6 4.5 3.5c9.2-2.9 20.9 1.6 35.2 7.3 13 5.2 22.7 6.6 34 7.7a136.8 136.8 0 0057.9-7.7c14.3-5.7 25.9-10.2 35.1-7.3l4.5-3.5 1-1.5z" fill="#da251d" transform="matrix(.66515 0 0 .66742 0 -3.2)"/><path d="M537.5 454v-.6c-3.6-5.4-14-9.9-34.7-1.4-26.5 10.8-32.2 11.3-40.2 11.8-6.9.4-15.7.4-22.6 0-8-.5-13.7-1-40.2-11.8-20.6-8.5-31-4-34.6 1.4v.5l-.4 14.8 2 2 4.5 3.4c9.2-2.8 20.8 1.7 35.1 7.4 13 5.1 22.7 6.5 34 7.6 7 .7 14.8.7 21.8 0 11.3-1 21-2.5 34-7.6 14.3-5.7 26-10.2 35.2-7.4l4.5-3.5 2-2z" fill="#fff500" transform="matrix(.66515 0 0 .66742 0 -3.2)"/><path d="M537.5 454.5c-4.1-5-14.5-8.5-34-.5-26.5 10.8-32.2 11.3-40.2 11.8-7 .5-17 .5-24 0-8-.5-13.7-1-40.2-11.8-19.5-8-29.8-4.5-34 .5l-.3 11.1 3 3.2 4.5 3.5c9.3-2.9 20.9 1.6 35.2 7.3 13 5.2 22.7 6.6 34 7.7 6.8.7 12.8.7 19.6 0 11.3-1.1 21-2.5 34-7.7 14.3-5.7 26-10.2 35.2-7.3l4.5-3.5 3-3.2z" fill="#da251d" transform="matrix(.66515 0 0 .66742 0 -3.2)"/><path d="M383.5 458.4c.6-2-3.6-3-6.1-2.2-2.5.9-6.1 2.9-8.9 1.6-2.7-1.2-3.2-2.6-3.4-3.9l-.7 15 13.1 9s5.4-17.2 6-19.5z" fill="#fff500" transform="matrix(.66515 0 0 .66742 0 -3.2)"/><path d="M377.2 458.3c-2.5.9-6.1 2.9-8.9 1.6-2.4-1-3-2.3-3.3-3.4l-.6 12.3 13.1 9 5.7-18.3c-.8-1.4-4-1.9-6-1.2z" fill="#da251d" transform="matrix(.66515 0 0 .66742 0 -3.2)"/><path d="M377 460.4c-2.5 1-6.1 3-8.9 1.7-2.2-1-3-2.2-3.2-3.2l-.5 10 13.1 9 5.2-16.7c-1.1-1-3.9-1.4-5.7-.8z" fill="#fff500" transform="matrix(.66515 0 0 .66742 0 -3.2)"/><path d="M376.8 462.5c-2.5 1-6.1 3-8.8 1.7-2.1-1-3-2-3.2-3l-.4 7.6 13.1 9 4.6-14.8c-1.3-.8-3.6-1-5.3-.5z" fill="#da251d" transform="matrix(.66515 0 0 .66742 0 -3.2)"/><path d="M292.1 169.6c-5.3 3-7 8.5-6.5 14.5s5.5 15.1 10 19.4c4.5 4.2 10 12.3 11.8 15.8a58 58 0 012.7 22.1c-.7 6.5-2.2 12.5-2.2 12.5s-3.3 17.2 3.7 17.4c4.8 0 12.7.4 16.7.5 9.5.3 12.8-17.9 13.8-24.4s1.3-29.5-5.2-39-17.5-20.3-16.8-31.5c.7-9.6 3.3-25.3-28-7.3z" fill="#fff500" transform="matrix(.66515 0 0 .66742 0 -3.2)"/><path d="M340 247.4c1-6.5 1.3-29.5-5.2-39s-17.5-20.3-16.8-31.5c.4-5.9 1.5-14-4.8-15.3-4.2.6-10.3 3-19 8-5.2 3-7 8.5-6.4 14.5.5 6 5.5 15.1 10 19.4 4.5 4.2 10 12.3 11.7 15.8a58 58 0 012.8 22.1c-.8 6.5-2.3 12.5-2.3 12.5s-3.3 17.2 3.8 17.4l13.9.3c8.6-1.2 11.4-18 12.3-24.2z" fill="#da251d" transform="matrix(.66515 0 0 .66742 0 -3.2)"/><path d="M337.9 247.4c1-6.5 1.2-29.5-5.3-39s-17.5-20.3-16.7-31.5c.3-5.3 1.3-12.4-3.2-14.7-4 1-9.3 3.4-16.3 7.4-5.3 3-7 8.5-6.5 14.5s5.5 15.1 10 19.4c4.5 4.2 10 12.3 11.7 15.8a58 58 0 012.8 22.1c-.8 6.5-2.3 12.5-2.3 12.5s-3.3 17.2 3.8 17.4l10.2.2c8.2-1.8 10.8-18 11.8-24.1z" fill="#fff500" transform="matrix(.66515 0 0 .66742 0 -3.2)"/><path d="M335.8 247.4c1-6.5 1.2-29.5-5.3-39s-17.5-20.3-16.7-31.5c.3-4.7 1-10.8-1.9-13.8-3.6 1.3-8 3.4-13.4 6.5-5.3 3-7 8.5-6.5 14.5s5.5 15.1 10 19.4c4.5 4.2 10 12.3 11.8 15.8a58 58 0 012.7 22.1c-.7 6.5-2.2 12.5-2.2 12.5s-3.4 17.2 3.7 17.4l6.3.1c7.9-2.1 10.5-18 11.5-24z" fill="#da251d" transform="matrix(.66515 0 0 .66742 0 -3.2)"/><path d="M290.4 170.9s6-5.2 16.5-.8c10.5 4.5 17.4 11 22.5 7 5.6-4.3 12.2-10.5 12.2-10.5L326 150.7z" fill="#fff500" transform="matrix(.66515 0 0 .66742 0 -3.2)"/><path d="M308.4 168.6c10.5 4.5 17.4 11 22.5 7 4-3 8.4-7 10.7-9L326 150.7l-29 16.5c2.8-.6 6.6-.6 11.4 1.4z" fill="#da251d" transform="matrix(.66515 0 0 .66742 0 -3.2)"/><path d="M309.9 167.1c10.5 4.5 17.4 11 22.5 7 3.2-2.4 6.7-5.4 9-7.6L326 150.7l-26 14.7c2.7-.3 6 0 9.9 1.7z" fill="#fff500" transform="matrix(.66515 0 0 .66742 0 -3.2)"/><path d="M326 150.7l-23.1 13.1c2.3 0 5.2.4 8.5 1.8 10.5 4.5 17.4 11 22.5 7 2.5-2 5.3-4.2 7.5-6.2z" fill="#da251d" transform="matrix(.66515 0 0 .66742 0 -3.2)"/><path d="M319.6 161a30.5 30.5 0 01-11.6-8.4 9.6 9.6 0 01.1-10.5c2-2.8 4.5-4 7.7-4.6l13.7-3.2 26.1 23.7-26.8 19.5c4.6-5.4-2-12.9-9.2-16.5z" fill="#fff500" transform="matrix(.66515 0 0 .66742 0 -3.2)"/><path d="M355.6 158l-26.1-23.7-13.7 3.2a16 16 0 00-3.3 1c-1 .7-1.8 1.5-2.5 2.6a9.6 9.6 0 00-.2 10.5c2.2 3.1 6 5.5 11.7 8.3 6.9 3.5 13.3 10.6 9.6 15.9z" fill="#da251d" transform="matrix(.66515 0 0 .66742 0 -3.2)"/><path d="M355.6 158l-26.1-23.7-13.7 3.2c-.8.1-1.6.3-2.3.6-.6.5-1.2 1.2-1.7 2a9.6 9.6 0 00-.1 10.4c2.1 3.2 6 5.5 11.6 8.4 6.7 3.4 12.9 10 10 15.3z" fill="#fff500" transform="matrix(.66515 0 0 .66742 0 -3.2)"/><path d="M355.6 158l-26.1-23.7-13.7 3.2-1.2.3-1 1.2a9.6 9.6 0 00-.1 10.5c2.2 3.1 6 5.4 11.7 8.3 6.5 3.3 12.5 9.8 10.1 15z" fill="#da251d" transform="matrix(.66515 0 0 .66742 0 -3.2)"/><path d="M329.4 271.8c-3.5-.2-4.6-2.8-4.4-5.2.1-2.3 1.5-4.5 2.8-6.5 1.3-2 3.2-4.8 2-8.8-1-3.3-3-4.2-4.5-4.2h-9.8l-3.4 24.7z" fill="#fff500" transform="matrix(.66515 0 0 .66742 0 -3.2)"/><path d="M322.8 266.6c.2-2.3 1.5-4.5 2.9-6.5 1.3-2 3.2-4.8 2-8.8-1-3.3-3-4.2-4.5-4.2h-7.7l-3.4 24.7h14.7c-2.7-.5-4.1-3.2-4-5.2z" fill="#da251d" transform="matrix(.66515 0 0 .66742 0 -3.2)"/><path d="M320.7 266.6c.2-2.3 1.5-4.5 2.8-6.5 1.4-2 3.2-4.8 2-8.8-1-3.3-3-4.2-4.5-4.2h-5.5l-3.4 24.7h12.6c-2.8-.5-4.1-3.2-4-5.2zM311.9 138.6c5.9-1.7 10.9 2 14.2 3.7a84.9 84.9 0 0121.5 16.3 87.8 87.8 0 0036.5 20.8l34.7-4.6s-15-3.8-36.3-20.5c-16.9-13.3-26.7-29-35.2-26.2-6.6 2.3-35.4 10.5-35.4 10.5z" fill="#fff500" transform="matrix(.66515 0 0 .66742 0 -3.2)"/><path d="M346.4 128.4c-5.6 1.9-21 6.4-29.3 8.7 4.4.1 8.2 2.7 10.9 4.1a85 85 0 0121.5 16.4 87.8 87.8 0 0036.5 20.7l28.3-3.7c-5-1.8-17.6-7-33.8-19.8-16.2-12.6-25.9-27.5-34-26.4z" fill="#da251d" transform="matrix(.66515 0 0 .66742 0 -3.2)"/><path d="M344.9 129l-24.5 7.2c3.8.5 7 2.7 9.4 4a84.9 84.9 0 0121.5 16.3 87.8 87.8 0 0036.5 20.8l22.3-3c-6-2.3-17.4-7.7-31.7-19-15.8-12.3-25.4-26.8-33.5-26.4z" fill="#fff500" transform="matrix(.66515 0 0 .66742 0 -3.2)"/><path d="M343.1 129.5l-19.7 5.8c3.3.8 6.1 2.7 8.3 3.8a85 85 0 0121.5 16.4 87.8 87.8 0 0036.5 20.7L406 174c-6.4-2.7-16.8-8-29.7-18-15.5-12.3-25.1-26.6-33.2-26.5zM318.6 266.6c.2-2.3 1.5-4.5 2.8-6.5 1.4-2 3.2-4.8 2-8.8-1-3.3-3-4.2-4.5-4.2h-3.4l-3.4 24.7h10.5c-2.8-.5-4.1-3.2-4-5.2z" fill="#da251d" transform="matrix(.66515 0 0 .66742 0 -3.2)"/><path d="M375.6 466.6c-6.2 1-9.2-.5-16-8.3-6.7-7.7-16.8-14.5-27.6-21.7-10.7-7.3-9.7-24.9-10-30.6-1.1-16.8 5-48.6 6.4-76.8.3-6.6-2-24.4-7.3-37.8a62 62 0 01-3.2-36.2c1-3.2 4.7-8.1 7.8-8h-36.5c-2.2 0-5.6 7.3-6.9 13.4-1.9 8.7.2 29.3 3.6 37.8 4.2 10.7 7.7 21.6 8.4 29.6 1.7 20-7.6 64.9-5.9 91 .8 12.5 7.3 31.7 20.5 40.6 9.6 6.5 18.1 14 23.5 20.2 7 8 14.2 13 24.7 14.5 9.4 1.4 16-.7 18-7 5.8-17.8 8.4-28.9 8.4-28.9-.7 2.8-1.6 7.2-7.9 8.2z" fill="#fff500" transform="matrix(.66515 0 0 .66742 0 -3.2)"/><path d="M376 468.7c-7.6 1.2-11.3-1.3-18-9-6.4-7.3-16.1-14-26.4-20.9l-.8-.5c-11.4-7.7-10.5-25.9-11-32.2-1-16.3 5.1-48.7 6.5-76.9.3-6.6-2-24.4-7.3-37.8a62 62 0 01-3.2-36.2c1-3.2 4.6-8 7.6-8h-32c-2.3 0-5.6 7.3-7 13.4-1.8 8.7.2 29.3 3.6 37.8 4.3 10.7 7.7 21.8 8.4 29.8 1.7 20-7.7 65.2-6 90 .8 12.4 7.3 31.6 20.4 40.5 9.6 6.5 18.1 14 23.5 20.2 7 8 14.6 12 25 13.4 7 1 12.6-1.1 15.8-5 0 0 0 0 0 0 2.9-8.8 5-15.9 6.3-20.9-1.3 1-3 1.9-5.4 2.3z" fill="#da251d" transform="matrix(.66515 0 0 .66742 0 -3.2)"/><path d="M376.3 470.8c-8.6 1.3-13-1.9-19.9-9.7a137 137 0 00-26.8-21c-12.2-8.2-11.4-27-11.9-33.8-1-16.2 5.1-48.9 6.4-77 .3-6.7-1.9-24.5-7.2-37.9a62 62 0 01-3.3-36.2c1-3.1 4.5-7.8 7.6-8h-27.7c-2.3 0-5.6 7.3-7 13.4-1.8 8.7.2 29.3 3.6 37.8 4.3 10.7 7.7 22 8.4 30 1.7 20-7.8 64.6-6.2 88.8.8 12.5 7.3 31.7 20.4 40.6 9.7 6.5 18.2 14 23.5 20.2 7.1 8 14.8 10.7 25.3 12.2 6 .9 11-1.4 14.2-4.8 2-6.3 3.7-11.7 4.9-16a15 15 0 01-4.3 1.4z" fill="#fff500" transform="matrix(.66515 0 0 .66742 0 -3.2)"/><path d="M376.6 472.9c-9.5 1.5-14.6-2.2-21.8-10.4-6-7-15.5-13.3-25.6-20.1l-.8-.5c-13-8.8-12.3-28.1-12.8-35.5-1-16.2 5-49 6.4-77.2.3-6.6-2-24.4-7.2-37.8a62 62 0 01-3.3-36.2c1-3 4.4-7.7 7.4-8h-23.3c-2.3 0-5.6 7.3-7 13.4-1.8 8.7.3 29.3 3.7 37.8 4.2 10.7 7.7 22.1 8.3 30.2 1.7 20-8 63.9-6.4 87.7.8 12.5 7.3 31.7 20.5 40.6a126 126 0 0123.5 20.2c7 8 14.4 9.5 25 11a15 15 0 0013.2-4.6l3.4-11.4-3.2.8z" fill="#da251d" transform="matrix(.66515 0 0 .66742 0 -3.2)"/><path d="M519.1 458.4c-.6-2 3.6-3 6.1-2.2 2.5.9 6.2 2.9 9 1.6 2.7-1.2 3.2-2.6 3.3-3.9l.7 15-13 9s-5.5-17.2-6-19.5z" fill="#fff500" transform="matrix(.66515 0 0 .66742 0 -3.2)"/><path d="M525.4 458.3c2.5.9 6.1 2.9 8.9 1.6 2.5-1 3.1-2.3 3.3-3.4l.6 12.3-13 9-5.8-18.3c.8-1.4 4-1.9 6-1.2z" fill="#da251d" transform="matrix(.66515 0 0 .66742 0 -3.2)"/><path d="M525.6 460.4c2.5 1 6.1 3 8.9 1.7 2.2-1 3-2.2 3.2-3.2l.5 10-13 9-5.3-16.7c1.2-1 3.9-1.4 5.7-.8z" fill="#fff500" transform="matrix(.66515 0 0 .66742 0 -3.2)"/><path d="M525.8 462.5c2.5 1 6.1 3 8.9 1.7 2-1 2.8-2 3.2-3l.3 7.6-13 9-4.7-14.8c1.3-.8 3.7-1 5.3-.5z" fill="#da251d" transform="matrix(.66515 0 0 .66742 0 -3.2)"/><path d="M610.5 169.6c5.3 3 7 8.5 6.5 14.5a37 37 0 01-10 19.4 73.3 73.3 0 00-11.8 15.8 58 58 0 00-.5 34.6s3.4 17.2-3.7 17.4c-4.8 0-12.7.4-16.7.5-9.5.3-12.8-17.9-13.8-24.4s-1.3-29.5 5.2-39 17.5-20.3 16.8-31.5c-.7-9.6-3.3-25.3 28-7.3z" fill="#fff500" transform="matrix(.66515 0 0 .66742 0 -3.2)"/><path d="M562.6 247.4c-1-6.5-1.2-29.5 5.3-39s17.5-20.3 16.7-31.5c-.4-5.9-1.5-14 4.8-15.3 4.2.6 10.3 3 19 8 5.3 3 7 8.5 6.5 14.5a37 37 0 01-10 19.4 73.4 73.4 0 00-11.8 15.8 58 58 0 00-.5 34.6s3.3 17.2-3.7 17.4l-14 .3c-8.5-1.2-11.3-18-12.3-24.2z" fill="#da251d" transform="matrix(.66515 0 0 .66742 0 -3.2)"/><path d="M564.7 247.4c-1-6.5-1.2-29.5 5.3-39s17.5-20.3 16.7-31.5c-.3-5.3-1.3-12.4 3.2-14.7 4 1 9.3 3.4 16.3 7.4 5.3 3 7 8.5 6.5 14.5a37 37 0 01-10 19.4 73.4 73.4 0 00-11.7 15.8 58 58 0 00-.5 34.6s3.3 17.2-3.8 17.4l-10.2.2c-8.1-1.8-10.8-18-11.8-24.1z" fill="#fff500" transform="matrix(.66515 0 0 .66742 0 -3.2)"/><path d="M566.9 247.4c-1-6.5-1.3-29.5 5.2-39s17.5-20.3 16.8-31.5c-.3-4.7-1.1-10.8 1.8-13.8 3.6 1.3 8 3.4 13.4 6.5 5.3 3 7 8.5 6.5 14.5a37 37 0 01-10 19.4 73.4 73.4 0 00-11.7 15.8 58 58 0 00-.5 34.6s3.3 17.2-3.8 17.4l-6.3.1c-7.9-2.1-10.5-18-11.4-24z" fill="#da251d" transform="matrix(.66515 0 0 .66742 0 -3.2)"/><path d="M612.2 170.9s-6-5.2-16.5-.8c-10.5 4.5-17.4 11-22.5 7a208.9 208.9 0 01-12.2-10.5l15.7-15.9z" fill="#fff500" transform="matrix(.66515 0 0 .66742 0 -3.2)"/><path d="M594.2 168.6c-10.5 4.5-17.4 11-22.5 7-4-3-8.4-7-10.6-9l15.6-15.9 29 16.5c-2.8-.6-6.7-.6-11.5 1.4z" fill="#da251d" transform="matrix(.66515 0 0 .66742 0 -3.2)"/><path d="M592.7 167.1c-10.5 4.5-17.4 11-22.5 7-3.1-2.4-6.6-5.4-9-7.6l15.5-15.8 25.9 14.7c-2.6-.3-6 0-9.9 1.7z" fill="#fff500" transform="matrix(.66515 0 0 .66742 0 -3.2)"/><path d="M576.7 150.7l23 13.1c-2.3 0-5.2.4-8.5 1.8-10.5 4.5-17.4 11-22.5 7a163 163 0 01-7.5-6.2z" fill="#da251d" transform="matrix(.66515 0 0 .66742 0 -3.2)"/><path d="M583 161c5.6-2.9 9.5-5.2 11.7-8.4a9.6 9.6 0 00-.2-10.5c-2-2.8-4.5-4-7.7-4.6l-13.6-3.2L547 158l26.9 19.5c-4.7-5.4 2-12.9 9-16.5z" fill="#fff500" transform="matrix(.66515 0 0 .66742 0 -3.2)"/><path d="M547 158l26.2-23.7 13.6 3.2c1.2.2 2.3.6 3.4 1 .9.7 1.7 1.5 2.4 2.6 2 2.8 2.4 7.3.2 10.5-2.2 3.1-6 5.5-11.7 8.3-6.8 3.5-13.2 10.6-9.6 15.9z" fill="#da251d" transform="matrix(.66515 0 0 .66742 0 -3.2)"/><path d="M547 158l26.2-23.7a976.9 976.9 0 0016 3.8l1.6 2c2 2.8 2.3 7.3.2 10.4-2.2 3.2-6 5.5-11.7 8.4-6.7 3.4-12.9 10-10 15.3z" fill="#fff500" transform="matrix(.66515 0 0 .66742 0 -3.2)"/><path d="M547 158l26.2-23.7a976.9 976.9 0 0014.8 3.5l1 1.2c2 2.8 2.3 7.3.1 10.5-2.1 3.1-6 5.4-11.6 8.3-6.5 3.3-12.6 9.8-10.2 15z" fill="#da251d" transform="matrix(.66515 0 0 .66742 0 -3.2)"/><path d="M573.2 271.8c3.5-.2 4.6-2.8 4.5-5.2-.2-2.3-1.5-4.5-2.9-6.5-1.3-2-3.2-4.8-2-8.8 1-3.3 3-4.2 4.5-4.2h9.9l3.3 24.7z" fill="#fff500" transform="matrix(.66515 0 0 .66742 0 -3.2)"/><path d="M579.8 266.6c-.2-2.3-1.5-4.5-2.9-6.5-1.3-2-3.1-4.8-2-8.8 1-3.3 3-4.2 4.5-4.2h7.8l3.3 24.7h-14.7c2.8-.5 4.1-3.2 4-5.2z" fill="#da251d" transform="matrix(.66515 0 0 .66742 0 -3.2)"/><path d="M582 266.6c-.3-2.3-1.6-4.5-3-6.5-1.3-2-3.1-4.8-2-8.8 1-3.3 3-4.2 4.6-4.2h5.6l3.3 24.7h-12.6c2.8-.5 4.1-3.2 4-5.2z" fill="#fff500" transform="matrix(.66515 0 0 .66742 0 -3.2)"/><g><path d="M590.7 138.6c-5.8-1.7-10.9 2-14.2 3.7a85 85 0 00-21.5 16.3 87.8 87.8 0 01-36.5 20.8l-34.6-4.6s14.8-3.8 36.2-20.5c17-13.3 26.8-29 35.3-26.2 6.5 2.3 35.3 10.5 35.3 10.5z" fill="#fff500" transform="matrix(.66515 0 0 .66742 0 -3.2)"/><path d="M556.2 128.4c5.7 1.9 21.1 6.4 29.3 8.7-4.4.1-8.2 2.7-10.9 4.1a85 85 0 00-21.5 16.4 87.8 87.8 0 01-36.5 20.7l-28.3-3.7c5-1.8 17.6-7 33.9-19.8 16-12.6 25.8-27.5 34-26.4z" fill="#da251d" transform="matrix(.66515 0 0 .66742 0 -3.2)"/><path d="M557.8 129l24.4 7.2c-3.8.5-7 2.7-9.4 4a85 85 0 00-21.5 16.3c-14.6 15.1-36.5 20.8-36.5 20.8l-22.2-3c6-2.3 17.3-7.7 31.6-19 15.8-12.3 25.4-26.8 33.6-26.4z" fill="#fff500" transform="matrix(.66515 0 0 .66742 0 -3.2)"/><path d="M559.5 129.5l19.8 5.8c-3.3.8-6.2 2.7-8.3 3.8a85 85 0 00-21.5 16.4 87.8 87.8 0 01-36.5 20.7l-16.4-2.2c6.4-2.7 16.8-8 29.7-18 15.6-12.3 25.2-26.6 33.2-26.5z" fill="#da251d" transform="matrix(.66515 0 0 .66742 0 -3.2)"/></g><path d="M584 266.6c-.1-2.3-1.5-4.5-2.8-6.5-1.3-2-3.2-4.8-2-8.8 1-3.3 3-4.2 4.5-4.2h3.5l3.3 24.7H580c2.8-.5 4.2-3.2 4-5.2z" fill="#da251d" transform="matrix(.66515 0 0 .66742 0 -3.2)"/><path d="M527 466.6c6.2 1 9.2-.5 16-8.3 6.7-7.7 16.9-14.5 27.6-21.7 10.8-7.3 9.7-24.9 10-30.6 1.1-16.8-5-48.6-6.4-76.8-.3-6.6 2-24.4 7.3-37.8a62 62 0 003.2-36.2c-1-3.2-4.7-8.1-7.8-8h36.5c2.3 0 5.6 7.3 7 13.4 1.8 8.7-.3 29.3-3.7 37.8a116.5 116.5 0 00-8.4 29.6c-1.7 20 7.6 64.9 5.9 91-.8 12.5-7.3 31.7-20.5 40.6-9.6 6.5-18 14-23.5 20.2-7 8-14.2 13-24.7 14.5-9.4 1.4-16-.7-18-7-5.8-17.8-8.4-28.9-8.4-28.9.8 2.8 1.6 7.2 7.9 8.2z" fill="#fff500" transform="matrix(.66515 0 0 .66742 0 -3.2)"/><path d="M526.7 468.7c7.5 1.2 11.2-1.3 17.9-9 6.4-7.3 16.1-14 26.4-20.9l.8-.5c11.4-7.7 10.6-25.9 11-32.2 1-16.3-5.1-48.7-6.4-76.9-.3-6.6 1.9-24.4 7.2-37.8a62 62 0 003.3-36.2c-1-3.2-4.7-8-7.7-8h32c2.3 0 5.7 7.3 7 13.4 1.9 8.7-.2 29.3-3.6 37.8a117.5 117.5 0 00-8.4 29.8c-1.7 20 7.7 65.2 6 90-.7 12.4-7.2 31.6-20.4 40.5-9.6 6.5-18.1 14-23.5 20.2-7 8-14.6 12-25 13.4-7 1-12.6-1.1-15.8-5 0 0 0 0 0 0-2.9-8.8-5-15.9-6.3-20.9 1.3 1 3 1.9 5.5 2.3z" fill="#da251d" transform="matrix(.66515 0 0 .66742 0 -3.2)"/><path d="M526.3 470.8c8.6 1.3 13.1-1.9 19.9-9.7a137 137 0 0126.8-21c12.2-8.2 11.5-27 11.9-33.8 1-16.2-5.1-48.9-6.4-77-.3-6.7 2-24.5 7.2-37.9a62 62 0 003.3-36.2c-1-3.1-4.5-7.8-7.5-8h27.7c2.2 0 5.5 7.3 6.9 13.4 1.8 8.7-.2 29.3-3.6 37.8-4.3 10.7-7.7 22-8.4 30-1.7 20 7.8 64.6 6.2 88.8-.8 12.5-7.3 31.7-20.4 40.6-9.6 6.5-18.1 14-23.5 20.2-7 8-14.8 10.7-25.3 12.2-6 .9-11-1.4-14.2-4.8-2-6.3-3.7-11.7-4.9-16 1.2.6 2.6 1.1 4.3 1.4z" fill="#fff500" transform="matrix(.66515 0 0 .66742 0 -3.2)"/><path d="M526 472.9c9.5 1.5 14.6-2.2 21.8-10.4 6-7 15.6-13.3 25.6-20.1l.8-.5c13-8.8 12.3-28.1 12.8-35.5 1-16.2-5-49-6.4-77.2-.3-6.6 2-24.4 7.3-37.8a62 62 0 003.2-36.2c-1-3-4.4-7.7-7.4-8H607c2.3 0 5.6 7.3 7 13.4 1.8 8.7-.2 29.3-3.6 37.8a119.7 119.7 0 00-8.4 30.2c-1.7 20 8 63.9 6.4 87.7-.8 12.5-7.3 31.7-20.4 40.6-9.7 6.5-18.2 14-23.5 20.2-7.1 8-14.5 9.5-25 11a15 15 0 01-13.2-4.6c-1.4-4.3-2.6-8.1-3.5-11.4l3.2.8z" fill="#da251d" transform="matrix(.66515 0 0 .66742 0 -3.2)"/></g><g stroke-linejoin="round"><path d="M416.9 119c-.6-13-2.7-27.5-7.4-46.6a79.2 79.2 0 0130.7 38.3l-7 41.4c-5-11.4-10.3-22.6-16.3-33z" stroke-width=".2" stroke="#e77817" fill="#e77817" transform="matrix(.66515 0 0 .66742 0 -3.2)"/><path d="M439.3 112.5l-6.1 38.8-14-29c-.6-12-3.7-33.1-6.2-45 9.4 7.7 20.5 19 26.3 35.2z" stroke-width=".1" stroke="#f8c300" fill="#f8c300" transform="matrix(.66515 0 0 .66742 0 -3.2)"/><path d="M485.2 119c.6-13 2.6-27.5 7.4-46.6a79.2 79.2 0 00-30.8 38.3l7 41.4c5-11.4 10.3-22.6 16.4-33z" stroke-width=".2" stroke="#e77817" fill="#e77817" transform="matrix(.66515 0 0 .66742 0 -3.2)"/><path d="M463.3 112a446 446 0 006.2 39c3.2-6.7 9-23 12.7-29.4a189 189 0 016.6-43.5 93.4 93.4 0 00-25.5 34z" stroke-width=".1" stroke="#f8c300" fill="#f8c300" transform="matrix(.66515 0 0 .66742 0 -3.2)"/><path d="M394 190a219.7 219.7 0 01114.6 0l4.7-17.4a201.7 201.7 0 00-124.8 0L394 190z" stroke-width=".2" stroke="#e77817" fill="#fff500" transform="matrix(.66515 0 0 .66742 0 -3.2)"/><path d="M505.8 185.4c.7-2.8 3-10.2 2.5-10.3a206.9 206.9 0 00-114.7 0h-.1l.2.7 3 9.6c36.4-8.8 72.7-8.8 109.1 0z" stroke-width=".1" stroke="#f8c300" fill="#f8c300" transform="matrix(.66515 0 0 .66742 0 -3.2)"/><path d="M388.5 172.2c-7-28-19.3-48.7-33.1-67.6a63.2 63.2 0 0149 45.6 343.5 343.5 0 00-22.1-62.7c24.3 15 42.2 36.3 50.8 66.5 5.4-30.3 10.6-61 15-93.4-9.2-.6-11-12.5-1.8-13 .1-13.2 10-14.7 10 0 8 1.7 7 13-1.8 13 4.4 32.3 9.6 63 15 93.4a111.5 111.5 0 0150.9-66.5 343.5 343.5 0 00-22.1 62.7c8-26 25.2-39.9 49-45.6a186.7 186.7 0 00-33.2 67.6 217.4 217.4 0 00-125.6 0z" stroke-width=".5" stroke="#e77817" fill="#fff500" transform="matrix(.66515 0 0 .66742 0 -3.2)"/><path d="M436 159.6a2576 2576 0 0015.2-92.4l.1-.5v.5c4.5 30.9 9.8 61.7 15.2 92.4-10.1-.6-20.3-.6-30.4 0zm15-102.4l-4.4-1-1.2-.7-.8-1-.3-1v-.8l.2-.4.6-.4 4.9-1 .7-6.8.7-2.1.6 1.6.6 6.7 4 1.7.7.6.4.8v1l-.2.8-.6.7-.9.5zM471.8 160a119 119 0 0139.4-61.4 423.2 423.2 0 00-20 64.1c-6.5-1.1-13-2-19.4-2.7zm25.8 4c7-20.6 15.3-43.6 38.5-51.7l1.2-.5a194.3 194.3 0 00-25.7 54.2l-.4 1.4c-4.5-1.3-9-2.4-13.6-3.4zm-67-4c-6.5.7-12.9 1.6-19.3 2.7a416.3 416.3 0 00-20-64.1 118.6 118.6 0 0139.3 61.4zm-25.8 4l-1.9.4-11.7 3a189.5 189.5 0 00-26-55.6c23.4 9 32.3 30.9 39.6 52.2z" stroke-width=".1" stroke="#f8c300" fill="#f8c300" transform="matrix(.66515 0 0 .66742 0 -3.2)"/></g><path d="M337.8 174v230c0 26.1 16 29.2 26.2 29.2h63.3c11.5.1 22.3 8 24 24.4 1.7-16.1 12.4-24.4 24-24.4h63.4c10.3 0 26.1-4 26.1-28.6V174z" stroke-linejoin="round" stroke-width=".8" stroke="#1f1a17" fill="#0093dd" transform="matrix(.66515 0 0 .66742 0 -3.2)"/><g><g stroke-linejoin="round" stroke-width=".1"><path d="M446.4 199.7c-4.7.7-9.5-.7-14-3.5-3.4-2.2-9-2.6-11.2 0-3 3.6 1.2 8.5 6.8 7.8 1.4 4 5.7 5 10.8 3.7 2.6-.7 5.3-1.8 7.9-3.7-.3-1.4-.5-2.9-.3-4.3z" stroke="#1f1a17" fill="#aaa9a9" transform="matrix(.66515 0 0 .66742 0 -3.2)"/><path d="M434 197.6c-2.4-1.2-4.2-2.3-6.9-2.6-1.5 0-3 0-4.3.7-1.2.6-2 1.5-2 2.9.5 3.8 4.9 5.1 7.6 4.9 1.2 3.1 3.3 4.3 7.2 4.2 3.7-.3 7.2-1.8 10.3-3.8l.2-.1c-.2-1.1-.4-2.2-.4-3.3v-.2h-.2c-4 .5-8-.7-11.6-2.7z" stroke="#aaa9a9" fill="#fff" transform="matrix(.66515 0 0 .66742 0 -3.2)"/><path d="M444.4 202.7c-5.9-.8-11.1-.3-16.1 1.4l-1.1-.2c2.2-.7 4.5-1.3 7-1.6a26.2 26.2 0 00-14-3.4c0-.2 0-.4.2-.4 5-.1 9.4 1.3 13.8 3.8 3.2-.3 6.5-.2 10.2.4zm1.7-2c-2.9.4-6.4.8-9.2-1-2 .6-4.3.2-6.5-1.3-2.7-2-5.7-3-8.7-2.6 3-.4 6.2.3 9 2.3 2.1 1.6 4.2 2.2 6.2 1.5 2.8 2.2 6.2 2 9.2 1z" stroke="#1f1a17" fill="#1f1a17" transform="matrix(.66515 0 0 .66742 0 -3.2)"/><path d="M446.4 199.6c0-.3.3-.6 1-1-1.2-1.1-2.4-2-3.6-2 0-1.8-1-3.4-3-4.8l1.2-3.2-1.4 2.7-1.1-3c.7 4.9 3 8.6 6.9 11.3z" stroke="#1f1a17" fill="#aaa9a9" transform="matrix(.66515 0 0 .66742 0 -3.2)"/><path d="M443.5 196.7c0-2-.9-3.2-2.4-4.5l-.4-.2h0c.7 1.6 1.6 3.5 2.8 4.7zm.2.2c.8.9 1.6 1.6 2.5 2.3h0l.7-.6c-1-.8-1.9-1.7-3.2-1.7z" stroke="#aaa9a9" fill="#fff" transform="matrix(.66515 0 0 .66742 0 -3.2)"/><g><path d="M447.1 205.9c-5.3 1-11.6 3-14.1 9.9a7.4 7.4 0 01-2.5 3.6c1 0 1.8-.8 2.7-2.4.2 1 .6 1.8.9 2.3-.2-.9-.5-2.1-.5-3.5 2.2-.3 3.2-2.1 3.3-5 2 1.8 3.3.6 4.3-2.1 1.7 1.6 4-.1 6.2-2.3 0-.2-.2-.4-.3-.5z" stroke="#1f1a17" fill="#aaa9a9" transform="matrix(.66515 0 0 .66742 0 -3.2)"/><path d="M437 210.5c2 1.6 2.9.6 3.8-1.5l.3-.8c2.2 1.9 4.2-.2 6-1.9h0l-.1-.1c-2 .4-4 1-6 1.7-1.4.7-2.8 1.5-4 2.6zm-.4.2v.2a14 14 0 00-3.1 4.3l-.1.3c1.7-.3 2.5-1.1 3-2.8v-.4l.2-.5v-.5z" stroke="#aaa9a9" fill="#fff" transform="matrix(.66515 0 0 .66742 0 -3.2)"/></g><g><path d="M448.9 208c-4.2.8-8 3.1-11.2 7.5 3.1 1.8 2 3.2-1.2 4.5.2 2 0 3.7-.6 5.2 2 .7.8 2.2-.3 3.9.8-.6 1.5-1.3 2-2.8.5 1.7 1.1 2.5 2 2.9-.8-.7-1.5-1.5-1.5-3.6.8-1.8 1.6-4.3 2.2-7.4 2-5 5-8.3 9.2-9.6l-.6-.6z" stroke="#1f1a17" fill="#aaa9a9" transform="matrix(.66515 0 0 .66742 0 -3.2)"/><path d="M437.3 226.3v.1l.4-.9.2.7v-.6c.9-2.2 1.5-4.5 2-6.9.3-1.1.8-2.2 1.4-3.2 1.8-3.3 4.1-5.8 7.6-7v-.2c-4.5.9-7.9 3.5-10.7 7v.1l.2.2c1 .7 1.8 1.5 1.1 2.8l-.2.3c-.7.6-1.6 1-2.5 1.4 0 1-.6 5-.1 5.2.3.3.5.5.6 1z" stroke="#aaa9a9" fill="#fff" transform="matrix(.66515 0 0 .66742 0 -3.2)"/></g></g><g stroke-linejoin="round" stroke-width=".1"><path d="M457.9 199.7c4.6.7 9.5-.7 14-3.5 3.3-2.2 9-2.6 11.1 0 3 3.6-1.2 8.5-6.8 7.8-1.4 4-5.7 5-10.8 3.7-2.6-.7-5.3-1.8-7.9-3.7.3-1.4.5-2.9.4-4.3z" stroke="#1f1a17" fill="#aaa9a9" transform="matrix(.66515 0 0 .66742 0 -3.2)"/><path d="M470.3 197.6c2.3-1.2 4-2.3 6.8-2.6 1.5 0 3 0 4.3.7 1.2.6 2 1.5 2 2.9-.5 3.8-4.9 5.1-7.6 4.9-1.2 3.1-3.3 4.3-7.2 4.2-3.7-.3-7.2-1.8-10.3-3.8l-.2-.1c.6-.8.7-1.9.4-3.3v-.2h.2c4 .5 8-.7 11.6-2.7z" stroke="#aaa9a9" fill="#fff" transform="matrix(.66515 0 0 .66742 0 -3.2)"/><path d="M459.8 202.7c5.9-.8 11.2-.3 16.1 1.4l1.1-.2c-2.2-.7-4.5-1.3-7-1.6 4.7-2.3 9.3-3.8 14-3.4 0-.2 0-.4-.2-.4-5-.1-9.4 1.3-13.8 3.8-3.2-.3-6.5-.2-10.2.4zm-1.7-2c2.9.4 6.4.8 9.2-1 2 .6 4.4.2 6.5-1.3 2.8-2 5.7-3 8.7-2.6-3-.4-6.2.3-9 2.3-2.1 1.6-4.1 2.2-6.2 1.5-2.8 2.2-6.2 2-9.2 1z" stroke="#1f1a17" fill="#1f1a17" transform="matrix(.66515 0 0 .66742 0 -3.2)"/><path d="M457.8 199.6c0-.3-.3-.6-1-1 1.3-1.1 2.4-2 3.6-2 0-1.8 1-3.4 3-4.8l-1.2-3.2 1.4 2.7 1.2-3c-.8 4.9-3.1 8.6-7 11.3z" stroke="#1f1a17" fill="#aaa9a9" transform="matrix(.66515 0 0 .66742 0 -3.2)"/><path d="M460.7 196.7c0-2 .9-3.2 2.5-4.5l.3-.2h0c-.7 1.6-1.6 3.5-2.8 4.7zm-.2.2c-.8.9-1.6 1.6-2.5 2.3h0l-.7-.6c1-.8 2-1.7 3.2-1.7z" stroke="#aaa9a9" fill="#fff" transform="matrix(.66515 0 0 .66742 0 -3.2)"/><g><path d="M457 205.9c5.4 1 11.7 3 14.2 9.9a7.4 7.4 0 002.6 3.6c-1 0-2-.8-2.8-2.4-.2 1-.6 1.8-.9 2.3.2-.9.5-2.1.5-3.5-2.2-.3-3.2-2.1-3.3-5-2 1.8-3.3.6-4.3-2.1-1.7 1.6-3.9-.1-6.2-2.3l.3-.5z" stroke="#1f1a17" fill="#aaa9a9" transform="matrix(.66515 0 0 .66742 0 -3.2)"/><path d="M467.3 210.5c-2 1.6-3 .6-3.8-1.5l-.4-.8c-2.2 1.9-4.2-.2-6-1.9h.1v-.1c2 .4 4 1 6 1.7 1.4.7 2.8 1.5 4 2.6zm.3.2l.1.2a14 14 0 013 4.3l.1.3c-1.7-.3-2.5-1.1-3-2.8v-.4l-.1-.5-.1-.5z" stroke="#aaa9a9" fill="#fff" transform="matrix(.66515 0 0 .66742 0 -3.2)"/></g><g><path d="M455.3 208c4.2.8 8 3.1 11.2 7.5-3.1 1.8-2 3.2 1.2 4.5-.2 2 0 3.7.6 5.2-2 .7-.8 2.2.3 3.9a5.7 5.7 0 01-2-2.8c-.5 1.7-1.1 2.5-2 2.9.8-.7 1.5-1.5 1.5-3.6a42 42 0 01-2.2-7.4c-2-5-5-8.3-9.2-9.6l.6-.6z" stroke="#1f1a17" fill="#aaa9a9" transform="matrix(.66515 0 0 .66742 0 -3.2)"/><path d="M467 226.3v.1l-.4-.9-.3.7v-.6c-.9-2.2-1.5-4.5-2-6.9-.3-1.1-.8-2.2-1.4-3.2a14.2 14.2 0 00-7.6-7l.1-.2c4.4.9 7.8 3.5 10.6 7v.1l-.2.2c-1 .7-1.8 1.5-1.1 2.8l.2.3c.8.6 1.6 1 2.5 1.4 0 1 .6 5 .1 5.2-.3.3-.5.5-.6 1z" stroke="#aaa9a9" fill="#fff" transform="matrix(.66515 0 0 .66742 0 -3.2)"/></g></g><g transform="matrix(.66515 0 0 .66742 0 -3.2)"><path d="M447.9 198.5c-1.9-1.6-3.1-3.6-.6-5.5 1-.8 2.7-1 4-1.2.6 0 1-1 1.1-1.7.2.6.5 1.7 1 1.7 1.2.2 2.4.6 3.4 1.3 2.6 1.8 2.2 4.2-.1 5.4-3-.6-5.9-.7-8.8 0z" stroke-linejoin="round" stroke-width=".1" stroke="#1f1a17" fill="#1f1a17"/><linearGradient gradientTransform="matrix(2.8346 0 0 -2.8346 -56 1676.2)" y2="522.8" x2="181.7" y1="522.8" x1="176.8" gradientUnits="userSpaceOnUse" id="a"><stop offset="0" stop-color="#aaa9a9"/><stop offset=".5" stop-color="#fff"/><stop offset="1" stop-color="#aaa9a9"/></linearGradient><path d="M448.1 198.3c-1.8-1.5-3-3.4-.5-5.3a8 8 0 013.7-1c.6-.1 1-1 1.1-1.7.2.6.5 1.6 1 1.7 1.1.1 2.2.5 3.2 1.2 2.5 1.7 2 4-.2 5-2.8-.5-5.5-.5-8.3 0z" stroke-linejoin="round" stroke-width=".1" stroke="#1f1a17" fill="url(#a)"/></g><g transform="matrix(.66515 0 0 .66742 0 -3.2)"><circle r="1.6" cy="195.4" cx="455.1" stroke-linejoin="round" stroke-width=".1" stroke="#1f1a17" fill="#1f1a17"/><radialGradient gradientUnits="userSpaceOnUse" gradientTransform="matrix(2.8346 0 0 -2.8346 -56 1676.2)" r=".5" cy="522.4" cx="180.3" id="b"><stop offset="0" stop-color="#fff"/><stop offset=".5" stop-color="#fff"/><stop offset="1" stop-color="#1f1a17"/></radialGradient><path d="M455.1 194a1.4 1.4 0 010 2.8 1.4 1.4 0 010-2.8z" fill="url(#b)"/></g><g transform="matrix(.66515 0 0 .66742 0 -3.2)"><circle r="1.6" cy="195.4" cx="449.3" stroke-linejoin="round" stroke-width=".1" stroke="#1f1a17" fill="#1f1a17"/><radialGradient gradientUnits="userSpaceOnUse" gradientTransform="matrix(2.8346 0 0 -2.8346 -56 1676.2)" r=".5" cy="522.4" cx="178.3" id="c"><stop offset="0" stop-color="#fff"/><stop offset=".5" stop-color="#fff"/><stop offset="1" stop-color="#1f1a17"/></radialGradient><path d="M449.3 194a1.4 1.4 0 010 2.8 1.4 1.4 0 010-2.8z" fill="url(#c)"/></g><g stroke-linejoin="round" stroke-width=".1"><path d="M451.6 191.8l-.7-3.6c-2.4.3-5-.4-7.4-1.7 2 1.7 4.2 3 7.3 3.2l.4 2.2.4-.1z" stroke="#1f1a17" fill="#aaa9a9" transform="matrix(.66515 0 0 .66742 0 -3.2)"/><path d="M450.8 189.4h0v-.9c-1.8.2-3.8-.2-5.4-.8a9.7 9.7 0 005.4 1.7z" stroke="#aaa9a9" fill="#fff" transform="matrix(.66515 0 0 .66742 0 -3.2)"/><g><path d="M453.2 191.8l.7-3.6c2.5.3 5-.4 7.5-1.7-2 1.7-4.3 3-7.4 3.2l-.3 2.2-.5-.1z" stroke="#1f1a17" fill="#aaa9a9" transform="matrix(.66515 0 0 .66742 0 -3.2)"/><path d="M454 189.4h0l.1-.9c1.7.2 3.7-.2 5.3-.8a9.7 9.7 0 01-5.3 1.7z" stroke="#aaa9a9" fill="#fff" transform="matrix(.66515 0 0 .66742 0 -3.2)"/></g></g><g transform="matrix(.66515 0 0 .66742 0 -3.2)"><path d="M446.8 204c-.3-1.3-.6-2.5-.3-4.3.1-.6.7-1.2 1.4-1.3 2.7-.8 5.8-.7 8.6 0 .5.1 1 .7 1.4 1.4.6 1.3.4 2.6 0 4-.7 2-1.4 3.8-2.8 4.7a5 5 0 01-5.5 0c-1-.6-2.2-1.8-2.8-4.4z" stroke-linejoin="round" stroke-width=".1" stroke="#1f1a17" fill="#1f1a17"/><radialGradient gradientUnits="userSpaceOnUse" gradientTransform="matrix(2.8346 0 0 -2.8346 -56 1676.2)" r="2.2" cy="519.5" cx="179.3" id="d"><stop offset="0" stop-color="#fff"/><stop offset=".5" stop-color="#dededd"/><stop offset="1" stop-color="#aaa9a9"/></radialGradient><path d="M447.2 204c-.3-1.2-.6-2.4-.3-4 .1-.6.7-1.1 1.3-1.3 2.6-.7 5.3-.6 7.8 0 .6.2 1.2.9 1.5 1.5.6 1.2.3 2.3-.1 3.6-.6 1.8-1.2 3.5-2.5 4.3a4.6 4.6 0 01-5 0c-1.1-.5-2.1-1.6-2.7-4z" stroke-linejoin="round" stroke-width=".1" stroke="#1f1a17" fill="url(#d)"/></g><g transform="matrix(.66515 0 0 .66742 0 -3.2)"><path d="M459.9 220.4c0-5.1-1.7-8.7-5.8-11.3a8 8 0 01-3.6 0c-3.6 1.8-6.6 5.5-6.6 11.3 0 6.7 4.7 12.3 8.4 15.5 3.7-3.7 7.5-8.7 7.6-15.5z" stroke-linejoin="round" stroke-width=".1" stroke="#1f1a17" fill="#1f1a17"/><linearGradient gradientTransform="matrix(2.8346 0 0 -2.8346 -56 1676.2)" y2="512.8" x2="181.8" y1="512.8" x1="176.5" gradientUnits="userSpaceOnUse" id="e"><stop offset="0" stop-color="#aaa9a9"/><stop offset=".4" stop-color="#fff"/><stop offset=".5" stop-color="#fff"/><stop offset=".6" stop-color="#fff"/><stop offset="1" stop-color="#aaa9a9"/></linearGradient><path d="M459.3 220.6c.1-4.8-1.6-8.1-5.3-10.6-1 .3-2.2.3-3.4 0-3.4 1.7-6.1 5.2-6.1 10.6 0 6.2 4.3 11.3 7.8 14.3 3.4-3.4 7-8 7-14.3z" stroke-linejoin="round" stroke-width=".1" stroke="#1f1a17" fill="url(#e)"/><path d="M458.9 216.6h-13.8c-.3.9-.5 1.9-.6 3h14.8c0-1.1-.2-2-.4-3zm-.7-1.8a10 10 0 00-.5-1.1h-11.3l-.6 1zm-13.7 6.3c0 1 .2 2 .4 3h14c.2-1 .4-2 .4-3zm1.1 5l1.3 2.7h10.2c.4-.9.9-1.7 1.2-2.7z" stroke-linejoin="round" stroke-width=".1" stroke="#1f1a17" fill="#838281"/></g><g><g stroke-linejoin="round" stroke-width=".1"><path d="M513.6 199.5c-4.7.7-9.5-.7-14-3.5-3.4-2.1-9-2.6-11.1 0-3 3.6 1.2 8.5 6.8 7.9 1.3 4 5.7 5 10.8 3.6 2.6-.6 5.3-1.8 7.9-3.6-.3-1.5-.6-3-.4-4.4z" stroke="#1f1a17" fill="#aaa9a9" transform="matrix(.66515 0 0 .66742 0 -3.2)"/><path d="M501.2 197.5c-2.3-1.3-4.1-2.4-6.8-2.6-1.5-.1-3 0-4.4.7-1.1.6-2 1.5-1.9 2.8.5 3.8 4.9 5.1 7.6 5 1.1 3 3.3 4.3 7.1 4.1 3.7-.3 7.3-1.8 10.4-3.8l.1-.1c-.2-1-.3-2.2-.3-3.3v-.1h-.2c-4.1.4-8-.8-11.6-2.7z" stroke="#aaa9a9" fill="#fff" transform="matrix(.66515 0 0 .66742 0 -3.2)"/><path d="M511.7 202.5c-6-.8-11.2-.3-16.2 1.4l-1-.1c2.1-.8 4.5-1.4 7-1.6a26.2 26.2 0 00-14-3.5l.1-.4c5-.1 9.5 1.3 13.9 3.9 3.1-.3 6.5-.3 10.2.3zm1.7-2c-2.9.5-6.4.8-9.2-1-2 .6-4.4.3-6.5-1.3-2.8-2-5.7-3-8.8-2.6 3-.4 6.3.3 9 2.4 2.2 1.5 4.2 2.1 6.3 1.5 2.8 2 6.2 2 9.2 1z" stroke="#1f1a17" fill="#1f1a17" transform="matrix(.66515 0 0 .66742 0 -3.2)"/><path d="M513.6 199.5c.1-.4.4-.7 1-1-1.2-1.2-2.3-2.1-3.5-2 0-1.9-1-3.5-3-5l1.2-3-1.4 2.6-1.2-3c.8 4.9 3.1 8.6 7 11.4z" stroke="#1f1a17" fill="#aaa9a9" transform="matrix(.66515 0 0 .66742 0 -3.2)"/><path d="M510.8 196.5c0-1.9-1-3.2-2.5-4.4l-.3-.3h0c.6 1.6 1.6 3.5 2.8 4.7zm.2.3a19 19 0 002.4 2.2h.1l.6-.6c-.9-.8-1.8-1.7-3.1-1.6z" stroke="#aaa9a9" fill="#fff" transform="matrix(.66515 0 0 .66742 0 -3.2)"/><g><path d="M514.4 205.7c-5.3 1-11.6 3-14.2 9.9a7.4 7.4 0 01-2.5 3.7c1 0 1.9-.9 2.7-2.5.3 1 .7 1.9 1 2.4-.3-1-.6-2.2-.5-3.6 2.2-.3 3.2-2 3.3-5 2 1.8 3.3.6 4.3-2.1 1.7 1.6 3.9 0 6.2-2.3l-.3-.5z" stroke="#1f1a17" fill="#aaa9a9" transform="matrix(.66515 0 0 .66742 0 -3.2)"/><path d="M504.2 210.3c2 1.6 3 .7 3.8-1.4l.3-.9c2.3 2 4.3-.2 6-1.8v-.2c-2 .4-4 1-6 1.7-1.5.7-2.8 1.5-4.1 2.6zm-.3.3h-.1a14 14 0 00-3 4.5l-.1.2c1.7-.3 2.5-1.1 3-2.8v-.4l.1-.5v-.4z" stroke="#aaa9a9" fill="#fff" transform="matrix(.66515 0 0 .66742 0 -3.2)"/></g><g><path d="M516.2 207.9c-4.2.7-8 3-11.2 7.4 3.1 1.8 2 3.2-1.3 4.5.2 2 0 3.7-.6 5.2 2.1.7.9 2.3-.2 3.9.7-.6 1.5-1.3 2-2.7.4 1.6 1.1 2.4 1.9 2.8-.8-.7-1.4-1.5-1.4-3.5.8-1.9 1.5-4.3 2.2-7.5 2-4.9 4.9-8.3 9.2-9.6l-.6-.5z" stroke="#1f1a17" fill="#aaa9a9" transform="matrix(.66515 0 0 .66742 0 -3.2)"/><path d="M504.5 226.1v.2l.4-1 .2.7v-.6c1-2.2 1.6-4.5 2-6.9.3-1.1.9-2.2 1.4-3.2 1.8-3.3 4.2-5.8 7.7-7l-.1-.1c-4.4.8-7.8 3.4-10.6 6.9l-.1.1.3.2c1 .7 1.8 1.5 1.1 2.8l-.2.3c-.8.7-1.6 1-2.6 1.5.1 1-.5 4.8 0 5 .3.4.5.6.5 1.1z" stroke="#aaa9a9" fill="#fff" transform="matrix(.66515 0 0 .66742 0 -3.2)"/></g></g><g stroke-linejoin="round" stroke-width=".1"><path d="M525.1 199.5c4.7.7 9.5-.7 14-3.5 3.4-2.1 9-2.6 11.2 0 3 3.6-1.3 8.5-6.9 7.9-1.3 4-5.6 5-10.8 3.6-2.5-.6-5.3-1.8-7.8-3.6.3-1.5.5-3 .3-4.4z" stroke="#1f1a17" fill="#aaa9a9" transform="matrix(.66515 0 0 .66742 0 -3.2)"/><path d="M537.5 197.5c2.3-1.3 4.1-2.4 6.8-2.6 1.6-.1 3 0 4.4.7 1.1.6 2 1.5 1.9 2.8-.4 3.8-4.8 5.1-7.6 5-1.1 3-3.3 4.3-7.1 4.1-3.7-.3-7.3-1.8-10.3-3.8l-.2-.1c.5-.8.7-1.9.3-3.3v-.1h.2c4.2.4 8-.8 11.6-2.7z" stroke="#aaa9a9" fill="#fff" transform="matrix(.66515 0 0 .66742 0 -3.2)"/><path d="M527 202.5c6-.8 11.2-.3 16.2 1.4l1-.1c-2.1-.8-4.4-1.4-7-1.6 4.7-2.4 9.3-3.8 14-3.5v-.4c-5-.1-9.6 1.3-14 3.9-3-.3-6.5-.3-10.2.3zm-1.6-2c2.8.5 6.3.8 9.2-1 2 .6 4.3.3 6.5-1.3 2.7-2 5.6-3 8.7-2.6-3-.4-6.2.3-9 2.4-2.1 1.5-4.2 2.1-6.2 1.5-2.9 2-6.2 2-9.2 1z" stroke="#1f1a17" fill="#1f1a17" transform="matrix(.66515 0 0 .66742 0 -3.2)"/><path d="M525.1 199.5c-.1-.4-.4-.7-1-1 1.2-1.2 2.4-2.1 3.5-2 0-1.9 1-3.5 3-5l-1.1-3 1.4 2.6 1.1-3c-.8 4.9-3 8.6-6.9 11.4z" stroke="#1f1a17" fill="#aaa9a9" transform="matrix(.66515 0 0 .66742 0 -3.2)"/><path d="M528 196.5c0-1.9.8-3.2 2.4-4.4l.3-.3h0c-.6 1.6-1.6 3.5-2.8 4.7zm-.3.3c-.7.8-1.5 1.5-2.4 2.2h0l-.7-.6c.9-.8 1.9-1.7 3.1-1.6z" stroke="#aaa9a9" fill="#fff" transform="matrix(.66515 0 0 .66742 0 -3.2)"/><g><path d="M524.3 205.7c5.4 1 11.7 3 14.2 9.9a7.4 7.4 0 002.5 3.7c-1 0-1.9-.9-2.7-2.5-.2 1-.7 1.9-1 2.4.3-1 .6-2.2.6-3.6-2.3-.3-3.2-2-3.4-5-2 1.8-3.3.6-4.2-2.1-1.7 1.6-4 0-6.2-2.3l.2-.5z" stroke="#1f1a17" fill="#aaa9a9" transform="matrix(.66515 0 0 .66742 0 -3.2)"/><path d="M534.5 210.3c-2 1.6-2.9.7-3.8-1.4l-.3-.9c-2.3 2-4.2-.2-6-1.8v-.2c2.1.4 4 1 6 1.7 1.5.7 2.9 1.5 4.1 2.6zm.3.3h.2a14 14 0 013 4.5v.2c-1.7-.3-2.4-1.1-3-2.8v-.9l-.1-.4z" stroke="#aaa9a9" fill="#fff" transform="matrix(.66515 0 0 .66742 0 -3.2)"/></g><g><path d="M522.6 207.9c4.2.7 8 3 11.2 7.4-3.2 1.8-2 3.2 1.2 4.5-.2 2 0 3.7.6 5.2-2 .7-.9 2.3.3 3.9a5.7 5.7 0 01-2-2.7c-.5 1.6-1.2 2.4-2 2.8.8-.7 1.5-1.5 1.4-3.5a42 42 0 01-2.2-7.5c-2-4.9-4.9-8.3-9.1-9.6l.6-.5z" stroke="#1f1a17" fill="#aaa9a9" transform="matrix(.66515 0 0 .66742 0 -3.2)"/><path d="M534.2 226.1v.2l-.4-1-.2.7v-.6c-1-2.2-1.5-4.5-2-6.9-.3-1.1-.9-2.2-1.4-3.2a14.3 14.3 0 00-7.7-7l.2-.1c4.4.8 7.8 3.4 10.5 6.9l.1.1-.2.2c-1 .7-1.9 1.5-1.2 2.8l.3.3c.7.7 1.6 1 2.5 1.5-.1 1 .6 4.8.1 5-.4.4-.5.6-.6 1.1z" stroke="#aaa9a9" fill="#fff" transform="matrix(.66515 0 0 .66742 0 -3.2)"/></g></g><g transform="matrix(.66515 0 0 .66742 0 -3.2)"><path d="M515.1 198.3c-1.8-1.5-3-3.6-.5-5.5 1-.7 2.7-1 4-1.2.5 0 .9-1 1-1.7.3.7.6 1.7 1.1 1.8 1.2.1 2.4.6 3.4 1.2 2.6 1.8 2.2 4.2-.2 5.4-3-.6-5.8-.6-8.8 0z" stroke-linejoin="round" stroke-width=".1" stroke="#1f1a17" fill="#1f1a17"/><linearGradient gradientTransform="matrix(2.8346 0 0 -2.8346 -56 1676.2)" y2="522.8" x2="205.4" y1="522.8" x1="200.5" gradientUnits="userSpaceOnUse" id="f"><stop offset="0" stop-color="#aaa9a9"/><stop offset=".5" stop-color="#fff"/><stop offset="1" stop-color="#aaa9a9"/></linearGradient><path d="M515.4 198.1c-1.8-1.5-3-3.4-.6-5.2a8 8 0 013.8-1.2c.6 0 .9-1 1-1.6.3.6.6 1.6 1 1.7 1.2.1 2.3.6 3.2 1.2 2.5 1.7 2.2 4-.1 5.1-2.8-.6-5.5-.6-8.3 0z" stroke-linejoin="round" stroke-width=".1" stroke="#1f1a17" fill="url(#f)"/></g><g transform="matrix(.66515 0 0 .66742 0 -3.2)"><circle r="1.6" cy="195.2" cx="522.4" stroke-linejoin="round" stroke-width=".1" stroke="#1f1a17" fill="#1f1a17"/><radialGradient gradientUnits="userSpaceOnUse" gradientTransform="matrix(2.8346 0 0 -2.8346 -56 1676.2)" r=".5" cy="522.4" cx="204" id="g"><stop offset="0" stop-color="#fff"/><stop offset=".5" stop-color="#fff"/><stop offset="1" stop-color="#1f1a17"/></radialGradient><path d="M522.4 193.8a1.4 1.4 0 010 2.8c-.8 0-1.4-.6-1.4-1.4 0-.7.6-1.4 1.4-1.4z" fill="url(#g)"/></g><g transform="matrix(.66515 0 0 .66742 0 -3.2)"><circle r="1.6" cy="195.2" cx="516.6" stroke-linejoin="round" stroke-width=".1" stroke="#1f1a17" fill="#1f1a17"/><radialGradient gradientUnits="userSpaceOnUse" gradientTransform="matrix(2.8346 0 0 -2.8346 -56 1676.2)" r=".5" cy="522.4" cx="202" id="h"><stop offset="0" stop-color="#fff"/><stop offset=".5" stop-color="#fff"/><stop offset="1" stop-color="#1f1a17"/></radialGradient><path d="M516.6 193.8a1.4 1.4 0 010 2.8c-.8 0-1.4-.6-1.4-1.4 0-.7.6-1.4 1.4-1.4z" fill="url(#h)"/></g><g stroke-linejoin="round" stroke-width=".1"><path d="M518.9 191.6l-.7-3.5c-2.5.3-5-.5-7.5-1.8 2 1.7 4.3 3 7.3 3.2l.4 2.2.5-.1z" stroke="#1f1a17" fill="#aaa9a9" transform="matrix(.66515 0 0 .66742 0 -3.2)"/><path d="M518 189.2h.1l-.1-.8c-1.7.1-3.7-.3-5.3-.9 1.6 1.1 3.4 1.7 5.3 1.7z" stroke="#aaa9a9" fill="#fff" transform="matrix(.66515 0 0 .66742 0 -3.2)"/><g><path d="M520.5 191.6l.6-3.5c2.5.3 5-.5 7.5-1.8-2 1.7-4.3 3-7.3 3.2l-.4 2.2-.4-.1z" stroke="#1f1a17" fill="#aaa9a9" transform="matrix(.66515 0 0 .66742 0 -3.2)"/><path d="M521.3 189.2h0v-.8c1.8.1 3.8-.3 5.4-.9a9.7 9.7 0 01-5.4 1.7z" stroke="#aaa9a9" fill="#fff" transform="matrix(.66515 0 0 .66742 0 -3.2)"/></g></g><g transform="matrix(.66515 0 0 .66742 0 -3.2)"><path d="M514 203.9c-.2-1.4-.6-2.6-.2-4.4 0-.5.7-1.2 1.3-1.3 2.8-.7 5.8-.7 8.6 0 .6.2 1 .7 1.4 1.4.7 1.3.4 2.6 0 4-.7 2-1.4 3.8-2.8 4.7a5 5 0 01-5.4 0c-1.1-.6-2.2-1.8-2.8-4.4z" stroke-linejoin="round" stroke-width=".1" stroke="#1f1a17" fill="#1f1a17"/><radialGradient gradientUnits="userSpaceOnUse" gradientTransform="matrix(2.8346 0 0 -2.8346 -56 1676.2)" r="2.2" cy="519.5" cx="203.1" id="i"><stop offset="0" stop-color="#fff"/><stop offset=".5" stop-color="#dededd"/><stop offset="1" stop-color="#aaa9a9"/></radialGradient><path d="M514.5 203.9c-.3-1.3-.7-2.5-.3-4.1 0-.5.6-1.1 1.2-1.3 2.6-.6 5.3-.6 8 0 .4.2 1 .9 1.3 1.5.6 1.2.3 2.3 0 3.6-.7 1.8-1.3 3.5-2.6 4.3a4.6 4.6 0 01-5 .1c-1-.6-2-1.7-2.6-4.1z" stroke-linejoin="round" stroke-width=".1" stroke="#1f1a17" fill="url(#i)"/></g><g transform="matrix(.66515 0 0 .66742 0 -3.2)"><path d="M527.2 220.3c0-5.2-1.8-8.7-5.8-11.4a8 8 0 01-3.7 0c-3.6 1.9-6.5 5.6-6.5 11.4 0 6.6 4.6 12.2 8.4 15.4 3.6-3.7 7.5-8.7 7.6-15.4z" stroke-linejoin="round" stroke-width=".1" stroke="#1f1a17" fill="#1f1a17"/><linearGradient gradientTransform="matrix(2.8346 0 0 -2.8346 -56 1676.2)" y2="512.9" x2="205.6" y1="512.9" x1="200.3" gradientUnits="userSpaceOnUse" id="j"><stop offset="0" stop-color="#aaa9a9"/><stop offset=".4" stop-color="#fff"/><stop offset=".5" stop-color="#fff"/><stop offset=".6" stop-color="#fff"/><stop offset="1" stop-color="#aaa9a9"/></linearGradient><path d="M526.6 220.4c0-4.8-1.6-8-5.4-10.6-.9.3-2.2.3-3.4.1-3.3 1.7-6 5.1-6 10.5-.1 6.2 4.3 11.4 7.7 14.3 3.4-3.4 7-8 7.1-14.3z" stroke-linejoin="round" stroke-width=".1" stroke="#1f1a17" fill="url(#j)"/><path d="M526.2 216.4h-13.9c-.3 1-.5 2-.5 3h14.8c0-1-.2-2-.4-3zm-.7-1.8l-.6-1h-11.2c-.2.3-.5.6-.6 1zm-13.8 6.4c0 1 .2 2 .5 2.9h14l.4-3zm1.2 5c.3.9.8 1.8 1.3 2.6h10.1c.5-.8 1-1.7 1.3-2.6z" stroke-linejoin="round" stroke-width=".1" stroke="#1f1a17" fill="#838281"/></g></g><g><g stroke-linejoin="round" stroke-width=".1"><path d="M377.5 199.5c-4.7.7-9.5-.7-14-3.5-3.4-2.1-9-2.6-11.1 0-3 3.6 1.2 8.5 6.8 7.9 1.3 4 5.7 5 10.8 3.6 2.6-.6 5.3-1.8 7.9-3.6-.3-1.5-.6-3-.4-4.4z" stroke="#1f1a17" fill="#aaa9a9" transform="matrix(.66515 0 0 .66742 0 -3.2)"/><path d="M365 197.5c-2.2-1.3-4-2.4-6.7-2.6-1.5-.1-3 0-4.4.7-1.1.6-2 1.5-1.9 2.8.5 3.8 4.9 5.1 7.6 5 1.1 3 3.3 4.3 7.1 4.1 3.7-.3 7.3-1.8 10.4-3.8l.1-.1c-.2-1-.3-2.2-.3-3.3v-.1h-.2c-4.1.4-8-.8-11.6-2.7z" stroke="#aaa9a9" fill="#fff" transform="matrix(.66515 0 0 .66742 0 -3.2)"/><path d="M375.6 202.5c-6-.8-11.2-.3-16.2 1.4l-1-.1c2.1-.8 4.5-1.4 7-1.6a26.2 26.2 0 00-14-3.5l.1-.4c5-.1 9.5 1.3 13.9 3.9 3.1-.3 6.5-.3 10.2.3zm1.7-2c-2.9.5-6.4.8-9.2-1-2 .6-4.4.3-6.5-1.3-2.8-2-5.7-3-8.8-2.6 3-.4 6.3.3 9 2.4 2.2 1.5 4.2 2.1 6.3 1.5 2.8 2 6.2 2 9.2 1z" stroke="#1f1a17" fill="#1f1a17" transform="matrix(.66515 0 0 .66742 0 -3.2)"/><path d="M377.5 199.5c.1-.4.4-.7 1-1-1.2-1.2-2.4-2.1-3.5-2 0-1.9-1-3.5-3-5l1.1-3-1.3 2.6-1.2-3c.8 4.9 3.1 8.6 7 11.4z" stroke="#1f1a17" fill="#aaa9a9" transform="matrix(.66515 0 0 .66742 0 -3.2)"/><path d="M374.7 196.5c0-1.9-1-3.2-2.5-4.4l-.3-.3h0c.6 1.6 1.6 3.5 2.8 4.7zm.2.3a19 19 0 002.4 2.2h.1l.6-.6c-.9-.8-1.8-1.7-3.1-1.6z" stroke="#aaa9a9" fill="#fff" transform="matrix(.66515 0 0 .66742 0 -3.2)"/><g><path d="M378.3 205.7c-5.3 1-11.6 3-14.2 9.9a7.4 7.4 0 01-2.5 3.7c1 0 1.9-.9 2.7-2.5.3 1 .7 1.9 1 2.4-.3-1-.6-2.2-.5-3.6 2.2-.3 3.2-2 3.3-5 2 1.8 3.3.6 4.3-2.1 1.7 1.6 3.9 0 6.2-2.3l-.3-.5z" stroke="#1f1a17" fill="#aaa9a9" transform="matrix(.66515 0 0 .66742 0 -3.2)"/><path d="M368 210.3c2 1.6 3 .7 4-1.4l.2-.9c2.3 2 4.3-.2 6-1.8v-.2c-2 .4-4 1-6 1.7-1.5.7-2.8 1.5-4.1 2.6zm-.2.3h-.1a14 14 0 00-3 4.5l-.1.2c1.7-.3 2.5-1.1 3-2.8v-.4l.1-.5v-.4z" stroke="#aaa9a9" fill="#fff" transform="matrix(.66515 0 0 .66742 0 -3.2)"/></g><g><path d="M380 207.9c-4.1.7-7.9 3-11.1 7.4 3.1 1.8 1.9 3.2-1.3 4.5.2 2 0 3.7-.6 5.2 2.1.7.9 2.3-.2 3.9.7-.6 1.5-1.3 2-2.7.4 1.6 1.1 2.4 1.9 2.8-.8-.7-1.4-1.5-1.4-3.5.8-1.9 1.5-4.3 2.2-7.5 2-4.9 4.9-8.3 9.2-9.6l-.6-.5z" stroke="#1f1a17" fill="#aaa9a9" transform="matrix(.66515 0 0 .66742 0 -3.2)"/><path d="M368.4 226.1v.2l.4-1 .2.7v-.6c1-2.2 1.6-4.5 2-6.9.3-1.1.9-2.2 1.4-3.2 1.8-3.3 4.2-5.8 7.7-7l-.1-.1c-4.4.8-7.8 3.4-10.6 6.9l-.1.1.3.2c1 .7 1.8 1.5 1.1 2.8l-.2.3c-.8.7-1.6 1-2.6 1.5.1 1-.5 4.8 0 5 .3.4.5.6.5 1.1z" stroke="#aaa9a9" fill="#fff" transform="matrix(.66515 0 0 .66742 0 -3.2)"/></g></g><g stroke-linejoin="round" stroke-width=".1"><path d="M389 199.5c4.7.7 9.5-.7 14-3.5 3.4-2.1 9-2.6 11.2 0 3 3.6-1.3 8.5-6.9 7.9-1.3 4-5.6 5-10.8 3.6-2.5-.6-5.3-1.8-7.8-3.6.3-1.5.5-3 .3-4.4z" stroke="#1f1a17" fill="#aaa9a9" transform="matrix(.66515 0 0 .66742 0 -3.2)"/><path d="M401.4 197.5c2.3-1.3 4.1-2.4 6.8-2.6 1.5-.1 3 0 4.4.7 1.1.6 2 1.5 1.9 2.8-.4 3.8-4.8 5.1-7.6 5-1.1 3-3.3 4.3-7.1 4.1-3.7-.3-7.3-1.8-10.3-3.8l-.2-.1c.5-.8.7-1.9.3-3.3v-.1h.2c4.1.4 8-.8 11.6-2.7z" stroke="#aaa9a9" fill="#fff" transform="matrix(.66515 0 0 .66742 0 -3.2)"/><path d="M391 202.5c5.8-.8 11.1-.3 16.1 1.4l1-.1c-2.1-.8-4.5-1.4-7-1.6 4.7-2.4 9.3-3.8 14-3.5l-.1-.4c-5-.1-9.5 1.3-13.9 3.9-3.1-.3-6.5-.3-10.2.3zm-1.7-2c2.8.5 6.3.8 9.1-1 2.1.6 4.4.3 6.6-1.3 2.7-2 5.6-3 8.7-2.6-3-.4-6.2.3-9 2.4-2.1 1.5-4.2 2.1-6.3 1.5-2.8 2-6.1 2-9.1 1z" stroke="#1f1a17" fill="#1f1a17" transform="matrix(.66515 0 0 .66742 0 -3.2)"/><path d="M389 199.5c-.1-.4-.4-.7-1-1 1.2-1.2 2.4-2.1 3.5-2 0-1.9 1-3.5 3-5l-1.1-3 1.4 2.6 1.1-3c-.8 4.9-3 8.6-6.9 11.4z" stroke="#1f1a17" fill="#aaa9a9" transform="matrix(.66515 0 0 .66742 0 -3.2)"/><path d="M391.8 196.5c0-1.9 1-3.2 2.5-4.4l.3-.3h0c-.6 1.6-1.6 3.5-2.8 4.7zm-.2.3c-.7.8-1.5 1.5-2.4 2.2h0l-.7-.6c.9-.8 1.9-1.7 3.1-1.6z" stroke="#aaa9a9" fill="#fff" transform="matrix(.66515 0 0 .66742 0 -3.2)"/><g><path d="M388.2 205.7c5.4 1 11.6 3 14.2 9.9a7.4 7.4 0 002.5 3.7c-1 0-1.9-.9-2.7-2.5-.2 1-.7 1.9-1 2.4.3-1 .6-2.2.6-3.6-2.3-.3-3.2-2-3.4-5-2 1.8-3.3.6-4.2-2.1-1.7 1.6-4 0-6.2-2.3l.2-.5z" stroke="#1f1a17" fill="#aaa9a9" transform="matrix(.66515 0 0 .66742 0 -3.2)"/><path d="M398.4 210.3c-2 1.6-2.9.7-3.8-1.4l-.3-.9c-2.3 2-4.2-.2-6-1.8v-.2c2.1.4 4 1 6 1.7 1.5.7 2.9 1.5 4.1 2.6zm.3.3h.2a14 14 0 013 4.5v.2c-1.7-.3-2.4-1.1-3-2.8v-.9l-.1-.4z" stroke="#aaa9a9" fill="#fff" transform="matrix(.66515 0 0 .66742 0 -3.2)"/></g><g><path d="M386.5 207.9c4.2.7 8 3 11.2 7.4-3.2 1.8-2 3.2 1.2 4.5-.2 2 0 3.7.6 5.2-2 .7-.9 2.3.3 3.9a5.7 5.7 0 01-2-2.7c-.5 1.6-1.2 2.4-2 2.8.8-.7 1.5-1.5 1.4-3.5a42 42 0 01-2.2-7.5c-2-4.9-4.9-8.3-9.1-9.6l.6-.5z" stroke="#1f1a17" fill="#aaa9a9" transform="matrix(.66515 0 0 .66742 0 -3.2)"/><path d="M398 226.1v.2l-.3-1-.2.7v-.6c-1-2.2-1.5-4.5-2-6.9-.3-1.1-.9-2.2-1.4-3.2a14.3 14.3 0 00-7.7-7l.2-.1c4.4.8 7.8 3.4 10.5 6.9l.1.1-.2.2c-1 .7-1.9 1.5-1.2 2.8l.3.3c.7.7 1.6 1 2.5 1.5-.1 1 .6 4.8.1 5-.4.4-.5.6-.6 1.1z" stroke="#aaa9a9" fill="#fff" transform="matrix(.66515 0 0 .66742 0 -3.2)"/></g></g><g transform="matrix(.66515 0 0 .66742 0 -3.2)"><path d="M379 198.3c-1.8-1.5-3-3.6-.5-5.5 1-.7 2.7-1 4-1.2.5 0 .9-1 1-1.7.3.7.6 1.7 1.1 1.8 1.2.1 2.4.6 3.4 1.2 2.6 1.8 2.2 4.2-.2 5.4-3-.6-5.8-.6-8.8 0z" stroke-linejoin="round" stroke-width=".1" stroke="#1f1a17" fill="#1f1a17"/><linearGradient gradientTransform="matrix(2.8346 0 0 -2.8346 -56 1676.2)" y2="522.8" x2="157.4" y1="522.8" x1="152.5" gradientUnits="userSpaceOnUse" id="k"><stop offset="0" stop-color="#aaa9a9"/><stop offset=".5" stop-color="#fff"/><stop offset="1" stop-color="#aaa9a9"/></linearGradient><path d="M379.3 198.1c-1.8-1.5-3-3.4-.6-5.2a8 8 0 013.8-1.2c.6 0 .9-1 1-1.6.3.6.6 1.6 1 1.7 1.2.1 2.3.6 3.2 1.2 2.5 1.7 2.2 4-.1 5.1-2.8-.6-5.5-.6-8.3 0z" stroke-linejoin="round" stroke-width=".1" stroke="#1f1a17" fill="url(#k)"/></g><g transform="matrix(.66515 0 0 .66742 0 -3.2)"><circle r="1.6" cy="195.2" cx="386.3" stroke-linejoin="round" stroke-width=".1" stroke="#1f1a17" fill="#1f1a17"/><radialGradient gradientUnits="userSpaceOnUse" gradientTransform="matrix(2.8346 0 0 -2.8346 -56 1676.2)" r=".5" cy="522.4" cx="156" id="l"><stop offset="0" stop-color="#fff"/><stop offset=".5" stop-color="#fff"/><stop offset="1" stop-color="#1f1a17"/></radialGradient><path d="M386.3 193.8a1.4 1.4 0 010 2.8c-.8 0-1.4-.6-1.4-1.4 0-.7.6-1.4 1.4-1.4z" fill="url(#l)"/></g><g transform="matrix(.66515 0 0 .66742 0 -3.2)"><circle r="1.6" cy="195.2" cx="380.5" stroke-linejoin="round" stroke-width=".1" stroke="#1f1a17" fill="#1f1a17"/><radialGradient gradientUnits="userSpaceOnUse" gradientTransform="matrix(2.8346 0 0 -2.8346 -56 1676.2)" r=".5" cy="522.4" cx="154" id="m"><stop offset="0" stop-color="#fff"/><stop offset=".5" stop-color="#fff"/><stop offset="1" stop-color="#1f1a17"/></radialGradient><path d="M380.5 193.8a1.4 1.4 0 010 2.8c-.8 0-1.4-.6-1.4-1.4 0-.7.6-1.4 1.4-1.4z" fill="url(#m)"/></g><g stroke-linejoin="round" stroke-width=".1"><path d="M382.8 191.6l-.7-3.5c-2.5.3-5-.5-7.5-1.8 2 1.7 4.3 3 7.3 3.2l.4 2.2.5-.1z" stroke="#1f1a17" fill="#aaa9a9" transform="matrix(.66515 0 0 .66742 0 -3.2)"/><path d="M382 189.2h0l-.1-.8c-1.7.1-3.7-.3-5.3-.9 1.6 1.1 3.4 1.7 5.3 1.7z" stroke="#aaa9a9" fill="#fff" transform="matrix(.66515 0 0 .66742 0 -3.2)"/><g><path d="M384.4 191.6l.6-3.5c2.5.3 5-.5 7.5-1.8-2 1.7-4.3 3-7.3 3.2l-.4 2.2-.4-.1z" stroke="#1f1a17" fill="#aaa9a9" transform="matrix(.66515 0 0 .66742 0 -3.2)"/><path d="M385.2 189.2h0v-.8c1.8.1 3.8-.3 5.4-.9a9.7 9.7 0 01-5.4 1.7z" stroke="#aaa9a9" fill="#fff" transform="matrix(.66515 0 0 .66742 0 -3.2)"/></g></g><g transform="matrix(.66515 0 0 .66742 0 -3.2)"><path d="M378 203.9c-.3-1.4-.7-2.6-.3-4.4 0-.5.7-1.2 1.3-1.3 2.8-.7 5.8-.7 8.6 0 .6.2 1 .7 1.4 1.4.7 1.3.4 2.6 0 4-.7 2-1.4 3.8-2.8 4.7a5 5 0 01-5.4 0c-1.1-.6-2.2-1.8-2.8-4.4z" stroke-linejoin="round" stroke-width=".1" stroke="#1f1a17" fill="#1f1a17"/><radialGradient gradientUnits="userSpaceOnUse" gradientTransform="matrix(2.8346 0 0 -2.8346 -56 1676.2)" r="2.2" cy="519.5" cx="155" id="n"><stop offset="0" stop-color="#fff"/><stop offset=".5" stop-color="#dededd"/><stop offset="1" stop-color="#aaa9a9"/></radialGradient><path d="M378.4 203.9c-.3-1.3-.7-2.5-.3-4.1 0-.5.6-1.1 1.2-1.3 2.6-.6 5.3-.6 7.9 0 .5.2 1.1.9 1.4 1.5.6 1.2.3 2.3 0 3.6-.7 1.8-1.3 3.5-2.6 4.3a4.6 4.6 0 01-5 .1c-1-.6-2-1.7-2.6-4.1z" stroke-linejoin="round" stroke-width=".1" stroke="#1f1a17" fill="url(#n)"/></g><g transform="matrix(.66515 0 0 .66742 0 -3.2)"><path d="M391 220.3c.1-5.2-1.7-8.7-5.7-11.4a8 8 0 01-3.7 0c-3.6 1.9-6.5 5.6-6.5 11.4 0 6.6 4.6 12.2 8.4 15.4 3.6-3.7 7.5-8.7 7.6-15.4z" stroke-linejoin="round" stroke-width=".1" stroke="#1f1a17" fill="#1f1a17"/><linearGradient gradientTransform="matrix(2.8346 0 0 -2.8346 -56 1676.2)" y2="512.9" x2="157.5" y1="512.9" x1="152.3" gradientUnits="userSpaceOnUse" id="o"><stop offset="0" stop-color="#aaa9a9"/><stop offset=".4" stop-color="#fff"/><stop offset=".5" stop-color="#fff"/><stop offset=".6" stop-color="#fff"/><stop offset="1" stop-color="#aaa9a9"/></linearGradient><path d="M390.5 220.4c0-4.8-1.6-8-5.4-10.6-.9.3-2.2.3-3.4.1-3.3 1.7-6 5.1-6 10.5-.1 6.2 4.3 11.4 7.7 14.3 3.4-3.4 7-8 7.1-14.3z" stroke-linejoin="round" stroke-width=".1" stroke="#1f1a17" fill="url(#o)"/><path d="M390 216.4h-13.8c-.3 1-.5 2-.5 3h14.8c0-1-.2-2-.4-3zm-.6-1.8l-.6-1h-11.2c-.2.3-.5.6-.6 1zm-13.8 6.4c0 1 .2 2 .5 2.9h14l.4-3zm1.2 5c.3.9.8 1.8 1.3 2.6h10.1c.5-.8 1-1.7 1.3-2.6z" stroke-linejoin="round" stroke-width=".1" stroke="#1f1a17" fill="#838281"/></g></g></g><g transform="matrix(.66515 0 0 .66742 0 -3.2)"><path stroke-linejoin="round" stroke-width=".1" stroke="#1f1a17" fill="#1f1a17" d="M377.8 396.3h147v16.8h-147z"/><linearGradient gradientTransform="matrix(2.8346 0 0 -2.8346 -56 1676.2)" y2="448.5" x2="204.6" y1="448.5" x1="153.4" gradientUnits="userSpaceOnUse" id="p"><stop offset="0" stop-color="#fff"/><stop offset="1" stop-color="#c2c1c1"/></linearGradient><path stroke-linejoin="round" stroke-width=".1" stroke="#1f1a17" fill="url(#p)" d="M378.8 397h145.1v15.5H378.8z"/><path stroke-linejoin="round" stroke-width=".1" stroke="#1f1a17" fill="#1f1a17" d="M403.7 377.6l97.6.3 23.5 18.4h-147z"/><linearGradient gradientTransform="matrix(2.8346 0 0 -2.8346 -56 1676.2)" y2="461.1" x2="188.6" y1="445.4" x1="172.5" gradientUnits="userSpaceOnUse" id="q"><stop offset="0" stop-color="#fff"/><stop offset=".6" stop-color="#fff"/><stop offset="1" stop-color="#c2c1c1"/></linearGradient><path stroke-linejoin="round" stroke-width=".1" stroke="#1f1a17" fill="url(#q)" d="M404.7 377.8l95.6.3 23 17.7h-144z"/><path d="M399.7 381.3V298c0-19.4 21.5-46.9 52.3-46.4 29.1.5 52.8 27.6 52.8 46.4v83.3a144.9 144.9 0 01-105.1 0z" stroke-linejoin="round" stroke-width=".1" stroke="#1f1a17" fill="none"/><path d="M399.7 381.3V298c0-19.4 21.5-46.9 52.3-46.4 29.1.5 52.8 27.6 52.8 46.4v83.3a144.9 144.9 0 01-105.1 0z" stroke-linejoin="round" stroke-width=".1" stroke="#1f1a17" fill="#1f1a17"/><linearGradient gradientTransform="matrix(2.8346 0 0 -2.8346 -56 1676.2)" y2="477.9" x2="160.9" y1="477.9" x1="197.7" gradientUnits="userSpaceOnUse" id="r"><stop offset="0" stop-color="#aaa9a9"/><stop offset=".1" stop-color="#aaa9a9"/><stop offset=".1" stop-color="#fff"/><stop offset="1" stop-color="#fff"/></linearGradient><path d="M400.2 380.7v-82.4c0-19.3 21.3-46.5 51.8-46 28.8.4 52.3 27.3 52.3 46v82.4c-33 13-67.7 13-104.1 0z" stroke-linejoin="round" stroke-width=".1" stroke="#1f1a17" fill="url(#r)"/><path d="M400.3 307.5l.1-2c15.6 7.1 34.6 13.2 72.7 10.3a129.4 129.4 0 01-72.8-8.3z" stroke-linejoin="round" stroke-width=".1" stroke="#c2c1c1" fill="#c2c1c1"/><path d="M504.5 307v.6a136.6 136.6 0 01-104.5 0v-.5a136.6 136.6 0 00104.5 0z" stroke-linejoin="round" stroke-width=".1" stroke="#1f1a17" fill="#1f1a17"/><path d="M403.5 308.3c1-2 2.4-3.3 3.8-4.4a11.7 11.7 0 00-2.8 4.7l-1-.3zM408.4 310a15 15 0 013.2-5 19 19 0 00-2.1 5.3c-.3 0-.8-.2-1-.4zM417.8 312.8c.7-1.8 1.8-3.1 3-4.2-.8 1.4-1.6 2.9-1.8 4.5l-1.2-.3zM422.4 314c.7-1.9 1.6-3.1 2.7-4.2-.8 1.4-1.4 2.8-1.6 4.4l-1-.2zM417.3 305.1c-1.2 1-1.8 2.7-2.4 4.5 1-1.7 2.3-3.2 3.8-4.3l-1.4-.2zM429 313.7c.7-2.3 1.8-4.3 3.6-5.8l1 .3c-2 1.3-3.3 3.4-4.6 5.5zM430.6 315.6c.9-2.1 2-3.4 3.5-4.2-1 1.3-1.8 2.7-2.1 4.4l-1.4-.2zM438 316.5c.5-2 1.6-3.5 3.1-4.6-1 1.3-1.8 2.8-2 4.7H438zM441 316.8c1-3.2 2.5-5 4.2-6-1.1 1.6-2.4 3.3-3 6H441zM457.4 309.5c-1.9 1.3-3 3-4 4.9a8 8 0 012.2-4.9h1.8zM461.8 309.2a13 13 0 00-2.2 5.3c.8-2 1.9-3.9 3.4-5.4l-1.2.1zM462.1 317c.8-2.2 2-4.2 3.5-6.1-1 1.9-2 3.8-2.2 6l-1.3.1zM472 308.2c-.4 2-1.3 3.8-2.4 5.7 1.5-1.8 3-3.6 4-6l-1.6.3zM471.7 315.9l3.2-5.5-1.7 5.2-1.5.3zM481 308.6l-1.7 6-1.5.3zM484.4 305.8a32 32 0 01-2 5.4c1.3-1.6 2.4-3.4 3.1-5.7l-1.1.3z" stroke-linejoin="round" stroke-width=".1" stroke="#aaa9a9" fill="#aaa9a9"/><path d="M399.9 307.2c1-3 2.6-5.3 4.7-6.6a15 15 0 00-4 7l-.7-.4zM405.8 309.5a13 13 0 015.4-6.6c-1.8 2.1-3.3 4.4-4.4 7l-1-.4zM415.4 312.5c1.6-3 3.5-5.4 5.6-7.2a23 23 0 00-4.5 7.6l-1.1-.4zM424.9 314.5c1.5-2.9 3.4-5.3 5.8-7a23.2 23.2 0 00-4.5 7.4l-1.3-.4zM434.5 316.2c1.5-3.2 3.5-5.6 5.6-7.6a29.5 29.5 0 00-4 7.8l-1.6-.2zM444.8 317.1a28 28 0 015.5-8.1c-1.6 2.5-3 5-4 8.2h-1.5zM454.4 317.4a32 32 0 016-8.3 32.2 32.2 0 00-4.3 8.2h-1.7zM464.8 316.7c1.5-3.3 3.3-6 5.4-8.6-1.7 2.8-3 5.6-3.8 8.5l-1.6.1zM474 315.6c1.9-3 3.6-5.9 5.1-9-1 3-2.1 6-3.6 8.7l-1.5.3zM482.9 313.8a55 55 0 005-9c-.7 3-1.6 6-2.9 8.5l-2.1.5zM491.6 311.6c1.7-2.7 3.1-5.7 4.4-9.1-.6 3.2-1.4 6-2.6 8.6l-1.8.5zM499.5 308.8a46 46 0 003.1-8.8c-.2 3.2-.8 6-1.5 8.1l-1.6.7z" stroke-linejoin="round" stroke-width=".1" stroke="#1f1a17" fill="#1f1a17"/><path d="M400.3 313.1v2.3c26.6 11.2 54 12.8 82 7-30.7 4.5-57.8 1.8-82-9.3z" stroke-linejoin="round" stroke-width=".1" stroke="#c2c1c1" fill="#c2c1c1"/><path d="M504.5 315.1v.6a136.6 136.6 0 01-104.5 0v-.6a136.6 136.6 0 00104.5 0z" stroke-linejoin="round" stroke-width=".1" stroke="#1f1a17" fill="#1f1a17"/><path d="M502 316.5c-1.4-3.4-3.3-4.6-5.5-5.8 1.8 2 3.4 3.5 4.5 6l1-.2zM492.9 319.4a18 18 0 00-5.2-6c1.9 2.1 3 3.5 4 6.4.4 0 .8-.2 1.2-.4zM484.9 321.6c-2.1-1.2-3.9-3.5-6-6.2a86 86 0 004 6.8l2-.6zM474.8 324c-2-2.3-3.5-4.1-5.3-7 1.1 3 2.2 4.8 3.7 7.2l1.6-.2zM465.2 325.2c-2.1-2.4-3.8-4.3-5.4-7.3 1 3.2 2.3 5 3.9 7.4l1.5-.1zM455.6 325.8a39 39 0 01-5.9-7.7c1.1 3.3 2.4 5.5 4.2 7.7h1.7zM445.7 325.8c-1.9-2.6-3.6-4.8-5.3-8.1 1.1 3.4 2.2 5.8 3.7 8l1.6.1zM436 324.9a82.4 82.4 0 01-5-8.5c1 3 2 5.5 3.6 8.2.5 0 1 .2 1.4.3zM425.8 323.1a52.9 52.9 0 01-4.9-8.8c.7 3 1.5 5.8 2.8 8.3l2.1.5zM415.8 320.5a54.1 54.1 0 01-4.4-9c.6 3.2 1.5 6 2.6 8.5l1.8.5zM406.6 317.8a46 46 0 01-3-8.8c.2 3.3.7 6 1.5 8.2l1.5.6z" stroke-linejoin="round" stroke-width=".1" stroke="#1f1a17" fill="#1f1a17"/><path d="M429.7 323.2c-1-.9-3-3.8-4.2-5.6.4 1.4.9 3.4 2 5.4.4 0 1.8.3 2.2.2zM422.5 321.8c-1.5-1.6-1.6-2.2-2.5-4.6 0 1.8.3 3.2 1 4.3l1.5.3zM415 313c.5 2 .9 4 1.9 5.9-1.5-1.8-2.4-4-3.4-6.3.6 0 1 .4 1.6.5zM412.6 319.2a24.7 24.7 0 01-3.1-6.9c0 2 .3 4.9 1.3 6.4.5 0 1.3.4 1.8.5zM400.6 310.2l1.2 5.5 1.6.4zM437.3 324.5c-1-1.3-1.8-3-2.3-5.2 1.3 2.4 2.6 4.2 4 5.4l-1.7-.2zM437.3 317.3l1.5.3c0 2.8.8 4.2 1.6 5.7-1.2-.9-2.3-2.5-3.1-6zM447.8 325.3c-1.3-1.1-2-3.2-2.6-5.8 1.1 2.5 2.5 4.4 4 5.8h-1.4zM452.6 318.1c1.4 4 2.9 5.5 4.3 6.7-1.1-2-2.3-3.7-2.9-6.6h-1.4zM466.5 324.6a10 10 0 01-3.4-5.5c1.4 2.6 3.1 4.3 5.1 5.3l-1.7.2zM466.7 317.4c1.6 3.3 3.2 5 4.8 6-1.2-1.5-2.3-3.1-3-6.1l-1.8.1zM477.1 323a7.8 7.8 0 01-2.9-4c1.2 1.7 2.6 3 4.1 3.7l-1.2.3zM485.8 321.1c-1.3-1-2-2.2-2.8-3.5a9.2 9.2 0 004.3 3l-1.5.5zM490.3 319.8a43 43 0 01-4-5.1 18 18 0 003.2 5.4l.8-.3z" stroke-linejoin="round" stroke-width=".1" stroke="#aaa9a9" fill="#aaa9a9"/><path d="M490.1 312.9l1-.4c1.7 1.6 2.7 3.6 3.7 5.5-1.3-2.1-2.8-4-4.7-5.1zM494.4 311.5c1.9.9 3 2.9 4 5-1.4-2-2.9-3.7-5.2-4.6.4 0 .8-.2 1.2-.4zM499 310l1-.4c1.8 1.2 2.8 3 3.2 5-1-2-2.3-3.6-4.2-4.6z" stroke-linejoin="round" stroke-width=".1" stroke="#72706f" fill="#72706f"/><path d="M400 324.1l.5-2.3C416 329 435 335.2 473 332.4a130.3 130.3 0 01-73-8.3z" stroke-linejoin="round" stroke-width=".1" stroke="#c2c1c1" fill="#c2c1c1"/><path d="M504.5 323.7v.5a136.6 136.6 0 01-104.5 0v-.5a136.6 136.6 0 00104.5 0z" stroke-linejoin="round" stroke-width=".1" stroke="#1f1a17" fill="#1f1a17"/><path d="M403.5 324.8c1-2 2.4-3.3 3.8-4.4a11.7 11.7 0 00-2.8 4.8l-1-.4zM408.4 326.5a15 15 0 013.2-5 19 19 0 00-2.1 5.4l-1-.4zM417.8 329.4c.7-1.9 1.8-3.2 3-4.3-.8 1.4-1.6 3-1.8 4.5l-1.2-.2zM422.4 330.5c.7-1.8 1.6-3 2.7-4.1-.8 1.3-1.4 2.7-1.6 4.4l-1-.3zM417.3 321.7c-1.2 1-1.8 2.7-2.4 4.5 1-1.8 2.3-3.3 3.8-4.3l-1.4-.2zM429 330.3a10 10 0 013.4-5.5l1 .2a14 14 0 00-4.3 5.3zM430.6 332.1c.9-2 2-3.3 3.5-4.2-1 1.3-1.8 2.8-2.1 4.4l-1.4-.2zM438 333c.5-2 1.6-3.4 3.1-4.6-1 1.4-1.8 2.8-2 4.8l-1.1-.1zM441 333.3c1-3.1 2.5-4.9 4.2-6-1.1 1.7-2.4 3.4-3 6.1H441zM457.3 326.1c-1.9 1.3-3 3-3.8 4.9.2-1.8.6-3.4 2-4.8h1.8zM461.8 326a12.3 12.3 0 00-2.2 5c.8-2 1.9-3.6 3.4-5.2l-1.2.1zM462.1 333.3c.8-2.3 2-4 3.5-5.9-1 2-2 3.6-2.2 5.7l-1.3.2zM472 324.7c-.4 2-1.3 3.9-2.4 5.8 1.5-1.8 3-3.6 4-6l-1.6.2zM471.7 332.4l3.2-5.4-1.7 5.2-1.5.2zM481 325.1l-1.7 6-1.5.4zM484.4 322.4a32 32 0 01-2 5.4c1.3-1.6 2.4-3.5 3.1-5.7l-1.1.3z" stroke-linejoin="round" stroke-width=".1" stroke="#aaa9a9" fill="#aaa9a9"/><path d="M399.9 323.8c1-3.1 2.6-5.3 4.7-6.6a15 15 0 00-4 7l-.7-.4zM405.8 326.1a13 13 0 015.4-6.6c-1.8 2-3.3 4.3-4.4 7l-1-.4zM415.4 329c1.6-3 3.5-5.3 5.6-7a23 23 0 00-4.5 7.4l-1.1-.4zM424.9 331c1.5-2.8 3.4-5.2 5.8-7a23.2 23.2 0 00-4.5 7.5l-1.3-.4zM434.5 332.7c1.5-3.1 3.5-5.6 5.6-7.6a29.5 29.5 0 00-4 7.8l-1.6-.2zM444.8 333.7a28 28 0 015.5-8.2c-1.6 2.5-3 5.2-4 8.3l-1.5-.1zM454.4 334a32 32 0 016-8.4 32.2 32.2 0 00-4.3 8.3h-1.7zM464.8 333.3c1.5-3.3 3.3-6 5.4-8.6-1.7 2.8-3 5.6-3.8 8.4l-1.6.2zM474 332.1c1.9-2.9 3.6-5.8 5.1-8.9-1 3-2.1 6-3.6 8.7l-1.5.2zM482.9 330.4a55 55 0 005-9c-.7 3-1.6 6-2.9 8.5l-2.1.5zM492.3 327.8c1.7-2.7 3.1-5.7 4.4-9-.6 3.2-1.4 6-2.6 8.5l-1.8.5zM500.6 325a46 46 0 003.1-8.7c-.2 3.2-.7 6-1.5 8.1l-1.6.6z" stroke-linejoin="round" stroke-width=".1" stroke="#1f1a17" fill="#1f1a17"/><path d="M400.5 329.8c0 .7-.3 1.5-.2 2.2 26.6 11.2 54 12.7 82 6.9-30.7 4.6-57.7 2-81.8-9.1z" stroke-linejoin="round" stroke-width=".1" stroke="#c2c1c1" fill="#c2c1c1"/><path d="M504.5 331.7v.5a136.6 136.6 0 01-104.5 0v-.5a136.6 136.6 0 00104.5 0z" stroke-linejoin="round" stroke-width=".1" stroke="#1f1a17" fill="#1f1a17"/><path d="M502 333c-1.4-3.4-3.3-4.5-5.5-5.8 1.8 2 3.4 3.5 4.5 6.1l1-.3zM492.9 336a18 18 0 00-5.2-6.1c1.9 2.2 3 3.6 4 6.5l1.2-.4zM484.9 338.2c-2.1-1.2-3.9-3.5-6-6.3 1.5 2.8 2.6 4.7 4 6.9l2-.6zM474.8 340.6c-2-2.4-3.5-4.2-5.3-7 1.1 3 2.2 4.8 3.7 7.2l1.6-.2zM465.2 341.7c-2.1-2.4-3.8-4.2-5.4-7.2 1 3.2 2.3 4.9 3.9 7.3h1.5zM455.6 342.4c-2.2-2.2-4-4.5-5.9-7.7 1.1 3.3 2.4 5.5 4.2 7.6h1.7zM445.7 342.4c-1.9-2.6-3.6-4.9-5.3-8.2 1.1 3.5 2.2 5.8 3.7 8l1.6.2zM436 341.4a82.3 82.3 0 01-5-8.5c1 3 2 5.6 3.6 8.3l1.4.2zM425.8 339.7a52.9 52.9 0 01-4.9-8.8c.7 3 1.5 5.7 2.8 8.3l2.1.5zM415.8 337a54.1 54.1 0 01-4.4-9c.6 3.3 1.5 6.1 2.6 8.6l1.8.5zM406.6 334.4a46 46 0 01-3-8.8c.2 3.2.7 6 1.5 8.1l1.5.7z" stroke-linejoin="round" stroke-width=".1" stroke="#1f1a17" fill="#1f1a17"/><path d="M429.7 339.8c-1-1-3-3.8-4.2-5.6.4 1.3.9 3.4 2 5.3l2.2.3zM422.5 338.4c-1.5-1.7-1.6-2.3-2.5-4.6 0 1.8.3 3.1 1 4.3l1.5.3zM415 329.6c.5 2 .9 4 1.9 5.8-1.5-1.8-2.4-4-3.4-6.3.6 0 1 .5 1.6.5zM412.6 335.7a24.7 24.7 0 01-3.1-6.8c0 2 .3 4.8 1.3 6.3.5.1 1.3.5 1.8.5zM400.6 326.8l1.2 5.4 1.6.5zM437.3 341c-1-1.3-1.8-3-2.3-5.2 1.3 2.4 2.6 4.3 4 5.4l-1.7-.2zM437.3 333.8l1.5.4c0 2.7.8 4.1 1.6 5.6-1.2-.8-2.3-2.5-3.1-6zM447.8 341.8c-1.3-1-2-3.2-2.6-5.7 1.1 2.4 2.5 4.3 4 5.7h-1.4zM452.6 334.7c1.4 3.9 2.9 5.4 4.3 6.7-1.1-2-2.3-3.8-2.9-6.6l-1.4-.1zM466.5 341.2a10 10 0 01-3.4-5.6c1.4 2.7 3.1 4.3 5.1 5.4-.6 0-1.1 0-1.7.2zM466.7 334c1.6 3.2 3.2 5 4.8 5.9-1.2-1.4-2.3-3-3-6h-1.8zM477.1 339.6a7.8 7.8 0 01-2.9-4.1c1.2 1.8 2.6 3 4.1 3.8l-1.2.3zM485.8 337.7c-1.3-1-2-2.2-2.8-3.5a9.2 9.2 0 004.3 3l-1.5.5zM490.3 336.4a43 43 0 01-4-5.2 18 18 0 003.2 5.4l.8-.2z" stroke-linejoin="round" stroke-width=".1" stroke="#aaa9a9" fill="#aaa9a9"/><path d="M490.1 329.4l1-.3c1.7 1.6 2.7 3.5 3.7 5.5-1.3-2.1-2.8-4.1-4.7-5.2zM494.4 328.1c1.9.9 3 2.8 4 5-1.4-2-2.9-3.8-5.2-4.6l1.2-.4zM499 326.6l1-.4c1.8 1.1 2.8 3 3.2 5-1-2-2.3-3.6-4.2-4.6z" stroke-linejoin="round" stroke-width=".1" stroke="#72706f" fill="#72706f"/><path d="M400 340.5c.1-.7.4-1.5.4-2.2 15.6 7.2 34.6 13.3 72.7 10.4a130.3 130.3 0 01-73-8.2z" stroke-linejoin="round" stroke-width=".1" stroke="#c2c1c1" fill="#c2c1c1"/><path d="M504.5 340v.6a136.6 136.6 0 01-104.5 0v-.6a136.6 136.6 0 00104.5 0z" stroke-linejoin="round" stroke-width=".1" stroke="#1f1a17" fill="#1f1a17"/><path d="M403.5 341.2c1-2 2.4-3.3 3.8-4.4a11.7 11.7 0 00-2.8 4.8l-1-.4zM408.4 342.9a15 15 0 013.2-5 19 19 0 00-2.1 5.4l-1-.4zM417.8 345.7c.7-1.8 1.8-3 3-4.2-.8 1.4-1.6 2.9-1.8 4.5l-1.2-.3zM422.4 346.9c.7-1.8 1.6-3.1 2.7-4.1-.8 1.3-1.4 2.7-1.6 4.3l-1-.2zM417.3 338c-1.2 1.1-1.8 2.8-2.4 4.6 1-1.8 2.3-3.3 3.8-4.3l-1.4-.3zM429 346.6a10 10 0 013.4-5.4l1 .2a14 14 0 00-4.3 5.2zM430.6 348.5c.9-2 2-3.3 3.5-4.2-1 1.3-1.8 2.7-2.1 4.4l-1.4-.2zM438 349.5c.5-2 1.6-3.6 3.1-4.7-1 1.4-1.8 2.8-2 4.8l-1.1-.1zM441 349.7c1-3.1 2.5-4.9 4.2-6-1.1 1.7-2.4 3.4-3 6.1H441zM457.3 342.7c-1.9 1.3-3 2.7-3.8 4.6.2-1.7.6-3.1 2-4.5h1.8zM461.7 342.5c-1.2 1.5-1.6 3-2.1 4.9.8-2 1.8-3.5 3.4-5h-1.3zM462.1 350c.8-2.3 2-4.3 3.5-6.2-1 2-2 3.9-2.2 6l-1.3.2zM472 341.4c-.4 2-1.3 3.6-2.4 5.5 1.5-1.8 3-3.3 4-5.7l-1.6.2zM471.7 348.8l3.2-5.4-1.7 5.2-1.5.2zM481 341.5l-1.7 6-1.5.4zM484.4 338.8a32 32 0 01-2 5.4c1.3-1.6 2.4-3.5 3.1-5.7-.4 0-.7.2-1.1.3z" stroke-linejoin="round" stroke-width=".1" stroke="#aaa9a9" fill="#aaa9a9"/><path d="M399.9 340.2c1-3.1 2.6-5.3 4.7-6.6a15 15 0 00-4 7l-.7-.4zM405.8 342.5a13 13 0 015.4-6.6c-1.8 2-3.3 4.3-4.4 7l-1-.4zM415.4 345.4c1.6-3 3.5-5.3 5.6-7.1a23 23 0 00-4.5 7.5l-1.1-.4zM424.9 347.5c1.5-3 3.4-5.4 5.8-7.1a23.2 23.2 0 00-4.5 7.5l-1.3-.4zM434.5 349c1.5-3 3.5-5.5 5.6-7.5a29.5 29.5 0 00-4 7.8l-1.6-.2zM444.8 350c1.5-3.2 3.2-5.4 5.3-7.5-1.5 2.5-2.8 4.5-3.8 7.7l-1.5-.1zM454.4 350.3a32 32 0 016-8.3 32.2 32.2 0 00-4.3 8.3h-1.7zM464.8 349.7c1.5-3.3 3.3-6 5.4-8.7-1.7 2.9-3 5.7-3.8 8.5l-1.6.2zM474 348.5c1.9-2.9 3.6-5.8 5.1-8.9-1 3-2.1 6-3.6 8.6l-1.5.3zM482.9 346.8a55 55 0 005-9c-.7 3-1.6 5.9-2.9 8.5l-2.1.5zM492.3 344.2c1.7-2.7 3.1-5.7 4.4-9-.6 3.2-1.4 6-2.6 8.5l-1.8.5zM500.6 341.4a46 46 0 003.1-8.8c-.2 3.3-.7 6-1.5 8.2l-1.6.6z" stroke-linejoin="round" stroke-width=".1" stroke="#1f1a17" fill="#1f1a17"/><path d="M400.4 346.2c0 .7-.2 1.4 0 2.1 26.5 11.3 54 12.8 82 7-30.8 4.6-57.9 2-82-9z" stroke-linejoin="round" stroke-width=".1" stroke="#c2c1c1" fill="#c2c1c1"/><path d="M504.5 348v.6a136.6 136.6 0 01-104.5 0v-.5a136.6 136.6 0 00104.5 0z" stroke-linejoin="round" stroke-width=".1" stroke="#1f1a17" fill="#1f1a17"/><path d="M502 349.4c-1.4-3.4-3.3-4.5-5.5-5.8 1.8 2 3.4 3.5 4.5 6.1l1-.3zM492.9 352.4a18 18 0 00-5.2-6.1c1.9 2.2 3 3.6 4 6.5l1.2-.4zM484.9 354.6c-2.1-1.2-3.9-3.5-6-6.3a86 86 0 004 6.9l2-.6zM474.8 357c-2-2.4-3.5-4.2-5.3-7 1.1 3 2.2 4.7 3.7 7.1l1.6-.2zM465.2 358.1c-2.1-2.4-3.8-4.3-5.4-7.3 1 3.2 2.3 5 3.9 7.4l1.5-.1zM455.6 358.8a39 39 0 01-5.9-7.8c1.1 3.4 2.4 5.6 4.2 7.7h1.7zM445.7 358.8c-1.9-2.6-3.6-4.9-5.3-8.2 1.1 3.5 2.2 5.8 3.7 8l1.6.2zM436 357.8a82.4 82.4 0 01-5-8.5c1 3 2 5.6 3.6 8.2l1.4.3zM425.8 356a52.9 52.9 0 01-4.9-8.7c.7 3 1.5 5.7 2.8 8.3l2.1.5zM415.8 353.5a54.1 54.1 0 01-4.4-9.1c.6 3.2 1.5 6.1 2.6 8.6l1.8.5zM406.6 350.7a46 46 0 01-3-8.8c.2 3.3.7 6 1.5 8.2l1.5.6z" stroke-linejoin="round" stroke-width=".1" stroke="#1f1a17" fill="#1f1a17"/><path d="M429.7 356.2c-1-1-3-3.8-4.2-5.7.4 1.4.9 3.4 2 5.4l2.2.3zM422.5 354.8c-1.5-1.7-1.6-2.3-2.5-4.7 0 1.9.3 3.2 1 4.4l1.5.3zM415 346c.5 2 .9 4 1.9 5.8-1.5-1.8-2.4-4-3.4-6.3.6 0 1 .5 1.6.5zM412.6 352.1a24.7 24.7 0 01-3.1-6.8c0 2 .3 4.8 1.3 6.3l1.8.5zM400.6 343.1l1.2 5.5 1.6.5zM437.3 357.4c-1-1.3-1.8-3-2.3-5.2 1.3 2.4 2.6 4.3 4 5.4l-1.7-.2zM437.3 350.2l1.5.3c0 2.8.8 4.2 1.6 5.7-1.2-.8-2.3-2.5-3.1-6zM447.8 358.2c-1.3-1.1-2-3.2-2.6-5.7 1.1 2.4 2.5 4.3 4 5.7h-1.4zM452.6 351c1.4 4 2.9 5.5 4.3 6.7-1.1-1.9-2.3-3.7-2.9-6.6h-1.4zM466.5 357.5a10 10 0 01-3.4-5.5c1.4 2.6 3.1 4.3 5.1 5.3l-1.7.2zM466.7 350.3c1.6 3.3 3.2 5 4.8 6-1.2-1.4-2.3-3-3-6h-1.8zM477.1 356a7.8 7.8 0 01-2.9-4.1c1.2 1.8 2.6 3 4.1 3.8l-1.2.2zM485.8 354c-1.3-.9-2-2.1-2.8-3.5a9.2 9.2 0 004.3 3.1l-1.5.5zM490.3 352.7a43 43 0 01-4-5 18 18 0 003.2 5.3l.8-.3z" stroke-linejoin="round" stroke-width=".1" stroke="#aaa9a9" fill="#aaa9a9"/><path d="M490.1 345.8l1-.3c1.7 1.6 2.7 3.5 3.7 5.4-1.3-2-2.8-4-4.7-5zM494.4 344.5c1.9.8 3 2.8 4 5-1.4-2-2.9-3.8-5.2-4.6l1.2-.4zM499 343l1-.4c1.8 1.1 2.8 2.9 3.2 5-1-2-2.3-3.6-4.2-4.6z" stroke-linejoin="round" stroke-width=".1" stroke="#72706f" fill="#72706f"/><path d="M400.3 357v-2.3c15.6 7.2 34.7 13.5 72.8 10.6a129.6 129.6 0 01-72.8-8.3z" stroke-linejoin="round" stroke-width=".1" stroke="#c2c1c1" fill="#c2c1c1"/><path d="M504.5 356.6v.5a136.6 136.6 0 01-104.5 0v-.5a136.6 136.6 0 00104.5 0z" stroke-linejoin="round" stroke-width=".1" stroke="#1f1a17" fill="#1f1a17"/><path d="M403.5 357.8c1-2 2.4-3.3 3.8-4.4a11.7 11.7 0 00-2.8 4.7l-1-.3zM408.4 359.4a15 15 0 013.2-5 19 19 0 00-2.1 5.4c-.3 0-.8-.2-1-.4zM417.8 362.3c.7-1.8 1.8-3.1 3-4.2-.8 1.4-1.6 2.9-1.8 4.5l-1.2-.3zM422.4 363.5c.7-1.9 1.6-3.1 2.7-4.2-.8 1.4-1.4 2.8-1.6 4.4l-1-.2zM417.3 354.6c-1.2 1-1.8 2.7-2.4 4.5 1-1.7 2.3-3.2 3.8-4.3l-1.4-.2zM429 363.2c.7-2.3 1.8-4.3 3.6-5.8l1 .3c-2 1.3-3.3 3.4-4.6 5.5zM430.6 365c.9-2 2-3.3 3.5-4.1-1 1.3-1.8 2.7-2.1 4.4l-1.4-.2zM438 366c.5-2 1.6-3.5 3.1-4.6-1 1.3-1.8 2.8-2 4.8l-1.1-.2zM441 366.3c1-3.2 2.5-5 4.2-6-1.1 1.6-2.4 3.3-3 6H441zM457.4 359.1c-1.9 1.3-3 2.9-4 4.8.3-1.8.8-3.3 2.2-4.7h1.8zM461.8 359a12 12 0 00-2.2 5c.8-2 1.9-3.6 3.4-5.1h-1.2zM462.1 366.5c.8-2.2 2-4.2 3.5-6.1-1 1.9-2 3.8-2.2 6l-1.3.1zM472 357.7c-.4 2-1.3 3.8-2.4 5.7 1.5-1.8 3-3.6 4-6l-1.6.3zM471.7 365.4l3.2-5.5-1.7 5.2-1.5.3zM481 358l-1.7 6-1.5.4zM484.4 355.3a32 32 0 01-2 5.4c1.3-1.6 2.4-3.4 3.1-5.7l-1.1.3z" stroke-linejoin="round" stroke-width=".1" stroke="#aaa9a9" fill="#aaa9a9"/><path d="M399.9 356.7c1-3 2.6-5.3 4.7-6.6a15 15 0 00-4 7l-.7-.4zM405.8 359a13 13 0 015.4-6.5c-1.8 2-3.3 4.3-4.4 6.9l-1-.4zM415.4 362c1.6-3 3.5-5.4 5.6-7.2a23 23 0 00-4.5 7.6l-1.1-.4zM424.9 364c1.5-2.9 3.4-5.3 5.8-7a23.2 23.2 0 00-4.5 7.4l-1.3-.4zM434.5 365.7c1.5-3.2 3.5-5.7 5.6-7.6a29.5 29.5 0 00-4 7.8l-1.6-.2zM444.8 366.6a28 28 0 015.5-8.1c-1.6 2.5-3 5-4 8.2h-1.5zM454.4 366.9a32 32 0 016-8.3 32.2 32.2 0 00-4.3 8.2h-1.7zM464.8 366.2c1.5-3.3 3.3-6 5.4-8.6-1.7 2.8-3 5.6-3.8 8.5l-1.6.1zM474 365c1.9-2.8 3.6-5.8 5.1-8.8-1 3-2.1 6-3.6 8.6l-1.5.3zM482.9 363.3a55 55 0 005-9c-.7 3-1.6 6-2.9 8.5l-2.1.5zM492.3 360.8c1.7-2.7 3.1-5.7 4.4-9.1-.6 3.3-1.4 6.1-2.6 8.6l-1.8.5zM500.6 358a46 46 0 003.1-8.8c-.2 3.3-.7 6-1.5 8.2l-1.6.6z" stroke-linejoin="round" stroke-width=".1" stroke="#1f1a17" fill="#1f1a17"/><path d="M400.3 362.8v2.1c26.6 11.2 54 12.8 82 7-30.7 4.5-57.8 2-82-9.1z" stroke-linejoin="round" stroke-width=".1" stroke="#c2c1c1" fill="#c2c1c1"/><path d="M504.5 364.6v.6a136.6 136.6 0 01-104.5 0v-.6a136.6 136.6 0 00104.5 0z" stroke-linejoin="round" stroke-width=".1" stroke="#1f1a17" fill="#1f1a17"/><path d="M502 366c-1.4-3.4-3.3-4.6-5.5-5.8 1.8 2 3.4 3.5 4.5 6l1-.2zM492.9 369a18 18 0 00-5.2-6.2c1.9 2.2 3 3.6 4 6.5.4 0 .8-.2 1.2-.4zM484.9 371.1c-2.1-1.2-3.9-3.5-6-6.2 1.5 2.8 2.6 4.7 4 6.8l2-.6zM474.8 373.5c-2-2.4-3.5-4.1-5.3-7 1.1 3 2.2 4.8 3.7 7.2l1.6-.2zM465.2 374.7c-2.1-2.4-3.8-4.3-5.4-7.3 1 3.2 2.3 5 3.9 7.4l1.5-.1zM455.6 375.3c-2.2-2.2-4-4.5-5.9-7.7 1.1 3.3 2.4 5.5 4.2 7.7h1.7zM445.7 375.3c-1.9-2.6-3.6-4.8-5.3-8.1 1.1 3.4 2.2 5.8 3.7 8l1.6.1zM436 374.4a82.5 82.5 0 01-5-8.5c1 3 2 5.5 3.6 8.2.5 0 1 .2 1.4.3zM425.8 372.6a52.9 52.9 0 01-4.9-8.8c.7 3 1.5 5.8 2.8 8.3l2.1.5zM415.8 370a54.1 54.1 0 01-4.4-9c.6 3.2 1.5 6 2.6 8.5l1.8.5zM406.6 367.3a46 46 0 01-3-8.8c.2 3.3.7 6 1.5 8.2l1.5.6z" stroke-linejoin="round" stroke-width=".1" stroke="#1f1a17" fill="#1f1a17"/><path d="M429.7 372.7c-1-.9-3-3.8-4.2-5.6.4 1.4.9 3.4 2 5.4.4 0 1.8.3 2.2.2zM422.5 371.3c-1.5-1.6-1.6-2.2-2.5-4.6 0 1.8.3 3.2 1 4.3l1.5.3zM415 362.6c.5 2 .9 3.9 1.9 5.8-1.5-1.8-2.4-4-3.4-6.3.6 0 1 .4 1.6.5zM412.6 368.7a24.7 24.7 0 01-3.1-6.9c0 2 .3 4.9 1.3 6.4.5 0 1.3.4 1.8.5zM400.6 359.7l1.2 5.5 1.6.4zM437.3 374c-1-1.3-1.8-3-2.3-5.2 1.3 2.4 2.6 4.2 4 5.4l-1.7-.2zM437.3 366.8l1.5.3c0 2.8.8 4.2 1.6 5.7-1.2-.9-2.3-2.5-3.1-6zM447.8 374.8c-1.3-1.1-2-3.2-2.6-5.8 1.1 2.5 2.5 4.4 4 5.8h-1.4zM452.6 367.6c1.4 4 2.9 5.5 4.3 6.7-1.1-2-2.3-3.7-2.9-6.6h-1.4zM466.5 374.1a10 10 0 01-3.4-5.5c1.4 2.6 3.1 4.3 5.1 5.3l-1.7.2zM466.7 366.9c1.6 3.3 3.2 5 4.8 6-1.2-1.5-2.3-3.1-3-6.1l-1.8.1zM477.1 372.5a7.8 7.8 0 01-2.9-4c1.2 1.7 2.6 3 4.1 3.7l-1.2.3zM485.8 370.6c-1.3-1-2-2.2-2.8-3.5a9.2 9.2 0 004.3 3l-1.5.5zM490.3 369.3a43 43 0 01-4-5.1 18 18 0 003.2 5.4l.8-.3z" stroke-linejoin="round" stroke-width=".1" stroke="#aaa9a9" fill="#aaa9a9"/><path d="M490.1 362.4l1-.4c1.7 1.6 2.7 3.6 3.7 5.5-1.3-2.1-2.8-4-4.7-5.1zM494.4 361c1.9 1 3 2.9 4 5-1.4-2-2.9-3.7-5.2-4.6.4 0 .8-.2 1.2-.4zM499 359.5l1-.4c1.8 1.2 2.8 3 3.2 5-1-2-2.3-3.6-4.2-4.6z" stroke-linejoin="round" stroke-width=".1" stroke="#72706f" fill="#72706f"/><path d="M400.3 373.4l.1-2.1c15.6 6.7 34.6 12.5 72.7 9.8-22.4 4-48.4 1.7-72.8-7.7z" stroke-linejoin="round" stroke-width=".1" stroke="#c2c1c1" fill="#c2c1c1"/><path d="M504.5 373v.5c-34.8 13-69.7 13-104.5 0v-.5c34.8 13 69.7 13 104.5 0z" stroke-linejoin="round" stroke-width=".1" stroke="#1f1a17" fill="#1f1a17"/><path d="M403.5 374c1-1.8 2.4-3 3.8-4a10.8 10.8 0 00-2.8 4.4l-1-.3zM408.4 375.6a14 14 0 013.2-4.6c-.9 1.4-1.5 3-2.1 5-.3-.1-.8-.2-1-.4zM417.8 378.3c.7-1.7 1.8-3 3-4-.8 1.4-1.6 2.8-1.8 4.3l-1.2-.3zM422.4 379.4c.7-1.7 1.6-3 2.7-3.9a11 11 0 00-1.6 4.1l-1-.2zM417.3 371.1a9.3 9.3 0 00-2.4 4.2c1-1.6 2.2-3 3.7-3.9-.5 0-.8-.2-1.3-.3zM429 379.1c.7-2 1.3-3.5 3.1-4.9l1 .2c-2 1.3-2.8 2.7-4 4.7zM430.6 380.9a8 8 0 013.5-4c-1 1.3-1.8 2.6-2.1 4.2l-1.4-.2zM438 381.8a7.4 7.4 0 013.1-4.4 9.2 9.2 0 00-2 4.5l-1.1-.1zM441 382c1-3 2.5-4.6 4.2-5.6-1.1 1.6-2.4 3.2-3 5.7H441zM457 375.6a9.3 9.3 0 00-3.5 4.2c.2-1.7.4-2.8 1.8-4.2h1.8zM461.5 375.5c-1.3 1.5-1.4 2.6-1.9 4.4.8-1.9 1.6-3 3.1-4.5l-1.2.1zM462.1 382.3c.8-2.1 2-4 3.5-5.8-1 1.8-2 3.6-2.2 5.6l-1.3.2zM471.9 374.3a17 17 0 01-2.3 5c1.5-1.6 2.9-3 3.8-5.2l-1.5.2zM471.7 381.2l3.2-5.1-1.7 4.8-1.5.3zM481 374.4l-1.7 5.5-1.5.4zM484.4 371.8c-.5 1.8-1.2 3.5-2 5 1.3-1.5 2.4-3.2 3.1-5.3l-1.1.3z" stroke-linejoin="round" stroke-width=".1" stroke="#aaa9a9" fill="#aaa9a9"/><path d="M399.9 373c1-2.8 2.6-4.9 4.7-6a13.9 13.9 0 00-4 6.5l-.7-.4zM405.8 375.3c1.4-3.2 3.3-5 5.4-6.2-1.8 2-3.3 4-4.4 6.5l-1-.3zM415.4 378c1.6-2.8 3.5-5 5.6-6.7-1.9 2-3.5 4.4-4.5 7-.4 0-.7-.2-1.1-.3zM424.9 380a19 19 0 015.8-6.7c-1.9 2-3.4 4.3-4.5 7l-1.3-.4zM434.5 381.4c1.5-2.9 3-4.7 5.2-6.6-1.6 2.3-2.7 4-3.6 6.8l-1.6-.2zM444.8 382.3c1.5-3 3-4.8 5.2-6.8-1.6 2.4-2.7 4-3.7 7l-1.5-.2zM454.4 382.6a30 30 0 016-7.8c-1.8 2.4-3.3 5-4.3 7.8h-1.7zM464.8 382c1.5-3.1 3.3-5.7 5.4-8.1a36 36 0 00-3.8 8h-1.6zM474 380.9c1.9-2.7 3.6-5.5 5.1-8.3-1 2.8-2.1 5.5-3.6 8l-1.5.3zM482.9 379.3c1.8-2.6 3.5-5.4 5-8.5a33 33 0 01-2.9 8l-2.1.5zM492.3 376.9c1.7-2.5 3.1-5.3 4.4-8.5-.6 3-1.4 5.7-2.6 8l-1.8.5zM500.6 374.3c1.2-2.4 2.3-5 3.1-8.2a28 28 0 01-1.5 7.6l-1.6.6z" stroke-linejoin="round" stroke-width=".1" stroke="#1f1a17" fill="#1f1a17"/><path d="M400.3 378.7v2c26.6 10.5 54 12 82 6.5-30.7 4.3-57.8 1.9-82-8.5z" stroke-linejoin="round" stroke-width=".1" stroke="#c2c1c1" fill="#c2c1c1"/><path d="M504.5 380.5v.5c-34.8 13-69.7 13-104.5 0v-.5c34.8 13 69.7 13 104.5 0z" stroke-linejoin="round" stroke-width=".1" stroke="#1f1a17" fill="#1f1a17"/><path d="M502 381.7c-1.4-3.2-3.3-4.2-5.5-5.4 1.8 2 3.4 3.3 4.5 5.7l1-.3zM492.9 384.5c-1.6-2.8-3-4-5.2-5.7 1.9 2 3 3.4 4 6.1l1.2-.4zM484.9 386.6c-2.1-1.2-3.9-3.3-6-5.9 1.5 2.6 2.6 4.4 4 6.4l2-.5zM474.8 388.8c-2-2.2-3.5-3.9-5.3-6.5 1.1 2.7 2.2 4.4 3.7 6.7l1.6-.2zM465.2 389.9c-2.1-2.3-3.8-4-5.4-6.8 1 3 2.3 4.6 3.9 6.9l1.5-.1zM455.6 390.5a37 37 0 01-5.9-7.2c1.1 3 2.4 5.1 4.2 7.1h1.7zM445.7 390.5c-1.9-2.4-3.6-4.6-5.3-7.6 1.1 3.2 2.2 5.4 3.7 7.5h1.6zM436 389.6c-1.8-2.7-3.5-5.1-5-8 1 2.9 2 5.2 3.6 7.7l1.4.3zM425.8 388a48.6 48.6 0 01-4.9-8.3c.7 2.9 1.5 5.4 2.8 7.8l2.1.5zM415.8 385.5a49.3 49.3 0 01-4.4-8.5c.6 3 1.5 5.8 2.6 8l1.8.5zM406.6 383c-1.2-2.4-2.2-5-3-8.2.2 3 .7 5.5 1.5 7.6l1.5.6z" stroke-linejoin="round" stroke-width=".1" stroke="#1f1a17" fill="#1f1a17"/><path d="M429.7 388c-1-.8-3-3.5-4.2-5.2.4 1.3.9 3.2 2 5l2.2.3zM422.5 386.8c-1.5-1.6-1.6-2.2-2.5-4.4 0 1.7.3 3 1 4l1.5.4zM415 378.6c.5 1.8.9 3.6 1.9 5.4-1.5-1.7-2.4-3.7-3.4-6 .6.1 1 .5 1.6.6zM412.6 384.3c-1.1-1.2-2.3-4-3.1-6.4 0 1.9.3 4.5 1.3 6 .5 0 1.3.3 1.8.4zM400.6 375.9l1.2 5 1.6.5zM437.3 389.2c-1-1.2-1.8-2.8-2.3-4.8 1.3 2.2 2.6 4 4 5l-1.7-.2zM437.3 382.5l1.5.3c0 2.6.8 3.9 1.6 5.3-1.2-.8-2.3-2.3-3.1-5.6zM447.8 390c-1.3-1-2-3-2.6-5.4 1.1 2.3 2.5 4 4 5.4h-1.4zM452.6 383.3c1.4 3.6 2.9 5 4.3 6.2-1.1-1.8-2.3-3.5-2.9-6.1l-1.4-.1zM466.5 389.3a9.2 9.2 0 01-3.4-5.1 12 12 0 005.1 5l-1.7.1zM466.7 382.6c1.6 3 3.2 4.6 4.8 5.6a13.4 13.4 0 01-3-5.7l-1.8.1zM477.1 387.8a7.4 7.4 0 01-2.9-3.8c1.2 1.7 2.6 3 4.1 3.6l-1.2.2zM485.8 386.1c-1.3-.9-2-2-2.8-3.3a9.2 9.2 0 004.3 2.9l-1.5.4zM490.3 384.9c-1.3-1.4-2.6-3-4-4.8.8 1.9 1.8 3.6 3.2 5l.8-.2z" stroke-linejoin="round" stroke-width=".1" stroke="#aaa9a9" fill="#aaa9a9"/><path d="M490.1 378.4l1-.3c1.7 1.4 2.7 3.3 3.7 5-1.3-1.9-2.8-3.8-4.7-4.7zM494.4 377.1c1.9.8 3 2.7 4 4.6-1.4-1.7-2.9-3.4-5.2-4.2l1.2-.4zM499 375.7l1-.4a7 7 0 013.2 4.7c-1-1.8-2.3-3.3-4.2-4.3z" stroke-linejoin="round" stroke-width=".1" stroke="#72706f" fill="#72706f"/><path d="M407 277l1.4-1.4c14.3 5.5 32.9 9.4 64.7 7.1a129.3 129.3 0 01-66.2-5.6z" stroke-linejoin="round" stroke-width=".1" stroke="#c2c1c1" fill="#c2c1c1"/><path d="M496.6 277l.3.3a135.3 135.3 0 01-90.4-.3l.8-.3a135.2 135.2 0 0089.3.2z" stroke-linejoin="round" stroke-width=".1" stroke="#1f1a17" fill="#1f1a17"/><path d="M409.4 277.1a15 15 0 013.2-5 19 19 0 00-2.1 5.4l-1.1-.4z" stroke-linejoin="round" stroke-width=".1" stroke="#1f1a17" fill="#1f1a17"/><path d="M417.8 279.7c.7-1.8 1.8-3.1 3-4.2-.8 1.4-1.6 2.9-1.8 4.5l-1.2-.3zM422.4 280.9c.7-1.9 1.6-3.2 2.7-4.2-.8 1.4-1.4 2.8-1.6 4.4l-1-.2zM417.3 272c-1.2 1-1.8 2.7-2.4 4.5 1-1.7 2.3-3.2 3.8-4.3l-1.4-.2z" stroke-linejoin="round" stroke-width=".1" stroke="#aaa9a9" fill="#aaa9a9"/><path d="M405.4 284.8c-1.2 1-1.9 2.7-2.5 4.5 1.2-1.8 2.4-3.3 4-4.3l-1.5-.2z" stroke-linejoin="round" stroke-width=".1" stroke="#1f1a17" fill="#1f1a17"/><path d="M429 280.6c.7-2.3 1.8-4.3 3.6-5.8l1 .3c-2 1.3-3.3 3.3-4.6 5.5zM430.6 282.4c.9-2 2-3.3 3.5-4.1-1 1.3-1.8 2.7-2.1 4.3-.5 0-1 0-1.4-.2zM438 283.4c.5-2 1.6-3.5 3.1-4.6-1 1.3-1.8 2.8-2 4.7H438zM441 283.7c1-3.2 2.5-5 4.2-6-1.1 1.6-2.4 3.3-3 6H441zM457.4 276.4c-1.9 1.3-3 3-4 4.9a8 8 0 012.2-4.9h1.8zM461.8 276.1a13 13 0 00-2.2 5.3c.8-2 1.9-3.9 3.4-5.4l-1.2.1zM462.1 284c.8-2.3 2-4.3 3.5-6.2-1 1.9-2 3.8-2.2 6l-1.3.1zM472 275c-.4 2-1.3 4-2.4 5.8 1.5-1.8 3-3.6 4-6l-1.6.3zM471.7 282.7l3.2-5.4-1.7 5.2-1.5.2zM481 275.5l-1.7 6-1.5.3zM484.4 272.7a32 32 0 01-2 5.4c1.3-1.6 2.4-3.4 3.1-5.7l-1.1.3z" stroke-linejoin="round" stroke-width=".1" stroke="#aaa9a9" fill="#aaa9a9"/><path d="M415.4 279.4c1.6-3 3.5-5.4 5.6-7.2a23 23 0 00-4.5 7.6l-1.1-.4zM424.9 281.4c1.5-2.9 3.4-5.3 5.8-7a23.2 23.2 0 00-4.5 7.4l-1.3-.4zM434.5 283c1.5-3.1 3.5-5.6 5.6-7.5a29.5 29.5 0 00-4 7.7c-.5 0-1 0-1.6-.2zM444.8 284a28 28 0 015.5-8.1c-1.6 2.5-3 5-4 8.2h-1.5zM454.4 284.3a32 32 0 016-8.4 32.2 32.2 0 00-4.3 8.3h-1.7zM464.8 283.6c1.5-3.3 3.3-6 5.4-8.6-1.7 2.8-3 5.6-3.8 8.5l-1.6.1zM474 282.4c1.9-2.8 3.6-5.8 5.1-8.8-1 3-2.1 6-3.6 8.6l-1.5.2zM482.9 280.7a55 55 0 005-9c-.7 3-1.6 6-2.9 8.5l-2.1.5zM489.4 279.6c1.6-1.7 2-3.3 2.6-6.5-.1 3.5.2 3.6-.8 6l-1.8.5z" stroke-linejoin="round" stroke-width=".1" stroke="#1f1a17" fill="#1f1a17"/><path d="M404.6 282.1l-1.2 1.5c25.7 10 52 11.2 79 5.6a146 146 0 01-77.8-7z" stroke-linejoin="round" stroke-width=".1" stroke="#c2c1c1" fill="#c2c1c1"/><path d="M500.6 283.5l.3.4a136 136 0 01-97.7 0v-.6a135.9 135.9 0 0097.4.2z" stroke-linejoin="round" stroke-width=".1" stroke="#1f1a17" fill="#1f1a17"/><path d="M492.9 286.3a18 18 0 00-5.2-6c1.9 2.1 3 3.5 4 6.4.4 0 .8-.2 1.2-.4zM484.9 288.5c-2.1-1.2-3.9-3.5-6-6.2 1.5 2.8 2.6 4.7 4 6.8l2-.6zM474.8 290.9c-2-2.4-3.5-4.1-5.3-7 1.1 3 2.2 4.8 3.7 7.2l1.6-.2zM465.2 292c-2.1-2.3-3.8-4.2-5.4-7.2 1 3.2 2.3 5 3.9 7.3h1.5zM455.6 292.7a39 39 0 01-5.9-7.7c1.1 3.3 2.4 5.5 4.2 7.7h1.7zM445.7 292.7c-1.9-2.6-3.6-4.8-5.3-8.1 1.1 3.4 2.2 5.8 3.7 8l1.6.1zM436 291.8a82.4 82.4 0 01-5-8.5c1 3 2 5.5 3.6 8.2.5 0 1 .2 1.4.3zM425.8 290a52.9 52.9 0 01-4.9-8.8c.7 3 1.5 5.7 2.8 8.3l2.1.5zM415.8 287.4a54 54 0 01-4.4-9c.6 3.2 1.5 6 2.6 8.5l1.8.5z" stroke-linejoin="round" stroke-width=".1" stroke="#1f1a17" fill="#1f1a17"/><path d="M429.7 290.1c-1-.9-3-3.8-4.2-5.6.4 1.4.9 3.4 2 5.4.4 0 1.8.3 2.2.2zM422.5 288.7c-1.5-1.6-1.6-2.2-2.5-4.6 0 1.8.3 3.2 1 4.3l1.5.3zM415 280c.5 2 .9 3.9 1.9 5.8-1.5-1.9-2.4-4-3.4-6.3.6 0 1 .4 1.6.5zM412.6 286a24.7 24.7 0 01-3.1-6.8c0 2 .3 4.9 1.3 6.4.5 0 1.3.4 1.8.5zM437.3 291.4c-1-1.3-1.8-3-2.3-5.2 1.3 2.4 2.6 4.2 4 5.4l-1.7-.2zM437.3 284.2l1.5.3c0 2.8.8 4.2 1.6 5.7-1.2-.9-2.3-2.5-3.1-6zM447.8 292.2c-1.3-1.2-2-3.2-2.6-5.8 1.1 2.5 2.5 4.4 4 5.8h-1.4zM452.6 285c1.4 4 2.9 5.5 4.3 6.7-1.1-2-2.3-3.7-2.9-6.6h-1.4zM466.5 291.5a10 10 0 01-3.4-5.5c1.4 2.6 3.1 4.3 5.1 5.3l-1.7.2zM466.7 284.3c1.6 3.3 3.2 5 4.8 6-1.2-1.5-2.3-3.1-3-6.1l-1.8.1zM477.1 289.9a7.8 7.8 0 01-2.9-4c1.2 1.7 2.6 3 4.1 3.7l-1.2.3zM485.8 288c-1.3-1-2-2.2-2.8-3.5a9.2 9.2 0 004.3 3l-1.5.5zM490.3 286.7a43 43 0 01-4-5.1 18 18 0 003.2 5.4l.8-.3z" stroke-linejoin="round" stroke-width=".1" stroke="#aaa9a9" fill="#aaa9a9"/><path d="M490.1 279.8l1-.4c1.7 1.6 2.7 3.6 3.7 5.5-1.3-2.1-2.8-4-4.7-5.1zM494.4 278.4c1.9.9 3 2.9 4 5-1.4-2-2.9-3.7-5.2-4.6l1.2-.4z" stroke-linejoin="round" stroke-width=".1" stroke="#72706f" fill="#72706f"/><path d="M401.2 291.5l.5-2c15.3 7 34.5 12.5 71.4 9.8-22 4.2-47.9 1.9-71.9-7.8z" stroke-linejoin="round" stroke-width=".1" stroke="#c2c1c1" fill="#c2c1c1"/><path d="M503.6 290.9v.5a134 134 0 01-102.9 0v-.4c35.1 13.3 68.1 13.4 102.9-.1z" stroke-linejoin="round" stroke-width=".1" stroke="#1f1a17" fill="#1f1a17"/><path d="M403.5 291.7c1-2 2.4-3.3 3.8-4.4a11.7 11.7 0 00-2.8 4.8l-1-.4zM408.4 293.4a15 15 0 013.2-5 19 19 0 00-2.1 5.4l-1-.4zM417.8 296.3c.7-1.9 1.8-3.2 3-4.3-.8 1.4-1.6 3-1.8 4.5l-1.2-.2zM422.4 297.4c.7-1.8 1.6-3 2.7-4.1-.8 1.3-1.4 2.7-1.6 4.3l-1-.2zM417.3 288.6c-1.2 1-1.8 2.7-2.4 4.5 1-1.8 2.3-3.3 3.8-4.3l-1.4-.2zM429 297.1a10 10 0 013.4-5.4l1 .2a14 14 0 00-4.3 5.3zM430.6 299c.9-2 2-3.3 3.5-4.2-1 1.3-1.8 2.8-2.1 4.4l-1.4-.2zM438 300c.5-2 1.6-3.5 3.1-4.7-1 1.4-1.8 2.8-2 4.8l-1.1-.1zM441 300.2c1-3.1 2.5-4.9 4.2-6-1.1 1.7-2.4 3.4-3 6.1H441zM457.3 293c-1.9 1.3-3 3-3.8 4.8.2-1.7.6-3.3 2-4.7h1.8zM461.8 292.8a12.3 12.3 0 00-2.2 5.1c.8-2 1.9-3.6 3.4-5.2l-1.2.1zM462.1 300.2c.8-2.3 2-4 3.5-5.9-1 2-2 3.6-2.2 5.7l-1.3.2zM472 291.6c-.4 2-1.3 3.9-2.4 5.8 1.5-1.8 3-3.6 4-6l-1.6.2zM471.7 299.3l3.2-5.4-1.7 5.2-1.5.2zM481 292l-1.7 6-1.5.4zM484.4 289.3a32 32 0 01-2 5.4c1.3-1.6 2.4-3.5 3.1-5.7-.4 0-.7.2-1.1.3z" stroke-linejoin="round" stroke-width=".1" stroke="#aaa9a9" fill="#aaa9a9"/><path d="M405.8 293a13 13 0 015.4-6.6c-1.8 2-3.3 4.3-4.4 7l-1-.4zM415.4 296c1.6-3.1 3.5-5.4 5.6-7.2a23 23 0 00-4.5 7.5l-1.1-.4zM424.9 298c1.5-3 3.4-5.3 5.8-7a23.2 23.2 0 00-4.5 7.4l-1.3-.4zM434.5 299.6c1.5-3.1 3.5-5.6 5.6-7.6a29.5 29.5 0 00-4 7.8l-1.6-.2zM444.8 300.6a28 28 0 015.5-8.2c-1.6 2.5-3 5.1-4 8.3l-1.5-.1zM454.4 300.8a32 32 0 016-8.3 32.2 32.2 0 00-4.3 8.3h-1.7zM464.8 300.2c1.5-3.3 3.3-6 5.4-8.7-1.7 2.9-3 5.7-3.8 8.5l-1.6.2zM474 299c1.9-2.9 3.6-5.8 5.1-8.9-1 3-2.1 6-3.6 8.6l-1.5.3zM482.9 297.3a55 55 0 005-9c-.7 3-1.6 5.9-2.9 8.5l-2.1.5zM489.8 295.6c1.7-2.7 3.1-5.7 4.4-9.1-.6 3.2-1.4 6.1-2.6 8.6l-1.8.5zM496.4 293.8a46 46 0 003.2-8.8c-.3 3.2-.8 6-1.6 8.1l-1.6.7z" stroke-linejoin="round" stroke-width=".1" stroke="#1f1a17" fill="#1f1a17"/><path d="M400.5 296.8c0 .7-.3 1.3-.2 2 26.6 11.3 54 12.8 82 7-30.7 4.6-57.7 2-81.8-9z" stroke-linejoin="round" stroke-width=".1" stroke="#c2c1c1" fill="#c2c1c1"/><path d="M504.5 298.6v.5a136.6 136.6 0 01-104.5 0v-.5a136.6 136.6 0 00104.5 0z" stroke-linejoin="round" stroke-width=".1" stroke="#1f1a17" fill="#1f1a17"/><path d="M502 299.9c-1.4-3.4-3.3-4.5-5.5-5.8 1.8 2 3.4 3.5 4.5 6.1l1-.3zM492.9 302.9a18 18 0 00-5.2-6.1c1.9 2.2 3 3.6 4 6.5l1.2-.4zM484.9 305c-2.1-1.1-3.9-3.4-6-6.2 1.5 2.8 2.6 4.7 4 6.9l2-.6zM474.8 307.4c-2-2.3-3.5-4-5.3-6.9 1.1 3 2.2 4.7 3.7 7.1.5 0 1 0 1.6-.2zM465.2 308.6c-2.1-2.4-3.8-4.2-5.4-7.3 1 3.3 2.3 5 3.9 7.4h1.5zM455.6 309.3a39 39 0 01-5.9-7.8c1.1 3.4 2.4 5.6 4.2 7.7h1.7zM445.7 309.3c-1.9-2.6-3.6-4.9-5.3-8.2 1.1 3.5 2.2 5.8 3.7 8l1.6.2zM436 308.3a82.3 82.3 0 01-5-8.5c1 3 2 5.6 3.6 8.3l1.4.2zM425.8 306.6a52.9 52.9 0 01-4.9-8.8c.7 3 1.5 5.7 2.8 8.3l2.1.5zM415.8 304a54.1 54.1 0 01-4.4-9.1c.6 3.2 1.5 6.1 2.6 8.6l1.8.5zM406.6 301.2a46 46 0 01-3-8.7c.2 3.2.7 6 1.5 8.1l1.5.6z" stroke-linejoin="round" stroke-width=".1" stroke="#1f1a17" fill="#1f1a17"/><path d="M429.7 306.7c-1-1-3-3.8-4.2-5.6.4 1.3.9 3.4 2 5.3l2.2.3zM422.5 305.3c-1.5-1.7-1.6-2.3-2.5-4.6 0 1.8.3 3.1 1 4.3l1.5.3zM415 296.5c.5 2 .9 4 1.9 5.8-1.5-1.8-2.4-4-3.4-6.3.6 0 1 .5 1.6.5zM412.6 302.6a24.7 24.7 0 01-3.1-6.8c0 2 .3 4.8 1.3 6.3l1.8.5zM403.4 299.6c-1-1.4-1.7-3.3-2-6-.3 2.2-.1 4 .4 5.5l1.6.5zM437.3 308c-1-1.4-1.8-3.1-2.3-5.3 1.3 2.4 2.6 4.3 4 5.4l-1.7-.2zM437.4 301l1.5.3c0 2.7.8 4.1 1.6 5.6-1.2-.8-2.3-2.5-3.1-6zM447.8 308.7c-1.3-1-2-3.2-2.6-5.7 1.1 2.4 2.5 4.3 4 5.7h-1.4zM452.6 301.6c1.4 3.9 2.9 5.4 4.3 6.7-1.1-2-2.3-3.8-2.9-6.6l-1.4-.1zM466.5 308a10 10 0 01-3.4-5.5c1.4 2.7 3.1 4.3 5.1 5.4-.6 0-1.1 0-1.7.2zM466.7 300.9c1.6 3.2 3.2 5 4.8 5.9-1.2-1.4-2.3-3-3-6h-1.8zM477.1 306.5a7.8 7.8 0 01-2.9-4.1c1.2 1.8 2.6 3 4.1 3.8l-1.2.3zM485.8 304.6c-1.3-1-2-2.2-2.8-3.5a9.2 9.2 0 004.3 3l-1.5.5zM490.3 303.3a43 43 0 01-4-5.2 18 18 0 003.2 5.4l.8-.2z" stroke-linejoin="round" stroke-width=".1" stroke="#aaa9a9" fill="#aaa9a9"/><path d="M490.1 296.3l1-.3c1.7 1.6 2.7 3.5 3.7 5.5-1.3-2.2-2.8-4.1-4.7-5.2zM494.4 295c1.9.9 3 2.8 4 5-1.4-2-2.9-3.8-5.2-4.6l1.2-.4zM499 293.5l1-.4c1.8 1.1 2.8 2.9 3.2 5-1-2-2.3-3.6-4.2-4.6z" stroke-linejoin="round" stroke-width=".1" stroke="#72706f" fill="#72706f"/><path d="M418.6 264.5l2.4-2c10.2 3.6 26.8 6 52 4.1a126.9 126.9 0 01-54.4-2.1z" stroke-linejoin="round" stroke-width=".1" stroke="#c2c1c1" fill="#c2c1c1"/><path d="M485 264.2l.5.4a133.6 133.6 0 01-67.9-.4l.7-.3c22.3 5.7 44.5 5.8 66.7.3z" stroke-linejoin="round" stroke-width=".1" stroke="#1f1a17" fill="#1f1a17"/><path d="M422.4 264.8c.7-1.9 1.6-3.2 2.7-4.2-.8 1.4-1.4 2.8-1.6 4.4l-1-.2zM429 264.5c.7-2.3 1.8-4.3 3.6-5.8l1 .3c-2 1.3-3.3 3.3-4.6 5.5zM430.6 266.4c.9-2.1 2-3.4 3.5-4.2-1 1.3-1.8 2.7-2.1 4.4l-1.4-.2zM438 267.3c.5-2 1.6-3.5 3.1-4.6-1 1.3-1.8 2.8-2 4.7H438zM441 267.6c1-3.2 2.5-5 4.2-6-1.1 1.6-2.4 3.3-3 6H441zM457.4 260.3c-1.9 1.3-3 3-4 4.9a8 8 0 012.2-4.9h1.8zM461.8 260a13 13 0 00-2.2 5.3c.8-2 1.9-3.9 3.4-5.4l-1.2.1zM462.1 267.8c.8-2.2 2-4.2 3.5-6.1-1 1.9-2 3.8-2.2 6l-1.3.1zM472 258.7a23 23 0 01-2.4 6c1.5-1.8 3-3.9 4-6.2l-1.6.2zM471.7 266.6l3.2-5.4-1.7 5.2-1.5.2zM479.4 261.6l-.1 3.7-1.5.4z" stroke-linejoin="round" stroke-width=".1" stroke="#aaa9a9" fill="#aaa9a9"/><path d="M424.9 265.3c1.5-2.9 3.4-5.3 5.8-7a23.2 23.2 0 00-4.5 7.4l-1.3-.4zM434.5 267c1.5-3.2 3.5-5.7 5.6-7.6a29.5 29.5 0 00-4 7.7c-.5 0-1 0-1.6-.2zM444.8 268a28 28 0 015.5-8.2c-1.6 2.5-3 5-4 8.2h-1.5zM454.4 268.2a32 32 0 016-8.4 32.2 32.2 0 00-4.3 8.3h-1.7zM464.8 267.5c1.5-3.3 3.3-6 5.4-8.6-1.7 2.8-3 5.6-3.8 8.5l-1.6.1zM474 266.4c1.9-3 2-3.5 3.4-6.6-1 3-.4 3.6-2 6.3l-1.4.3z" stroke-linejoin="round" stroke-width=".1" stroke="#1f1a17" fill="#1f1a17"/><path d="M414 268.8l-2.4 1.6c23 7.3 46.7 7.7 70.8 2.7-26 4-49.4 3-68.5-4.3z" stroke-linejoin="round" stroke-width=".1" stroke="#c2c1c1" fill="#c2c1c1"/><path d="M491.5 270.5l.7.3c-27 8.2-53.9 8-80.8-.3l.3-.4c26.6 8.2 53.2 8.3 79.8.4z" stroke-linejoin="round" stroke-width=".1" stroke="#1f1a17" fill="#1f1a17"/><path d="M484.9 272.4c-2.1-1.2-3.9-3.5-6-6.2 1.5 2.8 2.6 4.7 4 6.8l2-.6zM474.8 274.8c-2-2.4-3.5-4.1-5.3-7 1.1 3 2.2 4.8 3.7 7.2l1.6-.2zM465.2 276c-2.1-2.4-3.8-4.3-5.4-7.3 1 3.2 2.3 5 3.9 7.3h1.5zM455.6 276.6a39 39 0 01-5.9-7.7c1.1 3.3 2.4 5.5 4.2 7.7h1.7zM445.7 276.6c-1.9-2.6-3.6-4.8-5.3-8.1 1.1 3.4 2.2 5.8 3.7 8l1.6.1zM436 275.7a82.4 82.4 0 01-5-8.5c1 3 2 5.5 3.6 8.2.5 0 1 .2 1.4.3zM425.8 274a52.9 52.9 0 01-4.9-8.9c.7 3 1.5 5.7 2.8 8.3l2.1.5z" stroke-linejoin="round" stroke-width=".1" stroke="#1f1a17" fill="#1f1a17"/><path d="M429.7 274c-1-.9-3-3.8-4.2-5.6.4 1.4.9 3.4 2 5.4.4 0 1.8.3 2.2.2zM422.5 272.6c-1.5-1.6-1.6-2.2-2.5-4.6 0 1.8.3 3.2 1 4.3l1.5.3zM437.3 275.3c-1-1.3-1.8-3-2.3-5.2 1.3 2.4 2.6 4.2 4 5.4l-1.7-.2zM437.3 268l1.5.4c0 2.8.8 4.2 1.6 5.7-1.2-.9-2.3-2.5-3.1-6zM447.8 276c-1.3-1-2-3.1-2.6-5.7 1.1 2.5 2.5 4.4 4 5.8h-1.4zM452.6 269c1.4 3.8 2.9 5.4 4.3 6.6-1.1-2-2.3-3.7-2.9-6.6h-1.4zM466.5 275.4a10 10 0 01-3.4-5.5c1.4 2.6 3.1 4.3 5.1 5.3l-1.7.2zM466.7 268.2c1.6 3.3 3.2 5 4.8 6-1.2-1.5-2.3-3.1-3-6.1l-1.8.1zM477.1 273.8a7.8 7.8 0 01-2.9-4c1.2 1.7 2.6 3 4.1 3.7l-1.2.3z" stroke-linejoin="round" stroke-width=".1" stroke="#aaa9a9" fill="#aaa9a9"/><path d="M416.7 271.2a7.8 7.8 0 010-5c-.1 2.2.3 4 1.1 5.5l-1.1-.5z" stroke-linejoin="round" stroke-width=".1" stroke="#1f1a17" fill="#1f1a17"/><path d="M485.8 272c-1.3-1-2-2.3-2.8-3.6a9.2 9.2 0 004.3 3l-1.5.5z" stroke-linejoin="round" stroke-width=".1" stroke="#aaa9a9" fill="#aaa9a9"/><path d="M489.5 270.9c-1.3-1.5-3.2-3-4.6-5 .8 2 2.4 3.7 3.7 5.2l.9-.2zM475.5 258l-.9-.4c-15.5 2.7-31 2.6-46.6-.3l-.9.4c16.1 3 32.3 3.2 48.4.3z" stroke-linejoin="round" stroke-width=".1" stroke="#1f1a17" fill="#1f1a17"/><circle r="10.7" cy="300.8" cx="451.4" stroke-linejoin="round" stroke-width=".1" stroke="#1f1a17" fill="#1f1a17"/><circle r="9.8" cy="300.8" cx="451.4" stroke-linejoin="round" stroke-width=".1" stroke="#1f1a17" fill="#aaa9a9"/><circle r="7.6" cy="300.8" cx="451.4" stroke-linejoin="round" stroke-width=".1" stroke="#fff" fill="#fff"/><circle r="4.6" cy="300.8" cx="451.4" stroke-linejoin="round" stroke-width=".1" stroke="#1f1a17" fill="#1f1a17"/><path d="M437.1 390l-.2-20.8c-.2-17.8 29.4-17.5 29.5 0l.2 20.7c-9.2 1.2-19.1 1-29.5 0z" stroke-linejoin="round" stroke-width=".1" stroke="#1f1a17" fill="#1f1a17"/><path d="M437.8 389.7l-.2-20.1c-.1-17.4 28-17 28.2 0l.2 20c-8.8 1.1-18.3 1-28.2 0z" stroke-linejoin="round" stroke-width=".1" stroke="#1f1a17" fill="#dededd"/><path d="M439.5 390l-.1-18.4c-.2-15.8 24.7-15.5 24.8 0l.2 18.3c-7.8 1-16.2 1-24.9.1z" stroke-linejoin="round" stroke-width=".1" stroke="#1f1a17" fill="#1f1a17"/><path d="M440.1 390l-.1-18c-.2-15.5 23.5-15.2 23.6 0l.2 18a99 99 0 01-23.7 0z" stroke-linejoin="round" stroke-width=".1" stroke="#1f1a17" fill="#dededd"/><path d="M440.1 390l-.1-18c-.2-15.5 23.5-15.2 23.6 0v6.3z" stroke-linejoin="round" stroke-width=".1" stroke="#838281" fill="#838281"/><linearGradient gradientTransform="matrix(2.8346 0 0 -2.8346 -56 1676.2)" y2="499.4" x2="179" y1="503" x1="179" gradientUnits="userSpaceOnUse" id="s"><stop offset="0" stop-color="#dededd"/><stop offset="1" stop-color="#838281"/></linearGradient><path d="M429.1 257.5c15.1-7 29.7-6.9 44.4.1-16 2.8-30.9 3-44.4-.1z" stroke-linejoin="round" stroke-width=".1" stroke="#1f1a17" fill="url(#s)"/><path d="M487 296.3c1.4-1.9 2-3.7 2.6-5.6 0 1.8-.3 3.5-1 5.2l-1.6.4zM488.3 312.4c1.3-1.9 2-3.7 2.6-5.6 0 1.7-.3 3.5-1 5.2l-1.6.4zM489.6 328.5c1.3-1.9 2-3.7 2.6-5.6 0 1.7-.3 3.5-1 5.2l-1.6.4zM488.7 345.2c1.3-1.9 2-3.8 2.5-5.6 0 1.7-.3 3.4-1 5.1l-1.5.5zM488.5 361.8c1.3-1.8 2-3.7 2.5-5.6 0 1.8-.3 3.5-1 5.2l-1.5.4zM488.3 378c1.3-2 1.9-3.8 2.5-5.7 0 1.8-.3 3.5-1 5.2l-1.5.4zM493.6 294.3c1.3-1.9 2-3.7 2.5-5.6 0 1.8-.2 3.5-1 5.2l-1.5.4zM495 310.4c1.2-1.9 1.9-3.7 2.4-5.6 0 1.8-.2 3.5-1 5.2l-1.5.4zM496.2 326.5c1.3-1.9 2-3.7 2.5-5.6 0 1.8-.2 3.5-1 5.2l-1.5.4zM496.4 342.9c1.3-1.9 2-3.7 2.5-5.6 0 1.7-.3 3.4-1 5.2l-1.5.4zM496.6 359.4c1.3-1.9 2-3.7 2.5-5.6 0 1.7-.3 3.5-1 5.2l-1.5.4zM496.4 375.5c1.3-1.9 2-3.7 2.5-5.6 0 1.7-.3 3.5-1 5.2l-1.5.4z" stroke-linejoin="round" stroke-width=".1" stroke="#838281" fill="#838281"/></g></svg>