<svg xmlns="http://www.w3.org/2000/svg" xmlns:xlink="http://www.w3.org/1999/xlink" height="400" width="600"><defs><linearGradient id="a"><stop offset="0" stop-color="#00adef"/><stop offset=".6" stop-color="#46c3f3"/><stop offset="1" stop-color="#8cd9f7"/></linearGradient><linearGradient id="b"><stop offset="0" stop-color="#00adef"/><stop offset=".5" stop-color="#46c3f3"/><stop offset="1" stop-color="#8cd9f7"/></linearGradient><linearGradient y2="624.1" x2="-295.8" y1="593" x1="-347.3" gradientUnits="userSpaceOnUse" id="c" xlink:href="#a"/><linearGradient y2="654.4" x2="-408.4" y1="654.4" x1="-346.5" gradientUnits="userSpaceOnUse" id="d" xlink:href="#b"/><linearGradient y2="673.4" x2="-295.1" y1="663.9" x1="-310.3" gradientUnits="userSpaceOnUse" id="e" xlink:href="#b"/><linearGradient y2="624.1" x2="-295.8" y1="593" x1="-347.3" gradientUnits="userSpaceOnUse" id="f" xlink:href="#a"/><linearGradient y2="654.4" x2="-408.4" y1="654.4" x1="-346.5" gradientUnits="userSpaceOnUse" id="g" xlink:href="#b"/><linearGradient y2="673.4" x2="-295.1" y1="663.9" x1="-310.3" gradientUnits="userSpaceOnUse" id="h" xlink:href="#b"/></defs><path fill="#009bde" d="M0 0h600v400H0z"/><path d="M-617 993v6.3h73.6V993H-580z" fill="#ccc" stroke="#000" stroke-width="1.2" transform="matrix(.75 0 0 .74951 735.2 -658.1)"/><g stroke="#000" stroke-width="1.6" fill="#fff"><path d="M-622.7 1523v41.7h264.1v-41.8h-132zM-595 1494.4c-8.9 9.5-15.4 19.2-27.7 28.5h264.1c-12.2-9.3-18.8-19-27.7-28.5h-104.3z" transform="matrix(.37746 0 0 .37712 485.3 -209.3)"/><g transform="matrix(.37746 0 0 .37712 485.3 -209.3)"><path d="M-561 925.7v12.5h140.8v-12.5h-70.4zM-583.6 1339.4v132.4h186v-132.4h-93zM-587.2 1263.7a8 8 0 00-8 8v12.7a8 8 0 008 8H-394a8 8 0 008-8v-12.7a8 8 0 00-8-8h-96.5z"/><path d="M-564.7 907c-3.6 0-6.5 3-6.5 6.6v9.1c0 3.7 2.9 6.6 6.5 6.6h148.1c3.7 0 6.6-3 6.6-6.6v-9.1c0-3.7-3-6.6-6.6-6.6h-74zM-570.7 794.4v20.8h160.1v-20.8h-80z"/><path d="M-580 812.7v18.5h178.7v-18.5h-89.3zM-554.4 938.2l-16.5 325.5h160.6l-16.5-325.5h-63.8z"/><path d="M-579.8 831c17.4 24.6 13.1 59 26.3 76H-427.8c13.3-17 9-51.4 26.4-76h-89.2zM-596 1320.2v22.2h210.7v-22.2h-105.3z"/><circle r="7.5" cy="1372.6" cx="-297" transform="translate(-125 76.6)"/><path d="M-528.6 1356.6c0 14.7-17 30.9-31 30.9v45.1c14.3 0 31.1 14.7 31.1 31.2H-452.8c0-16.5 16.9-31.2 31.1-31.2v-45.1c-13.9 0-31-16.2-31-31h-38z"/><path d="M-519.3 1382.3c-2.4 3.5-3.6 6-9.3 9v32.4c4.8 3.1 6.5 4.2 9.4 9h57.1c3-4.8 4.7-5.9 9.4-9v-32.5c-5.7-2.9-6.9-5.4-9.3-9h-28.6z"/><circle r="7.5" cy="1372.6" cx="-297" transform="translate(-125 -12.4)"/><path d="M-438.7 851.5c-.7-6.1-.6-11.4-9.6-17.5-11 4-17.7 10.6-18.6 22M-490.6 1259c8.3 0 10.1-5 11.7-8.2 0 0 3 8.3 10.5 8.3 7.6 0 10.2-8.3 10.2-8.3s2 8.2 8.8 8.3c6.8 0 9.2-8.3 9.2-8.3s1.2 8.3 8.6 8.3c7.5 0 8.7-8.3 8.7-8.3s0 8.3 5.5 8.3c5.4 0 6.5-8.4 6.5-8.4M-490.6 941.3c6.7 0 8.3 3.4 9.5 5.8 0 0 2.4-5.8 8.6-5.8 6.2 0 8.3 5.8 8.3 5.8s1.6-5.8 7.1-5.8c5.6-.1 7.5 5.8 7.5 5.8s1-5.8 7-5.8c6.1 0 7 5.8 7 5.8s.1-5.8 4.6-5.8c4.4 0 4.6 5.8 4.6 5.8M-423 1250.8l-12.5-304.3h0M-440.1 1250.8l-9.4-304.3M-458.2 1250.8l-6-304.3M-479 1250.8l-2-304.3"/><circle r="7.5" cy="1372.6" cx="-297" transform="translate(-265 76.6)"/><circle r="7.5" cy="1372.6" cx="-297" transform="translate(-265 -12.4)"/><g><path d="M-490.6 1259c-8.3 0-10.2-5-11.7-8.2 0 0-3 8.3-10.6 8.3s-10.2-8.3-10.2-8.3-1.9 8.2-8.7 8.3c-6.8 0-9.3-8.3-9.3-8.3s-1.2 8.3-8.6 8.3c-7.4 0-8.6-8.3-8.6-8.3s0 8.3-5.5 8.3-6.6-8.3-6.6-8.3M-490.6 941.3c-6.8 0-8.3 3.4-9.5 5.8 0 0-2.5-5.8-8.6-5.8-6.2 0-8.3 5.8-8.3 5.8s-1.6-5.8-7.2-5.8c-5.5-.1-7.5 5.8-7.5 5.8s-1-5.8-7-5.8-7 5.8-7 5.8 0-5.8-4.5-5.8-4.7 5.8-4.7 5.8M-558.3 1250.8l12.5-304.3h0M-541.1 1250.8l9.3-304.3M-523 1250.8l6-304.3M-502.3 1250.8l2-304.3"/></g><path d="M-543.7 851.5c.8-6.1.7-11.4 9.6-17.5 11.1 4 17.8 10.6 18.7 22"/><path d="M-490.6 835.5c-3.4 1.3-20.2 10.6-12.7 25.8 1 2-1.5 3.9-3.2 1.4-15.8-22.4-34.8 16.3-9 14.3 0 0-.4-5.6 4.7-5.2 4.4.4 5.4 7.5 4.7 10.4-3.6 13.5-22.9 13.3-34.6 4.2-5-3.8-9.2-14.3-5.1-17.4 4.4-3.5 6 2.2 3.6 4 29-1.8.8-39.3-10.3-11-.8 2.2-2.4 1-2.1-.3 5.5-34.7-36.7-20.6-21.4-5.2.9-3.7 10.4-1.4 13.9 13.5 9.2 39.7 52.6 47.5 71.5 20.3 18.9 27.2 62.2 19.4 71.5-20.3 3.5-14.9 13-17.2 13.8-13.5 15.3-15.4-26.8-29.5-21.3 5.2.2 1.3-1.3 2.5-2.2.3-11-28.3-39.3 9.2-10.3 11-2.4-1.8-.8-7.5 3.7-4 4 3.1-.2 13.6-5.2 17.4-11.7 9.1-31 9.3-34.5-4.2-.8-3 .3-10 4.6-10.4 5.1-.4 4.7 5.2 4.7 5.2 25.9 2 6.8-36.7-9-14.3-1.7 2.5-4.2.6-3.2-1.4 7.6-15.2-9.2-24.5-12.6-25.8z"/></g><path d="M-591.4 1469.2a10 10 0 00-10 10v5.2a10 10 0 0010 10h201.6a10 10 0 0010-10v-5.2a10 10 0 00-10-10h-100.8zM-609.2 1292.4v32.5H-372v-32.5h-118.5z" transform="matrix(.37746 0 0 .37712 485.3 -209.3)"/></g><path d="M-289.7 505h-149.8c0-8.3 33.2-16.1 74.6-16.1 41.5 0 75.2 7.8 75.2 16z" transform="matrix(.3913 0 0 .36285 443.2 -95.8)" fill="maroon" stroke="#000"/><g stroke-width="1" stroke="#000"><path d="M-312.8 633c10.6-5.2 23.4-1.2 25.7-6.3 8.2-17.8-14-11.5-29.1-20.8-4.7-2.9-10.9-17-17.7-21.6-11-7.7-22.5-5.2-22.5.6 0 28.8 38.6 54.8 43.6 48z" fill="url(#c)" transform="matrix(.37746 0 0 .37712 485.3 -154.9)"/><path d="M-356.5 584.1c1.8 19 18.2 21.2 20 26.6 3.6 12.3-17.7 27.4-18.4 26.7 1.5-15.6-3.8-39.1-1.6-53.3z" fill="#00adef" transform="matrix(.37746 0 0 .37712 485.3 -154.9)"/><path d="M-428 635.7c7.2 34.5 82.4 31.8 89 12 1.7-5.3-.2-11.6 1-17.4 1-5.7 5.3-10.8 1.4-19.8 2.1 25.6-64 45.8-82.5 30.5-3.6-3.7-5.2-3-9-5.3z" fill="url(#d)" transform="matrix(.37746 0 0 .37712 485.3 -154.9)"/><path d="M-297.3 654.3c-.2-5.3 8.8-22.7 10.5-28.3-5 7.2-22.7.1-26.1 2-9.8 6.5 10.1 25 15.6 26.3z" fill="#00aeef" transform="matrix(.37746 0 0 .37712 485.3 -154.9)"/><path d="M-291.2 681a27.1 27.1 0 016.7 25c8-7.7 8.3-15.1 7.2-22.6-4.7-33.8-39.8-37-36.1-55.3-2.8.4-4.2 5.5-1.7 21.5-5.5 4.8-4 12 .9 17.4 9 9.7 21.9 21.6 9.9 43 10.5-3 12.3-19 13-29z" fill="url(#e)" transform="matrix(.37746 0 0 .37712 485.3 -154.9)"/></g><g stroke-width="1" stroke="#000"><path d="M-312.8 633c10.6-5.2 23.4-1.2 25.7-6.3 8.2-17.8-14-11.5-29.1-20.8-4.7-2.9-10.9-17-17.7-21.6-11-7.7-22.5-5.2-22.5.6 0 28.8 38.6 54.8 43.6 48z" fill="url(#f)" transform="matrix(-.37746 0 0 .37712 114.3 -154.9)"/><path d="M-356.5 584.1c1.8 19 18.2 21.2 20 26.6 3.6 12.3-17.7 27.4-18.4 26.7 1.5-15.6-3.8-39.1-1.6-53.3z" fill="#00adef" transform="matrix(-.37746 0 0 .37712 114.3 -154.9)"/><path d="M-428 635.7c7.2 34.5 82.4 31.8 89 12 1.7-5.3-.2-11.6 1-17.4 1-5.7 5.3-10.8 1.4-19.8 2.1 25.6-64 45.8-82.5 30.5-3.6-3.7-5.2-3-9-5.3z" fill="url(#g)" transform="matrix(-.37746 0 0 .37712 114.3 -154.9)"/><path d="M-297.3 654.3c-.2-5.3 8.8-22.7 10.5-28.3-5 7.2-22.7.1-26.1 2-9.8 6.5 10.1 25 15.6 26.3z" fill="#00aeef" transform="matrix(-.37746 0 0 .37712 114.3 -154.9)"/><path d="M-291.2 681a27.1 27.1 0 016.7 25c8-7.7 8.3-15.1 7.2-22.6-4.7-33.8-39.8-37-36.1-55.3-2.8.4-4.2 5.5-1.7 21.5-5.5 4.8-4 12 .9 17.4 9 9.7 21.9 21.6 9.9 43 10.5-3 12.3-19 13-29z" fill="url(#h)" transform="matrix(-.37746 0 0 .37712 114.3 -154.9)"/></g><g transform="matrix(.37746 0 0 .37712 485.3 -132)"><path d="M-497.6 382.4l4.6 16.6-16.6-4.6v15.3l16.6-4.5-4.6 16.5h15.4l-4.6-16.5 16.5 4.5v-15.3l-16.5 4.6 4.6-16.6z" fill="#f3cd00" stroke="#000"/><ellipse ry="7.6" rx="5.3" cy="383.7" cx="-333.7" transform="matrix(1.05577 0 0 1.22356 -121.4 -15.3)" fill="#9a6105" stroke="#000" stroke-width=".9"/><ellipse ry="7.6" rx="5.3" cy="383.7" cx="-333.7" transform="matrix(1.10924 0 0 1.48256 -86.7 -110.5)" fill="#9a6105" stroke="#000" stroke-width=".8"/><ellipse ry="7.6" rx="5.3" cy="383.7" cx="-333.7" transform="matrix(-1.05577 0 0 1.22356 -858.7 -15.3)" fill="#9a6105" stroke="#000" stroke-width=".9"/><ellipse ry="7.6" rx="5.3" cy="383.7" cx="-333.7" transform="matrix(-1.10924 0 0 1.48256 -893.6 -110.5)" fill="#9a6105" stroke="#000" stroke-width=".8"/><circle r="13.8" cy="356.9" cx="-364.9" transform="translate(-125 76.6)" fill="#f4c901" stroke="#000"/><path d="M-490 419.3c-1.2 0-3.2.1-3.4.7v10c-3 .3-8 .5-10 1.6-.8.4-2 5.6.8 4.7 4-1.4 8.9-1.5 12.6-1.5 3.7 0 8.7.1 12.6 1.5 2.7.9 1.6-4.3 1-4.7-2.2-1.1-7.2-1.3-10.2-1.5V420c-.2-.6-2.1-.7-3.4-.7z" fill="#c68413" stroke="#000"/><path transform="scale(1.3097 .53355) rotate(-45)" fill="#f3cd00" stroke="#000" stroke-width="1.2" d="M-1008.6 466.7h12.9v12.9h-12.9z"/><ellipse ry="47" rx="76.1" cy="426.7" cx="-364.9" transform="translate(-125 76.3)" fill="#880523" stroke="#000"/><path d="M-498.6 445.3c-3.8 0-7.1.6-6.3 1.8 5.8 9.7 9.2 42.3 9.5 51.5 1.3-.2 4.7-1.9 5.5-3.1.7 1.2 4.1 2.9 5.5 3.1.2-9.2 3.6-41.8 9.5-51.5 1.5-2.5-13.4-2-15-1.4-.9-.3-5-.6-8.7-.4z" fill="#c68413" stroke="#000"/><g stroke-width=".5"><path d="M-413.2 556.4c7.4-11.3 18.7-21.1 23.1-31.7 15.7-38.2-8.8-74.5-51.5-72.5-9.7 17-36.3 77.3-44 87 20.3 8.2 77.2 29 72.4 17.2z" fill="#d59b11"/><path d="M-403.8 525.6l-2.5-9.4 8-2.8z" fill="#d0a609"/><path d="M-406.7 516.3l2.9 9.4-13.2-6.8z" fill="#ce8a14"/><path d="M-410.7 506.7l4.5 9.8 7.8-3z" fill="#f2cc00"/><path d="M-410.7 506.5l-6.2 12.3 10.6-2.4z" fill="#e9c002"/><path d="M-415.5 519.1l-3.3-9 7.7-3.9z" fill="#d0a609"/><path d="M-419.1 510.2l3.5 9-13.6-5z" fill="#ce8a14"/><path d="M-423.8 501.1l5.1 9.3 7.6-4.1z" fill="#f2cc00"/><path d="M-424 501l-5 13 10.3-3.7z" fill="#e9c002"/><path d="M-428.4 513.9l-3.3-8.8 7.7-4.5z" fill="#d0a609"/><path d="M-432 505.2l3.5 8.8-13.6-4.2z" fill="#ce8a14"/><path d="M-436.7 496.4l5.1 8.9 7.6-4.6z" fill="#f2cc00"/><path d="M-436.8 496.3l-5.1 13.4 10.3-4.5z" fill="#e9c002"/><path d="M-441.6 509.6l-3.2-8.8 7.6-4.4z" fill="#d0a609"/><path d="M-445.2 501l3.5 8.7-13.5-4z" fill="#ce8a14"/><path d="M-449.9 492.2l5.2 8.9 7.5-4.6z" fill="#f2cc00"/><path d="M-450 492l-5 13.5 10.2-4.5z" fill="#e9c002"/><path d="M-391.2 527.6l-1.7-4.6 3.5-.6z" fill="#d0a609"/><path d="M-392.8 523.1l1.4 4-1.7 3.2-10.3-4.9z" fill="#ce8a14"/><path d="M-397.9 513.4l5.1 9.9 3.8-1.4 1.2-3.2z" fill="#f2cc00"/><path d="M-398 513.2l-5.2 12.2 10.4-2.2z" fill="#e9c002"/><g><path d="M-397.5 512.1l-3.6-9 7.6-3.7z" fill="#d0a609"/><path d="M-401.4 503.2l3.8 9-13.8-5.2z" fill="#ce8a14"/><path d="M-406.5 494.1l5.5 9.3 7.5-3.9z" fill="#f2cc00"/><path d="M-406.6 494l-4.7 12.9 10.3-3.6z" fill="#e9c002"/></g><g><path d="M-410.8 505.5l-3.3-9 7.7-4z" fill="#d0a609"/><path d="M-414.4 496.6l3.5 9-13.6-5z" fill="#ce8a14"/><path d="M-419.1 487.5l5.1 9.2 7.6-4z" fill="#f2cc00"/><path d="M-419.2 487.3l-5.1 13.1 10.3-3.8z" fill="#e9c002"/></g><g><path d="M-424.3 500l-3.3-8.8 7.6-4.5z" fill="#d0a609"/><path d="M-428 491.3l3.6 8.8-13.6-4.2z" fill="#ce8a14"/><path d="M-432.6 482.5l5.1 8.9 7.6-4.6z" fill="#f2cc00"/><path d="M-432.7 482.4l-5.1 13.4 10.3-4.5z" fill="#e9c002"/></g><g><path d="M-437.8 495.5l-3.3-8.8 7.6-4.5z" fill="#d0a609"/><path d="M-441.4 486.8l3.5 8.8-13.6-4.2z" fill="#ce8a14"/><path d="M-446.1 478l5.1 8.9 7.6-4.6z" fill="#f2cc00"/><path d="M-446.2 477.9l-5.1 13.4 10.3-4.5z" fill="#e9c002"/></g><g><path d="M-386.6 511.3v3l-1.2 4.2-10.2-5z" fill="#ce8a14"/><path d="M-392.5 501.5l5 9.9h1.3l.9-6.4z" fill="#f2cc00"/><path d="M-392.6 501.3l-5.2 12.1 10.4-2.1z" fill="#e9c002"/></g><g><path d="M-393 500l-2.5-9.4 8-2.8z" fill="#d0a609"/><path d="M-395.9 490.7l2.9 9.4-13.2-6.8z" fill="#ce8a14"/><path d="M-399.9 481l4.5 9.9 7.8-3z" fill="#f2cc00"/><path d="M-400 481l-6 12.2 10.5-2.4z" fill="#e9c002"/></g><g><path d="M-405.8 492.6l-3.2-9 7.6-4z" fill="#d0a609"/><path d="M-409.4 483.7l3.5 9-13.5-5z" fill="#ce8a14"/><path d="M-414 474.6l5 9.2 7.6-4z" fill="#f2cc00"/><path d="M-414.2 474.4l-5 13.1 10.2-3.8z" fill="#e9c002"/></g><g><path d="M-419 486.3l-3.2-8.8 7.6-4.5z" fill="#d0a609"/><path d="M-422.6 477.6l3.6 8.8-13.6-4.2z" fill="#ce8a14"/><path d="M-427.2 468.8l5.1 8.9 7.5-4.6z" fill="#f2cc00"/><path d="M-427.3 468.7l-5.1 13.4 10.3-4.5z" fill="#e9c002"/></g><g><path d="M-432.4 481.7l-3.2-8.8 7.6-4.5z" fill="#d0a609"/><path d="M-436 473l3.6 8.8-13.6-4.1z" fill="#ce8a14"/><path d="M-440.7 464.2l5.2 9 7.5-4.7z" fill="#f2cc00"/><path d="M-440.8 464l-5 13.6 10.2-4.6z" fill="#e9c002"/></g><g><path d="M-385.4 499v6l-7.8-4.2z" fill="#ce8a14"/><path d="M-387.5 487.7l-5.6 13 7.7-1.4c.4-5.4-.8-8.7-2.1-11.6z" fill="#e9c002"/></g><g><path d="M-391.4 477.8l3.9 10-14-6.8z" fill="#ce8a14"/><path d="M-398.4 468l-3 13 9.8-3.2z" fill="#e9c002"/></g><g><path d="M-401.6 479.7l-3.6-9.8 7-2z" fill="#d0a609"/><path d="M-405.5 470l4 10-13.2-5.6z" fill="#ce8a14"/><path d="M-410.3 459l5.3 11.2 6.5-2.3z" fill="#f2cc00"/><path d="M-410.4 459l-4.4 15.4 9.7-4.3z" fill="#e9c002"/></g><g><path d="M-414 472.3l-4.1-8.5 7.2-5z" fill="#d0a609"/><path d="M-418.4 464l4.2 8.4-13.8-2.9z" fill="#ce8a14"/><path d="M-424.5 454.3l6.5 9.8 7.2-5.2c-4.5-1.5-8-5-13.7-4.6z" fill="#f2cc00"/><path d="M-424.4 454.3l-3.5 15 9.9-5.3z" fill="#e9c002"/></g><g><path d="M-427.6 468.7l-4.2-8.4 7.4-6.2z" fill="#d0a609"/><path d="M-432 460.5l4.6 8.2-14-2.2z" fill="#ce8a14"/><path d="M-438 452.5l6.4 8 7.4-6.6c-4.5-1.6-9.2-1.3-13.8-1.4z" fill="#f2cc00"/><path d="M-438.1 452.3l-3.1 14 9.5-5.8z" fill="#e9c002"/></g><path d="M-413.2 556.4c7.4-11.3 18.7-21.1 23.1-31.7 15.7-38.2-8.8-74.5-51.5-72.5-8.6 15.1-26.8 70.3-41.3 83.2-2 1.8 1 5.4 0 6.5 20.4 8.3 74.5 26.2 69.7 14.5z" fill="none" stroke="#000" stroke-width="1"/></g><g stroke-width=".5"><path d="M-567 556.4c-7.4-11.3-18.8-21.1-23.2-31.7-15.7-38.2 8.8-74.5 51.6-72.5 8.5 15.2 27 66 40.7 83.9 1.5 2-.4 4.8.5 5.8-20.3 8.3-74.5 26.2-69.7 14.5z" fill="#d59b11"/><path d="M-576.5 525.6l2.6-9.4-8-2.8z" fill="#d0a609"/><path d="M-573.6 516.3l-2.8 9.4 13.1-6.8z" fill="#ce8a14"/><path d="M-569.6 506.7l-4.4 9.8-7.9-3z" fill="#f2cc00"/><path d="M-569.5 506.5l6 12.3-10.5-2.4z" fill="#e9c002"/><path d="M-564.7 519.1l3.2-9-7.6-3.9z" fill="#d0a609"/><path d="M-561.1 510.2l-3.6 9 13.6-5z" fill="#ce8a14"/><path d="M-556.5 501.1l-5 9.3-7.6-4.1z" fill="#f2cc00"/><path d="M-556.4 501l5.1 13-10.3-3.7z" fill="#e9c002"/><path d="M-551.8 513.9l3.2-8.8-7.6-4.5z" fill="#d0a609"/><path d="M-548.2 505.2l-3.6 8.8 13.6-4.2z" fill="#ce8a14"/><path d="M-543.6 496.4l-5 8.9-7.6-4.6z" fill="#f2cc00"/><path d="M-543.5 496.3l5.1 13.4-10.3-4.5z" fill="#e9c002"/><path d="M-538.7 509.6l3.3-8.8-7.7-4.4z" fill="#d0a609"/><path d="M-535 501l-3.6 8.7 13.5-4z" fill="#ce8a14"/><path d="M-530.4 492.2l-5.1 8.9-7.6-4.6z" fill="#f2cc00"/><path d="M-530.3 492l5 13.5-10.2-4.5z" fill="#e9c002"/><path d="M-589 527.6l1.6-4.6-3.5-.6z" fill="#d0a609"/><path d="M-587.4 523.1l-1.5 4 1.7 3.2 10.3-4.9z" fill="#ce8a14"/><path d="M-582.4 513.4l-5.1 9.9-3.8-1.4-1.1-3.2z" fill="#f2cc00"/><path d="M-582.3 513.2l5.3 12.2-10.5-2.2z" fill="#e9c002"/><g><path d="M-582.8 512.1l3.6-9-7.6-3.7z" fill="#d0a609"/><path d="M-578.8 503.2l-4 9 14-5.2z" fill="#ce8a14"/><path d="M-573.8 494.1l-5.5 9.3-7.5-3.9z" fill="#f2cc00"/><path d="M-573.7 494l4.7 12.9-10.3-3.6z" fill="#e9c002"/></g><g><path d="M-569.5 505.5l3.3-9-7.6-4z" fill="#d0a609"/><path d="M-565.8 496.6l-3.6 9 13.6-5z" fill="#ce8a14"/><path d="M-561.2 487.5l-5.1 9.2-7.6-4z" fill="#f2cc00"/><path d="M-561 487.3l5 13.1-10.3-3.8z" fill="#e9c002"/></g><g><path d="M-556 500l3.3-8.8-7.6-4.5z" fill="#d0a609"/><path d="M-552.3 491.3l-3.5 8.8 13.5-4.2z" fill="#ce8a14"/><path d="M-547.6 482.5l-5.2 8.9-7.5-4.6z" fill="#f2cc00"/><path d="M-547.5 482.4l5 13.4-10.2-4.5z" fill="#e9c002"/></g><g><path d="M-542.4 495.5l3.2-8.8-7.6-4.5z" fill="#d0a609"/><path d="M-538.8 486.8l-3.5 8.8 13.5-4.2z" fill="#ce8a14"/><path d="M-534.1 478l-5.2 8.9-7.5-4.6z" fill="#f2cc00"/><path d="M-534 477.9l5 13.4-10.2-4.5z" fill="#e9c002"/></g><g><path d="M-593.7 511.3v3l1.3 4.2 10.1-5z" fill="#ce8a14"/><path d="M-587.8 501.5l-5 9.9h-1.2l-1-6.4z" fill="#f2cc00"/><path d="M-587.7 501.3l5.3 12.1-10.5-2.1z" fill="#e9c002"/></g><g><path d="M-587.3 500l2.5-9.4-8-2.8z" fill="#d0a609"/><path d="M-584.4 490.7l-2.8 9.4 13.1-6.8z" fill="#ce8a14"/><path d="M-580.4 481l-4.4 9.9-8-3z" fill="#f2cc00"/><path d="M-580.3 481l6 12.2-10.5-2.4z" fill="#e9c002"/></g><g><path d="M-574.5 492.6l3.3-9-7.7-4z" fill="#d0a609"/><path d="M-570.9 483.7l-3.5 9 13.6-5z" fill="#ce8a14"/><path d="M-566.2 474.6l-5.1 9.2-7.6-4z" fill="#f2cc00"/><path d="M-566.1 474.4l5 13.1-10.2-3.8z" fill="#e9c002"/></g><g><path d="M-561.3 486.3l3.2-8.8-7.6-4.5z" fill="#d0a609"/><path d="M-557.7 477.6l-3.5 8.8 13.5-4.2z" fill="#ce8a14"/><path d="M-553 468.8l-5.2 8.9-7.5-4.6z" fill="#f2cc00"/><path d="M-553 468.7l5.2 13.4-10.3-4.5z" fill="#e9c002"/></g><g><path d="M-548 481.7l3.4-8.8-7.7-4.5z" fill="#d0a609"/><path d="M-544.3 473l-3.5 8.8 13.5-4.1z" fill="#ce8a14"/><path d="M-539.6 464.2l-5.2 9-7.5-4.7z" fill="#f2cc00"/><path d="M-539.5 464l5 13.6-10.2-4.6z" fill="#e9c002"/></g><g><path d="M-594.9 499v6l7.9-4.2z" fill="#ce8a14"/><path d="M-592.8 487.7l5.6 13-7.7-1.4c-.4-5.4.9-8.7 2.1-11.6z" fill="#e9c002"/></g><g><path d="M-589 477.8l-3.7 10 14-6.8z" fill="#ce8a14"/><path d="M-581.9 468l3 13-9.8-3.2z" fill="#e9c002"/></g><g><path d="M-578.6 479.7l3.5-9.8-7-2z" fill="#d0a609"/><path d="M-574.8 470l-4 10 13.2-5.6z" fill="#ce8a14"/><path d="M-570 459l-5.2 11.2-6.6-2.3z" fill="#f2cc00"/><path d="M-569.9 459l4.4 15.4-9.7-4.3z" fill="#e9c002"/></g><g><path d="M-566.2 472.3l4-8.5-7.2-5z" fill="#d0a609"/><path d="M-561.8 464l-4.3 8.4 13.9-2.9z" fill="#ce8a14"/><path d="M-555.8 454.3l-6.5 9.8-7.1-5.2c4.4-1.5 8-5 13.6-4.6z" fill="#f2cc00"/><path d="M-555.9 454.3l3.5 15-9.9-5.3z" fill="#e9c002"/></g><g><path d="M-552.7 468.7l4.2-8.4-7.4-6.2z" fill="#d0a609"/><path d="M-548.2 460.5l-4.7 8.2 14-2.2z" fill="#ce8a14"/><path d="M-542.3 452.5l-6.3 8-7.4-6.6c4.5-1.6 9.1-1.3 13.7-1.4z" fill="#f2cc00"/><path d="M-542.2 452.3l3.1 14-9.5-5.8z" fill="#e9c002"/></g><path d="M-567 556.4c-7.4-11.3-18.8-21.1-23.2-31.7-15.7-38.2 8.8-74.5 51.6-72.5 8.6 15.2 24.4 67 41.3 84.2 1.8 1.7-1 4.5-.1 5.5-20.3 8.3-74.5 26.2-69.7 14.5z" fill="none" stroke="#000" stroke-width="1"/></g><g stroke-width="1" stroke="#000"><path d="M-541.2 447.5c1.3-3.9 13.2-6.6 19.5 0-14 3.6 18.6 84.5 26.2 85.8-.6 2.9-1.7 3.7-3.7 3-23.2-9.4-43.8-74.3-42-88.8z" fill="#d59b11"/><g transform="matrix(-1 0 0 1 -983.3 0)" fill="#fff"><circle r="3.7" cy="432.8" cx="-342" transform="translate(-125 75.6)"/><circle r="4.2" cy="425.6" cx="-338.4" transform="translate(-125 75.6)"/><circle r="4.6" cy="417.4" cx="-335.2" transform="translate(-125 75.6)"/><circle r="5" cy="408.2" cx="-332" transform="translate(-125 75.6)"/><circle r="5.2" cy="398.2" cx="-329.4" transform="translate(-125 75.6)"/><circle r="6" cy="387.1" cx="-326.3" transform="translate(-125 75.6)"/><circle r="6.8" cy="375.3" cx="-325.2" transform="translate(-125 74.7)"/></g><path d="M-497.6 499.1c1.5-17.7-6.8-54.9-11.8-52.6.7-2.2 3.2-3.7 6-2.3 1.5.9 10.9 41.1 8.5 54.5-.1 1-2 .1-2.7.4z" fill="#f2cc00"/></g><g stroke-width="1" stroke="#000"><path d="M-439 447.5c-1.4-3.9-13.3-6.6-19.6 0 14 3.6-18.7 84.2-26.3 85.5.5 3 1.8 4 3.9 3.2 23.2-9.3 43.7-74.2 42-88.7z" fill="#d59b11"/><g transform="translate(3)" fill="#fff"><circle r="3.7" cy="432.8" cx="-342" transform="translate(-125 75.6)"/><circle r="4.2" cy="425.6" cx="-338.4" transform="translate(-125 75.6)"/><circle r="4.6" cy="417.4" cx="-335.2" transform="translate(-125 75.6)"/><circle r="5" cy="408.2" cx="-332" transform="translate(-125 75.6)"/><circle r="5.2" cy="398.2" cx="-329.4" transform="translate(-125 75.6)"/><circle r="6" cy="387.1" cx="-326.3" transform="translate(-125 75.6)"/><circle r="6.8" cy="375.3" cx="-325.2" transform="translate(-125 74.7)"/></g><path d="M-482.3 499.1c-1.5-17.7 6.8-54.9 11.8-52.6-.8-2.2-3.2-3.7-6-2.3-1.5.9-10.9 41.1-8.6 54.5.2 1 2 .1 2.8.4z" fill="#f2cc00"/></g><path d="M-490 489.9c-4.5 2.4-3.2 4.6-4.1 7.3-1-.7-7.3-2-8.8 5.7 9.5-.4 7 8 6.8 8.2-2 3.9-9.6 1-7.5-5-1.5.2-9.1.5-5.3 9-4.2.3-10.7 7.8-.3 9.7-.3 1.1-.7 10.7 7 7.5-1.2-1.7-.6-10.1 4.4-7.8 7.8 3.7-.7 14-7.8 16.3-7 2.1-36 1.7-27.9-11.3 3.4-3.4 6.4 3.1 6.4 5.6 0 1 6.5-1 3.6-8.5 11-4.2 3.6-9 .3-9 2-4-3.4-8.8-7.5-6.5.9.9 1.6 9.6-6 5.8-.9-.5-4-8.8 3.7-6.9-.3-6-2.5-5.5-8.4-5-.7-8-12.2-6.2-8.6 2.3-5.8.3-8.2 3.4-5.8 7.7 2-.3 8-.7 6.3 4.4-1.7 5.6-6.9 1.3-7.7-1.6-4.5-.3-5.5 6.5-3 8.5-6.8 3.6-2.8 9.8 3.6 8.3-2.4 5.8 5.2 8.3 6.6 6-2-2.6-.7-8.9 3.3-7.8 9.2 2.6-3.6 16.7-9.8 17.9-4 .7-23.2-1.5-17.3-7.5 2.2-2.1 4.3.2 6.4 3 3.4-2.5 1.8-6.5-2.4-7.2 7.4-2.5 3.2-10.2-2.4-6.7-.8-2-2.6-7.3-7.7-5 .9.7 3.2 7-2.4 6.8-1 0-6.4-5.9-.2-7.3-1-4.4-6.5-2.3-7.2-2.5-.4-2-8.4-6-10.5 1.7 3.2-1.6 7.3 1.4 8.5 10.6 2.1 16.2 23.8 6.8 25 24.3l1.7-.7c18.3-6.6 75-13.8 75-14 .1.2 56.8 7.4 75 14l1.8.7c1.2-17.5 22.8-8.1 25-24.3 1.1-9.2 5.2-12.2 8.4-10.6-2.1-7.7-10-3.6-10.4-1.7-.8.2-6.3-2-7.2 2.5 6.2 1.4.9 7.2-.2 7.3-5.7.2-3.3-6-2.4-6.9-5.2-2.2-7 3.2-7.7 5.1-5.6-3.5-9.8 4.2-2.5 6.7-4.2.7-5.7 4.7-2.3 7.3 2-3 4.2-5.2 6.4-3 6 5.9-13.3 8.1-17.4 7.4-6.2-1.2-19-15.3-9.8-17.9 4-1 5.4 5.2 3.4 7.8 1.4 2.3 9-.2 6.6-6 6.3 1.5 10.4-4.7 3.7-8.3 2.4-2 1.3-8.8-3.1-8.5-.9 3-6 7.2-7.7 1.6-1.6-5 4.2-4.7 6.3-4.4 2.4-4.3 0-7.4-5.9-7.7 3.7-8.5-7.9-10.4-8.5-2.3-6-.5-8.1-1-8.4 5 7.7-2 4.6 6.4 3.6 6.9-7.5 3.8-6.8-5-6-5.8-4-2.3-9.4 2.5-7.4 6.6-3.4 0-10.8 4.7.3 9-3 7.3 3.6 9.5 3.6 8.4 0-2.5 3-9 6.4-5.6 8 13-20.9 13.4-28 11.3-7-2.4-15.6-12.6-7.7-16.3 5-2.3 5.6 6.1 4.5 7.8 7.6 3.2 7.2-6.4 6.9-7.5 10.4-1.9 3.9-9.4-.4-9.7 3.8-8.5-3.7-8.8-5.2-9 2.1 6-5.6 8.9-7.5 5-.2-.3-2.7-8.6 6.8-8.2-1.5-7.8-7.9-6.4-8.8-5.7-1-2.7.3-5-4.2-7.3z" fill="#f3cd00" stroke="#000"/><g stroke-width=".5" fill="#f2cc00" stroke="#000"><g stroke-width="1"><path d="M-490 545c-39.8 0-66 8.4-76 14a33.8 33.8 0 00-.3 21.8c7.2-1.5 21.6-13.7 76.3-13.7 54.7 0 69.1 12.2 76.4 13.7 1.4-2.3 3-14.5-.3-21.7-10-5.7-36.3-14.1-76-14.1z"/><path d="M-490 565.5c-54.6 0-85.6 16.8-77.8 16.8 7.8 0 23.1-12.7 77.8-12.7 54.7 0 70 12.7 77.9 12.7 7.7 0-23.2-16.8-77.9-16.8zM-490 543.3c-54.6 0-85.6 16.8-77.8 16.8 7.8 0 23.1-12.8 77.8-12.8 54.7 0 70 12.8 77.9 12.8 7.7 0-23.2-16.8-77.9-16.8z"/></g><circle r="3.5" cy="489.6" cx="-305.5" transform="translate(-125 75.6)" stroke-width="1"/><circle r="3.5" cy="489.6" cx="-305.5" transform="translate(-164 68.2)" stroke-width="1"/><path d="M-425 568s14.7 10.2 14.7 6.5v-9.1c0-2.4-9.4 1.4-14.7 2.5z" stroke-width="1"/><path transform="matrix(.96757 -.25262 .83015 .55754 0 0)" stroke-width="1.1" d="M-963.3 565h13.8v13.8h-13.8z"/><g transform="matrix(-1 0 0 1 -981.2 0)"><circle r="3.5" cy="489.6" cx="-305.5" transform="translate(-125 75.6)" stroke-width="1"/><circle r="3.5" cy="489.6" cx="-305.5" transform="translate(-164 68.2)" stroke-width="1"/><path d="M-425 568s14.7 10.2 14.7 6.5v-9.1c0-2.4-9.4 1.4-14.7 2.5z" stroke-width="1"/><path transform="matrix(.96757 -.25262 .83015 .55754 0 0)" stroke-width="1.1" d="M-963.3 565h13.8v13.8h-13.8z"/></g></g><g fill="#fff" stroke="#000"><g stroke-width="1"><ellipse ry="6.7" rx="3.4" cy="465.1" cx="-269.9" transform="rotate(39.6 -438 331.7)"/><ellipse ry="6.9" rx="4.4" cy="449.9" cx="-313.1" transform="rotate(9 -858 -310)"/></g><g transform="matrix(-1 0 0 1 -980.6 0)" stroke-width="1"><ellipse ry="6.7" rx="3.4" cy="465.1" cx="-269.9" transform="rotate(39.6 -438 331.7)"/><ellipse ry="6.9" rx="4.4" cy="449.9" cx="-313.1" transform="rotate(9 -858 -310)"/></g><ellipse ry="7.3" rx="4.5" cy="442.7" cx="-364.9" transform="translate(-125 75.6)"/></g></g><path transform="scale(.49269 .20527) rotate(-45 -738.3 -1698.9)" fill="#f2cc00" stroke="#000" stroke-width="1.2" d="M-1261.6 717.3h13.5v13.5h-13.5z"/></svg>