<svg xmlns="http://www.w3.org/2000/svg" width="600" height="400" version="1.0"><defs><clipPath clipPathUnits="userSpaceOnUse" id="g"><path d="M28.3 362.6c-8.6-64.8 102.2-75 127.3-76.8 51.7-4.5 89.6 7.1 79.8 74.8-62.6 80.1-137.3 11-207.1 2z" fill="none" stroke="#000" stroke-width="4" stroke-linejoin="round"/></clipPath><clipPath clipPathUnits="userSpaceOnUse" id="n"><path d="M319.2 557.6c6.4-45.2 14-90.6-24.2-125.3-46.8 9.5-280.8 4.4-269.7 120.2z" fill="none" stroke="#000" stroke-width="4" stroke-linejoin="round"/></clipPath><clipPath clipPathUnits="userSpaceOnUse" id="l"><path d="M287.9 460.6c6.4-45.2-7.3-85.5-52.5-110.1C188.6 360 92 387.2 106 480.8z" fill="none" stroke="#000" stroke-width="4" stroke-linejoin="round"/></clipPath><clipPath clipPathUnits="userSpaceOnUse" id="k"><path d="M297.3 187.6c6.4-45.1-7.3-85.5-52.5-110C198 87 101.4 114.2 115.5 207.7z" fill="none" stroke="#000" stroke-width="4" stroke-linejoin="round"/></clipPath><clipPath clipPathUnits="userSpaceOnUse" id="j"><path d="M187.9 393C150 331-12 330.3-31.3 388.8c-1.2 97.8 1.5 193.6 111.1 233.3z" fill="none" stroke="#000" stroke-width="4" stroke-linejoin="round"/></clipPath><clipPath clipPathUnits="userSpaceOnUse" id="i"><path d="M187.9 393C150 331-12 330.3-31.3 388.8c-1.2 97.8 1.5 193.6 111.1 233.3z" fill="none" stroke="#000" stroke-width="4" stroke-linejoin="round"/></clipPath><clipPath clipPathUnits="userSpaceOnUse" id="h"><path d="M28.3 362.6c-8.6-64.8 102.2-75 127.3-76.8 51.7-4.5 89.6 7.1 79.8 74.8-62.6 80.1-137.3 11-207.1 2z" fill="none" stroke="#000" stroke-width="4" stroke-linejoin="round"/></clipPath><clipPath clipPathUnits="userSpaceOnUse" id="m"><path d="M319.2 557.6c6.4-45.2 14-90.6-24.2-125.3-46.8 9.5-280.8 4.4-269.7 120.2z" fill="none" stroke="#000" stroke-width="4" stroke-linejoin="round"/></clipPath><clipPath clipPathUnits="userSpaceOnUse" id="f"><path d="M95 310c-36-44.7-74.6-37-113.2-32.2-9.1 65.3-3.5 116.4 51.5 120.2z" fill="none" stroke="#000" stroke-width="4" stroke-linejoin="round"/></clipPath><clipPath clipPathUnits="userSpaceOnUse" id="e"><path d="M95 310c-36-44.7-74.6-37-113.2-32.2-9.1 65.3-3.5 116.4 51.5 120.2z" fill="none" stroke="#000" stroke-width="4" stroke-linejoin="round"/></clipPath><clipPath clipPathUnits="userSpaceOnUse" id="c"><path d="M-17.2 148.5C18.6 99 86.8 137.7 95 168.7c16 31.3 11 98.1 47.4 137.3l-178.8 40.5z" fill="none" stroke="#000" stroke-width="4" stroke-linejoin="round"/></clipPath><clipPath clipPathUnits="userSpaceOnUse" id="a"><path d="M-17.2 148.5C18.6 99 86.8 137.7 95 168.7c16 31.3 11 98.1 47.4 137.3l-178.8 40.5z" fill="none" stroke="#000" stroke-width="4" stroke-linejoin="round"/></clipPath><clipPath clipPathUnits="userSpaceOnUse" id="d"><path d="M193.8.6c.2-17-11.7-48.8-23.5-49.2C115.5-45.6 86-132 82-150.4c-.3-13-3.6-23.7-12.6-30.2 1.7-17.8 21.7-31 32.2-29.8 5 10 15.2 14.9 27.8 17.2 17.5 6.7 98.5 49 87.2 102.8-1.5 11.7 28.1 28.3 45 30.8-34.3 10.3-56.4 30.8-67.8 60.2z" fill="none" stroke="#000" stroke-width="4" stroke-linejoin="round"/></clipPath><clipPath clipPathUnits="userSpaceOnUse" id="b"><path d="M184.4 273.6c.1-17-11.7-48.8-23.5-49.2-54.9 3-84.4-83.6-88.3-101.9-.4-12.8-3.6-23.6-12.7-30.1 1.8-17.8 21.8-31 32.2-29.8 5.1 10 15.2 14.8 27.9 17.2 17.5 6.7 98.5 49 87.1 102.8-1.4 11.7 28.2 28.3 45 30.7-34.3 10.4-56.3 30.9-67.7 60.3z" fill="none" stroke="#000" stroke-width="4" stroke-linejoin="round"/></clipPath></defs><path fill="#da251d" d="M0 0h600v400H0z"/><path d="M202 174.7c7.7 10.2-24 52-54.1 46-12.2-35 13.2-63.3 54.1-46z" fill="#fff" stroke="#000" stroke-width="2.9" stroke-linejoin="round"/><path transform="matrix(.73606 0 0 .73606 7.5 12.2)" clip-path="url(#a)" fill="#ffd400" d="M-20.7 108.3H140v203.6H-20.7z"/><path transform="matrix(.73606 0 0 .73606 7.5 12.2)" clip-path="url(#b)" fill="#fff" d="M35.7 53.3h225v237.9h-225z"/><path d="M110.7 208c-12.5-15-57.6-99-116.4-60.7-9.2-46.8 38-30.3 64-37.5 29 28.5 55.2 60.3 52.4 98.2z" transform="matrix(.73606 0 0 .73606 7.5 12.2)" clip-path="url(#c)" fill="#f19e29"/><path d="M-5.1 121.5c26.3-36.4 76.6-8 82.5 14.8 11.8 23 8.2 72.3 35 101.2l-131.7 29.7z" fill="none" stroke="#000" stroke-width="2.9" stroke-linejoin="round"/><path d="M192.3 6c12.6-22.5-.5-57.7-10-67.8-9.2-10-38-6.7-50-21.4-24.6-25.4-37-67.6-47.5-88.2a24.4 24.4 0 00-13.2-16.8l-7.9 40.7c19.4 76 78.8 109.7 128.6 153.6z" clip-path="url(#d)" transform="matrix(.73606 0 0 .73606 .6 213.1)" fill="#ccc"/><path transform="matrix(.73606 0 0 .73606 7.5 12.2)" clip-path="url(#e)" fill="#ffd400" d="M-22.2 260.6H82.9v114.1H-22.2z"/><path d="M81.8 318.2c-18.3-30-75.4-34-87.9-27.8-12-25.9 20.9-27.5 41.5-35.9 76 12.4 48.7 39.9 46.4 63.7z" transform="matrix(.73606 0 0 .73606 7.5 12.2)" clip-path="url(#f)" fill="#f19e29"/><path d="M77.4 240.4c-26.4-33-55-27.3-83.3-23.8-6.7 48.1-2.6 85.8 38 88.5z" fill="none" stroke="#000" stroke-width="2.9" stroke-linejoin="round"/><path transform="matrix(.73606 0 0 .73606 7.5 12.2)" clip-path="url(#g)" fill="#ffd400" d="M15.7 255.5h230.7v136.4H15.7z"/><path d="M237.5 303.3c-43.9-10.6-208.8-14.2-196.8 75C-5.8 354.1 24 322.2 30 292.6c72.6-8 154-39 207.5 10.7z" transform="matrix(.73606 0 0 .73606 7.5 12.2)" clip-path="url(#h)" fill="#f19e29"/><path d="M28.3 279.1C22 231.4 103.6 224 122 222.6c38-3.4 66 5.2 58.8 55-46.1 59-101 8-152.5 1.5z" fill="none" stroke="#000" stroke-width="2.9" stroke-linejoin="round"/><path transform="matrix(.73606 0 0 .73606 7.5 12.2)" clip-path="url(#i)" fill="#ffd400" d="M-37.4 313.1h206.1v239.4H-37.4z"/><path d="M170.7 388.9c-38.7-42.3-154.8-42.2-197 10-3.5-80 67.3-64.6 122.3-69.6 60.6 6 86.8 25.3 74.7 59.6z" transform="matrix(.73606 0 0 .73606 7.5 12.2)" clip-path="url(#j)" fill="#f19e29"/><path d="M56.8 266.7c-33.9.2-65.4 10.9-72.3 31.7-.5 36.7-.2 73 10.9 103.6h103l47.4-100.6c-14.4-23.5-53-35-89-34.7z" fill="none" stroke="#000" stroke-width="2.9" stroke-linejoin="round"/><path clip-path="url(#k)" transform="matrix(.73606 0 0 .73606 .6 213.1)" fill="#ffd400" d="M101.4 60.4h212.1V217H101.4z"/><path d="M248 352.5c-78.3 23.2-143.6 53-128.8 112.1l-55.6-1C96.1 386 172.5 317.8 248 352.6z" transform="matrix(.73606 0 0 .73606 7.5 12.2)" clip-path="url(#l)" fill="#f19e29"/><path d="M219.4 351.2c4.7-33.2-5.4-63-38.6-81-34.5 7-105.6 27-95.2 95.9z" fill="none" stroke="#000" stroke-width="2.9" stroke-linejoin="round"/><path transform="matrix(.73606 0 0 .73606 7.5 12.2)" clip-path="url(#m)" fill="#ffd400" d="M15.7 409h325v143.6h-325z"/><path d="M124.2 176c8.1-13.6 17.5-26 35.3-30" fill="none" stroke="#000" stroke-width="2.9" stroke-linejoin="round"/><path d="M51.1 80.1c-6.4 5.4-22.3-3.1-16.8-14.5a49.4 49.4 0 0132.4-25.2C76 38 86.5 53.2 75.6 58.3" fill="#fff" stroke="#000" stroke-width="2.9" stroke-linejoin="round"/><path d="M37.2 77.7c7.7-16.6 21.8-27 40-33" fill="none" stroke="#000" stroke-width="2.9" stroke-linejoin="round"/><path d="M183 183.2c35.6 25.3 104.7 57.7 102.6 119.7 17.9 24.5 32.9 49 40.9 73.6 4.4 14.9 20.3 29.8 34.2 44.6l-112.3-6.7c30.7-55.2-36.5-145.5-49-156.9-16-14.9-29.9-34-44-52.7z" fill="#fff" stroke="#000" stroke-width="2.9" stroke-linejoin="round"/><path d="M50 559.6C17.6 446.6 277.5 442.5 314.7 448L302 417.7c-107.4 27.6-272-7.1-284.8 123.7z" transform="matrix(.73606 0 0 .73606 7.5 12.2)" clip-path="url(#n)" fill="#f19e29"/><path d="M242.5 422.6c4.7-33.2 10.2-66.7-17.9-92.2-34.4 7-206.7 3.3-198.5 88.5zM303 405.3c-19.7-10.6-32.2-27.3-42-46.3M255.7 347c-2.8-43.8-34.2-70.4-56.3-102.6M168.4 201.3c14.4 20 30.7 37.8 52 49.4 19.4 9.3 41.7 28 59 47.9M220.4 258c35.3 25.8 55.8 51.6 67.3 77.4 10.8 25.9 26.7 49.2 45.8 71M196.8 218.6c29.5 20.5 62.3 38.9 79.9 67.3M271 267.5c-18.6-32.1-62-48.5-94.2-72M143.2 213.6c.1-12.6-8.6-36-17.3-36.2-40.4 2.1-62-61.5-65-75-.2-9.5-2.6-17.4-9.3-22.2 1.3-13 16-22.8 23.7-22 3.8 7.4 11.2 11 20.5 12.7 12.9 5 72.5 36.1 64.2 75.7-1 8.6 20.7 20.8 33.1 22.6a72.6 72.6 0 00-49.9 44.4z" fill="none" stroke="#000" stroke-width="2.9" stroke-linejoin="round"/><path d="M192.3 169.5c5.6-1.3 12.6 4.6 7.6 6.3-21.3 9.1-39.7 19.9-50 41.5-2.5 5.3-7.9.5-7-3.7 11-25.2 24-34.7 49.4-44.1z" fill="#fff" stroke="#000" stroke-width="2.9" stroke-linejoin="round"/><path d="M148.9 218.7l3.6-5.8M195.5 177.8l5.3-2.5" fill="none" stroke="#fff" stroke-width="3.6" stroke-linejoin="round"/></svg>