<svg xmlns="http://www.w3.org/2000/svg" height="400" width="600"><path fill="#fff" d="M0 0h600v400H0z"/><path d="M349.5 310c3.4 14.8 8.9 16 13.5 10.2 4-5.2 19-19.3-4.4-54.1-4-6-9.7-14.1-5.2-26.1 1.8-4.8 1.2-10-5.2-15.5-5 2-6.6 8.5-4.4 10.9 2 2.3 2.7 3.7-.4 5.5-3.8 2.1-7.4 17.3 1.6 30.5 7 10.5 23.2 48.5 4.5 38.6zm-4-63.4c-9 6 4.2 19.3 8.6 28.2a41 41 0 015 16.4c4.3-2.3 3.5-5.6.7-11.7-10.3-23-14-17.9-14.3-32.9zm37.7 79.5c15.7-4.5 27 1.5 38.4 2.1 21 1 22.8-154.8-19.1-142.3-14.4 4.3-29.6 8.7-37.7 5.9-8-2.9-13-2.5-13.4 5.2-.2 4-2.2 2-5 1-6.8-2.1-12 4.9-2 7.2 6.3 1.4-5.2 10.6-10.8 13-9 3.8-1.8 8.8 2.8 3.2 3.6-4.3 15.2-5.5 19.1 1 4 6.3 3.7 14.6 9.9 20.8 7.1 7.2 11.2 20.2 5.9 12.7-9.5-13.4-19.4-16.3-7.7-2.3 23.4 28 31.6 42.1 30.1 51.2-.9 6-1.4 7 .8 9.5 2.1 2.5 4.7 4.4-1.5 5.5-7.8 1.4-9.3 3.6-9.8 6.3zm-15-163.8c-7.8 2.3-18 12.7-27 8.2-8-4-8.8-7.4-4.8-9.2 4-1.7 1.7-5.8.2-7.8s.7-6.4 2-9c4.2-.7 5.7 2.4 13.3 1.7 6.5-.5 16.4 16.2 16.2 16.1z" fill="#ececec"/><path d="M0 0h600v400H0zm327.9 362.1c37.8 1.1 77.1 1.1 103.5.8-5.7-8-7.3-9.2-13.4-17.7-3.2-4.5 1.1-8.2 3.5-12.1 1.5-2.5.5-6.4 0-8.1-1.5-4.3-4-7.9-5-13.2-1.1-5.4-2.6-7.2-5.8-11.4-3.2-4.3-10-13.3-13.2-18.3-3.2-5-8.4-12-9.8-17-1.4-5-17.5-32.4-25.4-41.7.2-2 1.5-4 2.7-6.3 7.9 1.1 23 3.8 22.9-4.8-7.7-.1-9.3-.8-7.9-5.8-1.8-1.5-6.8-.5-12-3.6 10.4-2.4 19.7 5.7 26 10.8 3.4 3 7.5 2.7 11.2 2.5 8.5-.4 15.4-6.3 10.3-13.5 2.6-5.4 1.4-10-2-11.3-9.2-3.7-20-15.9-31.4-10.3-3.3-3.6 1.3-4.7 3.4-6.3a70.6 70.6 0 0119-8.7c8.2-2.4 24.2-12.3 26.8-12.2 26.6 1.3 29.2-4.8 12.6-4.3.7-1 1.7-1.3 2.9-1.9 2.6-1.4.9-2.6-1.3-2-2.9.6-8 2.1-11.2.4.1-.7.8-2.6 2.4-3.3 4.8-2 5.3-6.3-7.2.2a698 698 0 01-46.5 16.3c-9.2 2.1-27.8 5-34.6 7.7-2.7-1-4.5-2.7-7.7-4.9 3.6-3.2 4.3-5.1 4.1-7.5 2.1-.7 4.3-.5 6.5-1.4.5-3.6 1-7-.2-10.2-3.2.3-6.4-2.1-7.9-3.7a18 18 0 014.4-1.4c-.7-3.5-3.8-6-6.9-6-18.2.2-21.6 9.7-20 15.2.8 2.7-3.7 5.6 4.1 12 2.7 2.2 2 5.7.6 10.4-16.4 1.5-29.6-20-36.3-31.1 8 1.8 10 1.4 10.4-.5 1-3.3-3.1-4.7-10-8.4 20.5-58.3 33.9-95.8 30.3-101.3-7.5 1-17.8 41.4-38.6 99.1-8.7-.9-11.4-.7-11.9 2.3-.2 1.8 2.5 4.7 6.4 5.6-.9 4.4-.5 6.6.6 12-3 8.3 6 9.8 7 1.2.9 1.1 2.1 3 2.8 5.3 3 10.8 10.7 20 21.4 29.2 1.8 5.3 4.6 12.3 4.6 15.7 0 4.3-.3 9.4-.3 12.8 0 3.4-2 7.6-.4 13.2 4.6 15.7 9.8 22.2 10.6 27.9.7 5.7 13.2 32.1 14.2 36.6 1.1 4.5 4 12.9 4.9 19.8.9 7 4 35.6.1 39.5L328 362z" fill="#fe0000"/><path fill="#000184" d="M34.4 0h34.4v400H34.4zM103.2 0h34.4v400h-34.4z"/></svg>