<svg xmlns="http://www.w3.org/2000/svg" id="svg64" fill-rule="evenodd" clip-rule="evenodd" image-rendering="optimizeQuality" shape-rendering="geometricPrecision" text-rendering="geometricPrecision" version="1.0" viewBox="0 0 600 400" xml:space="preserve"><defs id="defs4"><style id="style2" type="text/css">.fil2{fill:#fff500}.fil0{fill:#d52b1e}.fil3{fill:#000}.fil4{fill:#fff}</style></defs><path id="rect6" stroke-width=".1" d="M0 0h600v400H0z" class="fil0"/><path id="rect8" fill="#2aa6fe" stroke-width=".1" d="M0 0h75v400H0z"/><path id="path10" stroke-width=".1" d="M11.8 34.6l6.9 7 5.7-5.8L62.3 75c2.8-.7 4.3-1.8 5.2-5l-39-38.3 7.9-7L25 21.5z" class="fil2"/><path id="path12" stroke-width=".1" d="M37.6 15C54.4 21.2 65 35.3 65 45.6c.2 23-24.9 34-41 15.5l-1.1.8.2 2c-4.9-.4-9.3 14.6-14.6 10.4-4.8-6.1 8.5-8.9 9.9-15l1.9.1 1.6-1.7 1.5.2 2-2C41 72.6 61 59.7 58.1 43.1c-2-12.7-10-20-20.7-28.1h.1z" class="fil2"/><path id="path14" stroke-width=".1" d="M314.9 155.1h46.3l1.4-7.7c.3-1.3 2.1-5.3 2.6-7 1.4.6 2.6-1 2.4-2.1-.1-.7 1.2-1.9 2.3-2.2l2.4-.4c-1.4-.8-2.4-1.6-4-1.1l-.3.1c.6-1.4.7-2.3.7-3.8l-.6.1h.1l.4-1 .4-.7c1-1.5.6-2.7.6-3.1 0-.7.8-2.1-.7-4.1l-.4-.6c.1-.6.1-.8 0-1.6-.6-2.1-2.7-3-3-2.9.1-.5-.8-2.1-1.8-2.7l-1.8-.7-.3.1c-1.8-1.7-3.1-2.1-5.6-2.2-.6.2-2-1.9-4.9.4-1.6-1.2-3-1.1-4.8-.8l-1.6 2.1a32.5 32.5 0 00-2.8 6v-4.9h-2.3a4 4 0 002.2-2.6h.1c.1-1.1.1-1.3-.1-2.4l-.1-.1a4 4 0 00-2.5-2.2v-1.4c1.5 0 2.4.7 3.6 1.4v-5.3c-1.1.7-2.2 1.4-3.5 1.4.2-1.2.8-2 1.4-3h-5.3c.7 1 1.2 1.8 1.4 3-1.3 0-2.4-.7-3.4-1.4v5.3c1.1-.7 2-1.4 3.5-1.4v1.3a4.4 4.4 0 00-2.6 2.4 4 4 0 00-.1 2.4 4.1 4.1 0 002.3 2.6h-2.3v4.9c-.8-2-2.3-5.3-3.5-7l-1-1.1c-1.6-.3-3.1-.4-4.7.8-3-2.3-4.3-.2-4.9-.4-1.6 0-3.4.4-4.7 1.4-1.3 1-.4.4-2 .9a4.2 4.2 0 00-2.7 2.7l-.1.5c-.3-.1-2.8.8-3.1 3.6l.1.9c-1 1.3-1.7 2.4-1.2 4.2.3 1 0 .8 0 1.9.2 1.3 1 2 1 2.2l.3.9.2.3h-.5c0 1.6.1 2.2.7 3.7-.5-.4-1.9-.3-2.7 0l-1.6 1c1.7.3 3.3.3 4.4 2 .6.8 0 .5.4 1.5.3.9 1.2 1.7 2.3 1.2.5 1.6 2.3 5.7 2.6 7z" class="fil3"/><path id="path16" stroke-width=".1" d="M351.4 145.6c-4.1-.6-4.4 1.1-.3 1.8 4 .6 4.3-1.2.3-1.8zm-13.3-1.1c4 0 4 1.8 0 1.8-4.2 0-4.2-1.8 0-1.8zm-13.4 1.1c4.1-.6 4.4 1.1.3 1.8-4.1.6-4.3-1.2-.3-1.8zm-10.8 2l7.4-1.8a74 74 0 0121-1.8c7.8.5 12.3 1.7 19.8 3.6l-.6 2.9a77.3 77.3 0 00-47 0zm16-2.5l2.6-.4.2 1.6-2.7.3zm-13 2.3l2.6-.5.3 1.5-2.6.6zm21.1-26.7c1.4 0 1.4 2.1 0 2.1s-1.4-2 0-2zm0-3c1.4 0 1.4 2.1 0 2.1s-1.4-2 0-2zm0-3c1.4 0 1.4 2.1 0 2.1s-1.4-2 0-2zm-11 1c1.4 0 1.4 2 0 2-1.3 0-1.3-2 0-2zm-19.1 15.8c-.1 2 1.1 4.1 2.1 5.4l.7-.8-2.7-4.6zm.8.1l2.4 4 1.2-1.6-.3 2.1 1.6-.6-1.6-3.2zm-1.7-5.2c-.3 1.2 0 2.3.8 3.2l.6 1.4 3.3.6-2.2-4.6zm.7-4.3a3.6 3.6 0 00-.8 3.7l2.4.5zm5 10.4l1.5 2.8 2-.9c-.4-.8-.1-.6-1.8-1.3zm-2.4-5.3l2.1 4.6 3.2 1.1-1.9-4.5zm-2-5.1l1.7 4.4 3.5 1.2-1.5-4.5zm2.2-4.7c-1.6.6-2.5 1.7-2.5 3.5l.1.5 3.7 1-1.3-5zm4 11.4l1.9 4.5 1.2.6 1.3-.5-3-3.1.8-.4zm-1.8-5.4l1.6 4.6 3 1.7h.2c.1-3 .3-1.9-.3-4.2zm-1.5-5.7l1.3 5 4.4 2-1-4.9zm3-3.7a3.7 3.7 0 00-3.2 3l4.7 2.1-.6-4.6zm3.7 12c.3 1.3.1.7 2 2.5l1-.5v-.2zm-1.4-5.8l1.2 5 3.1 1.8-.6-4.8zm-.8-5.5l.7 4.8 3.7 2-.3-4.8zm4.2-2.8c-1.5.1-3 .4-4.4 1.4l.1.7 4.2 2zm1.8 17.2l.5 3 2.6-1.1-3-2.6zm-.9-6.6l.6 5 .2.1h.2v.2a26 26 0 013.6 3l.6-.3c-.4-1.8-.8-3.6-1-5.4zm-.4-5.5l.3 4.8 4.1 2.5a67 67 0 01-.6-5.4zm.1-4.9l-.1 4.2 3.8 2c0-1.5 0-2.9.2-4.3zm4.1 0c-1.1-.9-2.2-1.2-3.7-.5l3.5 1.8.2-1.3zm2.5.5c1.3 0 1.3 2 0 2-1.4 0-1.4-2 0-2zm-.1 6c1.3 0 1.3 2 0 2s-1.3-2 0-2zm.3 3c1.3 0 1.3 2 0 2s-1.3-2 0-2zm.4 3c1.3 0 1.3 2.1 0 2.1s-1.3-2 0-2zm.6 3c1.4 0 1.4 2 0 2-1.3 0-1.3-2 0-2zm5.7-7.7a34 34 0 00-3.8-7.7c-.9 5.4.2 11.3 1.3 16.9l2.8 1zm-4.5-8.1l-1.1.2a49 49 0 001.6 17.4l.9-.2a53.8 53.8 0 01-1.4-17.4zm-3.6.5l-1-.1c-.6 5.3-.3 11.2 1.4 18.1l.9-.5c-1.5-5.8-2-11.7-1.3-17.5zm8.8 2.5h1.3v10.3h-1.4zm-26.8 20.3c.7.6 1.3 1.3 1.7 2.1-.3 0-.6.1-.8.5-.8-1.3-2-2-3.7-2.3.8-.5 1.7-.8 2.8-.3zm2.9 3.3c1 1.5-.7 2.5-1.6 1-1-1.5.7-2.5 1.6-1zm1-3.3l-.3 1.8 1.8-.2-.5 1.6 1.9.4-3.2.9c0-.3.1-.5-.1-1.1l.6-.8-1 .2-.8-.7zm3 .2l4-1.1-.1.8-2 .6.4.3-.6 1.2 1.5-.1-.2.9 1.6-1.1.7.5-3.3 2.3.3-1.8h-1.8l.8-1.6zm7.6-.8c.7 3-2.7 2.9-2.8.3 0-1.7 2-2.4 2.8-.3zm.4-.1c.9 3.6-3.6 3.6-3.6.4-.1-2.1 2.6-3 3.6-.4zm-.8.3c.5 1.7-1.4 2.3-1.9.6-.5-1.7 1.3-2.3 1.8-.6zm-5.4-4.2l1.3-.5.1-2.6 1.8 1.7 1.5-.8-.3 4h-.4l-.1-2.7-.8.4-1-1-.1 1.5-.7.3 1.6 2-.3.4zm10.6 5.3l-4 .4.1-.7 2.2-.3-.4-.4.8-1-1.5-.3.3-.8-1.8.9-.5-.6 3.6-1.8-.6 1.8 1.9.2-1.2 1.5zm0-5.3c1.4 0 1.4 2 0 2-1.2 0-1.2-2 0-2zm1 3c1.4 0 1.4 2 0 2-1.3 0-1.3-2 0-2zm2-3.6l5 1.3v.8l-2.9-.6.6.8-1.1.9 1.3.3-.3 1.1 2.7-.9.5 1-5 1.4.7-2-2.2-.8 2-1.3zm18.9-14.2c-1.4 0-1.4 2 0 2 1.3 0 1.3-2 0-2zm19.1 15.8c.2 2-1.1 4.1-2.1 5.4l-.7-.8 2.7-4.6zm-.8.1l-2.3 4-1.3-1.6.3 2.1-1.6-.6 1.6-3.2zm1.8-5.2c.2 1.2-.1 2.3-1 3.2 0 .2.3 0-.2.8l-.3.5-3.2.7 2-4.6zm-.8-4.3c1 1.3 1.2 2.5.8 3.7l-2.4.5zm-5.1 10.4l-1.4 2.8-2-.9c.4-.8.1-.6 1.7-1.3zm2.5-5.3l-2.1 4.6-3.1 1.1 1.7-4.5zm2-5.1l-1.7 4.4-3.5 1.2 1.5-4.5zm-2.2-4.7c1.6.6 2.5 1.7 2.5 3.5l-.1.5-3.7 1 1.3-5zm-4 11.4l-1.9 4.5-1.1.6-1.4-.5 3-3.1-.8-.4zm1.8-5.4l-1.5 4.6-3.1 1.7h-.2c-.1-3-.3-1.9.3-4.2zm1.5-5.7l-1.3 5-4.5 2 1.1-4.9zm-3-3.7c1.6.3 2.7 1.2 3.2 3l-4.7 2.1.6-4.6zm-3.7 12c-.3 1.3-.1.7-2 2.5l-1-.5v-.2zm1.4-5.8l-1.2 5-3.1 1.8.6-4.8zm.8-5.5l-.7 4.8-3.7 2 .3-4.8zm-4.2-2.8c1.5.1 3 .4 4.3 1.4v.7l-4.2 2zm-1.8 17.2l-.5 3-2.6-1.1 3-2.6zm.9-6.6l-.6 5-.2.1h-.2v.2a26 26 0 00-3.6 3l-.6-.3c.4-1.8.8-3.6 1-5.4zm.4-5.5l-.3 4.8-4.1 2.5c.3-1.8.5-3.6.5-5.4zm-.1-4.9v4.2l-3.7 2c0-1.5 0-2.9-.2-4.3zm-4.1 0c1.1-.9 2.2-1.2 3.7-.5l-3.5 1.8-.2-1.3zm-2.5.5c-1.3 0-1.4 2 0 2s1.4-2 0-2zm.1 6c-1.4 0-1.4 2 0 2 1.3 0 1.3-2 0-2zm-.3 3c-1.4 0-1.4 2 0 2 1.3 0 1.3-2 0-2zm-.5 3c-1.3 0-1.3 2.1 0 2.1 1.4 0 1.4-2 0-2zm-.5 3c-1.4 0-1.4 2 0 2 1.2 0 1.2-2 0-2zm-5.8-7.7c1.3-3.1 2.5-5.7 3.9-7.7.9 5.4-.2 11.3-1.3 16.9l-2.8 1zm4.6-8.1l1.1.2c.6 6.1-.1 11.9-1.6 17.4l-.9-.2a56.7 56.7 0 001.4-17.4zm3.6.5l1-.1a51 51 0 01-1.4 18.1l-.9-.5c1.5-5.9 2-11.7 1.4-17.5zm-8.7 2.5H340v10.3h1.3zm26.7 20.3a6 6 0 00-1.7 2.1c.3 0 .6.1.8.5.8-1.3 2-2 3.7-2.3-.8-.5-1.7-.8-2.8-.3zm-2.9 3.3c-1 1.5.7 2.5 1.6 1 1-1.5-.6-2.5-1.6-1zm-1-3.3l.2 1.8-1.7-.2.5 1.6-1.9.4 3.2.9c0-.3-.1-.5.1-1.1l-.6-.8 1 .2.8-.7zm-3 .2l-4-1.1v.8l2.2.6-.5.3.6 1.2-1.6-.1.3.9-1.7-1.1-.6.5 3.3 2.3-.4-1.8h1.9l-.9-1.6zm-7.6-.8c-.7 3 2.8 2.9 2.8.3 0-1.7-2-2.4-2.8-.3zm-.4-.1c-.9 3.6 3.6 3.6 3.6.4.1-2.1-2.5-3-3.6-.4zm.8.3c-.5 1.7 1.3 2.3 1.9.6.5-1.7-1.3-2.3-1.8-.6zm5.4-4.2l-1.3-.5-.1-2.6-1.8 1.7-1.5-.8.3 4h.4l.1-2.7.8.4 1-1v1.5l.8.3-1.7 2 .4.4zm-10.6 5.3l4 .4-.1-.7-2.2-.3.4-.4-.8-1 1.5-.3-.3-.8 1.8.9.5-.6-3.6-1.8.6 1.8-1.9.2 1.2 1.5zm0-5.3c-1.4 0-1.4 2 0 2 1.3 0 1.3-2 0-2zm-1 3c-1.3 0-1.3 2 0 2s1.3-2 0-2zm-2-3.6l-5 1.3v.8l2.9-.6-.6.8 1.1.9-1.3.3.3 1.1-2.7-.9-.5 1 5 1.4-.7-2 2.2-.8-2-1.3zm-7.8-6.3l-1.3 2.5-2.2.2 1.7 2.3.5-.5-.8-1.2 1.4-.1.7-1.5.6 1.5h1.5l-.9 1.3.5.4 1.7-2.3-2.3-.2zm0 11.5c2.9 0 2.9-6.7 0-6.7s-2.9 6.7 0 6.7zm-3.2-26c.4-.7 1.1-1.4 2-1.7v1.5zm6.6 2.5c-1 3.5-6 3.4-6.8 0 2.4-.6 4.3-.5 6.8 0zm-2.2-4.2c.8.3 1.5.9 1.9 1.7l-2-.2zm-4.6 2.3l2.6-.4v-4.2c-1.5 0-2.5.5-3.5 1.1v-3.7c1 .6 2 1.1 3.5 1.1a6.7 6.7 0 00-1.1-3h3.7c-.5.8-1 1.7-1.1 3a6 6 0 003.5-1.1v3.7c-1-.6-2-1.1-3.5-1.1v4.2l2.6.3.1 1.6c-2.7-.6-4.4-.6-7 0zm3.4 26.3c-5 4.3-10.3 3.9-15.6 1.7-2.4 3.2-5.4 4.5-11 2.7l.6 1.8c4.8 1.4 8 .4 10.7-2.6a15.6 15.6 0 0015.3-1.6c4.5 3.2 9.8 3.8 15.2 1.6 2.7 3 6 4 10.7 2.6l.6-1.8c-5.5 1.8-8.6.5-11-2.7-5.3 2.2-10.5 2.6-15.5-1.7zm24.6 9.1l-1.3 1.2 1.2.3.3-1.4zm-49.8.2l.7 1.3 2.5-2.2zm46.9-1l-1.4 1.2 1.8.5 1.3-1.2zm-3-.7l-1.4 1.2 1.8.4 1.4-1.2zm-3.1-.7l-1.5 1.2 1.9.4 1.4-1.2zm-3.3-.6l-1.5 1.3 1.9.3 1.4-1.3zm-3.4-.5l-1.6 1.3 2 .3c.5-.5 1-1 1.5-1.3zm-3.7-.4l-1.6 1.4 2.1.2 1.6-1.4zm-3.7-.2l-1.7 1.5h2.2l1.6-1.4zm-4 0l-1.9 1.6 2.5-.1 1.7-1.5zm-4.1.4c-.7.5-1.4 1-2.1 1.7l2.7-.3 1.8-1.7zm-4.4.5a72 72 0 01-2.2 1.8l2.9-.4 1.9-1.8zm-4.5.8l-2.4 2 3-.6 2.2-2zm-4.7 1l-2.7 2.3 3.4-1 2.3-2zm43.6 9.2l-.1.1zm-47-.3l1.7-1.5-1.8.5zm45.3-1.5l-1.4 1.2 1.8.4 1.3-1.1zm-3-.7l-1.4 1.2 1.8.4 1.4-1.2zm-3.1-.7l-1.5 1.2 1.9.4 1.4-1.2zm-3.3-.6l-1.5 1.2 1.9.4 1.4-1.3zm-3.4-.5l-1.6 1.3 2 .2 1.5-1.3zm-3.7-.4l-1.6 1.4 2.1.1 1.6-1.3zm-3.7-.2l-1.7 1.4h2.2l1.6-1.3zm-4 0l-1.9 1.6 2.5-.1 1.7-1.6zm-4.1.3l-2.1 1.7 2.7-.3 1.8-1.6zm-4.4.6a72 72 0 00-2.2 1.8l2.9-.4 1.9-1.8zm-4.5.7l-2.4 2 3-.6 2.2-1.9zm-4.7 1.1l-2.7 2.2 3.4-.8 2.3-2.1zm-3 4a78.5 78.5 0 0146.4 0l-.1.2c-3.4 0-2.1 0-5.1-.6a75.3 75.3 0 00-38.5.5c-.6.2-2 .1-2.7.1zm39 .2a65.4 65.4 0 00-31.7 0z" class="fil2"/><path id="path18" stroke-width=".1" d="M304.4 142.3l5 4.2.2 5.2 4-.6.3 1.9-7.3 1.8-1.4-5.8-.8-.3-.5 4.2.1.1-9.3-2-.1.1v-.1l-.6-.2.8-.3 1.3-3.6.1-.1 1.2-3.3a58 58 0 00-5.6-2.9l-2.1 3.4 4.5-1.2-.5 3.3-5.7 2-.3.5-.2-.3-.3.1.1-.3-2.6-3.6 2.9-5.5h-.4l5.5-4.4c3.2 1.1 7.7 2.7 9.2 6.1h.2v.5l-.1.1c-.2.9 0 1.7.4 2.5zm66.2 0l2 1.5c.4-.8.6-1.6.4-2.5h-.1v-.6h.3c1.4-3.3 5.9-5 9.1-6l5.6 4.2-.5.2 2.9 5.5-2.6 3.6.1.2h-.3l-.2.3-.3-.5-5.6-2-.5-3.4 4.5 1.3-2.2-3.4a58 58 0 00-5.5 2.8l1 3.3h.2l1.4 3.7.7.4h-.5v.2l-.2-.1-9.3 2 .1-.1-.5-4.2-.8.3-1.4 5.9-7.3-2 .4-1.8 3.9.6.2-5.2z" class="fil3"/><path id="path20" stroke-width=".1" d="M293.6 143.4l-4 1.1-1.5 3.1 5.2-1.8zm-8.3 1.1l1.3-2.5 2.6 2.5-1.6 3.3zm6.1-4L288 139l-1.2 2.6 2.3 2.3zm1.4-5.4c4 1.3 7.5 3 8.7 6l-4 2a40 40 0 00-9.4-4.3zm8.6 6.4l-3.6 2-1 3.2 2.2-.4 3-2.3c-.5-.7-.7-1.8-.6-2.5zm-5 5.7l2.7-.4.7 1.4-4.5 2zm-1 3.5l4.7-2.2 2.8 3.8zm4.2-4l4.3 1.7-.4 3.4zm4.8-3.9l4.6 3.9.1 5.4 4.1-.5.1 1-6.4 1.7-1.3-5.7-5.8-2.3zm77 .6l4 1.1 1.5 3.1-5.2-1.8zm8.3 1.1l-1.4-2.5-2.5 2.5 1.6 3.3zm-6.1-4l3.3-1.4 1.3 2.6-2.4 2.3zm-1.4-5.4c-4 1.3-7.5 3-8.7 6l4 2c3-1.8 6.1-3.3 9.4-4.4zm-8.7 6.4l3.7 2 1 3.2-2.1-.4-3.1-2.3a4 4 0 00.6-2.5zm5 5.7l-2.6-.4-.7 1.4 4.5 2zm1.1 3.5l-4.7-2.2-2.8 3.8zm-4.2-4l-4.3 1.7.3 3.4zm-4.8-3.9l-4.6 3.9-.1 5.4-4-.5-.2 1 6.4 1.7 1.3-5.7 5.8-2.3z" class="fil2"/><path id="path22" stroke-width=".1" d="M279.4 161.6c-1.4.8-1.5 1.9-1.4 3.5h-.8l.2-4.5.6-2.2c-.5 1.4-.1 3.2 1.4 3.2zm6.5-5.3c-.5.4-.8 1.1-.9 1.8-.6 0-1.3 0-1.8.2-.5-.7-1-1-1-1-.1 0-.9-2.2-2.8-.9l-.2.2 1.5-1.2c.5-.2 1.5 0 2.1.2.7.3 2.3.8 3.1.6zm-9.3 29.6l-.7-.8h1c0 .3-.2.6-.3.8zm-3 5.2c.1-2.6-.5-1.1 1-3.7l.7.8-1.8 2.9zm7.8 24.3l.4-2.2-.3-.2c-1 1.5-1 1-.1 2.4zm-2-3.6l2.4-4c-1.3-.6-.6-2.1-.6-2.5l-.2-1.6c-.2-.4-.6-.7-.7-1.7-2.1 2.8-2.5 4.5-1.4 8.2zm-5.5 8.7l3.4 5.1.4-.7zm-5-7.7c-.8-.1-1.4-.7-1.8-1.3l-.3.3 2.4 2.6zm12.6 27.6a21 21 0 01-2.6 3.3l.7-4.8c.2 0 0 .2.2.6l.6.7zm3.2-4.5c-.4.4-1.1.6-1.5 1.2-.3-.5-.4-.5-1.2-.7.5-.8.4-1.9-.2-2.6.6-.2 1-1 1.4-1.5zm12 27.9c-1-.3-.8-.4-1.7-1.4l1.9.7-.2.7zm-3.5 2.6h-1l1.1-.7h.4l-.5.7zm-3 .8c-.1.6 0 .9.4 1.4-.5.9-.5.6-.5 1.6l-1.6.1c-.2-.2.6-.7-.2-1.2l-1.5-.8c1.4-1 2-.8 3.6-1.2zm9.6 1.1l-1.6.4-.3-.9c-3.6 0-1.3.2-3.1-1l.4-.4c.5.4 3.5 1.5 4.5 1.9zm5.3-.9l-1.3-2.1.9-1.5a9 9 0 01.4 3.6zm-26.3-5.9c3.1.3 6 1.1 9 1.8l-3.7.5c-.9-1-1.6-.7-2-.7-.3-.1-.5-.4-1 0-.7-.4-2-1-2.9-.7zm36.5 17.6v-.2l.4-.2c.9 2.3-.8-.9-.4.4zm-11.2 1.5l-.3.6c-.3.7-.6 1.2-.4 1.9-2.2 1.6-2.5 4.6-2.3 7l.1 1c0 .9-.2 2.3 1.5 2.5l2-.5s.6-1.5 1.8-2.3c1.2.5 2 .8 3-.3l2.4-4.1c3 .7 4.5-4.7 4.5-4.7l-1.1-2.6c1.7-.1 2.1-.1 3.5-.8-.6-.7-.8-.7 0-2.2.8-1.6-1.7-2.5-2.7-2.8.8-1.6 1.1-1.8 2.7-2.3 1.3 1.2 1.3 1.6 2.2 1.6.4-.8.2-.6-1.2-2.3l-2.1-2.7v.1l-.1-.2.2 1.4-2.8-.4c-.3-2.2-2.4-5.2-4-2.8l-1 2.2h-.6c1-1 .8-2 .8-2.1 0 0 1.7-1.9.3-2.8 1.3-1.8 1.2-3.6.5-5.5l-7-1-.3-1.4c-3.5-1.4-4.4-3.1-7.3-4.5-1.1-.5-3.4-1.6-4.2.4-.3.7 0 1.3.2 2-.9 0-2.2.1-2 1.5.1.7.8 1.3 1.4 1.8-1.7 1.3-.8 2.8 1.4 3.4l1.3.3c-.2.4-.5 1.3-.2 1.7l-1.2-1.2c-.5.6-.7.9-1.9.8-1.5 0-2-.4-3.4-.9a34 34 0 00-6.3-1.5l6-6.5c.8-1 1.7-2.1 2.4-3.3 1.4-1.9 3.1-3.7 3.2-6.5.1-2.1-1.2-3.9-1.3-7.4-.1-1.8.6-2.3 1.6-4.3.8-1.6 3.6-8 1-9.2-.9-.4-2 .4-2.7 1.1l.6-1c-.3-.9-.6-1.4-1.5-1.6.9-1 .9-1.7.5-2.7h-.3c0-1 .2-1.5-.6-2.7-.2-.4-.2-.4-.8-.6-2-.7-3 .5-3.5 2.2-1.4-1.6-2.7-.7-3.2 1v-.1l.8-2.4c.3.2 2.8 0 3.8-1.1l.4-.6c.3-.3 1.6-.3 1.9-1.2v-.6c1.6-.2 3.3-.3 2.8-2.5l3.1-4.3-2.6-1.8.1-4.6c-.7.2-2 .4-2.5.8.5-.6.7-1.3.4-2 1.9-1.5 1.5-4.3-.5-4.2a2 2 0 00-2.8-.7c2.2-3 3.9-5.7 2.9-9.6-1-3.6-3.1-4.2-5.5-6.5.6-.2 1-.5 1.2-1.2 2.3 1 4.6-.2 4.6-1.8 1.4-.5 2.1-.9 2.8-2 .5-.8 1.4-1.9.8-3.2l-.8-.8c.3-.6 1.2-1.3.5-2.9-.3-.7-.5-.9-1.6-1.2.1-1.3-.8-1.6-1.4-1.9.2-.7 1.5-1.7 1-3.2-.2-.4-.3-.4-.6-.6-.8-.3-2.3-.4-3 .2-.4-.8-1.1-1.6-2-1.5.7-.7 0-2.1-.4-2.8 2.5.2 3.5-1 3.2-3.3 1.4-.8 6.4-3.8 3.1-5.7.5-1.2.5-2.7-1-2.8 1.3-3.5-1-5.1-3.6-2.4l-.8-.5c.3-1.6-1.6-2.3-3-1.9.4-1.8-1.6-5.1-4.2-2.2-.3.4-.5 1-.5 1.6-1.2-1.2-3.7-1-3.3 2.7-2.6-.5-2.3 3.5-1.2 4.8l.5.9c-3.2.3-1.6 3.7-.7 5.3-1.6.6-1.5 2.9-.2 4.3a5 5 0 002 1.2l-.2.6c-.5-.3-1-.5-1.6-.4-.8-1.7-2.4-2.2-3.2-1h-.1c-.6-3.6-4.7-2.8-4.4.9l-.5-.3c1.8-3.5-1.7-5.9-3.9-2.8l-.6 1.2c-2-.8-4.2 1-2.7 3.6.8 1.2-.3.7-.3 2.5l.2 1c-5.3-.2-7.1 6.5-1.4 8.8 0 3.5 4.7 2.8 6.6 2.7.1 1.4 1.1 1.7 2.5 1.8h2c.1.5.6 1.9 1 2.4l.9.7a16 16 0 00-.1 1.6c-.9-1-2.4-2.2-3.5-.9-1.8-3.7-5.3-3.1-4.9.1-.8-.6-3.3-2-3.7-.3-3.4-.1-6.7 4.5-.7 6-1.7 1-1.1 3 1.6 3.7v.3c-2.4.3-3.4 1.3-1.8 3.4-2.8 1.3-3.3 4.7.8 4.6 0 2.9 1.6 3 3.6 1.2 1.7 1.8 3.4-.2 4.3-1.7 2 1.6 3.3-.9 3.9-2.5.4.5.9 1 1.5 1.1l-2.7 3.8c-.6-1.1-1.8-1.3-2.5-.7-2.3-.3-5.8 2.5-2.4 4.7l1.6.6c.5.6 1.2.8 1.9.6-.2 1.3-.3 3.1.2 4.4-1.5-.2-2 1.6-1.6 3.1l-.1.2-.6-.5c.7-1.3.3-4.5-1.8-3.6.1-1.1.2-3.5-1.5-3.6h-.6c0-2.5-.2-2-1.3-3.1-.2-.3-.4-.4-.9-.4l-.8.2c-.5-1.9-2.5-3.3-3.9-1.2-3-1.6-3.8 1.5-2.6 3.3-1.8.5-1.9 1.9-.4 3.3-1.4 0-1.6 1.5-1.6 2.6-.8-.3-1.1-.4-1.6-.1-.3.1-2.5 0-1.8 3.4.2 1 .9 2 1.8 2.5.3 1.4 1.3 1.6 2.5 1.3-.3.4-.4.5-.4 1.4.1 1.6 1.2 2.2 2.7 2 .7 0 1-.4 1.9-.9.9 1.7 2.8.9 4.1.1l1.4.3c-.3 1.4.1 1.9.2 2.4 0 .4-.1 1 .8 1.7 1.5 1.3 3.5-1.1 3.9-2.3.1-.5 1.9-.8-.6-3.2l.9-.5c1.8 1.5 5.7 6.7 7 8.5-1.1-.6-1.4 1.1-1.7 1.6l-.6-.3a2.7 2.7 0 00-2-1.8c-1.6-3-5.1-1.4-5.3.7 0 .9.6 2 1.2 2.6v1.1l-1 .3c-1.2-1.2-2.9-1.2-3.3.7-2.1-1-3.7-1.5-4.3 1.4-1.3-.1-1.5-.7-3 .3-2.4 1.6 0 5.2 1.4 5.6.5.2-.4 1.2.8 2.8.9 1 2.3 1 3.5.7l1.6.8c-1.4.6-2.4.6-2.9 3-1.3.5-2 2-1.6 3.3.4 1.6.2 0 0 1.9-.1.7.3 2.5 1.2 3.2 1 .8 2.9.6 3.1.4l1.2-1.1c2.5.4 2.7-1.5 2.9-1.5 1.6 2.5 4.4-1.1 5-2.9l.1.4c1.9 1 2.8-.4 3.9-1.9l2-3 .6.6v1.5l.3 3.3-2.6 2.9-2.4 2.2-2.2 2.8-3.5 4.3-1.8.3-.1-1c1.7-.6 2.2-2.6.4-3.4-.1-1.4-.5-3.3-2.3-3.2-2.1.2-2.5 2.4-1.9 4-1 1.3 0 2.9 2 3l.2.8h-.7l-.3-.8c-3-.6-1.8-1.5-3.1-2.5-.5-.3-1-.3-1.3-.5-.2-.2-.6-.3-.9-.1-.5-.5-2.4-1.8-3.2-1-1-.5-2.1-.7-2.9 0-1-1-2.2-1-3.5-.4-.3.1-.5.5-.6.8-2.1-.7-4.3-.4-4 2-.8 0-2.6-.3-3 .5-.6.9-1.8 1.8-.1 3.5.7.8 2.7 2.4 3.7 2.4 1.7-.1 1.1-.5 1.8.2-.2.7-.1 1.4.1 2-1 1-2.1.6-2.3 1.6-.2.8-.3 1.6.4 2.2l.7.4c-2.2 2.6.2 4.5 2.2 3.5l1.4-.8c1 2.5 3 2.4 4.4-.2 1.7 1.1 4.2-.1 4.6-2.6 2 1 3.8-1 3.5-4 1.8 1.8 4-1.3 3-3.7l1.5-.2c-2.1 3.4-1.7 3.6 1.6 5.7-.4.3-.4.5-.5.7-.2.5-1.1 1.6.1 2.8-1.1 1.1-1.3 2.3-1.1 3.9.5 4.6 5 2 5.7-1.8l.7-.2v.4c-.8.8-3.3 3.6-.7 4.1h1.8l.8 1.3c.8-.1.5-.1.8 0-1 1.5-2.3 4-.9 5.6.8.9 1.9.5 2.7 0 2.4 1.5 4.1.5 5.5-1.7 1.2.4 2.1.1 3-.7.4-.4.4-.6.7-1.3h3.6c.2 0 .3.2.9 0 1.4-.2 3.8-2 4.7-1.7l2.6.3c-.7 1.5-.3 5.7 2.2 5.1 1.6-.4 3-2.9 3.3-4.5l3.3.2zm-29.8-121.1c.8-.6.9-1.6.9-2.5.3 0 .5.3.6.6-1.1 3.2-.8 2-1.3 5.5a.5.5 0 00-.5-.3l-.4-1.6-.6-1.4c.5.1.9 0 1.4-.3z" class="fil3"/><path id="path24" stroke-width=".1" d="M272.9 176.8l1.1-.7.1 1.4-.7.2zm-12 89.1c.7-.6 1.1-2.2.5-3.3-.6-.1-1.8.4-1.8 1 .1.8.7 1.8-.4 2.4.6.5.9.5 1.6 0zm37.4-9.1l-2.9-3.9 2.3 4.2-3.9-1 4.3 2 1.9 3.1-4-.5 4.3 1.3 2.7 3.2-2-3.5.5-3.1-1 2.4-1.5-3.4-.5-4.3zm6.4 11c-.7-1.3-1.8-2.6-1.3-2.8-.5.3 3-3 0-4.3.7-2.9.2-3-.1-5.3-3-1-4.9-3.6-7.9-4.7-2.7-1.5-4 1.3-1.8 3-2.9-1-4 .7-1 2.6-.9.2-3.4 2.5 2.5 3.3-1 2-.7 2.6 2.5 3.2-.4.4-.5.8-.5 1.1l3.4 1.1h1.1l.1.5c1.7.6 1.7 1 2.2 2.3zm-25.3 3.5c-1 1.4-2.3 1.8-3.9 1.8l-.1.1 2 .1 2.9-1.1-.9-.8zm14.7-1.1c-2.1.4-5 .6-5.9.6-.8-.8.5-1.1-.3-1.4l-1.6-.8c-1 .8-1.7 2.6-3.4.3-1.4 1-2.2.2-2.6 1.1l-.7 1.2h.2v.1l1.2.8 5-1.1-2.2-.6c2.4.3 2.2.3 4.6.9l-1.7.2-1.4 1.7.8-1.7-5.2 1-1.7 2.3 1-2.1-3.2 1.3-1.7 2.5 1.3-2.4-4 2.6 3.4-3-.8-.1c-.5-.1-.3.2-1.3.5-1.5.4-2.5-.6-3.1-.9l-.5.1.1.7c-1.4 1.4-3.9 4.2.8 3.5l.7 1.3c1.5-.1 5.2-.1 5.7-1.9 2.5.6 4.6-.2 6-2.7 1 1 2.6.8 4.4 0 .2-.2 1.5-1.5 3-2.4 1.1-.8 2-1 3.1-1.6zm2.2-2l.4.9 1.1-.3-.2-.5zM266.1 197l-1.1.3c-3 1.3-1.5 3.3.5 3.9-.6-1.3-.3-3.1.6-4.2zm1.7-.4c-2.2-.3-3 5-.8 5.4.3 0 .6 0 .8-.2l1-3.4.2-.6c-.3-.6-.7-1.1-1.2-1.2zm-8.2-40.3c-1.1-2.3 1.6-4 3.8-1.6 3.4 0 4.2 1.2 5.6 4.3 1.7-1.2 4 .3 4.2 3l.4 1.2.8.3c0 .7.8 4.3 1 5.2l-.6.3c-.3-.3-.7-.6-.7-.8-1.4-1.2-1.6-2-3-3.1-.6-.8-.3-2.6-.5-3.6.1.7-.2 2.5-.1 3.3l-2.2-2.2c-.3-1.5-.2-2.8-.6-4.3l-.1 3.5-2.1-2-.3-2.6-.1 2c-.8-1-2.9-2.6-3.6-3.6.7 1.3 2.6 2.9 3.3 4.1l-3.4-.5 3.9 1.2 2.3 2.4h-3l3.3.6 2 1.6c-.7 0-2 .4-2.8.4.8.1 2.3-.1 3.2 0l4.3 3.7-.9.7a9 9 0 01-1.7-1c-1-.2-2.3 0-3.1 0-1.8-.1-2.2-1.6-2-2.4-2.3-.3-3.7-.2-3.4-2.6-.3-1.4-.9-1.6-1.6-1.6-2.4-1.1-2.9-2.9-1.7-4.5 0-.7-.2-.7-.6-1.4zm5.4-5.1c-1 0-2 1-2.5 2.3l1 .7c.1 0 1.5 0 2.7.5.8-1.7.3-3.6-1.2-3.5zm4.3 1.2c-1.7 0-2 2.8-1.7 3.3l.8 1a3 3 0 012.6-2.4c-.2-1.1-.9-1.9-1.7-1.9zm2 2.3c-2 .1-3.3 2.5-1.9 3.6.7-.3 1.5-.2 2.1.1-.5-1-.7-2.6-.2-3.7zm9.8 1.9c-.7-.3-1.6.2-2.2 1-.6-.3-.8-.2-1.1 0l-.9-1.9-.3.7c-1-.8-1.6-.8-2.1-.5-1-3.1-3.6-2-3 1.2.7 3.3 3.6 2.9 3.2-.4.6-.4 1.2.1 1.5.9l-.9 2.8-.4 3.4 1.4 6.5h1.3a21.2 21.2 0 010-12c.2-.4.5-.4 1 0-1.4 2.9 1.4 4.1 2.8 1.2.6-1.2.4-2.5-.3-2.9zm-2.8-18.8l1.5 3.3-.4 1.8-.6.5-2.4-2.6 2.1 3c-.9 1.1-.7 2.8-.2 4.1l-.8.2-2.2-2.1 1.8 2.3c-2 1.4-1 4.5-.6 6.3a5 5 0 01-1.6-1.1c-1.7-2-.5-3.8.6-3.5-4-6.4 1.3-5.1 1-5.2-.4-.1-1-1.6-1.2-1.7-1.2-2-1-5 1.5-3.8-1-3.7 1.5-4.7 3-2.4.5-.2-.3-1.6.8-2.5 2.1-2.3 3.6 1 3 2.3 0 .1-.6.3-.8 1a4 4 0 00-1.5 1.2l.8-3.5-1.8 5.2zm9 5c1.1-.7 2.1-3.5-.7-4 1-2.7-3.8-2.2-3.3-.8-1.4.2-3.8 3.1-2 5.5-1.3-1.1-4.3.6-2.3 4.8-4.4-.1-2 5.7-1.9 6.9l.8 1.7c4.4-3 6.2-4.8 4.5-6.6 3-.3 3.3-1.8 3-3.7 1.4.8 3.5-1 2-3.8zm-1.9-4.2l-1.8 4.8-1.6-3.3 1 4.3-1.8 3.3-1.1-3.1.6 3.4-1.5 3.3-1.4-1.5 1.1 2-.6 3.5 1.1-2.7 2.4-1.4-2.2.7 2-3.5 3.3-1.4-3.2.7 2.5-4.1 3.3-2.1-3 1.3zm5.4 3.2c1.8-3.3-.1-5.2-2.5-2.6 1 1 .5 2.9-.4 3.8l.2.5 2.1-4.1-1.5 4.6 2.7-.6-2.8 1c-.6.5 0 1-.9 2l3.1.4-3.8.2c-.3.1-.9.2-1 .6 0 0 0 1.3-.7 2l2.6 1.2-3.8-.4-.8.3c.3.6.2 1.2 0 1.8l.2.3-.5.4 1.7.7-2-.3-1.4 1.4c.6-.1 1.2 0 1.7.3 3.6 1.3 4.5.4 2.4-2.8 2.5.5 4.1 0 3.6-3 3.8-2.1 5.6-4 3.1-5.2.8-2 .2-2.8-1.3-2.5zM259.6 161c-4.6-.7-7.4 5.7-1.2 7.9-.3 1.6 1.2 2.9 4 2.6l2.6-.1c-.4 1.3.5 2 4 1.9.2-1.7 2.2-1.5 3.4-1.1.3 0 1 .9 1 .4.5-.4-.6-1.6 0-2.4l-1.2-.7-4.8 1.8 3.5-2h1c-.9-.6-4.3 1-5.3-1.7l-.6-.1-4.8 1.5c.9-.5 3-1.4 3.8-2-1.3-.3-2-.8-3.3-1.2-1.2 0-2.6.4-3.7.5l3-1a140 140 0 01-3.5-2.2l3.8 1.7c.2-.8-.3-1.7-.2-2.5l.8 2.6 1.2.5c-.4-1.1.3-2.6-1.1-2.8-.8-.1-2-1-2.4-1.6zm24.8 4.7l-1-.3 1.7-1.4 2.6-.1v.3c-1.5-.2-2.6.2-3.3 1.5zm-2.6 2.8l.1-.4c.5-.3 1.2-.7 1.9-.3l.1-.4.4-1.4-1.4-.1-2.8 1.5a4 4 0 011.7 1zm9.2-8.1c.8-1 1.2-1.7.7-2.6-.9-.6-3-.7-3.1.6-.9-3.1-3-2.4-3.2.3-1.9-.4-3.3.2-3.6 2.9-.3.3 0 .5-.4.9-1.2-1.2-3.5-.7-2.9 3.2a7 7 0 00-1.3-.1l.1 1.3 2.2.4 1.2-.9 1-3.4-.4 3.3 2.1-2 1-4.2v3.6l5.2-3.3-3.8 3 2.1.3c.7-1 1.8-1.2 2.6-.6.4-.4 1.2-.4 1.7-.3.2-1.7-2.1-.7-1.2-2.4zm-9.3-.5c-.3.6-.8 1.2-1.5 1.5.4 0 .7.1 1 .3l.2-.3zm1.1-1.3l-.6-.7-.3 1.7zm10.8 7.8c.8-1 .5-1.7 0-2.6-.9-.6-2.9-1.1-3 .2-.7-1.4-2.4-.7-2.7.7-1.8-.4-3.2.2-3.5 2.9-.3.3-.1.5-.4.9-.6-.6-1.2-.4-1.7-.1l-.1 1a8 8 0 011.5 3.1l.5-.3 1-3.4-.5 3.3 2.2-2 1-4.2-.1 3.6 5.2-3.3-3.7 3 3.8.5-4.6.1-1.6 1.4 3.1.9-3.6-.4-2.5 1.4c.3 1.4 0 1.7.9 2.6 1-.3 1.3-.8 1.1-1.6 2.6 1.5 4.9.2 4.6-1.4 1.6-.4 2.6-1.1 3-1.9.9-1.2 1.2-2.6.3-3.3-.5-.2-.5-.4-.2-1.1zm-21.4 6.2l-.4-.1c-1.9-.4-3 .2-2 2 .1.9.6 1.4 1.2 1.9 2.6.9 3.6-.6 2.4-2.7l-1.2-1.1zm-4.5 11.1c1.8-1.2 1-1 3.3-1-1 .2-1.8.8-2.3 1.8zm-1.5-.5l1.8-.6-.8.9zm8.7.3l-1.3-.2 1.2.6c.1.3.9.5 1 .8l1.3-.1zm-4-4.1c-1.4-2-2.9-2.9-3.6-1-2-4.8-5.9-3.4-4 .8-1-1.6-4.5-3.3-4.2-1.3-3.4-.7-7.4 4.7 1.1 5.2-3.5.2-3.6 2.8-.5 3.4.8-2 2.4-2 4.2-1.2.3-.6.6-1.3 1.1-1.7l-3.7 1.3 4.5-2.5-7.9-2.2 8.8 1.6-2.3-3.4 3.3 3.4 2.1.2-1-3 1.8 3 2.4.4h1.7c2 1 2 0 .9-1.8-1-2-3.8-4.2-4.8-1.1zm3.4 4.7c-2.5-1.3-4.5-1.4-5.4 1-1.8-1.5-3.6-2.5-4.7.8-2.6-1.2-4-.6-4.2 1.8-3.5.3-2.8 1.7-1.5 3.2-3.3 1.2-3.4 4.5.5 3.8-.2 2.9.9 3.3 3.1 1.1 1.7 2 3 .4 4.3-1.7 1.5 1.6 2.8.7 3.7-2.8 2.1 2.9 3.1 2.1 3-2.2l1.5-2.6.3.4.7.9.7-1.4-1.5-1.8-2.6 1.5-1.2 3.3.7-3.3-2.3 1.9-1.3 4.2.3-3.7-3.6 2.3-1.6 3.9.7-3.3-4.8 1.7 4.2-2.3-2.9-1.1 3.1.4 3.4-1.3-3.9-1.3 4.7.7 1.8-1.3-2.7-1.5 3.2 1 3.7-2.2zm-35.6 74.5c.1-1 1.8-.4 3.3-.5-.6-3.1 2.2-2.5 3.5-2.1.4.1.5-.9 1-.8 1-.6 2.4-.3 3.1.8 0-.1.7-1.6 3-.3.4-1.2 3.1.8 3.2 1.4.2-.5 0-.9.7-.3 2.3.1 1 2.4 4.1 2.8l.1.6c-1.2.1-4.6-.8-5.4-.6-.7.2-.8 1-.8 1.6-2-.3-2.3-.4-4.6-.2l1.7-1.1 5.7-.5-5.9-.5-2.4-2.2 1.3 2.7-4.3-.3-2.4-1.6 1.3 1.8-4 .9 4.5-.3.8.2-2.6 2.4 3.8-1.9h2c-1 1-.5.3-1.2.8-.8.6-.9 1.3-1 1.4v.4c-.9-.1-.4.1-1.2-.1a2 2 0 00-2 .7l-.2-.3c-.7-.4-.8.1-1.8 0-.6.1-1.5-.7-2-1.1-1.2-1-3.2-2.2-1.3-3.8zm23.4-3c2.8-.3 3.6 2.3 1 3l.1 1.3-.8.1-.2-1.2c-3 .2-3.2-2.9-.1-3.2zm1.4-.3l-.1-1c-.5-2.5-4.2-2-3.3 1.6.7-.4 1-.7 2.2-.8zm5.3-15.7c-1.5.7-2.9 1.7-4 2.9l-4-.1 3.5.9-3.2 2.6-2.7-.5 2.4 1-2.8 3.4 3.4-3.1.4 2.2.1-2.6 3.6-3.3.2 3.2.6-4.1a6.6 6.6 0 012.5-2.4zm-7.6.7c-1.9.8-2.9.7-3.3 3.2-1 .3-2.3 1.6-1.4 3.6.1.6-.5 1 0 2.5.4 2.2 1.9 2.2 3.5 2l1.2-1.2c1.1.2 2 0 2.5-1 .1-.4.4-.6.9-.4.6 1.2 1.7.9 2.5 0 .9-1 1.7-2 2-3.1.2-.4.3-.4.5 0l.2.7c.6.4 1.5 0 1.8-.3 1.4-1.6 2.2-3 3.2-4.4-.9-.3-1.9-.8-2.5-1.5-.4-.5-.4-.7-1.4-1.2-.5-.2-.9-.2-1.5-.1-.4 0-1.9 1.6-3.9.3-1-.6-1.1.6-3.4.9zm23.7-39l1.1-1.7.5-.2c-.2.5-.2 1.1 0 1.7-.5.6-.6-.2-1.6.2zm-1 1.5l.1-.3v.2zm6.4-9.4c-.4-1.4-2.8-1.8-3.4.9l-.5-.1-2.2 3.4c-.6.8-.8.4-.9 1.2l-.9.6-1.7 2c0 .7.1 1.4.6 2.1l.3 1.2c.2-.3.6-.4 1-.4.5-1.7.8.3 0-4.2l1 2.2 1.8-3.3-.4-2.8.9 2.3 1.8-2 .3-2.7.2 2.3 2.4-2-2.2 2.5 1.7.6-1.8-.4-1.9 2.1h.5s1.7-2 3.4-.3c.5-.5.6-1.1.2-1.7 2.3-1.5 1.3-4.2-.2-3.5zm-14.9 32.7c-.1 2.5 2.7 5.3 2.1 7.1-1-.7-1 .2-.8 1.8.1.7-.3.5 0 1.3-1.7.6-2.4 2.2-.7 4 .1.8.3.6.3 1.2 0 1.4 0 3.4.3 5.4 1-1.2 1.3-2.3 1.3-2.3l.5-.5c.2-2.3.6-4.5.9-6.3.4-.5 0-1.2.5-1.7-.2-1.5.5-2.5 2-2.8.8-.8 1.3-1.6 1.6-2.4.5-.5-1.8-1.8-1.1-2.3.5-.4 1.5-.8 3-.8l1.6-.5c.6.6 1.3 1 2 1.1v-.2l.5-.3c.4-1.1.3-2.3.7-3.3h-.2c-1.6.6-2.2.5-2.8 1.9-2.5.2-4.9.9-6.6 2.7.2-1.5.9-3.5 3-2.7l2.8-.2c2.1-2.1 3.5-2.1 4.2-2.3l1.2-2.3c-.2-1-1.2-1.5-2.7-.6 1.3-.9 2.5-2 2-3.2-1.2-.2.3-1.1-1.1-3-1.8-.9-3-.4-3.7 2.6-2.3-4-3.8 1.4-2.9 3.3-.9 1-.8 2.6-.6 4.2l-2.3 1.4c-.5.6-.6 1.3-.5 2.3-.9 1.2.9 3.2 0 4.4l-.2-1.7c-.7-1.7-1.5-4.3 0-6l.6-11.4 2.9-4.3c6.2.4 3.7-.7 7-2.3l2.3-1.2.2-7.3c-1 .3-1.8.2-2 1.1l-.6.1c.5-.7.1-1-.4-1.4-.5-.2-1-.6-2.1.2-.9.5-1 1.3-.7 2.2-.3.7-.7.8-1 .6-1-.3-1.6.2-1.4 1.3-1.3.5-1.5 1.2-1.6 1.9-.8-.5-1.5.2-1.5 1.8.2 1.2 1.1.3.7 1.5l-3.1 5.2c-.8 3.4-.9 6.8-.4 10.3l-1.2 2.9c-1.5-2.5-7.3-11-11.2-14.7a2 2 0 011-1c1.5 2.7 3.7 1.2 2.6-1.7-1.2-3.1-3.9-2.3-3 .8l-.6.8c-.4.7-1.4-.9-1.2-1.1.7-.9.5-1.8.4-2.6-.6-1.7-2.3 0-2.2-.1.3-1 .7-4.2-1-4.2l-1 .2c.2.1.2-2.1-.1-2.5-.3-.4-.8-.7-1-1.1-.9-.3-1.4.5-1.7.3-.2-2.3-2.5-3.4-3.3-1.1-3.4-2.3-3.5 2-1.9 2.9-1.6 0-3.2 1.2-.4 3 0 1.5.3 3.5 2.7 3.7.7 1.1 1.7 2.7 5.1 2.4 1-.2 1 .2 1.4.3.8 1.3 1.9 1.6 3 1.4l.1.4c-3 .5-3-2-4.3-1.7h-1.2l.3.8 5.6 2.8-5.8-1.7-5.5 1 3-1.6-2.1-.7-4.3.6 3.5-1.3-.7-.6-4.5-1.4 4.3.7-.6-2.2 1.7 2.4 4.2 2-.1-.8c-1.6-.3-2.5-1-3.4-2.3-2-.3-2.9-2-2.9-3.8-1.3-.1-1.7.8-1.6 2.2l1.4 1c-1.5-.4-3.4-1.1-3.1-.7-2.9 0-1.9 4.4.1 5.2.1 1.8 1.8 1.4 3.6.6l-1.4 1.6c-.3 1.9.5 2.6 2.4 2.3l1.9-1c.5 1.7 2 1.4 3.8.2 3 1.2 4.7-.6 6.7-1.6 1.1.8 4.6 4.8 9.3 11.4zm16.4-25.6l-2.9 2.7-.5-2.8-.1 3-.9 1.3-1.5.7.2-2.6-1 3-2.2 2.9 2.4-2.2 4.7-.4-3.6-.5 1.8-.8 1-.8 2.9-1.2-2.2.3zm3.3 4.3l-2-1.4-.1 3.1c-1.5.7-3.6 1.5-4.6 2.8-1 1.2-3.4.9-5 .8l-1.6 2.5.5.5-.5 2.8.8 1 .8-2.8.5.4c1.9 0 3.1-.5 3.7-1.7 1.6-.3 2.1-.8 1.5-1.8 2 0 3.6-.2 3-2.2l3-4zm-33.5 1.8l.1-2.4-.9 1.9-3-3.3-.8-3-.3 2.4-3.8-2.2 3.7 2.9.5.8h-3.8l4.5.5 1.9 2-3.8.4 4.9.5 3.8 4.3zm27.5 9.8l-2.7 3.3-.9-2 .7 2.8-1.3 1.9-.5-2 .2 3.3-1.4 2c2.5-2.6 1.4-1.8 4.6-3.4l-2.5.9 1.4-2.5 2.8-1.6-2.9.9zm-17.7 9.4c.6 0 .7-2.5 1.6-1.5l.4-.2 1.5 2.1c0 1 .4 1.9.8 2.7.4 1 1.4 2.7 1.5 3.7-1.6-.4-.9 2.4-1 2.8v.6c-.6.3-1.2.8-1.4 1.3l-.4-2.5 1.3-2.2-1.8 1.5-.6-3.4.8-2.1-1.2 1.3-1.4-3 1.1 3.4v.7l-2.4-1.6 2.2 2.6.3 1.5-2.1-1.2 3.1 2.9.9 2.9c-.1 1.4.8 2.2 1 2.5l.3.9v.4l-1-1c-1.2-.1-2.3-.8-2.5-2.5-.2-.3 0-.6-1-.9-2.9-1.2-3-3-3.3-4.2-1.8-1.2-2-2.4-1.3-3.6.2-.9 1.7.7 1.5-.2-.3-.5-.6-1.2-.4-1.8.5-1.5 1.4-3.1 3.5-2zm-9.9-6.4c-.2 1 1.1 2.7 2.6 1 .8-.6 1.1-1.2 1.3-2 1.1-.5.6-1.3-.6-2.5a7 7 0 01-3.5 1.3c-.2.6-.2 1.4.2 2.2zm8 4.6c-1.1-.8-2.4.1-3.4 1-.7.8-1.4 1.9-.9 2.8l1.3.8c.2.3.4.4 1 .3-.5-1.6.8-4 2.5-4h.3l-.9-.9zm-1.3-.7c-1.4-2.9-6-.6-3.4 2.7a5.5 5.5 0 013.4-2.7zm-14.1 7c.4-.4 1 .2 2.3.1.5-3.3 2.2-2.1 4.5-1.1-.4-1.5 1.1-2.7 2.6-.8.9-.8 2-.3 3 .8-.2.2-.6 1.3-.5 1.9.1 1 1 1.8 1.7 2.4.7 4.2 3.8 4 4.2 4.7l.4 1.3c-.4-.6-2.4-1.3-3.3-.9-.9.8-2.2 1.2-3.6.2-.3 0-.5-.3-1.3.2-2.8 1.5-4.2.4-5.3-.2-2.1.6-3.2-.1-3.6-1.4-.6-.6.4-1.5-.5-2-1.5-.5-3.8-4.1-.6-5.2zm10 4.3l-1.5-2.9.3 3-3.9-1.8-1.7-2.3.6 2-4-.5 4.2 1.3.7.5-3.3 1.3 4.2-.4 1.8.7-2.8 1.3 5.3-1.2 5.4 1.6zM281 237c-.3-.6-.6-.3-1-.3v.4c-.1.9-.3.4-.3 1.3.2 0 .3.2.4.4 0 .4.2.6.6 1l1 .1 1.2-2.4-.3-.4c-.8-.3-1.3-.3-1.6-.1zm.3-3.1c.6.6.8 1.7.2 2.5h-.3c-.3-.2-.6-.2-.9-.2.1-.1-.5-1.6 1-2.3zm-28.5 30.9l-3.4-.9 2.5 1.8-4.1 1.9-3-.3 2 1-3.3 2.9 4-2.6.9-.1-1.2 3.5 2.6-3.6 1.8-1-1 3.2 2.8-5 5-3.2zm38.3 3.6c.2.4-.6.6-.6 1.8.9-.1 5.2-.6 5.2-1.1a2 2 0 00-1.3-1.9l-.5-.1c2-2 .8-1.3 2-.9l4.7 2 2.6-.4h.8l-1-.6c-.2-1-6.8-2.8-7.3-3.4l-2.6-2.6c-.6.6-1.8.8-3.6.4-10.3-4.5-20.3-1.8-28.9-1v.1l-4.6-.7c-.9-.2-1 .5-1 1 1.7 1 .8.9-1.5.5-1-.3-2.3-.2-3.6 0-1.1-.1-2 .4-2.3 1.5 0 .6.5 1.2.6 1.2.2-.1-1-.8-1.6-.6-.4.1-.8-.2-1.3 0-1.3.1-1.3 1-.8 2.8-.9 1.1-2.5.8-2.5 1.4-.3 1 0 2.6 2.1 2.1 0-.5-3.6 3-.5 3.7.7.1 1.4-.2 1.8-.6 1-.4.3-.4 1.3-.4.7 2.1 2.4 2.8 3.9-.5 1.5 1.5 4.3.5 4.4-2.7 2.1 1.8 4-.6 3.3-3.6 1.8-.5.8-1.2.9-2.5.3-.7 1.1-1 1.9-1.3.6.1 1.9 0 3.6-.2.6 0 1 0 1.4-.2 5-.5 12.2-1.3 17.5.2 3.3 1 5.7 1.2 5.5 1.6-1.4.6-3.5.4-5.2 1-.4-.6-.8-1-1.9-.9-.8-.4-.5 0-.6.5-.2-.6-3.3-2-3.5-.7-2.4-.8-2.8.7-2.7.9-1-.9-2.5-1-3.4-.1-.4 0-.3 1-.7 1-1.3-.2-4.3-.2-3 2.8-1.4.3-3.2.2-3.1 1-1.5 2 .6 2.9 2 3.5.6.3 1.7 1 2.2.7 1 0 1-.6 1.8-.4 1.1.9 2.8 1.6 4.2 0 1.3-.1 3.1 0 4.6-2.8.8-1.7 1.7-.3 3.1-1.7l.3.2c.1 0 1.1 2 2 .6.3-.4 2.5-2.2 3.9-2 4.4-1.2 4-2.2 4.1-2 .7.6.7-.2 1.3.4-.4.4-.8 1.1-1.1 1.6-1.4-.2-3.6-.2-2.3 1.4zm-13.6-1.7l-2.8-1.7 1.9 2.3-4.4.7-2.6-1 1.6 1.4-3.7 1.7 4.3-1.3.8.1-2 3 3.3-2.8 1.9-.4-1.6 2.7 3.7-3.9 5.4-1.6zm-12.6 5.1c-.6.6-1 1.5-1 2.3 0 6 4.2 2.8 4.8-.5a13 13 0 01-3.8-1.8zm13.6 5.7l-.9.2.3-.3.6.1zm-5.2 1.6c-1 1.4-1.9 2.8-1.8 4.5.5 1.8 1.7 1.4 3 .7 2.6 1.9 4 .3 5.2-1.7 1.2.6 2.2.2 3.1-.7.5-1.4 1-2.2 1.6-3.5l.2.2a17 17 0 012.6-3.7c-1.8.6-2.5.3-2.7.3l-1.5.7-2 3.9.6-2.9c-1 .5-1.5.5-1.8.6l-1.1.7-.9 4.1.1-3.5-4.7 3.7 3.7-4h-.5c-.9.4-2.2.5-3 .6zm32.1-14.6c.2 1 .2 2 .1 3.2h.9l.1-2.3-1.1-.9zm-1-5.1l.1 1.5c.6.5.6 1.5.4 2.3.1.2.3.4.3.7l.5.1.9.4-.4-2.6-1.3-2zm6.3-1.5l-6.6-.9c.4 2.3-.4 1.4.9 2.4v.1l1.2 1.2.1-3.1.6 3.2 2.6-1.8-2.5 2.7.2 2 2.3-1a11 11 0 00-2.5 2.8l-.1 2.2 1.8.1c.7-.5 1.1-1.1 1-2.2 1.1-1.3 1.2-2.1.1-2.4a5.2 5.2 0 00.8-5.3zm3.1 8.6c-1.9-2.7-2.6-.5-3.3 1.4l4 .5.1-.1c-.1-.6-.4-1.2-.8-1.8zm-18 13.3c-.6 1.3-.5 4.6 1.4 4.6 1.4 0 3-2.3 3.2-4zm18.7-1.5l-5.4 3.9-3.1-.3 2.7.7-1.3 1.8-2.9.2 2.5.4-4 5.7 4.1-4.9.2 2.7.5-3.7 1.6-2.2.3 3.3.3-3.4 4.8-3.6-.3-.6zm-.7-2c-1.1.3-2.2.4-3 2.4-.9.5-1.5.2-1.9 0-1.7 0-3.1.4-4.7 2.5-.3.8-.8 1.4-.2 2-2.3 1.4-2.8 4.2-2.4 7.9-.3 1.8.6 2.4 2.7 1.6.6-1 1.3-1.9 2-2.4 1.2.4 2 .8 2.9-.2l2.5-4.3c2 .7 3.1-1.2 4.1-4.1l-2-5.5z" class="fil2"/><path id="path26" stroke-width=".1" d="M275.6 169.2l-1.2.6 1 .1zm8.2 5.8a12 12 0 00-1.4-4.4l-.5 6.6c0 .8-.1 1.2-.7 1.9-.5.7-1.2 1.1-2.1 1.3-.3 2-.7 3.4-1.9 5.2-1.4 3.1-5 8.3-7.6 11.8-1.8 4.5-2 8.4-.9 9.8l9.2-.9c-.1-2.8 3.7-6.9 6-9 2.3-4.1 5.1-7.1 6.1-9.7 1-2.6.5-5.2-.7-7-.9-2-4.6-3.7-5.6-5.6zm-2-5.9c-1.3-1.7-3-1.4-4.4-1.8l.6 3c1.7-.2 2.4-.5 3.9-1.2zm1.4 57.8l-1.9 1c.4-1 1-1.4 1.9-1zm-.4-9l-2.1-2.8-.5 10.4-.3.9c.4-.6 1.7-1.3 2.4-1.7-.2-1.2-.3-3 .5-4-.3-1-.2-1.9 0-2.9zm.6 14a20 20 0 011.8 3.6c1.9-1.5 3.8-4.1 3.8-6.6-.9-.1-1.6-.5-2.2-1.1l-1.7.4c-.8 0-1.7.2-2.4.7.5.7 1.7 1.4 1.1 2.3zm-5.6-25.1l-8.4.8c1.6 1.8 1.6 4.8 0 5.1 0 1 .3 1.9.8 2.8l1.7 2.2.6.5 5.4 6.2c.5-1.3.3-.6.1-2.7-.2-2.2-.1-4.3.2-6.5.3-1.8.1-1.8 1-3-.7-1.5-1.2-3.2-1.4-5.5zM264 262.3a8 8 0 00-1.5 2.9c-.1.7 1.4 1.7 3 2.7l2-.4c-.7-2.5 1.3-3.1 3.4-2.9.3-.8.3-.7.7-1a3 3 0 013.3-.2c.6-.8 1.7-.9 2.6-.7.2-.4.4-.8.8-1.2-2.2-.1-4.8 0-7 .1l-5.1.5zm25.4-34c.1 3.2-1.9 6.5-5.8 8.8-1.2 1.8-1.7 4.7-5.3 7.8a17 17 0 01-4 5.3l-2.8 2.7c-1.5 2-3.6 4.4-5.5 6.7 5.5-.8 9.5-1.3 14.9-.7 3.5-3.7 7.3-7.7 8.7-10 2-2.5 4-5.3 2.6-8.7-.4-1.6-1.4-5.4-.5-7 5.4-9.4 3.5-14.2-.9-8.8-.7.8-.4 2.4-1 3.8-.3.1-.3 0-.4.2zm4.2 42.6a18 18 0 00-9.5 9.9c1.9 0 3.3-.2 3.3 0 .9.5 4.6-2.3 5.5-1.8 5.6.8 7.1.9 11.6 1.2a5.3 5.3 0 014.1-2c.9 0 .4.2 1 .3.8.3.9-.3 1.2-.8.8-1.3 1.8-1.5 3.2-2l1.1 3c1.3-.1 2.4-.3 3-.6-.6-.6-.1-1.2.1-2 1.6-2-6-3.2-4.3-3.2.4.3 1 .6 1.8 0 .9-2 2-2 3.1-2.4-.2-.4 2 2 1.9 1.6-.1 0-2.6-2.9-2.5-3 1.7 1.6-13.9-4.1-24.6 1.8zM282 169.5c-.6.3-1.8 1-2.5 1-2.6.6-3.5-.1-5.6-.3l.8 7.6c1.5 2.6 5.7 3.2 6.8-.1 0-2.8.4-5.5.5-8.2z" class="fil2"/><path id="path28" stroke-width=".1" d="M278.6 180.3c-.6.3-1.1.1-1.5 0v3.9l1.3-1.8z" class="fil2"/><path id="path30" stroke-width=".1" d="M395.6 161.6c1.4.8 1.6 1.9 1.4 3.5h.8l-.2-4.5-.6-2.2c.5 1.4.1 3.2-1.4 3.2zm-6.5-5.3c.5.4.8 1.1.9 1.8.6 0 1.3 0 1.8.2.5-.7 1-1 1.1-1 0 0 .8-2.2 2.7-.9l.2.2-1.5-1.2c-.5-.2-1.4 0-2.1.2-.7.3-2.3.8-3.1.6zm9.3 29.6l.7-.8h-1c0 .3.2.6.3.8zm3.1 5.2c-.3-2.6.3-1.1-1.1-3.7l-.7.8 1.8 2.9zm-7.9 24.3l-.4-2.2.3-.2c1 1.5 1 1 .1 2.4zm2-3.6l-2.4-4c1.3-.6.6-2.1.6-2.5l.2-1.6c.2-.4.6-.7.8-1.7 2 2.8 2.3 4.5 1.3 8.2zm5.5 8.7l-3.4 5.1-.4-.7zm5-7.7c.8-.1 1.4-.7 1.8-1.3l.3.3-2.4 2.6zm-12.6 27.6a21 21 0 002.6 3.3l-.7-4.8c-.2 0 0 .2-.2.6l-.6.7zm-3.2-4.5c.4.4 1.2.6 1.5 1.2.3-.5.4-.5 1.3-.7-.6-.8-.5-1.9.1-2.6-.5-.2-1-1-1.4-1.5zm-12 27.9c1-.3.8-.4 1.7-1.4l-1.9.7.2.7zm3.5 2.6h1l-1.1-.7h-.4l.5.7zm3 .8c.1.6 0 .9-.4 1.4.5.8.5.6.5 1.6l1.6.1c.2-.2-.6-.7.2-1.2l1.5-.8c-1.4-1-2-.8-3.5-1.2zm-9.6 1.1l1.6.4.3-.9h2.1l1-1-.4-.4c-.5.4-3.5 1.5-4.5 1.9zm-5.2-.9l1.2-2.1-.9-1.5c-.5 1-.5 2.5-.3 3.6zm26.1-5.9c-3 .3-5.9 1.1-8.9 1.8l3.7.5c1-1 1.6-.7 2-.7.3-.1.5-.4 1 0 .7-.4 2-1 2.9-.7zm-36.4 17.6l.1-.2-.5-.2c-.8 2.3.8-.9.4.4zm11.2 1.5l.3.6c.3.7.6 1.2.4 1.9 2.2 1.6 2.5 4.6 2.3 7v1c0 .9.1 2.3-1.6 2.5l-2-.5s-.6-1.5-1.7-2.3c-1 .4-2 .9-3.2-.3l-2.3-4.1c-3 .7-4.5-4.7-4.5-4.7l1.1-2.6c-1.7-.1-2.1-.1-3.5-.8.6-.7.9-.7 0-2.2-.7-1.6 1.8-2.5 2.7-2.8-.8-1.6-1.1-1.8-2.6-2.3-1.4 1.2-1.4 1.6-2.3 1.6-.3-.8-.2-.6 1.3-2.3l2-2.7v.1l.1-.2-.1 1.4 2.7-.4c.3-2.2 2.5-5.2 4-2.8l1 2.2h.6c-1-1-.8-2-.8-2.1 0 0-1.7-1.9-.3-2.8-1.3-1.8-1.1-3.5-.5-5.5l7-1 .3-1.4c3.6-1.4 4.5-3.1 7.3-4.5 1.3-.5 3.2-1.5 4.1.2.5.8.2 1.4-.1 2.1.9 0 2.2.2 2 1.6-.1.7-.8 1.3-1.4 1.8 1.8 1.3.8 2.8-1.3 3.4l-1.3.3c.1.4.4 1.3.1 1.7l1.2-1.2c.6.6.8.9 2 .8 1.5 0 2-.4 3.3-.9a35 35 0 016.3-1.4l-6-6.6c-.8-1-1.7-2.1-2.4-3.3-1.4-1.9-3.1-3.7-3.2-6.5-.1-2.1 1.3-3.9 1.4-7.4 0-1.9-.7-2.3-1.7-4.3-.8-1.6-3.5-8-1-9.2.9-.4 2.1.4 2.7 1.1l-.5-1c.2-.9.5-1.4 1.4-1.6-.8-1-.9-1.7-.4-2.7h.2c.1-1-.2-1.5.7-2.7.2-.4.2-.4.8-.6 1.9-.7 2.9.5 3.5 2.2 1.3-1.5 2.6-.7 3.1.9l-.8-2.4c-.2.2-2.8 0-3.7-1.1l-.5-.6c-.3-.3-1.6-.3-1.9-1.2v-.6c-1.6-.2-3.3-.3-2.8-2.5l-3.1-4.3 2.6-1.8-.1-4.6c.7.2 2 .4 2.5.8a2 2 0 01-.4-2c-1.9-1.5-1.5-4.3.5-4.2a2 2 0 012.8-.7c-2.2-3-3.9-5.7-2.9-9.6 1-3.6 3.2-4.2 5.5-6.5-.6-.2-1-.5-1.2-1.2-2.3 1-4.6-.2-4.6-1.8-1.4-.5-2.1-.9-2.8-2-.5-.8-1.6-2.2-.6-3.5l.6-.5c-.2-.6-1.2-1.3-.5-2.9.3-.8.5-.9 1.6-1.2-.1-1.3.7-1.6 1.4-1.9-.2-.7-1.6-1.7-1-3.2.2-.4.2-.4.6-.6.8-.4 2.2-.5 3 .1.4-.8 1.1-1.6 2-1.4-.7-.7 0-2.1.3-2.8-2.4.2-3.4-1-3.2-3.4-1.3-.8-6.3-3.7-3-5.6-.5-1.3-.5-2.7 1-2.9-1.3-3.4 1-5 3.6-2.4l.8-.4c-.3-1.7 1.6-2.3 3-1.9-.4-1.8 1.6-5.2 4.2-2.2.4.4.5 1 .5 1.5 1.2-1.1 3.7-1 3.3 2.8 2.6-.5 2.3 3.4 1.2 4.7l-.5 1c3.2.2 1.6 3.7.7 5.3 1.6.5 1.5 2.9.2 4.2-.3.4-1.4 1.2-2 1.3l.2.5c.5-.3 1-.5 1.6-.3.8-1.8 2.4-2.3 3.2-1h.1c.6-3.7 4.7-2.8 4.4.9l.5-.4c-1.8-3.5 1.7-5.8 3.9-2.8l.7 1.2c2-.7 4.1 1.1 2.6 3.6-.8 1.3.2.8.2 2.6l-.2 1c5.3-.2 7.2 6.4 1.4 8.7 0 3.5-4.7 2.8-6.5 2.7-.2 1.4-1.2 1.7-2.6 1.9H406c0 .5-.6 1.9-1 2.3l-.9.8.1 1.6c.9-1 2.4-2.3 3.5-.9 1.8-3.8 5.3-3.1 4.9.1.8-.6 3.3-2 3.7-.4v.1c3.4-.1 6.7 4.4.7 6 1.7 1 1.1 3-1.6 3.6v.3c2.4.3 3.4 1.3 1.8 3.5 2.8 1.2 3.3 4.7-.8 4.5 0 3-1.5 3-3.6 1.2-1.7 1.9-3.4-.1-4.3-1.7-2 1.7-3.3-.8-3.9-2.5-.4.5-.9 1.1-1.5 1.2l2.7 3.8c.6-1.2 1.8-1.4 2.5-.7 2.3-.3 5.8 2.4 2.4 4.6l-1.6.7c-.5.5-1.2.8-1.9.5.2 1.3.3 3.2-.2 4.4 1.5-.1 2 1.7 1.6 3.2l.1.1.6-.5c-.7-1.3-.3-4.4 1.8-3.5-.1-1.1-.2-3.5 1.5-3.7l.6.1c0-2.6.2-2 1.3-3.2.2-.2.4-.3.9-.3l.8.2c.5-2 2.5-3.3 3.9-1.2 3-1.6 3.8 1.5 2.6 3.2 1.8.6 1.9 2 .4 3.3 1.4.1 1.6 1.5 1.6 2.7.8-.3 1.1-.4 1.6-.2.3.2 2.5.1 1.8 3.4a4 4 0 01-1.8 2.6c-.3 1.3-1.3 1.6-2.5 1.3.3.4.4.5.4 1.4-.1 1.6-1.2 2.1-2.7 2-.7 0-1-.5-1.9-.9-.9 1.7-2.8.8-4.1.1l-1.4.3c.3 1.4-.1 1.9-.2 2.4 0 .3.1 1-.8 1.7-1.5 1.3-3.5-1.1-3.9-2.3-.1-.6-1.9-.9.6-3.2l-.9-.6a82.5 82.5 0 00-7 8.7c1.1-.7 1.4 1 1.7 1.4l.6-.2c.2-.8 1.1-1.6 2-1.8 1.5-3 5.1-1.4 5.2.7.1.9-.5 2-1.1 2.6v1.1l1.1.3c1.1-1.2 2.8-1.2 3.1.7 2.3-1.1 3.8-1.5 4.4 1.4 1.3-.1 1.4-.7 3 .3 2.4 1.6 0 5.2-1.4 5.6-.5.2.4 1.2-.8 2.8-.9 1-2.3 1-3.5.7l-1.6.8c1.4.6 2.4.6 2.9 3 1.3.5 2 2 1.6 3.3-.4 1.6-.2 0 0 1.9.1.7-.3 2.5-1.2 3.2-1 .8-2.9.6-3.1.4l-1.2-1.1c-2.5.4-2.7-1.5-2.9-1.5-1.6 2.5-4.4-1.1-5-2.9l-.1.4c-1.9 1-2.8-.4-3.9-1.9l-2-3-.6.6v1.5l-.3 3.3 2.6 2.9 2.4 2.2 2.2 2.8 3.6 4.3 1.7.3.1-1c-1.7-.6-2.2-2.6-.4-3.4.1-1.4.5-3.3 2.4-3.2 2 .2 2.4 2.2 1.8 4 1 1.3 0 2.8-2 3l-.2.8h.8l.2-.8c3-.6 1.8-1.5 3.1-2.5.5-.3 1-.3 1.3-.5.2-.2.6-.3.9-.1.5-.5 2.4-1.8 3.2-1 1-.5 2.1-.7 2.9 0 1-1 2.2-1 3.5-.4.3.1.5.5.6.8 2-.7 4.3-.4 4 2 .8 0 2.6-.3 3 .5.6.9 1.8 1.8.1 3.5-.7.8-2.7 2.4-3.7 2.4-1.7-.1-1.1-.5-1.8.2.2.6.1 1.4-.1 2 1 1 2.1.6 2.4 1.6.1.8.2 1.6-.5 2.2l-.7.4c2.2 2.6-.2 4.5-2.2 3.5l-1.4-.8c-1 2.5-3 2.4-4.4-.2-1.7 1.1-4.2-.1-4.6-2.6-2 1-3.8-1-3.5-4-1.8 1.8-4-1.3-3-3.7l-1.5-.2c2.1 3.4 1.7 3.6-1.6 5.7.4.3.4.5.5.7.2.5 1.1 1.6-.1 2.8 1.1 1.1 1.3 2.3 1.1 3.9-.5 4.4-4.8 2.2-5.6-1.6v-.2l-.8-.2v.4c.8.8 3.3 3.6.7 4.1H404l-.7 1.3h-.9c1 1.5 2.3 4 .9 5.6-.8.9-1.9.5-2.7 0-2.4 1.5-4.1.5-5.5-1.7-1.2.4-2.1.1-3-.7-.4-.4-.4-.6-.7-1.3h-3.6c-.2 0-.3.2-.9 0-1.4-.2-3.8-2-4.7-1.7l-2.6.3c.7 1.5.3 5.7-2.2 5.1-1.6-.4-3-2.8-3.3-4.5l-3.3.2zm29.8-121.1c-.7-.6-.9-1.6-.8-2.5-.4 0-.5.3-.7.6 1.1 3.2.9 2 1.3 5.5.1-.2.3-.3.5-.3l.4-1.6.6-1.4c-.5.1-.9 0-1.3-.3z" class="fil3"/><path id="path32" stroke-width=".1" d="M402.1 176.8l-1.1-.7-.1 1.4.7.2zm12.1 89.1c-.8-.6-1.2-2.2-.6-3.3.6-.1 1.8.4 1.8 1-.1.8-.6 1.8.4 2.4-.5.5-.9.5-1.6 0zm-37.5-9.1l2.9-3.9-2.3 4.2 3.9-1-4.3 2-1.9 3.1 4-.5-4.3 1.3-2.6 3.2 1.9-3.5-.5-3.1 1 2.4 1.5-3.4.5-4.3zm-6.4 11c.7-1.3 1.8-2.6 1.3-2.8.6.3-3-3 0-4.3-.7-2.9-.2-3 .1-5.3 3.1-1 4.9-3.6 7.9-4.7 2.7-1.5 4 1.3 1.8 3 2.9-1 4 .7 1 2.6.9.2 3.4 2.5-2.5 3.3 1 2 .7 2.6-2.5 3.2.4.4.5.8.5 1.1l-3.4 1.1h-1.1l-.1.5c-1.7.6-1.7 1-2.2 2.3zm25.3 3.5c1 1.4 2.3 1.8 3.9 1.8l.1.1-2 .1-2.9-1.1.9-.8zm-14.7-1.1c2.1.4 5 .6 5.9.6.8-.8-.5-1.1.3-1.4l1.6-.8c1.1.8 1.6 2.6 3.4.3 1.4 1 2.2.2 2.6 1.1l.7 1.2h-.2v.1l-1.2.8-5-1.1 2.2-.6c-2.4.3-2.2.3-4.6.9l1.8.2 1.3 1.7-.8-1.7 5.2 1 1.7 2.3-1-2.1 3.2 1.3 1.7 2.5-1.2-2.4 4 2.6-3.5-3 .8-.1c.5-.1.3.2 1.3.5 1.5.4 2.5-.6 3.1-.9l.5.1-.1.7c1.4 1.4 3.9 4.2-.7 3.5l-.8 1.3c-1.5-.1-5.2-.1-5.7-1.9-2.5.6-4.6-.2-6-2.7-1 1-2.6.8-4.4 0-.2-.2-1.5-1.5-3-2.4-1.1-.8-2-1-3.1-1.6zm-2.2-2l-.4.9-1.1-.3.2-.5zm30.2-71.2l1.1.3c3 1.3 1.5 3.3-.5 3.9.6-1.3.3-3.1-.6-4.2zm-1.7-.4c2.2-.3 3 5 .8 5.4-.3 0-.5 0-.8-.2l-1-3.4-.2-.6c.3-.6.7-1.1 1.2-1.2zm8.2-40.3c1.1-2.3-1.6-4-3.8-1.6-3.4 0-4.2 1.2-5.6 4.3-1.7-1.2-4 .3-4.2 3l-.4 1.2-.8.3c0 .7-.8 4.3-1 5.2l.6.3.8-.8c1.3-1.2 1.5-2 2.9-3.1.6-.8.3-2.6.5-3.6-.1.7.2 2.5.1 3.3l2.2-2.2c.4-1.5.2-2.8.6-4.3l.1 3.5 2.1-2 .3-2.6c0 .5 0 1.4.2 2 .7-1 2.8-2.6 3.5-3.6-.7 1.3-2.6 2.9-3.3 4.1l3.4-.5-3.9 1.2-2.3 2.4h3l-3.3.6-2 1.6c.7 0 2 .4 2.8.4-.8.1-2.3-.1-3.2 0l-4.3 3.7.9.7a9 9 0 001.7-1c1-.2 2.3 0 3.1 0 1.8-.1 2.2-1.6 2-2.4 2.3-.3 3.7-.2 3.5-2.6.1-1.4.8-1.6 1.4-1.6 2.5-1.1 3-2.9 1.8-4.5 0-.7.2-.7.6-1.4zm-5.4-5.1c1 0 2 1 2.5 2.3l-1 .7c-.1 0-1.5 0-2.7.5-.8-1.6-.3-3.6 1.2-3.5zm-4.3 1.2c1.7 0 2 2.8 1.7 3.3l-.8 1a3.2 3.2 0 00-2.6-2.4c.2-1.1.9-1.9 1.7-1.9zm-2 2.3c2 .1 3.3 2.5 2 3.6-.8-.3-1.5-.2-2.2.1.5-1 .7-2.7.2-3.7zm-9.7 1.9c.6-.3 1.5.2 2.1 1 .6-.3.8-.2 1.2 0l.8-1.9.3.7c1-.8 1.6-.8 2.1-.5 1-3.1 3.6-2 3 1.2-.7 3.3-3.6 2.9-3.2-.4-.6-.4-1.2.1-1.5.9l.9 2.8.4 3.4-1.4 6.5h-1.3c1.2-4.3 1.2-8.1 0-12-.2-.4-.5-.4-1 0 1.4 2.9-1.4 4.1-2.8 1.2-.6-1.2-.4-2.5.4-2.9zm2.7-18.8l-1.5 3.3.4 1.8.6.5 2.4-2.6-2.1 3c.9 1.1.7 2.8.2 4.1l.8.2 2.2-2.1-1.8 2.3c2 1.4 1 4.5.6 6.3a5 5 0 001.6-1.1c1.7-2 .5-3.8-.6-3.5 4-6.4-1.3-5.1-1-5.2.4-.1 1-1.6 1.2-1.7 1.2-2 1-5-1.5-3.8 1-3.7-1.5-4.7-3-2.4-.5-.2.3-1.6-.8-2.5-2.1-2.3-3.6 1-3 2.3 0 .1.6.3.8 1a4 4 0 011.5 1.2l-.8-3.5 1.8 5.2zm-9 5c-1.1-.7-2.1-3.5.7-4-1-2.7 3.8-2.2 3.3-.8 1.5.2 3.8 3.1 2 5.5 1.3-1.1 4.3.6 2.3 4.8 4.4-.1 2 5.7 1.9 6.9l-.8 1.7c-4.4-3-6.2-4.8-4.5-6.6-3-.3-3.3-1.8-3-3.7-1.4.8-3.5-1-2-3.8zm1.9-4.2l1.8 4.8 1.6-3.3-1 4.3 1.8 3.3 1.2-3.1-.7 3.4 1.5 3.3 1.4-1.5-1.1 2 .6 3.5-1.1-2.7-2.4-1.4 2.2.7-2-3.5-3.3-1.4 3.2.7-2.5-4.1-3.3-2.1 3 1.3zm-5.4 3.2c-1.8-3.3.1-5.2 2.5-2.6-1 1-.5 2.9.4 3.8l-.2.5-2.1-4.1 1.5 4.6-2.7-.6 2.8 1c.6.5 0 1 .9 2l-3.1.4 3.8.2c.3.1.9.2 1 .6 0 0 0 1.3.7 2l-2.6 1.2 3.9-.4.7.3c-.3.6-.2 1.2 0 1.8l-.2.3.5.4-1.7.7 2-.3 1.4 1.4c-.6-.1-1.1 0-1.7.3-3.6 1.3-4.5.4-2.4-2.8-2.5.5-4.1 0-3.6-3-3.8-2.1-5.6-4-3.1-5.2-.8-2-.2-2.8 1.3-2.5zm31.2 19.2c4.6-.7 7.4 5.7 1.2 7.9.3 1.6-1.2 2.9-4 2.6l-2.6-.1c.4 1.3-.5 2-4 1.9-.2-1.7-2.2-1.5-3.4-1.1-.3 0-1 .9-1 .4-.5-.4.6-1.6 0-2.4l1.3-.7 4.7 1.8-3.5-2h-1c.8-.6 4.3 1 5.3-1.7l.6-.1 4.8 1.5c-.9-.5-3-1.4-3.8-2 1.3-.3 2-.8 3.3-1.2 1.2 0 2.6.4 3.7.5l-3-1 3.5-2.2-3.8 1.7c-.2-.8.3-1.7.2-2.5l-.8 2.6-1.2.5c.4-1.1-.2-2.6 1.1-2.8.8-.1 2-1 2.4-1.6zm-24.8 4.7l1-.3-1.7-1.4-2.6-.1v.3c1.5-.2 2.6.2 3.3 1.5zm2.6 2.8l-.1-.4c-.5-.3-1.2-.7-1.9-.3l-.1-.4-.3-1.4 1.3-.1 2.8 1.5-1.7 1zm-9.2-8.1c-.8-1-1.2-1.7-.7-2.6.9-.6 3-.7 3.1.6.9-3.1 3-2.4 3.3.3 1.8-.4 3.2.2 3.5 2.9.3.3 0 .5.4.9 1.2-1.2 3.5-.7 2.9 3.2a7 7 0 011.3-.1l-.1 1.3-2.2.4-1.2-.9-1-3.4.4 3.3-2.1-2-1-4.2v3.6l-5.2-3.3 3.8 3-2.1.3c-.6-1-1.8-1.2-2.6-.6-.4-.4-1.2-.4-1.7-.3-.2-1.7 2.1-.7 1.2-2.4zm9.3-.5c.3.7.8 1.2 1.5 1.5-.4 0-.7.1-1 .3l-.2-.3zm-1.1-1.3l.6-.7.3 1.7zm-10.8 7.8c-.8-1-.5-1.7 0-2.6 1-.6 2.9-1.1 3 .2.7-1.4 2.4-.7 2.7.7 1.8-.4 3.2.2 3.5 2.9.3.3.1.5.4.9.6-.6 1.2-.4 1.7-.1l.1 1a9 9 0 00-1.5 3.1l-.5-.3-1-3.4.5 3.3-2.1-2-1-4.2v3.6l-5.2-3.3 3.8 3-3.8.5 4.5.1 1.7 1.4-3.2.9 3.7-.4 2.5 1.4c-.4 1.5-.1 1.7-1 2.6-1-.3-1.2-.8-1.1-1.6-2.5 1.5-4.9.2-4.6-1.4-1.6-.4-2.5-1.1-2.9-1.9-1-1.2-1.3-2.6-.3-3.3.5-.2.5-.4.1-1.1zm21.4 6.2l.4-.1c1.9-.4 3 .2 2 2-.1.9-.6 1.4-1.2 1.9-2.6.9-3.6-.6-2.4-2.7l1.2-1.1zm4.5 11.1c-1.8-1.2-1-1-3.3-1 1 .2 1.8.8 2.3 1.8zm1.5-.5l-1.8-.6.8.9zm-8.7.3l1.3-.2-1.2.6c-.1.3-.9.5-.9.8l-1.4-.1zm4-4.1c1.4-2 2.9-2.9 3.6-1 2-4.8 5.9-3.4 4 .8 1-1.6 4.5-3.3 4.2-1.3 3.4-.7 7.4 4.7-1.1 5.2 3.5.2 3.6 2.8.5 3.4-.8-2-2.4-2-4.2-1.2-.3-.6-.6-1.3-1.1-1.7l3.7 1.3-4.5-2.5 7.9-2.2-8.8 1.6 2.3-3.4-3.3 3.4-2.1.2 1-3-1.8 3-2.4.4h-1.7c-2 1-2 0-.9-1.8 1-2 3.8-4.2 4.8-1.1zm-3.4 4.7c2.5-1.3 4.5-1.4 5.4 1 1.8-1.5 3.6-2.5 4.7.8 2.6-1.2 4-.6 4.2 1.8 3.5.3 2.8 1.7 1.5 3.2 3.3 1.2 3.4 4.5-.5 3.8.2 2.9-.9 3.3-3.1 1.1-1.7 2-3 .4-4.3-1.7-1.5 1.6-2.8.7-3.7-2.8-2.1 2.9-3.1 2.1-3-2.2l-1.5-2.6-.3.4-.7.9-.7-1.4 1.5-1.8 2.6 1.5 1.2 3.3-.7-3.3 2.3 1.9 1.3 4.2-.3-3.7 3.6 2.3 1.6 3.9-.7-3.3 4.8 1.7-4.2-2.3 2.9-1.1-3.1.4-3.4-1.3 3.9-1.3-4.7.7-1.8-1.3 2.7-1.5-3.2 1-3.7-2.2zm35.6 74.5c-.1-1-1.8-.4-3.3-.5.7-3.1-2.2-2.5-3.5-2.1-.4.1-.5-.9-1-.8-1-.6-2.4-.3-3.1.8 0-.1-.7-1.6-3-.3-.4-1.2-3.1.8-3.2 1.4-.2-.5 0-.9-.7-.3-2.3.1-1 2.4-4.1 2.8l-.1.6c1.2.1 4.6-.8 5.4-.6.7.2.8 1 .8 1.6 2.1-.3 2.3-.4 4.6-.2l-1.7-1.1-5.7-.5 5.9-.5 2.4-2.2-1.3 2.7 4.3-.3 2.4-1.6-1.3 1.8 4 .9-4.4-.3-.9.2 2.6 2.4-3.8-1.9h-2c1 1 .5.3 1.2.8.8.6.9 1.3 1 1.4v.4c.9-.1.4.1 1.2-.1a2 2 0 012 .7l.2-.3c.8-.4.8.1 1.8 0 .6.1 1.5-.7 2-1.1 1.3-1 3.2-2.2 1.3-3.8zm-23.4-3c-2.8-.3-3.6 2.3-1 3l-.1 1.3.8.1.2-1.2c3 .2 3.2-2.9.1-3.2zm-1.4-.3l.1-1c.5-2.5 4.2-2 3.3 1.6-1-.7-2.2-1-3.4-.6zm-5.3-15.7c1.5.7 2.9 1.7 4 2.9l4-.1-3.5.9 3.2 2.6 2.7-.5-2.4 1 2.8 3.4-3.4-3.1-.4 2.2-.1-2.6-3.6-3.3-.2 3.2-.6-4.1a6.6 6.6 0 00-2.5-2.4zm7.6.7c2 .8 2.9.7 3.3 3.2 1 .3 2.3 1.6 1.4 3.6-.1.6.5 1 0 2.5-.4 2.2-1.8 2.2-3.5 2l-1.2-1.2c-1.1.2-2 0-2.5-1-.1-.4-.4-.6-.9-.4-.6 1.2-1.7.9-2.5 0-.9-1-1.7-2-2-3.1-.1-.4-.3-.4-.5 0l-.2.7c-.6.4-1.5 0-1.8-.3-1.4-1.6-2.2-3-3.2-4.4.9-.3 1.9-.8 2.5-1.5.4-.5.4-.7 1.4-1.2.5-.2.9-.2 1.5-.1.5 0 1.9 1.6 4 .3.9-.6 1 .6 3.3.9zm-23.6-39l-1.2-1.7-.5-.2c.2.5.2 1.1 0 1.7.5.6.6-.2 1.7.2zm.9 1.5l-.1-.3v.2h.1zm-6.4-9.4c.4-1.4 2.8-1.8 3.4.9l.5-.1 2.2 3.4c.6.8.8.4.9 1.2l.9.6 1.7 2c0 .7-.1 1.4-.6 2.1l-.3 1.2c-.2-.3-.6-.4-1-.4-.5-1.7-.8.3 0-4.2l-1 2.2-1.8-3.3.4-2.8-.9 2.3-1.8-2-.3-2.7-.2 2.3-2.4-2 2.2 2.5-1.6.6 1.7-.4 1.9 2.1h-.5s-1.7-2-3.4-.3c-.5-.5-.6-1.1-.2-1.7-2.3-1.5-1.3-4.2.2-3.5zm14.9 32.7c.1 2.5-2.7 5.3-2.1 7.1 1-.7 1 .2.8 1.8-.1.7.4.5 0 1.3 1.7.6 2.4 2.2.7 4 0 .8-.3.6-.3 1.2 0 1.4 0 3.4-.3 5.4a10 10 0 01-1.3-2.3l-.5-.5-.8-6.3c-.5-.5-.1-1.2-.6-1.7.2-1.5-.5-2.5-2-2.8a7.7 7.7 0 01-1.6-2.4c-.5-.5 1.8-1.8 1.1-2.3-.5-.4-1.5-.8-3-.8l-1.6-.5c-.6.6-1.3 1-2 1.1v-.2l-.5-.3c-.4-1.1-.3-2.3-.7-3.3h.2c1.6.6 2.2.5 2.9 1.9 2.4.2 4.8.9 6.5 2.7-.2-1.5-.9-3.5-3-2.7l-2.7-.2c-2.2-2.1-3.6-2.1-4.3-2.3l-1.2-2.3c.2-1 1.2-1.5 2.7-.6-1.3-.9-2.5-2-2-3.2 1.2-.2-.3-1.1 1.2-3 1.7-.9 2.9-.4 3.6 2.6 2.3-4 3.9 1.4 2.9 3.3.9 1 .8 2.6.6 4.2l2.3 1.4c.5.6.6 1.3.5 2.3.9 1.2-.9 3.2 0 4.4 0-.6.3-1.1.2-1.7.7-1.7 1.5-4.3 0-6l-.6-11.4-2.9-4.3c-6.3.4-3.7-.7-7-2.3l-2.4-1.2-.1-7.3c1 .3 1.8.2 2 1.1l.6.1c-.5-.7-.1-1 .4-1.4.5-.2 1-.6 2.1.2.9.5 1 1.3.7 2.2.3.7.7.8 1 .6 1-.3 1.6.2 1.4 1.3 1.3.5 1.5 1.2 1.6 1.9.8-.5 1.5.2 1.5 1.8-.2 1.2-1.1.3-.7 1.5l3.2 5.2c.7 3.4.8 6.8.3 10.3l1.2 2.9a95.6 95.6 0 0111.2-14.7 2 2 0 00-1-1c-1.5 2.7-3.7 1.2-2.6-1.7 1.2-3.1 3.9-2.3 3 .8l.6.8c.3.7 1.4-.9 1.2-1.1-.8-.9-.6-1.8-.4-2.6.6-1.7 2.3 0 2.1-.1-.2-1-.6-4.2 1.1-4.2l1 .2c-.2.1-.3-2.1.1-2.5.3-.4.8-.7 1-1.1.9-.3 1.4.5 1.7.3.2-2.3 2.5-3.4 3.3-1.1 3.4-2.3 3.5 2 1.9 2.9 1.6 0 3.1 1.2.4 3 .1 1.5-.3 3.5-2.6 3.7-.9 1.1-1.9 2.7-5.2 2.4-1-.2-1 .2-1.4.3-.8 1.3-1.9 1.6-3 1.4l-.1.4c3 .5 3-2 4.3-1.7h1.2l-.3.8-5.5 2.8 5.7-1.7 5.5 1-3-1.6 2.1-.7 4.3.6-3.5-1.3.7-.6 4.5-1.4-4.3.7.6-2.2-1.7 2.4-4.1 2v-.8c1.6-.3 2.5-1 3.4-2.3 2-.3 2.9-2 2.9-3.8 1.3-.1 1.7.8 1.6 2.2l-1.4 1c1.5-.4 3.4-1.1 3.1-.7 2.9 0 1.9 4.4-.1 5.2-.1 1.8-1.8 1.4-3.6.6l1.4 1.6c.3 1.9-.6 2.6-2.5 2.3l-1.8-1c-.5 1.7-2 1.4-3.9.2-2.9 1.2-4.6-.6-6.6-1.6-1.1.8-4.6 4.8-9.3 11.4zm-16.4-25.6l2.9 2.7.5-2.8.2 3 .8 1.3 1.5.7-.2-2.6 1 3 2.2 2.9-2.4-2.2-4.7-.4 3.6-.5-1.8-.8-1-.8-2.9-1.2 2.2.3zm-3.3 4.3l2-1.4.1 3.1c1.5.7 3.6 1.5 4.6 2.8 1 1.2 3.4.9 5 .8l1.6 2.5-.4.5.4 2.8-.7 1-1-2.8-.4.4c-1.9 0-3.1-.5-3.7-1.7-1.6-.3-2.1-.8-1.5-1.8-2 0-3.6-.2-3-2.2l-3-4zm33.5 1.8l-.1-2.4.9 1.9 3-3.3.8-3 .3 2.4 3.8-2.2-3.7 2.9-.5.8h3.8l-4.5.5-1.9 2 3.8.4-4.9.5-3.8 4.3zm-27.5 9.8l2.7 3.3.9-2-.7 2.8 1.3 1.9.5-2-.1 3.3 1.3 2c-2.5-2.6-1.4-1.8-4.5-3.4l2.4.9-1.4-2.5-2.8-1.6 2.9.9zm17.7 9.4c-.6 0-.7-2.5-1.6-1.5l-.4-.2-1.5 2.1a6 6 0 01-.8 2.7c-.4 1-1.4 2.7-1.5 3.7 1.6-.4.9 2.4 1 2.8v.6a3 3 0 011.4 1.3l.4-2.5-1.3-2.2 1.8 1.5.6-3.4-.8-2.1 1.2 1.3 1.4-3-1.1 3.4v.7l2.4-1.6-2.1 2.6-.4 1.5 2.1-1.2-3.1 2.9-.9 2.9c.1 1.3-.8 2.2-1 2.5l-.3.9v.4l1-1c1.2-.1 2.3-.8 2.5-2.5.2-.3 0-.6 1-.9 2.9-1.2 3-3 3.3-4.2 1.8-1.2 2-2.4 1.3-3.6-.2-.9-1.7.7-1.5-.2.3-.5.6-1.2.4-1.8-.5-1.5-1.4-3.1-3.5-2zm9.9-6.4c.2 1-1.1 2.7-2.6 1a3.3 3.3 0 01-1.3-2c-1.1-.5-.6-1.3.7-2.5 1.2.8 2 1.2 3.4 1.3.2.6.2 1.4-.2 2.2zm-8 4.6c1.1-.8 2.4.1 3.4 1 .7.8 1.4 1.9.9 2.8 0 0-.8.3-1.3.8-.2.3-.4.4-1 .3.5-1.6-.8-4-2.5-4h-.3l.9-.9zm1.3-.7c1.4-2.9 6-.6 3.4 2.7a5.5 5.5 0 00-3.4-2.7zm14.2 7c-.5-.4-1 .2-2.4.1-.5-3.3-2.2-2.1-4.5-1.1.4-1.5-1.1-2.7-2.6-.8-.9-.8-2-.3-3 .8.2.2.6 1.3.5 1.9-.1 1-.9 1.8-1.7 2.4-.7 4.2-3.8 4-4.2 4.7l-.4 1.3c.4-.7 2.4-1.3 3.3-.9.9.8 2.2 1.2 3.6.2.3 0 .5-.3 1.3.2 2.8 1.5 4.2.4 5.3-.2 2.1.6 3.2-.1 3.6-1.4.6-.6-.4-1.5.5-2 1.5-.5 3.8-4.1.7-5.2zm-10.1 4.3l1.5-2.9-.3 3 3.9-1.8 1.7-2.3-.6 2 4.1-.5-4.3 1.3-.7.5 3.3 1.3-4.2-.4-1.8.7 2.8 1.3-5.2-1.2-5.5 1.6zM394 237c.3-.6.6-.3 1-.3v.4c.1.9.3.4.3 1.3l-.4.4c0 .4-.2.6-.6 1l-1 .1-1.2-2.4.3-.4c.8-.3 1.3-.3 1.6-.1zm-.3-3.1a2 2 0 00-.2 2.5h.3c.3-.2.6-.2.9-.2-.1-.1.5-1.6-1-2.3zm28.6 30.9l3.3-.9-2.5 1.8 4.1 1.9 3-.3-2 1 3.3 2.9-4-2.6-.9-.1 1.2 3.5-2.6-3.6-1.8-1 1 3.2-2.8-5-5-3.2zm-38.4 3.6c-.2.4.6.6.6 1.8-.9-.1-5.2-.6-5.2-1.1a2 2 0 011.3-1.9l.5-.1c-2-2-.8-1.3-1.9-.9a94 94 0 00-4.8 2l-2.6-.4h-.8l1-.6c.2-1 6.8-2.8 7.3-3.4l2.6-2.6c.6.6 1.8.8 3.6.4 10.3-4.5 20.3-1.8 28.9-1v.1l4.6-.7c.9-.2 1 .5 1 1-1.7 1-.7.9 1.5.5 1-.3 2.3-.2 3.6 0 1.1-.1 2 .4 2.3 1.5 0 .6-.5 1.2-.6 1.2-.1-.1 1-.8 1.6-.6.4.1.8-.2 1.3 0 1.3.1 1.3 1 .8 2.8.9 1.1 2.5.8 2.5 1.4.3 1 0 2.6-2.1 2.1 0-.5 3.6 3 .5 3.7-.7.1-1.3-.2-1.8-.6-1-.4-.4-.4-1.3-.4-.7 2.1-2.4 2.8-3.9-.5-1.5 1.5-4.3.5-4.4-2.7-2.1 1.8-4-.6-3.3-3.6-1.8-.5-.8-1.2-.8-2.5-.4-.7-1.2-1-2-1.3-.6.1-1.9 0-3.6-.2-.6 0-1 0-1.4-.2a51.2 51.2 0 00-17.5.2c-3.3 1-5.7 1.2-5.5 1.6 1.4.6 3.5.4 5.2 1 .4-.6.8-1 1.9-.9.8-.4.5 0 .6.5.2-.6 3.3-2 3.5-.7 2.4-.8 2.8.7 2.7.9 1-.9 2.5-1 3.4-.1.4 0 .3 1 .8 1 1.2-.2 4.2-.2 2.9 2.8 1.4.3 3.2.2 3.1 1 1.5 2-.6 2.9-2 3.5-.6.3-1.7 1-2.2.7-1 0-1-.6-1.8-.4-1.1.9-2.8 1.6-4.2 0-1.3-.1-3.1 0-4.6-2.8-.8-1.7-1.7-.3-3.1-1.7l-.3.2c-.1 0-1.1 2-2 .6-.3-.4-2.5-2.2-3.9-2-4.4-1.2-4-2.2-4.1-2-.7.6-.6-.2-1.3.4.4.4.8 1.1 1.1 1.6 1.4-.2 3.6-.2 2.3 1.4zm13.6-1.7l2.8-1.7-1.8 2.3 4.3.7 2.6-1-1.6 1.4 3.7 1.7-4.3-1.3-.8.1 2 3-3.3-2.8-1.9-.4 1.6 2.7-3.7-3.9-5.4-1.6zm12.6 5.1c.6.6 1 1.5 1 2.3 0 6-4.2 2.8-4.8-.5a13 13 0 003.8-1.8zm-13.6 5.7l.9.2-.3-.3-.6.1zm5.2 1.6c1 1.4 1.9 2.8 1.8 4.5-.5 1.8-1.8 1.4-3 .7-2.6 1.9-4 .3-5.2-1.7-1.2.6-2.2.2-3.1-.7l-1.6-3.5-.2.2a19 19 0 00-2.6-3.7c1.7.6 2.5.3 2.6.3l1.6.7 2 3.9-.6-2.9c1 .5 1.5.5 1.8.6l1.1.7.8 4.1v-3.5l4.6 3.7-3.7-4h.6c.9.4 2.1.5 3.1.6zm-32.1-14.6c-.2 1-.2 2-.1 3.2h-.9l-.1-2.3 1.1-.9zm1-5.1a7 7 0 00-.2 1.5c-.5.5-.5 1.5-.3 2.3l-.4.7-.3.1-1 .4.4-2.6 1.3-2zm-6.3-1.5l6.6-.9c-.5 2.3.4 1.4-.8 2.4v.1l-1.4 1.2v-3.1l-.7 3.2-2.6-1.8 2.5 2.7-.2 2-2.2-1c.4.4 2.3 2.2 2.5 2.8l.1 2.2-1.9.1c-.6-.5-1-1.1-.9-2.2-1.2-1.3-1.2-2.1-.1-2.4a5.2 5.2 0 01-.9-5.3zm-3.2 8.6c2-2.7 2.6-.5 3.4 1.4l-4 .5v-.1c0-.6.2-1.2.6-1.8zm18 13.3c.7 1.3.6 4.6-1.3 4.6-1.4 0-3-2.3-3.2-4zm-18.7-1.5l5.5 3.9 3.1-.3-2.7.7 1.2 1.8 3 .2-2.6.4 4.1 5.7-4.2-4.9-.1 2.7-.6-3.7-1.5-2.2-.3 3.3-.3-3.4-4.8-3.6.2-.6zm.8-2c1.1.3 2.2.4 3 2.4.9.5 1.5.2 1.9 0 1.7 0 3.1.4 4.7 2.5.3.8.8 1.4.2 2 2.3 1.4 2.8 4.2 2.4 7.9.3 1.8-.6 2.4-2.7 1.6-.6-1-1.3-1.9-2-2.4-1.2.4-2 .8-2.9-.2l-2.5-4.3c-2 .7-3.1-1.2-4.2-4.1.9-1.8 1.4-3.6 2.1-5.5z" class="fil2"/><path id="path34" stroke-width=".1" d="M399.4 169.2l1.2.6-1 .1zm-8.2 5.8a12 12 0 011.4-4.4l.5 6.6c0 .8.1 1.2.7 1.9.5.7 1.2 1.1 2.1 1.3.3 2 .8 3.4 1.9 5.2 1.4 3.1 5 8.3 7.6 11.8 1.8 4.5 2 8.4.9 9.8l-9.2-.9c.1-2.8-3.8-6.9-6-9-2.3-4.1-5.1-7.1-6.1-9.7-1-2.6-.5-5.2.7-7 .9-2 4.6-3.7 5.6-5.6zm2-5.9c1.3-1.7 3-1.4 4.4-1.8l-.6 3a8.4 8.4 0 01-3.9-1.2zm-1.4 57.8l1.9 1c-.4-1-1-1.4-1.9-1zm.4-9l2.1-2.8.5 10.4c0 .1.3.4.3.9-.4-.6-1.7-1.3-2.4-1.7.2-1.2.3-3-.5-4 .3-1 .3-1.9 0-2.9zm-.6 14a20 20 0 00-1.8 3.6c-1.9-1.5-3.8-4.1-3.8-6.6.9-.1 1.6-.5 2.2-1.1l1.7.4c.8 0 1.7.2 2.4.7-.5.7-1.7 1.4-1.1 2.3zm5.6-25.1l8.4.8c-1.6 1.8-1.6 4.8 0 5.1 0 1-.3 1.9-.7 2.8l-1.8 2.2-.6.5c-1.5 1.8-3.5 3.9-5.3 6.2-.6-1.3-.4-.6-.2-2.7.2-2.2.1-4.3-.2-6.5-.3-1.8-.1-1.8-.9-3a19 19 0 001.3-5.5zm13.8 55.5a8 8 0 011.5 2.9c.2.7-1.4 1.7-3 2.7l-2-.4c.7-2.5-1.3-3.1-3.4-2.9-.3-.8-.2-.7-.7-1a3 3 0 00-3.3-.2c-.6-.8-1.7-.9-2.6-.7-.2-.4-.4-.8-.8-1.2a53.7 53.7 0 0112.1.6zm-25.4-34c-.1 3.2 1.9 6.5 5.8 8.8 1.2 1.8 1.7 4.7 5.3 7.8a17 17 0 004 5.3l2.8 2.7c1.5 2 3.6 4.4 5.5 6.7a57 57 0 00-14.9-.7c-3.5-3.7-7.3-7.7-8.6-10-2-2.5-4.1-5.3-2.7-8.7.5-1.6 1.4-5.4.6-7-5.5-9.4-3.6-14.2.8-8.8.7.8.4 2.4 1 3.8.3.1.3 0 .4.2zm-4.2 42.6a18 18 0 019.5 9.9c-1.9 0-3.3-.2-3.3 0-.8.5-4.6-2.3-5.5-1.8-5.6.8-7.1.9-11.6 1.2a5.3 5.3 0 00-4.1-2c-.8 0-.4.2-1 .3-.8.3-.9-.3-1.2-.8-.8-1.3-1.8-1.5-3.2-2l-1.1 3a9.2 9.2 0 01-3-.6c.6-.6.1-1.2-.1-2-1.6-2 6-3.2 4.3-3.2-.4.3-1 .6-1.8 0-.9-2-2-2-3.1-2.4.2-.4-2 2-1.9 1.6.1 0 2.6-2.9 2.5-3-1.7 1.6 13.9-4.1 24.6 1.8zM393 169.5c.6.4 1.8 1 2.6 1 2.6.6 3.4-.1 5.5-.3l-.8 7.6c-1.5 2.7-5.6 3.3-6.7-.1-.1-2.7-.5-5.4-.6-8.2z" class="fil2"/><path id="path36" stroke-width=".1" d="M396.4 180.3c.6.3 1.1.1 1.5 0l-.3 3.9-1-1.8z" class="fil2"/><path id="path38" stroke-width=".1" d="M345.3 278l-.1-.7h1.6zm-3.4-5.7a4 4 0 00-3.4.4l-1.8-.1a6 6 0 00-2.9.6c-1.4-2.6 1-4.8-2.2-9.3-2.9-4.3-7.6-3.6-10.4.3-.3.6-.1.3-.8.7l-2.3 1.4c-3.4 1.7-5.7 3.9-5.5 7.8 0 .6.1.7.5 1.4 1.6 4.3 2.3 7.3 5 11.2 1.1 1.8 2.6 3 4.9 2.3l.3-.2 5.2-4.7c.4-.3.9-.5 1.4-.6l-6 5.6c-.8.5-3.4 1.3-4.6 3-.6.9.1.2-1.6 1-1.7.8-2.7 1.8-4 3.2l9.2.7 3.7-3.5c.5-.2 2.7-.2 3.2-2.5l3.7.2.6-2.9-3.5-.5 2.3-2.5 2 1.6c.4.2 1.8.4 2.4 0h2.2l2.9 2.8 2.3.6c5 1.5 7.8 5.5 10.4 9.6.5-1.7.6-2.6 3.3-2.8 1.8-.1 4.1.3 5.8.5l-19.4-12 1.2-.9c1.3 1.2 3.4 3.2 5.4 3 1.4 1.1 6-1.1 7.2-1.9.8-.5 2.5-2 2.8-2.7.3-.6.3-2.9.2-3.7l-.6-3.2c-.1-.3-.7-.7-1-2-.8-2.4-.1-4.7-.4-5.6a5.5 5.5 0 00-2.5-3.3c-.4-.2-.9-.1-1.4-.1a25 25 0 01-7.5-1.3 6 6 0 00-3.1.9l-.7.8c-.2.3-2.5 1.5-1 3.6z" class="fil3"/><path id="path40" stroke-width=".1" d="M353.1 281.4c-1.3-.7-2.4-1.6-3.7-2.4-1.1 1.2-2.4 1.3-4.3 1.1l-.4 2.1 1.9 2.2-.1.1c1.5 1.4 2.9 2.6 4.6 2.8l-.1-.2 2-2.8.1-2.7v-.2zm-5.3-4.1c-.8.3-1.7.8-2.5 1.3l-.2 1.1h2l1.7-.8c.5-.5.4-.6.8-.3l.7-.3c.2-.3.3-.6.3-1zm-4-7.7l-1.4 2.9 1.6 1.6a5 5 0 011.1 2.7h5.7l-2.3-5.6zm7.3 7.6c-.1.8-.3 1.4-.7 1.9l2.7 1.8c-.1-.6-1.4-2.6-2-3.6zm-18.7-10.8c-2.8-7-8.4-5.8-11.1-1.5-1.3.6-2 1.4-3.3 2-3.6 1.9-5.2 4-5 7.5 1.6 3.6 2.4 6.9 4.4 10.4 1.4 2.3 2.7 4.9 5.7 3.7 2-2 3-2.7 5-4.6 1-1 2.7-1 4.2-.8.2-1.9.6-.8 0-2.5-1.8-.6-3.8-.8-5.7-.9v-.5c1.9.2 3.8.4 5.6.9l-.3-1.6a15.5 15.5 0 00-6.9-2.8l.1-.4c2.5.3 4.6 1.3 6.7 2.6l.1-2c-3.1-2.1-5.6-1.8-6.4-5l.4-.1c.4 1.4 1.3 2.3 2.9 3l3.3 1.6.4-1c-2.1-.8-3.5-2.1-4-4.3l.5-.1c.3 2 1.8 3.3 3.8 4l.6-.5c-1.2-2.2.1-4.9-1-7.2zm5.3 20a11 11 0 008.2-2.1l-1.3-1.5c-.2.6-.1.4-.5.7-1 .8-2.6 1.5-3.9 1.2-.7-.3-1.6-.4-2.4-.6-.3 0-1.3.8-.6 1.4l.7.5zm4.7-13.2c-.5-.8-2.6-.9-3.6-.1a9.4 9.4 0 012.8 4.3h-.4a10 10 0 00-1-2.1l-2-2.2c-5.1-.7-6.4 2.2-5.8 5.7l.7 2.8c-.5 1.5-1.2 3 2 4.9 1.1.2 2 .3 2.2-.3-1.4-.8-.7-2.2.5-2.6.3-3.3 1.6-5.1-1.4-7.5l-.2-.1.3-.4c1.2 1 2.6 2 2.2 5l-.5 3.1h-.2l2.6.6c2 0 2.8-.8 3.5-1.3 1.3-5 .9-8-1.7-9.8zm14.4-7.5c-2.8-.2-5.7-.2-8.7-1.4-1.3.2-2.7.3-3.3 1.6-1.7 1-1.9 2.2-.7 3.4l4.8 1.5a42 42 0 004.4 9.3c.6 1 0 2.9.3 4.3l-2 2.7c.2.3 0 .7 1.6.4 4.4-1.1 6.3-2.5 7.8-4.5.5-2.3.2-4.5-.4-6.6-1.5-1.9-1.5-4.7-1.3-7.5a5.4 5.4 0 00-2.5-3.2zm-26.4 17.2c-2.8 0-5.5.4-6.2-3.2-.4-3-1-7.6-2.8-9.3-1.5-1.3-2.8-1.8-3.8-1.6-1 .3-1.9 1.1-2.5 2.6-.3 1.5-.3 3 .3 5.1a41 41 0 003.6 8l.9 1c.3.1.7 0 1.2-.4.2-.4 1.4-3.5 2.8-2.7l-.2.4c-.9-.5-2.2 2.5-2.3 2.6-1.1 1.2-2.2.5-2.8-.7-2.4-4.2-5-9.7-4-13.4.8-1.7 1.7-2.7 2.9-2.9 1.2-.3 2.6.3 4.2 1.6 2 2 2.4 6.3 2.9 9.6.6 3.2 3.1 2.8 5.8 2.8z" class="fil2"/><path id="path42" stroke-width=".1" d="M340.1 287l2.5 2.2c5 .8 9.1 4.3 12.4 9.6.5-2.3 3.5-2.5 7.2-1.9l-17.9-11.1a10 10 0 01-4.2 1.1zm-9.5-3.6c-2.1 2-4.3 4.2-6.5 6.1-2 1-3.9 1.8-4.8 3.5-2 .6-3.4 1.6-4.7 2.9l8.1.7 3.8-3.5c2.4-.4 2.8-1.4 3-2.5l3.7.2.4-2.2-3.9-.5 3-3.2-.5-1.3z" class="fil2"/><path id="path44" stroke-width=".1" d="M338 153.7h-45v90.7c0 8 4.4 13 15 14.3h17c6.3 1.1 10.8-.6 13 6 2.3-6.7 6.9-4.9 13.1-6h17.1c10.6-1.3 15-6.3 15-14.3v-90.7z" class="fil3"/><path id="path46" stroke-width=".1" d="M293.8 247.8c1.6 6.8 6.8 9.3 13.3 10.3l.8.1h17.2l1.6.3c5.1.5 9-.3 11.4 4.6 2.3-4.8 6.2-4.2 11.2-4.7l1.8-.2h17a23 23 0 008.6-2.6c4.3-2.5 5.9-6.3 6-11.2v-90.1h-89.2v90.1z" class="fil2"/><path id="path48" stroke-width=".1" d="M318.4 168.1c2 1.6.3 4-1.6 3.6-.5-.1-.9-.3-1.2-.7h-5.4l-.6.6v79.8h-2.3v-79.8l-.6-.7H302c-1.4 2.2-4.8 0-3.3-2.3a2 2 0 013.3 0h5l.3-.4v-8c-2.2-1.6.1-4.9 2.3-3.4a2 2 0 010 3.3v8.1l.4.4h5.6c.6-.9 1.7-1 2.8-.5z" class="fil3"/><path id="path50" stroke-width=".1" d="M308.5 157c1.6 0 2 2.2.6 2.9v8.7c.3.1.5.4.7.6h6.1c.7-1.4 2.8-1 2.8.6s-2.1 2-2.8.6h-6c-.1.4-.5.7-.8.9v79.6h-1.2v-79.6c-.3-.2-.7-.5-.8-1h-5.4c-.6 1.5-2.8 1-2.8-.5 0-1.6 2.2-2 2.8-.6h5.5c.2-.2.4-.5.7-.6v-8.7c-1.5-.7-1-2.8.6-2.8z" class="fil4"/><path id="path52" stroke-width=".1" d="M327.8 173.2c-.5.8-1.4 1-2.8.9l.2 1.1c-.7 1.2-1.6 2-2.7 2.7.7.6.5 2-.7 2.6.2.6.8.4.3 1.7-.6 1.4-1.5 2.9-2 4.4 0 .5.4.7.5 1.2.1.4 0 1.2.6 1 .4 1.2.5 2.3 0 3.5 1 2 2.5 4 3.5 6-1.4-.3-2.7 0-4.1-.3-2.6-.5-5.1-1.5-7.5-2-2.1-1-2-2-2-3-.5-1.2-1.1-1-1.8-.4-.4 0-.9 0-1.3-.2l-1.9-.1c-.8.7-1.4 1.5-1 2.3-.5.6-1.6 1.3-.6 2.2l.2 1.7c.1.7 0 1.4 2.1 1.8 1.3-.2 2.5-.1 2.8.9 1.2-.6 1.4.3 2 1.7 2.1-2.3 3.2-2.8 2.7.7 1.1.1 1.7-.5 2.3-1.3.8 1 1.4 2 1.3 3.5 3-1.6 3.4-2.2 4 .2.3-.7 1.9-.7 4 .2a248 248 0 00-5.7 1.9c-3.3 0-6.3.1-8.6 1-.6.1-.9.5-1.9.8-1.7 1.2-2.6 2.5-2.4 3.5.5-.1 1.5-.7 1.9-.2-.3 1.4.3 2 1.1 1.5.1-.3-.2.3 1.4 2 .1-1.2 1.8-1.7 4.8-1.5 1.3-1.2 2.9-3.9 2.5.7 2.7-2 4.9-4 4.7-.6 3.2-1.5 2.7-1.4 2.7.2 2.4.3 1.8-2.3 3.9.6 2.8 3.4 5.9 8 10 9-.4.6-1.6.9-2 1.5 1.3-.1-1.7 2.3-4.2 3.9l1 .2c-1.2 1.4-4.3 5.6-3.9 6.6.5.1.9-.6 1.4-.5 0 2.4-.3 4.4-1.5 5.7.8 1.2 2.2.5 3.5-.2 0 .6-.2 1.6 0 2.1l3-1c-.9 2-2.1 4.8-4 7-1.8.2-3.5-.2-5.3-.1-1.6.6-2.3 2.3-2.1 3.9.6 0 1-.5 1.6-.4l.1 1.2 1.2-.7.3 1.6 1.4-1c-1.7 2.2 3 .2 3.6-.1.8 1.1 1.8.5 2.8-.5a2 2 0 010-1.1c0-.3.4.2.5-.1.2-.4.3-1.5.4-1.9l4.8-5.7h2.6c1.1-.5 1.3-1.4.5-2.7-1.7-1-1.6-1.9-1.3-2.7l.9.6.1-2.4 2.2 4.8c.4 1.2.8 1.4 1.2.7.5-.5 1-.4 1.4.2l.6 3.9c1.3.2 2-.5 2.4-1.6 1.4.3 2.1 1.7 2.7 3.1l1-.7c.6-1.1 1.3-2 2.8-1l1.4 2.5a5 5 0 01-.3 2.6 6.4 6.4 0 00-2.2 3.4c.8 0 1.9-.3 1.2.8l3.4.3 3.8-2.7c.2-1 0-1.8-.9-2.3-1.3-.9-1.9-2-1.4-3.7-1.2-.4-2.1-1-.7-3 1.7-.4 2.5-1.1 2.3-2.3-1.8 0-2.1-.8-1.2-2.6-2 .2-3.6.2-2.6-1l-.9-1.3c-1.3-1.8-.5-3.4.7-2.5.5-1.4.7-2.9.5-4.3l.9.5.3-4.5 1.2.7c.3-1.5.4-3.2-1.4-4.8l1.7-.1.5 1 .9-.6.7.3.5-.6 1 .2.2-.6h.7l.3-1 .7.2-.1-1.6c.2 0 .5 0 .7.2l-.4-1.5.4-1.5v-4.2c-1-1.4-3-5.5-4-6.8-3.3-1.7-3.5-3-5.6-6.1a19.4 19.4 0 01-2.9-11.1c.3-1.8 1-4.4 3-5.6 1.9-.2 3.7-.7 4.2.9 0 1.9-1.6 3.7-2.2 5.6 2.6-.8 4.4-.5 3.8 3.5.8-.2 1.3-1.4 2.2-1.6 1.2 1.5 2.6 3 4.3 4 .1-1.3-.2-3.5-.2-4.8l4-.6-2-2.7 1.8-1.5-2.8-1.6c.3-.9 1.3-1.4 1.6-2.3-2.2-.5-5.6 0-8.3-.5-7.4-4.6-11.6 1.6-12 8.8 0 5 1.2 9.9 4 12.8 4 3.7 6.5 7.8 6.5 13-.5 2.2-1.7 4.1-5.1 4-2.2-.9-4.9-1.6-6-2.7a27.4 27.4 0 01-8.2-18.1c2.2-2.1 2-4.7 1.5-7.3l.5-1.9-.9-1.1.7.1V189l-1.3-2.5-.5-3.7-2-4.6 1-1-2.2-.6v-1.2l1.1-.8a6.8 6.8 0 01-2.7-1h.2l5.1-10.9c-2.3.3-3.3.2-5.3 1.5a13.3 13.3 0 00-5.6-1.9l-1.9-3-1.9 3c-2.2.3-3.7.8-5.6 1.9-1.8-1.2-3.2-1.2-5.3-1.5z" class="fil3"/><path id="path54" stroke-width=".1" d="M306.3 197.8c1 0 1 1.2 0 1.2-1.1 0-1.1-1.1 0-1.1zm-.4-1.7c1 0 1 1.3 0 1.3-.9 0-.9-1.3 0-1.3zm.2-1.8c1 0 1 1.1 0 1.1s-1-1.2 0-1.2zm1-1.5c.9 0 .9 1.2 0 1.2-1 0-1-1.2 0-1.2zm54.8 48.3c-.4 4.1 2.5 3.5 3.1 3.6-.3-.3-1-.7-.9-2.4-.7-.7-1.7-1.2-2.2-1.2zm-19 1.4v1.8c-1.6.7-2.1 1.3-2.1 1.7 0-.5 2.8-1.4 3.4-1.3 0-1-1-1.1-1.4-2.1zm-2.4-4.5c0 .1.5.5.4.6l.7 1c.2-.2-.2-.5 0-.8-.9-.5-.2-.3-1-.8zm-.4-4.2l-.5.1 1.1 2c.2-.3-.4-1-.2-1.3-.9-.5.5-.3-.4-.8zm-.7 1.6l-.6.1 1.7 1.5c.2-.2-.3-.5 0-.8-.9-.5-.2-.3-1.1-.8zm4.9-12.8c2.1.5 1.6 1.1 2.1 1.5.1.1 1-.6 1.4-.1.5.7.8 1.4 2.2 1.5h.8v.6c-1-.2-2.3.2-3.4-1.7-.7.1-1.2.7-1.7-.4-.4-.8-1.1-.6-2.4-1l-.4-.2.5-.5zm8.5 16c-1.9.7-3.4.8-4.4-.7-.7-.2-.8 0-.5.3 1.2 1.4 3 1.5 5.1.8.1-.3.1-.5-.2-.5zm-2.3-3.5l-.4 1.1c-1.1.5.5 2.6.4.7-.3-.6.7-1 .6-.5 0 .8 0 1.8.7 1.8.2-.2 0-2 .2-2.3-1.2.3-.8.3-1.5-.8zm4.7 6.4c0 .2-.5 0-.5.2l1.6 1.5c.2-.3-.2-.6 0-.8-.9-.6-.2-.3-1-.9zm2.2.2l-.2.5-1.7-.7a9.7 9.7 0 004 2.6l.5-.7-2.6-1.7zm-26.5-26l3.2 3.7c.8.8 1.1.7.7-.3a6.2 6.2 0 00-3.9-3.4zm3.2-.9l3.2 3.8c.9.7 1.1.6.7-.3a6.4 6.4 0 00-3.9-3.5zm5.8-4.3l8 9.7a30.3 30.3 0 00-8-9.7zm.5 1.5h-.9a24 24 0 008 9l-7.1-9zm33.4-20.5l-1.6-1.5c-.5 2-.2 3.6 1.8 4.8l-.2-3.3zm1.6-7.9l-6.5-.4c-2.8-2.4-3.9-1.9-5.1-1.6-6.6 1.8-7.4 8.1-4.5 18.2 1.1 1 .3 2 3 4.7 2.4 2.5 3.8 4.2 5.7 7.8 2.3 7.6-1.4 9.1-5.9 9.7 1.8.6 3.6 1.5 6.5-.7 2.3-2.7 2-5.5 1.4-8.4-.7-3-3-5.6-5.9-8.3-.9-1-1.8-2.3-2.5-3.5-2.4-1.5-6.8-17.8 4.2-18.6 1.5.6 2.2 1.7 2.1 3.4l-1.9 3.4 3-1.4-.5 1.5 1 3c1-1 1.6-2.2 1-3.7l1.8.7c0-2-.5-2.7-1.5-1.8l-1.2-.9c1 .2 2 .3 2.2-.4l1.2 2.1c-.3.6 0 1.3.7 2.1l3.7.1-1.4-2.4-.9-.7-1 .3-.5-1.2 1.8-.1v-2.9zM353.1 218l-6.5-10a947 947 0 015 10.1l-6-9.3-.8.2c2.6 4.2 4.6 8.5 7.9 10.6l.3-.7 2.1 1.4.2.8c2.8 1.1 5 2.7 6.2 5.4l.2 3.7-3 3.8c1.7-1.8 4.2-2 4.1-7.3.5.6 1.1 1 0 4.6 1-1.7 1.4-3.3.7-5l-2.7-3.8c-1 .1-1.3 0-.8-.5-3.1-.5-3.9-1.5-4.4-2.5h.9l-4.2-3.9.8 2.4zm-10.5-10.8c0 .4-.2.8-.4 1.2a36 36 0 008.8 11.2c-3.6-3.7-6.1-8-8.4-12.4zm10 13.3l2 1.6-.2.5-1.3-.8c-4.7-2.4-8-8-11.9-12.8 0 .3 0 .7-.2 1.1 4.3 5.4 9 11.7 11 12l.8 1.1-1.9-1.2.5 1.5-1.5-.9.2-.8c-.8 0-1.5 0-1.8.5-4.7-2.3-6.6-6.5-9.5-10.1l-.8.7 4.6 6.3.3-.7c1 1.5 2.1 2.8 3.5 3.9l-3.8-1.9-.2.7-6.1-7 .1 1c1.4 1.6 2.8 3.1 4.2 5.3v1.7l-1.4-1.8c-.4.2-.7.3-1.2.1l-4.3-5.5-1 .2c1.9 2.4 4 4.5 5.5 8.1 1.5.5 3.2.9 4.2 1.9.6.5 1.4.7 2.1.5.6.3 1.2 0 1.6.4 1 1.2 2.5 2.5 3.8 2.5-.8-.5-1.7-1-1.6-1.7l2 1.2-.2-1c.5-.2 1 .2 1.4 1 .5-.1.2-.6 0-.9l1.8 1.3-2.9.5-3.4 7.5a17 17 0 001.7 6.2c2.7-.6 3.8 0 3.3 3.3.8.3 1.4-1.2 2.3-.7 1 .6 2.7 2 3.8 1.9-.1-.6-.4-1-.5-1.7 1.6 1.3 3.1 2 4 3.6l.2 3.2c-1.2 1-2.1 2.2-2.2 3.4.5-.7 1-1 1.2-.8-.1.4 0 1 .3 1.9 1-.8 1.3-1.7 1.4-2.6l1 2.2.6-.2.8-1.3c1.3 0 1.8-.4 1.7-1.3l-1.8-1.7c-.7.6-1 .6-1 .2.9-1.2.5-1.7-.2-2.1l-.4-1.8-1.2-.4c1.3-.2 1.1-1.2.7-2.3-1.1 2.6-1.3 2.4-.5-.6-1.3-.8-1.4-1.5-1.2-2.3l-2.2-.6-1.2-1.4 2-1.2-.4-.4c-1.9 1.6-2-1.1-.2-2.1-1.6-.7-2.4-1.7-1.8-2 .3-.1 1 0 .9-1.1l3.7-4.6v-1.8l-.8 1c.5-2.2-.6-3.2-2.1-4.4l-5.3-3.6c-.4 0-.8-.1-1 .2zm-4.1 12.1c.5-1.4.5-2.7.2-4-1.2-.4-1.7-1-2.6-1.8-1.9-.1-3-.4-4.5-1.5-.3.5-1.3.2-1.6.6l-.6.7c1.9-.4-.5 1.7-3 3.3l-.2.7c.8 1.4-2 3.6-3.4 4.8 1.3 1 2.5 2 .1 6a6 6 0 003.5-.3l-1 1.3h2.2c.7.3 1.2.4.6 1.2-.7 2.5-2.7 5-4.8 7.5-3-.6-5.6-.7-6.1.6-.5.5-.5.7.1.8 1-1 2.1-.8 3.1-.6-.9.1-1.9-.1-2.8 1.1 0 .3 0 .7.7.8l3.1-1.2-2 1.4c-.1.5 1 0 2.4-.6.4-.1.5.1.3.8l1.3-1c.5.3.8.3 1.1 0l1 .5-.2-2.4c1 0 1.6-1 2-2.2l.6-.5v-1.4c.8-.5.6-.9.6-1.4 1.1-.4 1.8-1 1.9-1.6l.4.7c1.6-1.2 1-2-.7-2.6.3-.2.4-.5 1.3 0l-.3-.4c0-.5.2-.7.6-.5.4.3.7.5 1.1 0 1 1.5 1.8 3 2.6 2.6-1-1.7-1.2-2.9-1.1-3.7 0-.7-.2-1.2-.7-1.2-1-.1-.9-2.2-1.3-2.8.5.3.6 1.4 1.2 1.7l-.5-1.5 1.3.8c-.6-1.2-.6-2.7-1.3-4 .7.9.8 1.9 1.5 2.7-.3-1.3-.2-2.7-.5-4 .7 2.6 1 5.7 2 3.8-.7-1.6.1-3.4-.4-4.5.6 1.2.6 2.4 1.2 3.6.3-1.7.3-3.3.2-4.9.7-.2.6.7.8 1.8.1.3.6.5.6.8zm-22.4-53.2c.9 1.2.3 2.5-.6 2.8l.6-2.8zm17.8 7.2c-.4 1.4.2 1.7.7 1.8 0-.4-.5-1.1-.7-1.8zm-1.2 0c-.4 1.4.3 1.7.8 1.8-.1-.5-.6-1.2-.8-1.8zm-1.6 2.1c-.5 1.2-.3 2.2.4 3.1.1-.5-.1-2.5-.4-3zm1.5-.6l-1-.5.5 3.3c.6-.6 1-1.5.5-2.8zm-3.2-2.1c-1 .8-2.1.2-3.2 0-.3-.2-.7-.4-1-.1-1.2.5-2.4 1-3.5.3-.7.1-1.1.3-.3.8 1.4.5 2.5-.1 3.7-.5 1.4-.7 2.4 1.3 5 0 .1-.5-.3-.5-.7-.5zm-11.8-10l-.4-.6c-.4 1.1-.9 2.1.3 2.7.3-1 .3-1 .1-2.1zm1.3 11c-.3 1.2-.6 2.3.4 2.9l.6-1.1c-.1-.9-.4-1.5-1-1.8zm-4.5.7l.1-.6c-.8-.6-1-1.4-1.2-2.1a3 3 0 00-.3 3l.5-.7c.6 1.1 1.1 2.3 1.6 2l-.7-1.6zm19.6-9.4c-.2-.2-.4 0-.6.4.2 1.1.5 2 1 2.5l.6-.2a4.6 4.6 0 00-1-2.7zm-.5-2.7c-.6-.1-.8.1-.6.7l1.4.8-.2.8c.2.6.4 1.1.9.9.7-.2.9-.6.8-1l-.9-.5c-.1-.9-.7-1.3-1.4-1.7zm3 8.8l-1-1.9c-.7-.5-1.1-.1-1 .8l3.6 4.2-1.6-3zm.6-2.8c-.2-1-.7-1.7-1.5-1.9l.2 3.1c.3 1 .8 1.7 1.5 2.1l.8.3-1-3.6zm-12.8 20.3c-1-.2-1.6.1-2 .8l.3 1.2 1.8-1.2c.1-.3.1-.7-.1-.8zm-12.6 9.7c-.5-.2-1 0-1.5.3l.2 1.8c1.9-1.7 2.5-1.9 1.4-2.1zm14.7-2.1c-.3-.5-.8-.6-1.4-.3 0 .8-.3 1.6-.8 2.4l.8.9 1.4-3zm-21.6-8.8l.4 2.3c.7 0 1.7-2.7-.4-2.4zm11.3 1.9l-.8-1.6c.1-1.3-.6-1.3-1.5-1.1-.8-.6-1.5-1-2.3-.7-.8-.8-1.7-1-2.8-.5-.2-.7-.7-1-1.5-.7-.8-.6-1.2-.6-1.6-.4a5.2 5.2 0 00-3-.7 8.8 8.8 0 00-2.8-3.3l-2.2.5c.2.7.5 1.4 1.3 2l.6-.8c.1.8.5 1 .9.8l-.1 1.2c-1.4-.2-1.9-1.2-2.7-2-1 .2-.8.8.4 1.8-2.1.3-.7 1 0 1.6l.5.7 1.3-.1-.4-1.2 1.3.8a3 3 0 011.1 2.3c.5.7.7-.8.9-2.4a162 162 0 005 1.7c.7 1 2.3 1 4 .8 1 .7 1.8 1.3.7 1.5l-2-1-2.3.2.7 2 2.3-.8 1.1 1.4 2 .4-.3-2.8 1 2.4c-.2-1 .5-1.3 1.8 0 1.1-.9.9-1.9.5-3l-1 1zm11.3-1.6l-2-1c.1 1.4.8 2.4 1.8 3.2l.2-2.2zm3.1-2.5c-1.3.3-2 1.1-2.1 2.3l1.1 1.7v-2l1.2.8a51 51 0 01-.2-2.8zm1.8-5.4h-1.6l1 4.8.7 2.1.6-.8c.3-2 0-4.1-.7-6zm-16-4c-.4.8-1 1.5-1.8 1.9.7 1.4.6.8.3 2.7l1-.1.1 2.6 1.4-2.6-.8-.8zm4-9l-1.2-.8.1 1zm1.6-3.1c1 0 1 .7 0 .7s-1-.7 0-.7zm2.6.5c-.5 0-.8-.4-1.1-.7a4.7 4.7 0 00-4.7.8c0 1.1.7 1.8 2.4 1.8.3-.2.3-.4.1-.7h.4c0 .5 0 .9.9.7 0-.4 0-.8-.2-1-1.8.1-2.1 0-1.8-.4h2.3c.4 1.3.9 2.7.6 4.5l.5-.2.1-3.1.5-1.7zm2.7 5.7a3.6 3.6 0 00-3.4.1c2 1.3 1.6 1.3 3.4-.1zm3.3 1c-1.7-.9-3.2-1-4.2.3-.6.5-.5.9.5 1 1.9 0 3.1-.1 4.2-.4.1-.3-.2-.7-.6-.9zm-5.6.5l-1-.8c-1.1-.2-1.9.1-2.6.4-.7.7-1 1.2-.9 1.7l.7-.5c1-.3 1.5.1 2.3.3 1.5 0 2.2-.5 1.6-1.2zm5.7 17.7l-1 .8c-.4-.5-1-.5-1.9 0h-.5l-.3.7-1.7-.1-.5 1-.2-.8-.9.1-.7 1.3-2.2.6v-.8l-1.4-.1-1.4 1.9-7.6 1.9-8.6.9a7.1 7.1 0 00-3.3 2.6c1-.1 1.5.5 1.3 1.7.1-.4.3-.8 1.1-.4l.8 1.3c.7-1.2 2.5-.6 2.2-1.8h1.8l.6.9c1-.4 1.2-1 1.2-1.7.2-.8 1-1.2 2.1-1.4.6.2 1 .2 1.6-.3.2.4 1.3.7 2.4 0l6.8-.7 1.8.5 1-1.1-.5-1.2.7-.3.4 1.7-1 1.6-5.8-.2c-1.8.7-1.7 1.7-1.7 2.8l2.2-1.6c2.3-.5 3.3.1 3 1.9a12 12 0 003.5-2.9c.7-.7.6-1.5.6-2.2l-.5-2 1.2 1.4c-.3-.7-.5-1.3-.2-1.7.5-.8.9-.9 1.3-.1l-.3 1.3c.8-.5 1.4-1.3 1.6-2.2l1.1-.1c-.4-1.2.2-1.8 2.5-1.7l-.6-1.5zm2.2-17.4l2.3 2.7-.3 2.3-.6 1-1.6.7.7 1.6c.4.8.4 1.6.7 2.4.3 4.5 1 8.8 3.4 9.3a12 12 0 01-1-5.1l.7-.1-1.8-2.7v-2.9l.6 2.1c.4.8.7.7 1.1-.3l-1-3.1.2-.4 1.6 5.9.2-2.5 1.2.8c.2-1.5-1.8-6.3-.9-5.4l1 1-.9-2.1h-1c.4 1.6.4 1.1-.2 2.3-.9-.6-1.5-1.1-1-1.7l.8.3c-1-1.7-.8-2.4.4-2.8a10.6 10.6 0 00-3.7-3.4c.5-.5.5-1.1 0-1.7l.1-2.2-1.1-1.1-.8.7c-.7.2-.3.8 0 1.2l.6.3.6 1.4c-.4.3-.5.8-.3 1.5zm-1.7 2.2l-.7.1c-.6 1-1.2 2-2 3l-.4-.5-.5.4-.6-.7-.9.9.6 1.5-.9.5c.5.9.8 1.9 2 2.6l.6 1.5c-.8 1.9-.7 1.2-.3 3l2-1.7a75 75 0 01-.2-3.3c-.6-.8-.4-1.3.5-1.4-.4-2.1-1-2.3-1.7-2.4l.5-.4 1 .6v-.7l-.4-.3.2-.3h.7l.5-2.4zm-8 8c-.7.3-1 .6-1.3 1.4.8 1.5 1.5 3 1.7 5l1.3-3c-.3-1.5-1-2.5-1.7-3.3zm-5.6-14c1-2.7-.5-2.3-1.5-2.5-.5-1.4-.2-2.5 1-3.5-1.6.6-3.4 1.9-3.2 4.5-.9.5-.9.9-.1 1.2v.6l-.5.4c-.4.6-.4 1 .2 1.2l.1.6-.7.3-.1-.7-1.5 2c0 .6 0 1 .3 1 0 .4-.2.7-.6 1 0 .6.3.7.6.5.1-.3.3-.3.5-.6l.3 1.7c-.4 0-.4.3-.2.8 0 .9.3 1.4 1.5 1l-1.2 1.2c-.1.9.4.8 1.1.4.8 0 1 .5.4.9h-.9c0 .4.1.7.3 1.1-.3.3-.5.5-.2.9.5-.3.7 0 .8.4l1.4 2.4c-.2.9.3 1 1.6.5l1.7-4.2-.8-3.1c1.1.4.8.1 1.6 1l.4-1.5.5 2h-1.2l.6 1.9c0 .1-1.9 3.9-2 4.8l.9 3.5.6-.2.4-4c.3.9.8 1.3 1.8 1.4l.8-1-1.1-1.5c-.2-.6-.2-1.3.6-2 .8-.3 1.3-.8 1-1.8.5-.3.7 0 1-.2 0 .7.3 1.4 1.2 2l.9 2-.1 1.5c.3.6.7.8 1.2.7.4-1.4 1.5-4-.1-3.7-2.2-2.8-.3-4.2-1.8-4.6-.6-.2-1.7 0-2.1 1.1-.4.2-.7.1-.8-.1l-1.6-2.8-.1-1.1.8.5c.3 1 .8 1.9 1.6 2.8 1.8-1.1 1.3-.6 2.2-2.1-1.2 0-1-.1-1.4.4-.9-1.4-1.3-1.6-1.5-1l-.6-1 1.9.8-.1-1.1 1.4 1.3v-.6c.9.7 1.6 1.1 1.5 0 .2-.4.6-.4.9 0 .3.8.6.8.7.1.1 0 .5-.4.4.1 0 .3.7.1 1-.2.6-.4.5-.8 0-1.2l-5.3-.1c-.6 0-2.8.6-3.8.4-.9-.3-.6-1-.2-1.5-.1-1 .1-1.4.7-1.6.8-.5 1.4-1.1 2.8-1.2.3-1 1.6-1.2 3.8-.6l.1-4.7-.4-.4 1.6-.8c1.2-.2 2.4.5 3.5.9-1 0-2-.4-3-.5l1.6.6c.7 0 .9.3.6.8.1.5-.2.9-.8 1.1-.6-.1-1.1 0-1.6.2-.2-1 .5-.4 1.6-1 .4-.3.3-.5-.3-.8-2.1-.6-2.5.6-1 .1.4.4.7.6-.2.8-.7-.2-1.1 0-1.3.5v3.6c2.4.4 1.8.1 3.6 1l.3 1.8.8-3-1-1-.6 1.2.8-3.6.9-.9.2-2.2c-1.5-1.3-1-.6-1.6-2.8h-11.4l-1.2 1.1-.2 4c0 1.1.3 1.8 1 2 .4.3.8.7.9 1.6l-.9.9c.1-1.2-.3-2.1-1.2-1.7-.8.7-1 1.5-1.4 2.2.1.9 0 1.6 1 2.4.6.2 1 0 1-.5 0-.4-.4-.7-.4-1 0-.6.8-.7 1.2-.6v1.8l-1 1.1c-.9.5-1.5.4-1.9-.2-.6-1.1-.6-2-.6-2.9l1.6-2.6zm7.3-6.6c-1 .7-.9 1.8-.7 2.4.1-.5.3-1.8.7-2.4zm2 .1c1 .7.9 1.8.6 2.4 0-.5-.2-1.8-.6-2.4z" class="fil2"/><path id="path56" stroke-width=".1" d="M337.5 170.5l-.1 2.3h3.8l.3-2zm-3.5 0l-4 .3.2 2h3.9zm-6.1-5c.8 0 .8 1 0 1-.7 0-.7-1 0-1zm1.1 2.6a.6.6 0 010 1.1c-.7 0-.7-1.1 0-1.1zm-1.8 2.6l1.2 2.4h7.3v-.1.1h7.4l1.1-2.4c-5.8-.7-11.1-.8-17 0zm8.5-10.4l-4.5 7.2c-4.1-4.2-5.5-3.9-7.3-4.1l1 2.2c1.1-1.2 2.8 2.7 1.5 3.1l.6 1.4c6-.8 11.5-.7 17.4 0l.7-1.4c-1-.1-.1-3.6 1.1-3.2l.3.1 1.1-2.2c-1.8.2-3.3 0-7.4 4.1l-4.5-7.2v.1zm.1 4.6c2 0 2 3 0 3s-2-3 0-3zm-.1-2c.8 0 .8 1 0 1-.7 0-.7-1 0-1zm-2.3 2.3c.8 0 .8 1.2 0 1.2-.7 0-.7-1.1 0-1.1zm4.7 0c-.8 0-.8 1.2 0 1.2.6 0 .6-1.1 0-1.1zm-5.5 2.6a.6.6 0 010 1.1c-.7 0-.7-1.1 0-1.1zm6.2 0c-.7 0-.7 1.1 0 1.1a.6.6 0 000-1.1zm3.6.3c-.7 0-.7 1.1 0 1.1a.6.6 0 000-1.1zm1.2-2.6c-.8 0-.8 1 0 1 .7 0 .7-1 0-1zm2.5-1.5c-.6 0-.6 1 0 1 .8 0 .8-1 0-1zm-8-1c1.6.2 3.2.7 4.6 1.6l-2.3 2zm-4.7 0a12 12 0 00-4.7 1.6l2.4 2zm-8.1 1c.8 0 .8 1 0 1-.7 0-.7-1 0-1z" class="fil4"/><path id="path58" stroke-width=".1" d="M325.3 165.8c.8-.4 1.8 2.4 1 2.6L325 166l.2-.3zm20.9 0c-.8-.4-1.8 2.4-1 2.6l1.2-2.4-.2-.3z" class="fil0"/><path id="path60" fill="#008e1f" stroke-width=".1" d="M335.8 165.3c.7 0 1.1.5 1.1 1.1 0 .7-.4 1.3-1.1 1.3-.7 0-1.2-.6-1.2-1.2 0-.7.6-1.2 1.2-1.2z"/><path id="path62" stroke-width=".1" d="M337.8 170.8l3.4.3-.3 1.5h-3.2zm-4.2 0l-3.3.3.2 1.5h3.3z" class="fil0"/></svg>