<svg xmlns="http://www.w3.org/2000/svg" height="400" width="600" xml:space="preserve" y="0" x="0" id="Layer_1" version="1.1"><style id="style2" type="text/css">.st0{fill:#0080ff}.st1{fill:#fff}</style><g transform="scale(1.33304 1.33333)" id="g34"><path id="rect4" class="st0" d="M0 0h450v300H0z"/><g id="g28"><path id="rect6" class="st1" transform="rotate(-45 48.3 222)" d="M43.3 217h10v10h-10z"/><path id="polygon8" class="st1" d="M104.9 200.8l-7.1 7.1-7.1-7.1-7.1 7.1 7.1 7-7.1 7.1-7-7.1 7-7-7-7.1-7.1 7.1-7.1-7.1-7 7.1 21.2 21.2-7.1 7-7.1-7-7 7-7.1-7-7.1 7-7.1-7-7 7-7.1-7 21.2-21.2-7.1-7.1-7 7.1-7.1-7.1-7.1 7.1 7.1 7-7.1 7.1-7-7.1 7-7-7-7.1-5.8 5.8v16.7l5.8 5.8-5.8 5.8v8.3h104.8l7-7.1-7-7-7.1 7-7.1-7 21.2-21.2z"/><path id="rect10" class="st1" transform="rotate(-45 119 222)" d="M114 217h10v10h-10z"/><path id="polygon12" class="st1" d="M175.6 200.8l-7.1 7.1-7.1-7.1-7.1 7.1 7.1 7-7.1 7.1-7-7.1 7-7-7-7.1-7.1 7.1-7.1-7.1-7 7.1 21.2 21.2-7.1 7-7.1-7-7 7-7.1-7-14.1 14.1h70.7l7-7.1-7-7-7.1 7-7.1-7 21.2-21.2z"/><path id="rect14" class="st1" transform="rotate(-45 401.8 222)" d="M396.8 217h10v10h-10z"/><path id="polygon16" class="st1" d="M444.3 200.8l-7.1 7.1 7.1 7-7.1 7.1-7.1-7.1 7.1-7-7.1-7.1-7.1 7.1-7-7.1-7.1 7.1 21.2 21.2-7.1 7-7-7-7.1 7-7.1-7-14.1 14.1H450.1v-8.3l-5.8-5.8 5.8-5.8v-16.7z"/><path id="polygon18" class="st1" d="M387.7 200.8l-7.1 7.1-7-7.1-7.1 7.1 7.1 7-7.1 7.1-7.1-7.1 7.1-7-7.1-7.1-7.1 7.1-7-7.1-7.1 7.1 21.2 21.2-7.1 7-7-7-7.1 7-7.1-7-7 7-7.1-7-7.1 7-7.1-7 21.3-21.2-7.1-7.1-7.1 7.1-7.1-7.1-7 7.1 7 7-7 7.1-7.1-7.1 7.1-7-7.1-7.1-7.1 7.1-7-7.1-7.1 7.1 21.2 21.2-7.1 7-7-7-7.1 7 7.1 7.1h113.1l7.1-7.1-7.1-7-7.1 7-7-7 21.2-21.2z"/><path id="rect20" class="st1" transform="rotate(-45 331.1 222)" d="M326.1 217h10v10h-10z"/><path id="polygon22" class="st1" d="M253.3 207.9l-7-7.1-7.1 7.1-7.1-7.1-7 7.1 7 7-7 7.1-7.1-7.1 7.1-7-7.1-7.1-7.1 7.1-7.1-7.1-7 7.1 21.2 21.2-7.1 7-7.1-7-7 7-7.1-7-14.1 14.1h99l-14.2-14.1-7.1 7-7-7-7.1 7-7.1-7z"/><path id="rect24" class="st1" transform="rotate(-45 260.4 222)" d="M255.4 217h10v10h-10z"/><path id="rect26" class="st1" transform="rotate(-45 189.7 222)" d="M184.7 217h10v10h-10z"/></g><path id="rect30" fill="red" d="M0 250h450v7H0z"/><path id="rect32" class="st0" d="M0 243h450v7H0z"/></g></svg>