<svg xmlns="http://www.w3.org/2000/svg" xmlns:xlink="http://www.w3.org/1999/xlink" viewBox="0 0 600 400"><defs><path id="a" fill="#ff0" d="M15-4.9L-9.3 14.3l9.3-30 9.3 30L-15-5z"/><path id="b" fill="#ff0" d="M-6-50l6-35 6 35H3V50l3 6v25L0 71l-6 10V56l3-6V-50z"/></defs><path fill="#2a6b11" d="M0 0h600v400H0z"/><use width="100%" height="100%" x="50" y="210" transform="translate(0 50)" xlink:href="#a"/><use width="100%" height="100%" x="110" y="120" transform="translate(0 50)" xlink:href="#a"/><use width="100%" height="100%" x="170" y="70" transform="translate(0 50)" xlink:href="#a"/><use width="100%" height="100%" x="235" y="40" transform="translate(0 50)" xlink:href="#a"/><use width="100%" height="100%" x="300" y="30" transform="translate(0 50)" xlink:href="#a"/><use width="100%" height="100%" x="365" y="40" transform="translate(0 50)" xlink:href="#a"/><use width="100%" height="100%" x="430" y="70" transform="translate(0 50)" xlink:href="#a"/><use width="100%" height="100%" x="490" y="120" transform="translate(0 50)" xlink:href="#a"/><use width="100%" height="100%" x="550" y="210" transform="translate(0 50)" xlink:href="#a"/><use width="100%" height="100%" x="225" y="95" transform="translate(0 50)" xlink:href="#a"/><use width="100%" height="100%" x="300" y="95" transform="translate(0 50)" xlink:href="#a"/><use width="100%" height="100%" x="375" y="95" transform="translate(0 50)" xlink:href="#a"/><use width="100%" height="100%" x="300" y="200" transform="translate(0 50)" xlink:href="#b"/><use width="100%" height="100%" transform="rotate(45 -151.8 487.1)" xlink:href="#b"/><use width="100%" height="100%" transform="rotate(-45 451.8 -237.1)" xlink:href="#b"/></svg>