<svg xmlns="http://www.w3.org/2000/svg" version="1.0" viewBox="0 0 600 400"><path fill="#0064b1" d="M0 400h600V0H0z"/><path fill="#fff" d="M0 170.8h272.2V0H0z"/><path fill="#00a54d" d="M327.8 170.8H600V0H327.8z"/><path fill="#ed1b21" d="M0 400h272.2V229.2H0z"/><path d="M327.8 400H600V229.2H327.8z"/><path fill="#34b7eb" d="M80.4 16.4h111.5v127c0 3-2 7-6.5 7h-43.5c-2.6 0-5.2 4.5-5.8 5.3-.6-.8-3.2-5.4-5.4-5.4H87c-5.5 0-6.5-4-6.5-7.4z"/><path fill="#00a54d" d="M80.4 140c11-7.4 37.2-5.5 55.5-5.5 18.5 0 37.7-3.2 56 5v5c.1 3-2 5.6-6.5 5.6h-43.2c-2.5 0-5.2 4.8-6 5.6-.6-.8-3.5-5.6-5.7-5.6H87.3c-5.5 0-6.9-2.3-6.9-5.5z"/><path d="M192 139h-.5c-2-1-4-1.7-6-2.3l-6.8-1.5.7-1.8.3-.9 1.6-.6.6-.5 2.1-1.5c.8-.7 1.4-1.7 2-2.6a13.8 13.8 0 00-.5-14.1 16.3 16.3 0 00-6.9-5 34.4 34.4 0 00-8.2-2.4c-2.8-.6-5.7-.5-8.6-.7-2.6-.3-5.4-.7-7.5-2.5a4.4 4.4 0 01.8-7.2c1.2-.7 2.8-.2 4 .2.4.2.8.3.7.9v.7c0 2 1.2 3.8 2.4 5.2.6.8 1.8 1.1 2.7 1.2.6 0 1.5-.2 2.1 0 .2 0 .5.4.7.2.2-.2 0-.7 0-1-.4-.8-2-.7-2.1-1.8 0-.1 0-.6.3-.3l.4.5a4 4 0 002.6.9c1.2-.1 2.6-.5 3.4-1.5 1.4-1.9 2.3-4.2 1.4-6.5-.3-.8-1-1.6-1.1-2.4-.2-.6.1-.8.3-1.2.1-.3-.2-.3-.3-.2-1 .4-1.2 2-1 2.9.2.8-.3 3-1.2 3.2-.3 0-.2-.5-.2-.6.1-.5 0-1.1 0-1.6a3 3 0 01-.2-1c0-.6-.4-.2-.5 0l-.3 1.3c-.2.5-.6 1-1 1.2-1.5.8-3.7 0-5-.8-.3-.3-.5-.6-.9-.8-1-.6-2-1.2-3.2-1.5-3.1-1-6.7.4-8.6 3.3a7.7 7.7 0 00-1.2 6 7 7 0 003 4.5c4.6 2.5 11 1.5 16 2 2.6.3 5 .9 7.5 2a17 17 0 016.9 5c1 1.3 1.4 3 1.5 4.6a7 7 0 01-.5 3.6c-.3.8-1 2-1.6 2.4-.5.3-.6-.2-.7-.6l-.5-1.2a30.6 30.6 0 00-10.8-11c-2.5-1.4-3.4-1.4-6.2-.7l-6.5 1.4c-2.2.4-4.6.2-6.8-.3-.2 0-.8 0-.9-.3-.4-1.3-.6-2.4-1.3-3.7-.4-.6-.6-.8-1.1-1.2-.2-.1-1.7-1.2-1.4-1.5l.3-.2c.2-.1 1.9-1 1.3-1.3l-.5-.2c-1.1-.2-2-1.2-2.6-2.2l-1.4-2.8-.6-.9c-.1-.3 0-.4.2-.4.5-.1 1.7-.4 2.1-.7.2 0 .5-.4.6-.6.2-.3-.3-.3-.5-.3h-.7c-1.6-.6-2.3-1.7-3.3-2.9-.1-.2-.8-.8-.6-1l.3-.2c.7-.5 1.2-1.7 1.4-2.5 0-.1.3-.9.2-1l-1.3.5c-1 .4-2.2 0-3.2-.6-.9-.5-1.5-1.2-2.3-1.8a9.1 9.1 0 00-7.2-1.2c-.2 0-.8.3-.5-.2l.3-.5.4-.7c0-.1.3-.5 0-.5 0 0-.3 0-.5.2-1 .5-2.2.8-3.3.7h-1.6c-.4-.1-.6 0-.8 0-.3-.1 0-.3 0-.5 0-.4-.7 0-.8 0a3 3 0 01-1.5.5h-.5c-1.5-.1-3.5.4-4.5 1.6-.3.4-.3.4-.8.3a3 3 0 00-1.7.1l-.7.5-1.1.8a4.4 4.4 0 01-1.8.7c-.2 0-.4-.1-.3.2.2.7 1.7.8 2.2.7h.3c.5-.2 1.9.1 2 .7 0 .3-1.2.8-1.4 1-1.3.7-2.7 1.4-3.7 2.5-.5.5-.5.8-.4 1.6 0 .3 0 .4-.2.6l-.9.6-2.1 1.5c-1 .8-2.2 1.5-3.1 2.5l-1.4 1.5c-.5.7-.8 1.4-.1 2.2l.4.4c.3.1 0 .6.1.8 0 .3.3 1 .5 1.1.3.2.4.2.7.2.2 0 .3 0 .4.2.3.1 1.4.4.4.8l-3.2 1.4a2 2 0 01-2.4-1c-.3-.6-.4-1.1-.2-1.7.2-.9 1.8-1.5 1.2-2.6 0-.2-.3-.3-.3 0s0 .4-.2.6l-.7.7c-1.5 1.2-2.3 2.4-2 4.5.2 1.2 1 2.2 2 2.4 1 .2 2.3.1 3.1-.4.7-.4 3.4-2.4 3.7-2.1.2.1-.1.5-.2.6a3 3 0 00-.2.7c-.1.3-.2.3-.5.3-.4 0-.8 0-1.2.3-.4.3-.8 1-.7 1.5 0 .5.3.9.8 1 .3 0 .3.2.2.5-.2 1 .3 1.7.7 2.6.4 1.1 0 1.7-.3 2.8 0 .1 0 1.3.3 1l.2-.4c0-.3.2-.3.5-.5l.8-.7c.2-.2.4-.6.5-.2.2.5.4.2.6 0l.5-1 .2-.3c.2-.1.1.7.5.3.3-.4.4-.8.6-1.3 0-.2.3-.6.3-1v-1c0-.6 0-.7.6-.8l1-.2c1.2-.3 2.4-.8 3.6-1 .3-.1 1-.4.9.2-.3 1-.8 2-1.1 3.2l-.2 1a6.3 6.3 0 01-1.5 3.2c-.5.5-1 1-1.8 1.2-.4.2-1 .3-.4.8.4.3 1 .5 1.5.7l1.8.4c-.1.3-.4.6-.8.7-.5.2-1.3.3-1.8.1-.5 0-.6.2-.3.6.6.6 1.3.7 2 1a39 39 0 01-4.7 1.3 13 13 0 01-5.2.1 9.1 9.1 0 00-3.5 0c-1.7.5-3.3 1.5-5 2l-2.6 1c-.9.3-1.7.5-2.4 1.2-.5.6-.5 1.4 0 2 .2.4.1.5 0 1a3 3 0 00-.3 1.7c-2 .4-3.7 1.4-5.5 2.1-.2.1-.4.2-.5.1v2c0-.6.4-.8.8-1.1 1-.7 2.1-1.3 3.3-1.8l1.6-.7c.2 0 .4 0 .5.2l.5.4c.2.2.7.5.7 0l.1-1c.4-.3.5.4.6.6.2.3.6.7 1 .8.3 0 .2-.3.2-.6v-.8c.5-.5.5 0 .7.4 0 .2.2.3.3.5 0 .2.2.5.4.5l.3-.1c0-.4 0-1.7.6-1.5.4 0 .8-.2 1.1-.5l.7-.8c.2-.2.7-.3 1-.4h.4c.2 0 .5.5.4.7v.3c0 .4.2 1 .5 1.2.2.1.3-.5.3-.6l.4-.8c.1-.2.8-.2 1 0l.1.2c0 .3.4.7.6.8.5.2.4-.4.5-.7 0-.2.4-.6.6-.7.6-.2.7.5 1 .9l1 .7c.3 0 .3-.3.3-.5v-.6c.5-.8 1-.2 1.6-.5l.3-.2h.6c1 0 1.8.4 2.7.3l.9-.1c.5-.1.7-.3 1-.5.4-.2.8 0 1.1-.2l.4-.2c.3-.1.6.3.5.6-.1.2-.7.5-.6.8.2.4 1.4.1 1.7 0 .6-.4 1.2-.3 1.9-.6.5-.4.4-.9.9-1h.5c.3.4.3.8 0 1.2-.6.9-1.8.6-2.4 1.4 0 .2-.1.2-.2.3 0 .4.5.1.6 0 .5 0 .7.2 1 .5a4 4 0 003 .7c1 0 2-.5 2.6-1.4.2-.1.9-1.2 1.1-1l.1.2c0 .4-.3.7-.6 1-.3.3-.1.6.2.7.5.3 1.7 0 2.2-.2l.8-.5c.3-.2.3-.1.6 0 1 .5 2.2.6 3.2.1.2 0 1-.5 1-.8 0-.2-.4-.3-.5-.4-.2 0-.8-.4-.8-.6-.2-.3.7 0 .7 0l.7.1 8 1.7.8-.1 1.6-1.7c.2-.3.3-.3.6-.2h.5c0 .4.1 1 .3 1.3.2.3.8 1 .9.3 0-.3 0-.8.4-.9.2 0 .6-.3.7 0l.2.7c0 .5.2 1 .6 1.2.5.3.4-.4.6-.7.3-.4.5-.4.9-.3.3 0 .3 0 .5.3l.4.7c.3.5.6 0 .8-.3.4-.5 1.3.1 1.8-.3l.3-.3c0-.2 0-.3.3-.3h1l3-.4.5-.1.8.3h1.2c.6 0 1-.3 1.6-.5.2-.1.5-.3.7-.2l.2.2c.1.2.6 0 .8 0h.7c.4.3-.3 1.3-.4 1.5l-.4.5-.7.7c0 .1-.3.3-.2.5.2.2.6-.2.9-.3.7-.1 1.6 0 2.3-.2.4 0 .9-.3 1.3-.5l.1-.1c.2-.1.1.1.2.2 0 .7.7.2 1 0l1-.7c.3-.3.6-.6.9 0 .2.4.5.9 1 1 .1.2.4.3.6.3.5.2.8.3 1.3.3s1.2-.1 1.7-.5c.4-.3.7-.7 1.2-.7l1 .1c.1 0 .5.2.6 0v-.4c-.2-.5-.5-.8-1-1-.7-.2-2.2.2-2.4-.9v-.2c0-.2.4-.1.6-.1h1l5.3 1 1.3-.1c.4-.1.5-.4.7-.8l.2-.3 4.4 1a31 31 0 019 4.5zm-88.6-32v.2c-.2.1-.3.8-.3 1h.4l1.3-.1c1.7 0 2.5.4 3.7 1.7l.4.4h.2l.2-.4a3.4 3.4 0 00-1.4-3.2c-.1 0-.3-.2-.7-.2a12 12 0 00-3.8.6zm.6 3.8c0 .4.2 1.2.4 1.5l.6.2h1.3c.3-.1 1.3-.3 1.6-.6v-.1c0-.3-.3-.6-.4-.7-.5-.4-1-.7-1.5-.8l-1.6-.2-.3.1-.1.2v.4z"/><path fill="red" d="M101.3 109.5c-.9.3-1.8.8-2.7 1-1.1.3-2.4-.4-2.8-1.5-.1-.4-.4-.7-.5-.2-.2 1-.2 2 .6 2.8.4.3.8.4 1.2.4.7 0 1.2 0 1.8-.4l2.5-1.4c1.8-1 4.2-1.3 6-.2l.7.5c.6.1-.3-.8-.4-.9-1-1-2-1-3.3-1-.8-.2-2.4.6-3.1.9z"/><path fill="#fff" d="M102.2 107.1l.1.3.2.3.2.1.1-.1v-.9h-.5v.2c-.1 0-.2 0-.1.1zm.9 5v.2h.5v-1.1l-.1-.2-.2.1-.2.4v.6zm5.5-13h.5v-.9l-.1-.1h-.3l-.2.5.1.5zm2.4-.2h.3l.3-.2.2-.2.3-.2v-.2h-.4l-.4-.1h-.4l-.1.2v.4l.2.3zm-1.4-.2h.1l.1-.2h-.1l-.2-.1s-.1.1 0 .2v.1zm36.4 38.5c.2-.1.4-.4.4-.6 0-.1 0-.2-.2-.2l-.1-.1h-.2v.1l-.1.3a1.3 1.3 0 00.1.5zm-2.7-.4l.3-.3.3-.3v-.1l-.3-.1h-.3l-.1.1v.3l.1.4zm-2.3-.6l.1-.1.2-.3v-.4h-.2l-.1.2-.1.2v.4zm-54-.4a3 3 0 000 1.3l.2.2.4-.2.4-.3.3-.1v-.4l.2-.4v-.4l-.3-.2-.2-.2h-.4s-.2 0-.3.2l-.3.5zm1.8.7v.3l.1.3v.5h.4l.2-.4.2-.3.4-.3.3-.2v-.3l-.4-.2h-.9l-.2.3v.1s-.1.1 0 .2zm2 0v.7l.1.2.2-.1v-.3l.2-.4v-.4l-.3-.1-.2.1v.4zm10-.5l.4.2.4-1-.6-.1h-.4v.3a2.3 2.3 0 00.3.6zm-2.2.2l.2-.2v-.2l.2-.3v-.2h-.8v.4l.2.4.2.1zm-2.4 0l.7-.5-.4-.3-.4-.2-.1.2v.4l.2.4z"/><g fill="#ffe400"><path d="M153.5 93.9c-.5.3-1.2.7-1.7 1.3-.9 1-1.3 2.3-1.5 3.7 0 .9-.2 1.7 0 2.6l.2.6v-1.7c-.1-.1-.2-.7 0-.7s.2.3.2.4l.2 2.2c0 .5.3.8.5 1.2.5.8 1 1.5 2 1.9h.3l-1.5-1.2-.4-.6s-.7-1.4-.4-1.3l.4.7.6.9 1 .8c.5.3.9.6 1.3.7l1.2.5 1.6.3 1.9.1 2.3.3 2.1.1 1.8.2h.4l-.2.2h-.6l-1.7.1-1.2-.1-.9-.1c-.2 0-.3 0-.2.1l.6.1 1.4.2h2.5c1-.2 2.1 0 3.1 0 3.9.5 8.3 2.1 11.4 4.6 1.2 1 2.2 2 3 3.3 2.2 3.4 3.4 8.3 0 11-.7.4-1.5.9-2.3 1.2-.3.1-1 .3-1.2 0-.1-.1-.3-.3-.3-.5v-.4a9.6 9.6 0 00-.6-1.8l-.2-.3-.2-.2c-.1-.2-.2-.5-.4-.6h-.6c-.2-.2.2-.5.2-.6.2-.5-.5-.4-.7-.4-.2 0-.5.3-.5 0-.1-.2.2-.3.3-.4.3 0 .6.2.5-.2 0-.2 0-.3-.2-.3h-.6c-.2.1-.4.4-.5.3l-.2-.2c0-.4.5-.4.8-.4.1 0 .3 0 .3-.2v-.5h-.3l-.8.1c-.3 0-.3 0-.4.2-.2.2-.5.3-.4 0v-.3c.3-.2.6-.2 1-.3h.2v-.3c-.3-.2-.7-.1-1 0h-.4l-.4.1c-.3.2-.4-.3-.3-.4l.9-.2h.6v-.3c-.3-.4-.9-.3-1.2-.3h-.7v.2c-.3.1-.5 0-.4-.2 0-.3 1-.3 1.3-.3 0 0 .4 0 .3-.2-.1-.2-.6-.3-.8-.3l-.9.1-.5.2-.2-.2c0-.2.2-.3.4-.4h1.2c.2 0 .2 0 .2-.3 0-.2-.5-.3-.7-.3h-.4c-.5 0-1-.1-1.3.2 0 .1 0 .2-.1.1 0 0-.2 0-.2-.2 0-.4.5-.5.8-.5h.7c0-.3-.5-.3-.6-.3a75 75 0 01-1.2 0c-.1 0-.2-.1-.1-.2 0-.2.4-.1.6-.1h.7c.3-.3-.6-.7-.7-.8-1.3-.6-3-1.5-4.4-1.9-.7-.1-2 0-2.7.1l-1.5.3-.6.1c-.1 0-.2.1 0 .2 0 .1.5.1.4.4l-.7 1c-.3.5-1 1-1.4 1.3a33 33 0 01-4.6 2.7c-.3.2-.7.2-1 .5l-.6 1.3-.3 1a56.7 56.7 0 00-.6 3.1c0 .4.2.8.4 1.1l.7.8.9 1 .8.3 2.2.3c1.6.2 3.1.6 4.7 1l1.1.3s.8.3.8.1c0-.2-.9-.4-1-.5l-1.2-.5-3-.6-1-.2-.4-.1.1-.2h.7l.8.2.8.1.6.1c.2 0 .4.1.4 0h-.2c0-.2-.3-.2-.7-.4l-1.2-.3c-.1-.1-1-.4-1-.7 0-.3.4 0 .5 0l1.4.6 2.8 1s.8.2.8 0l-.6-.2-.9-.3c-.1 0-.6-.2-.6-.4l.3-.1 1 .3c1 .3 1.7.5 2.5 1l.6.3c.2.1.3.2.4 0 0-.3.3 0 .4 0l.5.4.3.3.4.4c.3.2.7 0 .7.6 0 .2 0 .5-.3.5l-.3-.1-.4-.1c-.2-.1-.2-.1-.4 0h-.2l-.3.3c0 .2-.2.4-.3.5h-.3l-.4.2-1.4 1-.4.1c-.4 0-.8-.3-1.1-.5l-.4-.2h-.3l-.6-.3-.3-.2v-.2h1l.7-.1c.6-.1 1.3-.2 2 0l.3-.1c.1-.2.3-.2.5-.1h.2s.1-.1 0-.2c0-.2-.3-.3-.5-.3l-.2-.2c-.3-.3-.7 0-1 0h-.7a135.6 135.6 0 00-6 .5c-1.6.1-3.2.5-4.8.7-.3.1-.8.2-1.2 0l-1-.3-1-.4c-.4-.1-1-.3-1.4-.2-.2 0-.4.1-.7.4l-.9.8-.8 1c-.2.6-.1.8 0 1.3.1 0 .3.6 0 .5l-.3-.4-.2-.2c-.2 0-.1.4-.1.5v.3c-.1.2.6.3.7.3.2 0 .7 0 .8-.2l.4-.7h.6l.3-.1h.6l2.1-.3c.2 0 .5 0 .4.2 0 .1-.1.1 0 .2 0 .1.7 0 .8 0 .3-.2.8-.2 1.1-.3l.6.1.4.5c.5.5 1.4.3 1.9 0 .3-.2.6-.6 1-.5l.4.1h2.2c.7.1.7.5.7 1v.5l-.4.5-.2.3c0 .1-.2.3 0 .4h.3l.7-.3.6-.4.3-.6.4-1v-.2c0-.3-.2.1-.2.2l-.6 1.2-.4.2-.1-.3.2-.8c.1-.3.1-.6 0-.8 0-.2 0-.9.2-.8.2 0 .2.5.3.7v.2l.1-.2v-.5c0-.4.4 0 .6 0h.6c.2 0 .2 0 .3.3.2.3 0 .6 0 .9-.1.2.2.5.2.8v.9c.2.2.5-.2.6-.3l.7-.9.2-.2c.2-.2.5.7.7.4v-.5c-.3-.5-.6-1-.5-1.4 0-.2 0-.4.2-.5.2-.2.4 0 .6-.1l.2-.1c.1-.2.3 0 .5-.1l.2-.1h.7c0 .2-.2.2-.3.2-.3.1-.3.4-.4.6l-.1.6c0 .3 0 1 .4 1 .3 0 .2-.2.2-.4 0-.5-.2-1.1.2-1.6.2-.2.3-.3.3-.5 0-.3.2-.3.4-.3h.4l.5-.1c.2 0 .3-.1.5.1 0 .2.2.3.4.3l.8.2h.2l.5.1h.8s.8 0 .7.2c0 .1-.5.3-.7.2h-.8c-.2.1-.2.1-.4 0-.2-.2-.5 0-.7 0-.2 0-.5.2-.5-.1 0-.3-.2-.2-.4-.2l-.3.3h-.1c-.3 0-.3-.4-.6-.1l-.3.5c0 .2.3.3.4.3h.9l2-.2c1.3 0 2.6 0 3.8.3h1c.5-.2.7-.7.8-1.1l.2-1c.2-.5.4-1.1.3-1.8l-1.6-.5c-.2-.1-.3-.3 0-.5 0 0 .2-.1 0-.3-.2-.2-.4-.1-.7-.1h-.3c-.1 0-.3.2-.4.1-.1 0-.2-.1-.1-.2l.4-.3.8-.5.2-.5.2-.3c0-.3-.6 0-.6 0-.6.3-1.3.2-1.8.4l-.6.2h-1.1c0-.1-.2-.3-.1-.4l.3-.2.5-.3.7-.5.7-.5.3-.7c0-.1.1-.7 0-.8h-.6l-.3.2-.3.5c-.2.4-.4.9-1 1 0 .1-.5.4-.6.2v-.1c.1-.1 1.4-.5 1-1-.2-.1-.5.1-.7.2-.7.4-1.5.6-2.3.4a3 3 0 01-1.8-.6 5.6 5.6 0 01-2.3-3.2c-.1-.2-.1-.2 0-.4v-.5c-.2-.3 0-.5 0-.7l.3-.3c.1-.1.3-.1.4 0 .2 0-.5.6-.3.7h.2c.3 0 .2.3.3.4l.3.3c0 .2-.1.5-.3.3-.1 0 0-.2-.2-.2-.3-.1-.1.3 0 .4.2.7 1 1.2 1.7 1.5 1.2.6 2.3.8 3.7.8.8 0 1.6 0 2.3-.5l.4-.5.3-.3c.3 0 .3.5.3.7.2 1 .2 1.8-.3 2.7l-.4.6c.4 0 1 0 1.5-.2.3-.2.5-.6.7-1 0-.2 0-.6.3-.3.2.2.1.5.1.7v1.4c0 .3 0 .3.2.3s.4 0 .4.2v.9l1.3.1c.2 0 .6 0 .6.4 0 .3-.2.7.3.7l1.2-.5a6.6 6.6 0 003-2.5c.6-.8 1-1.8 1.3-2.7 1.6-4.8-.5-11.3-4.5-14.3-2.4-1.8-4.8-3-7.6-4-1.8-.6-3.6-.8-5.4-1l-6-.3a60 60 0 01-5-.7c-2-.5-3.8-1.7-4.6-3.8-.7-1.7-.4-3.8.7-5.2.6-.7 1.3-1.2 2.1-1.6a6 6 0 014 0c.4 0 .7.2 1 .4l.9.7c.1 0 .3.3.3.5v.2l.2.3.5.5c.3.4.8.6 1.2.8l.7.6-.1.2c-.3 0-.8-.3-1-.5-.1 0-.6-.4-.6 0l.2.6.3.5.5.7c.1.1.1.3 0 .4l-.3-.1-1.3-1.6a1 1 0 00-.2-.3c-.4-.1.2.9.2 1l.4.5c0 .2.2.3.3.4 0 .1.6.5.4.7-.2.1-.4-.1-.5-.2l-.6-.7-.3-.5s-.4-.6-.4-.3.3.7.4.9l.6.8c.4.4 1.1.8 1.7 1h1c.1 0 .8.3.7-.1l-.2-.5a4 4 0 010-2.4c0-.3.2-.5.3-.6h.2v.6c.2 1 1 1.5 1.8 1.8l.9.2h.4c.2-.2-.5-.4-.6-.4-.1-.1-.7-.3-.8-.5 0-.1 0-.2.2-.2l.2.2.7.2c.3 0 .8.2 1-.1l.1-.7.9-.7 1.3-1.2c.1-.1.8-.9.6-1.1-.2-.2-.4.3-.5.4l-.4.7c-.3.4-.8.7-1.3 1-.1 0-.5.4-.7.2l.2-.3.5-.2c.5-.3 1-.8 1.4-1.4 0 0 .3-.6 0-.4-.2 0-.3.2-.5.3l-.3.5-.3.2-.7.4c-.2.1-.4.5-.7.4-.3 0-.3-.4-.1-.6l.2-.3.2-.4c.2-.4.4-.7.4-1.1 0-.4-.6.2-.6.3l-.6.6c-.7.6-1.9.5-2.8.4-.3 0-.6-.3-1-.2h-.1l.2.3c0 .3-.7 0-.8-.1l-.3-.3-.5-.2-.6-.3-.3-.2-.2-.2v-.2l-.3-.3a6.7 6.7 0 00-2.1-1.6 7 7 0 00-3-.9l-1.8.3-1.5.7zm12.8 41.4v-.8h-.2v.5l.2.3zm.9 1.2l.6.4.3.2-.1.1h-.2l-.1.1v.2l.5.2h1.9s.1-.1 0-.2c0 0-.1-.2-.3-.2a42.6 42.6 0 00-.8-.5l-.6-.2h-.6l-.7-.6a1 1 0 01-.3-.7v.7l.4.5zm-2.3-17.8c-.1.1 0 .2 0 .2l.4-.5.4-.5.3-.2.1-.1v-.2l-.3.1c-.3.2-.5.4-.6.7-.1.1-.3.3-.3.5zm.7-.1c-.2.1-.2.3-.3.4l-.2.4v.2l.2-.1c.2-.3.3-.6.6-.8l.5-.3c.2 0 .3 0 .3-.2v-.2h-.5l-.2.2-.4.4zm-.1 1.3l-.3.4c0 .2-.1.3 0 .4 0 0 0 .2.1 0l.4-.5c.1-.3.2-.5.4-.6 0-.2.1-.2.2-.3l.3-.1c.1 0 .2 0 .2-.2v-.2h-.4c-.2 0-.3.2-.4.4a8 8 0 00-.5.6zm0 1l-.2.5.1.2c.2 0 .3-.4.4-.5l.2-.4.2-.3s.3-.1.3-.3v-.2l-.6.3a3 3 0 00-.4.7zm7.5 6l-.4.2-.2.2c.2.2.4 0 .6 0l.4-.2.5-.4.5-.6c.1-.1.1-.2 0-.2 0-.1 0-.1-.1 0l-.1.2-.6.5-.6.4zm1.7 2c-.2.1-.1.2 0 .3 0 0 .3 0 .5-.2l.4-.2.3-.2v-.3l-.6.2-.6.4zm-17.4 5.6l-.1.3v.2h.1c.3 0 .3-.5.3-.8l-.3-.3c-.1 0-.3 0-.2.2l.2.4zm.6.5c.1-.1.3-.5.2-.7 0-.2 0-.3-.2-.3s-.2.2-.2.3v.6s.1.1.2 0zm.5-.4v.3l.3-.1.2-.4c0-.2-.2-.3-.3-.3h-.3v.5zm1-2l.4.2s.3.3.4.1v-.1l-.6-.5s-.3-.3-.4-.1l.3.4zm1 0l.2.2.3.1c.1-.1 0-.1 0-.2 0 0 0-.2-.2-.3l-.3-.2c-.1 0-.5-.4-.6-.2-.1.2.4.5.5.6zm.9 0l.1.2.2.1c.1 0 .3.2.4.1 0-.2-.3-.4-.4-.5l-.3-.1c-.3 0-.1.2 0 .3zm-3.5-12.4l-1.4 1-.5.4-.3.3.1.2.5-.4a15 15 0 013.4-1.9h.6l.3-.2-.1-.2c-.2-.2-.5-.1-.7 0-.2 0-.4 0-.6.2l-1.3.6zm-2.3 2.2l-.4.4v.2c.2 0 .3-.2.5-.3l.5-.4 1.5-.8.7-.3.2-.2v-.2h-.4l-.7.3-1.9 1.3zm0 .7l-.6.6c-.1.1-.2.2-.1.3 0 .3.2 0 .3 0l.1-.2-.1.3-.4.6c0 .2 0 .3.2.4l.2.1.1.2c.1 0 .3 0 .3.2v.6l.4.2h.3l.4.2h.2c.2-.1.2 0 .2.1.1.2.3.2.4.3.2.1.3.2.4.1.2 0 .2-.2.1-.4h-.1c-.2-.2 0-.3 0-.4-.1-.1-.3-.2-.4-.1-.1 0-.3.1-.4 0v-.2s.1-.1 0-.2h-.5l.1-.3-.1-.2c-.2 0-.4 0-.3-.2.2-.2.4-.1.5-.3.1 0 .1-.1 0-.2h-.3l-.3.1s-.1.1-.1 0v-.1l.6-.4s.2 0 .2-.2v-.2h-.5l-.4.4-.3.2v-.2c0-.1 0-.2.3-.4l1.1-.7.2-.1-.1-.3-.3.1h-.2l.3-.3c.2 0 .3-.2.5-.3l.6-.3v-.3h-.4l-1.1.8-1 .7zm-6.7 12.8h1l.4-.1h.4l.3-.1.2-.1.2-.1-.2-.1a5 5 0 00-.7 0h-.8l-.6.2c-.2 0-.2.2-.2.3zm-3-4.2l-.5.4-.5.6-.6.5a7.6 7.6 0 00-.5.6c0 .3.2.6.3.8l.2.5c0 .2 0 .3-.1.2l-.3-.3-.2-.3c0-.2-.1-.3-.2-.3h-.2v1l.3.3.5.2.7.2.6-.1.2-.4-.1-.4-.1-.5c0-.3 0-.6.2-1l.8-1 .4-.6.3-.3-.1-.2h-.7l-.4.1zm-3.6 1.2l-.3.3v.2l-.2.3v.6l.2.4.2.4v.2c-.2 0-.3-.1-.4-.3l-.2-.3-.2-.4h-.2l-.1.3v.3l.3.3a1.6 1.6 0 00.9.4h.5v-.9c0-.3 0-.6.2-1l.7-1 .4-.4.1-.3v-.2h-.7c-.2 0-.3 0-.4.2l-.4.4-.4.5zm23.3-2.6l.6.4.5.2h.3l-.3-.4-.4-.2a8 8 0 00-.4-.2l-.5-.2-.4-.2-.4-.1-.4-.1h-.2v.1l.5.2 1 .5zm8.4-2.5c.2 0 .4-.2.5-.3l.2-.5a9.8 9.8 0 00-1 .8h.3zm-2.7-28.5h.4l.5-.4v-.3s-.2 0-.3.2l-.3.1a3 3 0 00-.3.2v.2zm-19.8 5.1h.2v-.1l-.2-.2s0-.2-.2-.3c0-.2-.2-.3-.2-.3v.4l.4.5z"/><path d="M114.3 90.6c.2-.3 0-1-.3-.8-.2.1.2.7.3.8zm1.4 28.9l-.4.8c0 .2-.6 1.7-.3 1.6v-.2c.5-.8.6-2 1.3-2.5.1 0 .2 0 .2-.2v-.2c-.4 0-.7.5-.8.7zm3.3-31.7a3 3 0 00-1 1.5c0 .2 0 .3-.3.2-.6-.2.6-1.6.8-1.9l.3-.4c0-.3-1 .4-1 .4s-.7.4-.6.1c.1-.2.5-.5.8-.6l.6-.4s-.1-.1-.4 0c-.8.2-1.8.8-2.4 1.4l-.4.5v.3c-.4.3-.7-.1-.9-.3-.9-.6-1.7-.3-2.6.1l-.6.4c-.2.2-.2.3 0 .3h.8c.6.3 1.1.7 1.5 1.2 0 0 .1.2.2 0s-.2-.5-.3-.6c0 0-.7-.5-.5-.6l.6.3.5-.2c.3-.1.5.3.6.6.1.2.1.5.3.3l.3-.2c.2 0 0 .5.1.6l.4.1c.1.3-.2.7-.3 1l-.4.6-.4.2-.3-.3-.2-.3h-.3c-.2-.2.1-.4.1-.5l-.1-.2-.4.1-.5.7a5.5 5.5 0 01-3 2.3l-.6.2c-.2.1-.6.8-.5 1 0 .2.6 0 .8 0 .1-.1.2-.2.5-.1.7.1 1.3.4 2 .4h1c.2 0 .7-.1.8.2.1.6-1.5.6-1.8.6h-2.8l.1.2.9.1 2.4.3.9.2-.4.5a9 9 0 00-.5.6l-.4.3-.5.1-.9.3-.5.2v.2h.6l1.3-.3c.3 0 .5 0 .2.4l-.6.4c-.9.5-2.3.6-3.3.3-.5-.2-.8.2-1.2.5a27.5 27.5 0 01-2.6 1.7c-.1 0-.2 0-.2-.2l1-.9.3-.3.1-.3c.2-.3 1.1-.7 1-1v-.1c.1-.2 1.4-1.2 1.3-1.3l-.3.1c-.1.1 0 .2-.2.2h-.2c-.2.1-.6.8-.8.7l.3-.6.2-.4c.2-.2.6-.3.6-.5v-.4c0-.1.2-.5 0-.5-.1 0-.3 0-.5.2l-1 .8-4.6 3.8c-.7.5-1 .8-1 1l-.3.9c-.1.3-.2.7 0 .9.4.3.3-.3.4-.5.2-.3.5-.4.9-.4l.5.1c.2 0 .7-.2.6.2 0 .3-.4.4-.6.6-.3.1-1 .6-1 1 0 .3.1.8.4.8l1-.3 3-.7c.4 0 2.5-.6 2.9-.4.5.4 1.2 1.3 1.5 1.8.7 1.4.3 2.9-.7 4a7 7 0 01-3.7 2l-1.5.2c-.4 0-1.1 0-1.3-.4v-.3h-1.3c-.3 0-.6 0-.6.4s.3.7.6.9h.4c.3 0 .3.2.3.5s0 .4-.2.6c-.3.3-.4 1-.2 1.3.2.4.6.7.8 1.2.2.6.2 1.2 0 1.8 0 0-.4.6-.2.7.2.1.8-.9.9-1v-1.3s0-1 .2-.7c.2.3.4 1.6.8 1.6.2 0 .3-.3.3-.5 0-.8-.1-1.5-.4-2.2v-.1c.4-.3.9 1 1 1.1 0 .2.2.8.5.5.4-.5.2-2-.1-2.4l-.4-.5c0-.2.1-.3.3-.3l.8-.3 6.2-2.3 1-.4c.3 0 .5.2.7 0l1.6-1.1s.8-.5.8-.3c0 0 0 .2-.3.5-.9 1-2 2-2.7 3a8.6 8.6 0 00-1.3 3.8l-.3 2 .2.8-.4.7-.7 1.3-.3.6c-.1.4.6.2.7.2l.7-.1c.2-.1.3-.3.4-1l.9-4.2.3-1.4.3-.3c.4-.3 1.2-1.5 1.7-1.5l.1.1-.4.5a30.5 30.5 0 00-1 1.2v.2l.4-.3c.1 0 .8-.6 1-.4l-.6.5c-.7.5-1 1.7-1.2 2.6v1.2c0 .5.4-.3.4-.4l.5-.7c.2-.2 1.7-2.1 2-1.6.2.2-.2.4-.3.4a2 2 0 00-.6.5 8.1 8.1 0 00-1.7 3v1.2c.2 1.6.4 3 1 4.5l.4.7h.2l-.3-.7a8.2 8.2 0 01-.6-4.3v-.4c.1-.1.2-.1.2 0v1.5a9 9 0 001 3.9c.1 0 .7 1.1.8.8v-.6l-.4-1-.5-2 .1-1.1.1.2v1.2c.1.1.2.8.3.6v-.6c.1-1 .2-1.8.5-2.7a16 16 0 011.6-3.1l.4-.4c.1-.1.2-.6.1-.7 0-.4-.4.2-.5.3l-.9 1-.2-.1c-.1-.3.4-.8.3-1.1l-.2-.6c-1-2.4-.6-5.4.6-7.7.3-.5.8-1.4 1.4-1.6.3 0 .4.2.2.4l-.5.3c-.2.1-.5.5-.4.8 0 0 .6-.6.8-.5.3.2-.3.5-.4.6-.3.3-.7.7-.7 1.2l1-.8c.1 0 .5-.3.6 0l-.2.2c-.4.3-.9.6-1.2 1-.3.4-.7 1.2-.5 1.7.2-.5.4-1 .8-1.4.1-.2 1-1 1.3-.8v.2l-.7.5c-1.1 1-1.4 3.1-1.5 4.5l.1 1.3c.3.5.4-.8.5-1 0-1 .1-2.1.4-3.3 0 0 .4-1.2.6-.9.1.2.1.6 0 .8l-.3 1.3c-.4 2 0 4 1 5.9a9.3 9.3 0 003.4 3.7l.6.2c0-.1 0-.3-.3-.6-.2-.2-.6-.6-.9-1.2-.6-1.2-.2-2.7.5-3.8.5-1 1.3-1.6 2-2.3.5-.6.8-1.2.9-2v-.4h.2v.3a6.4 6.4 0 01-1.4 3.4c-.4.5-.9 1-1.2 1.7-.3.7-.4 1.4-.4 1.9s0 .8.2 1c.4.6.7-.8.7-1 .4-1.2 1-2.2 1.6-3.3.5-.8 1-1.7 1-2.6a6 6 0 000-2.3l-.3-1.7c-.1-1 0-2 .5-2.9l.2-.3h.2v.5a7 7 0 00.5 5 5.2 5.2 0 004 2.8s1 .1 1-.1c0-.4-.6-.6-.8-.7a3 3 0 01-1.8-2.4 8 8 0 010-3c0-.1.2-.6.4-.6v1.2a5 5 0 00.4 3.4c.2.3.3 0 .2-.3-.2-.7-.3-1.3-.2-2 0-1.2.2-2.2.1-3.4v-.7c0-.1 0-.2.1-.1.2.2.3 1 .3 1.2 0 1-.2 2.7-.1 3.3v.1l.1-.3.4-1.8c.2-1.4.2-2.8-.4-4.1a2 2 0 00-.4-.6c-.1-.2-.3-.3-.2-.6.2-.3-.6-.7-.6-1l.1-.3.4.3.7 1s.3.5.4.2v-.3c.2 0 .2.6.2.7 0 0 .4 1.1.6 1l-.1-.7c-.3-.6-.3-1.2-.3-1.9 0 0 .1-.7.4-.6.2 0 0 .4 0 .5-.3.8.2 1.9.4 2.6a6 6 0 002.3 3c1.1.7 2.6 1 3.8.7l.4-.2a4.7 4.7 0 00-2.1-1.5c-.9-.3-1.6-.6-2-1.5l-.2-.4c.1-.4.4.2.5.2l1 1c.2 0 1.3.6 1.1 0-.1-.3-.7-.2-.8-.6 0-.3.3 0 .4-.1v-.4l-.1-2.9a11 11 0 00-.8-3.6c-.2-.7-.6-1.1-1-1.6-.2-.1-.5-.3-.4-.5.2-.5 1 .5 1 .6.2.2.4.4.6 1 .7 1.7 1 3.6 1 5.5l.1 1.1c0 .2.4 1.7.7 1.3l.1-.4-.3-1.6-.3-2.3a29 29 0 00-.5-2.2 7 7 0 00-.8-2s-.7-1-.4-1a11.2 11.2 0 012 3.9l.1 1.1c0 .1.1 1.6.3 1.4l.2-.6-.3-3c-.3-.8-.7-1.6-1.3-2.3-.3-.4-.7-.9-1.2-1l-.2-.2V97c.3-.1.8.4 1 .5.4.4 1 1 1.3 1.5.3.4.4.9.6 1.3.5 1.5 1.1 3 1 4.7v1.5c.2.8.6 2.3 1.2 3 .2.2.5.4.5.7 0 .4-.4.6-.7.6l-1.7.4-1.5-.3c-.2 0-.6 0-.4.3l.4.3a9 9 0 012 3.4c.5 1.1.9 2.4.8 3.6l-.1 1.4v.7l.2-.1.1-.6.2-2.3v-.3h.2v.4l-.2 3v1.5c0 .2.2.2.2 0l.1-.8.1-1 .3-1.5-.1-1.4v-.5s0-.1.1 0l.2.3c.2.6.2 1.3 0 2l-.2 1v1.7l.1.8c0 .1.2.1.2 0v-.7c0-.8 0-1.7.2-2.5 0-.6.2-1 .3-1.4 0-.7-.2-1.3-.4-2-.1-.2-.5-1.1-.3-1.4.1-.2.4.4.4.4l.3.6c.3.4.5.6.6 1.1v3.4a9 9 0 00.1 2.7c.1.3.2.7.5.8.1-.5 0-.9-.1-1.4v-1.2l.2-3.3c0-1-.3-2-.6-3l-.4-.8-.7-.9-.5-.8c-.1-.2-.6-.8-.3-1 .3-.2 1 .8 1.2 1 .5.5 1 1.2 1 1.9.1.2.2.4.5.3.2 0 0-.5 0-.7 0-.2 0-.4-.2-.6a7 7 0 00-1.5-1.9l-.5-.3c-.2-.2 0-.3.2-.3.3 0 .5.4.7.6l.5.4a8.4 8.4 0 012 3.7l.2 1c.4 1.2 1.6 2.6 3 2.3l1-.3h.4c-.1-.2-.7-.2-.8-.1-.7 0-1.1 0-1.6-.5-.8-.9-.9-2-1-3.2l-.2-1.1c-.2-1.4-1.1-2.4-2-3.4-.7-.9-1.4-1.7-2-2.7l-.3-.8c-.1-.2-.3-.6-.6-.4-.2.1.2 1 .3 1l.8 1.6c.8 1.3 2 2.4 2.7 3.8l.2.6v.1c-.2 0-.3-.3-.5-.6-.4-.7-.9-1.2-1.5-1.8-.4-.5-1-1-1.3-1.5-1.4-2-1.4-4.4-1.8-6.7v-1c0-.4.3-1 .1-1.3l-.2-.4c-.4-.8-1-1.5-1.5-2.1a12 12 0 00-3.4-2.3l-.7-.2c-.1 0-.2-.2 0-.3.2-.2 1 0 1.3.1 1 .3 2.2.5 3 1.2a11 11 0 011.2 1.3c.3.3.4.3.8.3a21.7 21.7 0 001-.2c.4-.2-.4-.3-.4-.3-1-.2-1.8-.7-2.5-1.3-.9-.8-1.8-1.6-2.8-2.1-1-.5-2-.6-2.9-1-.2-.2-.9-.5-.6-.8.2-.3 1.2.4 1.5.3.3-.2-.2-.4-.3-.4l-.9-.2c-1.3-.2-3.3-.3-4.6.2h-.4s-.1 0 0-.2c0-.1.2-.3.9-.6 2-.7 4-.4 6 0 .9.3 1.8.5 2.6.3.6-.2-.1-.3-.3-.3l-1.2-.2c-.7-.3-2-.9-2.6-1.5-.4-.4.5-.2.4-.4l-.5-.2a7 7 0 00-2.8-.6c-.1 0-1 .1-.8-.2 0-.5 1.5-.3 1.8-.3h.7v-.3c-.3-.2-1.2-.4-1.6-.4-2.5-.3-5.3.7-7.3 2.3l-.7.5c-.1 0-.3-.1-.3-.3 0 0 0-.3.4-.5l1-.8s.5-.4.4-.5h-.7l-.5.8-.7.3c-.4.2-1 .6-1.2 1 0 .2-.2.6-.4.4-.2-.2 0-.5 0-.8 0 .2-.3.4-.4.5-.2 0-.3 0-.3-.2 0-.4.5-1 .8-1.1l1.1-.8 1.8-.4c.1 0 .4-.1.5-.3a5 5 0 00-1.8.2c-.8.3-1.8.6-2.4 1.2 0 0-.4.5-.4.2 0-.1 0-.3.3-.6 1.2-1 2.6-1.2 4-1.5l.4-.2c0-.2-.5-.2-.5-.2-.8-.1-1.6-.2-2.5-.1-1 .1-2.3.7-3 1.3zm-17.3 16.9c.1-.1 0-.3-.2-.2-.2.1 0 .3.2.2z"/><path d="M144 106c.4.1 1 .3 1.5.1.2 0 .6-.2.6-.5s-.4 0-.5 0c-.5.2-1.3 0-1.8-.3l-.3-.3c-.2 0-.3.1-.3.3.2.2.5.5.8.6zm2.3 3.9l.3.3.6.9c0 .1.2.6.4.5.4-.3-.2-1-.3-1.2l-1-1c-.1 0-.5-.4-.6-.2l.3.4.3.3zm-12.3-1.5l1 1.2c.2.2.8 1 1 .8.2-.2-.1-.4-.2-.4l-.2-.4-1.5-1.8-.3-.5c0-.1-.2-.3-.3-.2l.1.7.4.6zm.6 1.8c.2.2.6.8 1 .6.2-.2-.5-.7-.6-.7l-.5-.6-.5-.5c0-.1-.2 0-.1.1l.2.5.5.6zm-2.3 6.7c.1 0 .9.2 1 .1l-1.3-.4h-.3v.1l.6.2zm-21.4 6.8c0 .3.7.3.9 0 .1-.3-.7-.4-.9-.1v.2zm2.6-3.2l-.1.6-.5 1.7-.3.9c-.2.5-.7 1.3-1.2 1.7 0 0-.4.2-.1.4h.4l1.1-.2.8-.2c.2 0 .1-.2.1-.5v-2c-.1 0-.3 0-.3-.2l.2-.6.4-3v-.4c0-.1-.1 0-.2 0v.4l-.3 1.4z"/><path d="M133.7 110.6v2.1c0 .6.3 1.3.5 2 0 .3.2.6.4 1l.2.2.7.5v.5c-.1.2-.4.2-.5.3-.2 0-.4 0-.2.2l.1.3c0 .2-.5.2-.6.2h-.5c-.2 0-.4 0-.4.3s0 .6.2.9l1 2.3c.5.6 1.7 1.2 2.4 1.5a7 7 0 002.7.4l.5-.1c.2 0 .5-.1.3-.3 0-.2-.5-.1-.6-.1-.4 0-.7 0-1-.3-.4-.3-.7-.9-.9-1.4l-.1-1.3v-.6c0-.5.2-.9.3-1.4v-1c.1-.4.2-1 0-1.4v-.3c0-.1.1-.2.2-.1l.2.3v2.7l-.2.6a6.2 6.2 0 00.5 3.3c0 .2.2.4.3.5l.5.2c.1 0 .2 0 .1-.2l-.4-.7-.2-.6-.3-.7c-.2-.7-.2-1.5-.1-2.2 0-.4.2-.7.3-1.1a8 8 0 00-.3-3.7c0-.2-.2-.4-.3-.4 0-.1-.2 0-.2 0-.2.2.1.5 0 .7l-.2.1c-.2 0-.2-.6-.4-.7l-.1.2v.4l.4 1.2v.3h-.3l-.1-.7a12 12 0 00-.5-1.6c0-.2-.2-.3-.3-.5l-.3-.5-.2-.2h-.3c-.5-.1-1-.3-1.4-.6 0 0-1-.5-.7-.7h.3c0-.2-.2-.4-.3-.4-.2-.3-.2.1-.2.3v.4zm2 1.8l.4.4.3.2v.1l.2.3.2.6-.2-.2c-.4-.4-.8-1.1-1.4-1.3l-.4.1c-.1.2.3.4.5.5l.5.3.8 1.3.4 1.1c0 .2 0 .4.2.3h.4c.2-.2 0-.8 0-1l-.3-1c-.2-.8-.6-1.7-1.5-2-.3-.1-.3.1 0 .3zm3.6 1.5l.2.8v2.6c-.2.3-.3.5-.3.8v1c0 .5 0 1 .3 1.3V118l.3-2v-1c-.2-.7-.2-1.3-.5-1.9l-.3-.4v.3l.3.9z"/><path d="M159 116.2s-.3.5-.4.4l-.1-.4-.4.1c-1 .6-1.8 1-3 1.2-.1 0-.7.1-.7-.1 0-.4.8-.5 1-.5.3 0 .5 0 .8-.2.3 0 .7-.2.8-.3h-.2l-.5.1-1 .2h-1.6c-.2-.2-.2-.5 0-.5h1c.1 0 1.6 0 1.6-.3h-2.8l-.5-.1-.1-.3c0-.2.6 0 .7 0h2.8v-.2h-.4l-2.1-.1-2.9-.5h-.7c-.3 0-.1.4 0 .6v.5c.2.5.7 1 1.2 1.1h1c.3 0 .4 0 .4.2 0 .8-.7 2.4-1.2 3-.7.9-1.4 1.6-2.4 2.2-.8.5-1.5.8-2.3.9-.3 0-.8 0-.8.5.1.4.7 1 1 1.2.5.5 1 .7 1.6.8.3 0 .7 0 .6.4l-.2.4c-.5.6-1 1.2-1.7 1.6-1.7 1.3-2.6 1.9-4.8 1.7-1.7-.1-3-1.2-4.1-2.6l-.6-.6c-.3-.2-.5.2-.6.4l-.8 1.3c-.5 1 0 2.1.7 2.8l.7.5c.2.1.3.2.3.4 0 .3-.4.5-.6.6a7 7 0 01-7.7-.5l-1.3-1.2c-.1-.1-.2-.2-.4 0-.2 0-.4.4-.5.6-.2.6-.4.7-.9 1a14.6 14.6 0 01-4.7 2.2l-.5.2c-.2.1 0 .5 0 .7.1.4 0 1.1-.1 1.4l-.2.4h.3c.3-.2.6-1 .7-1.2.1-.2.2-.4 0-.6l-.2-.1.1-.2c.3 0 .5.3.7.5l.2.1c.1 0 .2 0 .2-.2l-.2-.5c0-.3.2-.3.3 0l.5 1c.4.3.9.7 1.4.8h1l.4-.2v-.2l-.4-.1c-.3 0-.4-.2-.7-.3-.2-.1-.2 0-.3.1l-.3.2c-.3 0-.7-.4-.9-.6l-.4-.6v-.5h.9v-.2l.3-.2 1.7-.9.9.1c.2 0 .3.3.5.4h.4c.4.2.8.5 1.3.5l1 .1c1.4 0 3 .2 4.4.5l1.5.3.8-.2a8.1 8.1 0 002-3.4v-.6l-.2-.4-.7-1.3a3 3 0 01-.2-1c0-.1.1-.2.2-.1.2 0 .3.4.4.5l.8 1.2c.4.6.8 1.2.8 2 0 .4-.2.7-.3 1a14 14 0 00-.4 1.7h.5l.3-.9.3-1a4 4 0 012-1.6c.2-.1.4-.2.7 0l1 .2c.3-.1.5-.5 1-.5l1.3.2c.4 0 .8 0 1.2-.2l.2-.2h.9l2.6.5 1 .2.7-.4 1.6-1.1.5-.4c.1 0 0-.3-.2-.2l-.5.3-1.7 1.2-.4.3s-.1 0 0-.2c0 0 0-.2.2-.3l.6-.3.6-.5.3-.2s.4-.2.3-.4c-.1-.2-.3 0-.4 0l-.6.5c-.3.2-.6.3-.8.6l-.4.3s-.1.1-.1 0c0 0-.1 0 0-.1l.3-.4.6-.5.4-.2s.4-.3.2-.4h-.1l-.4.1-1.2 1.1s-.5.5-.6.3c0-.3.3-.4.5-.6l.6-.5.7-.6c-.4-.4-.9-.2-1.2.2-.2.2-.3.6-.6.7h-.1c-.1-.2 0-.4.2-.4a9.3 9.3 0 00.6-.9l-.1-.2c-.5-.4-1.1-.8-1.3-1.4-.1-1 .5-2.6.9-3.4.4-1.1 1-2.3 1.7-3.2.6-.6 1.4-1 2.2-1.3 1.8-.8 3.5-1.4 5-2.7l.7-.7.2-.4v-.2c-.1-.2-.4.3-.5.3 0 .2-.1.4-.3.3-.2-.1.1-.5 0-.6l-.4.1-.2.4-.3.4c0 .1-.2 0-.2 0-.1-.3.2-.7.4-.8l.4-.4-.2-.1s-.3 0-.4.2c-.5.3-1 .8-1.2 1.4zm-31.8 18.2h.2l-.2-.1v.1zm-1-.3v.3l.7-.3.3-.2h-.3c-.3-.1-.6 0-.7.2zm-1.3 2c.1 0 .6 0 .3-.2-.1 0-.4-.9-.6-.7v.4c0 .2.1.4.3.4zm-2.5 1c.2 0 .3-.3.3-.4v-.2c-.2 0-.5.6-.3.7zm33.2-6l.1.3c.2 0 .4-.2.6-.4l.4-.3.2-.2v-.2c-.2 0-.6 0-.7.2l-.6.6zm-1 0c0 .2-.3.4-.3.4 0 .1.1.2.3.1l.3-.1.7-.7.2-.2v-.1l-.4.1-.8.6zm-1 .3c-.2.1-.2.2 0 .3.3.2.5-.3.7-.5l.4-.4c.2 0 .4-.2.3-.2 0-.1-.1-.1-.2 0-.4 0-.7.3-1 .6l-.3.2zm-1-6.4v.4c.3.2.5-.5.5-.6l.2-.6v-.4l-.4.5c0 .3-.2.6-.3.7z"/><path d="M128.1 119.7v.9l.2.6c0 .3-.2.3-.4.1-.3-.3-.2-.8-.3-1.2v-.4l.1-.4c0-.2.4-.9.1-1l-.2.3c-.3.6-.8 1.3-1 2-.1.8.5 2.4 1 3 .4.7 1.4 1.3 2 1.7.2 0 .8.4.8 0l-.2-.4a3 3 0 01.2-2.7s.2-.3.3-.2c.1.1 0 .5-.1.6l-.2 1c.2.4.4-.5.4-.5 0-.4.3-1 .5-1.3l.4-.5c.3 0-.1.6-.1.6-.4.5-.6 1.3-.7 2 0 .3.2 1 .4 1.1 0-1 .2-1.8.7-2.6l.7-1c.2-.2 0-.5 0-.7-.2-.5-.4-1-.4-1.6v-.6c0-.3-.2-.3-.4-.3-.7 0-1.3-.4-2-.6-.3 0-.4.3-.6.6l-.6 1.6s-.3 1.2-.5.8c-.2-.3.1-1 .2-1.3l.2-.7c0-.3.2-.5.3-.7 0-.3.3-.7.1-.6l-.2.3-.7 2.1zm4 3.6v.5l.3-.6.3-.7s.4-.7.3-.8c-.2 0-.6.7-.7.9-.2.3-.2.4-.2.7zm-6.2 0a2 2 0 00.9 1.5l.6.5v.3c0 .2-.3 0-.5 0h-1v.8a9 9 0 01-1.1 4.8c-.4.7-1 1.2-1.6 1.7l-.3.3c-.1.3.3 0 .3 0l.5-.2c1.9-1 2.8-3 2.9-5.3v-.7c0-.1 0-.2.2-.1s.1 1 .1 1.1a7 7 0 01-1.1 3.7c-.2.3-1.4 1.3-1.2 1.5l.7-.3c.7-.5 1.2-1.2 1.7-1.9.3-.4.5-1.2.5-1.7l-.1-.8c-.1-.4-.4-1.2-.2-1.7s.3.5.3.6l.3.8.6 1.5c.6 1.2 1.8 1.7 3 2.1.6.3 1.5.7 2.2.7.3 0 .8 0 1-.2h-.9c-1.3-.3-2.5-1-3.7-1.6-.6-.4-1-1-1.3-1.3a.5.5 0 01-.3-.5v-.1l.2.2c.2.3 1 1 1.4 1.2l3 1.5c.4 0 .7 0 .5-.4-.2-.4-.5-1.2-.3-1.5.2-.6.5-1.1 1-1.4l.4-.5.3-.3h.1c0 .3-.3.6-.4.8-.2.4-.2 1-.2 1.4v.8l.4.4c.2.1 0-.3 0-.4-.4-1 .2-2.3.7-3.2.3-.6.6-1 .7-1.6 0 0 .2-.5 0-.5l-.4.7c0 .1-.2 0-.2 0l.2-.6c.1-.3.5-1 .2-1.3-.2-.1-.3.7-.4.8 0 .1 0 .7-.3.7-.2 0 0-.7 0-.9l.2-.7s0-.1 0 0l-.2.2-.1.5-.1.3h-.2c0-.5.3-1 0-1.4l-.1-.2-1.1-1c-.2-.1-.3-.3-.5-.2l-.2.3c-.3.6-.8 2-.4 2.7.4.7 1.4 1.4 2.2 1.2h.3c.4 0 0 .4 0 .5-.6.7-1.7 1-2.5 1a9 9 0 01-2.1-.8c-1-.4-1.8-1.5-2.5-2.2-1-.9-1.5-2.6-1.7-3-.3.4-.5.9-.4 1.4zm9.4 6.2c0 .2.2 0 .2-.1 0-.3.2-.6.3-.8.1-.2.5-.7.2-.8-.2-.1-.3.3-.4.4l-.3 1v.3zm-1.7.9c0 .4.2.7.4 1l.2.4h.4c0-.2 0-.4-.2-.5-.4-.5-.4-1-.4-1.5 0-.1 0-.5-.2-.4-.3.1-.2.8-.2 1zm15.4-10.8l.1.1.3.1h.6l.4-.2.2-.1c0-.2-.1-.2-.2-.2h-.3a4 4 0 01-.5.2h-.5zm-3.1-1c0 .2.2.3.4.5.3.2.6.5 1 .4a8.7 8.7 0 01-1.2-1.9s-.2-.2-.3-.1v1.2zm1.8 2h1l.3-.1v-.2h-.7c-.7 0-1.3-.1-2-.4l-.3-.2-.1.1v.2l.3.2 1.5.4zm-.5.9l.7-.1-1.3-.2h-.6l-.1.1v.1h1.4zm-3.8 1l.1.7.2.3.1.1h.1l-.1-.6a6 6 0 01-.1-1v-2.3a5 5 0 00-.3 1 9 9 0 000 1.7z"/><path d="M118.2 124.4c.1.8.4 1.9.8 2.5.5.8.9 1.7.8 2.6l-.3 1.5-.1.4.1.1c.2 0 .4-.3.5-.4 0-.1.3-.3.4-.7a5 5 0 000-2.5c0-.4-.2-.9-.5-1.5-.4-1-1-2-1.2-3.2v-1.6l-.2-.2-.1.1-.1.3-.1.5v2.1zm.7-3.2c0 1 .2 2 .5 3 .4 1 1.2 2.1 1.4 2.8.2.6.3 1.4.3 2v.5h.2l.2-.3v-1.3c0-.3-.3-.6-.4-.9 0-.3-.1-.4-.3-.8l-.8-2v-.3l.1.1.4.7a98.6 98.6 0 001.4 3v1.5l-.1.4c0 .2.3.1.3.3v.5l-.2.5-.2.4-.5.5a6 6 0 01-1.3 1c-.2 0-.4.2-.5.3-.2 0-.2.2-.2.2 0 .2 0 .2.2.3h.8l1-.8c.4-.4.8-.7 1.1-1.2a6.7 6.7 0 001.5-4.2v-1.8s0-.1 0 0c.2 0 .2.1.3.3.3.5.3 1.3.3 2 0 .6 0 1.4-.3 2-.1.5-.4 1-.7 1.4l-1 1c0 .2-.1.2-.2.3v.2h.3l.3-.3a9 9 0 001.7-2c.4-.7.6-1.5.8-2.3.1-.4.2-.8.1-1.2v-.3l.1-.1v-1c-.2-.1-.3 0-.4 0a8.4 8.4 0 01-3.5-2 9.6 9.6 0 01-1.8-3.3l-.2-.6-.2-.1-.2.2-.3 1.4zm2.3 10.2s.1 0 0-.1c0 0 0-.2-.1-.1l-.1.2h.2zm23.4-6l.3.2s.1-.1 0-.2l-.2-.4-.3.1c0 .1 0 .2.2.3zm-.3.5v-.1h-.3l.3.1zm-6.1 0l.6.8.8.6c.3.3.6.7 1 .9a5.8 5.8 0 004.9.5l.3-.2v-.1h-.4a5 5 0 01-2.7.2c-.5 0-1-.3-1.5-.5-.5-.3-1.2-.7-1.6-1.1l-.6-.7c0-.2-.2-.3-.3-.5l-.4-.3h-.2v.4zm.8-.4v-.2c0-.1 0-.3-.1-.2-.1 0-.1 0 0 .2l.1.2zm.3-.3l.5.7.4.2s.1-.1 0-.2l-.2-.4-.3-.6c0-.2-.2-.4-.3-.5h-.3c0 .2 0 .5.2.8zm2.1-1.1l-.9.2h-.5l-.1.4.1.3.4.4.6.8c.3.3.5.5.9.6 1.1.6 2.5 1 3.7.5a11.1 11.1 0 001.4-.7c.1 0 .2-.2 0-.3h-.1c-.2-.2-.5-.2-.7-.3h-.3v.3l.2.1s.1 0 0 .1h-.3c-.5.1-1 .2-1.5 0a4 4 0 01-1.8-.8 2 2 0 01-.4-.6c0-.1-.2-.4-.1-.5h.2s.1-.1.2 0l.2.2.2.1v-.2c0-.2 0-.3.3-.4h.2v-.3c0-.2 0-.4-.2-.4l-.2.1-.2.1-1.3.3zm-.6 1.4l.8.7.2.1c.1 0 .2 0 .1-.1 0 0 0-.2-.2-.3l-.4-.4a21 21 0 01-.5-.5l-.4-.4-.2.1.1.2.5.6zm-29.1 4.4v-.1zm-1-2.5a92.7 92.7 0 01-4.9 1.3l-1.9.2c-1 0-2 0-3.1-.2H99l-1.4.1h-.8a6 6 0 00-2.2 1.1c-.7.6-1.2 1.3-1.8 2-.3.6-.6 1.3-1.2 1.6l-.4.4v.3c-.2 0-.4.1-.4.3l.3.6v.1c-.3 0-.5-.3-.6-.3-.1 0-.2.1-.1.3l.3.4c.2.2.6.2 1 0l.3-.1c.2 0 .3 0 .5-.2.4-.3.5-.8.7-1.2 0-.4.1-.4.4-.5l.8-.3.8-.1c.2 0 .2-.2.2-.3l.2-.3c.6-.7 1.4-1 2.2-1h.5c.3-.3.6-.8 1-1 .3-.2.8-.3 1.2-.2.3.1.5.4.9.4.1 0 .3 0 .5-.2l.7-.3c.6-.2 1.2 0 1.9 0l.4-.2a4 4 0 00-.4 0h-.3c-.1 0-.1-.2 0-.2l.6-.1c.4 0 .9 0 1.3-.2h.5l.1.1h.6l.3.1-.1.1h-.7a21.3 21.3 0 00-1.2.2v.2l.9.2 1.2.2c.9 0 1.7 0 2.5-.4l.4-.2c.1 0-.3 0 0-.2l.7-.4s.5-.3.3-.3h-.3c-.2 0-1 .3-1 0l.2-.1 1.3-.4 1.5-.5h.3v-.2h-.3a100 100 0 00-3.3 1l-.9.2s-.1-.1 0-.2l.9-.3 3.2-1h.8l.3-.2v-.2h-.5l-1 .4h-.5l-.3.1-.5.2-2.6.8-.6.1v-.2l.3-.2c.2 0 .5 0 .7-.2.3 0 .5-.2.8-.3l2.3-.8 1-.4.5-.1c.1 0 0-.2 0-.2h-.7l-2.5 1zm-4.3 2.8c0 .1 0 .2.3.2l1.9-.4.4-.1v-.2h-.3a23.6 23.6 0 01-2.3.5zm1 .3h.7c.5 0 1.3-.2 1.7-.4v-.2h-.5l-1.4.4-.4.2zm-17.8 1l-1 .4c-.3.1-.6.1-.7.4v1.1s-.2-.2-.3-.1l-.1.4c0 .2 0 .4.2.6l.8-.6.8-.6.4-.7.2-.4.6-.4c.3 0 .5-.2.7-.3 0 0 .5-.2.4-.4h-.2l-1.8.6zm1 1c0 .2 0 .3-.2.4l-.5.3-.6.4-.3.4v.4l.4.2v.1l-.6-.3c-.1-.1-.1-.3-.3-.2-.1.2.2.6.3.7.1.3.4.7.8.6.2 0 .1-.3.1-.4 0-.3 0-.5.3-.7l1.1-1.1.6-1 .3-.5s0-.2-.2-.2l-.4.2c-.3.2-.5.3-.7.7zm22.2-5.2h.3l.5-.1.4-.1c.1 0 .1-.2 0-.2h-.6l-.6.3v.1z"/><path d="M99 131.9a2 2 0 00-.5 1.3v.6c.1 0 .7.7.4.7h-.3c-.2.2-.5 0-.7 0v.2c0 .4.7.4 1 .4.2 0 .6-.1.8-.3.3 0 .1-.3 0-.4v-1l.8-1.5.2-.6c0-.2-.3-.2-.4-.2-.4 0-1 .5-1.2.8zm-2.6 1l-.2.7c0 .3.3.5.5.7.1.1.4.4.6.2.2 0 .3-.2.3-.4v-.3c-.2-.3 0-.7 0-1 0-.1.4-.7 0-.7l-.4.2c-.3.1-.6.3-.8.6zm-.4 1.8l.4.4c.2.2 1.1 1 1.3.4 0-.2-.1-.5-.4-.5H97l-.4-.4c0-.1-.4-.5-.6-.5l-.1.2.1.4zm17.3-4.7l-2.4.6-1.1.4-1.8.2-2.2-.1-.7-.2h-2.6a1 1 0 00-.6.4l-.4.9c-.3.4-.5.8-.6 1.3 0 .2.2.3.3.5.1.1.4.4.4.7 0 .2-.4-.2-.5-.2a4 4 0 01-.5-.8s-.1-.3-.3-.2c-.2.1-.2.4-.2.5 0 .2.1.6.3.7l.4.2h1c.5 0 .9 0 1.2-.5l.2-.4c0-.2.1-.4.4-.3.4.2.5.5 1 .5h5.4s.8 0 .5-.3l-.6-.2h-.6l-.3.3c-.2 0 0-.3 0-.4l.2-.3c0-.2.1-.5.4-.4.2.1.2.1.4 0 .1-.2.2-.1.4 0l.3-.1.5-.4c.4-.2.8-.4 1.2-.4.2 0 .4.1.2.2l-.6.3-.6.2a1 1 0 00-.3.1v.1h.2a8.6 8.6 0 011-.4c.2 0 .3.2 0 .3l-.2.1a12.5 12.5 0 00-.8.2v.3l.6-.2c.1 0 .2 0 .1.1l-.4.3c-.1 0-.2 0-.3.3 0 .3 0 1 .3 1l.3.1 1.2-.1.7-.6s0-.2.2-.3l1-.4v-.2c0-.2-.5 0-.6 0v-.2l.4-.1h.1l-.2-.1s-.2 0-.3-.2l.1-.1h.5c.3 0 .8.1 1 .4l.2.8c.2.5.5 1 .3 1.6l-.1.5v.1c.2 0 .4-.4.5-.5l.1-.4.1-.3h.3v.5c-.3.7-.9 1.2-1.5 1.4l-.5.2v.2c.3.1.8-.2 1-.3.4-.3.8-.5 1-1l.3-.2h.1l-.1.6-.5.4c-.1.2-.3.3-.4.3 0 0-.3.3-.1.3h.1l1.6-.8.3-.2v.2c0 .2-.2.4-.4.4l-.2.2c-.1 0 0 .1 0 .2.2 0 .5 0 .7-.2.7-.2 1.4-.6 1.9-1.3 0-.2.2-.3.3-.5.2-.4-.3-.4-.6-.4-1 0-2.3-.2-3.2-1l-.4-.5c0-.1-.5-.5-.2-.6h1.2c.4-.3.8-1 1-1.3v-1c-.2-.7-.3-1-.7-1.4-.2-.2-.4-.5-.6-.4a40.8 40.8 0 01-4.2 1.3zm-8 3.7v-.2c-.1-.2-.5.4-.2.3h.1zm.3 0l.2-.2v-.2l-.3.4s0 .1.1 0zm.8 0v-.3s0-.1-.1 0l-.1.2-.2.3c.2 0 .3 0 .3-.2zm.2.3h.2c.1 0 .3-.3.3-.5v-.2l-.2.3-.2.2v.2zm.7 0h.2c.1-.1.4-.7.2-.9l-.1.1-.1.4-.2.4zm.5-.1l.4-.2.2-.6-.1-.1-.2.2-.2.4-.1.3zm.6 0c.1 0 .5-.5.5-.7v-.3l-.4.6s-.3.4-.1.4zm9 4s-.5 0-.4.1c0 .2.3.2.4.2.4 0 .8 0 1.2-.2.2 0 .4-.2 0-.3l-.7.1h-.5z"/></g><path d="M124 118c.1.2.2.1.3 0v-.4l-.1-.5-.1-.6c-.3-.1-.4.5-.3.6v.5l.3.5zm6.4-4.8c.2.8.5 1.4 1.2 2 0 0 .6.4.7.1l-.3-.4a4 4 0 01-1.3-2c0-.2 0-1-.3-.5-.2.2 0 .6 0 .8zm5-6.6a4.5 4.5 0 002.5 2.3s.8.3.9 0c0-.2-.5-.4-.7-.4a3 3 0 01-1.3-.8c-.5-.4-1.2-1.3-1.2-2 0 0 0-.4-.3-.2s0 .9.1 1.1zm-4-13.1c-.2 0-.9-.5-1 0-.2.2.3.2.4.3h.9c.2 0 .2-.2.4 0 .2.1.2.3.5.4.1 0 .2 0 .3.2 0 .1-.2.2 0 .3l.2.1 1.4 1.4v.5c0 .3-.3-.2-.3-.3-.2-.3-.6-1.2-1-1.2-.3 0 .2.5.2.5.4.4.6 1 .8 1.6l.6 1.6s.2.6 0 .5c-.2 0-.3-.3-.4-.5-.2-.6-.2-1.3-.5-1.8 0-.2-.2-.4-.3-.4l-.2.1.2.5.3.7.1.7c0 .1.3.9 0 .9-.2 0-.4-.8-.5-1 0-.1 0-.6-.2-.5l-.1.5c0 1 .7 1.8 1.5 2.2.4.1.6.2 1 0h.3v.2c-.2.2-1 .4-1.2.4a6 6 0 01-2.7-.8 6 6 0 01-2.2-2c-.1-.3-.3-.3-.3-.6v-.7h-.3v.8c-.1.1-.3 0-.4 0-.2.2.2.6.3.8a6 6 0 011 2.1l-.1 1.4c-.2.5-.2 1-.2 1.4l-.2.7c0 .2 0 .6.3.8.1 0 .2 0 .3.2l.1.6c.2.2.3-.4.5-.1l.4 1.1c0 .2.2.4.3.1.1-.2 0-.5 0-.8l-.8-1.3c-.2-.3-.4-.5-.4-1l.1-.8c.2-.2.3.4.3.4 0 .2 0 .7.2.8.3 0 .2-.5.2-.6v-.6c0-.4.3-.7.4-1v-.7c0-.2-.2-.7.1-.5l.5.3c.5.3 1 .4 1.6.6 1.6.4 2.5.4 3.8-.6.2-.1.3-.2.2-.4 0-.2-.3-.3-.5-.3-.8-.3-1.2-1.6-1.4-2.4a10 10 0 00-1.5-3.4 4.3 4.3 0 00-2-1.6l-.6-.2c-.3 0-.2.3-.3.4zm-7.8.8c-.2.1-.1.2 0 .4v.3c0 .2 0 .4.2.4l.6-.2c.5 0 .9 0 1.3.2 0 0 .7.4.6 0l-.3-.4c-.4-.3-.8-.4-1.3-.3l-.6-.1.6-.3a3 3 0 012.8.8s.6.5.7.2c0-.2-.3-.5-.4-.6-1.3-1-2.3-1.2-3.8-.7l-.4.3zm.2 1.5c0 .4.4.4.6.3l.5.1c.2 0 .8.3.9 0 .1-.3-.8-.6-1-.6-.2 0-1 0-1 .2zm5.2 8c0 .2-.2.8 0 .8.3 0 .4-.4.4-.6l.3-1.3c0-.2.2-1.3-.2-1.2-.2 0-.2.8-.3 1l-.2 1.3zm-2.1-11.3c0 .4.5.3.8.2 0 0 .8-.4.6-.6-.1-.1-.6 0-.8 0-.2 0-.6 0-.6.4zm-1.2-1.5c-.1.1-.6.6-.5.8.2.3.4 0 .5-.2.3-.4 1.3-.7 1.8-.9 0 0 1-.2.8-.4-.1-.3-.9 0-1 0l-1.6.7zm-.6-.8c-.3 0-.5.2-.7.3-.2 0-.8.3-.6.6.2.3.4-.2.6-.1.2 0 0 .5.2.6.2 0 .3-.2.4-.3.2-.4.5-.5.8-.6l1.5-.6c.2 0 .4-.2.5-.3.1 0 .1-.2 0-.2-.2-.1-.7.2-1 .2l-.6.3-.4.1v-.1l.4-.2 1-.5c.2 0 .6-.2.6-.4 0-.3-.2-.2-.3-.1-.8.3-1.6.8-2.4 1.3zm-9.8 2.5v.4c.2 0 .3-.1.4 0l.2.1c.3.1.8-.5.6-.6-.2-.1-.5.2-.6 0l.3-.3c0-.2 0-.5-.2-.5-.3 0-.6.7-.7 1zm1.2 3.1s-.8.7-.6.8l.2.1c.4.2.5.7 1 .7.2 0 .2 0 .3-.3.1-.3 1-1.7 1.3-1.6.2 0 .3.6.3.8 0 .4-.2 1-.4 1.5-.1.2-.4.5-.2.7h.3c.2 0 .2-.4.4-.6h.3c.2 0 .3-.3.3-.5.2-.5.3-.9.3-1.4 0-.4 0-.5-.2-.8-.3-.4-.8-.7-1.2-.7-.9 0-1.6.7-2.1 1.3zm1.8-3c-.7 0-1.6.5-2.2.9-.4.2-.8.7-1.2 1h-.7c-.2.1-.2.9 0 1h.6c.2 0 .4-.3.5-.5l.6-.7c1-.9 3.8-1.7 4.6-.5a4.1 4.1 0 01-.8 5.4c-.2.1-.4.3-.4.5 0 .6.8 0 .6.5 0 .1-.5.7-.3.8.3.1.5-.5.6-.7l.2-.6v-.3c.2-.3.2.2.2.2 0 .4 0 .6-.3 1 0 0-.2.5 0 .5s.3-.4.4-.4c.1 0 .2 0 .3.2.4.3.3 1 .2 1.5-.2 1.2-1 2-2 2.7l-.6.4c-.3.3 0 .4.3.6.3.1.7.4 1 .3.3-.2.7-.2 1-.3a4 4 0 001.5-1.2c.1 0 .6-.6.4-.7 0-.2-.3 0-.3.2l-1 1c-.1 0-.7.4-.8.2l.5-.4c.8-.6 1.2-1.2 1.6-2.2.2-.3.3-.8.2-1-.2-.4-.3 0-.3.2-.2 1-.7 2-1.5 2.6l-.3.2c-.3 0 .3-.7.3-.7a6 6 0 001.2-2c.2-1.2.4-2.4 0-3.6 0-.5-.4-.8-.6-1.3l.5-.8v-.2c.1-.4.2-1 .1-1.4 0-2.2-2.4-3-4.1-2.5zm5.3 5l.4.7c.3.6.5 1.4.5 2 0 .1-.1 1.1.2.8.3-.3.1-1.2.1-1.5l-.3-1.3c0-.1-.3-.6 0-.6.2 0 .4.7.5.9.3.5.2 1.3.2 1.8 0 .1 0 .7.2.6.3-.2 0-1.5 0-1.8l.1-.5c.4.4.3 1 .3 1.4l.1 1h.2v.7c-.2 1-.4 2-1 2.8-.6.7-1.7 1.8-2.6 1.7-.4 0-.2-.2 0-.3.1-.1.3-.3.3-.5 0-.4-.4 0-.5.1a3 3 0 01-1.5.8c-.1 0-.5 0-.4.2.1.2.6.2.7.2l.7.1c1.6 0 3.4-.8 4.1-2.3.7-1.4.6-3.1.7-4.7v-.8c-.1-.2-.3 0-.5-.1-.2-.3-.1-1-.6-.9-.4.2-.5-.6-.7-.8h-.4l-.2.2c-.2 0-.3-.4-.5-.5l-.3.1c0 .1 0 .3.2.4zm-6.3 9.2v.1c0-.1-.6-.8-.7-.3l.1.6c0-.2-.2-.3-.3-.4-.3 0-.3.3-.5.2-.4 0-.2 1-.4 1.2l-.5-.5v.5c0 .2 0 .3-.2.4-.3 0-.3.1-.4.4 0 .2-.2.8-.1 1l.3-.3c0-.1 0-.3.2-.2.1.2.3-.1.4-.2h.2c.2 0 .3-.3.4-.5l.1-.3v.5l.5-.2.9-.5c.3-.2.2-.4.3-.7l.2-.3-.1-.6c0-.2 0-.7-.2-.7-.3 0-.3.6-.2.8zm7.1 1l-1 .7-.4.8a13 13 0 00-1.4 4.2c0 .1-.1.8.2.6h.1l.2.6.1.6c0 .2 0 .5.3.6.1 0 0-.1 0-.2.1-1.6.4-3 1-4.3.2-.3.5-.8.8-1 .2 0 .3 0 .3-.3 0-.4-.6 0-.7 0-.6.6-1 1.6-1.2 2.4 0 .4-.2.8-.3 1l-.1-.3.3-1.2c.2-.6.6-1.1.9-1.7l.7-.8c.2-.2.2-.3.4-.3.3 0 .4-.5.1-.6h-.3c-.2 0 .2-.4.2-.5a11 11 0 011.3-1c.1 0 .3 0 .4-.2v-.3c-.4-.5-1.6.9-1.9 1.1zm-1.1 5.3a7 7 0 00-.5 2.6c0 .3 0 .5.2.5.1.2.2.1.2.4l.1.9c.3 0 .3-.7.3-.8l.1-1 .2-.6c0-.3-.2-.3-.4-.1v.2c-.2.3-.3.3-.3 0 0-1 .3-1.8.8-2.6l.1-.3c0-.1 0-.2-.2-.1-.3 0-.5.7-.6 1zm2.2 2.3c-.3.4-.7.7-.8 1.1v.6c.1.3.4-.4.5-.5.2-.5.6-1 .9-1.3.8-1 1-1.7.9-3v-1.2c0-.1 0-.8-.2-.8-.4 0-.3 1-.3 1.2 0 1.4-.3 2.7-1 4zm-4-16.8h.1c.2-.4-.4-1-.3-.3l.1.3zm-17.9-68.4c1 1 2.3 1.7 3.5 2.5l1 .6c.1.1 0 .2 0 .2-.4.1-1-.3-1.3-.4a42.2 42.2 0 01-8.3-5.7s-.9-1-.8-.4l.3.7c1 2 2.5 4.4 4.1 6a27 27 0 007 4.6l.6.5c-.4 0-.8 0-1.5-.4l-2.6-1.3a37.2 37.2 0 01-6.3-4l.5 1c.8 1.5 1.7 2.4 3 3.5a27.2 27.2 0 007.8 5.1l-.2.1h-1.2a20 20 0 01-4.7-1.6l-2.3-1c0-.1-.4-.4-.4-.1 0 .2.4.5.6.7 1 1 1.9 1.7 3 2.5 1.1.7 2.2 1.5 3.4 2l2.4.8s.9.2.7.4c0 .2-1.6 0-1.7-.1-.9-.1-1.8-.3-2.6-.7 0 0-.7-.4-.7-.2l.2.3a13.2 13.2 0 007.4 3c.1-.1 1-.1.7.2l-.4.1c-1 .3-2 .4-3 .4h-1c-.3.2 1.2.8 1.9 1 .7.2 1.7.5 2.8.6 1.4 0 3.6.1 4.9-.4 0 .8 0 1.5.4 2.3.1.3.2.4.5.2l1.6-1.2v.8c0 .4.2 2 1 1.7l1.5-1.2c0 .4.1.8.3 1.1l.5 1.3c.1.4.6-.1.7-.2l.7-.8c.1.3.7 1.4 1 1.2.4-.3.7-.7.9-1.1l.5.3c.2 0 .4.2.6 0l.5-.9c.3-.5.5-.7.9 0 .1.3.2.4 0 .8l-.6.7a2 2 0 01-.7.2c-1.3.4-3.6.8-3.5 2.7 0 .5.2 1 0 1.6 0 .4-.3.7-.8.7-.1 0-.8-.2-.4.2.2.3.6.5.8.5l1-.2c.2 0 .1.3.2.5 0 .7 0 1.3.4 1.9.1.2 0 .3-.3.5l-.7.5c-.2.2-1 1-1.1.4l-.4-1.8-.9-1.5c-.1-.2-.2-.4-.5-.5-.5-.3-1.2.1-1.4.7-.1.3-.2.2-.5.3l-.5.1c-.2 0-1.6.8-1.2 1.2.2.1.4-.2.6-.2h.9c.1.1.4.1.4.3-.5.1-1.4.4-1.5 1.1 0 .3-.1.4-.3.5a1 1 0 00-.3.4c-.1.4-.5 1.5.2 1.5.2 0 .2-.2.3-.4l.2-.2c0-.2 0-.3.3-.2.2 0 .3 0 .3.2l-.1.6.2.4v.5c0 .4.2.9.5 1 .4.5.4-.5.6-.7 0-.2.3-.2.5-.2l.5-.1c.2-.1.3 0 .4.1.2.2 1 1 1 1.3-.2.2-.7-.2-.8-.3-.5 0-.7.6-.8 1h-.6c-.2-.1-.5-.7-.7-.3-.3.4.4 1.2.6 1.5.9 1 2.1 1.3 3 .3.8-.7.7-1.6.5-2.5l-.2-.8c-.1-.4 0-.5.3-.9l1-.9c.8-.7 1.7-1.2 2.6-1.7l1.3-.6c.3 0 .6 0 .4-.5l-.3-1.8c0-.2-.1-.7.2-.8h.6l.4-.3c.2-.2.4-.3 0-.4-.4-.1-.7-.5-.8-1v-.6c.4-.5 1.1.1 1.4.4 1 1 .7 3.5-.1 4.5a4 4 0 01-2 1.3c-.3.1-.9.1-1 .5 0 .5.8.7 1.1.7.1 0 .7 0 .5.2-.2.5-2.2 2-3 2.3-.4.1-.8.1-.6.6l.7.6c.7.5 1.4.9 2.2 1 .2 0 .2 0 .2.2a6 6 0 01-1.6 2c-.3.4-.6.4-.7.6-.4.4 1 .5 1 .5a5.5 5.5 0 004.8-1.3 6 6 0 001.8 3.5c.2.1.2.2.4 0l.4-.5c.5-1 1.2-2.1 1.3-3.2 1.5.6 3 1.4 5 1.5.2 0 .9 0 .8-.4l-.4-.5c-.6-.7-1-1.5-1.2-2.4.6-.2 1.1-.6 1.6-1.1.1-.1 1-.9.6-1l-.5-.1c-.7-.1-1.5-.5-2-1l-1.7-1.8.7-.5.5-.3c.2-.2-.2-.3-.3-.4l-.4-.4a7.5 7.5 0 01-1.6-2.2c-.4-1-.7-3.2.8-3.5.3 0 .4 0 .5.4.4.7-.2 1.4-.7 1.7-.2 0-.7.2-.4.4.2.2.8.3 1 .3.3 0 1-.1 1 .3-.1.5-.6.8-.7 1.3-.1.5.5 1.1.9 1.4.7.6 1.5.8 2.3 1.2l1.2.7c.6.3.6.6.8 1.2l.2 1.1c.1.7.1 1.6.6 2.2.7 1 2 1 2.6 0l.5-.8c0-.1.5-.9.2-1-.2 0-.4.1-.5.3-.2.1-.6-.2-.9-.3l-.7.2c-.2 0-.1-.3-.1-.4l.1-1.6c0-.3 0-.6.2-.8.3-.2.5 0 .6.2.1.4 0 .7.5.9.4.2.5-.1.9-.4.2-.2.3.2.4.4 0 .2.2.4.3.5.2.1.5.1.6-.2 0-.5-.2-1-.5-1.4-.2-.3-.3-.5-.2-.9 0-.4-.3-.5-.6-.7-.2-.2-.1-.3 0-.5.2-.3.3-.2.5-.1.4.2.6.5 1 .6.1.1.2.1.2 0 .2-.6-.6-1.6-1-1.8-.4 0-.4-.1-.4-.4-.2-.6-.7-.5-1-.5-.3 0-.5 0-.4-.2 0-.2.5-.3.7-.3.2 0 1 .3.9-.2-.2-.7-1.1-.8-1.7-.7-.3 0-.3 0-.5-.2-.2-.3-.7-.4-1-.3-.5 0-1 .8-1.2 1.2-.3.9-.3 1.8-.2 2.7 0 0 .1.8-.1.8h-.2l-.6-.6-.7-.5c-.2-.1-.6-.3-.6-.5l.2-.4.2-.6 1-2.2c.2-.3.3-.3.7-.4.8 0 1.4-.7 1.8-1.4 0-.3 0-.5-.3-.4l-.3.2c-.6.2-1.4.1-1.8-.5-.3-.6-.4-1.5-1-2-.4-.2-1.1-.3-1.6-.3-.3 0-.4 0-.6-.2-.4-.3-.7-.8-.7-1.4 0-.2 0-.8.3-.8l.3.1c.4.2.1.5.3.9.1.4 1 1.2 1.4.9.2-.2.5-1 .7-1 .2 0 .5.5.6.6l.9.9c.3-.2.4-.6.5-1 .1-.4.3-1 .8-.5l.2.2c.2.3 1.2.8 1.4.5.3-.2.3-1 .4-1.3 0-.3.1-.6.5-.4.4.4.7.8 1.2 1 .5 0 .6-.7.6-1l.1-1c.2 0 .5.4.6.5.3.2 1.2.7 1.4.1.1-.5.2-1.7 0-2.1 0 0-.3-.4 0-.4l.3.2c1 .6 3.4 0 4.5-.2a10 10 0 004.2-2.2s.7-.5.5-.6c-.1-.2-.6 0-.7 0l-1 .4a8 8 0 01-2.6.2c-.3 0-1 0-1-.3l.5-.1a16 16 0 002.2-.6c1.8-.6 3.4-2 4.8-3.2.1 0 1.2-.8 1-1 0-.2-.2-.1-.4 0l-1.5.9a16 16 0 01-4 1s-1 .3-1 0c0-.2.8-.3.9-.4a18.7 18.7 0 009.9-7.2s0-.1-.2 0l-.3.2a22.9 22.9 0 01-10.4 4h-.7l.1-.2h.6c2.2-.5 4.9-1.4 6.9-2.6a20 20 0 005-4.4c0-.2.2-.6 0-.8-.1-.2-.3.3-.4.4a19.6 19.6 0 01-7.7 3.3s-.5.1-.5-.1.7-.4.9-.4a20.4 20.4 0 009-6.8s.4-.6.1-.7c-.2 0-.5.3-.6.4a12.8 12.8 0 01-5 2.7c-.2 0-.6.2-.6-.2 0-.2.3-.3.4-.4a15.8 15.8 0 005.5-6.1s.7-1.3.3-1.4c-.3 0-.6.5-.8.7-.5.7-1.1 1.3-1.8 1.8a22 22 0 01-8.8 3.9c-1.6.3-3.2.3-4.8.5l-2.7.7c-.3 0-.8.4-.8 0l-.4-1s-.4-.8-.6-.5l-.2.4c-.3.7-1 1.4-1.5 1.8a40.1 40.1 0 01-2.2.9c-1.7.5-4 1.3-4.3 3.5 0 1.2.2 2.3.7 3.3l.8 1.6c.5 1.3.4 3-.8 4l-.7.2c-.5 0 0-.4 0-.6l.5-.6c.3-.4.4-.6-.2-.7-.3 0-.7-.5-.8-.8.2-.3.7-.5 1-.8 0-.2.6-1 .2-1.1h-.2c-.3 0-.6-.3-.8-.5-.5-.5-.9-.8-.2-1.4a6 6 0 01-1.3-1.5c-.3-.6.4-.2.5-.2.2 0 0-.4 0-.5a1 1 0 01-.2-.5c-.1-1.1.1-2.3-.8-3.2l-.3-.3c-.2-.2 0-.3.2-.4.5-.2 1.2-1.2 1.4-1.8 0-.1.7-2 0-1.5l-.4.4c-.7 1-2.3.7-3.4.6-1.1 0-2.4-.2-3.5 0a3 3 0 00-1.3.2c-.3.2-1 1-1 1.2h-.5c-1 .1-1.9.3-2.5 1-.4.5-.5 1-.4 1.6 0 .2.2 1 .5.8.3 0 .6-.4.9-.5.5-.2.9-.3 1.4-.1.3 0 .6.3.7.5-.9-.1-1.6.2-2.3.6-.4.2-1 .6-1.5.3a.9.9 0 01-.6-.6v-1c-.3-.2-.6.7-.6.9-.2.6-.2 1.3.2 1.9.9 1.2 2.3 1.3 3.3.2l.6-.5c0 .5 0 .9.3 1.4.3.5.7.9 1.3 1 0 .3-.2.5-.6.8-.4.3-1 .5-1.6.6h-.5c-.3 0-.5 0-.4.3.1.5.8.8 1.2 1h.3c.2.4-.8.7-1 .8-.5.1-1 .3-1.6.2-.2 0-.7-.1-.6.2 0 .5.7.9 1.1.9l-.2.3c-.4.3-1 .8-1.2 1.4-.1.4 0 1-.2 1.4 0 .2-.2.2-.4.1a5.9 5.9 0 01-2.8-2.3c-.7-1-1-2.3-.5-3.4.3-.9 1.2-1.5 1.8-2.3.8-1 1.2-2.4.6-3.7-.3-.6-.9-1-1.4-1.3-1.1-.8-2.4-1.1-3.6-1.6a2 2 0 01-.6-.3c-.8-.6-1.4-1.4-1.4-2.4 0-.4 0-.6-.3-.3-.4.4-.6.8-.8 1.4l-.2 1.2c-.7 0-1.3-.3-2-.5-2.2-.5-4.5-.7-6.7-1.3-2.3-.6-4.5-1.4-6.6-2.7a19 19 0 01-5.6-4.3c0-.1-.2-.3-.3 0l.1.2.6 1.6a18 18 0 004 5zm31.3 6.6c.3 0 .8-.2 1-.5l-.8-.4c-.4.3-.9.3-1.2.5.3.4.6.5 1 .4zm13.5 27.3l.3-.1.2-.4v-.5l-.1-.1h-.2l-.2.2-.1.3v.6zm.6 1h.8V65c-.1-.1-.2-.2-.4-.1a1 1 0 00-.4.1v.3zm-24.5-.6l.8.5-.2-.6-.3-.3c-.1-.2-.2-.2-.3-.2h-.5l.5.6zm-1.7 1.7h.7v-.6h-.3c-.2 0-.4.4-.4.6z"/><path fill="#fff" d="M137.1 33.5h.3l.2-.1.3-.2h.3l.2-.2v-.2l-.4-.2h-.5c-.1-.1-.2-.2-.3-.1l-.2.2v.5l.1.3z"/><path fill="#ffe400" d="M132 36.2l-1.2.5c-.5 0-1-.3-1.3-.8 0 .4.3 1.2.7 1.5.5.3 1 .3 1.4.2.7-.3 1.3-1 1.9-1.3l.6-.3.4-.1.2-.1-.2-.1h-1.4c-.4 0-.8.3-1.2.5zm-.5-2.8c-.2.3-.1.6 0 1l.4-.2c.4-.2 1-.3 1.5-.2.6.1 1 .6 1.5 1.1l.7.6.4.2.4.1h.2v-.2l-.1-.3-.4-.3c-.4-.4-.7-1-1.1-1.3l-.9-1.1v-.2h-1.5c-.4.1-1 .4-1.1.8zm4.6 3.6l-.3.2a2.2 2.2 0 01-1.2.3c-.2 0-.5-.1-.6-.3v.6l.5.8.6.4h.7l.4-.3.3-.7a10 10 0 00.4-1.2v-.3c0-.1-.3-.1-.4 0l-.2.2c0 .1 0 .2-.2.3zm-2.8-3.2h.5c.2 0 .3-.1.3-.2v-.2h-1.2l.1.2.3.2zm14.5 27.8l-.2.4-.2.5-.1.5v2.6l.4.2v-.4c0-.1.1-.3 0-.4v-1a4.8 4.8 0 01.1-1l.1-.4c0-.2.2-.2.3-.2l.3.1.4.2c.2.1.2-.1.3-.3v-.3c.1-.1.1-.2 0-.2v-.2c-.2 0-.3-.1-.3-.2l-.3-.2c-.3-.2-.6 0-.8.3zm1.3 2.4c0 .2.1.3.2.3h.3l.3-.2c.1 0 .2.3.4.3h.1v-.2l.3-.3h.4v-.3l-.2-.2v-.3l-.3-.1h-.4l-.3.1-.3.2-.3.4-.2.3zm0 1.9l-.3.1v.2h.2l.2-.1.3-.1h.4l.3.1v.5l.2.2h.2l.1-.2.2-.2s.2 0 .2-.2 0-.4-.2-.6c-.2-.2-.4-.2-.7-.1h-.4l-.3.2-.4.2zm-6.2-3.5l-.2.4-.5.4.2.8.3.4.2.1.2.2.7.2.8.4a27 27 0 012 1l.8.7v1.5l.2.8v.4l.3.1.1-.2V69l-.1-1v-.6l.3-.5.4-.3c.1-.2 0-.3-.2-.4h-.2l-.2-.2h-.2l-.2.1c-.1.1 0 .4-.2.4h-.3l-.3-.4-.6-.5-1.1-.7-1-.6-.5-.3-.3-.2-.2-.1-.1-.1v-.3l.2-.3h.3l.3.1V63l-.1-.2-.3-.2v-.1h.6l.1-.1-.2-.2h-.2l-.1-.3c0-.2 0-.3-.2-.3l-.2-.1-.2.3v.6zm5.2 8.4c0 .2.3.4.4.5l.5.2.3-.1c.2 0 .4-.2.3-.4l-.1-.2c-.1 0 0-.2 0-.4l-.1-.2h-.2l-.3.2-.2.2h-.3l-.3-.5s-.2 0-.2.2c0 0 0 .3.2.5zm-23.7 0c0 .2.3.2.3.4l-.1.1h-.7c0 .1 0 .2.2.3l.6.3h.4l.4-.2.3-.3.3-.2V71l-.6-.4a4.1 4.1 0 01-.5-.3c0-.1-.1-.3-.3-.2l-.2.1c-.1.1 0 .3 0 .4v.2zm-1.2-7.7h-.2l-.3-.1h-.2v.2h.5l.1.2.2.2h.5c.1 0 .2 0 .3-.2l.2-.3.5.6.3.3h.1v-.2l-.1-.2-.2-.3-.3-.4-.4-.3a.6.6 0 00-.4-.1l-.3.2-.1.2-.2.2zm-.5 4.5h.9l.1-.3c0-.3-.3-.4-.5-.4h-.7l-.2.2.1.3.3.2zm7.2-5.6h-.4c-.3 0-.6-.2-.8-.3l.1 2.2v.5c-.1.2-.5.4-.8.6l-1 .8-.6.6c-.2.2-.3.4-.5.4h-.2l-.2-.2-.3-.4a7.1 7.1 0 00-.9-.8l-.5-.2-.6-.5h-.5l-.3.1-.1.1-.1.2h-.2l-.1.1-.1.4-.1.2h-.5a1 1 0 00-.3.4v.2h.3l.1-.1.3-.3h.4s.2.2.3 0c.1-.1.2-.5.4-.6.1-.2.2-.3.4-.2.2 0 .4.2.5.4.2.1.3.3.3.5v.8l.3.2h.3l.3.1.2.3c.1 0 .3.2.3.4l.3.3c0 .1.1.1.2 0v-.4l.1-.2a8.2 8.2 0 011.2-1.2 31.2 31.2 0 011.5-1.3l1-.6a19.6 19.6 0 001.2-.7l.1-.2v-.2c-.2-.4-.2-.7-.2-1v-.6c0-.2-.2-.3-.3-.3l-.4.1v.2l-.1.2z"/><g fill="#999"><path d="M162.2 31.8l-2 .3c-.7 0-1.5 0-2 .2l-.3.1c-.1.2.3.3.4.3.9 0 1.6-.1 2.5-.3h.3s.1 0 0 .1l-.4.3-1.1.4-.9.1c-.1 0-.4.4-.1.5h.5c.2 0 .6 0 1.1-.3l2.1-.9 2.8-1.1c.2-.1.9-.6.8-.8l-.5.1c-1 .4-2.2.8-3.2 1zm-3 3c-.2 0-.8 0-.8.3 0 0 .2.3 0 .3l-.3.2c-.5.1-1 .5-1.3.9-.1.1-.1.2.1.3l1 .5-.2.3v.3h.5l1.3-.3c2-.7 4.6-1.9 6.4-3.1l.5-.5-.8.1a18.6 18.6 0 01-6.5.7zm.6 1l-1.5.2-.6.3c-.2.2 0 .3.1.4.4.2 1.2 0 1.6 0 .5 0 1-.2 1.5-.4s1.2-.4 1.6-.7c.1-.1.2-.2.1-.3h-.5c-.7.3-1.6.3-2.3.5zm.8 2.8l-3 .2h-.9a1 1 0 00-.4.4l.2.3.2.2h.3l1.8-.2 1.9-.3h.3v.2l-1 .4-3.3 1-.4.3c-.1 0 0 .2 0 .2h.2c1.4-.3 2.8-.6 4.1-1.1a16.7 16.7 0 004.1-2V38h-.4a15 15 0 01-3.7.6zm-4 4l-.3.3.5.2h3.3c0 .2-.3.2-.4.3l-1.9.4c-.6.2-1.4.3-2 0-.2 0-.3-.1-.3-.2l-.3-.1-.3.1s-.4.2-.4.4.4.3.4.6l.3.2.6-.1A20 20 0 00162 43l.5-.3v-.1h-1c-1.1 0-2.3 0-3.4-.3l-1-.1c-.3 0-.3.2-.5.4zm-3.6 3.7h.7l.3.2h.2v-.3c-.1-.4-.6-.2-.8-.1-.2 0-.3 0-.4.2zm1.7-.6l.5.3c.6.2 1.1.2 1.7.2h.6s.1.1 0 .2l-.5.2c-.6 0-1 .1-1.6 0h-.7l.2.1c.6.3 1.3.3 2 .2a10.5 10.5 0 002.4-.7 25.1 25.1 0 01-3.4-.7c-.3-.1-.7-.2-1 0-.2 0-.3.1-.2.2zm.2 2.7l1.2.5.5.2v.1h-1.3c-.9-.3-1.2-.9-2-1.2a2 2 0 00-1-.2l-.1.3.1.3.4.8.3 1.1c-.1 0-1-1-1.2-1.5 0 0-.3-.7-.5-.5l-.1.4.2.4c.4.8 1 1.5 1.7 2l.3.1c.2 0 .1-.6.1-.7a6 6 0 00-.7-1.9l-.1-.3.1-.1c.6 0 1.2.8 1.8 1a7.2 7.2 0 003.6.1c.1 0 .2-.1 0-.1-.8-.3-1.6-.5-2.4-1l-1.1-.8-.5-.3-.6.1c.4.5.9 1 1.3 1.2zm-4 2v.5l-.3-.1-.6-.9-.2-.4-.2.1c-.2.3 0 .6.2.8l1 1.4.4.3c.2 0 .2 0 .3-.2v-.3c0-.7-.1-1.9-.4-2.5l-.2-.1c-.2-.1-.3-.1-.4 0 0 0-.1 0 0 .2l.2.6.2.6zm-2.4-.1l.2.3c.2.2.2.4.3.7 0 .2 0 .8-.2.8 0 0-.2 0-.3-.2-.3-.1-.4-.3-.5-.6l-.2-.4-.4-.5c-.2 0-.2 0-.3.2l.1.3.5.6.4.8.5.8.4.3c.1 0 .2 0 .3-.2l.2-.8v-1c-.1-.4-.2-1-.4-1.2-.2-.3-.4-.2-.5-.2v.3zm-2 2v.3c-.1 0-.2-.1-.2-.3l-.2-.6-.3-.3-.2.1.2.6.2.7.2.6.2.2.2-.1v-.4l.2-.5v-.8s0-.6-.2-.6l-.1.4v.7zm-1.9-.2l-.2.4c0 .1-.2 0-.2 0l-.1-.6c-.1-.2-.3 0-.4.1 0 .1 0 .3.2.5l.1.6c.1.2.2.4.4.3l.1-.2c.2-.2.3-.5.4-.9a21.5 21.5 0 01.4-1v-.2s0-.2-.2-.3l-.2.1-.2.4v.8z"/><path d="M153.6 33.7h.2l.8-.2h.7l.2.1v.2l-.4.2.1.2.4-.2c.2 0 .4-.1.5-.3l.5-.4-.1-.3h-.4l-.6.2-1 .1-.7.1-.2.1v.2zm-1.3 1.5c-.2 0-.2.4 0 .4.4.1 1.2 0 1.6 0l1.4-.2h.4v.3c-.3 0-1 0-1.3.2-.4.2-.7.4-.9.8v.1h.5l.4-.1c.3-.3.8-.4 1.1-.5a4 4 0 001.3-.6c.1-.1.3-.3.2-.4l-.3-.2a6 6 0 00-2.3 0l-1.4.1h-.7zm-.1 2.5v.2h.5c.6-.2 1-.3 1.7-.3h1c0 .2-1.2.6-1.6.7 0 0-.2 0-.2.2v.4c0 .1 0 .2.1.1a25 25 0 002.5-1c.1 0 .6-.3.4-.5-.4-.3-1.4-.3-1.9-.3h-1.5l-1 .5zm.6 2.2s0 .2.2.2l.6-.2c.4 0 1.2 0 1.4.2v.1l-1.1.3c-.3 0-.7.2-.8.3v.2c0 .3.3.5.5.8l.8.4c.2 0 0 .3-.1.3-.7.2-1.8.3-2.3.6-.1 0-.1.1 0 .2l.4.5c.2.3.9.8.8 1h-.7a5 5 0 00-2 .5l-.2.2.2.4c.3.3.5.6.9.8.2.1.2.2-.1.2l-1.2-.1h-.4v.9h-.1c-.3 0-.7-.3-.9-.4h-.3v1l-.2-.2-.3-.2-.8.2c-.4.2-.9.3-1.3.6l-.1.2h.5l1.7-.6.6.7h.3v-1l.1-.2c.3.1.7.4 1 .4h.3v-.3a1 1 0 00-.2-.5v-.2h1.7c.2 0 .3 0 .4-.2l-.3-.3c-.2-.3-.7-.7-.7-1v-.2l1.9-.1c.2 0 .8 0 1-.3v-.4c-.1-.4-1-.7-1.3-1.1-.1 0-.1-.2 0-.2.4-.2 1-.2 1.4-.3.5-.1 1.3-.4 1.7-.8V42c-.2-.2-1-.3-1.5-.5l-.3-.2c0-.2.2-.3.3-.3l1.4-.4s.3-.1.3-.3l-.1-.2a2 2 0 00-1-.6c-.4 0-1 0-1.4-.2l-.2-.1-.2.3-.3.4zm-36.5-5.8c.5.7 1.2 1 1.9 1.4.3 0 .8.3 1 .6.2.1.1.3-.1.4h-.4c-.9-.2-1.6 0-2.4.2-.1 0-.6.3-.4.5.3.3 1 .6 1.5.7a195.3 195.3 0 002.1.2l-.4-.4a.8.8 0 00-.3-.2l-.7-.1-.4-.1c-.1 0-.2-.2 0-.2l.3-.2h1.4c.5-.2.8-.6 1.4-.7l.1-.1v-.2l-.2-.2-2.4-.8-.3-.2v-.2h.3c.5 0 1.6.4 1.9.5h.1v-.9h-.3l-2-.4h-1.5c-.2.1-.3.3-.2.4zm1.2 4.8l-.7.2-.2.2v.2l.3.2.5.3a9.2 9.2 0 001.4.3l.4-.1c.2 0 .2-.2.2-.3l-.1-.3h-1.2c0-.1 0-.3.2-.3.5-.2 1 0 1.5-.1.2 0 .4-.2.5-.3v-.3h-.8a7 7 0 00-2 .3zm-.1 2.8c-.2.1-.4.2-.4.4 0 0 0 .2.2.3.5.3 1.5.5 2 .6h1.2l.3-.3v-.6h-.3c-.5 0-1 0-1.5.2 0 0-.5 0-.5-.2.1-.3.7-.3 1-.3l.5-.1.2-.2-.1-.2c-.1-.1-.3-.4-.5-.4h-.3c-.7.1-1.2.5-1.8.8zm2 2.4a2 2 0 00-.4.4c-.2.3.3.5.5.5l1.6.1h.7c.1-.2.2-.3.1-.4 0-.2-.2-.3-.3-.4h-1.4c0-.2.1-.3.3-.3.1 0 .3 0 .3-.2v-.2h-.5c-.4.1-.6.2-.9.5zm1.4 2.8c0 .2.4.2.6.2.6.2 1 0 1.5-.1.3-.1.7-.2.7-.5l-.1-.3a.5.5 0 00-.6.2l-1 .3c-.2 0-.3 0-.2-.2l.6-.3.3-.1v-.2l-.4-.1c-.2 0-.4-.2-.6 0l-.1.2c-.1.2-.8.7-.7 1zm2 2c0 .2.3 0 .4 0 .3-.2.6-.2 1-.3l.3-.1v-.3h-.8v-.1l-.1-.5h-.1l-.4.1v.5l-.3.6zm2.5-.8l-.5 1v.3c0 .2.3 0 .4 0l1.3-.5h.3l-.2 1.3v.2c.2 0 .4-.3.5-.3.2-.3.7-.7 1-.8h.7l.2-.1-.1-.2c-.2 0-.8-.2-1-.1-.2 0-.3.3-.6.4l-.1-.1v-.6l-.1-.1c-.2-.2-.5-.3-.7-.2-.2.1-.6.5-.8.5v-.1l.4-.6-.2-.4-.2-.1-.3.1v.4z"/><path d="M126.7 37c0 .6-.1 1.1-.5 1.6-.5.6-1 1.2-1.2 1.9l-.1.5v.1l.1-.1.5-1 1-1.1c.3-.6.7-1.2.5-2a3.5 3.5 0 00-1.8-2l-.5-.2h-.2l.1.2.3.1c.7.3 1.7 1.2 1.8 2zm-5-2c.5 1 1.3 1.3 2 1.7a9 9 0 00-2.4.4 2 2 0 00-.7.4c-.2.3.5.5.6.6l2 .4c.2 0 .4.4.7.5l.2-.1.5-.9h-.2c-.4-.1-.7-.2-1-.1h-1c-.3-.2-.1-.4 0-.6a5 5 0 011.7-.3l.6.1.3-.1c0-.1.1-.2 0-.4a1 1 0 00-.7-.3h-.3a3 3 0 01-.8-.5l-.1-.3h1.4v-.2c-.2 0-.4 0-.6-.2a4 4 0 01-1.6-1c-.4-.3-.6-.7-.9-1.1l-.1-.2h-.2c-.2.6.3 1.7.5 2.2zm-.6 4.8c-.2.1-.4.2-.5.5 0 .3.2.4.4.6l1.3.4h.6v.3c.1.2 0 .2-.2.3-.4.1-1 .5-1 1.1-.1.7.8.9 1.3.8h.6l.2-.2v-.3c0-.2 0-.4-.2-.4h-.4c-.2 0-.9.2-1 0-.1 0 0 0 0-.1l.8-.4c.1 0 .3 0 .4-.2l.1-.3v-1l-.3-.4h-.3c-.2.2-1.1.1-1.4-.1V40c.2-.2 1.4-.5 2-.5h.3c0-.1.1-.3 0-.4l-.2-.2h-.3c-.8 0-1.5.4-2.2.8zm2.2 5.2c0 .2 0 .4.2.5h.4l.7-.2h.4v-.4l-.3-.1c-.2 0-.4 0-.5.2h-.4c0-.1 0-.2.2-.3l.2-.2-.1-.6h-.4l-.2.6-.2.5zm1.3 2c0 .1 0 .4.3.4s.8-.4 1-.6a4.2 4.2 0 001.9 1.3h.5l-.2-.2c-.6-.3-1.2-.6-1.6-1.1l-.4-.6c-.1-.1-.4-.2-.5 0l-.1.3-.2.1-.2.1v-.2c0-.1 0-.3.2-.3l.2-.3c0-.3-.3-.4-.5-.5a2 2 0 00-.3.6v1zm10.9-5.9l.3.9.4.5.6-.3c.2-.2.6-.5.5-.8 0 0 0-.1-.1 0-.2 0-.2.2-.3.2V41h-.3l-.1.8c0 .1-.1.2-.2.1v-.2c-.2-.3-.2-.6-.3-1 0-.1 0-.6-.3-.4-.3.2-.3.6-.2.8zm3.6.5l-.2.3h-.2v-.6l-.3-.4v.2l-.2.1v.7c.1.1.3 1 .6.8l.3-.4c.4-.4.6-1 .6-1.6l-.5.2c-.2.2 0 .5-.1.7zm3-.1l-.1.3c-.2.1-.4-.1-.5-.4 0-.2 0-.3-.3-.4h-.2l.1.7.3.4c.3.2.4.3.7.3.4 0 .4-.3.5-.6v-1.2c0-.2-.2-.4-.4-.2l-.2.2.1.2v.7zm-3.8-2.6v.6h-.4c0-.1 0-.3-.2-.3 0 0-.2.4-.3.2l.1-.4c0-.2.1-.3-.1-.3s-.5 0-.5.2l.1.5.7 1c.4.1.6-.4.8-.6.2-.3.4-.6.4-1l-.1-.1-.3.2h-.2zm2.3-.2v1c0 .3-.3.1-.4 0V39l-.3-.1c-.1-.2 0-.8-.4-.8-.2 0-.2.3-.2.5l.2.3.3 1c.1.1.5.7.7.6.4-.2.7-.7.8-1v-.8c0-.3 0-1-.4-1s-.3.7-.3.9zm-.2-2.2c-.1.5-.6.3-.8.2l-.4-.1c-.1 0-.1.1 0 .2 0 .2.3.5.4.6.3.2.4.2.6 0l.3-.4c.1-.4.3-1 .1-1.4l-.1-.3s-.1-.2-.2 0v1.1zm1.4-.1l.5.4c.4 0 .2-.8 0-.8-.1 0-.2.2-.3.1l-.3-.3c-.3 0-.3.2-.2.4l.3.2zM134.5 50c-.1.2-.1.3 0 .4.1.5.5 1 .7 1.4l.3.5c.2.1.5-.1.7-.2.6-.5 1-1 1.3-1.8l.2-.6c-.1-.2-.4-.3-.5 0v.3l-.2.1s0-.5-.3-.2c-.1.2.1.5.1.7l-.1.2-.1-.4v-.2h-.2l-.1.4v.8c-.2 0-.2-.4-.2-.5l-.1.1-.1.5h-.1c-.1-.3 0-.6 0-.8l-.2-.2c-.3 0-.2.6-.4.6v-1.2c-.1 0-.1 0 0-.2v-.3c-.2-.3-.5.2-.5.3l-.2.3zm3.5.4c0 .4 0 .6.2.8.2.5.6 1 1 1.2a3 3 0 001.3-2v-1.1c0-.1-.1-.1-.2 0-.2.2-.2.5-.1.7 0 .4-.1.4-.4.3-.3 0-.3 0-.3.3a10.9 10.9 0 01-.2.6l-.2.2v.3c-.2.1-.2-.5-.2-.6v-.5c-.2 0-.1-.1-.2-.3h-.2c-.2 0-.1.2-.2.2h-.1v-.3c.2-.2.2-.5.2-.8 0-.2-.2-.3-.3-.2-.1 0-.2.1-.2.3v1zm4.5-1c0 .2 0 .6-.3.6h-.2l-.3-.7c0-.2 0-.5-.3-.4-.2 0-.2.2-.2.4l.2.6c.1.3.3.8.6 1 .4.2.6-.4.7-.7l.3-.6c.1-.4.4-1 .2-1.4-.1-.2-.1-.1-.3 0l-.2.1-.2 1.1zm0-3.2l.7.7.5.3h.2v-.5c-.1-.2-.2-.7-.5-.6h-.3c-.2 0-.5-.3-.6-.6l-.3-.3h-.3c-.3.2.5 1 .5 1zm-1.6-.4l-.2.4c-.1.2 0 .5 0 .8-.1.2-.3.2-.4 0v-.8c-.2-.2-.4-.6-.6-.5-.3 0-.1.3 0 .4.1.7 0 2 1 2.3l.2-.1.5-1.2c0-.5.2-1.5.1-1.8-.3 0-.4.2-.6.5zm-2.3 1.6l-.2-.2h-.2v.4c0 .4-.3.3-.5.4l-.1.1c-.1 0 0-.7-.2-.8l-.3.2v-.8c0-.1-.1-.1-.2 0-.2 0-.5.3-.4.5l.1.3.8 1.4.3.1c.3 0 .6-.3.8-.5.3-.5.6-1 .6-1.6 0 0 .2-.5 0-.6l-.4.1v1zm-7 1.6l.1.9.1.6v.3c-.1.2 0 .2.2.2l.4-.2c.6-.3 1-.8 1.2-1.3V49h-.6l-.2.3c0 .3-.2.5-.5.6-.2 0-.1-.1-.1-.2v-.4c-.1-.5.1-.9.3-1.3 0-.2.2-.5 0-.5h-.3l-.4.1-.2.7v.6zm2.3-4.6l-.2.9c-.2.6 0 1.3 0 2 0 .3.1.7.3 1 0 .2 0 .3.2.2a3 3 0 001.3-1.2l.2-.4c0-.3.2-.5-.1-.6-.4-.1-.4 0-.4.4l-.1.6h-.1l-.1-.4-.3.4h-.1l.2-.7c0-.2 0-.2-.2-.3h-.1l-.3.5v-.3c0-.1.3-.7.2-.9h-.3l.2-.7c0-.1.3-.8.2-.9l-.3.1-.2.3zm1.2-.3l.6 1.3c.8 0 1.2-.8 1.4-1.6V43c0-.2-.2-.2-.3-.2-.2.2-.2.5-.3.7 0 .2 0 .3-.2.2l-.2.3v.3h-.2v-.9c-.2 0-.2.3-.3.4h-.1l.2-.8-.1-.2c-.2 0-.4.5-.4.6l.1-.8v-.1l-.2.1c-.3.2-.2.5-.1.9l.1.6zm2.6.6c.1.2.2.8.6.6.3 0 .5-.6.6-.9 0 0 .1-.3 0-.4l-.1-.1-.2-.2c-.2 0-.1.5-.2.6l-.1-.6h-.2v.3c-.3.1-.3-.4-.3-.5 0-.2 0-.2-.2 0v.3l.1.9zm2.7-2l.2.6c0 .1 0 .5-.2.3l-.1-.3c0-.2 0-.7-.3-.7s-.2.2-.3.2l-.2.1c-.3.2-.1.6 0 .8.1.5.3.9.6 1.3l.3.4.4-.1.3-1.1c.2-.6.4-1.9-.5-2-.3-.2-.3.2-.2.5zm1.3 1c.2.4.7.8 1 1 .4.1.4 0 .3-.3l-.2-1.3c0-.2 0-.3-.2-.3-.3 0 0 .3-.2.3h-.2V43c-.2-.2-.6-.4-.6 0l.1.7zm-7.4 12.2l.2.5c.1.3.2.6.6.5.3 0 .5-.4.6-.7.1 0 .3-.4 0-.5l-.3.1v.2l-.3.4c-.3 0-.4-.6-.4-.8v-.4c.1-.3 0-.3-.1-.4-.2 0-.2 0-.3.2v.9zm-1-4.9l-.1.6c-.2.6 0 1.3.3 1.9l.3.7c0 .2.2.3.4 0a6.6 6.6 0 00.8-1c0-.3 0-.3-.2-.4l-.2-.2s0-.1-.1 0v.2l-.1.5-.3.2c-.4 0-.6-1-.6-1.4l.2-.6c.2-.2.3-.5.2-.8-.1-.2-.3-.2-.4 0l-.1.3zm4.8 1.7l.1-.3c0-.2-.2-.3-.3-.2l-.2.3c0 .1.3.3.4.2zm-2.8 1c0 .2.2.4.3.5 0 .2.2.4.4.5l.5.5c.1 0 .3 0 .4-.2l.4-.4c.3-.3.6-.7.7-1.2l-.1-.3c-.3-.1-.4 0-.6.3v.2h-.2v.4h-.3c-.2 0-.2.7-.2.8l-.2-.1v-.9h-.6v-.2c0-.2 0-.5-.2-.5-.1 0-.3 0-.3.2v.4zm4.6-1.3c-.2.3-.1.8-.1 1.2v.6l-.3-.3c0-.3.2-1-.2-1.2-.1 0-.3-.1-.4 0v.6l.3.7.4.7c.4.4.7-.2.9-.5a7.7 7.7 0 00.4-.8v-1h-.3l-.4.9c-.1-.2.1-.7.2-.9 0 0 .3-.5 0-.5-.2 0-.4.3-.5.5zm-2.7 4.2c.2.2.6 1 1 1l.6-.9V56l-.3.2-.2.2c-.1.2-.2.6-.5.3a1 1 0 01-.2-.4c0-.2 0-.5-.4-.5-.3 0 0 .7 0 .8zM136 58l.3.4c.1.1.3.2.4 0l.3-.3.2-.4c.2-.2.2-.3 0-.5h-.3l-.2.2-.1.5a.9.9 0 01-.2-.4c-.2-.3 0-.7-.6-.6h-.1v.5l.3.6zm0-26.4l3.8.1c.6 0 1.4.2 1.9-.3v-.2h-2.8a18.6 18.6 0 00-2.6-.1c-.2 0-.2.3-.3.5zm11 15v.3l.1.1h.3l.2-.2.3-.3v-.3c-.2-.2-.4 0-.5.1l-.2.2-.2.1zm1.8-1s.4.1.3.2h-1.2c0 .1 0 .2.2.3l.6.1.7.2h.5v-.5a5 5 0 00-1.1-1h-.4v.5l.4.1zm1.2-4.1l.2.1 1.2.1c.3.1.1.4-.1.4l-1 .1-.5.1-.4 1v.1c.3.3.9.4 1.2.6.2 0 .3.1.3.2l-.2.1c-.4.1-1 0-1.3-.1a1 1 0 00-.4 0c-.1 0-.1.1 0 .2 0 0 .1.2.3.2.3.2.8.2 1.1.2.4 0 1-.2 1.3-.5.1-.2-.7-.6-.8-.6l-.7-.3c-.2 0-.3-.2-.3-.4l.1-.2 1.3-.3c.3 0 .6-.1.8-.3l.3-.4-.3-.3a2 2 0 00-.7-.4h-1l-.2-.2-.2-.1-.2.3.2.4zm-.6-2h.3l1-.3.6.1-.4.3-1.1.4-.2.3.4.2.2-.1 1.4-.5c.2 0 .7-.3.8-.6V39l-.9-.2c-.5-.1-1.2-.2-1.7 0-.3 0-.4.1-.4.2v.4zm-.3-3.9a3 3 0 00-.5 1.3l-.1.4h.3l1.3-.3h.3v.3l-1.3.5-.3.1.1.6.1.2h.3v-.3l.2-.2 1.6-.9.8-.7c-.2-.4-1.8-.2-2.2 0l-.5.1v-.1c0-.2.5-.8.7-.8.5-.3.5-.4.9-.9l.2-.4v-.2h-.3l-.4.2-1.2 1.1zm-18.9 17.1l.1 1h.5l.4-1.3.2-.5c0-.2.1-.2.2-.3l-.1-.2h-.2l-.2.5-.3.9-.2-.2c0-.5 0-1 .2-1.4v-.4s-.2-.2-.3-.1l-.2.6-.1 1.4zm-1 0h-.2l-.1-.4-.4.1v.5l.4.8h.1l.2-.4.4-1.2v-.3c-.2 0-.2.2-.3.3 0 .1 0 .5-.2.6zm-2.8.6c0 .3.2.8.4.8l.5-.5.5-1c0-.2.3-.6 0-.7h-.2l-.1.3c0 .3-.2.6-.4.9 0 0-.2.4-.3.2l-.1-1v-.6c0-.2-.2-.1-.4 0v1.6zm-2.5-1.7c0 .2-.3 1.7-.1 2 .5 0 1.3-1.1 1.5-1.5l.6-1.2c0-.2.1-.3-.1-.3 0 0-.4 0-.4.2l-.2.4-.5.9-.2.1-.1-.2c0-.5.1-.8.4-1.3.2-.2 0-.5-.2-.4-.4 0-.6 1-.7 1.3zm-1.4-1l-.4.6c-.1.1-.2 0-.2 0l.3-1.2v-.2c0-.2-.2-.1-.3 0-.2.1-.2.4-.3.6a6 6 0 00-.2 1.7c.4 0 1.1-.5 1.4-.9.4-.3.5-.7.8-1 0-.2.2-.2.2-.2.2-.1.2-.2.3-.4v-.4c-.3 0-.6 0-.8.2-.3.2-.6.8-.8 1.1zm-9.9-5.5c.7.2 1.3.5 2 .6l4.5.6s.1.2 0 .2l-.7.2-3.9.8-.4.1a5 5 0 002.2.5h4l-1 .6-3.2 1.3s-.5.1-.5.3l.3.2c1 .1 2 0 3-.1 1.2-.2 2.2-.4 3-1.2l.3-.3.1-.5s0-.2-.1-.1l-.4.3c-.7.6-1.5.9-2.4 1.1-.2 0-.5.2-.7.1-.2 0-.2 0-.2-.2l1-.4c.7-.3 1.7-.7 2.2-1.2l.2-.1-.1-.2-2.6-.1h-2.3l.2-.2 1-.1c.7-.2 1.6-.4 2-1 .2 0 .3-.2 0-.3l-1.5-.3-4.1-.3-.5-.1V45l3.3.1h.6c.2 0 .2-.3 0-.3h-.6l-4.3-.2h-1c0 .2.5.4.6.4zm-3.8-8c1 .7 2.2 1.3 3.3 1.8l2.6 1.1 1.4.8v.2h-1c-1.8-.1-3.6-.4-5.4-.7l-1.3-.3c-.4 0-.5 0-.1.3 1 .8 2.3 1.6 3.5 2.1 1.4.7 3.5 1.2 5.1 1.6h.9c.2 0 .3-.2.3-.2 0-.1-.1-.2-.3-.2-.3-.1-.6-.3-1-.3-2.2-.5-4.5-1-6.5-2.1l-.3-.2s.1-.1.2 0h.6c1.3.3 2.5.7 3.9.9l1.8-.1c.4-.1.5-.5.8-.6 0 0 .3-.1.3-.3 0-.3-.5-.5-.7-.6-.3 0-.6-.2-.8-.3-.1-.1-.4-.2-.4-.4v-.5l-.6-.1-1.6-.4a29 29 0 01-5.8-2.7s0-.1.1 0a26.7 26.7 0 007.9 2c.2 0 .3-.1.1-.3l-.5-.2-.4-.2v-.3c.1-.1.4 0 .5-.2v-.3l-.3-.1h-.9a32 32 0 01-7.3-1c-.1 0-.2 0-.1.1l.3.3 1.7 1.4zm-.2-4.8l2 1.2a21 21 0 006 2l-.2-.3c-.5-.7-1.5-.7-2.3-1-1.2-.3-2.4-.7-3.5-1.3-.5-.3-1.2-.5-1.6-.9 0 0 0-.1.1 0h.9l1.2.4a41 41 0 003.3.7l.6-.1v-.3h-.4l-1.8-.3c-1.1-.1-2.1-.5-3.2-.8l-1-.3-1.9-.8h-.2v.3c.6.6 1.4 1 2 1.5zm7.5.5h.4l-.2-.2a10.4 10.4 0 00-1 0v.1h.3l.5.1zm14.4 24.7l-.1-.1-.2-.1v.2l-.2.2h-.8l-.4-.1h-.3v.2l.2.1.4.1c.1 0 .2 0 .1.1v.2l-.2.3.1.2.1.1v.2l-.3-.1h-.5l-.2.3-.1.5v.3l.3-.2.1-.4h.1l.2.1v1.2l.4.2.3-.5.3-.7.3-.4h.3v1.1c0 .2.1.3.2.3l.2.3h.2l.2-.2V60l-.1-.7c0-.4.1-.8.3-1.1l.2-.3-.1-.3-.3-.2a.8.8 0 00-.4-.1h-.2l-.1.2zm1-.4l.1.1h.1v-.3l-.3-.2-.1.2v.1l.2.1zm.5-.1h.2v-.2l.1-.2-.2-.2c-.1 0-.3 0-.3.2 0 .1 0 .3.2.4zm11.1.8l.2-.1v-.2h-.5v.2h.3zm-.4.6l-.1.1-.1.2-.2.3h.7c.1 0 .2.1.2.3v.2l-.2.3v.7l.2.4.2.2h.2l.1-.3.2-.5.2-.3h.2l.2-.2v-.1l.2.1c0 .1 0 .2.2.3l.4.2h.4l-.1-.5-.4-.5-.4-.3h-.5l-.2-.2v-.1l.1-.2.2-.2h-.7l-.3.3c-.1 0-.2-.1-.1-.2 0-.1.2-.3.4-.3l.4-.2c.1 0 0-.2 0-.2h-.6l-.6.3-.2.3v.1zm-9.1 10.8c-.4.6-.8 2-1.2 2.8a5 5 0 01-.7 1.2l-.1.3h.4c1.1 0 2.4-1.2 3-2.1l.1-.3v-1.3l-.2-.1a1 1 0 00-.5.4l-.4.8-.5.8c-.1.1-.3.4-.5.4h-.1v-.3L134 70c.2-.3.6-.9 1-1l.1-.2v-.5l-.2-.1-.3.1c-.4.2-.8.6-1 1zm-2-.6l-1 .8s-.3.2-.2.3l.4.2c.4.2.9.5 1.3.3.2 0 .3-.2.4-.4l.3-.6-.4.1a2 2 0 00-.4.3l-.4.3v-.3l.5-.4a6.1 6.1 0 001.8-2.3v-.3h-.2c-.1 0-.2 0-.4.3l-1.6 1.7zm2.6-2.3v.6c0 .3-.3.6-.4.9l-.4.7.5-.2.6-.7.5-1 .2-.6.2-.3.1-.2v-.1h-.4c-.2.3-.4.5-.7.6l-.2.3zm-1.5-.7c-.2 0-.4.2-.5.3l.3.2h.6l.9-.3.5-.3c0-.2 0-.3-.2-.3l-.3.2c-.1 0-.6.3-.7.2v-.1l.9-.6.7-.6.5-.4c.1-.2.2-.3 0-.4h-.2l-.5.5c-.3.2-1.3 1.2-2 1.6zm7-.6l.2.1v.3h-.5l.7.2c.2 0 .5 0 .7-.3l.2-.2-.2-.1-.3-.1-1.4-.8-.2-.2c-.1 0-.1 0 0 .1v.3l.8.7zm3.4 5.3c.1 0 .3 0 .4-.2l-.4-.2-.6-.3-.4-.2v.1l.1.3.9.5zm-2.8-3l.3.4c.1.1 0 .2 0 .2-.2 0-.4-.2-.5-.3l-.5-.3-.3.1.3.4.6.4h.5a4 4 0 01.8.7l.3.2v-.2l-.1-.3c-.3-.4-.6-.9-1-1.2l-.5-.5-.5-.4h-.3v.1l.3.3.6.5zm-.7 2l.1.3.4.4.7 1.3v.2h-.3c0-.1 0-.2-.2-.3l-.2-.5-.3-.2v1.2l.6.6 1.3.5.6.1-.2-.5c-.3-.8-.9-1.6-1.3-2.3l-.5-.9-.4-.3c-.1 0-.2 0-.3.2v.3zm-3.6-2.6l-.2 1.6v.8c0 .3 0 .7.2 1l.6 2.7.3.7h.4c.3-.4.4-.9.6-1.3a16.9 16.9 0 00.9-4.1l-.1-1-.1-.2-.2.1v1.4l-.2.3h-.1v.8h-.6v.2c0 .6.1 1 0 1.6l-.2.1-.2-.1-.3-1-.4-1.8v-1.3l.1-.5v-.4c-.2 0-.3.2-.3.2s-.2 0-.2.2zm11.3-31.1l-.3.5-.1.4c0 .1 0 .2.2 0l.4-.5.4-.6.4-.4c.2 0 .3-.2.3-.2 0-.1 0-.2-.2-.2s-.3.1-.5.3l-.6.7zm-1.7 11l-.2.2.1.2h.2a3.2 3.2 0 001.6-2l-.1-.3-.1.1-.6 1.1-.9.8zm1.7-6.5c0 .1 0 0 .1 0 0 0 .2 0 .1-.2l-.4-2.2c0-.1 0-.2-.2-.2l-.2.2c0 .3.3 2 .6 2.4zm.2 1.8l.2.1h.1v-.5c-.2 0-.4 0-.3.1v.3zm0 1.8v.3h.1l.1-.3.1-.8v-.3h-.3v1.1z"/></g><path d="M79.8 15.9h112.6v127.4c0 1.8-.6 3.8-2 5.3a6.7 6.7 0 01-5 2H143c-1.5 0-2.7.7-3.7 1.6a12 12 0 00-2.2 3.5l-1 2.9c-.2-1-.5-2-.9-2.9a11 11 0 00-2-3.5c-1-1-2-1.6-3.4-1.6H87c-3 0-4.8-1-5.9-2.3a8 8 0 01-1.4-5zm1 1v126.4a7 7 0 001.2 4.3c1 1.2 2.5 2 5.1 2h42.6c1.7 0 3 .8 4.1 1.9a12 12 0 012.3 3.8c.5-1.2 1.2-2.7 2.4-3.8 1.1-1.1 2.6-2 4.4-2h42.5c2 0 3.3-.7 4.3-1.7 1.2-1.2 1.7-3 1.7-4.5V17z"/></svg>