<svg xmlns="http://www.w3.org/2000/svg" viewBox="0 0 600 400"><path fill="#ffd900" d="M0 0h600v400H0z"/><path fill="#fff" d="M0 0h600v300H0z"/><path fill="#0039a6" d="M0 0h600v200H0z"/><g fill="#ffd900"><path d="M147.6 110a53.3 53.3 0 10104.8 0 53.3 53.3 0 01-104.8 0"/><circle cx="200" cy="106.7" r="40"/><path d="M199.6 13.3c.3 2.3 1.6 4.1 3 6 1 1.8 1 4 .3 5.9-.3 2-.6 4.3.7 6.1 1.4 2 2.8 4.2 2.4 6.7 0 2.6-1.8 5-1.5 7.5.7 1.7 2.7 4 3.8 1.2 1.4-2.2-.7-4.6 0-7 .4-2.3 2.3-4.2 1.8-6.7 0-2.2-3.1-4.3-.8-6.3.9-1 2.2-3 2.1-.5 1.4 1.7 3 3.6 2.9 6-.2 2.3-1.2 5 1 6.7 2.3 2.4 4.2 5.3 4.3 8.7.2 3-.4 6-2.4 8.3a18.7 18.7 0 01-8.6 4.9c-2.4.3-4.7 1-6.3 3-2.2 1.8-4.4 0-5.7-1.8-2.4-.9-5-.6-7.4-1.4a12 12 0 01-7.6-6c-1.5-3-1.7-6.5-1.5-9.8 0-2.7 1.6-5 3.4-6.9 1.9-1.6 1.1-4.3 1.2-6.4 1-2.4 3.4-3.6 4.8-5.7 1.6-2 1.1 2.8 1.2 3.7 0 1.8-1.9 2.8-1.5 4.6-.2 2.3 2.5 3.4 2.7 5.6 1 2.1-1.3 4.5.2 6.5.7 1 2.6 3.3 2.8.7 1.2-2 1-4.3.1-6.3-.4-2.3-2.3-4.5-1.3-6.8.8-2.2 3.4-3.3 3.6-5.8.3-2.2-1.2-4.1-1.5-6.3a7 7 0 012.3-7l1.5-1.4z"/></g></svg>