<svg xmlns="http://www.w3.org/2000/svg" id="svg2" fill-rule="evenodd" version="1.1" viewBox="0 0 600 400" xml:space="preserve"><defs id="defs4"><style id="style6" type="text/css"/></defs><path id="rect3023" fill="#9000cc" fill-opacity="1" stroke="none" d="M160 285.7v28.6h17.1v-5.7h-11.4v-22.9z"/><path id="rect3004" fill="#9000cc" fill-opacity="1" stroke="none" d="M182.9 285.7v28.6H200v-5.7h-11.4v-5.7H200V297h-11.4v-5.7H200v-5.7z"/><path id="path3029" fill="#9000cc" fill-opacity="1" stroke="none" d="M220 291.4v5.7h5.7a2.9 2.9 0 110 5.8H220v5.7h5.7a8.6 8.6 0 100-17.2zm5.7-11.4a20 20 0 100 40 20 20 0 000-40zm0 5.7a14.3 14.3 0 110 28.6 14.3 14.3 0 010-28.6z"/><path id="rect3051" fill="red" fill-opacity="1" stroke="none" d="M251.4 285.7v28.6h5.7v-18l11.5 18h5.7v-28.6h-5.7v18l-11.5-18z"/><path id="rect3002" fill="#9000cc" fill-opacity="1" stroke="none" d="M420 20h20v100h-20z"/><path id="path3053" fill="#9000cc" fill-opacity="1" stroke="none" d="M291.4 285.7v28.6h14.3c4.7 0 8.6-3.9 8.6-8.6v-11.4c0-4.7-3.9-8.6-8.6-8.6zm5.7 5.7h8.6c1.6 0 2.9 1.3 2.9 2.9v11.4c0 1.6-1.3 2.9-2.9 2.9h-8.6z"/><path id="path3071" fill="#9000cc" fill-opacity="1" stroke="none" d="M348.6 285.7l-5.7 5.7h8.5a2.9 2.9 0 110 5.7 8.6 8.6 0 00-8.5 8.6v8.6H360v-5.7h-11.4v-2.9c0-1.6 1.3-2.8 2.8-2.8a8.6 8.6 0 100-17.2z"/><path id="path3041" fill="#9000cc" fill-opacity="1" stroke="none" d="M385.7 280a20 20 0 100 40 20 20 0 000-40zm0 5.7a14.3 14.3 0 110 28.6 14.3 14.3 0 010-28.6z"/><path id="rect3068" fill="#9000cc" fill-opacity="1" stroke="none" d="M411.4 291.4v22.9h5.7v-28.6z"/><path id="path3043" fill="#9000cc" fill-opacity="1" stroke="none" d="M422.9 285.7V303h8.5a2.9 2.9 0 110 5.7H423l5.7 5.7h2.8a8.6 8.6 0 000-17.2h-2.8v-5.7H440v-5.7z"/><path id="rect3912" fill="#d61a0c" fill-opacity="1" stroke="none" stroke-width="3.5" d="M0 0h600v400H0z"/><path id="rect3910" fill="#fecc00" fill-opacity="1" stroke="none" stroke-width="3.5" d="M0 266.7h600v66.6H0z"/><path id="_155105856" fill="#000" fill-rule="nonzero" d="M323.2 63.7c.3-.3.7-.5 1.2-.6.4 0 1 .3 1.4.6a29 29 0 0110.2-2.4c5.2-.2 14 .5 18.6 4.3 3.7 3 5 7.5 3.9 13.7.7.3 1.3 1.3 1 2 0 .4-.4.8-.6 1a25 25 0 012.6 9.6c2.3.8 13.2 4 13.2 7.4a13 13 0 014.4 8.2c1.2 1.9 1.4 4.4 2.1 6.5l.9 2.1c1 1.9 1.4 4 .2 5.6 1.2 2 2.1 3.6 2.1 5.8 0 .8.3 1.2.7 2l3.6 4.2c2 2.2 4 4.3 5.8 6.5 3.7 4.6 7.4 11.2 10.5 16.3 2.7 4.3 5.4 5.5 8.8 9.8a85.6 85.6 0 0114 28 199 199 0 013.2 11c.6 2.7 1.6 5.5 1.8 8.3v2.7c.2 3.5 1.5 7.2 2.9 10.3-7.6-5-8.6-10.2-10.8-18.3l-1.3 2.6c-1.9-2.7-2.1-5.1-2.8-8.4l-.6.8c-1.5-2.3-1.5-4.4-2.2-6.9l-.4 1.8c-3.7-3.7-4-10.8-4.7-15.9-.6-4.3-1.5-9.4-4-12.4a57.3 57.3 0 013.5 23.1l-1-.4c.6 2.7 1 6 0 8.4 1.1 3.4 1.5 8 .6 11.6a90 90 0 017.1 16.7c1.1 3.3 1.7 5.6 3.3 7.3 1 1 2.4 1.9 4.5 2.5.2 6.7 0 10.6-.6 16.2-.6 6-2 12.4-2 18.5 0 1.9.2 3.8.4 5.7a34 34 0 01-.4 12.6c-5.2 1-9.2 4.7-10.6 9.2h-25.4c1.8-6.4 7.4-10.4 15-10.7.4-1.8 1.4-3.5 2.7-5.2 3.4-3.6 6.9-9.3 7-14.4.4-4.8.4-10-.3-14.8-.6-4.4-2.5-8.1-4.8-11.7-2.2-3.6-3.7-7.6-5.2-11.4a23.4 23.4 0 00-8.6-10.4c1 5 1 8.6.6 12.7a23 23 0 001 10c.5 1.4 1 2.6.4 4-1.3 3.1-3 6.2-4.8 9l-6.4 11.4c-3.6 7-7 15-8.6 23-5.5 2-11.3 4-14.4 8.5h-24c1.5-6.3 5.9-9.6 12-10.7a28 28 0 014.8-.5c3.6-1 3.2-2.3 4.1-4 .7-1.8 2.9-3.3 4.2-4.6 2.3-2.2 4-4.4 5.7-6.7a70.5 70.5 0 009.3-19.1c.2-5-.7-13.3-1.7-18.8-1.5-4.5-6.7-12-9.2-22.7-3.2-3.2-5.8-7.3-8.5-11a33 33 0 01-17.9 4l.7 2c-2 .2-4.2.3-6.3.2l.5.6a23 23 0 01-14 .9c.5.5 1.4 1 2.1 1.5-4 .2-8.2.4-12.3.2 3.4 10.7 4.7 22.6 1.3 30.4 1.9 9.2 1.4 17.9 1.7 26.6 0 1.9 1.7 5.3 2.3 9.4.5 3.6 0 8-1 12.2l-.2 1c-5.3-1.4-11.8 7.8-13.4 9.1h-23c1-3.8 2.4-6.2 5.6-8.3 2.4-1.6 5.3-2.7 8.2-3 1.4 0 1.9-1.6 2.6-2.7a17 17 0 016.4-6.1c.9-.6 1.7-1.2 2.4-2 1.1-4.3-.4-12.9-1.5-17-.8-3.7-1.9-10.2-3.9-13.6-1.3-1.3-2.7-2.5-3-4.7-1-5.6-4.8-13.8-6.5-18.3-1.4 3.8-2.6 7-5.5 9.8-1 8-3.5 10.8-5.8 15.1-1.4 2.4-1.5 4.1-1.8 6.2a114.2 114.2 0 00-1 24.2v8.1c-.1.7-.7 1.2-1.6 1.6-5.5 2.3-8.2 6-11.6 10.7h-24.7c.6-3.8 2.4-7.4 5.8-9.4 2.4-1.3 5.2-1.9 8-2.4l1-.2c1.2-.6 2.7-2 3-3.5.1-1.7 1.2-3 2.3-4.2 1-1 2.4-2.1 3.7-3.2 1.1-1 2.6-2.3 3-3.9.7-4 1-11.4 1.4-14.6.8-7.3.6-10.2-3.3-16.3 1-5.9 1-10.5-.2-16.6-.6.6-1.5 1.2-2.4 1.5.5-1.2.1-4 0-5.4-1.4 1.1-3 2-4.5 2.6 1-1.7 2-4.6 2-6.9a16 16 0 01-5.4 2.8c3-3.1 3.8-5.8 3.2-9.9a21 21 0 00-2.4-7c-2.2 5.6-5.3 9.3-7.8 14a31 31 0 00-4.4 15.2 22 22 0 01-3.3-6.7c-.8 1.7-.7 5.2-.8 6.5-1-1.4-2.3-2.5-3-4a13.4 13.4 0 01-8.4 9c1.8-3 3.4-6.5 2.8-10-.9 3.4-1.4 5.8-4.1 8-.7-3.4-2.4-5.4-5.4-8.4a40.9 40.9 0 01-14.2-18.5c0 3.7.2 6 1 9.7-4.9-5-9-12-9-19.2-.7 2.3-.8 4.6-.9 7a24 24 0 01-3.2-15.4 9.3 9.3 0 01-4.5 3.5c2.3-4.8 3-8.2 2.8-13.8-1 1.5-2.5 2.9-4 4a89.4 89.4 0 001.8-16.8 38 38 0 012.2-12.6c-.8.5-1.5 1-2.4 1.3v-.9a17.1 17.1 0 01-4 3c.3-1 .5-2 1-3a8.9 8.9 0 01-5.4 2.8c2.2-2.7 3-6 3-9.5 0-5.8-1.5-13 2-18-2.1.5-4 1.8-5.8 2.7-2 1.5-3.7 1.4-5.4-.4-.3-.5-1.5-2.1-1.5-2.6-2.4.2-4.2-.3-5.2-2.6-1.1-2.8.2-6 2-8.2 1.7-6.2 6.5-8 12.5-10.5 2.8-1.3 5.6-2.6 8.2-4.2 3.9-2.3 8-6.1 9.2-10.5.7-2.6-.3-4.6-1.8-6.6a16 16 0 014.6 2.1c.6-1.2-.4-3.6-.9-4.7a10 10 0 015.4 5c.6-1 .7-3.9.6-4.8 1.8 2.6 3.5 5.3 4 8.1 1.4-1.6 1.5-5 1.9-7 2 2 3.2 4.7 3.8 7.5 1.1-2 1.5-3.4 2-5.6a11 11 0 012.3 5.6c1-1 1.5-3 1.8-4.3a11 11 0 011.9 6.5c1.1-.7 2.2-1.5 3.2-2.4v3.7l1.8-2.2c.5 1.6.6 3.6.4 5.2l1.3-.9c.4 1.6.2 2.8 0 4.1l.8-.2c.1 1.2 0 3-.2 4.3 3.6.6 6.2 4 7.7 7a35 35 0 013.3 9.8c1 3.2 1.3 8 1 10.3.8 3.9 1.3 7.5.7 11l-1.5-.8c0 1.9 0 3.8-.2 5.8a71 71 0 0116.6-28c4.3-4.4 9.7-8.9 15.3-11.6 1.7-6 4.7-13.8 10-17.3a38 38 0 012.6-10.8c-.9-.7-1-1.5-.2-2.4a12.5 12.5 0 01-1.2-8.4c2.2-9.6 13.7-12.4 22-12.3 4.9 0 10.1.9 15.8 2.4z"/><path id="_155289256" fill="#c1c1c1" fill-opacity="1" fill-rule="nonzero" d="M229.8 106.4c-.4 1.3-1.5 3-3.7 5-2.3 2-5.8 1.3-5.8 1.3 5.3-.5 9.3-5 9.3-10l-.8 1c-.7 2.4-3.3 4.1-5.7 4.7 4.3-2.7 5.7-5.7 5.2-9.3l-2.4 2.4v-4.1l-2 1.7c-.5 2.5-1 4.3-1.4 5.2 1-.2 2-.2 2.1.2.5.6-.8 2-1.5 2.8-.8.8-3.4 4.5-5.8 5.6a9 9 0 01-6.9 0c3.5-.2 5.9-3 8.2-5.4-3.2-.2-6.8.7-9.7 2.2 2.7-3.1 7.4-3.6 11.2-2.8-1.4 3.4-4.1 4.8-5.8 5.8 0 0 2.2-.2 4.5-2.2 2.6-2 3-4.3 4.6-5.4 0 0-1.8.2-4 0-1.9 0-5.7 0-7.9.9-2.1.6-4.3 2.4-4.3 2.4.8-2.9 3.8-3.4 5.8-4 2-4 2.8-9.8 0-13.7-.4 2.8-.7 4-2.3 5.6a12 12 0 01-4.6 11.2c3.5-4.8 5.2-10.6 1.1-17.2-.1 2.6-1.4 4.2-1.3 4.3a19 19 0 00-3.5-5.5c.2 1.1.2 2.3-.4 3.3.9.9 2.4 2.8 3 5.8 1.1 5-2.5 7.6-2.5 7.6a10.8 10.8 0 00-1.1-13c-.6-.7-1.4-1.1-2.2-1.7 2.3 6.7-4.3 13.2-9.5 16.1-2.7 1.6-5.6 2.8-8.1 4.2-2.2.8-4.1 1.7-6 2.8-3.7 2-5 4.5-5.4 5.8.6-.7 1.7-1.5 2.5-2 1.6-.8 3.7-1.5 4.6-1.2 1 0 1 1.5.2 2.1-.9.7-2.8 0-5 1-1.5.7-3.2 2.2-4 3.1-1 1.5-1.6 3.7-1 5.4 1 2.1 2.9 2.1 4 2 1.2-1 4.7-3 6.6-4.4 2.6-1.7 6-3.4 6.5-3.6.2 0 .6.8.8 1 .3.5 1.3 1.3.7 1.8-.7.6-2 0-2.8 0-.9 0-2 .2-2.8.6l-4.7 3c-2.3 1.3-4.3 2-1.6 4.8.5.6 1.6 1.5 3.7 0 4-2.8 8-4 10.8-4.6-6.1 6.2-5.2 12.3-5.2 21 0 3.2-.6 5.7-1.3 7.2 1.5-1 3.8-3 4-9 .3-6.3 1.8-16.4 5.7-19-4.5 7.4-3.7 15.9-4.1 20.2a22 22 0 01-2 7.2c2-1.6 3.1-4 4-6.2 2.8-7.2 1.7-11.3 5.1-17.3-3 8.2.4 10.8-6 22.4 5.9-5.5 9-14.3 8.8-22.6 1.1 3.7 0 8.6 0 8.6 1.8-2.2 2.8-6.4 3.4-8.3l-1-1.6c2.4 1.8 6.5 2 8.4 1.1 0 0-2-.3-3.7-2 4 1 6.3-.3 7.1-1.2-.2 0-3.4.2-6-2 5.2 1.7 6.5-.7 6.9-1 0 0-3.4 0-5.6-2.4 0 0 3.7 1.7 6.5 1.5 3-.4 4.5-2.2 4.5-2.2s-3.2 1.3-7.6-1c4.5 1.6 11 0 13-4.6-2.6 0-5.4-.6-7.6-1.9 8.6 1.5 14.5-1.4 14.4-9.6l-.6.1zm-15.6-2c2-.2 3-.2 4.2-.2 1.1-3.7 1.8-7.7 0-11.3-.6 2-1.1 3-2.5 4.2-.2 2.2-.5 5.3-1.7 7.3zm5.1-.1h2.1c1.2-2.7 1.8-7.5.9-10.1-.6 1.4-.9 1.7-1.9 2.7.2 1.9-.2 5.8-1 7.4zm65.7 2c-.6-3-.8-6.6-.7-9.8-4.6 4-7.3 11-9 16.7a63.1 63.1 0 00-26.8 27.2 100 100 0 00-8.8 30.4l-2.6-.4c4.3-8.5 4.1-26.3 4.3-26.3l1.6 1c0-8.5-2.6-12.4-2.6-12.4.7.6 1.4 1 1.8 2 0-4.2-1-8-3.1-11.7.5.2 1.5 1.4 1.7 1.7a23 23 0 00-3-8.3c-1.6-2.7-3.5-5.8-6.8-6.3-1 3.5-3 6.3-7.6 6.9l1.5.4s-2 4.5-5 5.6c0 0-2 3-5.5 3.7 0 0-1.4 1.5-2.5 1.9h2.2s-1.5 3-5.6 3.2l1.7.8s-3.4 3-8.2 1.2c0 0-1.7 7.7-4.5 9.9 0 0-1.7 6-5.2 9.9-1.3 3.4-3 9-3 15.3 0 6.2-.6 10.5-1 13.1 1-1 1.6-2.2 2.3-3.4 1.5 4.7 1.2 8.9-.4 13.5a22 22 0 005-12.3c.5 5.5-1.5 8.4-1.9 11.7-.4 4 .1 8.2 1 10.8.4-2.8 1.5-7.2 3.6-10.4a28 28 0 005 23.3c-.7-4.5.6-11 2.4-13-2.3 10.4 6.1 17.9 13.3 25a17 17 0 015.6 7.4c1.2-1.8 2-4.3 2.2-6.5.4-2.6-.9-6.5 1-8.8 0 0-1 4.5.7 7.7 1.7 3.5.6 6.3-.4 8.9 4.5-3.8 5.5-8.3 4.7-13.8 1.1 2.3.8 6.2 2.8 8.2-.1-3.3 2.1-6.4 3-9.5 0 3-.5 5.7 1 8.4a37 37 0 014.6-11.2c5.9-10 11.7-16.6 9.3-28.9 3 7.1 0 14.4 0 14.4s2 2.2 3 8c.6 3 0 5.4-.7 7.1.7-.4 6.3-5.6 4.8-20.9 2.3 14.2-2 19.4-2 19.4a17 17 0 01-.6 6s4.5-2.5 5.6-7c0 3.2-2.6 6.2-2.6 6.2.2 1.5.4 2.9.4 4.2.5-.4 3-3.1 4.6-9.6-.7 6.7-2.6 8.8-2.6 8.8a38 38 0 01.4 17.7c4.2 5.6 4 10.3 3.3 16.5l-.5 7c-.5 4.5-1 8.7-1.5 9.4-.4.9-1.5 1.8-3 3l-3.5 3.3a5.6 5.6 0 00-1.9 3.4c-.5 2-2 3.7-3.8 4.7-2.2 1.4-5.8 3-7 4.7a11 11 0 00-1.9 4.8h18a34 34 0 016.3-7.3c1.8-1.5 3.3-2.3 4.3-2.8.9-.4 1.8-.8 1.8-1.3.2-.4.2-3.4 0-6.9 0-2.3 0-5.1-.3-8.1a131 131 0 012-20.3c.2-2 1.3-3.7 2.6-6a27 27 0 004.5-12.7 26 26 0 006-12c6.6-7.4 6.2-20.6 3-29.4 2 3 3 7.4 3.3 11.6 1.4-5.4 1.6-11.9.2-16.7.7.8 1 1.5 1.5 2.8 3-10-1.6-19.1-3-22a26 26 0 013.6 23.9c.4 5-.2 10-1.9 15.3a63 63 0 0024.8 3l-2-2.4c5 1.1 10.1 2 15.1.7l-2.8-2.8c2.8 1 6.1 1.5 9.3 1.3l-.9-2.2c6.1 1 13.7-1 19.1-3.8a73.4 73.4 0 01-6.9-50 30.2 30.2 0 01-17.4 1.3 52.8 52.8 0 00-24.5 2c-12.5 3.5-24.8-1.4-28-13.8a63.4 63.4 0 013.7-35.3zm28 163.4c-.2-8.5.2-17.6-1.4-26a70.1 70.1 0 00-5.3-16.5s4.2 6.4 6 14c1.2-4 1-7.3 1-9.2-.4-2.4-1.4-6.3-4-9.5 1.7 1.2 3.3 2.5 4 4.6-.6-5.8-2.2-11.5-3-14.5a46.6 46.6 0 01-15-3s0 7.6-5.4 14.4c1 2.4 2.6 6 4 9.7 2 4.5 2.7 8 3.1 10 0 1.8 1.9 2.6 2.8 4a53 53 0 014.7 16.6c1.8 8.6 1.5 13.5.9 15.3-.4 1-1.7 1.7-3 2.6a16.1 16.1 0 00-6.3 6.4c-.6.9-1.5 2.4-2.8 2.4a16.2 16.2 0 00-8.1 9.2h16.1c2.9-3 7.2-9.1 13.1-9.4a32 32 0 001-11.7c-.6-3.3-2-5.8-2.3-9.4zm112.8-29.8c-.9 0-2.4-.6-3.9-1.9-1.5-1.3-2.6-4.3-4-8.2a80.1 80.1 0 00-7.1-17c1.2-6.7-.3-12.6-3.8-16.6 2.2 1.3 3.7 3.1 3.7 3.1 0-5-1-9.2-4.3-12.3 1.6 1 3.3 2.3 4.7 4.4.4-12.5-3.2-20.6-4.5-23.7-1.1-1-2-1.6-3.1-2.4 2.3 5.7 3.3 13.8.4 19.6l-.5-.6c1 6.5-.3 10.8-.5 11l-.5-1c.5 4-1.8 8-1.8 8l-.7-.5c.5 3.5-1 7-1 7l-.5-1a48 48 0 01-4.5 13.4 24 24 0 0110 11.3c1.7 4 2.6 8 5.3 11.5 1.5 2.2 4 7.4 4.7 11.9.7 4 .7 8.6.3 15.7-.3 6.2-5.6 12.7-7.6 14.9-1 1.5-2 3.2-2 5-5 1.4-9 3.9-11.3 8.7H413c2.8-7 8.6-8.8 10.5-9 .9-3.9.4-7.8.2-11.6-.2-2-.4-4-.4-5.6 0-5 1-13 2-18.8.4-5 .6-10.1.6-15.3zM361.5 93.4c0 1.8 0 3.3-.4 5 7.1 13.5 6.5 34-2.3 47.1a17.5 17.5 0 01-6.2 5.7c-4 21.3-1.4 44 14 60.5-2.2-9.2-5.9-22.4-5.9-22.4 5 11.7 7.4 25.9 11.5 35.8 1.5 3.6 5 10.1 5.3 11.6 0 0 2.4 14.7 1.6 19.2a57.1 57.1 0 01-18.3 29.3c-1.8 2.6-1.4 5.4-5.9 6l-1.5.2c-6.7 2-8.8 7.1-9.7 8.8H361c1.3-1.9 4.7-5.3 14.2-8.4.6-2.1 3-12.4 8.8-22.8 2.4-4.5 4.7-8.4 6.5-11.6 2.8-4.5 4.5-7.8 4.7-8.8 0-.7-.2-1.5-.6-2.8-.7-2.2-1.5-5.6-1.1-10.4.6-5 0-9.2-.7-13.8a39 39 0 004.6-18.7l1.1 2.8c.6-2.9.5-5.5 0-8.2l1.5 2.7c1.2-1.9 1.6-8 1-11.5l1.1 3.3c.8-2.3.7-8.9-1-12.4 1 1 1.8 2.2 2.3 3.3 2.4-7 .5-14-2.8-21.6l7.7 6c3 3.3 5 8 6 15 .7 4.4.6 9.2 2.9 13.3 0-.7 1.5-5 1.5-5 0 1.3.8 8.6 1.7 10.6l1.5-3.3v3.5c.2 1.3.7 5 1.7 7.1a48 48 0 012-3.9c1.3 6.5 2.5 13.6 7.5 18.5-.9-2.3-1.7-5.8-1.5-9.4 0-.7-1-7-5-19a82.2 82.2 0 00-14.2-28c-2.7-3-6.8-6-8.6-9.7-1.3-2.1-6.7-11.6-10.1-15.7-3.2-3.6-6.6-7.1-9.5-11-.8-1-1-2.3-1-3.4 0-1-1.9-5.6-3.7-7.1.7-.4 1.7.4 2.1.8.9-2.4-1-5.2-3.4-5.8 0 0 .2-.6 2 0-1.3-3.7-1.1-7.2-5.2-9.2 0 0 1-.7 2.5.6-.6-2.8-3-6-5.8-7.1 0 0 .5-.2 1.5-.2-.8-.9-3.5-3-11.7-5.5z"/><path id="_154729208" fill="#fff" fill-rule="nonzero" d="M365 205.5c-2-8-4.3-16.2-4.3-16.2l-.7-4.1s8.3 19.2 12.8 31.3a110 110 0 008.4 18.7c-1.7 5.4-.6 14.4-.6 14.4 2.8-5.6 9.6-9.9 9.6-9.9 0-3.3.8-6 1-9.4.1-4-.5-8.4-.5-9.7a45 45 0 004-24c1.3 1.5 2.3 3.3 3 5.4a23 23 0 00-1.9-9.7c.6.4 1 .7 1.7 1.7 2.1-11-1.2-18-1.2-18 2.3 1.3 3.9 3 3.9 3a40 40 0 00-5.6-24.3l2.5.6c-1-2.8-5.8-9.5-8-12.5-2-3-6.2-7.5-8.3-11.2-2.4-4.4-1.8-9.7-5.6-13.3.8 0 1.5.1 2.3.4.3-3.4-3.5-7-3.5-7a4 4 0 012.3.4c-.4-3.8-2-6.4-4.4-7.6l2.6-.2c-1-4-5.8-5.8-5.8-5.8l1.5-1-6.7-1.8a61.5 61.5 0 017 26.9c-.3 10.7-5.7 22-8.9 25.2-3 3.2-6.5 5.4-7.7 6.9-1.3 1.3-2 9.4-2 9.4l1.7-6s-.4 8.4-1.3 13.1l1.3-3c.7 5 .3 11.2.5 15.1l.8-4.3s1.3 2.4 1.3 4c.2 1.8 1.1 9 3 14.7l.3-4.5s1.4 5.9 5.6 12.3zm-134-95.4zM226.4 229l.1-.9c.2-1.2 0-2.7 0-4.2-.3-3.5 1-4.5 1.9-6.4 0 0-.2 5 .2 6.3.7 1.5 1.3 4.3 1.3 4.3 2-3.2 2.6-9.3 4.1-13.1 1.7-4 5.2-7.4 5.2-7.4-5.2 8.2-4 18.3-4 18.3.7-2.3 3.3-6.2 3.3-6.2.7-6.5 8.4-17.2 10.4-21.1 1.9-4.1 3-10.8 3-10.8l2.3 2.2c.3 2.5.6 5 .3 7.5l.6 2.2a7.3 7.3 0 00-.2 3.6l.9-2.3 1 2.6c-.8 2.8-.2 4-.2 4 .2-1.4.9-2.5.9-2.5l.8 3.2a29 29 0 00-.8 5.6 26.7 26.7 0 003-8.4c0-2.2 0-4.8-.2-7.8.5 3.4.7 6.3.7 8.8a43 43 0 01-.7 13.2c1-.8 2.1-2.2 3-3.4v-.3.2l.6-1c.3 3.9-1.5 8-1.5 8a22 22 0 003.2-6.3l1 1.3-1.8 6.7 1.3-2 .2 2.6c-.9 1.5-1.3 4.3-1.3 4.3l1.5-2.8.2 1.7-1 3.7 1.3-1.5c1 11-.3 13.1-.3 13.1s2.2 2.6 2.6 6.5c.5 3.9-1.3 17.4-1.7 23.3-.4 5.8-4.3 6.4-7.5 9.4-3.5 3.3-4.1 6.3-4.1 6.3h1.7a11 11 0 016.7-7.1c-3.7 2.3-5.2 7.3-5.2 7.3l2.6.2c1.7-4.5 6-5.4 6-5.4-3.4 1.7-5 5.6-5 5.6 2.6 1.1 4.4.5 7-1 2.5-1.8 1.9-5.9 1.7-11.7-.2-5.8.2-16.8.8-20.2.7-3.5-.4-4.3-.4-5 0-.8.4-1.5 2.2-5.6 1.7-4 2.1-13.5 2.1-13.5a21.7 21.7 0 01-1.3 15.7c5.8-7 3.9-15.5 3.9-15.5 9.3-8.9 5.6-18.3 5.6-18.3.9 8.6-2.4 12-2.4 12a30 30 0 00-6.9-16.6c4.8 10.2.3 19.2.3 19.2s.6-7.1-3.5-12.7a40.5 40.5 0 01-7.3-16.4c-.7-3.8 0-7.5 0-7.5-8.6-1.5-7.6-13.6-7.6-13.6a35 35 0 00-3.4 4.5c-3.2-6.8-.2-20.8-.2-20.8l-2 1.3c-.2-7.4 4.4-18.4 4.4-18.4l-3.7 2.6a75 75 0 0111-21.7 71 71 0 00-15.4 25.8c-1.9 5.2-2.9 10.9-4.8 16-2.5 6.7-8.2 5.9-11-.3-1.2-3-1.1-6.6-1.3-9.9l1.9 1.1-1.6-4.1c.7.2 2 .9 2 .9-.4-1.5-1.7-4.4-1.7-4.4 1.5.5 2.4 1 2.4 1-.9-2.2-2-4-2-4 1 0 2.4 1 2.4 1-.6-2-2.2-4.6-2.2-4.6 1 .2 2.6 1.5 2.6 1.5-1.3-6-5.1-10.8-5.1-10.8a14 14 0 014.7 4c.2-1.2-.2-3.5-.2-3.5l2.4 1.7c-.7-1.7-4.4-6-4.4-6l3.7 1.9c-.9-2-2.1-2.4-2.1-2.4.8-4.5-3.3-7.5-3.3-7.5 2.8.4 5.2 2.1 5.2 2.1-.7-1.2-2.4-2.8-2.4-2.8.2-4.5-3.4-6.2-3.4-6.2 3.4.2 5.8 1.5 5.8 1.5-2.4-2.6-5-3.4-5-3.4l-3.4 2.1-1 .9c-2.9 4-11.3 11.4-18.4 17.9a52.3 52.3 0 00-13.1 23.6c-2.4 7.8-.9 19.9-.9 19.9l2-5.6c1.5 5.1.4 9.9-.3 13-.4 3.3-.2 7.8-.2 7.8 2-5.8 5.6-10.5 5.6-10.5.2 3-1.3 4.7-1.5 11.6-.2 7 2.6 12.3 2.6 12.3a26.7 26.7 0 015.6-13.1c-3.4 14.2 5.4 22.8 11.4 28 6 5.1 6.3 7.7 6.3 7.7a5 5 0 001.4-2.1zm35.2-9.4zm-14.7 78.7H260c.7-1.2 2.9-4 4.1-4.8 0 0-7-1.3-10.7-.4-4 1-6.3 2.3-6.7 5.2zm63.3-76.7s-.4-3.6-1.3-5.3c0 0-8.8-.5-11-1.1 0 0-.4 6.2-1.7 9.5 0 0 1.5 8 2.4 11.2 1 3.2 5.2 12.2 6.9 16.1a69.6 69.6 0 013.7 20.2c.2 6.7 0 9.7 0 9.7l.4 1.8s-3.5.4-6.5 2.5c-3 2.4-4.4 4.8-4.4 4.8l2.6-.1s4-4.9 7.4-5.7c0 0-4.3 3.7-5.2 5.7l3.7.4s1.3-1.4 2-1.8c.8-.5 2.5-.7 3-1.1.4-.2 2-4.3 1.5-8-.2-3.6-2.2-8-2.8-9.7-.4-1.9-.2-7.5-.7-12.2a81.4 81.4 0 01-1-13.6 35 35 0 00-1.5-12.3c-1.3-3.4-4.6-8-4.6-8l1.3-.4s4.3 3.3 5.8 6.7c0 0-.2-6.9-6.4-13.8h1.7s2.6 1.3 4.7 4.5zm-21.5 76.7h10.7c1.2-2 5.4-5.3 5.5-5.1 0 0-3.1-.6-6.6-.4-4 .3-7.7 1.2-9.6 5.5zm61.6-104.2c-3.5 3.2-11 3.4-11 3.4l.2 1c-3 1.8-8 .7-8 .7l.3.9c-2.2 2.4-10.1 2-10.1 2-2.8 2.3-9.3.4-9.3.4l.2 1.3c-6.4 3-13.5-1.4-15.3-3l-.5 3c4.6 1.7 10.2 2.1 10.2 2.1l10 3.7-4.2-3.6 7.3-.3 9.7 2.2-4.3-2.8 4.6-.5 7.5 2-2.9-2.6 3.3-.7 6 1.2-3.4-2.2 3.5-.9 5.5 1-3-1.7c3.4-1.3 6.3-1.9 6.3-1.9zm-57-18.1s2.3 4.3 1.9 9.2l-3.3-5.1 1.3-4.1zm-2 6.2c.1 0 3.5 5 3.2 8.6 0 0-1.5-2.8-3-4.7 0 0 1.3 4.1 1.7 6.7 0 0-2.8-5-5.1-5.6a16 16 0 012.8 8.8c-1-3.3-3-8-4.8-10.5 1.5.9 4.4.3 5.2-3.3zm-1.3 24.1s-3.7-11.4-8.8-13.7c0 0 6.4 14.4 5.1 22.6 0 0-3.6-8.2-6.9-10.1 0 0 4.6 8.6 3.3 16.1 0 0-5-12.5-11.4-16.8a37.7 37.7 0 014.7 18.8s-2.2-6.7-5.4-11c-3.2-4.6-6-12.5-4.3-19 0 0 6.3-.6 7.5-7 .3 1 1.8 4.9 5.3 3.8 3.1-1 3.8-3.3 4.4-5-.1 0 6.9 6.7 6.5 21.3zm107.3 92h14c.6-2.3 2-3.7 3.6-5.4-7.1-1.1-13.6.3-17.6 5.4zm22.3-59.4s3.3 3.2 3.7 4c.2.7-1 9.7-1.3 11.3l-4.5-3.5s2.1 5.8 2.6 11.9c.4 6 .8 13 .8 16.8.2 3.4.7 9.4-2.3 10.5-3 1-8.2-.2-8.2-.2s5.8-8.6 6-16.8a94 94 0 00-2.1-25.6s3.2.6 5 2.3c0 0 1.2-5 .3-10.7zm-14-38s1.1 4 1.8 5.4c.8 1.8 1 6 2.8 10.8 1.7 4.8 5.8 15 5.6 17.7 0 2.8-2.4 8.8-2.4 8.8s-3-3.4-4.7-7.7c-1.8-4.1-5-9.5-6-11.2-1.4-1.8-1.4-7.4-.3-11.2l3.2-12.5zm-59.3-44c-4-.8-9-.6-13-.5-8.6.2-21.8 5.6-33.6 3.9-12.3-1.8-21.3-10.8-21.1-21.8 0-6.6 1-10.8 2-14.2.8-6.2 2.5-12.4 4.5-18l-.4-2.3a7 7 0 00-2.9 2.6c-4.3 5.6-3.4 8.7-3.4 8.7s-2.2 1.2-2.4 4c0 0-5.6 0-12 9.5-6.5 9-7.6 15.7-7.6 15.7l4-1.5s-5 8.9-5.7 17l3.4-1.7s-3.9 11.4-2.8 20.5c0 0 3.3-3.7 4.1-4.1 0 0-2 14.2 5 14.6 7 .7 9-6.2 9.7-8.6.3 2 1.9 7.6 4.8 6.2 3.3-1.6 3.3-6 3.3-6s2 4 4.8 2.8c2.8-1.3 6.2-8 4.5-19.6 2.5 3 4.8 7.5 6.2 12.2 1.5 4.5 2 10-.2 16.7v4.2c1.6 2 5 5.7 10.6 5.3 0 0-3-1.3-4.3-2.8 0 0 3.9.2 5.6-.2 0 0 3.9 1.9 7.5 1.5l-4.5-2 3.4-.8s6.5 2.8 10.8 1.5l-7.7-2.6 6-1.5s5.4 3 10.3 2.6c0 0-6.2-2.4-8.2-3.5l5-1.3s6.5 2.6 10.8.9l-8.7-2 3.3-1.9s6.6.7 9.4-.6l-7-.5 1.7-1.9s3.8 0 6.6-1.5l-5.3-.2s1-2 1.2-3c0 0 2.6-.3 4.4-.9l-4-.6c1.3-8.2 1.8-16.2 1.9-24.4zm77.6 48.6c-.6-3.7-.8-7.3 0-11.2-2 1.2-2.4 3-3 4.3-.7-4.2-1.2-8.4-1-12.6a12 12 0 00-2.6 5.5s-.7-5.4-1.5-9c-.9-3.7-1.8-7.6-4.6-14 0 0 12.5 18.7 15.3 32.5 0 0-1.5 2.3-2.6 4.5zm-42.4 60.7c-7.3 10.8-12.3 19.8-12.3 19.8s4.4-4.3 6-6.6c0 0-1.6 4.5-1.9 5.8-.4 1.3.5 4.3-1.5 5-2.1.8-6-1-8-2.9 0 0 6.3-5.1 9.8-11.8 3.2-6.7 8.6-17 8.6-17v4s4-6.4 4.7-9c.7-2.6-.2-5-2.4-3.2-2.1 1.5-1.9-1.5-.4-3 3-3 7.3-3.7 7.3-3.7l1.5 3.7s-4 8-11.4 19zm-22.8 32.1h-11s.8-3.6 6.3-5a18 18 0 0110.7.3c-2 .5-5.4 3.3-6 4.7zm69.1-93s1.7 5 2 9c0 0-2-3-2-9zM227 109.5a9.8 9.8 0 002.7-6.7l-.8.8c-.3 1.2-1 2.1-1.9 2.9l-.1.1h-.1c-1.6 2-3.8 2.2-3.8 2.2 2.4.4 3.7-.4 3.7-.4-2.2 2.3-5.6 2.1-5.6 2.1l-2 2c3.3-.4 6-1.6 7.9-3zm1.4-10V99l-.7.7c-.3 2.4-1.2 5-3.2 6.6a7.9 7.9 0 004-7zM226 101v-3.6l-.8.7a18 18 0 01-.7 4.9c.5-.5 1.1-1.1 1.5-2zm-15.6 12c1.5-.1 2.7-.7 3.9-1.4-1.6.6-3.4 1-5.8 1 0 0 2.1-.7 3.9-1.6 2-.8 3-2.1 4.3-2.5 0 0-1.1-.5-4.8 1-3.4 1.5-3.8 2.4-3.8 2.4l-1.5-1.5c1.2-1.2 3.1-2 4.7-2.5a14 14 0 018.8-1c-1.4 3.5-4.1 4.9-5.8 5.9 0 0 2.2-.2 4.5-2.2 2.6-2 3-4.3 4.5-5.4 0 0-1.7.2-3.8 0-2 0-5.8 0-8 .9-2.1.6-4.3 2.4-4.3 2.4.3-1 .8-1.7 1.4-2.2l1.6-2c1.5-1.2 4.3-2.7 3.2-9.6 0 0-1.2 2.8-2.6 4.5-.3 3.3-2.1 6.3-4.7 8.4-.4.4-1 .6-1.5.9l-.8-1.1c3.1-3.6 3.6-10 1.3-14.5l-1.4-2.1c.2 1.2 0 2.5-.1 3.7.5 1 1.1 2.3 1.4 3.8.9 3.8-1 6.1-2 7.1l-.1.3-1.7 2.5s-.9 4.6-4.6 5.9c-3.4 1-7.5.2-10.7 1.5-3 1.3-15.7 7.7-16.4 10.3-.8 2.6 1.5 2.6 2.6 2.4 1.3-.5 3.7-2.2 5.8-3.5 2-1 5-2.5 6.3-2.2l.4-.1c.2 0 .6.8.8 1 .3.5 1.3 1.3.7 1.8-.6.5-1.7 0-2.6 0a29.8 29.8 0 00-8.7 5.7c-.2.3 0 .9 0 1.3.2.5.4 1 .7 1 .5 0 1.7-.7 3-1.4 1.3-.6 4-2 5.7-2.6a11 11 0 014.4-.2l.1.1c0 .4-1 1.4-1.3 3.2-.4 1.7-1.7 6.9-2 12.7 0 0 1.3-6 2.4-10.2 1-3.8 2-5.8 4.8-6.4 0 0-1.8 3.7-2.4 6-.7 2.6-.9 5.8-.9 5.8s2.8-9.2 4.3-12.2l1.8-.5s-2.4 4.3-3.7 8.6c-1.3 4.6-1.3 6.3-2 10 0 0 1.8-5.4 3.3-10.8 1.3-5.2 3.4-8.2 3.4-8.2l.2.9s-.4 1-1 5c-.5 4-1.1 8.5-2.6 13.7 0 0 2.6-4.5 3-8.8l1-9.5 1.2 1a14.6 14.6 0 010 10l-.3 1.3c1.1-1.3 2.8-4.5 1.3-10.6 2 1.3 4.8 2.6 7.6 3 .6 0 1.2-.2 1.6-.4a24 24 0 01-11.8-5.8l2.2-.9s6.2 6 11.4 3.9c0 0-2.8 1-11-4.1 0 0 2-.9 3.3-1.7 0 0 5.1 3.5 9.3 2.7l1-.2s-1.3 0-2.7-.6c-1.6-.3-4-1-7.2-2.3l1.7-1.8c3.5 1.8 7.5 3.2 11.5 3 1.4-.7 2-1.5 2-1.5s-1.8.8-4.5.1c-3-.3-5.8-1.3-8.6-2.2l1.1-1.3s13 4.7 16.6-2.2c-1.5 0-3-.3-4.4-.8-1.8-.2-7.1-1.5-10.9-.3.4-1.5.7-3.6.7-3.6l2.3-.2zm10 3.4c5.8 0 9.6-2.9 10-9-.3 1-.7 2-1 2.4-4 7.5-15 5.3-15 5.3a32 32 0 006 1.3zm-47.7 1.8c1.2-.7 2.7-1.2 3.7-1.4.9-.4 2.6-1 5-1.7a70 70 0 008.1-2.8c3.2-1.2 7.2-2.6 9.5-4.3 4.3-3.4 5.3-9.8 2-14.2 0 0 .4 4.3-1.8 7.6-1 1.5-2.4 3-4.2 4.5a48 48 0 01-8.7 5.6c-5.2 2.6-8.4 3.2-13 6.2l-.6.5zm49.6-24c-.3.9-.6 1.3-.9 1.7.2 5.3-.6 8-.6 8a19 19 0 001.5-9.6zm-3 1.2l-.9-2.4-.2.6c.7 5.7-1.4 10-1.5 10a13 13 0 002.6-8.2z"/><path id="_154615512" fill="#e08600" fill-opacity="1" fill-rule="nonzero" d="M321.6 75.2c-.5-1.1.8-2.4 1.9-2a277 277 0 00-.6-8.2 62 62 0 00-15.6-2.4c-7 0-18.7 2.7-20.6 11.3-.6 2.4-.1 5 1 7.4a111 111 0 0133.9-6.1zm5 43.6c-.3.4-1 .8-1.5.8-.4 0-1-.4-1.2-.6-5.5 3-11.6 4.7-17.8 4.7-8.7 0-15.4-3.4-19-11.5-.6-1-1.2-2.6-1.5-3.8a62.8 62.8 0 00-3.2 32.5c2.8 11.7 14.5 16.8 26.5 13.3a54.3 54.3 0 0125.2-2c9 1.7 18.2.5 23.7-7.5a49 49 0 003-44l-.6 2.3c-3.2 10.7-9 17.3-22 17.4-3.5 0-7.3-.5-11.6-1.6zm-2.8-38.6c-1.1.7-2.6-.6-2.3-1.7a100 100 0 00-33.3 6.1 36.7 36.7 0 000 27c3.4 7.6 9.8 10.8 18 10.8 6 0 12-1.7 17.3-4.6.5-12.5.8-25 .3-37.6zm5.4-1.8c.3 1-.9 2.3-2 2 .5 12.3.2 24.7-.3 37a42 42 0 0011.4 1.7c6.7-.1 13.2-2.6 17-8.3 1.4-2.2 2.8-5.1 3.8-8.5a27.7 27.7 0 00-1.5-19.8c-2.7-1-5.6-1.6-8.4-2.2a94.8 94.8 0 00-20-2zm-2.3-5.1c1.2-.8 2.6.6 2.3 1.8 6.9 0 13.9.6 20.6 1.8 2.5.5 5 1.2 7.4 2 1-5.5-.2-9.7-3.3-12.3-4.4-3.5-13-4.2-17.8-4-3.4.2-6.7.9-9.9 2.2l.7 8.5z"/><path id="_155268856" fill="#fecc00" fill-opacity="1" fill-rule="nonzero" d="M287.9 83.6a98.8 98.8 0 0134.4-6.2l.7-.7-.6-.5c-8.6.2-17.4 1.4-25.7 3.6-3 .8-6.4 1.6-9.2 2.7-.3 0-.6.4-.4.8.1.3.5.4.8.3zm40.5-6.2c7 0 14 .3 21 1.8 2.6.6 5.7 1.4 8.4 2.3.4.1.7-.1.8-.4 0-.3-.1-.7-.6-.9a107 107 0 00-29.7-4.1l-.6.6.7.7zm-2.6 40.6v-.1c.6-12.8.9-25.6.4-38.3l-.9-.8-.5.5a449 449 0 01-.3 38.5v.1c0 .4.3.6.6.6s.7-.1.7-.5zm.1-43.8l-.7-9.2c0-1-1.4-.9-1.3 0l.6 9 .9.6.5-.4zm-2.6 5l1.3-1-.8-.8-1.2 1c-.6.6.2 1.4.7.9zm3.6-3.1l1.2-1.1c.4-.4-.3-1.2-.8-.8l-1.2 1.1zm1 2.2l-4.4-4c-.6-.5-1.3.3-.9.7h.1l4.5 4.1c.6.6 1.4-.1.7-.8zm-.4-10.7c.1 1.7 0 3.6.2 5.4.7.1 1.2.6 1.5 1.3 7.2.1 15.1 1 22.8 2.5 4.6.8 4.5-3 3.6-6.3a6 6 0 00-1.1-1.3c-6.4-6.1-22.5-3.7-27-1.6zm1.2 17.1c0 7.4 0 14.7 1.6 22 1 4.9.5 7.8 6.8 8.1 15.5.7 23.2-11.5 20.9-26.7a8.6 8.6 0 00-5.3-5.2c-5.5-1.8-10.8-3-16.4-3.3-6.4-.4-7.5-.8-7.6 5.1zM290 79.8c-4.5-12.3 15.2-18.5 32.5-13l.5 6.3c-.6 0-1.2.6-1.4 1.2-11.3.5-22 2.4-31.6 5.5zm33 .6c.5 9.1.7 18.5-.4 27.3-.4 3.6.1 7.3-4 8.5-7.2 2.2-19.4 2.3-23.7-2.6-3.3-4-5-11.2-4.9-20.3 0-3.8-.1-7 4.3-8.5 9-3.1 18-5.1 27.3-5.7.2.7.8 1.2 1.5 1.3zm-37.1 34.3c6 10.3 17.3 12.6 32 9.4 6-1.3 12.8-1 20-.8 8.8.4 16.2-3.3 22.3-10.6 1.4 27.9-10 39.8-33.7 34-4-1-7.3-1.4-11 .7-11.7 6.5-23.4 10.8-29-3.6a56.6 56.6 0 01-.6-29z"/><path id="_154728848" fill="#cdc9c6" fill-opacity="1" d="M197.7 106.9l-.8.5-1.8-.8c7-5.1 6.7-10.3 6.7-10.3 1.3 5-1.7 8.6-4 10.6zm8.8 12.4l.8-1.9c4.1-1 8.5 1.8 12.4 1.6-3 2.6-9.6-.3-13.2.3zm19.2-.8l-.1-1 1.2.1c-.2 8.2-6.5 14.2-6.5 14.2 3.5-.6 5.6.5 5.6.5-8.4 4.7-11.2 13.1-11.2 13.1 8.4-2.4 8.7 0 8.7 0-5.4 1.5-8 6.9-8 6.9a10 10 0 016.9 1.3 17 17 0 00-9 11.4c4-2.6 9.2-3.9 9.2-3.9-14.7 14.2-4.5 26.5-4.5 26.5-10.6-8-3-21.3-3-21.3a66.8 66.8 0 00-5.9 4.3c.7-11 8.7-16.6 8.7-16.6-4 .2-7.6 3.5-7.6 3.5 2-6.7 7.8-11.5 7.8-11.5-5.4 1.1-8.6 5-8.6 5 3-11.6 12-17.9 12-17.9-4.7.2-10.5 5.6-10.5 5.6 2.1-5.4 7.7-9.9 11.6-13.3 3.9-3.5 3.2-7 3.2-7zm18.6 43.8l1-3.2s4.8 11.7 4.5 21.2c-.2 9.5-4 17.2-4 17.2-.3-3.2-1.8-6.9-1.8-6.9-1 5.6-3 8.9-3 8.9l-1-1.3c-.3 7.5-5.7 14.4-5.7 14.4l-.8-1.7-2.4 4-2-3.6c-.2 5-4 6.8-4.7 10.8-.8-4.8 2.2-6.5 3-10.6.9-4-1-9.2-1-9.2 2.1 2.8 4.8 9.2 4.8 9.2 2.2-3.5.1-10.1.1-10.1 2.4 2.6 3.5 6.5 3.5 6.5 5-6.2 3.6-16.6 3.6-16.6 1.2 1.9 1.8 3.2 2.3 4.2 2.8-4.3 2-13.5 2-13.5 1.1 4.3 2.8 7.3 2.8 7.3 3.7-11.6-1.2-27-1.2-27zm105.2 129.8c-4 .6-7.3 2.1-9.9 8.1h2.5c2.5-5.3 5-7.3 7.4-8.1zm-59-.4c-4.2.7-8.8 4.5-9.9 8.5h3.3a15 15 0 016.6-8.5zm-43.8 1l4-2c-6.7.4-10.7 4-11.8 9.5h3.3a9.5 9.5 0 014.5-7.4zm153.3-.6c-6.7 1.8-8.9 5.6-10 8.1h1.7c.7-1.2 3.1-6 8.3-8zm-9.7-52.4c1.4.5 2.6-.7 1-2-.8-.8-1.6-1.4-2-2.5-.8-2.8-1.4-3.4-1.6-6.2 0-2.8.4-7.1-2.6-11.5 0 0 5.2-5.6 4.5-17.4l3.5 1.5s0-5.4-.7-8.4c0 0 1.7.9 2.8 2.2 0 0 .2-4-1.3-7.8l1.7 1.5c-.2-1.3.3-6-1.7-11.6l2.2 1s-1.3-7.7-3.3-12.2c0 0 2.8 1.5 3.5 2.6 0 0 .6-7.1-4.3-16.4-4.8-9.3-12.7-12.7-12.7-12.7s9.4 5.2 13.1 23.5c0 0-3-2.4-8.8-4.3 0 0 6.4 3 7.3 13.3 0 0-3.4-3.2-7.1-5.1 0 0 6.9 5.6 7.1 15.2 0 0-3-3.2-6.2-5.6 0 0 5.1 5.2 5.3 12.8 0 0-3.2-3-5.1-5.6 0 0 3.8 7.3 4 13 0 0-2-2-4.9-5.5l.9 3.3c3.6 4.8.6 15.2-2.2 19.7l-3.4-2s2.8 2.9 4.3 5.3a25 25 0 012.8 8.8c.2 2.8.2 5.2.6 6.5.5 1.2 1.1 3.2-1.5 5.3a11 11 0 00-4 7c2.2-3.2 4.6-6 8.8-5.7zm-44.8-83.4l4.1 1.2c-3.7 3.4-7.6 7.4-12.8 8.4-4.7 1-4.4-.9-3.8-3.7 0 0-2.2 3-6.7 5.6-4.5 2.4-5.6 2.4-5.2 1 .5-1.2.5-3 .5-3s-10.4 8.9-22 2.4c0 .3 13.3 3.4 22.6-6 0 0 2.7-.2 5.3-2.2 0 0-2.5 4.2-3.5 6.8 3-.4 8.8-5.9 11.4-8a7.1 7.1 0 00-1 4.4c0 1.1 1 1.7 4-.1 5.8-4.1 7-6.8 7-6.8z"/><path id="_154878784" fill="#000" fill-rule="nonzero" d="M198.2 109.3c.3.4.4 1 .4 1.6a3.2 3.2 0 01-6.3.5l-3 1.1c0-1.2.2-2.3 1.4-3 .2-.8.7-1.3 1.4-1.6.4-.8 1.2-1.1 2-1a2 2 0 012.2-.1 2 2 0 011.5 0l.3.2.2.1c.5 0 1 0 1.4.4l.2.2.5.8-2.2.8z"/><path id="path3786" fill="#fff" fill-rule="nonzero" d="M194.7 110.5a.5.5 0 01-.4 1 .5.5 0 01-.5-.6l-.6.2a1.5 1.5 0 102.7-1l-1.2.4z"/><path id="_155268112" fill="#c1c1c1" fill-opacity="1" fill-rule="nonzero" d="M190.4 111.1l8.4-3c-.3-.1-.5 0-.8 0-.6-.5-1-.7-1.8-.3-.7-.4-1.2-.5-1.9 0-.7-.1-1.2 0-1.5.8-.8.3-1.1.6-1.2 1.5-.5.2-1 .5-1.2 1z"/></svg>