<svg xmlns="http://www.w3.org/2000/svg" id="svg32" fill-rule="evenodd" clip-rule="evenodd" image-rendering="optimizeQuality" shape-rendering="geometricPrecision" text-rendering="geometricPrecision" version="1.1" viewBox="0 0 600 400" xml:space="preserve"><defs id="defs4"><style>.fil1{fill:#a2260b}.fil0{fill:#ffdf00}</style></defs><path d="M0 0h600v400H0z" class="fil0"/><path d="M300 93.5l-17 17v-17h-17l17-17L266 60h17V42.5L300 60l17-17.5V60h17l-17 16.5 17 17h-17v17z" class="fil1"/><path d="M300 85l-8.5 8.5V85H283l8.5-8.5L283 68h8.5v-8l8.5 8 8.5-8v8h8.5l-8.5 8.5L317 85h-8.5v8.5z" class="fil0"/><path d="M219 174l19-19.5 51.5 51.5v-12.5l-45-45h-17L202 174l23.5 23.5H238l17.5-17.5-17.5-16.5-10.5 10.5 6.5 6 4-4 4.5 4-8.5 9z" class="fil1"/><path d="M259.5 185l30 29.5V316H0v-9h280.5v-88.5l-21-21-15 14.5 8.5 9 4-4.5-4-4.5 6.5-6.5 10.5 11-19 19-13-13v-17z" class="fil1"/><path d="M280.5 142.5l8.5-9-15-14.5-18.5 19 44.5 45 45-45-19-19-15 14.5 8.5 9 4-4.5-4-4.5 6.5-6 10.5 10.5-17 16.5L302 138v-13l24-23 25 25.5V144l-46.5 47v134H600v75H0v-75h295.5V191L249 144v-16.5l25-25.5 24 23v13l-17.5 16.5-17-16.5 10.5-10.5 6.5 6-4 4.5z" class="fil1"/><path d="M381 174l-19-19.5-51.5 51.5v-12.5l45-45h17L398 174l-23.5 23.5H362L344.5 180l17.5-16.5 10.5 10.5-6.5 6-4-4-4.5 4 8.5 9z" class="fil1"/><path d="M340.5 185l-30 29.5V316H600v-9H319.5v-88.5l21-21 15 14.5-8.5 9-4-4.5 4-4.5-6.5-6.5-10.5 11 19 19 13-13v-17zM215 131.5l-17 17v-17h-17l17-17L181 98h17V80.5L215 98l16.5-17.5V98H249l-17.5 16.5 17.5 17h-17.5v17z" class="fil1"/><path d="M215 123l-8.5 8.5V123H198l8.5-8.5-8.5-8.5h8.5v-8l8.5 8 8.5-8v8h8l-8 8.5 8 8.5h-8v8.5z" class="fil0"/><path d="M385 131.5l-17 17v-17h-17l17-17L351 98h17V80.5L385 98l17-17.5V98h17l-17 16.5 17 17h-17v17z" class="fil1"/><path d="M385 123l-8.5 8.5V123H368l8.5-8.5-8.5-8.5h8.5v-8l8.5 8 8.5-8v8h8.5l-8.5 8.5 8.5 8.5h-8.5v8.5z" class="fil0"/></svg>