<svg xmlns="http://www.w3.org/2000/svg" xmlns:xlink="http://www.w3.org/1999/xlink" viewBox="0 0 600 400"><defs><path id="c" fill="#ffb000" d="M0-23c2-14 3-21 0-21s-2 7 0 21z"/><path id="b" fill="#ffb000" d="M0-23c1-10 1.5-14 0-14s-1 4 0 14z"/></defs><clipPath id="a"><circle cx="300" cy="150" r="49"/></clipPath><path fill="#e02010" d="M0 0h600v400H0z"/><path fill="#007030" d="M0 0h600v266.7H0z"/><path fill="#0090d0" d="M0 0h600v133.3H0z"/><circle cx="300" cy="200" r="26.7" fill="#ffb000"/><path fill="#fff" d="M300 145c-15-15-78 40-78 40l169 4s-68-62-90-44z" clip-path="url(#a)" transform="translate(-100) scale(1.33333)"/><path fill="#007030" d="M301 162c-20-18-38 16-60 4 11 50 125 55 115-2-18 2-35-25-55-2z" clip-path="url(#a)" transform="translate(-100) scale(1.33333)"/><circle cx="300" cy="200" r="64" fill="none" stroke="#ffb000" stroke-width="5.3"/><g id="d" transform="translate(-60.8) scale(1.33333)"><use width="100%" height="100%" transform="rotate(-75 247.7 -120.5)" xlink:href="#b"/><use width="100%" height="100%" transform="rotate(-64 270 -165)" xlink:href="#c"/><use width="100%" height="100%" transform="rotate(-56 291 -207.1)" xlink:href="#c"/></g><use width="100%" height="100%" transform="rotate(30 331.7 172.2)" xlink:href="#d"/><use width="100%" height="100%" transform="rotate(60 321.4 169.2)" xlink:href="#d"/><use width="100%" height="100%" transform="rotate(90 309.2 170)" xlink:href="#d"/><use width="100%" height="100%" transform="rotate(120 301 178)" xlink:href="#d"/><use width="100%" height="100%" transform="rotate(75 .3 270.3) scale(1.3333)" xlink:href="#b"/></svg>