<svg xmlns="http://www.w3.org/2000/svg" viewBox="0 0 600 400"><path fill="#ff000e" fill-rule="evenodd" d="M0 0h600v400H0z"/><path fill="#006ab6" fill-rule="evenodd" d="M0 0h202.3v400H0z"/><path fill="#fff" d="M139.2 122.2l1.5 1.6-1.4-1.5z"/><path d="M99.5 20.6h.6c.6 0 1.2.4 1.6 1 .7.8 1 1.9 1 3 .5-.4 1-.8 1.7-.7 1 0 1.8.6 2 1.4a3 3 0 01-.7 2.9c-.4.5-1.1.8-1.3 1.5l-.3.2c.1-1 1-1.3 1.6-2 .7-.9 1-2.3.2-3.2-.8-.8-2.2-.8-3 0l-.5.4c.1-1 0-2-.5-3-.6-1-2-1.7-3.2-1-.4.2-.7.5-1 .9-.5 1-.6 2-.5 3.1l-1-.7c-.4-.3-1-.4-1.5-.3a2 2 0 00-1.4 1.5c-.1.6 0 1.2.3 1.7.3.8 1 1.2 1.6 1.9.2.2.3.5.3.8h-.2c-.4-.2-.7-.4-1.1-.4-.6 0-1.1.2-1.4.7-.3.8-.2 1.8.2 2.5.8 1.2 2 2 2.8 3.2a5.8 5.8 0 01.5 4.8l-3.2 12.6c-.2.4-.3.9-.3 1.4-.2 0-.3.2-.4 0L76 34.2l.6 3.4L79 49.4l.5 2.2c.2 1.7.6 3.4.9 5l-1.3-1-12.8-11.9-3.2-3c.6 1.4 1.3 2.6 2 3.8.3.6.5 1.3 1 1.8l2.8 2.3-.2.1-2.6-2.2 3.4 6.4 5.3 9.7.4-.3 1.3-1a20 20 0 014.2-1.3l.8-.2-11.7-10.1-.9-.8.2-.1 12.5 11 .7-.1c0-1.1-.3-2.2-.5-3.3v-.8l.6 4 .8-.1a142 142 0 018.8-1l.7-.1-10-12.8a35 35 0 00-3.3-4.3l.7 4.2.3 2.4-.1-.5a705 705 0 00-1.2-6.6h.2l.3.3 4.1 5.4 9.1 11.9h.8L94 57c0 .5-.2 1-.3 1.4 3-.2 6-.2 9.1-.2 1 0 2 0 3 .2l-1.8-7.2-4-15.9-.2-.5-2 7.6-3.4 13.5L94 57l5.6-22.4s0-.4.3-.3l3 11.6 3 12.5h1c4-5.5 8.3-10.9 12.6-16.3l1-1.3.2-.1-1.8 9.9c-.1.5-.1 1-.4 1.6v-.6l1.6-8.2.3-2.2-3.6 4.5-9.4 12-.5.7h.9l3.5.4c2 .2 3.9.4 5.8.8 0-.2 0-.5.2-.7v.8c1.4.2 2.9.6 4.3 1 1.2.5 2.4 1 3.2 2l7.3-13.6 1.4-2.6-4.7 4-10.6 9.2h-.2l15.5-13.5c.4-.3.6-.8.8-1.2l2.3-4.2c-1 .7-1.8 1.6-2.7 2.3l-14 13-.7.6c0-.7.2-1.3.3-2l2.3-11.4 1.4-7.2.3-1.8-.9 1L109.4 52l-2 2.5-.4.4-4-15c0-.1 0-.4-.2-.6l-.3-1.2a7 7 0 010-2.5 6 6 0 00.5 3c0-.8.2-1.7.6-2.4.5-.9 1.2-1.6 2-2.3.5-.4.9-1 1.1-1.6.4-.7.4-1.7 0-2.4-.4-.4-1-.6-1.5-.4h-.6c.5-.2 1.1-.4 1.6-.1.8.3 1 1.2 1 2a3 3 0 01-.9 2L104 36c-.4.7-.6 1.5-.7 2.3-.1.5-.2 1 0 1.6l1.6 6.4 7-12.6 1-1.6v.8l-.2 14.6 10.8-13.7.3-.2-.2 1.4-4 21.2 17.2-16c.1-.2.3-.2.5-.3l-2 3.9-7.9 14.5 5.5-5c1.3-1.2 2.9-2.2 4.6-2.6.6 0 1.1-.1 1.6 0l12.1 3.9c1.2.4 2.2 1.5 2.3 2.8.1 1.6-.8 3.1-2.1 4-.1.1-.4.3-.2.4l5.6 3.4 1.9 1a5 5 0 011.9 3.9c0 1.5-.4 3-1 4.2a25 25 0 01-3 4.7c-.8 1-1.7 2-2.4 3.1a17.9 17.9 0 00-3 11.4c1.5 0 3-.2 4.4-.3.8 0 1.7-.2 2.5.2 1.5.5 2.5 1.8 3.2 3.2 1 2.4 1 5 .7 7.6-.5 2.9-1.4 5.7-2.5 8.5-.8 1.9-1.6 3.8-2.1 5.8a35 35 0 00-.7 9.8c.3 5.2 1.3 10.3 2 15.4.5 2.8.8 5.6.8 8.4 0 2.9-.3 5.8-1 8.6-.6 2.3-1.6 4.6-3.1 6.5-1.6 2.1-4 3.6-6.5 4.5-1.4.5-2.7 1.3-3.8 2.3-1.6 1.4-2.7 3.3-4.1 4.9a16.7 16.7 0 01-5.3 3.8c-1.2.5-2.4.8-3.6.9h-1.2a8.5 8.5 0 01-3.5-1 3.8 3.8 0 01-1.8-2.2l-1.1-4.3a16 16 0 00-6 1.6c-2.3 1-4.6 2.3-7 3a19 19 0 01-5.3 1c-1 0-2-.2-3-.6-1.1-.4-2-1.2-2.5-2.3-.3-.6-.3-1.3-.3-2l.5-9.4v-.5c-.5 1-.7 2.1-.7 3.2h-.5a9 9 0 00-.9-3.7l.6 11c0 1-.6 2.1-1.4 2.9a6.6 6.6 0 01-4.3 1.3 20 20 0 01-6.9-1.4l-6-2.7c-1.8-.7-3.7-1.3-5.6-1.4l-1 4.2a4 4 0 01-1.8 2.2c-1 .7-2.3 1-3.6 1h-1.2a11 11 0 01-3.3-.7c-2-1-4-2.3-5.5-4-1.2-1.2-2.2-2.8-3.4-4a11 11 0 00-3.5-2.6l-2.4-1c-2-.9-3.7-2.2-5-3.8a16.5 16.5 0 01-2.9-5.4 34 34 0 01-1.3-10c0-4.5.8-9 1.5-13.5.9-5.2 1.6-10.4 1.2-15.7-.1-2.1-.5-4.3-1.2-6.3-.7-2.1-1.7-4.1-2.5-6.2-.9-2.6-1.5-5.3-1.7-8.1v-1.5c0-1.7.5-3.5 1.4-5a6 6 0 012.8-2.4c.7-.3 1.5 0 2.3 0l4.4.2a17.7 17.7 0 00-4.1-13 37.5 37.5 0 01-3.7-5.2 9 9 0 01-1.5-5.2 5 5 0 012.8-4.4l1.4-.8 5.3-3.2c-1.4-1-2.5-2.4-2.5-4.1 0-1 .6-2 1.4-2.5.7-.5 1.4-.6 2.1-.9l11-3.5a7 7 0 014.4 1.2c2.6 1.7 4.6 4.1 7 6.2l-9-16.8c-.3-.5-.6-.9-.7-1.4.4.2.7.6 1 .9l16.7 15.4L75.8 34v-.5l3 3.9 8 9.9c0-4.5-.2-9-.3-13.4v-1.8c.4.4.6.9.9 1.3l7.2 13 1.8-6.7c0-1 0-2-.4-2.9-.6-1.4-2-2.3-2.9-3.5a3 3 0 01-.6-2.7c.1-.6.6-1 1.2-1.2.5-.2 1 0 1.6.3-.4-.7-1.2-1.2-1.7-1.8-.5-.8-.8-1.8-.4-2.7a2 2 0 012-1.3c.6 0 1.2.3 1.7.7 0-1 .2-1.9.7-2.7.4-.7 1-1.2 1.9-1.3M86.8 32.7v1.4c0 2.9 0 5.8.2 8.8v4.7l2.1 2.7 3 3.9.4.3 1.4-5 .6-2.4c.1-.3-.1-.6-.3-.8l-2-3.6-.2-.4-.6-1-2.2-4c-.8-1.6-1.5-3.1-2.4-4.6m25.7.6c-1.5 2-2.5 4.3-3.7 6.5l-2.4 4.5c-.5.6-.7 1.2-1.1 1.8-.1.2-.3.5-.2.8l2 7.7.4-.6 3.1-4 1.7-2 .1-.6.3-14.5-.2.4M60.5 51l-.4.1-1 .3-5.3 1.7-.7.3.4.1c-.5-.1-1 0-1.5.2-.4 0-.7.2-.9.4l-.7.1-.4.1h.5v.1c2.6.2 4.7 1.8 6.5 3.4 2 1.7 3.7 3.6 5.6 5.2 2.4 2.1 5 4 8 5.6.4.2 1 0 1.6.1h4.7l-.1-1.2-1.1-2.6c-.5 0-.8-.4-1-.8-.2-.4-.1-.9-.1-1.3-.3-.6-.5-1.1-.9-1.6-.1-.5-.4-.9-.6-1.3-.3-.5-.5-1-1-1.4-2-1.8-3.8-3.8-5.9-5.5-1.1-.9-2.3-1.6-3.7-2-.7-.1-1.4-.3-2 0m76.8 0c-1.7.4-3.1 1.4-4.4 2.5-2 1.7-3.7 3.6-5.7 5.3-.3.3-.5.8-.7 1.2-.3.5-.6.9-.7 1.3L125 63c0 .5.1 1-.2 1.4-.1.4-.5.6-.9.7l-1 2.5c-.3.4-.2.9-.2 1.3h6.2a15.3 15.3 0 001.5-.8c3.3-1.8 6.2-4.3 8.9-6.8 1.7-1.6 3.3-3.3 5.2-4.7 1-.8 2.3-1.5 3.6-1.8l1.7-.3-.8-.2-1-.3-.5-.2-6.9-2.2-.7-.2-.8-.3c-.6-.2-1.2 0-1.8 0m-88 3.8H49a2 2 0 00-1 .3 4 4 0 00-1.4 1.5 4 4 0 00.3 3c.7 1.1 1.8 2 3 2.6A26 26 0 0154 64c1 .6 1.9 1.4 2.2 2.5.3.8.2 1.7-.1 2.5l.6-.3 1-.5.7-.5 1.4-.7 4.4-2.4-2-1.6-2.7-2.6-1-1a30.1 30.1 0 00-4-3.2 7.9 7.9 0 00-5.2-1.5m99.7 0c-2.5.3-4.5 2-6.3 3.6-.6.5-1 1.1-1.7 1.6a73.8 73.8 0 01-5.2 4.7l5.8 3.2.8.4.8.4v.1l.7.3c-.6-1.1-.4-2.6.4-3.6 1-1.2 2.4-2 3.8-2.6 1-.5 2-.8 2.9-1.4 1-.7 2-1.8 2.2-3a3 3 0 00-1.7-3.5c-.8-.2-1.6-.3-2.5-.2m-55 3.8h-.1l-3.8.2a70 70 0 00-13.5 2.8c-.6.4-1.3.7-1.6 1.4-.3.6 0 1.4.5 1.7.3-.7 1-1.2 1.6-1.5 1.1-.5 2.4-.9 3.6-1.2a74.3 74.3 0 015.7-.7c-1.7.2-3.4.4-5 .8H81a16 16 0 00-3.5 1c-.7.4-1.5.7-1.9 1.4l1.3 3c.6-.9 1.7-1.3 2.8-1.7a68.4 68.4 0 0115.8-2c1.5 0 3-.2 4.5-.1h3a94.2 94.2 0 017.4.4l4.2.5c2 .4 4 .7 5.9 1.5.8.3 1.5.8 2 1.5l1.2-3c0-.4-.5-.7-.8-1-1.3-.7-2.9-1-4.4-1.4a82.5 82.5 0 00-16.1-1.6h-8.8l-1 .1v-.3h1.2c6.4-.2 12.9-.1 19.2.6 2.6.4 5.2.8 7.7 1.5 1 .3 2 .7 2.8 1.3.3.2.4.6.6.9.3-.3.6-.6.6-1 0-.7-.4-1.2-.9-1.6-1.2-.8-2.6-1.2-4-1.6a68.9 68.9 0 00-12.6-1.9c-3.9-.2-7.8-.3-11.7-.1l-1.6.1M48.8 62l-3.4 2-.6.4c-.2 0-.4.3-.5.4l-1 .5a7.8 7.8 0 016.1 2.4c1 .7 2 1.5 3.3 2 .8.2 1.7.2 2.5-.2l.4-.3.3-.6c.5-1.3-.2-2.8-1.3-3.7-1.6-1.3-3.7-2-5.5-3l-.3.1m101.8 0l-3 1.4a9.6 9.6 0 00-3.2 2.3c-.6.8-.8 2-.5 3l.3.4.4.5c1 .4 2.3.3 3.2-.3h.1l.2-.2c.8-.4 1.6-1 2.2-1.5 1-1 2.3-1.7 3.7-2.1a9 9 0 012.4-.2l-.9-.5c-.2-.1-.3-.3-.5-.3l-.7-.5-3.3-2h-.4M87 64.5c-2.5.4-5 .8-7.4 1.6-.8.3-1.7.7-2.2 1.3-.4.4-.4 1-.2 1.4.3 0 .7.1 1-.1 1-.8 2.4-1.1 3.6-1.4a116.5 116.5 0 0115.5-1.4h7l7 .4c2.5.3 5 .6 7.5 1.2 1 .3 2 .6 2.7 1.3h1c0-.4 0-.9-.2-1.2-.5-.8-1.3-1.1-2.1-1.4-2.3-.9-4.7-1.3-7-1.6-2-.2-4.2-.5-6.2-.5h-.2.1c-6.6-.3-13.3-.3-20 .4m42.7 4.3h11.6v11.6c.9-2 2.4-3.5 3.6-5.3a30 30 0 003-5.4c-1 .4-2.3.6-3.4.1l-9-4.9a38.6 38.6 0 01-5.8 3.9m-74.3 1c-1 .5-2.3.4-3.3-.1 1 2.7 2.8 5.1 4.5 7.5.9 1.1 1.6 2.2 2.2 3.5V68.8h11.5a43 43 0 01-5.9-3.9l-9 5m-12.2-4.3c-.4 0-.7.1-1 .3a4.8 4.8 0 00-2.6 3.7c-.2 1.5.2 3 .9 4.5.7 1.6 1.8 3.2 3 4.6l2.4 3.3a17.9 17.9 0 013 11.6h2.8c1.2.3 2.5.2 3.7.4.5.1 1 .5 1.2 1a3 3 0 01-.8 3.5c-.7.7-1.6 1.2-1.9 2.2-.3.7-.1 1.4.3 2l.3.2.8.3 1.5-.1a4 4 0 001.7-1.2c.6-.5.3-1.2.3-1.8V81.3a19 19 0 00-2.5-4 37.8 37.8 0 01-4.6-7.8l-1.2-.7-1-.8-.8-.7a7.6 7.6 0 00-5.5-1.7m108 1.7v.1c-.4.1-.5.4-.8.6l-1.1.9-1 .6c-.5 1.3-1.2 2.5-1.9 3.7l-.2.4h-.1v.2l-1 1.3c-1.2 2-2.9 3.8-3.8 6v16.8a54.7 54.7 0 000 3.8c.4.6 1 1 1.8 1.3a3 3 0 002.4-.1l.4-.5c.4-.6.3-1.5 0-2.1-.6-1-1.8-1.5-2.3-2.5a3 3 0 01-.4-2.5 2 2 0 011.5-1.4c1.2 0 2.4 0 3.7-.2a12.7 12.7 0 001.8-.1h.9a21 21 0 01.6-6.4c.5-1.9 1.3-3.6 2.4-5.2l2-2.8a29 29 0 003.2-4.8c.7-1.4 1.2-3 1-4.7a4.8 4.8 0 00-2.7-3.9 3 3 0 00-.8-.1v-.1h-.7c-1.8-.1-3.5.6-4.9 1.7M84.3 67c-1.7.3-3.3.6-4.9 1.3-.3.1-.6.2-.8.5H121c-.1-.1-.2-.3-.4-.3-.8-.5-1.8-.8-2.8-1-3.6-.8-7.3-1-11-1.2-1.5-.2-3 0-4.5-.2h-7.7c-3.4.2-6.9.4-10.3 1m-25 2.2v54.1l.7-.9L96 80c.2-.1.2-.3.2-.5L90.7 76c.8-.2 1.5 0 2.3-.2l4.7-.3 2-6.1H59.2m41 0v.6l2 5.5 2.2.2c1 .1 1.9 0 2.8.2h1.8v.2l-5.3 3.6.2.3 27.2 32.2 9.5 11.2v-2.7c.2-.6 0-1.2 0-1.8 0-.5.2-1 0-1.6v-1.8c0-.7.2-1.3 0-2 .2-1 0-2 0-3v-11c.1-1 0-2.2 0-3.2v-2c.2-.6 0-1.2 0-1.8l.1-1.8V69.3H100m-.3.8l-2 5.6-6.3.4 1.6 1 3.6 2.4-30 35.4L60 123l1.6-1.6 24-24.7h.1l.3-.3a25972.9 25972.9 0 0114.2-14.3l6.9 7c.9 1 1.7 2 2.7 2.8l27.7 28.4 1.9 2 1.4 1.4-1.5-1.6a1 1 0 00-.2-.3l-15.7-18.6-16.7-20-.3-.2-.7-1-1.8-2.2a.9.9 0 01-.3-.4l4-2.7.5-.5.4-.2-1.9-.2-4.6-.3-1-3c-.2-1-.6-1.7-.9-2.6.1-.4-.5-.2-.2.1M99 89.8a3 3 0 001 2.8 4 4 0 00.9-1.9c0-1-.4-2-1-2.8-.3.6-.7 1.2-.9 1.9m-1.7.7c-.1 1 0 2 .7 2.8.5.6 1.2.8 1.8 1 0-.9-.1-1.8-.7-2.6-.4-.6-1.1-1-1.8-1.2m3.7 1l-.2.1c-.6.8-.7 1.8-.8 2.7.7-.3 1.5-.5 2-1.1.6-.8.7-1.7.6-2.7-.6.2-1.3.4-1.6 1m-1.2 1.2l.1.7.2-.8h-.3m-57.6.9a4 4 0 00-1.2.6 6 6 0 00-2 2c-1 1.8-1.2 4-1.1 6 0 2.6.8 5.3 1.6 7.8.8 2.4 2 4.6 2.7 7 0 .2.1.5.3.7l.2 1.3c.7 2.9.7 5.9.7 8.8a64 64 0 01-.6 6.4c-.3 1.9-.7 3.7-.8 5.6-.4 1.5-.5 3-.8 4.6-.2 1.7-.5 3.3-.5 5l-.1 3c0 3.5.3 7.1 1.6 10.4a15 15 0 005 6.9l1.2.7.1.1h.1c.9.6 1.9.8 2.8 1.2.4.2.8.5 1.3.6v.1h.2l1.4 1c1.9 1.5 3 3.6 4.6 5.3 1.4 1.5 3 2.7 4.8 3.6a9.7 9.7 0 007 .8c1-.3 2-.9 2.7-1.7.2-.4.5-.7.5-1 0-.5.2-.9.3-1.3l.8-3c.2-1.1.5-2 .6-3.1l.4-1 .1-.8.2-.6-1 .9c-1 .6-2 .9-3.2.8a7.6 7.6 0 01-5.4-2.7c-1.3-1.6-2.2-3.5-3.7-4.9-1-1-2.3-1.7-3.7-2.2a10 10 0 01-3.5-1.9c-1-.8-1.6-2-2-3.2-.6-1.9-.7-3.9-.8-5.8-.2-4.5.4-9 1.1-13.3.8-5 1.7-9.8 1.6-14.8v-2.8a30 30 0 00-1.4-7c-.7-2.4-2-4.5-2.7-6.8-1-2.3-1.6-4.9-1.3-7.4.2-1.7.6-3.4 1.8-4.6l1.2-.7-2.6-.2-6-.3h-1c-.5-.2-1-.2-1.5-.1m55 0c0 .8.1 1.8.7 2.6.5.6 1.3.8 2 1.1a5 5 0 00-.8-2.6c-.4-.6-1.1-1-1.8-1.2m58.8.1l-2.2.2h-2.3l-2.6.2-2.5.2c.5.3 1 .6 1.3 1a8 8 0 011.7 4.3c.3 2.8-.5 5.6-1.6 8.1-.6 1.7-1.5 3.2-2 4.9a32.8 32.8 0 00-1.7 14.5l.1 2.1.4 3c-.1.2 0 .7.1.7 0 .8.2 1.5.3 2.2 1 6 2 12 1.5 18.2 0 1.4-.3 2.9-.7 4.3l-.7 1.7a8.1 8.1 0 01-4.4 3.2c-.7.3-1.3.4-1.9.8h-.2v.2c-.1 0-.3 0-.4.2a10 10 0 00-2.4 2c-1.2 1.5-2 3.3-3.4 4.6a7.7 7.7 0 01-5 2.1c-1.5 0-3-.5-4-1.6 0 .2 0 .4.2.6l.1.8.1.3v.4l1.3 4.9.5 2 .2.8c.4 1.2 1.5 2 2.6 2.4 2.3.8 4.9.6 7-.4a16.3 16.3 0 007-6 18 18 0 014-3.8c1-.6 2-1 3.1-1.5 2-.8 4-2.1 5.4-3.9 1.5-1.8 2.5-4 3.2-6.3a46.6 46.6 0 00.3-16.6c-.1-1.6-.4-3-.7-4.6a65 65 0 01-1.2-18.7l.7-3.5c.2-.2.2-.5.3-.7l1.5-4c1.1-2.6 2-5.5 2.5-8.4.4-2.5.5-5.2-.6-7.6a5.8 5.8 0 00-3.4-3.3H156m-54.8.6c-1 .7-1.2 2-1.3 3.1.7-.3 1.5-.5 2-1 .6-.8.7-1.8.6-2.8a3 3 0 00-1.3.7m-48 .3c-.4.2-.9.5-1.2.9a8 8 0 00-1.6 4.3c0 1 0 2 .2 2.9h.6l1 .2 1 .1.7.2c-.6-.7-.7-1.7-.4-2.6.4-.9 1.2-1.4 2-2 .8-.9 1.2-2.3.6-3.5-.3-.5-.9-.7-1.5-.7h.1a7 7 0 00-.5 0v.3l-.1-.2h-.9m45.7 0c.5.5.8 1.2 1 2 0-.8.4-1.4.8-2-.4 0-.6.2-.9.4a2 2 0 00-.9-.5m45.3 0l-.6.6-.2.2-.1.4a3 3 0 001 3.1c.7.6 1.5 1.2 1.8 2 .3.9.1 1.8-.4 2.5l.7-.2h.7l1.1-.2v-.1h.8a11 11 0 00-.4-5.4 4.4 4.4 0 00-2.3-2.7c-.4-.2-1 0-1.5-.2h-.6m-47 2.1c-.1 1 0 2.1.8 2.8.4.6 1.1.7 1.7 1 0-.9-.1-1.8-.7-2.6-.4-.6-1.1-1-1.8-1.2m3.8.8c-.3 0-.6 0-.8.2l-.4.2c-.3-.2-.5-.4-.9-.4.5.6.8 1.3 1 2 0-.4.1-.9.4-1.3 0-.2.2-.6.6-.6-.7.8-1 1.9-1 3 .7-.4 1.5-.6 2-1.2.6-.7.7-1.8.6-2.7-.5.2-1 .4-1.5.8M88 97c0 .8 0 1.7.4 2.5a3 3 0 002 1.3c.1-.7 0-1.5-.3-2.2-.5-.8-1.3-1.2-2.1-1.6m21.9 1.4a3 3 0 00-.4 2.5 4 4 0 002-1.4c.4-.8.4-1.7.4-2.5-.8.3-1.5.8-2 1.4m-19.3 1.2c-.1 1 .2 2 .7 2.8.4-.6.9-1 1-1.7.3-1-.1-2-.7-2.9-.5.5-1 1.1-1 1.8m17.6-1.8c-.5.8-1 1.9-.7 2.9.1.6.7 1.1 1 1.7.6-1 1-2 .7-3.1a3 3 0 00-1-1.5M98 102c.5.5 1.2.7 1.8 1 0-.9-.1-1.7-.6-2.5a3.3 3.3 0 00-2-1.3c0 1 .1 2 .8 2.8m3.1-2c-.9.7-1 2-1 3 .6-.3 1.4-.5 1.8-1.1.7-.8.8-1.8.7-2.7-.5.1-1 .4-1.5.8m-2 0c.4.6.7 1.3.8 2 .1-.7.5-1.4.8-2-.3 0-.5.3-.8.4-.3-.2-.5-.4-.9-.4m-7 2c0 1 .1 1.9.5 2.7.4-.6 1-1 1.2-1.7.4-1 0-2-.4-2.8-.7.4-1.1 1-1.2 1.8m14-.4c-.3.9 0 1.9.8 2.5 0 .2.4.4.2.6.2 0 .4-.2.4-.4.3-1 .5-2.1 0-3-.2-.4-.5-.9-1-1l-.5 1.3m-19-1.2c.4 1 1 1.7 2 2 .7.3 1.4.1 2.1.1a4.4 4.4 0 00-2-2c-.6-.3-1.4-.2-2 0m22.4 1h-.1v.1c-.3.3-.7.6-.6 1l2-.1c1-.3 1.6-1.2 2-2a3 3 0 00-3.3 1M90 101l.5.5v-.5H90m19.2 0l-.2.6.5-.6h-.3m-1.3.9c0 .7 0 1.5-.3 2.2l1.1-1c.2-.1.5-.2.6-.4h-1c0-.3-.3-.6-.4-.8m-52.8 1.5l-4.5-.7c.4 2.5 1.3 4.8 2.4 7 1 2 1.7 4 2.1 6.2.6 2.7.8 5.4.8 8.1 0 2.6-.3 5.2-.6 7.7l-1.8 12c-.5 4-.5 8 .1 12 .3 1.5.8 3 1.8 4.1 1 1.1 2.4 1.8 3.8 2.3a11 11 0 014.4 2.8c1.4 1.5 2.2 3.4 3.7 5 0 0 .2.2.2 0l.5-3.4c.2-1 .9-2 1.8-2.7a7.9 7.9 0 014-1.3c2-.1 3.8 0 5.6.6 2.2.6 4.3 1.7 6.3 2.8 2 1 4 2 6.2 2.5.3-1.2.3-2.3.6-3.4a4.7 4.7 0 014.8-.6 8.7 8.7 0 00-4.7-2.6c-1.2-.2-2.5-.1-3.8-.1H68a9 9 0 01-9.2-8.6V102a4 4 0 01-3.5 1.4m36.2-.7h-1l1 .7.7.8c-.2-.7-.3-1.5-.2-2.2-.3.2-.4.4-.5.7m6.4 2c.5.6 1.3 1 2 1.2a5 5 0 00-.6-2.5c-.4-.7-1.2-1-2-1.3 0 .9.1 1.8.6 2.6m3.3-1.8c-.3 0-.6 0-.8.2l-.4.2c-.3-.2-.5-.4-.9-.4.5.6.8 1.3 1 2 0-.5.2-1 .5-1.6.1-.1.2-.4.4-.3-.7.8-.9 1.9-.9 2.9.7-.3 1.5-.5 2-1.1.6-.7.7-1.8.6-2.7-.5.1-1 .3-1.5.8m40-.7v50.1a9 9 0 01-6.9 9c-1.2.5-2.6.3-4 .4h-21.6c-2.2 0-4.4.9-6 2.5 1.6-.5 3.4-.3 4.6.8l.5 3.4c2.7-.6 5.2-2 7.6-3.2a20 20 0 017.8-2.6c2-.2 4.1-.2 6 .7 1.3.7 2.3 1.9 2.5 3.3l.5 3.4c.2 0 .4-.3.5-.5.8-.8 1.4-1.9 2.1-2.9a11 11 0 014-3.7c1.2-.7 2.5-1 3.7-1.6 1-.6 1.8-1.3 2.4-2.2 1.1-1.7 1.3-3.8 1.5-5.8.3-3.1.2-6.3-.2-9.4-.5-5.3-1.7-10.7-2.2-16a43 43 0 01.2-9.5c.3-2.8 1.1-5.5 2.3-8 1.1-2.5 2.2-5 2.7-7.7l-4.7.8a4 4 0 01-3.2-1.3m-52.6.6h.1-.5c.5 1.3 1.7 2.3 3 2.2.1.2.4.3.6.4.6.3 1 .8 1.4 1.3-.2-.8-.2-1.7 0-2.5-.3.3-.6.5-.6.9-.5-.2-1 .1-1.4-.1l1.1-.2c-.5-.7-1-1.5-1.9-1.8a3 3 0 00-1.8-.2m20 .7l-.3.4a3 3 0 00-.8 1c.7 0 1.3.2 1.9 0 1-.2 1.8-1.1 2.3-2-1-.3-2.3-.2-3 .6m-15.4 1c-.3 1 0 2 .3 2.8.4-.5 1-1 1.3-1.6.4-1 0-2-.4-2.9-.6.5-1 1-1.2 1.8m12-1.7c-.4.8-.7 1.8-.4 2.7.2.7.8 1.2 1.3 1.7a6 6 0 00.5-2.3 3 3 0 00-1.4-2.1m1.4 1.3v2.4l.7-.7 1.1-.8-.6-.1h-.6l-.2-.3c0-.2-.2-.3-.4-.5m-23 1.3c-1.2.5-2.4 1.1-3.4 2-.7.3-1.3.9-2 1.4a19 19 0 00-4 4.9 18.1 18.1 0 00-2.8 8c-.1 2 0 4 1 6 0-1.1.2-2.2.4-3.2a22 22 0 013.4-7c.1 0 .2-.3.5-.3l1.5.3 2-3c.2-.3 0-.3-.2-.4-.2-.5-.7-1-.6-1.5a28.7 28.7 0 016-7l1.3-1c-1.1.1-2.1.4-3 .8m13.5-.6c0 .7 0 1.4.3 2 .3 1 1.3 1.5 2.2 1.5a3.2 3.2 0 00-2.5-3.4m3.4 1.2c-.5.6-.7 1.4-.6 2.2a3 3 0 001.9-1c.6-.6.6-1.6.6-2.5-.8.2-1.5.6-2 1.3m-11.3-.9c.4.8 1 1.6 1.8 2a4 4 0 002.3 0l-.5-.6a3.2 3.2 0 00-3.6-1.4m19 .2c-.6.3-1.1.8-1.5 1.3l-.3.6c.6 0 1.3.2 2 0 1-.3 1.7-1.2 2-2.1-.7-.1-1.6-.3-2.2.2m-13.5.9c-.8 1-.7 2.4-.3 3.5.6-.5 1.3-1 1.5-1.7.2-.9.1-1.8-.3-2.6-.4.1-.6.5-.9.8m9.3-.8c-.4.9-.6 2-.1 2.9.2.6.8 1 1.3 1.4.3-1 .5-2 0-3a3 3 0 00-1.2-1.3m-5 .2c.4.6.7 1.2.8 2 .1-.8.5-1.4.7-2a2 2 0 00-.6.4l-.9-.4m14.2.5c.4.8 1 1.5 1.5 2.3l8.3 12 1.5 2.3c.3.4.8.6 1.2.3l3.4-2.3c.3-.2.5-.6.2-1l-1-1.5-5.8-8.2c-.2-.3-.5-.4-.8-.6a16.4 16.4 0 00-6-2.8c-.7-.3-1.6-.5-2.5-.5m-7.7.6c.2.8.2 1.6 0 2.4l.6-.6a3 3 0 011.3-1l-.7-.2-.6.1a2 2 0 00-.6-.7m-12 .7h-1.2l.9.7.8 1 .1-2.4-.6.7m13.2.8c-.6.4-1 1-1.2 1.6.6 0 1.3.1 2-.1 1-.4 1.6-1.3 1.9-2.3-1-.1-2 0-2.7.8m-16.4-.8c.3 1 1 2 2 2.3.6.2 1.2.1 1.9.1-.5-.9-1-1.7-2-2.2-.6-.3-1.3-.3-2-.2m5 2.3a5 5 0 000 2.7c.6-.5 1.2-.8 1.5-1.5.5-.9.3-2 0-2.8a3 3 0 00-1.5 1.6m7.8-1.6c-.3.9-.5 1.9 0 2.8.2.6.8 1 1.3 1.5.3-.7.4-1.5.3-2.3a3 3 0 00-1.6-2m-3.7 17.4c0 .1 0 .3.2.4l.4.3c.2 0 .5 0 .4-.3v-17.5h-1v17m-4.9-15.3a2 2 0 00-1.2 0c.8.3 1.2 1 1.7 1.6 0-.8 0-1.6.2-2.3-.3.1-.5.4-.7.7m10.1-.7c.3.8.3 1.6.2 2.4.4-.7 1-1.3 1.7-1.8h-1.2a2 2 0 00-.7-.6m2 .8c-1 .5-1.5 1.4-2 2.3.7 0 1.4 0 2-.3 1-.4 1.6-1.3 1.9-2.3-.7 0-1.4 0-2 .3m-15.1-.3c.2 1 .9 2 2 2.4.5.2 1.1.1 1.7.2-.3-.8-.8-1.6-1.5-2.1s-1.5-.5-2.2-.5m4.8 2.4c-.2.3-.1.7-.4 1l.2-1.2c-.3 0-.4.4-.6.6h-1a5 5 0 011.4 1.9v-.6c.2.2.2.5.3.8.7-.3 1.3-.7 1.6-1.4.4-.9.2-1.8-.1-2.6a4 4 0 00-1.4 1.5m6 1.2c.3.6 1 1 1.5 1.3a3 3 0 000-2.3c-.2-.7-.8-1.3-1.4-1.7-.4.9-.5 1.8-.1 2.7m-27.6-2l-.9 1.5c-.2.2-.4.4-.4.7 0 .3.1.4.3.6l.6-1c.3-.7.8-1.3 1.2-2-.3 0-.7 0-.8.3m49.6.1c.4.8 1 1.5 1.5 2.2l.4.6c.3.1.4-.3.4-.5-.2-.4-.4-.8-.7-1-.2-.5-.6-.8-.8-1.2l-.4-.2-.4.1m-28.2.4c.1 0 .1 0 0 0m7.8 0c.2.7.3 1.5.3 2.4a5 5 0 011.4-1.9l-1 .1a2 2 0 00-.7-.7m-11.5.4c.2.7.5 1.5 1 2 .7.5 1.6.7 2.5.5a4 4 0 00-1-1.7c-.7-.6-1.6-.9-2.5-.8m13.3.4c-.8.5-1.2 1.3-1.5 2 .8.3 1.8.1 2.4-.4.6-.6.9-1.3 1-2-.7 0-1.4 0-2 .4M79 117l-.3.6 37.2 22.9 1 .5c.5 0 .9-.3 1.2-.7.4-.5.9-1.2.8-1.9l-2.3-1.5-36-22.2L79 117m16.5-1.8l.6 3.7c0 .4 0 .8.2 1.2v.1c0 1.3.3 2.7.4 4l1 .6-1.2-9.9c-.3.1-.6.3-1 .3m7.9-.3c-.6 3.4-1 6.8-1.3 10.2l.4-.2.4-.2c.2-.1.3-.3.3-.5.2-3 .6-6 1-9l-.8-.3m-3 11.6l1 .6c.4.3.8.6 1.2.7l.6.4.4.3 1.6-1 8.8-5.4c2.3-1.4 4.7-2.7 7-4.2l-1.2-1.6v-.1l-.8-1.1-18.6 11.4m-4 2.4l-14.7 9c-.3.2-.2.7-.1 1 .3.7.8 1.5 1.5 1.8.4.2.7-.1 1-.3l15.7-9.5c-.8-.7-1.8-1.2-2.7-1.8-.2-.1-.4-.4-.7-.2m3 2.5v24c.4 0 .7.1 1-.1v-24c-.2-.5-.7 0-1 0M102 142c.1 3.1.3 6.3.7 9.4v-.2.2l.2 1.5c.3 0 .7 0 1-.2-.8-6.5-1.2-13.1-1-19.7 0-.2-.3-.3-.5-.4l-.5-.3.1 9.7m-5-9c0 3.2 0 6.3-.2 9.5a117 117 0 01-.9 10.2c.3.2.7.3 1 .1a142 142 0 001-20.3l-.9.6m-37.8 9.5v8.3c0 1.3-.1 2.7.3 4 .8 3 3.3 5.5 6.4 6.2 1 .2 2 .2 3 .2h23.5a9 9 0 017.5 6.7l.8-2a9 9 0 015.8-4.4c1.4-.4 3-.3 4.5-.3h20.9a8.5 8.5 0 008.7-8.4v-10.3h-37.3l.1 2c.1 2.7.5 5.4.8 8.1-.1.4-.6.4-1 .5-.1-.1-.6 0-.6-.4-.4-3.4-.7-6.8-.8-10.2h-1.1v12.9c0 .2-.4.3-.6.4-.3 0-.8 0-1-.3v-2.3c0-3.6.1-7.1 0-10.7h-1l-.1 2-.8 8.4c-.3 0-.6.3-1 .1-.2 0-.6-.2-.5-.6l.9-9.9H59.2M72.6 163c-1.5.3-2.9 1-3.7 2.3-.5.8-.8 2-.2 2.8.6.7 1.5 1 2.3.7.7-.2 1.2-.6 1.5-1.2.6-.7 1.5-1.4 2.6-1.4a2 2 0 011.7 1.1 3 3 0 010 2.3L76 173a55.3 55.3 0 01-.7 2.8 22 22 0 018.3 2.7 28 28 0 007.7 2.6c1.4.3 2.8.4 4.2 0 1.2-.2 2.3-.8 3-1.8.3-.5.5-1 .5-1.6v-2.5l-.2-3.2-.1-2-.1-2.4-.4.4c-1 .8-2.3 1-3.5 1-2.5-.1-4.8-.9-7-1.9-2.5-1-4.8-2.5-7.3-3.4-2.5-.9-5.2-1.2-7.8-.7m47.7.4c-1.9.5-3.7 1.4-5.5 2.4h-.2v.1a26.5 26.5 0 01-7 2.7 8 8 0 01-3.5.4c-1-.1-2.2-.5-2.9-1.4a16.1 16.1 0 00-.1 2.4 134.2 134.2 0 00-.4 6.1c0 .8-.1 1.5.1 2.2.2.7.7 1.4 1.4 2a7 7 0 004.3 1 14 14 0 004.1-.6 47 47 0 007-2.9c2.1-1 4.4-1.9 6.8-2 0-.2 0-.5-.2-.8l-.2-.9c0-.4-.2-.7-.3-1l-1-4c-.2-1 .1-2.1 1-2.7.5-.3 1.1-.2 1.6-.1.8.2 1.4.7 1.9 1.3.4.6 1 1 1.6 1.2.8.2 1.7 0 2.2-.7l.3-.4v-.9a4 4 0 00-1.8-2.9 8 8 0 00-3.8-1.1c-1.8-.1-3.6 0-5.4.6m-18.5 1.8c-.3.4-.6.8-.6 1.4l.2.7.2.4c.5.4 1 .7 1.7.9 1.3.3 2.7.1 4-.1v-.7l-.1-1v-.8a7 7 0 01-.4-.2h.2v-.6c-.8-.7-2-1-3-1-.8 0-1.7.3-2.2 1m-9 0l-.1.7-.1 1-.2 1v.5a9 9 0 003.3.3c.7 0 1.5-.3 2-.7.3-.2.6-.5.7-.8v-.2c.1-.4.2-1 0-1.3-.6-1-1.8-1.5-2.9-1.5-1 0-2 .3-2.7 1M123 169c.1.4.2.9.5 1.2a5.2 5.2 0 005.5 1.5l.9-.3c.6-.3 1.3-.6 1.8-1v-1l-.2-1v-.5c-.4.4-.6.8-1 1-1.2.6-2.7.1-3.5-1-.6-.7-1.4-1.5-2.5-1.4-1.2 0-2 1.4-1.5 2.5m-49.4-2.1l-1.1 1.1a3 3 0 01-3.4.9c-.4-.2-.7-.6-1-1v.3l-.2 1.2v1c.6.5 1.5 1 2.3 1.2 1 .3 2.2.5 3.3.2 1-.2 1.9-.8 2.5-1.5l.4-.6.2-.8c.3-1-.2-2-1-2.3-.7-.3-1.4 0-2 .3z"/><path d="M80.3 48l.2-.1.3 2c-.3-.6-.3-1.3-.5-2zm.4 1.8l.2.7.9 5-.1.2c0-.6-.2-1.1-.3-1.6l-.7-4.3zm37.8 2.5v.9l-.2.4-.1.6v-.7l.3-1.2zm-22.7 61.2c.2.1.1.5 0 .7v-.7z"/><g fill="#fbb911"><path d="M98.7 21c1.1-.6 2.6 0 3.2 1.1 0 .6.4 1.2.3 1.8a8 8 0 01-.5-1.1l-.1.4c-.4-.7-.8-1.3-1.5-1.6l1.1.2c-.2-.3-.4-.6-.8-.7-.6-.3-1.1-.1-1.7 0zm1.1 1.8c.3 1.4.1 2.8.3 4.2v1.4c0-.3 0-.7-.3-1l-.5 2c-.3-.7-.5-1.3-.9-1.8-.4-.9-.8-1.7-1-2.7l.3.4c.1-.5 0-1.2.4-1.7v2l1.2 3c.2-.8.2-1.6.3-2.5 0-.4-.2-.8-.3-1.1h.3c.2-.7 0-1.5.2-2.2zm-4.1 3.8c.6.4 1 1 1.5 1.6a20 20 0 011.7 2.5c-.3.6-.2 1.4-.5 2l-1-2c-.2-.5-.6-1-.7-1.5l1 1.3.8 1.6c0-.5-.1-1-.3-1.4-.5-1-1-2-1.7-2.9l-.8-1.2zm7.3.9l.5-.5-1.7 3c-.3.8-.7 1.6-.7 2.4 0-.4 0-.7-.2-1 0-.3-.3-.5-.3-.7l.2.2.5-.9c.4-1 1-1.8 1.7-2.5zm.4 5.7c.4-.4.7-.9 1.3-1.1-.4.5-.9 1-1.2 1.6l-1 2a7 7 0 000 2.5c-.4-.4-.2-1-.3-1.6 0-.4-.2-.7-.3-1h.2c.2-1 .8-1.7 1.3-2.4zm-16.6-.5c.9 1.5 1.6 3 2.4 4.6l2.2 4 .6 1c-.2 0-.3-.2-.4-.4a81 81 0 01-4.5-8v2.8l.2 1.8v6.6c-.4-.6 0-1.5-.3-2.2l-.2-8.8v-1.4zm13.1 1.6l.4.8 2.3 9.2c.1.5.4 1 .2 1.6l-3-11.6zm22.2 2.5c.2-.6.7-1 1-1.5 0 .7-.2 1.3-.3 1.9l-1 5.3v.8l-2.3 11.5c0 .6-.3 1.2-.3 1.9l.7-.6 14-13c1-.7 1.7-1.6 2.7-2.3l-2.3 4.2c-.2.4-.4.9-.8 1.2L118 59.7c-.2 0-.4 0-.6-.2v-.6l.1-.6a5 5 0 00.4-2c0-.7.1-1.2.3-1.8l.1-.1v-.8l.1-.4c.4-.3.3-.8.4-1.2 0-.5.2-1 .1-1.4l1.8-10-.2.2c.2-.8.7-1.4.9-2.1l.7-2zm-44.8.7c.8 1 1.3 2.1 2 3.1l.3.5-.3-.3H79c0 .9.3 1.8.4 2.6l1.7 9.8.3.9.3 1.6c0 .2-.1.5.1.7.2 1.1.5 2.2.5 3.3h-.7L69.1 48.9l-.2-.2c-1-.7-1.8-1.6-2.7-2.3-.6-.5-.8-1.2-1.2-1.8l-2-3.7 3.3 3 12.8 11.7 1.3 1.2-1-5c0-.3.1-.6 0-.8l-.5-2.6-.5-3c.2-.7-.1-1.3-.1-2L78 42c0-.8-.3-1.6-.4-2.4-.1-.7-.4-1.4-.3-2.1zm32.2 5.1c.5-1 1.2-2 1.6-3.1v2.2l-.1 3c0 .6-.2 1.2-.1 1.8 0 1.2 0 2.4-.3 3.6l-3 3.9h-.5l-1.2-4.4c0-.3-.2-.7 0-.9.7-.8 1.2-1.7 1.7-2.6l1.9-3.5z"/><path d="M89 44.6c-.2-1.2-.1-2.5-.1-3.8.4 1 1 1.8 1.5 2.8l2.4 4.3c.3.5 1 .9 1 1.5l-1.3 5.1-.3-.3-3-3.9c-.4-1.9-.2-3.8-.2-5.7zm39 7.7c.1-.2.1-.6.4-.8v.1a9 9 0 01-.5 2.3l.2-1.6zm-10.6 3.3c.1-1.2.4-2.4.4-3.5l.1 1.3.3-.6v.7c-.3.5-.3 1.2-.5 1.8-.1.7-.4 1.4-.3 2.2v.5h-.3c0-.9.2-1.6.3-2.4zm10.1-3c0-.2.1-.4.3-.4 0 .8-.3 1.5-.4 2.3a.6.6 0 01-.2-.5l.3-1.4zm-10.3-.1v2.7c-.1 1.4-.4 2.8-.4 4.2h-.4l.8-6.9zm9.5.9c0-.2 0-.6.3-.6.2.4 0 .8 0 1.2l-.4 1.7c-.2-.8 0-1.5.1-2.3zM72.5 53c.2 0 .3 0 .5.2.9.3 1.4 1.3 2.1 1.8l.7.4c1 .5 1.3 1.7 2.4 2 .8.5 1.4 1.2 2 1.9.3.2.4.4.5.7a20 20 0 00-4.2 1.4c-.5-.4-.9-1-1.3-1.5l-.3-.6.9.8c-.3-.5-.8-1-1-1.5h.4c-.3-.3-.7-.7-.8-1.1-.3-.6-.8-1-1.1-1.4v-.4L73 55h-.2l-.5-.6.2-.4-.5.2c0-.2.3-.4.4-.6-.1-.3 0-.5.1-.7zm53.5 2c0-.5-.2-1.2.3-1.6.1.5 0 1-.1 1.4 0 .8-.2 1.5-.3 2.2-.3-.6 0-1.3 0-2zm-38.3-1.5c.5.4.8 1 1.1 1.5-.4-.4-.9-1-1.1-1.5zm26.5 1.5l.1-1.5c.2 1 0 2 0 2.9v2.5h-.5l.4-4zm11.1-.5c0-.3.2-.4.4-.5 0 .8-.2 1.5-.3 2.3 0 .6 0 1.2-.3 1.8v-1.8c.2-.6.2-1.2.2-1.8zm-9.3 2.8c.3-1 .3-2 .5-2.9.2 1 0 1.8 0 2.7-.2.7 0 1.5-.3 2.2l-.8-.1c0-.9.2-1.7.3-2.6 0-.5 0-1 .2-1.5.2.8 0 1.5.2 2.2zm8.6-2.3c0-.2.4-.5.3-.2 0 1.3-.2 2.6-.4 3.9-.2-.7 0-1.5 0-2.2V55zm-24.3 3c-.1-1-.4-2-.4-3l.8 3h-.4zm-1.7-2.7l.7 2.7h-.4l-.3-2.7zm2 .7v-.7c.4.9.6 1.8.8 2.7h-.4l-.4-2zm23.4-.7c.2.2.1.5.2.7l-.2 2-.2 2c-.2-.6 0-1.3 0-2v-2l.2-.7zm-26.2.1l.7 2.6h-.3l-.4-2.6zm25.3 1c0-.2.2-.3.3-.4v2.4c-.2.6 0 1.3-.2 2-.2-.3-.1-.6-.1-.9v-3.1zm-.6.5c0-.2.2-.4.3-.5v.3c0 1.3 0 2.6-.2 4-.2-.5 0-1-.1-1.4v-2.4zm-.5.6c0-.2 0-.6.3-.5v1.3c-.2.8 0 1.7-.2 2.4l-.1-3.2zm-10.8 1v-1.3l.2 1.5h-.1l-3.5-.2.2-.3c1 .3 2.1.3 3.2.3zm10.2-.7c0-.2.1-.2.3-.3v1.8c0 .4 0 .9-.2 1.3l-.1-.5v-2.3zm-.6.2h.3v2.5c-.2-.2-.2-.5-.2-.7 0-.6-.2-1.2 0-1.7zm-.5 1.4c0-.3-.1-.7.2-.9v1.7c-.3-.1-.2-.5-.2-.8zm-.6-.4h.3v1.1h-.2c-.1-.4-.2-.7 0-1zm-.5.6c.2-.3.3.3.2.4-.3 0-.4-.3-.2-.4zm-25.5 1.1c1.1 0 2.2-.2 3.4-.1h5.4c.7.2 1.4 0 2 .2H93.8v-.1zm11.1.1h1.9c3.7.3 7.5.5 11 1.4a8 8 0 012.2.6c.3.2.2.6.2.9a83.4 83.4 0 00-.3.1l-.1.2v.2l-.5-.1-.4.4.5.2c-.2.2-.4.5-.8.4l-3.3-.6c-.5 0-1-.3-1.4-.3-1.1.1-2.2-.2-3.3-.1L109 64l.5-.1-3-.2-2.8-.1.8-.2-1.4-.1-1.7-.1h2.1c.4 0 .8 0 1.1-.2-1-.2-2.2-.2-3.2-.2.7 0 1.5.2 2.2-.1-.5-.3-1.2-.2-1.8-.2h1.7c.5 0 1 0 1.3-.2-1-.2-2-.2-3-.2h3.5c-.4-.3-.9-.2-1.3-.2a16 16 0 00-2-.2h2.6l.7-.1c-1-.2-1.9-.2-2.8-.2h2.7c.2 0 .5 0 .6-.2l-3.4-.2h1.4c.3 0 .7 0 1-.2zm-19.5.8l2.4-.3.2.2c-.5.3-.2 1-.3 1.4l.2.2-.2.1v.3c.7.3 1.3.4 2 .4l-5.6.7-1.5.3-2.7.6a5 5 0 01.9-.4h-.8l.4-.2-.3-.1v-.2h-.8l.5-.2-.5-.1.9-.4h-.5v-.3h-.4l.2-.2h-.6l1-.5H79c.6-.4 1.4-.3 2-.7h.2l1-.1c1-.3 2-.4 3-.5zm-40.5 2.8l.6-.3c1.5-.3 3 .1 4.3 1 1.2.6 2 1.6 3.2 2.4a6 6 0 003 1.1l-.3.6c-1.2 0-2.3-.5-3.2-1.1l-2.2-1.7c-1-.9-2.3-1.7-3.8-1.9h-1.6zm104.7 1c1.4-1 3-1.6 4.8-1.4l.7.5h-1.8a8.7 8.7 0 00-4 2.1c-1.3 1.2-3 2.5-5 2.5l-.3-.5c.6 0 1.2-.2 1.7-.4 1.5-.7 2.6-1.9 4-2.8z"/><path d="M43.4 65.3l.8-.5h.8c1.7 0 3.2 1 4.5 2 1.1 1 2.3 2 3.7 2.5.6.2 1.3.2 2 .2-.8.4-1.7.4-2.5.1a10 10 0 01-3.3-2c-.9-.8-2-1.5-3.1-2a8 8 0 00-3-.3zm112.1-.5l.9.5a9 9 0 00-2.4.2 9.3 9.3 0 00-3.7 2.1c-.6.6-1.4 1-2.1 1.6h-.4c-.9.7-2.2.8-3.2.4.6 0 1.2 0 1.8-.3 1.3-.4 2.4-1.3 3.4-2.1 1.1-1 2.4-1.9 4-2.2.5-.2 1.1-.1 1.7-.2zM58 66.3v1.1-1zm42 3.7c.3.9.7 1.7.9 2.6l-.3-.2-.7-2c-.2 0-.2.2-.2.3l-1.7 5c-.8.4-1.7.2-2.5.2l-3.4.3c.3.3.7.5 1 1L91.5 76l6.3-.4 2-5.6.2-.1zM58.7 86.6v10.6l-.1-.7v-10zm82.8 2l.2-.2c-.3 2.3-.3 4.6 0 6.9l-.1.2-.2-.5-.1 1.6v-7.1c.3-.1.1-.6.2-.9zm-90.1 1.1c.2 1.3.1 2.7.1 4h-1v-3.1c.4 1 .2 1.9.2 2.9h.6l.1-3.8zm-.7 4.3h2.6l-1.2.8.2-.3-1 .3 1.2-.7h-1.8zm2.6.4l.9-.1v.2a3 3 0 01-.5 3.8c-.9.7-2 1.5-2 2.6 0 .7.3 1.3.7 1.8l-1-.1v-.1c-.8-.9-.6-2.2 0-3 .3-.6.8-1 1.3-1.3a3 3 0 001.1-2.4c0-.5-.3-1-.5-1.4z"/><path d="M54.7 94.2c.6 0 1.2.2 1.5.7.6 1.2.2 2.6-.7 3.5-.7.6-1.5 1.1-1.9 2-.3.9-.2 1.9.4 2.6l-.8-.2c-.8-.7-.8-2-.2-3 .6-.9 1.8-1.3 2.3-2.3.5-1 .5-2.5-.5-3.2zm89 .6c0-.2.4-.3.6-.5l.4.2c-.7.8-.8 2-.3 2.9.3.5.7 1 1.2 1.3.6.5 1.3 1 1.5 2a2 2 0 01-.6 2.1l-.7.2c.5-.7.7-1.6.4-2.4-.3-1-1-1.5-1.8-2a3 3 0 01-1-3.2 26.1 26.1 0 01.3-.6z"/><path d="M145.6 94.4h.6c-.4.8-.6 1.7-.1 2.4.2.5.4 1 .8 1.3.6.4 1.2.9 1.6 1.5.5.9.6 2.1-.1 2.9l-1.2.2c1-.5 1-1.8.6-2.7-.5-.8-1.3-1.3-2-2-.9-1-1.1-2.6-.2-3.6zm5.4 3c.2 0 0 .5-.1.2v-.2zm-94.7 5.4c1.2-.5 1.9-1.6 2.4-2.7 0 .6.3 1.3-.3 1.8-.4.5-1 1-1.7 1.2l-.4-.3zm84.9-2.4a5 5 0 002.3 2.4l-.5.2c-.7-.2-1.4-.7-1.8-1.3v-1.3zm-68.5 16.7c.3-.8.7-1.6 1.2-2.3v.8l.7.8h.2l1.1.8c.3.2 0 .5-.2.7-.3.4-.4.9-.8 1.2l.3-.7-.2-.5h-.4l-.2-.2c-.6 0-1-.4-1.4-.6h-.3zm-18.6-.9l.2.1.5 2.9c.2 2.2.2 4.5.2 6.7-.1 1 0 2-.3 3l-.1 1.7c-.2.6 0 1.2-.3 1.8-.2.7 0 1.5-.3 2.2l-.1 1c-.2.5-.1 1-.4 1.3.1-1.4.4-2.7.6-4.1a54.8 54.8 0 000-16.6zm102.7 2.6c.2-.4.2-1 .5-1.3l-.7 3.5a65 65 0 001.2 18.7c.3 1.5.6 3 .7 4.5-.5-.4-.2-1-.4-1.6l-.6-4.1-.9-5.7c-.2-.8 0-1.6-.2-2.4-.2-.7-.1-1.3-.1-2v-5.7l.2-1.7.3-2.2zm-28.5-.4c.5.5.8 1 1.1 1.6.3.3.1.7-.2.9l-3.4 2.3c-.4.3-1 0-1.2-.3l-1.5-2.3v-.3c.6.7 1 1.5 1.6 2.1l.4.4c.3.1.6-.1.9-.3l2.8-2c.3 0 .4-.4.3-.7v-.1c-.4-.4-.8-.7-.8-1.3zm26.6 1c0-.3 0-.8.4-1a51.6 51.6 0 00-.2 14.4c.7 5.7 2 11.3 2.3 17l-.1 5.1c-.2-1.9 0-3.7-.1-5.6l-.2-2.4-.4-3c-.1-.6 0-1.1-.3-1.7l-.2-2-1-6-.3-2.4-.2-1.6-.1-3c0-.4-.2-.7-.1-1v-1.6c0-.7.2-1.3.1-2 0-1 .2-2.1.4-3.2zm-10.6 9.6l.1-1c.1.9 0 1.7.2 2.5l.9 5.9 1.2 8.4c0 .7 0 1.4.2 2.1v5.1l-.2 1.5c0 .8-.2 1.5-.3 2.3-.1.5-.2 1.1-.5 1.6.4-1.4.6-2.9.7-4.3.6-6.1-.6-12.2-1.5-18.2 0-.7-.3-1.4-.3-2.2v-.6c-.3-1-.4-2-.5-3zM102 141.9c-.2-3.2-.2-6.5-.1-9.7.2 0 .4.2.5.3l-.5-.1c0 .3.3.4.6.5l-.4.2v7.1c0 1 .2 2.1.1 3.1l.2 2 .2 2.2c0 1 0 2 .2 3v.8c-.5-3.1-.7-6.3-.8-9.4zm-.2 23.3c.5-.7 1.4-1 2.2-1 1 0 2.2.3 3 1v.7l-.2-.1c-1.4-1-3.4-1-4.8-.1h-.3l.1-.5zm-9 0c.7-.7 1.7-1 2.7-1 1.1 0 2.3.5 2.8 1.5.3.4.2.9.2 1.3 0-.7-.5-1.2-1-1.5-1-.5-2.2-.6-3.3-.3l-1.5.7v-.7z"/><path d="M92.6 166.9a5.1 5.1 0 014-.9c.7.2 1.3.6 1.8 1.2a2 2 0 01-.7.8l.3-.4c-1-.8-2.5-1-3.8-.6l-1.8.9c0-.4 0-.7.2-1zm9.4-.4c.6-.4 1.3-.6 2-.6a5 5 0 013.2 1l.1 1a5 5 0 00-3.3-1 4 4 0 00-2.4.8l-.2-.4c0-.3.4-.6.7-.8zm21 2.5c-.3-1 .4-2.5 1.6-2.5 1-.1 2 .7 2.5 1.5.8 1 2.3 1.5 3.4.9.5-.2.7-.6 1-1v.4c0 .6-.3 1-.7 1.3-.8.4-1.7.5-2.5 0-.7-.3-1-1-1.6-1.5-.7-.7-1.7-1-2.6-.6-.7.4-1.3 1.3-.8 2 .2-.4.4-.8.9-1 .7-.5 1.7-.3 2.3.2.7.4 1 1.1 1.7 1.6.8.6 2 .7 2.8 0 .4-.2.6-.6.7-1l.1 1c-.5.5-1.2.8-1.8 1.1-.3.1-.6.3-1 .3-.5-.3-1-.6-1.3-1.1-.6-.9-1.5-1.6-2.6-1.5-.7 0-1.2.6-1.5 1.1-.3-.3-.4-.8-.5-1.2zm-49.3-2.1c.6-.4 1.3-.6 2-.3.8.3 1.3 1.4 1 2.3-.2-.5-.5-1-1-1.4-.8-.5-1.9-.1-2.5.5-.7.5-1 1.3-1.8 1.7-1 .5-2.3.3-3-.6-.2-.3-.2-.6-.2-.9v-.3c.3.4.6.8 1 1a3 3 0 003.4-.9l1.1-1.1z"/><path d="M73.2 168.7c.6-.5 1.4-.6 2.1-.4.6.2 1 .8 1.2 1.4l-.4.6c-.2-.5-.6-1-1-1.1-.9-.3-1.8 0-2.4.7l-1.3 1.4c-.4.2-.7.4-1 .3-1-.3-1.8-.7-2.5-1.3l.1-1c.2.5.5 1 .9 1.2.8.5 1.9.4 2.6-.1.7-.5 1-1.3 1.7-1.7z"/></g><g fill="#fed803"><path d="M98.7 21c.6 0 1.1-.2 1.7 0 .4.2.6.5.8.8l-1-.2c-.5 0-1 0-1.2.4.6-.3 1.4-.2 1.8.4-.5-.1-1-.4-1.4-.2a3 3 0 00-1.3 1.4c-.4.5-.3 1.2-.4 1.7l-.3-.4c-.3-1 0-2 .4-2.9.2-.4.5-.7 1-1zm-4 3.1c.5 0 1 0 1.5.3l.7.9c-.7-.2-1.4-.5-2 0-.7.3-.7 1.3-.7 2l-.3-.7v.8l-.3-.1c-.3-.5-.4-1.1-.3-1.7a2 2 0 011.4-1.5zm8.3.6c.7-.8 2.1-.8 2.9 0 0 .6.3 1.1.2 1.7a32 32 0 01-.3-.4l-.2.6c-.2-.4-.3-.8-.6-1.1-.4-.3-1-.3-1.5 0-.4.1-.8.4-1.2.8l-1.3 2c.1-1 .5-1.8 1-2.6.2-.4.7-.6 1-1z"/><path d="M99.8 27.4c.3.3.2.7.3 1l.5 2.3.3.6.2 1 .8 3.2.3 1c0 .6-.1 1.3.3 1.7l.3 1.2c0 .6.3 1.2.4 1.7l3.3 13 .3 1c.3 0 .5-.3.6-.5l2-2.5 13.2-16.8.6-.3v.3c-.4.5-.9 1-1 1.5l-.8 1.9c-.2.7-.7 1.3-1 2-.2.6-.6 1-1 1.4l-12.6 16.3h-.9l-3-12.5c0-.6-.2-1.1-.3-1.6l-2.3-9.2-.4-.8c-.2-.1-.2.2-.3.3L94 57l-.4 1.4h-.8l-9-11.9-4.2-5.4-.3-.5c-.7-1-1.2-2.1-2-3.1l.3 2.1c0 .8.3 1.6.4 2.4l.3 1.3c0 .7.3 1.3.1 2l-.8-4-.5-2.4c-.1-.5 0-1-.4-1.3.1-1-.3-1.8-.3-2.7l1.4 1.7 10.8 13.7 4 5.1.2-.6c.5-1 .5-2 .9-3l1.8-7.2.7-2.7c.3-1.2.7-2.5.8-3.8a8.6 8.6 0 00-1.2-3.2c.7.7 1 1.7 1.4 2.6v-.7c-.1-1-.7-1.9-1.2-2.7.7.6 1 1.5 1.6 2.2v-.7c-.3-1.1-1-2-1.6-3.1.8.5 1.3 1.5 1.9 2.2 0-.4 0-.8-.3-1.2-.3-.7-.9-1.2-1.3-1.7.8.5 1.3 1.3 1.8 2 .2-.3.2-.7.3-1.1.3-.6.2-1.4.5-2v-.6c-.2-.8-.7-1.5-1-2.3.5.5.8 1.3 1.2 2l.2-.5.5-1.9z"/><path d="M105.2 29.6c.5-.2 1.1 0 1.4.4l.1.8c-.4-.3-.9-.5-1.4-.4-1.4.1-2.3 1.2-3 2.2.2-1 .8-2.1 1.8-2.7l.3-.2.7-.1zm-12.4.7c.3-.5.8-.8 1.4-.7.4 0 .7.2 1 .4l1 .5c.5.4.8.8 1 1.3-.6-.5-1.2-1-2-1.2-.7 0-1.3.3-1.4 1-.3.6 0 1.3.1 2-.2-.3-.4-.7-.9-.8-.4-.7-.5-1.7-.2-2.5zm16 9.5c1.2-2.2 2.2-4.5 3.7-6.5l-.2.8c-1.2 2.5-2.7 4.9-4 7.3l-2 3.6v-.7l2.5-4.5zm-8.8-3.4l.1.4 2.2 8.6 1.7 6.9 1 4.2c0 .6.3 1.1.2 1.7a1 1 0 01-.2-.5l-1.7-5.7c0 .6.3 1.2.4 1.9l.8 3.7c0 .2.1.5-.1.5-.3-.5-.4-1.1-.6-1.7l-1.2-4.6 1 5.4.2.9c-.2 0-.3-.2-.3-.4l-1.4-5 .7 3.6c0 .5.3 1 .3 1.6l-.2.3-.5-1.7-.6-2.5c0 1.3.4 2.5.6 3.8 0 .2 0 .3-.2.3-.4-.9-.5-1.8-.8-2.7l-.3-1c0 1.2.5 2.4.6 3.7h-.3l-.7-2.8v.6c0 .7.2 1.4.3 2h-.3l-.8-2.8c0 1 .3 2 .4 3l-.5-.2-.5.1-.7-2.7.3 2.7h-.4l-.7-2.6c0 1 .2 1.8.4 2.7H95c-.2.1-.4.2-.5 0 0-.9.5-1.7.6-2.6l4.8-19zm16.8 10c1.1-1.5 2.1-3 3.3-4.4l-.2 1.7-1 5.3-.7 3.8-.3.6v-1.3l-.5 3.5c0 .8-.3 1.5-.3 2.3l-.2 1.5.2-4.2c0-1 .2-1.8.1-2.7l-.8 6.8h-.2c.2-.7.1-1.5.3-2.2 0-.9.2-1.8 0-2.7l-.4 3c-.3-.8 0-1.5-.2-2.3-.2.5-.2 1-.2 1.5l-.3 2.6c-.4-.1-.7-.3-1.2-.3v-2.5c0-1 .3-2 .1-2.9V55c-.3 1.3-.3 2.6-.5 4-.8-.2-1.6-.4-2.4-.3l-.1-1.5-.1 1.3c-1.1 0-2.2 0-3.2-.3l1.3-1.8 7.5-10zM80 43l.6.7 3.2 4 3 3.9 2.9 3.7c.8 1 1.7 2 2.3 3.2l-3.9.3h-1.7c-1 .3-2.1.3-3.1.7h-.1c-.3-.3-.5-.7-.4-1l-.3-1.5h.3c-.2-.3-.6-.8-.5-1.2.3.1.5.4.7.6-.3-.7-1-1.2-.9-2l1 1.3c-.3-.7-.8-1.2-1.1-1.8-.2-.2-.1-.4-.1-.7.7.7 1 1.7 1.8 2.4-.5-1.1-1.4-2-2-3.1v-.6l.7 1L84 55c.1.3.3.5.6.7l-1-1.4-2-3c-.2-.2-.2-.4-.2-.7.6.6 1 1.3 1.5 2l1.3 1.5-1.4-2-1.4-2-.3-.8c.6.5 1 1.1 1.4 1.7l1.2 1.5c-.1-.6-.5-1-.8-1.4l-1.6-2.2-.4-.8c.4.2.6.6.9 1l2 2.7.5.4a95.4 95.4 0 00-3.6-5.3c.4.2.7.6 1 1l2.6 3.4 1.2 1.5-.3-.6-1.4-1.8-3-4-.3-.8.6.5 3.2 4.2c.8 1 1.4 2 2.3 2.9-.5-1-1.2-1.8-1.9-2.6l-3.6-5c-.3-.4-.8-.7-.8-1.2l1 1.1 4.8 6 .5.5-5.7-7.6c-.4-.4-.8-.8-.9-1.4m7.7 10.5c.2.5.7 1 1.1 1.5-.3-.6-.6-1.1-1.1-1.5zm49.6-2.5c.6 0 1.2-.2 1.8 0a9.4 9.4 0 00-4.9 2.3c-2.3 1.8-4.2 4-6.5 6-.4.3-.7.7-1.2.8.2-.4.4-.9.7-1.2 2-1.7 3.7-3.6 5.7-5.3 1.3-1 2.7-2.1 4.4-2.5zm-78.2.5l1-.3 1.7.5c1.2.4 2.3 1.2 3.2 2 3 2.4 5.5 5.4 8.7 7.6.4.5.6 1 .9 1.6v1.3c-.2-.4 0-1-.2-1.4l-.4-.4a45 45 0 01-3.3-2.5c-1.9-1.6-3.5-3.4-5.3-5A15.3 15.3 0 0061 52l-2-.5z"/><path d="M61.8 51.3l.7-.2c1.4.4 2.6 1.1 3.7 2 2.1 1.7 4 3.7 6 5.5.4.3.6.9.9 1.4h-.2c-2-1.6-3.8-3.5-5.7-5.2a14 14 0 00-5.4-3.5zm78.2 0l.6.2c-.6.2-1.2.2-1.8.5-1.6.6-2.9 1.6-4 2.6l-5.7 5.2a43 43 0 01-2.5 2c-.6.4-1 .8-1.6 1l.8-1.4c2.1-1.4 4-3.1 5.7-4.9 1.5-1.4 3-2.9 4.8-4a7 7 0 013.6-1.2zm-88 2.5c.4-.2 1-.3 1.5-.2.8.2 1.7.5 2.4.9 2 1 3.5 2.5 5.1 4l4 3.8a49 49 0 0010.2 6.5h-1.7a40 40 0 01-11-7.8c-1.8-1.5-3.4-3.3-5.2-4.7-1.2-.9-2.4-1.7-3.9-2.1l-1.4-.4zm91 1.2c1.4-.9 2.9-1.6 4.5-1.3l.5.2a9 9 0 00-4.8 1.9c-2 1.4-3.7 3.2-5.4 4.8a43 43 0 01-11.7 8.2h-1.6c4.8-2.1 9.1-5.3 12.9-9 1.8-1.7 3.5-3.6 5.7-4.9z"/><path d="M50.4 54.3l.7-.1a9 9 0 014.4 1.6c1.7 1.2 3.3 2.8 4.8 4.2a48 48 0 008.2 6.7c1.2.8 2.4 1.4 3.7 2.1-.6 0-1.2.1-1.7-.1a39.4 39.4 0 01-7.9-5.6c-2-1.6-3.7-3.5-5.6-5.2-1.8-1.6-4-3.2-6.5-3.4l-.1-.2zm94.3 1.3a7.7 7.7 0 014.3-1.4c-.1.4-.6.3-1 .5-1.2.3-2.4 1-3.5 1.8-1.9 1.4-3.5 3-5.2 4.7a45.6 45.6 0 01-10.4 7.6h-1.3l2-1c3.6-2.1 7-4.9 10-7.9 1.6-1.5 3.2-3.1 5-4.3zm-95.6-.8h.6c-.4.5-.8 1-.8 1.7a5 5 0 002 3.7c1 .8 2.4 1.2 3.6 1.8a9 9 0 013.6 2.5 3 3 0 01.2 3.3l-.7.5c.1-.6.3-1.1.3-1.7 0-1.1-.8-2-1.7-2.7-1.2-1-2.7-1.6-4.2-2.2a8 8 0 01-2-1.2 4 4 0 01-1.8-3H48a3 3 0 011-2.7m9 11.5v1.1c.2-.3.2-.8 0-1zm92.4-11.1v-.3l.5.3c.7.7.9 1.8.7 2.7a5.2 5.2 0 01-2.4 3c-.8.6-1.8.9-2.7 1.3-1.5.7-3 1.4-4 2.7a3 3 0 00-.2 3.4l-.8-.4c-.7-1-.6-2.4.1-3.3a9.2 9.2 0 013.6-2.6c1.1-.6 2.5-1 3.5-1.7a5 5 0 002-2.8c.2-.8.2-1.7-.3-2.3z"/><path d="M46.7 56.6a4 4 0 011.4-1.5v.2c-.2.3-.5.5-.6.9a3 3 0 00-.1 2.1 5.3 5.3 0 002.3 3c.8.5 1.7.8 2.6 1.2a18 18 0 013.5 2.1c.5.5 1 1.1 1.1 1.9.2.7.1 1.5-.3 2.2l-.6.4c.3-.8.4-1.7.1-2.5A5.2 5.2 0 0054 64a26 26 0 00-3.8-2 6.4 6.4 0 01-3-2.6c-.6-.8-.7-2-.4-2.9zm105.5-.8l.6.4c.5.6.5 1.5.3 2.3a5.2 5.2 0 01-2.2 3c-.9.6-2 1-2.9 1.4-1.4.7-2.8 1.4-3.8 2.6-.8 1-1 2.5-.4 3.6l-.6-.3c-.4-.6-.5-1.1-.4-1.7l-.1.6c0-1.1.4-2.2 1.2-3 1.4-1.3 3.3-2 5.1-2.9a6.3 6.3 0 003.1-2.8c.5-.9.6-2 .1-3v-.2zm-58.4 2.8h.2c.7.2 1.5 0 2.2 0h6.2l1.8.1 4.8.3c2.4.3 4.8.4 7 .9 2.2.4 4.3.8 6.4 1.6.4.2.8.3 1.1.6.2.2.2.4.2.7-.7.1-1.3-.3-2-.5a42 42 0 00-8.2-1.8 131.6 131.6 0 00-17.6-.8c-1 .1-2 0-3 .2h-1.4l-3 .3-4.8.7c-2 .4-4.3.8-6.3 1.7-.8.3-1.6.7-2 1.5-.2-.2-.4-.4-.3-.6 0-.6.4-1 .8-1.3 1.2-.7 2.4-1.1 3.6-1.5l6-1.2c2.3-.2 4.5-.6 6.8-.7.5 0 1 0 1.5-.2z"/><path d="M87.7 61.3l6-.5h11.2c-.4.3-.8.2-1.1.2h-1.4l3.4.2a1 1 0 01-.6.2h-2.7c1 0 1.9 0 2.8.2l-.7.1H102c.6 0 1.3 0 2 .2.4 0 1-.1 1.3.1-1.1.2-2.3 0-3.5.1 1 0 2 0 3 .2-.4.2-.8.1-1.3.2h-1.7c.6 0 1.3 0 1.8.2-.7.3-1.5 0-2.2.1 1 0 2.1 0 3.2.2-.3.2-.7.2-1 .2h-2.2 1.7c.5.1 1 0 1.4.2l-.8.2h-8c-2 0-4.1 0-6.1.3-.7 0-1.3 0-2-.4v-.3l.2-.1-.2-.2c.1-.5-.2-1 .3-1.4l-.2-.2zm1.7 3.2a143.2 143.2 0 0117.6-.4c.2.2.6.2 1 .2l2.5.2c1.2 0 2.4.3 3.6.5 1.4.1 2.7.4 4 .7 1 .3 2.2.6 3.1 1.2.3.3.7.6.5 1-.6.1-1-.3-1.6-.5-2.1-.8-4.5-1-6.7-1.4l-5.7-.5-2.8-.1a113.1 113.1 0 00-20.3 1 24 24 0 00-5.4 1.3l-1.2.7c-.2.2-.6 0-.6-.2 0-.6.5-1 .9-1.2 1-.7 2.3-1.1 3.6-1.3 2.5-.6 5-1 7.5-1.2zm-46.3 1.1h.7A5.3 5.3 0 0042 70c.2 2.3 1.4 4.4 2.7 6.3 1 1.6 2.2 3 3.4 4.6 1.3 2 2.4 4.2 2.8 6.6l.1.1c.1.7.3 1.3.3 2-.2 1.3 0 2.5-.1 3.8h-.6c0-1 .2-2-.1-3 0-.6 0-1.2-.2-1.8l-.1-.2c-.5-2.5-1.5-5-3-7.1l-2-2.8c-1-1.3-2-2.7-2.8-4.2a9.4 9.4 0 01-1.4-5.2 5 5 0 012-3.5zm112.9-.1h.6l.1.2c.7.6 1.4 1.4 1.7 2.4.5 1.5.2 3.2-.4 4.6-.7 2-1.8 3.6-3 5.3-1 1.3-2 2.5-2.9 3.9-1.8 2.7-2.8 6-2.9 9.2v2.5h-1l.1-3.6c0-.8.2-1.5.3-2.3h.1a19 19 0 013.6-7.6c1-1.5 2.1-2.8 3-4.3a16 16 0 002.2-4.5 6 6 0 00-.3-4.2c-.3-.6-.8-1-1.2-1.6z"/><path d="M39.5 69.6a5 5 0 012.6-3.7c-.4.6-1 1-1.2 1.6-1 1.7-.8 3.7 0 5.5 1 3 3 5.4 5 7.8 2.2 2.9 3.5 6.4 3.7 10l-.1 2.1-.2.6-.5-.3c.3-1.5 0-3-.1-4.5v.4c-.5-2.5-1.5-5-2.9-7-.7-1.2-1.7-2.3-2.5-3.4a28 28 0 01-3-4.6c-.6-1.4-1-3-.8-4.5zm119.3-2.3l.1-.4c.8.7 1.3 1.7 1.4 2.8.1 1.7-.4 3.3-1 4.7a29 29 0 01-3.2 4.8c-.7 1-1.5 1.8-2.1 2.8a17.8 17.8 0 00-2.6 5.4c-.3.5-.2 1-.3 1.4-.2 1.1-.3 2.3-.3 3.4 0 .4.2 1-.3 1.3l-.2-.5v-2.7l.2-2.2c.6-3 2-5.8 4-8a40 40 0 003.2-4.7 12 12 0 001.8-4.5c.1-1.2 0-2.5-.7-3.6zM49.1 70.4c-.4-1-.7-2-.5-3.1l.8.7c.2 1.4.8 2.6 1.3 3.8 1.3 2.4 2.9 4.6 4.5 6.7 1.8 2.4 2.9 5.2 3.5 8v2l-.1 8v1c-.4 1.5-.8 3-1.9 4.2-.6.7-1.4 1.2-2.3 1.2l-.3-.2c1-.4 1.7-1 2.2-1.8 1.3-2 1.7-4.5 2-6.8a26 26 0 00-.8-8.7l-.6-1.8v.1c-.7-2-1.8-4-3.2-5.7a34.2 34.2 0 01-4.6-7.6zM150.3 68c.3-.2.4-.5.7-.6h.2c0 1.6-.6 3.2-1.3 4.6-.9 1.7-2 3.4-3.1 5l-2 2.7a20.4 20.4 0 00-2.7 6.4V86c0 .8-.3 1.6-.4 2.4l-.2.2c0 .3.1.8-.3.9v-3.6a21 21 0 012-5.4c.7-1.2 1.5-2.3 2.3-3.3 1.3-1.6 2.4-3.4 3.4-5.2.6-1.2 1.2-2.5 1.4-4zm-8 17c-.1.2-.1.3 0 .4.1 0 .2-.4 0-.4zm5.9-15.5l1-.6a16 16 0 01-1.7 3.8 63.3 63.3 0 01-3.6 5.4c-1.2 1.4-2 3.1-2.7 4.9v-2c1-2.1 2.6-3.9 3.9-5.9.3-.4.5-.9.9-1.3l.1-.2.2-.4c.7-1.2 1.4-2.4 1.9-3.7zm-97.4.1l.2-.3.7.5c1 2.7 2.8 5.1 4.5 7.5a19 19 0 012.5 4v2a22 22 0 00-2.4-4.6c-2-2.9-4.2-5.8-5.5-9zm48.9 1.1c0-.1 0-.4.2-.4l.7 2.1.3.2 1 3 4.6.3c.5.2 1.1 0 1.5.4-1.5.7-2.7 1.8-4.1 2.7l-.8.5 2 2.3c.3.5.7 1 1.2 1.3l.3.3 16.7 19.9 15.7 18.6.2.3v.1l-1.8-1.9L109.7 92a47.5 47.5 0 01-3-3.3l-3-3.2c-1.3-1.2-2.4-2.6-3.7-3.7-.9.6-1.5 1.4-2.2 2.2l-4.3 4.3-1.4 1.5-2.5 2.6-3 3.1c-.4.4-.9.7-1 1.2v.1l-24 24.7c-.6.5-1 1.1-1.7 1.6 2.2-2.8 4.6-5.5 6.9-8.2l29.9-35.4-3.6-2.4-1-.9 3.4-.3c.8 0 1.7.2 2.5-.1l1.7-5z"/><path d="M100 88.3c.5.7 1 1.7.5 2.5-.1.5-.2 1-.7 1.3-.3-.5-.6-1-.7-1.5 0-.8.3-1.6.8-2.3zm-2.4 4.1c-.1-.5-.3-1 0-1.6a3 3 0 011.6 1.4c.2.5.4 1 .1 1.5-.7-.2-1.2-.8-1.7-1.3zm3.4-.9c.5-.2.9-.6 1.4-.6.1.7-.3 1.3-.7 2-.3.5-1 .7-1.4 1 0-.8.3-1.6.7-2.4zm56 2h.6c1.6.5 2.8 1.8 3.4 3.3 1.1 2.4 1 5.1.6 7.6-.4 3-1.4 5.8-2.5 8.5l-1.5 3.9c-.1.2-.1.5-.3.7-.3.4-.3.9-.5 1.3 0 .8-.3 1.5-.3 2.2l-.2 1.7v7.7c.3.8.1 1.6.3 2.4l.9 5.7.6 4c.2.6 0 1.3.4 1.7a46.6 46.6 0 01-.3 16.7c-.7 2.3-1.7 4.5-3.2 6.3a13.4 13.4 0 01-5.4 4c-1 .3-2.2.8-3.1 1.4-1.6 1-2.8 2.4-4 3.8a18.7 18.7 0 01-7 6 9.5 9.5 0 01-7 .4c-1-.4-2.2-1.2-2.6-2.4a6 6 0 002.8 1.8c1.4.4 2.9.4 4.3.2a14.9 14.9 0 006.7-3.8c1.6-1.6 2.7-3.4 4.2-5a11 11 0 014.5-2.8 13 13 0 005.7-3.8c1.6-1.9 2.7-4.3 3.3-6.7.6-2.4.9-4.8 1-7.2.2-9.3-3-18.3-2.8-27.5 0-1.9 0-3.7.3-5.6a36 36 0 012-6.6 40 40 0 002.5-7v.4c0-.6.3-1.2.3-1.9.4-2 .6-4.2.1-6.2-.3-1.6-1-3.1-2.2-4.2l-1.6-1zM40.2 97.4c.6-1.5 1.6-3 3.2-3.7h.5l-.4.5a7.4 7.4 0 00-2.7 4.9c-.3 2-.2 3.9.2 5.8.5 2.7 1.5 5.3 2.6 7.8a25.6 25.6 0 012.5 11c0 2.3 0 4.6-.2 6.8-.4 4.6-1.4 9.1-2 13.7a49 49 0 00.3 15.5 13 13 0 008.6 9.8c1.3.4 2.6 1.1 3.6 2 1.8 1.5 2.8 3.5 4.3 5.2a14 14 0 004.7 3.3c1 .5 2 .7 3 .8H71l-.6-.1c1.1 0 2.1-.5 3-1l.7-.5c0 .5-.5.7-.7 1a5 5 0 01-1.6 1 9 9 0 01-4.3.4c-2.1-.3-4-1.4-5.7-2.7-1.7-1.3-2.8-3-4-4.7a13.7 13.7 0 00-4.2-3.4c-1-.6-2.3-.9-3.3-1.5a12.6 12.6 0 01-5.6-5.7c-.5-1-1-1.8-1-2.8v.7a46 46 0 01-1-5.1c-.2-1.7-.1-3.4-.2-5.1 0-4 .7-8 1.3-12 .6-4 1.3-8 1.4-12.2 0-2.6 0-5.2-.4-7.7-.4-2.1-1-4.2-2-6.1-.9-2.1-1.7-4.2-2.3-6.4a20.5 20.5 0 01-.2-9.5zm57.3-3.7c1 .2 1.6 1 1.9 1.9v1c-.8-.1-1.3-.7-1.7-1.4-.3-.4-.3-1-.2-1.5zm3.8.3c.4 0 .8-.2 1.1-.3.1 1.4-.9 2.6-2.1 3.1 0-.4 0-1 .2-1.4l.7-1.3z"/><path d="M155.8 93.7c.5 0 .8.3 1.3.4a7.4 7.4 0 012.9 5.3c.2 1.3.1 2.6 0 4-.4 3-1.3 5.8-2.5 8.6-.3 1-.8 1.9-1.2 2.9l-1 3.5c-.3.3-.3.7-.4 1-.2 1-.4 2.1-.4 3.2v2c-.2.5 0 1-.1 1.6v1c.2 1 0 2 .2 3l.2 1.6.3 2.4 1 6 .2 2 .3 1.7.4 3 .2 2.4c.2 1.9 0 3.7 0 5.6a34.4 34.4 0 01-1 6c-.6 2-1.5 4-2.9 5.5a12 12 0 01-5.6 3.7c-2 .7-3.8 2-5.1 3.6-1.4 1.7-2.6 3.7-4.4 5.1a13 13 0 01-6.7 2.9l-3-.3h.2l-1-.2h.4c-.9-.2-1.6-.8-2.2-1.4v-.4l.7.3a8 8 0 005 1c2-.2 4-1.2 5.6-2.4 1.7-1.2 3-3 4.1-4.6 1.2-1.5 2.6-2.9 4.3-3.7l3-1.3c1-.5 2-1.1 2.8-1.9a14 14 0 003.8-6 29 29 0 001.1-8.2c.1-3.2-.2-6.4-.6-9.5-.8-5.9-2.1-11.7-2-17.7a25 25 0 011.8-11.1c.4-1.3 1.2-2.4 1.4-3.7l.1.2c.2-1 .6-1.7.9-2.6.5-1.5.8-3.1 1-4.7.3-2 .3-3.8-.2-5.7a6.8 6.8 0 00-2.5-3.6l-.3-.5zM41 94l.6-.1-.3.5c-.9.7-1.5 1.7-1.9 2.8V97l-.3 1a12 12 0 00-.4 4.2c.2 3.3 1.2 6.5 2.4 9.6.8 1.9 1.6 3.7 2.1 5.6a28 28 0 011 8.3c0 6.6-1.5 13-2.3 19.6-.5 3.9-.7 8-.2 11.9.4 2.8 1.1 5.6 2.6 8a13 13 0 005.4 5c1 .4 2.2.7 3.2 1.3 1.8.8 3.2 2.2 4.4 3.8a21 21 0 004.2 4.6c1.8 1.3 3.9 2.4 6.2 2.6 1.9.2 4-.1 5.4-1.4l.3.2c-.6.8-1.7 1.4-2.7 1.7a10 10 0 01-7-.8c-1.8-1-3.4-2.1-4.8-3.6-1.6-1.7-2.7-3.8-4.6-5.3l-1.4-1-.2-.1c-.5-.1-.9-.4-1.3-.6-1-.4-2-.6-2.8-1.2l-.2-.1-1.2-.7a14.2 14.2 0 01-5-7c0-.6-.3-1.1-.5-1.7-.3-1.4-.7-2.7-.7-4-.4-1.6 0-3.3-.3-5v-2.6c0-1.7.3-3.3.5-5 .3-1.5.4-3.1.8-4.6l.4-2.1c.5-3 .8-6 1-9v-5.9c-.1-1-.1-2.1-.4-3.2-.2-.6-.1-1.3-.5-1.9-.2-.2-.2-.5-.3-.8-.7-2.3-1.9-4.5-2.7-6.9a30 30 0 01-1.6-7.9c-.1-2 .1-4 1.2-5.8A6 6 0 0141 94z"/><path d="M48 97c.5-1.2 1.4-2.5 2.7-2.9h.8a4.9 4.9 0 00-2.3 2.6 10 10 0 00-.8 4.1c0 2.3.7 4.5 1.4 6.6l1.7 4c.8 1.8 1.4 3.7 1.8 5.6a48.7 48.7 0 010 15.5c-.7 4.3-1.5 8.5-1.9 12.8-.3 3.5-.3 7 .2 10.5a10 10 0 002 5.2c1.1 1.2 2.6 2 4 2.6 1.2.4 2.3.9 3.2 1.6a14 14 0 013.3 3.6c.8 1.3 1.7 2.6 3 3.5a7.9 7.9 0 006 1.4c.6-.2 1.2-.4 1.7-.8l1.2-1-.4 1c-.5.6-1.1 1-1.8 1.3a7 7 0 01-3.5.4 9 9 0 01-3.5-1.4c-1.8-1-2.8-2.9-4-4.5a10 10 0 00-4-3.6c-1-.6-2.2-.8-3.3-1.4-1-.5-1.9-1.2-2.6-2a10 10 0 01-2.1-4.7c-.4-2-.6-4-.6-6l.1-4.7c.2-1.9.4-3.8.8-5.7.6-5 1.7-10 1.8-15.2v-3.7c-.2-1.6-.3-3.2-.7-4.9-.4-2.3-1.3-4.5-2.3-6.6-.3-.9-.8-1.7-1-2.6v.3l-.5-1.6a20 20 0 01-1-4A12 12 0 0148 97zm100.3-2.8l.7-.1a4 4 0 012.4 2.2v-.1c.3.8.6 1.5.7 2.3.6 3-.1 6.2-1.2 9-.7 2-1.7 4-2.4 5.9a41.8 41.8 0 00-1.1 18.3c.7 5.3 1.8 10.6 2.1 16 0 3.2.1 6.6-.6 9.8l-1.2 3v-.2c-.1.4-.4.7-.6 1a9.2 9.2 0 01-4.2 3c-2 .6-3.8 1.7-5.1 3.3-1.5 1.8-2.5 4-4.5 5.4a8 8 0 01-6.3 1.6 4.7 4.7 0 01-3-2h-.1v-.2l.2-.3c.7 1 1.8 1.4 2.9 1.6a8 8 0 006-1.7c1.8-1.4 2.7-3.5 4.1-5.1 1.2-1.5 3-2.6 4.8-3.2a9 9 0 004.8-3.6c1.1-1.8 1.5-3.9 1.7-6 .3-3.3.2-6.7-.2-10-.6-5.7-1.9-11.2-2.3-16.9v-4.5c0-3.5.6-7 1.9-10.3 1-2.5 2.3-5 3-7.6.4-1.7.6-3.5.5-5.3a6 6 0 00-.5-1.8 4.6 4.6 0 00-2.5-3.5m2.6 3.2v.2c0 .3.3-.3 0-.2z"/><path d="M51.4 94.8l.9-.3-.2.3a7.7 7.7 0 00-1.8 4.6c-.3 2.5.4 5 1.3 7.4.8 2.3 2 4.4 2.7 6.8a30 30 0 011.3 7.6c0 2 .1 4.1-.1 6.2l-.4 3.3-.6 4.5-.5 2.6-.2 1.5c0 1-.3 2.1-.5 3.2l-.2 3.1c-.2 1.3-.2 2.5-.2 3.7v3.6l.1-1.4c.1 2 .2 3.9.8 5.8.4 1.2 1 2.4 2 3.2 1 1 2.3 1.5 3.5 2 1.4.4 2.6 1.1 3.7 2.1 1.5 1.4 2.4 3.3 3.7 4.9a7.6 7.6 0 005.4 2.7c1.2 0 2.3-.2 3.2-.8.2 0 .3.1.3.3-.7.6-1.6 1-2.5 1.2-2 .3-4-.3-5.7-1.5-1.8-1.4-2.7-3.7-4.3-5.4a9.7 9.7 0 00-2.7-2.2l-3-1.3a7.7 7.7 0 01-3.6-3c-1-1.6-1.3-3.5-1.5-5.2-.2-2-.1-3.9-.1-5.8a135.6 135.6 0 011.3-11.6c.3-.3.2-.8.4-1.3l.1-1c.3-.7.1-1.5.3-2.2l.3-1.8.1-1.7c.3-1 .2-2 .3-3 0-2.2 0-4.5-.2-6.7l-.5-2.9-.2-.1-.8-3.2v.3c-.3-1.1-.8-2.1-1.3-3.2-1-2.2-2-4.5-2.4-7-.2-1-.2-2.1-.2-3.2 0-1 .2-1.9.5-2.7.3-.9.8-1.8 1.5-2.4zm96-.4h.4c.7.4 1.3 1.1 1.7 2 .6 1.2.9 2.7.9 4.2 0 2.9-1 5.6-2 8.3-.5 1-1 1.8-1.3 2.7-1 2.4-1.7 5-2 7.5a58 58 0 000 10.2c.7 5.8 2 11.6 2.4 17.4v3.7c.1 2 0 4-.4 6a7.8 7.8 0 01-3 5 11 11 0 01-3.2 1.7c-1.7.7-3.3 1.7-4.4 3.1-1.4 1.6-2.3 3.6-3.9 5a7.5 7.5 0 01-6.2 1.7c-1-.3-2-1-2.7-1.7-.2-.2-.2-.4-.2-.6 1 1 2.5 1.7 4 1.6 1.9 0 3.7-.8 5-2 1.4-1.4 2.2-3.2 3.4-4.7a10 10 0 012.4-2l.4-.2.2-.2c.6-.4 1.3-.5 1.9-.8a8.1 8.1 0 004.4-3.2l.7-1.7c.3-.5.4-1 .5-1.6.1-.8.3-1.5.3-2.3 0-.5 0-1 .2-1.5v-5.1a18 18 0 01-.2-2.1l-1.2-8.4c-.2-2-.6-4-.9-5.9-.1-.8 0-1.6-.2-2.5v1l-.3-2.1.1-5 .1-2.2c.2-1 .2-2.1.5-3.2l.1-1c.2-1 .6-2 1-3.1.5-1.7 1.4-3.2 2-4.9 1-2.5 1.9-5.3 1.6-8.1a8 8 0 00-1.7-4.4l-.4-.6z"/><path d="M141.3 96.6c.2-.5 0-1.1.1-1.6a44.4 44.4 0 001.5 4.9 5 5 0 002.7 2.8l.2-.3-.4.5h-.5c-1.1-.3-2-1.1-2.5-2-.6-1-1-2-1.2-3v-1.3zm-43.8 0c1.3.3 2.1 1.6 2 2.9-.7 0-1.1-.6-1.5-1-.6-.4-.6-1.2-.5-1.9zm3.6.5l1.3-.5c0 .7-.2 1.4-.6 2-.4.5-1 .8-1.5 1.1 0-.9.4-1.7.8-2.5zm-13 .3a3 3 0 011.8 1.3c.3.5.3 1 .2 1.6l-.6-.2a3 3 0 01-1.4-2.7zm22 1.1c.4-.5 1-1 1.6-1.2a3 3 0 01-2 3 2 2 0 01.4-1.8zm-18.6-.3c.6.5.6 1.4.5 2.2-.1.5-.4 1-.7 1.5a5 5 0 01-.6-1.8c0-.7.3-1.4.8-2zm16.7 0l.3.2c.4.5.7 1.2.5 1.9l-.5 1.3c-.8-.4-1-1.4-.8-2.2.1-.4.2-.9.5-1.2zm-10.7 1.3l.6.3c1 .5 1.6 1.6 1.3 2.6-.7-.2-1.3-.8-1.7-1.4-.2-.5-.3-1-.2-1.5zm3.6.5l1.3-.5c0 1.4-.9 2.6-2.1 3.1 0-.4 0-.9.2-1.3.1-.5.5-.8.6-1.3zm-13.7.5c1.4-.3 2.7.6 3.3 1.7h-1.4a4 4 0 01-1.7-1.2c0-.2-.3-.3-.2-.5zm19.2 0c.6.5 1.1 1.2 1 2l-.3 1.5c-.5-.4-1-.8-1.1-1.4 0-.7 0-1.5.4-2.1zm4.4.1c.5-.1 1-.2 1.5 0-.5.5-.9 1-1.5 1.4-.5.3-1.2.2-1.8.2l.1-.6.2-.1 1.5-.9zm-18.4.6c.1-.2.3-.7.7-.6.7 1.2 0 2.7-.8 3.6-.4-1-.5-2.1 0-3zm4.9 1.2c.6 0 1.2.5 1.5 1 .3.6.7 1.3.3 1.8-.7-.2-1.2-.8-1.6-1.3-.2-.5-.3-1-.2-1.5zm3.6.5l1.3-.5a3 3 0 01-.6 1.9c-.4.6-1 1-1.5 1.2 0-1 .4-1.8.8-2.6zm-12.6-.1h.2c.5.2 1 0 1.5.3a4 4 0 011.8 1.5c-.6 0-1.2.1-1.8-.1a4 4 0 01-1.4-1.1l-.3-.6zm21.7.2h1.1a4 4 0 01-1.3 1.3c-.6.4-1.4.4-2 .3l.3-.7c0-.2.2-.3.4-.4l1.5-.6zm-4.8.1c.5.4 1 1 1 1.7l-.2 1.8c-.6-.2-1-.6-1.1-1-.2-.9 0-1.7.3-2.5zm-11.7 3.7c-.6-1.2-.4-2.8.7-3.6.4.6.5 1.3.3 2-.3.6-.5 1.2-1 1.6zm-11.7-.3a15 15 0 014-1.5c-.7.8-1.7 1.3-2.4 2-1.2 1-2.2 2.3-3.2 3.5-.5.8-1.1 1.6-1.3 2.6 0 .5.6.8 1 1-.2 1-.9 1.6-1.4 2.3-.1.2-.2.4-.4.4-.7-.2-1.3-.6-2-1-.8-.3-1.4-1-2.2-1.5l.2-.5c1-1.9 2.5-3.5 4-5l2-1.4c.6-.2 1.1-.6 1.7-1zm15.5-.5c0-.3-.1-.6 0-.8 1.2.4 2.1 1.6 2 2.8-1-.2-2-1-2-2zm3.6-.1c.4-.3.8-.7 1.3-.6 0 .4 0 .8-.3 1.2-.3.8-1 1.5-1.8 1.7 0-.9.2-1.7.8-2.3zm-11.5-.5c.7 0 1.5 0 2.1.4.5.2.7.7 1.2.9l.1.5c-.6 0-1.2 0-1.7-.3-.7-.3-1.3-.8-1.7-1.5zm18.7.1c.6 0 1.3-.2 2 0l-1.3 1.3c-.7.3-1.4.4-2.1.3v-.3c.3-.5.8-1 1.4-1.3zm-13.7 1.7c.2-.5.5-1 1-1.3.7 1.3 0 2.8-1 3.6-.2-.7-.3-1.6 0-2.3zm9.4.4c-.1-.6 0-1.2.2-1.7.5.3.8.7 1 1.2.2.4 0 1 0 1.4l-.1.7a2 2 0 01-1.2-1.6zm9.8-.8s-.3-.4 0-.4c.7 0 1.4.4 2 .4 2.2.5 4.3 1.5 6 2.8.3.2.6.3.8.6 2 2.7 3.8 5.5 5.7 8.2 0 .6.4 1 .7 1.3 0 .2-.1.4-.3.5l-3.1 2.1c-.3.3-.6.2-1 .1-.5-.6-.9-1.4-1.5-2l-.5-.7-6-9-2.8-3.9zm-7 1.6c.8-.3 1.5-.9 2.4-.5-.4.6-1 1.1-1.6 1.5-.5.3-1 .3-1.7.4.2-.5.7-.9.8-1.4zm-16.1-.5c.6 0 1.1-.1 1.6.1.7.4 1.3 1 1.6 1.8l-1.5-.3c-.4-.1-.7-.4-1-.7l-.7-.9zm5.7.8c.2-.1.3 0 .3.2.3.6 0 1.3-.2 1.9a3 3 0 01-1 1.3c-.4-1.2-.1-2.7 1-3.4zm6.7 0c.4 0 .6.3.9.6.7.7.4 1.8.2 2.7l-1-.8c-.4-.8-.3-1.7 0-2.5zm-3.4.1c.2 0 .5 0 .5.4V125c0 .4 0 1-.2 1.4l-.4-.3v-17.3zm-8.1 1.5c1-.1 1.8.2 2.4.9.3.4.7.8.8 1.2-.6 0-1.3-.1-1.8-.5-.6-.4-1.2-.9-1.4-1.6zm14.4.7c.5-.5 1.4-.8 2.2-.7-.1.6-.6 1-1 1.4-.6.5-1.4.6-2 .7 0-.5.4-1 .8-1.3zm-9.4 1.2c.2-.3.5-.7 1-.8 0 .6.2 1.3-.1 1.8-.3.5-.7 1.1-1.3 1.4v-.1c-.1-.8-.1-1.6.4-2.3zm5.6.6c-.1-.5 0-1 .2-1.4.7.4 1.3 1.2 1.2 2 0 .4.1.8-.1 1.1-.6-.4-1.2-1-1.3-1.7zm-27.6-1c.1-.4.5-.2.8-.2-.4.6-.9 1.2-1.2 1.9h-.4v-.3c.1-.5.5-1 .8-1.4zm49.6.2l.4-.2.4.2c.2.4.6.7.8 1.2l.3.9h-.4l-1.5-2.2zm-31.6.9c.2-.2.4 0 .6 0 1 0 1.9 1 2.2 1.9-.7.2-1.5-.2-2-.7-.3-.4-.7-.7-.8-1.2zm13.6.1c.3-.2.6-.2 1-.3 0 .5-.4 1-.7 1.3-.5.6-1.3 1-2.1.9.3-.9.9-1.7 1.8-2zm-26.5 3.5c.2-.6.5-1 .8-1.5l.5.1 28 17.3 9 5.6c.3 0 .5.3.7.5-.3.6-.5 1.2-1 1.6-.3.1-.5 0-.6-.1-.7-.3-1.2-.8-1.8-1.1-1.2-.6-2.2-1.4-3.3-2l-6.6-4-7.1-4.4-9.2-5.6-4.4-2.8-5-3c-.2-.2 0-.4 0-.6zm23.7-.9c0-.3.3-.3.6-.2 0 1.2-.3 2.4-.5 3.6l-.6 5.8-.4.2c-.3-.9 0-1.8 0-2.7l.9-6.7zm-7.6 0c0-.2.3-.2.5-.3l.6 3.8c.2 1.8.5 3.6.5 5.4-.3 0-.6-.2-.6-.5 0-1-.2-2-.3-2.9 0-.3 0-.5-.2-.8.1-1-.2-1.9-.3-2.8l-.2-1.9zm18.8 2.5l4.4-2.7.7.8.1.2c.1.5.6 1 0 1.4l-5.9 3.6c-.6.6-1.4 1-2.2 1.5l-7 4.4c-.5.3-1 .5-1.5 1l-.6-.4c-.5-.5-1.2-.8-1.8-1.2l2-1.3 11.8-7.3zm-41.6-1c.5.2.8.7 1.4.6l.2.2h.4l.2.5-.3.7-1 1.8-1 2.8c-.2 1-.5 2-.6 3.1-.4-.3-.3-.9-.5-1.3-.2-.6 0-1.2-.2-1.8-.1-1 0-1.9.1-2.8l1-3.8h.3zm23.3 12.2c.1 0 .3-.1.4 0 .7.3 1.4.8 1.8 1.4-.4.5-1 .7-1.4 1l-2.6 1.7-3.9 2.4-7.2 4.3c-.2.1-.5 0-.6-.2l-.7-1.2c-.1-.1-.3-.4-.1-.5l.5-.5 13.8-8.4zm3.7 2.3h.1v23.6c0 .3-.6 0-.5-.2v-22.8c0-.3 0-.5.3-.6zm-2.8 1.9c0-.3.2-.5.4-.6.2.4.1.8.1 1.2v6.4l-.2 3.2-.5 7-.2 1.9h-.6c-.2-.4 0-.7 0-1 .4-3.6.8-7.1.8-10.7.2-.7.1-1.6.2-2.4v-5zm4.9-.5h.4v1.4a124.3 124.3 0 00.5 11.7l.4 4.2c.1.8.3 1.5.2 2.3h-.5l-.4-1.3v-.2c.1-.2.2-.4.1-.7l-.2-2.9c0-.7-.3-1.5-.2-2.2l-.2-2v-5.8c-.2-1-.1-2-.1-3V133zm-29.5 30c2.6-.5 5.3-.2 7.8.7 2.5.9 4.8 2.3 7.3 3.4 2.2 1 4.5 1.8 7 2 1.2 0 2.5-.3 3.5-1h.3l-.6.9c-.8.7-2 .9-3.1 1-1.4-.1-2.7-.4-4-.8l-1.7-.5h.3c-.8-.2-1.6-.6-2.4-1-2-1-4-2.2-6-3-1.5-.5-3-1-4.5-1.1-1.6-.1-3.3 0-4.9.5-1 .3-1.9.8-2.5 1.7l-.2-.5c.8-1.3 2.2-2 3.7-2.3zm47.7.4c1.8-.5 3.6-.7 5.4-.6a8 8 0 013.8 1.1 4 4 0 011.8 2.9c-.4-.6-.7-1.2-1.2-1.6a8 8 0 00-5.3-1.6c-2.7-.1-5.4.7-7.8 2-3 1.4-5.9 3.2-9.2 4-1.3.2-2.6.5-3.9.2-1-.1-2-.5-2.6-1.3-.2-.3 0-.6 0-.9.6 1 1.8 1.3 2.8 1.4 1.2.2 2.4-.1 3.6-.3a26.5 26.5 0 007-2.8l.1-.1c1.8-1 3.6-1.9 5.5-2.4z"/><path d="M70 165.8c1.4-1 3.2-1.4 5-1.4 2.2 0 4.4.5 6.4 1.4 2.4 1 4.6 2.5 7 3.5 2.2 1 4.6 1.6 7 1.5 1.1 0 2.4-.5 3-1.5.2.2.2.5.2.8a4 4 0 01-2.9 1.6 12 12 0 01-5-.5l-1.7-.6h.1c-.6-.1-1-.4-1.6-.7l-6.3-3.2c-2.1-.9-4.4-1.4-6.8-1.3-2 0-4.3.8-5.5 2.5l-.3-.4c.3-.7.8-1.2 1.4-1.7zm49-.2c2.5-1 5.3-1.5 8-1 1.7.3 3.5 1.3 4.3 3l-.3.5c-.7-1-1.7-1.8-2.9-2.2a13 13 0 00-6.5-.2c-2.5.6-4.7 1.8-6.9 3a26 26 0 01-7.2 2.9c-1 .2-2.1.2-3.2.2-1.3-.1-2.6-.7-3.2-1.8v-1c.3.5.6.9 1 1.1 1.3.8 2.7.8 4 .7 2.2-.3 4.2-1 6-1.9 2.4-1 4.5-2.4 6.9-3.3zM76 173l1.7.2h-.4l1.4.2-.2.1c1.8.5 3.4 1.3 5 2 2.6 1.2 5.1 2.3 7.8 2.8 1.3.2 2.5.4 3.7.2 1.2-.1 2.4-.6 3.2-1.5.4-.3.6-.8.7-1.2v-.6l.1 1.3a3 3 0 01-1.1 1.8 6.3 6.3 0 01-4.2 1.3c-2.8-.1-5.4-1-8-2-3.2-1.4-6.3-3.3-10-3.6l.3-1zm45.6.4l1.8-.2c.3 0 .3.4.4.7-.1 0-.2 0-.3.2-2.7.3-5.2 1.5-7.7 2.6a26.4 26.4 0 01-7.1 2.6c-1.3.2-2.6.4-4 .2a5.6 5.6 0 01-3.2-1.5 3 3 0 01-.8-1.9v-.4a4 4 0 001.3 1.8c1.4 1 3 1.2 4.7 1 1 0 2-.3 3.1-.4h-.3a35 35 0 005.8-2c2-1 4-2.2 6.3-2.7z"/><path d="M117.8 176.9c2-1 4.2-1.8 6.4-1.9l.2.8c-2.4.1-4.7 1-6.8 2-2.3 1-4.6 2.2-7 2.9-1.3.4-2.7.6-4.1.7-1.5 0-3.1-.3-4.3-1.2a3.7 3.7 0 01-1.4-2v-.3c.6 1 1.5 1.9 2.7 2.2a9 9 0 004.3.3c1-.1 2-.3 2.9-.6 2.5-.7 4.8-2 7.1-3zm-42.5-1.1l.2-.7c1.4 0 2.8.3 4.2.8 2.7 1 5.2 2.5 8 3.5 2.2.7 4.5 1.2 6.8 1.1a8 8 0 003.2-1v-.2c.5-.3.8-.8 1.1-1.3 0 .3-.6.6-.3 1v.3a5 5 0 01-3 1.9c-1.4.3-2.8.2-4.2 0a28 28 0 01-7.7-2.7 22 22 0 00-8.3-2.7z"/></g><g fill="#f3961c"><path d="M99 22c.3-.3.7-.4 1.1-.4.7.3 1.1 1 1.5 1.6v-.4l.6 1.1-.3-1.8c.5 1 .6 2 .5 3l.6-.4c-.3.4-.8.6-1 1-.5.8-.9 1.7-1 2.6l1.3-2 1.2-.9c.5-.2 1.1-.2 1.5.1.3.3.4.7.6 1l.2-.5.3.4-.2-1.7c.8 1 .5 2.3-.2 3.2-.6.7-1.5 1-1.6 2-1 .6-1.6 1.7-1.9 2.7.8-1 1.7-2 3-2.2.6-.1 1 .1 1.5.4V30c.4.7.4 1.7 0 2.4-.2.6-.6 1.2-1.1 1.6-.8.7-1.5 1.4-2 2.3-.4.7-.5 1.6-.6 2.5a6 6 0 01-.5-3.1l1-2c.3-.6.8-1 1.2-1.6-.6.2-1 .7-1.3 1.1-.5.7-1 1.5-1.3 2.3h-.2l-.8-3.1c0-.8.4-1.6.7-2.3.5-1.1 1.2-2 1.7-3l-.5.4a11 11 0 00-1.7 2.5l-.5 1-.2-.3c0-.8-.4-1.5-.5-2.3V27c-.2-1.4 0-2.8-.3-4.2-.1.7 0 1.5-.2 2.2h-.3c.1.3.3.7.3 1.1l-.3 2.6c-.4-1-.9-2-1.1-3.2a4 4 0 01-.1-1.9 3 3 0 011.3-1.4c.5-.2 1 0 1.4.2-.4-.6-1.2-.7-1.8-.4z"/><path d="M97.2 25.1c-.1-1 0-2.2.6-3.1-.3 1-.7 2-.4 3 .2.9.6 1.7 1 2.6.4.5.6 1.1.9 1.7l-.2.4c-.4-.6-.7-1.4-1.3-1.9.4.8.9 1.5 1.1 2.3v.6a20 20 0 00-1.7-2.5c-.5-.6-.9-1.2-1.5-1.6l.8 1.2c.7 1 1.2 2 1.7 3 .2.4.3.8.3 1.3l-.9-1.6c-.3-.4-.5-1-1-1.3.2.6.6 1 .8 1.5l1 2c0 .4-.1.8-.3 1.1-.5-.7-1-1.5-1.8-2 .4.5 1 1 1.3 1.7.2.4.4.8.3 1.2-.6-.7-1-1.7-2-2.2.6 1 1.4 2 1.7 3.1v.7c-.7-.7-1-1.6-1.6-2.2.5.8 1 1.7 1.3 2.7l-.1.7c-.4-1-.7-1.9-1.4-2.6.5 1 1 2 1.2 3.2 0 1.3-.5 2.6-.8 3.8l-.7 2.7-1.8 7.1c-.4 1-.4 2.1-1 3 0-.4.2-.9.4-1.3l3.2-12.6c.2-.5.4-1.1.3-1.7 0-1-.2-2.2-.8-3-.7-1.3-2-2.1-2.8-3.3.5 0 .7.5.9.8-.1-.7-.4-1.4-.1-2 .1-.7.7-1 1.3-1 .9.1 1.5.7 2.1 1.2a3 3 0 00-1-1.3l-1-.5h.3c0-.3 0-.6-.3-.8-.5-.7-1.3-1.1-1.6-2l.3.2v-.8l.3.7c0-.7 0-1.7.7-2 .6-.5 1.3-.2 2 0l-.7-1 1 .8zm15.3 8.2l.2-.4-.3 14.5-.1.7-1.7 2c.3-1.2.3-2.4.3-3.6v-1.9l.1-2.9v-2.2c-.3 1-1 2-1.5 3l-2 3.6c-.4.9-1 1.8-1.6 2.6-.2.2 0 .6 0 .9l1.2 4.5.4-.1-.4.6-2-7.7c-.1-.3 0-.6.2-.8l1-1.8v.7l2-3.6c1.3-2.4 2.8-4.8 4-7.3l.2-.8z"/><path d="M87.1 34a95.2 95.2 0 004.5 7.9c0 .2.2.3.4.4l.2.4 2 3.6c.2.2.4.5.3.8l-.6 2.3c-.1-.6-.8-1-1-1.5l-2.5-4.3c-.5-1-1.1-1.8-1.5-2.8v3.8c.1 2 0 3.8.2 5.7l-2-2.7-.1-2.4V43c.2.7-.1 1.6.2 2.3V34z"/><path d="M76 34.2l16.4 20.6c0 .2.2 0 .4 0l-.1.6-4-5-10.9-13.8-1.4-1.7c0 .9.4 1.8.3 2.7l-.6-3.4zm46.6 1.1l.9-1-.3 1.8-1.4 7.2v-.8l1-5.3.4-1.9V35l-.6.3zm-24.8 7.1l2-7.6.2.5 4 16 1.8 7h-12L94 57l.4-1.1 3.4-13.5m2.1-6l-4.8 19.1c-.1.9-.5 1.7-.6 2.6 0 .2.3.1.5 0h3.5l.4-.1h1.4a121.7 121.7 0 00.7 0 12.5 12.5 0 01.7 0l-.6-3.6.3 1c.3.9.4 1.8.8 2.7.1 0 .2-.1.2-.3-.2-1.3-.6-2.5-.6-3.8l.6 2.5.5 1.7.2-.3-.3-1.6-.7-3.6 1.4 5c0 .2 0 .5.3.4l-.1-.9-1.1-5.4 1.2 4.6c.2.6.3 1.2.6 1.7.2 0 0-.3 0-.5l-.7-3.7c-.1-.7-.4-1.3-.4-2l1.7 5.8c0 .2 0 .4.2.5 0-.6-.2-1.1-.3-1.7l-.9-4.2-1.7-7-2.2-8.5c0-.1 0-.3-.2-.4z"/><path d="M76.7 37.6c.4.3.3.8.4 1.3l.5 2.5.8 4 .5 3 .6 2.5v.7l-.5-2.2-2.3-11.8zm26.1 1.8l.3.7c1.3 5 2.5 10 3.9 14.9l.4-.4c-.1.2-.3.5-.6.6l-.3-1.2-3.3-12.9-.4-1.7zM79 40.8h.1a705 705 0 011.3 7l-.3-2.3-.7-4.2 3.3 4.3 10 12.8H92c-.6-1-1.5-2-2.3-3.1l-2.8-3.7-3.1-4-3.2-4-.6-.6c.1.6.5 1 .9 1.4l5.7 7.6a2 2 0 01-.5-.5l-4.8-6-1-1.1c0 .5.5.8.8 1.2l3.6 5c.7.8 1.4 1.6 2 2.6-1-1-1.6-2-2.4-3l-3.2-4-.6-.6.3.8 3 4 1.4 1.8.3.6c-.5-.4-.8-1-1.2-1.5l-2.7-3.4c-.2-.4-.5-.8-.9-1l.3.7 2.4 3.2 1 1.4-.5-.4-2.1-2.8-.9-1c0 .4.2.7.4 1l1.6 2c.3.5.7 1 .8 1.5-.5-.4-.8-1-1.2-1.5-.5-.6-.8-1.2-1.4-1.7 0 .2.1.5.3.7l1.4 2 1.4 2.1a7 7 0 01-1.3-1.6l-1.5-1.9c0 .3 0 .5.2.8l2 2.9 1 1.4c-.3-.2-.5-.4-.6-.7l-1.6-2-.8-1 .1.6c.6 1 1.5 2 2 3-.7-.6-1.1-1.6-1.8-2.3v.7c.4.6 1 1.1 1.2 1.8-.4-.4-.6-1-1-1.3 0 .8.6 1.3.9 2-.2-.2-.4-.5-.7-.6 0 .4.3.9.5 1.3h-.3l.3 1.3c0 .4.1.8.4 1l-.8.2-.6-4v.8a.6.6 0 01-.1-.7v-.3l-.8-4.9c0-.2 0-.4-.2-.7l.7 4.3a3 3 0 01-.3-1l-1.7-9.7c-.1-.9-.4-1.7-.4-2.6m1.3 7.1c.2.7.2 1.4.5 2l-.3-2h-.2zm36.5-2.3l3.6-4.5-.3 2.2-1.5 8.2v.6c.2-.5.2-1.1.3-1.6l-.1 1.4c-.1.4 0 .9-.4 1.2 0-.3.2-.6 0-.9l-.2 1.2v-.7l.6-3.8 1-5.3.3-1.7c-1.2 1.4-2.2 3-3.3 4.4l-7.5 10a30.8 30.8 0 00-1.5 2h-.9l.5-.6 9.4-12zm-50.7.8c1 .7 1.8 1.5 2.6 2.2l.2-.1.2.2-.2.1 1 .8 11.6 10.1-.8.2c0-.3-.2-.5-.4-.7-.7-.7-1.3-1.4-2.1-1.9-1-.3-1.5-1.5-2.4-2l-.7-.4c-.7-.5-1.2-1.5-2.1-1.8l-.5-.3c-.2.2-.2.4 0 .7l-.5.6.5-.2-.2.4.5.6h.2l.4.7-.1.4c.3.5.8.8 1 1.4l.9 1.1h-.5c.3.6.8 1 1 1.5l-.8-.8.3.6 1.3 1.5a3 3 0 00-1.3.9l-.4.3-5.3-9.7c-1-2.1-2.3-4.2-3.4-6.4zm62.7 4l4.7-4L132 49l-7.3 13.6c-.8-1-2-1.5-3.2-2-1.4-.4-2.9-.8-4.4-1v-.8l-.1.7a91.8 91.8 0 00-5.7-.9l2.4.2h.4c.5 0 .8.2 1.2.3h.8a5 5 0 01.6.2h.1l.2-1.5.3.1v1.5l.6.2h.2l10.6-9.2m-.7 1.8c-.1.5-.3 1-.2 1.6a9 9 0 00.6-2.3h-.1c-.3.1-.3.5-.3.7m-.6.3l-.3 1.4c0 .2 0 .4.2.5 0-.8.4-1.5.4-2.3-.2 0-.3.2-.3.4m-.8.8c0 .8-.3 1.5-.1 2.3.2-.5.2-1.1.3-1.7 0-.4.3-.8.1-1.2-.3 0-.2.4-.3.6M126 55c0 .6-.3 1.3 0 2 0-.8.2-1.5.3-2.3 0-.5.2-1 0-1.4-.4.4-.1 1.1-.3 1.7m-.6-.6l-.1 1.8V58l.2-1.8c0-.8.2-1.5.3-2.3-.2.1-.4.2-.4.5m-.7.5v1.5c-.2.7-.3 1.5 0 2.2l.3-3.9c0-.3-.3 0-.3.2m-.6.3l-.2.6V58c0 .6-.2 1.3 0 2l.2-2 .2-2c0-.3 0-.6-.2-.8m-.9 1.1v3.1l.1.9.1-2c.2-.8.1-1.6 0-2.4l-.2.4m-.6.5v2.4l.1 1.3c.3-1.3.2-2.6.3-3.9l-.1-.3c-.1.1-.3.3-.3.5m-.5.6v3.2c.4-.7 0-1.6.2-2.4.1-.5.2-.9 0-1.3-.2-.1-.2.3-.2.5m-.6.3V60l.1.5c.2-.4.2-.9.2-1.3v-1.8c-.2 0-.3.1-.3.3m-.6.3v1.7c.1.2 0 .5.2.7V58h-.2m-.5 1.3c0 .3-.1.7.2.8v-1.7c-.3.2-.2.6-.2.9m-.6-.4v1l.3.1v-1h-.3m-.5.5c-.2.1-.1.5.2.4 0-.1 0-.7-.2-.4zM60.5 51c.6-.2 1.3 0 2 0l-.7.3-1.3-.2z"/><path d="M117.7 55.3c.2-.6.2-1.3.5-1.8v.7l.1-.6v.9l-.2-.3-.6 3.3.4-1.3c0 .7-.1 1.4-.4 2v-.7c-.2-.8 0-1.5.2-2.2zm31.3-1.1l.8.2-1.7.3c.3-.2.8-.1 1-.5zm-99 .2s.2-.1.4 0h.1-.5zm99 .4c.8-.1 1.6 0 2.4.2.6.3 1.1.6 1.4 1.2l-.6-.4v.3c-.3-.5-.7-1-1.3-1.2v.3l-.4-.3-.1.3c-.4-.5-1-.5-1.5-.4zm-55 3.8c.5-.2 1 0 1.6-.1 4-.2 7.8 0 11.7.1 4.3.4 8.5.8 12.7 1.9 1.3.4 2.7.8 4 1.6.4.4.9.9.8 1.5 0 .5-.3.8-.6 1-.2-.2-.3-.6-.7-.8-.8-.6-1.7-1-2.7-1.3-2.5-.7-5-1.1-7.7-1.5-6.3-.7-12.8-.8-19.2-.6h-1.2v.3h1v.1c-2 0-4 .3-6 .5l-2.4.3c-1 .1-2.1.2-3.2.5h-.9c1.7-.4 3.4-.6 5.1-.8a74.8 74.8 0 01-9.3 2c-.7.2-1.3.7-1.6 1.4-.6-.3-.8-1.1-.5-1.7.3-.7 1-1 1.6-1.4 1.4-.7 3-1 4.5-1.4 3-.7 6-1.1 9-1.4l3.8-.2c-.4.3-1 .2-1.5.2-2.3.1-4.5.5-6.8.7l-6 1.2c-1.2.4-2.4.8-3.6 1.5-.4.3-.9.7-.8 1.3l.2.6a4 4 0 012.1-1.5c2-1 4.2-1.3 6.3-1.7l4.9-.7 2.9-.2h1.4l3-.3 10 .1 7.6.7c2.8.4 5.6.8 8.2 1.8.7.2 1.3.6 2 .5 0-.3 0-.5-.2-.7-.3-.3-.7-.4-1.1-.6-2-.8-4.2-1.2-6.3-1.6-2.3-.5-4.7-.6-7-.9-1.7 0-3.3-.3-5-.3H94zm-7.6.2H88l-4.8.7c1-.4 2-.4 3-.7z"/><path d="M102.5 60.6h1.8c4.8.2 9.6.5 14.3 1.6 1.5.3 3 .7 4.4 1.5.3.2.8.5.8.9l-1.2 3a4.6 4.6 0 00-2-1.5c-1.9-.8-3.9-1.1-5.9-1.5l-4.2-.5c1.1 0 2.2.2 3.3.1.5 0 1 .3 1.4.3l3.3.6c.4.1.6-.2.8-.4l-.5-.2.4-.4h.5V64l.1-.2-.2-.2h.5c0-.2.1-.6-.2-.8a8 8 0 00-2.1-.6c-3.6-.9-7.4-1-11.1-1.3h-1.9l-.2-.1c-.7-.2-1.4 0-2.1-.2zm-24.9 2.6a16 16 0 013.5-1c-.7.4-1.5.3-2 .7h.7l-1 .4.6.1-.2.2h.4v.2l.5.1-1 .4h.6l-.5.4a1540.7 1540.7 0 01.8.1h.3l-.4.4.8-.1a5 5 0 00-1 .4c1 0 1.9-.4 2.8-.6l1.5-.3 5.6-.7c2-.3 4-.2 6-.4h8.1c1 .2 1.9 0 2.8.2l3 .2-.5.1-5.8-.2c-1 0-2-.2-3-.1h-4.6c-3 .1-6 .3-9.1.7-2.3.3-4.6.7-6.7 1.4-1 .4-2.2.8-2.8 1.8l-1.3-3c.4-.8 1.2-1.1 1.9-1.4z"/><path d="M87 64.5c6.6-.7 13.3-.7 20-.4h-.2a143.2 143.2 0 00-17.4.4c-2.5.3-5 .6-7.5 1.2-1.3.2-2.5.6-3.6 1.3-.4.3-1 .6-.9 1.2 0 .2.4.4.6.2l1.2-.7a24 24 0 015.4-1.3 97.1 97.1 0 0120.3-1l2.8.1 5.7.5c2.2.4 4.6.6 6.7 1.4.6.2 1 .6 1.6.5.2-.4-.2-.7-.5-1-1-.6-2-.9-3.1-1.2a28 28 0 00-4-.7l-3.6-.5-2.6-.2c-.3 0-.7 0-1-.2 2.1 0 4.2.3 6.3.5 2.3.3 4.7.7 7 1.6.8.3 1.6.6 2.1 1.4.3.3.2.8.1 1.2h-.9c-.8-.7-1.8-1-2.7-1.3-2.5-.6-5-1-7.5-1.2l-7-.4h-7a116.5 116.5 0 00-15.5 1.4c-1.2.3-2.5.6-3.6 1.4-.3.2-.7 0-1 .1-.2-.4-.2-1 .2-1.4.5-.6 1.4-1 2.2-1.3 2.3-.8 4.9-1.2 7.4-1.6zm71.8 2.8c-.4-.6-1-1-1.3-1.5l1.4 1-.1.5z"/><path d="M84.3 67a99 99 0 0110.4-.8l2.9-.1h4.7c1.5.1 3 0 4.5.2 3.7.2 7.4.4 11 1.2 1 .2 2 .5 2.8 1 .2 0 .3.2.4.3H78.5a18.9 18.9 0 015.8-1.8zm66.7.4l.1-.1.1.1h-.2zm-20.6.6zm-80 .8l1.2.7v.3l-.6-.5-.2.3-.4-.8zm97.4.5l.3-.2-.2.2zm-48 .8c-.3-.3.3-.5.2-.1l-.2.1zm46.2 3.5h.1l-.1.2v-.1zM106.5 76h1.9l-.4.4v-.1c-.4-.4-1-.2-1.5-.4z"/><path d="M103.9 79c1.4-1 2.6-2 4-2.7a2 2 0 01-.5.5l-3.9 2.7c0 .2.1.3.3.4l1.8 2.3.7.9c-.5-.3-.9-.8-1.2-1.3l-2-2.3.8-.5zm-6.1 5c.7-.8 1.3-1.6 2.2-2.2 1.3 1.1 2.4 2.5 3.6 3.7l3 3.1a47.5 47.5 0 003 3.4l-2.6-2.7-6.9-7A25972.9 25972.9 0 0086 96.5l-.3.1c.1-.5.6-.8 1-1.2l3-3c.8-1 1.6-1.9 2.5-2.7l1.4-1.5c1.5-1.4 2.8-3 4.3-4.3zm44.5 1c.2 0 .1.4 0 .4s-.1-.2 0-.4zm-1.1.9v.1zm9.8 2.9l.4-1.4c-.4 2-.6 4.1-.4 6.2h-.9c0-1.9 0-3.7.4-5.5l-.2 2.2V93l.2.5c.5-.3.3-.9.3-1.3 0-1.1.1-2.3.3-3.4z"/><path d="M99 89.8c.2-.7.6-1.3.9-1.9.6.8 1 1.8 1 2.8a4 4 0 01-1 1.9 3 3 0 01-.9-2.8m1-1.5c-.6.7-.9 1.5-.9 2.3 0 .6.4 1 .7 1.5.5-.3.6-.8.7-1.3.4-.8 0-1.8-.6-2.5zm-49.7.2v.2c.2.6.2 1.2.3 1.9v3h-1.8a28.1 28.1 0 00-.1-4.9c.1 1.5.4 3 .1 4.5.2 0 .3.2.5.3l.2-.6v-2.1c.2.9.1 1.8.1 2.8h.9a29 29 0 00-.2-5.1zm47 2c.7.2 1.4.6 1.8 1.2.6.8.7 1.7.7 2.6-.6-.2-1.3-.4-1.8-1-.7-.7-.8-1.8-.7-2.8m.3 1.9c.5.5 1 1.1 1.7 1.3.3-.4.1-1 0-1.5a3 3 0 00-1.8-1.4c-.2.5 0 1 .1 1.6zm3.4-.9c.3-.6 1-.8 1.6-1 0 1 0 2-.6 2.7-.5.6-1.3.8-2 1.1 0-.9.2-1.9.8-2.7l.2-.1c-.4.8-.8 1.6-.7 2.5.5-.4 1-.6 1.5-1.2.3-.6.7-1.2.6-2-.5.1-1 .5-1.4.7zm-1.2 1.2l.3-.1-.2.8-.1-.7zm-2.5.7c.7.2 1.4.6 1.8 1.2.6.8.7 1.7.7 2.6-.6-.3-1.4-.5-1.9-1.1-.6-.8-.7-1.8-.6-2.7m.2.3c0 .5 0 1 .2 1.5.4.7 1 1.3 1.7 1.4v-1c-.3-.9-1-1.7-2-1.9zM41 94a4 4 0 011.2-.5h.6l-1.5.9.3-.5-.6.2zm2.7-.5h1l-1.2.7.4-.5h-.5l.3-.2zm57.6.5a3 3 0 011.3-.6c0 1 0 2-.7 2.7-.4.6-1.2.8-1.9 1.1 0-1 .3-2.4 1.2-3l-.7 1.2c-.2.5-.2 1-.2 1.4 1.2-.5 2.2-1.7 2.1-3l-1 .3zm52.7-.3l2.1-.2c.4.2.7.3 1 .6l-1.3-.4.4.5-1.2-.5h-1zm-7.5.3h2.5l-.7.2-1-.1.5.3h-.4l.4.6-1.3-1z"/><path d="M99 94.2c.4 0 .7.3 1 .5.2-.2.4-.4.8-.5-.4.7-.8 1.3-.9 2a4 4 0 00-.9-2zm45.3.1h2.1c-.4.8-.5 1.7-.3 2.5-.5-.7-.3-1.6 0-2.3l-.5-.1a.9.9 0 00-1 0l-.3-.1zm-.7.5h.1l-.1.3V95zm-46.3 1.5c.7.2 1.4.6 1.8 1.2.6.8.7 1.7.7 2.6-.6-.3-1.3-.4-1.7-1-.8-.7-1-1.8-.8-2.8m.2.3c-.1.7 0 1.5.5 2 .4.3.8.8 1.5.9.1-1.3-.7-2.6-2-2.9z"/><path d="M101.1 97.1c.4-.4 1-.6 1.5-.8 0 1 0 2-.7 2.7-.4.6-1.2.8-1.9 1.1a5 5 0 011-3c-.4.1-.5.5-.6.7-.3.4-.4 1-.5 1.4-.1-.8-.4-1.5-.9-2 .4 0 .6.1.9.3l.4-.2c.2-.2.5-.1.8-.1-.4.8-.9 1.6-.8 2.5.5-.3 1.1-.6 1.5-1.2.4-.5.7-1.2.6-1.9l-1.3.5zM88 97c.8.4 1.6.8 2 1.6.4.7.5 1.5.4 2.2a3 3 0 01-2-1.3c-.4-.8-.5-1.7-.4-2.5m.1.4a3 3 0 001.4 2.7c.2 0 .3.3.6.2.1-.6 0-1.1-.2-1.6a3 3 0 00-1.8-1.3zm21.8 1a6 6 0 012-1.4c0 .8 0 1.7-.5 2.5-.4.7-1.1 1.1-2 1.4 0-.9 0-1.8.5-2.5m.2 0a2 2 0 00-.3 2c1.2-.5 2-1.8 1.9-3-.7.1-1.2.6-1.6 1zm-19.5 1.2c0-.7.5-1.3 1-1.8.6.8 1 1.9.7 2.9-.1.7-.6 1.1-1 1.7-.5-.8-.8-1.8-.7-2.8m1-1.4a3 3 0 00-.9 2c.1.5.3 1.2.6 1.7.3-.5.6-1 .7-1.5.1-.8.1-1.7-.5-2.2zm16.6-.4c.5.4.8 1 1 1.5.2 1-.1 2.2-.7 3.1-.3-.6-.9-1-1-1.7-.3-1 .2-2 .7-2.9m0 .4c-.3.3-.4.8-.5 1.2-.2.8 0 1.8.8 2.2l.5-1.3c.2-.7 0-1.4-.5-1.9 0 0-.2-.3-.3-.2zM98 102c-.7-.8-.8-1.8-.7-2.8.7.2 1.5.6 2 1.3.4.8.5 1.6.5 2.5-.6-.3-1.3-.5-1.8-1m-.5-2.5c-.1.5 0 1 .2 1.5.4.6 1 1.2 1.7 1.4.3-1-.3-2.1-1.3-2.6l-.6-.3zm3.6.5c.4-.4 1-.7 1.5-.8 0 1 0 2-.7 2.7-.4.6-1.2.8-1.9 1.1 0-1 .2-2.3 1-3 0 .5-.4.8-.5 1.3-.2.4-.2.9-.2 1.3a3.4 3.4 0 002.1-3.1l-1.3.5z"/><path d="M99 100c.4 0 .6.2 1 .4l.7-.4c-.3.6-.7 1.3-.8 2a4 4 0 00-.9-2zm-7 2a3 3 0 011.3-1.8c.4.8.8 1.9.4 2.8-.2.7-.8 1.1-1.2 1.7-.4-.8-.6-1.8-.4-2.7m.5-.8c-.6.9-.5 2 0 3 .8-1 1.4-2.4.7-3.6-.4-.1-.6.4-.7.6zm13.4.4c.2-.5.3-1 .6-1.4.4.2.7.7 1 1 .4 1 .2 2.2-.1 3.1 0 .2-.2.3-.4.4.2-.2-.1-.4-.2-.6a2.7 2.7 0 01-.9-2.5m.6-1.1c-.3.6-.5 1.4-.4 2.1.1.6.6 1 1 1.4l.4-1.5c.1-.8-.4-1.5-1-2zm-19.6-.1c.7-.1 1.5-.2 2.1.1 1 .4 1.6 1.2 2 2-.7 0-1.4.2-2.1 0-1-.4-1.6-1.2-2-2m.4 0l.2.5c.5.5 1 1 1.7 1.1.5.2 1 .1 1.4.1-.6-1-2-2-3.3-1.7zm22.1 1a3 3 0 013.3-1c-.4.8-1 1.7-2 2-.7.2-1.4 0-2 0 0-.3.3-.6.5-.9l-.1.6c.6 0 1.3 0 1.8-.2.6-.3 1-.9 1.5-1.3-.5-.3-1-.2-1.5 0-.6 0-1 .5-1.5.8zm-19.4-.5h.5v.5l-.5-.5z"/><path d="M108 101.9l.4.8h1c-.1.2-.4.3-.6.4l-1 1 .2-2.2zm-16.6.8c.1-.3.2-.5.5-.7 0 .7 0 1.5.2 2.2l-.8-.8-.9-.7h1zm6.4 2a4 4 0 01-.5-2.6c.7.2 1.5.6 2 1.3.4.7.5 1.6.5 2.5-.7-.3-1.5-.6-2-1.2m-.3-2.3c-.1.5 0 1 .2 1.5a4 4 0 001.6 1.3c.4-.5 0-1.2-.3-1.7a2 2 0 00-1.5-1.1z"/><path d="M101.1 102.9c.4-.5 1-.7 1.5-.8 0 1 0 2-.7 2.7-.4.6-1.2.8-1.9 1.1 0-1 .2-2 1-2.9-.3 0-.4.2-.5.3-.3.5-.4 1-.6 1.6a4 4 0 00-.9-2c.4 0 .6.2.9.4l.4-.2c.2-.2.5-.2.8-.2-.4.8-.9 1.7-.8 2.6.6-.3 1.1-.6 1.5-1.2a3 3 0 00.6-2l-1.3.6zm-12.5-.1a3 3 0 011.8.2c.8.3 1.4 1 2 1.8l-1.2.2c.4.2 1-.1 1.4 0 0-.3.3-.5.5-.8v2.5c-.4-.5-.7-1-1.3-1.3-.2 0-.5-.2-.5-.4-1.4.1-2.6-1-3.1-2.1l.3-.1.3.6c.4.4.9.8 1.4 1 .6.3 1.2.2 1.8.2a4 4 0 00-1.8-1.5l-1.5-.3zm20.1.7c.7-.8 2-1 3-.6-.5.9-1.2 1.8-2.3 2-.6.2-1.2 0-1.9 0 .2-.4.5-.8.8-1a7 7 0 01-.4.7c.7 0 1.5 0 2-.3.6-.3 1-.8 1.4-1.3a3 3 0 00-1.1 0c-.6 0-1 .4-1.5.5zm-53.5-.3l1-.4.5.3h-1.5zm38.1 1.4c.1-.7.6-1.3 1.2-1.8.5 1 .8 2 .4 3-.3.6-.9 1-1.3 1.5-.3-.8-.6-1.8-.3-2.7m.4 2.2c.5-.4.7-1 1-1.6.2-.7.1-1.4-.3-2-1.1.8-1.3 2.4-.7 3.6zm11.6-3.9a3 3 0 011.4 2.1 6 6 0 01-.5 2.3c-.5-.5-1-1-1.3-1.7-.3-1 0-1.9.4-2.7m0 .2a4 4 0 00-.2 2.4c.2.5.5 1 1 1 .2-.5.3-1.1.3-1.7 0-.7-.5-1.3-1-1.7zm38.2-.3c.4.2 1 .5 1.4 0h.5a3 3 0 01-2.4.2c.1 0 .3 0 .5-.2z"/><path d="M106.7 104.2l.4.5.2.4.6-.1.6.1-1 .8-.8.7v-2.4zm-23 1.3c1-.4 2-.7 3-.8-.3.4-.8.7-1.2 1-1.6 1.3-3 2.7-4.2 4.3a12 12 0 00-1.8 2.7c-.1.6.4 1 .6 1.5-.4-.3-1-.6-1-1.1.2-1 .8-1.8 1.3-2.6 1-1.2 2-2.5 3.2-3.4.7-.8 1.7-1.3 2.5-2.1a15 15 0 00-4 1.5l-1.8 1c1-.9 2.2-1.5 3.4-2zm13.6-.5c.8.1 1.6.6 2 1.3.4.7.5 1.4.5 2-.9 0-1.9-.5-2.2-1.3-.3-.7-.3-1.4-.3-2m.2 1c0 1 1 1.8 2 2 .1-1.2-.8-2.4-2-2.8-.1.2 0 .5 0 .8zm3.2.2c.4-.7 1.1-1 1.9-1.3 0 1 0 1.9-.6 2.6a3 3 0 01-2 .9c0-.8.2-1.6.7-2.2m.4-.3c-.6.6-.8 1.4-.8 2.3.8-.2 1.5-1 1.8-1.7l.3-1.2a2 2 0 00-1.3.6zm-11.8-.6a3 3 0 012.3.2c.5.3 1 .7 1.3 1.2-.5-.2-.7-.7-1.2-1-.6-.4-1.4-.4-2-.3a3 3 0 001.6 1.5c.5.3 1.1.3 1.7.3v-.5l.4.7a4 4 0 01-2.3-.1 3.7 3.7 0 01-1.8-2zm19 .2c.6-.5 1.5-.3 2.2-.2-.3.9-1 1.8-2 2-.7.3-1.4.1-2 0l.3-.5v.3c.8 0 1.5 0 2.2-.3.5-.4.9-.9 1.2-1.4-.6-.1-1.3 0-2 .1zm-13.5.9c.3-.3.5-.7 1-.8.3.8.4 1.7.2 2.6-.2.7-1 1.2-1.5 1.7-.4-1.1-.5-2.5.3-3.5m-.2.8c-.3.7-.2 1.6 0 2.3 1-.8 1.7-2.3 1-3.6-.5.3-.8.8-1 1.3zm9.4-1.6c.6.2 1 .8 1.3 1.3.5 1 .3 2 0 3-.5-.4-1-.8-1.3-1.4-.5-1-.3-2 0-2.9m0 2a2 2 0 001 1.6c.2-.2.2-.5.2-.7 0-.5.2-1 0-1.4-.2-.5-.5-.9-1-1.2-.3.5-.3 1.1-.3 1.7z"/><path d="M99.1 105.8c.3 0 .6.2.9.4l.6-.4c-.2.6-.6 1.2-.7 2-.1-.8-.4-1.4-.8-2zm14.2.5c.9 0 1.8.2 2.6.5-.7 0-1.4-.4-2.1-.4-.3 0 0 .3 0 .4 1 1.3 1.8 2.6 2.7 4l6.1 8.9.5.6v.3l-8.3-12-1.5-2.3zm-7.7.7c.2.1.5.3.6.6h1.3c-.5.3-1 .6-1.3 1l-.5.7c.1-.8.1-1.6-.1-2.4zm-12 .6l.6-.7c-.2.8-.1 1.6 0 2.5l-1-1.1-.8-.7h1.2zm13.2.8c.6-.8 1.7-1 2.7-.8-.3 1-1 2-2 2.3-.6.2-1.3.1-2 .1.4-.6.7-1.2 1.2-1.6-.1.5-.6.9-.8 1.4.6 0 1.2-.1 1.7-.4.7-.4 1.2-.9 1.6-1.5-.9-.4-1.7.2-2.4.5z"/><path d="M90.4 107.6c.6 0 1.3 0 2 .2.8.5 1.4 1.3 1.9 2.2-.7 0-1.3.1-2-.1-1-.4-1.6-1.3-2-2.3m.4.3l.7 1c.3.2.6.5 1 .6l1.5.3a4 4 0 00-1.6-1.8c-.5-.2-1-.2-1.6-.1zm4.6 2a3 3 0 011.5-1.6c.3.9.5 2 0 2.8-.3.7-1 1-1.4 1.5-.3-.9-.4-1.8-.1-2.7m1.1-1.2c-1 .7-1.3 2.2-1 3.4a3 3 0 001.1-1.3c.3-.6.5-1.3.2-2 0 0-.1-.2-.3 0zm6.6-.4a3 3 0 011.7 2c0 .8 0 1.6-.3 2.3-.5-.5-1.1-.9-1.4-1.5-.4-1-.2-2 0-2.8m.1.4c-.2.8-.3 1.7.2 2.5.2.3.6.5 1 .8 0-1 .4-2-.3-2.7-.3-.3-.5-.7-.9-.6zm-3.7 17v-17.1h1V126c0 .2-.2.3-.4.3.2-.5.2-1 .2-1.4v-15.8c0-.3-.3-.4-.5-.4-.2 1 0 2-.1 3V126c-.2 0-.2-.3-.2-.4z"/><path d="M94.5 110.3c.2-.3.4-.6.7-.7-.3.7-.2 1.5-.2 2.3-.5-.6-1-1.3-1.7-1.7a2 2 0 011.2 0zm10.1-.7c.3.1.5.4.7.7.4-.2.8-.2 1.2 0-.7.4-1.3 1-1.7 1.7 0-.8 0-1.6-.2-2.4z"/><path d="M106.5 110.4c.6-.3 1.3-.3 2-.3-.3 1-.9 2-1.8 2.3-.7.3-1.4.2-2 .3.4-1 1-1.8 1.8-2.3m-.5.7c-.4.3-.8.8-.9 1.3.7 0 1.5-.2 2-.7.5-.4 1-.8 1-1.4-.7-.1-1.6.2-2.1.8zm-14.6-1c.7 0 1.5 0 2.2.5.7.5 1.2 1.3 1.5 2-.6 0-1.2.1-1.8-.1-1-.4-1.7-1.4-2-2.4m.3.2c.2.7.8 1.2 1.4 1.6.5.4 1.2.4 1.8.5-.1-.4-.5-.8-.8-1.2-.6-.7-1.5-1-2.4-.9z"/><path d="M96.2 112.5a4 4 0 011.4-1.5c.3.8.5 1.7.1 2.6-.3.7-1 1.1-1.6 1.4-.1-.3 0-.6-.3-.8v.6a5 5 0 00-1.4-2l1 .1c.2-.2.3-.5.6-.6l-.2 1.2c.3-.3.2-.7.4-1m.4-.3c-.5.7-.5 1.5-.4 2.3.6-.2 1-.8 1.3-1.3.3-.5.1-1.2 0-1.8-.4.1-.7.5-1 .8m-.7 1.3v.7c.1-.2.2-.6 0-.7zm6.4.2c-.4-.9-.3-1.8 0-2.7a3 3 0 011.5 1.7 3 3 0 010 2.3c-.6-.3-1.2-.7-1.5-1.3m0-.9c.1.8.7 1.3 1.3 1.7.2-.3.1-.7.1-1 .1-1-.5-1.7-1.2-2.1-.3.4-.3 1-.2 1.4zm-6.2-.5c.1 0 .1 0 0 0z"/><path d="M103.8 112.2l.7.7h1a5 5 0 00-1.4 1.8c0-.9 0-1.7-.3-2.5zm-11.5.4c.9 0 1.8.2 2.4.8.5.4.9 1 1 1.7-.8.2-1.7 0-2.3-.5-.6-.5-1-1.3-1-2m.2.3c0 .5.5.8.8 1.2.5.5 1.3 1 2 .7-.3-1-1.1-1.8-2.2-2h-.6z"/><path d="M105.6 113c.5-.3 1.2-.5 2-.4-.2.7-.5 1.4-1.1 2-.6.5-1.6.7-2.4.5.3-.8.7-1.6 1.5-2m.6-.2c-.9.3-1.5 1.1-1.8 2 .8 0 1.6-.3 2.1-1 .3-.3.8-.7.7-1.2l-1 .2zM73.3 114c0-.4.2-.6.4-.8v.3h.5l-.6 1c-.2-.2-.4-.3-.3-.6zm52.5-.8c.3.2.5.6.7 1 0 .2-.1.6-.4.5l-.4-.6h.4l-.3-1zm-54.3 8.5c.3-2.8 1.3-5.5 2.8-8l-.2.6c.8.6 1.4 1.2 2.3 1.6.6.3 1.2.7 1.9.9.2 0 .3-.2.4-.4.5-.7 1.2-1.4 1.4-2.2.1 0 .4.1.2.3l-2 3.1-1.5-.3c-.3 0-.4.2-.5.4a22 22 0 00-3.4 7l-.5 3c-.8-1.8-1-4-.9-6m1.2-4.6l-1 3.8c0 1-.2 1.9 0 2.8l.1 1.8c.2.4.1 1 .5 1.3l.6-3.1 1-2.8 1-1.8c.4-.3.5-.8.8-1.2.2-.2.5-.5.2-.7l-1.1-.8h-.2l-.7-.8v-.8a10 10 0 00-1.2 2.3zm6.3-.1l1.5-2.3 36.1 22.2 2.3 1.5c0 .7-.4 1.4-.8 2-.3.3-.7.7-1.2.6-.3 0-.6-.3-1-.5l-37.2-22.9c0-.2.1-.4.3-.5m.7-.6c0 .2-.2.4 0 .6l5 3 4.4 2.8 9.2 5.6 7.1 4.4 6.6 4c1.1.6 2.1 1.4 3.3 2 .6.3 1.1.8 1.8 1 .1.2.3.3.5.2.6-.4.8-1 1.1-1.6a2 2 0 00-.7-.5l-9-5.6L81 115c-.1 0-.3-.2-.5-.1l-.8 1.5zm15.8-1.2c.4 0 .7-.2 1-.3.5 3.3 1 6.6 1.1 9.9l-1-.6-.3-4 .2.8c0 1 .2 2 .3 2.9 0 .3.3.4.6.5 0-1.8-.3-3.6-.5-5.4l-.6-3.8c-.2.1-.4.1-.5.3l.2 2c.1.8.4 1.7.3 2.6L96 119l-.6-3.7zm7.9-.3l.9.3c-.5 3-.9 6-1.1 9 0 .2-.1.4-.3.5l.6-5.8c.2-1.2.5-2.4.5-3.6-.3-.1-.6-.1-.6.2l-.9 6.7c0 .9-.3 1.8 0 2.7l-.4.2c.3-3.4.7-6.8 1.3-10.2zm-3 11.6l18.6-11.4.7 1-.7-.8-4.4 2.7-11.9 7.3-2 1.3c.7.4 1.4.7 2 1.2-.5-.1-.9-.4-1.3-.7l-1-.6zm43.6-3.8a32.8 32.8 0 01.8-6.3c-.3 1-.3 2.2-.5 3.2v2.3c-.3 1.6 0 3.3-.2 4.9v-4zm-24.2-6.4l1.1 1.6c-2.2 1.5-4.6 2.8-6.9 4.2l-8.8 5.4-1.6 1-.5-.3h.1c.5-.5 1-.7 1.5-1l7-4.4c.8-.5 1.6-.9 2.2-1.5l6-3.6c.5-.3 0-1 0-1.4zm-77.3 1.2c.4.6.3 1.3.5 1.9.3 1 .3 2.2.4 3.2v5.9c-.2 3-.5 6-1 9l-.4 2c.1-1.8.5-3.6.8-5.5.3-2.1.5-4.3.6-6.4 0-3 0-6-.7-8.8l-.2-1.3zm86.5 2.1l.1.1c0 .3 0 .6-.3.8a18 18 0 00-2.8 2c-.3.1-.6.3-1 .2l-.3-.4c.3.1.6.2.9 0l3-2.2c.3-.1.3-.3.4-.5zm-73.5 7.7c.2-2 0-4.1.1-6.2l.1 2.2c.1 5-.8 9.9-1.6 14.8-.7 4.4-1.3 8.8-1 13.3l-.1 1.4v-7.3c0-1 .3-2 .3-3.1l.5-3.2.2-1.5.5-2.6.6-4.5.4-3.3zm40.9 1.6c.3-.2.5.1.7.2.9.6 1.9 1 2.7 1.8l-15.7 9.5c-.3.2-.6.5-1 .3-.7-.3-1.2-1-1.5-1.8-.1-.3-.2-.8.1-1l14.7-9m-.1.3l-13.8 8.4-.5.5c-.2.1 0 .4 0 .5l.8 1.2c.1.2.4.3.6.2 2.4-1.4 4.8-3 7.2-4.3 1.3-.9 2.6-1.7 4-2.4.8-.6 1.7-1 2.5-1.7.5-.3 1-.5 1.4-1-.4-.6-1-1.1-1.8-1.4-.1-.1-.3 0-.4 0zm3.1 2.2c.3-.2.8-.6 1-.2v24a1 1 0 01-1 .1v-24m.5.2c-.2 0-.3.3-.3.6V155c-.1.3.4.5.5.2v-23.6h-.2zm2 .8l.5.1c.2 0 .4.2.4.4 0 6.6.3 13.2 1.1 19.7-.3.2-.7.2-1 .2l-.2-1.5.4 1.3h.5c0-.8 0-1.5-.2-2.3l-.4-4.2c-.2-1-.1-2-.2-3l-.3-8.7V133c-.3 0-.6-.2-.6-.5zm-4.9.6c.3-.3.6-.4 1-.6a155 155 0 01-1 20.3c-.4.2-.8 0-1 0 .3-3.5.7-6.9.8-10.3.2-3.2.3-6.3.2-9.4m.2.5v5c0 .8 0 1.7-.2 2.4 0 3.6-.4 7.1-.8 10.6 0 .4-.2.7 0 1 .1.2.4.1.6 0l.2-1.8.5-7c0-1 .2-2.2.1-3.2l.1-6.4v-1.2c-.3.1-.5.3-.5.6zm-56.6 18.8v-3c.2.9 0 1.8.1 2.7.2 1.6-.1 3.3.3 4.9 0 1.3.4 2.6.7 4l.5 1.8a29.4 29.4 0 01-1.6-10.4zm98.1 10.9zM63 164.6zm38.2 2c0-.6.3-1 .6-1.4l-.1.5h.3l-.8.9zm-32.5 1.5c-.6-.8-.3-2 .2-2.8l.2.5c-.3.5-.8 1-.5 1.7 0 .2.2.3.3.4l-.2.2zm45.9-2.3h.2l-.2.1zM98.2 168l.4-.4.1 2.4-.2-.7v-1c-.1.3-.3.5-.6.7l.6-1h-.3zm-49.8 2.3h.2v.1h-.2zm26.9 1.1l1-1c0 .3 0 .5-.2.7l-.5.6c0-.2-.1-.3-.3-.3zm48.5.6l.3.1-.1.3-.2-.4zm-71.1.2l.2.1h-.2zm68.9 1.2c.7-.3 1.4-.3 2.1-.4l.3 1.1h-.5l.3-.2c-.1-.3 0-.7-.4-.7l-1.8.2zM99 177.6v.1a3 3 0 01-.5 1.6v-.3c-.3-.4.2-.7.3-1l.2-.4zm26.2 0l.4 1.1 1 1-.7-.3v.4l-.2-.2-.5-2zm-51.9 2l1-1-.1.4-.3 1.2c0 .4-.3.7-.4 1H73c.3-.4.8-.7.8-1.3l-.6.4c.2-.4.7-.6.7-1l-.7.3z"/></g><g fill="#e21b22"><path d="M60.1 51.2l.4-.1c.4 0 .9 0 1.3.2 2.1.5 3.8 2 5.4 3.5 2 1.7 3.6 3.6 5.7 5.1h.2l.6 1.4C70.5 59 68 56 65 53.7c-1-.8-2-1.6-3.2-2l-1.7-.5zm74.1 2.1c1.4-1.1 3-2.1 5-2.3l.7.3a7 7 0 00-3.6 1.2c-1.8 1.1-3.3 2.6-4.8 4a39.2 39.2 0 01-5.7 5c.1-.5.4-1 .6-1.4.6-.1 1-.5 1.3-.8 2.3-2 4.2-4.2 6.5-6z"/><path d="M53.8 53.2l5.3-1.7 2 .5c1.6.7 3 1.8 4.3 3 1.8 1.5 3.4 3.3 5.3 4.9a45 45 0 003.7 2.9c.3.4 0 1 .3 1.4.2.4.5.7 1 .8l1 2.6c.2.4.3.8.2 1.2h-1.7a39.4 39.4 0 01-10.1-6.5L61 58.5c-1.6-1.5-3.2-3-5-4a10 10 0 00-2.5-.9l-.4-.1.7-.3zm86.8-1.7l6.9 2.2c-1.6-.3-3.1.4-4.4 1.2-2.2 1.3-3.9 3.2-5.7 4.9a42 42 0 01-13 9h-1.7l.1-1.3L124 65c.4-.1.8-.3 1-.7.2-.4.1-1 0-1.4l1.7-1a43 43 0 002.6-2.1l5.5-5.2c1.2-1 2.5-2 4-2.6.7-.3 1.3-.3 2-.5z"/><path d="M52 53.8l1.4.4c1.5.4 2.7 1.2 3.9 2.1 1.8 1.4 3.4 3.2 5.1 4.7a49.7 49.7 0 0011.1 7.8h-1.3l-3.7-2c-3-2-5.7-4.3-8.2-6.8-1.5-1.4-3-3-4.8-4.2a9 9 0 00-4.4-1.6l.8-.4zm96 .1c.4 0 .7.2 1 .3-1.5 0-3 .6-4.3 1.4-2 1.2-3.5 2.8-5.2 4.3-3 3-6.3 5.8-10 7.9l-1.9 1h-1.5c4.4-2 8.2-5 11.7-8.2 1.7-1.6 3.4-3.4 5.4-4.8a9 9 0 014.8-1.9zm-30 .3l.2.3-.3 1.7c-.1.5-.2 1-.4 1.3l.6-3.3z"/><path d="M49.2 54.8c2-.2 3.8.4 5.3 1.5 1.4 1 2.6 2 3.9 3.2l1 1c.8 1 1.8 1.7 2.7 2.6l2 1.6-4.4 2.4-1.4.7a3 3 0 00-.2-3.3 9.6 9.6 0 00-3.6-2.5c-1.2-.6-2.5-1-3.6-1.8a5 5 0 01-2-3.7c0-.6.4-1.2.8-1.7h-.5z"/><path d="M48.1 55l1-.2a3 3 0 00-1 2.7c.2 1.3 1 2.3 1.9 3a8 8 0 002 1.2c1.5.6 3 1.3 4.2 2.2.9.7 1.6 1.6 1.7 2.7 0 .6-.2 1.1-.3 1.7l-1 .4c.4-.7.5-1.5.3-2.2-.1-.8-.6-1.4-1.1-1.9-1-.9-2.3-1.5-3.5-2l-2.6-1.3c-1-.7-2-1.8-2.3-3-.2-.7-.2-1.5 0-2.1l.7-1v-.1zm94.5 3.4c1.8-1.6 3.8-3.3 6.3-3.6.6 0 1.1-.1 1.5.4.5.6.5 1.5.3 2.3a5 5 0 01-2 2.8c-1 .8-2.4 1.1-3.5 1.7a9.2 9.2 0 00-3.6 2.6c-.7 1-.8 2.3 0 3.3l-6-3.2c2-1.5 3.6-3 5.3-4.7l1.7-1.6z"/><path d="M150.9 54.9c.6.1 1 .7 1.3 1.2.5 1 .4 2-.1 3a6.3 6.3 0 01-3 2.7c-1.9.8-3.8 1.6-5.2 3-.8.7-1.3 1.8-1.2 2.9V67c0 .6.1 1.1.4 1.6a16 16 0 01-.8-.4 3 3 0 01.3-3.4c1-1.3 2.4-2 3.9-2.7.9-.4 1.9-.7 2.7-1.3 1.1-.7 2-1.7 2.4-3 .2-1 0-2-.7-2.7v-.3zm-33.5 2.6l.1.8-.1.6v-1.4zM48.8 62h.3c1.8 1 3.9 1.6 5.5 3 1 .8 1.8 2.3 1.3 3.6-1.1 0-2.1-.5-3-1.1-1.1-.8-2-1.8-3.2-2.5a6.1 6.1 0 00-4.3-1l3.4-2z"/><path d="M150.6 62h.4l3.3 2a7 7 0 00-4.8 1.4c-1.3 1-2.4 2.1-4 2.8-.4.2-1 .4-1.6.4-.3-1-.1-2 .5-2.9.8-1 2-1.6 3.1-2.3l3.1-1.4zM44.3 64.8c.1-.1.3-.4.5-.4l1.6.1c1.5.2 2.7 1 3.8 1.9l2.2 1.7c1 .6 2 1 3.2 1l-.4.5c-.7 0-1.4 0-2-.3-1.4-.6-2.6-1.6-3.7-2.5a7.5 7.5 0 00-4.5-2h-.7z"/><path d="M153.2 64.5h1.8c.2 0 .3.2.5.3-.6 0-1.2 0-1.8.2a9.2 9.2 0 00-4 2.2c-1 .8-2 1.7-3.3 2.1l-1.8.3-.4-.5c2 0 3.7-1.3 5-2.5a8 8 0 014-2zm-109.4 1a8 8 0 014.8 1.8c-.2 1 .1 2 .5 3 1.1 2.8 2.8 5.3 4.6 7.7 1.4 1.7 2.5 3.6 3.2 5.7v-.1l.6 1.8c.7 2.9 1 5.8.7 8.7-.2 2.3-.6 4.7-1.9 6.8-.5.8-1.3 1.4-2.2 1.8-.4-.6-.6-1.3-.3-2 .3-1 1.2-1.5 2-2.2a3 3 0 00.7-3.5 2 2 0 00-1.2-1c-1.2-.2-2.5-.1-3.8-.3l-.1-4c0-.7-.2-1.3-.3-2-.5-2.5-1.6-4.7-3-6.7-1-1.6-2.3-3-3.3-4.6a14 14 0 01-2.7-6.3c-.2-1.7.4-3.4 1.7-4.6zm107.3 1.8c1.4-1 3.1-1.8 5-1.8.3.5.8 1 1 1.6a6 6 0 01.4 4.2 16 16 0 01-2.2 4.5c-.9 1.5-2 2.8-3 4.2a19 19 0 00-3.6 7.6v.1l-.4 2.3v3.7l-3.7.2a2 2 0 00-1.5 1.4 3 3 0 00.4 2.5c.5 1 1.7 1.5 2.2 2.5.4.6.5 1.5 0 2.1l-.1.3a5 5 0 01-2.7-2.8c-.7-1.5-1-3-1.2-4.6-.3-2.3-.3-4.6 0-6.9 0-.8.3-1.6.4-2.4v.1a19.2 19.2 0 012.7-6.4c.6-1 1.3-1.8 2-2.7 1.1-1.6 2.2-3.3 3.1-5 .7-1.4 1.4-3 1.3-4.6v-.1z"/><path d="M42.1 65.9c.3-.2.6-.2 1-.2a5 5 0 00-2 3.5c-.1 1.8.5 3.6 1.4 5.2.7 1.5 1.7 2.9 2.7 4.2l2.2 2.8a18.5 18.5 0 013 12.1h-.8v-2.7c-.2-3.6-1.5-7.1-3.7-10a26 26 0 01-5-7.8c-.8-1.8-1-3.8 0-5.5.3-.6.8-1 1.2-1.6zm114.6-.2l.8.1c.4.6 1 1 1.3 1.5.7 1 .8 2.4.7 3.6a12 12 0 01-1.8 4.5 40 40 0 01-3.2 4.6 18.5 18.5 0 00-4.4 13.6h-.9v-2.5c.1-3.3 1.1-6.5 2.9-9.2.8-1.4 2-2.6 2.9-4 1.2-1.6 2.3-3.3 3-5.2.6-1.4.9-3 .4-4.6-.3-1-1-1.8-1.7-2.4zM49.4 68l1 .8.4.8c1.3 3.3 3.4 6.2 5.5 9 1 1.5 1.8 3.1 2.4 4.7v3.4-.1c-.6-2.9-1.7-5.7-3.5-8a48.3 48.3 0 01-4.5-6.8c-.5-1.2-1-2.4-1.3-3.8zm99.8.9l1.1-.9c-.2 1.5-.8 2.8-1.4 4-1 1.8-2.1 3.6-3.4 5.2a21 21 0 00-4.3 8.8v-3.1c.6-1.7 1.5-3.4 2.7-4.8 1.3-1.8 2.5-3.5 3.6-5.4a16 16 0 001.7-3.8zm-90 .4h40.5l-2 6.1-4.7.3c-.8.1-1.5 0-2.3.2l5.5 3.6c0 .2 0 .4-.2.5l-36 42.5-.7.9V69.3zm40.9 0h40.5l.1 3v24c-.2 1 0 2.1 0 3.2v17.7c0 .5-.1 1 0 1.6v4.5L131 112a50961.2 50961.2 0 00-27.4-32.5L109 76v-.1l-1.8-.1c-1-.2-1.9-.1-2.8-.2-.8 0-1.5 0-2.3-.2l-1.9-5.5v-.6zM42.2 93.5h1.5l-.3.2a6.3 6.3 0 00-3.2 3.7 20.5 20.5 0 00.2 9.5 38 38 0 002.4 6.4A27.4 27.4 0 0145 127c0 4.1-.8 8.2-1.4 12.3-.6 4-1.3 7.9-1.3 11.9a28.1 28.1 0 001.2 10.2v-.7a6 6 0 001 2.8c1.2 2.4 3.1 4.5 5.6 5.7 1 .6 2.2.9 3.3 1.5 1.6.8 3 2 4.1 3.4 1.3 1.7 2.4 3.4 4 4.7 1.8 1.3 3.7 2.4 5.8 2.7a9 9 0 004.3-.4 5 5 0 001.6-1l.6-.3c0 .6-.5.9-.8 1.2a7.5 7.5 0 01-5.4 1.4c-2.3-.2-4.4-1.3-6.2-2.6a21 21 0 01-4.2-4.6c-1.2-1.6-2.6-3-4.4-3.8-1-.6-2.1-.9-3.2-1.4a13 13 0 01-5.4-4.9 20.7 20.7 0 01-2.6-8c-.5-4-.3-8 .2-12 .8-6.5 2.4-13 2.3-19.5a28 28 0 00-1-8.3c-.5-2-1.3-3.7-2-5.6a30.6 30.6 0 01-2.5-9.6c0-1.4 0-2.8.4-4.1l.3-1v.1c.4-1 1-2 2-2.8l1.4-1h-.6zm113.9 0h1.5-.6l1.6 1c1.2 1 1.9 2.6 2.2 4.2.5 2 .3 4.2 0 6.2-.1.7-.5 1.3-.4 2v-.4a40 40 0 01-2.4 6.9 28.7 28.7 0 00-2.4 12.2c-.2 9.2 3 18.2 2.7 27.5a32 32 0 01-.9 7.2c-.6 2.4-1.7 4.8-3.3 6.7a14 14 0 01-5.7 3.8c-1.7.6-3.3 1.5-4.5 2.9-1.5 1.5-2.6 3.3-4 4.8a14.9 14.9 0 01-6.9 4c-1.4.1-2.9.1-4.3-.3a6 6 0 01-2.8-1.8l-.2-.8.2.2c.6.6 1.3 1.2 2.2 1.3l-.3.1.9.2h-.2c1 .2 2 .4 3 .3a13 13 0 006.7-2.9c1.8-1.4 3-3.4 4.4-5.1 1.3-1.6 3.1-2.9 5.1-3.6a12 12 0 005.6-3.7 14.9 14.9 0 003.2-6.3c.4-1.7.7-3.4.8-5.2.2-1.7 0-3.4 0-5-.2-5.8-1.5-11.4-2.2-17.1a47.9 47.9 0 01.2-14.4l1-3.5 1.2-3a32 32 0 002.5-8.5c.1-1.4.2-2.7 0-4-.3-2-1.2-4.2-3-5.3-.2-.3-.5-.4-.9-.6z"/><path d="M44.7 93.6l6 .3v.2c-1.3.4-2.2 1.7-2.7 2.9a12 12 0 00-.5 5.3c.1 1.4.5 2.7.9 4 .2.6.4 1 .4 1.6l.1-.3c.2 1 .7 1.7 1 2.6a27.6 27.6 0 013 11.5v3.7c-.1 5.1-1.2 10.1-1.8 15.2-.4 1.9-.6 3.8-.8 5.7v4.7c0 2 0 4 .5 6a10 10 0 002.1 4.6c.7 1 1.7 1.6 2.6 2 1 .7 2.3 1 3.3 1.5 1.7.8 3 2.1 4 3.6 1.2 1.6 2.2 3.4 4 4.5a9 9 0 003.5 1.4 7 7 0 003.5-.4c.7-.3 1.3-.7 1.8-1.3 0 1-.4 2-.6 3l-.8 3v-.2l-.9 1c-.9.5-1.9 1-3 1h.6-2.4a9 9 0 01-3-.7 14 14 0 01-4.8-3.3c-1.5-1.7-2.5-3.7-4.3-5.2-1-.9-2.3-1.6-3.6-2a13 13 0 01-5.1-3.2 14.3 14.3 0 01-3.5-6.6 49 49 0 01-.3-15.5c.6-4.6 1.6-9.1 2-13.7.3-2.2.1-4.5.2-6.7a25.6 25.6 0 00-2.5-11 44 44 0 01-2.6-8c-.4-1.8-.5-3.8-.2-5.7a7.4 7.4 0 012.7-5l1.2-.5zM149 94l2.6-.2 2.3-.1h1.1c.4 0 .8.3 1.2.5a7 7 0 012.5 3.6c.5 1.9.5 3.8.3 5.7-.3 1.6-.6 3.2-1.1 4.7-.3.9-.7 1.7-.9 2.6v-.2c-.3 1.3-1.1 2.4-1.5 3.7-1.5 3.5-2 7.4-1.9 11.1 0 6 1.3 11.8 2 17.7a50 50 0 01-.4 17.7 12.9 12.9 0 01-6.6 8l-3 1.2c-1.7.8-3.1 2.2-4.3 3.7-1.2 1.6-2.4 3.4-4.1 4.6a12 12 0 01-5.7 2.4 8 8 0 01-4.9-1l-1-1-.4-1.1-1.2-5c.7 1 1.8 1.7 3 2a8 8 0 006.3-1.6c2-1.4 3-3.6 4.5-5.4 1.3-1.6 3.1-2.7 5-3.3a9.2 9.2 0 004.3-3c.2-.3.5-.6.6-1v.2c.5-1 1-2 1.2-3 .7-3.2.7-6.6.6-9.8-.3-5.4-1.4-10.7-2.1-16a49 49 0 01-.5-9.4c0-3 .5-6 1.6-9 .7-1.9 1.7-3.7 2.4-5.7 1-2.9 1.8-6 1.2-9 0-.9-.4-1.6-.7-2.4v.1a4 4 0 00-2.4-2.2z"/><path d="M51.5 94.2l1-.1-1.1.7c-.7.6-1.2 1.5-1.5 2.4a8 8 0 00-.5 2.7c0 1 0 2.2.2 3.3.4 2.4 1.4 4.7 2.4 7 .5 1 1 2 1.2 3l.1-.2.8 3.2a54.8 54.8 0 010 16.6c-.2 1.4-.5 2.7-.6 4.1a135.6 135.6 0 00-1.3 11.6c0 2-.1 3.9.1 5.8a13 13 0 001.5 5.1 7.7 7.7 0 003.5 3.1l3.1 1.3c1 .6 2 1.3 2.7 2.2 1.6 1.7 2.5 4 4.3 5.4a7.6 7.6 0 005.7 1.5c1-.2 1.8-.6 2.5-1.2l.5-.6-.1.8-1.2 1a5 5 0 01-1.8.8c-2 .4-4.2-.3-6-1.4-1.2-1-2-2.2-3-3.5a11 11 0 00-6.3-5.2 10 10 0 01-4-2.6 10 10 0 01-2.1-5.2c-.5-3.5-.5-7-.2-10.5.4-4.3 1.2-8.5 1.8-12.8a48.7 48.7 0 000-15.5c-.3-2-.9-3.8-1.7-5.7l-1.7-4c-.7-2-1.4-4.2-1.4-6.5 0-1.4.2-2.8.8-4.1.4-1 1.2-2 2.3-2.5zm95.8-.1l1 .1c1.4.6 2.3 2 2.5 3.5.3.5.4 1.2.5 1.8a15 15 0 01-.5 5.3c-.7 2.7-2 5.1-3 7.6a27.8 27.8 0 00-1.9 10.3v4.5c.4 5.7 1.7 11.2 2.3 16.9.4 3.3.5 6.7.2 10-.2 2.1-.6 4.2-1.7 6-1 1.8-3 2.9-4.8 3.6a10 10 0 00-4.8 3.2c-1.4 1.6-2.3 3.7-4 5a8 8 0 01-6.1 1.8 5.2 5.2 0 01-3-1.6s0-.2-.2 0a3 3 0 01-.1-1 5 5 0 002.7 1.8c2.2.4 4.5-.3 6.2-1.7 1.6-1.4 2.5-3.4 3.9-5a9.6 9.6 0 014.4-3 11 11 0 003.3-1.8c1.6-1.1 2.5-3 2.9-5 .4-2 .5-4 .5-6v-3.7c-.5-5.8-1.8-11.6-2.4-17.4-.4-3.4-.4-6.8 0-10.2.2-2.6.9-5 1.9-7.5.3-1 .8-1.8 1.2-2.7 1.1-2.7 2.1-5.4 2-8.3a9 9 0 00-.8-4.3c-.4-.8-1-1.5-1.7-1.9a9 9 0 01-.5-.3z"/><path d="M52.1 95.3c.3-.4.8-.7 1.2-1 .2.5.5 1 .5 1.5a3 3 0 01-1.1 2.4c-.5.4-1 .7-1.3 1.2-.6 1-.8 2.2 0 3h-.7c-.3-.9-.2-1.8-.2-2.8a8 8 0 011.6-4.3z"/><path d="M54.3 94.2h.5c1 .8 1 2.3.5 3.3S53.6 99 53 99.8c-.6 1-.6 2.3.2 3h-.8c-.4-.6-.8-1.2-.7-1.9 0-1.1 1.1-1.9 2-2.6a3 3 0 00.6-3.8v-.3zm90.4.3c.3-.2.6-.3 1-.1-1 1-.8 2.7.1 3.6.7.7 1.5 1.2 2 2 .5.9.3 2.2-.6 2.7l-.7.1c.6-.5.8-1.4.6-2.2-.2-.8-.9-1.4-1.5-1.9a3 3 0 01-1.2-1.3c-.5-1-.4-2.1.3-3z"/><path d="M146.4 94.4c1.2.5 1.9 1.6 2.3 2.7.6 1.7.7 3.6.4 5.3h-.7c.7-.7.6-2 0-2.8-.3-.6-.9-1-1.5-1.5-.4-.3-.6-.8-.8-1.3-.2-.8-.1-1.7.3-2.4zm-89.7 7.3c1-1.2 1.5-2.7 2-4.2v2.6c-.5 1.1-1.2 2.2-2.4 2.7l-1 .4-1-.3h.1c1 0 1.7-.5 2.3-1.2zm84.5-3.7v-.2c.2 1 .6 2 1.2 3 .5 1 1.4 1.9 2.5 2-.4.5-1 .2-1.4 0a5 5 0 01-2.3-2.4V98zm-31.9 3h.3l-.5.6.2-.6zm35.4 31c.1.3.2.5.1.7-.2 0-.2-.5 0-.6zm-73.1 32a14 14 0 019.3.7c2.1.8 4 2 6.1 3 .8.4 1.6.8 2.4 1H89c.6 0 1.1.4 1.7.5 1.3.4 2.6.7 4 .7 1 0 2.3-.2 3.1-1 .3 0 .5-.3.6-.5v1c-.7.9-2 1.3-3.1 1.4a17 17 0 01-7-1.5c-2.4-1-4.6-2.4-7-3.5-2-.9-4.2-1.4-6.5-1.4a9 9 0 00-5 1.4c-.5.5-1 1-1.3 1.7-.3-.6.2-1.2.5-1.7.6-.9 1.5-1.4 2.5-1.7zm45.4 1.5c2.4-1.2 5.1-2 7.8-2a8 8 0 015.3 1.7c.5.4.8 1 1.3 1.6l-.1.9a5.7 5.7 0 00-4.4-3.1c-2.6-.5-5.4 0-8 1-2.3.9-4.4 2.3-6.7 3.3-2 1-4 1.6-6 1.9-1.4 0-2.8 0-4-.7a3 3 0 01-1-1l-.1.3v-1.8h.1l.1.9c.6.8 1.6 1.2 2.6 1.3 1.3.3 2.6 0 3.9-.3 3.3-.7 6.2-2.5 9.2-4zm-22.8-.3c1-.3 2.2-.2 3.2.3.6.3 1.2.8 1 1.5v.2c-.5-.6-1-1-1.8-1.2-1.4-.2-2.9 0-4 .9v-1h.1l1.5-.7z"/><path d="M102 165.7c1.4-1 3.4-.8 4.8.1l.3.2v.9a5 5 0 00-3-1c-.8 0-1.5.2-2 .6-.3.2-.7.5-.7.8l-.2-.7.8-1zM68.9 168c1.2-1.8 3.5-2.6 5.5-2.6 2.4-.1 4.7.4 6.8 1.3l6.3 3.2c.6.3 1 .6 1.6.7H89l1.7.6c1.6.5 3.3.7 5 .5a4 4 0 003-1.6v-.1l.1 2 .2 3.2v.6c-.2.4-.4.9-.8 1.2-.8.9-2 1.4-3.2 1.5-1.2.2-2.4 0-3.7-.2a31 31 0 01-7.7-2.8c-1.7-.7-3.3-1.5-5.1-2h.2l-1.4-.2.4-.1-1.7-.2.9-3.4a3 3 0 00-.1-2.3 2 2 0 00-1.7-1.1c-1 0-2 .7-2.6 1.4-.3.6-.8 1-1.5 1.2-.8.2-1.7 0-2.3-.7l.2-.2zm52.7-2.3a13 13 0 016.5.2c1.2.4 2.2 1.2 3 2.2-.6.6-1.5.9-2.3.7-.7-.1-1.2-.6-1.6-1.2a3.6 3.6 0 00-1.9-1.3c-.5-.1-1-.2-1.5.1-1 .6-1.3 1.8-1 2.8l1 3.8c-.8 0-1.5.1-2.2.4-2.2.5-4.2 1.6-6.3 2.5a18.3 18.3 0 01-5.8 2.1h.3c-1 .2-2 .5-3.1.5-1.6.2-3.3 0-4.7-1a3 3 0 01-1.2-1.8l.3-5.7c.6 1 2 1.7 3.2 1.8 1 0 2.2 0 3.3-.2a26 26 0 007.1-3c2.2-1 4.4-2.3 6.9-2.9z"/><path d="M101.6 167.7a4 4 0 012.4-.9c1.2 0 2.3.4 3.3 1v.7a9 9 0 01-4 0c-.6 0-1.2-.4-1.7-.8zm-7.4-.7c1.3-.3 2.8-.2 3.8.6l-.3.4c-.5.4-1.3.6-2 .7-1.1.1-2.2 0-3.3-.3v-.5l1.8-.9zm-21 1c.6-.6 1.7-1 2.5-.5.5.3.8.9 1 1.4l-.2.8c-.2-.6-.6-1.2-1.2-1.4-.7-.2-1.5 0-2 .4-.8.4-1.1 1.2-1.8 1.7s-1.8.6-2.6 0c-.4-.2-.7-.6-.9-1l.2-1.2c0 .3 0 .6.2.9.7 1 2 1.1 3 .6.8-.4 1.1-1.2 1.8-1.7zm50.9-.5c.9-.4 2 0 2.6.6.6.5.9 1.2 1.6 1.6.8.4 1.7.3 2.5 0 .4-.4.8-.8.8-1.4l.1 1c-.1.4-.3.8-.7 1-.8.7-2 .6-2.8 0-.7-.5-1-1.2-1.7-1.6-.6-.5-1.6-.7-2.3-.2-.5.2-.7.6-.9 1-.5-.7.1-1.6.8-2z"/><path d="M72.7 169.9c.6-.6 1.5-1 2.3-.7.5.2.9.6 1.1 1-.6.8-1.5 1.4-2.5 1.6-1 .3-2.2.1-3.3-.2.4 0 .7-.1 1-.3.6-.4.9-1 1.4-1.4zm50.9.3c.3-.5.8-1 1.5-1 1-.2 2 .5 2.6 1.4.3.5.8.8 1.3 1l.1.1c-1.9.6-4.2.1-5.5-1.5zM75.5 175l.3-1c3.6.3 6.7 2.2 10 3.6 2.5 1 5.1 1.9 7.9 2 1.5 0 3-.3 4.2-1.3.5-.4 1-1 1.1-1.8v1.1l-.2.4c-.3.5-.6 1-1.1 1.3v.1c-1 .6-2 1-3.2 1.1-2.3.1-4.6-.4-6.8-1.1-2.8-1-5.3-2.5-8-3.5a12 12 0 00-4.2-.8zm40.3 1.7c2.5-1.1 5-2.3 7.7-2.6h.5l.2 1c-2.2 0-4.4.8-6.4 1.8-2.3 1-4.6 2.2-7.1 2.9l-2.9.6a9 9 0 01-4.3-.3 4.6 4.6 0 01-2.7-2.2v.4c-.2-.7-.1-1.4 0-2.2-.1.8.3 1.4.7 1.9.9.9 2 1.3 3.3 1.5 1.3.2 2.6 0 3.9-.2 2.5-.4 4.8-1.5 7.1-2.6z"/></g><path fill="#009b48" d="M59.2 142.5h37.4a137 137 0 01-1 10c0 .3.4.4.7.5.3.2.6 0 1-.1l.7-8.5.1-1.9h1c.1 3.6 0 7.1 0 10.7v2.3c.2.3.7.3 1 .3.3 0 .6-.2.6-.4v-12.9h1c.2 3.4.5 6.8 1 10.2 0 .3.4.3.6.4.3-.1.8-.1.9-.5-.3-2.7-.7-5.4-.8-8.2v-1.9h37.2v10.3a8.5 8.5 0 01-8.7 8.3h-21c-1.4 0-3 0-4.4.4a9 9 0 00-5.8 4.4l-.8 2a9 9 0 00-7.5-6.6c-1-.2-1.8-.1-2.7-.1H69c-1 0-2 0-3-.2a8.6 8.6 0 01-6.5-6.1c-.4-1.4-.3-2.8-.3-4.1v-8.3z"/></svg>