<svg xmlns="http://www.w3.org/2000/svg" id="svg100" image-rendering="optimizeQuality" shape-rendering="geometricPrecision" text-rendering="geometricPrecision" version="1.1" viewBox="0 0 600 400"><defs id="defs4"><style id="style2" type="text/css">.str6{stroke:#f8c300;stroke-width:.6;stroke-linecap:round;stroke-linejoin:round}.str4{stroke-width:.8}.str3,.str4{stroke:#fff;stroke-linecap:round;stroke-linejoin:round}.fil5{fill:none}.fil3{fill:#007cc3}.fil6{fill:#da251d}.fil4{fill:#f8c300}</style></defs><path id="rect6" fill="#fff" stroke-width="1.8" d="M0 0h600v400H0z"/><path id="path8" fill="#0093dd" stroke="#da251d" stroke-linecap="round" stroke-width="4" d="M300.2 262.7a20.6 20.6 0 0120-18.7l42.4-1c11.2 0 20.2-9.5 20.2-21.4V37.3H217v184.3a21 21 0 0020.4 21.3l42.4 1.1c10.3 0 19 8.2 20.2 18.7z"/><path id="rect10" fill="#00923f" stroke-width="1.8" d="M0 300h600v100H0z"/><path id="rect12" stroke-width="1.8" d="M0 350h600v50H0z" class="fil3"/><path id="path14" stroke="#f8c300" stroke-linecap="round" stroke-width="1.8" d="M300.2 262.7a20.6 20.6 0 0120-18.7l42.4-1c11.2 0 20.2-9.5 20.2-21.4V37.3H217v184.3a21 21 0 0020.4 21.3l42.4 1.1c10.3 0 19 8.2 20.2 18.7z" class="fil4"/><path id="path16" stroke="#007cc3" stroke-linecap="round" stroke-linejoin="round" stroke-width="1.8" d="M383 59.8c-5.7.6-10 1.7-14.4 7-10.3 1.2-15.5 7.4-16 17.2-7.8 5.8-10.4 15-7.6 27-9.2 6-12.8 13.7-8.5 23.2l.2 22.3a24 24 0 004.3 9c-6.6 10.9-3.7 20.7 8.8 26.7 0 18.7 9.9 24 24.4 23 1.9 2.8 4.8 4.8 8.8 6.3l.2-161.9z" class="fil3"/><path id="path18" stroke-width="1.8" d="M383 59.8c-5.7.6-10 1.7-14.4 7-10.3 1.2-15.5 7.4-16 17.2-7.8 5.8-10.4 15-7.6 27-9.2 6-12.8 13.7-8.5 23.2l.2 22.3a24 24 0 004.3 9c-6.6 10.9-3.7 20.7 8.8 26.7 0 18.7 9.9 24 24.4 23 1.9 2.8 4.8 4.8 8.8 6.3" class="fil5 str3"/><path id="path20" d="M244 72.4a38.6 38.6 0 00-15.6 7.4v-21c3.8 3.2 8.8 5.6 15.6 7.4a44 44 0 00-7.1-16.4h20a44 44 0 00-7 16.4 38.6 38.6 0 0015.5-7.5v21.1a38.6 38.6 0 00-15.5-7.4c1.7 7 4 12.3 7 16.3h-20c3.1-4 5.3-9.2 7-16.3z" class="fil6 str4"/><circle id="circle22" cx="246.9" cy="44.7" class="fil6 str4"/><circle id="circle24" cx="-68.6" cy="223.2" class="fil6 str4" transform="rotate(-90)"/><circle id="circle26" cx="68.6" cy="-270.9" class="fil6 str4" transform="rotate(90)"/><circle id="circle28" cx="246.9" cy="93.6" class="fil6 str4"/><path id="path30" stroke-width="1.8" d="M383 92c-13.5 1.8-19.7 10.2-15.2 27.8" class="fil5 str3"/><path id="path32" stroke-width="1.8" d="M366.2 107.6c-12.8 2-20.2 8-20.9 20" class="fil5 str3"/><path id="path34" stroke-width="1.8" d="M378.2 93c-1.6-2.6-1-6 1.9-10" class="fil5 str3"/><path id="path36" stroke-width="1.8" d="M378.5 78.4c-5.4 4.7-7.4 10-5 16.7" class="fil5 str3"/><path id="path38" stroke-width="1.8" d="M362 99.5c-2 3-2 6.1-.3 9.2" class="fil5 str3"/><path id="path40" stroke-width="1.8" d="M360 92.4c-5.2 4.5-7.3 10.1-4 18.3" class="fil5 str3"/><path id="path42" stroke-width="1.8" d="M360.3 87c-9.8 4.6-13.1 13.4-8.8 26.8" class="fil5 str3"/><path id="path44" stroke-width="1.8" d="M383 140.7c-3.5-3.2-4-6.5-1.4-9.4" class="fil5 str3"/><path id="path46" stroke-width="1.8" d="M383 148.2c-9-5.8-12-12.6-5.7-20.7" class="fil5 str3"/><path id="path48" stroke-width="1.8" d="M383 154.7c-14.9-8.7-20.2-19.8-6.4-31.4" class="fil5 str3"/><path id="path50" stroke-width="1.8" d="M383 200.5c-25.6-10-26.6-27.8-3.8-40.3" class="fil5 str3"/><path id="path52" stroke-width="1.8" d="M364 121c-16.1 14.8-20.6 31 2.2 49.7" class="fil5 str3"/><path id="path54" stroke-width="1.8" d="M370.4 166.4c-9.7-6.4-14.2-14.6-13.5-24" class="fil5 str3"/><path id="path56" stroke-width="1.8" d="M373.5 163.8c-6-3.6-9.2-9.8-12.3-15.4" class="fil5 str3"/><path id="path58" stroke-width="1.8" d="M369.5 152.5c1.4 3.1 3.8 5.3 7.6 8.8" class="fil5 str3"/><path id="path60" stroke-width="1.8" d="M368.5 176c-1.4 8.4 4.8 13.8 14.3 17.8" class="fil5 str3"/><path id="path62" stroke-width="1.8" d="M373.1 178.4c-.1 4.3 3.3 7.4 9.7 9.6" class="fil5 str3"/><path id="path64" stroke-width="1.8" d="M358.1 171.6c-6.2-.3-13-1.6-17.1-6.1" class="fil5 str3"/><path id="path66" stroke-width="1.8" d="M356.5 181c-3.2-3-4.3-6-2.6-9.7" class="fil5 str3"/><path id="path68" stroke-width="1.8" d="M349.6 170.4c-2.4 5.6-.8 10.5 4.5 14.7" class="fil5 str3"/><path id="path70" stroke-width="1.8" d="M352 187.8c-7.6-5-10.2-10.2-6-18.7" class="fil5 str3"/><path id="path72" stroke-width="1.8" d="M349.8 192.4a35 35 0 0018.5-.6" class="fil5 str3"/><path id="path74" stroke-width="1.8" d="M371.8 204c-.6 5 .1 8.5 2.2 11.5" class="fil5 str3"/><path id="path76" stroke-width="1.8" d="M361.4 202.2c3 3.3 5.7 5.6 10.4 5.4" class="fil5 str3"/><path id="path78" stroke-width="1.8" d="M356 201c3.8 7.5 9.2 11.2 16.1 10.5" class="fil5 str3"/><path id="path80" stroke="#fff" stroke-linejoin="round" stroke-width=".7" d="M308.8 133H285l-3.5 4.3h-7.3v-15.8c-19.7-18.2 7.6-31.1 16.1-53.3zm-3 14.6l2.2 3.5-17.5 61c-8.5-22.1-35.8-35-16-53.2v-15.8h7.2l3.4 4.4h21zm5 5.9c4 2.1-.3 5.8 15.3 2.7l2.3 2.5c7.4-5.2 15.5.6 28.3 3-7.6-9.7-8.5-20-1.4-31a32.4 32.4 0 00-20.5 5h-11a20 20 0 00-11.4-3.2L292 62.4c.2-.8.4-1.7.4-2.4 2.6 1.5 5 1.6 7 0 3-2.2 6 .5 13-.7-6.5.3-9.8-2.8-13-1.3-3 1.3-5.1.5-6.8-1.6 0-1.9 0-3.5-.4-5.5-1.5-10.7-14.9-.7-4.6 2.7 4.6 28.6-47.3 46.2-24.4 70.8V137h-23.5c.5-2 1.7-3.8 3-5.5-6.5 3-14.3 5.7-23.1 8.6a268 268 0 0123.2 8.5 22 22 0 01-3.1-5.4h23.5V156c-23 24.5 28.8 42.2 24.4 70.7-10.3 3.5 3 13.3 4.6 2.8.4-1.9.4-3.7.4-5.5 1.7-2.2 4-3 6.7-1.6 3.3 1.4 6.8-1.7 13.1-1.3-7-1.1-10.2 1.4-13-.7-2-1.7-4.4-1.3-7 0l-.4-2.4 18.9-64.7z" class="fil6"/><path id="path82" stroke-width="1.8" d="M309.5 137.5c-.3 1.4 3 1.6 4.3 1.6 2.8 0 2.6 1 4.2 3.3 4 5.2 5 3 6.2 4.7-1.2 1-4-2.2-4 1.8 0 6 6.8 7.3 7.3.6.5-6.4-.7-7.7-4.2-11.5-1.5-1.6-12.6-4.4-13.6-.5z" class="fil4"/><path id="path84" stroke-width="1.8" d="M309.9 142c-2.8.4-1.3 3 1 2.5 3.5-.9 6.4-3.4-1-2.5z" class="fil4"/><path id="path86" stroke-width="1.8" d="M310.7 146.5c-1.9 1-.5 3.3 2 2 3.9-2 5-5.2-2-2z" class="fil4"/><path id="path88" stroke-width="1.8" d="M313.3 150c-1.5 1-.3 3.3 2 1.6 3.4-2.3 2.9-4.9-2-1.6z" class="fil4"/><path id="path90" stroke-width="1.8" d="M316.3 152.7c-1.6 1.3.3 3.1 1.9 1.1 1.9-2.5-.4-2.5-2-1z" class="fil4"/><path id="path92" stroke-width="1.8" d="M345.8 143c-.8-5.5 1.6-4 1.8-6.8-10 .9-11.5 3.3-7 10.3.9-3.8-2-4.7 1.4-6.5 0 1.6.5 3.5 1.6 5 .5-2-.5-4.8.8-5.7.4 1.2.6 2.7 1.4 3.6z" class="fil4"/><path id="path94" stroke-width="1.8" d="M332.9 149.3c-.2-3 .1-5.8 1.2-7 .1 2.2.5 4.2 1.9 5.3-.2-3.6-.2-5.6.7-6.3a10 10 0 00-4.5-2.2c-.9 4.7-.6 8.4.8 10.2z" class="fil4"/><path id="polygon96" d="M164.7 76.3l-.7.8h12.8l.7-.8z" class="fil4 str6" transform="scale(1.7291 1.81818)"/><path id="path98" d="M308.5 137l-1.4 2m-20.8-2l-1.3 2m4.6-2l-1.4 2m4.7-2l-1.4 2m4.7-2l-1.4 2m4.7-2l-1.4 2m4.7-2l-1.4 2m4.7-2l-1.4 2" class="fil5 str6"/></svg>