<svg xmlns="http://www.w3.org/2000/svg" viewBox="0 0 600 400"><path fill="#d20000" d="M0 0h600v400H0z"/><path fill="#0039a6" d="M150 0h300v400H150z"/><path fill="#faeb00" stroke="#ed9718" stroke-linecap="round" stroke-linejoin="round" stroke-width=".7" d="M372.9 185.9a2.3 2.3 0 00-2.4 2.3 2.2 2.2 0 00.2.9l-7.5 14.5 1.3.7 7.3-14.1a2.4 2.4 0 00.3.1v11.9h1.4v-11.8a2.3 2.3 0 00.4-.2l7.3 14 1.3-.6-7.5-14.5a2.2 2.2 0 00.2-1 2.3 2.3 0 00-2.3-2.2zm-52.1-11c-15 21-12.4 41.7.8 62.2-18-8-64.1-26.3-58.2 4.2-13.4-27.4-15.9-64.2 20-88.7 1.5 4.6 5.3 4.9 9 5.5 1.6 2 1.8 6 6.4 3.8 2.7 3.3 5.6 6 9.9 5.8 2.4 4 5.2 7.7 12 7.2z"/><path fill="#f8c300" d="M283.3 153l-.8.4c-33.3 32.1-25.3 50-20.2 74.7-1-6.3 22.2-50 50-36.6a55.8 55.8 0 018.1-16.4 11 11 0 01-7.4-2 17.2 17.2 0 01-4.4-5.2c-4.2.2-7.2-2.5-9.8-5.8a5 5 0 01-2.7.6 2.6 2.6 0 01-1.8-1c-.8-1-1.2-2.5-2-3.5a21.3 21.3 0 01-5.3-1.2 6.7 6.7 0 01-3.7-4z"/><path fill="#ed9718" d="M297.3 151.9l-71.8 70.9.5 3.6c24.2-26 48.4-50 72.6-74.8zm1.7 3.6a635 635 0 01-71.8 73.2l-.1 2.5c27.3-23 49-48.9 72.1-74.6zm-1.3 4.8a998.7 998.7 0 01-65.2 78.2l1.1 1a913.8 913.8 0 0064-78.4z"/><path fill="#ed9718" d="M277.3 251.7c.5-.5 19.2-92.8 19.2-92.8h.9l-18 93.3zm19.9-91.5L284 253.4h1.6l12.4-92.9zm.8 2c-2.6 31.8-3.7 60.4-8 91.6h1.9c3.3-31.4 4.7-59.9 7-91.7zm11.1 69.8c2.6 8.5 5.6 17 8.3 25.5h1.5c-2.7-8.3-5.5-16.6-8-24.9l-1.8-.6zm-9.6-62.8a1359 1359 0 0053 78l-1.3 1.6a1067 1067 0 01-52.6-78.7zm0 8.8c14 22 29.1 45.9 42.7 67.7l-1.3.8c-14.6-21.8-28.6-45.5-42.2-67.3zm0 10.3a563.4 563.4 0 0040 61.5l-2 .6a405.5 405.5 0 01-38.5-61.3zm13.9 45.3c3 7.4 5.9 14.9 8.4 22.9h1.6a519 519 0 00-8-22l-2-.9z"/><path fill="#faeb00" stroke="#ed9718" stroke-linecap="round" stroke-linejoin="round" stroke-width=".7" d="M283.4 148.4l-1.6 3.3 44.4 26.5q-2-1.9-4.2-3.6c-6.8-8.5-11.4-17-20.3-25.5l.2 2.3c5.1 7.8 12 15 19 22.3-10.5-8.4-22.3-15.4-33.7-22.8l7.6-.3 2.8-2-12.6.8-1.6-1zM254 234.2c-1-1.6 1.4-4.5 3.3-3.4 3 1.6.3 4.8-1.2 4.7.8.5 1 2 .1 4.2 2.3 1.8 1.8 3.3 2.6 5-2-1.2-4.4-1.5-5-4-.8-1.3-.1-2.9 0-4.3a26.9 26.9 0 00.1 6.6l-6.7-3.5c1.2-2.7 2.4-5.4 6.8-5.3zm12.4 3.8c-1.3-1.5.6-4.7 2.7-4 3.1 1 1.2 4.7-.4 4.9.9.4 1.5 1.7 1 4.1.8 2.5 1.1 4 2.2 5.5-2.1-.9-3.5-1.8-4.6-4.2-1-1-.5-2.7-.6-4.2a28.4 28.4 0 001.6 6.8l-7.6-2.5c.7-2.9 1.4-5.7 5.7-6.4v0zm11.8 2.2c-1.4-1.5.2-5.3 2.3-4.7 3.3.9 1.6 5.2 0 5.6 1 .3 1.7 1.9 1.4 4.6 1 2.8 1.5 4.4 2.7 6.2a7.6 7.6 0 01-5-4.4c-1-1.2-.7-3.1-1-4.8a36.4 36.4 0 002.2 7.6l-7.7-2.2c.4-3.3.9-6.6 5-7.9v0zm12.1 2.5c-1.3-1.5.2-5.4 2.4-4.8 3.2 1 1.6 5.3 0 5.6 1 .4 1.6 2 1.3 4.7 1 2.7 1.5 4.4 2.8 6.1a7.6 7.6 0 01-5-4.4c-1-1.2-.8-3.1-1-4.8a36.4 36.4 0 002.2 7.6l-7.7-1.5c.5-3.3.8-7.3 5-8.5zm13.5.1c-1.6-1.3-.6-5.4 1.7-5 3.3.4 2.2 5 .8 5.5 1 .3 1.8 1.7 1.9 4.4 1.4 2.6 2.1 4.2 3.6 5.8a7.6 7.6 0 01-5.5-3.7c-1.2-1-1.3-3-1.7-4.6a36.6 36.6 0 003.2 7.2l-7.8-.5c0-3.3-.2-7.3 3.8-9zm13.2 0c-1.6-1.4-.4-5.4 1.8-5 3.3.6 2.1 5.1.6 5.6 1 .3 2.7 1.2 2.6 4 2 1 4.1 1.7 5.5 3.3-2.3-.5-5 .5-7.7-.9-1.2-1-1.7-3-2.1-4.6a36.6 36.6 0 003 7.4l-7.9-.8c.2-3.4 0-7.3 4.2-9v0zm12.2-2.3c-1.2-.4-.6-4.4 1.7-4.6 2.6-.2 2.1 3.6.9 4.5 1 0 1.2.2 3.6 3.1 2.1.4 4.4.6 6.2 1.8-2.4 0-4.6 1.8-7.7 1.2-1.4-.7-2.5-2.4-3.3-3.9a37.2 37.2 0 005 6.3l-7.8 1.4c-.8-3.3-2-7.1 1.4-9.8v0z"/><path fill="#faeb00" stroke="#ed9718" stroke-linecap="round" stroke-linejoin="round" stroke-width=".7" d="M303.8 242.8c-1.6-1.3-.6-5.4 1.7-5 3.3.4 2.2 5 .8 5.5 1 .3 1.8 1.7 1.9 4.4 1.4 2.6 2.1 4.2 3.6 5.8a7.6 7.6 0 01-5.5-3.7c-1.2-1-1.3-3-1.7-4.6a36.6 36.6 0 003.2 7.2l-7.8-.5c0-3.3-.2-7.3 3.8-9z"/><path fill="#d20000" d="M200.7 212c-.8 6 2.7 4.7 3.6 6.2 2.6-1 5-1 7 .4-1-1-1.6-2.5-2.3-3.8-4.5-.2-6-1.6-8.3-2.8z"/><path fill="#faeb00" stroke="#ed9718" stroke-miterlimit="5" stroke-width="1.3" d="M390.5 196a1.5 1.5 0 00-.3.1c-11.6 3.5-22.6 7.8-36 7.4-8-.2-13.3 7.6-12.6 11.5.8 4 1.4 5.1 7.5 7.6v6.6c-10.2-4.2-12 3.5-11 6.3 2 5.7 9.3 2 6.3-3.4 7 11.2-28.8 20-45.7 20.3-24.8.2-49.5-12.7-69.6-25.1l-3.8.2c2.3-3.9 1.3-11.3-.7-14.8a63.3 63.3 0 00-7.6-10.4l-1-.8c-4 .5-11-2-8.8 4.7-4.1 0-7.4.6-6.4 5 8.3-.6 7.8 4.5 10.5 7.4-2-1.4-4.4-1.5-7-.4 1.3 5.4 4.4 6 8.8 3.1 2.3 1 0 2.7-1.9 4.2 1.1.7 5.9 2 5.6-5.1.8 3.9-1 6.5-4.5 8.6 6.8 2.6 6.1-2.4 6.7-4.6-.3 19.7-31.2 22-11.3 46 9 10.8 59.7 22.8 91 22.4 38-.4 73.2-14 83.8-22.9 28.3-24 11.1-33.5 5.4-40.7l.7-7.7h-6c-2.3-1-.4-11.4 2.4-14.6-.4 6 7 11 12.3 5 6.4-7-3.5-15.9-6.8-15.8v0zm-161.9 24.7s-.1.2-.3.2h.4v-.2z"/><path fill="#f8c300" d="M390.2 196.4a1.5 1.5 0 00-.3 0c-11.5 3.4-22.3 7.7-35.6 7.3-7.8-.2-13 7.6-12.4 11.4.7 4 1.6 4.8 7.6 7.3v6.4a77.5 77.5 0 0038 0l.7-6.9h-5.6c-2.4-.6-1.2-12 2.7-15.7-.6 6.2 6.6 11.5 11.6 5.8 6.6-7-3.3-15.7-6.7-15.6z"/><path fill="#faeb00" stroke="#ed9718" stroke-width=".7" d="M216 201.5a19 19 0 006.5-4.7 9.2 9.2 0 01-1.4 7.1c1.5-1 4.1-4 4.8-2 .3 1-.9 2.2-3.9 4.2l7.3-1.5c-.9 1.3-2.8 2.8 0 3.9-1 1-1.9 2-2 3 0 0 2-.6 3-.2.2.6-2.2 2.5-2.9 4.1 0-.2 3.3-1.2 3.6-.9.2 2.4.9 4.3-2.7 6.4 6.4-1.3 1.6 4.5.8 6.4l-3.8.2c2.3-3.9 1.3-11.3-.7-14.8-1.9-3.4-7-10.3-8.5-11.2z"/><path fill="#ed9718" d="M228.3 212.5l-.3.3a19.6 19.6 0 00-1.7 1.8 17 17 0 00-.3-.9l1.2-.7 1.1-.5zm.7 9.2a1.7 1.7 0 01.8.2c.3.1.3.4.2 1a8.8 8.8 0 01-.7 2.1l-.7 1.5-2 .2a13.6 13.6 0 00.8-4.9 7 7 0 011.6-.1zm1.2-6.3a4.7 4.7 0 01-.4 2.1 7.2 7.2 0 01-2.4 2.4 23.1 23.1 0 00-.6-3.2 18.4 18.4 0 013.4-1.3zm-2.8-9.5a1.7 1.7 0 00-.4 1 1.9 1.9 0 00.9 1.7c.4.2-.2.4-.3.7a7.3 7.3 0 00-1.4 2 8.5 8.5 0 00-.4 2.1 22.5 22.5 0 00-2-3.7 91 91 0 00-1.8-2.4l5.4-1.4zm-2.3-3.9v.3a5.1 5.1 0 01-1.2 1.4 24 24 0 01-2.9 2.2 4.1 4.1 0 01-.3-.5c-.2-.2.1-.3.2-.4 1-.8 2-1.7 3.2-2.5a3.5 3.5 0 011-.4s.1 0 0 0zm-3.3-3.5a14.2 14.2 0 01-2.3 5.5l-1-1.4-1-1a18.3 18.3 0 004.3-3zm-10.8 6.1c-1.3 0-2.3 1-1.4 2 0-.5.7-.8 1.6-.8.9 0 1.6.3 1.6.8a.5.5 0 01-.2.3c1.8 0 3.3-.1 4-1.2-1.9.4-3-.9-5.3-1h-.3z"/><path fill="#faeb00" stroke="#ed9718" stroke-width="1.3" d="M231.4 230.8c1-4.9 3.6-5 6-6.2 5.3-5.2-5.2-8.1-6-12.7-.6-3.8 1.1-8 1.3-11.5.2-3.8-4.3-6.7-3.7-9.9a14 14 0 019.3 13.8 29 29 0 00-.4-11.3c6.4 3 10 7.4 4.8 16.1 2.6-2.7 3-6.4 3.9-9.8 3 2.5 2.5 9.2-.3 13.9 1.8-1.4 3.6-4.5 3.6-4.5 2.8 5.3-1.7 9.5-3.7 14 3-1.5 4.9-3.8 7.2-5.8-.3 2 1.7 7.1-7.5 11.7 1.1 0 2.3.4 3.5-.1-.8 2.1 0 5-4.9 5 .7.2-3 1.9-3.4 1.7a12 12 0 002-.3c-.5 1 1.2 5.2-5.1 3.1.3.4 1.2.6 2 1-1.9 1.6-3.7 3.4-6-.4-.2.6.5 1.2 1.2 1.9-4.2 1.6-6.5.8-5.4-4.2-.7 3.2-6 2.6-4.8-2.3-2.2-4.3 3-5.6 6.4-3.2v0z"/><path fill="#ed9718" d="M240.8 197.4a5.6 5.6 0 012 5.9c-.3 2-1.5 3.6-2.3 5.3-.6 1.8 1.6 3.4 3.2 2.5 1-.4 2-2.4 2.1-2.4-.3 1.5-1.2 2.8-1.7 4.2-.3 1.8 2 3.2 3.5 2 1-.6-.8 2-1.2 2.8-.8 1.6-2 3.1-2.4 4.9-.2 1.6 1.8 3 3.3 2 .8-.2 3.2-2.2 1.5-.6-1.2 1.3-3 2-4.5 3-1.4 1.2-.4 3.8 1.4 3.8 1.8.3-1.2.6-1.8.6-1.2.7-2.3 1.7-3.8 1.9-1.4.3-1 2.4-1.4 2.7-1.3-.8-2.6 1-3 1.2-1-1.4-3.6-.8-3.9 1-.2.4.3-1.5.2-2.1-.1-1.8-2.7-2.6-3.9-1.2-.3.6-1 2-1 .4.6-1.1-.5-2.5-.2-3.4 1.7-.5 3 .9 4.5 1.1 1.6.1 2.4-1.5 2.5-2.8.2-1.9 2.1-2.6 3.7-3.3 2.1-.8 3.3-3.1 3.5-5.2 0-3.3-3-5.3-5.2-7.3-1.2-1-2.6-2.3-2.4-4 0-3.8 1.7-7.5 1.3-11.3-.1-.9-.7-2.2 0-.7a12.3 12.3 0 011.3 6.2c.2 1.8 2.8 2.5 3.9 1 .8-1.1.5-2.6.8-4a34.8 34.8 0 000-4.2z"/><path fill="#f8c300" d="M231 243.6c25.2 11.3 53.6 18.5 81.5 13.8 17.2-2.8 33.6-10 47.8-20-20 17-46.6 27.9-73.4 25.2-19.8-2-38.7-9.4-55.9-19z"/><path fill="#f8c300" d="M223.3 245.2c3.6 8.5 12.9 12.8 21.1 16 20.1 7.2 42 8.8 63.2 6.8 16-1.8 32.6-5.7 45.5-15.6 4.5-3.6 8.4-8.3 10.3-13.7-3.5 12.7-15.6 20.8-27.3 25.8a120 120 0 01-75.7 4.3c-12-3.2-24.6-7.6-33.2-16.7a16.9 16.9 0 01-3.9-6.9z"/><path fill="#f8c300" d="M217.9 244.9c-2.2 9.1 5 17.2 12.7 21.3 16.2 9 35.3 11.5 53.6 12.2a140 140 0 0064.5-12.5c10.8-5.5 21.4-14.8 22.4-27.4.3-6 .4 4.3-.6 6-3.9 13.9-17.1 22.6-29.9 28.1a136.7 136.7 0 01-96.2 2.4c-10.3-4-21.7-9.5-26.2-20.2a16 16 0 01-.3-9.9z"/><path fill="#f8c300" d="M355.1 268.7c4.8-1.1 8.8-4.3 12-7.8a34.8 34.8 0 008.6-17c.3-2.3.7-5-.5-7.3-.8-.8 1.2.6 1.2 1 1.7 2.8 1.8 6.1 1.7 9.3-.4 4.7-1.8 9.7-5.1 13.3-3.8 4-8.7 7.2-14.2 8.3a14.1 14.1 0 01-3.7.2z"/><path fill="#f8c300" d="M365 268.4a15.5 15.5 0 0011.2-4.9 25 25 0 006-17.6c-.2-4-.6-8-2.6-11.5-.4-.6-1-1 0-.4a17 17 0 014.8 8 25 25 0 01.5 14.8c-2 5.6-6.8 10.5-13 11.8a15.8 15.8 0 01-7-.2z"/><path fill="#f8c300" d="M372.7 270.9a31 31 0 0018.6-23.2c.7-4.5.2-9.4-2.7-13-.5-.6-2.7-2.2-1-1.3 3.8 2 5.6 6.2 6.3 10.1a21 21 0 01-4.9 17.6 30 30 0 01-16.3 9.8z"/><path fill="#ed9718" d="M374.2 213.8h2.7v10.5h-2.7zm-12.2 1.3h2.7v10.5H362zm6.1-.8h2.7v10.5h-2.7z"/><path fill="#ed9718" d="M389.4 201.6c-3.4-.3-6.2 1.8-9.3 2.8-5.3 2-10.8 4.2-16.5 3.8-4-.1-8-1.1-11.9 0-2.7.7-3.9 3.6-3.9 6l-.1 2.5c1.1-1.7 2-3.9 4.2-4.6 1.8-.1 2.7 2 3.3 3.3.4 1.8-1.5 3-2.8 3.7-1.2.9-3.2 1.2-4.1 2 0 1.5 1.1 1 2 .4 2.4-1 5-2.1 6.1-4.5.8-2-.8-3.7-2-5.2-1.6-2.3-3.5-1.2-4.8.1.6-2 2.9-3 4.9-3 5.3 0 10.7 1.4 16 0 5.5-1.2 10.7-3.5 15.9-5.6 1.7-.7 4.2-.9 5.3 1a3.8 3.8 0 01-1.6 5.2c-1.8.3-1.6-2.4-2.5-2.6-1.7-.4-.6 1.6-.2 2.4a2.7 2.7 0 004.6.4c2-2 2-6-.7-7.5a4.7 4.7 0 00-1.9-.6z"/><path fill="#faeb00" stroke="#ed9718" stroke-linecap="round" stroke-linejoin="round" stroke-width=".7" d="M297.3 105.1l-.2 147.3h3.1L300 105h-2.7z"/><path fill="#faeb00" stroke="#ed9718" stroke-linecap="round" stroke-linejoin="round" stroke-width=".7" d="M295.8 151.6h5.7a1 1 0 011.1.9v.2a1 1 0 01-1 1h-5.8a1 1 0 01-1-1v-.2a1 1 0 011-1z"/><path fill="#faeb00" stroke="#ed9718" stroke-linecap="round" stroke-linejoin="round" stroke-width=".7" d="M302.5 150.3c0 1.2-1.7 2-3.8 2-2.2 0-3.9-.8-3.9-2 0-1.1 1.7-2 3.9-2 2 0 3.8.9 3.8 2v0z"/><path fill="#faeb00" stroke="#ed9718" stroke-linecap="round" stroke-linejoin="round" stroke-width=".7" d="M301.7 147.2c0 .8-1.3 1.5-3 1.5s-3.1-.7-3.1-1.5c0-.9 1.4-1.6 3-1.6 1.8 0 3.1.7 3.1 1.6zm-.5-44.4a2.5 2.5 0 01-5 0v0a2.5 2.5 0 015 0z"/><path fill="#faeb00" stroke="#ed9718" stroke-width=".7" d="M372.9 171.2a2.3 2.3 0 00-.7 4.4v11.9h1.3v-11.9a2.3 2.3 0 00-.6-4.4z"/><path fill="#faeb00" stroke="#ed9718" stroke-linecap="round" stroke-linejoin="round" stroke-width=".7" d="M328.6 188.4c7.1.6 8.6-2.5 13.9-3.3 1.5-.3 2.3 1.4 4.3 1.4s6.7-6.3 11-6.8c1.5-.2 2.8 2 4.5 1.4 1.4-.6 3.7-6 10.1-5.3l-.2 3.4c-8 1.2-5.8 7.2-10 7.5-1.7.2-2.9-2.6-4.6-2.5-3.7.3-5.2 6-8.9 6.7-2.2.4-3.5-2.3-6.4-2-5.8.5-6.7 5.4-13.7-.5z"/><path fill="#faeb00" stroke="#ed9718" stroke-width=".7" d="M295.6 251.8L266 291.9c1.7 2 4.4.6 6.4-1.2l24-38.7zm13.9-1.8l-25.2 41.4c-1.1 2.2 2.6 3.2 4.5 1.1l21.7-42.5zm-55.8-9.3l-46.7 38c2 1.2 7.7.7 10.1-2l37.5-35.4zm13.9 4.5L224.2 287c3.8.1 7.5.1 9.7-2.8l34.5-38.4zm13.2 4.4l-37.2 41c2.1 2.2 5.6 1 7.6-2l30.3-38.5zm41.2-1.1l-21.5 47.6c-1.2 2.8 2.5 3 4.2.7l18.1-48.1zm13.3-4.5l-17.6 52.7c-1.4 4.5 3.8 3 5.2.4l13-53zm-38-138.1c-7.3 6-10.9-1-15.5.2-7.4 2.2-7.6 10.1-15.8 6.9 2.2 12.8 1.2 26 1.8 39 1.3.7 3.3-4.2 5-4.6 3-.7 3.8.8 5.6.4 1.8-.5 3-2.5 4.7-3 1.6-.2 3.3 1 4.9.7 3.6-.7 4.6-5.2 9.3-5.8-1-11.6-2-23.2 0-33.8v0z"/><path fill="#d20000" d="M212.8 206.6c0 .4-.7.7-1.6.7-.9 0-1.6-.3-1.6-.7 0-.5.7-.8 1.6-.8.9 0 1.6.3 1.6.8z"/><path d="M293.2 122.9a2.3 2.3 0 00-1.3 0 1.8 1.8 0 001.2-1.6 2.4 2.4 0 00-1.2.2 1.8 1.8 0 00.7-1.6 2.7 2.7 0 00-1.2.4 1.7 1.7 0 00.4-2.4l-1.5 1.8a5.3 5.3 0 00.9-1.9c.1-.5 0-1.5-.7-1.7a22 22 0 01-1.7 3.6.4.4 0 00-.2-.2 3.3 3.3 0 01-.8 1.5l-.2-.2c-.3.6-1.3 1.6-1.6 2.2a.8.8 0 00.2 1.1.6.6 0 01.3.8 1 1 0 01-1.6.2.7.7 0 00.2-1.2.7.7 0 01-.8.3 1.6 1.6 0 01-.5-.2.6.6 0 00.8-.7.6.6 0 01-.9 0 1.1 1.1 0 01-.3-1 2.7 2.7 0 01.6-1.4.3.3 0 00.3 0l.3-.1a1 1 0 01.8 0 .5.5 0 01.3.6c.5-.4.3-.8-.4-1a1.7 1.7 0 011 .4.9.9 0 00.8 0 .6.6 0 00.3-.8.4.4 0 01-.4.4 2 2 0 01-1-.1 2.4 2.4 0 00-.8 0 1.2 1.2 0 011.5 0 .6.6 0 00.2-.6.9.9 0 00-1-.9.2.2 0 00-.4-.2.4.4 0 000-.1 2.2 2.2 0 001.3-.7c.5-.6-.4-1.2-.2-1.7a3 3 0 001 .2 1.3 1.3 0 010 .3c.3.6-.3.8-.1 1.4 0 .3.3.3.4.7a.6.6 0 010 .4.6.6 0 00.4-.8 1.4 1.4 0 01-.3-.5.7.7 0 001 .1s.1.2 0 .4a.6.6 0 00.3-.6.3.3 0 00-.4-.3c-.2 0-.4.3-.4 0-.1-.3.5-.4.3-1a1 1 0 00-1-.4 2.2 2.2 0 01-.3-.3c-.4-.4-.7-.5-.9-.4l-.4.4a1.2 1.2 0 00-.4.2 1 1 0 00.2 1 1.2 1.2 0 01.3.8 1.4 1.4 0 01-1 .7v-.1a4 4 0 00.2-.6c.2-.6-.2-.8-.7-.9a.2.2 0 00-.2 0v.1h-.1v-.1a.2.2 0 000-.2.3.3 0 000-.1.7.7 0 00-.1-.2.4.4 0 01.1.1v-.5a.4.4 0 00-.1 0 .3.3 0 010 .1.2.2 0 000-.1h-.5a.7.7 0 01.1.1.9.9 0 00-.1 0v.5a.5.5 0 01.1-.1v.1a.2.2 0 000 .2.2.2 0 00.1.1v.2-.1a.2.2 0 00-.3 0c-.5.2-.8.5-.5 1a4.2 4.2 0 00.3.6 4.7 4.7 0 01-1.7-.8h-.1v-.4a6.4 6.4 0 00.3-1c.2-.9-.3-1.2-1-1.3a.3.3 0 00-.4 0v.2h-.1v-.2a.3.3 0 01-.1 0 .4.4 0 00.1-.3.3.3 0 00-.1-.3.9.9 0 01-.2-.2 1 1 0 01.3.1v-.7a.8.8 0 01-.3.3 1 1 0 01.2-.3h-.7a.8.8 0 01.2.3 1.2 1.2 0 01-.3-.2v.7a1.3 1.3 0 01.3-.2 1 1 0 01-.1.3.3.3 0 000 .3.3.3 0 00.2.3v.1h-.2a.3.3 0 00-.3 0c-.8.2-1.2.6-.8 1.4a4.1 4.1 0 00.6 1v.3a4.5 4.5 0 01-1.5 1.3 3.2 3.2 0 00.1-.7c.2-.6-.2-.8-.7-.8a.2.2 0 00-.2 0 .3.3 0 000-.2.2.2 0 00-.1-.2 1.2 1.2 0 01-.1-.2 1 1 0 01.2.2v-.6a.6.6 0 01-.2.2.8.8 0 01.1-.2h-.6a.8.8 0 01.2.2.6.6 0 01-.2-.1v.5a.8.8 0 01.2-.1.7.7 0 010 .2.3.3 0 000 .1.2.2 0 000 .2v.1a.2.2 0 00-.3 0c-.4.2-.8.4-.5 1a4.2 4.2 0 00.4.5v.1a1.4 1.4 0 01-1.1-.5 1.1 1.1 0 010-.8 1 1 0 000-1 1.4 1.4 0 00-.4-.2l-.5-.2c-.2 0-.5 0-.8.6a1.6 1.6 0 01-.2.3 1 1 0 00-.9.7c0 .6.6.5.6.9 0 .2-.3 0-.4 0a.3.3 0 00-.4.5.7.7 0 00.4.4v-.3a.7.7 0 001-.3 1.2 1.2 0 01-.3.5.6.6 0 00.7.7.5.5 0 01-.2-.4 7.4 7.4 0 01.3-.8c0-.6-.6-.7-.5-1.3a2 2 0 010-.3 2.7 2.7 0 00.9-.4c.3.5-.4 1.2.2 1.7a2.3 2.3 0 001.4.4.2.2 0 000 .1.2.2 0 00-.2.2.9.9 0 00-.9 1.1.6.6 0 00.4.5 1.2 1.2 0 011.4-.3 2.4 2.4 0 00-.8.2 1.9 1.9 0 01-1 .3.5.5 0 01-.4-.3.6.6 0 00.5.7.9.9 0 00.8 0 1.7 1.7 0 01.9-.7c-.7.3-.8.8-.3 1a.5.5 0 01.3-.6 1 1 0 01.7-.2l.4.1a.3.3 0 00.2-.1 3 3 0 011 1.2 1.1 1.1 0 01-.1 1 .6.6 0 01-.9.2.6.6 0 001 .5 1.7 1.7 0 01-.5.4.7.7 0 01-.9-.2.7.7 0 00.6 1.2 1 1 0 01-1.7 0 .6.6 0 01.1-.7.7.7 0 000-1.2l-2.1-1.7a1.3 1.3 0 00-.1.2 3.4 3.4 0 01-1.2-1.2.6.6 0 00-.2.1 22.4 22.4 0 01-2.4-3c-.7.3-.6 1.3-.3 1.8a5.6 5.6 0 001.4 1.6l-2-1.4a1.7 1.7 0 001 2.2 2.8 2.8 0 00-1.3 0 1.8 1.8 0 001 1.3 2.5 2.5 0 00-1.1.1 1.8 1.8 0 001.4 1.2 2.2 2.2 0 00-1.2.3 1.5 1.5 0 001.5 1 1.7 1.7 0 00-1 .6 1.5 1.5 0 001.3.5 1.2 1.2 0 00-.4.3h-.1a.2.2 0 00-.1.2 1.1 1.1 0 00-.1.3.2.2 0 000 .1.2.2 0 000 .2l-.3-.1a1 1 0 00.3.7 1 1 0 01.2.1l.4.2a.2.2 0 00.3 0 .3.3 0 00.3.4s0 .2.2.2l1.9 3.2a.3.3 0 00.1.3.2.2 0 000 .2.1.1 0 01.2 0 .5.5 0 00.1.5.3.3 0 00.3.4l.1.4a1 1 0 00-.2.6.3.3 0 00.3.2.4.4 0 00.4.5.3.3 0 00.4.2 1.7 1.7 0 00.3.2c0 .2 0 .4.3.4a.3.3 0 00.3.2.3.3 0 00.3 0 .2.2 0 000-.3 1.5 1.5 0 00-.2-.6.8.8 0 000-.3l.4-.4a3.3 3.3 0 011.6-.9h.6a1.2 1.2 0 00.8-.2.2.2 0 000-.2 2.9 2.9 0 00-.2-.4l-.1-.1a.8.8 0 00.4-.1.6.6 0 00.3-.6c-.2.2-.7.4-.8-.1a.7.7 0 011-.8c.4 0 1 .9.6 1.3a1 1 0 00-.6 1 .8.8 0 01.7-.4 8.7 8.7 0 01-1.2.8 3.4 3.4 0 01-1 .7c-.3 0-.5-.2-.2-.5a.7.7 0 00-.7.5.6.6 0 00.3.7.8.8 0 00-.3 1c.1.4.5.3.4.8a.5.5 0 00.4-.4.8.8 0 010-.4 1 1 0 00.7.8.9.9 0 001-.2 1.1 1.1 0 001 .5 1.2 1.2 0 00.6-.2 1.4 1.4 0 00.8.6 1.4 1.4 0 00.6-.8 1.2 1.2 0 00.6.1 1.1 1.1 0 001-.8.9.9 0 001 0 1 1 0 00.4-.9.7.7 0 01.1.4.5.5 0 00.5.3c-.2-.4.2-.5.2-.8a.8.8 0 00-.5-1 .6.6 0 00.1-.7.7.7 0 00-.7-.3c.2.2.1.5-.1.5a3.5 3.5 0 01-1.2-.5 8.8 8.8 0 01-1.4-.5.8.8 0 01.8.2 1 1 0 00-.8-.8c-.6-.3 0-1.3.4-1.4a.7.7 0 011 .5c0 .6-.5.5-.7.4a.6.6 0 00.4.5.8.8 0 00.6 0c0 .5-.3.6-.2.7a3.5 3.5 0 001.1 0l1 .2a7.6 7.6 0 011.3 0l.7.4.5.1a2.8 2.8 0 00.5-.3 5.1 5.1 0 00.5 0 1.3 1.3 0 00.3-.3 3.2 3.2 0 00.4-.3.3.3 0 000-.2 1.6 1.6 0 00.6-.8.1.1 0 000-.2.3.3 0 00.2-.2.3.3 0 00-.2-.2.2.2 0 000-.2 1.6 1.6 0 00-1.3-1v-.1a.7.7 0 01-.3-.3 2 2 0 01.3.2v-.8a1.6 1.6 0 01-.4.3.8.8 0 01.2-.3h-.7a.8.8 0 01.2.3 2 2 0 01-.3-.2v.8a1.6 1.6 0 01.4-.3.8.8 0 01-.2.4 1.5 1.5 0 00-1 1.3.2.2 0 00-.1.2.2.2 0 000 .2.3.3 0 00.1.2.1.1 0 00.2.2 1.5 1.5 0 000 .2h.1a.5.5 0 01-.3.4 3.5 3.5 0 01-1.6-.2 1.4 1.4 0 01-.7-.3.4.4 0 01-.1-.3 1 1 0 00.3.1.6.6 0 010-.2.6.6 0 00.6.2.8.8 0 01-.3-.7.6.6 0 001.1-.3.3.3 0 01-.5 0c-.1-.3 0-.9-.2-1.3a1.2 1.2 0 00-1-.5.4.4 0 000-.2.8.8 0 01-1.1-.2 1 1 0 00.3 0 1.6 1.6 0 01-.3-1.8.3.3 0 01.1-.1 2.7 2.7 0 00.6.3.7.7 0 01.1-.1 10.7 10.7 0 00.2 1c0 .4.5.4.7.5.1-.3.5-.3.4-.7l-.2-1 .6 1.4c.2.3.6.2.8.3.1-.3.5-.4.3-.8l-1-1.5 1.2 1.6c.3.3.6 0 .9.1 0-.2.3-.5 0-.9L289 127l1.6 1.5a1.2 1.2 0 001 0 .9.9 0 00-.3-.9l-1.1-.7a6.8 6.8 0 001.3.6 1 1 0 00.9-.2c-.2-.5 0-.7-1.2-1 1 .2 1.4 0 1.7-.3a1.4 1.4 0 00-.8-.7 1.4 1.4 0 001.2-.7 1.7 1.7 0 00-1.3-.4 1.5 1.5 0 001.3-1.2zm-15.5 8.3a.4.4 0 000 .2 1.2 1.2 0 00-.8.7c-.2.5.1 1 0 1.3a.3.3 0 01-.4.2.6.6 0 001 0 .8.8 0 010 .8.6.6 0 00.5-.4.7.7 0 01.1.2.8.8 0 00.2-.2.7.7 0 01.1.3l-.4.3a4.3 4.3 0 01-1 .5.7.7 0 01-.8-.3c-.1-.3-.4-.4-.6-.2a.2.2 0 00-.3 0 .8.8 0 00-.1-.1.3.3 0 00-.2-.4.6.6 0 00-.4-.4v-.2a.3.3 0 00-.3-.4l-1.7-2.6-.1-.1-.2-.4a.2.2 0 00-.1-.3l.1-.1a6.2 6.2 0 001.2-1l-1 1a.7.7 0 000 .7v.2a1.1 1.1 0 001-.2l1.1-1.8c0 .2-.6 1.2-1 1.7-.1.4.3.7.3.9.3-.1.7 0 .8-.3l.8-1.8-.5 1.6c-.1.4.2.5.4.7.2-.1.6 0 .7-.5l.3-1.5v1c0 .5.4.4.6.7.2-.2.5-.2.6-.6a10.7 10.7 0 00-.1-1.1 1.5 1.5 0 01.1 0 2.9 2.9 0 00.5-.3.3.3 0 01.1 0c.4.5.5 1.4.1 1.8a1.2 1.2 0 00.4 0 .8.8 0 01-1 .4zm2.8 6.2c-.3 0-.6-.1-.4-.4a.5.5 0 00.4.1v.3zm5-1c.2.2 0 .4-.3.5a1 1 0 000-.3.6.6 0 00.3-.3zm-4.3-1a3.8 3.8 0 00-.5 1.1c-.3 0-.3-.4-.2-.5.2-.4 1-1 1.3-1.5a6 6 0 01-.6 1zm1 .6a6.8 6.8 0 000 2c-.6-.3-.5-1.4-.3-2a7.8 7.8 0 00.4-2c.2.4 0 1.5-.1 2zm1.5 1.8a6.5 6.5 0 00-.4-2c-.2-.4-.7-1.4-.6-1.8a7.9 7.9 0 00.8 1.9c.3.4.7 1.5.2 1.9zm1.2-2.3c0 .1.2.5-.1.5a4 4 0 00-.7-.9 6.2 6.2 0 01-.8-.7l1.6 1zm-2-16.2a1.6 1.6 0 01-1 0 1 1 0 00.7.4 1.6 1.6 0 01-1.4.6.7.7 0 00.7.2 5.5 5.5 0 00-.7 2.6 5.5 5.5 0 00-1.2-2.4.7.7 0 00.5-.3 1.7 1.7 0 01-1.4-.3 1 1 0 00.5-.5 1.7 1.7 0 01-.9.2 1.4 1.4 0 001-.8 4 4 0 01-1.3.3 4.2 4.2 0 001.7-1.1l1-.1a4.1 4.1 0 002 .7 3.8 3.8 0 01-1.4 0 1.4 1.4 0 001.1.5z"/><path fill="gold" d="M271.1 128.5a.1.1 0 010-.1 1 1 0 01-.1 0 .2.2 0 01.1 0zm3.7 6a.3.3 0 00.2-.3c.1.1 0 .3-.1.4-.2 0-.4.1-.4 0a.4.4 0 00.3-.1z"/><path fill="gold" d="M274.8 134a.3.3 0 11-.5.2 1.2 1.2 0 000-.4.2.2 0 10.2-.1 2.1 2.1 0 00.3.2z"/><path fill="gold" d="M274.4 133.7a.3.3 0 010 .1.3.3 0 01-.1 0 .3.3 0 00.1-.1z"/><path fill="gold" d="M274.3 133.5a.2.2 0 00.1-.2.2.2 0 010 .3.2.2 0 01-.4 0 .3.3 0 00.3 0zM272 130a.3.3 0 00.1-.2.1.1 0 010 .3.2.2 0 01-.1 0 .1.1 0 010-.1zm-.2-.6a.2.2 0 01.3.2.2.2 0 01-.2.2.2.2 0 01-.2-.1.2.2 0 01.1-.3zm.3.8h.1l2 3a.1.1 0 010 .2.2.2 0 01-.2 0l-1.9-3.2zm-1.1-1.9c-.3-.2-.1-.2-.1-.3l.2.2h-.2zm.2 0c-.1-.1 0-.2 0-.2l.1.1zm.5-.3a.7.7 0 01.1 0v.3-.2a.4.4 0 00.1 0v.3-.2h.1v.1l-.1.2.1-.1-.1.2h.1-.1.1a.2.2 0 000 .1h-.2.2a.2.2 0 010 .2.2.2 0 00-.3.1.4.4 0 000-.1 1.2 1.2 0 000-.2h-.1.1a.2.2 0 000-.4v-.3zm-.1 1l.1.1a.3.3 0 00.3 0 .2.2 0 01-.1.2.5.5 0 01-.3 0 .4.4 0 010 .2.2.2 0 01-.3 0 .2.2 0 00.1-.2v-.1a.2.2 0 01.1 0 .3.3 0 01.1-.1z"/><path fill="gold" d="M270.9 129.3l.5.2-.1.1-.4-.2zm-.1-.5a.2.2 0 00.2.3.2.2 0 00.1-.1.2.2 0 00.1.1.3.3 0 00.2 0 .1.1 0 010 .2.2.2 0 00-.3 0v-.2l-.1.2h-.1v-.1.1h-.1v-.2.1a.8.8 0 00-.2 0l.2-.1h-.2.2l-.3-.1v-.1h.2-.3a.9.9 0 010-.2l.4.1z"/><path fill="gold" d="M271.5 128.6a.4.4 0 01.2.3.5.5 0 01-.1.2.6.6 0 01-.3 0 .5.5 0 01-.2-.3l.4-.2z"/><path fill="gold" d="M271.1 128.8v-.2a.2.2 0 00-.2 0 1 1 0 01-.1.1v-.1l.2-.2v.1a.3.3 0 01.2 0 .2.2 0 010-.2h.2a.1.1 0 01.1 0 .5.5 0 01-.1 0 .2.2 0 000 .2v.1l-.3.2zm-.3-.3c-.1-.1 0-.1 0-.2l.1.1v.1zm5.9 9h-.1a.2.2 0 00.2-.1zm0-.1a.2.2 0 01-.3 0 .5.5 0 00.3-.3.2.2 0 010 .3zm-.3-.4a.3.3 0 00.2-.3c.2.2 0 .3-.1.4-.2.1-.4.2-.5 0a.4.4 0 00.4 0z"/><path fill="gold" d="M275.8 135.5a2.5 2.5 0 01.7 1.2.3.3 0 01-.2.3.2.2 0 01-.3 0 .3.3 0 00.3-.5.3.3 0 000-.3.2.2 0 01-.2.2.3.3 0 00-.2 0 .1.1 0 000-.1.3.3 0 000-.4.3.3 0 010 .2h-.1v-.1a.2.2 0 00.1-.1v-.1a.8.8 0 010-.3zm-.4-.5a1.3 1.3 0 00-.2.1.4.4 0 00.2.5.4.4 0 01-.2.1 2.4 2.4 0 01-.5-.9.7.7 0 00.4-.2 2 2 0 01.3.3zm15.1-1.4v-.1zm.8 0a.4.4 0 000-.1zm.7-.8h.1v.1a15.4 15.4 0 00-3 .3 14.1 14.1 0 012.9-.4zm-2-1.5l.1 1-1 .2a1.4 1.4 0 011-1.2zm.8 1.2a.3.3 0 00-.2 0 .1.1 0 00.1-.1v.1zm.4 0a.3.3 0 00-.1 0zm.3 0a.2.2 0 00-.1 0zm.5-.1a.2.2 0 00-.2.1.6.6 0 00.1 0zm-.2.4a.2.2 0 000-.1.2.2 0 00.1 0h-.1zm-.4 0a.1.1 0 000-.1.2.2 0 00.2 0 .9.9 0 00-.2 0zm-.4 0a.4.4 0 00.1 0z"/><path fill="gold" d="M290.6 132.9a.2.2 0 00.1-.2.2.2 0 00.1.1h-.2zm-.3 0a.2.2 0 00.1-.1.2.2 0 00.1 0zm-.3.1a.3.3 0 000-.1.2.2 0 00.1 0h-.1zm-.4 0a.2.2 0 00.2 0 .2.2 0 00-.2 0zm-.3 0a.4.4 0 00.1 0 .8.8 0 00-.1 0zm.1-.3a.3.3 0 00-.1.1.4.4 0 00-.1 0 .6.6 0 00.2 0zm.3 0a.2.2 0 00-.2 0zm.3-.1zm.4-.2a.1.1 0 000 .1.2.2 0 000 .1.4.4 0 00-.1 0c.1 0 0 0 0-.2zm-.1-.3a.3.3 0 00.1 0 .3.3 0 000 .1zm0-.3a.4.4 0 000 .1v-.1zm0-.4a.3.3 0 000 .1zm.3.1a.2.2 0 000-.1zm.1.4a.2.2 0 00-.1-.1.2.2 0 000-.1v.2zm0 .3a.2.2 0 00-.1 0 .1.1 0 000-.2l.1.2z"/><path fill="gold" d="M289.1 132.8a.1.1 0 01.2.1.1.1 0 01-.2.2.2.2 0 01-.1-.2.1.1 0 01.1-.1zm0 .2h.1zm3.1-.3a.1.1 0 01-.2 0 .1.1 0 01-.1 0 .1.1 0 01.1-.2.1.1 0 01.2.2z"/><path fill="gold" d="M292 132.7l.1-.1a.3.3 0 010 .1zm-1.4-.3v-.1a.2.2 0 010 .1z"/><path fill="gold" d="M290.7 132.3a.1.1 0 01-.1.2.1.1 0 01-.2-.2.1.1 0 01.1-.1.1.1 0 01.2.1zm-.2-.3h.1z"/><path fill="gold" d="M290.6 132a.2.2 0 010 .1.1.1 0 01-.2-.1.1.1 0 010-.2.1.1 0 01.2.2zm-.1-.3z"/><path fill="gold" d="M290.6 131.6a.1.1 0 01-.1.2.1.1 0 01-.2-.1.1.1 0 01.1-.2.1.1 0 01.2.1zm-.2-.2l.1-.1zm.2-.1a.2.2 0 01-.2.1.2.2 0 01-.1-.1.1.1 0 01.1-.2.1.1 0 01.2.2zm-.4 1.5a.1.1 0 00.1 0z"/><path fill="gold" d="M290.3 132.7a.2.2 0 010 .2.2.2 0 01-.2-.2.1.1 0 010-.1.1.1 0 01.2.1zm-.4.2v-.1a.3.3 0 010 .1z"/><path fill="gold" d="M290 132.8a.1.1 0 01-.1.1.1.1 0 01-.2 0 .1.1 0 01.1-.2.1.1 0 01.2 0zm-.5.2v-.2a.2.2 0 010 .2z"/><path fill="gold" d="M289.6 132.8a.1.1 0 010 .2.2.2 0 01-.3-.1.1.1 0 01.2-.2.1.1 0 01.1.1zm2.1-.1zm-.1-.2a.1.1 0 01.2 0 .2.2 0 01-.1.3.1.1 0 01-.2-.2.1.1 0 01.1-.1zm-.3.2zm.1-.1a.2.2 0 01-.1.2.1.1 0 01-.2-.2.1.1 0 01.2-.1.1.1 0 01.1.1z"/><path fill="gold" d="M291 132.8a.1.1 0 000-.2.2.2 0 010 .2z"/><path fill="gold" d="M291 132.6a.1.1 0 010 .2.1.1 0 01-.2-.1.1.1 0 01.1-.2.2.2 0 01.2.1zm-.4.2a.1.1 0 000-.1z"/><path fill="gold" d="M290.7 132.6a.2.2 0 01-.1.2.2.2 0 01-.2-.1.1.1 0 01.1-.2.1.1 0 01.2.1zm-1.7.1l1.2-.3v-1.1l.1 1.2q-.6 0-1.1.2a.2.2 0 00-.1 0zm1.7-1.5l.2 1.2h1.1-1.2l-.1-1.1v-.1zm-.3-.6l.3-.1v.3a.5.5 0 00-.2 0c-.2 0 0 .2 0 .3h-.3a.4.4 0 000-.3l-.2.1v-.4a.5.5 0 00.2.1c.2 0 0-.2-.1-.3h.4v.1a.4.4 0 00-.1.2z"/><path fill="gold" d="M292 132.2h-1l-.2-1a1.4 1.4 0 011.1 1zm0 .8a1.4 1.4 0 01-.4.7.3.3 0 00-.2-.1.3.3 0 00-.3-.2.3.3 0 010 .3.2.2 0 000 .3.3.3 0 01-.2 0 .3.3 0 00-.3-.4.3.3 0 00-.3-.2.3.3 0 01.1.2.4.4 0 00-.2.4 1.5 1.5 0 01-1-.7 12 12 0 012.8-.3z"/><path d="M291.5 133.2a.2.2 0 010 .1.5.5 0 000-.1zm.1-.1a.3.3 0 01-.1.3.7.7 0 00.1-.3zm.2 0a.4.4 0 01-.3.4.8.8 0 00.3-.4z"/><path fill="gold" d="M291 134.2a.7.7 0 000 .2.9.9 0 01-.6.1.4.4 0 01.4-.2.2.2 0 010-.1h.2zm.4-.2a3 3 0 01-.3.2v-.1a.5.5 0 01.2 0 .2.2 0 11.1 0zm-15.2 2.7c-.1.2-.4 0-.5 0h-.1v-.1h.2v.1a.7.7 0 010-.1.1.1 0 00.1-.1c.2 0 .4 0 .3.2zm-1.2-.7a.3.3 0 000 .2s.1-.1.2 0h.2a.4.4 0 00.3 0 .2.2 0 01.1.1c0 .2-.1.2-.3.1h-.5a.3.3 0 01-.1-.3.2.2 0 01.1 0z"/><path fill="gold" d="M274.8 135.4c.2.1 0 .3 0 .4a.2.2 0 010-.1.3.3 0 01.1 0v.1a.1.1 0 01.2 0 .2.2 0 01.2 0 .6.6 0 01.2 0 .2.2 0 01.1 0v.3a.8.8 0 01-.6-.1 2.3 2.3 0 00-.3 0c-.2-.2 0-.5 0-.6zm4.9-1a1.7 1.7 0 00.2.2c.1.1 0 .2-.1.3h-1.2a.2.2 0 00-.1-.1.2.2 0 01-.2.2.1.1 0 000-.1.2.2 0 01-.2.2.1.1 0 000-.2c0 .2 0 .3-.2.3a.2.2 0 000-.2.2.2 0 01-.2.3.2.2 0 000-.1c0 .1 0 .2-.2.2a.2.2 0 000-.1.2.2 0 01-.2.3.3.3 0 000-.2.4.4 0 01-.2.4 3.3 3.3 0 01-.6.4 4.3 4.3 0 00-.3-.4 1.2 1.2 0 00.4 0 .5.5 0 00.3-.3 1 1 0 01-.3.1.6.6 0 01-.7-.2.4.4 0 00.5 0 .4.4 0 01-.4-.3.1.1 0 00-.1-.2v.2a.3.3 0 00-.2-.1.3.3 0 01-.1 0l.2.2a.2.2 0 01-.4.2.3.3 0 010-.3 1.2 1.2 0 00.3-.4.2.2 0 01.3 0 .9.9 0 00.8.5 2.2 2.2 0 001-.3c.1-.1.2-.1.2 0a.1.1 0 000-.2.1.1 0 01.2 0c0-.2.2-.1.2 0a.1.1 0 000-.2.4.4 0 00.1 0 .5.5 0 00.5-.6 1.2 1.2 0 01.2.4.3.3 0 00.2-.3.8.8 0 00.2 0 1.3 1.3 0 000 .4zm6.9-.9a.4.4 0 00.1.2.1.1 0 000 .1.1.1 0 01.2 0 .2.2 0 01.2 0 .1.1 0 000 .1s.1-.1.2 0h.1l.8.1a1 1 0 001.2-.3 1.5 1.5 0 00.1 0l-.1.1s.3 0 .2.2a.1.1 0 00-.2 0 .5.5 0 01.2 0 .6.6 0 00-.1.1v.1a1.9 1.9 0 01.6 0 .4.4 0 01-.4.2c-.1 0 0 0 0 0h.2a.3.3 0 000 .2l.1-.2a.1.1 0 00.1.1v-.2a1.1 1.1 0 00.1.1.2.2 0 010-.2.7.7 0 00.1.1.4.4 0 010-.2.5.5 0 01.1 0 .3.3 0 010-.4.2.2 0 01.4.1.2.2 0 010 .2 1 1 0 01-.2.2 3.7 3.7 0 01-.6.6 1.4 1.4 0 01-.5-.1l-.8-.3c-.3-.2-.6 0-.6-.1l-.2-.1a.1.1 0 01-.2 0 .1.1 0 01-.2 0 .1.1 0 01-.2 0 .2.2 0 01-.2-.1.1.1 0 000 .1.2.2 0 01-.2-.2.2.2 0 000 .2.2.2 0 01-.2-.2.2.2 0 000 .2c-.2 0-.2-.2-.2-.3a.3.3 0 000 .2 2.6 2.6 0 01-1 0 2.6 2.6 0 000-.8.3.3 0 00.1 0 .4.4 0 00.2.3 1.5 1.5 0 01.2-.5.5.5 0 00.6.4zm-11.1 1.4a.7.7 0 00-.1-.2.2.2 0 01.2 0 .7.7 0 01-.1.2zm0 1.7a.2.2 0 01-.2-.1.4.4 0 01.2 0z"/><path fill="#d20000" d="M282.3 132.3a1 1 0 00-1-.7l-1 .1a.9.9 0 01-1-1l-.7-5.5 2.8-.3 2.8-.3.7 5.6a.9.9 0 01-.8 1l-1 .2a1 1 0 00-.8.9z"/><path d="M281.9 126.8v.3h.1v-.2a.2.2 0 01-.1 0z"/><path d="M284.4 130.2h-.1a.4.4 0 01-.1.1.5.5 0 010 .1.9.9 0 01-.2 0 .6.6 0 00.2 0 .2.2 0 00.1 0 .2.2 0 00.1 0 .2.2 0 00.2-.1s0 .1 0 0a.2.2 0 00.1 0v.3h-.3l-.1.2a1 1 0 01-.4 0l-.1.1a.4.4 0 01-.1 0 1.1 1.1 0 01-.2 0 .5.5 0 00-.1-.1 1.1 1.1 0 00-.2.5.7.7 0 00-.6 0 .3.3 0 00-.4 0c-.2-.2-.7 0-.7 0a.6.6 0 01.2-.1l-.4-.2a1.4 1.4 0 01-.7.2.9.9 0 01-.6-.3.5.5 0 010-.4.2.2 0 00-.3-.2.3.3 0 01.3 0 .2.2 0 010 .2.8.8 0 00.1.3.7.7 0 00.3 0 .7.7 0 010-.3h-.1a2.2 2.2 0 000-.7v-.5a.7.7 0 00.3-.3 3.7 3.7 0 00-.2-.5 1.3 1.3 0 010-.3.1.1 0 00-.1 0c-.2 0 0 .2 0 .4a1.2 1.2 0 01-.2.7v-.3a1.8 1.8 0 01-.2.4v-.1l-.2.4a1.2 1.2 0 010-.6.1.1 0 01-.1 0 1.7 1.7 0 000-.3 1.2 1.2 0 010-.9c.3-.2.6-.3 1 0a1.4 1.4 0 01.5-.3 1.7 1.7 0 01-.2-.3 1.5 1.5 0 01.3 0v-.1a.4.4 0 00-.5 0 .5.5 0 010 .1.2.2 0 00-.2 0 .4.4 0 00-.3 0 1.8 1.8 0 00-.5 0 .8.8 0 01.1-.2.3.3 0 00-.2-.1v-.2a.5.5 0 00-.2-.1l.3-.4a1.3 1.3 0 01.4-.3v-.8l.1.2a.5.5 0 01.2 0 2.2 2.2 0 010 .2l.1.2a2.5 2.5 0 01.8.2.4.4 0 000-.2h-.3l-.1-.2a2.4 2.4 0 01.1-.2 1.2 1.2 0 01.2 0c.3-.4.8 0 .8.3a.3.3 0 01-.3.2.7.7 0 01-.1.2.9.9 0 01.2.2 1.5 1.5 0 01.1.2.7.7 0 00.2 0l.1-.2h-.1a1.3 1.3 0 01.2-.2.2.2 0 010-.1.8.8 0 01.2-.2.8.8 0 01.3-.1 1.4 1.4 0 00-.1-.2.8.8 0 01.3 0 .6.6 0 01.2 0 .5.5 0 00.3.2.6.6 0 000 .1 1 1 0 01.4.1h-.3l.2.3.2.7a.2.2 0 010 .1l-.5.2a.4.4 0 000 .1 1.2 1.2 0 01.2.6.8.8 0 010 .2c.2 0 .6-.3.8-.1a.6.6 0 010 .5 2.4 2.4 0 01-.2.5.8.8 0 01-.2.2 1.3 1.3 0 01-.2 0 1.4 1.4 0 010-.4.4.4 0 00.2 0l.1-.1a2.6 2.6 0 000-.3c0-.2-.5.1-.8.2a1.8 1.8 0 00.3.6 2.6 2.6 0 010 .3l.2.4.2.2a.8.8 0 00.1 0c.1 0 .3-.4.4-.2a.3.3 0 010 .2.1.1 0 00-.1 0h-.1a.2.2 0 000 .1z"/><path fill="#fff" d="M282.3 126.2l.2-.2a.6.6 0 01-.2 0 .8.8 0 01.4-.1h-.2a.7.7 0 01.3-.2.6.6 0 000-.1.5.5 0 01.6.2.7.7 0 00-.2 0h.3l-.2.2a2 2 0 01.2.3.3.3 0 01.2 0 5.6 5.6 0 01.3.6.2.2 0 010 .1.4.4 0 01-.3.2 2 2 0 01-.1-.2.8.8 0 01-.4-.3 1.2 1.2 0 010-.4 1.5 1.5 0 000 .8 6.4 6.4 0 01-1.1-.4h-.1v.2-.3a.2.2 0 00.2 0 .4.4 0 01.1-.3h-.1l.2-.1a.2.2 0 00-.1 0zm-1.1-.8a1 1 0 01.2 0 .4.4 0 01.3 0c.2 0 .3.4.2.4a.3.3 0 01-.2 0h-.1a.1.1 0 000 .1v-.1a1 1 0 010 .3.3.3 0 01-.3-.3.5.5 0 00-.2 0 .6.6 0 01.1 0 .8.8 0 00-.2 0v-.2a.8.8 0 01.2-.2z"/><path fill="#d20000" d="M280.8 130.8a.3.3 0 00.2-.1.4.4 0 010-.3.6.6 0 01.5-.3 1 1 0 01.5 0 2.2 2.2 0 01.3.2c0-.2 0-.1-.2-.2a.9.9 0 01-.2-.2 3.2 3.2 0 00-.5-.3.8.8 0 000-.2.5.5 0 000-.2 2 2 0 01-.6.4 1 1 0 00-.1 1 .9.9 0 01.1.2z"/><path fill="#d20000" d="M282.8 130.3l-.4-.9-.1-.1a.5.5 0 01-.1 0v-.4h-.1a.7.7 0 01-.1 0v.1a.8.8 0 01-.3.5.8.8 0 00.5.4l.3.2a.6.6 0 01.3.2z"/><path fill="#d20000" d="M282.9 130a.2.2 0 01.1-.1 1 1 0 01.1 0h.1c0 .1.1 0 .2 0v.1a.4.4 0 00-.1.3.3.3 0 00.2-.3v-.1l-.2-.1a.4.4 0 01.2 0 .5.5 0 01.2.2 5 5 0 00-.4-.6v-.2a.9.9 0 00-.6-.5.3.3 0 00-.1 0v.3l.3.2a1.3 1.3 0 01-.2 0s-.2.1-.2 0a1 1 0 00-.1 0v.2a4.2 4.2 0 01.5.7zm.2-3.3a1.6 1.6 0 00.1.4h.3a.1.1 0 01.1 0 1 1 0 01-.1-.2.9.9 0 01-.4-.2z"/><path fill="#0039a6" d="M280 126.2a.8.8 0 01.1-.2l.1.5a.2.2 0 00.1 0 4 4 0 00-.4.6 1.4 1.4 0 010-.4.6.6 0 000 .2.2.2 0 00-.1.1.2.2 0 01-.1 0 2.6 2.6 0 01.4-.7 4.2 4.2 0 00-.4.5l.1-.3-.1.1v.1a.5.5 0 00-.2 0 3.9 3.9 0 01.5-.5zm.9.6l.2.3a.6.6 0 00-.3 0 .8.8 0 00.1-.3z"/><path fill="#0039a6" d="M280.8 126.6v.1a1.8 1.8 0 010 .4 1.2 1.2 0 01-.2.2 1 1 0 00-.1 0zm-.1-.1c0 .2 0 .4-.2.6a2 2 0 010 .2.5.5 0 00-.3 0 3.7 3.7 0 01.4-.7v-.1h.1z"/><path fill="#0039a6" d="M280.4 126.6a.5.5 0 00.2 0 5.7 5.7 0 00-.5.8.2.2 0 000-.1.9.9 0 010-.2.2.2 0 000 .1.4.4 0 010 .1.9.9 0 01-.3 0 3.6 3.6 0 01.6-.7zm.4-.1h.2a1.8 1.8 0 010 .2zm-.3-.5a1.2 1.2 0 01.9.1v.3a.4.4 0 010-.2.3.3 0 00-.4-.2 1.6 1.6 0 00-.4.1zm-.1 0l.2.2h-.1l-.1-.3z"/><path fill="#d20000" d="M282.4 128.8a.9.9 0 010 .1.2.2 0 010-.1z"/><path fill="#fff" d="M282.3 128.4l.1.3a1.7 1.7 0 01-.1-.3zm1.2-.7a.8.8 0 010 .6 1.3 1.3 0 000-.5.4.4 0 010-.1zm0-1.7h.3-.2z"/><path fill="#d20000" d="M282.1 127.4a1.3 1.3 0 01.2.5.1.1 0 01-.1 0l-.2-.4a.2.2 0 01.1 0z"/><path d="M283.8 127zm-1.3-.7a.8.8 0 01-.2.1zm.1-.1h-.2zm.5-.4a.4.4 0 00-.2 0 .2.2 0 01.2 0zm.3.5a.2.2 0 01.1.2z"/><path fill="#fff" d="M281.7 126.2a.2.2 0 010 .2v-.2z"/><path d="M281.5 126zm-.1-.5a1.4 1.4 0 01.3 0 .3.3 0 010 .3.3.3 0 000-.2h-.2a.4.4 0 01-.2 0 .5.5 0 00.1-.1zm.1.2z"/><path fill="#fff" d="M280.1 125.2a.4.4 0 01.1.2l-.1-.2zm0 .5a.2.2 0 010-.2.4.4 0 01.2 0h.1v.1a.2.2 0 010 .1.2.2 0 01-.1.1 3.2 3.2 0 01.1.4 1 1 0 01.2 0l.1.2a1.7 1.7 0 00-.3.1.3.3 0 01-.1 0v-.2a2.9 2.9 0 01-.2-.5.9.9 0 000-.1zm3.5 1.4v.1zm-1.6 1.5v.3a.3.3 0 01-.1-.3zm0 .4a.9.9 0 01-.1.2 1 1 0 01-.2.3c0 .3.8.5.8.6a.7.7 0 00-.1.1 2.4 2.4 0 00-.3-.1l-.1-.2a3.3 3.3 0 00-.6-.3v-.2a.7.7 0 000-.3 1.8 1.8 0 000-.2.9.9 0 00.6 0zm-1.4 1.7a.2.2 0 01.1.1 1 1 0 01-.3 0 .3.3 0 01.2-.1zm1.8-.4a.2.2 0 01.2-.1.7.7 0 01-.2.1zm-.2-1.3zm.1-1a5.2 5.2 0 01.2.7 1.4 1.4 0 01.2.5h-.1a1.8 1.8 0 000-.3l-.3-.8zm.4 1a.3.3 0 01.1.2.4.4 0 01-.1 0z"/><path fill="#fff" d="M282.4 127.8a1.2 1.2 0 01.9 0 .7.7 0 01.2.6.3.3 0 01-.1.2l-.1-.3a.9.9 0 000 .3 3.2 3.2 0 00.2.5l.1.2a2.4 2.4 0 000 .2 3.6 3.6 0 00.4.7.4.4 0 00-.1 0 .3.3 0 01-.1-.2 5 5 0 00-.4-.6 2.6 2.6 0 01-.1-.2 1.3 1.3 0 00-.2-.3 1 1 0 00-.2-.2.6.6 0 00-.2 0v-.2a.3.3 0 010 .2h-.2v-.4a1.3 1.3 0 00.1 0l-.2-.4z"/><path fill="#fff" d="M283.4 127.8a1 1 0 01.1.6 1 1 0 00-.1-.6zm-.1-.1h.1zm0 0a1.4 1.4 0 00-1 .1 2 2 0 011-.1zm.1 0h.1zm.8.3a.1.1 0 01.2 0 .6.6 0 010 .2v.3a3.2 3.2 0 01-.1.5.3.3 0 01-.2.2 1 1 0 000-.3v-.1h.1a.6.6 0 000-.5 1.7 1.7 0 00-.7.2.6.6 0 00.2-.3l.5-.2z"/><path fill="#fff" d="M284 128.9a.3.3 0 010 .3.7.7 0 01-.1 0 1 1 0 010-.3zm0 1.3a.3.3 0 01.2.2.7.7 0 01-.3 0 .3.3 0 01.2-.2zm-.6-2.5a2.6 2.6 0 00-.7 0h-.4l-.1-.2a1 1 0 01-.1-.7 3.1 3.1 0 001.3.6 1.4 1.4 0 010 .2z"/><path fill="#fff" d="M282.1 126.7a6.8 6.8 0 00.6.3l.8.2-.1.2a2 2 0 01-.6-.2 1.5 1.5 0 01-.7-.5zm-2.3 1.3a.5.5 0 01.7 0 .4.4 0 000 .2.2.2 0 00-.3 0 1.3 1.3 0 000 .5.8.8 0 010 .4 2.1 2.1 0 00-.2-.6 4.2 4.2 0 010 .5v.3a2.5 2.5 0 000-.5 1 1 0 01-.3.7 7 7 0 010-.8 1 1 0 010 .4v-.2a1.2 1.2 0 010-1zm.6-2.3l2.1 3.8a8.4 8.4 0 01.5.8l-.5-.8zm1.2 1.3h.1a.2.2 0 010 .1.2.2 0 01-.1 0z"/><path fill="#fff" d="M281.6 126.9a.3.3 0 01.1 0 .4.4 0 010 .1 1 1 0 01-.1 0 1 1 0 010-.1z"/><path fill="#fff" d="M281.6 126.7a.4.4 0 01.1 0 1.2 1.2 0 010 .2.2.2 0 00-.1 0v-.2zm.2-.2v.6a.4.4 0 010-.2v-.2a.5.5 0 010-.1v-.1zm0 .7a.2.2 0 010-.1z"/><path fill="#fff" d="M281.6 127.2a.8.8 0 01.2.1l.3.7.2.8a.5.5 0 00.2.2v.2h-.1l-.6-1a.5.5 0 010-.3.8.8 0 000 .1.4.4 0 010-.2.3.3 0 00-.1.2l-.3-.5a.1.1 0 010-.1l-.3-.5a1.5 1.5 0 010-.4 1 1 0 00-.3 0l-.1-.3h.2a.3.3 0 01.4 0v.2h.2a.2.2 0 000-.2.6.6 0 00-.2-.2.4.4 0 00.3.1.7.7 0 01.2.5.4.4 0 010 .1.5.5 0 01-.2 0 .7.7 0 010-.1l-.2.1v-.2a.3.3 0 000 .2v.5a2.1 2.1 0 000-.4h.2a.6.6 0 010 .1v.1h-.1v.1h.1v.1a.3.3 0 01.2 0 .4.4 0 01-.2 0zm-.4.1l.2.3a1.2 1.2 0 01-.2 0 .3.3 0 010-.3z"/><path fill="#d20000" d="M281.2 127.3a.2.2 0 00.1.3.4.4 0 01-.3 0 .6.6 0 010-.2h.2z"/><path fill="#fff" d="M281.1 127.7a4.5 4.5 0 01.2.8v.3l.6-.2a.3.3 0 00.1.3 1 1 0 01-.3 0 .6.6 0 01-.4 0 .6.6 0 010 .3 2.4 2.4 0 01-.6.4 1.2 1.2 0 000 1 .8.8 0 00-.3.2.8.8 0 010-.3 3.2 3.2 0 000-.7v-.5a.7.7 0 00.2-.2 1.4 1.4 0 000-.4.7.7 0 01.1-.8 1 1 0 01.4-.2z"/><path fill="#d20000" d="M281.7 128.2a.2.2 0 01-.2 0 .7.7 0 01-.3-.5.2.2 0 01.2 0zm.3-1.2l.1.4a.4.4 0 00-.2 0 .5.5 0 010-.2z"/><path fill="#fff" d="M283.4 125.9a.6.6 0 01.3.3.5.5 0 00-.1 0 1.5 1.5 0 00-.2-.2.7.7 0 000-.1zm-1.1 1.9l.3.5h-.2l-.1-.3a.2.2 0 000-.2zm-1.1.1a1 1 0 00.2.3.2.2 0 00.2 0 1 1 0 00.1 0l.2.3a2 2 0 01-.5.2 8.3 8.3 0 01-.2-.8zm1 .1a.9.9 0 01.1.4v-.4z"/><path fill="gold" d="M282.5 131.2h.1c-.1 0 0 0 0 0zm.7-.4zm-.4.2zm-2.5 0zm3.4-.2c0 .1 0 0 .1 0a1.4 1.4 0 00.1-.1.4.4 0 01-.1.1zm-2.6.2zm-1.1-.6a.1.1 0 010 .1l-.2-.1h.2zm1 .4a.3.3 0 000 .2.6.6 0 000 .1v-.1a.3.3 0 01-.1-.2zm-.2.2a.5.5 0 000 .1c0-.1-.1-.2 0-.2a.1.1 0 000 .1zm-.2 0a.2.2 0 000 .1.1.1 0 010-.1zm-.2-.1l.1.2a.2.2 0 01-.1 0v-.2zm-.2 0v.1a.2.2 0 010-.1zm-.1 0zm.9-.1a.6.6 0 00.2 0 .1.1 0 01-.1 0zm.1-.5h.1v.1h-.1zm-1.1.3zm1.2-.2a.1.1 0 010 .1h-.1zm-1.2.3a.2.2 0 010 .1v-.1zm1.2.3zm1.6-.3h-.1v.1a4.2 4.2 0 00-.7.3l-.4.1.4-.2h.1a2.2 2.2 0 01.7-.3zm-.2.2zm-.9-.1v.1zm-.4-.1a.1.1 0 01.1 0 .7.7 0 00-.2.2.2.2 0 01.1-.2zm.2.3a.3.3 0 010-.2.2.2 0 01.2 0l-.1-.1a.2.2 0 00-.1 0 .3.3 0 000 .3z"/><path fill="gold" d="M281.4 130.1a.6.6 0 01.2.3.3.3 0 00-.1-.3.4.4 0 01.2.4 1.6 1.6 0 000-.3 1 1 0 01.1.2.6.6 0 000-.2v.4a.1.1 0 00-.1 0v-.1h-.1v.1a1 1 0 00-.2.2.3.3 0 01.1-.2.2.2 0 00-.1 0 .5.5 0 00-.3 0l.2-.1a.4.4 0 01.2 0 .3.3 0 00-.2-.2.7.7 0 00-.2 0h.3a.5.5 0 00-.1-.1.4.4 0 01.1 0zm1.6-.1zm0 0zm-1.2.1a.3.3 0 01.1.2.1.1 0 010 .1.4.4 0 000 .2v-.3a.6.6 0 00-.1-.2zm-1.8.4zm3.7-.5zm-.2 0zm-1.5.2a.2.2 0 010 .3.2.2 0 010-.2zm2.4-.2zm0 0zm-2.2.3a.4.4 0 010 .2.6.6 0 000-.2zm.1 0a.2.2 0 010 .2v-.2z"/><path fill="gold" d="M282.3 130.4a.2.2 0 010 .2 1.3 1.3 0 010-.2zm1.4-.2zm-1.2.2a.1.1 0 010 .1.4.4 0 000-.1zm.2-.1v.1zm.2 0zm1.3-.1zm-1.8.2a.2.2 0 010 .1zm-1.1.2h-.1zm.7-.1h.1zm.1 0a.5.5 0 010 .2.8.8 0 010-.2zm1.1-.1h.2-.1zm-1.2.1a.1.1 0 010 .1zm1.5-.2h.1zm-1.5.2v.1zm.7 0a.6.6 0 01.1.1.3.3 0 01-.1-.1zm1-.1a.4.4 0 01.1 0 .3.3 0 01-.1 0zm-1.1.1v.1-.1zm.2 0a.4.4 0 010 .1zm-.4 0a.3.3 0 010 .2 1 1 0 000-.2zm-2.4.3a.2.2 0 00.1 0 .1.1 0 010 .1zm1.7-.2a.3.3 0 01.2.1.3.3 0 01-.2 0zm1-.1v.1zm-.5.1zm.8-.1a.3.3 0 010 .1zm-2 .3zm-.7.1zm4.2-.5a.3.3 0 010 .1zm.2 0zm-4.2.5zm3.7-.4zm.1 0zm.1 0zm-.6.1zm-3 .4zm2.2-.3a.2.2 0 01-.1.1l-.2.2-.2.2a1.6 1.6 0 00-.3 0l.7-.5zm-1 .2h.1zm-1.3.1v.1zm3-.3zm-2.9.3zm3.2-.3zm-2.1.3zm.6-.1zm.5-.1zm1.2-.1zm-1 .1h-.2v.2c0 .1 0 0-.1 0v.1h.2v.1a1.2 1.2 0 00-.2 0 .1.1 0 00-.1 0 1.5 1.5 0 01.2-.3.4.4 0 01.2-.1zm-1.5.2zm.6 0a.2.2 0 01.1 0 .2.2 0 00-.1 0zm-.1 0h.1z"/><path fill="gold" d="M283 131h.2a.4.4 0 00-.1 0zm-.9 0a.2.2 0 01.2.1h-.2zm1.1 0zm-1.2.1a1.9 1.9 0 01.2.1h-.2z"/><path fill="gold" d="M283 131a.2.2 0 01.2 0 .3.3 0 01-.1 0zm-.3 0v.1z"/><path fill="#009aff" d="M280 118.2a4.7 4.7 0 01-1.8 1.1 4.8 4.8 0 001.6-1.1z"/><path fill="#009aff" d="M279.7 118.2a4.9 4.9 0 01-1.8 1.1 5.2 5.2 0 001.6-1.2.5.5 0 00.2 0zm-4.7-1c.5.2-.2 1.2-.1 1.8a1 1 0 00.9.5.8.8 0 01-1-.8c0-.4.5-1.3 0-1.4-.3-.1-.7.3-1.2.5-.4.1-1.2.2-1 .8a1.5 1.5 0 00.4.3c.2.3.1.7-.2.6-.4 0-.5 0-.5.2 0-.6.6 0 .7-.4a.5.5 0 00-.3-.5.5.5 0 01-.3-.4c0-.6.8-.6 1.3-.7l.9-.5a.8.8 0 01.3 0z"/><path fill="#009aff" d="M274.2 116.9a.6.6 0 00-.3.2.9.9 0 01.4-.2.2.2 0 01.1 0 .6.6 0 00-.4.3 1 1 0 01.5-.2 1.4 1.4 0 00.2 0 1.5 1.5 0 00-.7.4 2.2 2.2 0 01-.7.2 1.7 1.7 0 00.3-.3.8.8 0 01.5-.5.3.3 0 01.1 0zm-1 1.1a.7.7 0 000 .5 1 1 0 01.1-.5h.1a.8.8 0 00.2.9.8.8 0 01.2 1s-.4.5-.1.7a.5.5 0 01-.2-.8.4.4 0 00-.1-.5.5.5 0 01-.4.5c-.2 0-.6-.2-.6 0 0-.2.2-.2.4-.2.6.1.5-.6.2-.8-.2-.1-.6-.4-.2-.6a.5.5 0 000 .3.6.6 0 010-.4h.1a.6.6 0 000 .4.9.9 0 010-.4h.2a.6.6 0 000 .4.9.9 0 010-.5h.1zm1.5-.7a1 1 0 010 .5.6.6 0 000-.4c.4 0 .1.7 0 1a.9.9 0 00.2 1 .8.8 0 01-.5-.5 1.8 1.8 0 010-.7 1 1 0 000-.8.2.2 0 00.1 0 .7.7 0 01.2.4.5.5 0 00-.1-.4zM286 116c-.6.3.4 1 .4 1.7a1 1 0 01-.7.7.8.8 0 00.8-1c-.1-.4-.9-1.2-.4-1.4.4-.2.8.2 1.3.2s1.3 0 1.2.6a1.5 1.5 0 01-.3.4c-.2.3 0 .7.3.6.4-.2.5-.2.6 0-.1-.6-.6.1-.8-.2a.4.4 0 01.2-.6.5.5 0 00.1-.4c-.1-.6-.9-.4-1.4-.5l-1-.2a.8.8 0 00-.3 0zm.6-.5a.6.6 0 01.4.1.9.9 0 00-.5 0 .5.5 0 01.4.1 1 1 0 00-.6 0 1.4 1.4 0 01-.1 0 1.5 1.5 0 01.8.2 2.3 2.3 0 00.6.1 1.7 1.7 0 01-.3-.3.8.8 0 00-.6-.3.4.4 0 00-.1 0zm-5.4 2.5a4.7 4.7 0 002.1.7 4.9 4.9 0 01-1.8-.7h-.3z"/><path fill="#009aff" d="M281.6 118a4.9 4.9 0 002 .7 5.2 5.2 0 01-1.8-.8h-.2zm6.2-1.6a.7.7 0 01.1.4 1 1 0 00-.2-.4.9.9 0 010 .9.7.7 0 000 1c.1.1.5.5.3.7a.5.5 0 000-.9.4.4 0 010-.5.5.5 0 00.4.4c.2 0 .6-.3.7 0 0-.3-.2-.2-.4-.1-.6.2-.7-.6-.5-.8.2-.2.5-.5.1-.7a.5.5 0 010 .4.7.7 0 000-.4h-.1a.6.6 0 010 .4.9.9 0 00-.1-.4h-.1a.6.6 0 010 .5 1 1 0 00-.1-.5zm-1.4-.4h-.1a1 1 0 000 .5.7.7 0 01-.1-.4c-.3 0 .1.7.3 1a.9.9 0 010 1 .8.8 0 00.4-.6 1.8 1.8 0 00-.2-.6.8.8 0 01-.2-.8.7.7 0 00-.1.4.5.5 0 010-.4z"/><path fill="gold" d="M284.9 119.3a.3.3 0 000-.2.6.6 0 000 .2zm-.5-.1a1.9 1.9 0 01.3 0 .2.2 0 010-.1 1.8 1.8 0 01-.3 0zm-7.1.8a1.5 1.5 0 00-.3.1.2.2 0 000-.2 1.9 1.9 0 00.3 0zm-.5.2a.2.2 0 01-.1-.1.2.2 0 010-.1.6.6 0 01.1.2z"/><path fill="gold" d="M276.6 120a.2.2 0 00.2.2.4.4 0 000 .1.7.7 0 01-.3-.3zm8.4-1a.2.2 0 01-.2.3.4.4 0 01.1.1.6.6 0 00.2-.4zm-.4 1.7a1 1 0 011.2.4.3.3 0 00-.2-.4 1.3 1.3 0 00-1 0zm.4-.3c1 0 1 .4 1.5.4a.7.7 0 00.8-.4 1 1 0 01-.7.1 6 6 0 00-1-.2 1.2 1.2 0 00-.6.1z"/><path fill="gold" d="M285.8 119a5.6 5.6 0 01-1.7 1.8.6.6 0 00.5-.2 2.7 2.7 0 011.2-.7 1.1 1.1 0 01.8.2.8.8 0 000-.8.9.9 0 00-.8-.3zm-8.4 2.5c-.4 0-1 0-1.1.7a.3.3 0 010-.4s.2-.4 1-.3z"/><path fill="gold" d="M277 121.3c-1 .2-1 .6-1.5.7a.7.7 0 01-.8-.2 1 1 0 00.7 0 6.5 6.5 0 011-.5 1.2 1.2 0 01.5 0z"/><path fill="gold" d="M275.8 120a5.6 5.6 0 002 1.5.6.6 0 01-.4-.1 2.7 2.7 0 00-1.4-.4 1 1 0 00-.8.3.8.8 0 01-.2-.7.9.9 0 01.8-.5zm1.2-.7h.1zm0 .1h.1zm.2-.1zm0 .1zm.2-.1zm0 0zm.1-.1h.1-.1zm0 .1zm.1-.1zm.1.1zm-.5 0zm.2 0h-.1zm.1 0zm.1 0zm.1 0zm-1.5.1zm.7-.1zm.1.1zm-.3-.1zm.1.1zm-.2-.1v.1zm0 .1h.1-.1zm-.1 0zm0 0zm-.2 0h.1-.1zm.6 0zm-.2 0zm-.1 0zm-.1 0h-.1zm-.2 0zm.7 0v-.1zm0-.1a3.4 3.4 0 00-.8 0 6.8 6.8 0 01.8 0 3.4 3.4 0 01.8-.2 5.2 5.2 0 00-.8.2zm-.7.2h.7a6.8 6.8 0 01.8-.2l-.8.2a6.7 6.7 0 00-.7 0zm1.5-.2zm-.8-1.8a.2.2 0 01-.2.2.2.2 0 01-.2-.2.2.2 0 01.2-.2.2.2 0 01.2.2zm-.2-.5l.2-.1v.2a.3.3 0 00-.2 0v.1h-.2a.4.4 0 00.1-.1c0-.1-.2 0-.2 0v-.2a.4.4 0 00.2 0h-.1l.2-.1a.1.1 0 000 .1zm.8 2h-.1.2a.8.8 0 00-.1 0zm-1.2.2a.6.6 0 00-.1 0h.2zm1.3-.2zm-1.5.2z"/><path fill="gold" d="M277.4 119a.7.7 0 00-.3.2h.3a.6.6 0 00.1-.2zm-.9.1a.8.8 0 000 .1h.3a.6.6 0 00-.3 0zm1.4-.1h-.2.1zm-1.9.1a.5.5 0 00.2.2.4.4 0 000-.1.5.5 0 01-.1 0zm1.6-.1h.1zm-1.3 0a.4.4 0 010 .2.5.5 0 01.1 0z"/><path fill="gold" d="M276.3 119v.1h.1zm1.3-.1zm0-.1a.7.7 0 00-.2 0 .6.6 0 010 .2.6.6 0 00.2-.2zm-1.3.2a.4.4 0 00.2 0 1 1 0 01.1 0 .8.8 0 00-.3 0zm1.5-.2l-.2.1a.4.4 0 01.1.1.3.3 0 01.1 0 .8.8 0 010-.2zm-1.7.2a.4.4 0 000 .1h.1v-.1zm1.3-.2a.5.5 0 00-.4.3.5.5 0 00.4-.3z"/><path fill="gold" d="M276.5 119a.6.6 0 00.4.2.5.5 0 00-.4-.3zm1.1-.2zm-1.3.2h.1v-.1zm1-.3v.1zm0 .1l-.1.1v-.1zm-.7 0v.1h.1zm0 0zm1.3-.1a.3.3 0 01-.1 0 1 1 0 000 .2.8.8 0 00.1-.2z"/><path fill="gold" d="M277.7 118.7a.5.5 0 00-.1 0v.1h.2a.3.3 0 01-.1-.1zm-1.5.1a.3.3 0 000 .1.6.6 0 000 .1h.1a.9.9 0 000-.2zm-.2.1a.3.3 0 000 .2.4.4 0 00.1-.2z"/><path fill="gold" d="M276.2 118.8a.7.7 0 00.2.2h.1a.3.3 0 010-.1.5.5 0 00-.3-.1zm1.4-.2a.6.6 0 00-.3.2.3.3 0 01.1 0h.1a.8.8 0 00.1-.2zm-1.2.2a.3.3 0 01.1 0zm.8-.2a.6.6 0 00-.2.2.5.5 0 010 .3.7.7 0 01.1-.2.5.5 0 000-.3zm-.2.1zm-.2 0a.3.3 0 000 .1.2.2 0 010-.1z"/><path fill="gold" d="M276.7 118.7a.5.5 0 000 .3.7.7 0 01.2 0 1 1 0 010-.1.7.7 0 00-.2-.2zm1.3-.2l-.1.1a.2.2 0 000 .1.4.4 0 000-.2zm-2.1.3a.6.6 0 010 .1 1.2 1.2 0 010-.1zm1.1-.2h.1zm-.2.1zm-.8 0v.2a.5.5 0 01.1 0v-.2z"/><path fill="gold" d="M277 118.6a.6.6 0 00-.1.3.7.7 0 000 .2.5.5 0 00.1-.2.6.6 0 000-.3zm.4 0a.9.9 0 010 .1zm.1-.1a1.2 1.2 0 010 .1zm-.2 0v.2a.4.4 0 000-.2zm-.8.1v.1a1.2 1.2 0 010 .1h.1v-.2zm.6-.1l-.1.1h.1v-.1zm-.3 0h-.1v.1h.1zm1.1-.1a.4.4 0 01-.1.1v.1a.3.3 0 01.2 0l-.1-.2zm-1.9.2a.6.6 0 00-.1.1 1 1 0 00.1.1 1.2 1.2 0 010-.2zm.9-.1z"/><path fill="gold" d="M277.8 118.5a.6.6 0 01-.1.2.4.4 0 00.1 0 .4.4 0 000-.2z"/><path fill="gold" d="M277.6 118.4v.1a1.2 1.2 0 000 .1.5.5 0 01.2 0 1.6 1.6 0 00-.2-.2zm-1.4.4a.4.4 0 01.2 0 1 1 0 010-.1.8.8 0 01-.2 0z"/><path fill="gold" d="M276.2 118.5a1.6 1.6 0 00-.1.2 1.2 1.2 0 00.1.1.4.4 0 01.1-.2 1.2 1.2 0 00-.1 0zm1.2-.1a.6.6 0 00-.1.1 1.3 1.3 0 01.1.1h.1a.7.7 0 00-.1-.2zm-1 .1a1.3 1.3 0 000 .1 1 1 0 010 .1.6.6 0 01.1-.1v-.1zm.6-.1v.1a.3.3 0 010 .2v-.3zm-.2 0v.3a.3.3 0 01.1-.1v-.1z"/><path fill="gold" d="M277 118.4v.1h.1v-.1zm-.2 0h-.1v.1h.1zm.5-.1v.2a.5.5 0 000-.1zm-.4.1zm-.4 0a.9.9 0 000 .2zm1.5-.2a.6.6 0 01-.1.2h.1v-.1zm-2.2.3a.4.4 0 000 .2l.1-.1v-.1zm1.9-.3a1 1 0 000 .2 1.4 1.4 0 010 .1 1 1 0 00.1-.1v-.2zm-.2.1a1.4 1.4 0 010 .2 1.5 1.5 0 01.1-.1 1 1 0 00-.1-.1zm-1.2.1l-.1.1a1.4 1.4 0 01.1.1 1.6 1.6 0 01.1-.1 1.3 1.3 0 00-.1-.1zm-.3 0a1 1 0 010 .2.4.4 0 010 .1.7.7 0 01.2-.2 1 1 0 01-.1 0zm2-.2zm-1 .1v.1h.1v-.1zm0 0zm-.3 0v.1h.1zm-.9.1v.1zm1.1-.1zm.1-.1v.1h.1v-.1zm-.3 0v.1zm.6-.1v.2a1.2 1.2 0 00.2 0 1.3 1.3 0 00-.2-.2z"/><path fill="gold" d="M276.4 118.3a.3.3 0 01-.1 0 1.4 1.4 0 01.1.2.2.2 0 010-.1v-.1zm.4-.1v.1a.1.1 0 010-.1zm1-.2a.8.8 0 010 .2.5.5 0 010 .2 1 1 0 00.1-.2v-.1zm-1.7.3a.9.9 0 010 .1 1 1 0 000 .1l.2-.1-.2-.1zm-.1 0l-.2.2a.6.6 0 01.1 0 1.6 1.6 0 01.1 0v-.2zm1.6-.3a.7.7 0 01-.1.2l.1.1h.1a.6.6 0 01-.1-.2zm-.3.2v-.1zm-.9 0v.1-.1zm.4-.1v.1h.1zm.2 0h.1zm-.3 0l-.1.1h.1z"/><path fill="gold" d="M277.9 118a1.5 1.5 0 000 .2 1 1 0 000-.2zm-2 .2a.3.3 0 00-.1.2 1.5 1.5 0 00.1-.1zm1.6-.2a1.2 1.2 0 01-.1.1 1.2 1.2 0 010 .1 1.1 1.1 0 00.2-.1 1.4 1.4 0 00-.1-.1zm-1.2.1a1.3 1.3 0 00-.1.1 1.6 1.6 0 000 .2 1.4 1.4 0 00.2-.2.6.6 0 01-.1 0zm1.4-.1a1.3 1.3 0 01-.1 0 1.4 1.4 0 01.1.2l.1-.1a.8.8 0 00-.1-.2zm-.7 0h.1zm-.3 0l-.1.1h.1zm-.7.1a1.5 1.5 0 010 .2h.1v-.2z"/><path fill="gold" d="M277.7 118a.7.7 0 01.1 0 .3.3 0 00-.1 0zm-.9 0h.1zm-.8 0a.7.7 0 00-.1.2 1.7 1.7 0 00.1-.1zm1.7-.1zm-1.7.2h.1-.1zm1.3-.2v.2a.6.6 0 00.1-.1v-.1zm-.9.1a1 1 0 00-.1.1.6.6 0 010 .1h.1v-.2zm1.1-.2a.7.7 0 010 .2h.2a.2.2 0 00-.2-.2zm-1.4.2v.2a1.3 1.3 0 00.1-.1.6.6 0 000-.1zm.9-.1h.1zm-.3 0l-.1.1h.1zm-.4.1h-.1a1.2 1.2 0 01.1 0zm1-.2a1.1 1.1 0 01.1.1zm-.5 0v.1zm.4 0v.8-.8zm-.8.1l.3.8-.2-.8zm.6-.1a.1.1 0 01-.1 0 .1.1 0 010 .1v.2a.1.1 0 010 .1v.2-.6zm-.3 0v.4h.1a.2.2 0 010-.1v-.1a.1.1 0 010-.1.1.1 0 010-.1zm-.5 1zm1.4-.1zm-1.3.7zm7.5-.8v.1h.7l.7-.2h-.7l-.7.1zm1.2-.1zm-.2 0h.1-.1zm-.1 0zm-.2 0zm-.1 0zm-.2.1zm-.1 0zm-.1 0zm-.2 0zm-.1 0zm1.5-.2zm0 0zm-.2 0zm-1.2.1v.1zm.1 0v.1zm1.1-.1zm-.1 0zm-.1 0zm0 0zm-.1 0zm-.1 0v.1zm-.1.1zm-.1 0h.1zm-.1 0zm0 0zm-.1 0zm-.1 0h-.1zm-.1 0zm-.1 0zm-.1 0zm1.3-.1zm-1 .1zm-.2-.1a1 1 0 00-.2 0v.1h.7l.8-.2a6.8 6.8 0 00-.8 0l-.5.1zm1.1-.2h.2a.7.7 0 00-.2 0z"/><path fill="gold" d="M283.9 118.4a.6.6 0 00-.2 0h.2zm1.3-.2zm-1.5.1zm1.2-.1a.7.7 0 00-.3.1h.3a.5.5 0 000-.1zm-.9.1a.5.5 0 00-.1 0 .8.8 0 00.1 0h.3a.6.6 0 00-.3 0zm1.3-.3l-.1.2a.7.7 0 01.1-.1zm-.3 0v.2a.4.4 0 01.1 0 1.3 1.3 0 000-.1zm-1.3.2a.4.4 0 010 .1.5.5 0 01.1 0zm.1 0z"/><path fill="gold" d="M285 118a1 1 0 010 .1zm-1.2.1a.4.4 0 00.1.1 1 1 0 01.2 0 .5.5 0 01-.1 0 .6.6 0 00-.2 0z"/><path fill="gold" d="M285 118a.5.5 0 00-.2 0 .6.6 0 010 .2 1 1 0 01.1 0 .6.6 0 00.2-.2.4.4 0 00-.1 0z"/><path fill="gold" d="M285.2 118h-.1a.4.4 0 010 .2.3.3 0 01.2-.1.3.3 0 010-.1zm-1.5.3a.5.5 0 01-.2 0 .5.5 0 00.1.1z"/><path fill="gold" d="M283.6 118.1a.4.4 0 000 .2 1.2 1.2 0 00.1 0l-.1-.2zm1.2-.1a.5.5 0 00-.3.3.5.5 0 00.3-.3zm-.8 0a.6.6 0 00.4.3.5.5 0 00-.4-.2zm1 0zm-1.2.1zm.9-.1zm0 0z"/><path fill="gold" d="M284 118h.1v.1a.3.3 0 010-.1zm0 0zm1.3-.2a.3.3 0 010 .1 1 1 0 000 .1.7.7 0 000-.1zm-.2 0a.5.5 0 000 .1v.1h.1a.3.3 0 010-.2zm-1.4.2a.3.3 0 000 .1.6.6 0 000 .1v-.1a.9.9 0 000-.1zm-.2 0v.1a.2.2 0 000 .1.4.4 0 000-.1zm.2 0a.7.7 0 00.2.1.1.1 0 01.1 0 .5.5 0 00-.3-.2zm1.3-.2a.6.6 0 00-.2.2h.2a.8.8 0 000-.2zm-1.1.2zm.7-.2a.6.6 0 00-.1.2.5.5 0 010 .2.7.7 0 010-.1.5.5 0 00.1-.3zm-.1 0a.2.2 0 010 .1zm-.2 0a.2.2 0 000 .1zm-.2.1a.5.5 0 00.1.2.7.7 0 01.2.1.7.7 0 010-.2.8.8 0 00-.3-.1zm1.3-.2v.1a1.2 1.2 0 000-.1zm-2.1.3a.6.6 0 01.1 0zm1.2-.2zm-.3 0z"/><path fill="gold" d="M283.5 117.9v.1a.3.3 0 010 .1.3.3 0 00.1-.1v-.1zm1.7-.2a.6.6 0 010 .1.4.4 0 000 .1.5.5 0 00.1-.1.4.4 0 000-.1zm-.8.1a.6.6 0 000 .2.7.7 0 000 .3.7.7 0 000-.3.6.6 0 000-.2zm.5 0a.9.9 0 01-.1 0v.1-.1zm.1-.1a1.2 1.2 0 01-.1 0v.1a.3.3 0 01.1 0v-.1z"/><path fill="gold" d="M284.7 117.7v.2l.1-.1a.4.4 0 000-.1zm-.7.1a.6.6 0 010 .1v-.1zm.5-.1zm-.3 0v.1-.1zm1.1-.1v.2a.4.4 0 01.1-.1v-.1zm-1.9.2a.5.5 0 000 .1.8.8 0 01.1 0 1.2 1.2 0 01-.1-.1zm.9-.2v.1zm.7-.1v.2h.1v.1a.6.6 0 01.1-.1 1.6 1.6 0 00-.1-.2zm-1.3.5a.4.4 0 01.2 0v-.1a1 1 0 01-.1 0 .8.8 0 01-.1 0zm-.1-.3a1.6 1.6 0 000 .2.3.3 0 01.1-.1 1.2 1.2 0 000-.1zm1.2-.2a.6.6 0 000 .2h.2a.7.7 0 00-.2-.2zm-.9.2a1.3 1.3 0 00-.1.1.5.5 0 01.1 0v-.1zm.5-.1v.1a.3.3 0 010 .1v-.2zm-.1 0v.3a.5.5 0 010-.2v-.1zm.2 0zm-.3 0v.1-.1zm-.2 0a.1.1 0 00-.1 0 .9.9 0 000 .1v-.1z"/><path fill="gold" d="M284.7 117.5v.1a.5.5 0 00.1 0v-.1zm-.4 0zm1.1-.1a.6.6 0 010 .1v-.1zm-2.1.2v.1a.4.4 0 000 .2 1.5 1.5 0 010-.2zm1.9-.2a1 1 0 00-.1.1l.1.2a1 1 0 00.1-.2l-.1-.1zm-.2 0a1.1 1.1 0 01-.1.1 1.4 1.4 0 010 .1h.1a1 1 0 000-.2zm-1.3.2a.6.6 0 010 .2 1.6 1.6 0 01.2-.2 1.3 1.3 0 00-.2 0zm-.2 0a1 1 0 010 .1 1.6 1.6 0 010 .2.7.7 0 01.1-.2 1 1 0 010-.1zm1.9-.2zm-.9.1h.1zm0 0zm-.3 0h-.1v.1l.1-.1zm-1 .1zm1.1-.2v.1zm.2-.1v.1h.1zm-.3.1h-.1v.1l.1-.1zm.6-.1v.2a1.1 1.1 0 00.1-.1 1.2 1.2 0 00-.1-.1z"/><path fill="gold" d="M283.8 117.4a.3.3 0 010 .1 1.4 1.4 0 010 .1.3.3 0 01.1 0v-.1zm.4 0v.1a.1.1 0 010-.1zm1.1-.2a.8.8 0 01-.1.2.5.5 0 01.1.1 1 1 0 000-.1v-.2zm-1.7.2a.9.9 0 010 .2h.1l-.1-.2zm-.2 0l-.1.2a.6.6 0 010 .1 1.5 1.5 0 01.2-.1l-.1-.2zm1.6-.2a.7.7 0 010 .2h.2a.6.6 0 01-.2-.2zm-.2.1zm-.9.1zm.4-.1zm1-.2a.1.1 0 010 .1 1.5 1.5 0 00.1.2.3.3 0 000-.3zm-.8.1v.1h.1v-.1zm-.4.1v.1l.1-.1zm-.8.1a.3.3 0 000 .1.1.1 0 010-.1zm1.6-.3a1.2 1.2 0 010 .2 1 1 0 00.1 0 .6.6 0 00-.1-.2zm-1.2.2a1.4 1.4 0 000 .1 1.5 1.5 0 000 .1 1.4 1.4 0 00.1-.1v-.1z"/><path fill="gold" d="M285.1 117a1.3 1.3 0 010 .2 1.3 1.3 0 010 .2l.2-.2a.8.8 0 00-.2-.1zm-.6.2l.1-.1zm-.4 0zm-.6.1a1.6 1.6 0 01-.1.1l.1.1v-.2z"/><path fill="gold" d="M285.1 117a.7.7 0 01.2.2.3.3 0 00-.2-.1zm-.8.2zm-.8 0a.7.7 0 00-.2.2 1.7 1.7 0 00.2-.1zm1.6-.2zm-1.6.2zm1.3-.2v.2a.8.8 0 000-.2zm-1 .1a1 1 0 000 .2v-.2zm1.2-.1a.7.7 0 010 .1.7.7 0 010 .1l.1-.1a.3.3 0 00-.1-.1zm-1.4.2a.2.2 0 00-.1 0v.2a1.3 1.3 0 00.2-.1.6.6 0 00-.1-.1zm.9-.2v.1h.1v-.1zm-.4.1h-.1v.1l.1-.1z"/><path fill="gold" d="M284.8 117a1.1 1.1 0 010 .1.6.6 0 00.1-.1h-.1zm-1 0a.5.5 0 01-.2.1.5.5 0 00.1.1v-.1zm.5 0zm.3 0v.8l.1-.9zm-.6 0a.1.1 0 00-.2 0l.3.8-.2-.8zm.4 0a.1.1 0 010 .1v.2a.1.1 0 010 .1.1.1 0 010 .1v-.6zm-.2 0v.3a.1.1 0 010-.1.1.1 0 010-.2zm0-.5a.2.2 0 00-.1.2.2.2 0 00.2.1.2.2 0 00.1-.2.2.2 0 00-.2-.1zm-.2-.5l.1.1a.4.4 0 01-.2 0v.2h.3a.4.4 0 01-.1.1h.2s-.1-.2 0-.2a.3.3 0 01.1 0v-.2s-.2.2-.2 0h-.1zm1 2.4zm-5.6-.9v-.1a.5.5 0 00.1 0zm0-.1l-.2-.3a1.2 1.2 0 01.2.1.3.3 0 000 .2zm.6-.7zm1.4.3a1 1 0 000-.2zm.2 0zm.4-.5a.2.2 0 01-.1 0v-.3a.8.8 0 010 .3zm-.2.3l-.1-.2a.4.4 0 00.1-.2 1 1 0 00.1.2 1.7 1.7 0 010 .2zm0 0a.5.5 0 00-.2.2.4.4 0 000-.2v-.2a.5.5 0 00.2.2zm-.4-.1z"/><path fill="gold" d="M281.5 116.8v-.1h-.1a1 1 0 01.1-.2.5.5 0 00.2.1l-.2.2z"/><path fill="gold" d="M281.6 116.4a1.2 1.2 0 000-.1.6.6 0 01.2.1 1 1 0 01-.1.2 1.5 1.5 0 01-.1-.2zm.1-.2a.6.6 0 00.1-.2l.2.2a.6.6 0 00-.2.2l-.1-.2z"/><path fill="gold" d="M282 116.2l-.2-.2a1.3 1.3 0 00.2-.2v.3z"/><path fill="gold" d="M281.6 115.8a1.6 1.6 0 00.2-.2l.1.2a1.2 1.2 0 010 .2.7.7 0 00-.3-.2zm.4 0zm-.5-.5zm.3.1v.1a1.7 1.7 0 00-.2-.2 1 1 0 01.2.1z"/><path fill="gold" d="M281.4 115.6a1.4 1.4 0 00.1-.3 1.2 1.2 0 01.2.2v.3l-.3-.2zm-.2.4v-.2a1.2 1.2 0 01.2.2v.2l-.2-.2z"/><path fill="gold" d="M281.3 115.8a.9.9 0 00.1-.2 1 1 0 00.2.2l-.1.2a1.5 1.5 0 01-.2-.2z"/><path fill="gold" d="M281.5 116a1.2 1.2 0 01.1-.2l.2.2a.9.9 0 01-.1.2 2 2 0 00-.2-.2z"/><path fill="gold" d="M281.5 116.4l-.2-.2a1.9 1.9 0 00.2-.2 1.7 1.7 0 01.2.2l-.2.2zm-.5.2zm.2-.2l.1-.2a1.4 1.4 0 00.1.2.5.5 0 00-.2 0zm0 .1a.6.6 0 00-.1 0h.1zm-.2-.2a.6.6 0 01.1 0l-.1.2v-.2z"/><path fill="gold" d="M281 116.2l.1-.2a1.5 1.5 0 01.2.2 2 2 0 00-.2.2.5.5 0 00-.1-.2z"/><path fill="gold" d="M281 116h.1a1.1 1.1 0 01-.1.2zm0-.2v-.1l.3.1-.2.2-.1-.1v-.1z"/><path fill="gold" d="M281.4 115.6a.9.9 0 01-.1.2 1.5 1.5 0 00-.2-.2l.1-.2a1.5 1.5 0 01.2.2zm.1-.3v.3a1.4 1.4 0 00-.3-.2.7.7 0 00.1-.2.3.3 0 01.2.1z"/><path fill="gold" d="M281.2 115.4a.6.6 0 00-.2-.2h.3v.2z"/><path fill="gold" d="M281 115.3a1.8 1.8 0 01.2.1l-.2.2zm0 .3v.1-.1zm.5 1.2a.8.8 0 01.1.2.8.8 0 00-.2 0v-.2zm-1.9.3l-.1.1a.8.8 0 000-.1h.1zm-.2.1zm.1-.2l.2.1h-.2zm.1-.1zm.2-.1h-.1a1 1 0 01-.3-.2.8.8 0 01.5.2.4.4 0 00-.1 0zm.2.2a1.1 1.1 0 00-.2 0 .7.7 0 01-.3 0 .8.8 0 01.3 0 .8.8 0 00.2 0z"/><path fill="gold" d="M281.5 116.7a.7.7 0 01-.3.2 1 1 0 00-.2 0 1.2 1.2 0 00.1-.1.8.8 0 01.4 0zm-.4.5h-.4a.9.9 0 01.7-.2.6.6 0 01-.3.2zm-.8 0h-.3a.6.6 0 01-.3 0 .8.8 0 01.6 0zm.1 0a.8.8 0 01-.6-.4.8.8 0 01.6.4z"/><path fill="gold" d="M280.4 117a1.4 1.4 0 00-.2 0 .6.6 0 01-.1-.5.8.8 0 01.2.2 1.5 1.5 0 00.1.4zm.1.2a1 1 0 01-.1-.4.8.8 0 010-.4 1 1 0 01.2.3 1.2 1.2 0 010 .5z"/><path fill="gold" d="M280.6 116.7a.8.8 0 01.2-.3.8.8 0 010 .4 1 1 0 00-.2.2.7.7 0 000-.3zm0 .5a.8.8 0 01.5-.5.8.8 0 01-.5.5z"/><path fill="gold" d="M280.9 116.8a1.7 1.7 0 010-.2 1.7 1.7 0 010 .2zm-.9-.1a.7.7 0 00.1.2l-.1-.2zm.3-.2a.2.2 0 010 .1.2.2 0 010-.1zm.3 0a.6.6 0 000 .1.3.3 0 010-.2.4.4 0 000 .1zm.9-.1a1 1 0 01-.2.3h-.2a.8.8 0 01.4-.3zm-1-1.7a.3.3 0 01-.2.3.3.3 0 110-.5.3.3 0 01.2.2zm-.3-.7l.3-.1v.3a.4.4 0 00-.2 0c-.2 0 0 .2 0 .2h-.3a.5.5 0 00.1-.2h-.3v-.3a.6.6 0 00.2.1c.2 0 0-.2 0-.2h.3a.2.2 0 000 .2zm-.2 2.5l-.4-1.2a.2.2 0 01.2 0l.3 1.2zm.1-1.2v.1l-.2.1v-.1zm0 .2v.1h-.1v-.1zm0 .1v.1l-.1.1v-.1zm0 .2l.1.1h-.2v-.1zm.1.2l-.1.1v-.1zm0 .1v.1h-.1v-.1zm0 .1v.2-.1zm0 .2v.1zm.5.1v-.1zm-.1-.3h.1v.1h-.1zm0-.2l.1.1v.1l-.1-.1zm0-.1h.1v.1h-.1zm0-.2l.1.1h-.1zm0-.1h.1v.1h-.1zm0-.1h.1-.1zm0-.2h.1v.1h-.1zm-.4 0h.1zm.2.2h-.1s0 .1 0 0zm-.1.2z"/><path fill="gold" d="M280.3 115.8a.1.1 0 000 .2l.1-.1zm.1.4zm.1-.2v.5a.3.3 0 000-.2.1.1 0 000-.2zm-.2-.8a.3.3 0 00.1 0l.1.8a.1.1 0 000-.1.2.2 0 000-.1.2.2 0 000-.1.1.1 0 00-.1-.1.1.1 0 000-.1.1.1 0 000-.1.2.2 0 000-.1.1.1 0 000-.1zm-.1.5v-.5a.2.2 0 000 .1.3.3 0 000 .1.1.1 0 000 .1.1.1 0 000 .1z"/><path fill="gold" d="M280.3 116v-.2a.1.1 0 000 .1.2.2 0 000 .1zm.1.3a.6.6 0 000 .2l-.1-.4a.1.1 0 000 .1v.1zm0-.3v.1s0-.1 0 0zm.4-.9a.2.2 0 01.2 0l-.1 1.3h-.1zm-1.3 1.9a1.3 1.3 0 01-.1.2l-.2-.1a.6.6 0 010-.2l.3.1z"/><path fill="gold" d="M279 116.9v-.2a2 2 0 00.2.2.6.6 0 010 .2.5.5 0 01-.2-.2zm.1-.2a1.7 1.7 0 010-.2l.2.2a.4.4 0 010 .1h-.2zm.3 0l-.2-.2.1-.2.2.1a.8.8 0 000 .2h-.1z"/><path fill="gold" d="M279.5 116.4l.2.1v.1a.8.8 0 00-.3 0 .9.9 0 00.1-.2zm.4 0v.2h-.2l.2-.2z"/><path fill="gold" d="M279.6 116.4a1.5 1.5 0 010-.2 2 2 0 00.3.2 1.2 1.2 0 00-.2.1h-.1zm.3-.1a1 1 0 01-.2-.1.2.2 0 01.1-.1z"/><path fill="gold" d="M279.3 116.2l.2-.1h.2c0 .2-.1.2-.2.3a.8.8 0 00-.2-.2z"/><path fill="gold" d="M279.2 116a1.3 1.3 0 000-.2l.2.2v.2a.7.7 0 01-.2-.1zm-.2.3a2.8 2.8 0 00.1-.2 1.2 1.2 0 00.2.1.8.8 0 00-.1.3l-.2-.2zm-.1.3a1.2 1.2 0 00.2.1 1 1 0 000 .1 1.9 1.9 0 00-.2-.2z"/><path fill="gold" d="M279 116.6a.7.7 0 010-.2l.2.1a1.8 1.8 0 00-.1.2l-.2-.1zm-.2-.3v-.1l.2.1a1.3 1.3 0 01-.1.2.6.6 0 01-.1-.2zm0-.1v-.1.1zm0-.1l.1-.2.2.2a1.7 1.7 0 00-.1.2 1.3 1.3 0 00-.2-.2zm-.1-.1a.5.5 0 01.2-.2 1.7 1.7 0 01-.1.3zm.4-.4zm-.2.1a1.6 1.6 0 01.2-.1l-.2.2z"/><path fill="gold" d="M279 115.9v-.3l.3.2-.2.2-.2-.1zm.3-.4a1.2 1.2 0 01.1.1l-.1.2-.2-.2a.4.4 0 01.2-.1zm.3.3a1 1 0 01-.1.2l-.2-.2.1-.2.2.2zm.1 0z"/><path fill="gold" d="M279.8 116a.6.6 0 00-.1.2l-.2-.2a.5.5 0 00.1-.2.4.4 0 01.1.1zm-.1-.3a.8.8 0 00-.2-.1l.1-.2zm-.1-.4v.1l-.2.2v-.2h.2zm-.1 1.7a1 1 0 01-.2-.1.4.4 0 010-.2 1 1 0 01.3.1l-.2.1a.2.2 0 010 .1zm.2-.4h.2v.1a.5.5 0 00-.2 0v-.1zm2.3-.9a.5.5 0 00-.2-.3.7.7 0 010 .1 1.7 1.7 0 00.2.3v-.1zm-.2 1.1v.3a1 1 0 00-.2-.1 1.4 1.4 0 01.2-.2zm-.3.4a1.9 1.9 0 00-.3 0 .4.4 0 00.1-.1.8.8 0 01.3 0 .8.8 0 01-.1 0zm.2-.1a.1.1 0 010 .1 1.4 1.4 0 01-.2 0 .7.7 0 00.2-.1zm-2.2.9a6.2 6.2 0 002.2-.2 3.8 3.8 0 01-1 .2 3.5 3.5 0 01-1.1 0zm2.2-.5a.4.4 0 00-.1 0zm-1.1-.1h.1zm.1.1zm.2-.1zm0 .1zm.1-.1h.1zm0 .1h.1zm.3-.1zm0 .1zm.1-.1zm0 .1zm-.6-.1v.1zm.2 0zm.2 0zm.2 0zm.2.1h-.1.1zm-2.1.2zm.9-.3zm0 .2zm-.2-.2zm0 .2zm-.2-.1zm0 .1zm-.2-.1zm.1.2zm-.3-.1zm.1.1zm.7-.2h-.1.1zm-.2 0v.1h-.1v-.1zm-.2.1h-.1zm-.2 0zm-.1.1h-.1zm.9-.2h-.1v-.1h.1v.1z"/><path fill="gold" d="M279.5 117.6a2.5 2.5 0 011-.3 2.5 2.5 0 011.1 0 2.6 2.6 0 00-1 0 2.3 2.3 0 00-1.1.3zm0 .3a4.1 4.1 0 011-.3 3.8 3.8 0 011.1 0 3.9 3.9 0 00-1 0 3.4 3.4 0 00-1 .3z"/><path fill="gold" d="M279.7 118a4.3 4.3 0 01.9-.3 4.3 4.3 0 011 0 4.3 4.3 0 01-1 .2 3.9 3.9 0 01-1 0zm0-.8a.6.6 0 00.2.1 1.1 1.1 0 00-.3 0 .4.4 0 01-.2 0 .8.8 0 01.3 0z"/><path d="M279.2 115.7v-.1zm.2.2v-.1zm.2.1zm.3.6h-.1v-.1a.2.2 0 000 .1zm-.2-.1h-.1v-.2a.2.2 0 000 .2zm-.2-.2h-.1v-.2a.3.3 0 000 .2zm-.2.3v-.2a.2.2 0 000 .2zm-.1.2v-.2a.1.1 0 000 .2zm.2.2v-.2a.2.2 0 000 .1zm-.1.1v-.1a.1.1 0 000 .1zm-.3-.5v-.1a.2.2 0 000 .1zm.1-.2v-.2a.1.1 0 000 .2zm.2-.3h-.1v-.1a.1.1 0 000 .1zm-.3-.1v-.2a.2.2 0 000 .1zm0 .2h-.1v-.2a.2.2 0 000 .2zm2.8.2h-.1zm0 .4h-.1a.2.2 0 000-.1v.1zm-.2-.2v.1a.2.2 0 000-.2v.1zm0-.4v.1a.1.1 0 000-.1zm.2-.2l-.1.1a.1.1 0 000-.2zm.2-.2h-.1zm-.5-.5v.1a.1.1 0 00-.1-.1zm.2.2v.1a.2.2 0 000-.1zm-.4.1zm.3.2a.2.2 0 00-.1-.1zm-.4 0v.1a.2.2 0 000-.2v.1zm.2.2v.1a.1.1 0 000-.2zm-.1.2l-.1.1a.2.2 0 000-.2v.1zm-.3.2zm1-.2l-.1.1a.2.2 0 000-.2z"/></svg>