<svg xmlns="http://www.w3.org/2000/svg" id="svg84" version="1.1" viewBox="0 0 600 400"><style id="style2" type="text/css">.st2{fill:#e42913}.st4{fill:#fff}.st4,.st6,.st7{stroke:#000;stroke-width:1.14}.st6{fill:none}.st7{fill:#ea9b00}</style><path id="rect6" fill="#fff" stroke-width=".7" d="M0 0h600v400H0z"/><path id="path8" fill="#157dc1" stroke-width=".7" d="M60 344.8c22 0 43-8.7 57.6-24l2.4-2.5 2.4 2.5a79.7 79.7 0 0057.6 24c22 0 43-8.7 57.6-24l2.4-2.5 2.4 2.5a79.7 79.7 0 0057.6 24c22 0 43-8.7 57.6-24l2.4-2.5 2.4 2.5a79.7 79.7 0 0057.6 24c22 0 43-8.7 57.6-24l2.4-2.5 2.4 2.5a79.7 79.7 0 0057.6 24c22 0 43-8.7 57.6-24l2.4-2.5v-51.9a82.6 82.6 0 01-60 25 82.6 82.6 0 01-60-25 82.6 82.6 0 01-60 25 82.6 82.6 0 01-60-25 82.6 82.6 0 01-60 25 82.6 82.6 0 01-60-25 82.6 82.6 0 01-60 25 82.6 82.6 0 01-60-25 82.6 82.6 0 01-60 25 82.6 82.6 0 01-60-25v51.9l2.4 2.5a79.6 79.6 0 0057.6 24z"/><path id="path10" stroke-width=".7" d="M600 327.8a86.7 86.7 0 01-60 23.7 86.7 86.7 0 01-60-23.7 86.7 86.7 0 01-60 23.7 86.7 86.7 0 01-60-23.7 86.7 86.7 0 01-60 23.7 86.7 86.7 0 01-60-23.7 86.7 86.7 0 01-60 23.7 86.7 86.7 0 01-60-23.7 86.7 86.7 0 01-60 23.7 86.7 86.7 0 01-60-23.7v72h600z" class="st2"/><path id="path12" fill="#157dc1" stroke-width=".7" d="M366.7 65.5v115c0 14-9.4 24.2-22.4 24.2h-29.1c-9.5 0-14.3 7.4-15.3 13.2a15.2 15.2 0 00-15.2-13.2h-29.1c-13 0-22.3-10.2-22.3-24.2v-115z"/><path id="polygon14" d="M550 140H350V98.5h200z" class="st2" transform="translate(0 -.2) scale(.66667)"/><path id="polygon16" d="M416.7 152.5h-33.3V140h33.3z" class="st4" transform="translate(0 -.2) scale(.66667)"/><path id="polygon18" d="M450 152.5h-33.3V140H450z" class="st4" transform="translate(0 -.2) scale(.66667)"/><path id="polygon20" d="M483.4 152.5H450V140h33.4z" class="st4" transform="translate(0 -.2) scale(.66667)"/><path id="polygon22" d="M516.7 152.5h-33.3V140h33.3z" class="st4" transform="translate(0 -.2) scale(.66667)"/><path id="polygon24" d="M550 152.5h-33.3V140H550z" class="st4" transform="translate(0 -.2) scale(.66667)"/><path id="polygon26" d="M383.4 152.5H350V140h33.4z" class="st4" transform="translate(0 -.2) scale(.66667)"/><path id="polygon28" d="M433.4 140H400v-12.6h33.4z" class="st4" transform="translate(0 -.2) scale(.66667)"/><path id="polygon30" d="M466.7 140h-33.3v-12.6h33.3z" class="st4" transform="translate(0 -.2) scale(.66667)"/><path id="polygon32" d="M500 140h-33.3v-12.6H500z" class="st4" transform="translate(0 -.2) scale(.66667)"/><path id="polygon34" d="M533.3 140H500v-12.6h33.3z" class="st4" transform="translate(0 -.2) scale(.66667)"/><path id="polygon36" d="M550 140h-16.7v-12.6H550z" class="st4" transform="translate(0 -.2) scale(.66667)"/><path id="polygon38" d="M366.7 140H350v-12.6h16.7z" class="st4" transform="translate(0 -.2) scale(.66667)"/><path id="polygon40" d="M375 127.4h-16.6v-12.5H375z" class="st4" transform="translate(0 -.2) scale(.66667)"/><path id="polygon42" d="M400 140h-33.3v-12.6H400z" class="st4" transform="translate(0 -.2) scale(.66667)"/><path id="polygon44" d="M408.4 127.4h-16.7v-12.5h16.7z" class="st4" transform="translate(0 -.2) scale(.66667)"/><path id="polygon46" d="M441.7 127.4H425v-12.5h16.7z" class="st4" transform="translate(0 -.2) scale(.66667)"/><path id="polygon48" d="M475 127.4h-16.6v-12.5H475z" class="st4" transform="translate(0 -.2) scale(.66667)"/><path id="polygon50" d="M508.4 127.4h-16.7v-12.5h16.7z" class="st4" transform="translate(0 -.2) scale(.66667)"/><path id="polygon52" d="M541.7 127.4H525v-12.5h16.7z" class="st4" transform="translate(0 -.2) scale(.66667)"/><path id="path54" fill="none" stroke="#000" stroke-width="2" d="M366.7 65.5v115c0 14-9.4 24.2-22.4 24.2h-29.1c-9.5 0-14.3 7.4-15.3 13.2a15.2 15.2 0 00-15.2-13.2h-29.1c-13 0-22.3-10.2-22.3-24.2v-115z"/><path id="path56" d="M250.2 113.5a7.2 7.2 0 1111.4 8.9 7.2 7.2 0 01-11.4-8.9zm-1.6 13.8a11.8 11.8 0 1014.5-18.6 11.8 11.8 0 00-14.5 18.6z" class="st4"/><path id="path58" d="M316.9 198c-1-.8-1.7-1.9-1.9-3.1 2.7.2 6 1.5 11.5 1.1 7.4-.6 8.8-3 12.6-5.7 2.6-1.9 5.4-1.8 8-1.1a8.5 8.5 0 01-.9-8c1.7-4.3 3.7-6.3 2.4-13.5-1-5.5-3-8.4-3.9-11 1.2-.1 2.5.3 3.4 1.1-.4-1.4-4.4-7.1-7.6-9.3.9 2.4-.6 9.6.2 11.7 1-1.3 1.7-2.5 2.6-2.9.4 1.2 3 9.6.5 13.6-2.6 4.2-7.4 4.7-12.9 1.1-4.2-2.8-51.4-37.7-60.7-44.9 1.7-3.2.7-7.3-2.2-9.5a7.8 7.8 0 00-10.9 1.5 7.7 7.7 0 001.4 10.7c2.8 2.3 7 2.3 9.8-.1a3218 3218 0 0158.2 48.1c4.8 4.5 5.4 9.2 2 12.7-3.4 3.6-12.1 3-13.3 2.8 0-1 1-1.9 2.1-3.2-2.2-.2-8.9 2.9-11.3 2.6a29 29 0 0010.9 5.2zM267 126.6a4.8 4.8 0 01-6.7 1.1 4.8 4.8 0 01-1.1-6.7 4.8 4.8 0 016.6-1.1l.3.3c2 1.6 2.3 4.4.9 6.4z" class="st4"/><path id="path60" d="M255.7 125.1a7.2 7.2 0 112.8-.4c.2 1.1.8 2.1 1.8 2.8.4.4.8.6 1.3.8a11.8 11.8 0 10-3.5 1.3 7.9 7.9 0 01-2.4-4.5z" class="st4"/><path id="path62" d="M281.6 138.5c-6 6.6-17.5 14.7-17.5 14.7l-2.5-3.6 29-32.3 3.7 2.1c.1 0-6.7 12.4-12.7 19z" class="st4"/><path id="line64" d="M287.5 120.8l4.7 2.5" class="st6"/><path id="line66" d="M286.3 122.1l5 2.6" class="st6"/><path id="line68" d="M285.2 123.3l5.2 2.9" class="st6"/><path id="line70" d="M264.7 146.3l3 4.4" class="st6"/><path id="line72" d="M265.8 145l3.2 4.6" class="st6"/><path id="line74" d="M267 143.7l3.4 4.9" class="st6"/><path id="path76" d="M255.6 189.5l1.9-1.6-1.4-1.6-1.8 1.4a3.2 3.2 0 00-4.4 1.1c-1 1.5-.5 3.5 1 4.4 1.6 1 3.5.5 4.4-1 .4-.9.6-1.9.3-2.7z" class="st7"/><path id="path78" d="M351 130.9c-.5-1.4-1.3-2.8-2.3-3.8a11 11 0 003-1.7 10 10 0 10-14.8-13.3 9.8 9.8 0 00-3.1-3 10 10 0 00-14 3.1 10 10 0 003.2 14c1.7 1 3.8 1.6 5.9 1.5l-1.9 1.5-2.7.5v1.6l-1 .8c-.7-.4-1.5-.4-2.2 0-.5.5-.6 1.3-.4 2l-66 51.8 2.8 3.6 66.1-51.8c.8.4 1.6.4 2 0 .6-.5.8-1.3.5-2l1-.8 1.7.4 1.1-2.6 1.8-1.4c-1.4 5.4 1.7 11 7 12.5a10 10 0 0012.2-13zm-7.5 9.7a7 7 0 01-8.3-9.7l.4-.8-1.6-2.1 2.3-1.8c1.5 1 3.6.7 4.6-.9.8-1.2.7-2.9-.2-4a3.4 3.4 0 00-4.8-.6c-1 .8-1.5 2.3-1.1 3.6l-2.3 1.8-1.6-2-1 .2c-1.8.4-3.6.1-5.2-.9a7 7 0 01-3-4.3 7 7 0 0113.4-3.7v.3l.1.2.2 1.4h3.1a7 7 0 115.4 6.8l-.8 3.1 1.4.5a7 7 0 013.1 9.3 6 6 0 01-4 3.6z" class="st7"/><path id="polygon80" d="M384.6 270.8l3 3.9 7.4-5.8-3-3.9z" class="st7" transform="translate(0 -.2) scale(.66667)"/><path id="polygon82" d="M385 251.2l5.2 6.8-3.9 3.1-5.3-6.8-4.2 3.2 5.3 6.9-4 3-5.3-6.7-4.1 3.2 5.7 7.2 3.4 1.2-.3 2.7 1 .6 19.6-15.4-.3-1.1-2.8-.3-.3-3.7-5.6-7.1z" class="st7" transform="translate(0 -.2) scale(.66667)"/></svg>