<svg xmlns="http://www.w3.org/2000/svg" viewBox="0 0 600 400"><path fill="#d20000" d="M.7 0h598.6v399.3H.7z"/><path fill="#008e1f" stroke="#000" stroke-linecap="round" stroke-linejoin="round" stroke-width="1.5" d="M599.3 399.3c-27.5-54.4-98.9-93.2-182.6-93.2-83.7 0-155 38.8-182.4 93.2"/><path fill="#008e1f" stroke="#000" stroke-linecap="round" stroke-linejoin="round" stroke-width="1.5" d="M365.7 399.3C338.3 344.9 267 306 183.3 306S28.2 345 .7 399.3"/><path fill="#008e1f" stroke="#000" stroke-linecap="round" stroke-linejoin="round" stroke-width="1.5" d="M485.5 393.3C474 362.5 450.7 341.8 417 323a243 243 0 00-117-28.5c-89.5 0-164.9 44.4-187.5 104.8"/><path fill="#008e1f" stroke="#000" stroke-linecap="round" stroke-linejoin="round" stroke-width="1.5" d="M368.5 399.3c-35.4-35.4-92.3-58.2-156.8-58.2-64.4 0-121.3 22.8-156.7 58.2"/><path fill="#008e1f" stroke="#000" stroke-linecap="round" stroke-linejoin="round" stroke-width="1.5" d="M515 399.3c-35.7-32-90-52.5-150.8-52.5-60.8 0-115 20.4-150.7 52.5"/><path fill="gold" stroke="#000" stroke-width="1.5" d="M303 184.7c-.2-15 9-16 13.8-26.5 4.6-10.6 4.4-20.4-10.8-23.2-30.6-1.3-15.9 39-3 49.7zm-101.8-9.3c10.6-10.6 17.8-4.6 28.6-8.6 10.7-4 17.6-11 9-23.9-20.4-22.8-39 16-37.6 32.6z"/><path fill="gold" stroke="#000" stroke-width="1.5" d="M206.3 92.2c8 12.7 16.4 8.3 26 14.7 9.5 6.4 14.8 14.6 3.7 25.4-25 17.6-34.7-24.2-29.7-40zm35 157.7c4.1-14.3-4.6-17.6-6.4-29.1-1.8-11.5.9-20.8 16.3-19.7 30 6.7 5.2 41.8-10 48.7h.1z"/><path fill="gold" stroke="#000" stroke-width="1.5" d="M248 239.3c3.3-5.5 2.3-10.8 3.1-16 .5-3 3.8-11.5-1.5-9.9-8.9 2.6-.8 18.2-1.7 25.9z"/><path fill="gold" stroke="#000" stroke-width="1.5" d="M223.7 235.5c4.5-14.3-4.2-18-5.6-29.3-1.4-11.4 1.5-20.7 17-19.1 29.7 7.5 4 42-11.4 48.4z"/><path fill="gold" stroke="#000" stroke-width="1.5" d="M246.3 201c-.2-15 9.1-15.8 13.8-26.4 4.7-10.6 4.5-20.4-10.8-23.2-30.6-1.3-15.8 39-3 49.6zm-44.9 34c5.7-14-2.6-18.2-3-29.7-.4-11.5 3.2-20.5 18.5-17.7 29 10.1.4 42.2-15.4 47.4z"/><path fill="gold" stroke="#000" stroke-width="1.5" d="M209.2 225c4.1-5.1 3.6-10.5 5-15.5.8-2.9 5.1-11-.4-10-9 1.6-2.9 18-4.6 25.5zm-24.1-20.6c9-12 1.9-18.1 4.4-29.5 2.5-11.4 8.3-19 22.3-12.5 25.6 17-10 41-26.6 42z"/><path fill="gold" stroke="#000" stroke-width="1.5" d="M195 196.7c5.2-3.9 6.1-9.2 8.7-13.7 1.5-2.6 7.7-9.4 2.1-9.8-9.1-.7-7.1 16.6-10.8 23.5z"/><path fill="gold" stroke="#000" stroke-width="1.5" d="M167.1 172.6c14.9-1.8 14.5-11.2 24.4-17.2 9.8-6 19.5-7.2 24.4 7.5 5.4 30.1-36.5 21-48.8 9.7z"/><path fill="gold" stroke="#000" stroke-width="1.5" d="M179.6 174.6c6.4 1 10.9-2 16-3.2 2.9-.7 12-1 8.5-5.2-5.8-7.2-17 6.3-24.5 8.4zm237.8 29.8c-9-12-1.9-18.1-4.4-29.5-2.5-11.4-8.3-19-22.3-12.5-25.6 17 10 41 26.6 42z"/><path fill="gold" stroke="#000" stroke-width="1.5" d="M407.4 196.7c-5.2-3.9-6-9.2-8.6-13.7-1.5-2.6-7.7-9.4-2.1-9.8 9.2-.7 7.2 16.6 10.8 23.5z"/><path fill="gold" stroke="#000" stroke-width="1.5" d="M436.3 173.7c-14.9-1.5-14.7-10.9-24.7-16.8s-19.6-6.9-24.2 8c-4.9 30.3 36.8 20.3 48.9 8.8zM400 234.9c-5.7-14 2.6-18.2 3-29.7.4-11.5-3.1-20.5-18.5-17.7-29 10.1-.4 42.2 15.5 47.4z"/><path fill="gold" stroke="#000" stroke-width="1.5" d="M392.3 225c-4.1-5.1-3.6-10.5-5-15.5-.8-2.9-5.1-11 .4-10 9 1.6 2.9 18 4.6 25.5zm-27.7 19c-4.7-14.2 4-18 5.1-29.4 1.2-11.5-1.9-20.8-17.2-18.9-29.6 8.1-3.2 42 12.1 48.2z"/><path fill="gold" stroke="#000" stroke-width="1.5" d="M357.6 233.6c-3.7-5.3-3-10.7-4-15.8-.5-3-4.3-11.3 1-10 9 2.2 1.7 18 3 25.8zm-16.5 8.8c-5.9-13.7 2.5-18.1 2.8-29.6.3-11.5-3.5-20.6-18.8-17.4-28.8 10.4.1 42.2 16 47.1z"/><path fill="gold" stroke="#000" stroke-width="1.5" d="M333.2 232.7c-4-5-3.7-10.4-5.2-15.5-.9-2.9-5.2-10.9.2-10 9.2 1.5 3.1 18 5 25.5zm18-12c-3.5-14.6 5.4-17.5 7.6-28.9 2.1-11.3 0-20.8-15.6-20.2-30.1 5.5-6.9 41.6 8 49z"/><path fill="gold" stroke="#000" stroke-width="1.5" d="M345 209.8c-3.1-5.6-1.8-10.9-2.4-16-.4-3-3.4-11.6 1.9-10 8.8 3 0 18.2.7 26zm-17.8 31.7c-1.9-14.8 7.3-16.7 10.7-27.8 3.4-11 2.2-20.7-13.3-21.9-30.5 2.3-11.3 40.8 2.6 49.7zm50.4-5.4c-3.4-14.6 5.6-17.5 8-28.8 2.4-11.3.2-20.8-15.4-20.5-30.3 5.2-7.4 41.7 7.4 49.3z"/><path fill="gold" stroke="#000" stroke-width="1.5" d="M400 234.9c-5.6-14 2.7-18.2 3.1-29.7.4-11.5-3.1-20.5-18.5-17.7-29 10.1-.4 42.2 15.5 47.4z"/><path fill="gold" stroke="#000" stroke-width="1.5" d="M392.3 225c-4.1-5.1-3.6-10.5-5-15.5-.8-2.9-5.1-11 .4-10 9 1.6 2.9 18 4.6 25.5zm-9-23.5c-8.9-12-1.8-18.2-4.2-29.5-2.4-11.3-8.2-19.2-22.2-12.6-25.7 16.8 9.8 41 26.4 42.1z"/><path fill="gold" stroke="#000" stroke-width="1.5" d="M373.4 193.8c-5.2-3.9-6-9.2-8.6-13.7-1.5-2.6-7.5-9.4-2-9.8 9.2-.7 7.1 16.7 10.6 23.5z"/><path fill="gold" stroke="#000" stroke-width="1.5" d="M393.7 193.6c-9-12-1.8-18.2-4.2-29.5-2.4-11.3-8.2-19.2-22.3-12.6-25.6 16.8 10 41 26.5 42.1z"/><path fill="gold" stroke="#000" stroke-width="1.5" d="M383.8 186c-5.2-4-6-9.3-8.6-13.8-1.5-2.6-7.6-9.4-2-9.8 9.2-.7 7.1 16.8 10.6 23.6zm53-49c-13.6 6.2-18.2-2-29.8-2-11.5 0-20.4 4.1-16.8 19.2 11.1 28.6 42-1.2 46.6-17.3z"/><path fill="gold" stroke="#000" stroke-width="1.5" d="M427.3 145.2c-5 4.3-10.3 4-15.3 5.6-2.9 1-10.8 5.5-10 0 1.2-9.2 17.9-3.6 25.3-5.6zm-13.6 18.4c-14.7-2.1-14.2-11.5-24-17.7-9.6-6.2-19.3-7.6-24.5 7-6 30 36.1 21.8 48.6 10.7z"/><path fill="gold" stroke="#000" stroke-width="1.5" d="M401.2 165.2c-6.3.9-10.7-2.2-15.8-3.6-2.9-.8-12-1.2-8.5-5.4 6-7 17 6.6 24.3 8.9zm38-47c-14.8 2-14.4 11.5-24 17.6-9.8 6.2-19.5 7.6-24.6-7.1-6-30 36.2-21.5 48.6-10.4z"/><path fill="gold" stroke="#000" stroke-width="1.5" d="M411 125.8c-12 8.8-18.2 1.8-29.5 4-11.3 2.4-19.2 8.1-12.7 22.2 16.7 25.8 41-9.7 42.2-26.2z"/><path fill="gold" stroke="#000" stroke-width="1.5" d="M403.2 135.7c-4 5.1-9.2 6-13.8 8.6-2.6 1.5-9.4 7.6-9.8 2.1-.6-9.3 16.8-7 23.6-10.6zM406 71c-6.3 13.4-15.2 10-24 17.6-8.8 7.5-13 16.3-.4 25.6 27 14.6 31.2-28.2 24.3-43.3z"/><path fill="gold" stroke="#000" stroke-width="1.5" d="M404 83.3c-1 6.4-5.3 9.7-8 14.2-1.6 2.6-4.6 11.2-7.6 6.5-5-7.8 11.3-14.3 15.5-20.7zm-1 20c-9.7 11.2-17.3 5.7-27.9 10.4-10.6 4.7-17 12-7.5 24.4 22 21.4 37.8-18.5 35.3-34.9z"/><path fill="gold" stroke="#000" stroke-width="1.5" d="M397.7 114.6c-2.7 5.9-7.8 7.9-11.6 11.4-2.2 2-7.5 9.4-9 4.2-2.8-9 14.7-10.6 20.7-15.6zM380 48.4c-3 14.7-12.3 13.6-19 22.9-6.8 9.2-8.8 18.8 5.5 25 29.7 7.8 23.9-34.8 13.5-47.9z"/><path fill="gold" stroke="#000" stroke-width="1.5" d="M392.9 86c-10 11.2-17.5 5.5-28 10.1-10.6 4.6-17.2 11.9-8 24.4 21.7 21.7 38.2-18 36-34.5z"/><path fill="gold" stroke="#000" stroke-width="1.5" d="M387.4 97.3c-2.8 5.8-7.9 7.8-11.8 11.2-2.3 2-7.7 9.3-9.2 4-2.5-8.9 15-10.4 21-15.3zm-28.3-60c-1.2 14.9-10.6 15-16.3 25-5.7 10-6.5 19.7 8.5 24.1 30.3 4.3 19.5-37.3 7.8-49z"/><path fill="gold" stroke="#000" stroke-width="1.5" d="M361.4 49.7c1.3 6.3-1.5 10.9-2.5 16-.6 3-.5 12.2-5 8.9-7.3-5.6 5.7-17.3 7.5-24.9zm3.8 18c-4 14.4-13.3 12.6-20.8 21.3-7.5 8.7-10.3 18.2 3.5 25.4 29 10.2 26.5-32.8 17.3-46.6zm-12-36.2c-8.5 12.2-1.3 18.3-3.5 29.6s-7.8 19.3-22 13c-26-16.2 9-41.2 25.6-42.6z"/><path fill="gold" stroke="#000" stroke-width="1.5" d="M343.5 39.5c-5.1 4-5.8 9.4-8.3 14-1.5 2.7-7.4 9.6-1.9 9.9 9.3.5 6.8-16.9 10.2-23.9z"/><path fill="gold" stroke="#000" stroke-width="1.5" d="M346.4 55.9c-5.3 14-14.4 11.4-22.6 19.5-8.1 8-11.6 17.1 1.4 25.5 28 12.6 29.2-30.3 21.2-45z"/><path fill="gold" stroke="#000" stroke-width="1.5" d="M365.1 85.5c-12 8.8-7.1 17-12.7 27s-13.5 15.9-25 5.4C307.8 94 349 81.6 365.1 85.5z"/><path fill="gold" stroke="#000" stroke-width="1.5" d="M353.3 89.8c-6.1 2.2-8.5 7.1-12.4 10.6-2.2 2.1-10 6.7-4.9 8.7 8.6 3.5 11.8-13.8 17.3-19.4z"/><path fill="gold" stroke="#000" stroke-width="1.5" d="M385.8 103.5c-13.4 6.7-10 15.4-17.2 24.4-7.2 9-16 13.2-25.5 1-15.2-26.7 27.4-32 42.8-25.4z"/><path fill="gold" stroke="#000" stroke-width="1.5" d="M373.5 105.9c-6.4 1.1-9.6 5.5-14 8.4-2.4 1.7-11 4.9-6.2 7.8 7.8 4.8 14-11.6 20.2-16.1v-.1z"/><path fill="gold" stroke="#000" stroke-width="1.5" d="M385.2 124.4c-12.5 8.3-8 16.4-14 26.2-6.2 9.8-14.3 15.2-25.3 4.2-18.3-24.5 23.3-35 39.3-30.4z"/><path fill="gold" stroke="#000" stroke-width="1.5" d="M386.3 161.1c-13.6-6.4-18.3 1.8-29.7 1.7-11.5-.1-20.4-4.2-16.8-19.4 11.4-28.4 42.1 1.6 46.5 17.7z"/><path fill="gold" stroke="#000" stroke-width="1.5" d="M376.8 153c-4.9-4.4-10.3-4.2-15.3-5.8-2.8-1-10.6-5.6-10 0 1.2 9.1 17.8 3.6 25.3 5.8z"/><path fill="gold" stroke="#000" stroke-width="1.5" d="M362 186.5c-7-13.2-15.7-9.5-24.9-16.5s-13.8-15.6-1.8-25.6c26.2-15.8 32.7 26.6 26.6 42z"/><path fill="gold" stroke="#000" stroke-width="1.5" d="M341.8 199.2c-4-14.3-13.3-12.5-20.8-21.3-7.4-8.8-10.1-18.2 3.7-25.4 29-10 26.4 32.9 17.1 46.7z"/><path fill="gold" stroke="#000" stroke-width="1.5" d="M341.8 186.7c.1-6.5-3.7-10.4-5.7-15.3-1-2.8-2.8-11.8-6.5-7.7-6.2 6.9 8.9 15.9 12.1 22.9zM284.2 197l6.8 8.8-.9 28.6c-2.6 19.7-4.6 39-11.2 63 6.8 6.7 14.3 5.6 21.8 5.6s14.9 1.1 21.8-5.7c-6.6-24-8.6-43.2-11.2-63l-1-28.5 6.9-8.8z"/><path fill="gold" stroke="#000" stroke-width="1.5" d="M310.2 217c-4.1-14.4-13.3-12.6-20.8-21.4-7.5-8.7-10.1-18.1 3.7-25.3 29-10 26.4 32.8 17 46.7z"/><path fill="gold" stroke="#000" stroke-width="1.5" d="M310.2 204.4c0-6.5-3.7-10.4-5.7-15.3-1.1-2.7-2.8-11.7-6.5-7.6-6.2 6.8 8.9 15.8 12 22.8z"/><path fill="gold" stroke="#000" stroke-width="1.5" d="M326.7 212c-4-14.4-13.2-12.6-20.7-21.4-7.5-8.7-10.2-18.1 3.7-25.3 28.9-10 26.3 32.8 17 46.7z"/><path fill="gold" stroke="#000" stroke-width="1.5" d="M326.7 199.4c.1-6.5-3.7-10.4-5.7-15.2-1-2.8-2.7-11.8-6.4-7.7-6.2 6.9 8.8 15.8 12 22.8z"/><path fill="gold" stroke="#000" stroke-width="1.5" d="M319.2 183.6c-1.8-15 7.4-16.8 11-27.8 3.4-11 2.3-20.7-13.1-22-30.8 2-11.8 40.6 2 49.8z"/><path fill="gold" stroke="#000" stroke-width="1.5" d="M342 167.9c-3.7-14.5-13-12.9-20.3-21.8-7.2-8.9-9.8-18.3 4.1-25.2 29-9.5 25.8 33.3 16.3 47zm-1.5-143c-9.5 11.5-2.8 18.1-5.8 29.3s-9 18.7-22.8 11.4c-24.8-18.2 12-40.4 28.6-40.6zM165.6 135.2c13.8 5.7 18.2-2.5 29.7-3 11.4-.5 20.5 3.2 17.5 18.5-10 29-42 .3-47.3-15.5h.1z"/><path fill="gold" stroke="#000" stroke-width="1.5" d="M162.2 117.6c15 1.3 15 10.7 25 16.3 10 5.7 19.7 6.6 24.1-8.3 4.4-30.4-37.2-19.7-49-8z"/><path fill="gold" stroke="#000" stroke-width="1.5" d="M174.6 115.2c6.4-1.3 10.9 1.6 16 2.7 3 .6 12.1.5 8.8 4.9-5.6 7.4-17.3-5.7-24.8-7.6zm23-45.8c6.2 13.5 15.1 10.3 23.9 17.7 8.8 7.5 13 16.3.4 25.6-27 14.6-31.2-28.3-24.3-43.3z"/><path fill="gold" stroke="#000" stroke-width="1.5" d="M199.6 81.8c1 6.4 5.2 9.7 8 14.2 1.5 2.6 4.5 11.2 7.5 6.5 5-7.8-11.3-14.3-15.5-20.7zm23-33.6c3 14.7 12.4 13.6 19.1 22.9 6.8 9.2 8.8 18.8-5.5 25-29.7 7.7-23.8-34.8-13.5-47.9z"/><path fill="gold" stroke="#000" stroke-width="1.5" d="M244.5 36c1 14.9 10.3 15.1 15.7 25.3 5.4 10.2 6 20-9 24-30.5 3.4-18.7-37.9-6.7-49.4z"/><path fill="gold" stroke="#000" stroke-width="1.5" d="M241.8 48.2c-1.5 6.3 1.3 11 2.2 16.2.5 3 .1 12 4.6 8.9 7.6-5.4-5.2-17.5-6.9-25zm21.6-23.7c10 11 3.8 18 7.3 28.9 3.5 11 10.1 18.2 23.4 10.2C318 44 280 23.9 263.3 24.5z"/><path fill="gold" stroke="#000" stroke-width="1.5" d="M274.2 31c5.6 3.3 7 8.6 10 12.8 1.7 2.5 8.5 8.5 3 9.5-9 1.7-8.8-15.9-13.1-22.4z"/><path fill="gold" stroke="#000" stroke-width="1.5" d="M304 12c-.1 15 9.2 16 13.9 26.5 4.6 10.6 4.4 20.4-10.8 23.2-30.6 1.3-15.9-39-3-49.6z"/><path fill="gold" stroke="#000" stroke-width="1.5" d="M300.5 24.2c-1.9 6.1.5 11 1 16.2.3 3-.7 12.1 4 9.2 7.9-4.8-3.9-17.8-5-25.4zm-19.2 26c9.2 11.8 2.3 18.2 5 29.5 2.7 11.2 8.6 19 22.6 12C334 74.2 298 51 281.3 50.2z"/><path fill="gold" stroke="#000" stroke-width="1.5" d="M291.5 57.6c5.3 3.8 6.2 9 9 13.6 1.6 2.6 7.8 9.1 2.3 9.7-9.2 1-7.6-16.5-11.3-23.3z"/><path fill="gold" stroke="#000" stroke-width="1.5" d="M332.5 55.7c-9 11.9-2 18.2-4.6 29.4-2.5 11.3-8.4 19.1-22.4 12.3-25.5-17.2 10.5-40.8 27-41.7z"/><path fill="gold" stroke="#000" stroke-width="1.5" d="M322.4 63.3c-5.1 3.8-6 9.2-8.7 13.7-1.5 2.6-7.7 9.2-2.2 9.7 9.1.8 7.4-16.6 11-23.4h0zm-74.3-32.4c9.5 11.5 2.8 18.1 5.8 29.3s9.2 18.7 23 11.4C301.6 53.4 264.8 31 248 30.9z"/><path fill="gold" stroke="#000" stroke-width="1.5" d="M268.6 46.5c6.4 13.5 15.1 10.3 24 17.7 8.9 7.4 13 16.3.6 25.5-27 14.7-31.4-28-24.5-43.2z"/><path fill="gold" stroke="#000" stroke-width="1.5" d="M270.6 58.9c1 6.4 5.3 9.7 8 14 1.6 2.7 4.7 11.2 7.6 6.6 5-7.8-11.3-14.2-15.7-20.6z"/><path fill="gold" stroke="#000" stroke-width="1.5" d="M249.8 56.5c7.6 12.9 16 8.8 25.5 15.5 9.3 6.7 14.4 15 2.9 25.4-25.6 17-33.9-25.1-28.4-40.8v-.1z"/><path fill="gold" stroke="#000" stroke-width="1.5" d="M253 68.7c1.6 6.3 6.2 9.2 9.3 13.3 1.8 2.4 5.6 10.7 8.2 5.8 4.3-8.1-12.6-13.1-17.5-19v-.1z"/><path fill="gold" stroke="#000" stroke-width="1.5" d="M278.3 70c1.9 15 11.2 14.5 17.3 24.3 6.1 9.8 7.3 19.5-7.4 24.5-30.1 5.6-21-36.5-9.8-48.7z"/><path fill="gold" stroke="#000" stroke-width="1.5" d="M276.4 82.5c-1 6.4 2 11 3.3 16 .6 3 1 12 5.2 8.5 7.2-5.9-6.3-17-8.5-24.5zm-44-12.1c8.8 12 17 7.3 26.9 13 10 5.6 15.8 13.5 5.3 25-23.8 19.4-36-21.8-32.1-38z"/><path fill="gold" stroke="#000" stroke-width="1.5" d="M236.9 82.1c2.2 6.1 7 8.5 10.5 12.4 2 2.2 6.6 10.1 8.7 5 3.5-8.6-13.8-11.9-19.2-17.4z"/><path fill="gold" stroke="#000" stroke-width="1.5" d="M211.5 93.2c14 5.3 18-3.2 29.5-3.9 11.5-.7 20.7 2.7 18.2 18.1-9.3 29.2-42 1.5-47.7-14.2z"/><path fill="gold" stroke="#000" stroke-width="1.5" d="M190 147c13.6-6 10.6-14.8 18.3-23.4 7.7-8.6 16.7-12.5 25.6.2 13.8 27.3-29 30.5-44 23.2z"/><path fill="gold" stroke="#000" stroke-width="1.5" d="M202.3 145.3c6.4-.8 9.8-5 14.4-7.7 2.6-1.5 11.3-4.2 6.7-7.3-7.7-5.2-14.6 10.8-21 15zm5 65.6c8.1-12.6.6-18.3 2.3-29.7 1.7-11.5 7-19.6 21.5-14 26.6 15.4-7.4 41.6-23.9 43.7z"/><path fill="gold" stroke="#000" stroke-width="1.5" d="M216.7 202.6c4.9-4.2 5.4-9.6 7.8-14.3 1.4-2.6 7-9.7 1.5-9.8-9.3-.1-6.1 17-9.3 24.2z"/><path fill="gold" stroke="#000" stroke-width="1.5" d="M209 173.3c13.9-5.4 11.3-14.5 19.3-22.8s17-11.9 25.5 1.2c12.8 27.9-30.1 29.5-44.8 21.6z"/><path fill="gold" stroke="#000" stroke-width="1.5" d="M221.5 172c6.5-.5 10-4.6 14.7-7 2.7-1.4 11.3-3.9 7-7.2-7.5-5.5-15 10.4-21.7 14.3zm45.9 71.7c3.8-14.4-5.1-17.5-7.1-28.9-2-11.4.4-20.9 16-20 30 6 6 41.8-9 49z"/><path fill="gold" stroke="#000" stroke-width="1.5" d="M230.4 215.6c11.5-9.4 6.3-17.2 11.3-27.6 5.1-10.3 12.7-16.5 24.7-6.6 20.6 22.6-19.8 37.2-36.1 34.2h0z"/><path fill="gold" stroke="#000" stroke-width="1.5" d="M241.8 210.7c6-2.5 8.1-7.5 11.8-11.3 2.1-2.2 9.7-7.2 4.5-9-8.8-3-11 14.4-16.3 20.2z"/><path fill="gold" stroke="#000" stroke-width="1.5" d="M263 217c3.3-14.6-5.7-17.4-8-28.7-2.5-11.2-.5-20.7 15-20.5 30.3 4.9 7.8 41.4-7 49.2z"/><path fill="gold" stroke="#000" stroke-width="1.5" d="M269 206c3.2-5.8 1.8-11 2.3-16.2.3-3 3-11.6-2.1-9.7-8.7 3 .3 18.1-.1 26zm-26.9-18c7.6-12.8 0-18.3 1.1-29.8 1.2-11.5 6.1-20 20.8-14.9 27.3 14-5.5 41.9-21.9 44.7z"/><path fill="gold" stroke="#000" stroke-width="1.5" d="M251.2 179.4c4.7-4.4 5-10 7.1-14.7 1.2-2.8 6.6-10 1-10-9.3.3-5.3 17.4-8 24.6zm23.9 23c8.2-12.4 1-18.2 2.8-29.6 1.8-11.4 7.2-19.6 21.6-13.6 26.4 15.6-8 41.4-24.4 43.3z"/><path fill="gold" stroke="#000" stroke-width="1.5" d="M284.5 194.2c5-4.2 5.6-9.5 8-14.1 1.4-2.7 7.2-9.7 1.6-10-9.3-.1-6.4 17.2-9.6 24.1zm-11.8-6.6c3.5-14.5 12.7-13.1 19.8-22.2 7.1-9 9.4-18.6-4.8-25.2-29.3-8.7-25 34-15 47.4z"/><path fill="gold" stroke="#000" stroke-width="1.5" d="M272.2 175c-.3-6.4 3.2-10.5 5-15.4 1-2.8 2.3-11.9 6-7.9 6.5 6.6-8.1 16.3-11 23.4z"/><path fill="gold" stroke="#000" stroke-width="1.5" d="M252.7 167.5c9.2-11.8 17-6.7 27.3-12s16.3-13 6.2-24.8c-23-20.3-36.8 20.4-33.4 36.8z"/><path fill="gold" stroke="#000" stroke-width="1.5" d="M257.5 155.8c2.4-6 7.3-8.3 11-12 2-2 7-9.8 8.9-4.6 3 8.7-14.2 11.4-19.9 16.7z"/><path fill="gold" stroke="#000" stroke-width="1.5" d="M279 169.9c8-12.7 16.3-8.4 26-14.8s14.8-14.7 3.5-25.3c-25-17.7-34.4 24.2-29.4 40z"/><path fill="gold" stroke="#000" stroke-width="1.5" d="M282.5 157.8c1.8-6.2 6.4-9 9.7-13 2-2.5 6-10.6 8.4-5.7 4 8.4-13 12.8-18 18.7zm-68-36c13.6 6 18-2.2 29.6-2.3 11.6-.1 20.5 3.8 17.2 19-10.9 28.7-42.1-.8-46.8-16.7z"/><path fill="gold" stroke="#000" stroke-width="1.5" d="M224 129.8c5 4.1 10.5 3.8 15.5 5.3 2.8 1 10.7 5.4 10 0-1.4-9.1-18-3.3-25.4-5.3z"/><path fill="gold" stroke="#000" stroke-width="1.5" d="M235.5 98c9 11.9 17 6.8 27 12.3 10.3 5.5 16.3 13.2 6 24.8-23.3 20-36.6-20.8-33.1-37h0z"/><path fill="gold" stroke="#000" stroke-width="1.5" d="M240.1 109.7c2.3 6 7.3 8.3 11 12 2 2.3 6.8 10 8.7 4.8 3.2-8.7-14-11.5-19.7-17z"/><path fill="gold" stroke="#000" stroke-width="1.5" d="M243.7 129.8c14.6-3.3 17.5 5.5 28.8 8 11.2 2.3 20.8.1 20.4-15.4-5-30.3-41.5-7.4-49.2 7.4z"/><path fill="gold" stroke="#000" stroke-width="1.5" d="M254.7 123.8c5.7-3.2 10.9-1.8 16-2.4 3-.3 11.7-3.2 9.8 2-3 8.8-18.1-.1-25.9.4h.1z"/><path fill="gold" stroke="#000" stroke-width="1.5" d="M236.3 107.2c15 0 15.7 9.3 26.2 14 10.5 4.9 20.2 4.9 23.3-10.4 1.7-30.7-38.8-16.4-49.5-3.7v.1z"/><path fill="gold" stroke="#000" stroke-width="1.5" d="M248.3 103.7c6.2-1.8 11 .7 16.3 1.3 3 .3 12-.6 9 4.1-4.8 7.9-17.6-4.2-25.3-5.4z"/><path fill="gold" stroke="#000" stroke-width="1.5" d="M263 88.8c9.8 11.4 3.2 18.1 6.4 29.2 3.2 11 9.5 18.5 23 11 24.5-18.6-12.7-40.3-29.3-40.2z"/><path fill="gold" stroke="#000" stroke-width="1.5" d="M302.6 61.5c.4 15 9.8 15.6 14.8 25.8 5 10.3 5.2 20.2-10 23.6-30.4 2.5-17.3-38.4-4.8-49.5z"/><path fill="gold" stroke="#000" stroke-width="1.5" d="M299.5 73.7c-1.7 6.3 1 11 1.7 16.1.4 3-.2 12.1 4.4 9 7.7-5-4.6-17.6-6-25.1h-.1z"/><path fill="gold" stroke="#000" stroke-width="1.5" d="M334.2 67.4c-6.6 13.3 1.4 18.2 1.1 29.7-.3 11.5-4.7 20.3-19.6 16.3-28.3-12 2.5-42.1 18.6-46.1z"/><path fill="gold" stroke="#000" stroke-width="1.5" d="M325.8 76.8c-4.4 4.7-4.3 10.1-6 15-1 2.8-5.7 10.6-.2 10 9.1-1 4-17.8 6.3-25.1h0v0z"/><path fill="gold" stroke="#000" stroke-width="1.5" d="M336.3 147c-4-14.3-13.3-12.6-20.7-21.3-7.5-8.8-10.2-18.2 3.7-25.4 28.9-10 26.3 32.9 17 46.7z"/><path fill="gold" stroke="#000" stroke-width="1.5" d="M336.3 134.4c.1-6.4-3.7-10.3-5.7-15.2-1-2.8-2.8-11.8-6.5-7.7-6.1 6.9 9 15.9 12.1 22.8zm-65 14.6c9.5-11.5 17.2-6 27.7-11s16.8-12.3 7-24.5c-22.3-21-37.4 19.2-34.7 35.5z"/><path fill="gold" stroke="#000" stroke-width="1.5" d="M276.4 137.6c2.6-5.8 7.5-8 11.4-11.5 2.2-2.1 7.4-9.6 9-4.3 2.8 8.8-14.6 10.9-20.4 15.8z"/><path fill="gold" stroke="#000" stroke-width="1.5" d="M302 158.5c4-14.4 13.3-12.6 20.7-21.4 7.5-8.7 10.2-18.1-3.5-25.2-29-10-26.4 32.8-17.1 46.7z"/><path fill="gold" stroke="#000" stroke-width="1.5" d="M302 146c-.1-6.6 3.7-10.5 5.7-15.3 1-2.8 2.8-11.8 6.5-7.7 6.2 6.9-9 15.8-12.1 22.8z"/></svg>