<svg xmlns="http://www.w3.org/2000/svg" viewBox="0 0 600 400"><path fill="#fff" fill-rule="evenodd" d="M0 0h600v400H0z"/><path fill="#a92211" d="M0 0v400h61.6L75 386.6l-11.4-11.4-9.5 9.6 3.8 3.8 5.7-5.7 3.7 3.7-9.4 9.6-11.5-11.4 13.4-13.4-13.4-13.3L58 346.6l9.4 9.6-3.7 3.8-5.7-5.7-3.8 3.8 9.5 9.6L75 356.2l-13.4-13.3L75 329.5l-11.4-11.4-9.5 9.6 3.8 3.7 5.7-5.7 3.7 3.8-9.4 9.6-11.5-11.4 13.4-13.4-13.4-13.4L58 289.5l9.4 9.6-3.7 3.8-5.7-5.8-4 3.9 9.5 9.6L75 299l-13.4-13.4L75 272.3 63.6 261l-9.5 9.6 3.8 3.8 5.7-5.7 3.7 3.7L58 282l-11.5-11.4L59.8 257l-13.4-13.3L58 232.3l9.4 9.6-3.7 3.8L58 240l-3.8 3.8 9.5 9.6L75 241.9l-13.4-13.3L75 215.2l-11.4-11.4-9.5 9.6 3.8 3.7 5.7-5.7 3.7 3.8-9.4 9.6-11.5-11.4L59.8 200l-13.4-13.4L58 175.2l9.4 9.6-3.7 3.8-5.7-5.7-3.8 3.7 9.5 9.6L75 184.8l-13.4-13.4L75 158.1l-11.4-11.5-9.5 9.6 3.8 3.8 5.7-5.7 3.7 3.8-9.4 9.6-11.5-11.5 13.4-13.3-13.4-13.4L58 118.1l9.4 9.6-3.7 3.7-5.7-5.7-3.8 3.8 9.5 9.6L75 127.7l-13.4-13.4L75 100.9 63.6 89.5 54 99.1l3.8 3.8 5.7-5.8 3.7 3.8-9.4 9.6L46.4 99l13.4-13.4-13.4-13.4L58 61l9.4 9.6-3.7 3.8-5.7-5.7-3.8 3.7 9.5 9.6L75 70.5 61.6 57 75 43.8 63.6 32.3 54 42l3.8 3.8 5.7-5.7 3.7 3.8-9.4 9.6L46.3 42l13.4-13.3-13.4-13.4L58 3.8l9.4 9.6-3.7 3.7-5.7-5.7-3.8 3.8 9.5 9.6L75 13.4 61.6 0z"/><path fill="#b17842" stroke="#b17842" stroke-width=".6" d="M308.8 81.5h56.7v3.7h-56.7z"/><path fill="#d1a345" stroke="#b17842" stroke-linejoin="round" stroke-width=".6" d="M337.2 20.8a89 89 0 00-7.7 8.3c2.9 2.2 5.3 4.6 7.7 7 2.4-2.4 4.8-4.8 7.7-7a89 89 0 00-7.7-8.3zm-24 11.8c-1.8 2.3-3 4.9-4 7.5a79 79 0 016.8 5c1.2-2.7 2.3-5.3 3.9-8a87 87 0 00-6.7-4.5zm48 0a87 87 0 00-6.7 4.5c1.6 2.7 2.7 5.3 4 8 2.1-1.8 4.3-3.5 6.7-5-1-2.6-2.2-5.2-4-7.5zm-34.3.1c-3.5 5-6 9.5-8.5 14.5 2.6 2.4 4.8 4.9 6.6 7.4 1.2-3 2.8-6 4.6-9 1.2 1.3 2.3 2.7 3.3 4.1-2.8 4.5-5.2 9-6.8 13.5a69.5 69.5 0 00-9.4-12.2c-2 5-3.8 10-5 15A157 157 0 00299 45.3c4.1 1.2 6.5 2.5 8.8 4.5l-1.1 1.5 4.2 6.4c1-3 2.2-6 3.4-8.9a48.3 48.3 0 00-27.5-14.3 110.8 110.8 0 0122.1 41l-.5.3.5 6.7c18.9-2 37.8-2 56.7 0l.4-6.7-.5-.1a110.9 110.9 0 0122.2-41.2A49 49 0 00360 48.8c1.3 3 2.5 5.9 3.5 8.9l4.2-6.4-1.2-1.5c2.4-2 4.8-3.3 9-4.5a157 157 0 00-12.7 20.9c-1.3-5-3-10-5-15a69.9 69.9 0 00-9.5 12 68 68 0 00-6.9-13.4c1.1-1.4 2.3-2.8 3.5-4 1.8 2.9 3.4 5.9 4.5 8.9 1.9-2.5 4-5 6.6-7.4a99 99 0 00-8.4-14.5 83.1 83.1 0 00-10.4 11 88 88 0 00-10.3-11zm10.3 23.5a52 52 0 015.7 15c-3.8-.3-7.6-.3-11.4 0 1-5 3-10.2 5.7-15z"/><path fill="#b17842" d="M354 79.2l5.3-1.8-5.2-2.6-5.5 1.7zm-22.6-3l5.8-2.5 5.8 2.5-5.8 2.3zm-11 3l-5.3-1.8 5.2-2.6 5.5 1.7z"/><path fill="#d1a345" stroke="#b17842" stroke-linejoin="round" stroke-width="1.3" d="M365.6 82.4c1.8 1 .4 3 0 2.8a88.1 88.1 0 00-28.4-3 88.1 88.1 0 00-28.4 3c-.3.2-1.7-1.9 0-2.8a89.6 89.6 0 0128.4-3 89.6 89.6 0 0128.4 3zm.6-9.2c1.1.5 1.1 3-.1 2.5-3.5-1.6-16.3-2.8-28.9-2.7-12.6-.1-25.3 1.1-28.9 2.7-1.2.5-1.2-2 0-2.5 3.4-1.6 16.3-2.8 29-2.7 12.5-.1 25.4 1.1 28.9 2.7z"/><path style="line-height:normal;-inkscape-font-specification:Sans;text-indent:0;text-align:start;text-decoration-line:none;text-transform:none;marker:none" d="M239 85v204.1a24 24 0 0023.5 24.7h50a22 22 0 0116.6 6.3 26 26 0 016.3 11.7l.3 1h3l.3-1c1-3.6 2.8-8.2 6.3-11.7a22 22 0 0116.7-6.3h49.9a24 24 0 0023.5-24.7V85H240.9zm3.7 3.7h188.9v200.5c0 12-9 21-19.7 21h-50a26 26 0 00-19.2 7.4 26.5 26.5 0 00-5.5 8.5 26.3 26.3 0 00-5.4-8.5 26.2 26.2 0 00-19.4-7.4h-49.9c-10.7 0-19.8-9-19.8-21z" color="#000" font-family="Sans" font-weight="400" overflow="visible"/><path fill="#1f1a17" fill-rule="evenodd" stroke="#1f1a17" stroke-width=".2" d="M334 134.3c.7-1.7 2-2.9 4.2-2.6 1.3.2 1.8.3 2.7 1.2.5.5.6 2.1 1 2.3-.8 1.5-4 1.5-5.2.8-1-.7-2.3-.4-2.7-1.7zm-10.3 65.8a7 7 0 01-4.5-1.5c-1.7-1.2-3.6-2.8-3.8 0-.1 1.2-2.5-3.2-2.5-1.3 0 .5-.4 2-.2 2.3 1 1.7-4.9-1.7-5.4-2.1-1.5-1.1-2.1-2.7-3.4-4-.5-1.4-2.8-5-3.7-6.4-1.9-3-3.8-3-4.3-4-1.1-3-5.5-12.2-9.8-9.5-1.7 1-1-7.7-1-9.5 0-6.3.2-12.3 6.7-5.2 7 7.6 10.9 11.7 20.5 15.7 4.3 1.8 6.8-6 10.4-6 6.8 8.3 9.3 24 1 31.5z"/><path fill="#1f1a17" fill-rule="evenodd" stroke="#1f1a17" stroke-width=".2" d="M336.1 254c-.7-.5-1.7-2.9-3.3-2.8v9.5c0 2.5-1.3 5.1-.8 6-1.4-.6-2-3-2.4-3-.2.3.5 2 .7 4.5.5 5 2 8.8.6 10.4-.5.7-3.4 1.5-5 2.9-2.5 2-4.7 4.7-5.2 4.9-2.9 1.3-5.2 1.3-11.7 1.3-3.5 0-8.3 1.7-9.6 2.9 0-1 .2-1.5.4-2.5.5-1.5 1.4-1.8 1.3-1.8 0 0-2 .3-3.7 1.9-1.7 1.5-1.2 1.4-1.3 1.3-1.5-2.2 3-5.4 2.6-5.6-1.1-.5-4.6 2.5-5.5 2.7-.5-1.9 4.6-5.6 4.6-5.5 0 .5-4 1.8-4.5 2 0-.4 0-1.7 1.8-2.7 3.2-1.8 5.4-2 9.6-2.3 2.7-.2 4.8 0 6.3-.5a8 8 0 003.4-2.4 9.1 9.1 0 001.3-8.4c-.6-2-1.5-2.9-1.8-3.5-.8.7-1.8.5-2 1.8-1.2-1.5-1.4-4.8-2.1-5.4-.7-.4-2.3 1.7-2.6 3.1-.3-2.9.2-8.8-.5-9-.4 1.4-1.4 1.5-2.5 2a7 7 0 001.2-2.5c.7-2.4.3-5.7.4-6.5.1-4.7 1.4-9 3-12 2.4-4.2 8.2-6 11.8-9 3.7-3.2 7.5-9.3 8.5-13 .9-5.7-3.5-8.1-4.2-7.6-.4-.2-.6-.5-.8-.8-2.2-2.7-.7-7-2-10.2-.8-2.1-1.3-4-2-2.7-.6-1.2-.5-.6-.8-3-.4-2.2 1.7-10.7 1.3-10.6-2 .6-2 1.2-3 1.4.7-1.3 1.4-2.2 2-3.7l3.1-6.8c.7-1.4 2.7-4.1 3-4.7-1.5.5-3 2.1-3.4 2.1-.1-.8 2-3.5 2.1-6.2 0-1.6-1.3-3-2.3-4a6 6 0 00-4.1-1.6c-1 0-1.6.8-2 .9-.4 0-.6-.8-.6-2.5 0-.4 0-1 .4-1 .8-.7 2.8-.7 4.6-.2 1.3.4 2.5 1.4 3 1.5 4.1 1 4.8-2.7 2-4.4-1.4-.9-3.9-.7-6.2-.6-1.4 0-2.6.5-3.6.3-.4-.1-.9-.9-1.1-1.3-.3-.5-.8-1.6-1.5-2.5-.8-.9-1.7-1.6-1.8-2.3 0-.3.5-.8.7-1a25 25 0 019.4-3c2-.4 3 0 4.5-1 1.4-.8 4-3 5.6-3 2-.2 4.4.2 6.5.5.7 0 1.3.5 2 .5 2.6-.8 6.9-3.6 8.4.3.2.7.5 1.7.6 2.6v1.3c.2.4 1.4.5 2.2 1.3 2.5 2.4 6 6.7 7.2 8 .8.7 1.2 1.2 1 1.4 0 .2-1.2-.3-1.6 0-.2.2 0 .9.5 1.9.7 1.7 4.6 3.1 6.3 4.2.4.2 1 1 1 1.2-.5 0-2.5.1-1.9 1.9.2.4 1.2.7 2.6 1.2a20 20 0 017 4.8l1.6 2.2c.6.7 1.3 1.2.1 1.3-.3 0 .1 1.8.9 1.8-8 11-14.3 22.8-6.7 35.5 2.1 3.5 13.3 9.8 17.8 8.2.8 1 4.6 5 3.9 7-1-.4-.7-.8-.6.4l.4 3.6c.2 2.2-1.5-.2-2.7-.2-1.6 0 .2.5 1.2 1.9s2.2 7.2 2.8 11.4c.2 2 3 3.7 3.8 4.7-2-.7-.5 3.2 1.6 6.7 1.5 2.5 3.5 5 4.6 7.5.8 1.7 3.5 6.6 2.2 8.4-.6.9-2 1.7-3.4 3.3-2.6 3-4.8 8.4-5.1 12.2-.5 5.3-6.1 5.7-10 6.7-1.9 2.3-2.3 2-2.6 2-.6-.7-.4-1.5-.3-3.3 0-.2-.6.5-1.6 1a30 30 0 01-3.5 1.5c-.2-.7.8-2.6.6-2.3-.2.3-1.1.4-2 .9-1 .4-1.8 1-2.1 1.1 0-.7-.5 0 0-1.8l.3-1.3s-1.6.2-2.3.8c-1 1-1.9 1.3-2.2 1.4a8 8 0 011.4-3.5c1-1.4 2-2.6 3.7-3 1.7-.4 3.6-.2 5-1.6 2-1.8 4.7-5.3 5.5-8.3 1.3-4.8.6-11.3-5.2-12.7-.8-.3-.5 1.2.5 2-.8 1-3.7-2.6-4-2.3-.1 1 0 2.1.5 2.8-.5 0-1.1-1-2.3-1.8-2.3-1.8-2.8-1.8-5.5-1.8 3.2-4.4 6.3-9.6 3-16-10-18.7-27.1-2.9-33.8 6.4a13.2 13.2 0 00-2.6 5.7z"/><path fill="none" stroke="#1f1a17" stroke-width=".2" d="M340.6 137c1.6.5 3-2.3 5-1 1.4.7 1.4 2.3 1.4 3.7"/><path fill="#a92211" fill-rule="evenodd" stroke="#1f1a17" stroke-width=".2" d="M387.6 216.1c1.2.9.4.3 1.4 1.6l-.6-.1c1.6 1.8 1.4.6 2.1 3-.6-.4-1.1-1.2-1.9-1.3a7 7 0 011.4 3.3c-.3-.3-1-1-1.1-1.3 0 1.2 1.4 2.5 1 4-1-.6-1.2-1.1-2.5-1.5.2.4 0 .5.2.9-.6-.3-2.6 0-3.2-.3l1-8.6c.8.3 1.4-.2 2.2.3z"/><path fill="none" stroke="#1f1a17" stroke-width=".2" d="M335 138.5c-1.2.3.6 1.6-1.2 1.8-1.1.2-2.1.8-3.4.8"/><path fill="#a92211" fill-rule="evenodd" d="M324.1 157.3l.6-.4v.4l.6-.3-.2.8.8-.7v.9l-.3.8h.2c-.1 1.3-.4 2.9-.2 3.7l4.2-1.4.1.5-.3.8.5-.4.1.5-.5 1 .7-.6.2.7 1.4-.6-.9 1.3-.3.4-.3.6-.6-.2-1.3.7.2-2.8-1.7 1.3-.8 1.5.8-.2-3.7 4.5c-1.4 2.1-3 4.4-4 6.6l3.2-1.9.1 1.5 2.7-4.3-.1 4.5 1.3-2.5.6-1.1c.6 1.3.3 1.7 1 4l.9-2.7.2 2 .6-1.5.5 1.4.3-1.3.6 1.2.7-1.4.5.7 18-2.7v-1.4l-.1-.9 2-3.3v.4l.9-1-2.8-3.9-.5 2.2-3.9-3.1v1.6l-.6 2-.9-1-.9-1.7-.3 1-1 1.2-1-.6-.1-.7 1.2.8.6-.8.1-1.4h.5l1.7 2.3.3-1.5-.2-2 3.7 2.5.1-2.7 1 .6.1-.5 2.9 3 .2-2.4 1.7.5-1.3-2.3 3.5 1.5-1.3-1.9 4.5 1.5-2.6-3.2 3.7 1.6-2.4-3.2 3.4 1.7-3.2-2.8h.6l-4.8-2.8 2.5.5-1.1-2.3 1.4-.6-2.4-2.2-.7 1.7-2.7.5.4.8-1.3-.1.1 1.6-1-.6 1.5 1.7h-.4v.9l-1.6-.9v2l-1.9-1 .2 2.5-2.6-1.6-.5 3.7-2.1-2.5 1.3.6.8-2.6 2 1 .4-2.2 1.9 1.2-.5-2.5 1.3.7-.8-1.5 1.4.3-.5-1.8 1.3.4s-.6-1-.4-1h2l-1.3-1.3 2.6.4-1.6-1 .4-.1 1.6-.2c-.3-.6-2-.5-1.5-1.6.2-.4-1.4-1.3-1.7-1.5v-.4h.7c0-.4-.6-1-1-1l-2.1-.8c-.7 0-.9-.8-.8-1.5l-.1-1.7c-.2-2.1-.6-2.7-1.7-3.3-2.2-1.5-6.7 1-6.8 1-.4 0-4.4-1-5.8-1.1-1.3 0-2.3-.2-3 0-3.2 1-3.7 3-6.5 3.6l-7.7 1.5c-2 .8-2.5 1.6-2.9 3.5a4.2 4.2 0 002.3 4.6c.7.2 7.1-.7 8-.6 3 .1 6.8 5.2 4.2 7-1.6 1-8.8-2-11.2-2-2.6 0-1.9 1.8-1.2 1.7 1.9-.3 1-.4 2.8 0 1.9.5 4.4.8 5.4 2.4l-.3 1z"/><path fill="#a92211" fill-rule="evenodd" stroke="#1f1a17" stroke-width=".2" d="M382.6 229.3l-1.5-.2c.6 1-1.2-.5-1.4-.6-1-.3 3.8 3.9 3 3.6.3.5 1.3-8.3 3.4-7 .8.5 4 4.5 4.2 7.6 0 .5-1.6-1-1.5-.4.3 1 1.8 2.7 2 3.5.2.5-2.2-.5-2 0 1.7.2 1.8 1.9 2.5 3.2l-1-.2 2.9 3.3-3.4-2.3 3.5 3.4-2.6-1 3.4 2.5-4-1.3 5 3.5-4.1-.2 5 2.3h-3.6c.4.7 2.6-.2 4.6 1.7.6.6 1.4 2 2.2 3.1l2.5 4.6 1.5 2.8c.2.4.7 3.8.2 4a30.6 30.6 0 00-7 10l-.6 2.5c-.4 1.2-1.5 5.8-2.5 6.6-1.2.8-1 .9-2.2 1.3l-.3.7-.1-.6-1 .4-.4-.6-.9 1.2-.2-1.2-.8 1-.2-.9-.7-.2-2 .7 1.4-2c-3.9 2.9-3 2-3.9.8h-1c-.2-.2 2.9-2 2.7-2.2 0-.1-3 1.5-3.1 1.4l-.9.5-1-.5-.2-.3 1.7-.8 2.2-1.4c.8-.9 1.9-1.5 3.3-3-1.3-.4-3.8 2.4-4.7 3l-2.4 1.2-.9.3h-.3l-.5-.1-.5-1.2 1.9-.3.9-.4 1.5-.9-.6-.1 3.7-2.2-1.5-.2 2.5-1-1.2-.5 3-4h-1l1.4-1h-1l1.7-1.3h-.9l1.6-1h-1.1l1.7-1.3-1.4-.4-1.2-1 .4-4.4-.9.1.4-1.3-.9.8v-2.2l-.8 1.4-.5-1.5.6-1.7-1 1.6.2-3-.8 2.2-.4-3.4-.2 3.4-1.2-4.5.3 3.7-1.9-2.8.5 3.3-2-2.5.5 3.2-3-3.6c.1 1.2 0 2.3.3 3.7l-4.7-2.3.8-4.2 4-2 4-6.2c2-4.8.3-14.8 4-18.3.7-.2 1.2-.3 1.8 0 .3.3-3.2 3.5-3.3 3.6z"/><path fill="#a92211" fill-rule="evenodd" d="M306.2 193.5l.4-2.3c.3.9.7 3 1 3.7v-3.3l1.1 4.4.3-2.6.9 3.3v-2.6l2.5 5.6s0-4 .3-5.5l.8 2.2.6-2 .2-.2.5.2.4.7.4-.2.7.3.5-.6.7 1.2.5-.7.4.6.6-.3.6 1.1.8-.3 1.5 2.7v-.4a40 40 0 010-27.7c-1.5.7-6 4.5-7.6 5-.9 0-.7-.2-2.6-.7a24.6 24.6 0 01-11.1-6.3c-2.6-2.5-10.4-12-12.6-11.5v1.3c0 1-.7 1 0 2.1.3.7.7 1.1 1.1 1.8 1.1 1.8 0 2 0 4.4-1.8 1-2.3 5-.5 6.4.6.4 1.6 0 2.6.9 1 1 2.9 3.6 3.1 4 .5.8 1.1 4.2 2.4 5.3.7.6 1.8-1 2.4 0 2.3 3.5 4.5 6.7 7 10z"/><path fill="#a92211" fill-rule="evenodd" stroke="#1f1a17" stroke-width=".2" d="M368.6 164.2l2 1.4-3.7-.7 4 1.7-3-.6 5 2.2-3-.7 3 1.6-2.3-.2 2.6 1.3-2-.3 1.7 1-8.8 3-9.1-.3-2.5-3.4 1-1.7 1.5-1 1-.7.2-1-1.7.3 2.7-3.5-2.8 1.3 1.3-1.5 2.2-.7 1-.5h3l-.3-1.2 7.2 2.5-2.8-.6 5.4 2.9z"/><path fill="#1f1a17" fill-rule="evenodd" d="M334 236.4l.2.7c-1.1.4-1.2-2-2.5 2.3l-.7.3-.1 1.3-.7-.1-2.8 2.7.1 1.1-2 1.8v.5l.3-.5c.7 0 1.2 2 1.2 2.5 0 .8-.6.6-.1 1.6l.1-.3c1.8.2-.2-.8 1.8-.2 1-1.7.4-4.4 1.8-6 .7-.6 1.8-4.3 2.5-4.7.7 0 2.2 1 2.6 1.7 0-2.2 1.6 3 1 .1-.5-2.7-.3-1.8.6.1 1 1.9-.4-2.7-.3-2.8.1-.7 1.6 3.9 1.9 2 0-.6-1.7-3.9-1-3.6.2.2 2 4.3 1.3 1.7 0-.1-1.6-4.8-.4-2.2 1.2 2.6.2-1.3-.2-2.1l.1.5h-1.5l-.5-.7-.3 1-.6-.1v.7l-1.7.7z"/><path fill="#1f1a17" fill-rule="evenodd" d="M325.6 247l.5 5h-.3l-1.7-1.5-.7.1c0 .7 1 3.5 1 4.7v.9c0 .4 0 .3-.2.7l-1-1h-.2l-.2 1.4-.4.2.9.8v1.3h.1l.4-.3.1-.7 1.6-.5v-.7l.1-.1-.2-1.3v-1.1c0-.7 0-.3.3-.8l.6 1.4c1-.3.6-3.9.6-4.9-.5-1 .1-.8.1-1.6 0-.5-.5-2.5-1.2-2.5l-.2.5z"/><path fill="#d1a345" fill-rule="evenodd" d="M374.2 288.7l4.2-3.3c.5-3.9-4.6 1.3-4.2 3.3z"/><path fill="none" stroke="#1f1a17" stroke-width="1.7" d="M319.9 182.6l-1.4 7.5 2.2-2.5" class="fil0 str4"/><path fill="#d1a345" fill-rule="evenodd" d="M378.1 288.8l3.9-2.3c.9-3.5-5 .3-3.9 2.3zm-7.4-1.5l4.8-3.7-.6-1h-.6c-1.3-.4-3.7 4-3.6 4.7z"/><path fill="#1f1a17" fill-rule="evenodd" d="M340.8 137.3c0 1.6 2 2.2 3.1 1.2l-.4-1.1.2-.2 1.3.5.7-.5c1.8.2 1 1.8 1.4 2.5.8-1.2-.3-3.3-1.8-3.8-1.3-.5-3.9.6-4.5 1.4z"/><path fill="#a92211" fill-rule="evenodd" d="M334.8 133.8l5 .4h.9c-.2-1-1.8-2-2.9-2h-.8c-.8 0-2.3.7-2.2 1.6z"/><path fill="none" stroke="#1f1a17" stroke-width=".8" d="M330.6 141.3c.8 0 1.3 0 2-.3.1 0 .3-.3.5-.3.4 0 2-.4 2-.8.1-.3-.3-.5-.3-1 0-.4.3-.4.5-.5"/><path fill="none" stroke="#1f1a17" stroke-linejoin="round" stroke-width=".8" d="M339.5 140.6l.8.1h.5m-2.2.9c.6 0 1 .2 1.6.4h.6m-2.8.8l1.3.1h.7m-3.2 1l.6.1c.4.2 1 .2 1.5.2m-2.9.6a8 8 0 002.7.4m-4.4.1c0 .4 1.7.6 2.3.6m-4 .3l.9.3a6 6 0 002 .2"/><path fill="none" stroke="#1f1a17" stroke-linejoin="round" stroke-width=".4" d="M305.2 185.1c.6 2.1 1.1 3 1.1 3l.5-1.7.9 3.4.6-2.6.8 3.1.7-1.7 1 2.8.4-2 1 1.9.2-1.6.6 1.5s0-1.7.2-1.5l1 1.7.1-1.7.7 1.1s.2-1.8.3-1.6l.7 1.3"/><path fill="#d1a345" fill-rule="evenodd" d="M298.8 283.4l1.4-.5.2-.1c0-.6-.4-1.1-.4-1.1l-.7-.3c-1.7 0-4.2 2-4.4 3.4 2.2 0 2-1.2 4-1.4zm2.2 2v-.3l.1-.2-1.9-.7c-1.2.8-2.8 2.2-2.4 3.8.6.2 1.4-.5 1.8-1 1-.8 1.1-.5 2.3-1l.1-.6zm1.6.4c-1.3.7-2.5 2-2 3.6.6.1 1.2-.9 1.6-1.3 1.8-.9 4.3-.1.4-2.3zm-8.4-3.3c.6-.2 2.5-1.4 4.1-1.7 0-.4.2-.7.3-.9l-.2-.6c-1.3.3-4.4 1.2-4.2 3.2z"/><path fill="none" stroke="#1f1a17" stroke-width=".4" d="M315.5 145c-.3.4-.3.7-.2 1.1v.2s0 0 0 0m1-.9c-.2.4-.1 1.1.1 1.5m.6-1.3c-.1.2 0 1.3.5 1.3m.4-1.4c-.5.5.1 1.2.5 1.3m.2-1.4c-.5.6.3 1.4.9 1.2m0-1.2c0 .5.2 1.1.8 1m.1-1c0 .3.2.8.8.7"/><path fill="#a92211" fill-rule="evenodd" stroke="#1f1a17" stroke-width=".2" d="M320.3 226.4l-4.4 2.7a26 26 0 00-5.9 6.6c-2 3.1-2.5 6.5-3 10v2.5l1-2.3-1.7 5 3-4.8-2.4 6.3 3.2-5-2.2 7.2 3.6-6.2-4.3 10 4.2-8.2-3.6 9.8 3.7-8.7-2 7.3 2.6-5.3-1.6 6 2-4-1.4 5.7 2-4.3-1.2 6.4 2-4.4-1.3 4.8 2-3-.2 3.1 1.1-1v2.4l1.3-1.4-.6 3 1.2-1.7-.6 3 1.1-.6-.8 1.7h.7l-1.2 1.5 1-.4-1.1 1.3 1.1-.2-1.5 1.1 1.3-.1-1.7 1 1.7-.2-2 1h1.3l-1.7.9 1 .6c-.6.3-1 0-1.7.3l1.2.6-2 .2 2.8 1-3.6-.5c-2.2 1-1.6 1-6 1.2-3.3.2-3.4.3-6.6 1.5.2.4 0 .7.2 1 .4.6 1 .5 1 .7.3.6.8.5 1 1.2.2.7 0 1.9.4 2.3.4.3.9.5 1 .8.5.5 1 .6 1.3.8.8.5 1 .4 1.9.5l.5-.6.2-.4.3-.2v.5l-.3.7.2.2 1.2-1.4.1.4-.1.4-.4.6h.3l.5-.6.3-.4.2-.3.3.2-.3.4-.5.7h.5l.7-.7.4-.4-.6 1 .5.1 1-1c0 1.8 2.8.6 4.4.7 2.3 0 3.4-1 5-2.4 1.4-1.1 2.2-2.6 3.2-3.4 3-2.2 5.7-2.5 6-4.1.3-4-1.3-8.3-1.4-11.6 0-1.1.1-1.2.4-2.6 0-.4 1.3 1 1.8 2.3.1-1.1-.5-4-.5-4.5l1 1.2c.2-1.6-.7-3-1-4.6l1 1.5c-.2-1.3-1.4-4-1.4-4.7.5.4 1.4 2 1.6 2.2 0-.2-.2-1.7-.9-4.4l1 1.8-.6-3.4.5.7.2-1.9 1 1 .1-1.7 1.2 2.6-.3-2.8 1.4 3.8-.3-3.9 1 1-.9-3.7c1 2.3 1 2.1 1.4 2.6-.1-.9-.7-2.3-.8-3.6l1 1.4-.6-3.3 1 1.6-.2-1.8 1 1.9.4-1.3.4 3.9 1.7-5-2.8-16 .4-1-3.7-7.8-1 .5-.8.3c3.2 4.8 6.3-4.4.4-.1l-3.6-5.2-.4 5.2-.3-3-.3 3.2-.7 2.8h-.4l.3-2.7c-.6 1.7-.5 3.2-1 4.9l-.1-3.5-.7 3.7-.3.7v-2.9l-.7 2.6-.5 1.2v-3l-1.2 4 .4-2.8-1.3 4.6.2-3-1.4 3.9v-2.7l-1.6 3.1.7-2.4z"/><path fill="#a92211" fill-rule="evenodd" stroke="#1f1a17" stroke-width=".2" d="M320.9 188.2l1.5 2.9.5-3.5.7 2 1-3.4.6 1.7 1.2-2.3.7 2.3 2-4.9-1.8 2.6-.4-2.8-1.5 2.8-.8-1.1-.8 2.8c0-3.2-.1-4.5-.4-5.3-.5 1.4-.6 2.9-1.7 5.8l-.3-3-2.4 4.4 1.9-11 1.1-2.4.7 2.2 1.8-3.6-.2 5 2.2-3.7 1.6 3.1 1.9-3.3.2 2.1.6-1.8.4.7 1-1.3.3.1.6-.8 1.8 42.4-1.8-1.8c.2-4.3-1-1.5-1-6.5l-.4 4.8-.8-3.6-.9 1.8.3-4.6-1 1.5.4-2.6-1.2 1.1.2-3.6-1.4 2.1-.3-3.8-1 2.3v-3.5l-1.4 3.2-.2-5-1 1.4-.3-5.7-1.4.7-.8-6.9z"/><path fill="none" stroke="#1f1a17" stroke-linejoin="round" stroke-width=".6" d="M399.6 260c.6.8 1.5 1 1.7 2l.3 1.2v1m-2.6-2.7c.5.6 1.4 1.4 1.6 2 0 .3 0 .5.2.7.2.2.1.6.2.8m-2.1-2.2c.7 1 1.2 2 1.3 3.2m-1.4-1.8c0 .7.7 1.4.9 2l.3 1m-1.9-1.9c.1.5.2.9.5 1.2l.2.5c.2.3.1.7.2 1m-1.7-1.2l.5 1c.3.5.8 1.2.8 1.7"/><path fill="#1f1a17" d="M397.9 269.6h-.7v-.2l-.1-.1v-.1h-.1v-.2h-.1v-.2h-.1v-.2h-.1v-.2l.5-.2.1.1v.1l.1.1v.1h.1v.2h.1v.2h.1v.2l.1.1v.4zm0 1l-.7-.1v-.9h.7v1z"/><path fill="none" stroke="#1f1a17" stroke-linejoin="round" stroke-width=".6" d="M396 269.1c.3.5.6.8.6 1.3 0 .2.3.4.2.6m-1 .1v1.2c0 .2 0 .3.2.4v.4"/><path fill="none" stroke="#1f1a17" stroke-linejoin="round" stroke-width=".2" d="M324.6 258.7l-.3-3.6 1.8 1.6-1.2-6.5 3.2 3.7s-1.7-8.5-1.2-7.7c.4.9 2.4 4.1 2.4 4.1m-1.3-5.8c.6.9 1 1.3 1.3 2.4.2.7.4 1.6.4 2.4m-.7-6.3c.3.7 1 1.3 1 2 .2.8.3 1.6.6 2.2m-1.3-5.4c.3 1 1.2 2 1.6 2.9.5.8.3.5.3-.4l.1-2.7v0c0 .4 0 .9.2 1.2.3 1.2 0-1 0-1.5 0-2.4.8 2.7.8.4 0-.3 0-3.2.4-1.3.5 1.8.5-1 .5-1.3 0-.5-.1-1 0-1.6.2-.6.8 1.3 1 1.1.4-.4.6-1.4.6-1.9"/><path fill="none" stroke="#1f1a17" stroke-linejoin="round" stroke-width=".8" d="M327.7 259.7c.5.3 1 .9 1.1 1.4.2.4.2.9.2 1.4m-2.6-3.5a75.9 75.9 0 001.8 3.5c0 .3 0 1 .2 1.2m-2.1-3.5c.8 1.2 2 3 2 4.5m-1.7-3l.4 1.2c.4.7.5 1.2.5 2m-1.2-1.9c0 .7.6 1.2.7 2v1.4m-1.3-1.4c.1.7.8 1 1 1.6v1.2m-1.5-2.1l.1 1.8c0 .5 0 .7-.2 1m-.9-1.5v1.3c0 .3.1.7-.3.3l-.5-.7c-.4-.6-.4 1-.4 1.2l-.1.2c-.3-.1-.4-.8-.7-.8-.2 0-.1.4-.2.6-.3 1-.2-.1-.2-.5s-.3-.6-.3-1"/><path fill="none" stroke="#1f1a17" stroke-width=".4" d="M318 281.1l1.2-.4.8-1 .7.3 1-1.5m1-1.5v.4l-.1.2-.1.2-.2.6v.3m1.7-2.6c0 .5 0 .9-.3 1.3 0 0 0 0 0 0l-.3.8m1.3-3.1c-.2 1 .1 2.2-.6 2.7m1.7-4.2c0 .8.1 2-.3 2.7l-.5 1.1m1.3-2.6l.4 1.4.2.4c.2.5.1.1.2-.3.2-.5.1-1.1.1-1.6 0-1.6 0 1.7.5 1.5.4-.2.3-2.8.3-3.4 0-1.1 0-.3.1.2 0 .2.4 2.3.7 1.7.6-.7.4-1.8.4-2.7"/><path fill="none" stroke="#1f1a17" stroke-linejoin="round" stroke-width=".2" d="M291.4 172.5v1.5l.1.6m.7-1.7v1.2l.1 1.5m.7-1.7c-.2.5-.2 1.1 0 1.6l.1 1.3m.9-1.7c-.4 1-.1 2.2 0 3.1m.2-3.7c.2.6.2 2.2.2 2.9l.1 2"/><path fill="#1f1a17" d="M294.6 179.1v-1l.1-.1v-.7l.1-.1v-.4h.3v.4l-.1.1v.8h-.1v.9l-.1.1v.7l-.1.3h-.1v-1z"/><path fill="none" stroke="#1f1a17" stroke-linejoin="round" stroke-width=".2" d="M295.6 177.7a8 8 0 00-.2 4m.6-3.7c-.5 1.8-.2 4.5 0 5"/><path fill="#1f1a17" d="M296.4 182.2v-.2l-.1-.3v-.6l-.1-.2v-.9l-.1-.2v-1.4l.1-.2h.2v.8l-.1.2v1.6l.1.3v.4l.1.2v.6l.1.2v.2l.1.2v.4l.1.1v.3l.1.1v.1h-.2v-.5l-.1-.1v-.4l-.1-.1v-.4z"/><path fill="none" stroke="#1f1a17" stroke-linejoin="round" stroke-width=".2" d="M297.1 179.6c-.1.4-.2 1-.1 1.4l.6 2.9m.2-3.9c0 1 .3 2.8.8 3.7m.6-2.9c-.1.5-.2 3.1.3 3.4m1.1-.8c-.4 1 0 2.2.3 3.1m1-1.6c-.2.6.3 3.9.7 4.5m.1-3.4c0 1 .5 1.9.5 2.8 0 .6.4 1.2.5 1.7m.4-3.6c-.5 1.2.2 3.8.7 4.8m.9-2v1c.2.4.2.8.3 1.3.1.3.2 1.4.4 1.6m.2-.9c.2.8.3 1.6.8 2.2l1 1.8m1.9-.2c-.3 1 0-.3 0 .4l.2.8.3 1c.1.3.5.6.6 1m6.3-24.7c0 .9-1 1.7-1.2 2.6a10 10 0 00-.3 2.5m.6-4.5c-.2.6-1.2 1.8-1.4 2.4v1.7"/><path fill="#1f1a17" d="M316 176.3l-.2-.2v-.1h.1v-.1h.1v-.1l.1-.1v-.1h.1v-.1h.1v-.1h.1v-.1h.2v.1l-.1.1v.1h-.1v.1h-.1v.2h-.1v.1h-.1v.1h-.1v.1zm-.2-.2l.1.2h-.1v-.2zm-.9 2.8h-.2v-.9l.1-.1v-.3l.1-.2v-.1l.1-.1v-.2h.1v-.1h.1v-.2h.1v-.1h.1v-.2h.2v-.1l.1-.1h.2v.1l-.1.1-.2.2v.1h-.1v.2h-.1v.1h-.1v.2h-.1v.2l-.1.1v.4h-.1v1.1z"/><path fill="none" stroke="#1f1a17" stroke-linejoin="round" stroke-width=".2" d="M315.5 175c0 .5-.5 1.2-.8 1.5l-.3.5-.2.7m0-2.7a5 5 0 00-.6 1.5m-.3-1.5c-.4 0-.7.7-.8 1m-.4-1.3l-1 1m-.1-.9c-.3-.1-1 .5-1 .8"/><circle cx="308.6" cy="182.8" r="1" fill="#1f1a17" fill-rule="evenodd" stroke="#1f1a17" stroke-width=".1" transform="rotate(-7.8)"/><path fill="#fff" fill-rule="evenodd" stroke="#1f1a17" stroke-width=".8" d="M328.3 138.5c0 .5.3 1 .7 1.3.4.3.9.5 1.2.5.7 0 1.6-.8 1.3-2.2-1.6-.3-1.7 0-3.2.4z"/><path fill="#1f1a17" fill-rule="evenodd" stroke="#1f1a17" stroke-width=".2" d="M329 138.4c-.1.1 0 .8.2 1 .3.6 1.9.6 1.9-.4 0-.2 0-1-.3-1h-1l-.9.4z"/><path fill="#fff" fill-rule="evenodd" stroke="#1f1a17" stroke-width=".2" d="M330 139.5c.3-.1.4-.3.5-.5 0 0 0 0 0 0l.1.4c0 .2-.2.2-.3.2l-.2-.1z"/><path fill="none" stroke="#1f1a17" stroke-linejoin="round" stroke-width=".4" d="M307.8 151.3c4 0 6.1-2.3 10.2-2.3 2 0 3.8.2 5.5.5 1 .2 2 .2 3 .7 1.5.9 1.3 2.6 0 3-.8.1-2.2.1-2.9-.1-2.6-.8-7.4-2.7-10-1.5-1 .5-2.3.8-3.7.9-.6 0-1 .1-1.6-.2-.4-.1-1.1-.8-.5-1z"/><path fill="#a92211" fill-rule="evenodd" d="M307.8 151.3c4 0 6.1-2.3 10.2-2.3 2 0 3.8.2 5.5.5 1 .2 2 .2 3 .7 1.5.9 1.3 2.6 0 3-.8.1-2.2.1-2.9-.1-2.6-.8-7.4-2.7-10-1.5-1 .5-2.3.8-3.7.9-.6 0-1 .1-1.6-.2-.4-.1-1.1-.8-.5-1z"/><path fill="#fff" fill-rule="evenodd" stroke="#1f1a17" stroke-width=".6" d="M320.2 147.6l-.2 1.2c0 .5 0 1-.2 1.5 0 0-.2 1-.4.8a6.5 6.5 0 01-1.3-3.3l2.1-.2z"/><path fill="#1f1a17" fill-rule="evenodd" stroke="#1f1a17" stroke-width=".2" d="M302 282.8l.7-.1 1.6-.7 2.8-.5.7-.3.7-.2.8-.2-.2.3-.8.4.5.3-.4.2-3.3.3-2.8 1.5-.4-1h.1zm1.4 2.8l1-1.1 1-.3 1.6.3-1.6.4-1 .5-.6.4-.4-.2z"/><path fill="none" stroke="#1f1a17" stroke-width="1.2" d="M300.5 281.1c.3-.1.7-.4 1-.4l.7-.2 1-.3.8-.1"/><path fill="#d1a345" fill-rule="evenodd" stroke="#1f1a17" stroke-width=".2" d="M386.5 287.2l.7-.3-.8-.7h-1.6l-1.1 1-.5 1.2-.2.8v.5l1-.7 1.1-1z"/><path fill="none" stroke="#1f1a17" stroke-width=".2" d="M324.1 138.2l2.5-.4c1.5-.5 3-1.7 4.4-2.3h0-.7l-1 .6-1.4 1-1.3.7"/><path fill="#1f1a17" fill-rule="evenodd" stroke="#1f1a17" stroke-width=".2" d="M327.6 137.5l-.9.3v-.1l1.5-.9.5-.3.6-.4.5-.4.3-.3 1-.1v.3l-1 .5-1 .5-.8.5zm-13.3 3.1c-.8.2-3.4.5-3.1 1.8.1.5.4.9.8 1.3.2.3 1.2 2.1 1.8 1.6.7-.5.6-.4.8-1.1 0-.5-.2-.8-.5-1.1-.2-.3 1-.7 1-1 .3-.9-.7-1.1-.8-1.5z"/><path fill="#fff" fill-rule="evenodd" d="M313.2 140.6c-.2 0-.3 0-.4.2l-.4.2c-.6.3 0 .9.5.4l.6-.5c.2-.3 0-.3-.3-.3z"/><path fill="none" stroke="#1f1a17" stroke-width="1.7" d="M322.8 170.2c-1 1.8-3.8 5.5-4.3 7.5.8-.7 3.5-1.9 4-2.3"/><path fill="#405a9f" d="M282.7 108.4l-1.8.3-2.4 24-17 .9v3l21.2 2.9 21.1-2.9v-3l-17-1-2.5-23.8z"/><path fill="#405a9f" d="M278 135.3h9.3v148.1H278z"/><path fill="#d1a345" stroke="#405a9f" stroke-width="1.9" d="M282.6 105.6l3.5 3.6-3.5 3.5-3.6-3.5zm-22.7 26l3.5 3.5-3.5 3.6-3.6-3.6zm45.5 0l-3.5 3.5 3.5 3.6 3.5-3.6z"/><path fill="#d4cac6" d="M280.9 135.3h3.5v45.8h-3.5z"/><path fill="#d1a345" stroke="#103e6f" stroke-width=".6" d="M272.3 131.3h20.6v9.1h-20.6zm10.4 139.6a7.8 7.8 0 00-2.3 3l1.2 2.8c-.6 0-2.2 0-3.6.3v6.4c0 1 1.3 3.7 4.7 3.7 3.3 0 4.6-2.6 4.6-3.7V277c-1.5-.3-3-.2-3.6-.3l1.1-2.7c-.3-1-.8-2-2.1-3.1zm0-29.6c-2.6 0-3.7.2-4.7.7-.8.8-.8 3 0 4 1.5.2 2.5.4 4.7.4 2.1 0 3-.2 4.6-.4.8-1 .8-3.2 0-4-1.1-.5-2-.7-4.6-.7zm-.1-44.3c-2.6 0-3.6.3-4.7.7-.8.8-.8 3.1 0 4.1 1.5.2 2.6.4 4.7.4 2.2 0 3.1-.2 4.6-.4.8-1 .8-3.3 0-4-1-.5-2-.8-4.6-.8z"/><path fill="#405a9f" stroke="#d1a345" stroke-width="1.9" d="M379.8 245.6c8.6-18.5 6-47.8 7.4-72 0 0-7.4-1.5-26.5-1.5-19.2 0-26.6 1.5-26.6 1.5 1.5 24.2-1.2 53.5 7.4 72 4.1 8.8 9 15 19.2 20 10.1-5 15-11.2 19-20z"/><path fill="#d1a345" fill-rule="evenodd" d="M357 206l4-4.2 4.3 4.1-4.2 4.2-4.2-4.2m4.2 7l-7-7 7-7 7 7-7 7m18.1 1.4l-4.2 4.2-7-7 1.5-1.4 5.5 5.6 1.4-1.4-7-7-7 7 7 7 1.5-1.4-5.6-5.6 1.4-1.4 7 7-4.2 4.2-8.4-8.4-8.4 8.4-4.2-4.2 7-7 1.4 1.4-5.6 5.6 1.4 1.4 7-7-7-7-7 7 1.4 1.4 5.6-5.6 1.4 1.4-7 7-4.1-4.2 8.3-8.4-8.3-8.3 4.1-4.2 7 7-1.4 1.4-5.6-5.6-1.4 1.4 7 7 7-7-7-7-1.4 1.4 5.6 5.6-1.4 1.4-7-7 4.2-4.2 8.4 8.4 8.4-8.4 4.2 4.2-7 7-1.4-1.4 5.6-5.6-1.4-1.4-7 7 7 7 7-7-1.5-1.4-5.5 5.6-1.4-1.4 7-7 4.1 4.2-8.3 8.3 8.3 8.4"/><path fill="#1f1a17" fill-rule="evenodd" d="M278 155c-2.7 5-3 8.5-.9 14.1.3.7.6 1.2 1.4 1.2.1 0 1.1 2.2 1.6 2.5.2.1 2.3 1.8 2.3.8s-1.2-2.6-1.8-3.5c0-.1 1 .8 2.2 1.2 2 .6-1.4-4.3-1.8-4.9-.1-.1 1.3.5 2 .6 2.5.6.3-1.7-.2-2.5-.6-.9-2.7-1.9-.9-1.9 3.1 0 1-1.1 0-2.6-1.2-1.7-2.4-3.6-4-5z"/><path fill="#a92211" fill-rule="evenodd" d="M277.3 157.1c0 3-1.6 5.7-.5 8.6.1.4 1.6 4.2 2 2.5.5-1.6-.5-2.3-.3-3.7.4-1.8-.6-3.6.2-5.5.3-1-.2-2.6-1.4-1.9z"/><path fill="#bb9858" fill-rule="evenodd" d="M279.4 158.4c-1 0-.5 1.5-.3 2 .6 1.4 1.8 1.9 3.3 1.9.5 0 0-.2-.2-.5s-.7-.6-1-.8l-1.1-1.3-.7-1.3zm.8 4.8c-.3-.2-1.5-.2-1 .9a4.6 4.6 0 003.6 2.5c.6 0-.8-1.3-1-1.6l-1.6-1.8zm.3 3.7c-.4-.4-.6-1-1-.3-1.2 1.5 1.7 3.5 2.6 4.3.4.3.4.3.3-.2 0-.6-.6-1.8-1-2.3-.4-.5-.5-1.1-.9-1.5zm-.4 3.5c-.1-.3-.4-1.3-.7-1.4-1 0-.8 1.1-.4 1.7l1.3 1.9c.4.4 2 1.9 1.4.4l-.7-1.4-.9-1.2z"/><path fill="#1f1a17" fill-rule="evenodd" d="M288 156.3c-.5-.2-1-.6-1.6-.4-.8.2-2.2 2-2.7 2.8-.2.2-1.3 1.3-1.1 1.3.7 0 1.2.1 1.9-.3.6-.4 1-.9 1.7-.9.2 0 1.8.3 1.8 0v-2.5z"/><path fill="#bb9858" fill-rule="evenodd" d="M287.5 156.5c-.4 0-.9-.3-1.4-.1-.6.3-1.6 1.6-2 2.3-.1.1-1 1-.8 1 .6-.1 1 0 1.5-.5.5-.3.8-.7 1.4-.8.3 0 1.4 0 1.4-.3-.1-.5 0-1 0-1.6z"/></svg>