<svg xmlns="http://www.w3.org/2000/svg" xmlns:xlink="http://www.w3.org/1999/xlink" viewBox="0 0 600 400"><path fill="green" d="M0 0h600v400H0z"/><path fill="#0038a8" d="M0 0h600v352H0z"/><path fill="#fff" d="M0 0h600v272H0z"/><g transform="rotate(-45 300.2 142.7) scale(9.32448)"><path id="a" fill="#0038a8" d="M0 3V2h1v1h1V0h1v1h1v1H3v1h1V2h1v1h1v1H3v1h1v1h1V5h1v1H5v2z"/><use width="100%" height="100%" x="5" y="5" xlink:href="#a"/><use width="100%" height="100%" x="10" y="10" xlink:href="#a"/><use width="100%" height="100%" x="15" y="15" xlink:href="#a"/><use width="100%" height="100%" x="20" y="20" xlink:href="#a"/><use width="100%" height="100%" x="25" y="25" xlink:href="#a"/><use width="100%" height="100%" x="30" y="30" xlink:href="#a"/><use width="100%" height="100%" x="35" y="35" xlink:href="#a"/><use width="100%" height="100%" x="40" y="40" xlink:href="#a"/></g></svg>