<svg xmlns="http://www.w3.org/2000/svg" viewBox="0 0 600 400"><path fill="#e00000" d="M0 0h600v400H0z"/><path fill="#fff" d="M200 0h200v400H200z"/><path fill="#00f" d="M266.7 0L264 8l-2.7 8v8c0 13.3 10.7 30.7 10.7 44s-10.7 30.7-10.7 44 10.7 30.7 10.7 44-10.7 30.7-10.7 44 10.7 30.7 10.7 44-10.7 30.7-10.7 44 10.7 30.7 10.7 44-10.7 30.7-10.7 44a99 99 0 005.4 24h66.6a99 99 0 01-5.3-24c0-13.3 10.7-30.7 10.7-44S328 301.3 328 288s10.7-30.7 10.7-44-10.7-30.7-10.7-44 10.7-30.7 10.7-44-10.7-30.7-10.7-44 10.7-30.7 10.7-44S328 37.3 328 24c0-8 2.7-16 5.3-24z"/></svg>