<svg xmlns="http://www.w3.org/2000/svg" id="svg146" fill-rule="evenodd" clip-rule="evenodd" image-rendering="optimizeQuality" shape-rendering="geometricPrecision" text-rendering="geometricPrecision" version="1.1" viewBox="0 0 600 400"><defs id="defs4"><style id="style2" type="text/css">.fil3{fill:#1f1a17}.fil5{fill:#c0a062}.fil2{fill:#da251d}.fil0{fill:#fff}.fil11{fill:#0071b4}.fil10{fill:#92c6c7}.fil4{fill:#e1dfe2}.fil9{fill:#1f1a17;fill-rule:nonzero}.fil7,.fil8{fill:#92c6c7}</style></defs><path id="rect6" stroke-width=".3" d="M0 0h600v400H0z" class="fil0"/><path id="rect8" stroke-width=".3" d="M0 0h250v150H0z" class="fil2"/><path id="rect10" stroke-width=".3" d="M350 250h250v150H350z" class="fil2"/><path id="rect12" stroke-width=".3" d="M350 0h250v150H350z" class="fil11"/><path id="rect14" stroke-width=".3" d="M0 250h250v150H0z" class="fil11"/><path id="path16" fill="#684833" stroke-width=".3" d="M285.7 249.6c-2 0-4.2.2-6.3.5-3.6.3-7.2.9-10.8.9-2-.1-3.9-.5-5.6-1.3-5.4-2.4-7.5-7.6-7.5-13.2v-85.4h88.2v85.2c0 3-.5 6-2 8.7a11.4 11.4 0 01-10.8 6c-5.8-.6-11.6-1.4-17.5-1.4a14 14 0 00-6.4 1.4c-2.5 1.2-5.7 3.5-6.5 6.2l-.5 1.4-.4-1.4a9.3 9.3 0 00-3.7-4.4 18.8 18.8 0 00-10.2-3.2z"/><path id="path18" stroke-width=".3" d="M255.9 151.6h87.4v84.7c0 9.1-5.6 14.6-12.4 14.2-5.8-.5-11.6-1.4-17.5-1.4-5.2-.3-12 3.8-13.4 8-1.3-4.2-8-7.9-14.3-8-5.7.2-11.7 1.4-17.1 1.4-6.4-.3-12.6-4.2-12.7-14v-85z" class="fil2"/><path id="path20" stroke-width=".3" d="M310.8 201.3c.3-.1.6-.1.8.1.1.3 0 .6-.2.8v.1l-.2.1c.3 0 .8-.3 1-.4.5-.2 1.2-.6 1.9-.6h.3l.2.4c0 .2 0 .4-.2.6 1-.2 2.5-.4 3.3 0l.2.2v.6h2.1v.1h.6c-.1.4-.1.8-.5 1 .9.1 1.7.1 2.1.9.7 1.7 2.1 3 3.4 4v.1c1 1.4 1.3 4 1.7 5.5l.1.7h-.6a1.6 1.6 0 01-1.2-.4c.6.8 1 1.5.4 2.5-.2.4-.4.9-.4 1.4l.2 1.3c0 .4 0 .7-.2 1 0 .2-.2.4-.3.4-.3.1-.5 0-.7-.1l.4 1.3c.4 1 .6 2 .5 3l-.1.7-.7-.2.6 1.5c.5 1 1.5 2.5 1.2 3.8v.1l-.1.1c-1.5 1.4-3.4 2.5-4.9 3.8-1 .7-5.2 1-6-.3-.3-.4 0-1.2.7-1.9a6 6 0 011-.7c.4-.3 1.5-.8 1.7-1.3l.1-.5c0-.6-.5-1.7-1-2.3l-.4 2.1-.7-.5c-.9-.7-1.6-3.1-1.9-4.3-.4 1.4-1 .2-1.2-.4l-.4-.9-.3-.5v.1c0 .5 0 1.3-.5 1.3v1l-.2.7.4 1.2c.4 1.9.5 4-1.3 5.2-.8.5-2.1 1-3 1.2-.8.3-1.7.5-2.5.6-.8 0-3.9 0-4-1.5-.1-1.5 2-2.1 3-2.6.6-.3 1.8-.9 2-1.4a.6.6 0 000-.4l-.2-.4-.2-.8v-.7l-.3.1c-.3.1-.5 0-.7-.3l-.1-.4-.4-1-.6-1.5c0-.3-.1-.5 0-.8h-.1c-.5-.2-.6-.6-.7-1-.1.3-.3.7-.7.7h-.3l-.7-.7c-.2.4-.4.7-.8.7h-1c-.2 0-.6.2-1 0-.2 0-.4-.8-.6-.6l-.4.5v.3l-.1.8-.4-.2v1.9l-.5-.5v2.6l-.8.8v.8c0 .7 0 1.7-.7 2.1l-.4.1v.3h-.1v.2l-.1.7c-.1.8-.4 1.9-1.3 1.8-2.4 0-4.6.3-6.8 1.1a.5.5 0 01-.8-.4c-.3.1-.6.1-.8-.1-.2-.3-.2-.6 0-.8l-.5-.3.2-.5s0-.2.2-.3c.5-.7 1.5-1 2.3-1.2.9-.2 1.8-.5 1.8-1.5v-.6h.2l-.1-.8h-.2l-.2-.2c-.4-.7-.1-1.6-.3-1.9h-.4v-.4l-.2-.7v-1l-.1-.4c-.4.2-.8 0-1-.2l-.1-.1v-.2a9.5 9.5 0 00-.7-1.8l-.2-.3a3.2 3.2 0 01-1.1 2.1c-.3.3-.7.6-1 .2l-.1-.1c-.7.4-3 1-2-.3l-1.4 1.2a.6.6 0 01-.8-.2l-.1.2c-.3 1.5-1.8 1.8-1.9 3v.2l-.5.8c-.2.2-.6.4-.9.4-1.7.3-2 .2-2.8-1.3-.2-.5-.2-1-.1-1.5v-.2l.2-.1.1-.7.4-1 1-1.8c0-.3.3-.5.4-.7v-.5l.2-.2.6-1c.5-1 .9-1.9 2-2.4.3-.3.9-.6 1.4-.8l1.3-.7c.5-.4 1.1-.6 1.5-1l.4-.3-.2-.7c-.2-.4-.1-.8 0-1.1v-.8c-.4.2-.8.5-1.2.2-.4-.2-.4-.6-.6-1l-.2.2c-.2.2-.6.3-.9.1a.6.6 0 01-.2-.3 1 1 0 01-.6.6h-.3l-.3-.2c-.2-.2-.2-.5-.3-.7a1 1 0 01-.7.3h-.4l-.1-.3-.1-.2c-.4-.5-1.5-.7-2-.8l-1.8-.3a3.1 3.1 0 01-2.2-1.4l-.3-.5c-.4-.8-.3-1.8-.4-2l-.4-.2v-1.5l.3-.1c1.1-.5 2.7-1 3.6-2l.2-.2h.1l.6-.8c.2-.4.6-1.2.9-1.4.6-.5 1.3-1 2-1.3v-.2c-.5-.5-.4-1.4 0-2 .3-.5 1-1.2 1.6-1.2l1.1.5c.3.1.7.2.7.7.8-.5 1.7-.6 2.5 0s.7 2 .4 2.9c0-.2.2-.3.4-.4.6-.5 1.2-.4 1.9-.6l.6-.2v.9h.6c.4 0 1-.1 1.3.3.2.2.1.5 0 .7a10.5 10.5 0 002.2-1c1.1-1 2.4-1.1 3.8-1 .9 0 2 .3 2.8.5l4 1 4.4 1.2c.4 0 1.9.5 2.3.4a4 4 0 011.2-.3c.7 0 1-.1 1.6-.3zm-27.4-.7l-.4.3h.2zm.4.4l.1.2.1-.1h-.2zm1 1.1z" class="fil3"/><path id="path22" stroke-width=".3" d="M281.2 199.5c0 .4.3.9.7.9.3 0 .7-.6.8-1v-.9c-.2 0-.7.3-.7 0-.1-.6-.4-.4-.6-.2-.4.5-.2.9-.2 1.2z" class="fil3"/><path id="path24" stroke-width=".3" d="M307.2 225c.1-.6 0-1.4.5-1.5.8 0 .5 1.7 1.3 1.6.6 0 .4-1.3.8-1.2 2 .5.6 1.6 2.2 1.9.4 0-.1 1.4 0 1.5l.2 1.3c.5 1.7.6 3.6-1 4.6-1.4 1-7.2 2.7-6.4 1.3.8-1.3-1-.1-1.4-.2.8-1.6-.8.3-1-.4 0-1 1.9-1.5 3-2 1.3-.7 2.3-1.3 2.1-2.3 0-.4-.3-.6-.4-1.2 0-1 0-2.2-.9-1l-1.2-3c-.3-1 .4-1.7 1-.7.6 1.2 1.2 1.4 1.2 1.4zM280 197.3c-.2.5-.6.8-.6 1.5-2.6 1.5-1.9-1.9-.4-1.9.8.2 2 .4 1 .4zm28.3 5.3c1.2-.6 1.1-.1 2.8-.7.4-.2-1 .6-.7 1.2.9.4 2.7-1 3.8-1 0 0-.8.8-.4 1.1 1-.2 3-.6 3.7-.2 0 .4-.7.4-.5.9l2.7-.1c0 .2.2.2.3.2-.2.3-1 .3-1 .7.7.6 2.3 0 2.9.9.6 1.6 2 3 3.4 4.2.9 1.1 1.2 3.8 1.6 5.3-1.2 0-1.5-1.6-2.3-2.4-1.4 2 2 3 1 4.7-1 1.8.2 2.6-.3 3.9-.2.4-1-1.2-1.3-.2.3 1.8 1.3 2.9 1 4.9-.4-.2-.4-1-1-.7-.2 2 2.5 4.3 2 6.2l-4.8 4c-1.1 0-2.4 0-3.5.4 0-1.3-.1-.4-1-.4.4-.2.4-.6.5-.8-.2-.1-1 .1-1.1.4.3-1.7 2.9-2.1 3.4-3.2l.2-1c-.2-.7-1-2.7-2-3l-.4 2c-.8-.6-1.5-2.3-1.7-3.4.2-1-1-1.8-1-.4-.3-.5-1.9-5-1.9-1.7s-1.2-4.6-2-4.4c-.7.8.3 2.5 0 3.5-.3.6-.6-.7-1.2-1-.4 2.8-.4.3-1.5.6-.3.1-.6.3-1 .2-.6-.1-1-1.5-1.4-.9-1.7 2.7-1-1.1-2.2-.4 0 0-.2 1.1-.3 1-.5-.2-.4-.3-.9-.6-.7-.6-.6.7-.9.7-1.5-.2-1.8.7-2-1.5.4.2 0-3.5-1.3-3 0 .4.5 2.2.1 2.2l-.2 2.2c-.3 0-.2.6-.2.8a8 8 0 01-.6-2.2c-.4-.4-.4-1.2-.6-1.1-.5 1.8.8 2.9.8 4.6-1.3-1.1-.4.1-.5.6v2.5l-.7.7c-.5.8.1 2.3-.6 2.7-.4.3-.6-.6-.6.4-.3 0 0 2.7-1 2.7-2.6-.1-4.8.3-7 1.1-.2 0 1-.5.3-1-1 .8-2 1-.6-.3-.3-.3-.6 0-1 0 .7-1.6 4.4-.8 4.4-3.3.3 0 .4-1.9-.3-2-.5-.5.2-2-.8-2 0-.5 0-3.4-.7-3.1-.4.1 0 1-.6.5-.3-1.2-1.2-2.1-1.2-3.5-.1-.2-.5-.1-.5.2-.2-.4 0-3-.6-3.1-.7 1.2-.3-.2-1-.7.2-.5 0-1 0-1.6-.7 0 0-1.7-1-.9-.3-.8.5-2.1-.5-2.4-1.4 1.2-.8 0-1.6-1-1.8 1.7-.4 0-1.6-.2-.4.3-.1 1-.7 1.2-.2-.3-.2-1-.4-1.2-.7-.2-.5.6-1 .6-.6-1.9-5.5-1-5.2-2.3 1 0 2-.3 2.6-1.1-.4-.6-1 0-1.4 0-.7.6-1.7-.2-2.5 0-.6-.6.1-1.8-.6-2.1 0-.3-.2-.5-.1-.8 1.3-.6 2.8-1 3.8-2 .4 0 1.4-2.2 1.7-2.5 1-.6 2.3-1.7 3.4-1.5.1 1.3 1 .6 1.6.5 0-.6-1-1-.4-1.8.8-.9 1.7-1.3 2.7-.6.6.5.4 1.9 0 2.5-1.1.8-1.2 1.6.4 1.1.2.4-.4 1.2.8 1 0 .1-.4.6-.2.7.7.3.3 0 .3.7.6.5.8-.3 1.2-.5-1.2-.5.7-1.3 0-1.4l-1-.4c.5-.7.2-1-.5-1 .4-.7 1.4-.6 2.1-.8 0 .2-.5.3-.5.7 2 .3 3.4-.7 1.8 1.2.8.3 3.1-.9 3.7-1.2.3-.3.7-.7 1.4-.8v1.7c.1.7.8 1.4 2 1.4h13.1v-.3h.6zm-32 2c.3.9.5.7-1.2.3-.3-.1.6-2.3 1.3-.3zm3.1 6.2c.4 0 1 0 1.2.5l.2-.1c0-1 1.4.3 1.4-1 0-.5.4-.4.8-.4.5 0 .7-.2.9-.6-.6.1-.7.2-1.4 0-.3 0-.8-.2-.8.4 0 .2.1.7 0 .8 0 0-.4 0-.6-.4 0-.2-.4-.5-.5-.2-.1.4-.1.7-.8.6l-.5-.3c-.6-.3-.8.5.1.7zm5.2 8.2c-.2.6-.8 1-.4 1.7 1.2-.3 1-.6.9.4 0 0-.5 1.2-.2 1.2 2 0-.5 2.4-.5 2.2l-.1-.7c-.6.7-1.4 1-2.2 1.1 0 0 .5-1 .2-.9l-.5.1-1.5 1.2c-.3.2.6-2-1.1.1-.2 1.5-1.8 1.8-2 3.2-.1.4-.1.9-.7.9.2-.4-.3-.9-.4-1.1-.4 0-.3.8-.5 1.1-.3-.2 0-1.2-.7-1-.4.3 0 .7-.4.8 0-.4-.7-1-.5-2 .3-.1.2-.6.3-.9.3-1 1-1.7 1.3-2.7.2-.4.7-.7.6-1.3.8-1 1-2.6 2.4-3.2.8-.7 2.1-1 2.8-1.6l2.2-1.3c.8.3.2 1.3.3 1.9 0 .3-.4 1 .7.8z" class="fil4"/><path id="path26" stroke-width=".3" d="M306.3 185.5h1.3v17.2h-13c-1.3 0-2-.7-2.1-1.4V184c0-.8.8-1.6 2.2-1.6h11.8l-.3.4c-.4.7-.4 1.8 0 2.5l.1.2z" class="fil3"/><path id="path28" stroke-width=".3" d="M295.9 185.7h11.4v16.7h-11.4zm6.5 5h1v1h-1v.9h2v1h-2v2l1.1.7v1.1l-1.1-.6v1.7h-1v-2.3l-1.2-.7v-1l1.2.6v-1.5h-2v-1h2v-1h-1v-1h1v-.9h1zm-.8-.7h.5v1h1v.4h-1v1.4h2v.5h-2v2.5l1.2.7v.5l-1.2-.7v2h-.5V196l-1.1-.7v-.4l1.1.6v-2.2h-2v-.5h2v-1.4h-1v-.5h1zm-4.3-2.9h8.6V201h-8.6zm.3.3h1.2l-1.2 1.3zm1.6 0h4.8l1.6 1.6v10l-1.6 1.7h-4.8l-1.6-1.6v-10l1.6-1.7zm5.1 0h1.3v1.3zm1.3 12v1.3h-1.3zm-6.8 1.3h-1.2v-1.2z" class="fil5"/><path id="path30" stroke-width=".3" d="M294.7 182.6H306l-.3.9h-9.3v.2h9.2v.9h-8.5v.2h8.6l.3.7h-11.3c-2.5 0-2.5-2.9 0-2.9z" class="fil0"/><path id="path32" stroke-width=".3" d="M298.6 176.4l-1.8-4.7.6.1c1.7.5 3.4.5 5 0l.6-.1-1.7 4.7 4.4-1.8-.2.6a11 11 0 000 5.1l.2.6-4.2-1.6 1.6 3.8-.6-.1a11 11 0 00-5.1 0l-.6.1 1.5-3.8-4.1 1.6.1-.6c.4-1.7.4-3.4 0-5l-.1-.7 4.4 1.8z" class="fil3"/><path id="path34" stroke-width=".3" d="M294.6 175.2l4.5 1.7-1.8-4.8c1.7.5 3.5.5 5.2 0l-1.8 4.8 4.5-1.7c-.4 1.7-.4 3.4 0 5.2l-4.2-1.7 1.5 4c-1.7-.4-3.5-.4-5.2 0l1.6-4-4.3 1.7c.5-1.8.5-3.5 0-5.2z" class="fil4"/><path id="path36" stroke-width=".3" d="M292.7 184.9v.6c.1.4.4.6.6.8l1.2.3h1.1v-.9h-.9c-1 0-1.6-.3-2-.8zm2.1 11h.2v3.6h-.2zm-.8-.2h.2v3.5h-.2zm-.8-.3h.2v3.6h-.2zm1.6-6.4h.2v3.6h-.2zm-.8-.2h.2v3.5h-.2zm-.8-.3h.2v3.6h-.2zm-.5-2.4v.5c.1.4.4.7.6.9l1.2.3h1.1v-1h-1c-.5 0-1 0-1.4-.3-.2 0-.4-.2-.5-.4zm0 1.1v5.2l.6.8 1.2.3h1.1V188h-1c-.5 0-1 0-1.4-.3l-.5-.5zm0 5.7v.6c.1.4.4.7.6.8l1.2.3h1.1v-.9h-1c-.5 0-1 0-1.4-.3l-.5-.5zm0 1.2v4.8c.1.4.4.7.6.8.4.3.8.4 1.2.4h1.1v-5.2h-1c-.5 0-1-.1-1.4-.4-.2 0-.4-.2-.5-.4zm0 5.4v.6c.1.4.4.6.6.8l1.2.3h1.1v-.9h-1c-.5 0-1-.1-1.4-.4-.2 0-.4-.2-.5-.4zm0 1.1v.6c.2.9 1 1.2 1.9 1.2h1v-1h-1c-.5 0-1 0-1.4-.3l-.5-.5z" class="fil5"/><path id="path38" stroke-width=".3" d="M324.2 129.9a9.5 9.5 0 011.6.4c1.2.7 1.7 1.9 0 2.3-.8.2-1.5.5-2.2 1-1.2.9-2 2.2-2.7 3.5-.8 1.4-1.3 3-1.9 4.4-.6 2-1.2 4-2 5.8-.5 1-1.1 1.7-2 2.2-1.6.8-3.7 1-5.3 1.1-6.7.3-13.4.3-20.1 0-1.7 0-3.8-.3-5.3-1-1-.6-1.6-1.3-2-2.3-.8-1.9-1.4-3.9-2.1-5.8-.5-1.5-1.1-3-1.8-4.4-.7-1.3-1.6-2.6-2.8-3.5-.7-.5-1.3-.8-2.2-1-.4-.1-1-.4-1-.9-.1-.8 1-1.4 1.7-1.6l1-.2a18.4 18.4 0 01-2.3-10c.2-3 1.4-6 3.6-8.2 2.3-2.4 5.4-3.6 8.6-3.7 3.2-.2 6.3.6 9.2 2v-.3c0-2.5 1.7-4.6 4-5.2V102h-2l-1.7 2.7H293v-8.1h1.5l1.7 2.6h2v-3l-3.3-2v-1.8h9.5v1.7l-3.4 2.2v3h2l1.8-2.7h1.4v8.1h-1.4L303 102h-2v2.5a5.4 5.4 0 014 5.5c2.9-1.4 6-2.2 9.2-2 3.3.1 6.3 1.3 8.6 3.7a13 13 0 013.6 8.2c.3 3.5-.6 6.9-2.2 10z" class="fil3"/><path id="path40" fill="#7a6842" stroke-width=".3" d="M323.9 129.8c1.6-3 2.5-6.4 2.3-9.9-.3-3-1.4-5.9-3.6-8a12.5 12.5 0 00-8.4-3.7c-3-.1-6.2.7-9 2l-3.4 13 1 .7 3.3-13.2c14.1-6 24 5.9 16.8 19l1 .1zm-26.5-6.5l-3.4-13.1a19.2 19.2 0 00-9-2c-3.2.2-6.2 1.4-8.4 3.7-2.1 2.1-3.3 5-3.5 8-.3 3.5.7 6.9 2.2 10l1-.2c-7.1-13.1 2.7-25 16.8-19l3.4 13.2a2 2 0 011-.6z"/><circle id="ellipse42" cx="291.4" cy="107.1" r="1.9" stroke-width=".3" class="fil3"/><circle id="ellipse44" cx="291.4" cy="107.1" r="1.6" stroke-width=".3" class="fil7"/><circle id="ellipse46" cx="285.7" cy="106.3" r="1.9" stroke-width=".3" class="fil3"/><circle id="ellipse48" cx="285.7" cy="106.3" r="1.6" stroke-width=".3" class="fil7"/><circle id="ellipse50" cx="279.5" cy="107.4" r="1.9" stroke-width=".3" class="fil3"/><circle id="ellipse52" cx="279.5" cy="107.4" r="1.6" stroke-width=".3" class="fil7"/><circle id="ellipse54" cx="274.5" cy="111.1" r="1.9" stroke-width=".3" class="fil3"/><circle id="ellipse56" cx="274.5" cy="111.1" r="1.6" stroke-width=".3" class="fil7"/><circle id="ellipse58" cx="271.7" cy="116.6" r="1.9" stroke-width=".3" class="fil3"/><circle id="ellipse60" cx="271.7" cy="116.6" r="1.6" stroke-width=".3" class="fil7"/><circle id="ellipse62" cx="307.9" cy="107.1" r="1.9" stroke-width=".3" class="fil3"/><circle id="ellipse64" cx="307.9" cy="107.1" r="1.6" stroke-width=".3" class="fil8"/><circle id="ellipse66" cx="313.6" cy="106.3" r="1.9" stroke-width=".3" class="fil3"/><circle id="ellipse68" cx="313.6" cy="106.3" r="1.6" stroke-width=".3" class="fil8"/><circle id="ellipse70" cx="319.7" cy="107.4" r="1.9" stroke-width=".3" class="fil3"/><circle id="ellipse72" cx="319.7" cy="107.4" r="1.6" stroke-width=".3" class="fil8"/><circle id="ellipse74" cx="324.7" cy="111.1" r="1.9" stroke-width=".3" class="fil3"/><circle id="ellipse76" cx="324.7" cy="111.1" r="1.6" stroke-width=".3" class="fil8"/><circle id="ellipse78" cx="327.6" cy="116.6" r="1.9" stroke-width=".3" class="fil3"/><circle id="ellipse80" cx="327.6" cy="116.6" r="1.6" stroke-width=".3" class="fil8"/><path id="path82" stroke-width=".3" d="M296.2 124l-3.3-13a17 17 0 00-9-1.5 11.2 11.2 0 00-9.7 10.5 17.6 17.6 0 002.4 9.7c1.2 0 2.2.4 3.2 1.1 1 .7 1.6 1.6 2.2 2.5 0-2.1.3-4.5 1.1-6.3.6-1.4 1.6-2.7 3.1-3 1.5-.2 3 .8 4 1.8 1.2 1.4 2.1 3.3 2.8 5.2.5-3.3 1.7-5.6 3.2-7z" class="fil2"/><path id="path84" stroke-width=".3" d="M303 124l3.4-13a17 17 0 018.9-1.5c2.5.3 4.7 1.4 6.5 3.2 2 2 3 4.6 3.2 7.3a17.6 17.6 0 01-2.4 9.7c-1.1 0-2.2.4-3.2 1.1-.9.7-1.6 1.6-2.2 2.5 0-2.1-.3-4.5-1-6.3-.6-1.4-1.6-2.7-3.2-3-1.5-.2-2.9.8-3.9 1.8a15.5 15.5 0 00-2.8 5.2c-.6-3.3-1.8-5.6-3.3-7z" class="fil2"/><path id="path86" stroke-width=".3" d="M299.7 104.6a5.1 5.1 0 014.7 7 1.3 1.3 0 00-1.3-1.8 1.4 1.4 0 101.3 1.9 5.1 5.1 0 01-9.5 0 1.4 1.4 0 002.6-.6 1.4 1.4 0 10-2.6.5 5.1 5.1 0 014.6-7 1.4 1.4 0 10.2 0zm0 2.7a2.4 2.4 0 110 4.8 2.4 2.4 0 010-4.8z" class="fil5"/><path id="path88" stroke-width=".3" d="M294.8 112.2l1.1 4.2v-.3a1.4 1.4 0 110 .5l1.8 6.5a5 5 0 013.8 0l1.8-6.5a1.4 1.4 0 01-2.7-.5 1.4 1.4 0 112.7.3l1.1-4.2a5.4 5.4 0 01-9.6 0zm4.8 4.6a2.7 2.7 0 110 5.5 2.7 2.7 0 010-5.5z" class="fil5"/><path id="path90" stroke-width=".3" d="M273.5 132.3c1.2.3 3.2 1 5 4.7 1.7 3 2.8 7.3 4 10.2.7 1.6 2.1 3 7 3.1 6.8.3 13.5.3 20.2 0 5-.1 6.3-1.5 7-3.1 1.3-2.9 2.3-7.2 4-10.2 1.9-3.7 3.8-4.4 5-4.7 1.8-.4.5-1.6-.6-2-5-1.4-7 2-8.1 4.1.2-13-7.5-13.2-10.9-2.3-1.3-12.2-11.7-12.2-13 0-3.4-11-11-10.7-10.8 2.3-1.1-2.2-3.2-5.5-8.2-4-1 .3-2.4 1.5-.6 1.9z" class="fil0"/><path id="path92" stroke-width=".3" d="M299.6 143.1c3.6 0 7.6.4 11 1.4 1.5.5 4.7 1.6 4.7 3.5 0 .6-.2.7-.7 1a12 12 0 01-5 1c-6.6.2-13.3.2-20 0a12 12 0 01-5-1c-.4-.3-.7-.4-.7-1 0-1.9 3.3-3 4.7-3.5 3.4-1 7.4-1.4 11-1.4z" class="fil3"/><path id="path94" stroke-width=".3" d="M297.4 127.8c.4 0 .8.2.8.6h1.3v-1c-1.4-.2-.3-2.3.7-1.3.4.5.2 1.3-.5 1.4v1h1.3c.2-1.4 2.4-.4 1.3.6a.8.8 0 01-1.3-.4h-1l2.9 5-.2.1-3-5v1.4l2.3 4h-.2l-2-3.5v4.1h-.3v-4l-2 3.5-.3-.1 2.3-4v-1.5l-3 5.1-.2-.1 3-5h-1c-.3 1.3-2.4.3-1.4-.7.1-.2.3-.2.5-.2zm2.6-1.5c-.7-.8-1.4 1-.4 1 .5 0 .8-.7.4-1zm2.2 1.9c-.8-.8-1.5.9-.4.9.5 0 .7-.6.4-1zm-4.4 0c-.7-.8-1.4.9-.4.9.5 0 .8-.6.4-1z" class="fil9"/><path id="path96" stroke-width=".3" d="M303.2 135.8c.4 0 .7.3.8.7l1.2.1.1-1c-1.3-.3-.2-2.3.8-1.3.4.5.1 1.3-.6 1.3v1l1.2.1c.3-1.3 2.4-.2 1.3.8-.4.4-1.2.1-1.3-.6h-1l2.6 5.2h-.3l-2.5-5.2-.2 1.5 2 4.1h-.2l-1.8-3.6-.3 4.1h-.2l.3-4.1-2.3 3.4-.2-.1 2.5-3.8.1-1.5-3.3 4.9-.2-.2 3.3-4.8h-1c-.3 1.3-2.4.2-1.3-.8l.5-.2zm2.7-1.3c-.7-.8-1.5.8-.5 1 .5 0 .8-.6.5-1zm2 2c-.7-.8-1.5.9-.4 1 .5 0 .8-.6.4-1zm-4.3-.3c-.7-.8-1.5.9-.5 1 .5 0 .8-.6.5-1z" class="fil9"/><path id="path98" stroke-width=".3" d="M296 135.8c-.4 0-.7.3-.7.7l-1.3.1v-1c1.2-.3.2-2.3-.8-1.3-.5.5-.2 1.3.5 1.3v1l-1.2.1c-.3-1.3-2.4-.2-1.3.8.4.4 1.3.1 1.3-.6h1L291 142h.2l2.6-5.2v1.5l-2 4.1h.3l1.8-3.6.3 4.1h.2l-.2-4.1 2.3 3.4.2-.1-2.6-3.8V137l3.2 4.9.2-.2-3.2-4.8h1c.3 1.3 2.3.2 1.3-.8a.8.8 0 00-.6-.2zm-2.7-1.3c.7-.8 1.6.8.5 1a.6.6 0 01-.5-1zm-2 2c.7-.8 1.5.9.5 1a.6.6 0 01-.5-1zm4.3-.3c.7-.8 1.6.9.5 1a.6.6 0 01-.5-1z" class="fil9"/><path id="path100" stroke-width=".3" d="M313.1 137.1c.4.1.6.5.5.9l1.3.4.3-1c-1.1-.5.1-2.2 1-1 .3.4 0 1.3-.8 1.2l-.3.9 1.2.4c.4-.8 1.7-.3 1.4.6-.3 1-1.7.6-1.5-.4l-1-.3 1.2 5.7h-.3l-1.1-5.7-.5 1.4.9 4.5h-.3l-.8-4-1.3 3.8h-.2l1.3-4-3.1 2.8-.2-.2 3.5-3 .5-1.4-4.5 3.8-.2-.1 4.4-3.8-1-.4c-.6 1.2-2.3-.4-1-1 .2-.1.4-.2.6 0zm3-.5c-.5-1-1.7.4-.7.7.4.2.8-.3.6-.7zm1.4 2.4c-.5-1-1.7.4-.7.8.5.2.9-.3.7-.8zm-4.1-1.4c-.5-1-1.7.4-.7.8.5.1.9-.3.7-.8z" class="fil9"/><path id="path102" stroke-width=".3" d="M286.1 137.1c-.4.1-.6.5-.5.9l-1.2.4-.3-1c1-.5-.2-2.2-1.1-1-.3.4 0 1.3.8 1.2l.4.9-1.2.4c-.5-.8-1.8-.3-1.5.6.3 1 1.7.6 1.5-.4l1-.3-1.1 5.7h.2l1.2-5.7.4 1.4-.8 4.5h.2l.8-4 1.3 3.8h.3l-1.4-4 3.1 2.8.2-.2-3.4-3-.5-1.4 4.4 3.8.2-.1-4.4-3.8 1-.4c.6 1.2 2.3-.4 1-1a.8.8 0 00-.6 0zm-2.9-.5c.5-1 1.7.4.7.7a.6.6 0 01-.7-.7zm-1.4 2.4c.4-1 1.6.4.6.8a.6.6 0 01-.6-.8zm4-1.4c.5-1 1.7.4.7.8a.6.6 0 01-.6-.8z" class="fil9"/><path id="path104" stroke-width=".3" d="M310.3 128.7c.4.1.7.5.6.9l1.3.3.2-1c-1-.3-.5-1.7.5-1.5.9.2.7 1.6-.3 1.6l-.2 1 1.2.2c.4-.9 1.8-.5 1.5.5-.2.9-1.6.7-1.5-.3l-1-.2 1.7 5.6h-.2l-1.8-5.6-.3 1.5 1.3 4.3h-.2l-1.2-3.9-1 4h-.2l1-4-2.9 3-.2-.2 3.2-3.3.3-1.5-4 4.3-.2-.1 4-4.3-1-.2c-.4.9-1.8.5-1.5-.5 0-.4.5-.7 1-.6zm2.8-.8c-.5-1-1.6.6-.5.8.4.1.8-.4.5-.8zm1.7 2.3c-.5-1-1.6.6-.6.8.5.1.9-.4.6-.8zm-4.2-1c-.6-.9-1.6.6-.6.8.5.2.9-.4.6-.8z" class="fil9"/><path id="path106" stroke-width=".3" d="M289 128.7c-.5.1-.7.5-.7.9l-1.2.3-.3-1c1-.3.5-1.7-.4-1.5-1 .2-.7 1.6.2 1.6l.2 1-1.2.2c-.5-1.2-2.3 0-1.2 1 .4.3 1.3 0 1.2-.8l1-.2-1.7 5.6h.3l1.7-5.6.3 1.5-1.3 4.3h.2l1.3-3.9.9 4h.2l-1-4 2.9 3 .2-.2-3.1-3.3-.4-1.5 4 4.3.2-.1-4-4.3 1-.2c.5 1.2 2.4 0 1.2-1h-.6zm-3-.8c.7-1 1.7.6.7.8a.6.6 0 01-.6-.8zm-1.6 2.3c.6-1 1.6.6.6.8a.6.6 0 01-.6-.8zm4.2-1c.6-.9 1.7.6.6.8a.6.6 0 01-.6-.8z" class="fil9"/><path id="path108" stroke-width=".3" d="M321.2 132.4c.3.2.5.6.3 1l1.2.5.4-.8c-.9-.7.4-2.3 1.3-.9.3.5-.7 1.1-1 1-.5.8-.2.3-.9 1l-5 3.1-.1-.2 5-3-1-.5c-.7.9-2.2-.4-.8-1.3h.6zm-.2 4l-3 1.7v-.2l3.3-2-.3.4zm3.1-4.1c-.3-1-1.7.1-.8.6.5.3 1-.1.8-.6zm-2.8.6c-.3-1-1.7.2-.8.7.5.2 1-.2.8-.7z" class="fil9"/><path id="path110" stroke-width=".3" d="M278 132.4c-.3.2-.4.6-.3 1l-1.1.5-.5-.8c1-.7-.4-2.3-1.2-.9-.3.5.6 1.1 1 1 .4.8.2.3.8 1l5 3.1.1-.2-5-3 1-.5c.6.7 1.8 0 1.3-.9-.3-.6-1-.3-1-.3zm.3 4l2.8 1.7.2-.2-3.3-2 .3.4zm-3.2-4.1c.3-1 1.7.1.8.6-.4.3-1-.1-.8-.6zm2.8.6c.3-1 1.7.2.8.7-.4.2-1-.2-.8-.7z" class="fil9"/><path id="path112" stroke-width=".3" d="M299.6 143.3c8.6 0 15.5 2.1 15.5 4.7 0 .5-.2.6-.6.8a12 12 0 01-4.9 1c-6.6.3-13.3.3-20 0a12 12 0 01-4.9-1c-.4-.2-.6-.3-.6-.8 0-2.6 7-4.7 15.5-4.7z" class="fil2"/><circle id="ellipse114" cx="271.1" cy="122.9" r="1.9" stroke-width=".3" class="fil3"/><circle id="ellipse116" cx="271.1" cy="122.9" r="1.6" stroke-width=".3" class="fil7"/><circle id="ellipse118" cx="272.6" cy="128.9" r="1.9" stroke-width=".3" class="fil3"/><circle id="ellipse120" cx="272.6" cy="128.9" r="1.6" stroke-width=".3" class="fil7"/><circle id="ellipse122" cx="328.1" cy="122.9" r="1.9" stroke-width=".3" class="fil3"/><circle id="ellipse124" cx="328.1" cy="122.9" r="1.6" stroke-width=".3" class="fil8"/><circle id="ellipse126" cx="326.6" cy="128.9" r="1.9" stroke-width=".3" class="fil3"/><circle id="ellipse128" cx="326.6" cy="128.9" r="1.6" stroke-width=".3" class="fil8"/><circle id="ellipse130" cx="299.6" cy="109.7" r="2.2" stroke-width=".3" class="fil2"/><circle id="ellipse132" cx="299.6" cy="105.9" r="1.1" stroke-width=".3" class="fil10"/><circle id="ellipse134" cx="303.1" cy="111.1" r="1.1" stroke-width=".3" class="fil10"/><circle id="ellipse136" cx="296.1" cy="111.1" r="1.1" stroke-width=".3" class="fil10"/><circle id="ellipse138" cx="299.6" cy="119.6" r="2.5" stroke-width=".3" class="fil2"/><circle id="ellipse140" cx="302" cy="116.1" r="1.2" stroke-width=".3" class="fil10"/><circle id="ellipse142" cx="297.3" cy="116.1" r="1.2" stroke-width=".3" class="fil10"/><path id="path144" stroke-width=".3" d="M306 96.8h-1l-1.8 2.7h-2.5v-3.4l3.4-2.1v-1.3h-9V94l3.4 2.1v3.4H296l-1.7-2.7h-1v7.6h1l1.7-2.6h2.5v2.6a5.4 5.4 0 012.2 0v-2.6h2.5l1.7 2.6h1v-7.6z" class="fil5"/></svg>