<svg xmlns="http://www.w3.org/2000/svg" xmlns:xlink="http://www.w3.org/1999/xlink" viewBox="0 0 600 400"><defs><linearGradient id="f" x1="519.1" x2="536.7" y1="256.8" y2="262.4" gradientTransform="translate(-259.5 52) scale(.99962)" gradientUnits="userSpaceOnUse" xlink:href="#b"/><linearGradient id="a"><stop offset="0" stop-color="#a80"/><stop offset="1" stop-color="#d4aa00" stop-opacity="0"/></linearGradient><linearGradient id="g" x1="546.1" x2="561.5" y1="224.9" y2="224.9" gradientTransform="translate(-259.5 52) scale(.99962)" gradientUnits="userSpaceOnUse" xlink:href="#b"/><linearGradient id="h" x1="576" x2="598.1" y1="183.3" y2="186.8" gradientTransform="translate(-259.5 52) scale(.99962)" gradientUnits="userSpaceOnUse" xlink:href="#c"/><linearGradient id="j" x1="529" x2="526.5" y1="307" y2="326.1" gradientTransform="translate(-259.5 52) scale(.99962)" gradientUnits="userSpaceOnUse" xlink:href="#b"/><linearGradient id="k" x1="556.9" x2="562" y1="273.8" y2="295.5" gradientTransform="translate(-259.5 52) scale(.99962)" gradientUnits="userSpaceOnUse" xlink:href="#b"/><linearGradient id="i" x1="588" x2="599.5" y1="222.9" y2="245.3" gradientTransform="translate(-259.5 52) scale(.99962)" gradientUnits="userSpaceOnUse" xlink:href="#a"/><linearGradient id="l" x1="517.6" x2="517.6" y1="10.2" y2="-27.4" gradientTransform="translate(-259.5 52) scale(.99962)" gradientUnits="userSpaceOnUse" xlink:href="#d"/><linearGradient id="d"><stop offset="0" stop-color="#a00"/><stop offset=".2" stop-color="#d40000"/><stop offset=".7" stop-color="#d40000"/><stop offset="1" stop-color="red"/></linearGradient><linearGradient id="b"><stop offset="0" stop-color="#a80"/><stop offset="1" stop-color="#a80" stop-opacity="0"/></linearGradient><linearGradient id="c"><stop offset="0" stop-color="#a80"/><stop offset="1" stop-color="#d4aa00" stop-opacity="0"/></linearGradient><linearGradient id="e"><stop offset="0" stop-color="#a80"/><stop offset="1" stop-color="#a80" stop-opacity="0"/></linearGradient><radialGradient id="m" cx="710.2" cy="106.5" r="55.7" fx="710.2" fy="106.5" gradientTransform="matrix(1.24762 0 0 1.18664 -615.5 31.7)" gradientUnits="userSpaceOnUse" xlink:href="#e"/></defs><path fill="#d40000" d="M0 0h600v400H0z"/><path fill="#ffd500" fill-rule="evenodd" stroke="#d4a900" stroke-width=".8" d="M393 278.2c0 12.4-10 22.5-22.5 22.5h-54.3c-8.5.2-15.5 6.4-16.9 14.5a17.6 17.6 0 00-16.9-14.5h-52.9a22.5 22.5 0 01-22.5-22.5V89.5h186v188.7z"/><path fill="#007ccc" fill-rule="evenodd" d="M391.1 278.2V91.3H209v186.9a20.6 20.6 0 0020.6 20.6h52.9a19.4 19.4 0 0117 10.6 19.5 19.5 0 0116.7-10.6h54.4a20.6 20.6 0 0020.6-20.6z"/><path fill="#fff" fill-rule="evenodd" d="M391.1 278.2V91.3H209L385.8 292c3.3-3.6 5.3-8.5 5.3-13.8z"/><path fill="gray" fill-rule="evenodd" d="M247.5 160.5c-1.7 0-4.8.7-5.3 1.3-.3.4-.6.4-1.1.2-1-.4-1.4-.2-1.4.8 0 1.2.6 1.5 3.4 1.1l3.5-.5 1-.2v1.6c0 1.6-.7 4-1.2 3.8-.6-.2-2.3.4-2.3.7 0 .3.3.8.6 1.2.4.5.7 1.1.7 1.5 0 .4.3 1 .7 1.5.3.5.2 1 .6 1.3-.6 16-.5 32-.5 47.9-.4 0-.4.1-.5.4 0 .4-.1.7-.3.7-.2 0-.5.8-.8 1.7-.5 1.7-1.7 3.6-1.7 2.7 0-.4-2.4-.5-3.2 0-.9.4-.8 1.6.1 3.3.4.8.7 1.5.5 1.5 0 0-.2.3-.2.7 0 .5-.5 1.6-.9 2.6a8.3 8.3 0 00-.8 3.3c0 1.3 0 1.5-.5 1.4-.2-.1-.7-.8-1-1.4-.5-1-.8-1.2-1.3-1-.4 0-.7.2-.7.4s-.2.7-.6 1.1c-.3.4-.7 1.3-.8 2-.1.7-.4 1.3-.6 1.4-.3.1-.5.5-.5.8 0 1-1 3.6-1.5 4.2-.3.4-.4 1.2-.4 3 0 3.2-.5 4.9-1.4 4-.4-.4-1.2-.3-1.4.2a99.1 99.1 0 01-1.5 7.3c-.3 1.2-.6 3.4-.6 5l-.3 3.4v1c.4.5 1.4.4 1.4 0 0-.8.8-.5 1.1.2.1.4.3 1.3.3 2 0 1.7.7 2.5 1.6 2.2.4 0 .8 0 1 .2 0 .1.4.3.8.3s.8.6 1.4 1.8c.7 1.6.9 1.7 1.5 1.6.5 0 1.1 0 1.5.4.5.5.9.5 2.3.2a26.6 26.6 0 018.4 0l2.1-.4c1 0 2.2-.2 2.6-.3.4 0 1.7 0 3 .2 1.4.3 2.3.3 2.4 0 .2-.2 1.7-.2 8 .2 4.5.2 5.1.2 6.4 0 3.3-.6 3.4-.6 3.7.3.2.5.3.6.8.7h1.5c1.4-.2 2.1-.4 2.4-.8.2-.3.4-.4.4-.3 0 .1.2.1.4 0 .3-.2 1.6-.4 3-.5a12 12 0 003.3-.3c1-.4 1.8-2.3 1.4-3.4l-.3-2.6c0-2 .1-2-2.8-3.5-.8-.4-1.4-1-1.2-1 0-.2 0-.2-.2-.1-.6.3-2.6-.5-2.8-1-.2-.7 0-2.6.4-4l.6-2.5c0-.8.3-1.6.4-1.6.2-.1.4-.9.5-1.6.1-.8.4-1.4.6-1.4.3.1 2.4-1.8 2.4-2.2 0-.5-1.5-1.4-2.1-1.4-.4 0-.7 0-.8-.2l-1.3-.3-6-.4c-.2 0-.6-.4-.9-.8-.3-.6-.6-.8-1.1-.6l-.8-.1c0-.2-.6-.5-1.4-.7-1.3-.3-1.6-.6-1.5-1.4 0-.1 0-.2-.2 0-.4.2-1-1.3-1-2.4a3 3 0 00-.6-1.6 3 3 0 01-.6-1.3l-.4-.8-.6-2c-.4-2.2-.7-2.5-2-2.3-1 .1-1.2 0-1.2-.4 0-.2-.3-.5-.6-.6-.4-.2-.9-.7-1.1-1.3a28 28 0 01-1.3-4c-.2-.4-.7-1.2-1.3-1.8a6 6 0 01-1.2-1.8c-.5-1.7-1.5-3.4-2.2-3.7-.7-.3-.8-.5-.6-1.1 0-.5 0-.8-.2-.8s-.5-.3-.6-.6c0-16.1-.3-32.2-1-48h.1l.4-.6c.3-.1.5-.6.5-1s.2-1 .6-1.4c.8-1 .8-1.1 0-1.7-.7-.4-.9-1.7-.4-2.3.5-.5.5-1.5 0-2.8-.3-.6-.5-1.3-.4-1.4.2-.3 1.3-.1 1.9.3l2.5.2c2 0 2.3-.1 2.3-.7 0-.4-.2-.8-1-1.2-.6-.3-1.3-.5-1.4-.4-.2.1-.4 0-.7-.3-.2-.3-.7-.4-1.2-.3-.5.1-1.7 0-2.8-.2l-2.5-.3-2.8-.1-.6-.1zm3.5 3.2l.7.8c.4.4.7 1 .7 1.2v1c.1.2-.1.6-.4.6-.6.1-.7 0-.6-.7 0-.1-.1-.5-.3-.7-.2-.2-.3-.4 0-.6.1 0 .2-.5.1-.9l-.2-.7z"/><path fill="#fff" fill-rule="evenodd" d="M278 278.3c.2 0 .3.1.3.3 0 .1-.1.3-.3.3a.3.3 0 01-.3-.3c0-.2.1-.3.3-.3zm-31.7-.1c.2 0 .2 0 .2.4 0 .7 0 .7-.3.3a.5.5 0 010-.7h.1zm18.9-1c.2 0 .5.2.5.4s-.2.3-.4.3c-.1 0-.2.2-.1.3 0 .1-.1.3-.4.3-.2 0-.4-.2-.2-.5l.1-.6.5-.1zm3.7-.5c.2 0 .6 0 1 .2.5.2.5.3-.2.7-.3.2-.5.2-.4 0 .1-.1 0-.3-.3-.3s-.5-.2-.5-.3c0-.2.1-.3.4-.3zm9.3-.7l.1.5c0 .3-.1.5-.3.5-.1 0-.2-.2-.1-.5 0-.3.2-.5.3-.5zm-22.5 0l.6.3c.1.2 0 .4-.4.4s-.7-.2-.7-.4c0-.1.2-.3.5-.3zm-21.6 0l.3.3c.2.2.1.4 0 .4-.3 0-.4-.2-.4-.4l.1-.3zm19.1 0h.2c.3 0 .6 0 .6.2 0 .3-.3.5-.6.5-.4 0-.5 0-.1.2.3.2.2.4-.3.5-.7.2-1.4-.4-1-1 .2-.2.8-.4 1.2-.5zm-3.3-.1l.5.1c.3.2.4.4.4.5-.1 0-.4 0-.7-.2-.2-.1-.3-.3-.3-.4h.1zm-12.3-.1l.4.5c.5.5.9.6 1.6.5h1.1c.1.3-.2.6-.6.9-1 .5-2.3.2-2.3-.5l-.2-1c0-.3-.1-.4 0-.4zm6.9 0c.3 0 .6.3.6.7 0 .6-.5.6-1 0-.2-.3-.2-.5 0-.6l.4-.1zm30.9 0c-.3 0-.6.1-.9.4-.3.4-.3.5.1.5.3 0 .7-.2.9-.5.3-.4.3-.5-.1-.5zm-26.4-.4l.2.2c.2.2.3.5.2.6 0 0-.2 0-.4-.4v-.4zm7.5 0c.1 0 .3.1.3.3l-.1.3-.4-.3c-.1-.2 0-.3.2-.3zm-20.6 0c.1 0 .3.2.4.5.1.2 0 .4-.2.4-.3 0-.4-.2-.4-.4 0-.3 0-.5.2-.5zm50.8-1.5c.2.1.2.4 0 .6l-.1-.2v-.4zm-2.2-.6c1 0 1.7.1 1.6.3 0 .2.1 1 .4 1.7.3 1.2.3 1.5 0 1.9-.6.5-.6.5-1.3 0-.3-.1-.5-.5-.5-.9 0-.3-.2-.6-.3-.5-.4.1-2-2-1.8-2.2.2-.2 1-.3 2-.3zm-19.5-.7c-.3 0-.2.2.4.7.8.8 1.5 1 1.5.5 0-.4-1.3-1.2-1.9-1.2zm-7.7 0c-.5 0-.8 0-.8.2 0 .1.3.3.8.3.4 0 .8 0 .8-.2s-.4-.3-.8-.3zm20-.7c-.4 0-.8 1.4-.7 2.3.2.8 1 1 1.2.3.3-.6-.1-2.6-.4-2.6zm-27.6-1c-.3 0-.5.3-.5.6 0 .5.7.4.9-.2 0-.2-.1-.3-.4-.3zm.9-.2l-.1.5c0 .3 0 .7.2.8.3.4.4 0 .1-.8l-.2-.5zm26.8 0c-.2 0-.3 0-.3.3 0 .2.1.2.3.1.2 0 .3-.2.3-.3 0-.1-.1-.2-.3-.2zm-34 0c-.4 0-.3.8.2 1h.6c.3-.2-.3-1-.7-1zm12.9-.4c-.6 0-1.3 1.7-.8 1.9.2 0 .4.3.4.6 0 .8.4-.1.7-1.4.1-.8 0-1-.3-1zm-17-.2c-.3 0-.5.1-.4.3.2.3-1.6 1.2-1.9 1 0-.1-.2 0-.2.3 0 .4.2.5.8.2.5-.2 1-.2 1.2-.1.1 0 .2 0 0-.4 0-.3 0-.4.3-.4.2 0 .4-.1.5-.4 0-.3-.1-.5-.4-.5zm8.2 0l-.2.4c0 .3.1.5.3.4.5-.1.5-.7 0-.8zm7.2-.6c-.3 0-.5.4-.2.6.2.3.6.3.8 0 .1-.2 0-.4-.2-.5h-.4zm8.4-1c-.2 0-.2 0-.1.2 0 .2.2.3.3.3l.1-.3c0-.1-.1-.3-.3-.3zm9-.3h.3c.2.1.2.2-.2.2-.3 0-.5 0-.4-.2h.2zm-27.8-.2c-.2 0-.4.2-.4.4-.1.2.1.3.4.3.3 0 .4-.1.4-.4-.1-.2-.3-.3-.4-.3zm22.7 0h-1.2c-.2.1 0 .2.2.4.6.4 1 .4 1.5 0 .5-.2.2-.5-.5-.5zm-30.2-.7c-.6 0-1 .1-1.3.4-.4.4-.7.4-1 .1-.2-.2-.5-.2-.6-.1-.2.2-2.5.7-3.6.8-.8.1-1.4.5-1.2 1 .2.2 6 0 6.5-.3.2-.1.5 0 .8.3.5.5.6.5 1.3-.3l.7-1.1c0-.5-.8-.8-1.6-.8zm17.9-.5l-.1.5c0 .3.1.5.3.5.2 0 .2-.2.1-.5 0-.3-.2-.5-.3-.5zm3.7-.2l-1 .1c-1.4.2-1.6.3-1.6 1 0 .8.5 1.2 1 .8.3 0 .8-.3 1.3-.3 1-.1 1.6.6 1.6 1.8 0 .8.6.8.8 0 0-.3.6-.8 1-1 .6-.2 1-.4 1-.6a6 6 0 00-1.7-1c-1-.6-1.6-.8-2.4-.8zm-10 0h-.2l-.3.4.3.2c.2 0 .4-.2.4-.4l-.2-.2zm5 0c-1 0-2 .6-2 1.1 0 .3.3.3.9 0l1.3-.2c.3 0 .5-.1.6-.4 0-.5-.1-.6-.8-.6zm-6.7 0h-.2v.6c.2.3.3.3.4 0 .1-.4 0-.7-.2-.7zm25.7-1c.1 0 .3.3.3.8.2 1.5.1 1.7-.3.5-.2-.5-.2-1.1 0-1.3zm7.3-1.5c.2 0 .3.2.3.4.1.2 0 .4-.1.4-.2 0-.3.3-.2.5l.1.5c-1-.4-1.1-1-.4-1.6l.3-.2zm-21.3-.4c-.2 0-.3.1-.3.3 0 .2.1.3.3.3.1 0 .3-.1.3-.3 0-.2-.2-.3-.3-.3zm-5.7 0c-.3 0-.7.8-.7 1.3 0 .3.2.3.8 0 .4 0 .4-1.3-.1-1.3zm27-1.6v.5c0 .2-.3.4-.4.4-.2 0-.2-.2-.1-.4 0-.3.3-.5.4-.5zm-49.2-4.6c-.2 0-.2.1-.2.3 0 .3.1.5.2.5.2 0 .3-.1.3-.3 0-.2-.1-.4-.3-.5zm44.5-.7h-.2l-.3.4.3.1c.2 0 .4-.1.4-.3l-.2-.2zm-31.9-.4c-.6 0-1 2.9-.6 4.1.3.8.2 1-.3 1-.7 0-.8.4-.1.7.2.1.4.4.4.7 0 .4.2.4.5.3l.8-.2c.2 0 .3-.3.3-.8 0-.4.2-1.2.5-1.7.3-.6.5-1.2.3-1.5 0-.2 0-.4.2-.2.1 0 .4-.1.6-.4.3-.3.3-.4 0-.4-.2 0-.3-.3-.3-.6 0-.4-.3-.7-.9-.8l-1.3-.2zm27.7-.5c-.2 0 0 .5.3 1 .6.6.9.5.9-.3 0-.3 0-.6-.2-.4-.1 0-.4 0-.6-.2l-.4-.1zm-17-.4c.4 0 1 .5 1 1 0 .2-.1 0-.4-.3-.5-.6-.5-.6-.3.3.1 1 .1 1-.4.5s-.5-1.2 0-1.4h.1zm-12.2 0h-.3c0 .2.1.2.5.2.3 0 .4 0 .2-.2h-.4zm-5.2-.6h-.3c-.5.3-.5.3 0 1 .4.7.4.7-.2.9-.5.1-.7 0-.7-.5 0-.4-.1-.5-.5-.4l-1 .2c-.2 0-.4.3-.4.6a5 5 0 01-.8 2c-.7 1.1-.8 1.2-1.3.7-.7-.6-1-.6-1-.1l-.5.8c-.3.2-.4.6-.3.8.1.1 0 .5-.3.8-.2.3-.4 1-.4 1.5.2 1.5.2 1.6.5.9.2-.4.7-.9 1.1-1 1.2-.5 3-.2 3.6.6.2.3.7.6 1 .6.3 0 .8.2 1 .5.2.3.5.4.6.2.1-.2.4-.2.7 0l.7.3c.4 0 .2-1.5-.3-2-.2-.2-.4-.5-.2-.7l.3-.8c.3-3.3.4-4.1 0-4.3l-.2-1c0-1-.5-1.6-1.1-1.6zm29.9-.4c.2 0 .3.1.3.3 0 .2-.1.4-.3.5-.2 0-.3 0-.3-.3s.1-.5.3-.5zm15.4-.2h.2c.3.2.5.4.4.6-.2.2 0 .2.4 0 .4 0 .7 0 .8.2.2.2 0 .3-.2.3-.3 0-.6.2-.6.5-.3.6-.8.6-1.5.2-.4-.3-.4-.4 0-.8.4-.3.6-.6.5-.8v-.2zm-.9 0c.3 0 .3 0 0 .2-.5.4-.8.4-1 0 0 0 .2-.2.7-.2h.3zm-4.2-.1h.7c.5 0 .7.1.5.4-.2.3-.1.3.2 0 .7-.7 1.2-.5 1.6.5.5 1.2.3 2.7-.2 2-.2-.1-.4-.7-.3-1.2 0-.7 0-1-.5-.9-.3.1-.9 0-1.3-.4l-.7-.4zm-32.1-.7c-.4 0-.7.5-.5.8.4.3.7.2.7-.3 0-.2 0-.5-.2-.5zm28.8-1c.2 0 .3.4.3.7l-.1.6-.3-.6v-.6zm-2.9-.2c-.2 0-.3.3-.3.6 0 .4.1.6.3.6.2 0 .3-.2.3-.6 0-.3-.1-.6-.3-.6zm-21-1l-.2.3a2 2 0 00-.3.8h.3c.2 0 .3-.4.3-.7v-.4zm-16.7 0c.1 0 .2.2.2.5 0 .5 0 .6-.3.3s-.3-.8 0-.8zm36.3-.2h.5c2.4.8 3 1.1 3 1.6-.1.3 0 .5.2.5l.2.6c0 .8 1.4 1.8 2 1.4.3-.1.3 0 .2.5-.1.4 0 .8.2 1 .5.4.9 1.6.5 1.6-.2 0-.3-.1-.3-.3 0-.2-.2-.4-.4-.4-.1 0-.2.2-.1.3 0 .2 0 .5-.3.7-.3.2-.5.2-.5 0l-1-.5c-1-.2-1-.2-.4.4.5.5.7 1 .6 2.2 0 1 0 1.7-.3 1.7-.1 0-.2.3 0 .6 0 .3 0 .8-.3 1-.3.5-.4.5-.7 0-.3-.4-.6-.6-1-.5-.5.2-.5.2 0-.1l.8-.3c.2.1.3-.2.3-.6l.2-1.5c0-.5.2-.8.3-.8.5 0 .2-.6-1-1.8-.7-.8-1.5-1.4-1.8-1.4-.2 0-.4 0-.5-.2 0-1 0-2.3.2-3.2a2 2 0 00-.3-1.8l-.3-.7zm-25.7-.6c-.2 0-.4.6-.6 1.6-.1 1.2-.1 1.2.3.7.3-.4.5-1 .5-1.6 0-.5 0-.7-.2-.7zm6.2-1c-.2 0-.3 0-.1.2 0 .2.2.4.3.4l.1-.4c0-.1-.1-.3-.3-.3zm9.3-1c.1 0 .2 0 .2.2l-.4.7c-.4.3-.5.3-.3-.3 0-.4.4-.6.5-.6zm-2.4-.6c.2 0 .5 0 .5.2.2.2.1.6-.1 1-.3.4-.4.4-.2-.2 0-.4 0-.8-.2-.9-.3 0-.3-.1 0-.1zm-17.6-.4c-.4 0-.4.1 0 .6.4.4.5.7.3.8-.3.2-.3.4 0 .7.3.4.4.4.8-.2.4-.6.4-.7 0-1.3-.4-.3-.8-.6-1.1-.6zm1.4-.3c-.2 0 0 .2.2.5.4.2.7.7.7 1 0 .4.3 1 .7 1.2.7.5.8.4 1.2-.9.3-.7.6-1 1.1-1 1.3 0 1.6-.1 1.6-.5s-3.5-.3-4 .1c-.3.2-.6.2-.8 0l-.7-.4zm7.6-.1c-.3 0-.6 0-.8.3-.4.6-.2 1 .4.5.3-.3.4-.2.7.6.3.7.5.8 1 .7.5 0 .7-.3.6-.5 0-.2 0-.6.2-1v-.5c-.2 0-.5.3-.7.5-.3.5-.3.6-.3.1s-.5-.8-1-.7zm5.5-.2l-.5.3c0 .2 0 .3.3.3s.5-.1.5-.3c0-.2-.1-.3-.3-.3zm-1.3-.2l-.4.8c-.3.3-.5.8-.4 1 .4.5.8 0 .8-1v-.8zm14.2-1c.3 0 .4 0 .3.4-.1.3 0 .5.3.5.5 0 .5 0 0 .5-.3.5-.3.5.2.3.4-.1.5 0 .4.1-.1.2-.5.3-.8.3-.4 0-.9.3-1.2.6-.2.3-.3.3-.2.1.2-.4.3-1 .4-2.3 0-.3.3-.6.6-.6zm-5.3-2.3c.2 0 .4.2.5.3.3.6 0 .6-.4.1-.2-.2-.3-.4-.1-.4zm-10.1-1.1l-1.2.1.2.5c.4.5 1 .5 1.2 0 .2-.4.2-.6-.2-.6zm-2.4-1c-.2 0-.4 0-.7.3-.2.2-.2.5.2.9.7.9 1.7.1 1-.9 0-.2-.3-.3-.5-.3zm2-.1c-.4 0-.6.1-.6.3 0 .2.2.3.3.3.2 0 .4-.1.5-.3.1-.2 0-.3-.3-.3zm-14.7-.4c.2 0 .5.2 1 .6 1.4 1 2.6 1.2 3.3.3.5-.6 1.3-.5 1.2.2 0 .3 0 .3-.1 0-.3-.7-.7-.4-1 .7-.5 1.1-.6 1.2-2.7 1.6-.6 0-1-.6-.7-1.2 0-.1 0-.2-.3-.2-.6 0-.7.3-.1.9.3.3.3.4 0 .7l-.4.2c0-.1-.3 0-.7.3-.3.3-.6.8-.6 1.1 0 .3-.1.9-.3 1.2-.4.8-1 .8-1 0 0-.3.2-.6.4-.6.3 0 .3-.1 0-.3-.3-.2-.4-.4-.2-.4s.4-.3.4-.8.3-1.3.5-1.8a4 4 0 00.5-1.4c0-.2.2-.4.3-.4.2 0 .4-.2.4-.5l.1-.2zm12.6-3.1c-.2 0-.4.1-.5.3v.3c.2 0 .5-.1.6-.3.1-.2 0-.3-.1-.3zm-7-2.9s.2.7.2 1.5-.2 1.4-.4 1.4c-.5 0-.8 1.3-.4 1.8.2.2.2.4 0 .6-.2 0-.4 0-.4-.3s-.1-.5-.3-.4c-.6.4 0-1.5.7-2s.8-1 0-.7c-.4.1-.4 0 0-.6.2-.4.4-.9.3-1 0-.2 0-.3.2-.3zm14-.6s.2.3.3 1c0 .5 0 .8-.5.9-.5 0-.5 0-.3-.8.1-.8.3-1.1.4-1.1zm-.1-1c.2 0 .3.1.3.2l-.3.3c-.2.1-.3 0-.3-.1 0-.2.1-.3.3-.3zm-12.3-.8l-.5 1.6c-.1.5 0 .8.1.8.2 0 .4-.2.4-.5 0-.4.1-.8.3-1 .3-.3.3-.4 0-.7l-.3-.2zm12.2-.6h.1c.2.2.3.4.3.7 0 .2-.1.4-.3.4-.2 0-.3-.3-.3-.6s0-.5.2-.5zm-14.2-3l.3.3c.4.6 3.3.7 4.2.1 1.2-.7 2-.3 1.7.8a9.7 9.7 0 00-.1 4.2c.1.6 0 1-.1 1.3-.3.2-.2.3 0 .3.3 0 .4.1.2.3-.4.6.2 1.5.9 1.4.8-.3 1.2-1.5.9-2.5-.2-.4-.2-.8 0-.8.5 0 .1-1.6-.5-1.8-.6-.2-.6-.2.2-.6l1.3-.4c.3 0 .5-.2.5-.4s.2-.2.5-.2c.3.1.5 0 .6-.2.3-.7 1.5-.5 1.7.3.4 1.8.6 4.2.4 4.3-.3.1 0 1.8.4 2 .2 0 .4-.2.5-.4.2-.3.5-.3 1 0 .5.2.6.5.5 2.2v2h-1c-.8-.1-.9-.1-.3.3.8.7.6.8-1 .7-1.2-.1-1.6 0-1.8.3 0 .3 0 .5.5.5.3 0 .6.1.8.3 0 .2.5.3.8.2.4-.1.9 0 1.1.3.5.5 1.4.6 1.4.1 0-.2.6-.3 1.2-.3 1.4 0 2.2.6 3 2.2.7 1.4.4 2-1 1.8-1.8-.3-4-.5-4.4-.3-.2 0-.3.9-.2 2.4.1 1.9 0 2.3-.4 2.6-.6.4-.5.4.4.7.5 0 1 .4 1.2.5.1.3.3.2.6 0 .2-.4.8-.5 1.4-.4 1 0 1 0 1-.8 0-.4-.1-.8-.3-.8-.2 0-.3.2-.3.3 0 .2-.3.3-.6.3-.6 0-.6 0-.2-.9.6-1.1.6-1.1 1.3-.4.4.3.6.4 1 0l1.1-.2c.4 0 1 0 1.3-.3.4-.4.5-.4.5 0 0 .3-.3.6-.6.8-.5.1-.7.4-.5.7.1.7-.3 1.6-.8 1.6a6 6 0 00-1.5.8c-.9.5-1.3 1-1.4 1.8-.2.6-.4.9-.5.7-.1-.2-.6-.4-1-.5-.5-.2-1.1-.6-1.4-1-.6-1-1.6-1-2.5-.2-.6.6-.6.7-.2 1.8l.4 2.1c0 .6.2 1.1.5 1.4.5.4.7 1 .7 2.4s.2 1.8.6 2c.4 0 .7 0 .8-.2.1-.2.5-.2.8-.1l.6-.1c0-.2-.4-.4-.8-.6-.7-.1-.8-.3-.7-1.6 0-.8.1-1.5.3-1.6.1 0 .2 0 .2.2s.2.3.3.2c.2 0 .2.1.2.5-.1.6 0 .7.5.7.4 0 .6 0 .6-.2 0-.4-.7-2-1-2.2-.5-.3-.6-2.7-.2-3 .3-.1.3 0 .2.6-.1.8 0 .9.5.7.4-.1 1.3-.8 2-1.4.6-.7 1.4-1.4 1.8-1.4.7-.2 2-2 1.6-2.4 0-.1.1-.3.4-.4.2-.1.6-.7.9-1.3.5-1.2 1-1.4 1.3-.9 0 .2 0 .4-.3.5-.3 0-.4.5-.3 1.3.1 1 0 1.1-.8 1.3-1.2.2-1.2.8-.3 1.8l.7.7.1-1.2c.1-.9.2-1 .5-.8.5.4.3 2.8-.2 3.2-.3.2-.2.2 0 .2.4 0 .4.3-.1 1.6-.4 1-.4 3.5 0 4 .3.4.3.7-.3 1.3l-.7.8.7.9c.6 1 .6 1 1.2.3.3-.4.7-.6.8-.6.3 0 1.3 1 1.2 1.3-.1.1.2.4.8.6.5.3 1 .6 1 1 0 .5.8 1 1.3.7.1-.1.2.1 0 .6-.2.8-.1.9.5.5.4-.3.7-.6.7-.9 0-.2.3-.4.6-.4.4 0 .6 0 .6-.3l1 .1c.5.2 1 .6 1 .9 0 .4 0 .4.3 0 .2-.4.3-.4.4 0 .2.4.5.5 1 .4l1.1-.2c.3 0 .7-.2.9-.5.3-.5.4-.5.7 0 .1.2.3.3.3.1 0-.2.1-.2.2 0 .4.4 2.7 1.9 2.5 1.5 0-.2 0-.3.4-.2.3 0 .6.2.6.4s.3.3.6.2c.2-.1.5 0 .6.1 0 .2 0 .4-.3.5h-.6c-.3-.5-1.9-.2-2.2.3-.2.2-.8.4-1.3.3-.5 0-1.1.1-1.3.3-.6.4-.6 1.8-.1 1.8.3 0 .3.1 0 .5-.2.2-.3.5-.2.6l-.8.6c-.5.2-1 .6-1 .8 0 .5-1 .8-1.4.4a1 1 0 00-1-.1c-.2 0-.6 0-.9-.4-.4-.6-.4-.6-1.1 0-1 1-1.1 1-1.4.3 0-.2 0-.4.1-.3.2.1.5-.1.7-.5.3-.6.3-.6-1.7-.5-1.5 0-2 .2-2 .5 0 .4-.3.5-1.2.5-.6 0-1.1 0-1.1-.2 0-.1.1-.3.3-.3l.6-.1.6-.1c.2 0 .4-.2.4-.3 0-.2-1.1-.3-2.4-.4-2 0-2.4 0-2.4.5 0 .2-.4.5-.8.6-.7.2-1 .1-1.5-.6-.4-.4-1-.8-1.3-.8a2 2 0 01-1.1-.5 4 4 0 00-1.8-.6l-1.4-.2h-.4l-2.7.2c-2 0-2.4.2-3 1-.6.6-1 .8-1.6.6-.9-.2-1.4-1.5-.6-1.5.2 0 .4-.2.3-.4-.1-.2-.4-.3-.6-.2h-1c-.3 0-.5.2-.6.6 0 .4 0 .4-.2 0-.2-.2-.4-.2-.5 0-.2.2-.4.2-.9 0-.6-.4-2.5 0-2.5.4l.6.6c.5.2.4.3-.3.3-.6 0-.9-.1-.7-.4.1-.2 0-.5-.4-.8-.5-.3-.5-.5-.2-1 .6-.9.5-1-.2-.6-.4.1-.7.5-.7.7 0 .5-1 .8-2.3.8-.6 0-.8 0-.6-.4 0-.3-.1-.4-.6-.4-.4 0-.8 0-1-.2 0-.1-.7-.3-1.5-.4-3.1-.3-3.5-.4-3.9-.7-.2-.3-.2-.4 0-.4.6.1 1 0 1-.3l-1-.2c-.4 0-.9 0-1-.2-.3-.2-.6-.2-.8 0-.3.1-.4-.5-.2-2.8.2-3.2.7-5.2 1.4-6.1.3-.3.3-.5.2-.5-.4 0-.3-2.1.2-2.7.2-.3.2-.5 0-.6-.5-.4 0-1.4 1-1.6 1.3-.3 2.4-1.6 2.2-2.8 0-.2.3-.2.7 0l1.2.2c.3.1.6.4.6.7 0 .3.2.4.5.4.8-.2 2.1-3 2.2-5 0-1.6.3-2.1 1.7-3.3l1.6-1.5a7 7 0 014.6-2.2c1.5 0 2-.2 2-.7 0-.1-.5-.2-1.3 0-2.9.4-2.9.4-3-1.3 0-.9 0-2.2.2-3 .2-1 .2-1.5-.1-2l-.7-1.3c0-.3-.3-.5-.4-.5v-2.5c-.2 0-.3-.3-.2-.4.1-.2 0-.4-.1-.4-.3 0-.3 0 0-.4s.3-.6-.2-1c-.4-.2-.5-.5-.4-.6l.2-.1zm10.1-4.4c.3 0 .4.1.4.5 0 .2-.2.4-.4.3-.3-.1-.6 0-.7.2-.2.2 0 .3.6.2h.8c0 .4 1.4.4 1.8 0 .2-.2.5 0 .8.3.3.4.3.4 0 .3a.5.5 0 00-.7 0c-.3.1-.9.3-1.4.3l-1.9.2-1.2.2s-.3.3-.3.7c0 .4-.2.6-.2.3 0-.2-.2-.3-.3-.2-.2 0-.4 0-.5-.3 0-.3-.3-.5-.5-.5s-.3.1-.2.3c0 .1-.3.3-.8.3s-.9 0-.9-.3 1.4-.7 2-.5c.2 0 .5 0 .8-.3l1.4-1.2c.6-.5 1.1-.8 1.4-.8zm.2-49.6c.7 16 .8 32 .9 47.9h-5c-.2-16-.5-32 .6-47.9h3.5zm2-4l.4.1c.2 0 .2.3 0 .6-.1.3-.3.3-.4 0-.2-.3-.2-.6 0-.7zm-2.8-1.7h.2c.3.2.4.4.3.5-.2.4-.3.4-.5-.1-.1-.3-.1-.4 0-.4zm-2-.5c.9 0 .9 0 .3.7-.5.5-.5.6 0 .6.3 0 .5.2.4.7-.1.8-.8 1.1-1 .5a.7.7 0 00-.8-.4c-.3 0-.5-.1-.5-.4 0-.2.1-.4.3-.4.2 0 .2-.1 0-.2-.3-.4.6-1 1.4-1zm5.1-6.6c.2 0 .5.1.6.3.3.4.1.4-.5 0-.2-.2-.3-.3 0-.3zm-4-.2h.1l.5.2c.5.3.6.7.5 1.1-.3 1-.6 1.1-1.1.8-.3-.2-.3-.3-.1-.3.1 0 .1-.1-.1-.3-.2-.1-.3-.5 0-1 0-.3.1-.4.3-.5zm-3.5 0c.2 0 .3.1.3.3-.2.5-1.2.7-1.2.3 0-.2.3-.4.6-.5h.3zm6.2-.1c.2 0 .5 0 .6.3.1.1 0 .3-.2.4-.5.2-.9 0-.9-.5l.5-.2z"/><path fill="#ffd500" fill-rule="evenodd" d="M341.8 225.1a67 67 0 01-6.3 11.8c-3.8 5.6-4.2 12-5.5 18.2-1.4 7-5.8 10-10.3 12.6 19.3-6 30.4-22.2 22.1-42.6z"/><path fill="url(#f)" fill-rule="evenodd" d="M269 270.2c-2.5 31.7-15.2 81-43.9 84.7 38.4-12 60.4-44 44-84.7z" transform="translate(206.4 89.1) scale(.50332)"/><path fill="none" stroke="#d4a900" stroke-width=".8" d="M341.8 225.1a67 67 0 01-6.3 11.8c-3.8 5.6-4.2 12-5.5 18.2-1.4 7-5.8 10-10.3 12.6 19.3-6 30.4-22.2 22.1-42.6z"/><path fill="#ffd500" fill-rule="evenodd" d="M352.6 205.8c-1.3 2.7-2.7 5.3-3.9 8-2.5 5.6-3.8 11-2.3 18.5 1.3 6.7.7 11.9-1 18.6 9.5-9 14-19.8 9.2-34.1a44 44 0 01-2-11z"/><path fill="url(#g)" fill-rule="evenodd" d="M290.4 232c-7.8 34.7 6.4 58.3-14 89.4 18.6-17.7 27.5-39.3 18-67.7a87.5 87.5 0 01-4-21.7z" transform="translate(206.4 89.1) scale(.50332)"/><path fill="none" stroke="#d4a900" stroke-width=".8" d="M352.6 205.8c-1.3 2.7-2.7 5.3-3.9 8-2.5 5.6-3.8 11-2.3 18.5 1.3 6.7.7 11.9-1 18.6 9.5-9 14-19.8 9.2-34.1a44 44 0 01-2-11z"/><path fill="#ffd500" fill-rule="evenodd" d="M295.3 278.5c1.5-3.7 4.2-5.6 7.5-6.5 3-.8 6-1.2 9.1-1.6a50 50 0 0029-12.5c9-8 15.9-19 19.9-29.3l-1-.4a72.2 72.2 0 01-25.2 32c-11.2 7.7-24.8 8.4-37.8 9.7a28 28 0 00-3 8.8l1.5-.2z"/><path fill="#ffd500" fill-rule="evenodd" d="M372.2 185.4c-3.3 4-7.7 7.7-10.5 12.2-3.5 5.8-3 12.2-1.8 19.4.8 5-.1 10-1 15 2.9-4.7 6-9.3 9.3-13.2 5.7-6.6 6.3-14.5 4-23a24 24 0 010-10.4z"/><path fill="url(#h)" fill-rule="evenodd" d="M329.5 191.3c-17 27-9.7 61.7-26.4 93 5.9-9.3 11.9-19 18.3-26.5 11.3-13.3 12.7-28.8 8.1-46-2-7.2-1-14.2 0-20.5z" transform="translate(206.4 89.1) scale(.50332)"/><path fill="none" stroke="#d4a900" stroke-width=".8" d="M372.2 185.4c-3.3 4-7.7 7.7-10.5 12.2-3.5 5.8-3 12.2-1.8 19.4a31 31 0 01-1.5 14.4 73.1 73.1 0 01-23.8 29.3c-11.2 7.5-24.8 7.9-37.8 9.2a27.4 27.4 0 00-3 8.8l1.5-.2c1.5-3.7 4.2-5.6 7.5-6.5 3-.8 6-1.2 9.1-1.6a50.1 50.1 0 0028.9-13c8-7.3 14.5-16.2 18.6-25.5a89.5 89.5 0 018.7-13c5.8-6.7 6.4-14.6 4.1-23.2a24 24 0 010-10.3z"/><path fill="#ffd500" fill-rule="evenodd" d="M385.4 210.1c-3.2 4-6.8 7.1-12 9.5a30 30 0 00-9 6.4c-5 5.2-6 12.2-12.3 18.2 5-3 10.2-4.6 15-5.9 11.6-3.1 18.3-12.2 18.3-28.2z"/><path fill="url(#i)" fill-rule="evenodd" d="M355.7 240.4a76.3 76.3 0 01-15.5 24c-15.2 17.4-36.8 27.4-50.6 43.7 10-6 20-9 29.8-11.7 23-6.2 36.2-24.2 36.3-56z" transform="translate(206.4 89.1) scale(.50332)"/><path fill="none" stroke="#d4a900" stroke-width=".8" d="M385.4 210.1c-3.2 4-6.8 7.1-12 9.5a30 30 0 00-9 6.4c-5 5.2-6 12.2-12.3 18.2 5-3 10.2-4.6 15-5.9 11.6-3.1 18.3-12.2 18.3-28.2z"/><path fill="#ffd500" fill-rule="evenodd" d="M364.1 273.4c-6.3-7-12.5-9.5-18.5-10a64 64 0 00-27.3 5c5 .9 20.4 10.8 37.5 6.4 2.6-1 5.5-1.1 8.3-1.4z"/><path fill="url(#j)" fill-rule="evenodd" d="M313.4 366.2c-24.2-9.5-60.3-9.9-91.1-10.1 9.9 1.9 40.7 21.6 74.6 12.9 5-2.2 11-2.3 16.5-2.8z" transform="translate(206.4 89.1) scale(.50332)"/><path fill="none" stroke="#d4a900" stroke-width=".8" d="M364.1 273.4c-6.3-7-12.5-9.5-18.5-10a64 64 0 00-27.3 5c5 .9 20.4 10.8 37.5 6.4 2.6-1 5.5-1.1 8.3-1.4z"/><path fill="#ffd500" fill-rule="evenodd" d="M374.3 242c-11.5 8.3-24-1-39.8 19.8 6-1.4 10.8-.8 16.7-.4 9.1.7 17.1-3.8 23-19.4z"/><path fill="url(#k)" fill-rule="evenodd" d="M333.5 303.7c-26.5 34.1-51.5 16.7-79 39.5 12-2.8 21.4-1.8 33.2-.9 18.2 1.4 34-7.4 45.8-38.6z" transform="translate(206.4 89.1) scale(.50332)"/><path fill="none" stroke="#d4a900" stroke-width=".8" d="M374.3 242c-11.5 8.3-24-1-39.8 19.8 6-1.4 10.8-.8 16.7-.4 9.1.7 17.1-3.8 23-19.4z"/><path fill="none" stroke="#d4a900" stroke-width=".5" d="M341.8 225.1c-1.3 16-7.7 40.8-22.1 42.6m32.9-61.9c-4 17.6 3.2 29.4-7.1 45m26.7-65.4c-8.6 13.6-4.9 31-13.3 46.8m26.5-22.1c-1.2 3.6-4 7.8-7.8 12-7.6 8.8-18.5 13.9-25.5 22m12 29.3c-12.2-4.8-30.3-5-45.8-5m56-26.4c-13.4 17.1-26 8.4-39.8 19.8"/><path fill="none" stroke="#d4a900" stroke-width=".8" d="M391.1 278.2h0V91.3H209v186.9h0a20.6 20.6 0 0020.6 20.6h52.9a19.4 19.4 0 0117 10.6 19.5 19.5 0 0116.7-10.6h54.4a20.6 20.6 0 0020.6-20.6z"/><path fill="#ffd500" stroke="#d4a900" stroke-width=".8" d="M325.4 98.8h34.3c1.7 0 3.2 1.5 3.2 3.3v2.1c0 1.8-1.5 3.3-3.2 3.3h-34.3a3.2 3.2 0 01-3.2-3.3v-2.1c0-1.8 1.4-3.3 3.2-3.3zm0 25.2a3.2 3.2 0 01-3.2-3.3v-2.1c0-1.8 1.4-3.3 3.2-3.3h34.3c1.7 0 3.2 1.5 3.2 3.3v2.1c0 1.8-1.5 3.3-3.2 3.3h-12.3l-2.1 3.3c-.3.5-.9.7-1.5.6h-2.5c-.6 0-1.2-.1-1.5-.6l-2.2-3.3zm15.7.4a1.5 1.5 0 103 0 1.5 1.5 0 00-3 0z"/><path fill="url(#l)" stroke="#a90000" stroke-width="1.5" d="M236.5 25.8h68v37h-68v-37z" transform="translate(206.4 89.1) scale(.50332)"/><path fill="#ffd500" stroke="#d4a900" stroke-width=".8" d="M342.5 130.3a4.7 4.7 0 110 9.4 4.7 4.7 0 010-9.4zm-2.7 4.7a2.7 2.7 0 105.4 0 2.7 2.7 0 00-5.4 0z"/><path fill="#ffd500" stroke="#d4a900" stroke-width=".8" d="M342.5 124.4c.6 0 1.1.5 1.1 1.1v7.1c0 .6-.5 1.1-1 1.1-.6 0-1.1-.5-1.1-1v-7.2c0-.6.5-1 1-1z"/><path fill="#ffd500" d="M359.9 192.3l-17.4-7.7-17.3 7.7 2-18.9-12.7-14 18.5-4 9.5-16.5 9.6 16.4 18.5 4-12.7 14.1 2 18.9z"/><path fill="url(#m)" d="M305 205l-34.5-15.2-34.4 15.2 3.8-37.5-25-28 36.7-8 19-32.5 18.8 32.6 36.8 8-25 28L305 205z" transform="translate(206.4 89.1) scale(.50332)"/><path fill="#ffd500" fill-rule="evenodd" d="M325.2 192.3l2-18.9 15.3-5-17.3 23.9zm-10.7-33l18.5-4 9.5 13.1z"/><path fill="#ffd500" fill-rule="evenodd" d="M333 155.3l9.5-16.4v29.5l-9.5-13zm37.6 4l-18.5-4-9.6 13.1 28-9z"/><path fill="none" stroke="#d4a900" stroke-width=".3" d="M370.6 159.3L327 173.4m31 0l-43.5-14m45.4 32.9l-26.9-37m9.5-16.3v45.6m9.5-29.3l-26.8 37"/><path fill="none" stroke="#d4a900" d="M359.9 192.3l-17.4-7.7-17.3 7.7 2-18.9-12.7-14 18.5-4 9.5-16.5 9.6 16.4 18.5 4-12.7 14.1 2 18.9z"/><path fill="#ffd500" fill-rule="evenodd" d="M359.9 192.3l-17.3-7.7v-16.2l17.3 23.9z"/></svg>