<svg xmlns="http://www.w3.org/2000/svg" viewBox="0 0 600 400"><path fill="#fff" d="M0 0h600v400H0z"/><path fill="red" d="M26.7 27.4v139.7c0 7 5.6 12.5 12.6 12.5h40.2c6.9 0 12.5 5.6 12.5 12.6 0-7 5.6-12.6 12.5-12.6h40.2c7 0 12.6-5.6 12.6-12.5V27.5H26.7z"/><path fill="silver" d="M157 41.4c-1.9.2-3.8.5-5.4 1.5-1.2.6-2 1.7-2.4 3 0 .1-.3.5 0 .6l-.5.3c0-.2-.3 0-.5 0-1.6.2-3.1.8-4.1 2a7.8 7.8 0 00-1.5 5.6c0 1.2.3 2.5.7 3.6h-.6c-1.3 0-2.6 0-3.8.8a4 4 0 00-1.4 1.5c-.4.4-.4 1-.6 1.5 0 .4 0 .9-.4 1.2-.1 0 0-.3 0-.4 0-.3 0-.7-.4-.8l-1 .2c-1.2.3-2.1 1.5-2.5 2.7-.1.4-.1 1-.3 1.4-.2.7-1 1-1.5 1.5s-.8 1.3-1 2a6 6 0 001.2 3.2c.1.2.3.3.3.5s-.3 0-.3-.2c-.2-.3-.5-.6-.9-.5-.5.2-.7.8-1 1.2-.5.8-1.1 1.6-1.3 2.6a7 7 0 000 4.3c.3 1 .8 1.8 1.3 2.5.3.7 1 1 1.4 1.6v.3l-1.4-1.2c-.3 0 0 .4-.1.7a8 8 0 001.6 5.1c1.2 1.4 3 2 4.8 2l.1.1h-1.3a7.7 7.7 0 00-1 4.9c.2 1.5 1 2.9 2 4.1 0 .2.4.3.6.2.2-.1 0-.3.2-.4.6-.5 1.3-.7 2-1l2.2-.9v-.2l.7 1.3.3.6-.6.7c-.2.4-.2 1-.2 1.4.2 1 .8 2 1.3 2.8l1.3 1.8.2.3c-.3-.2-.4-.5-.7-.6-.4.2-.7.7-.8 1-.2.3-.1.6-.1.8.2 2 1 3.9 2.3 5.4.4.4.8 1 1.3 1.1l.5.1c.7 1 1.4 1.9 2.2 2.7l1 .4.3.2.3 1.4c-.3.3-.4.7-.6 1-.4.8-1 1.4-1.5 2 0 .3-.2.5-.3.7h-1c-1.3 0-2.2.8-3.3 1.3-1 .4-2 .2-3.1.2-1.3-.2-2.6-.2-3.9-.2-1 .7-2 1.5-3 1.8l-1 .3c-.1.3.1.5.2.8.5 1 1 2 1.7 2.8.3.4.8.6 1.2 1 .5.3 1 .6 1.3 1-.1.1-.4 0-.5-.1-.4-.2-.7-.5-1.2-.5-.3 0-.1.4-.2.7 0 1 .2 2.2.8 3 .6 1.3 1.7 2 2.7 2.8.2 0 .4.2.4.3-.1 0-.4 0-.4.2 0 .4.2.7.4 1 .5.9 1.1 1.7 2 2.1a7 7 0 002.8.8h-1l-.3 1.7c-.1 1.2-.4 2.5-.1 3.7.4 1.6 1.6 3 2.8 4 .3.4.8.5 1 1 .1 0 0 .1 0 0-.4-.2-.6-.5-1-.6-.3 0-.1.4 0 .6.4 2 1.2 3.8 2.4 5.4a19 19 0 0010.2 5.7V41.6l-.2-.2z"/><path fill="gold" stroke="#000" stroke-width=".4" d="M87.1 60.5l2.7 7.2-6.1-2.2v9.7l6-2.2-2.6 7.2H97L94.2 73l6 2.2v-9.7l-6 2.2 2.7-7.2H87z"/><path fill="gold" stroke="#000" stroke-linecap="square" stroke-width=".4" d="M95.6 70.3a3.6 3.6 0 11-7.3 0 3.6 3.6 0 117.3 0z"/><path fill="gold" stroke="#000" stroke-linecap="square" stroke-width=".4" d="M94 70.3a2 2 0 11-4 0 2 2 0 114 0z"/><path fill="gold" stroke="#000" stroke-linecap="square" stroke-linejoin="round" stroke-width=".2" d="M103 121.1l5-6.1c.9.4 1.5 1 1.7 2l-5 6c-1-.2-1.5-.9-1.7-1.9z"/><path fill="gold" stroke="#000" stroke-linecap="square" stroke-linejoin="round" stroke-width="3.3" d="M539.3 1246a137.1 137.1 0 11-274.3 0 137.1 137.1 0 11274.3 0z" transform="matrix(.15982 0 0 .16204 27.7 -100)"/><path d="M100.1 82.6v.5c7.1 3.2 12 10.4 12 18.8 0 11.3-9 20.4-20.1 20.4-7.7 0-14.3-4.3-17.8-10.7l-.5.1a20.6 20.6 0 0039-9.8A21 21 0 00100 82.6zm0 1.6v.5a19 19 0 0110.7 17.2 18.7 18.7 0 01-35 9.6h-.6a19.2 19.2 0 0036-9.6c0-7.9-4.5-14.6-11.1-17.7zm0 .8v.5c5.9 3 10 9.2 10 16.4a18 18 0 01-33.6 9.5H76a18.5 18.5 0 0034.5-9.5 19 19 0 00-10.5-17zm0 1.2l-.1.5c5.4 2.9 9 8.6 9 15.2a17 17 0 01-31.3 9.3h-.5a17.4 17.4 0 0032.2-9.3c0-6.8-3.8-12.8-9.4-15.7zm-.1 1v.5c4.8 2.8 8.1 8.1 8.1 14.2a16 16 0 01-29.5 9.2h-.4a16.4 16.4 0 0030.3-9.2c0-6.3-3.4-11.8-8.5-14.7zm0 1.5v.4a15.2 15.2 0 01-8 27.9c-5 0-9.3-2.4-12-6.1h-.4a15.2 15.2 0 0027.7-9c0-5.6-3-10.5-7.4-13.2zm-.1 1.8v.4a13.6 13.6 0 01-7.9 24.6c-4.1 0-7.8-1.9-10.3-4.9h-.4a13.7 13.7 0 0024.4-8.7 14 14 0 00-5.8-11.4zm0 2v.3A12 12 0 0192 114c-3.3 0-6.2-1.3-8.4-3.5h-.3a12 12 0 008.7 3.8 12.4 12.4 0 007.8-21.7zm-.1 1.8v.4a10.7 10.7 0 01-7.8 17.9c-2.5 0-4.9-1-6.7-2.4H85a10.8 10.8 0 0017.8-8.4c0-2.9-1.2-5.5-3-7.5zm-.1 2.3v.4a9.3 9.3 0 01-7.7 14 9 9 0 01-4.6-1.2h-.3a8 8 0 004.9 1.4 9.5 9.5 0 007.7-14.7z" font-family="Sans"/><path fill="gold" stroke="#000" stroke-linecap="square" stroke-linejoin="round" stroke-width=".3" d="M92 79.7c-1.4 0-2.7 0-4 .3l-.3 13.4c-8 .5-14.5 2.2-17.3 4.5a22.6 22.6 0 00.6 10.3c2.8-2.9 11.1-5 21-5s18.2 2.1 21 5a22.5 22.5 0 00.6-10.3s0 0 0 0c-2.8-2.3-9.4-4-17.3-4.5L95.9 80a25 25 0 00-4-.3z"/><path fill="gold" d="M108.2 128.3l-3.5 1.3c-.2 0-.6 0-.6.3.7 1.8 1.6 3.6 3 5 .5.6 1.3 1.1 2 .9 1.5-.4 2.8-1.1 4-2 0-.3-.1-.8-.5-.8-.7-.4-1.1-1-1.3-1.8-.3-.3-.8-.3-1-.7-.4-.3-.5-.9-.7-1.3-.4-.3-.8-.4-1.1-.8h-.3zm16.5-24c-1 .1-2.2.2-3 1a42.2 42.2 0 01-8.9 5.3c-.2.1-.5.4-.4.7.8.2 1.6.5 2.5.6.3 0 .7 0 1-.2l-.2-1.3 1.1.5.7-1.5c.2.1.5.7.7.6.5-.8 1.4-1.4 2.2-1.9-.5 1-1.5 2-1.5 3.2 0 .3 0 .5.2.7.7 0 1.2.5 1.7.9a4 4 0 00-1.3 2.2c-.2 1.6.3 3 .6 4.5l-4 4.2c0 .4.2.7.3 1 .3.3.8.5 1 .9.4.3.5.8.7 1.2.2.1.4.3.7.3.7-1 1.1-2 1.7-3.1 1.9-4 3.2-8.1 4.1-12.4.1-.3-.3 0-.4 0-.3 0-.7.4-1 .3-.3-.2.2-.5.3-.7 1.1-1.3 2.3-2.7 2.5-4.5.1-.8.2-1.7-.4-2.3l-.9-.1z"/><path d="M108.5 128.4c-.4.6-1.3 1.1-1 2 .3-.1.6-.3 1-.3 0 .6-.1 1.2-.3 1.7.3.2 1-.5 1.6-1.3l.5-.1c-.3-.3-.5-.8-.6-1.3-.5-.2-.9-.4-1.2-.7z"/><path fill="gold" d="M140.4 99c-1.2.5-2.8 1-4 1.6-.1.1-.3.3 0 .5 0 .1-.1.4-.4.3-1 0-2-.2-3 .3a4 4 0 00-1.8 1.6c.1.1-.1.4-.3.6l-.7-.3c-1.1.3-2.1.9-3 1.6-.5.2-.3.7-.4 1a11 11 0 01-2.4 4.8c-.1.2.1.2.2 0l.6-.2a55 55 0 01-5.2 15l-1 1.8c.2.2.6-.2.8-.2 1-.4 2-1 3-1.3 2.4 0 4.8.2 7.2.6a6 6 0 004.5-1.2l1.3-1c.3-.7.9-.1.8 0 .2.2.5 0 .7.1 1.6 0 3.1.3 4.6.2 1-.2 1.8-.8 2.7-1.2.8-.4 1.8-.3 2.7-.3l.7-1.3a5 5 0 001.4-3c0-.3-.7 0-.9-.2a9.5 9.5 0 01-3-3.7c-.3-.2-1-.5-1.3-.9a11 11 0 01-2.6-5.7c0-.6-.1-1.3.4-1.7l.6-.1c-.9-1.3-1.9-2.5-2.3-4a2 2 0 01.5-2c.4-.2 0-.7 0-1-.2-.1-.1-.6-.4-.7z"/><path fill="gold" stroke="#000" stroke-linecap="square" stroke-linejoin="round" stroke-width=".2" d="M116.3 137l5-6c1 .3 1.6 1 1.7 2l-5 6c-1-.2-1.5-1-1.7-2z"/><path fill="gold" stroke="#000" stroke-linecap="square" stroke-linejoin="round" stroke-width=".2" d="M123.2 141.6a4.3 4.3 0 11-8.7 0 4.3 4.3 0 118.7 0z"/><path d="M118.9 138.3h-.3c1.5.1 2.8 1.6 2.8 3.3 0 1.8-1.3 3.2-2.8 3.4h.3c1.7 0 3-1.5 3-3.4 0-1.8-1.3-3.3-3-3.3z"/><path fill="gold" stroke="#000" stroke-linecap="square" stroke-linejoin="round" stroke-width=".2" d="M130.6 143.2a4.3 4.3 0 11-8.7 0 4.3 4.3 0 118.7 0z"/><path d="M126.2 139.9h-.3c1.6.1 2.8 1.6 2.8 3.3 0 1.8-1.2 3.2-2.8 3.4h.3c1.7 0 3-1.5 3-3.4 0-1.8-1.3-3.3-3-3.3z"/><path fill="gold" stroke="#000" stroke-linecap="square" stroke-linejoin="round" stroke-width=".2" d="M130 134.5a4.3 4.3 0 11-8.8 0 4.3 4.3 0 118.7 0z"/><path d="M125.6 131.2h-.3c1.6.1 2.8 1.6 2.8 3.3 0 1.8-1.2 3.2-2.8 3.4h.3c1.7 0 3-1.5 3-3.4 0-1.8-1.3-3.3-3-3.3z"/><path fill="gold" stroke="#000" stroke-linecap="square" stroke-linejoin="round" stroke-width=".3" d="M126.8 137.9a4.6 4.6 0 11-9.2 0 4.6 4.6 0 119.2 0z"/><path d="M122.2 134.3a3 3 0 00-.3 0c1.6.2 3 1.7 3 3.6 0 1.8-1.4 3.4-3 3.5h.3c1.8 0 3.3-1.5 3.3-3.5s-1.5-3.6-3.3-3.6z"/><path fill="gold" stroke="#000" stroke-linecap="square" stroke-width=".4" d="M85 125.9c-.6 0-1.3.2-2 1 0 .2-.2.3-.3.5-1.5 2.8 2.2 7 5.3 5l4.8-3H92c-.7 0-1.5-.1-2.1-.5a53 53 0 01-1-.8l-2.2 1.5c1.5-1 .2-3.7-1.7-3.7z"/><path fill="gold" stroke="#000" stroke-linecap="square" stroke-width=".3" d="M85 125.9c-.6 0-1.3.2-2 1l-.1.2c-.7 2.6 2 5.9 5 4l3-1.8c-.4 0-.7-.2-1-.4a53 53 0 01-1-.8l-2.2 1.5c1.5-1 .2-3.7-1.7-3.7z"/><path fill="none" stroke="#000" stroke-linecap="square" stroke-width=".4" d="M83.8 129c-.7-2.1 1.2-2 1.9-1.8"/><path fill="#fff" d="M87.8 109.4h-.1c-.3 0-.8.3-.6.6.6.7 1 1.7.7 2.5-.3.6-1 .7-1.5.7-.3 0-.1.5-.1.7.4 2.4.9 5 1.9 7.2.6 1.1 1.3 2.2 2.2 3.2l.2.3c1.3 1.6 2.6 3 4.2 4.4.3.2.7.6 1.1.6l6.6.5c.6 0 1-.3 1.6-.4l4.2-1.6c.1 0 0-.3 0-.4l-.3-.6-1-.7c-.3-.3-.5-.8-.6-1.2-.1-.2-.3-.2-.5-.3-.4-.2-.8-.6-1-1 0-.3 0-.5-.2-.8l-.7-.4c-.4-.3-.7-.7-.9-1.2v-.1l-1.1.5c-.2.1-.5.2-.6.4l.3.6.6 1.1c.2.2.4.1.6.2-.5 0-1-.2-1.2-.7 0-.4-.2-.7-.4-1v-.2l-.2-.4a4.2 4.2 0 00-2-1.7h-.4c.6-.7.7-1.5.7-2.3 0-.8-.2-1.6-.4-2.4l-.8-1.2c.2-.8.3-1.8 0-2.6-.3-.6-.7-1.2-1.3-1.5-.4-.3-1-.3-1.4-.3-.4 0-.7 0-1 .2-.1.2.1.3.2.3h.4l-.1.1-.6.1v1.9l.1.7c.2.3.6.2.8 0 .4-.5.7-1.1.7-1.7 0-.4 0-.9-.5-1 .2 0 .4.1.5.4.2.4.2 1 0 1.4-.2.6-.7 1.2-1.4 1.3-.2 0-.2.2-.2.4 0 2.3.2 4.7.9 6.9a14 14 0 001.3 3l.2.4 1 1.5c-.5-.4-.9-1-1.1-1.5l-.3-.4c0-.3-.3-.6-.4-.9-.6-1-1.4-1.9-2.5-2-.2-.1-.1-.6-.2-.9-.2-1.6-.6-3-1.2-4.5 0-.5-.4-1-.8-1.3-.3-.3-.8-.6-.9-1 0-.3.4-.6.2-1a4 4 0 00-2.2-2.8h-.5zm-1.2.3c-.4.2-.6.6-.8 1-.2.4-.1 1 0 1.5 0 .3 0 .6.3.7.4.2 1 .2 1.2-.1.5-.5.5-1.3.3-2a2 2 0 00-.8-1h-.2zm-5.9.9c-.1.2.1.3.1.4.4.8.6 1.7.4 2.6-.1.5-.6 1-1 1-.2.1-.5.1-.4.3.7 3.1 2.4 6 4.4 8.4a40 40 0 005.7 5.6c.6.4 1.4.5 2.1.5l2.4-.2c.2 0 0-.3-.2-.4l-4.2-4.6c-.8-.8-1.2-2-2-2.8l-.6-.5-.6-2.3a8 8 0 00-2.2-3.9l-.5-.5c-.4-1-.7-2-1.4-2.7a2.5 2.5 0 00-2-1zm-.6 0c-.7.3-1.2.9-1.4 1.5.3.8.5 1.6 1 2.3.5.2 1.2-.3 1.3-.8.4-1 .2-2.2-.6-2.8l-.3-.1zm32 .8c-.3.2-.3.6-.5.9-.7 1.2-1.4 2.4-2.3 3.5 0 .4.3.7.4 1 .3.4.7.5 1 .8l.7 1.3c.3.3.8.5 1 .8.4.4.5.8.6 1.2.4.3.9.4 1.1.8.4.4.5.8.7 1.2l1 .8 2.2-2.3c.6-.6 1.3-1.2 1.8-1.9-.2-1.5-.7-3.1-.4-4.7.1-.7.5-1.3 1-1.8 0-.2-.5-.2-.7-.4-.4-.1-.9-.5-1.4-.3-.7 0-1.4 0-2.1.2-1.1-.3-3.2-1-4-1zM74.4 115c-.5 0-1 .3-1.2.7 0 .4.6.6.8.8.6.4 1.4.8 1.6 1.6.1.4 0 .8-.2 1.2 1.7 1.3 3.3 2.7 4.7 4.4a5.6 5.6 0 004.4 1.3c.2-.2-.1-.5-.2-.7-1-1.5-1.9-3-2.7-4.6-.6-.9-1.2-2-2.3-2.2l-1.2-.1c-1-.9-2-2-3.4-2.4h-.3zm-1.4 1c-.4.1-.3.6-.2.9.5.7 1.3 1 2 1.6 0 0 .3.3.5.1.4-.5 0-1.1-.4-1.5-.5-.5-1.2-1-2-1.1z"/><path d="M120.5 108a6 6 0 00-2.3 2l-.7-.7-.7 1.6-1.1-.6.3 1.5-1.2.1-2.9-.8c0 .6 1.1.4 1.6.7l1.6.5c1.5 1.8 1 6 .3 9 1-3.3 1.3-5.2.8-8.8h.8l1.8-.2 1.5.7a4 4 0 00-1.1 3c0 1.2.3 2.4.6 3.5l-4.2 4.3.4.1c1.7-1.2 2.9-3 4.1-4.2l-.6-3.7c.2-1.6.5-2.3 1.4-3.1-.3-.1-.5-.5-.8-.6l-.5-.3h-.5c-.6-1.6.8-2.7 1.4-4zm-33 1.2c-1.5 0-2.3 1.7-2 3 .6 1.6.7 3.2 1 4.8-.5-1.7-2.2-2.6-2.8-4.1-.5-1.7-2.4-3.2-4.1-2.2-.6.4-1.5 1.2-1 2 .7 1.4 1.2 2.8 1.6 4.3.8 1.2-1.6 0-2.2 0-1.2-1.1-3-3.3-4.7-1.8-.6.6-1.6 1.8-.2 2.3 2.4 2 5.1 4 7.1 6.5a10 10 0 005.5 1.3c1.5 1.4 3 3.2 4.9 4.2 1.5.5 3.6-.7 4.7.5l7.5.3c1.7-.6 3.3-1.3 5-1.8l.7-.2-.1-.3c-2 .5-4 1.5-5.7 2-2.4 0-4.7-.4-7.1-.5-1-.4-5.9-5.2-7.6-8.8-1-2.4-1.4-5-1.8-7.4 2.3.2 2.2-2.2.9-3.5.9-1.2 3.6 1.3 3.4 3-1 1.1 1.3 1.3 1.4 2.7.7 1.8 1.2 3.7 1.3 5.6 1.8 0 2.6 2 3.4 3.3.2.8 2.1 2.6.9 1a17.9 17.9 0 01-3-11.7c1.5 0 2.5-3.3.5-3.4-1.8 0 1-.8 2.1.1 1.6 1.4 1 3 .9 4a3 3 0 011 1.6c.2 1.3.6 3.2-.6 4.2 1.7.1 2.6 1.7 3.1 3.1 0 1.3 2.8 1.2.8.7-.8-1.5-2-3.6-3.2-4.1.5-1.9.4-4.2-.9-5.7.5-1.8 0-4.4-2.4-4.3-1.3 0-1.7.2-1.6.8 0 1.8.1 2.5 0 3.2 0 1.7.5 6.3 1.1 8-1-1-2.3-1-2-2.8-.5-2-1-4.1-2.5-5.5-.1-1.3-.6-3.6-2.3-4.2a2 2 0 00-1-.2zm-.9.6c1.7 1 1.3 4-.6 3-.4-1-.4-2.5.6-3zm8.4.8c2 0 .1 3.6-.6 2.5v-2.5h.3zm-14.3 0c2.1 0 2.9 2.5 3.5 3.8 2 1.5 2.6 4.2 3 6.6 1.2.3 1.8 2.3 2.8 3.3l4.4 4.9c-1.6 0-3.6.6-4.8-.7-4.4-3.6-8.4-8-9.8-13.7 2.4-.4 1.5-3.3 1-4.1zm-.5.1c1.5 1 1.2 4-.6 3.7l-.9-2.3c.3-.6.8-1.2 1.5-1.4zm-5.8 4.2c1.6.1 2.6 1.7 3.8 2.5 2.4-.4 3 2 4 3.6.7 1.3 2.2 3 2.4 3.8-1.8 0-3-.1-4.4-1.2-1.3-1.7-3-3.1-4.7-4.5 1.2-2-2-2.7-2.2-3.5.2-.4.7-.7 1.1-.7zm-1.5 1.3c1.3 0 3.3 1.8 2.2 2.6-.6-.8-2.9-1.6-2.2-2.6z" font-family="Sans"/><path fill="silver" stroke="#000" stroke-linecap="square" stroke-width=".4" d="M30.3 30.3s1.8 7.2 3.1 8.8l41 49.6a20 20 0 016.6-6l-42.4-48c-1.4-1.6-8.3-4.4-8.3-4.4z"/><path fill="silver" stroke="#000" stroke-linecap="square" stroke-width=".3" d="M33.8 34.3s.3 3.1 1.1 4.1L75.7 87c1-1.2 2.2-2.2 3.5-3.2L37.7 36.1c-.9-1-3.9-1.8-3.9-1.8z"/><path d="M124.8 104c-1.3 0-2.7.2-3.6 1.2l-9 5.2-.3.7.4.1.3-.5c4.1-1.8 7-3.5 9.1-5.3.8-.9 2-1 3.1-1 1.6-.1 1.3 2.1 1 3.2-.4 1.7-1.6 3-2.8 4.2.1.7.6 0 1 0 1.1-.9.4.7.3 1.3a49 49 0 01-5.6 14.2l.3.3a58.5 58.5 0 006.3-16.9c-.5.2-1.6.9-.6 0 1.1-1.6 2.3-3.3 2.2-5.2 0-1-1.1-1.6-2-1.5zm-20.7 25.8l-.4.2c.8 2.1 2 4.2 3.6 5.7 1.4 1.2 3.2 0 4.5-.6l1.6-1-.2-.4c-1.3 1-2.8 1.8-4.4 2.1-1.5 0-2.3-1.6-3-2.7-.7-1-1.3-2.1-1.7-3.3z" font-family="Sans"/><path d="M140.3 98.6c-.2.1-.8.4-1.1.4a20 20 0 00-2.7 1.1l-.7.6v.3a6 6 0 00-3 .3c-.8.4-1.5 1-2 2a8.7 8.7 0 00-4.3 1.9v.2c0 .7-.2 1.8-.8 2.9-.5 1-1.3 2.1-2 2.8l-.1.5-.2.5.5-.2.8-.4a49.4 49.4 0 01-6.4 16.5v.2l-.2.4.4-.2 4.3-2c3.2 0 4.8.3 6 .5 1.3.2 2 .3 3.5 0a7 7 0 002.5-1l1-1 3.5.2c1.1.1 2.1.2 2.7.1.7 0 1.3-.5 2-.8a5 5 0 012-.7h1.2v-.4H146c-.8 0-1.5.4-2.2.7-.6.4-1.2.7-1.8.8l-2.6-.1-2.6-.1c1-3.7 2.8-6.8.2-12.3l.8-1.4-.3-.1-1.4 1.3c2.6 4.4 1.4 8.4-.2 12.5h-.2l-1 .9c-.7.4-1.6.9-2.4 1-1.4.3-2 .2-3.3 0-1.2-.2-3-.5-6.2-.5l-3 1.4c2.5-4 4-9 5.5-16.3v-.4l-.3.2-.7.3c.7-.7 1.4-1.7 2-2.7.4-1.1.8-2.2.7-3 1-.8 1.9-1.6 3.4-1.8 1.2.4 2.8 1 3.5 2 .6.7 1 1.4 1.2 2.1l.4-.1a7 7 0 00-4.2-4.3 4 4 0 011.9-1.7c.8-.4 1.8-.5 3.2-.2l2.6 1-2.5-1.4a.6.6 0 01-.2-.2l.5-.4c.5-.3 1.5-.7 2.6-1l1.2-.5-.2-.4zm-10.9 9.7s-.2 0-.2.2c0 0-.6 6.1-.4 8.2 0 .5 1.7 2.2 1.7 2.2.3.3.4 0 .3-.2 0 0-1-1.4-1.3-2.2-.7-2.6.1-8 .1-8 0-.1 0-.2-.2-.2z" font-family="Sans"/><path fill="gold" stroke="#000" stroke-linecap="square" stroke-width=".4" d="M119 97.2h-.8c-4.6 1.2-1.8 6.7.9 5.4l-5.5 2.9c-.3 1.8-.8 3.6-1.5 5.3l9-5.3c3.9-2.2 1.5-8.4-2.1-8.3z"/><path fill="gold" stroke="#000" stroke-linecap="square" stroke-width=".4" d="M118.5 97.2h-.3c-4.6 1.2-1.8 6.7.9 5.4l-5.5 2.9-.8 3.5 7-4.3c3.2-1.9 1.6-6.9-1.3-7.5z"/><path fill="none" stroke="#000" stroke-linecap="square" stroke-width=".4" d="M117.4 99.2c-.7 1.1 0 2.8 1.7 2.2"/><path d="M137 112.4c2.5 5.4.7 8.6-.3 12.2a46 46 0 015.2.2c.6 0 1.2-.4 1.8-.8.7-.3 1.4-.7 2.2-.8h1.4l.5-1.3.2-.4c-2.5 0-5 0-7.5 1.2-.3-5-1-9-3.6-10.3zm-7.4-4v.1s-.8 5.4 0 8c.2.8 1.2 2.2 1.2 2.2v.2c.8-.3 1.2-1 1.7-1.6-3.3-2.6-1.6-5.9-2.2-8.9z" opacity=".5"/><path d="M125.2 111.3a51.2 51.2 0 01-6 16.3l3.4-1.6h.1c3.3 0 5 .3 6.2.5a6.7 6.7 0 005.6-1l1.1-.9h.2l.6-1.6c-3.4.8-3 2.2-12.7.9 2-4.1 1.8-8.4 1.5-12.6z" opacity=".5"/><path fill="gold" stroke="#000" stroke-linecap="square" stroke-linejoin="round" stroke-width=".2" d="M114.7 135l5-6c.8.3 1.5 1 1.6 2l-5 6c-1-.2-1.4-1-1.6-2z"/><path fill="gold" stroke="#000" stroke-linecap="square" stroke-linejoin="round" stroke-width=".2" d="M113 133l5-6c.9.3 1.5 1 1.7 2l-5 6c-1-.2-1.5-1-1.7-2z"/><path fill="gold" stroke="#000" stroke-linecap="square" stroke-linejoin="round" stroke-width=".2" d="M111.3 131l5-6c1 .3 1.6 1 1.7 2l-5 6c-1-.2-1.5-1-1.7-2z"/><path fill="gold" stroke="#000" stroke-linecap="square" stroke-linejoin="round" stroke-width=".2" d="M109.7 129l5-6c.8.4 1.5 1 1.6 2l-5 6c-1-.2-1.5-1-1.6-2z"/><path fill="gold" stroke="#000" stroke-linecap="square" stroke-linejoin="round" stroke-width=".2" d="M108 127l5-6c.9.4 1.5 1 1.7 2l-5 6c-1-.2-1.5-1-1.7-2z"/><path fill="gold" stroke="#000" stroke-linecap="square" stroke-linejoin="round" stroke-width=".2" d="M106.3 125l5-6c.9.4 1.5 1 1.7 2l-5 6c-1-.2-1.5-.9-1.7-2z"/><path fill="gold" stroke="#000" stroke-linecap="square" stroke-linejoin="round" stroke-width=".2" d="M104.7 123l5-6c.8.4 1.5 1 1.6 2l-5 6c-1-.2-1.5-.9-1.6-2zm8.3 10l5-6c.9.3 1.5 1 1.7 2l-5 6c-1-.2-1.5-1-1.7-2z"/><path fill="gold" stroke="#000" stroke-linecap="square" stroke-linejoin="round" stroke-width=".2" d="M113 133l5-6c.9.3 1.5 1 1.7 2l-5 6c-1-.2-1.5-1-1.7-2z"/><path d="M157.2 41.2c-4.4.3-6.5 1.6-7.6 3.2a7 7 0 00-.8 2c-2 .2-3.6 1-4.6 2-1 1-1.6 2.4-1.8 3.9a13 13 0 00.7 6l-.1.2c-3 4.5-3.4 7.9-2.3 10.7.8 2 2.3 3.6 4.1 5.2v.4a10 10 0 002.9 7.8v.2l-.7 1.4c-1.6.3-2.7.7-3.4 1.2-.7.6-1 1.3-1.1 2-.1 1 0 2 .3 2.9-1.1 1.3-2.4 2-3 3.4-.5 1.3-.4 3.3 1 6.7-.6.7-.8 1.6-.5 2.7.3 1 1 2.2 2 3.5a2 2 0 00-.8 1.2c-.1.5-.4 1.4-.2 2.1.6 1.5 1.5 4.5 4 5.3l2 2.6c.6.8.9 1.3 1.7 1.3.4.3-.1.5-.6 1.4l-1 2.3c-.4.6-.4 1.7-.2 2.6v.2a2 2 0 00-.7 1.3c0 .5 0 1 .3 1.5l.6 1.2v.1c-.1.7-.4 1.2-.5 2.2 0 1 .3 2.2 1.3 4.4-.3 3.4.5 5.8 1.7 7.4 1 1.2 2.1 2 3.3 2.4-.2 0-.3 0-.4.3v.6l1.2 1.7c.7 1.5 1.9 3.2 3.1 4.6l.3-.2c-1-1.4-2.4-3.1-3.2-4.6-.4-.7-.9-1.2-1-1.6-.1-.3-.2-.5.1-.5.6 0 1 0 1.4-.3a7 7 0 01-4.5-2.6 13 13 0 01-1.7-7.3c-.5-1.3-1.3-2.9-1.2-4.3 0-.7.2-1.2.3-1.8l1.1 1.4c.5.4.7.4.3-.2-.6-1-1.5-2-1.9-3l-.3-1.4c0-.3.2-.5.4-.8l.4 1 .3-.2-.4-1.6c-.1-.8-.2-1.8.2-2.3l1.2-2c.2-.5.7-.9.8-1.2v-.7c.8 1.5 2.3 2.2 3.8 3l.3-.3c-1.2-.8-2.7-1.1-3.3-2.9-.1-.7-.6-.4-1-.5-.3 0-.5-.4-.5-.4-.6 0-.9-.1-1.5-.8l-1.8-2.3c-1 .6-4-3.4-4-7 .2-.4.4-.8.8-1l.4.4c.6.6.4 0 .2-.2a14 14 0 01-2.5-4.1c-.3-1 0-1.9.6-2.5h.2l-.2-.3c-1.5-3.4-1.6-5.2-1-6.4.4-1.2 1.7-2.2 2.6-3l.3 1.4h.3c0-1.6-.7-3.3-.6-4.7 0-.7.4-1.3 1-1.8a7 7 0 013.3-1.2h.1l.6-1.4 1.5 1.2.2-.2c-2.2-2.3-4.5-4.4-4.4-9l2 1.2.3-.2a18.9 18.9 0 01-6.4-7c-1-2.7-.8-6 2.1-10.2l.6 1 .3-.2c-.8-1.5-1.7-4.6-1.3-7.4.2-1.4.7-2.7 1.7-3.7s2.3-1.6 4.3-1.8l-.7 3c0 .4 0 .2.3 0l1-3.2c0-.2 0-.2-.2-.2a5 5 0 01.8-1.8c1-1.6 3-2.8 7.4-3z" font-family="Sans"/><path d="M142.9 57.7c-1.8 0-4 .2-5.1 1.8-.9.9-.7 2.6-2.3 2.2-2 .2-3.1 2-3.3 3.9-.1 1.3-2 1.7-2.3 3-.9 1.2.4 2.7.1 3.7a8 8 0 00-2.4 8.3c0 1.1 1.5 2.3 1.1 2.9-.1 2.6.4 5.8 2.8 7.3 1.6 1 3.6 1.2 5.4 1 .4 1 3.1 2.4 3.2 1.6-1.2 0-2.4-1-3.1-1.8-2.5.2-5.4-.2-6.8-2.5a9.4 9.4 0 01-1.1-5.2l1.4 1.3c.5-.6-1.2-1.3-1.3-2a7.7 7.7 0 01-.8-8.2c.5-.7 1.4-2.8 2.2-2.3.3.2.5 1 .8.6-1-1.3-2-3.1-1-4.8.3-1.2 2.1-1.5 2-2.8.3-1.7 1.3-3.4 3-3.7 1.1-.5 1 .3 1 1 .8 0 .4-2 1.2-2.7.8-1.6 2.7-2.3 4.4-2.2.3-.2 1.3.2.9-.4z" font-family="Sans"/><path d="M133.8 91.7c-.5 1.2-1 2.5-1 3.9a9 9 0 002 5.3h.4a9 9 0 01-2-5.3c0-1.4.4-2.6 1-3.8h-.4zm-2 35.3h-.4l.7 1.6 2.1 3a6 6 0 002 5.8c1 .6 1.2 1.6 1.7 2.6.9 1.9 2.9 3 5 3 1.1 0 2.1.1 2.6 1.4a8 8 0 007.7 3l-.2-.2c-2.2.2-4.5-.3-6-1.8-1-.7-1.5-1.8-2.2-2.6-2.1 0-4.6-.1-6-2-.3-.4-1.4-2-.8-1.9 1.1.2-.8-1-1.1-1.2a5.6 5.6 0 01-2.4-5.2c-.4-1.4 1.6.9 1.8 0l-2-1.6c-.6 0-1.5-1.8-2-2.7l-.5-1.2z" font-family="Sans"/><path d="M141.8 142.7c0 2.1-1 4.2-.2 6.2a9.4 9.4 0 002.3 3.3 14 14 0 005.4 9c2 1.5 4.2 2.6 6.5 3.2.4 0 1.8.5 1.4-.1-2.4-.4-4.7-1.4-6.8-2.8a12 12 0 01-5.7-7.5c0-.4-.6-1.7 0-1l.9.5c.5-.6-1-.9-1.2-1.4-1.6-1.3-2.9-3.2-2.7-5.3 0-1.4.4-2.7.4-4h-.3z" font-family="Sans"/><path fill="#fbe403" stroke="#000" stroke-width=".5" d="M92 79.7h-2l-.5 15.5c-3.8.2-14.5 1.5-19.3 4.7a22.8 22.8 0 00.2 6 49.6 49.6 0 0143.1 0 22.6 22.6 0 00.3-6 51.7 51.7 0 00-19.3-4.7L94 79.8l-2-.1z"/><path fill="gold" stroke="#000" stroke-linecap="square" stroke-linejoin="round" stroke-width=".5" d="M94.7 97.8a3.2 3.2 0 11-6.4 0 3.2 3.2 0 016.4 0z"/><path stroke="#000" stroke-width=".1" d="M91.5 95.4h-.2c1.1.1 2 1.2 2 2.4 0 1.3-.9 2.4-2 2.5h.2c1.2 0 2.2-1 2.2-2.5 0-1.3-1-2.4-2.2-2.4z"/><path fill="gold" stroke="#000" stroke-linecap="square" stroke-linejoin="round" stroke-width=".5" d="M100.1 98.5a2.5 2.5 0 11-5 0 2.5 2.5 0 015 0z"/><path stroke="#000" stroke-width=".1" d="M97.6 96.6h-.2c1 .1 1.6 1 1.6 2s-.7 1.8-1.6 1.9h.2c1 0 1.8-.9 1.8-2 0-1-.8-1.9-1.8-1.9z"/><path fill="gold" stroke="#000" stroke-linecap="square" stroke-linejoin="round" stroke-width=".5" d="M105.3 99a2.5 2.5 0 11-5 0 2.5 2.5 0 015 0z"/><path stroke="#000" stroke-width=".1" d="M102.8 97.2h-.1c.9 0 1.6.9 1.6 1.9a2 2 0 01-1.6 2h.1c1 0 1.8-1 1.8-2s-.8-2-1.8-2z"/><path fill="gold" stroke="#000" stroke-linecap="square" stroke-linejoin="round" stroke-width=".5" d="M110 100.6a2.5 2.5 0 11-5 0 2.5 2.5 0 015 0z"/><path stroke="#000" stroke-width=".1" d="M107.5 98.6h-.1c.9.1 1.6 1 1.6 2s-.7 1.8-1.6 2h.1c1 0 1.8-1 1.8-2s-.8-2-1.8-2z"/><path fill="gold" stroke="#000" stroke-linecap="square" stroke-linejoin="round" stroke-width=".5" d="M114.7 102.3a2.5 2.5 0 11-5 0 2.5 2.5 0 015 0z"/><path stroke="#000" stroke-width=".1" d="M112.1 100.3h-.1c.9.1 1.6 1 1.6 2s-.7 1.8-1.6 1.9h.1c1 0 1.8-.9 1.8-2 0-1-.8-1.9-1.8-1.9z"/><path fill="gold" stroke="#000" stroke-linecap="square" stroke-linejoin="round" stroke-width=".5" d="M88.4 98.5a2.6 2.6 0 11-5.2 0 2.6 2.6 0 015.2 0z"/><path stroke="#000" stroke-width=".1" d="M85.8 96.5h-.2c1 0 1.7 1 1.7 2s-.7 1.8-1.7 2h.2c1 0 1.8-1 1.8-2 0-1.1-.8-2-1.8-2z"/><path fill="gold" stroke="#000" stroke-linecap="square" stroke-linejoin="round" stroke-width=".5" d="M83.2 99.3a2.6 2.6 0 11-5.1 0 2.6 2.6 0 015.1 0z"/><path stroke="#000" stroke-width=".1" d="M80.7 97.3h-.2c1 .2 1.7 1 1.7 2s-.8 2-1.7 2h.2c1 0 1.8-.9 1.8-2 0-1-.8-2-1.8-2z"/><path fill="gold" stroke="#000" stroke-linecap="square" stroke-linejoin="round" stroke-width=".5" d="M78.4 100.7a2.6 2.6 0 11-5.2 0 2.6 2.6 0 015.2 0z"/><path stroke="#000" stroke-width=".1" d="M75.8 98.7h-.2c1 .1 1.7 1 1.7 2s-.7 1.9-1.7 2h.2c1 0 1.8-.9 1.8-2 0-1-.8-2-1.8-2z"/><path fill="gold" stroke="#000" stroke-linecap="square" stroke-linejoin="round" stroke-width=".5" d="M73.5 102.4a2.6 2.6 0 11-5.2 0 2.6 2.6 0 015.2 0z"/><path d="M70.9 100.4h-.2c1 .1 1.7 1 1.7 2s-.7 1.9-1.7 2h.2c1 0 1.8-.9 1.8-2 0-1-.8-2-1.8-2z"/><path fill="gold" stroke="#000" stroke-linecap="square" stroke-linejoin="round" stroke-width=".5" d="M94.4 91.9a2.5 2.5 0 11-5 0 2.5 2.5 0 015 0z"/><path stroke="#000" stroke-width=".1" d="M91.9 90h-.2c1 0 1.7.9 1.7 1.9 0 1-.8 1.8-1.7 2h.2c1 0 1.8-1 1.8-2s-.8-2-1.8-2z"/><path fill="gold" stroke="#000" stroke-linecap="square" stroke-linejoin="round" stroke-width=".5" d="M94.5 86.9a2.5 2.5 0 11-5 0 2.5 2.5 0 015 0z"/><path stroke="#000" stroke-width=".1" d="M92 85h-.2c1 0 1.6.9 1.6 1.9a2 2 0 01-1.6 2h.2c1 0 1.7-1 1.7-2s-.8-2-1.7-2z"/><path fill="gold" stroke="#000" stroke-linecap="square" stroke-linejoin="round" stroke-width=".5" d="M94.5 82.6a2.5 2.5 0 11-4.8-1.5 2.5 2.5 0 014.8 1.5z"/><path stroke="#000" stroke-width=".1" d="M92.6 80h-.1c.8.3 1.3 1.3 1 2.3-.3 1-1.2 1.5-2.1 1.3l.1.1c1 .3 2-.3 2.3-1.4.3-1-.2-2-1.2-2.3z"/><path fill="gold" stroke="#000" stroke-linecap="square" stroke-width=".2" d="M87.6 50.9a34.3 34.3 0 00-7.1.4c1 1 5.8 1.8 11.5 1.8s10.5-.8 11.5-1.8c0 0 0 0 0 0-3.7-.7-7.5-.4-11.5-.4h-4.4z"/><path fill="gold" stroke="#000" stroke-width=".3" d="M85.1 34.7c-2 0-5.9 3-6.5 5-.8 2.5-.4 5 1.7 7.7h0s0 0 0 0c3.5-.6 7.8-.7 11.7-.7 4 0 7.6 0 11.6.7 0 0 0 0 0 0h0a7.8 7.8 0 001.8-7.8c-.6-2-4.5-5-6.5-5l-3.2.1c-1.5.6-2.6 1.4-3.7 2.3a13 13 0 00-3.6-2.3z"/><path fill="gold" stroke="#000" stroke-linecap="square" stroke-width=".3" d="M92 34c-1.1.5-1.8 1-2.3 1.4.9.5 1.6 1 2.3 1.6.7-.6 1.4-1.1 2.3-1.6-.5-.4-1.2-.9-2.3-1.4z"/><path d="M98.9 34.7h-.5l-.3.9-.8-.3v.5l.6.2c-.1.5-.4 1-.6 1.4v1l.2-.4 1.4.8-.7 1.5-1-.6v.6l.8.4a6 6 0 01-.8 1.2v.6l.3-.2.9-1.3 1.4 1.1-.9 1.7c-.5-.4-1-.8-1.7-1.1v.5l1.5 1a19.5 19.5 0 01-1.5 2.1v.5h.3a20.1 20.1 0 001.6-2.3l1 .9c-.4.6-.9 1.1-1.4 1.4l.8.1a4 4 0 001-1.2l1 .8a6 6 0 01-.6.5l.7.1.2-.3.4.4 1 .1-1-.9.6-1 1.3 1.5.3-.4L103 45l.8-1.5 1.3 1.5c0-.2 0-.4.2-.5L104 43v-.2l.6-1.2 1 1.2V42c-.2-.4-.6-.7-.9-1l.5-1.7-.4-.7c0 .6-.2 1.2-.4 1.9l-1-1.2.3-2-.5-.5c0 .6 0 1.3-.3 2.1l-1-1 .3-2-.6-.3v.2c.1.4 0 1-.2 1.7l-1.3-1 .5-1.4a7 7 0 00-.5-.2c0 .4-.2.9-.4 1.4l-1.2-.6a17.4 17.4 0 00.3-1.1zm-.5 1.5l1.2.7-.5 1.4-1.3-.7.6-1.4zm1.7 1l1.3 1v.2l-.5 1.2a15 15 0 00-1.4-1l.6-1.4zm1.7 1.3l1 1c0 .6-.2 1-.4 1.6l-1.1-1.1.5-1.5zm-2.5.6l1.4 1-.7 1.5-1.4-1 .7-1.5zm4 1l1 1-.6 1.5-1-1.1.6-1.5zm-2.2.4l1 1.1v.4l-.6 1.1a20 20 0 00-1-1.1l.6-1.5zm1.5 1.5l.9 1.1-.7 1.5-1-1 .7-1.4V42zm-2.4.5l1 1.1-.7 1.4-1.2-1 .9-1.5zm1.4 1.5l.9 1-.7 1.1-1-.8.8-1.3z" font-family="Sans"/><path fill="none" stroke="#000" stroke-linecap="square" stroke-width=".2" d="M95.2 35c-.7.2-1.3.6-1.8 1v10.5h1.8z"/><path d="M95.2 35c-.7.2-1.3.6-1.8 1v.3l1.8-1.2zm-1.8 2l1.7-1.2v.4l-1.7 1.3zm0 1.1L95 37v.4l-1.7 1.3zm0 1.2L95 38v.5l-1.7 1.2zm0 1.1l1.7-1.2v.4l-1.7 1.2zm0 1.1l1.7-1.2v.4L93.4 42zm0 1.2l1.7-1.3v.5L93.4 43zm0 1.1l1.7-1.3v.5l-1.7 1.2zm.1 1.2l1.7-1.3v.4l-1.7 1.2zm0 1l1.7-1.2v.4l-1.7 1.3z"/><path fill="gold" stroke="#000" stroke-linecap="square" stroke-width=".1" d="M93.4 36l-.4.2v.5h.4zm-.4.8h.4v.8H93zm0 .8h.4v.8H93zm0 .8h.4v.8H93zm0 .9h.4v.8H93z"/><path fill="gold" stroke="#000" stroke-linecap="square" stroke-width=".1" d="M93 40h.4v.9H93zm0 .9h.4v.8H93zm0 .9h.4v.7H93zm0 .7h.4v.8H93zm0 .8h.4v.8H93zm0 .9h.4v.8H93zm0 .8h.4v.8H93zm0 .8h.4v.8H93z"/><path fill="gold" stroke="#000" stroke-width=".2" d="M80.5 50.4c-.3.5-.3.7.1 1 3.6-.8 7.4-.5 11.4-.5s7.8-.3 11.4.5c.4-.3.5-.5.1-1C99.7 50 96 50 92 50c-3.9 0-8 0-11.5.4z"/><path d="M92 47.5c-4 0-7.8 0-11.5.9v2C84.3 50 88 50 92 50s7.7 0 11.5.4v-2c-3.7-1-7.5-.9-11.5-.9z"/><path d="M85.1 34.7h.5l.3.9.8-.3h.1v.5l-.7.2.6 1.4h.1v1l-.3-.4-1.4.8.7 1.5 1-.6v.6l-.8.4.8 1.2v.6l-.3-.2-.9-1.3-1.4 1.1.9 1.7c.5-.4 1-.8 1.7-1.1v.5l-1.5 1a19.5 19.5 0 001.5 2.1v.5h-.3a20.1 20.1 0 01-1.6-2.3l-1 .9c.4.6 1 1.1 1.4 1.4l-.8.1a4 4 0 01-1-1.2l-1 .8.6.5-.7.1-.2-.3-.4.4-1 .1 1-.9-.6-1-1.3 1.5-.2-.4 1.2-1.5-.8-1.5L79 45l-.2-.5L80 43v-.2l-.5-1.2-1.1 1.2V42l.9-1a19 19 0 01-.5-1.7l.4-.7c0 .6.3 1.2.5 1.9l1-1.2c-.2-.7-.4-1.4-.4-2l.5-.5c0 .6 0 1.3.3 2.1l1-1-.3-2 .6-.3v.2c-.1.4 0 1 .2 1.7l1.3-1-.5-1.4.5-.2c0 .4.2.9.4 1.4l1.2-.6a17.4 17.4 0 01-.3-1.1zm.5 1.5l-1.2.7.5 1.4 1.3-.7-.6-1.4zm-1.6 1l-1.4 1v.2l.5 1.2 1.4-1-.5-1.4zm-1.8 1.3l-1 1c0 .6.2 1 .4 1.6l1.1-1.1-.5-1.5zm2.5.6l-1.4 1 .7 1.5 1.4-1-.7-1.5zm-4 1l-1 1 .6 1.5 1-1.1-.6-1.5zm2.2.4l-1 1.1v.4l.6 1.1 1-1.1-.6-1.5zM81.5 42l-1 1.1.7 1.5 1-1-.7-1.4V42zm2.3.5l-1 1.1.7 1.4 1.2-1-.9-1.5zM82.4 44l-.9 1 .7 1.1 1-.8-.8-1.3z" font-family="Sans"/><path fill="none" stroke="#000" stroke-linecap="square" stroke-width=".2" d="M88.9 35c.6.2 1.2.6 1.7 1v10.5H89z"/><path d="M88.9 35c.6.2 1.2.6 1.7 1v.3L89 35.1zm1.7 2L89 35.8v.4l1.7 1.3zm0 1.1L89 37v.4l1.7 1.3zm0 1.2L89 38v.5l1.7 1.2zm0 1.1L89 39.2v.4l1.7 1.2zm0 1.1L89 40.3v.4l1.7 1.3zm0 1.2L89 41.4v.5l1.7 1.2zm0 1.1L89 42.5v.5l1.7 1.2zm-.1 1.2l-1.7-1.3v.4l1.7 1.2zm0 1l-1.7-1.2v.4l1.7 1.3z"/><path fill="gold" stroke="#000" stroke-linecap="square" stroke-width=".1" d="M90.6 36l.4.2v.5h-.4zm.4.8h-.4v.8h.4zm0 .8h-.4v.8h.4zm0 .8h-.4v.8h.4zm0 .9h-.4v.8h.4z"/><path fill="gold" stroke="#000" stroke-linecap="square" stroke-width=".1" d="M91 40h-.4v.9h.4zm0 .9h-.4v.8h.4zm0 .9h-.4v.7h.4zm0 .7h-.4v.8h.4zm0 .8h-.4v.8h.4zm0 .9h-.4v.8h.4zm0 .8h-.4v.8h.4zm0 .8h-.4v.8h.4z"/><path d="M95.7 34.6h1v11.6h-1z"/><path fill="gold" stroke="#000" stroke-linecap="square" stroke-width=".1" d="M96.7 34.6h.5v.8h-.5zm0 .9h.5v.8h-.5zm0 .8h.5v.8h-.5zm0 .8h.5v.8h-.5zm0 .9h.5v.8h-.5zm0 .8h.5v.8h-.5zm0 .8h.5v.7h-.5zm0 .8h.5v.8h-.5zm0 .8h.5v.8h-.5zm0 .8h.5v.8h-.5zm0 .9h.5v.8h-.5zm0 .8h.5v.8h-.5zm0 .8h.5v.8h-.5zm0 .9h.5v.7h-.5zm-1-10.7l-.6.2v.6h.6zm-.6.9h.5v.8h-.5zm0 .8h.5v.8h-.5zm0 .8h.5v.7h-.5zm0 .8h.5v.8h-.5zm0 .8h.5v.8h-.5zm0 .8h.5v.8h-.5zm0 .9h.5v.8h-.5zm0 .8h.5v.8h-.5z"/><path fill="gold" stroke="#000" stroke-linecap="square" stroke-width=".1" d="M95.1 42h.5v.9h-.5zm0 1h.5v.7h-.5zm0 .7h.5v.8h-.5zm0 .8h.5v.8h-.5zm0 .9h.5v.8h-.5zm1.6-10.2a.5.5 0 11-1 0 .5.5 0 111 0zm0 1.1a.5.5 0 11-1 0 .5.5 0 111 0zm0 1.2a.5.5 0 11-1 0 .5.5 0 111 0zm0 1.1a.5.5 0 11-1 0 .5.5 0 111 0zm0 1.2a.5.5 0 11-1 0 .5.5 0 111 0zm0 1.1a.5.5 0 11-1 0 .5.5 0 111 0zm0 1.1a.5.5 0 11-1 0 .5.5 0 111 0zm0 1.2a.5.5 0 11-1 0 .5.5 0 111 0zm0 1.1a.5.5 0 11-1 0 .5.5 0 111 0zm0 1.1a.5.5 0 11-1 0 .5.5 0 111 0z"/><path d="M88.4 34.6h-1v11.6h1z"/><path fill="gold" stroke="#000" stroke-linecap="square" stroke-width=".1" d="M87.3 34.6h-.5v.8h.5zm0 .9h-.5v.8h.5zm0 .8h-.5v.8h.5zm0 .8h-.5v.8h.5zm0 .9h-.5v.8h.5zm0 .8h-.5v.8h.5zm0 .8h-.5v.7h.5zm0 .8h-.5v.8h.5zm0 .8h-.5v.8h.5zm0 .8h-.5v.8h.5zm0 .9h-.5v.8h.5zm0 .8h-.5v.8h.5zm0 .8h-.5v.8h.5zm0 .9h-.5v.7h.5zm1.1-10.7l.5.2v.6h-.5zm.5.9h-.5v.8h.5zm0 .8h-.5v.8h.5zm0 .8h-.5v.7h.5zm0 .8h-.5v.8h.5zm0 .8h-.5v.8h.5zm0 .8h-.5v.8h.5zm0 .9h-.5v.8h.5zm0 .8h-.5v.8h.5z"/><path fill="gold" stroke="#000" stroke-linecap="square" stroke-width=".1" d="M88.9 42h-.5v.9h.5zm0 1h-.5v.7h.5zm0 .7h-.5v.8h.5zm0 .8h-.5v.8h.5zm0 .9h-.5v.8h.5zm-1.6-10.2a.5.5 0 101 0 .5.5 0 10-1 0zm0 1.1a.5.5 0 101 0 .5.5 0 10-1 0zm0 1.2a.5.5 0 101 0 .5.5 0 10-1 0zm0 1.1a.5.5 0 101 0 .5.5 0 10-1 0zm0 1.2a.5.5 0 101 0 .5.5 0 10-1 0zm0 1.1a.5.5 0 101 0 .5.5 0 10-1 0zm0 1.1a.5.5 0 101 0 .5.5 0 10-1 0zm0 1.2a.5.5 0 101 0 .5.5 0 10-1 0zm0 1.1a.5.5 0 101 0 .5.5 0 10-1 0zm0 1.1a.5.5 0 101 0 .5.5 0 10-1 0z"/><path fill="gold" stroke="#000" stroke-width=".2" d="M91.4 31v1h-1.2v1.3h1.2V37h1.2v-3.6h1.2v-1.3h-1.2V31z"/><path stroke="#000" stroke-linecap="square" stroke-width=".1" d="M91 36.2v10.5a746.8 746.8 0 012 0V36.2l-1 .8-1-.8z"/><path fill="gold" stroke="#000" stroke-width=".2" d="M92 41.7c-.5 0-.8.3-.8.8v.7c-.5 0-.9 0-1.3.2-.2.1-.3.3-.3.6s.1.5.3.6c.3.2.7.3 1 .2-.4.8-1.2 1.4-2.1 1.4-1 0-1.7-.6-2.3-1.3.4 0 .7 0 1-.3a.8.8 0 000-1.2c-.2-.3-.7-.2-1.2-.2v-.7c0-.4-.3-.8-.8-.8s-.8.4-.8.8v.7c-.5 0-.9 0-1.3.2a.8.8 0 000 1.2c.3.3.7.3 1.1.3-.4.7-1.3 1.4-2 1.4-.9 0-1.4-.3-2-1 .5-.2.8-.2 1-.6.2-.2.3-.4.2-.7-.1-.3-.3-.4-.5-.5a2 2 0 00-1.3.2l-.2-.6a.8.8 0 00-1-.6l-.4.3a9 9 0 002 4.6h0c4-.7 7.7-.7 11.7-.7 4 0 7.6 0 11.6.7h0a9 9 0 002.1-4.6.8.8 0 00-.3-.3.8.8 0 00-1.1.6l-.2.6c-.4-.1-.9-.3-1.3-.2-.2 0-.4.2-.5.5l.1.7c.3.4.6.4 1 .6-.5.7-1 1-1.9 1-.7 0-1.6-.7-2-1.4.4 0 .8 0 1.1-.3.2 0 .3-.3.3-.6s-.1-.5-.3-.6c-.4-.3-.8-.2-1.3-.2v-.7c0-.4-.3-.8-.8-.8-.4 0-.8.4-.8.8v.7c-.4 0-1 0-1.3.2-.2.1-.3.3-.3.6s.1.5.3.6c.4.3.7.3 1 .3-.4.7-1.3 1.3-2.1 1.3-1 0-1.8-.6-2.3-1.4.4 0 .8 0 1-.2.3-.1.4-.3.4-.6s-.1-.5-.3-.6c-.4-.3-.8-.2-1.3-.2v-.7c0-.5-.3-.8-.8-.8z" font-family="Sans"/><path d="M92 42.1c-.2 0-.4.2-.4.4v1.1h-1c-.3 0-.6.2-.6.4s.3.4.6.4h1v.2c-.3 1.2-1.8 1.8-2.8 2.1-1.1-.3-2.6-.9-3-2.1v-.2H87c.3 0 .6-.2.6-.4s-.3-.4-.6-.4h-1v-1c0-.3-.2-.5-.4-.5s-.4.2-.4.4v1.1h-1c-.3 0-.6.2-.6.4s.3.4.5.4h1.1v.2c-.3 1.2-1.6 1.8-2.6 2.1-1.1.1-1.8-.4-2.6-1.5V45l1-.3c.3-.1.4-.4.4-.5-.1-.2-.4-.3-.7-.3l-1 .4-.3-1c0-.3-.3-.4-.5-.3-.2 0-.3.3-.2.5l.3 1-.2.1a8.3 8.3 0 00.3.7c.3.7.8 1.4 1.3 2.1 4-.7 7.7-.7 11.7-.7 4 0 7.6 0 11.6.7a10.8 10.8 0 001.7-2.8h-.2l.3-1.1c.1-.2 0-.4-.2-.5-.2 0-.4 0-.5.2l-.3 1-1-.3c-.3 0-.6 0-.6.3-.1.1 0 .4.3.5l1 .3v.2c-.7 1-1.5 1.6-2.6 1.5-1-.3-2.3-1-2.6-2.1v-.2h1c.3 0 .6-.2.6-.4s-.3-.4-.5-.4H99v-1c0-.3-.2-.5-.4-.5s-.4.2-.4.4v1.1h-1c-.3 0-.5.2-.5.4s.2.4.5.4h1v.2c-.3 1.2-1.8 1.8-2.8 2.1-1-.3-2.6-.9-3-2.1v-.2h1.2c.2 0 .5-.2.5-.4s-.3-.4-.5-.4h-1.1v-1.1c0-.2-.2-.4-.4-.4z"/><path fill="gold" stroke="#000" stroke-width=".2" d="M80.4 47.4c-.3.5-.3.8.1 1 3.7-1 7.5-.9 11.5-.9s7.8 0 11.5.9c.4-.2.5-.5.1-1-4-.7-7.6-.7-11.6-.7s-8.2.1-11.6.7z"/><path d="M92.1 46.7l.5.8h.3l-.5-.8h-.3zm1.2 0l.5.8h.3l-.5-.7h-.3zm-2.4 0l.5.8h.3l-.5-.7H91zm3.6 0l.4.8h.4l-.5-.7h-.3zm-4.5 0h-.3l.5.8h.3l-.5-.7zm5.7 0l.4.8h.3l-.4-.7h-.3zm-6.9 0h-.3l.5.8h.3l-.5-.7zm8 0l.5.9h.3l-.4-.8h-.3zm-9.3.1h-.2l.5.7h.3l-.5-.7h-.1zm10.6 0l.4.8h.3l-.4-.8H98zm-11.7 0H86l.5.8h.4l-.5-.8zm12.9 0c0 .3.2.5.3.7v.2h.4l-.4-.7-.3-.1zm-14.1.1h-.4l.5.7h.4l-.5-.7zm-1.3 0l-.3.1.6.7h.3l-.3-.3-.3-.4zm16.6.1l.4.9h.3l-.4-.9h-.3zm-17.8.1h-.3l.6.8h.3l-.6-.8zm19 0l.4 1h.3l-.1-.2-.3-.7h-.3zm-20.2.2H81l.4.4.3.4h.3l-.6-.8zm21.4 0l.2.9v.1h.3l-.1-.6-.1-.4h-.3zm-22.6.3l-.1.3.5.4h.3l-.4-.5-.3-.2zM91.4 50h-.3l.6.9h.3l-.6-1zm.9 0l.5.9h.3l-.5-1h-.3zm1.2 0l.5.9h.3l-.5-.9h-.3zm-3.6 0l.6.9h.3l-.6-.9H90zm4.7 0l.5.9h.3L95 50h-.3zM89 50h-.3l.6.9h.3L89 50zm6.8 0l.5.9h.3L96 50h-.3zm-8 0h-.3l.6.9h.3L88 50zm9.2 0l.4.9h.3l-.4-.9H97zm-10.3 0h-.4l.6.9h.3l-.5-.8zM98 50l.5.9h.3l-.5-.8H98zm-12.7 0l-.3.1.6.8h.3l-.6-.8zm13.9 0l.4 1h.3l-.4-.9h-.3zm-15 .1h-.4l.6.8h.3l-.6-.8zm16.1 0l.5 1h.3l-.4-1h-.4zm-17.4.1h-.3l.6.8h.3l-.6-.8zm18.6 0l.4 1h.4l-.5-1h-.3zm-19.7 0l-.4.1.6.8h.4l-.6-.8zm20.9.1l.4 1h.4l-.4-1h-.3zm-22.1 0l-.2.1v.1l.5.8h.3l-.6-1z"/><path fill="gold" d="M91.9 47.7v.3l.8.7-.8.6v.3l1.2-1-1.2-1zm1.2 0v.3l.7.7-.8.6v.3l1.2-1a86 86 0 00-1.1-1zm-2.4 0v.3l.8.7-.8.6v.3l1.2-1-1.2-1zm3.5 0v.3l.8.7-.8.6v.3l1.2-.9-1.2-1zm-4.7 0v.4l.8.6-.7.6v.4l1.1-1-1.2-1zm6 0l-.1.4.7.6-.7.6v.4l1.1-1a88 88 0 00-1-1zm-7.1 0v.4l.8.6-.8.7v.3l1.2-1-1.2-1zm8.2 0v.4l.7.7-.8.6v.3l1.2-.9a89 89 0 00-1.1-1zm-9.4.1v.3l.8.6-.7.7v.3l1.1-1-1.2-.9zm10.6 0v.4l.7.7-.8.6v.3l1.2-1-1.1-1zm-11.8 0v.4l.9.6-.8.7v.3l1.2-1a81 81 0 00-1.3-1zm13 .1l-.1.4.7.6-.8.6v.4l1.2-1-1-1zm-14.1 0v.4l.8.6-.7.7v.3l1.1-1a80 80 0 00-1.2-1zm15.2.1v.4l.7.7-.8.5v.4l1.2-1-1.1-1zm-16.4 0v.4l.8.6-.7.7v.3l1.1-1-1.2-1zm17.6.1v.4l.6.7-.8.5v.4l1.2-.9-1-1zm-18.8 0v.4l.9.6-.7.7v.3l1-1-1.2-1zm20 .1l-.1.4.7.7-.8.5v.4l1.2-.9-1-1zm-21.1.1v.4l.8.5-.6.7v.3l1-1-1.2-.9zm-.9.4v.3l.6.3-.6.7v.4l1-1.1-1-.6z"/><path fill="#6495ed" stroke="#000" stroke-width=".1" d="M99 50.9c2.5 3 5.1 3.8 7.8 3a12 12 0 01-3.9-2.6c-1.2-.2-2.5-.4-3.8-.4z"/><path fill="#00f" stroke="#000" stroke-width=".1" d="M109.7 46.6h-.4c-1.7.4-2.5 4.3-3 4.9-.5.5-1 1-1.8 1.2l2.3 1.3c1.4-.6 2.2-2.8 2.4-3.5.9-3.4 2.2-3.2 3.4-3.3 0 0-1.7-.6-2.9-.6z"/><path fill="#6495ed" stroke="#000" stroke-linecap="square" stroke-width=".1" d="M112.6 47.2c-.8 0-1.7 0-2.5 1 .3-.1 1.3 1.2 1.4 2.6 0 1.2 1.1 1 1.3 3.5.8.3 1.7 0 2.5-.2.4 0 .7-1.7.1-2.4-.5-.7-1.2-1.2-1.7-2s-1.1-2.5-1.1-2.5 0 0 0 0z"/><path fill="#00f" stroke="#000" stroke-linecap="square" stroke-width=".1" d="M115.3 53c-1-.1-1.6.4-3 .3-.3.3.2.7.5 1 .9.3 1.7 0 2.5-.2-.5-.6-.5-1.2 0-1.1z"/><path fill="#6495ed" stroke="#000" stroke-width=".1" d="M85 50.9c-2.5 3-5.1 3.8-7.8 3a12 12 0 003.9-2.6l3.8-.4z"/><path fill="#00f" stroke="#000" stroke-width=".1" d="M74.2 46.6h.5c1.7.4 2.5 4.3 3 4.9.4.5.9 1 1.7 1.2-.6.5-1.4.9-2.2 1.3-1.4-.6-2.2-2.8-2.4-3.5-.9-3.4-2.2-3.2-3.4-3.3 0 0 1.7-.6 2.8-.6z"/><path fill="#6495ed" stroke="#000" stroke-linecap="square" stroke-width=".1" d="M71.4 47.2c.8 0 1.7 0 2.5 1-.3-.1-1.3 1.2-1.4 2.6 0 1.2-1.1 1.1-1.3 3.5-.8.3-1.7 0-2.5-.2-.4 0-.7-1.7-.2-2.3l1.7-2 1.2-2.6s0 0 0 0z"/><path fill="#00f" stroke="#000" stroke-linecap="square" stroke-width=".1" d="M68.7 53c1 0 1.6.4 3 .3.3.4-.2.7-.5 1-1 .3-1.7 0-2.5-.2.5-.6.4-1.2 0-1.1z"/><path fill="#7f6b00" d="M137.4 104.8c.3 1 .4 2.1.5 3.2l1 .5 2.4 1.2v-1.3c-1-.6-2-.7-3-.8l-.9-2.8z"/><path d="M137.4 104.8l.2 3.4 4.4 2.3-.2-.6c-1.3-.7-2.5-1.5-4-1.9 0-1-.1-2.2-.4-3.2z"/><path d="M137.4 104.8l.2 3.4 3.9 2-.2-.3v-.3c-1.1-.6-2.2-1.3-3.4-1.6 0-1-.2-2.2-.5-3.2z"/><path fill="none" stroke="#000" stroke-width=".9" d="M26.7 27.4v139.7c0 7 5.6 12.5 12.6 12.5h40.2c6.9 0 12.5 5.6 12.5 12.6 0-7 5.6-12.6 12.5-12.6h40.2c7 0 12.6-5.6 12.6-12.5V27.5h0H26.7z"/><path fill="red" d="M480 0h120v400H480z"/></svg>