<svg xmlns="http://www.w3.org/2000/svg" id="Layer_1" x="0" y="0" version="1.1" viewBox="0 0 600 400" xml:space="preserve"><style id="style2" type="text/css">.st0{fill:#0080ff}.st1{fill:#fff}</style><g id="g34" transform="scale(1.33304 1.33333)"><path id="rect4" d="M0 0h450v300H0z" class="st0"/><g id="g28"><path id="rect6" d="M43.3 217h10v10h-10z" class="st1" transform="rotate(-45 48.3 222)"/><path id="polygon8" d="M104.9 200.8l-7.1 7.1-7.1-7.1-7.1 7.1 7.1 7-7.1 7.1-7-7.1 7-7-7-7.1-7.1 7.1-7.1-7.1-7 7.1 21.2 21.2-7.1 7-7.1-7-7 7-7.1-7-7.1 7-7.1-7-7 7-7.1-7 21.2-21.2-7.1-7.1-7 7.1-7.1-7.1-7.1 7.1 7.1 7-7.1 7.1-7-7.1 7-7-7-7.1-5.8 5.8v16.7l5.8 5.8-5.8 5.8v8.3h104.8l7-7.1-7-7-7.1 7-7.1-7 21.2-21.2z" class="st1"/><path id="rect10" d="M114 217h10v10h-10z" class="st1" transform="rotate(-45 119 222)"/><path id="polygon12" d="M175.6 200.8l-7.1 7.1-7.1-7.1-7.1 7.1 7.1 7-7.1 7.1-7-7.1 7-7-7-7.1-7.1 7.1-7.1-7.1-7 7.1 21.2 21.2-7.1 7-7.1-7-7 7-7.1-7-14.1 14.1h70.7l7-7.1-7-7-7.1 7-7.1-7 21.2-21.2z" class="st1"/><path id="rect14" d="M396.8 217h10v10h-10z" class="st1" transform="rotate(-45 401.8 222)"/><path id="polygon16" d="M444.3 200.8l-7.1 7.1 7.1 7-7.1 7.1-7.1-7.1 7.1-7-7.1-7.1-7.1 7.1-7-7.1-7.1 7.1 21.2 21.2-7.1 7-7-7-7.1 7-7.1-7-14.1 14.1h62.4v-8.3l-5.8-5.8 5.8-5.8v-16.7z" class="st1"/><path id="polygon18" d="M387.7 200.8l-7.1 7.1-7-7.1-7.1 7.1 7.1 7-7.1 7.1-7.1-7.1 7.1-7-7.1-7.1-7.1 7.1-7-7.1-7.1 7.1 21.2 21.2-7.1 7-7-7-7.1 7-7.1-7-7 7-7.1-7-7.1 7-7.1-7 21.3-21.2-7.1-7.1-7.1 7.1-7.1-7.1-7 7.1 7 7-7 7.1-7.1-7.1 7.1-7-7.1-7.1-7.1 7.1-7-7.1-7.1 7.1 21.2 21.2-7.1 7-7-7-7.1 7 7.1 7.1h113.1l7.1-7.1-7.1-7-7.1 7-7-7 21.2-21.2z" class="st1"/><path id="rect20" d="M326.1 217h10v10h-10z" class="st1" transform="rotate(-45 331.1 222)"/><path id="polygon22" d="M253.3 207.9l-7-7.1-7.1 7.1-7.1-7.1-7 7.1 7 7-7 7.1-7.1-7.1 7.1-7-7.1-7.1-7.1 7.1-7.1-7.1-7 7.1 21.2 21.2-7.1 7-7.1-7-7 7-7.1-7-14.1 14.1h99l-14.2-14.1-7.1 7-7-7-7.1 7-7.1-7z" class="st1"/><path id="rect24" d="M255.4 217h10v10h-10z" class="st1" transform="rotate(-45 260.4 222)"/><path id="rect26" d="M184.7 217h10v10h-10z" class="st1" transform="rotate(-45 189.7 222)"/></g><path id="rect30" fill="red" d="M0 250h450v7H0z"/><path id="rect32" d="M0 243h450v7H0z" class="st0"/></g></svg>