<svg xmlns="http://www.w3.org/2000/svg" fill-rule="evenodd" viewBox="0 0 600 400"><path fill="#f8c301" d="M0 0h600v400H0z"/><path fill="#2c2c2b" d="M269 299.7l1.7-2 .9 6.8 1.6-2.2 1.4 6.7 1.5-2.4c.5 2 2 5.8.5 6.5-4.9 1.5-11.3 4-12.6 6.1-2.5.6-5.8 2-6.5 4.2a14 14 0 015.1-1.4l.2.4c-2.3.6-4.5 2.3-5.2 4 1.5-.6 4-1.6 5.8-1.7l.4.5a8.3 8.3 0 00-4.8 4c1.9-.6 4-1.7 6.1-2l.5.3a8 8 0 00-4.2 3.6c2-.6 4-1.3 6-1.6.3.2 2.1 0 2.5 0l23.4-2.8c1.4-.1 4 0 4.5-2.4.2-1.5.4-2.9.4-4.2v-15.2l1.8 2.5v-20l1.5-4.1c1.8 7.4 4.2 12.5 7.7 20.2l1.2-2.8 3.4 6.7.8-3 4.3 6.4.4-2.7c1.2 2 3.6 6.7 2.3 7.2-4.2 1.7-10 3.2-13 6.9-2.4.5-5.3 2-5.9 4.1 1.7-.8 3-1.2 5.2-1.5l.1.4c-2.3.8-4.4 2.3-5 4.1a22 22 0 015.9-1.8l.2.5a9 9 0 00-5 4c2-.6 4.2-1.6 6.5-2 0 .2.3.4.4.5-2 1-3.4 1.7-4.2 3.3 2.2-.7 4.6-1.2 6.4-1.6.9.2 2.2.2 3 .1l24-3.2c1.5-.2 3.3-.6 3.6-2.7v-4.6L342 307l2.3 2.2-3.8-21.7v-24.4l3.2 2.6.4-34v-12.3c0-3-.2-6.2-1.7-12.8a68.8 68.8 0 00-4.2-14.3l-.6-17.7 2.5.9-.7-7.8 2.3 1-1.4-7.8 2.4.8-1.7-7.7 2.5.7-2.2-7.4 2.7.8a102 102 0 00-8-22l23-16.5c.4.4 1 .4 1.5 0l.3-.1c.3-.3.5-.6.5-1l1.3-1a24.5 24.5 0 012 5.8 17.2 17.2 0 010 4.9 15 15 0 01-2.3 6 35.7 35.7 0 01-3 3.8c1 .1 1.4 0 2.4-.2l1.2-.4a17.8 17.8 0 008.1-7.9 21.4 21.4 0 001.9-7 23.5 23.5 0 00-.8-8 26.8 26.8 0 00-1.4-3.4l1.4-1c.5.4 1.1.4 1.6 0l.3-.1c.5-.4.6-1.1.4-1.7l.3-.3a4.1 4.1 0 005.4-4.5l1.3-1.2a21.5 21.5 0 015.8.8l14.6-17.6-21.3 8.4-.1 1.1a22.5 22.5 0 01-1 4.6l-1.5.8a4.1 4.1 0 00-6 3.7l-.3.2c-.5-.4-1.3-.5-1.8-.2l-.3.2c-.5.4-.6 1-.4 1.7l-.6.4a98 98 0 01-2-5.2 21 21 0 01-.4-6.8l.1-1a20.2 20.2 0 011.2-3.6 24 24 0 012.4-3.7 27.3 27.3 0 012.7-2.8l1.2-.9 3.6-2-2.6-1.2-1-.5-2-.8-2-.6-2-.5-.9-.2-1-.2h-1l-1-.2H361l-.9.1-1 .1-.9.2-1 .2-1 .2-1.8.6-2 .7-1.9.9-1.9 1-1.9 1.2-2 1.3L343 74l-1.6 1.3-1.5 1.4-1.4 1.4-1.3 1.5-1.2 1.6-1 1.6-.5.9-.4.8-.4.9-.4 1-.3.8-.3 1-.3 1-.2 1-.2 1-.2 1-.1 1v1l-.1 1.2v2.2l.1 1.2.2 1.1.4 3 2.7-2.6a17.7 17.7 0 015.7-3 18.5 18.5 0 017.5-.7l.9.1a20.5 20.5 0 014 1.3 21 21 0 014.2 2.6 20.3 20.3 0 011.9 2l-1.4.9c-.4-.1-.9 0-1.2.2l-.3.1c-.5.4-.6 1-.5 1.6l-22.4 16.1a80 80 0 00-4.1-6.3h2.3l-3.6-5.1 2.2-.1-4-4 2.2-.3-4.2-4 2.2-.5c-4-5.5-9.7-11.3-13.4-13.8 0 0 1.8-.8 1.8-2.2 0-1.3-1.6-3.5-3.5-4.9-2-1.3-3.9-1.5-4.8-1-.6.3-1.1 1-1.6 1.7-1-.7-2-1.4-3.2-1.9h-.2l-.8-.3-2.4-.5-3.3-.2a65 65 0 00-15.8 2c-1.8.5-5.1 3.4-5.2 3.4l-13 1c-2.9-.1-1.8 3-1.5 5.1l.5 3.2a27 27 0 019.8 4.3 4 4 0 010 2 20 20 0 00-8.1-2.1c-.4 0 0 1.7.5 3.3.4 1 2 2.2 4 3.8 5 4 7 11.3 8 14.9l1.4-1.4.3 5.2 1.3-1.6 1 5.1 1-1.6 2.1 4.7v6.6h-5.1c-4.4 0-6.7 0-9.7-3.1L249.7 116c-1.2-1.2-3.1-3.7-6.4-5.3l-11.5-5.7a14.4 14.4 0 00-8.5-2c-3-.8-5.8-1.5-7.3 0 1.8.3 3.5.8 5.2 1.4l-.6.7c-2.9-.2-6-.5-7.1 1.1 2 0 4 .3 6 .7l-.2.9c-2.6 0-5.1.2-5.8 1.8 1.9-.3 3.7-.1 5.6 0v1c-2.4.3-4.8.8-5.4 2.3 1.9-.4 3.6-.5 5.5-.5l.2 1c-2 .5-3.6 1.2-4 2.5a23 23 0 015-.9c6.5 4.6 11.4 14 17.3 16.5l1.7 2.5-3.6.4 5.8 5.7-3.4.6 6.1 5.5-3.3.7 6.3 5.2-3.3.9 6.8 5-3.4 1.1 12.8 8.8-18.2 4.5c-7.1 1.7-9.7 4-12 7.1l-10.3 14.3c-2.7 3.6-3.8 6-4 9.2-.2.4-.2.8-.1 1.2-.4 1-.8 2-1 3l-15.9 11.4-.3.3-.2.5v.8l.1.4.2.4.4.7.5.6.3.3.3.2.4.2h1l.4-.2 16-11.5c0 .2.2.5.4.6l.2-1 2-1.5c0 1.4.3 2.5 1.1 3.1 0-1.5.3-3 .7-4.4l1-.7h.3c-.1 2.3 0 4.6 1.3 5.4 0-2 .2-3.8.5-5.7l1-.3c.1 2.5.3 5 1.8 5.6-.3-2.3-.1-4.4 0-6.8 4.6-3.8 9.9-6.4 13.8-11l2.8-.6-1.2 3 7.7-2.1-1.1 3.2 7.6-2.5-1 3.2 7.4-2.8-.1.8-.6 2.4 10.7-2h.2a441.1 441.1 0 00-2.1 31.6l2-1-1.4 6.2 2-1-.8 6.2 1.8-1.1c0 .8.2 5.1.6 8.3L269 262c-2.8 6-4 15.8-3.3 23.3 1.4 7.4 1.7 8.5 3.1 14.4z"/><path fill="#fff" d="M366.1 124.3a15 15 0 01-4.8 2.7c2.7-3.3 4.4-6.4 4.5-10.7a17.3 17.3 0 00-2.5-9.4l6.7-5.2.2.4c1.9 4 2.4 8.3 1.5 12.7-.8 3.7-2.5 7-5.6 9.5zM363 106l-2.5 2v.5l-.4.3-.6-.1-2.5-3.4c-.1-.3-.2-.5 0-.8l.3-.3c.3 0 .4 0 .6.2l2.8-1.8-1.6-1.9a18 18 0 00-12.8-5.3A18.3 18.3 0 00333 101c-2-12.7 3.2-21 12.3-27.6 10-7.3 19.6-8.3 30-3l-2.2 1.3a18.4 18.4 0 00-6.2 23.2l1.3 2.8 2.2-1.5-.3-.4c-.1-.2-.2-.4 0-.7l.3-.3c.3 0 .4 0 .6.2l.4.5 1.5-1a3.2 3.2 0 015-3l2.3-1.3.3-.8c.5-1.6.8-3.3 1-5l17.4-6.8-12 14.5a22 22 0 00-4.5-.7l10.2-9.2-6.5 4.7-5 4.5-2 1.7a3.2 3.2 0 01-4.4 3.8l-1.4 1.1.2.4c.1.2.2.4.1.7l-.4.3c-.3 0-.4 0-.6-.2l-.3-.4-2.4 1.8z"/><path fill="#b1b4b6" d="M344.5 77.6a38 38 0 016.7-4.5 23 23 0 0118.5-1.6l-1.8 1.8c-7-2-13.7 0-19.6 4.2-6 4.3-9.8 10-10.2 17.3l-2.3 1.1c0-9.5 6-16 8.7-18.3zm36 11.8l-.3.8 5.9-3.3 6.5-4.7-12 6.7v.5zm-4.4 1.4a3.2 3.2 0 11-1.4 6.1l-.7.6h-.1l-.6.5-1.9-2.5.7-.4V95l.8-.5v-.4c0-1.8 1.4-3.3 3.2-3.3zm-.2.7a2.2 2.2 0 010 4.5 2.2 2.2 0 010-4.5zm-6.3 5.2l1.5 2-10.6 8-1.8-2.7-.9.5 2.5 3.4v.1l.5-.3 10.7-8.3.8-.6-2-2.6zm-6.3 10.2l1.9-1.5c.7 1.4 1.4 2.8 1.9 4.2 1 3 1.3 6.1.7 9.2a17.3 17.3 0 00.7-15l-.3-.7-4.9 3.8zm4.5-10l-2 1.2-1.4-3.2a22 22 0 01-1-13.2 22.8 22.8 0 013.8-7.5c-6.5-1.7-12.8.2-18.3 4.2a21.8 21.8 0 00-9.8 16c3.7-1.3 7.7-1.5 11.5-.6l1 .2a20.6 20.6 0 0110.3 6.7L360 102l.6.7 2-1.3 3.6-2.5 2-1.2z"/><path fill="#e21c2a" d="M201.3 222.2l16.2-11.7a12 12 0 01.4-4l-.5-.2-1.5 1-.9 2.5c-.3-.4-.4-.9-.5-1.4l-15.2 11c-1 .6 1 3.4 2 2.8zm17.4-12.6l1.8-1.3.1-1-1-.2a37 37 0 00-.9 2.5zm67.9-48.9l71.7-51.7-2-2.9-79.7 57.5z"/><path fill="#f39b7e" d="M357.1 107.3l-76.7 55.2-2.6.8 78.8-56.8zM217.6 207.7l-2.5 1.9.5-1.5 2.2-1.6-.2 1.2zm-2.7 2l-14.7 10.6-.5-.8 14.9-10.7.3.9z"/><path fill="#88898b" d="M266.6 319.7l2.4-.6-.8-.5zm16.8-232.2c-1.6-.6-2.9-.8-4.2-.8 0-2 2-1.4 2.8-.8.6.3.9.8 1.4 1.6zm-48.3 91.4l1.7-.8-.7-.3zm-7 7.5l1.8-1.6h-.8zm1.9 2.1l1.9-1.7-1-.1zm54.2 64.4v-2.3l-.6.6zm1.5-134l.5-2.4-.8.4zm7.2-5l.3-2.4-.8.5zm1.7-7.3l-.6-2.4-.5.8zm5.5 3.6l-.5-2.4-.5.8zm4.7-14.6l-1-2.2-.4.8zm-1.5 8.5l-.7-2.3-.4.8zM290.2 120l1-2.8-1 .4zm7.7-3.8l.3-3-.9.8zm-9.3 22.1l1.5-2.7-1.1.3zm5.1-4.9l1.2-2.1-1 .2zm-4.7 1l1.1-2.2-.9.3zm-4.5.7l1.1-2.1-.8.2zm-53.2 47l1.7-1.6h-.8zm71.8 20.3l2-5-2 .8zm12.7-7.8l1.3-3.2-1.2.5zm-3.2 3.5l1.4-3.7-1.4.6zM258 186l2.3-.4-.7-.4zm28.3-17l2.3-.8-.8-.4zm-22.8 20.3l2.3-.7-.8-.5zm11.6.8l2.4-.8-.8-.4zm-19.5-12.8l2.3-.4-.7-.4zm27.2-2.8l2.3-.7-.8-.5zm4.7 4.6l2.3-.7-.8-.4zm-8.3 1.3l2.3-.8-.8-.4zm-4.1-4.7l2.3-.7-.8-.5zm-7.3-.3l2.4-.8-.9-.4zm-16.8 6.4l2.3-.4-.8-.4zm13.5.6l2.3-.8-.8-.4zm8.1 1.8l2.3-.8-.8-.4zM260 172l2.3-.8-.8-.5zm24.2 13l2.3-.6-.8-.5zm-5.5-16.7l2.3-.7-.8-.4zm-7 1.8l2.3-.7-.8-.5zm19 17l2.3-.7-.8-.4zm21.6-54l2-1.4-.9-.2zm-14.7 5.4l2.5-3.4-1.5.2zm-12.2 2.6l1.9-3.5-1.5.4zm-2.3-.7l1.7-3.6-1.4.4zm3-3.9l1.5-2.7-1.1.3zm8.9.9l2.1-3.4-1.5.3zm17.4-8.5l2-1.4-.9-.2zm4.9-3.7l2.2-1-.9-.3zm-12.5 5l1.5-1.9-.9.1zm11.4-.9l2.2-1-.8-.3zm-7-.6l2-1.4-.9-.2zm-17.8 9.2l2.1-3.3-1.4.3zm-1.7 5l2.1-3.4-1.4.3zm12.6-9l1.7-1.8h-1zm-1.4 5.7l1.7-2.7-1.2.2zm7.2-7.3l1.7-1.7h-.9zm-.2 3.6l2-1.3-.8-.2zm-9.6-2.3l1.6-2.7-1.1.2zm-13.9 21.2l2-3.5-1.5.4zm.2-4.6l2.6-4.8-2 .6zm8-8.5l2.1-3.3-1.5.3zm12.8-32l-.7-2.3-.5.8zm12.2-1.5l-1-3.3-.6 1zm-1.8 14.4l-.2-4.6-1.2 1.3zm-16-4l.8-2.7-1 .5zm11.8-26.3l-1-2.2-.3.9zm-3.9 13.7l-.7-2.3-.4.8zm4 17.8l-.1-4.6-1.2 1.3zm-7.3 2.4l.7-4.6-1.4 1zm4.5-25.1l-.9-2.3-.4.8zm-32 99.8l1-2.8-1 .5zm55.5 86.2v-2.3l-.6.6zm-6.8 7.8v-2.4l-.6.7zm-4.2-8v-3.3l-1 .9zm-12 .9v-2.5l-.7.7zm13.6 4.6v-3l-.8.8zm-.4-15.3l.5-3-1 .7zm-3.4-27.7l1.4-3.5-1.4.5zm8.1 0l.9-2.3-.9.3zm-1.6-8.8l.9-2.2-.8.3zM324.6 114l-.5-2.4-.5.8zm-9-11l-.9-2.3-.4.8zm3.3 16l-.5-4-1 1.2zm-11.6-5l-.4-2.8-.6.9zm2.4-2.3l-.4-3.4-.8 1zm3.5-12.4l-.9-2.3-.4.8zM300.6 124l1-3.9-1.3.8zm-3.3-.2l1-3.2-1.2.5zm-1.8-3.3l.7-2.8-1 .5zm8.1-5.3v-3l-.8.9zm-21.5 8.6l1-2.2-.9.3zm27.7-27.1l-1-2.3-.3.8zm6.2.8l-1.1-2.1-.3.8zm3.4 6.4l-.8-2.3-.4.8zm2.6 5l-.7-2.3-.4.8zm-10-2.7l-.7-3.3-.7 1zm7.9 7l-.8-4-.9 1.3zm2.3 4.7l-.4-4-1 1.2zm-7.6-6.6l-.8-3.3-.7 1.1zm-2.5 6.4l-.5-4.6-1.1 1.4zm-3.7 9l.2-4.6-1.3 1.2zm-.3-6.5l-.1-4.6-1.2 1.3zm-3.6.8l.2-4.6-1.3 1.2zm-13 3l1.3-3.2-1.1.5zm.1 5.4l1.5-3.8-1.4.6zm-3.1-.8l1-2.8-1 .4zM287 125l1-2.8-1 .4zm-3 3.5l1.1-2.8-1 .5zm13 .6l1-3.9-1.3.7zm3.7-.2l1.1-4.4-1.5.8zm15.5-12l-.7-4-1 1.2zm-21.5 9.3l.9-3.3-1.1.6zm5 76.6l1.4-3.7-1.3.6zm-8-.6l1.4-3.7-1.3.6zm-7.7-.5l1.4-3.7-1.4.6zm-4.2.4l1.4-3.8-1.4.6zm-39.6-26l3-.5-1-.5zm-3 4l3.4-1.2-1.2-.6zm.8 4.3l3.4-1.1-1.2-.6zm50 17.2l1.4-3.8-1.4.6zm8.2-.3l1.4-3.8-1.4.6zm12.6 47l1.4-3.7-1.4.6zm14.7-9.8l.9-2.3-.9.4zM295 224.9l.9-3.9-1.3.8zm6.6.3l.8-4-1.2.9zm-20 79.3l.5-2.3-.7.5zm-4-97.4l1.5-3.8-1.4.6zm1.3 17.1l1-2.8-1 .5zm4.8-3.4l1.9-5-1.9.7zm18.9-9.4l1.4-3.8-1.4.6zm-2 20l.4-3-.9.6zm-4 3.5l.3-3-1 .7zm5 2l.4-3-1 .7zm-69-52.2l2.8-1.8-1.2-.3zm-1 6.3l1.4-1.3h-.7zm7.1-3.5l1.8-.8-.7-.3zm-4.2 0l2.3-1.4-1-.2zm-7.6 4.3l2-1.8h-1zm-2-2.1l1.9-1.7h-1zm23.1-12.8l2.4-.7-.8-.5zm48-30.4l1-2.2-.8.3zm7.8-6l1.6-1.8h-1zm-4 3.8l1.1-2.1-.9.2zm4.3-7.4l2.2-2.2h-1.1zm-23 20l1.7-3.6-1.4.5zm.6-5l1.7-3.6-1.4.5zm6.5-2.7l2.2-4.9-1.9.7zm-1.7-5l2.6-4.6-2 .5zm3.1 7.7l1.7-3.7-1.5.5zm3.7-3.2l1.6-3.6-1.4.5zm4.5-5.6l1.7-2.7-1.2.3zm-6.3 3.6l1.7-3.6-1.4.5zm3.1-3.2l2.3-3.5-1.6.3zm-12.1 2.7l1.7-3.6-1.4.5zm37.1 44.7l1.2-3-1.2.4zm-3 8l1.1-3.2-1.1.5zm-3 5.7l1.5-3.7-1.4.6zm-1 7.8l1.5-3.7-1.4.6zM310 209l1.4-3.8-1.3.6zm-7.5-2.2l1.3-3.8-1.3.6zm4.7-5.8l1.3-3.3-1.3.5zm6.1 59.3l2-5-2 .7zm3.6 33v-3.5l-1 .9zm-2.7.7v-3.4l-1 .9zm.6-4.1v-3.4l-1 .9zm-3 .9v-3.5l-1 1zm.5-4v-3.5l-1 .9zm5 .5V284l-1 .9zm-4.8-6l.3-4-1.2 1zm-3 1.2l.3-4-1.2 1zm7.7-17l1.4-3.8-1.3.6zm-10.3 9.3l.6-4-1.2.9zm-3-1.9l.7-4-1.3 1zm-3-2l1.1-2.9-1 .5zm0-5.2l1-2.8-1 .4zm6.1-7.7l2-5-2 .8zm1 4l2-5-2 .8zm-2.5 8.6l1.4-3.8-1.4.6zm3 .8l2-5-1.9.8zm-1.1-3.7l2-5-2 .7zm2.8-3.8l1.9-5-1.9.8zm1-6.5l1.9-5-1.9.8zm-6.4 2.6l1.4-3.8-1.4.6zm-22-32l1.4-3.8-1.4.6zm16.4-13.6l1.4-3.8-1.4.6zm-2.4-7.8l1.9-5-1.9.8zm-3.1 3.9l1.8-5-1.8.7zm-3.2-.7l1.8-5-1.8.8zm-10.3 4.6l1.4-3.7-1.4.6zM296 219l1.4-3.8-1.4.6zm-3.9 2l1.4-3.8-1.3.6zm17.9-17l1.4-3.7-1.4.6zm-3.7 1.8l1.4-3.8-1.4.6zM278 221.4l1-2.8-1 .4zm-2.8-2.8l1-2.8-1 .5zm13.6 6l1.6-4.4-1.6.7zm1-9.3l1.9-5-1.9.8zm-3.6.8l1.9-5.1-1.9.8zm-2.7-2l1.9-5.1-1.9.8zm3.1-4.3l2-5-2 .7zm-4.5.6l1.9-5.1-1.9.8zm7.6 48.3l-.8-2.1-.4.7zm5.4 1.7l-.8-2.2-.4.8zm2.6-6.5v-2.3l-.7.6zm-10.4-5v-2.4l-.7.6zM275.7 226l.6-3-1 .7zm34.5 6l.6-2.8-.9.5zM291 248l.3-3-.9.6zm15.6-9l.4-3-1 .7zm-4.9 6.7l.4-3-1 .7zm-5 1.7l.3-3-1 .7zm-3.6 7.2l-.3-3-.7.8zm-3.7-11l.4-3-1 .7zm8.2-4l.4-3.1-1 .7zm-4 3.4l.5-3-1 .7zm18.8-5.2l.6-2.7-.9.5zm-7-5.2l.7-2.8-1 .6zm.2-5.5l.8-4-1.3.8zm.8-6.3l1.2-3.2-1.1.5zm-7-.9l1.5-3.7-1.4.6zm8.2-5.8l1-2.8-1 .5zm-4.3 3.7l1.4-3.7-1.4.6zm3-6.8l1.4-3.8-1.3.6zm14.5-9.4l.9-2.3-.9.3zm-22.2 7.9l1.9-5-1.9.8zm25.4 7.8l.8-2.3-.8.4zm1.7-8.1l.8-2.3-.8.3zm-4.5 20.8l.8-2.3-.8.4zm-38.7 9l.3-3-.9.7zm35-24.2l1-2.3-1 .3zm.6 7.3l.8-2.3-.8.3zm-8-4l1-2.3-1 .4zm4.6 11l.9-2.4-.9.4zm-3.7-4.8l.8-2.2-.8.3zm-33.5-7.4l1.4-3.7-1.4.6zm10.6 36.6v-2.3l-.6.6zm-10.8-23.2l.6-3-1 .6zm2.8-1.7l.6-3-1 .6zm1 5.4l.7-3-1 .6zm-3.3 3l.6-2.4-.8.5zm2.2 6.2v-2.5l-.7.7zm3.5 4.6v-2.5l-.7.7zm2-4.3l-.1-2.5-.7.6zm0-7l.3-3-1 .6zm5.5 2.4l.9-3-1 .6zm-3.7-19.2l1.4-3.8-1.4.6zm-3.1 12l.8-3.9-1.3.8zm5.1 3.5l.8-3.9-1.3.8zm4.3-3l.8-4-1.3.8zm3.8-4.2l.9-4-1.3.9zm-6.3.5l.9-4-1.3.9zm-3.7 1.5l.8-4-1.3.8zm-2.1-5.3l1.4-3.7-1.4.6zm-10-12.4l1-2.8-1 .5zM314 219l.9-2.3-.9.3zm-32.6-13.3l1.4-3.8-1.4.6zM279 211l1.4-3.7-1.4.6zm17.2 2.3l1.4-3.7-1.4.6zm-3 2.1l1.3-3.7-1.4.6zm-2.8 2.7l1.4-3.8-1.4.6zm-9.5.3l1.4-3.7-1.3.5zm.6 4.4l1.4-3.7-1.4.6zm35.6-16.2l.9-2.2-.9.3zm-27.9-.8l1.9-5-1.9.7zm4.2-.7l1.9-5-1.9.8zm-8.3 1.7l2-5-2 .8zm36-11.3l.9-2.3-.9.3zm-34.4 45.3l.4-3-1 .7zm45.4 73v-2.4l-.7.6zm-4.5-1.2v-2.3l-.7.6zm7.5-2.7v-2.3l-.6.6zm-27.7-23.6l.4-3-.9.7zm21.5-3.7l.9-2.3-.9.4zm-1.2 8.1v-2.3l-.6.6zm-11.5 7.6V295l-1 .9zm9 1.1v-2.3l-.6.6zm-6-44.7l1.4-3.5-1.3.5zm5.6 32.9l.7-3-1 .6zm2.7-10.6l.4-2.6-.8.6zm-3 5.3l.4-3-.9.7zm9.3 18V298l-.7.6zm-2.9-7v-2.4l-.6.6zm-4.9-27.9l.9-2.2-.9.3zm4.6 10l.9-2.2-.9.3zm-5.5-3.6l1-2.3-1 .3zM312 245.3l1.2-3.3-1.2.5zm-9.2 23.7l1.5-3.8-1.4.6zm19.2-2.5l.9-2.3-.9.4zm2 42.5v-2.3l-.6.6zm7.4-2.3v-2.3l-.7.6zm-2.8-7.4V297l-.6.6zm-15 1.4v-2.4l-.6.6zm6 4.7v-2.3l-.7.6zm0-4.5v-2.3l-.6.6zm-17.3-25l.6-3-1 .6zm2.5 2.1l.7-3-1 .7zm2.2 3.7l.3-4-1.2 1zm-3.5.8l.6-2.4-.8.4zm2.8 7v-2.6l-.7.7zm2.5 3.3v-2.5l-.7.6zm3.1 2v-2.5l-.7.7zm8.8-13.2l.5-3-1 .7zm-8.7-14.7l1.4-3.7-1.4.6zm-2.9 10.4l1-3.9-1.4.8zm5.2 7.8l.8-4-1.3.9zm4.4-7.6l.9-4-1.3.9zm2.2-4.5l.9-4-1.3.9zm-4.7 2l.9-4-1.3.8zm-3.8 1.1l.9-3.9-1.3.8zm-1.1-4.5l1.4-3.7-1.4.5zm13.1-18.7l1-2.3-1 .4zm3.3 2l.9-2.3-.9.3zm1.6 4.5l.9-2.3-.9.4zm-4.9 1l.9-2.2-.9.3zm-1.4 8.9l.9-2.3-.9.3zm6.6-2.5l.9-2.2-.9.3zm-23.3-17.4l1-2.3-1 .4zm-.2 4.2l1.5-3.7-1.4.6zm-2.8 4.4l1.4-3.7-1.3.6zm13.2-2.9l1.4-3.7-1.4.6zm4.3 2.4l1.4-3.7-1.4.6zm-.3 5.6l1.2-3.2-1.2.5zm-6.4 7.4l1.8-4.5-1.7.7zm3.4-10l1.5-3.8-1.4.6zM315 264l1.5-3.7-1.4.6zm-9.6.8l1.5-3.7-1.4.6zm-2.5-.6l1.5-3.7-1.4.6zm15.3 5.6l1.5-3.8-1.4.6zm4-19.8l1.4-3.5-1.3.5zm-7.4 2.3l2-5-2 .8zm-2.1-2l2-5.1-2 .8zm-2.6 3.3l1.9-5-1.9.7zm10.7-9.6l1.4-3.5-1.3.5zm2.2 1.4l.8-2.3-.8.3zm9 1.8l1-2.3-1 .3zm-.7-9l1-2.3-1 .3zm-3.2 5.3l1-2.3-1 .3zm-8.1-4.1l.9-2.3-.9.3zm-3 7.5l2-5-1.9.8zm-1.4-4l1.4-3.7-1.3.6zm12.4 62.7v-2.3l-.6.6zm-10-22.8v-3.4l-.9 1zm-2.5-2.7l1-3.3-1.1.6zm4.7 10.8v-3.4l-1 1zm-.9 4.6V292l-1 1zm2.4 3V295l-1 .9zm2 6.3V302l-.7.7zM243 181l3-.5-1-.6zm1.7 4.4l2.3-.4-.7-.4zM332 216l.4-2.4-.8.5zm-2.7-16.6l.3-2.4-.7.6zm-.8 28l.4-2.4-.8.6zm-58.9 38.3l1.3-3.1-1.2.5zm7.8 11l.6-4-1.2.9zm-5-.6l2-5-1.8.8zM275 264l2-5-1.9.7zm-2.5 6.6l2-5-1.9.7zm3 3.7l2-5-2 .8zm0-5l1.9-5.1-1.9.8zm4.6 7.4l.7-4-1.3 1zm2.5-3.8l1.5-3.7-1.4.5zm-1.3-3.3l2-5-1.9.8zm-11.1 1.5l1.2-3.1-1.2.4zm2.3-6.4l1.3-3.2-1.2.5zm0-3.6l1.3-3.2-1.2.5zm-1.7 15.3l.7-3.4-1.1.7zm2 3.6l.7-3.4-1.1.7zm-.2 18.3l.4-2.3-.7.5zM277 287l.4-2.3-.7.5zm1.5-1.9l.7-3.3-1 .7zm-.4-4.3l.7-3.4-1.1.7zm-7 4.3l.4-2.4-.8.5zm2.2 1.5l.4-2.2-.7.5zm3.5 5.1l.4-2.3-.7.5zm5.5-12.9l.7-4-1.3.9zm-3.9-7l1.5-3.8-1.4.6zm.4-4.6l2-5-2 .7zm-3.4-9.4l1.2-3.2-1.1.5zm2.5 42l.4-2.4-.7.5zm3.6-12.3l.5-2.1-.7.4zm-13.1-15.4l.5-2.1-.8.4zm2.6 18.3l.5-2.1-.8.4zm-1-9.3l.5-2.1-.7.4zm20.4-1.8l.4-2.3-.7.5zm-17 3.3l.4-2.2-.7.4zm2-3.1l.6-3.4-1 .7zm9.2.8l1-3.4-1.1.5zm2.6 8.4l.6-3-1 .6zm.2-6.4l.4-2.3-.7.5zm-3.7 9l.3-2.2-.7.5zm6.4.8l.4-2.3-.7.5zm1-7.2l.4-2.2-.7.5zm-4.6 17l.1-2.4-.6.6zm3.6-3.3l.4-2.3-.7.5zm-3.3-3.5l.3-2.3-.7.5zm-12.2-.4l.4-2.3-.7.5zm0-5.6l.4-2.2-.7.4zm9.8-3.2l.5-3-1 .6zm-16.7-8.2l.4-2.5-.8.6zm.6 6.4l.4-2.4-.8.5zm14.9 14l.4-2.2-.8.4zm-2-14.5l.7-4-1.3.9zm-5.2.5l.5-3.4-1 .7zm3.2 5.3l.5-3.4-1 .7zm.8 5.1l.5-2.6-.9.5zm7.2-17.2l1-2.4-1 .4zm4.9-2.7l1.2-2.9-1.1.5zm-6.5 0l1.5-3.7-1.4.5zm3-2l1.5-3.8-1.3.6zm-8.5-12.5l1.5-3.7-1.4.5zm2 2.8l1.5-3.7-1.4.6zm2 3.4l1.5-3.7-1.4.6zm1.8 3l1.5-3.8-1.4.6zm-9.2-15.5l1.3-3.2-1.2.5zm1 10.1l1.8-4.2-1.6.6zm.6-5.7l1.7-4.3-1.6.7zm14.8-96.2l2-2.2H294zm38-19l2.6-2.8h-1.5zm-3.4-1.7l3.6-4.1h-2zm-26.9 42.3l2-1.5-1-.1zm8-1.4l1.4-2-.9.2zm14.7-15.2l2.3-3.2-1.4.2zm-5.8 4.7l2.4-3.2-1.5.2zm-4.3-1.2l2.4-3.2-1.5.2zm11.2-14.8l2.4-3.2-1.5.2zm-10.3 20.8l1.5-2-1 .2zm12.7-18.9l1.4-2-.9.2zm6.1-10.1l1.5-2-1 .2zm-1.3 6.5l1.5-2-1 .1zm-4 7.8l1.5-2-1 .1zM317 183l1.4-2-.9.1zm13.4-47.8l1.6-1.8h-1zm-8 40.5l1.4-2-1 .2zm-13.7-.2l3-2.7-1.6-.1zm6-11.2l3.6-4h-2zm-21.8 2.2l2.3-.7-.8-.5zm9.5 10.4l2.4-.6-.8-.5zm-6.5 3.4l2.3-.6-.7-.5zm-5.7-9.2l3.3-.8-1-.7zm10-4.6l2.6-3-1.5.1zm-3.3 4l3.9-1-1.3-.8zm11.7-14l3.1-3.7-1.8.1zm6.6-11.6l2.4-2.7h-1.4zm3.5 19.8l2.4-3.2-1.5.1zm3.5-3.1l2.3-3.2-1.5.2zm6.4-11.4l2.4-3.2-1.5.2zm-24 18l3.6-4.1-2 .1zm-6.9-5.2l2.3-2.7h-1.3zm2.8 9.4l4-1-1.4-.8zm-6 2.7l3-.7-.9-.7zm13-4.5l4.2-3.2-2-.3zm2.2-4.8l3.5-4.1h-2zm15.7-28.3l2.5-2.9h-1.4zm.8 9.1l3.5-4h-2zm6 13.7l1.5-2-1 .2zm-24.1 1.6l3.5-4h-2zm4.8-5.3l3.5-4.1h-2zm6 2.3l3.6-4h-2zm-4.8 2.1l3.6-4h-2zm3.5-5.3l3.5-4h-2zm3-12.8l2.8-3.3-1.6.1zm6.7 26.1l1.4-2-.9.2zm-14.1-18.3l3.1-3.6-1.8.1zM324 142l2.5-2.9h-1.4zm-24 15.4l1.9-2.3h-1.1zm9.7-7.7l2.3-2.7h-1.3zm-4.4 5l2.3-2.6h-1.3zm-1.9 5.8l2.7-3h-1.5zm14.2-8.8l3.6-4h-2zm-.8-3.3l3.1-3.5h-1.7zm5.2 3.8l3.6-4h-2zm-.3-4.8l3.5-4h-2zm-68.6-21l.6 1.8.4-.6zm1 7l.5 1.8.4-.6zm-4.6-3.2l.6 1.8.3-.6zm20 15.2l2.2 1.2-.2-.9zm-11.1 1.8l1.7 1.8v-1zm-14-8.7l1.1 2.2.3-1zm-1-4.2l1.2 2.1.3-.9zm22.6 24.8l2.8 2-.2-1.2zm-8.2-25.1l.6 1.8.3-.6zm-9.1.2l1.1 2.2.3-.9zm3 19.7l3.3 2.4-.2-1.5zm-.6 2.6l3.2 2.4-.2-1.5zm24.6-7.2l2.2 1.2-.3-.8zm-27.6-3l1.6 2v-1zm6.2 1.2l2.6 3 .2-1.5zm13 9l2.7 2-.1-1.3zm9.4-2l2 1.2-.1-.8zm-5-3.4l2.1 1.2-.2-1zm-2.8 2.5l2.1 1.3-.2-1zm3.6 2.6l2.2 1.2-.3-.8zm3.6 3.5l2.1 1.2-.2-1zm-4.3.3l2.8 2-.2-1.3zm-16.5-21.3l1 2.2.4-.9zm-4 3.5l1.9 3.6.5-1.4zm-4.2-4.6l1.8 3.5.5-1.4zm4.7 1.2l1.1 2.2.3-.9zm12 1.4l1.2 2.1.3-.8zm-8.2 3l1.1 2.2.3-.8zm12.3 5.3l1.7 1.7v-.9zm-6.2.8l1.7 1.8v-1zm3.8 1.4l1.7 1.7v-.9zm-6-11.3l1.1 2.1.3-.8zm5 5.8l1 2.2.4-.9zm-4.9-1.3l1.2 2.1.3-.8zm-14.7-.8l1.6 1.8.1-.9zm1.6 5.7l1.5 1.9.1-1zm4.4-2.5l2.6 3 .1-1.4zm-3.5-3.9l2.6 3 .2-1.4zm10.8 8.5l2.6 3 .2-1.5zm-8.5-1l2.6 3 .2-1.6zm4 .5l4 3.6v-2zm9.2 2.8l2.7 2-.2-1.2zm-1.8 5.2l4.3 3.3-.2-2zm-5.5-4.2l4.3 3.2-.2-2zm-.1 3.1l4.3 3.3-.2-2zm5.4-2.3l2.7 2-.1-1.2zm-4.5 6.5l4.3 3.2-.2-2zm6.7 2.7l3.2 2.4-.2-1.5zm6.7-2l2.7 2-.1-1.2zM260 161l3.7 2.7-.3-1.7zm5.4 2l3.7 2.8-.2-1.8zm51.1 159l3.4-.3-1-.8zm11-2l2.2-.4-.7-.5zm-3-1.9l2.3-.5-.7-.4zm-9 7.5l2-.5-.7-.4zm14.2-4l1.9.2-.5-.6zm-4.2 1l1.9.2-.5-.6zm-5.7 1.3l2.6-.2-.8-.7zm2.6-2.5l2.6-.1-.7-.7zm-2.2-2.2l3.3-.2-1-.9zm1-2.5l1.9-.2-.5-.5zm-5.7 3l3.2-.8-1-.7zm-3.2 3.8l2.5-.6-.8-.5zm-.6-2.4l2.4-.5-.8-.5zm-40.2-.7l3.3-.3-1-.8zm10.8-2l2.3-.4-.7-.5zm-2.8-1.8l2.2-.5-.7-.5zm-9 7.4l1.8-.5-.6-.3zm14.1-4l1.9.2-.5-.5zm-4.2 1l1.9.2-.5-.5zm-5.7 1.3l2.6-.2-.8-.6zm2.6-2.5l2.6-.1-.7-.7zm-2.2-2.1l3.3-.3-1-.8zm1-2.6l2-.2-.6-.5zm-5.7 3l3.2-.8-1-.7zm-3.2 3.9l2.5-.6-.8-.6z"/></svg>